<?xml version="1.0" encoding="utf-8"?>
<!-- Generator: Adobe Illustrator 16.0.0, SVG Export Plug-In . SVG Version: 6.00 Build 0)  -->
<!DOCTYPE svg PUBLIC "-//W3C//DTD SVG 1.1 Tiny//EN" "http://www.w3.org/Graphics/SVG/1.1/DTD/svg11-tiny.dtd">
<svg version="1.1" baseProfile="tiny" id="Layer_1" xmlns="http://www.w3.org/2000/svg" xmlns:xlink="http://www.w3.org/1999/xlink"
	 x="0px" y="0px" viewBox="0 0 225.767 1062.063" xml:space="preserve">
<path fill="#E1CBA4" d="M0,2.332v318v25.531v292.776v25.224V982.17c80.312,0,111.453,79.894,111.453,79.894h1.594
	c0,0,28.838-79.894,112.72-79.894V663.862v-25.224V345.863v-25.531v-318H0z"/>
<g>
	<path fill="none" stroke="#FFFFFF" stroke-width="0.856" stroke-miterlimit="10" d="M8.182,315.607h6.237 M8.057,311.622h6.485
		 M8.181,307.636h6.237 M8.181,303.65h6.237 M8.057,299.665h6.486 M8.182,295.679h6.237 M8.182,291.692h6.237 M8.057,287.707h6.486
		 M8.181,283.721h6.237 M8.181,279.736h6.237 M8.057,275.75h6.486 M8.181,271.765h6.237 M8.181,267.778h6.237 M8.057,263.793h6.486
		 M8.181,259.808h6.237 M8.181,255.822h6.237 M8.057,251.835h6.486 M8.181,247.849h6.237 M8.181,243.864h6.237 M8.057,239.877h6.486
		 M8.181,235.893h6.237 M8.181,231.906h6.237 M8.057,227.92h6.486 M8.181,223.936h6.237 M8.181,219.95h6.237 M8.057,215.963h6.486
		 M8.181,211.979h6.237 M8.181,207.992h6.237 M8.057,204.007h6.486 M8.181,200.021h6.237 M8.181,196.036h6.237 M8.057,192.05h6.485
		 M8.181,188.063h6.237 M8.181,184.078h6.237 M8.057,180.093h6.486 M8.181,176.106h6.237 M8.181,172.121h6.237 M8.057,168.135h6.485
		 M8.181,164.148h6.237 M8.181,160.163h6.237 M8.057,156.178h6.486 M8.182,152.191h6.237 M8.182,148.207h6.237 M8.057,144.222h6.485
		 M8.181,140.234h6.237 M8.181,136.249h6.237 M8.057,132.264h6.486 M8.182,128.277h6.237 M8.182,124.292h6.237 M8.057,120.306h6.485
		 M8.181,116.321h6.237 M8.181,112.334h6.237 M8.057,108.349h6.486 M8.182,104.363h6.237 M8.182,100.376h6.237 M8.057,96.392h6.486
		 M8.181,92.406h6.237 M8.181,88.419h6.237 M8.057,84.435h6.486 M8.181,80.448h6.237 M8.181,76.462h6.237 M8.057,72.477h6.486
		 M8.181,68.491h6.237 M8.181,64.506h6.237 M8.057,60.52h6.486 M8.181,56.534h6.237 M8.181,52.549h6.237 M8.057,48.562h6.486
		 M8.181,44.576h6.237 M8.181,40.591h6.237 M8.057,36.604h6.486 M8.181,32.62h6.237 M8.181,28.634h6.237 M8.057,24.647h6.486
		 M8.181,20.662h6.237 M8.181,16.677h6.237 M8.057,12.69h6.486 M8.181,8.705h6.237 M8.181,4.719h6.237 M14.254,322.718V0.744
		L8.052,0.745v321.974"/>
	<line fill="none" stroke="#FFFFFF" stroke-width="0.892" stroke-miterlimit="10" x1="5.354" y1="320.087" x2="5.354" y2="0"/>
	<path fill="none" stroke="#FFFFFF" stroke-width="0.856" stroke-miterlimit="10" d="M216.925,315.607h-6.236 M217.05,311.622
		h-6.484 M216.926,307.636h-6.236 M216.926,303.65h-6.236 M217.052,299.665h-6.487 M216.925,295.679h-6.236 M216.925,291.692h-6.236
		 M217.05,287.707h-6.485 M216.926,283.721h-6.236 M216.926,279.736h-6.236 M217.05,275.75h-6.485 M216.926,271.765h-6.236
		 M216.926,267.778h-6.236 M217.05,263.793h-6.485 M216.926,259.808h-6.236 M216.926,255.822h-6.236 M217.05,251.835h-6.485
		 M216.926,247.849h-6.236 M216.926,243.864h-6.236 M217.05,239.877h-6.485 M216.926,235.893h-6.236 M216.926,231.906h-6.236
		 M217.05,227.92h-6.485 M216.926,223.936h-6.236 M216.926,219.95h-6.236 M217.05,215.963h-6.485 M216.926,211.979h-6.236
		 M216.926,207.992h-6.236 M217.05,204.007h-6.485 M216.926,200.021h-6.236 M216.926,196.036h-6.236 M217.05,192.05h-6.484
		 M216.926,188.063h-6.236 M216.926,184.078h-6.236 M217.052,180.093h-6.487 M216.926,176.106h-6.236 M216.926,172.121h-6.236
		 M217.05,168.135h-6.484 M216.926,164.148h-6.236 M216.926,160.163h-6.236 M217.052,156.178h-6.487 M216.925,152.191h-6.236
		 M216.925,148.207h-6.236 M217.05,144.222h-6.484 M216.926,140.234h-6.236 M216.926,136.249h-6.236 M217.052,132.264h-6.487
		 M216.925,128.277h-6.236 M216.925,124.292h-6.236 M217.05,120.306h-6.484 M216.926,116.321h-6.236 M216.926,112.334h-6.236
		 M217.052,108.349h-6.487 M216.925,104.363h-6.236 M216.925,100.376h-6.236 M217.05,96.392h-6.485 M216.926,92.406h-6.236
		 M216.926,88.419h-6.236 M217.05,84.435h-6.485 M216.926,80.448h-6.236 M216.926,76.462h-6.236 M217.05,72.477h-6.485
		 M216.926,68.491h-6.236 M216.926,64.506h-6.236 M217.05,60.52h-6.485 M216.926,56.534h-6.236 M216.926,52.549h-6.236
		 M217.05,48.562h-6.485 M216.926,44.576h-6.236 M216.926,40.591h-6.236 M217.05,36.604h-6.485 M216.926,32.62h-6.236
		 M216.926,28.634h-6.236 M217.05,24.647h-6.485 M216.926,20.662h-6.236 M216.926,16.677h-6.236 M217.05,12.69h-6.485
		 M216.926,8.705h-6.236 M216.926,4.719h-6.236 M210.854,321.761V0.744l6.202,0.001V321.76"/>
	<line fill="none" stroke="#FFFFFF" stroke-width="0.892" stroke-miterlimit="10" x1="219.521" y1="319.095" x2="219.521" y2="0"/>
</g>
<g>
	<path fill="none" stroke="#FFFFFF" stroke-width="0.856" stroke-miterlimit="10" d="M8.182,634.326h6.237 M8.057,630.341h6.485
		 M8.181,626.354h6.237 M8.181,622.369h6.237 M8.057,618.384h6.486 M8.182,614.397h6.237 M8.182,610.411h6.237 M8.057,606.426h6.486
		 M8.181,602.439h6.237 M8.181,598.455h6.237 M8.057,594.469h6.486 M8.181,590.483h6.237 M8.181,586.497h6.237 M8.057,582.513h6.486
		 M8.181,578.526h6.237 M8.181,574.54h6.237 M8.057,570.555h6.486 M8.181,566.567h6.237 M8.181,562.582h6.237 M8.057,558.597h6.486
		 M8.181,554.611h6.237 M8.181,550.624h6.237 M8.057,546.64h6.486 M8.181,542.654h6.237 M8.181,538.668h6.237 M8.057,534.683h6.486
		 M8.181,530.697h6.237 M8.181,526.71h6.237 M8.057,522.726h6.486 M8.181,518.739h6.237 M8.181,514.754h6.237 M8.057,510.769h6.485
		 M8.181,506.782h6.237 M8.181,502.796h6.237 M8.057,498.812h6.486 M8.181,494.825h6.237 M8.181,490.839h6.237 M8.057,486.854h6.485
		 M8.181,482.867h6.237 M8.181,478.882h6.237 M8.057,474.896h6.486 M8.182,470.91h6.237 M8.182,466.925h6.237 M8.057,462.94h6.485
		 M8.181,458.953h6.237 M8.181,454.968h6.237 M8.057,450.982h6.486 M8.182,446.996h6.237 M8.182,443.011h6.237 M8.057,439.025h6.485
		 M8.181,435.041h6.237 M8.181,431.054h6.237 M8.057,427.068h6.486 M8.182,423.083h6.237 M8.182,419.096h6.237 M8.057,415.111h6.486
		 M8.181,411.125h6.237 M8.181,407.139h6.237 M8.057,403.154h6.486 M8.181,399.167h6.237 M8.181,395.182h6.237 M8.057,391.196h6.486
		 M8.181,387.21h6.237 M8.181,383.225h6.237 M8.057,379.239h6.486 M8.181,375.253h6.237 M8.181,371.269h6.237 M8.057,367.282h6.486
		 M8.181,363.295h6.237 M8.181,359.311h6.237 M8.057,355.324h6.486 M8.181,351.339h6.237 M8.181,347.354h6.237 M8.057,343.367h6.486
		 M8.181,339.381h6.237 M8.181,335.396h6.237 M8.057,331.41h6.486 M8.181,327.424h6.237 M8.181,323.438h6.237 M14.254,642.228
		V319.463l-6.202,0.001v323.464"/>
	<line fill="none" stroke="#FFFFFF" stroke-width="0.892" stroke-miterlimit="10" x1="5.354" y1="642.45" x2="5.354" y2="318.72"/>
	<path fill="none" stroke="#FFFFFF" stroke-width="0.856" stroke-miterlimit="10" d="M216.925,634.326h-6.236 M217.05,630.341
		h-6.484 M216.926,626.354h-6.236 M216.926,622.369h-6.236 M217.052,618.384h-6.487 M216.925,614.397h-6.236 M216.925,610.411
		h-6.236 M217.05,606.426h-6.485 M216.926,602.439h-6.236 M216.926,598.455h-6.236 M217.05,594.469h-6.485 M216.926,590.483h-6.236
		 M216.926,586.497h-6.236 M217.05,582.513h-6.485 M216.926,578.526h-6.236 M216.926,574.54h-6.236 M217.05,570.555h-6.485
		 M216.926,566.567h-6.236 M216.926,562.582h-6.236 M217.05,558.597h-6.485 M216.926,554.611h-6.236 M216.926,550.624h-6.236
		 M217.05,546.64h-6.485 M216.926,542.654h-6.236 M216.926,538.668h-6.236 M217.05,534.683h-6.485 M216.926,530.697h-6.236
		 M216.926,526.71h-6.236 M217.05,522.726h-6.485 M216.926,518.739h-6.236 M216.926,514.754h-6.236 M217.05,510.769h-6.484
		 M216.926,506.782h-6.236 M216.926,502.796h-6.236 M217.052,498.812h-6.487 M216.926,494.825h-6.236 M216.926,490.839h-6.236
		 M217.05,486.854h-6.484 M216.926,482.867h-6.236 M216.926,478.882h-6.236 M217.052,474.896h-6.487 M216.925,470.91h-6.236
		 M216.925,466.925h-6.236 M217.05,462.94h-6.484 M216.926,458.953h-6.236 M216.926,454.968h-6.236 M217.052,450.982h-6.487
		 M216.925,446.996h-6.236 M216.925,443.011h-6.236 M217.05,439.025h-6.484 M216.926,435.041h-6.236 M216.926,431.054h-6.236
		 M217.052,427.068h-6.487 M216.925,423.083h-6.236 M216.925,419.096h-6.236 M217.05,415.111h-6.485 M216.926,411.125h-6.236
		 M216.926,407.139h-6.236 M217.05,403.154h-6.485 M216.926,399.167h-6.236 M216.926,395.182h-6.236 M217.05,391.196h-6.485
		 M216.926,387.21h-6.236 M216.926,383.225h-6.236 M217.05,379.239h-6.485 M216.926,375.253h-6.236 M216.926,371.269h-6.236
		 M217.05,367.282h-6.485 M216.926,363.295h-6.236 M216.926,359.311h-6.236 M217.05,355.324h-6.485 M216.926,351.339h-6.236
		 M216.926,347.354h-6.236 M217.05,343.367h-6.485 M216.926,339.381h-6.236 M216.926,335.396h-6.236 M217.05,331.41h-6.485
		 M216.926,327.424h-6.236 M216.926,323.438h-6.236 M210.854,643.201V319.463l6.202,0.001v323.464"/>
	
		<line fill="none" stroke="#FFFFFF" stroke-width="0.892" stroke-miterlimit="10" x1="219.521" y1="642.201" x2="219.521" y2="318.72"/>
</g>
<path fill="none" stroke="#FFFFFF" stroke-width="0.856" stroke-miterlimit="10" d="M109.129,1038.46l0.784-10.505
	 M105.852,1032.461l0.746-9.976 M102.787,1027.474l0.705-9.446 M99.511,1022.92l0.705-9.445 M96.108,1017.943l0.945-8.434
	 M92.559,1013.668l1.168-7.496 M89.047,1009.918l1.433-6.973 M85.515,1006.63l1.764-6.951 M81.993,1003.662l1.926-6.411
	 M78.597,1000.475l2.111-5.766 M75.11,997.764l2.461-5.62 M71.6,995.314l2.575-5.564 M67.592,993.182l2.983-5.347 M64.068,990.869
	l2.983-5.349 M60.11,988.826l3.136-5.618 M56.455,986.52l3.119-5.633 M52.754,984.675l2.914-5.331 M48.565,983.332l3.104-5.467
	 M44.648,981.595l3.267-5.542 M40.708,980.059l3.119-5.206 M36.289,978.994l3.559-5.606 M31.823,977.759l3.77-5.443 M27.33,976.584
	l3.892-5.617 M22.996,975.282l3.891-5.616 M18.345,974.416l4.233-6.111 M13.588,974.091l4.459-6.438 M8.659,973.329l5.724-6.334
	 M7.864,967.566l6.261-2.85 M8.14,961.958l6.45-0.702 M8.182,957.34h6.237 M8.182,953.354h6.237 M8.057,949.369h6.485
	 M8.181,945.383h6.237 M8.181,941.397h6.237 M8.057,937.412h6.486 M8.182,933.426h6.237 M8.182,929.439h6.237 M8.057,925.454h6.486
	 M8.181,921.468h6.237 M8.181,917.483h6.237 M8.057,913.497h6.486 M8.181,909.512h6.237 M8.181,905.525h6.237 M8.057,901.541h6.486
	 M8.181,897.555h6.237 M8.181,893.568h6.237 M8.057,889.583h6.486 M8.181,885.596h6.237 M8.181,881.61h6.237 M8.057,877.625h6.486
	 M8.181,873.64h6.237 M8.181,869.652h6.237 M8.057,865.668h6.486 M8.181,861.683h6.237 M8.181,857.696h6.237 M8.057,853.711h6.486
	 M8.181,849.726h6.237 M8.181,845.738h6.237 M8.057,841.754h6.486 M8.181,837.768h6.237 M8.181,833.782h6.237 M8.057,829.797h6.485
	 M8.181,825.811h6.237 M8.181,821.824h6.237 M8.057,817.84h6.486 M8.181,813.854h6.237 M8.181,809.867h6.237 M8.057,805.882h6.485
	 M8.181,801.896h6.237 M8.181,797.91h6.237 M8.057,793.925h6.486 M8.182,789.938h6.237 M8.182,785.954h6.237 M8.057,781.969h6.485
	 M8.181,777.981h6.237 M8.181,773.996h6.237 M8.057,770.011h6.486 M8.182,766.024h6.237 M8.182,762.039h6.237 M8.057,758.053h6.485
	 M8.181,754.067h6.237 M8.181,750.082h6.237 M8.057,746.096h6.486 M8.182,742.109h6.237 M8.182,738.124h6.237 M8.057,734.139h6.486
	 M8.181,730.152h6.237 M8.181,726.167h6.237 M8.057,722.182h6.486 M8.181,718.194h6.237 M8.181,714.21h6.237 M8.057,710.224h6.486
	 M8.181,706.237h6.237 M8.181,702.253h6.237 M8.057,698.267h6.486 M8.181,694.28h6.237 M8.181,690.296h6.237 M8.057,686.31h6.486
	 M8.181,682.322h6.237 M8.181,678.338h6.237 M8.057,674.352h6.486 M8.181,670.366h6.237 M8.181,666.381h6.237 M8.057,662.395h6.486
	 M8.181,658.408h6.237 M8.181,654.424h6.237 M8.057,650.438h6.486 M8.181,646.451h6.237 M8.181,642.466h6.237 M8.052,638.492
	v334.824c0,0,74.413,2.313,104.291,72.284v-8.097v-3.468c0,0-16.913-52.624-98.089-67.081V638.49L8.052,638.492z"/>
<path fill="none" stroke="#FFFFFF" stroke-width="0.892" stroke-miterlimit="10" d="M112.253,1051.165
	c0,0-25.694-70.838-106.899-75.176V637.747"/>
<path fill="none" stroke="#FFFFFF" stroke-width="0.856" stroke-miterlimit="10" d="M115.979,1038.46l-0.784-10.505
	 M119.256,1032.461l-0.745-9.976 M122.319,1027.474l-0.703-9.446 M125.597,1022.92l-0.705-9.445 M128.999,1017.943l-0.944-8.434
	 M132.549,1013.668l-1.168-7.496 M136.061,1009.918l-1.433-6.973 M139.593,1006.63l-1.764-6.951 M143.114,1003.662l-1.927-6.411
	 M146.511,1000.475l-2.111-5.766 M149.997,997.764l-2.461-5.62 M153.508,995.314l-2.575-5.564 M157.515,993.182l-2.982-5.347
	 M161.04,990.869l-2.984-5.349 M164.997,988.826l-3.135-5.618 M168.653,986.52l-3.119-5.633 M172.354,984.675l-2.914-5.331
	 M176.542,983.332l-3.104-5.467 M180.46,981.595l-3.268-5.542 M184.399,980.059l-3.119-5.206 M188.819,978.994l-3.56-5.606
	 M193.284,977.759l-3.77-5.443 M197.778,976.584l-3.893-5.617 M202.112,975.282l-3.893-5.616 M206.763,974.416l-4.232-6.111
	 M211.52,974.091l-4.459-6.438 M216.448,973.329l-5.724-6.334 M217.243,967.566l-6.262-2.85 M216.968,961.958l-6.45-0.702
	 M216.925,957.34h-6.236 M216.925,953.354h-6.236 M217.05,949.369h-6.484 M216.926,945.383h-6.236 M216.926,941.397h-6.236
	 M217.052,937.412h-6.487 M216.925,933.426h-6.236 M216.925,929.439h-6.236 M217.05,925.454h-6.485 M216.926,921.468h-6.236
	 M216.926,917.483h-6.236 M217.05,913.497h-6.485 M216.926,909.512h-6.236 M216.926,905.525h-6.236 M217.05,901.541h-6.485
	 M216.926,897.555h-6.236 M216.926,893.568h-6.236 M217.05,889.583h-6.485 M216.926,885.596h-6.236 M216.926,881.61h-6.236
	 M217.05,877.625h-6.485 M216.926,873.64h-6.236 M216.926,869.652h-6.236 M217.05,865.668h-6.485 M216.926,861.683h-6.236
	 M216.926,857.696h-6.236 M217.05,853.711h-6.485 M216.926,849.726h-6.236 M216.926,845.738h-6.236 M217.05,841.754h-6.485
	 M216.926,837.768h-6.236 M216.926,833.782h-6.236 M217.05,829.797h-6.484 M216.926,825.811h-6.236 M216.926,821.824h-6.236
	 M217.052,817.84h-6.487 M216.926,813.854h-6.236 M216.926,809.867h-6.236 M217.05,805.882h-6.484 M216.926,801.896h-6.236
	 M216.926,797.91h-6.236 M217.052,793.925h-6.487 M216.925,789.938h-6.236 M216.925,785.954h-6.236 M217.05,781.969h-6.484
	 M216.926,777.981h-6.236 M216.926,773.996h-6.236 M217.052,770.011h-6.487 M216.925,766.024h-6.236 M216.925,762.039h-6.236
	 M217.05,758.053h-6.484 M216.926,754.067h-6.236 M216.926,750.082h-6.236 M217.052,746.096h-6.487 M216.925,742.109h-6.236
	 M216.925,738.124h-6.236 M217.05,734.139h-6.485 M216.926,730.152h-6.236 M216.926,726.167h-6.236 M217.05,722.182h-6.485
	 M216.926,718.194h-6.236 M216.926,714.21h-6.236 M217.05,710.224h-6.485 M216.926,706.237h-6.236 M216.926,702.253h-6.236
	 M217.05,698.267h-6.485 M216.926,694.28h-6.236 M216.926,690.296h-6.236 M217.05,686.31h-6.485 M216.926,682.322h-6.236
	 M216.926,678.338h-6.236 M217.05,674.352h-6.485 M216.926,670.366h-6.236 M216.926,666.381h-6.236 M217.05,662.395h-6.485
	 M216.926,658.408h-6.236 M216.926,654.424h-6.236 M217.05,650.438h-6.485 M216.926,646.451h-6.236 M216.926,642.466h-6.236
	 M217.056,638.492v334.824c0,0-74.413,2.313-104.291,72.284v-8.097v-3.468c0,0,16.913-52.624,98.089-67.081V638.49L217.056,638.492z
	"/>
<path fill="none" stroke="#FFFFFF" stroke-width="0.892" stroke-miterlimit="10" d="M112.622,1051.165
	c0,0,25.694-70.838,106.899-75.176V637.747"/>
<path fill="#FFFFFF" d="M118.767,1000.312c0.033-0.027,0.064-0.057,0.107-0.093c-0.197-0.098-0.386-0.191-0.574-0.284
	c-0.197-0.095-0.232-0.153-0.176-0.37c0.15-0.6,0.309-1.196,0.465-1.795c0.01-0.043,0.019-0.086,0.03-0.137
	c-0.053,0.011-0.09,0.019-0.127,0.027c-0.493,0.108-0.985,0.218-1.479,0.326c-0.203,0.045-0.317-0.025-0.373-0.228
	c-0.047-0.172-0.092-0.345-0.139-0.517c-0.02-0.067-0.039-0.133-0.062-0.211c-0.03,0.034-0.048,0.055-0.067,0.076
	c-0.417,0.488-0.834,0.979-1.255,1.467c-0.049,0.057-0.116,0.107-0.185,0.139c-0.125,0.055-0.24-0.003-0.27-0.134
	c-0.019-0.081-0.023-0.171-0.01-0.251c0.146-0.841,0.299-1.68,0.45-2.521c0.04-0.227,0.081-0.454,0.122-0.691
	c-0.031,0.015-0.051,0.023-0.07,0.034c-0.246,0.132-0.488,0.269-0.738,0.396c-0.246,0.126-0.397,0.073-0.522-0.169
	c-0.318-0.62-0.635-1.24-0.953-1.86c-0.018-0.034-0.037-0.068-0.061-0.112c-0.021,0.038-0.036,0.064-0.051,0.093
	c-0.185,0.363-0.372,0.725-0.558,1.088c-0.144,0.282-0.287,0.565-0.434,0.846c-0.084,0.159-0.205,0.211-0.377,0.161
	c-0.063-0.018-0.123-0.048-0.181-0.078c-0.219-0.116-0.436-0.235-0.654-0.354c-0.027-0.015-0.053-0.026-0.088-0.044
	c0.002,0.024,0.002,0.037,0.004,0.049c0.185,1.025,0.372,2.049,0.554,3.074c0.017,0.104,0.023,0.214,0.007,0.316
	c-0.026,0.161-0.162,0.224-0.305,0.146c-0.067-0.037-0.126-0.093-0.177-0.152c-0.414-0.479-0.824-0.964-1.236-1.446
	c-0.019-0.021-0.039-0.042-0.066-0.071c-0.069,0.253-0.133,0.488-0.197,0.724c-0.057,0.207-0.169,0.276-0.379,0.229
	c-0.382-0.084-0.765-0.169-1.148-0.253c-0.148-0.033-0.296-0.064-0.454-0.099c0.008,0.037,0.012,0.059,0.017,0.079
	c0.137,0.522,0.275,1.043,0.41,1.565c0.033,0.125,0.067,0.249,0.086,0.376c0.022,0.14-0.019,0.199-0.146,0.262
	c-0.183,0.088-0.366,0.178-0.549,0.268c-0.021,0.011-0.04,0.025-0.066,0.041c0.04,0.035,0.073,0.063,0.106,0.093
	c0.899,0.765,1.797,1.531,2.701,2.292c0.19,0.159,0.249,0.337,0.17,0.572c-0.083,0.246-0.148,0.498-0.221,0.753
	c0.02,0.002,0.033,0.005,0.044,0.003c0.742-0.089,1.483-0.179,2.225-0.269c0.193-0.023,0.386-0.05,0.58-0.067
	c0.101-0.009,0.169,0.045,0.211,0.116l-0.218,3.308h0.745l-0.161-3.325c0.042-0.062,0.103-0.104,0.195-0.099
	c0.025,0,0.05,0.003,0.075,0.007c0.807,0.098,1.614,0.195,2.42,0.294c0.113,0.013,0.227,0.024,0.35,0.039
	c-0.078-0.271-0.148-0.528-0.229-0.781c-0.069-0.219-0.016-0.387,0.158-0.535C116.954,1001.857,117.859,1001.084,118.767,1000.312"
	/>
</svg>
