<svg xmlns="http://www.w3.org/2000/svg" viewBox="0 0 402.37 299.18"><defs><style>.a{fill:#fff;}</style></defs><title>bird-up</title><path class="a" d="M365.33,194.94a168.32,168.32,0,0,0-11.87-17.6c-3.87-4.94-9.87-5.57-15.69-5.45a29,29,0,0,0-21,9.29c-5.53,5.74-11.21,11.33-16.81,17a29.82,29.82,0,0,1-15,7.94c-3.9.9-7.78,1.91-12,3l8.53,19.64-.6.38c-.73-.82-1.47-1.63-2.18-2.47a93.55,93.55,0,0,1-20.29-41.94c-2.66-12.5-5.2-24.89-5.24-37.74a25.66,25.66,0,0,0-11.69-22.14c-11.88-8.21-23.57-16.7-35.46-24.88-17.92-12.34-32.21-28.24-45-45.61C156.18,47.66,153.3,40,151.35,32A40.42,40.42,0,0,0,149,24.4a11.3,11.3,0,0,0-3.63-4.23c-2.1-1.48-4.91-.82-5.16,1.52-.87,7.94-5.64,15.39-3.8,23.5,1.44,6.35,3.22,13,6.55,18.48,7,11.57,14.57,23,25.63,31.39,4.73,3.6,9.37,7.33,14,11a2.6,2.6,0,0,1,1.08,1.78c-4.71-3-9.27-6.35-14.16-9.05a90.67,90.67,0,0,0-12.14-5.19c-3-1.14-6.22-1.87-9.33-2.84-1.53-.48-2.9-1.9-4.58-.14s-2.27,3.82-1,5.79c3.28,4.93,6.42,10,10.33,14.44,7.64,8.6,17.52,14.38,27.25,20.27,3.76,2.28,7.5,4.58,11.09,7.18-8-2.53-15.82-5.48-22.65-10.43-6.05-4.38-12.68-5.62-19.93-4.61-2.1.29-3,.88-2.88,3.4A14.77,14.77,0,0,0,151,137.47c8.81,8.17,17.63,16.35,28.83,21.23,3.47,1.51,7.13,2.56,11.61,4.14a11.52,11.52,0,0,1-2.7.3c-4.24-.91-8.47-1.89-12.7-2.86-.83-.19-1.64-.48-2.47-.62-3.95-.66-10.44,1.35-11.14,3.93-1,3.66.85,6.87,3.14,9.61,3.65,4.37,8.58,6.89,13.86,8.69,7.63,2.6,15.32,5,23,7.57a6,6,0,0,1,3.12,2.2l-.74-.14A1.91,1.91,0,0,1,203,194c-3.54.13-6.65,1.66-9.74,3.29h1.52l.35,1.36-8.17,3.87a17.64,17.64,0,0,0,16.5,13.93c8.05.36,16.11.76,24.25,1.58a9.25,9.25,0,0,1-2.52.86c-7.29.26-9.11,6.26-11.77,11.28-.36.68.08,2.07.56,2.88,2.95,4.95,8.79,7.17,15,5.18,4.07-1.29,7.85-3.47,11.68-5.21-2.86,5.72-11.12,9.77-18.76,9.11-5.2-.45-9.67-2.32-12.88-6.62-2.63-3.53-2.4-6.2.78-9.23a19.51,19.51,0,0,0,1.83-1.77c1.68-2.09.88-4.47-1.76-5.06a14.4,14.4,0,0,0-3.48-.2A418.37,418.37,0,0,1,151,216.77a11.16,11.16,0,0,0-3.18-.06c-8.71,1.6-16.33-1.26-23.61-5.6-15.05-9-30.14-17.86-45.15-26.89a108.3,108.3,0,0,0-25.77-11.54,3,3,0,0,0-2.25.14c3.21,3.27,6.23,6.75,9.66,9.77,11.58,10.16,23.38,20,37.15,27.26a30.89,30.89,0,0,1,12.78,12.56c1.4,2.49,3.77,4.44,5.54,6.93-9.51-1.77-18.06,2.4-27,3.45-12.64,1.48-25.38,2.12-38,3.38-3.9.39-7.72,1.64-11.58,2.5q0,.69.08,1.37c7.77,1.23,15.51,2.75,23.31,3.63,27.32,3.09,54.67,5.93,82,8.93a34.2,34.2,0,0,1,17.38,7.31c8.49,6.55,16.86,13.31,25.77,19.26,4.14,2.77,9.42,3.82,14.12,5.63-2,1.76-.1,3.34,1.87,4.5,2.26,1.33,4.65,2.83,7.17,3.29,32.07,5.92,61.61-.26,88.15-19.34,3.68-2.65,6.61-6.59,9.27-10.36,3.6-5.11,6.61-10.64,9.86-16,1.65-2.71,1.3-10.59-1.13-12.57a7.82,7.82,0,0,0-5.74-1.3,32.09,32.09,0,0,0-16.37,8.67C289.2,247.62,283,253.4,277,259.46a61.19,61.19,0,0,1-29.94,17.24c-7,1.67-13.91,3.68-20.86,5.53l-.29-.85c5.61-2.09,11.11-4.55,16.85-6.19,13.35-3.81,24.48-11.09,34.07-20.91,4.6-4.71,9-9.61,13.61-14.32a39.72,39.72,0,0,1,17.77-10.17c6-1.73,11.08.08,15.45,4.32.68.66,1.31,1.38,2.21,2.34,2.68-2.11,5.65-3.9,7.8-6.4,1-1.15,1.16-4.15.36-5.52-5-8.48,2.33-17.78,12.66-16.49,7.37.92,14.79,1.53,22.18,2.25,4.48.44,7.2-.67,10.5-4.48-1.64-1-3.1-2.22-4.78-2.73C370.21,201.74,367.63,198.78,365.33,194.94Zm-18.45,1.17c-3.35,0-6.15-1.92-6.2-4.14,0-2.06,2-3.67,4.72-3.68,3.35,0,5.71,1.95,5.59,4.73S348.52,195.68,346.89,196.12Z"/><path class="a" d="M256.44,97.18c-4.95-12.6-9.94-25.17-14.81-37.8-2.25-5.83-4.76-11.64-6.2-17.69-1-4.29-.45-9-.61-13.45a23.77,23.77,0,0,0-.26-4.35c-1.51-6.73-1.21-13.21,2.2-19.7a29.79,29.79,0,0,1,12.68,16.67c3,10.15,5.69,20.43,9,30.51,6.37,19.58,15.79,37.68,27,55a131.42,131.42,0,0,1,9.85,19.19A13.81,13.81,0,0,1,293.4,140c-9.33,11.59-12.3,25.42-14.48,39.54-1,6.71-1.71,13.47-2.62,20.2-.24,1.79-.65,4-3,3.62-1.77-.3-3.42-1.56-5-2.59-.5-.33-.67-1.31-.81-2-3.14-15.48-6.34-30.94-9.31-46.45-.85-4.46-.78-9.1-1.56-13.57-1.34-7.67-5.53-13.7-11.68-18.36-3.21-2.43-6.54-4.72-9.92-6.9A40.43,40.43,0,0,1,220.74,98c-3.26-6.3-6.23-12.76-9.15-19.24a15.58,15.58,0,0,1-1.65-6.4c0-1.88.84-4.73,2.16-5.36a6.68,6.68,0,0,1,6,.92c2.57,2.25,4.45,5.32,6.47,8.15s3.69,5.61,5.52,8.43l.84-.48c-.61-1.09-1.27-2.17-1.84-3.28a107.37,107.37,0,0,1-11.73-40c-.25-2.9,1.61-6,2.65-9.46,6.15,5.15,10.26,10.61,11.6,18A132.47,132.47,0,0,0,235,62.11a4.34,4.34,0,0,0,1.77,2.46c4,2.16,6,5.76,7.84,9.7,3.13,6.84,6.45,13.59,9.72,20.37A25.78,25.78,0,0,0,256,97.3Z"/><path class="a" d="M356.88,211.57c-3,6.43-6.76,10.69-13.48,11.32-2.15.2-4.21-.12-5.07-2.33a5,5,0,0,1,1.53-6c2.56-2.29,5.57-2.94,8.83-3C351.22,211.55,353.76,211.57,356.88,211.57Z"/><path d="M0,238.36A54.63,54.63,0,0,1,19.75,235a506,506,0,0,0,70.52-4.56c4.71-.67,9.21-1.91,12.56-5.5a3.88,3.88,0,0,0,.72-3.47,20.41,20.41,0,0,0-4.45-6.35c-3.79-3.22-8.09-5.83-12-8.91s-7.89-6.71-11.92-10c-5.95-4.8-12-9.45-18-14.22-4.64-3.72-9.13-7.64-13.84-11.27-4.26-3.28-6.4-7.76-8.1-13,3.61,2.43,6.81,4.93,10.31,6.87,6.86,3.81,14,7.13,20.83,11,12.19,6.89,24.17,14.15,36.37,21,8.22,4.63,16.62,9,25,13.22a49.53,49.53,0,0,0,20.57,5c11.24.46,22.47,1.2,33.71,1.81,1.14.06,2.28,0,3.91,0l-3.54-12c-1.57-5.31-.39-7,5.19-7.34,2.37-.13,4.75,0,7.13,0l.35,1.36-8.17,3.87a17.65,17.65,0,0,0,16.5,13.93c8.05.36,16.11.76,24.25,1.58a9.23,9.23,0,0,1-2.52.86c-7.29.26-9.11,6.26-11.77,11.28-.36.68.08,2.07.56,2.88,2.95,4.95,8.79,7.17,15,5.18,4.07-1.29,7.85-3.47,11.68-5.21-2.86,5.72-11.12,9.77-18.76,9.11-5.2-.45-9.67-2.32-12.88-6.62-2.63-3.54-2.4-6.2.78-9.24a19.51,19.51,0,0,0,1.83-1.77c1.68-2.09.88-4.47-1.76-5.06a14.46,14.46,0,0,0-3.48-.2A418.39,418.39,0,0,1,151,216.77a11.19,11.19,0,0,0-3.18-.06c-8.71,1.6-16.33-1.26-23.61-5.6-15.05-9-30.14-17.86-45.15-26.89a108.3,108.3,0,0,0-25.77-11.54,3,3,0,0,0-2.25.14c3.21,3.27,6.23,6.75,9.66,9.77,11.58,10.16,23.38,20,37.15,27.26a30.89,30.89,0,0,1,12.78,12.56c1.4,2.49,3.77,4.44,5.54,6.93-9.51-1.77-18.06,2.4-27,3.45-12.64,1.48-25.38,2.12-38,3.38-3.9.39-7.72,1.65-11.58,2.5q0,.69.08,1.37c7.77,1.23,15.51,2.75,23.31,3.63,27.32,3.09,54.67,5.93,82,8.93a34.19,34.19,0,0,1,17.38,7.31c8.49,6.55,16.86,13.31,25.76,19.26,4.14,2.77,9.42,3.82,14.12,5.63-2,1.76-.1,3.34,1.87,4.51,2.26,1.33,4.65,2.83,7.17,3.29,32.07,5.92,61.61-.26,88.15-19.34,3.68-2.65,6.61-6.59,9.27-10.36,3.6-5.11,6.61-10.64,9.86-16,1.65-2.71,1.3-10.59-1.13-12.57a7.82,7.82,0,0,0-5.74-1.3,32.09,32.09,0,0,0-16.37,8.67C289.2,247.62,283,253.41,277,259.47a61.18,61.18,0,0,1-29.94,17.24c-7,1.67-13.91,3.68-20.86,5.53l-.29-.85c5.61-2.09,11.11-4.55,16.85-6.19,13.35-3.81,24.48-11.09,34.07-20.91,4.6-4.71,9-9.61,13.61-14.32a39.72,39.72,0,0,1,17.77-10.17c6-1.73,11.08.08,15.45,4.32.68.66,1.31,1.38,2.21,2.34,2.68-2.11,5.65-3.9,7.8-6.4,1-1.15,1.16-4.15.36-5.52-5-8.48,2.33-17.78,12.66-16.49,7.37.92,14.79,1.53,22.18,2.25,4.48.44,7.2-.67,10.5-4.48-1.64-1-3.1-2.22-4.78-2.73-4.39-1.34-7-4.3-9.26-8.14a168.32,168.32,0,0,0-11.87-17.6c-3.87-4.94-9.87-5.57-15.69-5.45a29,29,0,0,0-21,9.29c-5.53,5.74-11.21,11.33-16.81,17a29.82,29.82,0,0,1-15,7.94c-3.9.9-7.78,1.91-12,3l8.53,19.64-.6.38c-.73-.82-1.47-1.63-2.18-2.47a93.55,93.55,0,0,1-20.29-41.94c-2.66-12.5-5.2-24.89-5.24-37.74a25.66,25.66,0,0,0-11.69-22.14c-11.88-8.21-23.57-16.7-35.46-24.88-17.92-12.34-32.21-28.24-45-45.61C156.18,47.67,153.3,40,151.35,32A40.42,40.42,0,0,0,149,24.41a11.3,11.3,0,0,0-3.63-4.23c-2.1-1.48-4.91-.82-5.16,1.52-.87,7.94-5.64,15.39-3.8,23.5,1.44,6.35,3.22,13,6.55,18.48,7,11.57,14.57,23,25.63,31.39,4.73,3.6,9.37,7.33,14,11a2.6,2.6,0,0,1,1.08,1.78c-4.71-3-9.27-6.35-14.16-9.05a90.67,90.67,0,0,0-12.14-5.19c-3-1.14-6.22-1.87-9.33-2.84-1.53-.48-2.9-1.9-4.58-.14s-2.27,3.82-1,5.79c3.28,4.93,6.42,10,10.33,14.44,7.64,8.6,17.52,14.38,27.25,20.27,3.76,2.28,7.5,4.58,11.09,7.18-8-2.53-15.82-5.48-22.65-10.43-6.05-4.38-12.68-5.62-19.93-4.61-2.1.29-3,.88-2.88,3.4A14.77,14.77,0,0,0,151,137.48c8.81,8.17,17.63,16.35,28.83,21.23,3.47,1.51,7.13,2.56,11.61,4.14a11.52,11.52,0,0,1-2.7.3c-4.24-.91-8.47-1.89-12.7-2.86-.83-.19-1.64-.48-2.47-.62-3.95-.66-10.44,1.35-11.14,3.93-1,3.66.85,6.87,3.14,9.61,3.65,4.37,8.58,6.89,13.86,8.69,7.63,2.6,15.32,5,23,7.57a6,6,0,0,1,3.12,2.2c-1.37-.27-2.76-.48-4.12-.82-8.33-2.09-16.7-4.06-25-6.38A28.79,28.79,0,0,1,161.57,175c-5.28-6.43-5.65-10.46-.78-17.15,1.7-2.33,1.57-3.89-.33-5.68-3.16-3-6.12-6.21-9.52-8.89a30.1,30.1,0,0,1-10-14c-1.44-4.08-.75-6.07,3.06-8.17,2.2-1.21,4.57-2.12,7.38-3.4-2.59-3.85-4.92-7.49-7.44-11-3.42-4.78-6.6-9.61-7.6-15.58-.77-4.59,1-6.43,5.62-5.44,1.66.36,3.29.85,4.92,1.29l4.81,1.29c.48-3.58-1.23-6.12-3.1-8.73-7.73-10.78-14-22.24-16.62-35.46a39.13,39.13,0,0,1,1.86-21.3,12,12,0,0,1,14-7.81,4.39,4.39,0,0,1,2.68,2.25,42.75,42.75,0,0,1,3,8.68c3.34,16.86,12.07,30.71,23.86,42.78,7,7.14,14.21,14,21.61,20.73,2.78,2.52,6.27,4.3,9.56,6.2.81.47,2.75.51,3,0,.77-1.21,1.54-3,1.16-4.22-.86-2.69-2.52-5.12-3.69-7.73-1.52-3.37-3-6.76-4.26-10.25-1.37-3.88,0-7.07,3.18-9.53q.76-.58,1.56-1.11c6.34-4.22,6.1-4.18,5-11.58a106.14,106.14,0,0,1-1.26-16.73c.05-5.16,2.73-6.87,7.86-5.91,2.08.39,4.14.9,7,1.54.49-3.24,1.07-6.4,1.44-9.57.55-4.74.67-9.54,1.49-14.23,1.2-6.83,6-8.25,11.2-3.61,5.4,4.83,9.65,10.35,11.79,17.43,3.47,11.46,6.75,23,10.84,34.25,6.35,17.49,14.07,34.35,25.1,49.52,2.17,3,3.59,6.49,5.46,9.69s3.76,6.33,5.82,9.38a9.29,9.29,0,0,1,.75,9.39c-1.42,3.3-2.72,6.83-4.9,9.6-8.11,10.28-11.95,22.11-13.69,34.83-.43,3.15-1.46,6.31-1.33,9.42.12,2.94,1.37,5.85,2.19,8.75.28,1,1.12,1.92,1.15,2.89.1,3.43,2.4,3.52,4.61,2.87a11.7,11.7,0,0,0,4.77-2.95c5-5.07,9.67-10.45,14.72-15.45a141.12,141.12,0,0,1,12-10.48,15.48,15.48,0,0,1,13.84-2.91,7.09,7.09,0,0,0,2.2.31c12.29-1,19.86,6.23,25.94,15.43a32,32,0,0,0,14.23,11.74c8.31,3.74,16.48,7.77,24.59,11.62-.58,5-.8,5.14-4.84,3.14a24.88,24.88,0,0,0-18.32-1.6c-19.89,5.73-37.27,15.8-51.14,31.34a59.22,59.22,0,0,0-8.62,13c-5.83,11.72-14.7,20.33-25.57,27.3-12.23,7.83-25.38,12.73-39.64,15.75-14,3-27.85,2.8-41.75.77-8.81-1.29-16.26-5.8-23-11.67a215.24,215.24,0,0,0-16.78-13.6c-23.17-16.5-16.63-13.83-47.82-20.35-16.5-3.44-33.29-4-50-5.1-11.23-.76-22.45-1.58-33.69-2.27-3.06-.19-6.16.17-9.2-.1-1.62-.14-3.16-1.12-4.76-1.67s-3-1.29-4.48-1.33c-5.69-.13-11.4.2-17.08-.12C4,241.37,2.39,239.72,0,238.36ZM256.44,97.18l-.45.12a25.57,25.57,0,0,1-1.71-2.67c-3.27-6.77-6.59-13.53-9.72-20.37-1.8-3.94-3.83-7.54-7.84-9.7A4.33,4.33,0,0,1,235,62.11,132.4,132.4,0,0,1,231.6,49.2c-1.35-7.4-5.45-12.86-11.6-18-1,3.49-2.9,6.57-2.65,9.46a107.46,107.46,0,0,0,11.73,40c.57,1.12,1.23,2.19,1.84,3.28l-.84.48c-1.83-2.82-3.58-5.69-5.52-8.43s-3.9-5.9-6.47-8.15a6.68,6.68,0,0,0-6-.92c-1.32.63-2.12,3.47-2.16,5.36a15.55,15.55,0,0,0,1.65,6.4c2.92,6.47,5.89,12.93,9.15,19.23A40.43,40.43,0,0,0,235,113.52c3.38,2.18,6.72,4.47,9.92,6.9,6.14,4.65,10.33,10.69,11.68,18.36.78,4.48.7,9.11,1.56,13.57,3,15.51,6.17,31,9.31,46.45.15.72.31,1.69.81,2,1.56,1,3.22,2.3,5,2.59,2.38.4,2.79-1.83,3-3.62.91-6.73,1.59-13.49,2.62-20.2,2.18-14.13,5.15-28,14.48-39.54a13.8,13.8,0,0,0,1.81-14.52,131.23,131.23,0,0,0-9.85-19.19c-11.17-17.28-20.59-35.38-27-55-3.28-10.07-5.93-20.35-9-30.51A29.78,29.78,0,0,0,236.76,4.2c-3.41,6.48-3.71,13-2.2,19.7a24,24,0,0,1,.26,4.35c.16,4.5-.42,9.16.61,13.45,1.44,6,4,11.86,6.2,17.69C246.5,72,251.5,84.59,256.44,97.18ZM356.88,211.57c-3.12,0-5.66,0-8.19,0-3.26,0-6.27.68-8.83,3a5,5,0,0,0-1.53,6c.87,2.2,2.92,2.53,5.07,2.33C350.12,222.26,353.85,218,356.88,211.57Z"/><path d="M346.89,196.12c-3.35,0-6.15-1.92-6.2-4.14,0-2.06,2-3.67,4.72-3.68,3.35,0,5.71,1.95,5.59,4.73S348.52,195.68,346.89,196.12Z"/></svg>