<svg xmlns="http://www.w3.org/2000/svg" viewBox="0 0 406.12 293.49"><defs><style>.a{fill:#fff;}</style></defs><title>bird-down</title><path class="a" d="M385.2,33.52c-3-1.38-6.24-2.5-9.06-4.28A10,10,0,0,1,372,24.37c-4.9-15.43-18.42-22.94-32.68-16.92-7.4,3.13-14.14,8-21.12,12.22-5.5,3.32-10.84,6.92-16.37,10.18-1.67,1-3.52,2.12-5.71,1.41l-.1,0-2.91.63a23.73,23.73,0,0,1-6.23,1.28,52.65,52.65,0,0,1-9.47,1,1.81,1.81,0,0,1-.69-.14c-4.75.71-9.49,1.4-14.26,2-16.48,2-32.22,7.29-48.1,12-14.64,4.34-29.27,8.76-44.07,12.45-12.29,3.07-24.28,1.12-35.6-4.9-1.57-.84-3.17-1.64-4.72-2.57l-.27-.08a1.8,1.8,0,0,1-.47,0c-6.56-1.13-12.6-4.09-18.88-6.24l0,.13c-9.77-3.21-19.66-6.1-29.29-9.73-8.55-3.22-16.85-7.23-25.21-11-3.65-1.64-5.59-1.38-8.54,1.8,1.79,1.76,3.47,3.67,5.38,5.25,5.06,4.19,10.42,8,15.29,12.4,9.95,9,22.21,14.06,32.67,22.12a31.88,31.88,0,0,1,7.28,7.87c2.29,3.57,1,6-2.89,7.42-15.31,5.65-31.25,7.81-47.22,9.86C42,94.85,26.23,96.94,10.44,99a19.39,19.39,0,0,0-3.62,2.07c-2.39,2.49-5.06,4.7-6.82,7.74a13,13,0,0,1,2.56-.72c4.92-2.43,9.76-3,14.67-3,11.9-.22,23.81-.06,35.7-.62,18.11-.85,36.19-2.32,54.29-3.27,11.13-.59,22.29-.67,33.44-1.05a31.76,31.76,0,0,0,7.34-.77c3.65-1,6.73-.15,9.73,2,4.62,3.29,9.48,6.23,13.92,9.77,8.25,6.59,17.28,8.21,27.33,6.36,8.23-1.52,16.59-2.23,24.87-3.51a8.09,8.09,0,0,0,4.24-2.36c4.35-4.54,8.42-9.37,12.77-13.9a28.31,28.31,0,0,1,5.83-4.2c-3.27,7.08-10.91,11.21-11.94,20.28l9.86.2c-7.49,12.34-18.27,21.91-19.72,36.81,4.85,2.26,10.23,2.41,17.53.5-2.43,3.52-4.77,6.68-6.88,10-3,4.79-6.05,9.63-8.83,14.59-1.49,2.67-1.77,5.66.39,8.24s4.73,2.33,7.41,1.37c2.11-.76,4.17-1.67,6.88-2.78-.55,1.55-.9,2.53-1.25,3.51-2.11,5.82-4.45,11.55-6.26,17.47s1.44,9.15,7,7.76c5-1.25,9.2-3.76,12-8.68-1.37,4.39-2.72,8.79-4.1,13.18-1.52,4.81-2.19,9.63-.92,14.68.73,2.86,2.3,3.83,4.69,2.9a103.86,103.86,0,0,0,10.27-4.74c.69-.36,1.05-1.66,1.35-2.6,1.23-3.89,2.38-7.8,3.65-12-1.11,8.19-2.38,16-3.15,23.85a24.53,24.53,0,0,0,3.64,15.55,3.35,3.35,0,0,0,4,1.84c4.24-.84,7.71-3.19,9.19-7.2,2.19-6,3.5-12.28,5.11-18.48a40.1,40.1,0,0,0,.65-4.61h.81c.89,7.34,1.37,14.76,2.76,22,2.81,14.69,6.9,28.85,18.52,38.91a45.12,45.12,0,0,0,3.53,2.94c2.17,1.52,4.28,1.39,6.6-.08s1.34-3.32.85-5c-1.81-6.39-3.52-12.82-5.69-19.08-4-11.62-6.2-23.4-5.58-35.92.75-14.94.57-29.92.94-44.88.18-7.25.56-14.5,1.08-21.73.54-7.43-.66-14.5-5.09-20.22-15-19.41-16.85-42.49-16.88-66.12,0-1.67.71-3.35,1.08-5l1.09,0c.32,1.92.71,3.83.94,5.77,1.47,12.24,2.87,24.5,4.38,36.74.5,4.07,1.84,8.85,5.39,9.74,3.26.81,6.2-3.11,8-6.36,3.35-6,6.82-12.09,9.44-18.49a105.46,105.46,0,0,1,13.71-24.5c1.47-1.92,2.68-4.07,4.18-6.37-1.7-1.48-3.3-2.77-4.79-4.19a35.12,35.12,0,0,1-4.74-5c-2.33-3.36-1.63-7.12,1.93-8.85,9.59-4.64,19.36-8.56,30.27-7.79a42.16,42.16,0,0,0,11.17-.82c6.31-1.27,12.52-3.05,19.52-4.81C388.44,34.94,386.81,34.25,385.2,33.52ZM310.92,78.1c-2.06,1.68-4.61,2.69-6.95,4,6.08-8.46,13.08-9.93,14.43-3.72C315.87,77.32,313.57,75.95,310.92,78.1Zm41.21-55.57a4.75,4.75,0,0,1-4.38-4.86c.15-2.62,1.73-3.71,4.12-3.65,2.72.07,5.21,2.12,5.3,4.41C357.27,20.57,354.84,22.54,352.13,22.53Z"/><path class="a" d="M319.06,108.85c-3.2,7-6.84,13.36-13.79,16.9a3.19,3.19,0,0,0-.75,2.89c2.93,5.49,5.56,11.3,9.31,16.11,3.35,4.3,4.44,7.91,3,13.54a93.76,93.76,0,0,0-2.12,29c.4,5.76.4,11.55.34,17.33-.09,10,2.7,14.17,12.22,17.28-2-12.29-2.89-24.52-.78-37,.28,2,.56,4,.85,5.93s.53,4,1,6c1.67,7.84,3.4,15.66,5.11,23.48a8.66,8.66,0,0,1,.52,2.29c-.48,6.63,3.8,10.29,7.86,14,2.9,2.62,6.26,2.68,9.87,1.25a8.81,8.81,0,0,0,2.75-3.64,2.46,2.46,0,0,1,1-1.22c-7.14-9.68-11.33-21.24-14.72-33.25a3.61,3.61,0,0,1,0-1,120.92,120.92,0,0,0,15.65,30.46c5.47,7.5,11.57,14.27,19.47,19a17.28,17.28,0,0,0,4.11,1.86c3.27.92,6-.4,7.91-3.14s.57-5.16-.9-7.52c-3.47-5.56-7.72-10.74-10.27-16.73-9.72-22.9-19.37-45.86-28-69.24-3-8-3.52-17.1-4.77-25.83a2,2,0,0,1-.29-1.12l0-.72c0-.08,0-.17,0-.25a1.84,1.84,0,0,1,.05-.73c0-3.64-.1-7.24-1.64-10.53q-6.81-5.89-13.42-12c-1-.95-1.62-2.38-3-4.43C323,102.25,320.66,105.36,319.06,108.85Z"/><path class="a" d="M195.72,122.47c14-4.58,27.29-7,41.89-4.73-3.27,4.82-6,9-8.86,13a2,2,0,0,1-1.62.75C216.59,130.11,206.23,128,195.72,122.47Z"/><path class="a" d="M359.87,45.42C355,51.22,349.77,56.5,343,59.58a9.18,9.18,0,0,1-9.79-1c-3.06-2.33-3.19-6.74.23-8,8.39-3,16.56-7.74,26-5.56C359.45,45.05,359.53,45.16,359.87,45.42Z"/><path d="M243.76,217.5c-3-1-6.17-2-9.2-3.32-4.47-2-5.74-4.69-4.87-9.76a55.52,55.52,0,0,1,1.63-6.21c.56-1.92,1.22-3.81,1.86-5.79l-8.79-6c-2.55-1.74-3.4-4.1-1.91-7,2.92-5.66,5.94-11.25,9-16.85.73-1.35,1.66-2.58,2.69-4.15-3-1.27-5.85-2.33-8.56-3.6-4.61-2.15-5.61-4.28-4.26-9.42,2.69-10.19,2.77-8.85-6.48-12.38-8.14-3.11-16.79-4.79-24.77-8.25a180.58,180.58,0,0,1-25.46-13.59c-6.88-4.4-13.93-6.78-21.88-6.51q-21.54.75-43.08,1.51-30.54,1-61.08,2.07-17.35.58-34.71,1.1c-.92,0-1.84,0-3.54-.07,5.7-3.5,11.26-4.17,16.91-4.28,11.9-.22,23.81-.06,35.7-.62,18.11-.85,36.19-2.32,54.29-3.27,11.13-.59,22.29-.67,33.44-1.05a31.76,31.76,0,0,0,7.34-.77c3.65-1,6.73-.15,9.73,2,4.62,3.29,9.48,6.23,13.92,9.77,8.25,6.59,17.28,8.21,27.33,6.36,8.23-1.52,16.59-2.23,24.87-3.51a8.09,8.09,0,0,0,4.24-2.36c4.35-4.54,8.42-9.37,12.77-13.9a28.31,28.31,0,0,1,5.83-4.2c-3.27,7.08-10.91,11.21-11.94,20.28l9.86.2c-7.49,12.34-18.27,21.91-19.72,36.81,4.85,2.26,10.23,2.41,17.53.5-2.43,3.52-4.77,6.68-6.88,10-3,4.79-6.05,9.63-8.83,14.59-1.49,2.67-1.77,5.66.39,8.24s4.73,2.33,7.41,1.37c2.11-.76,4.17-1.67,6.88-2.78-.55,1.55-.9,2.53-1.25,3.51-2.11,5.82-4.45,11.55-6.26,17.47s1.44,9.15,7,7.76c5-1.25,9.2-3.76,12-8.68-1.37,4.39-2.72,8.79-4.1,13.18-1.52,4.81-2.19,9.63-.92,14.68.73,2.86,2.3,3.83,4.69,2.9a103.86,103.86,0,0,0,10.27-4.74c.69-.36,1.05-1.66,1.35-2.6,1.23-3.89,2.38-7.8,3.65-12-1.11,8.19-2.38,16-3.15,23.85a24.53,24.53,0,0,0,3.64,15.55,3.35,3.35,0,0,0,4,1.84c4.24-.84,7.71-3.19,9.19-7.2,2.19-6,3.5-12.28,5.11-18.48a40.1,40.1,0,0,0,.65-4.61h.81c.89,7.34,1.37,14.76,2.76,22,2.81,14.69,6.9,28.85,18.52,38.91a45.12,45.12,0,0,0,3.53,2.94c2.17,1.52,4.28,1.39,6.6-.08s1.34-3.32.85-5c-1.81-6.39-3.52-12.82-5.69-19.08-4-11.62-6.2-23.4-5.58-35.92.75-14.94.57-29.92.94-44.88.18-7.25.56-14.5,1.08-21.73.54-7.43-.66-14.5-5.09-20.22-15-19.41-16.85-42.49-16.88-66.12,0-1.67.71-3.35,1.08-5l1.09,0c.32,1.92.71,3.83.94,5.77,1.47,12.24,2.87,24.5,4.38,36.74.5,4.07,1.84,8.85,5.39,9.74,3.26.81,6.2-3.11,8-6.36,3.35-6,6.82-12.09,9.44-18.49a105.46,105.46,0,0,1,13.71-24.5c1.47-1.92,2.68-4.07,4.18-6.37-1.7-1.48-3.3-2.77-4.79-4.19a35.12,35.12,0,0,1-4.74-5c-2.33-3.36-1.63-7.12,1.93-8.85,9.59-4.64,19.36-8.56,30.27-7.79a42.16,42.16,0,0,0,11.17-.82c6.31-1.27,12.52-3.05,19.52-4.81-2.24-1-3.87-1.68-5.48-2.41-3-1.38-6.24-2.5-9.06-4.28A10,10,0,0,1,372,24.37c-4.9-15.43-18.42-22.94-32.68-16.92-7.4,3.13-14.14,8-21.12,12.22-5.5,3.32-10.84,6.92-16.37,10.18-2.1,1.23-4.47,2.73-7.44.49a29.48,29.48,0,0,1,2.44-2c11.65-7.48,23.27-15,35-22.36,5.09-3.2,10.41-6.09,16.53-6,2.62,0,5.54.31,7.79,1.55,7.18,4,13.63,9,17.36,17,2.73,5.83,7.3,9.1,12.73,11.77,5.68,2.8,11,6.4,16.44,9.75a26.43,26.43,0,0,1,3.44,3.28c-4.64-.95-8.43-1.8-12.24-2.48-9.31-1.66-17.43.34-26,5.5C355.16,54,345.64,65.13,335.27,75.42c-4.49,4.45-7.1,10.21-9.07,16.26a4.16,4.16,0,0,0,1,3.34c5,5,10.07,9.85,15.13,14.74a8.79,8.79,0,0,1,2,2.13,13.27,13.27,0,0,1,.67,3.31c-.93-.19-2.11-.07-2.75-.63q-7-6-13.7-12.29c-1-.95-1.62-2.38-3-4.43-2.68,4.39-5,7.51-6.62,11-3.2,7-6.84,13.36-13.79,16.9a3.19,3.19,0,0,0-.75,2.89c2.93,5.49,5.57,11.3,9.31,16.11,3.35,4.3,4.44,7.91,3,13.54a93.72,93.72,0,0,0-2.12,29c.4,5.76.39,11.56.34,17.33-.09,10,2.7,14.17,12.22,17.28-2-12.29-2.89-24.52-.78-37,.28,2,.56,4,.85,5.93s.53,4,1,6c1.67,7.84,3.4,15.66,5.11,23.48a8.74,8.74,0,0,1,.52,2.29c-.48,6.63,3.79,10.29,7.86,14,3.24,2.92,7,2.67,11.14.7a6.94,6.94,0,0,1-10.28,3.35c-3.19-2.19-5.89-5.17-8.86-7.73-2.38-2.05-4.64-4.44-7.33-5.89-4-2.15-8.28-3.61-12.46-5.37-3.49,7.05-2.28,14.67-1.64,22.18,1.35,15.71,6.73,30.36,10.75,45.37.29,1.08.56,2.17.89,3.44-5,1.36-9.52,1-13.87-2.07-10.15-7.05-16.84-16.56-19.28-29.27-.53-2.77-1.5-5.44-2-8.21-.36-1.91-1.45-2.29-2.76-1.65a37.18,37.18,0,0,0-6.68,3.95c-8.6,6.78-14.19,4.86-16.81-6.18a42,42,0,0,1-.94-10.09c0-3.2-1.56-4.1-3.95-3.79a40.19,40.19,0,0,0-6.5,1.83c-5.15,1.59-7.46.11-7.7-5.51C243.33,227.14,243.66,222.5,243.76,217.5Zm-48-95c10.51,5.57,20.87,7.64,31.41,9a2,2,0,0,0,1.62-.75c2.84-4.07,5.6-8.19,8.86-13C223,115.42,209.73,117.89,195.72,122.47Zm164.15-77c-.34-.26-.42-.36-.51-.39-9.4-2.18-17.58,2.55-26,5.56-3.42,1.23-3.29,5.63-.23,8a9.18,9.18,0,0,0,9.79,1C349.77,56.5,355,51.22,359.87,45.42Z"/><path d="M110.33,46.8c-9.77-3.21-19.66-6.1-29.29-9.73-8.55-3.22-16.85-7.23-25.21-11-3.65-1.64-5.59-1.38-8.54,1.8,1.79,1.76,3.47,3.67,5.38,5.25,5.06,4.19,10.42,8,15.29,12.4,9.95,9,22.21,14.06,32.67,22.12a31.9,31.9,0,0,1,7.28,7.87c2.29,3.57,1,6-2.89,7.42-15.31,5.65-31.25,7.82-47.23,9.86-16.5,2.12-33,4.3-49.48,6.44a2.16,2.16,0,0,1-1.92-.69c2.9-.57,5.77-1.4,8.69-1.68,27.4-2.66,54.22-8.83,81.08-14.79,1.36-.3,2.67-.84,4-1.23,1.85-.53,3.82-1.3,3.46-3.67-.29-1.93-1.06-4.23-2.38-5.43a30.66,30.66,0,0,0-8.15-5.37C80.82,61,70.22,52.76,59.49,44.69,54.35,40.81,49,37.17,43.86,33.36a19.6,19.6,0,0,1-7.2-10.48c-.8-2.58-3.07-4.73-4.94-6.8-1.39-1.53-3.35-2.47-4.78-4-.54-.57-.32-2-.45-3,.84,0,1.85-.31,2.49.07,23.29,14,48.79,22.55,73.34,33.43,2.71,1.2,5.54,2.13,8.31,3.19C110.53,46.15,110.43,46.47,110.33,46.8Z"/><path d="M340.75,198.83a120.92,120.92,0,0,0,15.65,30.46c5.47,7.5,11.57,14.27,19.47,19a17.3,17.3,0,0,0,4.11,1.86c3.27.92,6-.4,7.91-3.14s.57-5.16-.9-7.52c-3.47-5.56-7.72-10.74-10.27-16.73-9.72-22.9-19.37-45.86-28-69.24-3.2-8.68-3.59-18.55-5.08-27.91-.17-1,.85-2.29,1.32-3.44.86.81,2.29,1.49,2.48,2.45.8,4.08,1.18,8.26,1.81,12.39,2.15,14.09,6.81,27.31,12.42,40.2,6.26,14.39,12.19,28.94,18.77,43.16a79.49,79.49,0,0,0,9.86,15.29c4.26,5.44,4.88,7.49.51,12.77-2.11,2.55-5.17,4.27-8,6.09-.65.43-2.16,0-2.94-.5-5.25-3.66-10.67-7.12-15.54-11.29-12.95-11.08-19-26.57-23.63-42.87A3.77,3.77,0,0,1,340.75,198.83Z"/><path d="M284.87,32.83C277.4,33.9,270,35.1,262.48,36c-16.48,2-32.22,7.29-48.1,12-14.64,4.34-29.27,8.76-44.07,12.45-12.29,3.07-24.28,1.12-35.6-4.9a49.77,49.77,0,0,1-7.33-4.32c4.53,1.4,9.15,2.52,13.56,4.26,10.4,4.08,20.73,3.53,31.24.48q35.32-10.25,70.72-20.2c13.4-3.8,27.14-3.82,40.86-4a3.78,3.78,0,0,1,1.1.34C284.86,32.33,284.86,32.58,284.87,32.83Z"/><path d="M352.13,22.53a4.75,4.75,0,0,1-4.38-4.86c.15-2.62,1.73-3.71,4.12-3.65,2.72.07,5.21,2.12,5.3,4.41C357.27,20.57,354.84,22.54,352.13,22.53Z"/><path d="M304,82.09c6.08-8.46,13.08-9.93,14.43-3.72-2.53-1-4.83-2.42-7.48-.27C308.86,79.77,306.31,80.78,304,82.09Z"/></svg>