<svg xmlns="http://www.w3.org/2000/svg" viewBox="-40 0 150 150"><defs><style>.a{fill:#fff;}</style></defs><title>letter</title><path class="a" d="M13.45,18.72A12.44,12.44,0,0,1,32.73,7.83a13.18,13.18,0,0,1,7.63-5.57A13.29,13.29,0,0,1,50.5,3.82c3.43-3.33,8.43-4,11.93-1.94,4.46,2.64,6.06,9.51,2.36,14.74a10.44,10.44,0,0,1,5,2c4.67,3.54,4.85,10.66,3.43,15.27-1.09,3.55-4.32,9.53-9.32,9.71a7.89,7.89,0,0,1-4.7-1.52,10.22,10.22,0,0,1-2.9,2.21c-4.53,2.29-9.3.3-10.22-.11-.2-.45-.21-.54-.18-.55A11.77,11.77,0,0,1,49,49.73a11.24,11.24,0,0,1,.09,3.38c.62,4.31-1.1,8.31-4.26,10.15a9.06,9.06,0,0,1-7,.64,11.35,11.35,0,0,1-6.36-16.57,11.58,11.58,0,0,1-4.62.87A11.26,11.26,0,0,1,24.9,48c2,4.18,1.17,9-1.72,11.58C19.42,63,12.44,62.5,8.53,57.44A12.61,12.61,0,0,1,6,49.92a11.33,11.33,0,0,1,3.43-7.6,12,12,0,0,1-6.17-4c-3.84-5-3.08-13.56,2.05-17.45A11.94,11.94,0,0,1,13.45,18.72Z"/><polygon class="a" points="24.52 120.68 53.67 120.68 52.79 144.07 44.38 144.72 24.52 143.38 23.64 142.13 24.52 120.68"/><path d="M73.79,25.55c-1.05-4.27-3.21-7.63-7.76-8.86-.07,0-.11-.17-.12-.18A14.52,14.52,0,0,0,67,14.19a13.55,13.55,0,0,0-1.61-11,3.87,3.87,0,0,0-.82-.85C62.54.55,60.07.12,57.45,0a6.66,6.66,0,0,0-5.26,2.32c-.51.52-1.08,1-1.69,1.49a11.91,11.91,0,0,0-10-2.43,9.86,9.86,0,0,0-7.74,6.44,5.36,5.36,0,0,1-.57-.32C27.69,3.78,21.41,4.19,17,8.54c-4.9,4.85-4.42,11.36-1.68,16a12.54,12.54,0,0,0,2.8,2.95,1.63,1.63,0,0,0,2.25.16,6.43,6.43,0,0,0-.56-.36,7.88,7.88,0,0,1-4.58-5C14,18.48,13.6,14.65,16.05,11s5.73-5.57,10.2-5.28a7.78,7.78,0,0,1,7.57,7c.17,1.23.31,2.45.49,3.77-2.37,2.23-3.14,5.2-3.32,8.41l-1.39-.15a10.27,10.27,0,0,0-10.16,4.89A13.4,13.4,0,0,0,18,42.22a8.49,8.49,0,0,0,4.74,5.33c.73.3,1.51.48,2.26.71.21.78.42,1.54.63,2.3,1,3.66-1.37,8.42-4.9,9.87s-6.68.67-9.8-1a6.47,6.47,0,0,1-3.3-3.76c-1.28-4.06-1.31-8,1.1-11.79A6.6,6.6,0,0,1,12.2,41c1.27-.41,2.55-.77,4-1.22a4.36,4.36,0,0,0-2.75,0,17.63,17.63,0,0,0-3.23,1.49,2.65,2.65,0,0,1-2.24.3C5.19,41,3.61,39,2.42,36.67A13.38,13.38,0,0,1,2,25.12,9.08,9.08,0,0,1,10.76,19c.47,0,1-.05,1.77-.1a4.15,4.15,0,0,0-.76-.37A9.17,9.17,0,0,0,2.7,22,12.62,12.62,0,0,0,0,30.76a14.45,14.45,0,0,0,3,8.52A6.64,6.64,0,0,0,6.83,42c.54.12,1.07.31,1.58.47,0,.25,0,.38-.07.46-2.42,3.49-2.82,7.33-2,11.4a8.19,8.19,0,0,0,3.47,5.46,12,12,0,0,0,9.91,2.06c.32.45.27,1.35,1.19,1.08.75-.21,1.22-.56,1-1.46a.92.92,0,0,1,.33-.7c.61-.55,1.27-1,2.11-1.72C27,70.39,29.57,81.44,32.16,92.51l-.32.08c-.16-.41-.35-.82-.49-1.25Q28,81.16,24.58,71c-.61-1.82-1.22-3.66-1.87-5.48a2.89,2.89,0,0,0-1.44-2,6.41,6.41,0,0,0,.16,1.11c.61,1.72,1.26,3.41,1.85,5.12,1.9,5.54,3.8,11.07,5.65,16.63,1.93,5.82,4,11.59,5.45,17.58.66,2.79,1.66,5.5,2.56,8.45-.63.78-.57,1.69.27,2.68a2.15,2.15,0,0,1,.19,1.58c-.22,1.13-.58,2.24-.94,3.56h-.22c.6.16,1.32.17,2.45.39l.58.09a5.86,5.86,0,0,1,.18-.69h-.12c.06-.94.41-2,.09-2.26-1.18-1-.8-2.15-.65-3.29.23-1.77.11-3.6.87-5.3a32.4,32.4,0,0,0,1.07-3.38l0,0c.57-1.22,1.22-2.4,1.67-3.66C44.69,95.55,47,89,49.28,82.35,51.8,75,54.22,67.58,56.74,60.22c1.15-3.39,2.45-6.73,3.67-10.1a1.36,1.36,0,0,0-.19-1.77c-2.91,7.42-5,14.9-7.52,22.21s-5.06,14.75-7.58,22.13l-.38-.11c.57-2.24,1.16-4.48,1.71-6.72Q49,75.42,51.47,65,53.22,57.68,55,50.4a9.62,9.62,0,0,1,.42-1.11,9.82,9.82,0,0,0,.66-1.84c.16-1,.17-2.13.25-3.19l2.6-1.77,2.77,1-.8,2c.76.42,1.33,1,2.28.57-.17-.79-.33-1.54-.49-2.27.19-.08.3-.17.4-.15,4.59.48,8.63-3.76,9.84-6.9A18.5,18.5,0,0,0,73.79,25.55ZM53.39,2.18A5.28,5.28,0,0,1,57.45.76C59.78,1,62.11,1.19,63.9,3a3.77,3.77,0,0,1,.79.88c2.16,4.23,2.79,8.47.1,12.78-4.23.45-7.57,2.29-9.61,6.29l-3-.37a40.74,40.74,0,0,0,1.94-3.63A12.09,12.09,0,0,0,52.77,6.65C51.43,4.73,51.61,3.73,53.39,2.18ZM33.78,9.64A2.45,2.45,0,0,1,34,7.2,9.12,9.12,0,0,1,42.71,2,11.59,11.59,0,0,1,54.09,14.94a13.9,13.9,0,0,1-3.38,7.92c-.41-4-2.25-7-5.62-8.43a9.53,9.53,0,0,0-9.94,1.18c-.11-.61-.19-1-.24-1.36A12.88,12.88,0,0,0,33.78,9.64Zm3.63,5.66a8.42,8.42,0,0,1,12,5.6,12.12,12.12,0,0,1,.18,6.89A8.49,8.49,0,0,1,46,32.39c-.62.4-1.29.73-1.93,1.09a1.41,1.41,0,0,1-1.73,0,1.65,1.65,0,0,0-1.92,0,3.19,3.19,0,0,1-2.48.06,1.72,1.72,0,0,1-1.31-1.19,14.63,14.63,0,0,0-4-6.24c-.55-.48-.51-1.62-.74-2.46C32.32,19.84,34.07,16.88,37.41,15.29ZM40.79,36c-.93,1-.35,2.18-.59,3.32l-2.94.6V34.72a2.26,2.26,0,0,1,2.3.46c.94.66,1.43.49,2.15-.49l.4,0c0,.8,0,1.6,0,2.41s.18,1.66.28,2.6C39.83,39.31,41.32,37.27,40.79,36Zm3.52,6.51a2.35,2.35,0,0,0,.57.62c3.11,2.2,3.68,5.54,4,9a8.27,8.27,0,0,1,0,.85,12.86,12.86,0,0,1-2.51,8A7.29,7.29,0,0,1,39.77,64a6.19,6.19,0,0,1-2.06-.67c-2.94-1.45-5.6-3.18-7-6.38a8,8,0,0,1-.65-4.14,23.13,23.13,0,0,1,.82-4.17,3.79,3.79,0,0,1,1.36-1.86,9.87,9.87,0,0,0,3-3.2c.28-.49.6-1,.91-1.44a3.67,3.67,0,0,1,3-1.77C41.14,40.21,43.08,40.51,44.31,42.47Zm-25.14.24a12.76,12.76,0,0,1,3.66-15.49,8,8,0,0,1,6.92-1.51,7.43,7.43,0,0,1,4.73,4.14c.46.88,1.34,1.76.79,3,0,.07.07.21.13.3,1.91,2.87,1.06,5.77-.08,8.57a8.34,8.34,0,0,1-4.09,4.62,20.34,20.34,0,0,1-4.59,1,1.46,1.46,0,0,1-.47,0A7.05,7.05,0,0,1,19.18,42.71Zm19.91,75.43-1.14,1.49C37.74,118.26,37.74,118.26,39.08,118.14ZM54.15,51.07c-1.23,5.37-2.46,10.75-3.72,16.11-1.74,7.35-3.46,14.71-5.31,22-1.32,5.23-2.86,10.41-4.29,15.6a7.23,7.23,0,0,0-.16,1c-1.41,1.41-1.65,3.36-2.13,5.21-1-.18-1-.87-1-1.46-.1-2.78-.24-5.56-.29-8.34-.17-9.1.23-18.18.84-27.26.14-2.1.13-4.2.16-6.31a1.62,1.62,0,0,0-.39-1c-.68,14.19-1.63,28.37-1,42.68a2.72,2.72,0,0,1-.51-.69c-.4-1.24-.84-2.48-1.12-3.74-1.8-8.27-3.55-16.55-5.36-24.81-1.53-7-3.11-14-4.71-20.94a2.51,2.51,0,0,1,.25-1.94c1.47-2.63,1.88-5.32.35-8.09a.66.66,0,0,1-.07-.33,2.92,2.92,0,0,1,.11-.47l1.94-.1c-.11.56-.19,1-.32,1.72l2-.13-.38-1.7,1.12-.22L28.85,54c-.37-.77-.06-1.85-.89-2.74a3,3,0,0,0-.16,2.34c.34,2.36.71,4.72,1.1,7.07q1.64,9.84,3.32,19.66,1.47,8.72,3,17.47c.23,1.34.5,2.67.79,4a2.42,2.42,0,0,0,.41.83C33.88,87.2,31.2,71.81,29.17,56.26c1,1.66,1.66,3.5,3.24,4.68s3,2.21,4.62,3.38v1c.71.33,1.43.38,1.88-.23a1.54,1.54,0,0,1,1.5-.56,8.92,8.92,0,0,0,4.37-1.24c2.47-1.33,3.68-3.65,4.47-6.2a14.64,14.64,0,0,0-.33-9.86c-.24-.61-.43-1.26-.7-2.06.92,0,1.6-.36,1.71,1,.09,1.1,1.29.71,2.23,1.13-.13-.8-.22-1.27-.32-1.83l3.64-.68C55,47,54.61,49.05,54.15,51.07Zm-3.37-6.69a14.25,14.25,0,0,1-2.66-.56,3.12,3.12,0,0,1-1.9-1.33,7.42,7.42,0,0,0-1.29-1.34,5.83,5.83,0,0,1-1.61-6,2.13,2.13,0,0,1,.79-.76,48.17,48.17,0,0,0,4-2.81,8.33,8.33,0,0,0,2.72-6c0-.56,0-1.12,0-1.9a12.92,12.92,0,0,1,1.87-.26c3.64.13,7.45,2.33,8.23,6.54a13.81,13.81,0,0,1-1.37,9.87C57.61,43.23,54.57,44.53,50.78,44.38ZM72,36.7a10.43,10.43,0,0,1-6.2,6c-2.17.83-4.21,0-6.59-.62,2.2-3.37,3.32-6.65,2.81-10.42s-2.17-6.77-5.94-8.32a8.64,8.64,0,0,1,4.73-4.8,10.75,10.75,0,0,1,3.1-.89,7.91,7.91,0,0,1,8,5.17c.48,1.61.92,3.25,1.25,4.9A15.59,15.59,0,0,1,72,36.7Z"/><path d="M23.29,8.73c-.32.42-.46.8-.71.9-2.08.79-2.82,2.68-3.65,4.45-.53,1.14-.73,7-.42,8.33a2.29,2.29,0,0,1-1.7-1.93c-.76-3.72.21-8.36,3.77-11A3.82,3.82,0,0,1,23.29,8.73Zm-5.91,9.84.34,0V16.48h-.19C17.49,17.17,17.43,17.88,17.38,18.57Z"/><path d="M9.5,20.88a10.71,10.71,0,0,0-6,6.44,9.89,9.89,0,0,0,1.07,8.61,2.38,2.38,0,0,1-.69-.44,8.57,8.57,0,0,1-1.45-7.42,11.12,11.12,0,0,1,4.88-6.72,12.34,12.34,0,0,1,1.92-.83Z"/><path d="M10.53,53.59c-2.5-1-2.24-4.06-1.43-6.66s3.13-4.5,5.18-4.32c-2.16,1.12-3.76,2.48-4.45,4.73C9.19,49.43,8.67,51.46,10.53,53.59Z"/><path d="M40.65,98.28c.45-2.45.93-4.9,1.33-7.36,1-5.73,1.84-11.45,2.82-17.17.6-3.47,1.31-6.92,2-10.38.09-.48.27-.94.4-1.41h.36a2.63,2.63,0,0,1,.15,1c-.45,2.1-1,4.18-1.41,6.29-.87,4.63-1.67,9.27-2.51,13.92S42.1,92.33,41.23,96.9a5.77,5.77,0,0,1-.62,1.36Z"/><path d="M39.61,88.37c.36-7,1.13-14,1.88-21l.55.05c-.11,1-.24,2.06-.35,3.1-.58,5.48-1.15,11-1.73,16.44a11.1,11.1,0,0,1-.36,1.44Z"/><path d="M40.62,98.26q-.45,3.26-.89,6.52l-.45-.07a42.07,42.07,0,0,1,1.37-6.44Z"/><path d="M39.59,88.35v4.17h-.33q.17-2.07.35-4.14Z"/><path d="M50.55,48c.09.47.18.94.26,1.42l-.36.09a1.42,1.42,0,0,1-.38-1.41Z"/><path d="M39.18,95v2.58h-.1V95Z"/><path d="M42.91,58.48a9.46,9.46,0,0,0,2.31-5.73A12.83,12.83,0,0,0,44,46.15a5,5,0,0,0-2.35-2.36,6.21,6.21,0,0,1-1.87-1.29c.28,0,.6-.17.82-.08A7,7,0,0,1,45,46.16a12.49,12.49,0,0,1,.13,10.07A3.43,3.43,0,0,1,42.91,58.48Z"/><path d="M25.76,29.15A10.51,10.51,0,0,0,21,37.91c-.65-.75-.71-1.09-.21-2.83a18.32,18.32,0,0,1,1-2.86C23,29.93,24.1,29,25.76,29.15Z"/><path d="M70.49,32.68c-.1-2-.15-3.92-.32-5.87s-1.33-3.52-2.38-5.12c1.53.28,2.06,1.55,2.46,2.65A11.75,11.75,0,0,1,70.49,32.68Z"/><path d="M39.19,17.14C35.81,19,34.37,22,33.68,25.62,33.05,21.88,36.23,17,39.19,17.14Z"/><path d="M53.61,39.79c4.26-4.84,3.32-9.31-.94-13.62,2.16.23,3.32,1.8,4.2,5.55A7.29,7.29,0,0,1,53.61,39.79Z"/><path d="M45.35,5.27c3.89.26,7.31,7.17,5.44,11.6a22.18,22.18,0,0,0-.25-4.49,13,13,0,0,0-2-4.06A25.81,25.81,0,0,0,45.35,5.27Z"/><path d="M64.09,10.67c-1.57-4.62-1.7-4.77-5.38-6,.75-.48,1.52-.33,3.07.61C63.84,6.55,64.31,8.48,64.09,10.67Z"/><path d="M54.09,121.52c0-.59-.21-.95-.91-.87a12.16,12.16,0,0,1-1.74,0c-3-.11-6.06-.27-9.09-.34-2.32-.05-4.64,0-7,0-3.32,0-6.64,0-10,.09-.47,0-.73-.08-.85-.58,0-.18-.34-.3-.52-.45a2.57,2.57,0,0,0-.26.59c-.06.37-.07.74-.1,1.16a2.8,2.8,0,0,1,.32.92q0,4.67-.12,9.34c-.08,3.58-.19,7.16-.26,10.74,0,.19.17.39.27.58a2.75,2.75,0,0,0,.54-.54,9.42,9.42,0,0,1,.82-1.66c1.43-1.67,2.95-3.26,4.41-4.91,1.13-1.28,2.21-2.6,3.35-3.87a.78.78,0,0,1,.75-.07,2.62,2.62,0,0,1,1,2.58,3.13,3.13,0,0,0,.38,1.93,10.14,10.14,0,0,0,3.5,3c.08.9.29,1.1,1.07.87a1.65,1.65,0,0,0,.76-.39,24,24,0,0,0,2.82-3.38,3.87,3.87,0,0,0,.67-3.46.53.53,0,0,1,.11-.43c.36-.42.74-.82,1.12-1.22s.55-.24.77.1c.65,1,1.31,2,2,3,1.64,2.54,2.15,3.83,3.82,6.35a5.13,5.13,0,0,1,1.09,3.47c-.57,0-1.12,0-1.66-.06-1.63-.15-2.59.39-4.22.28-4.58-.3-8.72,0-13.3-.35-3.15-.24-6.28-.69-9.42-1-.32,0-.67.23-1,.36.31.2.62.4.93.59a.39.39,0,0,0,.23,0,20.31,20.31,0,0,1,5.8.23,129.61,129.61,0,0,0,14.22.58,35.91,35.91,0,0,1,3.7.25c1.91.2,3.16-.32,5.07-.12.16,0,.48-.13.5-.24a9.24,9.24,0,0,0,.25-2.15c-.09-1.44-.34-2.87-.46-4.31-.42-4.81.21-8.33.68-13.16A30.32,30.32,0,0,0,54.09,121.52Zm-21.73,9.67c-2.24,2.55-4.46,5.13-6.68,7.7-.27.32-.53.65-.79,1l-.4-.3q.1-9,.2-18l.27-.13c1.08,1,2.23,2,3.21,3.16,1.48,1.7,2.84,3.52,4.27,5.27C32.87,130.39,32.75,130.73,32.36,131.18Zm11,2.87a7.39,7.39,0,0,1-1.93,3.73c-.44.51-1,1-1.45,1.41-.88-.77-1.71-1.4-2.43-2.14a12.64,12.64,0,0,1-1.45-2,.68.68,0,0,1-.1-.57.92.92,0,0,1-.13-.43,1,1,0,0,1,.94-.94,2.37,2.37,0,0,1,2.37,2,1.18,1.18,0,0,1,.15-.43,25.53,25.53,0,0,1,1.67-2c.39-.4.88-.92,1.5-.54A1.82,1.82,0,0,1,43.31,134Zm.71-3c-.34.39-.63.67-1.26.29a1.61,1.61,0,0,0-1.37.23,26.59,26.59,0,0,0-2.26,1.91c-.09-.14-.23-.33-.33-.53-.8-1.56-1.35-1.47-2.7-1.13a1.09,1.09,0,0,1-1.28-.38c-1.36-1.61-2.7-3.23-4.06-4.83-1.16-1.36-2.32-2.72-3.51-4a18.4,18.4,0,0,0-1.41-1.29l.15-.37c8.8-.07,17.61-.38,26.63.39-.51.66-.89,1.21-1.32,1.7-1.35,1.51-2.73,3-4.08,4.5C46.15,128.69,45.09,129.89,44,131.07Zm8.7,9.62c-1-1.47-.8-1.48-1.67-2.8-1.07-1.62-2.12-3.25-3.18-4.89-.54-.84-1.08-1.68-1.6-2.54-.28-.46-.28-.8.21-1.27,1.17-1.12,2.19-2.4,3.29-3.61.69-.76,1.42-1.48,2.12-2.23.42-.45.82-.93,1.31-1.48C53.41,128.6,52.52,133.89,52.73,140.69Z"/></svg>
