<svg xmlns="http://www.w3.org/2000/svg" viewBox="0 0 350 350">
<g>
	<path fill-rule="evenodd" clip-rule="evenodd" fill="#FFFFFF" d="M220.971,114.647c-1.313-4.769-4.307-8.475-7.938-11.717
		c-0.29-0.259-0.572-0.694-0.594-1.065c-0.143-2.372-0.289-4.751-0.258-7.125c0.01-0.752-0.327-1.854,1.098-2.148
		c2.646-0.545,4.12-2.948,3.485-5.615c-0.656-2.764-2.208-5.024-4.315-6.894c-2.217-1.965-4.889-2.399-7.735-2.178
		c-1.497,0.116-3,0.313-4.494,0.284c-0.804-0.017-1.367,0.018-1.803,0.776c-0.383,0.668-2.712,1.317-3.218,0.878
		c-0.643-0.559-1.183-0.348-1.872-0.164c-1.421,0.382-2.815,1.461-4.378,0.318c-0.211-0.153-0.672-0.139-0.935-0.019
		c-1.782,0.813-3.457,0.373-5.132-0.332c-0.286-0.121-0.635-0.202-0.934-0.158c-0.204,0.03-0.498,0.29-0.535,0.487
		c-0.264,1.411-0.461,2.834-0.712,4.248c-0.065,0.37-0.251,0.721-0.351,0.996c-0.86-0.256-1.578-0.6-2.316-0.648
		c-0.736-0.05-1.529,0.091-2.233,0.334c-1.379,0.477-2.899,0.845-4.004,1.712c-0.816,0.64-1.606,2.079-1.468,3.026
		c0.438,2.99,1.879,5.506,4.889,6.744c0.793,0.327,0.935,0.813,0.697,1.619c-0.199,0.673-0.417,1.501-0.198,2.102
		c0.49,1.344,1.013,2.534-0.819,3.233c-0.081,0.03-0.101,0.21-0.161,0.313c-0.925,1.541-1.73,3.106-2.096,4.918
		c-0.313,1.553,0.031,2.765,1.14,3.795c1.012,0.939,2.225,1.037,3.47,0.586c1.114-0.403,2.198-0.897,3.181-1.305
		c-0.826,1.714-1.869,3.399-2.454,5.231c-0.583,1.821-1.184,3.78-0.112,5.702c0.111,0.199,0.094,0.467,0.17,0.691
		c0.348,1.028,0.716,2.047,1.058,3.077c0.205,0.618,0.368,1.25,0.563,1.87c0.07,0.222,0.146,0.452,0.276,0.641
		c0.355,0.51,0.743,1.003,0.979,1.318c0.721,0.51,1.275,0.957,1.884,1.314c0.551,0.326,1.137,0.633,1.746,0.8
		c0.524,0.143,1.112,0.029,1.66,0.111c3.491,0.522,6.998,0.868,10.498,0.22c1.675-0.312,3.465-0.635,4.885-1.482
		c1.187-0.713,2.374-1.27,3.648-1.734c0.666-0.242,1.012,0.024,0.888,0.623c-0.275,1.338,0.515,1.484,1.497,1.529
		c0.599,0.025,1.228-0.014,1.788,0.156c2.285,0.691,4.353,0.072,6.333-0.992c3.785-2.038,6.505-4.881,6.289-9.498
		C221.923,119.021,221.558,116.78,220.971,114.647z"/>
	<path fill-rule="evenodd" clip-rule="evenodd" d="M180.072,95.473c-0.619-1.342-1.264-2.537-1.729-3.799
		c-0.792-2.145-0.194-3.475,1.683-4.741c0.529-0.357,0.846-1.19,1.023-1.869c0.285-1.073,0.344-2.203,0.55-3.3
		c0.111-0.596,0.323-1.172,0.587-2.096c0.852-0.184,1.897,0.324,2.909,0.779c0.713,0.321,1.182,0.479,2.012,0.023
		c0.896-0.488,2.096-0.727,3.136,0.188c0.296,0.26,0.982,0.256,1.42,0.13c0.68-0.194,1.306-0.591,1.945-0.918
		c0.602-0.308,1.155-0.504,1.729,0.106c0.165,0.175,0.606,0.279,0.821,0.185c1.215-0.533,2.4-0.412,3.629-0.057
		c0.311,0.091,0.85-0.015,1.053-0.238c1.851-2.037,4.283-1.955,6.659-1.757c4.17,0.35,6.567,3.107,8.278,6.592
		c0.688,1.4,1.097,2.888,0.746,4.517c-0.464,2.159-1.117,2.908-3.272,3.36c-0.65,0.135-1.286,0.133-1.568,0.966
		c-0.101,0.299-0.696,0.431-0.873,0.53c0.399,2.214,0.791,4.35,1.162,6.49c0.062,0.347-0.062,0.743,0.058,1.054
		c0.201,0.511,0.45,1.051,0.825,1.433c0.891,0.91,1.868,1.734,2.811,2.594c-0.084,0.094-0.167,0.188-0.253,0.281
		c-1.161-0.869-2.324-1.739-3.635-2.719c-1.088,5.787-4.789,8.754-10.122,10.262c0.297,0.394,0.52,0.694,0.747,0.992
		c2.262,2.969,3.858,6.235,4.265,9.981c0.09,0.838-0.052,1.756-0.317,2.562c-0.222,0.673-0.145,1.057,0.315,1.568
		c2.33,2.596,4.889,3.114,8.071,1.569c2.143-1.041,3.761-2.657,5.088-4.603c1.535-2.253,1.48-4.752,1.137-7.279
		c-0.154-1.133-0.482-2.242-0.705-3.367c-0.094-0.477-0.124-0.967-0.202-1.607c0.306,0.17,0.472,0.207,0.493,0.283
		c0.85,3.02,2.02,6.011,1.395,9.23c-0.831,4.289-3.717,6.812-7.544,8.47c-2.86,1.239-5.37,0.604-7.635-1.396
		c-0.353-0.312-0.707-0.624-1.081-0.633c-0.673,0.105-1.348,0.201-2.018,0.322c-0.145,0.026-0.304,0.115-0.403,0.223
		c-1.904,2.079-4.49,2.451-7.069,2.82c-3.283,0.469-6.541,0.172-9.742-0.576c-4.646-1.087-7.193-4.23-8.331-8.727
		c-0.643-2.543-0.302-5.008,1.048-7.129c0.857-1.352,2.385-2.281,3.63-3.38c0.284-0.253,0.641-0.426,0.97-0.641
		c-0.898-0.442-1.7-0.961-2.581-1.218c-0.387-0.111-1.021,0.201-1.382,0.508c-1.182,1.002-2.541,1.477-4.047,1.566
		c-2.103,0.125-3.681-1.771-3.207-3.857c0.424-1.87,0.857-3.74,2.383-5.112c0.182-0.165,0.158-0.695,0.313-0.735
		c1.787-0.464,1.615-1.412,0.881-2.743c-0.695-1.259,0.847-4.39,2.412-4.54C179.063,95.97,179.565,95.661,180.072,95.473z
		 M180.581,104.74c-0.136,0.449-0.538,1.075-0.437,1.604c0.174,0.911,0.643,1.769,1.022,2.635c0.467,1.07,1.132,1.931,2.421,2.036
		c1.501,0.121,3.018,0.439,4.5,0.318c2.263-0.186,4.643-0.465,5.072-3.468c0.02-0.143,0.245-0.333,0.398-0.356
		c0.139-0.021,0.363,0.119,0.451,0.254c0.217,0.329,0.381,0.696,0.564,1.048c1.281,2.446,4.393,4.243,7.074,3.663
		c2.834-0.612,5.424-1.916,7.142-4.421c1.154-1.681,1.876-3.487,2.08-5.612c0.33-3.428,0.058-6.578-2.274-9.305
		c-0.263-0.306-0.376-0.74-0.557-1.115c0.72,0.215,1.136,0.684,1.656,0.918c0.451,0.201,1.024,0.141,1.805,0.221
		c-0.402-0.745-0.614-1.137-0.912-1.689c0.417,0.05,0.648,0.035,0.849,0.109c2.648,0.961,5.137-0.956,4.568-3.719
		c-0.928-4.505-4.869-9.395-10.576-9.15c-1.808,0.078-2.997,0.903-4.03,2.207c1.35,1.105,2.688,2.115,3.918,3.241
		c0.815,0.747,1.715,1.674,1.117,2.896c-0.46,0.94-1.258,1.718-2,2.691c-0.451-0.935-0.172-1.315,0.383-1.741
		c1.26-0.966,1.301-1.538,0.37-2.809c-0.164-0.223-0.332-0.466-0.554-0.621c-1.787-1.26-3.581-2.511-5.393-3.738
		c-0.212-0.142-0.562-0.213-0.806-0.149c-1.026,0.265-2.116,0.448-3.028,0.943c-0.85,0.462-1.486,1.302-2.249,1.937
		c-1.054,0.873-2.138,1.71-3.191,2.547c0.361,0.573,0.595,0.94,0.825,1.307c-0.065,0.087-0.129,0.176-0.193,0.264
		c-0.569-0.167-1.221-0.586-1.686-0.434c-0.536,0.174-0.908,0.853-1.357,1.318c0.009-0.165,0.02-0.398,0.02-0.374
		c-0.851-0.325-1.536-0.788-2.237-0.813c-1.322-0.044-2.653,0.221-3.983,0.25c-1.619,0.034-2.618,0.991-2.309,2.586
		c0.231,1.195,0.737,2.342,1.183,3.488c0.328,0.838,0.614,1.767,1.845,1.71c0.153-0.008,0.454,0.438,0.464,0.682
		c0.012,0.326-0.155,0.683-0.333,0.974c-0.049,0.082-0.515,0.061-0.602-0.055c-0.816-1.096-1.606-0.307-2.703,0.049
		c0.414,0.141,0.654,0.225,0.914,0.312c-0.824,0.27-1.443,0.313-1.844,0.633c-1.084,0.863-1.109,2.137-0.14,3.37
		C178.708,102.502,179.632,103.587,180.581,104.74z M192.987,113.588c-0.033,0.081-0.065,0.164-0.098,0.245
		c-0.486-0.149-0.972-0.309-1.462-0.445c-1.087-0.303-2.105-1.435-3.367-0.239c-0.404-1.353-1.355-1.008-2.18-0.841
		c-0.188,0.55-0.339,0.993-0.534,1.563c-0.464-0.396-0.752-0.644-1.113-0.953c-0.565,0.361-1.103,0.777-1.699,1.07
		c-3.18,1.568-4.329,5.967-3.607,8.639c0.342,1.262,0.831,2.496,1.365,3.689c0.884,1.967,2.348,3.538,4.364,4.188
		c4.064,1.309,8.26,1.646,12.52,0.973c3.26-0.516,5.841-1.801,6.766-5.287c0.076-0.279,0.464-0.531,0.764-0.684
		c0.757-0.385,1.113-0.966,0.797-1.754c-0.987-2.458-1.986-4.911-3.062-7.329c-0.679-1.522-1.386-3.099-3.43-3.215
		c-0.831-0.048-1.658-0.154-2.506-0.234c-0.01,0.189-0.021,0.438-0.034,0.709c-1.737-0.63-3.405-1.235-5.074-1.84
		c-0.063,0.129-0.129,0.258-0.192,0.388C191.797,112.682,192.392,113.135,192.987,113.588z M177.417,103.479
		c-0.052-0.124-0.106-0.25-0.158-0.374c-0.808,0.877-1.692,1.697-2.408,2.646c-1.083,1.434-1.509,3.086-0.9,4.832
		c0.184,0.525,0.678,1.237,1.132,1.322c1.581,0.296,3.077-0.18,4.348-1.159c0.239-0.185,0.294-0.766,0.242-1.138
		c-0.131-0.963-0.465-1.902-0.534-2.864c-0.058-0.802,0.146-1.624,0.195-2.094C178.565,104.182,177.991,103.83,177.417,103.479z"/>
	<path fill-rule="evenodd" clip-rule="evenodd" d="M174.998,95.787c-0.199-0.068-0.518-0.103-0.745-0.264
		c-2.339-1.658-3.716-4.576-2.717-7.521c0.495-1.463,1.804-2.035,3.016-2.492c1.312-0.495,2.778-0.601,4.19-0.804
		c0.344-0.05,0.729,0.179,1.384,0.358c-2.188,0.569-3.987,0.945-5.724,1.512c-1.955,0.635-2.854,3.054-1.863,5.305
		C173.14,93.247,174.132,94.441,174.998,95.787z"/>
</g>
<g>
	<path fill-rule="evenodd" clip-rule="evenodd" fill="#FFFFFF" d="M70.837,162.376c0.293,2.844,1.337,5.299,3.592,7.184
		c0.484,0.404,0.881,1.017,1.104,1.615c0.775,2.084,1.712,4.004,3.521,5.443c1.975,1.57,4.705,1.732,6.765,0.29
		c1.442-1.011,2.026-2.449,2.119-4.099c0.059-1.087,0.33-1.723,1.534-1.984c1.107-0.24,2.005-0.983,2.367-2.201
		c0.074-0.634,0.193-1.265,0.214-1.899c0.032-1.087-0.12-2.026-1.471-2.35c-0.433-0.104-0.815-0.716-1.074-1.179
		c-0.425-0.759-0.799-1.436-1.833-1.491c-0.312-0.017-0.699-0.467-0.879-0.81c-0.501-0.953-0.889-1.966-1.359-2.938
		c-0.77-1.586-1.967-2.283-3.087-1.793c-0.869,0.377-1.7,0.848-2.576,1.211c-1.29,0.537-2.601,1.021-3.91,1.506
		c-0.175,0.066-0.396-0.008-0.592,0.012c-1.019,0.112-2.076,0.096-3.043,0.382c-1.543,0.458-1.727,0.927-1.425,2.504
		C70.839,161.974,70.816,162.179,70.837,162.376z"/>
	<path fill-rule="evenodd" clip-rule="evenodd" d="M84.732,165.896c-0.33-0.494-0.565-0.848-0.874-1.309
		c-0.171,0.287-0.239,0.377-0.281,0.477c-0.23,0.551-0.455,1.104-0.682,1.656c-0.239-0.101-0.637-0.149-0.69-0.312
		c-0.229-0.694-0.846-1.203-0.459-2.188c0.314-0.805,0.037-1.899-0.168-2.824c-0.111-0.5-0.535-1.032-0.968-1.331
		c-0.53-0.367-1.278-0.788-1.824-0.673c-0.751,0.158-1.33,0.812-1.269,1.789c0.048,0.75-0.006,1.508-0.057,2.26
		c-0.012,0.157-0.217,0.429-0.324,0.424c-0.207-0.008-0.451-0.131-0.604-0.283c-1.194-1.203-1.539-2.617-0.68-4.109
		c0.711-1.236,1.956-1.586,3.345-1.752c0.875-0.104,1.761-0.546,2.528-1.018c0.867-0.531,1.631-0.609,2.415,0.011
		c1.668,1.318,2.312,3.22,2.663,5.187c0.141,0.785,0.35,1.166,1.079,1.462c1.998,0.814,3.476,2.138,3.625,4.458
		c0.124,1.92-0.796,2.71-2.718,2.438c-0.227-0.031-0.454-0.074-0.803-0.133c-0.055,0.936-0.107,1.795-0.151,2.655
		c-0.103,2.054-1.001,3.717-2.917,4.435c-1.99,0.746-4.057,0.829-5.821-0.814c-2.024-1.887-3.454-4.045-3.512-6.927
		c-0.006-0.31-0.165-0.776-0.394-0.894c-1.946-0.994-3.014-2.754-3.767-4.623c-1.086-2.697,0.023-4.694,2.913-5.076
		c0.323-0.041,0.684,0.205,1.088,0.336c-0.176,0.244-0.2,0.304-0.223,0.305c-3.403-0.1-4.473,2.79-2.402,5.637
		c0.445,0.609,0.931,1.193,1.437,1.754c0.778,0.863,1.26,0.84,2.013-0.037c0.078-0.091,0.162-0.18,0.257-0.249
		c0.396-0.292,0.799-0.575,1.199-0.862c-0.123,0.548-0.067,1.263-0.397,1.614c-1.441,1.53-1.137,3.185-0.373,4.78
		c0.946,1.977,2.007,3.954,4.463,4.447c2.308,0.464,5.09-0.396,5.397-3.739c0.104-1.125-0.059-2.271-0.005-3.403
		c0.024-0.484,0.291-0.958,0.595-1.472c0.481,0.927,0.991,1.535,2.103,1.359c0.882-0.138,1.277-0.481,1.215-1.396
		c-0.18-2.629-3.318-4.92-5.925-4.265c0.246,0.478,0.59,0.928,0.684,1.427C85.501,165.318,85,165.624,84.732,165.896z
		 M85.843,161.952c-0.241-1.848-0.863-3.334-1.959-4.561c-0.506-0.567-1.176-0.672-1.784,0.15c-0.663,0.892-0.788,1.611,0.261,2.168
		c0.426,0.033,1.002,0.16,1.057,0.4C83.704,161.4,84.739,161.525,85.843,161.952z"/>
</g>
<g>
	<path fill-rule="evenodd" clip-rule="evenodd" fill="#FFFFFF" d="M263.217,75.246c-1.062-2.647-1.968-5.154-3.07-7.571
		c-0.964-2.116-2.462-2.786-4.707-2.432c-1.647,0.262-2.722,1.015-2.749,2.13c-0.041,1.629-1.23,2.338-2.369,2.944
		c-0.846,0.451-1.904,0.576-2.887,0.685c-2.818,0.304-6.162,3.037-6.422,5.528c-0.537,5.125,4.24,9.323,8.326,9.785
		c0.915,0.103,1.932-0.191,2.416,0.976c0.054,0.131,0.352,0.148,0.525,0.24c0.771,0.421,1.539,0.846,2.307,1.275
		c0.344,0.192,0.656,0.462,1.02,0.592c2.145,0.766,4.244-0.076,5.692-2.355c0.571-0.898,0.968-1.172,1.901-0.331
		c1.131,1.021,2.581,1.371,4.018,0.66c1.514-0.75,2.531-1.889,2.394-3.78c-0.106-1.479,0.395-3.038-0.8-4.331
		c-0.17-0.188-0.02-0.638-0.115-0.933c-0.229-0.704-0.324-1.623-0.82-2.031c-1.115-0.914-2.396-1.725-4.01-1.146
		C263.615,75.243,263.328,75.231,263.217,75.246z"/>
	<path fill-rule="evenodd" clip-rule="evenodd" d="M262.875,75.938c1.034-0.328,1.852,0.213,2.594,1.018
		c1.662,1.801,3.066,3.758,3.799,6.13c0.592,1.917,0.148,2.912-1.799,4.141c-1.285,0.812-3.031,0.622-4.201-0.456
		c-0.348-0.32-0.692-0.645-1.146-1.067c-0.414,0.631-0.754,1.195-1.137,1.726c-1.128,1.563-2.566,2.487-4.59,2.155
		c-1.656-0.271-2.16-0.821-2.291-2.523c-0.021-0.271-0.045-0.541-0.07-0.845c-3.01,0.148-5.828-0.502-8.525-1.603
		c-2.812-1.147-5.756-6.133-3.447-9.833c1.219-1.954,3.161-3.112,5.457-3.543c1.393-0.262,2.805-0.416,4.195-0.686
		c0.242-0.045,0.482-0.383,0.619-0.643c1.078-2.055,3.076-2.938,4.985-3.914c0.878-0.449,1.558-0.131,1.896,0.801
		c0.242,0.668,0.445,1.351,0.658,2.029c0.061,0.189,0.023,0.481,0.144,0.566C262.277,70.994,262.15,73.594,262.875,75.938z
		 M252.623,72.163c-0.686-0.378-1.206-0.915-1.684-0.88c-1.137,0.086-2.262,0.404-3.373,0.697c-1.947,0.516-3.895,1.217-4.855,3.111
		c-1.698,3.35,0.041,7.699,3.59,8.97c1.826,0.652,3.77,1.035,5.691,1.331c1.831,0.281,2.162-0.059,2.732-1.861
		c0.105-0.332,0.252-0.65,0.518-1.322c0.264,0.572,0.553,0.896,0.506,1.157c-0.109,0.604-0.316,1.213-0.604,1.757
		c-0.711,1.348-0.295,3.321,0.826,3.645c1.242,0.358,3.018-0.169,3.777-1.226c0.848-1.183,1.871-2.332,1.395-3.999
		c-0.038-0.136,0.125-0.33,0.299-0.749c0.297,0.451,0.471,0.726,0.651,0.995c0.442,0.657,0.815,1.377,1.343,1.952
		c0.949,1.034,2.643,1.291,3.732,0.677c1.168-0.658,1.799-1.839,1.338-2.994c-0.545-1.361-1.174-2.731-2.023-3.916
		c-0.746-1.043-1.809-1.88-2.812-2.706c-0.286-0.236-0.973-0.31-1.279-0.128c-0.773,0.459-1.49,1.052-2.116,1.699
		c-0.306,0.316-0.368,0.872-0.521,1.327c-0.176,0.52-0.329,1.048-0.492,1.571c-0.113-0.021-0.227-0.044-0.341-0.065
		c0.009,0.159,0.046,0.323,0.022,0.477c-0.055,0.349-0.139,0.692-0.211,1.039c-0.172-0.286-0.412-0.552-0.501-0.861
		c-0.305-1.052-1.478-1.603-2.681-1.214c-2.274,0.734-2.381,0.635-1.891-1.751c0.008-0.036,0.043-0.069,0.049-0.107
		c0.235-1.396-0.307-2.271-1.449-3.058c-0.424-0.291-0.521-1.124-0.652-1.734c-0.039-0.185,0.309-0.454,0.478-0.684
		c0.386,0.369,0.788,0.721,1.146,1.114c0.153,0.169,0.153,0.504,0.321,0.628c0.363,0.266,0.796,0.634,1.189,0.621
		c1.547-0.055,1.977,0.155,2.525,1.49c-0.209,0.32-0.395,0.604-0.58,0.888c0.391,0.036,0.863,0.231,1.16,0.081
		c1.096-0.56,2.156-1.195,3.178-1.884c0.314-0.212,0.701-0.728,0.639-1.017c-0.301-1.438-0.742-2.845-1.135-4.263
		c-0.141,0.011-0.279,0.022-0.419,0.032c-0.185,0.281-0.321,0.612-0.563,0.828c-0.265,0.236-0.639,0.514-0.943,0.492
		c-0.25-0.018-0.664-0.45-0.66-0.693c0.004-0.318,0.353-0.629,0.545-0.947c0.232-0.383,0.707-0.824,0.639-1.145
		c-0.201-0.938-0.615-1.83-0.967-2.731c-0.021-0.054-0.221-0.055-0.336-0.05c-1.612,0.048-4.692,2.603-5.037,4.19
		C252.699,71.35,252.675,71.766,252.623,72.163z"/>
</g>
<g>
	<path fill-rule="evenodd" clip-rule="evenodd" fill="#FFFFFF" d="M38.818,194.782c1.688,1.35,2.164,3.576,1.347,5.537
		c-0.571,1.373-0.972,2.822-1.38,4.256c-0.301,1.053-0.549,2.021-2.016,1.688c-0.355-0.08-0.812,0.049-1.162,0.209
		c-1.99,0.912-4.035,1.738-5.926,2.828c-3.479,2.006-5.316,6.107-4.375,10.08c0.936,3.941,3.163,5.709,7.658,6.779
		c1.678,0.4,3.391,0.264,5.123,0.947c1.684,0.66,3.137,1.43,4.453,2.594c0.236,0.207,0.52,0.369,0.797,0.525
		c3.145,1.771,6.354,1.209,9.5,0.104c1.401-0.494,2.909-1.115,3.943-2.115c1.566-1.516,2.945-1.184,4.544-0.344
		c0.593,0.312,1.245,0.529,1.891,0.721c2.71,0.816,5.461,0.471,8.198,0.201c1.463-0.143,2.904-0.545,4.367-0.652
		c1.758-0.129,3.246-0.795,4.573-1.875c3.619-2.941,6.436-6.635,9.448-10.143c0.503-0.586,0.64-1.73,1.875-1.295
		c0.072,0.025,0.256-0.174,0.346-0.299c0.529-0.744,1.152-1.445,1.551-2.254c1.954-3.975,2.703-8.162,1.922-12.549
		c-0.41-2.311-1.183-4.564-2.801-6.275c-3.182-3.369-7.011-5.5-12.033-5.318c0.012-4.97-3.027-8.272-6.552-11.294
		c-0.131,0.872-0.738,0.905-1.485,0.647c-0.148-0.052-0.312-0.077-0.471-0.087c-3.097-0.213-5.999,0.473-8.278,2.584
		c-0.703,0.651-1.951,1.512-1.426,3.102c0.172,0.52-0.407,1.425-0.868,1.955c-0.218,0.25-0.974,0.025-1.485,0.027
		c-0.196,0.001-0.409-0.008-0.589,0.057c-1.639,0.595-3.289,1.162-4.901,1.829c-0.878,0.361-1.606,0.58-2.386-0.225
		c-1.955-2.021-4.523-2.295-6.891-1.436c-2.272,0.825-4.362,2.289-6.351,3.723C37.289,190.233,37.332,193.597,38.818,194.782z
		 M29.578,211.757c-0.361,0.045-0.82-0.002-1.136,0.086C28.757,211.755,29.216,211.802,29.578,211.757z"/>
	<path fill-rule="evenodd" clip-rule="evenodd" d="M91.902,213.917c2.834-4.615,3.613-9.549,2.367-14.818
		c-0.091,0.561-0.182,1.121-0.271,1.682c-0.102-0.014-0.201-0.029-0.302-0.041c-0.04-0.596-0.144-1.193-0.107-1.783
		c0.152-2.543-1.333-4.135-3.115-5.604c-1.726-1.422-3.405-2.92-5.652-3.457c-1.001-0.24-2.038-0.385-3.064-0.439
		c-0.765-0.039-1.427,0.148-1.687,1.137c-0.347,1.324-0.973,2.545-2.42,3.055c-0.11,0.039-0.235,0.102-0.301,0.191
		c-0.111,0.156-0.293,0.375-0.252,0.508c0.41,1.348-1.773,2.422-0.338,3.857c0.494-1.281,0.998-2.584,1.5-3.887
		c0.13,0.043,0.259,0.086,0.388,0.129c-0.262,1.639-0.524,3.279-0.786,4.918c0.051,0.012,0.102,0.023,0.15,0.035
		c0.679-1.541,1.356-3.084,2.034-4.625c0.147,0.043,0.294,0.086,0.442,0.127c-0.454,1.674-0.907,3.346-1.439,5.312
		c1.794-1.047,1.377-3.805,4.179-3.773c-0.343,0.33-0.558,0.539-0.825,0.797c1.68-0.598,3.085-1.148,4.528-1.576
		c0.369-0.109,0.855,0.17,1.286,0.271c-0.331,0.33-0.638,0.92-0.998,0.953c-3.437,0.318-4.51,2.883-5.187,5.609
		c-0.58,2.336-0.856,4.762-1.087,7.164c-0.084,0.883,0.186,1.809-0.211,2.678c-0.147,0.322-0.341,0.625-0.455,0.832
		c-0.936-0.562-1.676-1.135-2.51-1.479c-1.303-0.535-2.645-1.068-4.02-1.293c-0.623-0.1-1.453,0.43-2.034,0.877
		c-0.693,0.533-1.344,1.213-1.769,1.967c-0.225,0.395,0.068,1.084,0.308,1.711c-0.355,0.648-1.175,0.748-1.646,0.248
		c-0.335-0.355-0.14-1.209-0.193-2.059c-0.344-0.197-0.322-0.188-0.703,0.654c-0.207,0.457-0.499,0.877-0.916,1.596
		c-0.227-0.594-0.403-0.818-0.367-1c0.248-1.234,0.717-2.449,0.776-3.688c0.076-1.609-0.132-3.236-0.306-4.848
		c-0.02-0.182-0.611-0.301-1.021-0.486c0.123-0.211,0.231-0.453,0.388-0.656c1.541-1.988,1.918-4.238,1.529-6.668
		c-0.487-3.055-1.531-5.857-3.854-8.004c-0.463-0.428-1.253-0.48-1.826-0.814c-0.532-0.312-0.922-0.893-1.47-1.145
		c-1.219-0.561-2.469-1.098-3.855-0.377c-0.492,0.254-1.121,0.248-1.613,0.504c-0.277,0.146-0.53,0.566-0.573,0.893
		c-0.141,1.074-0.584,0.82-1.326,0.156c-1.072,1.762-2.118,3.48-3.165,5.199c0.091,0.051,0.182,0.102,0.272,0.152
		c0.362-0.16,0.725-0.318,1.087-0.479c-0.046,0.436-0.097,0.871-0.136,1.307c-0.021,0.246-0.008,0.498-0.04,0.742
		c-0.041,0.307-0.014,0.795-0.185,0.885c-1.912,1-1.132,2.818-1.066,4.182c0.175,3.689,0.816,7.354,1.051,11.043
		c0.159,2.51,1.074,4.684,2.303,6.77c0.179,0.305,0.907,0.27,1.367,0.434c0.208,0.074,0.378,0.252,0.671,0.457
		c-1.115,0.623-0.857,1.301-0.285,2.078c3.162,4.279,7.483,6.232,12.701,6.082c2.844-0.08,5.687-0.5,8.51-0.904
		c2.063-0.295,3.657-1.596,5.07-3.02c2.297-2.316,4.573-4.662,6.711-7.125c1.951-2.246,3.562-4.74,4.134-7.764
		c-0.062,2.611-0.909,4.939-2.563,6.932c-1.369,1.65-2.807,3.246-4.261,4.824c-1.513,1.639-3.05,3.256-4.634,4.824
		c-1.43,1.418-3.129,2.248-5.205,2.391c-2.023,0.137-4.027,0.537-6.046,0.766c-2.59,0.295-5.153,0.238-7.603-0.811
		c-0.551-0.234-1.094-0.492-1.639-0.74c-1.912-0.871-1.848-0.801-3.35,0.557c-0.687,0.621-1.738,0.82-2.521,1.361
		c-2.196,1.518-4.692,2.018-7.247,1.955c-2.904-0.072-5.13-1.637-6.711-4.01c-0.438-0.66-0.489-1.578-0.753-2.498
		c-0.446,0.105-0.945,0.086-1.259,0.318c-1.778,1.324-3.799,1.234-5.754,0.844c-3.144-0.625-5.73-2.08-6.918-5.367
		c-1.064-2.949-0.631-5.672,1.062-8.191c2.204-3.275,5.697-4.6,9.235-5.805c0.147-0.049,0.313-0.043,0.472-0.055
		c1.879-0.125,2.176-0.182,2.319-2.008c0.13-1.656,0.997-2.898,1.642-4.277c0.487-1.047,1.051-2.064,1.641-3.059
		c0.374-0.633,0.856-1.201,1.266-1.766c-1.109-0.113-2.386-0.266-3.666-0.369c-1.053-0.086-1.473-0.697-1.727-1.66
		c-0.521-1.969,0.084-3.293,1.657-4.648c1.64-1.412,3.466-2.365,5.325-3.341c1.398-0.733,5.014-0.26,6.171,0.777
		c0.473,0.425,0.919,0.915,1.468,1.204c0.378,0.199,1.092,0.32,1.347,0.107c2.144-1.784,4.422-1.452,6.769-0.598
		c0.113,0.041,0.229,0.074,0.347,0.098c0.076,0.014,0.157,0,0.071,0.002c1.178-2.446,1.942-5.008,3.684-7.095
		c1.594-1.91,3.857-2.322,6.062-2.313c5.447,0.021,8.246,3.848,9.23,8.136c0.213,0.921,0.337,1.86,0.488,2.718
		c4.183-0.328,7.679,1.285,10.693,4.029c3.699,3.365,4.619,7.75,4.214,12.52c-0.217,2.561-0.925,5.01-2.072,7.312
		c-0.321,0.646-0.815,1.207-1.23,1.807C92.157,214.085,92.03,214.001,91.902,213.917z M38.662,208.712
		c-0.845-0.32-1.523-0.762-2.216-0.783c-0.607-0.02-1.243,0.408-1.842,0.689c-0.427,0.201-0.823,0.721-1.211,0.697
		c-2.436-0.141-3.519,2.082-5.323,3.033c-1.332,0.701-1.609,2.471-1.957,3.963c-0.768,3.289,1.599,8.316,6.418,8.502
		c2.849,0.109,5.184-0.781,7.303-2.561c0.26-0.219,0.727-0.189,1.098-0.273c0.045,0.441,0.136,0.883,0.121,1.322
		c-0.015,0.494-0.245,1.004-0.172,1.475c0.426,2.729,3.064,5.246,5.838,5.275c1.842,0.02,3.691-0.412,5.529-0.689
		c0.308-0.047,0.577-0.344,1.021-0.625c-0.63-0.271-1.059-0.457-1.488-0.643c0.639-0.285,1.279-0.199,1.843-0.367
		c1.007-0.301,1.999-0.695,2.937-1.17c0.562-0.283,0.65-0.693,0.149-1.334c-1.637-2.094-3.271-4.207-4.675-6.459
		c-0.781-1.252-1.258-2.754-1.59-4.209c-0.312-1.367-0.027-2.885-0.413-4.217c-0.481-1.662-0.292-3.297-0.4-4.947
		c-0.088-1.318-0.408-2.625-0.669-4.197c0.887-0.92,0.182-2.33,0.047-3.709c0.749,0.055,1.299-0.049,0.805-1.055
		c-0.297,0.279-0.53,0.5-0.764,0.721c-0.127-0.051-0.253-0.102-0.38-0.152c0.432-1.455,0.713-2.977,1.335-4.344
		c0.648-1.422,1.627-2.693,2.489-4.078c-1.439-1.264-3.364-2.227-4.963-1.943c-2.058,0.363-4.468,0.363-6.142,2.08
		c-0.301,0.311-0.479,0.738-0.793,1.236c-0.251,0.127-0.684,0.348-1.043,0.529c1.777,1.326,3.824,1.48,5.856,1.82
		c-0.241,0.295-0.487,0.5-0.689,0.463c-1.421-0.26-3.041,0.43-4.251-0.875c-0.122-0.133-0.357-0.172-0.548-0.225
		c-0.63-0.174-0.917,0.104-0.892,0.727c0.035,0.834,1.193,1.795,2.04,1.736c0.303-0.02,0.612,0.078,0.917,0.072
		c0.818-0.021,1.636-0.051,2.45-0.113c0.578-0.047,1.151-0.154,1.728-0.234c0.036,0.123,0.072,0.246,0.109,0.369
		c-0.277,0.174-0.576,0.324-0.827,0.529c-0.449,0.369-1.011,0.697-1.274,1.178c-0.875,1.592-1.639,3.244-2.447,4.881
		c1.033,0.111,1.041,0.494,0.416,1.277c-0.885,1.109-1.652,2.314-2.451,3.49c-0.453,0.668-0.21,1.055,0.435,1.537
		c1.036,0.775,1.96,1.717,2.849,2.666c0.305,0.326,0.36,0.885,0.529,1.34c-0.093,0.029-0.187,0.061-0.279,0.092
		c-1.321-1.121-2.644-2.242-4.049-3.436C38.857,208.354,38.707,208.628,38.662,208.712z M67.481,192.833
		c0.401-1.906,0.747-3.551,1.093-5.195c0.089,0.012,0.178,0.025,0.266,0.039c0.018,0.867,0.035,1.734,0.053,2.619
		c0.285-0.09,0.445-0.143,0.701-0.225c-0.051,0.869-0.093,1.604-0.135,2.338c0.087,0.055,0.174,0.109,0.262,0.164
		c0.246-0.273,0.549-0.516,0.723-0.828c0.176-0.316,0.223-0.701,0.325-1.057c0.093,0.021,0.185,0.043,0.277,0.064
		c-0.002,0.84-0.003,1.678-0.006,2.516c0.151,0.016,0.303,0.031,0.453,0.047c0.342-1.4,0.683-2.801,1.025-4.201
		c0.165,0.049,0.329,0.098,0.495,0.146c-0.272,1.582-0.587,3.16-0.787,4.752c-0.053,0.424,0.304,1.287,0.382,1.277
		c0.87-0.115,1.944-0.109,2.535-0.627c1.481-1.295,2.442-2.994,2.81-4.99c0.092-0.502,0.424-0.959,0.645-1.436
		c0.121,0.033,0.242,0.064,0.363,0.098c-0.195,1.234-0.389,2.469-0.583,3.703c0.581-1.229,1.22-2.51,1.231-3.799
		c0.048-5.198-4.062-11.144-11.074-9.468c-2.785,0.665-4.562,3.289-4.965,5.738c0.809-0.074,0.809-0.074,0.701,1.413
		c-0.506,0.087-1,0.171-1.51,0.259c-0.021,0.431-0.045,0.892-0.062,1.251c0.442,0.117,0.84,0.221,1.238,0.326
		c0.1-0.344,0.201-0.686,0.341-1.166c0.376,1.215,0.697,2.252,1.019,3.291c0.107-0.027,0.216-0.055,0.324-0.084
		c0.135-1.689,0.27-3.379,0.406-5.071C67.141,187.308,65.981,190.161,67.481,192.833z M76.074,202.948
		c-0.124-0.012-0.248-0.021-0.373-0.033c-0.014,0.418-0.013,0.838-0.047,1.254c-0.104,1.332-0.246,2.66-0.32,3.992
		c-0.021,0.393,0.112,0.801,0.235,1.184c0.02,0.062,0.509,0.062,0.519,0.023c0.102-0.395,0.224-0.811,0.198-1.209
		c-0.054-0.816-0.252-1.623-0.284-2.439C75.965,204.798,76.044,203.872,76.074,202.948z M72.906,203.573
		c0.107,0.004,0.216,0.008,0.324,0.012c0.112-1.256,0.226-2.514,0.339-3.77c-0.142-0.01-0.284-0.018-0.427-0.027
		C73.064,201.05,72.985,202.312,72.906,203.573z M79.044,207.62c-0.098,0.996-0.176,1.797-0.26,2.66
		c0.343-0.133,0.617-0.238,0.916-0.354c-0.115-0.65-0.211-1.24-0.328-1.824C79.353,207.999,79.249,207.913,79.044,207.62z
		 M74.156,204.63c-0.836,2.195-0.766,2.906,0.111,3.555C74.236,207.147,74.198,205.981,74.156,204.63z M77.327,210.493
		c0.097-0.051,0.193-0.104,0.29-0.156c-0.138-0.873-0.277-1.744-0.414-2.615c-0.136,0.027-0.271,0.057-0.405,0.084
		C76.974,208.702,77.15,209.599,77.327,210.493z"/>
</g>
<g>
	<path fill-rule="evenodd" clip-rule="evenodd" fill="#FFFFFF" d="M239.098,4.638c-3.398,1.081-5.576,3.323-7.067,6.384
		c-1.486,3.058-2.295,6.232-1.109,9.605c0.484,1.38,1.061,2.728,1.598,4.096c-0.602,1.484-1.816,2.301-3.454,2.574
		c-0.294,0.05-0.581,0.271-0.83,0.467c-1.847,1.449-3.804,2.785-5.491,4.4c-2.305,2.208-3.232,5.129-3.455,8.261
		c-0.075,1.065,0.338,2.284-0.053,3.179c-0.5,1.145-0.307,2.053,0.016,3.081c0.144,0.455,0.229,0.932,0.312,1.403
		c0.74,4.124,2.855,7.106,6.934,8.548c1.482,0.524,2.694,1.527,4.322,1.956c2.452,0.644,4.885,1.093,7.262,0.479
		c3.142-0.812,6.168-2.076,9.232-3.178c0.269-0.097,0.48-0.409,0.672-0.656c1.168-1.514,2.323-3.038,3.518-4.604
		c0.158,0.027,0.246,0.023,0.311,0.06c0.174,0.097,0.361,0.187,0.503,0.321c1.626,1.55,3.458,1.596,5.294,0.551
		c1.9-1.083,3.715-2.321,5.551-3.517c0.932-0.606,1.836-1.257,2.737-1.911c0.688-0.502,1.484-0.938,1.991-1.59
		c0.605-0.779,1.204-1.111,2.21-1.068c2.059,0.09,4.195,0.035,5.614-1.75c1.283-1.612,2.518-3.312,3.435-5.143
		c0.712-1.422,0.772-3.08-0.226-4.582c-0.317-0.477-0.444-1.084-0.637-1.64c-0.256-0.737-0.294-1.661-0.773-2.187
		c-0.921-1.008-2.098-1.78-3.152-2.67c-0.617-0.521-1.222-1.06-1.795-1.628c-0.572-0.564-1.125-1.153-1.627-1.778
		c-0.199-0.246-0.311-0.611-0.34-0.935c-0.061-0.634-0.074-1.278-0.039-1.913c0.131-2.398-1.438-4.45-4.342-4.803
		c-1.961-0.238-4.007-0.227-5.719-1.475c0.086-0.322,0.334-0.714,0.237-0.978c-0.637-1.728-0.587-3.735-1.981-5.155
		c-0.945-0.961-1.861-1.988-2.953-2.753c-1.049-0.731-2.266-1.426-3.4-0.601c-0.096-0.498-0.041-1.102-0.314-1.438
		c-0.408-0.504-1.117-0.752-1.578-1.227c-0.764-0.789-1.662-1.02-2.621-0.662c-1.482,0.556-2.953,1.171-4.354,1.902
		C242.017,2.859,240.686,4.133,239.098,4.638z"/>
	<path fill-rule="evenodd" clip-rule="evenodd" d="M259.527,14.405c2.26,0.138,4.465,0.29,6.672,0.403
		c3.303,0.17,4.773,2.991,4.039,5.979c-0.285,1.157-0.641,2.296-1.012,3.616c2.381-0.139,4.305,0.893,6.17,2.05
		c1.003,0.622,1.805,1.246,1.852,2.748c0.035,1.168,0.744,2.47,1.51,3.425c1.072,1.334,0.771,2.703,0.379,3.965
		c-0.674,2.159-2.116,3.902-3.711,5.506c-1.555,1.563-3.549,1.521-5.486,1.477c-1.033-0.022-1.576,0.33-2.152,1.124
		c-0.456,0.63-1.225,1.042-1.879,1.518c-0.963,0.7-1.93,1.394-2.922,2.048c-1.724,1.135-3.415,2.334-5.219,3.328
		c-2.254,1.243-4.387,1.094-6.127-1.33c-0.689,0.914-1.285,1.682-1.855,2.467c-0.605,0.836-1.215,1.674-1.775,2.541
		c-0.467,0.724-1.041,1.058-1.767,0.791c2.226-2.254,3.665-5.174,5.545-7.76c0.185,2.229,2.042,3.639,4.098,2.847
		c1.726-0.664,3.345-1.652,4.93-2.63c1.593-0.98,3.112-2.088,4.61-3.211c0.83-0.624,1.777-1.163,1.885-2.449
		c0.072-0.863,1.012-1.118,1.841-0.881c1.97,0.562,4.054,1.058,5.647-0.738c1.254-1.413,2.395-2.967,3.32-4.607
		c0.365-0.647,0.07-1.709-0.039-2.566c-0.074-0.584-0.383-1.134-0.527-1.713c-0.979-3.883-3.754-5.798-7.416-6.623
		c-0.606-0.137-1.539,0.196-2.01,0.642c-0.857,0.813-1.469,1.882-2.205,2.827c-0.477,0.61-0.086,0.875,0.361,1.24
		c0.572,0.47,1.018,1.096,1.598,1.556c0.336,0.267,0.822,0.343,1.402,0.565c-0.189,0.235-0.469,0.583-0.848,1.057
		c0.16,0.423,0.383,1.009,0.635,1.672c-1.194,0.936-2.335,1.92-3.566,2.773c-1.347,0.933-1.814,0.813-2.93-0.434
		c-0.131-0.146-0.277-0.275-0.41-0.407c-0.549,0.372-0.549,0.372-0.633,2.027c-0.441-0.209-0.848-0.403-1.346-0.64
		c-0.055,0.373-0.096,0.658-0.158,1.089c-0.427-0.126-0.783-0.231-0.914-0.269c-2.374,1.035-4.343,0.222-6.385-0.677
		c-0.488,1.08-1.1,0.748-1.84,0.185c-0.781-0.592-1.635-1.103-2.502-1.563c-2.072-1.101-3.778-2.521-4.465-4.87
		c-0.172-0.588-0.396-0.611-0.949-0.395c-1.246,0.489-2.52,1.075-3.82,1.199c-0.822,0.077-1.844-0.439-2.553-0.983
		c-1.379-1.062-2.576-2.356-3.904-3.493c-0.344-0.294-0.888-0.356-1.34-0.526c-0.053,0.108-0.103,0.217-0.154,0.325
		c0.246,0.267,0.492,0.532,0.736,0.8c-2.16-1.396-2.839,0.948-4.26,1.622c-0.014-0.306-0.025-0.581-0.045-1.004
		c-2.123,0.637-3.508,2.055-4.713,3.687c-1.551,2.101-1.975,4.593-2.162,7.088c-0.19,2.529-0.281,5.09-0.104,7.614
		c0.185,2.598,1.621,4.629,3.793,6.075c3.553,2.366,7.492,3.649,11.741,3.862c1.177,0.059,2.374-0.289,3.562-0.438
		c0.219-0.028,0.443,0.008,0.666,0.016c0.047,0.117,0.092,0.236,0.139,0.354c-0.398,0.162-0.785,0.395-1.199,0.473
		c-3.578,0.673-7.068,0.192-10.438-1.053c-2.502-0.926-4.977-1.98-6.826-4.031c-1.992-2.209-2.498-4.896-2.426-7.764
		c0.035-1.383-0.146-2.795,0.064-4.146c0.597-3.799,1.012-7.653,4.315-10.419c1.511-1.265,3.157-2.084,4.913-2.84
		c0.969-0.417,1.846-1.046,2.629-1.501c0.484-0.687,0.914-1.293,1.271-1.799c-0.631-1.674-1.342-3.384-1.921-5.137
		c-0.648-1.967-0.398-3.97,0.201-5.888c0.914-2.93,2.291-5.637,4.92-7.407c0.955-0.645,2.162-0.915,3.25-1.365
		c0.566-0.235,1.162-0.432,1.68-0.75c1.892-1.165,3.714-2.447,5.643-3.539c1.424-0.806,3.238-0.664,3.898,0.4
		c0.547,0.883,0.832,2.082,0.812,3.131c-0.05,2.528-1.35,4.528-3.184,6.2c-1.144,1.043-2.285,2.087-3.441,3.119
		c-0.205,0.185-0.447,0.368-0.704,0.443c-0.279,0.082-0.632,0.122-0.88,0.013c-0.131-0.057-0.225-0.553-0.12-0.705
		c0.149-0.219,0.485-0.324,0.757-0.446c0.41-0.185,0.93-0.24,1.229-0.529c1.307-1.269,2.68-2.501,3.771-3.942
		c0.818-1.082,1.386-2.418,1.786-3.726c0.232-0.759,0.072-1.736-0.187-2.525c-0.438-1.338-1.198-1.247-2.521-1.033
		c-1.845,0.298-3.124,1.452-4.64,2.248c-0.248,0.13-0.531,0.233-0.721,0.426c-1.387,1.396-3.008,2.101-4.967,2.562
		c-1.24,0.291-2.361,1.705-3.229,2.849c-1.762,2.323-2.886,4.956-2.908,7.958c-0.02,2.828,0.86,5.338,2.744,7.438
		c0.33,0.369,1.025,0.417,1.557,0.597c0.176,0.059,0.482-0.004,0.539,0.097c0.549,0.96,1.189,0.542,1.801,0.129
		c0.535-0.36,1.031-0.778,1.527-1.239c0.609-0.52,1.273-0.988,1.812-1.574c0.586-0.637,1.057-1.381,1.601-2.111
		c0.103,0.887,0.104,1.623,0.288,2.309c0.182,0.676,0.547,1.303,0.959,2.24c0.396-0.733,0.572-1.143-0.119-1.706
		c-0.549-0.449-0.949-1.064-0.031-1.767c0.346,0.683,0.645,1.27,0.988,1.945c0.373-0.434,0.643-0.746,0.928-1.076
		c0.529,0.417,0.943,0.871,1.457,1.118c1.438,0.693,2.756,0.057,3.918-0.687c3.135-2.01,4.922-5.065,6.059-8.077
		c0.498-0.252,0.779-0.301,0.886-0.464c1.565-2.367,1.095-6.163-1.124-7.961c-1.086-0.879-2.418-1.455-3.638-2.168
		c-0.165-0.097-0.339-0.184-0.489-0.299c-0.039-0.027-0.004-0.15-0.002-0.229c2.037-0.367,4.826,1.682,5.894,3.454
		C260.304,9.821,260.337,12.13,259.527,14.405z M258.519,36.425c-0.655-0.649-1.311-1.298-1.965-1.948
		c-0.04,1.4,0.637,1.912,1.98,1.931c-0.295,0.28-0.59,0.562-1.035,0.985c0.668,0.148,1.258,0.279,1.846,0.408
		c0.062-0.122,0.125-0.246,0.188-0.368C259.195,37.097,258.857,36.761,258.519,36.425z M258.001,17.363
		c-0.896,2.109-1.893,3.943-2.445,5.904c-0.461,1.637-1.051,3.591,1.178,4.681c0.057,0.028,0.071,0.136,0.113,0.202
		c1.096,1.705,2.502,2.258,4.51,1.815c0.197-0.043,0.447,0.11,0.662,0.201c0.736,0.314,1.763-0.271,1.738-0.997
		c-0.087-2.365,0.52-3.674,2.695-4.24c1.914-0.497,2.25-1.877,2.75-3.316c0.115-0.337,0.148-0.701,0.252-1.045
		c0.787-2.633-0.879-4.914-3.588-4.858c-0.969,0.021-1.932,0.19-2.9,0.231c-1.014,0.042-1.479,0.646-1.727,1.523
		c-0.066,0.237-0.111,0.481-0.166,0.723c-0.076,0.006-0.15,0.011-0.226,0.018c-0.149-0.403-0.3-0.806-0.522-1.4
		c-0.554,0.66-0.988,1.178-1.477,1.76C258.593,18.202,258.393,17.918,258.001,17.363z M246.765,27.677
		c-0.055,0.014-0.108,0.027-0.164,0.041c0.529,1.372,1.059,2.745,1.588,4.118c0.15,0.396,0.482,0.836,0.41,1.188
		c-0.525,2.5,0.949,4.894,3.645,5.439C250.373,34.777,248.568,31.227,246.765,27.677z M241.699,24.572
		c-0.16-0.009-0.318-0.019-0.479-0.027c-0.088,0.529-0.244,1.059-0.252,1.59c-0.016,0.991-0.02,1.994,0.104,2.975
		c0.17,1.338-0.256,2.285-1.041,2.639c-1.332-0.106-2.226-0.178-3.291-0.263c1.35,1.283,3.969,1.345,5.195,0.223
		c0.168-0.154,0.175-0.543,0.17-0.822c-0.02-1.147-0.05-2.295-0.123-3.44C241.921,26.486,241.794,25.529,241.699,24.572z
		 M249.165,29.398c-0.106,0.059-0.212,0.119-0.319,0.179c1.062,2.092,2.125,4.183,3.188,6.274c0.072,0.141,0.172,0.277,0.199,0.427
		c0.278,1.509,1.818,1.53,2.57,2.396C252.923,35.582,251.044,32.49,249.165,29.398z M245.044,31.02
		c-0.803,1.602,0.627,4.139,2.891,4.975c-0.174-0.906-0.336-1.754-0.5-2.627C245.414,33.766,246.195,31.448,245.044,31.02z
		 M256.74,32.783c-0.068,0.22-0.135,0.438-0.201,0.658c1.746,0.551,3.494,1.103,5.24,1.654c0.045-0.138,0.09-0.275,0.135-0.412
		C260.337,33.617,258.58,33.078,256.74,32.783z M260.615,33.416c1.961,0.672,3.92,1.344,5.881,2.016
		c0.049-0.164,0.098-0.328,0.145-0.492C264.764,33.977,262.828,33.217,260.615,33.416z M253.982,34.042
		c0.143-0.14,0.285-0.279,0.428-0.419c-0.864-0.965-1.73-1.93-2.596-2.894c-0.104,0.091-0.209,0.183-0.313,0.274
		C252.372,31.979,252.357,33.705,253.982,34.042z M237.966,30.572c0.109,0.076,0.217,0.152,0.326,0.228
		c0.146-0.236,0.365-0.456,0.426-0.713c0.113-0.489,0.035-1.391,0.212-1.437c1.056-0.271,0.579-0.873,0.511-1.435
		C238.279,27.375,237.916,28.242,237.966,30.572z M256.624,38.359c0.085-0.142,0.171-0.285,0.256-0.428
		c-0.609-0.604-1.218-1.209-1.935-1.92c-0.139,0.562-0.221,0.898-0.338,1.374C255.289,37.716,255.957,38.038,256.624,38.359z
		 M233.337,25.801c0.129,1.014,0.229,1.788,0.355,2.794C235.035,26.965,235.003,26.633,233.337,25.801z M267.109,34.008
		c-0.664-1.321-1.033-1.415-2.191-0.789C265.589,33.461,266.196,33.68,267.109,34.008z"/>
</g>
<g>
	<path fill-rule="evenodd" clip-rule="evenodd" fill="#FFFFFF" d="M236.511,144.787c-1.885,2.453-3.193,5.195-2.373,8.448
		c0.308,1.217,0.683,2.427,1.134,3.598c1.709,4.457,4.686,7.566,9.491,8.586c0.873,0.185,1.077,0.538,1.043,1.363
		c-0.184,4.494,0.915,8.63,3.676,12.236c0.869,1.137,1.939,2.122,2.791,3.27c2.447,3.299,6.03,3.422,8.544,1.277
		c3.054-2.605,5.476-5.709,6.499-9.711c0.24-0.938,0.301-2.029,1.759-1.819c0.182,0.025,0.445-0.193,0.601-0.363
		c1.74-1.912,3.605-3.735,5.14-5.803c0.815-1.099,1.554-2.064,2.847-2.567c3.256-1.263,5.378-3.736,7.141-6.639
		c1.306-2.149,1.651-4.457,1.451-6.883c-0.129-1.539-0.666-3.092-0.537-4.6c0.163-1.93-0.617-3.228-1.773-4.309
		c0.256-0.506,0.494-0.979,0.734-1.461c-0.848,0.124-1.54,0.452-1.965,0.241c-0.903-0.451-1.684-1.163-2.491-1.8
		c-0.75-0.593-1.073-1.371-0.833-2.329c0.309-1.222-0.186-1.929-1.463-2.282c0.128,0.817,0.797,1.717-0.156,2.031
		c-0.531-0.468-0.846-0.961-1.249-1.054c-0.766-0.175-1.728,0.618-2.322-0.535c-0.053-0.104-0.599,0.032-0.913,0.083
		c-0.308,0.049-0.611,0.143-0.921,0.197c-2.651,0.463-5.192,1.201-7.453,2.754c-0.746,0.512-1.616,0.842-2.479,1.28
		c0.061,1.591-1.577,1.791-2.422,2.893c-0.249-0.425-0.354-0.678-0.523-0.878c-0.956-1.137-1.441-2.541-3.082-3.256
		c-2.617-1.143-5.174-1.521-7.922-0.945c-2.286,0.479-4.654,1.004-6.367,2.605C240.058,140.341,238.231,142.545,236.511,144.787z"/>
	<path fill-rule="evenodd" clip-rule="evenodd" d="M267.525,172.543c-0.287,0.961-0.542,2.274-1.062,3.472
		c-1.457,3.346-3.536,6.219-6.682,8.218c-2.074,1.317-4.014,0.804-5.771-0.532c-5.188-3.947-8.031-9.156-8.195-15.738
		c-0.004-0.159-0.007-0.319,0.004-0.478c0.12-1.776,0.143-1.907-1.562-2.198c-4.436-0.761-6.909-3.818-8.594-7.535
		c-0.9-1.984-1.267-4.278-1.503-6.473c-0.125-1.171,0.336-2.529,0.883-3.627c1.708-3.427,4.115-6.396,7.02-8.839
		c1.312-1.104,3.137-1.759,4.837-2.2c2.462-0.64,5.018-0.915,7.525,0.02c1.854,0.691,3.552,1.607,4.673,3.301
		c0.248,0.376,0.247,0.917,0.412,1.588c-2.789-3.939-6.392-4.957-10.678-4.169c-1.231,0.227-2.453,0.506-3.848,0.796
		c0.315,0.522,0.465,0.77,0.636,1.052c-2.676-0.429-4.464,1.538-5.646,3.825c-0.629,1.217-0.992,2.569-1.658,3.838
		c0.065-0.802,0.132-1.603,0.198-2.404c-0.116-0.032-0.232-0.064-0.349-0.098c-1.41,2.486-3.678,4.535-3.053,7.968
		c0.555,3.042,1.421,5.855,3.387,8.315c1.886,2.361,4.366,3.473,7.252,3.889c0.193,0.027,0.576-0.09,0.596-0.193
		c0.487-2.553,2.997-3.203,4.525-4.757c0.979-0.994,2.324-1.636,3.535-2.385c0.208-0.127,0.573,0.001,0.866,0.011
		c-0.14,0.276-0.208,0.666-0.432,0.812c-0.853,0.556-1.74,1.066-2.646,1.535c-1.656,0.857-2.637,2.23-3.303,3.932
		c-0.482,1.232-1.125,2.4-1.655,3.513c-0.029-0.058-0.138-0.271-0.313-0.616c-0.682,3.064,0.157,5.795,1.199,8.4
		c1.354,3.389,3.593,6.178,6.623,8.291c1.752,1.223,3.271,1.393,4.949,0.125c3.73-2.815,6.333-6.463,6.868-11.176
		c0.163-1.439-0.539-3.09-1.196-4.478c-0.58-1.227-1.568-1.09-2.35,0.06c-0.701,1.033-1.425,2.053-2.131,3.085
		c-0.088,0.128-0.17,0.291-0.172,0.44c-0.023,1.84-0.248,3.716,0.83,5.375c-1.781,0.08-1.973-0.017-2.954-1.518
		c-2.165,2.415-2.213,2.442-3.155,1.902c0.648-0.748,1.357-1.465,1.942-2.271c0.482-0.666,0.415-1.339-0.142-2.064
		c-1.967-2.564-1.955-3.934,0.17-6.441c0.896-1.059,1.156-2.157,1.196-3.497c0.057-1.864,0.289-3.712-0.585-5.638
		c-0.703,0.357-1.368,0.695-2.182,1.107c0.371-1.017,0.644-1.816,0.965-2.597c0.055-0.133,0.316-0.253,0.484-0.256
		c1.376-0.023,1.848-0.829,1.871-2.071c0.029-1.545,0.121-3.09,0.094-4.633c-0.01-0.529-0.311-1.049-0.457-1.579
		c-0.117-0.423-0.156-0.875-0.322-1.276c-0.165-0.4-0.447-0.751-0.771-1.274c0.182-0.299,0.758-0.257,1.215,0.455
		c0.36,0.562,0.619,1.188,0.943,1.827c0.662-0.893,1.209-1.804,1.922-2.555c1.223-1.287,2.262-0.997,2.652,0.739
		c0.358,1.591,0.993,2.983,2.119,4.188c0.816,0.873,1.492,1.876,2.361,2.989c-1.29-0.758-1.688,0.067-2.17,0.902
		c-1.105,1.914-2.529,3.651-2.83,5.971c-0.137,1.067,0.197,1.934,1.164,2.403c0.506,0.246,1.054,0.567,1.374,1.007
		c1.568,2.146,2.956,2.621,5.551,1.812c1.104-0.344,2.214-0.676,3.335-0.957c2.871-0.722,5.141-2.341,6.898-4.671
		c1.359-1.802,2.788-3.618,2.779-6.044c-0.006-1.256,0.152-2.632-0.293-3.741c-1.108-2.767-2.205-5.631-3.886-8.056
		c-2.337-3.371-5.853-5.28-10.049-5.038c-2.716,0.155-5.024,1.683-7.07,3.493c-0.799,0.706-1.646,1.357-2.663,1.849
		c0.552-0.857,1.104-1.716,1.629-2.532c1.15-0.693,2.38-1.394,3.567-2.161c3.069-1.985,6.243-2.1,9.569-0.704
		c3.856,1.621,6.242,4.559,8.034,8.244c1.073,2.208,1.996,4.447,2.217,6.837c0.144,1.565-0.061,3.371-0.738,4.764
		c-1.87,3.849-4.493,7.015-8.806,8.514c-0.976,0.338-1.556,1.788-2.342,2.706c-1.421,1.661-2.806,3.361-4.328,4.925
		C269.386,172.05,268.518,172.147,267.525,172.543z M265.357,165.845c1.09,0.952,1.843,2.119,2.096,3.604
		c0.078,0.453,0.336,0.891,0.573,1.301c0.343,0.59,0.843,0.775,1.349,0.216c1.745-1.927,3.461-3.879,5.388-6.045
		c-2.987-0.181-5.728,1.51-7.993-0.806C266.261,164.735,265.845,165.245,265.357,165.845z"/>
</g>
<g>
	<path fill-rule="evenodd" clip-rule="evenodd" fill="#FFFFFF" d="M188.815,198.7c-0.111,1.133-0.562,2.271-0.472,3.375
		c0.202,2.49,0.897,4.926,2.387,6.943c1.15,1.555,2.055,3.738,4.775,3.223c-0.054,0.371-0.124,0.637-0.127,0.906
		c-0.016,1.375-0.186,2.779,0.035,4.119c0.183,1.111,0.833,2.146,1.273,3.215c0.241,0.588,0.396,1.23,0.73,1.756
		c1.207,1.906,2.684,3.57,4.647,4.736c2.378,1.414,5.177,1.928,6.009-1.994c0.117-0.545,0.431-1.045,0.772-1.844
		c1.289,2.543,3.125,4.1,5.206,5.402c0.256,0.16,0.557,0.252,0.846,0.354c0.734,0.26,1.521,0.412,2.198,0.775
		c1.501,0.803,4.132,0.838,4.778-1.791c0.422-1.707,0.763-3.359,0.234-5.15c-0.327-1.117-0.305-2.367-0.275-3.555
		c0.04-1.625,0.39-1.799,2.056-2.141c0.891-0.182,1.885-0.553,2.519-1.16c2.381-2.291,2.931-5.143,1.965-8.246
		c-0.277-0.893-0.353-1.613,0.31-2.312c0.642-0.676,1.351-1.305,1.903-2.049c0.43-0.576,0.76-1.271,0.951-1.963
		c0.143-0.514-0.019-1.107-0.029-1.666c-0.041-1.883-2.27-3.307-4.018-2.588c-0.81,0.334-1.635,0.668-2.488,0.84
		c-0.429,0.086-1.145-0.031-1.363-0.326c-0.865-1.17-1.583-2.447-2.266-3.541c-2.309-0.51-4.356,0.033-6.266,1.338
		c-0.807-1.867-1.867-3.539-2.19-5.342c-0.219-1.215-0.56-2.029-1.44-2.779c-0.377-0.324-0.646-0.822-0.847-1.292
		c-0.421-0.986-1.138-1.479-2.178-1.639c-2.385-0.365-4.782-0.288-6.938,0.737c-2.037,0.966-3.77,2.584-5.82,3.506
		c-1.955,0.879-3.069,2.574-4.322,3.996C189.93,194.179,189.043,196.378,188.815,198.7z"/>
	<path fill-rule="evenodd" clip-rule="evenodd" d="M220.754,208.929c0.429-0.191,0.697-0.309,0.955-0.424
		c0.163,0.672,0.309,1.266,0.369,1.52c-0.745,1.281-1.371,2.359-2.074,3.566c1.54,0.334,1.374-1.057,2.078-1.355
		c-0.119,1.158-1.555,2.82-2.692,2.932c0.208-0.738,0.398-1.42,0.589-2.104c-0.106-0.053-0.21-0.105-0.314-0.158
		c-0.187,0.33-0.376,0.654-0.552,0.988c-0.284,0.533,0.133,1.604-1.182,1.381c-0.229-0.037-0.608,0.848-0.928,1.301
		c-0.229,0.324-0.426,0.699-0.725,0.943c-1.156,0.932-2.387,1.777-3.512,2.744c-0.734,0.631-1.354,0.771-2.015-0.004
		c-1.373,1.486-1.376,2.691,0.304,3.998c1.525,1.184,3.23,2.164,4.938,3.078c1.562,0.836,3.013,0.264,4.265-0.824
		c1.179-1.025,1.082-2.305,0.86-3.738c-0.285-1.828-0.282-3.703-0.338-5.561c-0.007-0.227,0.359-0.59,0.62-0.674
		c0.825-0.262,1.685-0.404,2.524-0.621c1.499-0.383,2.496-1.365,3.096-2.746c0.673-1.549,1.235-3.123,0.733-4.867
		c-0.102-0.354-0.003-0.762,0.004-1.145c0.141-0.023,0.281-0.047,0.421-0.07c0.209,1.082,0.659,2.18,0.574,3.238
		c-0.159,1.992-0.603,4-2.356,5.291c-0.705,0.52-1.576,0.93-2.432,1.113c-2.078,0.449-2.473,0.764-2.326,2.896
		c0.103,1.5,0.383,2.996,0.682,4.475c0.2,0.99-0.002,1.734-0.684,2.498c-1.892,2.123-4.432,2.617-6.91,1.18
		c-1.267-0.736-2.544-1.482-3.692-2.381c-0.881-0.688-1.563-1.625-2.435-2.555c-0.271,0.768-0.613,1.623-0.876,2.504
		c-0.634,2.123-1.929,2.893-3.998,2.166c-2.347-0.824-4.114-2.398-5.592-4.41c-1.36-1.848-1.843-4.062-2.851-6.047
		c-0.774-1.527-0.057-3.053,0.18-4.568c0.062-0.42,0.208-0.828,0.396-1.553c-0.606,0.314-0.961,0.496-1.242,0.643
		c-0.632-0.49-1.311-0.938-1.891-1.488c-0.743-0.711-1.618-1.396-2.064-2.281c-2.21-4.375-2.67-8.746,0.043-13.193
		c2.907-4.762,6.994-7.982,12.159-9.89c1.856-0.686,3.827-0.901,5.757-0.318c0.613,0.184,1.28,0.686,1.607,1.232
		c1.162,1.935,2.256,3.917,3.236,5.948c0.512,1.059,0.725,2.258,1.089,3.389c0.057,0.182,0.201,0.332,0.337,0.543
		c1.673-1.381,3.5-1.213,5.399-0.746c2.071,0.508,3.203,1.789,3.374,3.805c1.343-0.467,2.607-1,3.922-1.342
		c1.424-0.369,2.711,0.164,3.423,1.391c0.698,1.197,0.703,2.605,0.087,3.906c-0.137,0.289-0.524,0.463-0.809,0.672
		c-0.897,0.656-1.781,1.336-2.711,1.943c-0.334,0.219-0.784,0.262-1.182,0.387c-0.086-0.166-0.171-0.33-0.257-0.496
		c1.045-0.729,2.059-1.504,3.144-2.168c1.199-0.736,1.586-1.861,1.064-3.5c-0.338-1.057-1.54-1.809-2.753-1.52
		c-1.033,0.244-2.03,0.682-2.999,1.129c-0.284,0.133-0.393,0.615-0.624,0.902c-0.171,0.211-0.444,0.531-0.617,0.5
		c-0.228-0.041-0.466-0.348-0.585-0.596c-0.092-0.193,0.026-0.473-0.008-0.707c-0.174-1.201-0.585-2.205-1.895-2.625
		c-0.867-0.277-1.662-0.832-2.541-1.008c-1.59-0.322-2.738,0.605-3.437,2.736c0.518-0.08,0.94-0.244,1.321-0.178
		c0.573,0.1,1.389,0.193,1.628,0.584c0.917,1.486,1.612,3.107,2.451,4.645c0.846,1.549,0.504,3.186,0.466,4.807
		C220.749,208.278,220.754,208.515,220.754,208.929z M213.963,197.858c-0.164-3.674-1.723-6.68-3.668-9.545
		c-0.315-0.465-0.39-1.09-0.671-1.584c-0.285-0.504-0.615-1.251-1.052-1.351c-2.247-0.525-4.509-0.541-6.605,0.637
		c-1.351,0.759-2.731,1.487-3.989,2.382c-4.129,2.939-7.707,6.205-8.221,11.787c-0.297,3.25,0.355,6.119,2.541,8.387
		c2.396,2.484,3.033,2.787,5.469-0.238c1.371-1.703,3.201-3.043,4.854-4.516C205.898,200.899,209.476,198.54,213.963,197.858z
		 M200.459,221.556c0.265-0.365,0.449-0.748,0.745-0.998c0.883-0.756,1.52-1.568,1.422-2.848c-0.033-0.416,0.38-0.865,0.591-1.301
		c0.188,0.375,0.456,0.729,0.554,1.125c0.264,1.074,1.021,1.451,2.004,1.57c2.062,0.248,3.672-0.559,5.125-1.986
		c1.7-1.672,3.623-3.125,5.272-4.844c1.44-1.502,3.2-2.938,3.004-5.387c-0.065-0.834-0.14-1.672-0.298-2.49
		c-1.061-5.432-4.477-6.748-8.878-4.596c-2.424,1.184-4.478,3.105-6.812,4.504c-2.546,1.523-4.596,3.512-6.07,6.023
		c-0.92,1.564-2.111,3.275-0.512,5.17c0.09,0.107,0.116,0.316,0.087,0.461c-0.307,1.611,0.596,2.938,1.13,4.309
		c0.26,0.664,0.621,2.035,2.006,1.078C199.956,221.259,200.31,221.503,200.459,221.556z M207.156,223.249
		c-1.842-0.051-3.552-0.098-5.089-0.141c0.191,0.188,0.556,0.545,0.92,0.902c-0.065,0.109-0.131,0.219-0.195,0.328
		c-1.177-0.479-2.353-0.955-3.501-1.422c0.879,1.701,3.609,3.664,5.41,3.805c0.393,0.031,1.041-0.061,1.163-0.301
		C206.378,225.407,206.74,224.315,207.156,223.249z"/>
</g>
<g>
	<path fill-rule="evenodd" clip-rule="evenodd" fill="#FFFFFF" d="M283.923,284.097c1.052-0.145,1.941-0.67,2.244-1.738
		c0.505-1.779,1.608-2.973,3.374-3.754c0.204,0.174,0.409,0.307,0.56,0.486c1.191,1.408,2.758,1.908,4.535,1.838
		c1.751-0.068,2.378-0.756,2.003-2.443c-0.353-1.582-0.881-3.137-1.453-4.66c-0.579-1.541-0.13-2.342,1.474-2.605
		c1.055-0.174,2.108-0.479,3.102-0.875c1.615-0.646,2.702-1.793,3.454-3.445c0.923-2.025,0.789-4.129,0.963-6.215
		c0.216-2.594-0.485-4.924-2.202-6.816c-0.695,0.111-1.295,0.342-1.858,0.275c-1.761-0.203-3.326,0.264-4.792,1.174
		c-1.129,0.703-2.241,1.434-3.478,2.225c-0.252-0.758-0.479-1.389-0.671-2.027c-0.757-2.531-3.238-3.461-5.513-2.115
		c-1.913,1.131-3.132,2.807-3.968,4.803c-0.913,2.184-0.906,2.191-3.211,1.801c-0.669-0.115-1.341-0.217-2.014-0.312
		c-2.108-0.299-3.368,0.35-3.993,2.352c-0.546,1.74-0.914,3.547-1.229,5.35c-0.311,1.789,0.513,3.178,2.086,3.938
		c1.075,0.52,1.012,1.115,0.679,2.008c-0.659,1.762-0.831,3.66,0.259,5.193c1.185,1.664,2.75,3.072,4.229,4.51
		C280.047,284.54,282.005,284.362,283.923,284.097z"/>
	<path fill-rule="evenodd" clip-rule="evenodd" d="M294.344,269.913c0.32,0.035,0.492,0.004,0.598,0.074
		c1.437,0.949,2.803,0.57,4.134-0.221c1.504-0.893,2.84-1.984,3.406-3.709c0.944-2.875,0.667-5.775-0.221-8.59
		c-0.588-1.859-2.566-2.537-4.802-1.627c-4.062,1.656-7.131,4.465-9.061,8.441c-0.213,0.439,0.005,0.766,0.236,1.254
		c0.88,1.865,1.607,3.865,1.951,5.891c0.131,0.773-0.903,1.758-1.438,2.629c-0.185,0.299-0.463,0.543-0.725,0.84
		c0.158,0.279,0.393,0.525,0.444,0.807c0.558,2.99,2.819,3.936,5.386,4.475c1.142,0.238,1.736-0.316,1.445-1.447
		c-0.343-1.338-0.833-2.652-1.394-3.918c-0.452-1.02-1.104-1.951-1.708-2.994c0.433-0.262,0.938-0.656,1.51-0.834
		c0.123-0.041,0.489,0.689,0.782,1.121c-0.36,0.184-0.631,0.322-1.022,0.52c0.242,0.381,0.427,0.719,0.654,1.023
		c1.226,1.643,1.862,3.504,2.036,5.529c0.107,1.246-0.619,1.998-1.868,1.869c-2.038-0.211-3.975-0.693-5.187-2.367
		c-1.938,0.787-2.842,2.271-3.645,3.975c-0.343,0.727-1.351,1.385-2.178,1.592c-2.614,0.656-4.827-0.281-6.64-2.211
		c-1.309-1.393-2.915-2.672-3.201-4.658c-0.178-1.229,0.038-2.605,0.432-3.799c0.47-1.426,0.589-1.492-0.785-2.006
		c-1.178-0.441-2.342-2.037-2.259-3.391c0.148-2.402,0.649-4.746,1.903-6.844c0.813-1.363,1.643-1.631,3.222-1.322
		c1.397,0.273,2.809,0.48,3.94,0.67c1.387-2.111,2.53-4.193,4.005-6.006c1.671-2.053,4.051-2.17,5.853-0.367
		c0.688,0.688,0.896,1.859,1.321,2.811c-0.11,0.088-0.22,0.178-0.331,0.268c-0.226-0.158-0.534-0.271-0.658-0.49
		c-0.217-0.373-0.299-0.822-0.473-1.223c-0.675-1.553-2.202-2.08-3.653-1.193c-0.825,0.506-1.462,1.045-1.854,2.164
		c-0.454,1.293-1.757,2.299-2.725,3.4c-0.504,0.572-0.595,1.053,0.156,1.432c1.805,0.906,3.621,1.791,5.506,2.721
		c0.292-0.631,0.559-1.473,1.028-2.178c1.863-2.799,4.224-5.135,7.255-6.6c1.234-0.598,2.74-0.793,4.135-0.848
		c1.402-0.053,2.474,0.781,3.029,2.137c0.894,2.184,1.029,4.459,0.948,6.795c-0.094,2.748-1.077,4.984-3.451,6.426
		c-1.004,0.609-2.157,1.035-3.296,1.344C295.965,271.579,295.18,270.825,294.344,269.913z M276.112,270.351
		c-0.427,1.332-0.676,2.596-1.225,3.713c-0.75,1.525-0.696,2.955,0.191,4.301c1.224,1.855,2.643,3.525,4.651,4.658
		c1.173,0.662,2.084,0.547,3.047-0.254c0.915-0.76,1.118-0.678,1.351,0.545c0.15-0.066,0.312-0.102,0.429-0.191
		c1.631-1.262,2.303-5.656,1.108-7.311c-0.427-0.592-0.878-0.939-1.71-0.486c-0.438,0.24-1.407,0.307-1.612,0.043
		c-1.146-1.479-2.389-2.959-2.525-5.117c0.458,0.121,0.795,0.209,0.822,0.217c0.569-0.504,1.003-1.174,1.357-1.135
		c0.491,0.055,1.039,0.564,1.353,1.021c0.536,0.781,0.85,1.715,1.366,2.514c0.556,0.855,1.208,1.682,2.507,1.496
		c-0.195-0.385-0.359-0.707-0.639-1.256c0.704,0.1,1.181,0.166,1.846,0.258c0.05-0.891,0.141-1.713,0.133-2.531
		c-0.017-1.463-1.695-4.633-2.654-5.613c-1.009-1.031-2.122-1.738-3.484-2.191c-1.112-0.371-2.109-1.096-3.228-1.426
		c-0.997-0.295-2.121-0.498-2.899,0.656c-0.372,0.551-0.88,1.01-1.326,1.512c-0.123-0.08-0.245-0.158-0.367-0.238
		c0.41-0.854,0.821-1.709,1.407-2.93c-0.797,0.324-1.56,0.395-1.877,0.807c-1.561,2.025-2.189,4.434-2.032,6.932
		c0.052,0.824,0.912,1.674,1.562,2.361c0.663,0.703,1.284,0.059,1.862-0.346C275.603,270.304,275.75,270.351,276.112,270.351z"/>
</g>
<g>
	<path fill-rule="evenodd" clip-rule="evenodd" fill="#FFFFFF" d="M143.937,297.888c1.482-0.303,2.557-1.199,3.486-2.365
		c1.217-1.525,1.752-3.287,2.041-5.168c0.468-3.061-0.575-4.504-3.599-5.049c-0.338-0.062-0.866-0.459-0.876-0.717
		c-0.031-0.824-0.127-1.838,0.285-2.453c1.011-1.512,0.469-3.021,0.367-4.543c-0.021-0.291-0.172-0.686-0.395-0.832
		c-1.139-0.748-1.867-2.131-3.463-2.195c-0.356-0.016-0.683-0.398-1.051-0.527c-0.525-0.184-1.084-0.422-1.618-0.404
		c-2.149,0.072-3.753,1.457-5.479,2.488c-0.474,0.283-1.019,1.076-0.942,1.537c0.206,1.23-0.494,2.043-0.927,3.008
		c-0.296,0.656-0.671,0.83-1.312,0.533c-1.327-0.611-2.389-0.113-3.353,0.809c-1.683,1.609-2.127,3.66-1.83,5.83
		c0.274,2.02,1.102,3.779,3.668,4.221c-2.285,1.223-2.57,2.314-1.121,4.227c0.662,0.873,1.575,1.561,2.396,2.311
		c0.126,0.113,0.366,0.113,0.558,0.145c0.655,0.104,1.41,0.023,1.946,0.33c1.696,0.965,3.388,0.754,5.095,0.191
		c0.822-0.27,1.377-0.148,1.984,0.529c1.107,1.236,2.273,0.959,2.752-0.645C142.783,298.368,143.203,298.038,143.937,297.888z"/>
	<path fill-rule="evenodd" clip-rule="evenodd" d="M139.104,299.091c-1.077,0.227-2.054,0.41-3.019,0.641
		c-1.492,0.357-2.656-0.07-3.802-1.117c-0.531-0.488-1.554-0.439-2.356-0.623c-1.332-0.307-2.119-1.27-2.637-2.404
		c-0.775-1.701-0.146-2.715,1.893-3.037c-0.236-0.238-0.376-0.502-0.578-0.566c-2.234-0.703-3.227-1.932-3.357-4.418
		c-0.107-2.014,0.283-3.891,1.884-5.324c0.958-0.861,2.007-1.334,3.271-0.729c0.785,0.377,1.055,0.033,1.426-0.656
		c1.891-3.51,4.578-5.887,8.836-5.9c2.658-0.008,4.133,1.359,4.215,4.244c0.051,1.727-0.197,3.459-0.299,5.189
		c-0.023,0.393,0,0.787,0.002,1.012c1.16,0.344,2.316,0.512,3.271,1.039c0.602,0.332,1.15,1.152,1.297,1.846
		c0.746,3.504-1.449,8.223-4.527,9.457c-0.221,0.09-0.443,0.207-0.675,0.229c-0.956,0.084-1.526,0.385-1.711,1.52
		c-0.222,1.361-1.38,1.541-2.356,0.494C139.611,299.696,139.363,299.392,139.104,299.091z M140.687,293.542
		c0.084,0.967,0.129,1.797,0.24,2.617c0.037,0.277,0.209,0.73,0.378,0.758c0.805,0.139,1.702,0.4,2.433,0.18
		c3.4-1.037,5.069-4.955,4.638-8.355c-0.112-0.885-0.569-1.273-1.366-1.584c-1.379-0.541-2.675-0.664-4.018,0.078
		c-0.232,0.131-0.635-0.051-0.959-0.088c0.129-0.324,0.216-0.674,0.398-0.965c0.358-0.574,0.986-1.068,1.117-1.68
		c0.32-1.506,0.59-3.061,0.574-4.594c-0.03-3.186-2.035-4.531-5.14-3.73c-2.755,0.711-4.745,2.309-6.159,4.752
		c-0.476,0.824-0.506,1.416,0.207,2.072c0.241,0.221,0.326,0.611,0.482,0.924c-0.43,0.004-0.887,0.098-1.281-0.021
		c-0.305-0.092-0.545-0.436-0.785-0.695c-0.757-0.814-2.802-0.979-3.607-0.289c-2.277,1.953-2.197,5.363-1.127,7.127
		c0.327,0.541,0.962,0.896,1.469,1.35c0.375-0.932,0.58-1.619,0.916-2.232c0.741-1.355,1.408-1.387,2.461-0.275
		c0.367,0.387,0.893,0.621,1.347,0.928c0.077-0.102,0.151-0.205,0.228-0.305c-0.303-0.283-0.664-0.527-0.895-0.861
		c-0.248-0.357-0.372-0.801-0.654-1.443c1.367,0.074,2.266,1.086,3.48,0.586c0.643-0.266,1.497,0.027,2.201-0.148
		c0.654-0.162,1.022-0.08,1.42,0.461c0.658,0.891,1.399,1.725,2.109,2.58C141.603,291.661,141.527,293.04,140.687,293.542z
		 M137.056,291.948c-0.396,0-0.905,0.1-0.957-0.014c-0.406-0.885-0.988-0.455-1.588-0.34c-0.348,0.068-0.746-0.17-1.113-0.145
		c-0.312,0.021-0.778,0.139-0.891,0.357c-1.049,2.051-0.662,3.486,1.203,4.773c0.262,0.18,0.516,0.377,0.76,0.58
		c1.156,0.965,2.42,1.26,3.889,0.781c0.961-0.312,1.313-0.705,0.527-1.555c-0.039-0.039-0.004-0.148-0.002-0.305
		c0.277-0.055,0.567-0.115,0.877-0.176c-0.029-0.797,0.09-1.6-0.123-2.303c-0.238-0.787-0.779-1.486-1.264-2.361
		c-0.154,0.143-0.484,0.344-0.62,0.633c-0.06,0.129,0.247,0.479,0.446,0.666c0.604,0.572,0.369,0.889-0.337,1.258
		C137.567,293.12,137.316,292.548,137.056,291.948z M130.789,294.548c-0.604-1.197-0.918-1.307-2.084-0.732
		c-0.918,0.453-1.113,1.152-0.602,2.148c0.4,0.781,1.721,1.484,2.245,1.195C130.852,296.882,131.131,295.226,130.789,294.548z
		 M135.708,298.729c-1.167-0.674-2.059-1.188-3.045-1.756C133.072,298.649,133.705,299.05,135.708,298.729z M130.146,291.71
		c0.607-0.648,1.111-1.186,1.664-1.775c-0.619-0.281-1.225-1.039-1.697-0.111C129.869,290.3,130.117,291.028,130.146,291.71z
		 M139.349,298.894c0.787,0.26,1.201,0.395,1.615,0.531c0.133-0.5,0.266-0.998,0.398-1.496c-0.123-0.1-0.248-0.199-0.371-0.297
		C140.55,297.972,140.109,298.31,139.349,298.894z"/>
</g>
<g>
	<path fill-rule="evenodd" clip-rule="evenodd" fill="#FFFFFF" d="M176.257,141.103c0.468,0.89,0.15,1.417-0.398,1.997
		c-0.301,0.318-0.649,0.601-0.901,0.955c-0.749,1.049-0.392,2.07,0.851,2.372c0.527,0.13,1.098,0.091,1.729,0.134
		c0.605,1.404,1.296,1.724,2.867,1.498c0.394-0.059,0.978,0.018,1.213,0.272c1.039,1.133,1.854,1.489,2.973,0.557
		c1.715-1.431,3.209-3.132,4.777-4.735c0.112-0.115,0.137-0.387,0.103-0.566c-0.253-1.287-0.391-2.623-0.841-3.84
		c-0.584-1.586-1.528-3.036-2.129-4.615c-0.657-1.735-1.54-2.416-3.329-1.755c-1.804,0.667-3.631,1.461-5.187,2.564
		C176.47,137.014,175.31,139.289,176.257,141.103z"/>
	<path fill-rule="evenodd" clip-rule="evenodd" d="M177.511,146.479c-0.584-0.014-1.188,0.066-1.746-0.059
		c-1.254-0.279-1.551-1.375-0.66-2.32c0.24-0.258,0.581-0.418,0.846-0.656c0.675-0.607,1.407-1.074,0.528-2.227
		c-0.427-0.559-0.413-1.701-0.192-2.462c0.854-2.96,3.398-3.925,6.021-4.628c0.6-0.162,1.461,0.029,2.001,0.374
		c2.949,1.886,4.358,4.717,4.875,8.122c0.185,1.217,0.121,2.052-1.143,2.58c-0.364,0.151-0.548,0.736-0.873,1.206
		c-0.233-0.118-0.486-0.246-0.737-0.372c-0.782,1.416-1.177,3.162-3.138,3.325c-1.028,0.085-1.566-0.625-1.756-1.526
		c-0.885,0.074-1.748,0.338-2.497,0.149c-0.617-0.157-1.099-0.851-1.641-1.306C177.437,146.612,177.474,146.545,177.511,146.479z
		 M178.427,142.292c0.855-0.526,1.439-0.938,2.07-1.252c0.323-0.16,0.913-0.337,1.072-0.184c1.051,1.009,2.03,2.093,2.982,3.198
		c0.068,0.079-0.271,0.511-0.422,0.779c-0.765-0.496-1.207-0.247-1.459,0.584c-0.029,0.097-0.381,0.094-0.81,0.186
		c0.219-0.575,0.362-0.953,0.491-1.292c-0.894-1.179-1.983-1.535-3.359-0.864c-0.295,0.143-0.722,0.219-1.019,0.12
		c-1.353-0.451-2.413,0.503-2.239,2.083c1.492,0.469,2.415-0.581,3.438-1.365c0.098,0.046,0.197,0.092,0.295,0.137
		c-0.295,0.801-0.591,1.601-0.874,2.365c1.596,1.119,2.572-0.328,3.854-0.768c-0.019,0.268-0.054,0.416-0.034,0.556
		c0.084,0.575,0.185,1.149,0.279,1.724c0.619-0.126,1.467-0.044,1.813-0.422c0.729-0.795,1.749-1.63,1.122-3.005
		c-0.062-0.135,0.02-0.474,0.127-0.524c0.769-0.362,1.562-0.674,2.553-1.088c-0.023-0.104-0.11-0.483-0.209-0.913
		c-0.298,0.198-0.479,0.318-0.939,0.625c0.385-1.989-1.221-2.54-2.266-3.521c1.286-0.762,1.712,0.54,2.734,0.831
		c-0.938-2.294-2.062-4.142-4.196-5.178c-0.235-0.114-0.588-0.216-0.796-0.122c-1.441,0.65-2.985,1.178-4.25,2.086
		c-1.559,1.12-1.832,2.415-1.254,3.908C177.996,140.643,178.498,140.972,178.427,142.292z"/>
</g>
<g>
	<path fill-rule="evenodd" clip-rule="evenodd" fill="#FFFFFF" d="M120.407,219.782c0.256-1.73,0.897-2.004,2.527-1.43
		c0.766,0.27,1.207,0.039,1.499-0.697c0.308-0.775,0.683-1.52,1.067-2.363c0.309,0.086,0.462,0.121,0.611,0.174
		c2.258,0.77,3.534,0.17,4.833-1.803c1.505-2.285,1.752-4.77,1.464-7.326c-0.254-2.258-1.078-4.342-2.951-5.836
		c-2.828-2.256-5.88-2.23-8.999-0.768c-0.883,0.416-1.397,0.25-2.111-0.336c-0.906-0.744-1.949-1.371-3.02-1.855
		c-1.501-0.678-2.954-0.014-3.71,1.434c-0.69,1.324-1.48,2.598-2.171,3.922c-0.151,0.291-0.066,0.709-0.093,1.068
		c0.327-0.094,0.652-0.191,0.981-0.281c0.135-0.037,0.272-0.055,0.727-0.145c-0.319,0.463-0.438,0.736-0.644,0.916
		c-1.104,0.969-2.265,1.877-3.335,2.885c-0.835,0.787-1.934,1.734-1.243,2.959c1.027,1.824,1.693,4.025,4.05,4.803
		c0.945,0.314,1.553,0.939,1.484,2.152c-0.051,0.887,0.262,1.811,0.506,2.693c0.646,2.334,1.823,3.193,4.304,3.109
		C118.224,222.987,120.065,222.077,120.407,219.782z"/>
	<path fill-rule="evenodd" clip-rule="evenodd" d="M119.085,214.153c0.01,0.787-0.013,1.064,0.021,1.334
		c0.433,3.443-1.346,4.432-4.177,4.586c-2.286,0.127-3.475-0.873-4.011-3.125c-0.311-1.303-0.465-2.646-0.728-4.189
		c-2.442-0.641-3.889-2.748-5.178-5.029c-0.495-0.873-0.446-1.65,0.309-2.35c1.253-1.156,2.452-2.377,3.774-3.445
		c0.629-0.508,1.492-1.023,2.384,0.059c-3.039,0.334-3.646,3.434-5.951,4.58c1.05,2.006,1.953,3.805,3.88,4.826
		c0.749,0.396,1.374,0.697,1.885-0.268c0.074-0.137,0.186-0.305,0.316-0.35c0.302-0.107,0.625-0.146,0.939-0.213
		c-0.064,0.279-0.052,0.613-0.206,0.83c-1.489,2.088-1.51,4.662-0.018,6.707c0.841,1.156,3.253,1.498,4.726,0.672
		c1.094-0.613,1.672-2.824,1.148-4.092c-0.33-0.801-0.521-1.66-0.814-2.619c-0.556-0.066-1.256-0.15-2.195-0.26
		c-0.431-0.85-0.906-1.943-1.521-2.955c-0.805-1.326-1.721-2.586-2.585-3.875c-0.657-0.979-0.681-1.973,0.383-2.59
		c1.217-0.707,2.546-1.23,3.854-1.762c0.268-0.109,0.661,0.09,1.359,0.209c-0.527,0.361-0.796,0.689-0.983,0.648
		c-1.742-0.379-2.592,1.158-3.855,1.779c-0.2,0.098-0.335,0.764-0.205,1.014c0.407,0.789,0.955,1.506,1.577,2.445
		c0.326-1.543,0.556-1.623,1.716-1.01c0.573,0.305,1.23,0.469,1.767,0.82c0.319,0.211,0.54,0.641,0.694,1.018
		c0.426,1.041,0.842,2.092,1.161,3.168c0.146,0.498,0.232,1.141,0.038,1.582c-0.354,0.795,0.133,1.035,0.622,1.279
		c0.741,0.369,1.508,0.697,2.289,0.969c0.244,0.084,0.571-0.066,0.861-0.111c-0.08-0.383-0.161-0.768-0.266-1.266
		c0.221-0.111,0.554-0.281,1.046-0.531c-0.237-0.297-0.476-0.535-0.638-0.814c-0.197-0.34-0.33-0.717-0.491-1.076
		c0.401-0.037,0.804-0.072,1.416-0.127c-0.028-0.5-0.03-1.193-0.116-1.877c-0.074-0.592-0.288-1.164-0.365-1.756
		c-0.394-3.041-2.171-4.662-5.147-5.074c-0.158-0.021-0.352-0.002-0.466-0.086c-0.226-0.168-0.406-0.395-0.604-0.596
		c0.224-0.127,0.445-0.357,0.673-0.363c1.925-0.057,5.633,1.744,6.067,4.254c0.244,1.412,0.569,2.812,0.803,4.227
		c0.389,2.352,2.159,3.332,4.022,2.133c0.469-0.301,0.759-0.881,1.207-1.424c0.166,1.059-0.307,1.703-1.045,2.221
		c-1.339,0.939-2.629,0.672-3.998-0.299c-0.42,0.965-0.855,1.84-1.185,2.754c-0.283,0.789-0.666,0.986-1.438,0.596
		C121.035,214.923,120.178,214.614,119.085,214.153z"/>
	<path fill-rule="evenodd" clip-rule="evenodd" d="M130.613,212.175c0.152-1.18,0.396-2.357,0.439-3.543
		c0.102-2.846-0.312-6.131-2.812-7.539c-2.278-1.285-6.091-1.279-7.977,0.195c-0.353,0.275-0.43,0.891-0.677,1.324
		c-0.191,0.338-0.449,0.637-0.677,0.953c-0.225-0.314-0.638-0.629-0.645-0.949c-0.042-2.191-2.384-4.395-4.521-3.99
		c-0.589,0.111-1.092,0.885-1.544,1.43c-0.292,0.352-0.391,0.855-0.627,1.262c-0.474,0.82-0.96,1.637-1.493,2.418
		c-0.124,0.184-0.46,0.221-0.697,0.326c0.01-0.277-0.075-0.605,0.043-0.824c0.691-1.281,1.537-2.49,2.123-3.816
		c0.681-1.543,2.132-2.375,3.66-1.646c1.2,0.572,2.332,1.342,3.364,2.184c0.6,0.488,0.908,0.559,1.606,0.156
		c3.29-1.896,9.38-1.371,11.079,3.291c0.807,2.215,0.742,4.533,0.124,6.818c-0.185,0.684-0.358,1.367-0.536,2.051
		C130.768,212.241,130.69,212.208,130.613,212.175z"/>
</g>
<path fill-rule="evenodd" clip-rule="evenodd" d="M219.893,227.733c-0.559,0.803-0.923,1.326-1.39,1.996
	c-0.159-0.629-0.141-1.119-0.375-1.33c-0.281-0.254-0.775-0.271-1.249-0.412c-0.033-0.207,0.001-0.162,1.329-1.18
	c0.598-0.457,1.021-1.143,1.74-1.59c-0.453,0.791-0.907,1.58-1.423,2.48C218.87,227.708,219.144,227.714,219.893,227.733z"/>
<g>
	<g>
		<path fill-rule="evenodd" clip-rule="evenodd" fill="#FFFFFF" d="M149.265,152.725c1.068-3.392,0.832-6.936-0.346-10.247
			c-0.717-2.021-2.109-3.804-3.242-5.667c-0.166-0.275-0.547-0.494-0.871-0.59c-2.812-0.829-5.432-0.713-7.658,1.527
			c-1.252,1.258-2.592,2.424-4.011,3.74c-0.306-0.426-0.64-0.952-1.037-1.425c-0.265-0.313-0.62-0.552-0.933-0.823
			c-0.207,0.352-0.447,0.689-0.613,1.061c-0.27,0.6-0.361,1.488-1.303,1.196c-1.076-0.335-1.663,0.327-2.292,0.905
			c-0.497,0.457-0.839,1.088-1.354,1.518c-1.077,0.899-0.976,1.871-0.446,3.004c0.211,0.451,0.281,1.033,0.22,1.532
			c-0.141,1.142,0.728,2.551,1.943,2.731c0.937,0.139,1.129,0.574,0.942,1.389c-0.166,0.726-0.029,1.681-1.281,1.494
			c-0.092-0.014-0.234,0.31-0.337,0.453c-0.287-0.38-0.518-0.688-0.901-1.197c-0.051,1.349-0.174,2.37-0.102,3.379
			c0.072,1.002,0.564,1.789,1.605,2.175c1.713,0.636,3.351,0.472,4.603-0.148c1.019,0.716,1.779,1.542,2.711,1.835
			c1.264,0.402,2.669,0.593,3.995,0.525c3.229-0.167,5.892-1.752,8.024-4.053C147.72,155.812,148.769,154.297,149.265,152.725z"/>
		<path fill-rule="evenodd" clip-rule="evenodd" d="M133.041,159.043c2.018,1.131,4.168,1.445,6.429,1.156
			c1.95-0.25,3.608-1.111,5.049-2.402c0.917-0.82,1.825-1.664,2.64-2.584c1.766-1.992,1.849-4.502,1.858-6.958
			c0.005-1.337-0.294-2.686-0.554-4.011c-0.646-3.291-2.688-5.526-5.586-7.024c-0.981-0.507-2.023-0.683-3.039,0.112
			c-1.672,1.308-3.388,2.557-5.077,3.824c0.3-0.5,0.578-1.146,1.013-1.658c1.458-1.719,3.043-3.387,5.465-3.461
			c0.956-0.029,2.041,0.4,2.878,0.922c2.927,1.83,5.007,4.294,5.196,7.944c0.105,2.05,0.324,4.107,0.24,6.151
			c-0.14,3.412-2.309,5.682-4.845,7.59c-2.679,2.018-5.685,3.045-9.06,2.133c-1.006-0.272-1.926-0.863-2.885-1.308
			C132.855,159.327,132.949,159.185,133.041,159.043z"/>
	</g>
	<path fill-rule="evenodd" clip-rule="evenodd" d="M131.244,156.227c-0.267,0.272-0.511,0.523-0.512,0.523
		c0.13,0.815,0.375,1.406,0.238,1.889c-0.073,0.254-0.813,0.443-1.253,0.445c-2.16,0.01-2.164-0.019-2.896-2.068
		c-0.054-0.147-0.124-0.296-0.219-0.42c-0.119-0.154-0.273-0.284-0.399-0.412c0.335-0.17,0.66-0.335,0.966-0.49
		c0.186,0.715,0.33,1.409,0.549,2.08c0.35,1.078,1.273,0.906,1.945,0.597c0.26-0.121,0.169-1.036,0.2-1.592
		c0.011-0.188-0.128-0.38-0.14-0.573c-0.012-0.248,0.037-0.499,0.061-0.749c0.231,0.064,0.482,0.091,0.688,0.203
		C130.743,155.808,130.975,156.025,131.244,156.227z"/>
	<path fill-rule="evenodd" clip-rule="evenodd" d="M128.065,142.295c-0.475,0.609-0.892,1.277-1.434,1.818
		c-1.257,1.257-1.2,1.219-0.483,2.834c0.416,0.941,0.508,2.025,0.745,3.045c-0.12,0.028-0.239,0.057-0.358,0.086
		c-0.1-0.48-0.158-0.974-0.311-1.436c-0.181-0.543-0.347-1.136-0.689-1.574c-0.945-1.219-0.939-1.854,0.157-2.982
		c0.609-0.627,1.179-1.291,1.78-1.925c0.062-0.066,0.221-0.043,0.334-0.062C127.892,142.165,127.978,142.23,128.065,142.295z"/>
	<path fill-rule="evenodd" clip-rule="evenodd" d="M130.407,141.045c0.606,1.227,0.378,2.668-0.616,3.422
		c-0.533-0.902-1.061-1.797-1.615-2.734c1.013-0.545,1.16,0.429,1.746,1.06c0.191-0.655,0.35-1.194,0.508-1.734L130.407,141.045z"/>
	<path fill-rule="evenodd" clip-rule="evenodd" d="M130.429,141.058c0.211-0.566,0.423-1.133,0.655-1.755
		c1.288,1.041,1.952,2.878,1.36,3.732c-0.5-0.869-0.724-2.022-2.033-1.988C130.407,141.045,130.429,141.058,130.429,141.058z"/>
</g>
<g>
	<path fill-rule="evenodd" clip-rule="evenodd" fill="#FFFFFF" d="M241.642,249.31c-1.228,2.352-2.062,4.914-2.984,7.416
		c-0.217,0.59-0.407,0.803-1.004,0.588c-0.939-0.338-1.883-0.664-2.83-0.975c-2.766-0.898-5.516-1.176-7.963,0.773
		c-2.022,1.611-4.445,2.908-5.121,5.74c-0.02,0.076-0.057,0.162-0.113,0.211c-1.775,1.537-1.075,3.527-0.846,5.348
		c0.106,0.83,0.728,1.664,1.289,2.355c0.949,1.166,2.039,2.221,3.302,3.572c-0.71,0.295-1.282,0.516-1.839,0.773
		c-0.339,0.158-0.76,0.299-0.957,0.58c-0.664,0.955-1.149,2.053-1.893,2.938c-0.546,0.65-0.344,0.914,0.165,1.328
		c0.991,0.809,1.61,1.805,1.711,3.141c0.118,1.59,1.062,2.779,2.52,3.191c1.249,0.355,2.645,0.184,3.969,0.301
		c0.493,0.043,1.188,0.092,1.414,0.408c0.713,1.002,1.446,2.066,1.812,3.221c0.74,2.332,2.476,3.705,4.369,4.902
		c3.055,1.932,5.628,1.242,7.465-1.9c0.734-1.258,1.36-2.58,2.066-3.932c0.268,0.146,0.543,0.293,0.815,0.445
		c2.224,1.25,4.534,2.137,7.157,2.07c2.766-0.07,4.449-1.303,5.375-3.914c0.85-2.404,0.637-4.705-0.363-6.99
		c-0.216-0.492-0.424-0.904,0.275-1.281c3.746-2.014,5.199-5.424,5.561-9.436c0.223-2.473-0.713-4.74-1.609-6.945
		c-1.036-2.553-2.587-4.936-5.107-6.152c-1.606-0.777-1.815-1.924-2.182-3.312c-0.477-1.803-0.986-3.643-1.822-5.293
		c-0.968-1.912-2.627-3.074-4.944-2.986c-1.266,0.049-2.532,0.004-3.801,0.025c-0.226,0.006-0.521,0.062-0.662,0.211
		C243.751,246.896,242.362,247.931,241.642,249.31z"/>
	<path fill-rule="evenodd" clip-rule="evenodd" d="M252.524,266.06c-0.185,0.025-0.396,0.123-0.552,0.068
		c-1.933-0.676-3.855-1.377-5.785-2.059c-0.217-0.078-0.597-0.188-0.672-0.096c-1.194,1.463-3.105,0.963-4.568,1.684
		c-0.628,0.309-1.074,0.537-0.395,1.398c-1.346-0.832-1.805-0.084-2.121,0.881c-0.246,0.75-0.387,1.541-0.692,2.264
		c-0.185,0.439-0.591,0.787-0.897,1.176l0.014-0.035c-0.261,0.262-0.759,0.537-0.744,0.781c0.16,2.57,0.069,5.205,1.386,7.555
		c0.79,1.406,1.884,1.598,3.167,0.799c0.709-0.443,0.703-0.854,0.315-1.463c-0.136-0.215-0.17-0.492-0.25-0.74
		c0.119-0.074,0.238-0.148,0.356-0.223c0.336,0.537,1.062,1.223,0.925,1.578c-0.285,0.74-0.952,1.402-1.61,1.902
		c-0.337,0.256-1.009,0.182-1.504,0.1c-1.36-0.225-2.295,0.422-2.604,1.818c-0.089,0.404-0.348,0.775-0.562,1.143
		c-0.758,1.293-1.688,2.514-2.249,3.885c-0.558,1.359-0.333,2.902,0.802,3.889c1.299,1.131,2.755,2.189,4.319,2.877
		c1.835,0.807,3.629-0.145,4.605-1.906c0.67-1.209,1.454-2.357,2.296-3.461c-0.588,2.416-1.609,4.605-3.871,5.881
		c-2.02,1.137-3.821,0.244-5.546-0.934c-1.715-1.172-3.336-2.398-3.536-4.672c-0.058-0.658,0.15-1.338,0.182-2.012
		c0.018-0.418-0.068-0.84-0.121-1.396c0.222-0.314,0.557-0.791,0.889-1.266c-0.068-0.123-0.136-0.246-0.205-0.369
		c-0.988,0.389-2.015,0.703-2.959,1.182c-1.337,0.678-2.709,0.99-4.172,0.672c-2.391-0.521-3.842-2.768-3.469-5.23
		c0.404-2.682,1.279-5.096,3.677-6.57c-1.431-1.416-2.81-2.762-4.169-4.129c-1.139-1.145-1.6-2.457-1.314-4.125
		c0.746-4.365,3.092-7.625,6.749-9.957c2.153-1.373,4.507-0.957,6.78-0.256c1.474,0.455,2.898,1.07,4.328,1.605
		c0.383-1.344,0.637-2.76,1.189-4.047c0.806-1.879,1.437-3.877,2.95-5.381c2.155-2.141,4.687-3.408,7.747-2.738
		c2.264,0.496,3.633,2.18,4.361,4.361c0.323,0.971,0.949,1.895,0.55,3.225c-0.575-1.381-0.958-2.6-1.562-3.697
		c-2.164-3.924-5.043-4.215-8.679-2.059c-3.938,2.336-5.138,6.451-5.684,10.754c-0.006,0.053,0.093,0.119,0.218,0.266
		c0.405-0.848,0.795-1.662,1.186-2.477c0.138,0.047,0.274,0.094,0.412,0.143c0.004,0.289-0.041,0.59,0.02,0.865
		c0.283,1.273,0.428,2.615,0.969,3.771c0.264,0.566,1.245,0.977,1.968,1.113c1.781,0.336,3.606,0.443,5.401,0.719
		c0.48,0.074,0.917,0.428,1.373,0.654c-0.045,0.111-0.089,0.221-0.134,0.332c-0.515-0.031-1.03-0.062-1.812-0.109
		c1.246,0.795,2.266,1.443,3.287,2.094L252.524,266.06z M237.076,260.835c-0.07-0.033-0.14-0.068-0.21-0.104
		c0.011-0.148-0.015-0.309,0.036-0.441c0.526-1.389,0.447-1.588-0.889-2.191c-0.255-0.113-0.498-0.254-0.753-0.365
		c-2.626-1.137-5.219-1.672-7.825,0.127c-2.344,1.617-3.999,3.787-5.076,6.357c-1.048,2.502-1.498,5.029,1.104,7.021
		c0.181,0.137,0.236,0.438,0.417,0.574c1.191,0.91,2.297,2.096,3.648,2.568c0.695,0.242,1.838-0.805,2.777-1.271
		c0.07-0.035,0.124-0.105,0.195-0.137c0.674-0.291,1.466-0.408,1.779,0.32c0.184,0.43-0.03,1.303-0.385,1.635
		c-0.978,0.916-2.248,1.158-3.564,0.842c-1.197-0.289-2.035,0.154-2.848,1.023c-1.488,1.592-1.887,3.582-2.082,5.592
		c-0.186,1.906,0.914,3.236,2.771,3.621c1.626,0.338,3.095-0.154,4.589-0.855c1.146-0.537,2.09-0.953,1.667-2.617
		c0.741,0.613,1.14,1.303,2.394,0.916c1.357-0.418,1.336-1.482,1.952-2.043c-0.628-0.893-1.326-1.594-1.684-2.438
		c-1.659-3.926-1.748-7.713,1.211-11.178c0.366-0.426,0.432-1.104,0.659-1.654c0.478-1.152,0.852-2.371,1.49-3.426
		c0.648-1.072,0.484-2.768-0.537-3.176C237.634,259.97,237.355,260.401,237.076,260.835z M231.697,274.052
		c-0.068-0.098-0.138-0.197-0.207-0.297c-0.622,0.316-1.242,0.631-1.863,0.947c0.059,0.104,0.117,0.209,0.176,0.312
		C230.435,274.694,231.066,274.372,231.697,274.052z"/>
	<path fill-rule="evenodd" clip-rule="evenodd" d="M252.507,266.087c1.09,0.965,2.181,1.93,3.328,2.945
		c0.922-1.922,0.754-4.211,0.635-6.471c-0.117-2.242-0.35-4.477-0.532-6.713c0.15-0.021,0.302-0.043,0.452-0.064
		c0.145,0.508,0.29,1.014,0.457,1.592c2.065,0.076,3.333,1.564,4.465,3.008c2.508,3.195,3.99,6.867,3.65,10.984
		c-0.275,3.355-1.916,6.129-4.604,8.199c-0.48,0.371-1.158,0.484-1.527,0.631c0.372,1.686,1,3.281,1.025,4.885
		c0.068,4.422-2.353,7.133-7.099,6.705c-2.851-0.258-5.358-1.361-7.269-3.516c-0.654-0.738-0.954-1.791-1.416-2.699
		c0.129-0.068,0.258-0.135,0.386-0.201c0.456,0.75,0.876,1.525,1.375,2.246c1.924,2.789,7.177,4.512,10.306,3.336
		c2.107-0.793,2.809-2.691,3.05-4.658c0.155-1.262-0.104-2.621-0.41-3.881c-0.31-1.273-1.071-2.262-2.496-2.643
		c-0.604-0.16-1.112-0.684-1.449-0.902c-0.697,0.299-1.187,0.508-1.678,0.719c0.137-0.562,0.121-1.234,0.435-1.666
		c1.385-1.906,1.767-3.18,1.506-5.762c-0.445,0.082-0.89,0.164-1.479,0.271c1.901-2.523,1.773-3.424-0.604-5.561
		c-0.225-0.203-0.33-0.537-0.491-0.812L252.507,266.087z M256.792,257.755c0.031,0.676,0.034,1.162,0.079,1.643
		c0.273,3,0.932,6.045-0.055,8.98c-0.615,1.832-0.852,3.676-1.146,5.551c-0.29,1.836-0.549,3.521,1.469,4.557
		c0.098,0.051,0.168,0.172,0.23,0.271c0.479,0.775,1.119,0.764,1.866,0.432c1.446-0.645,2.432-1.744,3.238-3.07
		c1.197-1.969,2.066-3.98,1.85-6.391c-0.235-2.641-1.184-5.027-2.42-7.287C260.804,260.429,259.089,258.944,256.792,257.755z"/>
	<path fill-rule="evenodd" clip-rule="evenodd" d="M236.841,271.376c0.207,0.219,0.621,0.475,0.59,0.65
		c-0.396,2.193,0.798,3.551,2.379,4.736c0.134,0.1,0.191,0.303,0.171,0.547c-0.952-0.787-1.956-1.521-2.823-2.393
		c-0.259-0.258-0.15-0.896-0.182-1.363c-0.053-0.736-0.082-1.475-0.121-2.213L236.841,271.376z"/>
</g>
<g>
	<path fill-rule="evenodd" clip-rule="evenodd" fill="#FFFFFF" d="M164.374,220.515c-1.722,3.408-1.683,6.922,0.038,10.332
		c0.714,1.414,0.745,1.395,0.564,2.705c0.07,0.021,0.143,0.07,0.208,0.062c0.108-0.018,0.218-0.059,0.318-0.109
		c1.126-0.551,1.167-0.492,1.487,0.756c0.182,0.703,0.551,1.352,0.842,2.023c0.124,0.291,0.265,0.57,0.398,0.857
		c-0.108,0.115-0.217,0.229-0.325,0.342c-1.046-0.801-2.088-1.596-3.281-2.51c0.034,0.43-0.025,0.795,0.101,1.064
		c0.928,1.994,2.893,2.102,4.609,2.592c-0.061,0.223-0.057,0.324-0.104,0.369c-2.557,2.662-4.774,5.549-5.852,9.271
		c-0.638,2.203-1.453,4.35-2.108,6.547c-0.42,1.408-0.941,2.861-0.975,4.301c-0.042,1.885,0.226,3.805,0.588,5.658
		c0.628,3.213,3.316,4.857,5.142,7.152c0.281,0.352,1.009,0.277,1.511,0.457c2.262,0.797,4.512,1.357,6.934,0.557
		c4.317-1.424,7.193-4.584,9.289-8.629c1.101-2.121,1.348-4.521,1.439-6.912c0.016-0.436,0.071-0.867,0.119-1.408
		c1.119,0.598,2.002,1.111,2.919,1.545c2.793,1.322,5.646,2.193,8.734,1.061c0.388-0.143,0.805-0.209,1.212-0.281
		c1.693-0.287,3.398-0.514,5.082-0.865c1.163-0.242,1.645-1.18,1.388-2.412c-0.103-0.486-0.219-0.965-0.271-1.188
		c0.849-0.197,1.605-0.201,2.183-0.551c1.037-0.621,2.033-1.375,2.927-2.219c0.864-0.814,1.733-1.707,2.331-2.74
		c2.057-3.549,0.787-6.91-1.038-9.859c-1.626-2.627-3.739-4.943-5.818-7.211c-2.141-2.328-4.587-4.225-7.92-4.203
		c-0.316,0.006-0.803-0.342-0.921-0.654c-1.067-2.801-2.956-4.848-5.208-6.566c-1.495-1.139-3.034-2.168-4.913-0.607
		c-0.129-0.248-0.225-0.41-0.304-0.584c-0.956-2.137-1.364-4.682-3.753-5.768c-0.094-0.043-0.154-0.17-0.224-0.264
		c-0.891-1.213-2.055-1.961-3.482-2.215c-2.09-0.375-4.199-0.705-6.128,0.664C168.732,213.478,166.263,216.771,164.374,220.515z
		 M205.988,252.437c-0.06,0.006-0.121,0.023-0.178,0.027C205.867,252.46,205.928,252.442,205.988,252.437z M209.302,250.108
		c0,0-0.001,0,0,0.002c-0.059-0.043-0.143-0.139-0.176-0.123C209.16,249.972,209.244,250.067,209.302,250.108z"/>
	<path fill-rule="evenodd" clip-rule="evenodd" d="M198.255,227.325c3.961,0.045,9.287,3.059,9.557,5.297
		c-1.443-1.094-2.893-2.326-4.476-3.348c-1.385-0.895-3.019-1.568-4.646-0.926c-1.93,0.762-3.818,1.713-5.562,2.836
		c-1.407,0.906-1.933,2.475-1.882,4.168c0.039,1.357,0.756,2.307,2.117,2.447c1.961,0.203,3.514,1.123,5.016,2.432
		c-0.248,0.293-0.486,0.572-0.803,0.943c0.9,0.693,1.776,1.367,2.652,2.041c-0.15,0.309-0.303,0.617-0.465,0.949
		c-1.352-0.688-2.703-1.416-4.098-2.055c-0.401-0.182-0.965-0.234-1.386-0.111c-1.813,0.518-3.407,0.146-4.96-0.869
		c-0.865-0.566-2.166,0.121-2.118,1.102c0.403,0.035,0.822,0.072,1.239,0.109c0.046,0.111,0.094,0.225,0.14,0.338
		c-2.597-0.244-4.646,0.422-5.394,3.266c-0.141-0.107-0.279-0.215-0.42-0.324c0.118-0.539,0.161-1.109,0.369-1.609
		c0.733-1.783,0.178-2.699-1.589-3.352c-1.452-0.535-2.691-0.42-4.104,0.031c-0.59,0.186-1.424-0.348-2.131-0.6
		c-0.271-0.096-0.512-0.482-0.742-0.461c-1.132,0.102-2.532-0.07-3.324,0.533c-1.422,1.082-3.314,1.434-4.334,3.215
		c-1.838,3.199-3.175,6.566-4.432,10.016c-0.855,2.352-1.597,4.662-1.593,7.158c0.008,4.086,1.874,7.209,5.23,9.4
		c1.285,0.84,2.735,1.484,4.191,1.984c2.577,0.883,5.024,0.197,7.382-0.961c0.334-0.164,0.728-0.211,1.138-0.133
		c-2.632,1.74-5.345,3.043-8.625,1.904c-2.915-1.01-5.531-2.475-7.474-4.906c-1.228-1.535-1.965-3.336-2.312-5.293
		c-0.553-3.115,0.322-5.99,1.372-8.852c0.45-1.232,0.798-2.502,1.263-3.727c1.391-3.668,3.238-7.082,5.816-10.059
		c0.368-0.424,0.984-0.635,1.814-1.146c-0.691-0.26-1.121-0.41-1.543-0.584c-1.23-0.506-2.499-0.949-3.666-1.576
		c-0.414-0.225-0.584-0.906-0.761-1.434c2.433,1.865,2.696,2.006,4.159,2.025c-0.293-0.465-0.574-0.832-0.773-1.238
		c-0.289-0.586-0.656-1.182-0.746-1.811c-0.205-1.422-0.566-1.639-1.803-0.877c-0.086,0.053-0.215,0.037-0.509,0.08
		c0.231-0.447,0.401-0.773,0.426-0.822c-0.711-1.705-1.453-3.191-1.954-4.756c-0.73-2.268-0.356-4.512,0.642-6.635
		c1.512-3.221,3.754-5.914,6.224-8.434c2.375-2.424,5.24-2.984,8.467-2.25c1.434,0.326,2.658,0.912,3.657,2.057
		c0.604,0.688,1.445,1.168,2.173,1.75c0.253,0.201,0.484,0.428,0.552,0.861c-0.265-0.184-0.531-0.367-1.107-0.764
		c1.243,1.916,2.297,3.547,3.343,5.156c1.174-1.203,2.897-1.328,4.549,0.02C194.81,221.815,196.69,223.019,198.255,227.325z
		 M190.192,228.454c0.084-0.176,0.169-0.355,0.254-0.533c0.489,0.18,1.037,0.271,1.453,0.555c1.029,0.699,2.025,0.881,3.116,0.176
		c0.401-0.26,0.832-0.482,1.272-0.67c1.23-0.525,1.305-0.695,0.672-1.906c-1.394-2.662-3.724-4.418-6.033-6.184
		c-0.275-0.213-0.647-0.316-0.987-0.426c-0.893-0.281-1.518,0.006-1.633,0.967c-0.083,0.707,0.055,1.443-0.055,2.143
		c-0.062,0.4-0.418,0.756-0.643,1.131c-0.141-0.35-0.393-0.697-0.399-1.049c-0.042-2.111-1.238-3.678-2.321-5.439
		c-0.162,0.371-0.25,0.572-0.391,0.896c-0.238-0.791-0.418-1.422-0.618-2.043c-1.816-5.574-8.394-6.424-11.595-3.775
		c-1.701,1.406-3.242,3.047-4.663,4.742c-1.935,2.311-3.417,4.842-3.599,8.033c-0.246,4.289,1.886,7.162,6.258,7.932
		c-0.026-0.168-0.029-0.318-0.073-0.459c-0.286-0.951-0.049-1.436,1.024-1.129c1.285,0.367,2.562,0.756,3.837,1.152
		c0.054,0.016,0.059,0.188,0.119,0.404c-0.839-0.213-1.592-0.404-2.608-0.662c2.828,2.484,4.284,3.281,5.116,2.771
		c-0.487-0.475-0.963-0.936-1.606-1.561c0.792,0.285,1.33,0.48,1.869,0.676c0.124-0.08,0.248-0.158,0.374-0.236
		c-0.286-0.955-0.6-1.9-0.843-2.865c-0.105-0.41-0.067-0.859-0.093-1.291c0.29,0.295,0.593,0.58,0.862,0.891
		c0.124,0.145,0.184,0.346,0.275,0.523c1.227-0.855,1.319-0.82,2.333,0.318c0.331,0.371,0.774,0.695,1.231,0.889
		c0.84,0.357,1.772,0.512,2.58,0.924c0.486,0.25,1.676,0.105,1.147,1.332c-0.011,0.025,0.48,0.27,0.797,0.445
		c0.108-0.492,0.19-0.863,0.284-1.291c0.77,0.18,1.315,0.32,1.131,1.32c-0.213,1.145,1.598,2.406,2.965,2.109
		c-1.648-2.922,0.017-5.086,1.772-7.141C191.826,229.511,191.008,228.983,190.192,228.454z M179.494,231.345
		c-0.064,0.73-0.108,1.234-0.172,1.955C180.497,232.669,180.679,232.165,179.494,231.345z M191.426,238.413
		c0.038,1.479,0.565,1.598,1.738,1.135C192.529,239.134,192.102,238.854,191.426,238.413z"/>
	<path fill-rule="evenodd" clip-rule="evenodd" d="M203.625,253.304c-0.074,0.836-0.148,1.674-0.24,2.721
		c0.791-0.156,1.566-0.312,2.389-0.477c-0.022-1.062,0.029-2.047-0.08-3.012c-0.145-1.281-0.799-2.268-1.885-3.021
		c-0.461-0.318-0.777-0.883-1.061-1.391c-0.062-0.113,0.325-0.676,0.446-0.656c0.366,0.057,0.774,0.229,1.043,0.484
		c0.427,0.412,0.761,0.922,1.12,1.398c1.483,1.975,3.236,1.949,4.68-0.092c0.414-0.588,0.775-1.211,1.131-1.836
		c0.344-0.605,0.65-1.236,1.123-2.139c-0.083,0.941-0.136,1.559-0.19,2.174c0.104,0.023,0.206,0.045,0.309,0.066
		c0.174-1.074,0.501-2.15,0.49-3.223c-0.028-2.889-1.334-5.383-2.724-7.82c-0.662-1.162-1.381-2.289-2.1-3.477
		c1.073-0.125,3.541,2.646,4.613,5.182c-0.619-0.754-1.045-1.27-1.468-1.783c-0.067,0.043-0.136,0.086-0.203,0.131
		c0.502,0.955,1.009,1.91,1.506,2.867c1.26,2.428,1.864,5.082,0.991,7.629c-0.492,1.436-1.949,2.641-3.199,3.678
		c-0.858,0.711-2.107,0.951-3.209,1.416c0.193,0.961,0.479,1.047,2.43,0.602c-0.826,1.164-1.381,1.285-2.78,0.438
		c0.099,0.621,0.116,1.113,0.257,1.568c0.512,1.666,0.12,2.373-1.541,2.711c-0.92,0.188-1.902,0.721-2.736,0.541
		c-1.898-0.408-3.453,0.598-5.155,0.912c-3.012,0.551-5.593-0.49-8.144-1.756c-1.092-0.541-2.072-1.307-3.288-2.092
		c1.476-0.605,2.223,0.428,3.046,0.871c1.845,0.992,3.782,1.805,5.803,2.086c2.606,0.363,5.156-0.311,7.175-2.084
		c0.664-0.582,0.837-1.717,1.235-2.6C203.48,253.315,203.551,253.31,203.625,253.304z"/>
	<path fill-rule="evenodd" clip-rule="evenodd" d="M183.263,254.028c0.4-1,0.836-1.035,2.683-0.154
		c0.188,1.73,0.371,3.43,0.556,5.131c-0.124,0.018-0.25,0.035-0.374,0.053c-0.132-0.777-0.155-1.594-0.419-2.322
		c-0.309-0.859-0.77-1.68-1.285-2.434C184.264,254.071,183.704,254.12,183.263,254.028z"/>
	<path fill-rule="evenodd" clip-rule="evenodd" d="M179.243,243.284c0.043-0.482,0.085-0.967,0.134-1.514
		c-0.438-0.01-0.777-0.02-1.115-0.027c-0.033-0.076-0.066-0.15-0.099-0.227c0.291-0.139,0.671-0.465,0.855-0.377
		c0.396,0.189,0.896,0.547,0.975,0.918c0.088,0.404-0.254,0.9-0.408,1.355C179.47,243.37,179.358,243.327,179.243,243.284z"/>
</g>
<g>
	<path fill-rule="evenodd" clip-rule="evenodd" fill="#FFFFFF" d="M31.242,292.056c0.345-0.75,0.393-1.998,0.909-2.213
		c0.642-0.268,1.64,0.281,2.474,0.508c1.637,0.445,4.193-0.092,4.88-1.182c1.117-1.773,2.113-3.611,1.397-5.85
		c-0.088-0.271-0.01-0.6-0.006-1.025c2.098,0.34,3.061-0.744,3.498-2.527c0.065-0.264,0.249-0.496,0.365-0.75
		c1.051-2.283,2.156-4.547,3.129-6.861c0.479-1.141,0.293-2.271-0.705-3.172c-0.62-0.562-1.188-1.186-1.793-1.768
		c-1.25-1.195-1.266-1.375-0.386-2.82c0.394-0.648,0.818-1.301,1.073-2.008c0.917-2.559,0.659-5.031-1.127-7.107
		c-2.951-3.426-6.844-5.346-11.223-6.104c-1.914-0.33-3.939-0.021-5.912,0.043c-0.67,0.023-1.518-0.033-1.961,0.336
		c-0.928,0.771-1.91,0.945-3.047,1.102c-1.562,0.215-2.33,1.613-3.078,2.816c-0.797,1.281-1.35,2.711-2.092,4.033
		c-0.228,0.404-0.725,0.662-1.096,0.984c-0.09-0.098-0.18-0.197-0.271-0.299c0.177-0.363,0.353-0.729,0.7-1.447
		c-0.835,0.053-1.412,0.08-1.986,0.131c-0.383,0.033-0.865,0.279-1.123,0.127c-1.381-0.805-2.564-0.232-3.694,0.465
		c-1.591,0.98-2.655,2.402-3.14,4.227c-0.283,1.062-0.73,1.703-2.031,1.934c-3.182,0.562-4.812,2.803-4.262,6.062
		c0.153,0.91-0.019,1.875-0.039,2.812c-0.095,0.008-0.188,0.014-0.281,0.021c0.244,0.303,0.488,0.605,0.719,0.893
		c-0.367,0.473-0.701,0.902-1.135,1.459c0.557,0.086,0.852,0.129,1.281,0.197C1,276.161,0.835,277.2,0.445,278.146
		c-0.242,0.59-0.35,0.875,0.285,1.234c0.535,0.303,1.273,0.717,1.395,1.211c1.086,4.477,4.746,7.594,9.678,6.547
		c0.365-0.078,1.066,0.178,1.207,0.469c1.073,2.262,3.244,2.303,5.238,2.75c0.52,0.119,1.087,0.295,1.492,0.619
		c1.49,1.195,2.986,2.398,4.359,3.725c1.287,1.246,2.793,1.191,4.33,0.969c0.489-0.072,1.061-0.459,1.346-0.875
		C30.357,293.944,30.81,292.995,31.242,292.056z"/>
	<path fill-rule="evenodd" clip-rule="evenodd" d="M13.252,286.802c-0.45,0.088-0.868,0.158-1.28,0.25
		c-4.602,1.029-7.715-0.98-9.289-5.191c-0.207-0.559,0.08-1.299,0.123-1.957c0.034-0.527,0.139-1.072,0.051-1.582
		c-0.439-2.5-0.929-4.992-1.408-7.484c-0.06-0.307-0.123-0.625-0.255-0.904c-0.827-1.754-0.638-3.467,0.735-4.744
		c1.207-1.123,2.711-2.008,4.653-1.174c0.149-0.668,0.319-1.266,0.412-1.873c0.375-2.467,1.819-4.121,4.025-5.088
		c0.579-0.252,1.406-0.156,2.054,0.02c0.729,0.199,1.333,0.324,2.043-0.082c0.332-0.189,0.847-0.061,1.278-0.076
		c0.003,0.125,0.003,0.25,0.005,0.377c-0.355,0.057-0.711,0.115-1.219,0.197c0.358,0.373,0.624,0.689,0.932,0.961
		c0.762,0.666,1.324,0.496,1.711-0.455c0.615-1.51,1.107-3.1,1.938-4.482c0.607-1.012,1.631-1.799,2.561-2.574
		c0.336-0.281,0.941-0.238,1.531-0.197c-3.476,1.818-4.869,5.207-5.758,8.482c-0.846,3.127-3.07,6.318-1.004,9.744
		c0.289-0.02,0.683-0.047,1.155-0.078c-0.366,0.949-0.708,1.199-2.271,1.111c-0.522-0.027-1.328-0.619-1.459-1.102
		c-0.615-2.279-2.236-3.795-4.244-4.277c-1.461-0.352-3.348-0.631-4.934,0.176c-0.498,0.033-1.049-0.062-1.481,0.121
		c-1.64,0.699-2.339,1.984-2.05,3.863c0.416,2.707,0.918,5.402,1.408,8.1c0.051,0.283,0.261,0.539,0.404,0.822
		c1.424-0.961,2.045-2.783,4.127-3.387c-0.197,1.25-0.072,2.418-0.578,3.152c-0.551,0.801-1.628,1.35-2.586,1.729
		c-1.169,0.463-1.348,1.273-1.167,2.27c0.372,2.057,2.82,4.482,4.855,4.729c1.124,0.137,2.302,0.148,3.417-0.023
		c1.854-0.287,2.184-0.908,1.699-2.637c1.103,0.314,1.063,0.314,1.022,1.35c-0.038,0.969-0.091,1.957,0.063,2.904
		c0.139,0.859,0.818,1.174,1.717,1.084c2.778-0.277,4.47-1.918,5.168-4.994c0.156-0.688,0.504-1.332,0.764-1.998
		c0.166,0.053,0.334,0.105,0.5,0.158c-0.232,0.965-0.466,1.93-0.701,2.895c-0.084,0.346-0.326,0.744-0.229,1.025
		c0.182,0.514,0.562,0.957,0.857,1.432c0.334-0.371,0.677-0.734,0.998-1.115c0.256-0.303,0.486-0.627,0.727-0.943
		c0.159,0.398,0.481,0.811,0.447,1.191c-0.117,1.32-0.327,2.635-0.56,3.941c-0.358,2.012,0.245,3.078,2.063,3.896
		c2.463,1.107,2.512,1.006,3.834-1.861c0.199-0.432,0.252-0.93,0.449-1.361c0.479-1.043,0.306-1.822-0.803-2.291
		c-0.107-0.045-0.277-0.053-0.319-0.131c-1.212-2.275-2.423-4.553-3.589-6.852c-0.113-0.223,0.068-0.596,0.113-0.898
		c0.224,0.219,0.512,0.402,0.663,0.664c0.929,1.619,1.642,3.406,2.784,4.854c1.525,1.936,3.799,2.859,6.197,3.246
		c1.711,0.277,3.078-0.65,3.848-2.23c0.778-1.6,0.712-3.213,0.199-4.865c-0.166-0.535-0.242-1.1-0.406-1.863
		c1.506,0.439,2.852,1.486,3.82-0.309c-0.332-0.305-0.612-0.562-1.066-0.98c0.605-0.309,1.184-0.451,1.532-0.814
		c0.511-0.533,0.935-1.188,1.258-1.857c0.726-1.5,1.358-3.045,2.045-4.564c0.544-1.207,0.306-1.744-0.753-2.639
		c-0.968-0.816-1.859-1.762-2.621-2.775c-0.639-0.85-1.305-0.883-1.812-0.158c-1.066,1.518-2.604,0.471-3.785,1.164
		c-0.062-0.188-0.125-0.377-0.188-0.564c0.569-0.217,1.163-0.385,1.704-0.658c1.566-0.791,3.287-1.414,4.613-2.508
		c1.152-0.947,1.549-2.555,1.559-4.131c0.01-1.539-0.518-2.832-1.562-3.992c-1.573-1.746-3.431-3.084-5.536-4.064
		c-0.852-0.398-1.793-0.672-2.723-0.82c-2.042-0.33-4.097-0.613-6.157-0.783c-1.433-0.119-2.881-0.021-4.37-0.021
		c0.277-0.785,1.018-0.973,1.755-0.916c2.534,0.193,5.069,0.703,7.595,0.65c3.516-0.076,6.045,1.809,8.576,3.732
		c2.607,1.982,3.975,4.613,3.1,7.949c-0.305,1.162-0.995,2.252-1.662,3.277c-0.469,0.723-0.406,1.248,0.129,1.801
		c0.773,0.801,1.54,1.613,2.363,2.359c0.957,0.867,1.189,1.943,0.738,3.041c-0.921,2.248-1.98,4.441-2.99,6.652
		c-0.115,0.252-0.362,0.463-0.414,0.721c-0.402,1.975-1.404,3.176-3.804,2.768c0.745,2.748,0.495,5.236-1.528,7.094
		c-2.232,2.047-4.711,0.967-6.721,0.109c-0.518,1.129-0.957,2.186-1.48,3.197c-0.635,1.23-0.883,2.805-2.701,3.02
		c-2.278,0.27-4.826-1.979-4.736-4.252c0.037-0.904,0.133-1.809,0.176-2.393c-1.049-0.52-1.93-0.955-2.588-1.281
		c-1.358,0.566-2.652,1.211-4.014,1.646c-2.027,0.65-3.096-0.033-3.57-2.1C13.342,287.222,13.31,287.067,13.252,286.802z
		 M8.203,263.755c3.23-0.41,5.369,1.273,6.887,4.035c0.061-0.463-0.055-0.836,0.035-1.15c0.469-1.658,1.014-3.293,1.48-4.949
		c0.229-0.811-0.439-2.086-1.139-2.4c-0.884-0.395-1.754-0.82-2.637-1.221c-0.244-0.109-0.518-0.258-0.766-0.24
		c-1.713,0.125-4.169,2.613-4.146,4.084C7.925,262.442,8.076,262.968,8.203,263.755z"/>
	<path fill-rule="evenodd" clip-rule="evenodd" d="M14.359,281.235c0.149-0.906,0.248-1.498,0.346-2.092
		c-0.142-0.053-0.282-0.107-0.424-0.162c-0.414,0.592-0.77,1.242-1.263,1.758c-0.372,0.389-0.922,0.609-1.394,0.906
		c-0.254-0.5-0.805-1.072-0.707-1.488c0.299-1.258,0.828-2.465,1.314-3.672c0.184-0.453,0.496-0.855,0.75-1.281
		c-0.1-0.066-0.2-0.133-0.301-0.201c-0.301,0.408-0.57,0.846-0.916,1.211c-0.213,0.227-0.543,0.342-0.82,0.508
		c-0.076-0.285-0.277-0.604-0.209-0.848c0.319-1.152,0.139-2.086-0.809-2.908c-0.219-0.189-0.09-0.779-0.145-1.514
		c-0.371-0.65-1.936-0.695-2.164-2.006c2.549-0.697,3.959,1.08,5.641,2.23c0.676,0.463,1.451,0.801,2.072,1.326
		c1.127,0.951,2.236,1.943,3.212,3.045c0.237,0.268-0.036,1.033-0.149,1.553c-0.343,1.58-0.717,3.152-1.092,4.725
		c-0.054,0.229-0.121,0.5-0.279,0.65c-0.197,0.191-0.493,0.281-0.746,0.414c-0.129-0.266-0.336-0.521-0.361-0.797
		c-0.027-0.299,0.117-0.611,0.234-1.131c-0.486,0.412-0.822,0.693-1.242,1.049C14.656,281.925,14.451,281.452,14.359,281.235z"/>
	<path fill-rule="evenodd" clip-rule="evenodd" d="M29.769,266.286c0.741-2.779,1.127-5.441-0.676-7.873
		c0.053-0.531,0.1-1.014,0.168-1.721c0.609-0.051,1.245,0.23,1.65,0.971c1.16,2.123,0.652,4.402,0.559,6.633
		c-0.008,0.17-0.452,0.316-0.686,0.484c-0.203,0.145-0.455,0.266-0.576,0.465C30.015,265.563,29.912,265.937,29.769,266.286z"/>
	<path fill-rule="evenodd" clip-rule="evenodd" d="M38.632,280.259c-0.914-0.531-1.879-1.055-2.797-1.646
		c-0.244-0.158-0.354-0.527-0.523-0.801c0.314-0.092,0.643-0.289,0.941-0.254C37.125,277.661,38.519,279.392,38.632,280.259z"/>
	<path fill-rule="evenodd" clip-rule="evenodd" d="M36.607,260.464c-0.273,1.422-0.547,2.844-0.818,4.266
		c-0.154-0.031-0.309-0.061-0.463-0.09c0.34-1.43,0.018-2.982,0.585-4.369C36.142,260.335,36.375,260.399,36.607,260.464z"/>
	<path fill-rule="evenodd" clip-rule="evenodd" d="M33.042,265.017c0.233-1.127,0.425-2.053,0.629-3.039
		C34.219,263.011,33.976,264.282,33.042,265.017z"/>
</g>
<g>
	<path fill-rule="evenodd" clip-rule="evenodd" fill="#FFFFFF" d="M223.57,345.368c0.875-1.646,1.802-3.473,1.91-5.27
		c0.12-1.963,0.885-3.152,2.336-4.168c0.162-0.115,0.315-0.25,0.445-0.402c0.768-0.898,1.363-2.195,2.334-2.6
		c1.029-0.43,2.414,0.053,3.639,0.021c2.348-0.061,4.508-1.723,5.016-3.941c0.75-3.283-0.098-6.184-2.475-8.564
		c-0.495-0.494-1.279-0.951-1.944-0.971c-1.001-0.029-2.013,0.344-3.386,0.619c0.067-0.816,0.127-1.484,0.178-2.152
		c0.128-1.664,0.451-3.344,0.337-4.992c-0.342-4.967-2.989-8.371-7.491-10.4c-2.955-1.33-6.007-2.225-9.283-1.893
		c-3,0.307-5.119,1.895-6.566,4.561c-1.314,2.422-1.898,4.982-1.957,7.686c-0.027,1.309-0.404,2.105-1.885,2.119
		c-0.743,0.008-1.484,0.262-2.224,0.414c-1.604,0.33-2.481,1.076-2.348,2.684c0.337,4.078,0.832,8.146,1.403,12.199
		c0.296,2.105,1.877,3.121,4.029,2.961c0.311-0.023,0.776,0.113,0.918,0.336c0.123,0.195-0.054,0.641-0.19,0.932
		c-0.622,1.326-1.401,2.592-1.888,3.961c-0.77,2.16-1.076,4.41-0.807,6.723c0.365,3.135,2.943,4.469,5.565,2.771
		c0.962-0.621,1.815-1.434,2.632-2.246c0.723-0.719,1.326-1.559,2.141-2.533c0.74,1.982,2.121,1.039,3.488,0.861
		c0.107,0.773,0.24,1.465,0.292,2.164c0.073,0.955,0.606,1.352,1.497,1.576C221.535,348.388,222.724,346.962,223.57,345.368z"/>
	<path fill-rule="evenodd" clip-rule="evenodd" d="M207.852,307.356c0.724-1.562,1.284-3.184,2.681-4.41
		c2.309-2.027,5.018-2.389,7.852-1.875c4.217,0.764,8.245,2.057,10.996,5.67c1.77,2.322,2.457,4.949,2.363,7.936
		c-0.082,2.562-1.29,4.693-1.961,7.15c0.287-0.221,0.507-0.371,0.709-0.543c2.121-1.803,4.645-1.76,6.476,0.32
		c1.72,1.955,2.613,4.297,2.159,6.955c-0.56,3.264-3.217,5.195-6.454,4.441c-1.817-0.422-2.976-0.525-3.86,1.518
		c-0.494,1.145-1.777,1.984-2.801,2.848c-0.512,0.432-0.73,0.744-0.635,1.451c0.166,1.229,0.172,2.48-1.008,3.369
		c-0.195,0.148-0.29,0.561-0.274,0.84c0.124,2.184-1.045,3.637-2.739,4.715c-1.722,1.098-3.393,0.209-3.582-1.807
		c-0.055-0.59-0.16-1.176-0.249-1.807c-0.789,0.221-1.536,0.652-2.196,0.547c-0.539-0.088-0.976-0.814-1.457-1.256
		c-0.973,1.098-2.004,2.455-3.238,3.592c-0.889,0.822-1.984,1.508-3.109,1.949c-0.551,0.217-1.496-0.072-2.05-0.447
		c-2.063-1.402-2.03-3.621-1.804-5.734c0.34-3.152,1.102-6.203,3.577-8.951c-0.763-0.203-1.346-0.52-1.903-0.479
		c-1.941,0.143-3.354-0.74-3.699-2.713c-0.484-2.773-0.828-5.572-1.172-8.365c-0.16-1.301-0.301-2.625-0.227-3.924
		c0.113-1.941,0.997-2.629,2.973-2.588c0.639,0.012,1.275,0.072,1.914,0.064c0.627-0.008,1.256-0.072,1.99-0.119
		c0.076,0.729,0.164,1.463,0.216,2.199c0.009,0.123-0.108,0.295-0.218,0.377c-0.244,0.18-2.291-0.5-2.559-0.611
		c-0.703-0.291-1.475-0.67-2.191-0.619c-0.977,0.068-1.8,0.434-1.566,1.867c0.599,3.646,0.934,7.336,1.551,10.979
		c0.41,2.42,1.629,3.059,3.984,2.309c0.998-0.318,1.922-0.869,2.885-1.303c0.646-0.289,1.018-0.664,0.184-1.488
		c0.176-0.025,0.35-0.049,0.525-0.072c0.78,0.854,1.561,1.705,2.342,2.559c-0.063,0.074-0.127,0.148-0.188,0.225
		c-0.669-0.414-1.364-1.188-1.999-1.141c-0.676,0.049-1.297,0.875-1.939,1.361c0.018,0.121,0.035,0.242,0.053,0.363
		c0.938,0.074,1.891,0.062,2.805,0.246c0.959,0.193,1.887,0.555,2.809,0.891c0.135,0.051,0.167,0.375,0.246,0.572
		c-0.349,0.133-0.723,0.412-1.041,0.359c-0.401-0.068-0.732-0.475-1.136-0.621c-1.925-0.699-4.714,0.41-5.657,2.254
		c-1.276,2.494-1.9,5.168-1.945,7.953c-0.012,0.805,0.271,1.656,0.588,2.414c0.514,1.223,1.83,1.707,2.973,1.143
		c1.808-0.893,3.389-2.078,4.492-3.807c0.75-1.174,1.462-2.371,2.235-3.529c0.259-0.389,0.653-0.688,0.985-1.027
		c0.096,0.057,0.192,0.113,0.288,0.17c-0.017,0.246,0.004,0.502-0.06,0.734c-0.051,0.184-0.189,0.354-0.315,0.504
		c-0.745,0.9-0.874,1.906-0.267,2.869c0.312,0.494,1.781-0.27,2.529-1.27c0.064-0.086,0.196-0.123,0.488-0.301
		c0.074,0.438,0.162,0.781,0.188,1.129c0.082,1.031,0.1,2.068,0.23,3.09c0.033,0.254,0.375,0.619,0.625,0.664
		c1.186,0.215,2.188-0.154,2.986-1.098c0.902-1.062,1.387-2.258,1.078-3.639c-0.083-0.369-0.588-0.625-0.824-0.982
		c-0.451-0.688-0.949-1.377-1.221-2.139c-0.107-0.305,0.332-0.803,0.709-1.166c0.18,1.277,0.514,2.307,1.669,2.883
		c1.122-1.723,1.103-1.709,0.005-3.275c-0.096-0.139,0.297-0.871,0.396-0.857c1.914,0.268,2.566-1.465,3.743-2.336
		c0.37-0.273,0.62-0.732,0.864-1.141c0.414-0.691,0.547-1.246-0.238-1.949c-0.617-0.553-0.847-1.535-1.238-2.307
		c1.984-1.271,5.676-0.455,7.561,1.564c-0.604-0.129-1.049-0.223-1.59-0.336c1.156,1.82,2.322,1.891,3.723,0.566
		c2.109-1.994,1.781-4.412,0.773-6.959c-0.496-1.254-1.193-2.471-2.609-2.967c-1.826-0.641-3.223-0.18-4.585,1.357
		c-0.788,0.891-1.669,1.703-2.542,2.514c-0.154,0.141-0.48,0.094-1.043,0.186c0.639-1.422,1.162-2.598,1.695-3.771
		c0.609-1.346,1.133-2.738,1.861-4.018c0.971-1.709,0.725-3.426,0.369-5.197c-0.824-4.09-3.082-6.936-6.969-8.617
		c-2.954-1.279-5.964-2.088-9.143-1.607c-2.52,0.379-4.431,1.867-5.602,4.199c-0.262,0.521-0.553,1.029-0.83,1.545
		C208.125,307.517,207.989,307.437,207.852,307.356z"/>
	<path fill-rule="evenodd" clip-rule="evenodd" d="M231.388,327.69c0.547-0.221,1.096-0.439,1.678-0.674
		c-0.264,1.719,1.549,1.002,1.979,2.121c-1.263-0.352-2.526-0.703-3.79-1.053C231.3,327.954,231.343,327.821,231.388,327.69z"/>
	<path fill-rule="evenodd" clip-rule="evenodd" d="M207.322,312.263c-0.036,0.805-0.072,1.611-0.109,2.418
		c-0.142-0.002-0.283-0.004-0.424-0.006c0.008-0.787,0.016-1.576,0.023-2.365C206.982,312.294,207.152,312.278,207.322,312.263z"/>
</g>
<g>
	<path fill-rule="evenodd" clip-rule="evenodd" fill="#FFFFFF" d="M112.423,235.364c4.833-2.289,6.692-6.428,6.938-11.432
		c0.056-1.17-0.474-2.51-1.105-3.543c-1.17-1.916-3.146-3.006-5.232-3.557c-1.515-0.396-3.195-0.537-4.701,0.549
		c-0.478,0.346-1.293,0.219-1.955,0.309c-0.051-0.004-0.101-0.008-0.151-0.012c-0.538,0.076-1.082,0.24-1.615,0.213
		c-0.893-0.047-1.749-0.193-2.358,0.725c-0.124,0.188-0.554,0.248-0.839,0.238c-0.557-0.018-1.109-0.16-1.666-0.186
		c-2.279-0.107-4.497,1.215-5.036,2.947c-0.777,2.486,0.939,7.039,3.752,7.738c0.264,0.064,0.48,0.578,0.588,0.924
		c0.073,0.234-0.092,0.539-0.136,0.814c-0.363,2.287,0.793,4.645,2.766,5.643c2.039,1.035,3.327,0.695,5.383-1.35
		c0.238-0.238,0.703-0.465,0.99-0.395c0.835,0.203,1.632,0.557,2.43,0.846c-0.226,0.258-0.479,0.549-0.735,0.838
		c0.076,0.107,0.151,0.213,0.227,0.316c0.387-0.195,0.799-0.355,1.153-0.598C111.574,236.081,111.936,235.593,112.423,235.364z"/>
	<path fill-rule="evenodd" clip-rule="evenodd" d="M99.395,229.351c-2.437,0.064-3.403-1.557-4.177-3.299
		c-0.822-1.855-1.147-3.793,0.317-5.502c1.395-1.627,3.908-1.969,6.386-1.023c1.136-1.684,1.136-1.684,3.638-1.145
		c0.196-0.26,0.399-0.527,0.676-0.895c0.627,1.088,1.3,0.883,2.036,0.232c1.343-1.189,3.031-0.938,4.433-0.521
		c1.993,0.59,3.889,1.574,5.297,3.277c1.393,1.684,1.543,3.582,0.997,5.535c-0.793,2.834-1.662,5.641-4.032,7.703
		c-0.543,0.473-0.66,1.713-1.475,1.721c-1.752,0.016-3.587,0.73-5.269-0.367c-0.228-0.148-0.481-0.256-0.845-0.447
		c-1.254,2.33-3.021,3.432-5.593,2.137C98.577,235.14,98.693,232.364,99.395,229.351z M105.985,228.743
		c-0.03-0.135-0.06-0.27-0.09-0.404c0.485-0.119,1.173-0.496,1.413-0.307c0.513,0.406,1.02,1.068,1.116,1.691
		c0.115,0.742-0.196,1.553-0.333,2.332c-0.281,1.6-0.228,2.17,1.832,2.434c1.113,0.143,2.478-0.293,3.477-0.891
		c2.798-1.67,3.771-4.555,4.651-7.512c0.558-1.875,0.549-3.604-0.736-5.041c-0.922-1.029-2.181-1.756-3.345-2.662
		c-0.558,1.398-1.019,1.607-1.588,0.822c-1.164-1.607-3.188-1.176-4.63,0.971c0.796-0.01,1.438-0.059,2.071-0.01
		c0.342,0.025,0.956,0.205,0.961,0.34c0.054,1.104-0.006,2.211-0.032,3.318c-0.089,0.062-0.179,0.123-0.269,0.182
		c-0.387-0.604-0.774-1.207-1.222-1.908c0.014-0.002-0.278,0.105-0.566,0.1c-0.341-0.01-0.68-0.121-0.771-0.139
		c-0.761,0.73-1.284,1.6-2.015,1.84c-0.903,0.297-1.169,0.834-1.384,1.574c-0.145,0.496-0.211,1.037-0.455,1.477
		c-0.176,0.314-0.59,0.496-0.979,0.803c-0.158-0.967-0.264-1.615-0.37-2.266c-0.098-0.062-0.194-0.127-0.291-0.189
		c-0.108,2.082-1.304,0.926-2.152,0.984c-0.05-0.527-0.11-1.041-0.142-1.557c-0.05-0.799-0.068-1.561,1.14-1.061
		c0.147,0.061,0.613-0.193,0.617-0.312c0.06-1.678,1.05-1.99,2.487-1.91c0.235,0.014,0.692-0.709,0.731-1.121
		c0.067-0.686-0.302-1.217-1.122-1.229c-0.554-0.008-0.936,0.127-0.909,0.797c0.011,0.248-0.104,0.502-0.156,0.734
		c-0.863-0.061-1.886,0.182-2.332-0.221c-1.233-1.107-2.33-0.324-3.427-0.025c-1.106,0.303-1.648,1.223-1.72,2.359
		c-0.11,1.734,0.395,3.279,1.564,4.582c0.967,1.078,1.738,1.16,3,0.408c0.188-0.111,0.596-0.121,0.723,0.004
		c0.139,0.137,0.145,0.508,0.077,0.738c-0.269,0.912-0.648,1.793-0.878,2.715c-0.581,2.338,0.685,4.396,2.979,5.084
		c1.27,0.381,2.331-0.006,2.918-1.023c1.167-2.012,2.156-4.139,1.628-6.65C106.931,228.647,106.458,228.696,105.985,228.743z"/>
</g>
</svg>
