<?xml version="1.0" encoding="utf-8"?>
<!-- Generator: Adobe Illustrator 21.0.2, SVG Export Plug-In . SVG Version: 6.00 Build 0)  -->
<svg version="1.1" xmlns="http://www.w3.org/2000/svg" xmlns:xlink="http://www.w3.org/1999/xlink" x="0px" y="0px"
	 viewBox="0 0 500 200" style="enable-background:new 0 0 500 200;" xml:space="preserve">
<style type="text/css">
	.banner-fill{opacity:0;fill:#FFFFFF;}
	.st1{fill:#C8B475;}
	.st2{fill-opacity:0;}
</style>
<g id="Layer_2">
	<polyline class="banner-fill" points="68.9,28.5 431.1,28.5 437.3,48.3 454.6,61.6 467.4,63.9 467.4,136.1 448.3,141.4 434,157.8
		431.1,171.5 68.9,171.5 61.9,151.5 42.7,138.4 32.6,137 32.6,63.9 52.9,57.8 66.6,41 	"/>
</g>
<g id="Layer_1">
	<g>
		<g>
			<g>
				<g>
					<path id="a1zd7uUN3B" class="st1" d="M434.9,28.4l0.2,1.4l0.2,1.4l0.3,1.4l0.3,1.4l0.4,1.4l0.4,1.3l0.5,1.3l0.5,1.3l0.6,1.3
						l0.6,1.2l0.7,1.2l0.7,1.2l0.8,1.1l0.8,1.1l0.8,1.1l0.9,1.1l0.9,1l0.9,1l1,1l1,0.9l1.1,0.9l1.1,0.8l1.1,0.8l1.2,0.8l1.2,0.7
						l1.2,0.7l1.2,0.6l1.3,0.6l1.3,0.5l1.3,0.5l1.3,0.4l1.4,0.4l1.4,0.3l1.4,0.3l1.4,0.2l1.4,0.1l1.4,0.1l1.5,0v77.8l-1.5,0
						l-1.4,0.1l-1.4,0.1l-1.4,0.2l-1.4,0.3l-1.4,0.3l-1.4,0.4l-1.3,0.4l-1.3,0.5l-1.3,0.5l-1.3,0.6l-1.2,0.6l-1.2,0.7l-1.2,0.7
						l-1.2,0.8l-1.1,0.8l-1.1,0.8l-1.1,0.9l-1,0.9l-1,0.9l-0.9,1l-0.9,1l-0.9,1.1l-0.8,1.1l-0.8,1.1l-0.8,1.1l-0.7,1.2l-0.7,1.2
						l-0.6,1.2l-0.6,1.3l-0.5,1.3l-0.5,1.3l-0.4,1.3l-0.4,1.4l-0.3,1.4l-0.3,1.4l-0.2,1.4l-0.2,1.4l-0.1,1.4l0,1.5H65.3l0-1.5
						l-0.1-1.4l-0.2-1.4l-0.2-1.4l-0.3-1.4l-0.3-1.4l-0.4-1.4l-0.4-1.3l-0.5-1.3l-0.5-1.3l-0.6-1.3l-0.6-1.2l-0.7-1.2l-0.7-1.2
						l-0.8-1.1l-0.8-1.1l-0.8-1.1l-0.9-1.1l-0.9-1l-1-1l-1-0.9l-1-0.9l-1.1-0.9l-1.1-0.8l-1.1-0.8l-1.2-0.8l-1.2-0.7l-1.2-0.7
						l-1.2-0.6l-1.3-0.6l-1.3-0.5l-1.3-0.5l-1.3-0.4l-1.4-0.4l-1.4-0.3l-1.4-0.3l-1.4-0.2l-1.4-0.1l-1.5-0.1l-1.5,0V61.1l1.5,0
						l1.5-0.1l1.4-0.1l1.4-0.2l1.4-0.3l1.4-0.3l1.4-0.4l1.3-0.4l1.3-0.5l1.3-0.5l1.3-0.6l1.2-0.6l1.2-0.7l1.2-0.7l1.2-0.8l1.1-0.8
						l1.1-0.8l1.1-0.9l1-0.9l1-1l1-1l0.9-1l0.9-1.1l0.8-1.1l0.8-1.1l0.8-1.1l0.7-1.2l0.7-1.2l0.6-1.2l0.6-1.3l0.5-1.3l0.5-1.3
						l0.4-1.3l0.4-1.4l0.3-1.4l0.3-1.4l0.2-1.4l0.2-1.4l0.1-1.5l0-1.5h369.5l0,1.5L434.9,28.4z M68.9,29.9l-0.1,1.4l-0.2,1.4
						l-0.2,1.4l-0.3,1.4L67.8,37l-0.4,1.4l-0.4,1.3L66.6,41l-0.5,1.3l-0.6,1.3l-0.6,1.2l-0.7,1.2l-0.7,1.2l-0.8,1.2l-0.8,1.1
						L61,50.5l-0.9,1l-0.9,1l-1,1l-1,0.9l-1,0.9l-1.1,0.9L54,57l-1.1,0.8l-1.2,0.7l-1.2,0.7l-1.2,0.7L48,60.5l-1.3,0.6l-1.3,0.5
						l-1.3,0.5l-1.4,0.4l-1.4,0.4l-1.4,0.3l-1.4,0.3l-1.4,0.2l-1.5,0.1l-1.5,0.1l-1.5,0V137l1.5,0l1.5,0.1l1.5,0.1l1.4,0.2l1.4,0.3
						l1.4,0.3l1.4,0.4l1.4,0.4l1.3,0.5l1.3,0.5l1.3,0.6l1.3,0.6l1.2,0.7l1.2,0.7l1.2,0.7l1.1,0.8l1.1,0.8l1.1,0.9l1,0.9l1,0.9l1,1
						l0.9,1l0.9,1.1l0.9,1.1l0.8,1.1l0.8,1.1l0.7,1.2l0.7,1.2l0.6,1.2l0.6,1.3l0.5,1.3l0.5,1.3l0.4,1.3l0.4,1.3l0.3,1.4l0.3,1.4
						l0.2,1.4l0.2,1.4l0.1,1.4l0,0.6h362.2l0-1.5l0.1-1.4l0.1-1.4l0.2-1.4l0.3-1.4l0.3-1.4l0.4-1.4l0.4-1.3l0.5-1.3l0.5-1.3l0.6-1.3
						l0.6-1.2l0.7-1.2l0.7-1.2l0.8-1.2l0.8-1.1l0.9-1.1l0.9-1l0.9-1l1-1l1-0.9l1-0.9l1.1-0.9l1.1-0.8l1.1-0.8l1.2-0.7l1.2-0.7
						l1.2-0.6l1.3-0.6l1.3-0.6l1.3-0.5l1.3-0.5l1.4-0.4l1.4-0.4l1.4-0.3l1.4-0.3l1.5-0.2l1.5-0.1l1.5-0.1l1.5,0V63.9l-1.5,0
						l-1.5-0.1l-1.5-0.1l-1.5-0.2l-1.4-0.3l-1.4-0.3l-1.4-0.4l-1.4-0.4l-1.3-0.5l-1.3-0.5l-1.3-0.6l-1.3-0.6l-1.2-0.7l-1.2-0.7
						l-1.2-0.7L446,57l-1.1-0.8l-1.1-0.9l-1-0.9l-1-0.9l-1-1l-0.9-1l-0.9-1l-0.9-1.1l-0.8-1.1l-0.8-1.2l-0.7-1.2l-0.7-1.2l-0.6-1.2
						l-0.6-1.3l-0.5-1.3l-0.5-1.3l-0.4-1.3l-0.4-1.4l-0.3-1.4l-0.3-1.4l-0.2-1.4l-0.1-1.4l-0.1-1.4l0-1.5H68.9L68.9,29.9z"/>
				</g>
				<g>
					<g>
						<path id="a1zd7uUN3B_1_" class="st2" d="M434.9,28.4l0.2,1.4l0.2,1.4l0.3,1.4l0.3,1.4l0.4,1.4l0.4,1.3l0.5,1.3l0.5,1.3
							l0.6,1.3l0.6,1.2l0.7,1.2l0.7,1.2l0.8,1.1l0.8,1.1l0.8,1.1l0.9,1.1l0.9,1l0.9,1l1,1l1,0.9l1.1,0.9l1.1,0.8l1.1,0.8l1.2,0.8
							l1.2,0.7l1.2,0.7l1.2,0.6l1.3,0.6l1.3,0.5l1.3,0.5l1.3,0.4l1.4,0.4l1.4,0.3l1.4,0.3l1.4,0.2l1.4,0.1l1.4,0.1l1.5,0v77.8
							l-1.5,0l-1.4,0.1l-1.4,0.1l-1.4,0.2l-1.4,0.3l-1.4,0.3l-1.4,0.4l-1.3,0.4l-1.3,0.5l-1.3,0.5l-1.3,0.6l-1.2,0.6l-1.2,0.7
							l-1.2,0.7l-1.2,0.8l-1.1,0.8l-1.1,0.8l-1.1,0.9l-1,0.9l-1,0.9l-0.9,1l-0.9,1l-0.9,1.1l-0.8,1.1l-0.8,1.1l-0.8,1.1l-0.7,1.2
							l-0.7,1.2l-0.6,1.2l-0.6,1.3l-0.5,1.3l-0.5,1.3l-0.4,1.3l-0.4,1.4l-0.3,1.4l-0.3,1.4l-0.2,1.4l-0.2,1.4l-0.1,1.4l0,1.5H65.3
							l0-1.5l-0.1-1.4l-0.2-1.4l-0.2-1.4l-0.3-1.4l-0.3-1.4l-0.4-1.4l-0.4-1.3l-0.5-1.3l-0.5-1.3l-0.6-1.3l-0.6-1.2l-0.7-1.2
							l-0.7-1.2l-0.8-1.1l-0.8-1.1l-0.8-1.1l-0.9-1.1l-0.9-1l-1-1l-1-0.9l-1-0.9l-1.1-0.9l-1.1-0.8l-1.1-0.8l-1.2-0.8l-1.2-0.7
							l-1.2-0.7l-1.2-0.6l-1.3-0.6l-1.3-0.5l-1.3-0.5l-1.3-0.4l-1.4-0.4l-1.4-0.3l-1.4-0.3l-1.4-0.2l-1.4-0.1l-1.5-0.1l-1.5,0V61.1
							l1.5,0l1.5-0.1l1.4-0.1l1.4-0.2l1.4-0.3l1.4-0.3l1.4-0.4l1.3-0.4l1.3-0.5l1.3-0.5l1.3-0.6l1.2-0.6l1.2-0.7l1.2-0.7l1.2-0.8
							l1.1-0.8l1.1-0.8l1.1-0.9l1-0.9l1-1l1-1l0.9-1l0.9-1.1l0.8-1.1l0.8-1.1l0.8-1.1l0.7-1.2l0.7-1.2l0.6-1.2l0.6-1.3l0.5-1.3
							l0.5-1.3l0.4-1.3l0.4-1.4l0.3-1.4l0.3-1.4l0.2-1.4l0.2-1.4l0.1-1.5l0-1.5h369.5l0,1.5L434.9,28.4z M68.9,29.9l-0.1,1.4
							l-0.2,1.4l-0.2,1.4l-0.3,1.4L67.8,37l-0.4,1.4l-0.4,1.3L66.6,41l-0.5,1.3l-0.6,1.3l-0.6,1.2l-0.7,1.2l-0.7,1.2l-0.8,1.2
							l-0.8,1.1L61,50.5l-0.9,1l-0.9,1l-1,1l-1,0.9l-1,0.9l-1.1,0.9L54,57l-1.1,0.8l-1.2,0.7l-1.2,0.7l-1.2,0.7L48,60.5l-1.3,0.6
							l-1.3,0.5l-1.3,0.5l-1.4,0.4l-1.4,0.4l-1.4,0.3l-1.4,0.3l-1.4,0.2l-1.5,0.1l-1.5,0.1l-1.5,0V137l1.5,0l1.5,0.1l1.5,0.1
							l1.4,0.2l1.4,0.3l1.4,0.3l1.4,0.4l1.4,0.4l1.3,0.5l1.3,0.5l1.3,0.6l1.3,0.6l1.2,0.7l1.2,0.7l1.2,0.7l1.1,0.8l1.1,0.8l1.1,0.9
							l1,0.9l1,0.9l1,1l0.9,1l0.9,1.1l0.9,1.1l0.8,1.1l0.8,1.1l0.7,1.2l0.7,1.2l0.6,1.2l0.6,1.3l0.5,1.3l0.5,1.3l0.4,1.3l0.4,1.3
							l0.3,1.4l0.3,1.4l0.2,1.4l0.2,1.4l0.1,1.4l0,0.6h362.2l0-1.5l0.1-1.4l0.1-1.4l0.2-1.4l0.3-1.4l0.3-1.4l0.4-1.4l0.4-1.3
							l0.5-1.3l0.5-1.3l0.6-1.3l0.6-1.2l0.7-1.2l0.7-1.2l0.8-1.2l0.8-1.1l0.9-1.1l0.9-1l0.9-1l1-1l1-0.9l1-0.9l1.1-0.9l1.1-0.8
							l1.1-0.8l1.2-0.7l1.2-0.7l1.2-0.6l1.3-0.6l1.3-0.6l1.3-0.5l1.3-0.5l1.4-0.4l1.4-0.4l1.4-0.3l1.4-0.3l1.5-0.2l1.5-0.1l1.5-0.1
							l1.5,0V63.9l-1.5,0l-1.5-0.1l-1.5-0.1l-1.5-0.2l-1.4-0.3l-1.4-0.3l-1.4-0.4l-1.4-0.4l-1.3-0.5l-1.3-0.5l-1.3-0.6l-1.3-0.6
							l-1.2-0.7l-1.2-0.7l-1.2-0.7L446,57l-1.1-0.8l-1.1-0.9l-1-0.9l-1-0.9l-1-1l-0.9-1l-0.9-1l-0.9-1.1l-0.8-1.1l-0.8-1.2l-0.7-1.2
							l-0.7-1.2l-0.6-1.2l-0.6-1.3l-0.5-1.3l-0.5-1.3l-0.4-1.3l-0.4-1.4l-0.3-1.4l-0.3-1.4l-0.2-1.4l-0.1-1.4l-0.1-1.4l0-1.5H68.9
							L68.9,29.9z"/>
					</g>
				</g>
			</g>
		</g>
	</g>
</g>
</svg>
