<?xml version="1.0" encoding="utf-8"?>
<!-- Generator: Adobe Illustrator 16.0.0, SVG Export Plug-In . SVG Version: 6.00 Build 0)  -->
<!DOCTYPE svg PUBLIC "-//W3C//DTD SVG 1.1//EN" "http://www.w3.org/Graphics/SVG/1.1/DTD/svg11.dtd">
<svg version="1.1" xmlns="http://www.w3.org/2000/svg" xmlns:xlink="http://www.w3.org/1999/xlink" x="0px" y="0px"
	 width="399.391px" height="632.329px" viewBox="127.628 73.151 399.391 632.329"
	 enable-background="new 127.628 73.151 399.391 632.329" xml:space="preserve">
<g id="Layer_1" display="none">
	<g id="fill" display="inline">
		<g>
			<path fill="#FFFFFF" d="M303.835,659.573c0.217-2.098-2.168-4.459-3.354-6.699c-1.991,1.165-4.414,1.935-5.904,3.561
				c-8.438,9.206-16.773,18.519-24.885,28.015c-2.928,3.428-5.232,7.408-8.566,12.312c0.109,0.404,0.178,0.828,0.191,1.279
				c18.617,1.341,37.221,3.104,55.861,3.75c19.562,0.68,39.166,0.147,59.863,0.147c-1.049-3.81-1.26-7.111-2.77-9.643
				c-8.188-13.715-16.695-27.238-25.097-40.827c-0.351-0.564-0.714-1.124-1.207-1.896c-3.854,3.009-7.078,5.249-6.303,10.688
				c0.407,2.854-0.595,6.496-2.229,8.931c-3.596,5.354-7.721,10.434-12.195,15.075c-2.008,2.085-5.515,4.879-7.599-0.804
				c-0.428-1.167-2.188-1.867-3.37-2.731C309.087,675.479,302.772,669.899,303.835,659.573z"/>
			<path fill="#FFFFFF" d="M261.807,149.11c-25.581,3.564-43.347,28.325-38.46,53.796c1.896,9.879,4.292,19.68,12.646,26.434
				c3.188,2.578,6.859,4.559,10.787,7.122c-3.404,2.319-6.186,1.586-9.018-0.562c-11.043-8.374-17.42-20.781-18.979-33.773
				c-0.883,0.117-1.812-0.147-2.479-0.814c-0.058-0.057-0.117-0.112-0.175-0.169c-0.01-0.001-0.02-0.004-0.028-0.006
				c-0.544,0.628-1.334,1.038-2.214,1.038h-0.5c-0.609,0-1.18-0.194-1.653-0.521c-0.231,0.028-0.456,0.045-0.679,0.042
				c-25.682-0.405-37.343,16.534-41.155,36.821c-2.835,15.091,0.891,28.917,9.919,41.013c3.25,4.354,8.083,7.861,12.837,10.662
				c4.897,2.887,10.122,2.466,15.627-0.485c5.272-2.827,11.444-4.012,17.276-5.728c0.945-0.278,2.182,0.434,4.758,1.029
				c-4.396,1.342-7.378,2.517-10.471,3.152c-13.502,2.773-20.686,12.1-24.762,24.246c-4.37,13.021-2.807,25.953,1.967,38.611
				c0.349,0.927,0.867,1.801,1.393,2.647c12.691,20.445,48.58,22.146,62.827,2.965c8.269-11.133,9.21-23.22,4.37-35.931
				c-0.391-1.028-1.712-2.146-2.795-2.401c-18.296-4.321-25.82-17.718-28.49-34.595c-3.225-20.376,3.471-37.486,19.162-50.805
				c7.996-6.785,17.677-8.961,28.043-8.297c2.302,0.147,4.605,0.26,7.323,0.412c0.655-3.909,0.665-7.868,2.03-11.286
				c2.682-6.71,6.17-13.094,9.207-19.667c0.839-1.817,1.814-3.842,1.762-5.745c-0.109-3.977-0.691-7.965-1.377-11.896
				C297.161,157.263,281.636,146.348,261.807,149.11z M182.708,268.208c-7.027-3.865-10.669-18.216-7.738-30.148
				c3.704-15.088,17.108-29.297,28.908-29.608C179.718,222.797,170.961,242.009,182.708,268.208z M204.93,314.834
				c-2.653,8.297-4.097,16.441,2.091,24.703c-7.011-3.581-8.945-9.898-6.92-20.319c2.643-13.588,10.438-22.035,22.379-23.115
				C214.315,301.045,207.696,306.181,204.93,314.834z"/>
			<path fill="#FFFFFF" d="M361.029,333.89c-0.378,15.873-3.188,27.636-11.898,37.351c-9.8,10.928-22.062,13.183-35.065,6.437
				c-10.822-5.613-20.479-12.464-25.521-24.193c-5.271-12.267-2.428-24.113,1.863-35.866c0.382-1.047,1.152-2.146,2.053-2.779
				c8.097-5.693,13.152-13.875,18.705-21.792c6.006-8.562,22.43-7.955,29.74,0.439c2.278,2.616,5.258,4.698,7.205,7.516
				c3.545,5.126,7.454,10.292,9.553,16.046C359.955,323.338,360.369,330.313,361.029,333.89z M324.483,296.608
				c13.289,4.63,19.242,14.658,21.178,27.48c1.889,12.528,0.106,24.379-8.276,35.235c10.133-4.128,15.265-23.846,11.144-40.171
				C344.874,304.684,335.081,294.817,324.483,296.608z"/>
			<path fill="#FFFFFF" d="M237.216,278.182c0.527-20.057,7.156-33.875,20.635-44.038c14.995-11.307,34.29-7.47,43.84,8.585
				c2.652,4.457,6.504,8.653,5.104,14.627c-0.125,0.53,0.402,1.227,0.66,1.831c6.643,15.581,2.349,35.442-10.154,46.954
				c-17.492,16.105-46.951,10.05-55.854-11.794C238.98,288.297,238.082,281.608,237.216,278.182z M267.54,242.457
				c-7.324-0.263-10.681,4.363-13.495,9.505c-6.208,11.34-7.911,20.302-4.821,24.252C252.974,257.148,255.02,254.736,267.54,242.457
				z"/>
			<path fill="#FFFFFF" d="M402.852,293.837c18.969-28.158,13.264-63.991-12.771-75.237c1.271-2.281,2.334-4.642,3.795-6.721
				c12.16-17.323,36.341-20.556,51.102-6.784c2.16,2.016,4.433,4.33,5.559,6.973c9.156,21.491,12.271,43.161,0.658,64.886
				c-4.648,8.692-11.784,14.669-20.734,18.688C421.06,299.861,412.282,296.753,402.852,293.837z M436.926,213.168
				c10.745,11.925,9.479,26.861,10.256,42.516C453.678,240.898,447.672,216.605,436.926,213.168z"/>
			<path fill="#FFFFFF" d="M365.003,225.526c0.052,15.883-10.113,29.971-25.111,34.831c-0.916,0.296-2.228,0.645-2.895,0.23
				c-4.285-2.665-8.221-1.68-12.731-0.153c-5.522,1.869-10.751-1.443-12.944-7.051c-3.312-8.457-8.048-15.879-14.246-22.628
				c-2.406-2.621-4.04-7.304-3.735-10.851c2.658-30.935,31.812-42.678,51.24-33.143c14.461,7.098,18.952,20.052,20.408,34.773
				C365.116,222.854,365.003,224.196,365.003,225.526z M300.381,226.117c3.183-12.89,8.809-24,21.392-31.423
				C309.4,195.367,298.582,211.891,300.381,226.117z"/>
			<path fill="#FFFFFF" d="M369.036,220.688c15.668-4.17,33.812,4.77,38.527,19.604c5.161,16.24,4.004,32.129-5.488,46.946
				c-10.197,15.917-31.115,20.589-46.287,12.312c-9.863-5.382-18.646-14.24-18.094-27.82c0.152-3.798,1.381-6.717,4.714-8.753
				c3.263-1.993,6.345-4.284,9.601-6.291c11.88-7.318,17.109-18.152,17.028-31.847C369.029,223.52,369.036,222.2,369.036,220.688z
				 M377.017,230.882c15.18,16.423,19.674,33.632,4.217,52.634c11.609-7.51,15.183-19.816,10.585-35.531
				C389.541,240.207,386.908,232.461,377.017,230.882z"/>
			<path fill="#FFFFFF" d="M368.337,216.001c-3.574-32.37-37.59-46.132-62.352-28.675c-0.68-4.234-1.311-8.307-1.996-12.369
				c-0.275-1.636-0.623-3.264-1.016-4.876c-1.134-4.668-5.014-8.8-2.146-14.217c3.824-7.223,8.614-13.421,15.985-17.323
				c25.442-13.469,58.752,3.68,64.104,33.012c2.895,15.866-1.196,29.988-10.692,42.751
				C369.868,214.78,369.329,215.119,368.337,216.001z M346.436,147.11c15.382,11.141,23.691,25.272,22.351,44.212
				C375.584,174.878,361.754,147.253,346.436,147.11z"/>
			<path fill="#FFFFFF" d="M374.944,215.785c3.143-6.957,6.597-13.088,8.732-19.647c4.75-14.567,2.781-28.504-5.459-41.541
				c-2.583-4.086-6.993-7.979-4.348-13.476c3.133-6.506,8.754-11.062,15.788-11.725c11.597-1.091,23.712-0.311,31.729,9.286
				c4.554,5.447,6.986,13.095,8.979,20.145c2.853,10.097,1.184,20.189-3.892,29.408c-1.072,1.952-3.675,3.884-5.852,4.275
				c-14.184,2.552-25.455,9.162-33.08,21.699c-0.836,1.374-3.281,2.286-5.062,2.442
				C380.077,216.864,377.588,216.136,374.944,215.785z M421.458,166.715c0.937-7.884-0.96-14.45-7.602-19.095
				c-5.99-4.188-8.912-4.903-13.525-2.522C413.59,146.781,418.115,156.152,421.458,166.715z"/>
			<path fill="#FFFFFF" d="M376.161,611.161c-7.863,8.761-14.729,16.404-21.588,24.048c-3.111,3.466-6.209,6.943-9.336,10.394
				c-2.895,3.191-5.076,7.385-10.879,5.401c-1.425-0.485-3.899,1.46-5.623,2.67c-2.268,1.592-4.268,3.562-6.986,5.886
				c-2.277-7.038-6.895-8.169-13.117-6.671c-1.398,0.338-3.827-1.634-5.121-3.117c-8.635-9.902-17.053-19.994-25.625-29.955
				c-2.691-3.125-5.641-6.028-9.378-9.996C304.462,609.062,339.443,608.253,376.161,611.161z"/>
			<path fill="#FFFFFF" d="M264.214,685.484c0-25.231,0-49.14,0-73.044c0.421-0.162,0.842-0.324,1.264-0.485
				c4.085,4.047,8.431,7.868,12.195,12.195c5.783,6.646,11.298,13.542,16.602,20.574c0.949,1.26,1.191,4.42,0.303,5.482
				C284.892,661.797,274.917,673.143,264.214,685.484z"/>
			<path fill="#FFFFFF" d="M378.41,615.388c-0.887,23.475-1.773,46.945-2.712,71.784c-1.93-3.254-3.225-5.595-4.66-7.842
				c-6.449-10.077-12.908-20.147-19.438-30.172c-1.479-2.273-2.345-4.131-0.032-6.58c8.55-9.065,16.925-18.296,25.362-27.464
				C377.425,615.206,377.918,615.297,378.41,615.388z"/>
		</g>
	</g>
	<g id="lines" display="inline">
		<path d="M262.657,362.14c-4.416,3.899-9.467,5.734-9.77,12.139c-0.158,3.332-5.736,4.644-7.177,1.817
			c-1.663-3.262-3.897-2.43-6.252-2.09c-14.671,2.118-27.333-2.634-38.392-11.822c-9.679-8.042-11.371-19.573-11.965-31.221
			c-0.636-12.508,2.648-24.052,10.071-34.582c-0.987-0.61-1.597-1.249-2.304-1.386c-16.934-3.281-24.568-15.808-28.838-30.56
			c-5.514-19.054-3.785-37.323,9.9-53.04c9.117-10.469,25.166-15.186,36.807-10.325c-1.715,0.303-2.702,0.642-3.684,0.626
			c-25.682-0.405-37.343,16.534-41.155,36.821c-2.835,15.091,0.891,28.917,9.919,41.013c3.25,4.354,8.083,7.861,12.837,10.662
			c4.897,2.887,10.122,2.466,15.627-0.485c5.272-2.827,11.444-4.012,17.276-5.728c0.945-0.278,2.182,0.434,4.758,1.029
			c-4.396,1.342-7.378,2.517-10.471,3.152c-13.502,2.773-20.686,12.1-24.762,24.246c-4.37,13.021-2.807,25.953,1.967,38.611
			c0.349,0.927,0.867,1.801,1.393,2.647c12.691,20.445,48.58,22.146,62.827,2.965c8.269-11.133,9.21-23.22,4.37-35.931
			c-0.391-1.028-1.712-2.146-2.795-2.401c-18.296-4.321-25.82-17.718-28.49-34.595c-3.225-20.376,3.471-37.486,19.162-50.805
			c7.996-6.785,17.677-8.961,28.043-8.297c2.302,0.147,4.605,0.26,7.323,0.412c0.655-3.909,0.665-7.868,2.03-11.286
			c2.682-6.71,6.17-13.094,9.207-19.667c0.839-1.817,1.814-3.842,1.762-5.745c-0.109-3.977-0.691-7.965-1.377-11.896
			c-3.346-19.157-18.871-30.072-38.7-27.31c-25.581,3.564-43.347,28.325-38.46,53.796c1.896,9.879,4.292,19.68,12.646,26.434
			c3.188,2.578,6.859,4.559,10.787,7.122c-3.404,2.319-6.186,1.586-9.018-0.562c-24.09-18.267-26.044-55.723-3.977-76.586
			c17.638-16.677,39.91-18.296,59.571-4.343c0.79,0.561,1.659,1.012,2.473,1.503c18.509-29.026,42.168-34.256,71.794-15.858
			c2.175-1.923,4.762-3.624,6.596-5.925c13.403-16.829,50.405-8.261,56.701,10.731c5.042,15.21,7.129,29.681-0.697,44.369
			c-0.3,0.561-0.385,1.235-0.541,1.758c0.299,0.412,0.438,0.826,0.679,0.9c19.993,6.202,27.946,21.75,31.4,40.665
			c1.947,10.66,1.047,21.229-1.806,31.656c-6.11,22.335-19.791,34.012-43.162,36.355c0.387,2.99,0.772,5.982,1.332,10.311
			c-3.506-1.102-6.255-1.966-9.334-2.934c1.188-3.239,2.092-5.701,3.073-8.376c-1.271-0.548-2.452-1.106-3.669-1.575
			c-6.848-2.638-11.125-1.744-16.152,3.708c-0.872,0.945-0.987,2.649-1.301,4.037c-1.346,5.954-2.492,11.955-3.965,17.876
			c-3.814,15.33-7.883,30.598-11.637,45.942c-10.04,41.046-19.971,82.12-29.934,123.186c-0.15,0.621-0.164,1.275-0.24,1.914
			c0.404,0.125,0.811,0.25,1.213,0.375c19.792-58.636,39.584-117.272,59.376-175.909c0.677,0.099,1.351,0.197,2.022,0.295
			c-0.161,2.144,0.124,4.439-0.551,6.406c-12.024,35.092-24.139,70.153-36.291,105.2c-11.604,33.462-23.227,66.918-34.975,100.33
			c-1.914,5.443-4.521,10.642-5.93,13.906c19.059-78.414,38.609-158.854,58.505-240.715c-6.223,1.097-10.667,1.88-15.249,2.688
			c0.319,2.397,0.576,4.33,0.896,6.713c-4.228-0.437-8.557,0.538-9.495-5.572c-0.186-1.193-3.204-1.95-5.087-3.003
			c2.104,10.042,4.793,18.862,5.632,27.855c1.174,12.581-2.144,24.582-9.269,35.075c-6.452,9.505-15.898,14.268-27.418,15.132
			c-2.476,0.186-5.146,1.129-7.229,2.486c-4.062,2.647-6.146,2.203-7.861-2.308c-0.33-0.87-1.043-1.649-1.729-2.315
			c-0.709-0.688-1.605-1.181-2.41-1.771c-9.877-7.229-20.85-13.36-25.208-26.139c-0.603,0.244-1.204,0.488-1.807,0.732
			c9.489,59.992,18.978,119.984,28.468,179.977c-0.437,0.08-0.868,0.16-1.305,0.241c-3.873-22.569-7.747-45.14-11.619-67.707
			c-3.883-22.639-7.975-45.24-11.585-67.921c-3.595-22.585-8.489-45.021-10.306-67.84c0.748-0.143,1.496-0.286,2.245-0.429
			c0.848,2.59,1.695,5.181,2.932,8.96c1.728-7.842,3.239-14.706,4.764-21.627c-3.471-0.088-3.471-0.088-2.948,6.417
			c-2.199,0.276-4.426,0.556-7.02,0.882c0-2.384,0-4.435,0-6.6c-2.162,0-4.273,0-7.133,0c0.362,1.745,0.384,3.204,0.957,4.399
			c4.793,9.996,3.776,19.804-1.264,29.251c-2.117,3.967-2.412,7.622-1.455,11.937c13.408,60.424,26.656,120.883,40.047,181.311
			c1.154,5.206,3.051,10.247,5.258,15.223c-1.881-56.054,1.859-111.777,5.646-167.679c0.308,1.74,0.941,3.494,0.873,5.22
			c-1.355,34.103-3.271,68.189-4.038,102.307c-0.479,21.286,0.711,42.611,1.306,63.915c0.044,1.58,1.337,3.126,2.413,5.486
			c2.935-7.834,5.372-14.354,7.812-20.869c0.535,0.188,1.068,0.381,1.604,0.568c-0.241,1.062-0.353,2.173-0.745,3.173
			c-4.174,10.632-6.309,21.713-6.739,33.062c-0.117,3.092,1.419,6.22,1.974,9.369c0.604,3.428,0.951,6.899,1.463,10.755
			c11.371,0.414,23.144,0.861,34.916,1.264c6.155,0.21,12.315,0.509,18.471,0.444c3.773-0.038,5.061,1.548,4.812,5.122
			c-0.835,12.11-2.005,24.22-2.238,36.346c-0.245,12.777-0.332,25.648,0.912,38.341c1.53,15.607,1.266,17.552-14.054,17.509
			c-24.121-0.068-48.241-1.375-72.356-2.294c-10.275-0.394-20.542-1.06-30.801-1.78c-1.607-0.114-3.147-1.198-4.719-1.833
			c0.104-0.569,0.209-1.14,0.313-1.707c19.401,1.354,38.785,3.247,58.21,3.921c19.562,0.68,39.166,0.149,59.863,0.149
			c-1.049-3.812-1.26-7.113-2.771-9.645c-8.188-13.715-16.693-27.238-25.095-40.827c-0.351-0.564-0.714-1.124-1.207-1.896
			c-3.854,3.009-7.078,5.249-6.303,10.688c0.407,2.854-0.595,6.496-2.229,8.932c-3.596,5.354-7.721,10.433-12.195,15.074
			c-2.008,2.086-5.515,4.88-7.599-0.804c-0.428-1.167-2.188-1.867-3.37-2.73c-7.188-5.25-13.5-10.828-12.438-21.154
			c0.217-2.097-2.168-4.459-3.354-6.699c-1.991,1.165-4.414,1.936-5.904,3.562c-8.438,9.205-16.773,18.518-24.885,28.014
			c-3.057,3.578-5.422,7.747-9,12.953c-0.377-3.151-0.807-4.948-0.771-6.735c0.447-23.145,1.023-46.286,1.396-69.431
			c0.057-3.602-0.924-7.204-1.074-10.821c-0.092-2.186,0.488-4.399,0.898-7.637c6.282,7.284,13.65,3.948,20.251,4.306
			c8.628,0.465,17.317,0.078,25.96-0.334c1.57-0.075,3.771-1.714,4.428-3.188c1.398-3.156,2.083-6.654,2.851-10.062
			c0.36-1.597,0.896-3.658,0.228-4.901c-5.008-9.292-3.916-19.892-6.655-29.773c-14.852-53.585-33.499-105.896-51.341-158.482
			c-2.223-6.549-4.598-13.045-6.901-19.566c0.664-0.328,1.329-0.657,1.993-0.985c1.428,2.484,3.312,4.814,4.213,7.478
			c11.333,33.543,22.521,67.136,33.76,100.711c0.83,2.479,1.759,4.927,3.762,7.053C283.408,451.012,273.13,406.994,262.657,362.14z
			 M361.029,333.89c-0.66-3.576-1.074-10.552-3.368-16.843c-2.1-5.754-6.008-10.92-9.553-16.046
			c-1.947-2.817-4.927-4.899-7.205-7.516c-7.312-8.395-23.734-9.002-29.74-0.439c-5.553,7.917-10.608,16.099-18.705,21.792
			c-0.9,0.634-1.671,1.732-2.053,2.779c-4.291,11.753-7.135,23.6-1.863,35.866c5.043,11.729,14.699,18.58,25.521,24.193
			c13.005,6.746,25.27,4.491,35.067-6.437C357.843,361.525,360.651,349.763,361.029,333.89z M237.216,278.182
			c0.866,3.427,1.765,10.115,4.23,16.165c8.902,21.844,38.361,27.899,55.854,11.794c12.503-11.512,16.797-31.373,10.154-46.954
			c-0.258-0.604-0.785-1.301-0.66-1.831c1.4-5.974-2.451-10.17-5.104-14.627c-9.55-16.055-28.845-19.892-43.84-8.585
			C244.372,244.307,237.743,258.125,237.216,278.182z M402.852,293.837c9.433,2.916,18.208,6.024,27.604,1.805
			c8.95-4.02,16.086-9.996,20.734-18.688c11.613-21.725,8.497-43.395-0.658-64.886c-1.126-2.643-3.396-4.957-5.559-6.973
			c-14.761-13.771-38.939-10.539-51.102,6.784c-1.461,2.079-2.521,4.439-3.795,6.721
			C416.113,229.846,421.818,265.679,402.852,293.837z M365.003,225.526c0-1.33,0.113-2.672-0.017-3.99
			c-1.456-14.722-5.947-27.676-20.408-34.773c-19.43-9.535-48.582,2.208-51.24,33.143c-0.305,3.547,1.329,8.229,3.735,10.851
			c6.198,6.749,10.934,14.171,14.246,22.628c2.193,5.607,7.422,8.92,12.944,7.051c4.513-1.526,8.446-2.512,12.731,0.153
			c0.667,0.414,1.979,0.065,2.895-0.23C354.89,255.497,365.055,241.409,365.003,225.526z M369.036,220.688
			c0,1.513-0.007,2.832,0.001,4.151c0.081,13.694-5.148,24.528-17.028,31.847c-3.256,2.007-6.338,4.298-9.601,6.291
			c-3.333,2.036-4.562,4.955-4.714,8.753c-0.555,13.58,8.229,22.438,18.094,27.82c15.172,8.277,36.09,3.605,46.287-12.312
			c9.492-14.817,10.649-30.706,5.488-46.946C402.848,225.457,384.704,216.518,369.036,220.688z M368.337,216.001
			c0.992-0.882,1.531-1.221,1.887-1.697c9.496-12.763,13.587-26.885,10.692-42.751c-5.352-29.332-38.659-46.479-64.104-33.012
			c-7.369,3.902-12.161,10.101-15.983,17.323c-2.867,5.417,1.013,9.549,2.146,14.217c0.393,1.612,0.74,3.24,1.016,4.876
			c0.686,4.062,1.316,8.135,1.996,12.369C330.747,169.869,364.763,183.631,368.337,216.001z M374.944,215.785
			c2.644,0.351,5.133,1.079,7.539,0.867c1.781-0.156,4.229-1.068,5.062-2.442c7.625-12.537,18.896-19.147,33.08-21.699
			c2.177-0.392,4.777-2.323,5.852-4.275c5.073-9.219,6.742-19.312,3.892-29.408c-1.992-7.05-4.427-14.697-8.979-20.145
			c-8.019-9.597-20.134-10.377-31.729-9.286c-7.034,0.662-12.655,5.219-15.788,11.725c-2.646,5.496,1.765,9.39,4.348,13.476
			c8.24,13.037,10.209,26.974,5.459,41.541C381.541,202.697,378.087,208.828,374.944,215.785z M376.161,611.161
			c-36.718-2.908-71.699-2.099-107.653-1.343c3.737,3.968,6.687,6.872,9.378,9.998c8.572,9.959,16.99,20.051,25.625,29.955
			c1.294,1.481,3.723,3.453,5.121,3.115c6.225-1.498,10.84-0.365,13.117,6.671c2.721-2.322,4.721-4.294,6.986-5.886
			c1.724-1.21,4.198-3.155,5.623-2.67c5.803,1.981,7.984-2.21,10.879-5.4c3.127-3.449,6.225-6.929,9.336-10.395
			C361.435,627.565,368.298,619.922,376.161,611.161z M264.214,685.484c10.703-12.344,20.678-23.688,30.363-35.275
			c0.889-1.064,0.646-4.225-0.303-5.482c-5.304-7.032-10.818-13.931-16.602-20.574c-3.765-4.327-8.11-8.148-12.195-12.195
			c-0.422,0.161-0.843,0.323-1.264,0.485C264.214,636.347,264.214,660.253,264.214,685.484z M378.41,615.388
			c-0.492-0.091-0.985-0.182-1.479-0.271c-8.438,9.168-16.812,18.396-25.362,27.464c-2.312,2.449-1.446,4.307,0.032,6.58
			c6.527,10.022,12.986,20.095,19.438,30.172c1.438,2.247,2.73,4.588,4.66,7.842C376.637,662.333,377.523,638.86,378.41,615.388z
			 M324.337,682.338c7.977-5.984,13.153-12.862,13.771-19.782c0.229-2.571-2.023-5.365-3.146-8.061
			c-2.072,0.926-4.51,1.438-6.131,2.873c-2.529,2.241-4.505,5.105-6.871,7.893c-0.727-1.079-1.219-1.915-1.812-2.671
			c-2.937-3.738-7.581-5.373-9.808-3.126c-3.126,3.156-0.873,6.452,1.079,8.854C315.449,673.268,320.052,677.75,324.337,682.338z
			 M314.902,284.979c2.138-0.417,3.739-0.886,5.373-1.019c4.534-0.367,7.044-1.953,5.967-7.238
			c-0.404-1.984,0.891-4.314,1.411-6.486c2.327,12.74,2.327,12.74,6.893,13.678c-0.404-6.34-0.807-12.64-1.286-20.169
			c-3.917,5.429-7.368,4.738-11.413,1.979c-1.735-1.186-4.408-0.999-6.942-1.492C314.902,271.613,314.902,277.904,314.902,284.979z"
			/>
		<path d="M356.268,373.988c-8.792,47.462-17.585,94.924-26.377,142.386c-0.502-0.092-1.005-0.184-1.507-0.276
			c9.064-47.382,14.619-95.396,25.453-142.459C354.647,373.754,355.458,373.871,356.268,373.988z"/>
		<path d="M333.574,395.343c-2.847,26.941-5.688,53.883-8.533,80.824c-0.534-0.052-1.069-0.104-1.604-0.157
			c2.514-27.006,5.025-54.013,7.539-81.02C331.844,395.108,332.709,395.226,333.574,395.343z"/>
		<path d="M327.612,521.752c-1.086,7.646-2.171,15.29-3.256,22.936c-0.645-0.105-1.284-0.214-1.929-0.318
			c1.374-7.602,2.747-15.199,4.12-22.799C326.903,521.63,327.258,521.69,327.612,521.752z"/>
	</g>
	<g id="highlights" display="inline">
		<path fill="#A0C0E0" d="M324.337,682.338c-4.285-4.588-8.888-9.07-12.915-14.021c-1.952-2.4-4.205-5.696-1.079-8.854
			c2.227-2.247,6.871-0.612,9.808,3.126c0.593,0.756,1.085,1.592,1.812,2.671c2.366-2.785,4.342-5.649,6.871-7.893
			c1.621-1.438,4.059-1.947,6.131-2.873c1.121,2.691,3.375,5.487,3.146,8.061C337.49,669.476,332.312,676.354,324.337,682.338z"/>
		<path fill="#A0C0E0" d="M252.397,164.397c1.565-1.537,3.302-2.885,5.218-3.897c-0.094-0.241-0.188-0.482-0.282-0.723
			c-3.49,1.507-7.434,2.406-10.392,4.623c-14.707,11.022-17.521,30.296-13.93,44.497c0.337,1.336,1.213,2.535,2.199,3.707
			c-2.28-5.041-1.572-12.074-1.017-17.438c0.365-3.526,1.344-6.771,2.738-9.807c1.804-8.78,6.889-16.897,15.213-20.659
			C252.226,164.599,252.297,164.496,252.397,164.397z"/>
		<path fill="#A0C0E0" d="M203.878,208.451c-24.16,14.346-32.917,33.558-21.17,59.757c-7.027-3.865-10.669-18.216-7.738-30.148
			C178.674,222.972,192.078,208.763,203.878,208.451z"/>
		<path fill="#A0C0E0" d="M207.021,339.537c-7.011-3.581-8.945-9.898-6.92-20.319c2.643-13.588,10.438-22.035,22.379-23.115
			c-8.164,4.942-14.783,10.078-17.55,18.731C202.276,323.131,200.833,331.275,207.021,339.537z"/>
		<path fill="#A0C0E0" d="M324.483,296.608c10.598-1.791,20.391,8.075,24.043,22.545c4.121,16.325-1.011,36.043-11.144,40.171
			c8.385-10.856,10.165-22.707,8.276-35.235C343.728,311.267,337.772,301.238,324.483,296.608z"/>
		<path fill="#A0C0E0" d="M267.54,242.457c-12.521,12.279-14.566,14.691-18.316,33.757c-3.09-3.95-1.387-12.912,4.821-24.252
			C256.859,246.82,260.216,242.194,267.54,242.457z"/>
		<path fill="#A0C0E0" d="M436.926,213.168c10.746,3.438,16.752,27.73,10.256,42.516
			C446.404,240.029,447.671,225.093,436.926,213.168z"/>
		<path fill="#A0C0E0" d="M300.381,226.117c-1.799-14.227,9.021-30.75,21.392-31.423
			C309.188,202.117,303.563,213.228,300.381,226.117z"/>
		<path fill="#A0C0E0" d="M377.017,230.882c9.894,1.579,12.524,9.325,14.802,17.103c4.598,15.715,1.024,28.021-10.585,35.531
			C396.688,264.514,392.194,247.305,377.017,230.882z"/>
		<path fill="#A0C0E0" d="M346.436,147.11c15.318,0.143,29.148,27.768,22.351,44.212
			C370.127,172.383,361.815,158.251,346.436,147.11z"/>
		<path fill="#A0C0E0" d="M421.458,166.715c-3.343-10.562-7.868-19.934-21.127-21.617c4.613-2.381,7.535-1.666,13.525,2.522
			C420.498,152.265,422.395,158.831,421.458,166.715z"/>
	</g>
</g>
<g id="Layer_1_copy" display="none">
	<g id="fill_1_" display="inline">
		<g>
			<path fill="#FFFFFF" d="M303.835,659.573c0.217-2.098-2.168-4.459-3.354-6.699c-1.991,1.165-4.414,1.935-5.904,3.561
				c-8.438,9.206-16.773,18.519-24.885,28.015c-2.928,3.428-5.232,7.408-8.566,12.312c0.109,0.404,0.178,0.828,0.191,1.279
				c18.617,1.341,37.221,3.104,55.861,3.75c19.562,0.68,39.166,0.147,59.863,0.147c-1.049-3.81-1.26-7.111-2.77-9.643
				c-8.188-13.715-16.695-27.238-25.097-40.827c-0.351-0.564-0.714-1.124-1.207-1.896c-3.854,3.009-7.078,5.249-6.303,10.688
				c0.407,2.854-0.595,6.496-2.229,8.931c-3.596,5.354-7.721,10.434-12.195,15.075c-2.008,2.085-5.515,4.879-7.599-0.804
				c-0.428-1.167-2.188-1.867-3.37-2.731C309.087,675.479,302.772,669.899,303.835,659.573z"/>
			<path fill="#FFFFFF" d="M361.029,333.89c-0.378,15.873-3.188,27.636-11.898,37.351c-9.8,10.928-22.062,13.183-35.065,6.437
				c-10.822-5.613-20.479-12.464-25.521-24.193c-5.271-12.267-2.428-24.113,1.863-35.866c0.382-1.047,1.152-2.146,2.053-2.779
				c8.097-5.693,13.152-13.875,18.705-21.792c6.006-8.562,22.43-7.955,29.74,0.439c2.278,2.616,5.258,4.698,7.205,7.516
				c3.545,5.126,7.454,10.292,9.553,16.046C359.955,323.338,360.369,330.313,361.029,333.89z M324.483,296.608
				c13.289,4.63,19.242,14.658,21.178,27.48c1.889,12.528,0.106,24.379-8.276,35.235c10.133-4.128,15.265-23.846,11.144-40.171
				C344.874,304.684,335.081,294.817,324.483,296.608z"/>
			<path fill="#FFFFFF" d="M237.216,278.182c0.527-20.057,7.156-33.875,20.635-44.038c14.995-11.307,34.29-7.47,43.84,8.585
				c2.652,4.457,6.504,8.653,5.104,14.627c-0.125,0.53,0.402,1.227,0.66,1.831c6.643,15.581,2.349,35.442-10.154,46.954
				c-17.492,16.105-46.951,10.05-55.854-11.794C238.98,288.297,238.082,281.608,237.216,278.182z M267.54,242.457
				c-7.324-0.263-10.681,4.363-13.495,9.505c-6.208,11.34-7.911,20.302-4.821,24.252C252.974,257.148,255.02,254.736,267.54,242.457
				z"/>
			<path fill="#FFFFFF" d="M402.852,293.837c18.969-28.158,13.264-63.991-12.771-75.237c1.271-2.281,2.334-4.642,3.795-6.721
				c12.16-17.323,36.341-20.556,51.102-6.784c2.16,2.016,4.433,4.33,5.559,6.973c9.156,21.491,12.271,43.161,0.658,64.886
				c-4.648,8.692-11.784,14.669-20.734,18.688C421.06,299.861,412.282,296.753,402.852,293.837z M436.926,213.168
				c10.745,11.925,9.479,26.861,10.256,42.516C453.678,240.898,447.672,216.605,436.926,213.168z"/>
			<path fill="#FFFFFF" d="M365.003,225.526c0.052,15.883-10.113,29.971-25.111,34.831c-0.916,0.296-2.228,0.645-2.895,0.23
				c-4.285-2.665-8.221-1.68-12.731-0.153c-5.522,1.869-10.751-1.443-12.944-7.051c-3.312-8.457-8.048-15.879-14.246-22.628
				c-2.406-2.621-4.04-7.304-3.735-10.851c2.658-30.935,31.812-42.678,51.24-33.143c14.461,7.098,18.952,20.052,20.408,34.773
				C365.116,222.854,365.003,224.196,365.003,225.526z M300.381,226.117c3.183-12.89,8.809-24,21.392-31.423
				C309.4,195.367,298.582,211.891,300.381,226.117z"/>
			<path fill="#FFFFFF" d="M369.036,220.688c15.668-4.17,33.812,4.77,38.527,19.604c5.161,16.24,4.004,32.129-5.488,46.946
				c-10.197,15.917-31.115,20.589-46.287,12.312c-9.863-5.382-18.646-14.24-18.094-27.82c0.152-3.798,1.381-6.717,4.714-8.753
				c3.263-1.993,6.345-4.284,9.601-6.291c11.88-7.318,17.109-18.152,17.028-31.847C369.029,223.52,369.036,222.2,369.036,220.688z
				 M377.017,230.882c15.18,16.423,19.674,33.632,4.217,52.634c11.609-7.51,15.183-19.816,10.585-35.531
				C389.541,240.207,386.908,232.461,377.017,230.882z"/>
			<path fill="#FFFFFF" d="M368.337,216.001c-3.574-32.37-37.59-46.132-62.352-28.675c-0.68-4.234-1.311-8.307-1.996-12.369
				c-0.275-1.636-0.623-3.264-1.016-4.876c-1.134-4.668-5.014-8.8-2.146-14.217c3.824-7.223,8.614-13.421,15.985-17.323
				c25.442-13.469,58.752,3.68,64.104,33.012c2.895,15.866-1.196,29.988-10.692,42.751
				C369.868,214.78,369.329,215.119,368.337,216.001z M346.436,147.11c15.382,11.141,23.691,25.272,22.351,44.212
				C375.584,174.878,361.754,147.253,346.436,147.11z"/>
			<path fill="#FFFFFF" d="M374.944,215.785c3.143-6.957,6.597-13.088,8.732-19.647c4.75-14.567,2.781-28.504-5.459-41.541
				c-2.583-4.086-6.993-7.979-4.348-13.476c3.133-6.506,8.754-11.062,15.788-11.725c11.597-1.091,23.712-0.311,31.729,9.286
				c4.554,5.447,6.986,13.095,8.979,20.145c2.853,10.097,1.184,20.189-3.892,29.408c-1.072,1.952-3.675,3.884-5.852,4.275
				c-14.184,2.552-25.455,9.162-33.08,21.699c-0.836,1.374-3.281,2.286-5.062,2.442
				C380.077,216.864,377.588,216.136,374.944,215.785z M421.458,166.715c0.937-7.884-0.96-14.45-7.602-19.095
				c-5.99-4.188-8.912-4.903-13.525-2.522C413.59,146.781,418.115,156.152,421.458,166.715z"/>
			<path fill="#FFFFFF" d="M376.161,611.161c-7.863,8.761-14.729,16.404-21.588,24.048c-3.111,3.466-6.209,6.943-9.336,10.394
				c-2.895,3.191-5.076,7.385-10.879,5.401c-1.425-0.485-3.899,1.46-5.623,2.67c-2.268,1.592-4.268,3.562-6.986,5.886
				c-2.277-7.038-6.895-8.169-13.117-6.671c-1.398,0.338-3.827-1.634-5.121-3.117c-8.635-9.902-17.053-19.994-25.625-29.955
				c-2.691-3.125-5.641-6.028-9.378-9.996C304.462,609.062,339.443,608.253,376.161,611.161z"/>
			<path fill="#FFFFFF" d="M264.214,685.484c0-25.231,0-49.14,0-73.044c0.421-0.162,0.842-0.324,1.264-0.485
				c4.085,4.047,8.431,7.868,12.195,12.195c5.783,6.646,11.298,13.542,16.602,20.574c0.949,1.26,1.191,4.42,0.303,5.482
				C284.892,661.797,274.917,673.143,264.214,685.484z"/>
			<path fill="#FFFFFF" d="M378.41,615.388c-0.887,23.475-1.773,46.945-2.712,71.784c-1.93-3.254-3.225-5.595-4.66-7.842
				c-6.449-10.077-12.908-20.147-19.438-30.172c-1.479-2.273-2.345-4.131-0.032-6.58c8.55-9.065,16.925-18.296,25.362-27.464
				C377.425,615.206,377.918,615.297,378.41,615.388z"/>
		</g>
		<path fill="#FFFFFF" d="M267.201,326.592c-0.653-5.934-3.364-9.259-9.701-10.792c-8.104-1.964-14.005-7.779-17.766-15.212
			c-2.385-4.713-4.147-9.599-5.254-14.553c-0.194,0.04-0.397,0.061-0.615,0.061c-2.245,0-4.502-0.087-6.663-0.756
			c-0.167-0.054-0.313-0.123-0.458-0.195c-3.97,1.257-7.703,2.474-11.468,3.529c-6.659,1.861-11.489,5.989-15.239,11.637
			c-8.407,12.665-9.41,26.405-6.558,40.942c2.237,11.413,8.565,19.051,19.132,23.684c10.856,4.759,21.763,6.792,33.301,2.659
			c15.165-5.434,25.413-23.997,21.731-39.604C267.529,327.518,267.253,327.068,267.201,326.592z M204.264,314.289
			c-2.525,8.151-4.271,16.252,1.854,23.976c-3.742-0.988-6.002-3.197-6.703-7.285c-1.71-9.963,1.063-24.634,11.5-32.044
			c3.434-2.44,5.74-3.211,9.989-2.949C213.233,300.575,206.892,305.813,204.264,314.289z"/>
		<path fill="#FFFFFF" d="M299.789,172.433c-3.357-14.764-14.293-23.643-29.542-24.987c-29.692-2.621-52.45,27.226-47.771,51.172
			c1.001,5.121,2.068,10.256,3.605,15.233c2.685,8.7,8.252,15.104,16.505,19.102c0.53,0.254,1.044,0.54,1.562,0.836
			c0.355,0.073,0.711,0.143,1.064,0.22c0.902,0.189,1.712,0.471,2.551,0.858c0.45,0.204,0.781,0.554,1.014,0.969
			c0.148-0.155,0.285-0.308,0.436-0.46c9.251-9.444,20.586-12.82,33.505-11.742c1.937,0.163,3.87,0.267,6.089,0.419
			c0.534-3.531,0.955-6.736,1.508-9.919c1.434-8.224,4.561-15.64,10.321-21.862c0.872-0.944,1.56-2.601,1.432-3.836
			C301.515,183.081,300.98,177.677,299.789,172.433z"/>
	</g>
	<g id="lines_1_" display="inline">
		<path d="M461.758,233.112c-3.454-18.915-11.407-34.463-31.4-40.665c-0.241-0.074-0.38-0.488-0.679-0.9
			c0.156-0.523,0.241-1.197,0.541-1.758c7.826-14.688,5.739-29.159,0.697-44.369c-6.296-18.992-43.298-27.56-56.701-10.731
			c-1.834,2.301-4.421,4.002-6.596,5.925c-29.626-18.398-53.285-13.168-71.794,15.858c-0.814-0.491-1.683-0.942-2.473-1.503
			c-19.661-13.953-41.933-12.334-59.571,4.343c-22.067,20.863-20.113,58.319,3.977,76.586c2.832,2.148,5.614,2.881,9.018,0.562
			c-3.928-2.563-7.599-4.544-10.787-7.122c-8.354-6.754-10.75-16.555-12.646-26.434c-4.887-25.471,12.879-50.232,38.46-53.796
			c19.829-2.762,35.354,8.153,38.7,27.31c0.686,3.931,1.268,7.919,1.377,11.896c0.052,1.903-0.923,3.928-1.762,5.745
			c-3.037,6.573-6.525,12.957-9.207,19.667c-1.365,3.418-1.375,7.377-2.03,11.286c-2.718-0.152-5.021-0.265-7.323-0.412
			c-10.366-0.664-20.047,1.512-28.043,8.297c-15.691,13.319-22.387,30.429-19.162,50.805c2.67,16.877,10.194,30.274,28.49,34.595
			c1.083,0.255,2.404,1.373,2.795,2.401c4.84,12.711,3.899,24.798-4.37,35.931c-14.247,19.181-50.136,17.48-62.827-2.965
			c-0.526-0.846-1.044-1.72-1.393-2.647c-4.774-12.658-6.337-25.59-1.967-38.611c4.076-12.146,11.26-21.473,24.762-24.246
			c3.093-0.635,6.075-1.81,10.471-3.152c-2.576-0.595-3.813-1.307-4.758-1.029c-5.832,1.716-12.004,2.901-17.276,5.728
			c-1.697,0.91-3.366,1.577-5.008,1.982c-1.329,1.599-2.761,3.131-4.3,4.558c0.068,0.044,0.126,0.088,0.199,0.133
			c-7.423,10.53-10.707,22.074-10.071,34.582c0.594,11.648,2.286,23.179,11.965,31.221c11.059,9.188,23.721,13.94,38.392,11.822
			c2.355-0.34,4.589-1.172,6.252,2.09c1.441,2.827,7.019,1.515,7.177-1.817c0.303-6.405,5.354-8.24,9.77-12.139
			c10.473,44.854,20.751,88.872,31.025,132.892c-2.003-2.126-2.932-4.574-3.762-7.053c-11.239-33.575-22.427-67.168-33.76-100.711
			c-0.901-2.664-2.785-4.994-4.213-7.478c-0.664,0.328-1.329,0.657-1.993,0.985c2.303,6.521,4.678,13.018,6.901,19.566
			c17.842,52.586,36.489,104.897,51.341,158.482c2.739,9.882,1.647,20.481,6.655,29.773c0.669,1.243,0.133,3.305-0.228,4.901
			c-0.768,3.407-1.452,6.905-2.851,10.062c-0.656,1.474-2.857,3.112-4.428,3.188c-8.644,0.412-17.333,0.799-25.96,0.334
			c-6.601-0.357-13.969,2.979-20.251-4.306c-0.41,3.237-0.99,5.451-0.898,7.637c0.15,3.617,1.131,7.22,1.074,10.821
			c-0.373,23.145-0.949,46.286-1.396,69.431c-0.036,1.787,0.394,3.584,0.771,6.735c3.578-5.206,5.943-9.375,9-12.953
			c8.112-9.496,16.447-18.809,24.885-28.014c1.49-1.626,3.913-2.396,5.904-3.562c1.186,2.24,3.571,4.603,3.354,6.699
			c-1.063,10.326,5.25,15.904,12.438,21.154c1.183,0.863,2.942,1.563,3.37,2.73c2.084,5.684,5.591,2.89,7.599,0.804
			c4.475-4.642,8.6-9.721,12.195-15.074c1.635-2.436,2.637-6.077,2.229-8.932c-0.775-5.438,2.448-7.679,6.303-10.688
			c0.493,0.772,0.856,1.332,1.207,1.896c8.401,13.589,16.907,27.112,25.095,40.827c1.512,2.531,1.723,5.833,2.771,9.645
			c-20.697,0-40.301,0.53-59.863-0.149c-19.425-0.674-38.809-2.566-58.21-3.921c-0.104,0.567-0.209,1.138-0.313,1.707
			c1.572,0.635,3.112,1.719,4.719,1.833c10.259,0.721,20.526,1.387,30.801,1.78c24.115,0.919,48.235,2.226,72.356,2.294
			c15.319,0.043,15.584-1.901,14.054-17.509c-1.244-12.692-1.157-25.563-0.912-38.341c0.233-12.126,1.403-24.235,2.238-36.346
			c0.248-3.574-1.039-5.16-4.812-5.122c-6.155,0.064-12.315-0.234-18.471-0.444c-11.772-0.402-23.545-0.85-34.916-1.264
			c-0.512-3.855-0.859-7.327-1.463-10.755c-0.555-3.149-2.091-6.277-1.974-9.369c0.431-11.349,2.565-22.43,6.739-33.062
			c0.393-1,0.504-2.111,0.745-3.173c-0.535-0.188-1.068-0.38-1.604-0.568c-2.44,6.516-4.878,13.035-7.812,20.869
			c-1.076-2.36-2.369-3.906-2.413-5.486c-0.595-21.304-1.785-42.629-1.306-63.915c0.767-34.117,2.683-68.204,4.038-102.307
			c0.068-1.727-0.565-3.48-0.873-5.22c-3.787,55.902-7.527,111.625-5.646,167.679c-2.207-4.976-4.104-10.017-5.258-15.223
			c-13.391-60.428-26.639-120.887-40.047-181.311c-0.957-4.315-0.662-7.97,1.455-11.937c5.04-9.447,6.057-19.255,1.264-29.251
			c-0.573-1.195-0.595-2.654-0.957-4.399h7.133v6.6c2.594-0.326,4.821-0.606,7.02-0.882c-0.523-6.505-0.523-6.505,2.948-6.417
			c-1.525,6.921-3.036,13.785-4.764,21.627c-1.237-3.779-2.084-6.37-2.932-8.96c-0.749,0.143-1.497,0.286-2.245,0.429
			c1.817,22.819,6.711,45.255,10.306,67.84c3.61,22.681,7.702,45.282,11.585,67.921c3.872,22.567,7.746,45.138,11.619,67.707
			c0.437-0.081,0.868-0.161,1.305-0.241c-9.49-59.993-18.979-119.985-28.468-179.977c0.603-0.244,1.204-0.488,1.807-0.732
			c4.358,12.779,15.331,18.91,25.208,26.139c0.805,0.59,1.701,1.083,2.41,1.771c0.686,0.666,1.398,1.445,1.729,2.315
			c1.715,4.511,3.799,4.955,7.861,2.308c2.083-1.357,4.753-2.3,7.229-2.486c11.52-0.864,20.966-5.627,27.418-15.132
			c7.125-10.493,10.442-22.494,9.269-35.075c-0.839-8.993-3.528-17.813-5.632-27.855c1.883,1.053,4.901,1.81,5.087,3.003
			c0.938,6.11,5.268,5.135,9.495,5.572c-0.32-2.383-0.577-4.316-0.896-6.713c4.582-0.808,9.026-1.591,15.249-2.688
			c-19.896,81.861-39.446,162.301-58.505,240.715c1.408-3.265,4.016-8.463,5.93-13.906c11.748-33.412,23.37-66.868,34.975-100.33
			c12.152-35.047,24.267-70.108,36.291-105.2c0.675-1.967,0.39-4.262,0.551-6.406c-0.672-0.098-1.346-0.196-2.022-0.295
			c-19.792,58.637-39.584,117.273-59.376,175.909c-0.402-0.125-0.809-0.25-1.213-0.375c0.076-0.639,0.09-1.293,0.24-1.914
			c9.963-41.065,19.894-82.14,29.934-123.186c3.754-15.344,7.822-30.612,11.637-45.942c1.473-5.921,2.619-11.922,3.965-17.876
			c0.313-1.388,0.429-3.092,1.301-4.037c5.027-5.452,9.305-6.346,16.152-3.708c1.217,0.469,2.398,1.027,3.669,1.575
			c-0.981,2.675-1.886,5.137-3.073,8.376c3.079,0.968,5.828,1.832,9.334,2.934c-0.56-4.329-0.945-7.321-1.332-10.311
			c23.371-2.343,37.052-14.02,43.162-36.355C462.805,254.341,463.705,243.772,461.758,233.112z M294.577,650.209
			c-9.685,11.587-19.66,22.932-30.363,35.275c0-25.231,0-49.138-0.001-73.042c0.421-0.162,0.842-0.324,1.264-0.485
			c4.085,4.047,8.43,7.868,12.195,12.195c5.784,6.644,11.298,13.542,16.602,20.574C295.223,645.984,295.466,649.145,294.577,650.209
			z M338.108,662.556c-0.618,6.92-5.795,13.798-13.771,19.782c-4.285-4.588-8.888-9.07-12.917-14.02
			c-1.952-2.402-4.205-5.698-1.079-8.854c2.227-2.247,6.871-0.612,9.808,3.126c0.593,0.756,1.085,1.592,1.812,2.671
			c2.366-2.787,4.342-5.651,6.871-7.893c1.621-1.436,4.059-1.947,6.131-2.873C336.085,657.19,338.337,659.984,338.108,662.556z
			 M378.41,615.388c-0.887,23.473-1.773,46.945-2.712,71.786c-1.93-3.254-3.223-5.595-4.66-7.842
			c-6.451-10.077-12.91-20.149-19.438-30.172c-1.479-2.273-2.345-4.131-0.032-6.58c8.55-9.067,16.925-18.296,25.362-27.464
			C377.425,615.206,377.918,615.297,378.41,615.388z M376.161,611.161c-7.863,8.761-14.727,16.404-21.588,24.046
			c-3.111,3.466-6.209,6.945-9.336,10.395c-2.895,3.19-5.076,7.382-10.879,5.4c-1.425-0.485-3.899,1.46-5.623,2.67
			c-2.266,1.592-4.266,3.563-6.986,5.886c-2.277-7.036-6.893-8.169-13.117-6.671c-1.398,0.338-3.827-1.634-5.121-3.115
			c-8.635-9.904-17.053-19.996-25.625-29.955c-2.691-3.126-5.641-6.03-9.378-9.998C304.462,609.062,339.443,608.253,376.161,611.161
			z M373.873,141.122c3.133-6.506,8.754-11.063,15.788-11.725c11.595-1.091,23.71-0.311,31.729,9.286
			c4.553,5.448,6.987,13.095,8.979,20.145c2.851,10.096,1.182,20.189-3.892,29.408c-1.074,1.952-3.675,3.883-5.852,4.275
			c-14.184,2.552-25.455,9.162-33.08,21.699c-0.834,1.374-3.281,2.286-5.062,2.442c-2.406,0.212-4.896-0.516-7.539-0.867
			c3.143-6.957,6.597-13.088,8.735-19.646c4.75-14.567,2.781-28.504-5.459-41.541C375.638,150.512,371.227,146.618,373.873,141.122z
			 M300.828,155.864c3.823-7.222,8.614-13.421,15.983-17.323c25.445-13.467,58.753,3.68,64.104,33.012
			c2.895,15.866-1.196,29.988-10.692,42.751c-0.355,0.476-0.895,0.815-1.887,1.697c-3.574-32.37-37.59-46.132-62.351-28.675
			c-0.68-4.234-1.31-8.307-1.996-12.369c-0.276-1.636-0.623-3.264-1.016-4.876C301.841,165.413,297.961,161.281,300.828,155.864z
			 M293.338,219.906c2.658-30.935,31.811-42.678,51.24-33.143c14.461,7.097,18.952,20.051,20.408,34.773
			c0.13,1.318,0.017,2.66,0.017,3.99c0.052,15.883-10.113,29.971-25.113,34.833c-0.916,0.295-2.228,0.644-2.895,0.23
			c-4.285-2.665-8.219-1.679-12.731-0.153c-5.522,1.869-10.751-1.444-12.944-7.051c-3.312-8.457-8.048-15.879-14.246-22.628
			C294.667,228.135,293.033,223.453,293.338,219.906z M326.242,276.722c1.077,5.285-1.433,6.871-5.967,7.238
			c-1.634,0.133-3.235,0.602-5.373,1.019c0-7.075,0-13.366,0.002-20.747c2.534,0.493,5.207,0.306,6.942,1.492
			c4.045,2.759,7.496,3.45,11.413-1.979c0.479,7.529,0.882,13.829,1.286,20.169c-4.565-0.938-4.565-0.938-6.893-13.678
			C327.133,272.408,325.838,274.738,326.242,276.722z M241.446,294.347c-2.465-6.05-3.364-12.738-4.23-16.165
			c0.527-20.057,7.156-33.875,20.634-44.038c14.995-11.307,34.29-7.47,43.84,8.585c2.653,4.457,6.504,8.653,5.104,14.627
			c-0.125,0.53,0.402,1.227,0.66,1.831c6.643,15.581,2.349,35.442-10.154,46.954C279.807,322.246,250.348,316.191,241.446,294.347z
			 M361.029,333.89c-0.378,15.873-3.187,27.635-11.899,37.349c-9.798,10.928-22.062,13.183-35.067,6.437
			c-10.821-5.613-20.478-12.464-25.521-24.193c-5.272-12.266-2.428-24.113,1.863-35.866c0.382-1.047,1.153-2.145,2.053-2.779
			c8.097-5.693,13.152-13.875,18.705-21.792c6.006-8.563,22.428-7.956,29.74,0.439c2.278,2.617,5.258,4.699,7.205,7.516
			c3.545,5.126,7.453,10.292,9.553,16.046C359.955,323.338,360.369,330.314,361.029,333.89z M355.788,299.55
			c-9.865-5.382-18.648-14.24-18.094-27.82c0.152-3.798,1.381-6.717,4.714-8.753c3.263-1.993,6.345-4.284,9.601-6.291
			c11.88-7.319,17.109-18.153,17.028-31.847c-0.008-1.319-0.001-2.638-0.001-4.151c15.668-4.17,33.812,4.769,38.527,19.604
			c5.161,16.24,4.004,32.129-5.488,46.946C391.878,303.155,370.96,307.827,355.788,299.55z M451.19,276.954
			c-4.648,8.692-11.784,14.668-20.734,18.688c-9.396,4.219-18.172,1.111-27.604-1.805c18.967-28.158,13.262-63.991-12.774-75.237
			c1.273-2.282,2.334-4.642,3.795-6.721c12.162-17.323,36.341-20.555,51.102-6.784c2.162,2.016,4.433,4.33,5.559,6.973
			C459.688,233.559,462.804,255.229,451.19,276.954z"/>
		<path d="M356.268,373.988c-8.792,47.462-17.585,94.924-26.377,142.386c-0.502-0.092-1.005-0.184-1.507-0.276
			c9.064-47.382,14.619-95.396,25.453-142.459C354.647,373.754,355.458,373.871,356.268,373.988z"/>
		<path d="M333.574,395.343c-2.847,26.941-5.688,53.883-8.533,80.824c-0.534-0.052-1.069-0.104-1.604-0.157
			c2.514-27.006,5.025-54.013,7.539-81.02C331.844,395.108,332.709,395.226,333.574,395.343z"/>
		<path d="M327.612,521.752c-1.086,7.646-2.171,15.29-3.256,22.936c-0.645-0.105-1.284-0.214-1.929-0.318
			c1.374-7.602,2.747-15.199,4.12-22.799C326.903,521.63,327.258,521.69,327.612,521.752z"/>
	</g>
	<g id="highlights_1_" display="inline">
		<path fill="#A0C0E0" d="M324.337,682.338c-4.285-4.588-8.888-9.07-12.915-14.021c-1.952-2.4-4.205-5.696-1.079-8.854
			c2.227-2.247,6.871-0.612,9.808,3.126c0.593,0.756,1.085,1.592,1.812,2.671c2.366-2.785,4.342-5.649,6.871-7.893
			c1.621-1.438,4.059-1.947,6.131-2.873c1.121,2.691,3.375,5.487,3.146,8.061C337.49,669.476,332.312,676.354,324.337,682.338z"/>
		<path fill="#A0C0E0" d="M252.397,164.397c1.565-1.537,3.302-2.885,5.218-3.897c-0.094-0.241-0.188-0.482-0.282-0.723
			c-3.49,1.507-7.434,2.406-10.392,4.623c-14.707,11.022-17.521,30.296-13.93,44.497c0.337,1.336,1.213,2.535,2.199,3.707
			c-2.28-5.041-1.572-12.074-1.017-17.438c0.365-3.526,1.344-6.771,2.738-9.807c1.804-8.78,6.889-16.897,15.213-20.659
			C252.226,164.599,252.297,164.496,252.397,164.397z"/>
		<path fill="#A0C0E0" d="M207.021,339.537c-7.011-3.581-8.945-9.898-6.92-20.319c2.643-13.588,10.438-22.035,22.379-23.115
			c-8.164,4.942-14.783,10.078-17.55,18.731C202.276,323.131,200.833,331.275,207.021,339.537z"/>
		<path fill="#A0C0E0" d="M324.483,296.608c10.598-1.791,20.391,8.075,24.043,22.545c4.121,16.325-1.011,36.043-11.144,40.171
			c8.385-10.856,10.165-22.707,8.276-35.235C343.728,311.267,337.772,301.238,324.483,296.608z"/>
		<path fill="#A0C0E0" d="M267.54,242.457c-12.521,12.279-14.566,14.691-18.316,33.757c-3.09-3.95-1.387-12.912,4.821-24.252
			C256.859,246.82,260.216,242.194,267.54,242.457z"/>
		<path fill="#A0C0E0" d="M436.926,213.168c10.746,3.438,16.752,27.73,10.256,42.516
			C446.404,240.029,447.671,225.093,436.926,213.168z"/>
		<path fill="#A0C0E0" d="M300.381,226.117c-1.799-14.227,9.021-30.75,21.392-31.423
			C309.188,202.117,303.563,213.228,300.381,226.117z"/>
		<path fill="#A0C0E0" d="M377.017,230.882c9.894,1.579,12.524,9.325,14.802,17.103c4.598,15.715,1.024,28.021-10.585,35.531
			C396.688,264.514,392.194,247.305,377.017,230.882z"/>
		<path fill="#A0C0E0" d="M346.436,147.11c15.318,0.143,29.148,27.768,22.351,44.212
			C370.127,172.383,361.815,158.251,346.436,147.11z"/>
		<path fill="#A0C0E0" d="M421.458,166.715c-3.343-10.562-7.868-19.934-21.127-21.617c4.613-2.381,7.535-1.666,13.525,2.522
			C420.498,152.265,422.395,158.831,421.458,166.715z"/>
	</g>
	<path display="inline" d="M180.146,265.018c-0.66,0.866-1.217,1.832-1.987,2.58c-10.363,10.048-20.75,20.071-31.152,30.081
		c-0.626,0.602-1.379,1.299-2.167,1.453c-0.731,0.144-1.942-0.146-2.312-0.678c-0.485-0.708-0.737-2.019-0.397-2.741
		c0.474-1.004,1.546-1.76,2.442-2.536c10.488-9.032,20.981-18.054,31.496-27.055c0.942-0.807,2.036-1.436,3.062-2.148
		C179.466,264.321,179.803,264.669,180.146,265.018z"/>
	<path display="inline" d="M170.72,238.034c-1.144,0.51-1.97,1.098-2.864,1.241c-11.601,1.851-23.213,3.641-34.826,5.431
		c-1.027,0.158-2.178,0.512-3.076,0.205c-0.949-0.322-2.252-1.275-2.323-2.048c-0.072-0.797,1.017-2.246,1.851-2.468
		c2.132-0.57,4.4-0.668,6.622-0.868c9.928-0.897,19.854-1.795,29.789-2.604C167.371,236.798,169.107,236.071,170.72,238.034z"/>
	<path display="inline" d="M176.842,213.482c-1.304-0.797-2.44-1.378-3.441-2.134c-7.603-5.72-15.184-11.48-22.767-17.232
		c-0.592-0.451-1.491-0.861-1.638-1.443c-0.262-1.046-0.477-2.548,0.072-3.219c0.483-0.588,2.091-0.544,3.099-0.322
		c0.774,0.173,1.406,1.041,2.073,1.634c6.896,6.123,13.795,12.238,20.667,18.388C176.015,210.148,177.804,210.887,176.842,213.482z"
		/>
	<path display="inline" d="M204.365,192.509c-0.648-0.941-1.407-1.824-1.934-2.829c-4.35-8.281-8.661-16.586-12.979-24.889
		c-0.477-0.919-1.267-1.865-1.265-2.797c0.004-1,0.533-2.514,1.27-2.851c0.729-0.334,2.104,0.352,3.001,0.91
		c0.532,0.329,0.712,1.263,1.004,1.941c3.853,9.013,7.715,18.02,11.527,27.052c0.395,0.936,0.466,2.004,0.69,3.011
		C205.236,192.207,204.802,192.36,204.365,192.509z"/>
</g>
<g id="Layer_1_copy_2">
	<g id="fill_2_">
		<path fill="#FFFFFF" d="M341.291,659.733c0.332,2.811-0.743,6.303-2.362,8.704c-3.449,5.105-7.387,9.975-11.702,14.387
			c-2.217,2.264-5.354,4.546-7.916-0.938c-1.21-2.592-5.059-3.913-7.569-5.972c-5.024-4.14-8.417-9.039-7.623-16.016
			c0.186-1.67-0.289-3.603-1.031-5.147c-1.522-3.17-3.866-4.037-6.503-1.093c-9.817,10.956-19.667,21.899-29.301,33.016
			c-1.474,1.704-2.484,3.802-3.523,5.873c0.245,1.103,0.376,2.221,0.427,3.354c0.287,0,0.574,0.017,0.857,0.055
			c28.022,4.141,56.247,4.78,84.501,4.827c8.613,0.013,17.229,0,26.348-0.965c-6.77-18.896-17.848-34.581-28.316-50.9
			C343.292,651.921,340.683,654.577,341.291,659.733z"/>
		<path fill="#FFFFFF" d="M361.119,336.407c-0.447,13.608-3.263,25.271-11.898,34.958c-9.615,10.789-22.177,13.225-35.046,6.601
			c-3.347-1.722-6.697-3.515-9.775-5.648c-22.246-15.445-22.077-33.054-15.127-53.255c4.546-13.224,14.154-22.39,26.112-29.214
			c8.983-5.13,20.093-2.817,26.507,5.211c0.813,1.021,1.544,2.202,2.578,2.946C358.121,307.828,360.099,322.45,361.119,336.407z
			 M324.475,296.149c27.571,16.238,25.707,38.476,14.451,62.534c8.466-2.883,13.664-22.837,9.584-39.24
			C344.9,304.916,334.617,294.619,324.475,296.149z"/>
		<path fill="#FFFFFF" d="M365.772,225.13c-0.297,16.111-10.678,30.458-25.973,35.35c-0.626,0.202-1.538,0.677-1.867,0.426
			c-6.213-4.636-12.584,0.089-18.884-0.309c-9.221-0.586-16.396-4.146-21.337-11.881c-10.521-16.465-5.545-45.055,9.886-57.054
			c21.181-16.483,49.729-6.48,55.685,19.58C364.326,215.823,364.949,220.497,365.772,225.13z M300.985,221.751
			c3.708-11.042,9.442-20.518,20.644-27.009C310.092,195.506,298.151,211.583,300.985,221.751z"/>
		<path fill="#FFFFFF" d="M390.653,219.143c4.462-12.783,20.693-23.281,34.722-22.812c13.17,0.442,24.859,10.11,29.087,23.203
			c5.823,18.05,7.797,35.915-0.564,53.747c-6.282,13.401-16.095,22.823-31.347,24.26c-6.115,0.576-12.497-1.663-19.849-2.787
			c8.596-13.427,13.523-26.828,11.637-41.873C412.419,237.504,405.65,225.343,390.653,219.143z M438.957,212.443
			c-0.574,0.382-1.151,0.757-1.727,1.133c11.501,11.879,9.742,27.06,10.91,42.565c4.527-11.412,2.676-29.73-3.599-38.638
			C443.137,215.5,440.843,214.114,438.957,212.443z"/>
		<path fill="#FFFFFF" d="M369.106,220.659c19.961-4.142,37.225,7.391,40.722,26.782c2.912,16.154,0.393,31.158-10.472,44.039
			c-10.381,12.301-29.123,16.138-43.552,8.32c-9.688-5.249-18.256-13.973-18.277-27.046c-0.008-4.232,1.263-7.546,5.113-9.812
			c3.377-1.985,6.552-4.323,9.866-6.425c11.504-7.298,16.796-17.826,16.602-31.243C369.087,223.83,369.106,222.385,369.106,220.659z
			 M377.438,231.109c15.359,16.566,19.33,33.767,3.108,53.283c10.941-6.432,15.939-18.728,12.865-31.315
			C391.146,243.798,389.394,233.691,377.438,231.109z"/>
		<path fill="#FFFFFF" d="M368.45,216.07c-2.427-17.281-10.692-29.467-27.657-34.418c-16.487-4.812-30.146,0.286-41.034,13.345
			c-7.601-12.828-4.395-33.542,3.148-44.235c13.521-19.163,38.586-19.81,54.651-11.199c19.153,10.271,28.479,32.358,22.93,54.378
			C378.31,202.587,373.984,210.701,368.45,216.07z M368.942,191.23c5.831-18.389-6.228-42.576-22.348-43.958
			C361.846,158.521,370.281,172.449,368.942,191.23z"/>
		<path fill="#FFFFFF" d="M374.549,215.804c1.554-2.771,2.897-5.116,4.196-7.485c10.57-19.269,10.709-38.085-2.237-56.485
			c-4.922-6.994-4.118-10.618,2.053-16.528c8.737-8.368,18.945-6.595,29.18-4.588c13.423,2.629,19.174,12.325,22.509,24.329
			c3.241,11.656,2.65,22.909-3.28,33.542c-1.06,1.887-3.683,3.688-5.844,4.066c-14.357,2.526-25.666,9.273-33.36,21.816
			c-0.823,1.341-3.158,2.332-4.862,2.444C380.393,217.067,377.823,216.288,374.549,215.804z M399.522,145.161
			c14.205,1.294,18.974,10.655,22.348,21.356C423.319,152.643,411.646,140.647,399.522,145.161z"/>
		<path fill="#FFFFFF" d="M321.61,658.776c-2.403-6.434-6.362-8.438-12.6-6.444c-1.274,0.405-3.824-1.456-5.075-2.883
			c-9.393-10.653-18.552-21.51-27.92-32.185c-1.896-2.157-4.388-3.809-6.241-6.555c34.871-0.932,69.372-2.195,104.994,0.62
			c-2.804,3.433-4.822,6.125-7.071,8.62c-8.64,9.574-17.333,19.101-26.071,28.585c-0.935,1.019-2.616,2.557-3.427,2.29
			c-6.815-2.241-10.215,2.853-14.437,6.202C323.253,657.431,322.748,657.848,321.61,658.776z"/>
		<path fill="#FFFFFF" d="M267.128,611.968c7.969,9.209,16.133,18.264,23.849,27.678c6.67,8.146,7.658,5.927-0.211,14.885
			c-7.543,8.589-15.018,17.233-22.488,25.881c-0.833,0.963-1.439,2.118-2.151,3.176c-0.399-0.242-0.792-0.488-1.189-0.733
			c0-23.341,0-46.675,0-70.013C265.667,612.547,266.399,612.255,267.128,611.968z"/>
		<path fill="#FFFFFF" d="M374.859,685.357c-8.375-12.954-16.246-24.935-23.804-37.101c-0.917-1.47-1.043-4.729-0.041-5.859
			c8.196-9.245,16.748-18.185,26.49-27.02C376.634,638.391,375.764,661.396,374.859,685.357z"/>
	</g>
	<g>
		<g>
			<path d="M327.711,547.572c23.361-79.678,41.298-160.651,59.986-242.31c-5.39,0.986-9.65,1.77-14.183,2.601
				c0.199,2.328,0.373,4.367,0.582,6.826c-4.275-0.533-8.721,0.234-9.506-5.911c-0.14-1.086-2.984-1.833-4.582-2.733
				c-0.36,0.368-0.723,0.735-1.083,1.103c0.763,2.404,1.407,4.857,2.315,7.205c6.127,15.868,5.488,31.587-1.168,47.099
				c-6.13,14.274-17.237,21.591-32.749,22.777c-2.25,0.174-4.65,1.259-6.557,2.545c-3.924,2.641-6.258,2.029-7.779-2.387
				c-0.335-0.973-1.17-1.889-2.004-2.558c-1.905-1.541-3.922-2.958-5.953-4.341c-8.99-6.121-17.856-12.34-22.136-23.202
				c7.282,60.713,17.916,120.743,27.767,180.894c-0.399,0.086-0.799,0.175-1.197,0.262c-1.085-5.116-2.348-10.198-3.225-15.354
				c-9.869-57.953-19.677-115.916-29.504-173.876c-0.502-2.953-0.53-5.58,2.986-6.939c0.754-0.293,1.318-1.684,1.524-2.659
				c1.365-6.523,2.702-13.052,3.867-19.609c1.896-10.659,25.765-33.064,36.545-34.126c1.113-0.113,2.26,0.09,3.836,0.167
				c0.498-4.22,0.987-8.346,1.479-12.473c0.576,0.034,1.151,0.066,1.728,0.101c0,2.744-0.539,5.641,0.161,8.201
				c0.614,2.239,2.618,4.105,4.005,6.134c0.496-0.272,0.983-0.543,1.475-0.81c-0.332-6.225-0.665-12.449-1.013-18.901
				c-2.231,1.032-4.357,2.831-6.401,2.74c-2.229-0.099-4.298-2.166-6.586-2.951c-1.986-0.676-4.194-0.671-6.275-1.106
				c-13.856-2.942-22.835-13.185-24.785-28.116c-1.627-12.453-0.008-24.294,5.991-35.518c0.792-1.487,0.486-4.048-0.218-5.74
				c-4.526-10.867-4.753-21.803-1.371-32.978c10.243-33.859,48.037-37.754,69.264-24.046c1.511,0.974,2.991,1.997,4.796,3.205
				c2.655-2.382,5.34-4.728,7.961-7.152c15.404-14.231,45.466-8.897,54.606,9.892c7.539,15.496,8.805,31.206,0.325,46.896
				c-0.216,0.399-0.229,0.905-0.32,1.297c0.267,0.34,0.411,0.743,0.664,0.814c20.177,6.031,28.121,21.584,31.677,40.379
				c2.517,13.308,1.151,26.503-4.113,38.859c-7.257,17.025-19.146,28.68-39.252,28.936c-0.469,0.005-0.925,0.271-1.931,0.589
				c0.391,2.913,0.788,5.87,1.388,10.326c-3.638-1.19-6.444-2.105-9.492-3.102c1.211-3.198,2.118-5.604,3.021-7.973
				c-9.068-5.231-11.509-5.095-19.175,1.233c-0.924,0.76-2.038,2.086-1.991,3.098c0.604,13.133-6.032,24.541-8.931,36.821
				c-11.879,50.39-24.445,100.626-36.74,150.922c-0.244,0.994-0.306,2.042,0.674,3.366c20.022-58.851,40.044-117.709,60.071-176.564
				c0.667,0.132,1.336,0.266,2.004,0.4c-0.134,2.07,0.183,4.301-0.472,6.192c-24.253,69.503-48.574,138.986-72.977,208.435
				c-1.605,4.57-3.887,8.906-5.857,13.354C328.492,547.728,328.102,547.648,327.711,547.572z M361.119,336.407
				c-1.021-13.958-2.998-28.579-16.656-38.403c-1.033-0.744-1.762-1.925-2.575-2.946c-6.413-8.028-17.522-10.341-26.504-5.211
				c-11.964,6.824-21.571,15.99-26.114,29.214c-6.949,20.201-7.121,37.81,15.128,53.255c3.08,2.136,6.429,3.927,9.774,5.648
				c12.867,6.625,25.432,4.188,35.047-6.601C357.86,361.678,360.672,350.016,361.119,336.407z M365.772,225.13
				c-0.823-4.633-1.443-9.307-2.49-13.888c-5.956-26.056-34.504-36.063-55.685-19.58c-15.429,11.999-20.407,40.588-9.886,57.054
				c4.941,7.735,12.117,11.295,21.337,11.881c6.3,0.398,12.671-4.327,18.884,0.309c0.329,0.246,1.241-0.224,1.867-0.423
				C355.095,255.582,365.473,241.241,365.772,225.13z M390.653,219.143c14.997,6.2,21.766,18.362,23.686,33.741
				c1.887,15.044-3.041,28.442-11.637,41.872c7.352,1.124,13.733,3.363,19.849,2.785c15.255-1.434,25.064-10.856,31.347-24.254
				c8.361-17.832,6.388-35.695,0.564-53.747c-4.228-13.099-15.917-22.767-29.087-23.208
				C411.349,195.862,395.115,206.359,390.653,219.143z M369.106,220.659c0,1.726-0.023,3.171,0.002,4.615
				c0.194,13.417-5.1,23.944-16.602,31.243c-3.314,2.103-6.485,4.44-9.866,6.425c-3.851,2.265-5.121,5.579-5.113,9.812
				c0.024,13.073,8.59,21.797,18.277,27.046c14.429,7.818,33.167,3.976,43.552-8.32c10.862-12.878,13.381-27.883,10.472-44.039
				C406.331,228.05,389.067,216.517,369.106,220.659z M368.45,216.07c5.534-5.372,9.859-13.489,12.04-22.128
				c5.554-22.02-3.775-44.109-22.93-54.378c-16.065-8.611-41.129-7.964-54.651,11.199c-7.542,10.694-10.748,31.41-3.15,44.235
				c10.888-13.059,24.553-18.157,41.04-13.345C357.758,186.604,366.023,198.79,368.45,216.07z M374.549,215.804
				c3.274,0.484,5.844,1.263,8.354,1.103c1.702-0.112,4.039-1.1,4.862-2.443c7.694-12.543,19.003-19.29,33.36-21.816
				c2.158-0.379,4.784-2.179,5.844-4.066c5.931-10.629,6.521-21.885,3.28-33.542c-3.335-12.003-9.086-21.699-22.509-24.329
				c-10.239-2.006-20.445-3.78-29.18,4.589c-6.171,5.912-6.975,9.533-2.053,16.527c12.946,18.403,12.808,37.218,2.237,56.486
				C377.446,210.688,376.103,213.032,374.549,215.804z"/>
			<path d="M318.727,569.077c2.402-6.412,4.81-12.824,7.213-19.233c0.617,0.212,1.233,0.43,1.849,0.643
				c-1.122,3.628-2.604,7.196-3.3,10.908c-1.788,9.551-3.266,19.159-4.752,28.763c-0.164,1.046,0.343,2.228,0.687,3.298
				c1.206,3.753,2.477,7.473,4.21,12.676c3.636,0.319,9.059,1.009,14.501,1.243c12.297,0.543,24.602,1.034,36.907,1.172
				c3.706,0.044,5.145,1.157,4.908,4.737c-0.797,12.011-1.947,24.025-2.188,36.054c-0.245,12.334,0.407,24.691,0.688,37.038
				c0.101,4.389,0.387,8.779,0.325,13.157c-0.039,2.661-1.495,3.927-4.459,3.927c-32.005-0.031-63.996,0.01-95.87-3.586
				c-4.533-0.513-9.164-0.114-13.734-0.362c-2.065-0.118-4.101-0.801-6.146-1.227c0.041-0.586,0.081-1.172,0.123-1.753
				c1.786-0.214,3.636-0.831,5.355-0.58c28.019,4.139,56.245,4.78,84.499,4.826c8.614,0.011,17.229,0,26.348-0.963
				c-6.77-18.898-17.849-34.582-28.317-50.901c-4.283,3.008-6.891,5.661-6.282,10.817c0.332,2.811-0.743,6.304-2.362,8.704
				c-3.449,5.105-7.387,9.975-11.702,14.387c-2.217,2.265-5.354,4.545-7.916-0.938c-1.21-2.59-5.059-3.911-7.569-5.971
				c-5.024-4.138-8.417-9.039-7.623-16.016c0.186-1.67-0.289-3.603-1.031-5.15c-1.522-3.167-3.866-4.034-6.503-1.09
				c-9.817,10.956-19.667,21.896-29.301,33.016c-2.015,2.334-3.166,5.403-4.712,8.137c-0.39-0.138-0.776-0.279-1.168-0.414
				c0-30.012,0-60.015,0-90.023c4.801,5.134,10.44,3.058,15.545,3.108c12.129,0.106,24.26,0.037,35.579,0.037
				c0.552-4.684,0.671-8.574,1.543-12.289c0.943-4.019,1.216-7.585-1.647-11.049c-0.933-1.128-1.674-3.377-1.164-4.54
				c2.084-4.755-0.189-8.829-1.366-13.117c-15.01-54.676-33.651-108.199-52.265-161.733c-2.191-6.298-4.608-12.532-6.804-18.834
				c-0.602-1.727-0.768-3.603-1.133-5.409c0.521-0.224,1.042-0.445,1.565-0.667c1.493,2.702,3.432,5.254,4.412,8.13
				c11.536,33.904,22.926,67.846,34.376,101.779c0.66,1.961,1.466,3.88,3.171,5.544c-1.75-7.605-3.466-15.213-5.26-22.813
				c-8.045-34.068-16.144-68.133-24.1-102.227c-0.55-2.359-0.073-4.957,0.821-7.509c17.103,65.938,29.894,132.74,46.731,198.686
				c-1.155-56.085,2.129-111.842,5.082-167.615c0.597-0.003,1.188-0.011,1.778-0.011c0,3.877,0.119,7.755-0.017,11.626
				c-1.375,39.069-3.021,78.134-4.062,117.208c-0.36,13.492,0.7,27.021,1.308,40.534c0.096,2.203,1.202,4.361,1.848,6.538
				C317.802,569.524,318.264,569.3,318.727,569.077z M321.61,658.776c1.138-0.929,1.643-1.346,2.15-1.751
				c4.224-3.354,7.62-8.446,14.436-6.203c0.812,0.268,2.492-1.271,3.427-2.29c8.741-9.483,17.435-19.01,26.071-28.584
				c2.248-2.495,4.271-5.189,7.072-8.621c-35.623-2.812-70.124-1.549-104.992-0.62c1.85,2.749,4.34,4.396,6.238,6.555
				c9.369,10.675,18.527,21.532,27.921,32.186c1.253,1.424,3.8,3.287,5.074,2.882C315.248,650.339,319.207,652.343,321.61,658.776z
				 M267.128,611.968c-0.731,0.287-1.461,0.579-2.192,0.873c0,23.338,0,46.672,0,70.013c0.398,0.245,0.79,0.491,1.189,0.733
				c0.712-1.058,1.318-2.213,2.151-3.176c7.47-8.647,14.945-17.292,22.488-25.881c7.87-8.958,6.882-6.738,0.211-14.885
				C283.266,630.231,275.1,621.177,267.128,611.968z M374.859,685.357c0.904-23.961,1.774-46.967,2.646-69.979
				c-9.742,8.835-18.292,17.777-26.49,27.02c-1.002,1.13-0.876,4.392,0.041,5.859C358.613,660.426,366.484,672.403,374.859,685.357z
				 M321.808,664.439c-0.832-1.315-1.299-2.355-2.029-3.166c-2.393-2.649-5.295-5.114-8.874-2.833
				c-3.951,2.514-1.612,6.085,0.279,8.429c4.025,5,8.648,9.523,13.213,14.448c6.774-5.675,12.048-11.26,13.332-19.146
				c0.403-2.506-0.89-6.23-2.763-7.925c-2.709-2.458-4.938,0.62-6.756,2.658C326.153,659.212,324.203,661.61,321.808,664.439z"/>
			<path d="M356.012,373.952c0,1.924,0.311,3.906-0.049,5.767c-8.368,43.813-16.803,87.614-25.258,131.417
				c-0.391,2.009-1.042,3.971-2.101,5.832c8.731-47.688,14.274-95.928,25.283-143.18
				C354.597,373.837,355.304,373.894,356.012,373.952z"/>
			<path d="M323.199,476.127c2.552-26.944,5.098-53.895,7.65-80.849c0.857,0.086,1.719,0.168,2.578,0.245
				c-2.848,26.871-5.695,53.733-8.542,80.604C324.322,476.127,323.761,476.127,323.199,476.127z"/>
			<path d="M232.687,134.149c-0.996-5.308-2.003-10.613-2.984-15.922c-1.446-7.82-3.025-15.627-4.185-23.49
				c-0.253-1.676,0.692-4.872,1.683-5.13c3.262-0.86,3.391,2.136,3.641,4.347c1.373,12.269,2.686,24.538,3.96,36.815
				c0.103,1.012-0.225,2.068-0.356,3.102C233.863,133.963,233.275,134.056,232.687,134.149z"/>
			<path d="M181.668,350.258c-0.698,1.135-1.289,2.348-2.106,3.387c-6.362,8.055-12.739,16.097-19.181,24.091
				c-1.356,1.688-2.905,4.414-5.322,1.861c-0.698-0.739,0.145-3.926,1.238-5.154c6.936-7.787,14.127-15.349,21.285-22.938
				c0.854-0.9,2.031-1.503,3.056-2.244C180.986,349.592,181.326,349.928,181.668,350.258z"/>
			<path d="M270.398,131.936c0-2.486-0.135-4.983,0.026-7.458c0.581-9.08,1.139-18.159,2.025-27.21
				c0.142-1.443,1.923-2.729,2.943-4.084c0.728,1.532,2.237,3.173,2.052,4.59c-1.401,10.622-3.126,21.204-4.793,31.791
				c-0.137,0.868-0.604,1.684-0.921,2.524C271.29,132.042,270.844,131.987,270.398,131.936z"/>
			<path d="M207.216,375.346c-0.298,1.324-0.467,2.688-0.914,3.965c-2.867,8.274-5.666,16.575-8.812,24.747
				c-0.602,1.554-3.042,3.856-3.968,3.585c-3.179-0.938-1.853-3.486-0.903-5.574c3.695-8.125,7.391-16.25,11.144-24.344
				c0.494-1.07,1.321-1.981,1.998-2.967C206.244,374.954,206.732,375.151,207.216,375.346z"/>
			<path d="M256.846,321.812c-0.314,1.575-0.346,3.275-0.994,4.703c-3.681,8.125-7.44,16.218-11.36,24.233
				c-0.596,1.215-2.176,1.959-3.3,2.921c-0.083-1.567-0.744-3.379-0.169-4.658c3.711-8.293,7.632-16.49,11.624-24.654
				c0.604-1.236,1.915-2.134,2.903-3.193C255.979,321.383,256.413,321.597,256.846,321.812z"/>
			<path d="M198.884,231.686c1.396,0.186,2.98,0.01,4.159,0.618c7.245,3.708,14.441,7.519,21.535,11.503
				c1.12,0.626,1.633,2.32,2.428,3.519c-1.45-0.019-3.153,0.448-4.313-0.14c-7.11-3.609-14.13-7.405-21.105-11.265
				c-1.257-0.693-2.186-1.961-3.268-2.962C198.505,232.535,198.696,232.108,198.884,231.686z"/>
			<path d="M243.53,192.258c0.495-0.628,1.112-1.425,1.735-2.22c0.789,0.672,2.097,1.223,2.282,2.031
				c2.003,8.694,3.877,17.417,5.63,26.161c0.169,0.84-0.722,1.884-1.117,2.838c-0.851-0.564-2.285-0.991-2.457-1.719
				C247.515,210.517,245.603,201.638,243.53,192.258z"/>
			<path d="M208.107,279.926c-3.598,0-7.201,0.135-10.787-0.093c-0.953-0.061-1.836-1.234-2.752-1.889
				c0.951-0.639,1.891-1.812,2.858-1.831c7.187-0.155,14.381-0.158,21.572,0.003c0.934,0.021,1.836,1.248,2.749,1.916
				c-0.95,0.632-1.872,1.75-2.857,1.81C215.306,280.062,211.7,279.926,208.107,279.926z"/>
			<path d="M212.935,319.969c0.344-3.738,14.723-16.892,19.479-17.816C232.932,306.19,217.8,320.03,212.935,319.969z"/>
			<path d="M322.227,544.63c1.386-7.587,2.778-15.178,4.166-22.765c0.341,0.061,0.679,0.121,1.022,0.178
				c-1.082,7.637-2.158,15.277-3.237,22.91C323.522,544.85,322.875,544.742,322.227,544.63z"/>
		</g>
		<path d="M180.146,265.018c-0.66,0.866-1.217,1.832-1.987,2.58c-10.363,10.048-20.75,20.071-31.152,30.081
			c-0.626,0.602-1.379,1.299-2.167,1.453c-0.731,0.144-1.942-0.146-2.312-0.678c-0.485-0.708-0.737-2.019-0.397-2.741
			c0.474-1.004,1.546-1.76,2.442-2.536c10.488-9.032,20.981-18.054,31.496-27.055c0.942-0.807,2.036-1.436,3.062-2.148
			C179.466,264.321,179.803,264.669,180.146,265.018z"/>
		<path d="M170.72,238.034c-1.144,0.51-1.97,1.098-2.864,1.241c-11.601,1.851-23.213,3.641-34.826,5.431
			c-1.027,0.158-2.178,0.512-3.076,0.205c-0.949-0.322-2.252-1.275-2.323-2.048c-0.072-0.797,1.017-2.246,1.851-2.468
			c2.132-0.57,4.4-0.668,6.622-0.868c9.928-0.897,19.854-1.795,29.789-2.604C167.371,236.798,169.107,236.071,170.72,238.034z"/>
		<path d="M176.842,213.482c-1.304-0.797-2.44-1.378-3.441-2.134c-7.603-5.72-15.184-11.48-22.767-17.232
			c-0.592-0.451-1.491-0.861-1.638-1.443c-0.262-1.046-0.477-2.548,0.072-3.219c0.483-0.588,2.091-0.544,3.099-0.322
			c0.774,0.173,1.406,1.041,2.073,1.634c6.896,6.123,13.795,12.238,20.667,18.388C176.015,210.148,177.804,210.887,176.842,213.482z
			"/>
		<path d="M204.365,192.509c-0.648-0.941-1.407-1.824-1.934-2.829c-4.35-8.281-8.661-16.586-12.979-24.889
			c-0.477-0.919-1.267-1.865-1.265-2.797c0.004-1,0.533-2.514,1.27-2.851c0.729-0.334,2.104,0.352,3.001,0.91
			c0.532,0.329,0.712,1.263,1.004,1.941c3.853,9.013,7.715,18.02,11.527,27.052c0.395,0.936,0.466,2.004,0.69,3.011
			C205.236,192.207,204.802,192.36,204.365,192.509z"/>
	</g>
	<g id="highlight_1_">
		<path fill="#A0C0E0" d="M321.808,664.439c2.396-2.829,4.346-5.228,6.402-7.537c1.817-2.039,4.044-5.117,6.752-2.659
			c1.873,1.694,3.168,5.42,2.764,7.925c-1.281,7.888-6.557,13.472-13.335,19.147c-4.563-4.926-9.185-9.449-13.21-14.448
			c-1.894-2.345-4.228-5.915-0.282-8.429c3.582-2.283,6.481,0.184,8.877,2.834C320.509,662.084,320.976,663.124,321.808,664.439z"/>
		<path fill="#A0C0E0" d="M324.475,296.149c10.143-1.533,20.426,8.766,24.035,23.294c4.076,16.403-1.118,36.357-9.584,39.24
			C350.182,334.625,352.046,312.388,324.475,296.149z"/>
		<path fill="#A0C0E0" d="M300.985,221.751c-2.833-10.168,9.107-26.245,20.644-27.009
			C310.427,201.238,304.693,210.709,300.985,221.751z"/>
		<path fill="#A0C0E0" d="M438.957,212.443c1.889,1.671,4.182,3.057,5.585,5.061c6.272,8.908,8.126,27.229,3.599,38.638
			c-1.168-15.505,0.591-30.686-10.91-42.565C437.806,213.2,438.383,212.825,438.957,212.443z"/>
		<path fill="#A0C0E0" d="M377.438,231.109c11.96,2.585,13.708,12.689,15.974,21.968c3.074,12.588-1.924,24.883-12.865,31.315
			C396.768,264.876,392.797,247.674,377.438,231.109z"/>
		<path fill="#A0C0E0" d="M368.942,191.23c1.339-18.781-7.097-32.711-22.348-43.958C362.715,148.654,374.773,172.844,368.942,191.23
			z"/>
		<path fill="#A0C0E0" d="M399.522,145.161c12.124-4.514,23.797,7.482,22.348,21.356
			C418.496,155.816,413.728,146.455,399.522,145.161z"/>
	</g>
</g>
<g id="Layer_4" display="none">
	<g id="fill_3_" display="inline">
		<path fill="#FFFFFF" d="M341.291,659.733c0.332,2.811-0.743,6.303-2.362,8.704c-3.449,5.105-7.387,9.975-11.702,14.387
			c-2.217,2.264-5.354,4.546-7.916-0.938c-1.21-2.592-5.059-3.913-7.569-5.972c-5.024-4.14-8.417-9.039-7.623-16.016
			c0.186-1.67-0.289-3.603-1.031-5.147c-1.522-3.17-3.866-4.037-6.503-1.093c-9.817,10.956-19.667,21.899-29.301,33.016
			c-1.474,1.704-2.484,3.802-3.523,5.873c0.245,1.103,0.376,2.221,0.427,3.354c0.287,0,0.574,0.017,0.857,0.055
			c28.022,4.141,56.247,4.78,84.501,4.827c8.613,0.013,17.229,0,26.348-0.965c-6.77-18.896-17.848-34.581-28.316-50.9
			C343.292,651.921,340.683,654.577,341.291,659.733z"/>
		<path fill="#FFFFFF" d="M321.61,658.776c-2.403-6.434-6.362-8.438-12.6-6.444c-1.274,0.405-3.824-1.456-5.075-2.883
			c-9.393-10.653-18.552-21.51-27.92-32.185c-1.896-2.157-4.388-3.809-6.241-6.555c34.871-0.932,69.372-2.195,104.994,0.62
			c-2.804,3.433-4.822,6.125-7.071,8.62c-8.64,9.574-17.333,19.101-26.071,28.585c-0.935,1.019-2.616,2.557-3.427,2.29
			c-6.815-2.241-10.215,2.853-14.437,6.202C323.253,657.431,322.748,657.848,321.61,658.776z"/>
		<path fill="#FFFFFF" d="M267.128,611.968c7.969,9.209,16.133,18.264,23.849,27.678c6.67,8.146,7.658,5.927-0.211,14.885
			c-7.543,8.589-15.018,17.233-22.488,25.881c-0.833,0.963-1.439,2.118-2.151,3.176c-0.399-0.242-0.792-0.488-1.189-0.733
			c0-23.341,0-46.675,0-70.013C265.667,612.547,266.399,612.255,267.128,611.968z"/>
		<path fill="#FFFFFF" d="M374.859,685.357c-8.375-12.954-16.246-24.935-23.804-37.101c-0.917-1.47-1.043-4.729-0.041-5.859
			c8.196-9.245,16.748-18.185,26.49-27.02C376.634,638.391,375.764,661.396,374.859,685.357z"/>
	</g>
	<g display="inline">
		<g>
			<path d="M279.198,339.502c-2.983,1.412-2.938,3.914-2.462,6.711c9.828,57.96,19.636,115.923,29.504,173.876
				c0.877,5.155,2.14,10.237,3.225,15.354c0.398-0.087,0.798-0.176,1.197-0.262c-9.615-58.709-19.967-117.303-27.229-176.528
				C281.374,352.445,280.037,345.887,279.198,339.502z"/>
			<path d="M406.184,319.428c-20.027,58.855-40.049,117.714-60.071,176.564c-0.979-1.324-0.918-2.372-0.674-3.366
				c12.295-50.296,24.861-100.532,36.74-150.922c2.56-10.844,8.025-21.009,8.855-32.281c-1.593,0.917-3.219,1.782-4.88,2.593
				c-18.138,79.369-35.727,158.077-58.443,235.556c0.391,0.076,0.781,0.155,1.171,0.236c1.971-4.447,4.252-8.783,5.857-13.354
				c24.402-69.449,48.724-138.932,72.977-208.435c0.654-1.891,0.338-4.122,0.472-6.192
				C407.52,319.694,406.851,319.56,406.184,319.428z"/>
			<path d="M318.727,569.077c2.402-6.412,4.81-12.824,7.213-19.233c0.617,0.212,1.233,0.43,1.849,0.643
				c-1.122,3.628-2.604,7.196-3.3,10.908c-1.788,9.551-3.266,19.159-4.752,28.763c-0.164,1.046,0.343,2.228,0.687,3.298
				c1.206,3.753,2.477,7.473,4.21,12.676c3.636,0.319,9.059,1.009,14.501,1.243c12.297,0.543,24.602,1.034,36.907,1.172
				c3.706,0.044,5.145,1.157,4.908,4.737c-0.797,12.011-1.947,24.025-2.188,36.054c-0.245,12.334,0.407,24.691,0.688,37.038
				c0.101,4.389,0.387,8.779,0.325,13.157c-0.039,2.661-1.495,3.927-4.459,3.927c-32.005-0.031-63.996,0.01-95.87-3.586
				c-4.533-0.513-9.164-0.114-13.734-0.362c-2.065-0.118-4.101-0.801-6.146-1.227c0.041-0.586,0.081-1.172,0.123-1.753
				c1.786-0.214,3.636-0.831,5.355-0.58c28.019,4.139,56.245,4.78,84.499,4.826c8.614,0.011,17.229,0,26.348-0.963
				c-6.77-18.898-17.849-34.582-28.317-50.901c-4.283,3.008-6.891,5.661-6.282,10.817c0.332,2.811-0.743,6.304-2.362,8.704
				c-3.449,5.105-7.387,9.975-11.702,14.387c-2.217,2.265-5.354,4.545-7.916-0.938c-1.21-2.59-5.059-3.911-7.569-5.971
				c-5.024-4.138-8.417-9.039-7.623-16.016c0.186-1.67-0.289-3.603-1.031-5.15c-1.522-3.167-3.866-4.034-6.503-1.09
				c-9.817,10.956-19.667,21.896-29.301,33.016c-2.015,2.334-3.166,5.403-4.712,8.137c-0.39-0.138-0.776-0.279-1.168-0.414
				c0-30.012,0-60.015,0-90.023c4.801,5.134,10.44,3.058,15.545,3.108c12.129,0.106,24.26,0.037,35.579,0.037
				c0.552-4.684,0.671-8.574,1.543-12.289c0.943-4.019,1.216-7.585-1.647-11.049c-0.933-1.128-1.674-3.377-1.164-4.54
				c2.084-4.755-0.189-8.829-1.366-13.117c-15.01-54.676-33.651-108.199-52.265-161.733c-2.191-6.298-4.608-12.532-6.804-18.834
				c-0.602-1.727-0.768-3.603-1.133-5.409c0.521-0.224,1.042-0.445,1.565-0.667c1.493,2.702,3.432,5.254,4.412,8.13
				c11.536,33.904,22.926,67.846,34.376,101.779c0.66,1.961,1.466,3.88,3.171,5.544c-1.75-7.605-3.466-15.213-5.26-22.813
				c-8.045-34.068-16.144-68.133-24.1-102.227c-0.55-2.359-0.073-4.957,0.821-7.509c17.103,65.938,29.894,132.74,46.731,198.686
				c-1.155-56.085,2.129-111.842,5.082-167.615c0.597-0.003,1.188-0.011,1.778-0.011c0,3.877,0.119,7.755-0.017,11.626
				c-1.375,39.069-3.021,78.134-4.062,117.208c-0.36,13.492,0.7,27.021,1.308,40.534c0.096,2.203,1.202,4.361,1.848,6.538
				C317.802,569.524,318.264,569.3,318.727,569.077z M321.61,658.776c1.138-0.929,1.643-1.346,2.15-1.751
				c4.224-3.354,7.62-8.446,14.436-6.203c0.812,0.268,2.492-1.271,3.427-2.29c8.741-9.483,17.435-19.01,26.071-28.584
				c2.248-2.495,4.271-5.189,7.072-8.621c-35.623-2.812-70.124-1.549-104.992-0.62c1.85,2.749,4.34,4.396,6.238,6.555
				c9.369,10.675,18.527,21.532,27.921,32.186c1.253,1.424,3.8,3.287,5.074,2.882C315.248,650.339,319.207,652.343,321.61,658.776z
				 M267.128,611.968c-0.731,0.287-1.461,0.579-2.192,0.873c0,23.338,0,46.672,0,70.013c0.398,0.245,0.79,0.491,1.189,0.733
				c0.712-1.058,1.318-2.213,2.151-3.176c7.47-8.647,14.945-17.292,22.488-25.881c7.87-8.958,6.882-6.738,0.211-14.885
				C283.266,630.231,275.1,621.177,267.128,611.968z M374.859,685.357c0.904-23.961,1.774-46.967,2.646-69.979
				c-9.742,8.835-18.292,17.777-26.49,27.02c-1.002,1.13-0.876,4.392,0.041,5.859C358.613,660.426,366.484,672.403,374.859,685.357z
				 M321.808,664.439c-0.832-1.315-1.299-2.355-2.029-3.166c-2.393-2.649-5.295-5.114-8.874-2.833
				c-3.951,2.514-1.612,6.085,0.279,8.429c4.025,5,8.648,9.523,13.213,14.448c6.774-5.675,12.048-11.26,13.332-19.146
				c0.403-2.506-0.89-6.23-2.763-7.925c-2.709-2.458-4.938,0.62-6.756,2.658C326.153,659.212,324.203,661.61,321.808,664.439z"/>
			<path d="M354.247,373.815c-0.16,0.172-0.32,0.343-0.481,0.514c-10.926,47.08-16.463,95.132-25.161,142.639
				c1.059-1.861,1.71-3.823,2.101-5.832c8.455-43.803,16.89-87.604,25.258-131.417c0.359-1.86,0.049-3.842,0.049-5.767
				C355.424,373.904,354.836,373.858,354.247,373.815z"/>
			<path d="M323.199,476.127c2.552-26.944,5.098-53.895,7.65-80.849c0.857,0.086,1.719,0.168,2.578,0.245
				c-2.848,26.871-5.695,53.733-8.542,80.604C324.322,476.127,323.761,476.127,323.199,476.127z"/>
			<path d="M232.687,134.149c-0.996-5.308-2.003-10.613-2.984-15.922c-1.446-7.82-3.025-15.627-4.185-23.49
				c-0.253-1.676,0.692-4.872,1.683-5.13c3.262-0.86,3.391,2.136,3.641,4.347c1.373,12.269,2.686,24.538,3.96,36.815
				c0.103,1.012-0.225,2.068-0.356,3.102C233.863,133.963,233.275,134.056,232.687,134.149z"/>
			<path d="M181.668,350.258c-0.698,1.135-1.289,2.348-2.106,3.387c-6.362,8.055-12.739,16.097-19.181,24.091
				c-1.356,1.688-2.905,4.414-5.322,1.861c-0.698-0.739,0.145-3.926,1.238-5.154c6.936-7.787,14.127-15.349,21.285-22.938
				c0.854-0.9,2.031-1.503,3.056-2.244C180.986,349.592,181.326,349.928,181.668,350.258z"/>
			<path d="M270.398,131.936c0-2.486-0.135-4.983,0.026-7.458c0.581-9.08,1.139-18.159,2.025-27.21
				c0.142-1.443,1.923-2.729,2.943-4.084c0.728,1.532,2.237,3.173,2.052,4.59c-1.401,10.622-3.126,21.204-4.793,31.791
				c-0.137,0.868-0.604,1.684-0.921,2.524C271.29,132.042,270.844,131.987,270.398,131.936z"/>
			<path d="M207.216,375.346c-0.298,1.324-0.467,2.688-0.914,3.965c-2.867,8.274-5.666,16.575-8.812,24.747
				c-0.602,1.554-3.042,3.856-3.968,3.585c-3.179-0.938-1.853-3.486-0.903-5.574c3.695-8.125,7.391-16.25,11.144-24.344
				c0.494-1.07,1.321-1.981,1.998-2.967C206.244,374.954,206.732,375.151,207.216,375.346z"/>
			<path d="M322.227,544.63c1.386-7.587,2.778-15.178,4.166-22.765c0.341,0.061,0.679,0.121,1.022,0.178
				c-1.082,7.637-2.158,15.277-3.237,22.91C323.522,544.85,322.875,544.742,322.227,544.63z"/>
		</g>
		<path d="M180.146,265.018c-0.66,0.866-1.217,1.832-1.987,2.58c-10.363,10.048-20.75,20.071-31.152,30.081
			c-0.626,0.602-1.379,1.299-2.167,1.453c-0.731,0.144-1.942-0.146-2.312-0.678c-0.485-0.708-0.737-2.019-0.397-2.741
			c0.474-1.004,1.546-1.76,2.442-2.536c10.488-9.032,20.981-18.054,31.496-27.055c0.942-0.807,2.036-1.436,3.062-2.148
			C179.466,264.321,179.803,264.669,180.146,265.018z"/>
		<path d="M170.72,238.034c-1.144,0.51-1.97,1.098-2.864,1.241c-11.601,1.851-23.213,3.641-34.826,5.431
			c-1.027,0.158-2.178,0.512-3.076,0.205c-0.949-0.322-2.252-1.275-2.323-2.048c-0.072-0.797,1.017-2.246,1.851-2.468
			c2.132-0.57,4.4-0.668,6.622-0.868c9.928-0.897,19.854-1.795,29.789-2.604C167.371,236.798,169.107,236.071,170.72,238.034z"/>
		<path d="M176.842,213.482c-1.304-0.797-2.44-1.378-3.441-2.134c-7.603-5.72-15.184-11.48-22.767-17.232
			c-0.592-0.451-1.491-0.861-1.638-1.443c-0.262-1.046-0.477-2.548,0.072-3.219c0.483-0.588,2.091-0.544,3.099-0.322
			c0.774,0.173,1.406,1.041,2.073,1.634c6.896,6.123,13.795,12.238,20.667,18.388C176.015,210.148,177.804,210.887,176.842,213.482z
			"/>
		<path d="M204.365,192.509c-0.648-0.941-1.407-1.824-1.934-2.829c-4.35-8.281-8.661-16.586-12.979-24.889
			c-0.477-0.919-1.267-1.865-1.265-2.797c0.004-1,0.533-2.514,1.27-2.851c0.729-0.334,2.104,0.352,3.001,0.91
			c0.532,0.329,0.712,1.263,1.004,1.941c3.853,9.013,7.715,18.02,11.527,27.052c0.395,0.936,0.466,2.004,0.69,3.011
			C205.236,192.207,204.802,192.36,204.365,192.509z"/>
		<path d="M460.142,288.594c1.425,0.441,2.91,0.743,4.269,1.338c17.608,7.7,35.193,15.442,52.784,23.173
			c0.585,0.257,1.398,0.368,1.708,0.819c0.809,1.18,1.397,2.513,2.069,3.78c-1.497,0.323-3.321,1.359-4.438,0.847
			c-7.713-3.536-15.279-7.403-22.893-11.154c-10.202-5.024-20.418-10.016-30.597-15.085c-1.272-0.635-2.367-1.627-3.545-2.456
			C459.715,289.437,459.927,289.012,460.142,288.594z"/>
		<path d="M440.246,183.564c1.136-0.934,2.195-1.988,3.423-2.789c12.728-8.287,25.479-16.527,38.227-24.778
			c0.672-0.435,1.364-1.188,2.044-1.183c1.38,0.005,2.758,0.428,4.14,0.68c-0.509,1.327-0.632,3.237-1.601,3.877
			c-3.711,2.477-7.689,4.554-11.577,6.773c-9.852,5.62-19.693,11.255-29.571,16.832c-1.364,0.771-2.904,1.223-4.362,1.821
			C440.729,184.386,440.49,183.974,440.246,183.564z"/>
		<path d="M434.162,323.288c0.7,1.288,1.534,2.521,2.077,3.875c4.896,12.139,9.763,24.293,14.579,36.466
			c0.792,1.999,2.287,4.601-0.95,5.488c-0.92,0.252-3.281-1.999-3.807-3.513c-4.396-12.668-8.531-25.434-12.7-38.179
			c-0.377-1.144-0.451-2.388-0.663-3.583C433.187,323.657,433.674,323.474,434.162,323.288z"/>
		<path d="M483.169,242.771c1.172-0.121,2.353-0.398,3.513-0.336c12.112,0.656,24.229,1.275,36.321,2.185
			c1.4,0.108,2.681,1.913,4.014,2.931c-1.176,0.813-2.45,2.437-3.519,2.309c-12.991-1.548-25.95-3.343-38.913-5.119
			c-0.551-0.076-1.037-0.611-1.551-0.931C483.076,243.466,483.124,243.117,483.169,242.771z"/>
		<path d="M401.763,112.881c0.588-1.144,1.023-2.401,1.781-3.413c6.915-9.246,13.875-18.461,20.864-27.651
			c1.314-1.734,2.77-4.371,5.179-1.957c0.705,0.708-0.023,3.888-1.062,5.121c-7.435,8.833-15.104,17.467-22.74,26.135
			c-0.855,0.973-1.954,1.734-2.94,2.597C402.484,113.432,402.124,113.156,401.763,112.881z"/>
		<path d="M326.605,111.042c0.46-7.729,0.892-15.453,1.383-23.176c0.257-3.982,0.401-7.991,1.049-11.916
			c0.177-1.07,1.986-1.873,3.047-2.799c0.737,1.083,2.234,2.27,2.101,3.23c-1.577,11.218-3.387,22.396-5.192,33.58
			c-0.075,0.498-0.673,0.918-1.024,1.369C327.514,111.236,327.059,111.136,326.605,111.042z"/>
	</g>
	<path id="highlight" display="inline" fill="#A0C0E0" d="M321.808,664.439c2.396-2.829,4.346-5.228,6.402-7.537
		c1.817-2.039,4.044-5.117,6.752-2.659c1.873,1.694,3.168,5.42,2.764,7.925c-1.281,7.888-6.557,13.472-13.335,19.147
		c-4.563-4.926-9.185-9.449-13.21-14.448c-1.894-2.345-4.228-5.915-0.282-8.429c3.582-2.283,6.481,0.184,8.877,2.834
		C320.509,662.084,320.976,663.124,321.808,664.439z"/>
</g>
</svg>
