<?xml version="1.0" encoding="utf-8"?>
<svg viewBox="0 0 250 180" xmlns="http://www.w3.org/2000/svg">
  <g transform="matrix(-1, 0, 0, 1, 225.074524, 4.459966)">
    <path fill-rule="evenodd" clip-rule="evenodd" fill="#FFFFFF" d="M0.439,109.924c0.309-1.51,1.096-2.678,2.692-3.128&#10;&#9;&#9;c0.7-0.196,1.476-0.347,2.188-0.271c2.354,0.256,4.695,0.623,6.82,0.919c0.186-1.774-0.178-3.962,0.73-5.399&#10;&#9;&#9;c0.919-1.446,3.102-2.148,4.902-3.284c-0.375-0.779-0.842-1.745-1.291-2.677c0.672-0.824,1.232-1.51,1.924-2.356&#10;&#9;&#9;c-6.098-2.062-6.568-7.517-8.385-12.075c-0.387-0.969,0.208-2.191,1.656-2.005c4.718,0.601,9.15,1.849,12.217,5.747&#10;&#9;&#9;c0.399,0.505,0.784,1.021,1.58,2.062c-0.294-3.895-0.738-7.141,0.772-10.142c0.323-0.067,0.535-0.171,0.73-0.146&#10;&#9;&#9;c3.735,0.448,3.753,0.463,5.509-2.662c0.777-1.381,1.758-2.27,3.539-1.992c0.461,0.072,0.967-0.119,1.473-0.192&#10;&#9;&#9;c0-0.798-0.025-1.407,0.005-2.013c0.137-2.772,1.643-3.886,4.425-3.062c1.07,0.315,2.096,0.98,2.948,1.699&#10;&#9;&#9;c0.944,0.803,1.677,1.839,2.484,2.786c1.729,2.037,3.097,2.337,5.454,0.885c1.89-1.163,3.81-1.709,6.029-1.245&#10;&#9;&#9;c1.337,0.279,2.542,0.12,3.23-1.26c0.767-1.539,2.05-2.242,3.835-2.23c1.78,0.01,2.647-0.926,2.742-3.167&#10;&#9;&#9;c-1.628,1.973-3.396,2.647-5.227,1.368c-0.884-0.617-1.901-1.284-2.962-1.893c0.923-0.419,0.77-2.09-0.463-2.086&#10;&#9;&#9;c-3.365,0.005-6.463-0.958-9.512-2.122c-2.271-1.552-4.328-3.548-6.293-5.174c-0.398-0.329-0.676-0.671-0.906-1.012&#10;&#9;&#9;c0.137-0.083,0.264-0.194,0.366-0.356c2.098-3.311,5.699-2.422,9.032-2.121c1.4,0.129,1.389-2.056,0-2.18&#10;&#9;&#9;c-0.299-0.028-0.598-0.057-0.894-0.082c-0.985-1.902-2.462-1.596-3.741-1.639c-3.909-0.125-6.938-1.844-9.049-4.9&#10;&#9;&#9;c-0.65-0.941-0.864-1.758-0.715-2.419c0.201-0.049,0.4-0.101,0.602-0.151c0.371-0.092,0.699-0.264,0.993-0.478&#10;&#9;&#9;c1.573,1.993,5.624,1.381,5.626-1.874c0-4.154-0.036-8.345,0.553-12.468c0.018-0.118,0.01-0.229,0.016-0.344&#10;&#9;&#9;c0.523-0.556,1.131-0.878,1.785-0.966c0.37,0.416,0.918,0.722,1.666,0.836c2.68,0.409,5.625,7.375,4.446,9.7&#10;&#9;&#9;c-0.659,1.299-0.361,2.532,0.36,3.417c-0.031,0.023-0.063,0.025-0.093,0.052c-1.718,1.452-2.937,3.066-2.276,5.384&#10;&#9;&#9;c0.246,0.859,1.559,1.131,1.994,0.259c1.479-2.958,5.779-6.421,8.869-4.395c0.83,0.881,1.361,2.112,1.422,3.63&#10;&#9;&#9;c0.159,3.953-0.797,7.516-4.385,9.996c-0.473,0.326-0.743,0.917-1.262,1.586c0.094,0.086,0.173,0.153,0.264,0.234&#10;&#9;&#9;c-0.305,0.324-0.431,0.805-0.143,1.249c0.703,1.079,1.282,2.26,2.166,3.213c0.841,0.909,2.377-0.276,1.713-1.322&#10;&#9;&#9;c-0.182-0.283-0.331-0.583-0.489-0.879c1.235-0.219,2.376-0.991,3.31-2.122c0.172-0.207,0.232-0.43,0.245-0.649&#10;&#9;&#9;c0.076-0.046,0.155-0.082,0.229-0.132c1.161-0.777,1.754-0.191,1.893-1.532c0.221-2.088,0.789-4.052,2.907-4.707&#10;&#9;&#9;c-0.573-0.727-1.421-1.317-1.454-1.946c-0.062-1.139,0.841-1.858,2.064-1.886c0.946-0.019,1.897,0.114,2.842,0.216&#10;&#9;&#9;c1.02,0.11,2.034,0.264,3.148,0.411c0.267-0.957,0.5-1.627,0.636-2.313c0.514-2.612,1.926-4.766,3.831-6.584&#10;&#9;&#9;c0.693-0.663,1.863-1.381,2.701-1.271c1.715,0.226,2.513-0.544,3.406-1.668c0.764-0.958,1.67-1.878,2.695-2.559&#10;&#9;&#9;c1.465-0.971,2.174-2.209,2.133-3.865c-0.049-2.03-0.049-4.072-0.281-6.089c-0.398-3.474,1.012-4.85,4.508-4.181&#10;&#9;&#9;c0.416,0.082,0.854,0.351,1.225,0.271c0.662-0.141,1.609-0.311,1.865-0.767c1.633-2.904,3.96-2.892,6.795-1.94&#10;&#9;&#9;c1.93,0.65,2.706,0.004,2.929-1.982c0.068-0.607-0.076-1.271,0.128-1.821c0.194-0.523,0.639-1.226,1.109-1.345&#10;&#9;&#9;c1.804-0.455,3.557-0.764,5.498,0.029c1.603,0.652,1.911,1.751,2.251,3.032c0.378,1.429,1.278,1.775,2.631,1.222&#10;&#9;&#9;c2.123-0.864,4.435-1.213,6.23-2.906c1.579-1.487,3.489-1.104,4.415,0.863c0.771,1.636,1.104,3.495,1.411,5.289&#10;&#9;&#9;c0.325,1.909,0.302,3.872,0.598,5.788c0.218,1.415,0.712,2.789,2.649,3.449c2.145-1.624,4.455-3.227,6.586-5.027&#10;&#9;&#9;c2.022-1.712,4.137-2.411,6.711-1.409c2.309,0.897,2.728,1.963,1.699,4.246c-0.965,2.139-1.465,4.184,0.217,6.35&#10;&#9;&#9;c0.604,0.777,0.619,2.125,0.567,3.199c-0.118,2.487,0.087,2.982,2.646,2.914c1.98-0.053,3.966-0.537,5.909-0.988&#10;&#9;&#9;c2.096-0.485,3.845-0.226,4.885,1.742c0.614,1.16,1.508,1.524,2.778,1.667c1.131,0.126,2.291,0.472,3.305,0.97&#10;&#9;&#9;c1.129,0.553,2.395,1.397,1.936,2.824c-0.623,1.928,0.645,2.504,1.693,3.209c2.066-1.069,3.839-2.247,5.798-2.939&#10;&#9;&#9;c2.813-0.995,4.849,0.483,4.913,3.378c0.023,1.113-0.299,2.229-0.335,3.347c-0.026,0.827,0.155,1.66,0.28,2.819&#10;&#9;&#9;c2.432-0.986,4.321-1.902,6.311-2.53c3.779-1.191,5.896,0.663,5.062,4.364c-0.539,2.398-1.098,4.8-1.823,7.147&#10;&#9;&#9;c-0.468,1.518-0.288,2.614,0.78,3.921c0.996,1.217,1.771,2.837,1.991,4.368c0.548,3.807-0.995,5.204-5.045,5.104&#10;&#9;&#9;c-0.76-0.02-1.524,0.112-3.067,0.237c2.99,2.5,7.297,1.724,8.271,5.575c3.646-1.105,6.029,1.033,8.432,2.784&#10;&#9;&#9;c1.539,1.124,1.243,3.404-0.336,4.521c-0.581,0.413-1.312,0.675-2.013,0.882c-1.641,0.487-2.915,1.092-2.612,3.174&#10;&#9;&#9;c0.097,0.663-0.535,1.486-0.977,2.152c-0.496,0.75-1.151,1.403-1.859,2.244c0.83,0.889,1.537,1.624,2.225,2.379&#10;&#9;&#9;c1.842,2.027,1.789,3.472-0.184,5.289c-2.908,2.689-6.059,3.011-9.5,0.971c-3.127-1.854-3.277-1.824-5.617,0.61&#10;&#9;&#9;c-0.423,0.441-0.998,0.749-1.511,1.109c-0.597,0.423-1.202,0.837-1.804,1.253c0.1,0.195,0.201,0.389,0.303,0.584&#10;&#9;&#9;c0.997-0.206,2.007-0.377,2.992-0.628c3.109-0.8,3.263-0.725,4.267,2.887c0.562-2.873,2.309-2.401,3.662-1.648&#10;&#9;&#9;c1.499,0.836,3.329,1.919,3.909,3.321c1.167,2.818,2.851,4.827,5.524,6.418c2.423,1.441,2.444,4.301,0.48,6.381&#10;&#9;&#9;c-1.724,1.823-3.94,2.555-6.349,2.079c-5.492-1.084-11.139-1.933-15.212-6.277c-0.253-0.268-0.703-0.365-1.267-0.645&#10;&#9;&#9;c-1.785,3.2-4.234,5.634-7.672,6.919c0.027,0.476,0.02,0.777,0.07,1.071c0.559,3.271-0.77,4.8-4.203,4.814&#10;&#9;&#9;c-1.057,0.003-2.135-0.138-3.17,0.001c-3.418,0.458-5.879-1.145-8.182-3.264c-0.988-0.911-2.098-1.708-3.217-2.474&#10;&#9;&#9;c-1.168-0.801-2.434-0.845-3.488,0.163c-1.797,1.72-3.961,1.854-6.217,1.393c-1.633-0.334-2.837-0.283-3.622,1.451&#10;&#9;&#9;c-0.81,1.789-2.485,2.584-4.444,2.264c-2.693-0.438-5.459-0.833-7.971-1.791c-1.596-0.611-2.686-0.615-4.092,0.154&#10;&#9;&#9;c-1.451,0.797-3.08,1.287-4.56,2.037c-0.578,0.293-1.317,0.894-1.382,1.421c-0.279,2.214-1.689,2.573-3.615,2.468&#10;&#9;&#9;c-0.715-0.041-1.592-0.024-2.145,0.331c-3.778,2.417-7.219,1.584-10.574-0.804c-0.119-0.086-0.398,0.039-0.844,0.097&#10;&#9;&#9;c-0.275,0.623-0.622,1.345-0.914,2.089c-0.862,2.183-1.604,2.589-3.822,1.807c-1.59-0.559-3.076-1.412-4.685-1.9&#10;&#9;&#9;c-0.944-0.29-2.426-0.554-2.995-0.08c-2.021,1.68-4.182,1.557-6.43,0.894c-1.046,4.071-3.43,5.218-7.103,3.629&#10;&#9;&#9;c-1.678-0.726-3.022-1.718-3.938-3.367c-1.251-2.263-3.076-4.073-5.771-5.442c-0.634,1.086-1.182,2.045-1.748,2.99&#10;&#9;&#9;c-0.771,1.286-1.721,2.323-3.417,2.432c-1.369,0.092-2.731,0.284-4.101,0.383c-1.875,0.132-2.6-0.393-2.648-2.197&#10;&#9;&#9;c-0.041-1.584,0.191-3.179,0.342-5.306c-1.555,1.616-2.654,2.958-3.965,4.067c-1.427,1.209-3.071,2.176-4.586,3.293&#10;&#9;&#9;c-2.308,1.698-2.848,1.891-5.014,0.242c-1.818-1.382-3.535-1.471-5.609-0.841c-4.936,1.496-6.918,0.921-9.869-2.99&#10;&#9;&#9;c-0.848-1.126-1.644-1.452-2.923-1.035c-0.804,0.261-1.624,0.477-2.437,0.712c-4.498,1.299-6.574-0.508-5.608-4.88&#10;&#9;&#9;c0.088-0.397,0.134-0.808,0.245-1.203c0.639-2.247,0.114-3.83-2.221-5.035c-2.256-1.163-2.666-2.9-1.888-5.25&#10;&#9;&#9;c0.31-0.935,0.671-1.854,1.056-2.913c-1.809-0.348-3.383-0.562-4.902-0.972c-1.617-0.437-3.234-0.954-4.756-1.632&#10;&#9;&#9;C0.916,112.562,0.119,111.483,0.439,109.924z"/>
    <g>
      <path fill-rule="evenodd" clip-rule="evenodd" d="M91.697,72.286c-1.146,2.968,1.088,5.471,0.736,8.222&#10;&#9;&#9;&#9;c2.074,0.218,3.765,0.645,5.416,0.52c3.565-0.271,6.821-1.615,9.6-3.867c1.344-1.091,1.113-2.462-0.368-3.399&#10;&#9;&#9;&#9;c-0.615-0.387-1.347-0.72-2.058-0.807c-3.84-0.469-7.391,0.295-10.487,2.733c-0.398,0.315-0.808,0.612-1.212,0.918&#10;&#9;&#9;&#9;c0.066-0.952,0.371-1.708,0.93-2.046c3.447-2.078,7.141-3.324,11.216-2.461c4.015,0.851,4.781,2.924,2.465,6.261&#10;&#9;&#9;&#9;c-0.104,0.151-0.056,0.405-0.112,0.896c1.529,0.253,3.084,0.49,4.631,0.763c2.467,0.441,5.084,3.735,3.877,5.154&#10;&#9;&#9;&#9;c-2.107,2.466-4.653,4.584-7.172,6.658c-0.74,0.611-1.855,0.312-2.018-1.261c3.055-0.032,4.559-2.406,6.471-4.13&#10;&#9;&#9;&#9;c2.184-1.974,1.602-4.352-1.306-5.068c-1.946-0.48-3.986-0.745-5.991-0.776c-2.365-0.034-4.542,0.791-6.42,2.27&#10;&#9;&#9;&#9;c0.061,1.19,0.312,2.281,0.123,3.288c-0.295,1.541,0.105,2.621,1.279,3.627c1.823,1.565,2.252,3.791,2.479,6.037&#10;&#9;&#9;&#9;c0.138,1.374,0.107,2.762,0.189,4.141c0.057,0.975,0.151,1.962,1.829,2.049c0.414-0.779,0.82-1.729,1.393-2.573&#10;&#9;&#9;&#9;c0.645-0.952,1.311-1.963,2.19-2.669c1.446-1.161,2.477-0.921,3.351,0.729c1.514,2.862,2.295,5.936,2.277,9.192&#10;&#9;&#9;&#9;c-0.004,0.706,0.059,1.413,0.099,2.35c1.745-0.526,3.222-1.149,4.755-1.384c1.482-0.227,3.024-0.049,4.541-0.049&#10;&#9;&#9;&#9;c0.111-0.241,0.225-0.484,0.338-0.727c-0.85-0.92-1.697-1.841-2.762-2.994c1.204-0.325,2.168-0.701,3.162-0.831&#10;&#9;&#9;&#9;c1.764-0.228,1.971-1.309,1.727-2.737l-0.034,0.053c1.493,0.072,2.677,0.55,3.078,2.457c-1.162,0.668-2.319,1.331-3.724,2.139&#10;&#9;&#9;&#9;c0,1.953,0.076,3.942-0.043,5.918c-0.041,0.655-0.438,1.445-0.929,1.881c-1.013,0.902-2.163,1.675-3.325,2.392&#10;&#9;&#9;&#9;c-1.762,1.085-2.864,0.891-4.204-0.587c3.207,0.249,5.41-0.93,6.753-3.618c-3.863-2.653-6.435-2.374-11.068,1.313&#10;&#9;&#9;&#9;c4.598,3.305,6.496,7.634,4.736,13.302c2.174,0.528,4.213,1.108,6.293,1.465c0.604,0.104,1.608-0.265,1.9-0.741&#10;&#9;&#9;&#9;c0.279-0.456,0.055-1.445-0.278-2.005c-0.905-1.521-2.252-2.521-4.099-2.702c-0.531-0.053-1.057-0.194-1.859-0.344&#10;&#9;&#9;&#9;c1.268-0.979,2.205-1.699,3.279-2.527c0.36,0.387,0.767,0.855,1.205,1.29c1.353,1.351,2.643,2.779,4.102,4.005&#10;&#9;&#9;&#9;c1.055,0.889,2.381,1.672,3.8,0.832c1.531-0.906,2.06-2.469,1.741-4.145c-0.295-1.555-0.823-3.079-1.391-4.562&#10;&#9;&#9;&#9;c-0.513-1.342-1.217-2.612-1.836-3.913c2.971,1.493,5.228,4.161,8.643,4.304c0.205-0.233,0.41-0.468,0.616-0.701&#10;&#9;&#9;&#9;c-1.884-2.844-3.769-5.685-6.013-9.072c2.131,1.538,3.699,2.891,5.468,3.883c1.772,0.999,3.604,2.352,6.03,1.281&#10;&#9;&#9;&#9;c-0.19-2.915-2.074-4.842-3.599-6.964c-1.558-2.167-3.142-4.294-5.665-5.608c1.175,0.083,2.418,0.232,3.119,0.93&#10;&#9;&#9;&#9;c2.949,2.932,5.589,6.154,7.196,10.041c0.976,2.361-0.19,3.729-2.757,3.348c-1.2-0.181-2.363-0.603-3.951-1.02&#10;&#9;&#9;&#9;c0.349,0.923,0.502,1.4,0.707,1.854c0.475,1.053,1.29,2.142,0.066,3.159c-1.113,0.932-2.214,0.221-3.268-0.272&#10;&#9;&#9;&#9;c-0.824-0.383-1.631-0.806-2.902-1.44c0.287,1.734,0.52,2.955,0.687,4.182c0.654,4.813-1.29,6.793-6.054,6.207&#10;&#9;&#9;&#9;c-0.197-0.025-0.408,0.065-0.686,0.118c-1.338,1.56-2.718,3.158-4.082,4.769c-1.209,1.425-2.653,2.066-4.532,1.521&#10;&#9;&#9;&#9;c-0.466-0.136-0.979-0.106-1.747-0.18c0.217,0.889,0.381,1.475,0.502,2.071c0.467,2.313-0.242,2.951-2.525,2.246&#10;&#9;&#9;&#9;c-0.98-0.308-1.936-0.689-2.986-1.063c-1.096,2.705-3.141,3.422-5.535,2.881c-1.794-0.407-3.48-1.286-3.693-3.604&#10;&#9;&#9;&#9;c0.789,0.212,1.332,0.775,1.994,1.083c1.02,0.473,2.115,1.061,3.188,1.082c1.905,0.036,2.489-1.222,1.334-2.732&#10;&#9;&#9;&#9;c-0.746-0.979-1.782-1.741-2.684-2.594c3.118-3.589,4.271-3.804,8.216-1.938c1.423,0.676,2.955,1.231,4.5,1.525&#10;&#9;&#9;&#9;c2.021,0.382,2.545-0.083,3.803-2.599c-1.611-0.521-3.201-1.045-4.795-1.547c-1.665-0.52-3.338-1.025-4.654-1.43&#10;&#9;&#9;&#9;c0.888-1.346,2.106-2.436,2.329-3.701c0.415-2.348-0.335-4.643-1.784-6.605c-1.37-1.852-3.191-2.356-5.689-1.685&#10;&#9;&#9;&#9;c-2.479,0.667-2.668,0.932-3.049,3.921c-0.049,0.372-0.354,0.709-0.535,1.05c-2.467-0.989-2.961-1.987-1.475-3.581&#10;&#9;&#9;&#9;c1.024-1.1,2.518-1.919,3.954-2.442c2.999-1.089,5.181-2.972,5.099-6.183c-0.066-2.694-0.982-5.375-1.646-8.031&#10;&#9;&#9;&#9;c-0.12-0.483-0.834-0.818-1.316-1.266c-3.695,2.407-4.206,6.078-4.687,9.844c-0.477-1.096-0.953-2.191-1.765-4.059&#10;&#9;&#9;&#9;c-1.023,2.304-1.73,3.892-2.439,5.484c0-1.197,0-2.391,0-4.119c-1.458,1.246-1.739,2.307-1.371,3.43&#10;&#9;&#9;&#9;c0.108,0.329,0.93,0.428,1.422,0.629c-0.408,0.518-0.816,1.035-1.291,1.633c-1.783-2.751-1.656-5.042,0.196-7.147&#10;&#9;&#9;&#9;c2.307-2.626,2.543-7.363,0.456-10.497c-3.137,1.053-4.162,3.959-5.676,7.18c-0.477-4.579,2.735-6.595,4.6-9.356&#10;&#9;&#9;&#9;c-2.617-2.054-4.117,2.411-6.497,0.961c1.427-1.221,2.785-2.22,3.938-3.418c1.025-1.063,1.343-2.456,0.527-3.82&#10;&#9;&#9;&#9;c-0.774-1.291-2.025-1.817-3.52-1.75c-1.506,0.067-2.225,1.078-2.705,2.335c-0.278,0.731-0.519,1.48-0.92,2.63&#10;&#9;&#9;&#9;c-1.088-1.596-0.479-2.788-0.446-3.983c0.065-2.416,0.078-4.864-0.265-7.246c-0.291-1.997-1.674-2.231-3.156-0.782&#10;&#9;&#9;&#9;c-0.92,0.899-1.279,1.903-0.799,3.173c0.305,0.805,0.483,1.66,0.719,2.495c-0.248,0.099-0.496,0.2-0.742,0.299&#10;&#9;&#9;&#9;c-0.635-1.285-1.242-2.581-1.906-3.85c-2.446-4.673-5.301-8.999-10.218-11.454c-0.953-0.478-2.019-0.729-3.132-1.122&#10;&#9;&#9;&#9;c-0.332,4.679,2.9,7.486,4.087,11.189c-1.317-0.793-2.286-1.858-3.354-2.81c-1.421-1.268-2.808-2.649-4.436-3.581&#10;&#9;&#9;&#9;c-0.829-0.475-2.506-0.493-3.16,0.049c-0.672,0.558-0.982,2.183-0.693,3.106c0.384,1.229,1.476,2.244,2.311,3.316&#10;&#9;&#9;&#9;c0.731,0.936,1.529,1.821,2.601,3.085c-2.429,0.473-3.226-0.826-4.243-1.851c-1.33-1.342-2.653-2.78-4.237-3.755&#10;&#9;&#9;&#9;c-2.503-1.539-5.798-1.028-6.984,0.744c-1.191,1.78-0.569,4.526,1.734,6.478c1.34,1.131,2.961,1.928,4.802,3.101&#10;&#9;&#9;&#9;c-0.938,0.112-1.556,0.33-2.112,0.226c-3.341-0.62-6.804-5.653-6.233-8.989c0.293-1.706,1.199-2.928,2.877-3.498&#10;&#9;&#9;&#9;c1.759-0.599,3.518-0.774,5.297-0.053c0.735,0.298,1.507,0.502,2.279,0.753c1.289-5.627,3.006-6.11,9.01-2.512&#10;&#9;&#9;&#9;c-0.268-0.724-0.471-1.176-0.604-1.65c-0.416-1.49-1.553-3.236-0.041-4.436c1.548-1.231,3.243-0.03,4.711,0.787&#10;&#9;&#9;&#9;c3.521,1.963,6.111,4.878,8.263,8.231c0.544,0.845,1.206,1.611,1.94,2.579c2.073-2.068,4.301-2.931,6.816-3.085L91.697,72.286z&#10;&#9;&#9;&#9; M109.972,131.541c2.013,1.896,4.201,3.282,7.292,4.021C116.054,130.405,113.099,128.805,109.972,131.541z"/>
      <path fill-rule="evenodd" clip-rule="evenodd" d="M52.16,28.219c-0.84-0.639-1.644-1.327-2.523-1.9&#10;&#9;&#9;&#9;c-0.91-0.595-1.787-0.6-2.456,0.446c-1.867,2.921-2.478,9.687,0.507,12.269c1.82,1.577,2.824,3.562,4.32,5.256&#10;&#9;&#9;&#9;c0.183,0.207,0.505,0.29,0.739,0.42c1.167-1.615,2.194-3.213,3.396-4.667c1.514-1.837,3.414-1.152,5.283-0.616&#10;&#9;&#9;&#9;c1.771,0.509,2.113,1.838,2.264,3.419c0.271,2.856-0.294,5.638-1.705,7.98c-0.987,1.642-2.934,2.708-4.72,4.268&#10;&#9;&#9;&#9;c1.147,1.41,2.509,3.083,4.147,5.099c1.239-3.086,2.926-5.266,5.556-6.358c1.534-0.636,1.709-1.642,1.69-2.999&#10;&#9;&#9;&#9;c-0.016-1.081,0.109-2.165,0.174-3.247c0.251-0.003,0.5-0.005,0.748-0.011c0.197,1.729,0.261,3.487,0.626,5.182&#10;&#9;&#9;&#9;c0.399,1.857,0.969,3.699,1.662,5.471c0.618,1.576,1.505,3.045,2.579,5.168c-3.094-1.203-3.058-3.956-4.701-5.516&#10;&#9;&#9;&#9;c-0.654,1.665-1.146,3.281-1.9,4.762c-1.299,2.551-2.833,2.771-5.08,1.055c-0.883-0.676-1.953-1.531-2.953-1.553&#10;&#9;&#9;&#9;c-5.398-0.109-9.762-2.66-13.965-5.601c-1.164-0.813-2.828-1.75-2.325-3.448c0.542-1.824,2.437-1.776,4.032-1.793&#10;&#9;&#9;&#9;c1.379-0.015,2.76,0.092,4.139,0.133c0.566,0.015,1.135,0.002,1.786,0.002c-1.079-3.826-1.093-3.844-4.453-3.762&#10;&#9;&#9;&#9;c-3.253,0.074-6.039-1.057-8.377-3.271c-1.179-1.118-2.104-2.387-1.562-4.604c2.281,0,4.595,0,7.408,0&#10;&#9;&#9;&#9;c-2.549-4.637-1.902-8.903-0.76-13.167c0.574-2.147,1.873-2.771,3.749-1.705c1.273,0.724,2.587,1.56,2.634,3.323L52.16,28.219z&#10;&#9;&#9;&#9; M61.347,49.27c0.639-1.68,1.098-3.443,1.46-5.205c0.447-2.191,0.01-2.916-1.899-3.805c-1.819-0.845-3.453-0.667-4.617,0.809&#10;&#9;&#9;&#9;c-1.77,2.246-2.922,4.693-1.57,7.65c0.479,1.05,0.75,2.196,1.157,3.415C59.406,52.433,60.307,52.002,61.347,49.27z M44.955,53.331&#10;&#9;&#9;&#9;c2.219,4.106,9.787,7.902,13.688,6.866C56.796,53.829,50.836,50.811,44.955,53.331z M46.589,41.431&#10;&#9;&#9;&#9;c-2.035-0.362-4.13-0.396-6.266-0.577c0.852,4.403,5.93,6.688,10.451,4.666C50.074,43.215,48.718,41.808,46.589,41.431z&#10;&#9;&#9;&#9; M63.106,61.135c0.139,0.766,0.896,1.707,1.601,1.984c0.473,0.187,1.742-0.49,1.977-1.062c0.891-2.178,1.506-4.468,2.271-6.867&#10;&#9;&#9;&#9;C65.37,55.333,62.598,58.293,63.106,61.135z"/>
      <path fill-rule="evenodd" clip-rule="evenodd" d="M174.689,74.219c0.913,0.272,1.812,0.687,2.744,0.785&#10;&#9;&#9;&#9;c1.773,0.186,3.584,0.375,5.34,0.185c0.699-0.078,1.601-1.054,1.821-1.794c0.134-0.453-0.762-1.369-1.374-1.838&#10;&#9;&#9;&#9;c-0.695-0.53-1.593-0.787-2.945-1.416c1.545-0.561,2.529-0.819,3.42-1.265c1.344-0.672,2.16-1.716,1.747-3.349&#10;&#9;&#9;&#9;c-0.907-3.594-4.727-6.1-8.499-5.623c-0.693,0.091-1.406,0.014-2.109,0.014c0.006-0.194,0.012-0.39,0.017-0.581&#10;&#9;&#9;&#9;c0.995-0.472,1.99-0.943,3.108-1.476c-2.873-1.773-5.185-1.741-12.166-0.062c-1.246,1.624-2.249,2.927-3.252,4.232l0.046,0.043&#10;&#9;&#9;&#9;c0.323-2.634,2.409-4.997,1.336-8.031c-3.39,0.297-3.597,3.546-5.398,5.338c-0.011-1.316,0.319-2.499,0.52-3.703&#10;&#9;&#9;&#9;c0.366-2.194,0.765-4.396,0.934-6.607c0.114-1.465,0-3.023-1.85-3.963c-2.095,0.815-3.634,2.162-3.948,4.705&#10;&#9;&#9;&#9;c-0.158,1.277-0.178,2.724-1.701,3.465c-0.87-2.425-1.021-2.553,0.163-4.925c1.583-3.168,0.464-5.783-1.317-8.301&#10;&#9;&#9;&#9;c-0.849-1.201-2.189-1.759-3.661-1.406c-1.64,0.396-1.942,1.864-2.067,3.251c-0.094,1.011,0.102,2.047,0.168,3.072&#10;&#9;&#9;&#9;c-0.187,0.096-0.369,0.19-0.556,0.285c-0.974-1.264-1.946-2.524-2.63-3.409c0.855-0.958,1.609-1.567,2.055-2.349&#10;&#9;&#9;&#9;c1.28-2.252,2.797-2.922,5.264-2.151c2.004,0.623,3.109,2.136,3.904,3.944c0.453,1.033,0.854,2.09,1.306,3.207&#10;&#9;&#9;&#9;c0.733-0.229,1.228-0.402,1.73-0.538c2.465-0.665,3.421-0.218,4.027,2.127c0.286,1.11,0.29,2.307,0.306,3.466&#10;&#9;&#9;&#9;c0.016,1.131-0.118,2.264-0.221,3.939c2.318-0.933,4.189-1.877,6.17-2.429c2.004-0.557,4.123-1.03,6.176-0.978&#10;&#9;&#9;&#9;c2.336,0.057,3.461,1.486,4.076,3.791c0.225,0.836,0.663,1.712,1.252,2.336c2.39,2.537,4.984,4.887,7.29,7.492&#10;&#9;&#9;&#9;c1.642,1.854,1.492,3.171,0.021,5.16c-0.358,0.489-0.774,0.938-1.114,1.343c2.244,4.289,0.793,6.644-3.876,6.603&#10;&#9;&#9;&#9;c-2.425-0.023-4.621-0.632-6.212-2.634L174.689,74.219z M174.271,54.875c0.576-0.103,1.273-0.777,1.469-1.342&#10;&#9;&#9;&#9;c0.133-0.387-0.385-1.184-0.822-1.547c-1.686-1.395-5.996-1.143-7.414,0.54c-0.559,0.663-0.58,1.776-1.039,3.343&#10;&#9;&#9;&#9;C169.682,55.482,171.995,55.28,174.271,54.875z"/>
      <path fill-rule="evenodd" clip-rule="evenodd" d="M176.832,111.159c0.66,0.147,1.561,0.418,2.479,0.545&#10;&#9;&#9;&#9;c2.871,0.401,4.28-1.042,3.718-3.876c-0.281-1.42-0.781-2.8-1.177-4.181c0.507-0.276,0.761-0.48,1.05-0.562&#10;&#9;&#9;&#9;c3.062-0.836,3.441-1.689,1.678-4.362c-1.313-1.99-2.584-4.07-5.108-5.589c1.376,3.151,4.081,5.012,4.915,8.015&#10;&#9;&#9;&#9;c-2.268,0.523-2.268,0.523-6.688-2.464c0.459,1.022,0.709,1.62,0.99,2.203c1.107,2.296,2.365,4.528,3.293,6.894&#10;&#9;&#9;&#9;c0.698,1.779-0.387,3.018-2.252,2.658c-1.898-0.366-3.588-1.165-4.551-3.104c-0.751-1.5-1.702-2.913-2.686-4.276&#10;&#9;&#9;&#9;c-0.447-0.623-1.185-1.036-1.791-1.545c-0.192,0.125-0.386,0.246-0.579,0.37c0.308,0.824,0.509,1.712,0.946,2.465&#10;&#9;&#9;&#9;c0.697,1.188,1.643,2.232,2.31,3.436c0.554,0.996,1.067,2.103,1.222,3.215c0.191,1.347,0.201,2.948-1.438,3.523&#10;&#9;&#9;&#9;c-1.532,0.539-2.332-0.745-3.025-1.783c-0.938-1.407-1.732-2.913-2.566-4.384c-0.437-0.773-0.828-1.566-1.479-2.801&#10;&#9;&#9;&#9;c-0.774,1.832,0.232,2.749,0.443,3.798c0.354,1.755,0.891,3.495,1.041,5.267c0.127,1.47-0.645,2.734-2.164,3.169&#10;&#9;&#9;&#9;c-1.471,0.42-2.539-0.534-3.156-1.642c-1.016-1.815-1.757-3.784-2.856-6.227c-0.176,1.036-0.484,1.656-0.318,2.094&#10;&#9;&#9;&#9;c0.71,1.87,1.282,3.886,2.418,5.48c1.976,2.774,5.001,2.457,6.712-0.475c0.422-0.723,0.688-1.533,1.088-2.451&#10;&#9;&#9;&#9;c1.66,0.494,3.122,2.794,4.829,1.329C175.362,114.838,175.867,112.931,176.832,111.159z"/>
      <path fill-rule="evenodd" clip-rule="evenodd" d="M127.205,34.338c0.48-1.91,0.973-3.824,1.436-5.739&#10;&#9;&#9;&#9;c0.545-2.247,1.566-4.174,3.629-5.38c0.537-0.313,1.141-0.631,1.742-0.696c1.154-0.122,2.271,0.345,2.428,1.528&#10;&#9;&#9;&#9;c0.08,0.599-0.611,1.501-1.195,1.947c-0.916,0.697-2.033,1.135-3.076,1.66c-0.543,0.274-1.109,0.504-1.665,0.754&#10;&#9;&#9;&#9;c0.226,0.294,0.452,0.59,0.679,0.881c0.547-0.119,1.154-0.127,1.628-0.383c1.306-0.705,2.575-1.48,3.821-2.291&#10;&#9;&#9;&#9;c2.558-1.664,3.053-1.586,4.798,0.944c1.694-0.485,3.39-1.074,5.13-1.451c2.539-0.554,4.197-0.009,4.783,1.379&#10;&#9;&#9;&#9;c0.633,1.496-0.196,4.266-1.686,5.476c-0.617,0.502-1.309,0.917-1.862,1.996c2.396,0,4.789,0,7.409,0&#10;&#9;&#9;&#9;c0.219-1.96-2.188-1.162-3.082-2.348c0.24-0.889,0.576-1.873,0.771-2.891c0.576-2.98-0.836-4.742-3.852-4.796&#10;&#9;&#9;&#9;c-1.059-0.019-2.199-0.134-3.165,0.2c-2.529,0.867-4.881,0.099-7.012-0.908c-1.734-0.817-3.333-2.232-4.54-3.748&#10;&#9;&#9;&#9;c-0.666-0.835-0.43-2.412-0.549-3.659c-0.236-2.52-0.374-5.054-0.687-7.564c-0.102-0.808-0.529-1.626-0.98-2.33&#10;&#9;&#9;&#9;c-1.132-1.759-2.562-1.793-3.773-0.039c-0.638,0.921-1.004,2.035-1.491,3.062c0.172,0.127,0.344,0.256,0.518,0.382&#10;&#9;&#9;&#9;c0.876-1.123,1.754-2.253,2.816-3.619c0.633,0.708,1.289,1.145,1.512,1.743c1.449,3.877,1.625,7.875,0.654,11.873&#10;&#9;&#9;&#9;c-0.21,0.862-0.934,1.642-1.547,2.352C127.903,26.001,126.623,29.86,127.205,34.338z"/>
      <path fill-rule="evenodd" clip-rule="evenodd" d="M28.492,117.973c-0.176-0.58-0.193-0.797-0.299-0.959&#10;&#9;&#9;&#9;c-1.496-2.275-1.605-3.179-0.523-4.547c1.121-1.422,3.134-1.719,5.238-0.737c0.887,0.411,1.753,0.873,2.916,1.458&#10;&#9;&#9;&#9;c0.154-2.004-1.279-2.322-1.865-3.207c-0.777-1.179-2.547-2.108-1.641-3.79c0.827-1.534,2.578-1.752,4.215-1.703&#10;&#9;&#9;&#9;c1.242,0.036,2.482,0.228,4.058,0.383c-0.02-3.499-3.222-5.718-3.056-8.984c3.805,0.187,7.43,3.464,10.223,9.472&#10;&#9;&#9;&#9;c0.123-1.006,0.363-1.572,0.219-2.012c-0.844-2.605-2.565-4.558-4.671-6.275c-2.966-2.422-5.692-3.85-8.905-4.26&#10;&#9;&#9;&#9;c0.714,2.89,1.404,5.683,2.199,8.908c-0.604,0.193-1.567,0.439-2.48,0.811c-2.269,0.924-4.245,2.115-3.895,5.066&#10;&#9;&#9;&#9;c0.125,1.07-0.271,1.826-1.248,2.338c-0.652,0.344-1.295,0.756-1.842,1.25C24.708,113.366,25.126,116.054,28.492,117.973z"/>
      <path fill-rule="evenodd" clip-rule="evenodd" d="M28.826,128.452c-2.116-0.968-3.174-0.229-3.657,1.249&#10;&#9;&#9;&#9;c-1.067,3.264-3.708,4.487-6.636,5.328c-2.395,0.69-2.779,0.385-3.455-2.19c-0.07-0.268-0.209-0.516-0.425-1.038&#10;&#9;&#9;&#9;c-0.816,1.407-0.974,2.605-0.183,3.751c0.837,1.214,2.158,1.353,3.438,0.967c2.111-0.638,4.179-1.434,6.481-2.235&#10;&#9;&#9;&#9;c0.311,0.681,0.655,1.417,0.984,2.162c1.3,2.941,4.1,4.376,7.275,3.683c0.724-0.158,1.478-0.327,2.116-0.678&#10;&#9;&#9;&#9;c2.115-1.155,3.973-1.394,6.471-0.401c3.891,1.548,9.18-1.62,11.363-6.162c0.516-1.071,0.807-2.247,0.867-3.567&#10;&#9;&#9;&#9;c-1.9,3.975-4.17,7.455-8.752,8.497c-1.912,0.432-3.791,0.267-5.463-1.281c0.577-2.794,3.142-4.93,2.592-8.178&#10;&#9;&#9;&#9;c-0.955,1.859-1.908,3.722-3.137,6.111c-0.42-1.191-0.628-1.784-1.048-2.979c-0.151,0.987-0.253,1.359-0.259,1.729&#10;&#9;&#9;&#9;c-0.044,3.202-1.236,4.733-4.203,5.367c-3.176,0.68-5.806-0.46-6.991-3.019c-0.739-1.6-0.67-3.038,0.6-4.398&#10;&#9;&#9;&#9;C27.527,130.398,28.082,129.467,28.826,128.452z"/>
      <path fill-rule="evenodd" clip-rule="evenodd" d="M194.515,104.073c3.805,1.485,6.447,0.169,8.866-1.962&#10;&#9;&#9;&#9;c1.161-1.02,1.226-2.188,0.153-3.327c-1.02-1.078-2.098-2.101-3.141-3.155c-0.716-0.726-1.416-1.464-2.315-2.399&#10;&#9;&#9;&#9;c2.091-0.682,3.835-1.25,5.505-1.792c0.173-2.473-2.097-2.728-3.217-4.336c1.763-0.108,3.223-0.075,4.635-0.313&#10;&#9;&#9;&#9;c1.753-0.293,3.975-0.444,4.486-2.425c0.529-2.055-1.673-2.678-3.022-3.569c-1.192-0.785-2.526-1.359-3.798-2.029&#10;&#9;&#9;&#9;c-0.115,0.184-0.231,0.365-0.348,0.549c1.949,1.386,3.9,2.775,6.297,4.479c-5.793,3.469-11.342,0.758-16.689,0.818&#10;&#9;&#9;&#9;c-0.059,0.264-0.115,0.525-0.172,0.789c1.666,0.662,3.363,1.26,4.988,2.014c1.605,0.746,3.137,1.653,5.439,2.885&#10;&#9;&#9;&#9;c-2.611,0.828-4.485,1.42-7.008,2.218c2.836,2.776,5.189,5.085,7.545,7.388C201.05,103.605,197.419,102.556,194.515,104.073z"/>
      <path fill-rule="evenodd" clip-rule="evenodd" d="M26.595,84.403c0.006-0.318,0.062-0.646,0.008-0.955&#10;&#9;&#9;&#9;c-0.236-1.38-0.607-2.892,0.891-3.728c1.629-0.907,3.348-0.556,4.799,0.516c1.104,0.818,2.001,1.908,3.07,2.776&#10;&#9;&#9;&#9;c0.608,0.497,1.376,0.8,2.561,0.8c-0.232-0.591-0.322-1.319-0.729-1.741c-0.728-0.759-1.702-1.273-2.466-2&#10;&#9;&#9;&#9;c-0.665-0.637-1.386-1.348-1.714-2.175c-0.426-1.075-0.635-2.529,0.602-3.137c0.796-0.392,2.1-0.286,2.953,0.097&#10;&#9;&#9;&#9;c1.732,0.773,3.314,1.888,4.961,2.857c0.439,0.256,0.889,0.5,1.721,0.967c-0.362-2.475-1.835-3.903-2.779-5.585&#10;&#9;&#9;&#9;c-0.615-1.1-1.275-2.2-1.68-3.38c-0.199-0.578-0.09-1.674,0.293-1.934c0.459-0.314,1.504-0.231,2.03,0.098&#10;&#9;&#9;&#9;c1.062,0.668,2.034,1.535,2.88,2.469c2.502,2.761,3.703,6.152,4.418,9.744c0.268,1.342,0.512,2.689,1.231,4.09&#10;&#9;&#9;&#9;c0.149-0.62,0.485-1.262,0.417-1.859c-0.602-5.32-2.563-10.064-6.301-13.961c-0.705-0.734-1.691-1.448-2.65-1.629&#10;&#9;&#9;&#9;c-1.037-0.191-2.613-0.121-3.179,0.518c-0.554,0.633-0.362,2.186-0.078,3.216c0.301,1.091,1.103,2.041,1.671,3.063&#10;&#9;&#9;&#9;c0.293,0.526,0.547,1.073,1.161,2.289c-1.612-0.918-2.561-1.506-3.55-2.018c-3.129-1.618-4.691-0.897-5.549,2.509&#10;&#9;&#9;&#9;c-0.102,0.4-0.226,0.796-0.383,1.341c-1.067,0.128-2.106,0.207-3.131,0.383c-1.648,0.287-2.562,1.361-3.004,2.931&#10;&#9;&#9;&#9;c-0.448,1.601,0.146,2.68,1.563,3.405L26.595,84.403z"/>
      <path fill-rule="evenodd" clip-rule="evenodd" d="M160.487,97.405c2.954,0.933,3.136-1.147,3.95-2.385&#10;&#9;&#9;&#9;c1.305,0.466,2.47,0.973,3.685,1.291c1.333,0.35,2.791,0.668,3.867-0.553c1.158-1.314,0.741-2.779,0.054-4.166&#10;&#9;&#9;&#9;c-0.467-0.939-1.014-1.841-1.477-2.678c0.961-1.676,1.831-3.19,2.76-4.805c1.275-0.541,2.82-1.004,4.158-1.81&#10;&#9;&#9;&#9;c2.002-1.214,1.936-2.647-0.062-3.863c-0.685-0.418-1.501-0.623-2.532-0.546c0.865,0.738,1.73,1.478,2.781,2.377&#10;&#9;&#9;&#9;c-3.961,3.868-8.465,1.67-12.726,1.643c1.671,1.934,4.932,0.582,6.035,3.289c-1.12,1.624-1.12,1.624-5.265,1.598&#10;&#9;&#9;&#9;c2.56,2.338,5.679,3.98,5.436,8.143c-5.763,0.423-9.012-4.145-13.693-6.088c0.52,0.67,1.013,1.361,1.562,2.004&#10;&#9;&#9;&#9;c0.752,0.883,1.572,1.707,2.322,2.596C162.531,94.856,162.919,96.229,160.487,97.405z"/>
      <path fill-rule="evenodd" clip-rule="evenodd" d="M86.399,125.265c2.228,0.725,3.78,0.688,5.058-0.431&#10;&#9;&#9;&#9;c1.361-1.189-0.137-2.312-0.338-3.427c0.922-1.286,2.328-2.452,2.576-3.828c0.246-1.369-0.67-2.946-1.159-4.739&#10;&#9;&#9;&#9;c0.715-0.269,1.677-0.575,2.597-0.981c2.42-1.063,2.998-3.351,1.374-5.455c-0.384-0.495-0.866-0.95-1.388-1.299&#10;&#9;&#9;&#9;c-4.338-2.896-11.642-0.512-13.678,4.444c0.18,0.063,0.494,0.206,0.518,0.169c2.562-4.15,6.543-4.711,10.866-4.182&#10;&#9;&#9;&#9;c0.864,0.104,1.796,0.681,2.447,1.303c1.839,1.75,1.37,3.55-1.124,4.169c-1.844,0.459-3.769,0.593-5.656,0.887&#10;&#9;&#9;&#9;c-1.504,0.234-3.008,0.486-5.178,0.842c1.713,1.318,2.824,0.679,3.863,0.568c1.944-0.205,3.591,0.311,4.818,1.861&#10;&#9;&#9;&#9;c1.158,1.465,0.975,2.749-0.551,3.805c-1.38,0.955-2.922,1.246-4.558,0.809c-1.249-0.332-2.452-0.506-3.649,0.59&#10;&#9;&#9;&#9;c1.89,2.447,5.846-0.261,7.311,3.5C89.369,124.264,88.247,124.641,86.399,125.265z"/>
      <path fill-rule="evenodd" clip-rule="evenodd" d="M147.841,120.723c1.124,1.501,2.248,3,3.404,4.55&#10;&#9;&#9;&#9;c-1.187,2.296-1.514,2.599-3.728,2.04c-1.51-0.383-2.964-1.097-4.347-1.841c-1.371-0.739-2.623-1.7-4.361-2.179&#10;&#9;&#9;&#9;c0.279,0.604,0.508,1.237,0.844,1.806c2.31,3.896,2.095,4.729-1.834,6.879c2.769,1.222,3.999,0.027,4.793-4.877&#10;&#9;&#9;&#9;c1.393,0.494,2.732,1.003,4.098,1.444c2.13,0.691,3.875,0.266,5.404-1.535c0.674-0.794,1.841-1.313,2.883-1.619&#10;&#9;&#9;&#9;c2.566-0.763,4.327-3.585,3.184-5.897c-1.014-2.048-2.253-4.089-4.574-5.042l0.043-0.043c0.959,1.496,1.921,2.993,2.879,4.488&#10;&#9;&#9;&#9;c1.113,1.745,1,2.968-0.383,4.222c-1.319,1.192-2.479,0.985-3.068-0.736c-0.545-1.589-1.346-2.885-2.889-3.583&#10;&#9;&#9;&#9;c-1.659-0.752-2.502-0.006-2.316,1.976c0.502-1.181,1.373-1.246,2.332-0.671c1.047,0.63,1.807,1.443,0.91,3.171&#10;&#9;&#9;&#9;C149.936,122.354,148.892,121.538,147.841,120.723z"/>
      <path fill-rule="evenodd" clip-rule="evenodd" d="M193.222,108.732c0.652,0.439,1.332,0.839,1.949,1.323&#10;&#9;&#9;&#9;c0.998,0.775,2.113,1.48,2.872,2.455c0.507,0.652,0.695,1.748,0.575,2.579c-0.045,0.307-1.377,0.506-2.143,0.602&#10;&#9;&#9;&#9;c-0.8,0.103-1.621,0.021-2.771,0.021c0.966,2.1,2.521,1.989,3.927,2.022c2.538,0.056,4.792,0.846,6.724,2.461&#10;&#9;&#9;&#9;c1.669,1.391,1.625,2.078,0.184,3.644c-1.284,1.395-2.967,1.848-4.641,1.59c-3.937-0.605-7.998-0.933-11.111-4.021&#10;&#9;&#9;&#9;c-0.598-0.593-1.835-0.545-2.776-0.793c-0.085,0.201-0.169,0.408-0.253,0.612c0.535,0.387,1.02,0.906,1.617,1.14&#10;&#9;&#9;&#9;c3.738,1.466,7.451,3.045,11.278,4.231c2.573,0.801,5.077,0.066,6.981-1.979c1.689-1.811,1.533-3.591-0.34-5.208&#10;&#9;&#9;&#9;c-0.321-0.275-0.648-0.579-1.025-0.748c-2.387-1.052-3.9-2.426-4.551-5.346C199.102,110.545,196.351,109.004,193.222,108.732z"/>
      <path fill-rule="evenodd" clip-rule="evenodd" d="M92.582,49.591c0.462-2.897,1.911-4.741,4.809-5.284&#10;&#9;&#9;&#9;c2.789-0.52,4.663,1.594,7.266,2.179c-0.798-0.838-1.706-1.603-2.359-2.54c-0.436-0.627-0.932-1.831-0.651-2.191&#10;&#9;&#9;&#9;c0.489-0.627,1.661-1.239,2.362-1.075c1.724,0.404,3.354,1.223,4.992,1.942c0.809,0.355,1.551,0.865,2.483,1.396&#10;&#9;&#9;&#9;c-0.758-2.932-1.466-5.518-2.063-8.132c-0.095-0.413,0.308-0.94,0.634-1.832c1.451,1.009,2.675,1.858,4.47,3.102&#10;&#9;&#9;&#9;c-0.373-0.998-0.409-1.435-0.646-1.669c-1.232-1.221-2.233-3.267-4.385-2.368c-2.09,0.874-1.112,2.921-1.116,4.526&#10;&#9;&#9;&#9;c0,0.823,0.145,1.646,0.23,2.571c-2.038-0.299-3.87-0.784-5.703-0.779c-2.086,0.005-3.272,1.325-3.117,3.421&#10;&#9;&#9;&#9;C93.679,43.606,91.321,45.827,92.582,49.591z"/>
      <path fill-rule="evenodd" clip-rule="evenodd" d="M9.994,79.25c-0.184,0.659-0.619,1.327-0.453,1.769&#10;&#9;&#9;&#9;c1.084,2.868,2.166,5.751,3.53,8.488c0.574,1.146,1.788,2.011,2.818,2.878c0.288,0.24,0.955,0.035,1.617,0.035&#10;&#9;&#9;&#9;c-0.124-2.293-1.673-3.54-2.847-4.93c-1.031-1.218-1.76-2.379-1.055-4.176c3.992-0.909,6.402,2.089,9.104,4.358&#10;&#9;&#9;&#9;c0.143-0.165,0.284-0.331,0.428-0.497c-0.099-0.454-0.042-1.068-0.321-1.34c-2.819-2.73-5.554-5.588-10.059-5.203&#10;&#9;&#9;&#9;C11.947,80.702,11.057,79.809,9.994,79.25z"/>
      <path fill-rule="evenodd" clip-rule="evenodd" d="M90.396,136.137c-1.127-1.521-2.205-3.088-3.424-4.537&#10;&#9;&#9;&#9;c-0.24-0.287-1.012-0.13-2.17-0.232c0.771,1.175,1.269,1.799,1.621,2.497c0.518,1.026,1.141,2.064,1.336,3.166&#10;&#9;&#9;&#9;c0.266,1.496-0.682,2.212-2.127,1.714c-2.1-0.719-3.771-1.962-4.368-4.254c-0.285-1.098-0.519-2.21-1.005-3.312&#10;&#9;&#9;&#9;c-1.396,3.594-0.207,7.445-1.105,11.185c-3.024,0.354-3.711-2.972-6.334-3.745c0.885,2.632,2.52,4.255,4.735,5.287&#10;&#9;&#9;&#9;c1.503,0.701,2.438,0.237,2.835-1.439c0.359-1.528,0.409-3.128,0.643-5.084c0.837,0.605,1.458,1.061,2.084,1.507&#10;&#9;&#9;&#9;c3.05,2.176,4.797,1.665,6.223-1.754c0.176-0.425,0.721-0.694,1.096-1.04L90.396,136.137z"/>
      <path fill-rule="evenodd" clip-rule="evenodd" d="M172.792,38.281c-1.965,0.911-3.504,1.625-5.264,2.442&#10;&#9;&#9;&#9;c1.976,2.625,5.527-0.618,6.879,2.668c-0.816,1.911-3.297,0.425-4.289,1.958c1.519,1.263,1.744,1.274,5.309,0.261&#10;&#9;&#9;&#9;c0.666-3.802,0.525-4.005-3.904-5.154c1.345-0.598,2.42-1.078,3.586-1.594c-1.825-3.396-5.1-2.816-8.013-3.297&#10;&#9;&#9;&#9;c-0.353-1.955-1.04-3.527-3.37-3.469c-2.004,0.053-3.338,0.89-4.12,2.965c1.347-0.609,2.413-1.299,3.567-1.524&#10;&#9;&#9;&#9;c0.654-0.13,1.459,0.501,2.196,0.789c-0.263,0.616-0.512,1.239-0.794,1.846c-0.168,0.36-0.391,0.702-0.812,1.455&#10;&#9;&#9;&#9;C167.01,36.224,169.816,35.795,172.792,38.281z"/>
      <path fill-rule="evenodd" clip-rule="evenodd" d="M130.691,94.632c-1.111-3.097-3.204-4.335-5.754-4.819&#10;&#9;&#9;&#9;c-1.486-0.283-2.769-0.644-4.021-1.615c-1.792-1.389-3.821-0.933-5.388,0.818c3.674-0.278,3.674-0.278,5.057,0.787&#10;&#9;&#9;&#9;c-1.006,1.553-1.836,3.275-3.088,4.6c-0.758,0.803-2.168,0.985-3.314,1.462c2.797,1.365,6.74,0.069,8.297-2.691&#10;&#9;&#9;&#9;c1.426-2.532,1.874-2.732,4.355-1.36C128.077,92.498,129.15,93.489,130.691,94.632z"/>
      <path fill-rule="evenodd" clip-rule="evenodd" d="M85.306,32.723c-1.096-1.224-1.916-0.303-2.66,0.415&#10;&#9;&#9;&#9;c-2.362,2.28-3.942,4.974-4.132,8.341c-0.029,0.503-0.058,1.007-0.108,1.887c-2.242-0.351-4.324-0.528-6.331-1.022&#10;&#9;&#9;&#9;c-1.946-0.479-2.438,0.421-2.712,2.444c0.846-0.666,1.365-1.079,2.131-1.681c0.867,1.113,1.678,2.158,2.628,3.382&#10;&#9;&#9;&#9;c0.228-0.779,0.415-1.419,0.613-2.095c3.552-0.7,5.677,1.233,7.421,3.813c0.771,1.142,1.456,2.293,3.431,2.649&#10;&#9;&#9;&#9;c-0.339-0.962-0.446-1.663-0.802-2.192c-0.464-0.694-1.104-1.282-1.707-1.881c-5.053-4.998-4.112-10.834,2.282-14.108&#10;&#9;&#9;&#9;L85.306,32.723z"/>
      <path fill-rule="evenodd" clip-rule="evenodd" d="M20.906,101.014c-1.584-0.096-3.174-0.332-4.751-0.261&#10;&#9;&#9;&#9;c-3.553,0.157-5.217,2.847-3.913,6.171c1.049,2.68,2.319,5.245,4.537,7.177c1.732,1.508,2.758,1.269,4.537-1.334&#10;&#9;&#9;&#9;c-3.004,1.463-4.374-0.202-5.555-2.127c-0.773-1.26-1.576-2.531-2.104-3.901c-1.105-2.856-0.204-4.199,2.821-4.485&#10;&#9;&#9;&#9;c1.547-0.146,3.242,0.233,4.379-1.29L20.906,101.014z"/>
      <path fill-rule="evenodd" clip-rule="evenodd" d="M192.214,70.452c3.217,2.481,6.566,2.09,7.654-0.333&#10;&#9;&#9;&#9;c1.022-2.274-1.02-6.901-3.452-7.821c-2.743-1.036-4.81,0.154-5.927,3.588c0.363-0.204,0.639-0.275,0.797-0.453&#10;&#9;&#9;&#9;c2.617-2.983,5.865-2.365,7.246,1.391c0.82,2.232-0.225,3.847-2.613,3.886C194.685,70.731,193.45,70.542,192.214,70.452z"/>
      <path fill-rule="evenodd" clip-rule="evenodd" d="M96.812,23.124c-0.408-1.088-0.807-2.182-1.229-3.266&#10;&#9;&#9;&#9;c-0.307-0.788-0.846-1.55-0.917-2.352c-0.085-0.981,0.212-1.995,0.344-2.994c0.994,0.133,2.126,0.004,2.956,0.441&#10;&#9;&#9;&#9;c2.813,1.49,4.499,4.126,6.246,6.67c0.375,0.542,0.783,1.063,1.661,1.357c-0.143-0.555-0.194-1.16-0.45-1.655&#10;&#9;&#9;&#9;c-0.485-0.939-1.262-1.755-1.611-2.732c-1.182-3.322-4.357-4.142-6.986-5.454c-2.045-1.021-4.092,0.61-3.631,2.828&#10;&#9;&#9;&#9;c0.547,2.63,1.024,5.481,3.654,7.123L96.812,23.124z"/>
      <path fill-rule="evenodd" clip-rule="evenodd" d="M185.075,51.081c1.735-2.51,2.013-5.498,2.296-8.398&#10;&#9;&#9;&#9;c0.197-2.021-1.654-3.271-3.664-2.733c-3.15,0.841-5.397,2.837-6.859,5.73c-0.086,0.174-0.1,0.423-0.053,0.614&#10;&#9;&#9;&#9;c0.045,0.188,0.211,0.343,0.516,0.8c0.791-1.042,1.648-1.938,2.227-2.992c0.922-1.675,2.449-2.27,4.125-2.665&#10;&#9;&#9;&#9;c1.824-0.43,2.643,0.271,2.334,2.178c-0.304,1.88-0.862,3.716-1.288,5.579c-0.136,0.584-0.208,1.184-0.306,1.777&#10;&#9;&#9;&#9;C184.625,51.008,184.849,51.045,185.075,51.081z"/>
      <path fill-rule="evenodd" clip-rule="evenodd" d="M20.857,100.963c0.638,0.312,1.274,0.625,2.305,1.131&#10;&#9;&#9;&#9;c-0.4-2.982-3.443-3.364-4.229-5.66c2.615-1.619,5.227-0.454,7.91,0.21c-1.539-3.306-6.879-3.506-10.826-0.304&#10;&#9;&#9;&#9;c1.652,1.581,3.27,3.127,4.889,4.674L20.857,100.963z"/>
      <path fill-rule="evenodd" clip-rule="evenodd" d="M16.665,116.468c-2.536-0.669-4.917,0.668-6.071,3.261&#10;&#9;&#9;&#9;c-0.873,1.966-0.338,3.563,1.646,4.907c2.946,1.997,6.285,1.829,9.508-0.585c-0.936-0.867-1.861-0.271-2.609,0.038&#10;&#9;&#9;&#9;c-1.947,0.802-3.791,0.474-5.548-0.383c-2.533-1.236-2.839-3.519-0.655-5.281C13.942,117.611,15.262,117.185,16.665,116.468z"/>
      <path fill-rule="evenodd" clip-rule="evenodd" d="M12.041,115.664c-3.22-2.21-7.768-1.414-10.625-4.659&#10;&#9;&#9;&#9;c2.06-3.617,4.902-1.934,7.746-1.161c-2.416-2.682-6.35-2.803-8.398-0.485c-1.037,1.174-1.089,2.473,0.289,3.24&#10;&#9;&#9;&#9;C4.429,114.484,8.071,115.653,12.041,115.664z"/>
      <path fill-rule="evenodd" clip-rule="evenodd" d="M157.924,127.013c3.868,1.756,7.206,3.271,10.542,4.784&#10;&#9;&#9;&#9;c0.387,0.177,0.755,0.394,1.149,0.541c2.263,0.854,4.044,0.48,4.794-0.988c0.785-1.534,0.082-3.101-2.542-4.96&#10;&#9;&#9;&#9;c0.522,1.214,0.919,1.987,1.192,2.803c0.484,1.455-0.125,2.284-1.656,2.18c-0.828-0.06-1.68-0.296-2.451-0.613&#10;&#9;&#9;&#9;c-1.856-0.766-3.678-1.619-5.502-2.462C161.839,127.547,160.247,126.768,157.924,127.013z"/>
      <path fill-rule="evenodd" clip-rule="evenodd" d="M111.118,11.301c-0.126,0.898-0.255,1.799-0.383,2.7&#10;&#9;&#9;&#9;c-0.245,0.183-0.489,0.366-0.735,0.549c-0.5-0.774-0.879-1.675-1.531-2.291c-0.898-0.852-1.916-1.789-3.05-2.119&#10;&#9;&#9;&#9;c-0.966-0.28-2.309-0.021-3.232,0.473c-1.241,0.662-1.399,1.964-0.875,3.314c0.274-0.113,0.56-0.146,0.599-0.263&#10;&#9;&#9;&#9;c0.953-2.849,2.502-3.444,4.812-1.687c0.813,0.62,1.354,1.594,2.052,2.375c0.725,0.814,1.488,1.594,2.364,2.526&#10;&#9;&#9;&#9;c1.565-2.081,0.927-3.846,0.803-5.583C111.666,11.296,111.392,11.297,111.118,11.301z"/>
      <path fill-rule="evenodd" clip-rule="evenodd" d="M90.435,136.094c2.032,2.473,4.924,3.599,7.732,4.786&#10;&#9;&#9;&#9;c1.771,0.748,2.766-0.147,2.231-1.975c-0.616-2.115-1.503-4.151-2.286-6.217c-0.213-0.562-0.482-1.101-0.727-1.649&#10;&#9;&#9;&#9;c-0.234,0.213-0.466,0.426-0.699,0.64c0.812,2.433,1.625,4.866,2.693,8.062c-3.454-1.383-6.219-2.495-8.984-3.604L90.435,136.094z&#10;&#9;&#9;&#9;"/>
      <path fill-rule="evenodd" clip-rule="evenodd" d="M198.27,51.81c0.995-1.193,1.204-2.562,0.325-3.808&#10;&#9;&#9;&#9;c-0.979-1.39-2.508-0.975-3.805-0.559c-2.949,0.948-5.713,2.276-7.871,4.616c-0.973,1.054-1.679,2.149-0.928,4.228&#10;&#9;&#9;&#9;c1.479-3.916,4.391-5.71,7.58-7.104c4.218-1.845,4.569-0.373,4.741,2.664L198.27,51.81z"/>
      <path fill-rule="evenodd" clip-rule="evenodd" d="M126.831,100.366c-1.069-0.612-2.137-1.223-3.709-2.124&#10;&#9;&#9;&#9;c1.77-0.704,3.151-1.255,4.528-1.806c-3.637-1.055-6.154,0.732-9.27,3.193c3.293,0.871,5.869,0.969,8.484,0.684L126.831,100.366z"/>
      <path fill-rule="evenodd" clip-rule="evenodd" d="M91.697,72.286c1.497-0.871,1.439-2.172,1.042-3.607&#10;&#9;&#9;&#9;c-0.464-1.664-0.997-3.357-2.696-4.072c-0.568-0.237-1.721,0.134-2.204,0.622c-1.364,1.382-2.22,3.067-1.656,5.894&#10;&#9;&#9;&#9;c0.597-1.461,0.859-2.371,1.323-3.17c0.494-0.848,1.18-1.589,1.84-2.455c2.678,1.932,2.431,4.414,2.398,6.827L91.697,72.286z"/>
      <path fill-rule="evenodd" clip-rule="evenodd" d="M143.534,18.807c1.595-0.688,3.168-1.844,4.792-1.922&#10;&#9;&#9;&#9;c1.473-0.071,3,1.036,4.68,1.694c-0.104-1.714-1.353-2.525-2.862-2.95C147.72,14.942,145.358,15.985,143.534,18.807z"/>
      <path fill-rule="evenodd" clip-rule="evenodd" d="M105.356,57.711c-4.267-0.192-7.052-3.151-10.537-5.647&#10;&#9;&#9;&#9;C97.053,56.661,102.339,59.456,105.356,57.711z"/>
      <path fill-rule="evenodd" clip-rule="evenodd" d="M61.566,132.125c0.078,2.062,1.86,4.235-0.467,6.441&#10;&#9;&#9;&#9;c-0.945-0.551-1.976-1.148-3.004-1.745c-0.037,0.187-0.173,0.429-0.102,0.549c0.842,1.384,1.75,2.782,3.684,2.366&#10;&#9;&#9;&#9;c1.123-0.241,2.072-2.561,1.732-4.428c-0.209-1.152-0.811-2.234-1.238-3.352C61.97,132.017,61.767,132.071,61.566,132.125z"/>
      <path fill-rule="evenodd" clip-rule="evenodd" d="M52.16,28.219c0.312,1.121,0.647,2.234,0.936,3.36&#10;&#9;&#9;&#9;c0.922,3.626,0.545,5.788-1.491,8.693c1.636-0.263,1.958-0.44,2.442-2.331c0.903-3.508,1.092-6.934-1.926-9.688&#10;&#9;&#9;&#9;C52.119,28.253,52.16,28.219,52.16,28.219z"/>
      <path fill-rule="evenodd" clip-rule="evenodd" d="M116.238,40.079c1.061,3.119,2.122,6.234,3.153,9.266&#10;&#9;&#9;&#9;C120.486,47.416,119.473,43.855,116.238,40.079z"/>
      <path fill-rule="evenodd" clip-rule="evenodd" d="M199.625,77.623c-4.729-3.271-8.258-2.884-10.437,0.98&#10;&#9;&#9;&#9;c1.713-0.741,3.268-1.847,4.918-2.016C195.761,76.418,197.509,77.183,199.625,77.623z"/>
      <path fill-rule="evenodd" clip-rule="evenodd" d="M26.633,84.37c1.432,4.242,5.162,6.569,8.047,4.94&#10;&#9;&#9;&#9;c-1.503-0.634-3.062-1.095-4.403-1.909c-1.339-0.812-2.463-1.982-3.682-2.998L26.633,84.37z"/>
      <path fill-rule="evenodd" clip-rule="evenodd" d="M40.435,121.038c-2.877-0.423-5.345-0.784-7.849-1.15&#10;&#9;&#9;&#9;C34.459,122.24,37.333,122.742,40.435,121.038z"/>
      <path fill-rule="evenodd" clip-rule="evenodd" d="M96.849,23.09c0.666,2.074,1.229,4.192,2.061,6.197&#10;&#9;&#9;&#9;c0.285,0.68,1.263,1.069,2.184,1.34c-0.554-3.086-2.162-5.444-4.281-7.504L96.849,23.09z"/>
      <path fill-rule="evenodd" clip-rule="evenodd" d="M198.313,51.848c-1.364,2.21-2.728,4.424-4.181,6.783&#10;&#9;&#9;&#9;c2.346-0.578,3.716-2.953,4.138-6.821L198.313,51.848z"/>
      <path fill-rule="evenodd" clip-rule="evenodd" d="M191.638,107.596c-2.424-0.43-3.386,0.116-3.896,1.875&#10;&#9;&#9;&#9;c-0.447,1.533,0.374,2.09,1.762,2.338C188.717,108.483,188.08,109.37,191.638,107.596z"/>
      <path fill-rule="evenodd" clip-rule="evenodd" d="M162.586,62.075c-1.704,1.103-3.405,2.207-5.11,3.311&#10;&#9;&#9;&#9;c2.643,0.261,4.367-0.802,5.064-3.354L162.586,62.075z"/>
      <path fill-rule="evenodd" clip-rule="evenodd" d="M161.086,74.056c1.612-0.341,3.456-0.73,5.048-1.064&#10;&#9;&#9;&#9;C164.099,71.579,162.471,71.908,161.086,74.056z"/>
      <path fill-rule="evenodd" clip-rule="evenodd" d="M126.552,18.575c0.088-1.514,0.178-3.024,0.266-4.535&#10;&#9;&#9;&#9;c-0.296-0.027-0.592-0.052-0.889-0.078c-0.174,1.518-0.349,3.034-0.523,4.555C125.79,18.535,126.169,18.553,126.552,18.575z"/>
      <path fill-rule="evenodd" clip-rule="evenodd" d="M111.244,9.107c0.689-1.439,1.227-2.558,1.895-3.952&#10;&#9;&#9;&#9;c-0.382-0.021-1.188-0.285-1.766-0.029C110.618,5.458,110.66,6.425,111.244,9.107z"/>
      <path fill-rule="evenodd" clip-rule="evenodd" d="M174.471,122.327c0.753,1.321,1.453,2.202,3.052,0.872&#10;&#9;&#9;&#9;C176.892,121.83,176.169,121.006,174.471,122.327z"/>
      <path fill-rule="evenodd" clip-rule="evenodd" d="M153.607,114.452c-1.631-2.648-2.752-2.91-5.201-1.026&#10;&#9;&#9;&#9;c1.742,0.818,3.871-0.798,5.244,0.983L153.607,114.452z"/>
      <path fill-rule="evenodd" clip-rule="evenodd" d="M182.313,130.151c-1.372,0.7-2.132,1.086-3.077,1.568&#10;&#9;&#9;&#9;c0.892,0.693,1.768,1.447,2.886,0.74C182.436,132.263,182.242,131.256,182.313,130.151z"/>
      <path fill-rule="evenodd" clip-rule="evenodd" d="M87.157,83.226c-0.681,0.989-1.36,1.974-2.296,3.33&#10;&#9;&#9;&#9;C87.228,86.301,87.535,84.987,87.157,83.226z"/>
      <path fill-rule="evenodd" clip-rule="evenodd" d="M119.887,21.176c0,1.729,0,3.457,0,5.187c0.188,0.009,0.374,0.015,0.562,0.026&#10;&#9;&#9;&#9;c0.097-1.715,0.192-3.426,0.288-5.137C120.455,21.226,120.17,21.202,119.887,21.176z"/>
      <path fill-rule="evenodd" clip-rule="evenodd" d="M85.36,32.675c0.356,1.133,0.712,2.27,1.235,3.921&#10;&#9;&#9;&#9;c0.782-0.901,1.137-1.313,1.553-1.794c-1.049-0.767-1.943-1.425-2.842-2.079L85.36,32.675z"/>
      <path fill-rule="evenodd" clip-rule="evenodd" d="M174.899,91.467c0.963,0.056,1.927,0.109,3.333,0.188&#10;&#9;&#9;&#9;C176.921,90.094,175.91,90.189,174.899,91.467z"/>
      <path fill-rule="evenodd" clip-rule="evenodd" d="M174.689,74.219c-1.111-0.971-2.224-1.945-3.336-2.917&#10;&#9;&#9;&#9;c-0.168,0.239-0.335,0.479-0.501,0.719c1.292,0.717,2.584,1.435,3.88,2.154L174.689,74.219z"/>
    </g>
  </g>
</svg>