<svg xmlns="http://www.w3.org/2000/svg" viewBox="0 0 168.04 168.08"><defs><style>.a{fill:#fff;}.b{fill:none;stroke:#000;stroke-miterlimit:10;stroke-width:2px;}</style></defs><title>horse-2</title><path class="a" d="M19.29,165.37c-4,.76-8.16.22-12.39.28C5.39,162.85,5,159.86,4.38,157c-1.22-5.51-1.93-11.13-3-16.69a8.58,8.58,0,0,1,1.43-6.76q3.52-5.16,6.82-10.46c1.49-2.4,2.84-4.88,4.16-7.38a16.2,16.2,0,0,0,.85-2.75l-4.87-.63c.38-.9.47-1.71.92-2.08,3.47-2.83,4.05-6.4,2.86-10.47-.66-2.28-1.37-4.56-2-6.85-.72-2.72-1.52-5.44-2-8.22a20.84,20.84,0,0,1,0-5.31c.2-2.06.74-4.1.92-6.17.52-5.8,3.94-9.42,8.76-12.07a10.91,10.91,0,0,1,6-1.53,7.89,7.89,0,0,1,6.45,3.39c1,1.46,1.92,3,2.89,4.51.39.6.83,1.16,1.36,1.88,1.51-.67,2.83-1.3,4.18-1.86,2.61-1.09,5.21-2.2,7.85-3.18s4.4-2.44,4.78-5.31a11.9,11.9,0,0,1,.34-1.29,7.69,7.69,0,0,1,5.73-5.68c7.12-2,13.85-1.35,19.92,3.22.35.27.7.55,1,.85a9.6,9.6,0,0,0,9.26,2.38c1.52-1.49,2.85-2.81,4.21-4.12,1.71-1.65,3.46-3.27,5.15-4.94a9.4,9.4,0,0,0,1-1.83l-6.74-.63c.52-1,.65-1.88,1.13-2.17,4.28-2.64,6.63-6.7,8.55-11.14.7-1.63,1.65-3.15,2.44-4.75a5.2,5.2,0,0,0,.87-2.44c-.2-1.88.81-3.09,1.86-4.35s2.21-2.42,3.15-3.75a13.57,13.57,0,0,0,1.83-3.53c.61-1.88,1.11-3.64,3.27-4.44.6-.23.89-1.4,1.23-2.18,1.05-2.35,2.14-2.93,4.57-2.09,1.68.58,3.27,1.39,4.92,2.09,2.79,1.19,5.6,2,8.65.86a5.19,5.19,0,0,1,4.29.63,22.29,22.29,0,0,1,8.17,6.76c1.05,1.47,2.06,2.91,4.29,2.61.51-.07,1.17.71,1.7,1.16a24.06,24.06,0,0,0,2.67,2.29,2.81,2.81,0,0,0,2.1.1c.44-.15.67-.9,1-1.4a2,2,0,0,1,2.32,1.61,8.94,8.94,0,0,0,2.3,3.72,6.15,6.15,0,0,1,1.42,5.81c-.48,2-.85,4.05-2.24,5.75-1.71,2.09-3.67,3.34-6.53,3a29.11,29.11,0,0,0-11.5.77,24.25,24.25,0,0,0-2.94,1,2.72,2.72,0,0,0-1.77,2.38c-.82,9-3.4,17.83-3.21,27,.07,3.32.28,6.54,1.86,9.52a9.06,9.06,0,0,1,.22,7.76,43.76,43.76,0,0,0-2,6.84c-.71,3.76.24,5.29,3.76,6.4s7.12,2.11,10.67,3.17a9.9,9.9,0,0,1,1.67.59,2.24,2.24,0,0,1,1.27,2.6c-1.64,5.55-2.11,11.41-4.66,16.72-1.68,3.49-3.28,7-6.18,9.73a11.58,11.58,0,0,0-2,2.91,7.78,7.78,0,0,1-5.1,4,50.3,50.3,0,0,1-7,1.14,5.71,5.71,0,0,1-3-.68,4.5,4.5,0,0,1-1.9-6.78,17.82,17.82,0,0,1,3.57-3.94,5.35,5.35,0,0,1,2.93-.82,7.45,7.45,0,0,0,6-3.34c1.44-2.07,2.93-4.09,4.31-6.2a8.24,8.24,0,0,0,.64-2.2,11.29,11.29,0,0,0-7.19-2.15c-1,0-2.07.15-3.11.19a11.64,11.64,0,0,1-7.17-2c-1-.64-2-1.15-3.25-1.86a17.58,17.58,0,0,0-1.3,2.52,30.4,30.4,0,0,0-1.65,9.19,18.06,18.06,0,0,1-1.35,7c-.23.54-.37,1.13-.56,1.69a11.27,11.27,0,0,0,2.2,11.27c.74.93,1.67,1.71,2.44,2.61,1.81,2.16,3.63,4.31,5.35,6.55s3.19,4.28,4.67,6.51c1.14,1.72.44,3.53-1.47,3.61-4.74.19-9.5.16-14.25.2-.26,0-.52-.25-1-.51-.43-3.29-2.52-6.4-1.94-10.27-4.58-2.37-5.94-6.65-6.41-11.44-.69-7.25-1.44-14.5-2.17-21.75-.08-.74-.21-1.48-.31-2.21-.69-5-2.49-7-7.55-7.95s-10-1.82-14.93-2.74c-2.35-.43-4.67-.93-7-1.32-1.15-.19-2.32-.23-3.72-.35-1.31,3.6-2.39,7.13-3.86,10.48s-3.37,6.6-5.35,10.4l6.91,20.1a7,7,0,0,0,3.06,3.72c1.26.79,2.49,1.64,3.8,2.34,2.7,1.44,4,3.9,5,6.62,1,3-.34,5-3.45,5.11-2.23.08-4.47,0-6.7.05a3.55,3.55,0,0,1-3.64-2.09,9.23,9.23,0,0,0-3.77-4.12A9.09,9.09,0,0,1,60.18,156c-1.07-2-1.95-4-2.91-6-1.15-2.42-2.25-4.86-3.47-7.24A12.39,12.39,0,0,0,50,137.87a3.89,3.89,0,0,1-1.62-4.3,29.83,29.83,0,0,1,1.08-4.32c2.16-6.24,1.22-12.32-.84-18.36a10.15,10.15,0,0,0-5.36-5.7,2.21,2.21,0,0,0-2.52.19,23.74,23.74,0,0,0-2.34,2.07c-2.42,2.42-4.77,4.91-7.21,7.31-2.23,2.19-4.57,4.24-6.79,6.44a52.71,52.71,0,0,0-4.84,5.21c-2.17,2.83-4.09,5.85-6.14,8.76a11.53,11.53,0,0,0-2.11,8c.16,1.63.45,3.24.62,4.87.31,2.92,1.23,5.4,4,7.06,1.66,1,2.58,2.84,3.41,4.6C20.26,161.87,20.27,161.87,19.29,165.37Z"/><path d="M168,32.24c-.12-1.45-.18-2.92-.27-4.37a2.24,2.24,0,0,0-.1-.84c-.19-.38-.45-.91-.77-1-.61-.16-.63-.52-.67-1-.07-.78-.2-.9-1-1a4.62,4.62,0,0,1-1.09-.29c-1.57-.74-3.13-1.51-4.69-2.27a1.41,1.41,0,0,0-.55-.14c-1.36,0-2-1-2.53-2a6.61,6.61,0,0,0-.72-1.19,1.55,1.55,0,0,0-2.25-.3c-.18.13-.35.32-.55.35a5.27,5.27,0,0,0-2.15,1.18,5.26,5.26,0,0,0-2.17,2.81l-.8,2.84c-.11.41,0,.66.51.73a9.21,9.21,0,0,1,3.27-4.81,1.36,1.36,0,0,1-.33.91A3.47,3.47,0,0,0,150,24.2a1.74,1.74,0,0,1-.74,1.37,1.13,1.13,0,0,0-.42.6c-.24.92-.28,1-1.17.65a4.62,4.62,0,0,1-.69-.31c-.93-.48-1.83-1-2.77-1.46-1.12-.54-2.45-.68-3.33-1.73-.1-.13-.35-.14-.52-.22a2.46,2.46,0,0,1-.5-.27q-1.37-1-2.73-2c-1.31-1-2.66-2-3.92-3A24.92,24.92,0,0,0,129.56,15a1.17,1.17,0,0,1-.72-1.14.63.63,0,0,1,.29-.44.65.65,0,0,1,.5.11,3.66,3.66,0,0,1,.54.51c.52-1,.44-2.24,1.44-2.93.49,0,1.05.57,1.39-.2l-.31-.88A3.86,3.86,0,0,1,136,9.58c.25-.21.48-.56.71-.57a11.94,11.94,0,0,1,2.74.14,12.42,12.42,0,0,1,5.74,3.24c.26.23.48.51.73.76l.8.78c.89.9,1.77,1.8,2.68,2.69a1.89,1.89,0,0,0,1.81.74c-.48-.51-.9-.9-1.26-1.32-.63-.75-1.21-1.55-1.85-2.29a10.6,10.6,0,0,1-2.23-2.94,1.66,1.66,0,0,0-.66-.79,33.83,33.83,0,0,0-3.77-2,6.21,6.21,0,0,0-4.11-.27,1.59,1.59,0,0,1-1.29-.12,1.81,1.81,0,0,0-1.48-.06,1,1,0,0,1-1.3-.46,2.39,2.39,0,0,1-.19-.72A3.44,3.44,0,0,0,132,3.92c-.39-.28-.81-.48-1-1,0-.11-.29-.15-.45-.22,0,.17-.16.36-.1.49a2.69,2.69,0,0,0,1.07,1.52,2.4,2.4,0,0,1,1.08,2,3.64,3.64,0,0,1-2.27-1.9c-.21-.39-.37-.81-.6-1.19-.41-.69-.64-1.56-1.63-1.7-.13,0-.22-.23-.35-.31C127,1.1,126.23.54,125.43,0a.75.75,0,0,0-.67.12.59.59,0,0,0,0,.59,1.91,1.91,0,0,1,.15,2,3.72,3.72,0,0,1-.66,1.66c-.16-.19-.27-.37-.4-.5a1.4,1.4,0,0,1-1.41-.34,2.65,2.65,0,0,1-.83-.14c-.12,0-.28,0-.59.1A4.6,4.6,0,0,0,122.7,5c.42.19.54.33.34.78l-.69-.14a5.58,5.58,0,0,1-1,.59A18.22,18.22,0,0,0,117,8.11a4.31,4.31,0,0,0-1.56,1.35,3.52,3.52,0,0,1-2,1.48c-.94.39-1.9.71-2.84,1.08a1.08,1.08,0,0,0-.76.69c1.42.28,2.51-.84,4-.86l-.34.52A8.17,8.17,0,0,0,112,15c-.21.9-.44,1.78-.69,2.67a1.75,1.75,0,0,1-.42.73,21.29,21.29,0,0,1-1.6,1.47,10.37,10.37,0,0,1-4.26,2.44c-.38.09-.84.11-1,.62a1.23,1.23,0,0,0,1.18.81,24.78,24.78,0,0,0,3.81-.09,42.36,42.36,0,0,0,4.34-1.06.89.89,0,0,0,.74-.71c-.49,0-.92,0-1.35.08-1,.1-2,.25-3,.33a8.26,8.26,0,0,1-1.18-.06h0l0,0-.23.28-.11-.12.34-.15,0,0h0c.63-.61,1.26-1.23,1.9-1.83.35-.32.72-.24,1.08.16a6.74,6.74,0,0,1,.25-.84,3.6,3.6,0,0,1,.64-1.12,9.33,9.33,0,0,0,1.93-2.8,5.49,5.49,0,0,0,.77-3.2,1.06,1.06,0,0,1,.56-1,14.86,14.86,0,0,1,1.8-1.05c1-.43,2-.7,3-1.15a1.52,1.52,0,0,1,1.67.1c.59.4.82.25.87-.48,0-.1,0-.21,0-.31l.15,0,.34,1,.69-.45c.41.85.76,1.65,1.18,2.41a13.83,13.83,0,0,0,.87,1.1c.19.27.34.6.73.42s.36-.56.26-.92c0-.12-.08-.24-.11-.36-.23-1.22-.52-2.42-.68-3.65,0-.17,0-.31,0-.44a18.7,18.7,0,0,1,0-2.93.9.9,0,0,1,.93-.91,1.36,1.36,0,0,1,.07-.33,3.37,3.37,0,0,1,1.52,2,3.23,3.23,0,0,1,.35.53c.08.17.16.4.25.63a2.62,2.62,0,0,0,.29.27A2.73,2.73,0,0,1,131,8.86a1.13,1.13,0,0,1-.34-.1.81.81,0,0,1-.27.61,1.79,1.79,0,0,1,.4.47c-.37.37-.66.87-1.08,1a2.44,2.44,0,0,0-1.27,1.46,4,4,0,0,0-.31.79.73.73,0,0,1-.89.65c-.08.54-.14,1-.25,1.53a.8.8,0,0,1-.35.49c-1.09.56-2.21,1.06-3.3,1.65a7.81,7.81,0,0,0-1.9,1.23c-1.1,1.1-2.08,2.3-3.1,3.48a2.12,2.12,0,0,0-.28.6c-.48,1.18-.92,2.36-1.44,3.53-.65,1.47-1.35,2.92-2,4.39-.53,1.16-.94,2.38-1.58,3.47a62.36,62.36,0,0,0-3.07,6.65c0,.11-.19.19-.32.33,0-.69,0-1.29,0-1.88s.64-1,.17-1.69c-.15.13-.27.19-.32.29a9.62,9.62,0,0,0-1.17,3.6,32.25,32.25,0,0,1-.66,4.31,41,41,0,0,0-.71,4.23,2.45,2.45,0,0,0,0,1.22c.48,1.1,0,2.24.21,3.35a4.9,4.9,0,0,1,0,1.7c-.26,1.63-.59,3.25-.87,4.88a6.56,6.56,0,0,0,0,.93c.36-.23.64-.32.78-.51a2.47,2.47,0,0,0,.37-.87c.27-1.11.55-2.22.77-3.34a11,11,0,0,0,.21-2c0-1.55,0-3.11,0-4.66,0-.16,0-.32,0-.48a11.72,11.72,0,0,1,.61-4.79,40.4,40.4,0,0,1,2-4.52c1.34-2.77,2.69-5.53,4.08-8.28s3-5.76,4.49-8.62a16,16,0,0,1,1.16-1.93,22.93,22.93,0,0,1,4.61-4.19c.83-.65,1.48-.41,1.77.6.07.24,0,.52.13.75.14.4.14.88.61,1.14.68-.56-.08-1.47.51-2,.53.06.57.5.7.84.27.65.64,1.07,1.44,1a1.33,1.33,0,0,1,.8.2c.51.32,1,.72,1.47,1.06s.83.52,1.36.85l.06.3a3.45,3.45,0,0,1,.74.28c.4.28.75.61,1.18,1l-.09.56c.69-.57,1.14-.23,1.58.1A4.29,4.29,0,0,1,138.89,26a1.37,1.37,0,0,0,.47.58c1.11.66,2.23,1.32,3.37,1.92.85.45,1.77.79,2.63,1.23a3.26,3.26,0,0,0,1.55.52c.43,0,.84.5,1.27.76,1.18.7,2.27,1.65,3.81,1.35a.89.89,0,0,1,1.1.7,4.58,4.58,0,0,0,.31.65,5.78,5.78,0,0,0-2.67,1.45,9.48,9.48,0,0,1-2.13,1.23,7,7,0,0,1-2,.58,5.73,5.73,0,0,1-2.44,0,15.13,15.13,0,0,0-3.81-.71A5.6,5.6,0,0,1,137,34.8a10.53,10.53,0,0,0-1.14-.85c-1.23-.81-2.41-1.64-2.57-3.28,0-.06-.06-.11,0,0L131,29.33c-.28-.57-1-1.21-.66-2.15,0,0,0-.06,0-.09a1.42,1.42,0,0,1-.14-1.35.5.5,0,0,0-.11-.44,2.8,2.8,0,0,1-.82-2.06c-.08-.71-.39-.9-1.23-.9.07.22.15.41.2.61a2.32,2.32,0,0,1,.14.61c0,.85-.09,1.7,0,2.53a33.17,33.17,0,0,0,.51,3.39,4.15,4.15,0,0,0,1.52,2.77,7.86,7.86,0,0,1,2.08,1.93,1.49,1.49,0,0,0,1.34.78,1.15,1.15,0,0,1,1,.57,1.58,1.58,0,0,0,.46.46c1.27.82,2.56,1.63,3.85,2.44a1.09,1.09,0,0,1,.51,1.54,16.42,16.42,0,0,1-.92,1.58c.11.66.17,1.43.36,2.18a10,10,0,0,1,0,2.85c-.05,1.87-.1,3.74-.23,5.61-.2,2.85-.47,5.7-.73,8.54-.06.66-.29,1.3-.34,2a30.78,30.78,0,0,1-1.09,6.84,5.82,5.82,0,0,0-.1.75,13.28,13.28,0,0,1-.25,1.4,20.49,20.49,0,0,0-.47,3.15,4.5,4.5,0,0,1,.85.34,4.08,4.08,0,0,1,1.4,2.39,47.07,47.07,0,0,0,1.56,5.27,4.79,4.79,0,0,1,.34.9,1.25,1.25,0,0,1,0,.81,3.29,3.29,0,0,0-.34,1.75,7.48,7.48,0,0,1-.13,1.42q-.54,2.41-1.14,4.8c-.32,1.26-.67,2.52-1,3.76a1.25,1.25,0,0,1-.42.7c-.79.48-.77,1.16-.6,1.92a8.31,8.31,0,0,0,.28,1.2c.37.9.79,1.79,1.21,2.68a1.51,1.51,0,0,0,.4.39c.57.49,1.14,1,1.73,1.48a7.17,7.17,0,0,0,1.5,1.15c1.66.72,3.36,1.33,5,2a4.42,4.42,0,0,0,.46.1c1,.27,2.09.55,3.14.8.59.14,1.18.23,1.78.34,1.22.21,2.44.4,3.65.63.41.08.59.34.39.75-.91.15-1.06.21-1,.76a7.3,7.3,0,0,1-.37,3.92c-.55,1.59-.89,3.24-1.46,4.82s-1.48,3-1.92,4.66a8.61,8.61,0,0,1-.71,1.45,7.35,7.35,0,0,0-.52,1.12,43.94,43.94,0,0,1-2.68,5.77c-.82,1.79-1.89,3.46-2.83,5.19-.28.52-.48,1.09-.71,1.63a1.79,1.79,0,0,0,.85-.68c1.48-2.37,3-4.71,4.41-7.13.89-1.53,1.59-3.17,2.36-4.77.58-1.2,1.21-2.39,1.68-3.63,1-2.52,1.85-5.07,2.68-7.64.42-1.31,1-2.66.48-4.1-.1-.31,0-.51.27-.74a1.52,1.52,0,0,0-.36-2.48,12.55,12.55,0,0,0-2.25-.77c-1.29-.32-2.6-.57-3.91-.83a11,11,0,0,1-3.87-1.23,2,2,0,0,0-.53-.2,16.41,16.41,0,0,1-4.42-1.93,6.32,6.32,0,0,1-3.08-4.15c-.05-.25-.24-.51-.19-.72.15-.78.3-1.57.49-2.33a22.53,22.53,0,0,1,2.33-5,7.12,7.12,0,0,0,1.07-3.11,15.8,15.8,0,0,1,.27-2.37,3.48,3.48,0,0,0-.73-2.86,3.4,3.4,0,0,1-.61-1c-.59-1.84-1.12-3.7-1.69-5.56a2.87,2.87,0,0,0-.35-.78,3.57,3.57,0,0,1-.56-2.18c0-.63.38-1.34-.35-1.82,0,0,0-.06,0-.09.07-1-.15-2,.41-3l-.38-.45a1.18,1.18,0,0,0,.7-1.18,11.49,11.49,0,0,1,.2-2.35c.26-1.89.45-3.78.67-5.67.1-.82.21-1.64.28-2.46.17-1.9.32-3.8.49-5.69,0-.28.12-.56.15-.85.12-1.1.27-2.21.32-3.32,0-.63.08-1.2.56-1.49a7.83,7.83,0,0,1-.19-1.29,9.64,9.64,0,0,0-.17-2.32,1.72,1.72,0,0,1,1.4-1.95c.27-.06.54-.16.81-.23a10.36,10.36,0,0,1,1.25-.36,19.17,19.17,0,0,0,5.87-1.56,8.58,8.58,0,0,1,2.68-.93,3.77,3.77,0,0,0,.6-.27c1.15-.38,2.32-.58,3.31.35a14.84,14.84,0,0,0,3.71,2.46,1.53,1.53,0,0,0,1.91-.24,8.75,8.75,0,0,0,2.24-2.69,3.48,3.48,0,0,1,1.28-1.95c.31-.19.45-.68.62-1.05a.45.45,0,0,0-.08-.42.72.72,0,0,0-.52,0c-.14,0-.21.24-.35.31a4.27,4.27,0,0,1-2.41.73c-.79-.09-1.58-.14-2.36-.25a5.54,5.54,0,0,1-1.19-.3c-.73-.28-1.46-.59-2.18-.9a9.35,9.35,0,0,1-4.4-3c-.39-.57-1-1-1-1.77,0-.39-.45-.38-.78-.24l-1.09.48L150,27.6c.71-.32.61-1.08,1-1.59a1,1,0,0,0,.13-.73,1.4,1.4,0,0,1,.28-1.16,11.57,11.57,0,0,1,1-1.41,4.81,4.81,0,0,1,2.09-1.6c.38-.11.65-.15.89.25a1.12,1.12,0,0,0,.57.4c.47.17,1,.26,1.43.44s1.15.53,1.73.8c.78.35,1.58.66,2.34,1.06,1.6.85,2.73,2.27,4.1,3.4a1.19,1.19,0,0,1,.29.59c.15.52.25,1.06.4,1.58q.54,1.91,1.11,3.82c0,.1.14.18.24.3A1.58,1.58,0,0,0,168,32.24ZM113.25,15.56c-.37-.56,0-.81.25-1.08l.19.08Zm18.29,3.22-1.57-1c.94-.38,1.15.5,1.7.78Zm.64.36c.73,0,.74.7,1.13,1Zm16.12,10.08-.76-.35c.55-.3.71-.1.85.13ZM159,37c.08-.08.14-.15.16-.14.23.08.58,0,.55.48Zm2.65-2.63a4,4,0,0,1,1.93.62c-.39.42-.74.82-1.11,1.19a1,1,0,0,1-1.14.23l-.09,0c-1.37-.58-2.75-1.14-4.11-1.73-.65-.28-.64-.32-.78-1.22C158.07,34.19,159.9,34.06,161.66,34.38Z"/><path d="M128.74,16.56l-.18-.15s-.1.11-.1.14a1.13,1.13,0,0,0,.15.18Z"/><path d="M136.64,22.44a.73.73,0,0,0-.13-.07s-.06,0-.06,0a.94.94,0,0,0,.08.13Z"/><path d="M160.81,37.64l-.12.1.13.09s.07,0,.06,0A.61.61,0,0,0,160.81,37.64Z"/><path d="M42,101.63c.1-.23.2-.47.29-.7a1.09,1.09,0,0,1,1-.76c1.2-.11,2.4-.24,3.61-.33,3.33-.24,6.67.08,10,0a13.59,13.59,0,0,1,2.86.06c1.39.25,2.78.25,4.16.39,1.79.17,3.57.54,5.35.83l3.19.5a1.74,1.74,0,0,1,.28,0c.82.31,1.63.63,2.43,1-1.35.12-2.63-.56-4-.21a1.57,1.57,0,0,0,.49.26c.84.09,1.73-.1,2.49.43.83-.27,1.55.25,2.32.32a1.56,1.56,0,0,1,1.11.65,1.42,1.42,0,0,0,.64.5c1.68.46,3.36.88,5.05,1.31a1.62,1.62,0,0,1,.37.09,20.69,20.69,0,0,0,6.06,1.52,5,5,0,0,1,1.54.48,5.16,5.16,0,0,0,1.82.49,8.08,8.08,0,0,1,1.38.36,1.77,1.77,0,0,0,1.43,0c0-.48-.34-.48-.6-.57L93,107.58a1.85,1.85,0,0,0-.55-.15c-1.47,0-2.7-.87-4.08-1.21a6.15,6.15,0,0,1-1.31-.67l.07-.19,2.72.72c.21.06.41.17.63.23,1.75.45,3.51.87,5.26,1.33.73.19,1.44.49,2.17.67s1.38.2,2.06.35c1,.22,2,.49,3,.76a18.65,18.65,0,0,1,.77-5.07l.88,0c0,.72-.08,1.4-.13,2.07a6.87,6.87,0,0,0,1,4c.2.35.33.76.51,1.12a.9.9,0,0,1,0,1.07c-.27.35-.1.64.08,1a17.81,17.81,0,0,1,2.13,5.48,30.29,30.29,0,0,1,.75,5.75c0,2.73.1,5.46.08,8.19,0,1.59-.19,3.17-.31,4.75-.18,2.37-.39,4.74-.56,7.12a2,2,0,0,1-.59,1.47c-.52-.1-.65-.43-.6-.9.15-1.39.31-2.78.44-4.17.08-.92.16-1.84.17-2.76,0-1.72,0-3.44,0-5.16,0-1.36.21-2.72.31-4.08a6.25,6.25,0,0,0,0-.76c-.08-2-.1-4.07-.29-6.09a26.61,26.61,0,0,0-.32-2.65c-.16-.78-.42-1.53-.64-2.29a.69.69,0,0,0-.1-.27c-1.15-1.38-1.81-3.13-3.28-4.26-.46-.35-.85-.79-1.42-1.33l.9-.56-.83-.47-.53,1.15c-2.69-.61-5.3-1.18-7.89-1.8-1.76-.42-3.49-.94-5.24-1.4-.4-.1-.82-.14-1.21-.25a12,12,0,0,1-1.23-.43c-.15-.06-.27-.2-.41-.23-1.11-.24-2.23-.44-3.35-.7s-2.35-.58-3.51-.9-2.31-.64-3.45-1a11.75,11.75,0,0,0-3.74-.6.84.84,0,0,1-.58-.36.82.82,0,0,0-.92-.34c-.42.06-.39.41-.44.73-.26,1.79-.49,3.59-.84,5.36a17.11,17.11,0,0,1-.85,2.41c-.1.27-.19.53-.27.81-.18.64-.35,1.28-.53,1.92-.25.85-.5,1.69-.78,2.53-.13.39-.32.76-.47,1.15-.61,1.6-1.16,3.23-1.84,4.8a26.9,26.9,0,0,1-3.07,5.85c-.4.52-.73,1.09-1.11,1.63-.08.11-.24.16-.5.31a2.14,2.14,0,0,1,0-.73c.36-.77.77-1.52,1.16-2.28.09-.17.22-.32.29-.49,1-2.44,2-4.87,2.87-7.34s1.62-4.94,2.44-7.4a35.17,35.17,0,0,0,1.57-5.54,1.2,1.2,0,0,0-.27-1.13,2.65,2.65,0,0,1-.46-.92.72.72,0,0,1,.44-1,5.81,5.81,0,0,0,1-.79l0-.23-1.14-.23c-.53-.1-1-.22-1.58-.28-.91-.11-1.83-.2-2.74-.29-1.29-.13-2.6-.16-3.87-.41-2.07-.4-4.17-.28-6.24-.55a28.3,28.3,0,0,0-4.66-.07c-1.58.05-3.17.07-4.75.24a7.78,7.78,0,0,1-1.24,0Zm26.44.23a1.24,1.24,0,0,0-1.17,0Z"/><path d="M124.57,110c-.43.68-.81,1.28-1.2,1.88a26.19,26.19,0,0,0-2.31,4.8c-.82.71-.55,1.64-.54,2.54a56.54,56.54,0,0,1-.18,6.29,34.72,34.72,0,0,1-1.07,6.1,18.55,18.55,0,0,0-.84,4.19c-.09,1.6-.58,3.19-.74,4.8a25.65,25.65,0,0,0-.06,4,3.71,3.71,0,0,0,1.33,2.36c1.11,1.09,2.27,2.13,3.45,3.15a28.33,28.33,0,0,1,3.48,3.65,32.4,32.4,0,0,1,3.51,5.33,6.94,6.94,0,0,1,1,3.26c0,1.06.1,1.16,1,1.74l-.76.4a16.09,16.09,0,0,1-5.69,1.78c-.75.09-1.49.2-2.24.31a7.37,7.37,0,0,1-2.73-.24,5.47,5.47,0,0,1-1.66-.68c-.47-.28-1-.54-1.51-.84l.3-1.19a.91.91,0,0,1,1,.25c1.19,1.19,2.72,1.3,4.25,1.37a14.23,14.23,0,0,0,2.74-.14c1.31-.2,2.61-.5,3.9-.79a3.29,3.29,0,0,0,.74-.36c-.27-.77-.53-1.41-.71-2.07a18.89,18.89,0,0,0-4.31-7.76c-1.88-2.06-4-3.94-6-5.88-.64-.62-1.34-1.17-2-1.79a2.07,2.07,0,0,1-.47-1.78,9.14,9.14,0,0,0,.18-2.17,16.68,16.68,0,0,0-.9-2.65c.47-.14.55-.6.55-1.23l-1,.51.1-1.82.93.47c.58-.77.52-1-.57-1.55.85-.08,1-.65,1.14-1.26s.24-1.37.4-2c.2-.83.45-1.65.68-2.47.28-1,.42-2,.7-3a8.2,8.2,0,0,0,.08-4.42,5.41,5.41,0,0,1,.13-1.94c0-.34.21-.68.23-1,0-.15-.18-.32-.38-.64,0-.26,0-.73,0-1.2a1.06,1.06,0,0,1,.12-.54,18.28,18.28,0,0,0,1.62-3.85,5.57,5.57,0,0,1,.5-1,10.77,10.77,0,0,0,.94-2c.73-1.82,1.61-3.59,2.43-5.38a.58.58,0,0,1,.15-.24c1.19-.77,1.16-2.14,1.52-3.27.46-1.44.68-3,1-4.45a4.63,4.63,0,0,1,.12-.65,3.17,3.17,0,0,0,.1-1.87,8.12,8.12,0,0,1-.07-1.31c.38.2.67.25.77.41a2.36,2.36,0,0,1,.48,2.15c-.4,1,0,1.93-.19,2.89.66.92.08,1.8-.07,2.7a17.54,17.54,0,0,1-2.19,5.46c-.64,1.17-.24,1.73.79,2.64,1.48,1.3,3.34,1.76,5.09,2.48A7.58,7.58,0,0,1,134,113.6a3.07,3.07,0,0,0,1.19.55q2.57.71,5.16,1.35c.61.15,1.25.21,1.88.31.28,0,.56.13.84.17.92.14,1,.93,1.25,1.59a.59.59,0,0,1-.87.63c-2.14-1.14-4.54-1.35-6.81-2-1.92-.55-3.86-1-5.75-1.65a10,10,0,0,1-2.4-1.33c-.87-.59-1.67-1.27-2.48-1.94C125.53,111,125.14,110.53,124.57,110Z"/><path d="M9.54,112.63c0-.7.51-1,.86-1.47.56-.69,1.18-1.33,1.67-2.06a7,7,0,0,0,1.25-3.45,2.07,2.07,0,0,1,.05-.38A17,17,0,0,0,13,96.63c-.06-.24-.08-.5-.12-.75a8.61,8.61,0,0,0-.59-2.49,4.57,4.57,0,0,1-.29-1.3,8,8,0,0,0-1.07-2.71,6,6,0,0,1-.73-3.85,2.86,2.86,0,0,0-.05-1,30,30,0,0,1-.61-5.1,15.69,15.69,0,0,1,.13-3.29c.17-1.13.48-2.23.7-3.36a40.68,40.68,0,0,1,1.89-5.28,5.43,5.43,0,0,1,.53-.9,2.86,2.86,0,0,0,.4-.75,2.63,2.63,0,0,1,.95-1.5,1.58,1.58,0,0,0,.33-.34,7.4,7.4,0,0,1,4.78-3.3,12.79,12.79,0,0,1,4.23-.62,1.7,1.7,0,0,0,.75-.1c1.87-.75,3.46,0,5,.91a5.2,5.2,0,0,1,2,1.76,16.58,16.58,0,0,0,1.73,2.14A15.41,15.41,0,0,1,35,68.67a2.89,2.89,0,0,0,.94-.84,10.25,10.25,0,0,1,3.54-2.19,2.48,2.48,0,0,0,.36-.12,16.67,16.67,0,0,1,6.55-2.15c1.26-.21,2.46-.6,3.7-.88a5.88,5.88,0,0,1,1.22-.19c1,0,1.18.16,1.51,1.35a7.42,7.42,0,0,1-1.15.25,3.33,3.33,0,0,0-2.41.67c-.09.1-.3.08-.45.11-1.63.27-3.26.47-4.87.81a19.71,19.71,0,0,0-2.51.9c-.57.21-1.12.45-1.71.59a5.88,5.88,0,0,0-3,1.82,1.68,1.68,0,0,1-.3.23c-.46.33-.94.64-1.38,1s-.81.44-1.09-.18a13.16,13.16,0,0,1-.66-1.69,8.86,8.86,0,0,0-2-3.5,1.81,1.81,0,0,0-.37-.23l-.64,1.45a5,5,0,0,1-.82-.92,9,9,0,0,0-2.59-2.61,1.12,1.12,0,0,0-.51-.24c-1.18-.22-2.37-.47-3.56-.61a6.79,6.79,0,0,0-3.6.76,9.44,9.44,0,0,0-4.44,4,30.94,30.94,0,0,0-2.78,6.56A21.89,21.89,0,0,0,11.23,81c.12,1.39.35,2.77.53,4.15a1.49,1.49,0,0,1,0,.38,9.57,9.57,0,0,0,1,4.68,48.44,48.44,0,0,1,1.39,4.64c.28,1,.48,2.1.71,3.16a7,7,0,0,1,.19,1,14.21,14.21,0,0,0,.36,3,3.49,3.49,0,0,1,0,1.51,33.23,33.23,0,0,1-.92,4.17,12,12,0,0,1-1.38,2.37,2.82,2.82,0,0,0-.39.76,18.64,18.64,0,0,0,2.87-.82A5.07,5.07,0,0,1,13.29,112c-.25.12-.51.21-.75.34a1.78,1.78,0,0,1-1.7.28A3.48,3.48,0,0,0,9.54,112.63ZM29.61,63.16l.22-.22-.69-.59-.15.16Z"/><path d="M42,101.63l0,0c0,.27-.07.55-.11.83v0c-.83.21-1.3.91-1.86,1.44-1.09,1-2.05,2.16-3.08,3.23-1.21,1.26-2.44,2.51-3.66,3.75-1,1-2.06,2.07-3.1,3.1s-2.36,2.31-3.51,3.49c-.4.4-.68.92-1.06,1.34a1.09,1.09,0,0,1-.7.38,1.49,1.49,0,0,0-1.1.45C22.9,120.43,22,121.2,21,122c.38.68.09,1.19-.32,1.73-1.52,2-3,4-4.49,6-.82,1.13-1.6,2.29-2.42,3.41s-1.85,2.49-2.79,3.73a22.35,22.35,0,0,0-2.71,4.46,2.77,2.77,0,0,0-.12,1.77,27.89,27.89,0,0,1,.51,3c.23,2.05.39,4.11.61,6.16a20.68,20.68,0,0,0,.39,2.25c.14.64.37,1.23,1.17,1.3a1.2,1.2,0,0,1,.62.24c1.41,1.17,3,2.18,4,3.77a7.19,7.19,0,0,1,.93,6.11,3.8,3.8,0,0,0-2.88.21,6,6,0,0,1-.94.13c-.56.09-1.12.23-1.68.3a2.52,2.52,0,0,1-.94,0,2.56,2.56,0,0,0-1.28-.06,1.18,1.18,0,0,1-1.21-.76,2.39,2.39,0,0,0-1.92-1.49c-.4-.79-1.33-.8-1.91-1.28a1.93,1.93,0,0,1-.37-1.3c0-.95.06-1.9.1-2.85,0-.06,0-.14,0-.19a3.28,3.28,0,0,1-.08-2.47,7.09,7.09,0,0,0-.42-3.06c-.15-.58-.2-1.18-.32-1.76s-.29-1.35-.48-2c-.29-1-.65-2-.91-3-.17-.67-.18-1.37-.31-2a8,8,0,0,1-.36-1.47A5.29,5.29,0,0,0,0,140.38c-.08-.17.16-.64.38-.76s.59.12.7.43c.18.5.34,1,.48,1.52.18.67.32,1.35.48,2,.1.46.21.92.31,1.38.2.9.42,1.79.59,2.7.33,1.78.66,3.56.92,5.35.23,1.6.37,3.22.52,4.83.06.6.06,1.21.06,1.81a1.09,1.09,0,0,0,.52,1,11.19,11.19,0,0,1,3.45,3.76,1.93,1.93,0,0,0,1.93.94,20.49,20.49,0,0,0,4.7-.66c.57-.16.77-.32.64-.93a8.47,8.47,0,0,0-.6-1.9,9,9,0,0,0-4.25-4.47c-.43-.21-.88-.36-1.29-.59a.74.74,0,0,1-.43-.87,1.87,1.87,0,0,0-.77-2.23,1.21,1.21,0,0,1-.19-.28c.4-.7,0-1.43-.18-2.07a11.41,11.41,0,0,1-.35-2.82,19.26,19.26,0,0,0-.76-5,2.34,2.34,0,0,1,.32-2.34,5.56,5.56,0,0,0,1-2.15,6.25,6.25,0,0,1,1.11-1.85c.79-1.18,1.64-2.32,2.4-3.52a8.38,8.38,0,0,1,1.53-2,7.75,7.75,0,0,0,.95-1.39c.43-.59.88-1.16,1.33-1.72.59-.74,1.2-1.47,1.8-2.2.08-.1.2-.19.23-.3a4.1,4.1,0,0,1,1.3-2c-.55-.15-.93-.1-1.07.23-.27.65-.84.82-1.62,1.17a12.58,12.58,0,0,1,.81-1.3,7.58,7.58,0,0,1,2-1.94A6,6,0,0,0,20.49,121a29.56,29.56,0,0,1,3-2.53,4.14,4.14,0,0,0,.51-.43,20.91,20.91,0,0,1,3.48-3.21,29.07,29.07,0,0,0,2.43-2.4c.31-.31.64-.61.93-.94.92-1,1.8-2,2.73-3,.65-.69,1.34-1.34,2-2a8.43,8.43,0,0,0,.73-.74A22.87,22.87,0,0,1,38,103.84a15.88,15.88,0,0,1,3-2.08A2.84,2.84,0,0,1,42,101.63Z"/><path d="M84.63,93.64l-.6-.55a4.22,4.22,0,0,1,1.75-1.9,10.17,10.17,0,0,0,3.43-4.93c.19-.47.38-.94.6-1.4a5.3,5.3,0,0,0,.65-2c.06-.88.44-1.06,1.31-.71A5.7,5.7,0,0,0,92,77.85a6.07,6.07,0,0,1-.37-1.17,3.49,3.49,0,0,1,.22-1l.92.06a4,4,0,0,0-.59-2.7c.29.11.53.13.56.22a6.2,6.2,0,0,1,.48,1.62,14.21,14.21,0,0,0,.33,3.59,4.68,4.68,0,0,1,.05,1.8c-.09,1-.22,2-.4,2.92a5.4,5.4,0,0,1-.49,1.13c-.28.64-.55,1.28-.85,1.91a4.88,4.88,0,0,1-.56,1,37.19,37.19,0,0,0-3,4.05,25.68,25.68,0,0,1-5.12,6.34c-.4.35-.84.67-1.33,1.07l.9.3c-.22.16-.33.31-.47.33a8.69,8.69,0,0,1-3.38.4,1.82,1.82,0,0,0-.48,0c-2.63.28-5.26-.11-7.9-.05-1.58,0-3.16-.19-4.74-.3-1-.07-2-.16-3-.23-1.42-.08-2.85-.13-4.28-.22a3.27,3.27,0,0,1-1.08-.3A4.77,4.77,0,0,0,55.07,98a9,9,0,0,1-1.89-.15c-1.41-.19-2.82-.41-4.23-.62l-.09,0c-1.46.1-2.8-.5-4.21-.73a13,13,0,0,1-2.32-.8l-.08,0c-.33-.25-.75-.5-.56-1s.65-.47,1.07-.38c.59.14,1.17.32,1.75.46.92.23,1.84.48,2.77.66q1.86.36,3.74.63a28.88,28.88,0,0,1,3.12.37,52.91,52.91,0,0,0,6.58,1,42.91,42.91,0,0,0,6.35.5c3.08-.06,6.16.1,9.25.16.89,0,1.78,0,2.67,0a3.35,3.35,0,0,0,2-.59,10.29,10.29,0,0,0,2.67-2.54C83.93,94.48,84.29,94.08,84.63,93.64Z"/><path d="M76.31,94c.53-1.18,1-2.2,1.45-3.25.35-.85.67-1.71.93-2.58.44-1.49.84-3,1.24-4.49.19-.7.35-1.42.51-2.13s.41-1.67.54-2.52a8.84,8.84,0,0,0,0-1.88C81,76,81,74.89,82.46,74.38c-1.24-.13-2.32-.16-3.36-.37a32,32,0,0,0-6.53-.55,12.35,12.35,0,0,1-3.92-.7,24.35,24.35,0,0,1-3-1C64,71,62.48,70.08,60.9,69.21a2,2,0,0,1-.49-.45c-1.25-1.44-2.49-2.89-3.75-4.31a4,4,0,0,1-.8-2.2c0-.25,0-.52.41-.54l.59,2c.33-.29.55-.64.81-.67a2,2,0,0,1,1,.33c.28.14.54.33.89.54-.41.35-.25.67-.06,1a4,4,0,0,0,1.3,1.73.73.73,0,0,1,.2.21,11.64,11.64,0,0,0,3.47,2.93,22.58,22.58,0,0,0,3.36,1.54c1.46.61,3.08.36,4.57.81a23.78,23.78,0,0,0,4.53.47c.6.06,1.2,0,1.8.07,1.2.11,2.39.32,3.58.37a12.12,12.12,0,0,0,4.24-.45,6.86,6.86,0,0,1,1.24-.15l-.42-.3c.08-.4.44-.47.71-.46a5,5,0,0,0,3.2-1.53c.67-.55,1.51-1,1.83-1.89.44-1.18,1.6-1.93,1.84-3.28h-1c0-.39.31-.54.56-.66A2.66,2.66,0,0,0,96,62.56a4.34,4.34,0,0,1,.57-1.1c.1-.15.41-.35.49-.31a1,1,0,0,1,.38.56c0,.15,0,.35-.1.63a4.69,4.69,0,0,0,1.95-1.57,6,6,0,0,0,1.65-2.85,1.81,1.81,0,0,1,.22-.53c.13-.25.31-.6.62-.42a.84.84,0,0,1,.27.73,7.83,7.83,0,0,1-1.3,2.94,14,14,0,0,1-3.63,3.45,2.22,2.22,0,0,0-.81,1,20.59,20.59,0,0,1-2.93,5.1,6.84,6.84,0,0,1-1.5,1.44,20.44,20.44,0,0,1-3.14,1.75A29.49,29.49,0,0,1,85,74.54a9.47,9.47,0,0,1-2.52.48,4.08,4.08,0,0,0-.94.25,2.57,2.57,0,0,0,.26.52,3,3,0,0,1,.69,2.49,31,31,0,0,1-1.63,7.23,5.55,5.55,0,0,0-.2.93,5.91,5.91,0,0,1-.1.66q-.52,1.77-1.07,3.53a6,6,0,0,1-.33.68A13.48,13.48,0,0,0,78,93.16C77.88,93.7,77.22,94,76.31,94Z"/><path d="M.16,138c0-.65.05-1.31.1-2a.66.66,0,0,1,.15-.34L3,132.56c.08-.1.2-.19.21-.31.19-1.28,1.39-1.85,2-2.85a14.13,14.13,0,0,1,1-1.45c.83-1.08,1.74-2.09,2.51-3.23A32.82,32.82,0,0,1,11.14,122a17.2,17.2,0,0,0,1.5-2c1-1.6,1.9-3.31,3-4.85a37.2,37.2,0,0,0,1.74-3.34,1,1,0,0,0,.1-.45c.07-1.55.15-3.1.2-4.65,0-.7,0-1.4,0-2.1,0-.89.08-1.77.18-2.65a31.65,31.65,0,0,1,.55-4.15c.34-1.4.33-2.83.61-4.22.23-1.11.53-2.21.84-3.3a8.54,8.54,0,0,1,.47-1,6.7,6.7,0,0,0,.32-.88c.08-.27,0-.61.17-.83a13.27,13.27,0,0,0,1-2.53,11.06,11.06,0,0,1,1.47-2.65c.66-.81.7-1.82,1.14-2.68a4.26,4.26,0,0,0,.24-.72c0-.15.13-.32.09-.46-.36-1.1-.69-2.23-1.15-3.29a2.05,2.05,0,0,0-2.36-1l-.63.17c0-.23-.09-.46,0-.55a1.82,1.82,0,0,1,1.79-.85c1.18.27,2.35.6,2.92,1.88.24.53.5,1.1,1.21,1.24.34.06.41.39.32.69a16.63,16.63,0,0,1-.6,1.9,9.54,9.54,0,0,1-1.1,2.41,4.56,4.56,0,0,0-.45,1.53,2.73,2.73,0,0,1-.35,1.06,13.63,13.63,0,0,0-2.24,4.28,30.69,30.69,0,0,0-1.86,6.69c-.36,2.22-.72,4.44-1,6.68-.31,2.61-.54,5.24-.77,7.86a3.38,3.38,0,0,0,.17.89,5,5,0,0,1,.11.62,6.17,6.17,0,0,1,0,.73,1.9,1.9,0,0,1-.06.55c-.25.68-.51,1.36-.78,2a10.3,10.3,0,0,1-.53,1.22c-.68,1.21-1.35,2.44-2.1,3.61a20.81,20.81,0,0,1-1.47,1.87c-.71.89-1.42,1.78-2.16,2.65-.31.36-.74.61-1,1a18.56,18.56,0,0,0-2.42,3.27,9.49,9.49,0,0,1-1.52,2.17c-.95,1.06-1.7,2.29-2.56,3.44-.68.91-1.39,1.8-2.07,2.72-.34.46-.63,1-1,1.41a6.76,6.76,0,0,1-.68.68Z"/><path d="M100.41,48.06l.06-.06c.51-.94.94-1.92,1.35-2.9a20.7,20.7,0,0,0,.69-2.34c-1.27.28-2.44.5-3.57.81s-2.31.72-3.52,1.1a1,1,0,0,0,1.23.69,6.32,6.32,0,0,0,2.4-.84A3.07,3.07,0,0,1,101,44c0,.2.07.3,0,.39A13.84,13.84,0,0,1,99.21,48c-.71,1-1.49,2-2.23,3-.44.58-.9,1.14-1.29,1.75-1.06,1.66-2.08,3.35-3.12,5-.33.53-.67,1-1.08,1.67a3,3,0,0,0-.16-.3c-.49-.71-.52-.71-1.32-.52s-1.55.37-2.33.49a5.41,5.41,0,0,1-1.43,0c-.91-.11-1.82-.24-2.72-.44A20.38,20.38,0,0,1,81.27,58c-.57-.2-1.11-.46-1.66-.7s-1.36-.53-2-.87c-.83-.46-1.61-1-2.43-1.5Q73.59,53.94,72,53a5.87,5.87,0,0,0-2.4-.86,3.41,3.41,0,0,1-1.67-.62,16.24,16.24,0,0,0-2-1c-.72.73-.72.75-1.68.71a11.06,11.06,0,0,0-4.18.71,15.1,15.1,0,0,0-3.63,2.4,5,5,0,0,0-2,3.52c0,.1-.05.19-.06.28-.32,2.19-.49,4.36.71,6.38a3.71,3.71,0,0,0,.41.47,1.45,1.45,0,0,0,.12-.28.75.75,0,0,0,0-.28,9.08,9.08,0,0,1-.12-4.61,7.55,7.55,0,0,1,2-4.15,10.16,10.16,0,0,1,3.11-2.12,9.08,9.08,0,0,1,3.88-.84,15.72,15.72,0,0,1,5.86,1.13c.85.36,1.71.68,2.54,1.08s1.78,1,2.66,1.46,1.56,1,2.38,1.4,1.81.78,2.71,1.17a21,21,0,0,0,5.89,1.49,5.24,5.24,0,0,0,2.45-.22c.64-.23,1.29-.42,2-.64l.25.79a2.58,2.58,0,0,0,.6-.36c.86-1,1.77-1.9,2.53-2.94,1-1.36,1.86-2.81,2.79-4.21.12-.19.25-.37.38-.55.58-.8,1.2-1.58,1.78-2.39C99.63,49.29,100,48.67,100.41,48.06Z"/><path d="M75.61,91.68a7.61,7.61,0,0,1-3.74.41,7.24,7.24,0,0,0-1,0,54.67,54.67,0,0,1-6.49-.75c-.59-.09-1.19-.14-1.79-.22a1.38,1.38,0,0,1-.46-.1c-1.41-.76-3-.72-4.51-1a.57.57,0,0,0-.19,0,5,5,0,0,1-2.67-.77.82.82,0,0,0-.69,0c-.49.34-1.1.56-1.3,1.27a1.79,1.79,0,0,1-1,1,12.15,12.15,0,0,0-1.58,1.23c0-.25-.1-.46,0-.56.32-.5.69-1,1-1.47l1.13-1.53c.34-.46.64-.94,1-1.37a22.78,22.78,0,0,0,4-6.62,34.58,34.58,0,0,0,1.6-6c.19-.93.21-1.9.33-2.84a3.56,3.56,0,0,1,.22-1,.73.73,0,0,1,.55-.38.69.69,0,0,1,.52.42,6.14,6.14,0,0,1,.06,3.17,44.19,44.19,0,0,0-1,4.64,9.3,9.3,0,0,1-.41,1.27c-.25.68-.52,1.36-.78,2A12.57,12.57,0,0,1,56.57,86c-.31.4-.57.83-.88,1.23s-.18.64.15.78a9.09,9.09,0,0,0,1.62.52c1.49.32,3,.63,4.47.9,1.34.24,2.7.42,4,.63.88.14,1.75.32,2.63.42,1.39.15,2.79.21,4.17.4,1,.13,1.9.4,2.85.61Z"/><path d="M142.94,139.67a2.58,2.58,0,0,1-.33.51,40.56,40.56,0,0,1-4.48,3.38,17.25,17.25,0,0,1-5.21,2.27c-.9.17-1.78.47-2.69.56a2.7,2.7,0,0,1-3-2.51,14.77,14.77,0,0,1,.42-6.41c.2-.63.33-1.29.47-1.94.22-1,.46-1.13,1.52-.58.32-.63.91-.63,1.53-.58.41,0,.82.09,1.23.09,1.1,0,2.22,0,3.31-.13a1.67,1.67,0,0,0,.93-.73c1.52-2.16,3-4.31,4.47-6.52.95-1.46,1.73-3,2.59-4.54a11.6,11.6,0,0,0,1.57-4.26c.05-.39.22-.7.67-.6s.46.49.36.84a18.59,18.59,0,0,1-.76,2.45c-.43,1-1,1.91-1.49,2.87-.2.39-.32.83-.55,1.2-.57.9-1.18,1.79-1.78,2.68s-1.13,1.53-1.61,2.35a6.19,6.19,0,0,0-.4,1.45,2.08,2.08,0,0,1-.21.63c-.59.83-1.21,1.62-1.8,2.45a1.73,1.73,0,0,0-.34.83.68.68,0,0,1-.6.73,7.34,7.34,0,0,1-1.42.1,13.32,13.32,0,0,1-1.7-.19,3.3,3.3,0,0,0-2,.16,2.33,2.33,0,0,1-2.13-.14c-.11.12-.23.2-.26.31a27,27,0,0,0-1.54,7.64c0,.55.11.81.64.88.75.09,1.51.07,2.27.09.12,0,.25-.08.37-.07,2.1.08,3.83-1,5.61-1.88a23.13,23.13,0,0,0,4.28-2.65A3.46,3.46,0,0,1,142.94,139.67Zm-4.6-7.25a2.53,2.53,0,0,0-.22.34s.13.14.17.12a.31.31,0,0,0,.17-.18C138.47,132.64,138.4,132.56,138.34,132.42Z"/><path d="M76.68,161.29a8.41,8.41,0,0,0-1.92-2.06c-1.2-1-2.48-1.86-3.71-2.81a2,2,0,0,0-.81-.48,9.2,9.2,0,0,1-2.64-1.28,1.25,1.25,0,0,1-.71-1.14,14.38,14.38,0,0,0-.35-1.56,11.49,11.49,0,0,1-.3-1.4,10.86,10.86,0,0,0-.91-3.28,15.75,15.75,0,0,1-.44-1.66c-.32-1-.64-2.06-1-3.07-.45-1.24-.94-2.47-1.45-3.69-.61-1.45-1-3-1.7-4.4a7.44,7.44,0,0,1-.43-1.94c-.07-.33-.07-.67.34-.77a.69.69,0,0,1,.88.38c.19.44.33.9.5,1.34l1.67,4.25c.51,1.3,1.06,2.58,1.52,3.9s.87,2.72,1.3,4.09a3.09,3.09,0,0,0,.13.55,9.71,9.71,0,0,1,.85,4.44c0,.78.09,1.56.19,2.34a.63.63,0,0,0,.46.4c1.67.13,2.78,1.34,4.13,2.08.33.18.66.38,1,.58a17.18,17.18,0,0,1,3.22,2.63,6,6,0,0,1,1.41,1.78c.07.17.24.36.21.52a6.08,6.08,0,0,0,.34,2.39c.11.49,0,.66-.52.84s-.69.09-.85-.33a10.39,10.39,0,0,1-.54-1.52A3.55,3.55,0,0,1,76.68,161.29Z"/><path d="M40,94.32a1.53,1.53,0,0,1-.18-2,3.41,3.41,0,0,1,.3-.37,28.43,28.43,0,0,1,2.65-3.06,30.77,30.77,0,0,0,3.53-4.32,12.05,12.05,0,0,1,1.28-1.4,9.67,9.67,0,0,0,2.23-3.28l.16-.35,2.58-5.29a6.61,6.61,0,0,1,.31-.59,3.78,3.78,0,0,0,.7-2.23,2.07,2.07,0,0,1,.08-.76,7.36,7.36,0,0,0,.24-3.21s0-.06,0-.1c0-.61.24-1.1.61-1.15s.69.24.86.87a3.17,3.17,0,0,1,.18,2.39c-.13.26,0,.63-.06.94-.07.53-.18,1.06-.27,1.58a2.59,2.59,0,0,0-.1.56A5.12,5.12,0,0,1,54,75.49a8.94,8.94,0,0,0-.49.81c-.57,1.21-1.11,2.43-1.67,3.63a8,8,0,0,1-.51.8l-.65,1.05A12.07,12.07,0,0,1,50,83c-1.1,1.39-2.23,2.76-3.36,4.13-.24.29-.53.54-.79.82A18.48,18.48,0,0,0,43.9,90c-1,1.51-2.44,2.66-3.58,4.06A1.84,1.84,0,0,1,40,94.32Z"/><path d="M41.89,102.49c.22,0,.44-.06.66-.11a.61.61,0,0,1,.82.42,3.25,3.25,0,0,0,1.8,1.87.86.86,0,0,1,.31.22c.78.92,1.58,1.82,2.31,2.78a11.11,11.11,0,0,1,1.36,2.17,19.05,19.05,0,0,1,1.92,5.84,11.57,11.57,0,0,0,.3,1.29,21.77,21.77,0,0,1,.65,6.23c-.09,1.17-.21,2.34-.28,3.51-.06,1,0,2-.11,3a11.22,11.22,0,0,1-.23,1.69,19,19,0,0,1-.67,2.57,3.22,3.22,0,0,1-.92,1.17.85.85,0,0,1-.77,0,.54.54,0,0,1-.13-.84c1-1.23.88-2.75,1.15-4.16a29.07,29.07,0,0,0,.46-4,52.32,52.32,0,0,0,.1-5.71,7.3,7.3,0,0,0-.84-3.4.87.87,0,0,1-.13-.45,11.75,11.75,0,0,0-1.17-4.67c-.33-.89-.79-1.73-1.2-2.59a14.76,14.76,0,0,0-3.44-4,24.14,24.14,0,0,1-1.9-2.13c-.12-.14,0-.44,0-.68Z"/><path d="M61.65,158.81a3,3,0,0,1-1.18-1.74,1.88,1.88,0,0,0-.24-.6,1.43,1.43,0,0,1-.33-1,1.13,1.13,0,0,0-.25-.8c-.86-.94-.94-2.21-1.47-3.29-.32-.65-.61-1.32-.89-2s-.41-1.13-.62-1.7c-.05-.15-.07-.36-.17-.43-.48-.28-.6-.8-.88-1.21s-.82-1-1.24-1.55a3.17,3.17,0,0,1-.3-.37c-1.38-2.36-3.41-4.15-5.27-6.1a4.39,4.39,0,0,1-.67-.92c-.25-.45-.07-.73.45-.77a1.62,1.62,0,0,1,1.37.55c.73.79,1.43,1.62,2.2,2.38A27.89,27.89,0,0,1,56.65,145a46.25,46.25,0,0,1,2.09,4.23c.83,1.81,1.1,3.77,1.93,5.56a8.23,8.23,0,0,1,.21.83,5.89,5.89,0,0,0,.77,2.21c.17.21.15.58.23.88Z"/><path d="M117.46,157.87l-1.12-1c.1.5.17.84.23,1.18a9,9,0,0,1-.3,4.33,4.42,4.42,0,0,0,0,1.42c0,.63-.13,1-.45,1a.94.94,0,0,1-.88-.86,13.66,13.66,0,0,1,0-2.19c.08-1.43.19-2.85.35-4.27a5.31,5.31,0,0,1,.45-1.17c0-.31-.36-.53-.68-.8a48.78,48.78,0,0,1-5.93-5.23,10,10,0,0,1-1.09-1.55.66.66,0,0,1,.27-1c.4-.2.75,0,1,.39a11.28,11.28,0,0,0,.8,1c.21.27.42.54.65.79.76.81,1.51,1.63,2.3,2.4,1.1,1.06,2.27,2,3.34,3.12a8,8,0,0,1,1.08,1.77C117.51,157.29,117.46,157.47,117.46,157.87Z"/><path d="M93.77,45a1.88,1.88,0,0,1,.69-1.29c1.81-1.59,3.66-3.14,5.41-4.79A19.6,19.6,0,0,0,103,35.19c1.13-1.79,2.23-3.6,3.32-5.41.74-1.21,1.66-2.31,2.49-3.47a.85.85,0,0,1,.13-.14c.23-.2.49-.34.77-.11a.52.52,0,0,1,.06.83c-1.47,1.5-2.15,3.51-3.34,5.18-.79,1.1-1.39,2.35-2.2,3.43A27.85,27.85,0,0,1,101,39.66c-.26.23-.53.45-.8.68-.51.43-1,.87-1.52,1.28-.77.6-1.54,1.2-2.32,1.79-.53.4-1.07.79-1.62,1.17C94.45,44.72,94.18,44.84,93.77,45Z"/><path d="M78,67H76.83a24.9,24.9,0,0,1-6-.67,14.65,14.65,0,0,1-4-1.41,19.94,19.94,0,0,1-5.25-3.56,1.54,1.54,0,0,0-.45-.35c-1.05-.48-1.52-1.49-2.16-2.34a1.49,1.49,0,0,1-.31-.68.68.68,0,0,1,.22-.57.61.61,0,0,1,.58.06,4.88,4.88,0,0,1,1,1.17,5.9,5.9,0,0,0,1.72,2c.7.54,1.31,1.22,2,1.69,1.44.92,2.93,1.78,4.44,2.57a9.15,9.15,0,0,0,2.08.66,32.93,32.93,0,0,0,6.65,1.07,4.72,4.72,0,0,1,.7.13C78,66.81,78,66.89,78,67Z"/><path d="M62.07,159.92a6.18,6.18,0,0,1,.95.26c2.06,1,4,2.06,5.06,4.25.2.42.37.74,0,1.09a1,1,0,0,1-1.24,0,1,1,0,0,1-.35-.44,2.92,2.92,0,0,0-1.26-1.82,8.22,8.22,0,0,0-2.78-1.72,2.45,2.45,0,0,1-.61-.27c-.31-.17-.52-.46-.35-.78S61.88,160.07,62.07,159.92Z"/><path d="M104.35,59.74c-.32.14-.73.47-1,.38s-.38-.59-.51-.92a2.85,2.85,0,0,1-.06-.66c-.08-.73.19-1.51-.32-2.19-.07-.1,0-.34.07-.5.52-.13.73.23.85.52a12.65,12.65,0,0,1,.56,1.8c.11.45.16.92.24,1.38Z"/><path d="M164.3,28.05c0,.41-.24.57-.56.49a4.18,4.18,0,0,1-1.13-.44.93.93,0,0,1-.13-1.34c.27-.34.61-.34,1.08,0A1.86,1.86,0,0,1,164.3,28.05Z"/><path d="M69.45,166.25c.23-.1.37-.17.52-.22a4.17,4.17,0,0,1,.47-.11l.22,2.15A2.18,2.18,0,0,1,69.45,166.25Z"/><path d="M58.73,157.89a7.68,7.68,0,0,1,.51.91.42.42,0,0,1-.15.39.46.46,0,0,1-.42-.05C58.3,158.81,58.28,158.44,58.73,157.89Z"/><path d="M125.7,15.13a6.31,6.31,0,0,1-.83-.33c-.09-.05-.1-.25-.14-.39.16,0,.38-.18.47-.12a4.27,4.27,0,0,1,.65.6Z"/><path d="M114.79,142.13v.9C114.2,142.82,114.19,142.75,114.79,142.13Z"/><path d="M153.66,112l.53-.38c.05.12.11.19.09.22a.75.75,0,0,1-.24.26.86.86,0,0,1-.33,0Z"/><path d="M116.45,165.41c.07.05.15.1.15.11a1.24,1.24,0,0,1-.13.18s-.12-.07-.12-.1A.83.83,0,0,1,116.45,165.41Z"/><path d="M128.09,21.43s-.06.11-.1.11-.09,0-.14-.08l.14-.16Z"/><path class="b" d="M77.06,163.9s-4.23,2.42-6.62,2"/></svg>