<svg xmlns="http://www.w3.org/2000/svg" viewBox="0 0 107.87 148.19"><defs><style>.a{fill:#fff;}.b{fill:none;stroke:#000;stroke-miterlimit:10;stroke-width:2px;}</style></defs><title>horse-5</title><path class="a" d="M101.71,134.16a26.64,26.64,0,0,1-6.94-15.06C94,111.74,93,104.41,93.05,97a9.92,9.92,0,0,0-.48-3.91,13.4,13.4,0,0,1-.84-7c.68-5.88,1.28-11.76,1.74-17.67.32-4.19-1.78-6.9-4.1-9.74-2.49-.91-3.14-3-3.19-5.32-.11-3.69-.33-7.41-.1-11.09A41.72,41.72,0,0,1,87.62,34c.68-2.51,2.12-3.23,4.72-2.79a44.23,44.23,0,0,1,4.34,1,4,4,0,0,0,4-1.21,20.72,20.72,0,0,0,3.79-5.43c2.06-3.81,1.39-6.84-2.33-9-2.68-1.55-5.51-2.86-8.32-4.16-1.33-.61-2.86-.79-3.81-2.11-1.15-1.6-.25-3.09.11-4.65.29-1.27.5-2.67-1.26-3.71-1,.63-2.14,1.28-3.18,2a3.85,3.85,0,0,1-3.31.89c-3.71-.94-7.61-1.23-11-3.37A9.21,9.21,0,0,0,69,.72L65.66,5a4.51,4.51,0,0,1,1,5.35q-.59,1.43-1.11,2.89a1.86,1.86,0,0,1,.9,1c-.49.15-1,.34-1.41.47q-.34,1-.63,2.09c1.57,5.6.16,11.61-.75,17.51a4.56,4.56,0,0,1-1.89,3.11h0c-.83,1.23-1.7,2.4-2.46,3.65A5.92,5.92,0,0,1,54.11,44a30,30,0,0,1-4.85-.4Q44,42.93,38.7,42.17a4,4,0,0,0-4.51,2.06,44.3,44.3,0,0,0-2.78,5c-1.45,3.48-4.45,5.59-9,4.21-1.56-.47-3.15-.83-4.73-1.2a5.49,5.49,0,0,0-4.64,1C8.21,56.72,4.71,61.13,3.19,67a20.41,20.41,0,0,0,0,9.23c1.15,5.85,3,11.46,7,16.09.58.67,1.07,1.41,1.61,2.12a4.12,4.12,0,0,1,.48,4.94c-1.14,2.07-1.94,4.33-3.09,6.39A20,20,0,0,0,7,112.05a17.76,17.76,0,0,1-.69,3,4.86,4.86,0,0,0,0,3.46,23.83,23.83,0,0,1,.84,12.69A11.93,11.93,0,0,0,7.39,136a49.38,49.38,0,0,0,2,5.6c2.13.24,3.79,1.65,5.36,3.21a4.92,4.92,0,0,0,3.56,1.5c3.85.07,7.69.27,11.54.33a16,16,0,0,0,6.13-.83c.38-.85.8-1.64,1.08-2.47s.43-1.71.63-2.52c-.74-1.34-2-2.12-2.38-3.73a59.26,59.26,0,0,0-2.65-8.45,24.41,24.41,0,0,1-1.56-10.45c.15-2.5.39-5,.47-7.52a6.78,6.78,0,0,1,2.15-5.15c3.7-3.42,7.3-6.94,10.95-10.4a6.52,6.52,0,0,1,6.95-1.52A54.92,54.92,0,0,0,66.92,96a32.09,32.09,0,0,1,5.28.62c3,.55,3.61,2.23,1.78,4.73a12.11,12.11,0,0,1-5.48,4.38c-.69.26-1.4.49-2.1.71a6.21,6.21,0,0,0-1.89.92c-.23,5.24-1.93,11.91.9,16.6,1.35,1.07,3.08,1.13,4.49-1.17a58.79,58.79,0,0,1,3.86-5.41,28.72,28.72,0,0,1,7.32-7c2,1.71,2.29,3.89,2.35,6.11a19,19,0,0,1-.28,3.08c-.75,5.47,2.3,9.63,4.85,13.95a3.07,3.07,0,0,0,1.38,1.07c1.64.74,2.25,2.05,2.76,3.74a18.17,18.17,0,0,0,2.63,4.59,2.79,2.79,0,0,0,1.74,1.22c2.75.19,5.56.71,8.15-.35,1.05-2,1.1-3.85-.16-5.6A41.59,41.59,0,0,0,101.71,134.16Zm-81.78-4.38c-1.86-3.6-1.86-6.37-.09-11.7C20.71,122.15,19.37,125.74,19.93,129.78Z"/><path d="M107.78,21.79a3.1,3.1,0,0,0-1.7-2.63c-.38-.17-.65-.6-1-.94a7.39,7.39,0,0,0-1-1.15c-1.25-.93-2.55-1.79-3.85-2.66a1.1,1.1,0,0,0-.62-.25c-.9.12-1.18-.46-1.49-1.12a12,12,0,0,0-1.64-3,8.64,8.64,0,0,0-3.14-2.41,2.14,2.14,0,0,1-1.5-2.84,6.75,6.75,0,0,1,1.51-2.9s0-.17,0-.29l-.9-.6L93.2.23c-1-.26-1-.31-1.6,0C90.42,1,89.26,1.74,88.12,2.5a3,3,0,0,1-4-.1A12.67,12.67,0,0,0,81.9,1,12.4,12.4,0,0,0,79.17.06a4,4,0,0,0-3.41,1.19,4.43,4.43,0,0,1-3.35.92,27.4,27.4,0,0,0-3.56.15c-.17,0-.31.25-.53.43.22.19.33.39.48.41A4.18,4.18,0,0,1,70.93,4.3a5.2,5.2,0,0,0,2.85,1L72.09,3.41l.11-.27c.43,0,.85.07,1.27.14a3,3,0,0,0,2.27-.37A11.93,11.93,0,0,1,79.2,1.58a2,2,0,0,1,1.85.19c1.47,1,3,1.94,3.6,3.84.21.72.58.8,1.26.42.19-.1.36-.24.53-.35,1,1.23.88,2.19-.46,2.73-.59.24-1.28.26-1.85.54a10.31,10.31,0,0,0-1.54,1.11c-4.46-1-8.12-3.75-12.65-5.3L71,6.66a8.09,8.09,0,0,0-4.11,2.85c0,.17-.1.35-.17.52l.91.4a10.4,10.4,0,0,1-1.35,1.87c-.2.16-.4.31-.6.47q-.55,1.5-1,3a4.75,4.75,0,0,0,.48-.24,8.67,8.67,0,0,0,3.61-4.22c.23-.62.6-1.15-.15-1.85a21.35,21.35,0,0,1,3.25-1.24c.53-.11,1.18.35,1.78.54l.27,0c2.61.33,4.85,1.65,7.16,2.76.91.44,1.76,1,2.62,1.51a3,3,0,0,1,1.45,1.36c-.61-.32-.95-.52-1.3-.69-1.65-.81-3.25-1.69-4.94-2.39a38.36,38.36,0,0,0-4.22-1.29,12.73,12.73,0,0,0-2.16-.45c-.29,0-.61.24-.92.38.16.3.26.69.51.87a3.55,3.55,0,0,0,1.16.41c1.29.34,2.6.6,3.87,1a20.7,20.7,0,0,1,9.49,5.88c1,1.13,2.06,2.22,3,3.41a3.7,3.7,0,0,1,1,3.31,11.57,11.57,0,0,1-1,2.23c-.67,1.24-1.4,2.46-2.11,3.73,1,.9.71,1.81.15,2.75a3.8,3.8,0,0,0-.48,1.13,15.15,15.15,0,0,0-.48,4.09,7.51,7.51,0,0,1-.11,1.1c-.29,3.14-.77,6.29.15,9.41,0,.08.06.21,0,.26-.57.71-.07,1.4,0,2.1.15,1.48.81,2.94,0,4.48.38.34.9.58,1,1,.48,1.31.85,2.66,1.26,4,0,0,0,.1,0,.13l.25.21.78-.87a20.73,20.73,0,0,1,1.89,3.94.53.53,0,0,1,0,.27,13.75,13.75,0,0,0,.64,5.3,22.39,22.39,0,0,1,.6,3.67c.09,1.64,0,3.28,0,4.92a53.22,53.22,0,0,1-.53,8.87,7.59,7.59,0,0,0,0,1c0,1.14-.06,2.27-.1,3.41,0,.82-.1,1.64-.11,2.45a8.91,8.91,0,0,1-.21,2.73,4.8,4.8,0,0,0,.08,1.75,3.76,3.76,0,0,1,.11,1,12.49,12.49,0,0,0-.34,4.64,11.56,11.56,0,0,1,0,2.06,8.48,8.48,0,0,0,.4,3.64,20.12,20.12,0,0,1,1.07,4.4c.24,1.4.3,2.83.49,4.24a14.83,14.83,0,0,0,.46,1.73c.38,1.52.73,3,1.13,4.55a10.25,10.25,0,0,0,.62,2c.81,1.65,1.69,3.26,2.57,4.87.49.89,1.13,1.69,1.53,2.6a7.51,7.51,0,0,0,2.23,2.76,3.74,3.74,0,0,1,1.26,1.91c.35,1.27,1.19,2.37,1.35,3.73.06.49.52.61,1,.47s.52-.48.44-.88a8.72,8.72,0,0,0-2-4.58,29.57,29.57,0,0,1-4.17-5.66,33.45,33.45,0,0,1-4.57-14c-.1-1.28-.45-2.53-.61-3.81-.34-2.59-1.65-4.91-1.92-7.54-.1-.94-.22-1.87-.25-2.83a10.57,10.57,0,0,1,.36-3.62,3.72,3.72,0,0,0,.07-1.24c0-1-.17-1.93-.16-2.89,0-1.83.09-3.66.22-5.48a43.36,43.36,0,0,1,.58-5.18,12.44,12.44,0,0,0,.27-3.27c0-.69-.09-1.38-.07-2.07.07-2.48.16-4.95.24-7.43a4.26,4.26,0,0,0,0-.69c-.28-1.91-.52-3.83-.86-5.73-.29-1.58-.75-3.13-1.07-4.71a7.17,7.17,0,0,0-2-3.85,8.39,8.39,0,0,1-2.61-5c-.17-1.5-.24-3-.29-4.53,0-1.33,0-2.66,0-4s.16-2.84.25-4.26c.06-1,.06-2,.21-3,.25-1.68.64-3.35.89-5a7.23,7.23,0,0,1,1.84-4,1.17,1.17,0,0,1,.8-.39,2.68,2.68,0,0,1,1.9.68,2.54,2.54,0,0,0,1.33.61,10.53,10.53,0,0,1,3.69,1.05,4.59,4.59,0,0,0,4.1.3c.13,0,.29,0,.4-.07a8.54,8.54,0,0,0,1.11-.73c.69-.58,1.31-1.26,2-1.79a3.22,3.22,0,0,0,1.54-2.62A23.18,23.18,0,0,0,107.78,21.79Zm-8.43-6.16a4.76,4.76,0,0,1-.08,5.94c-.51-1,.15-2,.1-2.93S99.36,16.78,99.36,15.63ZM88.33,4.4a9.73,9.73,0,0,1,3.33-2.66l-3,3.59C88.18,5.21,87.93,4.82,88.33,4.4Zm3.4,3.67-.27.19c0-.08-.13-.18-.11-.23a1.13,1.13,0,0,1,.24-.25Zm-5.11,5.39c-.68-.55-1.42-1-2.1-1.56a14.5,14.5,0,0,1-1.13-1.13c.9-1.13,1.93-1.44,2.92-.69s1.67.85,2.5-.17c.14.28.21.45.3.59.48.73.79.79,1.41.27,1-.84,1.14-.86,2.21-.16.85.55,1.72,1.08,2.51,1.7a4.17,4.17,0,0,1,1.19,1.31,37.33,37.33,0,0,1,1.88,4.12,3.34,3.34,0,0,1-.08,1.76c-.2.89-.52,1.75-.85,2.79l-1-.48a12.9,12.9,0,0,0-3.52-1.52,2.36,2.36,0,0,1-1.9-1.6C90.17,16.41,88.42,14.9,86.62,13.45Zm3.66,7-2.92-3.9C89.47,17,90.58,18.51,90.28,20.49ZM91.4,21.9,90.61,21c.75-.1,1.1,0,1.15.5C91.77,21.65,91.53,21.78,91.4,21.9Zm3.2,3.93c.06.12-.18.52-.38.64a1.36,1.36,0,0,1-2-1.13c-.06-.72-.21-1.44-.34-2.31a5.41,5.41,0,0,1,3.32,1.32C94.74,24.75,94.23,25.12,94.61,25.83Zm1.76,1.62a2.25,2.25,0,0,1,3.14-.34c.72.41,1.48.72,2.22,1.09.38.19.75.41,1.13.62C100.26,29.85,98.35,28.52,96.37,27.45Zm9.47-2.35c-.09.22-.37.37-.58.54s-.19,0-.26.07a4.11,4.11,0,0,1-4,.1,8.26,8.26,0,0,0-2-.25c.95-2.22,2.39-4.34,2.28-7.07a3.7,3.7,0,0,1,.94.17,8.83,8.83,0,0,1,3.58,3.52A3.19,3.19,0,0,1,105.84,25.1Z"/><path d="M10.2,92.12c-.56-.66-1.15-1.3-1.66-2-.68-.9-1.1-2-2.24-2.53-.22-.1-.34-.51-.44-.8a11.78,11.78,0,0,0-.64-1.92c-.7-1.22-1.26-2.51-2-3.71A33.51,33.51,0,0,1,.86,76.08a4.27,4.27,0,0,1-.09-1.36h0a4.1,4.1,0,0,1,.75,1A74.9,74.9,0,0,0,7,86.18a22.08,22.08,0,0,0,3.58,4c1.93,2,3.9,3.92,5.87,5.85a9.39,9.39,0,0,1,2.84,7.9,7.16,7.16,0,0,1-.64,1.93,3.39,3.39,0,0,0-.4,1,3.51,3.51,0,0,0,.67-.33,47.59,47.59,0,0,0,3.82-3.12,14.84,14.84,0,0,0,2.08-2.88,20.51,20.51,0,0,0,1-2.26A13.12,13.12,0,0,0,27,90.93a4.16,4.16,0,0,0-.23-.94A39.6,39.6,0,0,0,20,78.82a32.87,32.87,0,0,1-2.62-4A32.49,32.49,0,0,0,15.47,72a3.75,3.75,0,0,0,.71,2.49,22.58,22.58,0,0,1,1.33,2.21,7.81,7.81,0,0,1-2.84-4.31,7,7,0,0,1,1.49-6.07c.6-.77,1.18-1.58,1.82-2.33a2.51,2.51,0,0,1,3.09-.86,1.42,1.42,0,0,1,.92,2c-.07.21-.24.46-.17.63.6,1.59-.5,2.63-1.41,3.46a3.13,3.13,0,0,0-.91,3.24c.16.9.45,1.79.61,2.69a1.7,1.7,0,0,1-.38,1.24c.63.85,1.26,1.69,1.89,2.54a59.06,59.06,0,0,1,5.26,7.94A14.08,14.08,0,0,1,28.62,93a13.58,13.58,0,0,1-.48,3.53,18.61,18.61,0,0,1-3.48,6.84,5.93,5.93,0,0,0-1.49,4.26c.08,1.21,0,2.44-.06,3.74l1,.11a14.86,14.86,0,0,1-.44,3.79,31.21,31.21,0,0,0-1.44,4.53,10,10,0,0,1-.79,2.06q-1.19,2.64-2.42,5.26a4.85,4.85,0,0,1-.75,1.15c-.41.46-.85.46-1.19,0l.6-1.87c.07-.22.07-.52.22-.65,1-.83,1-2.13,1.59-3.13a2.61,2.61,0,0,0,.27-.91c.19-1.08.32-2.17.53-3.25a5.88,5.88,0,0,0,.33-2.7c-.06-.23.27-.55.35-.84a4.87,4.87,0,0,0,0-1c-1.55,1.66-3,3.14-4.33,4.67A2.2,2.2,0,0,0,16.1,120c0,2.85.14,5.7.19,8.56,0,1.2,0,2.4,0,3.59a2.27,2.27,0,0,1-.05,1c-.66,1.25,0,2,.81,2.89,1,1.11,1.91,2.36,2.85,3.55a7.41,7.41,0,0,1,1.35,4.83,6.44,6.44,0,0,1-1.22,3.1l-.34,0c0-.42,0-.84,0-1.25.2-2.7-.2-5.2-2.3-7.17a12.62,12.62,0,0,1-1.81-2.05,4.4,4.4,0,0,1-.61-1.77,19,19,0,0,1-.14-2.47c0-.36.06-.72.09-1.09a6,6,0,0,0,.07-2,13.76,13.76,0,0,1-.25-4,10,10,0,0,0-.15-1.5c-.14-.74-.34-1.48-.54-2.35l-1.22.21c-.37-.51-.09-.86.16-1.18,1.29-1.68,2.63-3.31,3.88-5,1.39-1.89,2.77-3.79,4-5.76.75-1.16.69-1.34.69-2.88-.08,0-.2-.1-.23-.08a10.14,10.14,0,0,1-3.51,1.76,20.6,20.6,0,0,0-3.25,1.77,2,2,0,0,1-1,.28,1.12,1.12,0,0,1-.68-.53c0-.08.23-.45.43-.58s.77-.32,1.13-.52a2.28,2.28,0,0,0,.64-.52c2.65-3.11,3.52-6.64,1.54-10.6a4,4,0,0,0-.61-.66,29,29,0,0,1-4.38,8.82c-1.79,2.71-4.16,4.87-6.25,7.31-.35-1.08.33-1.74.78-2.4.83-1.25,1.84-2.38,2.78-3.56a.52.52,0,0,0,.14-.23c.13-1.23,1-2,1.65-3A16.63,16.63,0,0,0,12,102.34c.69-1.44,1.29-2.92,1.89-4.4.17-.42.18-.91.37-1.31a1.21,1.21,0,0,0-.46-1.69,17,17,0,0,1-3.13-2.87c-.08-.08-.35,0-.53.07ZM20.47,65.06l-.28-.32c-.53.16-1.2.18-1.55.52a10.87,10.87,0,0,0-3.17,5.31,18.71,18.71,0,0,1,3.61,4.6A4.78,4.78,0,0,0,18.32,72c-.17-.35-.46-.8-.37-1.11a17.9,17.9,0,0,1,1-2.81C19.42,67.06,20,66.07,20.47,65.06Z"/><path d="M.77,74.71A3.78,3.78,0,0,1,0,71.84c.21-1.86.76-3.68,1-5.53a14.61,14.61,0,0,1,2.5-6.07c1.72-2.74,3.75-5.3,6.79-6.7a27,27,0,0,1,4.22-1.26c.71-.19,1.45-.29,2.17-.43A4.39,4.39,0,0,1,21.52,54a1.54,1.54,0,0,0,2,.87c1.77-.5,3.54-1,5.3-1.48,1.46-.42,2.92-.83,4.36-1.31s3-1,4.55-1.61c.94-.35,1.84-.8,2.82-1.23-.29-.53-.67-.41-1.06-.27s-.74.23-.95-.22a.7.7,0,0,1,.43-1,3.45,3.45,0,0,1,1.71-.26,8.9,8.9,0,0,1,5,3.22c2.06,2.6,4.05,5.25,6,7.9.77,1,1.46,2.13,2.19,3.19a2.1,2.1,0,0,0,1.69,1,2.29,2.29,0,0,1,1.19.55,6.47,6.47,0,0,0,5.4,1.51c.77-.14,1.54-.31,2.31-.4s1.6-.09,2.59-.14a15.47,15.47,0,0,0,2-1.44,7.39,7.39,0,0,0,1.24-1.79c.8-1.39,1.77-2.68,1.93-4.37a7.73,7.73,0,0,0-1.07-5,15.9,15.9,0,0,0-2.38-2.44c-.23-.22-.6-.39-.69-.65-.52-1.44-1.76-2.28-2.71-3.36A3.9,3.9,0,0,0,63.53,44c-.89-.25-1.73-.61-2.62-.86A5.62,5.62,0,0,0,59.3,43a16.36,16.36,0,0,0-1.92.22,5.25,5.25,0,0,0-2.41.74,9.05,9.05,0,0,1-3,.76c-.23.05-.52,0-.67.09-1.29,1-2.8.84-4.24.71a7.5,7.5,0,0,1-4.71-1.64c-1.24-1.14-2.15-1.1-3.51,0a25.31,25.31,0,0,0-5,4.77,1.79,1.79,0,0,1-.4.37.72.72,0,0,1-.26.06c-.07-.06-.2-.12-.19-.17a8.82,8.82,0,0,1,5.19-7,11.25,11.25,0,0,1,4-.72,1,1,0,0,1,1.13.76A3,3,0,0,0,46.13,44a18.35,18.35,0,0,0,5.32-.35c.31-.05.63-.14.95-.19a5.14,5.14,0,0,0,3-.91,2.75,2.75,0,0,1,3.05-.11c-.23-.94.23-1.22.86-1.52,1.17-.53,2.28-1.19,3.4-1.81,1.33-.74,1.37-.77,2.27.37a2.06,2.06,0,0,0,1.89.9,5.25,5.25,0,0,1,1,.11c.25.56,0,.8-.42.89a7.31,7.31,0,0,0-1,.07,1.94,1.94,0,0,0-.95.65c-.1.16.19.62.39.88q1.27,1.63,2.6,3.21c.41.49.9.91,1.35,1.36a18.49,18.49,0,0,1,3,4.45,6.43,6.43,0,0,1,.67,4.68c-.09.4,0,.84-.15,1.23-.25.77-.58,1.51-.9,2.24-.12.28-.39.52-.47.8a4.31,4.31,0,0,1-2,2.26c-.18.76.48.73.89.9a24.07,24.07,0,0,1-2.66,2.15,16.12,16.12,0,0,1-3.17,1.32,11.05,11.05,0,0,1-7.18.35,11.16,11.16,0,0,1-2.07-1.26,2.32,2.32,0,0,0-.3.29c-.4.57-.86.45-1-.09a12.4,12.4,0,0,0-2.25-3.75,3.15,3.15,0,0,1-.31-.91,2.66,2.66,0,0,0-.38-1c-1.38-1.48-2.15-3.39-3.67-4.78a54.74,54.74,0,0,1-3.8-4.36c-.42-.48-.87-1-1.65-.64a.45.45,0,0,1-.4,0c-1-.79-2-.27-2.88,0a15.15,15.15,0,0,0-3.44,1.37,10.2,10.2,0,0,1-2.62.8,28.34,28.34,0,0,0-3.68,1.1,27.46,27.46,0,0,1-5.9,1.41c-.9.18-1.8.41-2.71.51s-1.58.1-2-.92l.89-.25c0-.08,0-.22,0-.24a10.84,10.84,0,0,0-1.79-1,9.68,9.68,0,0,0-6.75.42,6.83,6.83,0,0,0-3.76,2.53l.82.3c0,.13,0,.26-.1.29a6.08,6.08,0,0,1-.95.55,6.11,6.11,0,0,0-3.21,3.29c-.9,2-1.66,4-2.43,6a10.63,10.63,0,0,0-.65,5.57,6.48,6.48,0,0,1-.11,1.47Z"/><path d="M72.07,25.38l1.07-.72-.76,3.73c-.75,3.65-1.47,7.3-2.26,10.93a2,2,0,0,0,1,2.31,31.85,31.85,0,0,1,4.25,3.51,18.67,18.67,0,0,1,3.9,6.26c1.54,3.93,1.93,8,2.43,12.14A10.8,10.8,0,0,1,81,67c-.09.4-.44.82-.35,1.15A4.92,4.92,0,0,1,80.12,71,28.27,28.27,0,0,1,79,74.08c-.53,1.22-1.15,2.4-1.79,3.56a7.7,7.7,0,0,1-1,1.16c.42.55.26,1-.44,1.32-.46.19-.62.56-.9.91-.56.7-1.16,1.5-2.32,1.41a4.06,4.06,0,0,0-1.71.43,60.3,60.3,0,0,1-9.68,2.72c-1.31.28-2.6.64-3.9.93a30,30,0,0,1-7.28.68c-.49,0-1,0-1.36,0-.12,1.33-.15,2.48-.33,3.6-.26,1.63-1.47,2.73-2.43,4a18.38,18.38,0,0,1-4.1,3.6c-1.49,1.06-3,2.15-4.48,3.16-.59.4-1.32.59-2,.93-1,.54-2,1.16-3,1.68a7.65,7.65,0,0,1-1.54.41l-.1-.26c1.89-1.28,3.77-2.56,5.65-3.85A53.3,53.3,0,0,0,42.52,96c1.68-1.56,3.57-3.12,4.14-5.56.26-1.11.46-2.23.73-3.53a8.16,8.16,0,0,1-4.61-1.76c-.07-.67.6-.89,1-1.26a15.33,15.33,0,0,0,4.38-6.43,11.64,11.64,0,0,0-.1-7l-.86,1.59a1.56,1.56,0,0,1-.13-1.31c.15-1.14.39-2.28.42-3.42,0-.65.32-1.66-.95-1.7-.09,0-.21-.28-.26-.44-.11-.35-.19-.71-.27-1.07-.44-2.16-1.77-3.92-2.66-5.87-.53-1.15-.62-1.1.28-2.27a23.62,23.62,0,0,0-1.5-2,20.56,20.56,0,0,0-2-1.69,4.46,4.46,0,0,1,3.41,1.8,11.41,11.41,0,0,1,1,2.09c.37.94.62,1.92,1,2.84a7,7,0,0,0,.93,1.31,3.49,3.49,0,0,1,.56.77c.47,1.3.91,2.6,1.33,3.91.83,2.6.68,5.37,1.42,8a7.18,7.18,0,0,1,0,3.94,41.72,41.72,0,0,1-1.91,5c-.42,1-.95,1.95-1.51,3.09.62.16,1.12.32,1.64.43a19.54,19.54,0,0,0,7.15-.11A84.1,84.1,0,0,0,66.86,83a48.82,48.82,0,0,1,5.08-1.3,5,5,0,0,0,3.31-2.46c1.56-2.27,2.3-4.89,3.28-7.41a10.84,10.84,0,0,0,.32-1.9c.31-1.66.68-3.32,1-5a8.54,8.54,0,0,0,0-4.19c0-.09-.09-.19-.07-.27.55-2.34-.6-4.37-1.13-6.52-.12-.49-.23-1-.38-1.47a2.89,2.89,0,0,0-.45-1c-1.65-2-3.15-4-4.67-6.09A16.61,16.61,0,0,0,70,42.56c-.61-.49-1.17-.84-.76-1.78a2.58,2.58,0,0,0,.05-1.49,7.6,7.6,0,0,1,.52-3.63,17.1,17.1,0,0,0,.48-5.06A22,22,0,0,1,72,21.44a28.8,28.8,0,0,1,2.19-5,9.1,9.1,0,0,1,2.68-2.93,1.54,1.54,0,0,1,.73-.32.83.83,0,0,1,.65.35c.08.17-.07.48-.17.71s-.21.18-.33.25a10.06,10.06,0,0,0-3.92,5.36c-.52,1.38-1,2.76-1.52,4.15A8.86,8.86,0,0,0,72.07,25.38Z"/><path d="M80.19,94.91a29.6,29.6,0,0,1,3.26,6.67,66.19,66.19,0,0,1,2.7,10.69c.46,2.43.68,4.91,1,7.38.13,1.14.07,2.31.31,3.43a5.64,5.64,0,0,0,1.06,2.19A20.76,20.76,0,0,1,90.28,128c1.25,2.29,2.72,4.46,4.06,6.71a17.7,17.7,0,0,1,1.33,2.71,19.41,19.41,0,0,1,.78,2.79c.39,1.77,0,3.17-1.22,5.17L94,145.18c.23-1.38.47-2.63.62-3.89a2.26,2.26,0,0,0-.68-1.94A10.69,10.69,0,0,1,92.16,136c-.78-2.06-1.45-4.16-2.07-6.27a10.89,10.89,0,0,0-2.49-3.93,7.06,7.06,0,0,1-1.64-4c-.4-3.09-.94-6.16-1.42-9.25-.06-.36,0-.73-.11-1.09-.32-1.52-.66-3-1-4.67a16.94,16.94,0,0,0-3.84,2.7c-.36.31-.48.92-1.1.93a.27.27,0,0,0-.2.17c0,1.14-1.07,1.39-1.75,1.94a14.26,14.26,0,0,0-3.11,4,23.41,23.41,0,0,1-4.1,4.8,18.1,18.1,0,0,1-2.65,1.78l1.62,1.75a2.15,2.15,0,0,1-.8,0,17,17,0,0,1-2.22-1.09,2.24,2.24,0,0,1-.74-1c-.27-.58-.43-1.21-.68-1.8a10.79,10.79,0,0,1-.52-5.66,13.74,13.74,0,0,0,.19-3,1.65,1.65,0,0,1,1.25-2c-.09-.34-.18-.59-.22-.85-.18-1,0-1.16,1-1.32,1.59-.25,3.16-.57,4.73-.91a2.32,2.32,0,0,0,.78-.53,8.6,8.6,0,0,1,.74-.61c2.43-1.43,3.85-3.72,5.21-6.06C77.64,99,77.8,97.71,79,97c0,0,.08-.08.07-.11-.3-1.07.67-1.39,1.16-2ZM65.52,119.53l1.64-.28A6.08,6.08,0,0,0,71.94,116a4.29,4.29,0,0,1,.5-.82,1.59,1.59,0,0,0,.39-1.53,1.46,1.46,0,0,1,.71-1.64c2.59-2.06,5.17-4.12,7.69-6.27a3.82,3.82,0,0,0,1.33-2,4,4,0,0,0-.41-2.69,9,9,0,0,1-1.48-3.35c0-.11-.16-.21-.24-.3-.93.25-.92.25-1.06,1a4.41,4.41,0,0,1-.4,1.59c-1.69,2.48-2.85,5.4-5.72,6.9-1.35,1.54-3.31,2.13-5,3a5.1,5.1,0,0,0-2.38,2.32c-1,2-1.6,4-.14,6,.38.53.1,1-.16,1.39a1.09,1.09,0,0,0-.37-.11c-.1,0-.2.12-.29.18.13.07.26.19.38.18S65.43,119.62,65.52,119.53Z"/><path d="M76.09,93.78c-2.27.45-4.35.87-6.44,1.3-.44.09-.86.24-1.28.38a8.16,8.16,0,0,1-.78.25,30,30,0,0,1-8.77,0,9.54,9.54,0,0,0-2.55-.2,2.3,2.3,0,0,1-1.19-.2A22.2,22.2,0,0,1,53,94.27c-1.12-.62-2.24-1.26-3.33-1.94a1.18,1.18,0,0,1-.56-.81c0-.47.46-.64.93-.59a6.11,6.11,0,0,1,3.2,1.17c.59.45,1.42.66,1.67,1.53.05.18.45.3.71.37a16.78,16.78,0,0,0,7.38.54,64.8,64.8,0,0,0,7.41-2.1A10.6,10.6,0,0,0,74,90.86c1-.87,2.21-1.54,3.24-2.39a16.59,16.59,0,0,0,2.22-2.25c.49-.59.77-1.34,1.2-2s1-1.39,1.64-2.24a1.55,1.55,0,0,1,.31-1.69c.19-.2.15-.68.15-1,0-.59,0-1.18,0-2a3.15,3.15,0,0,1,.84.45c.14.15.14.43.19.65a8.45,8.45,0,0,1-2,6.47l1.61,1.06a25.53,25.53,0,0,1-5.52,7.92l.32,1.71Zm6.16-7.62a1.66,1.66,0,0,0-.21.51c0,.08.16.16.25.25a1.22,1.22,0,0,0,.25-.38C82.56,86.46,82.41,86.35,82.25,86.16Z"/><path d="M4.36,115.24c.9-.64,1.36-.29,1.61.23a13.67,13.67,0,0,1,1.39,3.28,52,52,0,0,1,1.11,13.18A41.78,41.78,0,0,1,8,137.27a4.24,4.24,0,0,0,.36,2c.57,1.7,1.24,3.36,1.81,5.06a1.67,1.67,0,0,0,1.1,1.12l4.52,1.7.94.33a5.26,5.26,0,0,1-3.92.3,29.16,29.16,0,0,1-3.41-1.41,1.76,1.76,0,0,1-1.05-1.62,9,9,0,0,0-.72-2.91,11,11,0,0,1-.82-4.77c0-1.55-.15-3.1-.18-4.65s0-3.22,0-4.83a29.46,29.46,0,0,0-.78-7.81C5.46,118.24,5.61,116.55,4.36,115.24Z"/><path d="M18,130.16c1.5.08,2,1.11,2.53,1.95,1.2,1.74,2.35,3.51,3.56,5.23.6.86,1.32,1.64,1.92,2.51a1.87,1.87,0,0,1,.41,1.26,5.09,5.09,0,0,0,.09,2.8,2.05,2.05,0,0,1,0,.82,1.56,1.56,0,0,1-2.77,1.07,1.88,1.88,0,0,1-.42-1.93,2.17,2.17,0,0,1,.35-.59,1.46,1.46,0,0,0,.12-1.43,22.9,22.9,0,0,0-3-5.69,3.29,3.29,0,0,0-.78-.77.94.94,0,0,1-.45-1.17,1.32,1.32,0,0,0-.22-.85c-.39-.73-.84-1.43-1.21-2.17A3.43,3.43,0,0,1,18,130.16Z"/><path d="M64.65,17.84c.11.53.2,1.06.27,1.6l.42,0c-.07.36-.06.47-.11.53l-.21.31a22.86,22.86,0,0,1,.09,2.34l.57-.93c.38-.6,1.1-1,.9-1.9,0-.15.32-.39.48-.59s.3-.4.58-.79C66.56,18.23,65.59,18,64.65,17.84Z"/><path d="M29.73,122.11c-.9.73-1,2-1.31,3.11-.16.64-.43,1.25-.75,2.16a3.93,3.93,0,0,1-.5-3c.52-2.38,1.12-4.74,1.66-7.11.15-.67.17-1.37.36-2a22,22,0,0,0,1-6.5,17,17,0,0,1,.26-2.31c1-.2,1.22-.14,1.28.6a12.21,12.21,0,0,1,0,3c-.48,3.09-1,6.17-1.6,9.24-.1.53-.42,1-.53,1.56A5,5,0,0,0,29.73,122.11Z"/><path d="M26.87,127.81a3.82,3.82,0,0,1,1.36.3,8.26,8.26,0,0,1,3.84,6.9,7.36,7.36,0,0,0,.56,2.1c.33,1,.7,1.89,1.08,2.82.15.37.41.7.56,1.07a6.46,6.46,0,0,1,.2,1.11,2.64,2.64,0,0,1-1.88-1.38q-2-4.26-4.12-8.5a11.71,11.71,0,0,0-.85-1.41c-.35-.52-.89-.92-.55-1.71.1-.23-.22-.64-.35-1Z"/><path d="M36.46,146.85c-1.14.36-1.69.18-2-.65a16.46,16.46,0,0,1-.75-2.21.82.82,0,0,1,.16-.72.85.85,0,0,1,.74,0,1.65,1.65,0,0,1,.67.67C35.67,144.92,36.05,145.89,36.46,146.85Z"/><path d="M80.2,94.89c-.84-.22-.84-.22-.82-.94.6.06.57.63.81,1Z"/><path d="M55.33,69.47l-.4-1.39C55.73,68.53,55.45,69,55.33,69.47Z"/><path d="M83,85.27a1.79,1.79,0,0,1-.12-.39c0-.06.12-.19.14-.19a1.67,1.67,0,0,1,.29.19Z"/><path d="M10.18,92.13l.52.79-.24.1-.27-.91Z"/><path class="b" d="M36.46,146.85s-6.5,1.83-9.95-2.94"/><path class="b" d="M106.09,143.55s-9.73,5-12,1.63"/></svg>