<svg xmlns="http://www.w3.org/2000/svg" viewBox="0 0 93.7 155.76"><defs><style>.a{fill:#fff;}.b{fill:none;stroke:#000;stroke-miterlimit:10;stroke-width:2px;}</style></defs><title>horse-1</title><path class="a" d="M69.27,151.83l-3.34.88-7.57-5.43c-.15-3.81-.44-7.4-.4-11,.07-5.71-1.62-10.94-4.07-16-2.25-4.59-4.26-9.23-4.89-14.37a12.73,12.73,0,0,0-1.29-3.81,6.56,6.56,0,0,0-1.85-2.44,3.32,3.32,0,0,0-3.56-.16,16.09,16.09,0,0,0,0,7.88c.84,3.71,1.24,7.34.13,11.08a16.84,16.84,0,0,0-.49,4.9,47.72,47.72,0,0,1-1.45,12.45,16.8,16.8,0,0,0-.26,2.65c2.73,2.75,4.28,6.13,5.86,9.55-.54.81-1,1.57-1.53,2.29a3.15,3.15,0,0,1-2.67,1.42c-1.95,0-3.89.05-5.84,0a8.2,8.2,0,0,1-5.53-2.63,29.4,29.4,0,0,1,.12-12,4.85,4.85,0,0,0-.11-2.22c-.67-2.71-.18-5.32.38-8a84.13,84.13,0,0,0,1.27-8.42c.18-1.76.35-3.56-.65-5.25a4.37,4.37,0,0,1-.28-2.2,5.3,5.3,0,0,0-1.48-3.6c-1.64-2.1-3-4.42-4.62-6.86A10.94,10.94,0,0,0,22.83,102a17.53,17.53,0,0,1-5.89,4c-2.84,1.24-2.74,1.35-2.46,4.39a16.14,16.14,0,0,1-.25,3.51c-.24,1.93-.57,3.84-.83,5.76a10.35,10.35,0,0,0,.93,5.23,41.84,41.84,0,0,1,1.86,6,65.56,65.56,0,0,0,3.66,10.59c.74,1.8,1.5,3.6,2.07,5.45a13.31,13.31,0,0,1,.24,3l-11.92.4c-1.74-2.78-3.15-5.37-2.42-8.6a1.91,1.91,0,0,0-.35-1.63C5.79,138.94,6,137.26,6,135.64a20.61,20.61,0,0,0-1.46-8.29c-2.27-5.69-1.41-11.42.89-17.32a12.37,12.37,0,0,0-1.19-2c-2.51-3-3.35-6.6-3.78-10.39-1-8.57.1-17,1.18-25.49.52-4,2.95-7.16,5.84-9.86A57.61,57.61,0,0,1,12,58.63,10.11,10.11,0,0,0,16.2,53a3.39,3.39,0,0,1,3.68-2.67,27.09,27.09,0,0,1,4.45.4c1.47.27,2.9.76,4.34,1.15,4.68,1.28,8.88-.18,12.91-2.34a5,5,0,0,0,2.27-3.73,84.33,84.33,0,0,0,1.54-8.39c.77-7.32,3.89-13.79,7.13-20.22a10,10,0,0,1,2.72-2.9c1.5-1.24,3.14-2.31,4.71-3.46a13.37,13.37,0,0,0,1.73-1.43C63.07,7.91,63.14,6.74,62,5c-.41-.6-.91-1.16-1.3-1.64.3-1.7,1.5-1.93,2.71-2.09a4.44,4.44,0,0,1,4,1.51,15.34,15.34,0,0,1,2,3C70,6.94,70.52,8.18,71.05,9.3c1.9.5,2.95-.81,4.22-1.47,1.87-1,3.71-2,6-1.08.57,1.23-.09,2.31-.62,3.31A30.05,30.05,0,0,0,77,22.91c-.07,1.81-1.18,3.67-2.11,5.35A70.11,70.11,0,0,0,70.2,38.93a9.77,9.77,0,0,0,.3,7.84c1.31,2.69,2.56,5.42,4,8a65.07,65.07,0,0,1,7.85,21.86,8.8,8.8,0,0,0,2.47,5.13C86.34,83.25,87.5,85,89,86.5a54.71,54.71,0,0,0,4.71,3.7c-.17,3.36-1.59,6.37-2.93,9.31-3.09,6.81-6.5,13.48-9.59,20.3A12.07,12.07,0,0,1,74.42,126a4.51,4.51,0,0,1-6.56-3.29C67,119,68.22,116,71,113.48a75.75,75.75,0,0,0,5.67-5.05A17.45,17.45,0,0,0,81,98.69a1.89,1.89,0,0,0-2-2.37,33,33,0,0,0-4-.06,21.6,21.6,0,0,1-7.57-.46,3,3,0,0,0-3.21,1.08,8.17,8.17,0,0,0-2.36,5.67,20.54,20.54,0,0,0,.43,4c.95,4.55,1.94,9.08,3,13.6a73.34,73.34,0,0,1,2.11,17.34A11.69,11.69,0,0,0,68.84,144,7.67,7.67,0,0,1,69.27,151.83Z"/><path d="M70.24,120.08c-.27.65.09,1.18.35,1.71.43.89.91,1.75,1.35,2.63a12.1,12.1,0,0,1,.47,1.14c.36,1,.83,1.16,1.77.78A5.1,5.1,0,0,0,76.12,125a16.54,16.54,0,0,0,1.52-1.71,31.93,31.93,0,0,0,1.68-3c.42-.82.75-1.68,1.16-2.51a6.75,6.75,0,0,0,.57-1.69,7.1,7.1,0,0,1,.81-1.47c.4-.82.76-1.67,1.14-2.51.51-1.09,1-2.21,1.57-3.25a2.47,2.47,0,0,1,1.13-.8,1.51,1.51,0,0,0,.85-.71q1.24-2.51,2.5-5c.27-.54.59-1.06.84-1.6s.47-1.23.71-1.84a4.74,4.74,0,0,1,.27-.6,9.72,9.72,0,0,0,1.18-3.7,8.44,8.44,0,0,1,.24-1.22,1.67,1.67,0,0,0-.44-1.76l-2.34-2.23a8.27,8.27,0,0,1-.62-.59c-1.51-1.77-3-3.5-4.5-5.31a11,11,0,0,1-2.18-5.41,28.38,28.38,0,0,0-1.1-5.8,15.24,15.24,0,0,1-.64-2.87c0-.22.26-.48.35-.74s.27-.63.18-.87a20.29,20.29,0,0,0-2.15-4.23c-.66-1-1.2-2.08-1.8-3.13a30.8,30.8,0,0,0-2.48-4.16,18.57,18.57,0,0,1-2.26-3.75c-.61-1.29-1.24-2.57-1.84-3.86-.13-.29-.19-.61-.31-.9-.3-.73-.59-1.47-.93-2.19A1,1,0,0,0,68,45c-.44-.79-.44-.79-1.34-.64-.28,0-.56.12-.84.16s-.46.09-.55,0c-.54-.55-1.23-.42-1.88-.48-.48,0-.89-.6-1-1.31-.12-.52-.25-1-.4-1.55a4.69,4.69,0,0,1-.28-1.85,2.06,2.06,0,0,0-.78-2.11.75.75,0,0,1-.23-.5,4.18,4.18,0,0,1-.07-1.42,2.23,2.23,0,0,0-.61-2.09,19,19,0,0,0-1.7-2l.26,1.4c-.75-.14-1.66-1.1-1.51-1.73.23-.94-.28-1.73-.28-2.61,0-.5,0-1,0-1.49.05-.82.2-1.64.19-2.45a3.35,3.35,0,0,1,.66-1.85,22.18,22.18,0,0,1,1.65-2c.73.4.79.52.44,1s-.69.9-.44,1.55a.87.87,0,0,1-.18.63,4,4,0,0,0-.38,3.13c.17.84.44,1.66.61,2.5a9.38,9.38,0,0,0,1.52,2.94.93.93,0,0,0,1.22.51c0,1.27,1,1.63,1.94,2.1-.38.36-.77.19-1.12.23-.78.09-.91.29-.7,1a4.94,4.94,0,0,1,.15.84c.1,1,.26,2,.28,2.93a7.85,7.85,0,0,0,1,2.54c.06.16.49.26.75.26a3.8,3.8,0,0,0,2.57-1.1,16.53,16.53,0,0,0,1.91-1.86A7.06,7.06,0,0,0,70,37.62a16.89,16.89,0,0,0,.83-4.77,18.87,18.87,0,0,1,.45-3.1,1.54,1.54,0,0,0-.81-1.84,12.13,12.13,0,0,0-1.55-.69.88.88,0,0,0-.64,0c-1,.53-1.67-.1-2.24-.72s-.76-.77-1.43-.45c-.33.16-.79,0-1.11.19a10,10,0,0,0-1.15.82,7.09,7.09,0,0,1-1.13.64c-.11.05-.36-.09-.47-.21s0-.29,0-.43a.91.91,0,0,1,.21-.32,7.73,7.73,0,0,1,3.85-2.65c.87-.21,1.71-.51,2.57-.72a3.13,3.13,0,0,1,1.13,0c.66.09,1.31.26,2,.37a7.92,7.92,0,0,1,3.31,1.61c.23.17.44.36.67.54s.59.15.77-.2c.5-1,1-1.89,1.47-2.87a5.13,5.13,0,0,0,.36-1.55c.06-.6,0-1.21,0-1.81a6.14,6.14,0,0,0-.87-3.74c-.67-1.11-1.17-2.32-1.81-3.45a6.51,6.51,0,0,0-1.09-1.16c-.06-.06-.18-.13-.26-.1-1.07.32-2-.51-3.08-.34a3.5,3.5,0,0,1-1.13-.14c-.35-.06-.62-.28-.59-.64,0-.19.25-.38.4-.56A1.48,1.48,0,0,1,69,9.08a13.39,13.39,0,0,0-.9-4.4,6.7,6.7,0,0,0-1.51-3c-.22-.23-.45-.44-.67-.67L65.26.33a.54.54,0,0,1,.88-.18,6.14,6.14,0,0,1,2.17,2A12.66,12.66,0,0,1,70,6.61a17,17,0,0,0,.52,2,.75.75,0,0,0,.73.64,6.19,6.19,0,0,0,3.68-.67,26.67,26.67,0,0,1,2.49-1.19A4.91,4.91,0,0,0,78.21,7c1.3-1,2.89-1.2,4.41-1.72l-.33.37a5.64,5.64,0,0,0-1.14,1.82,12.73,12.73,0,0,1-1.34,2.3c-.7,1.14-1.4,2.27-2.13,3.39a.86.86,0,0,0,0,1.12,4.06,4.06,0,0,1,.42,1,17,17,0,0,1,.68,4.9,7.47,7.47,0,0,1-.92,3.67,7.45,7.45,0,0,1-2.15,2.74.91.91,0,0,0-.24.75A1.11,1.11,0,0,1,75,28.41c-.58.57-1.08,1.22-1.65,1.88a2.44,2.44,0,0,0,.45.36c.43.19.47.49.24.85a6.44,6.44,0,0,0-.75,2.44,7.14,7.14,0,0,1-.87,2.48,9.35,9.35,0,0,0-.62,1.65c-.38,1.07-.68,2.18-1.15,3.2-.21.44-.27.9-.43,1.33a4.65,4.65,0,0,0,.32,3.32c.43,1.16.77,2.35,1.21,3.51s.93,2.23,1.44,3.32c.14.3.46.52.65.8q.92,1.38,1.8,2.78c.47.75.94,1.49,1.37,2.27.3.54.49,1.13.82,1.68C79,62.16,80,64.17,81.13,66.05a26.07,26.07,0,0,1,2.73,7.29,5.62,5.62,0,0,1-.08,3.39,5.2,5.2,0,0,0,.08,3.45,10.26,10.26,0,0,0,1.88,3.18c1.08,1.41,2.23,2.77,3.44,4.07s2.51,2.51,3.8,3.73a1.33,1.33,0,0,1,.53,1.15c-.1,1,0,2.09-.08,3.12a7.73,7.73,0,0,1-.93,3.07c-.85,1.7-1.84,3.34-2.81,5A21.22,21.22,0,0,1,86.8,108a2.57,2.57,0,0,0-.27.5c-.49.81-1,1.61-1.46,2.44-.65,1.22-1.28,2.47-1.88,3.72-.76,1.57-1.48,3.16-2.22,4.74-.46,1-.95,1.94-1.4,2.92a6.69,6.69,0,0,1-2,2.73c-.73.55-1.36,1.24-2.11,1.76a9.17,9.17,0,0,1-2,.94,2.81,2.81,0,0,1-2.11-.22,4.1,4.1,0,0,1-2.45-2.13,7.63,7.63,0,0,1-.57-4.57,5.65,5.65,0,0,1,.22-1,2.09,2.09,0,0,1,.53-.73.86.86,0,0,0,.4-.88c0-.23.21-.55.38-.78s.48-.22.53-.38c.4-1.27,1.63-1.29,2.56-1.75.68-.33,1.38-.64,2.07-1a.4.4,0,0,0,.16-.1c.75-1.1,1.84-1.9,2.49-3.08,1.4-2.56,2.6-5.22,3.8-7.88a15.47,15.47,0,0,0,.65-2.39,13.48,13.48,0,0,0,.37-1.37,1.7,1.7,0,0,0-.09-1,1.26,1.26,0,0,1-.11-.9c.1-.59-.11-.94-.7-1a12.4,12.4,0,0,0-2-.15c-1.62,0-3.24.14-4.86.08a21,21,0,0,1-2.91-.49l-1.49-.26c-.59-.09-1.13-.22-1.29-.92a1.1,1.1,0,0,0-.37-.53c-.62-.53-1.26-1-1.91-1.57-.46.16-.62.6-.78,1a23.5,23.5,0,0,1-2.68,4.71c-.4.57-.77,1.17-1.2,1.72a4.72,4.72,0,0,1-2.09,1.48c0-.12-.07-.24,0-.29.37-.51.73-1,1.13-1.5a16.76,16.76,0,0,0,3.1-5,27.88,27.88,0,0,1,1.55-3.69,24.48,24.48,0,0,0,1.82-5,32.75,32.75,0,0,0,.7-3.44c.06-.32,0-.69.47-.69s.61.32.59.71a11.74,11.74,0,0,1-.21,2.08c-.35,1.45-.78,2.88-1.21,4.3-.26.84-.58,1.66-.87,2.5a14.86,14.86,0,0,0,4.46,2.93,16.23,16.23,0,0,0,3.18.58c.63.1,1.25.19,1.88.23.47,0,.94,0,1.41-.05s1.13-.06,1.69,0c1.17.06,2.33.2,3.5.26,1,0,2,0,3.22,0-.47.68-1,.51-1.47.64s-1,.22-1.5.34a8.3,8.3,0,0,1-.32,4.92A33.09,33.09,0,0,1,82,105.21c-.62,1.56-1.33,3.08-2.06,4.59-.6,1.26-1.28,2.48-1.93,3.72-.31.59-.6,1.19-.93,1.78a3.87,3.87,0,0,1-.47.55l-.52-.87c-2,1.56-4.54,2.3-6.37,4.12l.52,1ZM76.49,13.53c.75-1.42,1.44-2.69,2.11-4a2.31,2.31,0,0,0,.12-.48c-.17,0-.28,0-.34.06q-1.08.85-2.15,1.73c-.14.12-.34.3-.33.44A3.43,3.43,0,0,0,76.49,13.53Zm6.86,62.78c.49-1.25-.26-4.71-1.18-5.58C82.7,72.56,82.65,74.51,83.34,76.31ZM68.27,42.46l-.14-.16c-.62.14-.76.23-1.36,1,.29,0,.53.08.66,0A7.28,7.28,0,0,0,68.27,42.46Zm1.55,80.95c-.14,1.14,0,1.41.9,1.81ZM72.6,27.66c-.07.5,0,.8.48,1C73.37,28.06,73,27.94,72.6,27.66Z"/><path d="M48.43,68.57c.07-.66.16-1.32.18-2a2.28,2.28,0,0,0-.16-.93c-.5-1.23-1.08-2.44-1.54-3.69s-.85-2.66-1.27-4c-.16-.51-.36-1-.56-1.59A5.71,5.71,0,0,0,43.56,58c.31.68.28.65-.16,1.13a17.68,17.68,0,0,1-4,2.93,10.74,10.74,0,0,1-2.93,1.08c-1.53.39-3.1.65-4.65,1-.43.1-.83.32-1.25.45a32,32,0,0,1-5.17.78,1.65,1.65,0,0,1-.51-.15c.37-.47.82-.25,1.18-.31s.74-.09,1.16-.13c-.2-.4-.45-.59-.86-.45a6.59,6.59,0,0,1-2.84.13c-.9-.08-1.37.23-1.43,1.11a11.58,11.58,0,0,0,.68,5.72,28.9,28.9,0,0,1,1.26,3.49,8.16,8.16,0,0,0,1.78,3.12c.57.63,1.16,1.25,1.78,1.92-.34.33-.7.1-1-.08A6.61,6.61,0,0,1,23.48,76c-.66-1.79-1.32-3.58-2-5.35A8.62,8.62,0,0,1,21,66.33a6.69,6.69,0,0,0,0-2l-.69.14a4.42,4.42,0,0,1-3.19-.68A3,3,0,0,1,16,61.53c-.11-.77-.21-1.55-.31-2.3-.54.25-1,.43-1.42.66a2,2,0,0,0-.68.52,3.53,3.53,0,0,1-1.15.8,22.23,22.23,0,0,0-2.13,1.69c-.22.18-.38.43-.59.62A1.54,1.54,0,0,0,9,64.58a1.43,1.43,0,0,1-.37.65c-.48.63-1,1.22-1.47,1.86a5.69,5.69,0,0,0-1,2.31c-.07.42-.3.62-.79.5L5,71.68c-.12,0-.4.06-.44.17-.34.93-1.2,1.53-1.43,2.55A34.16,34.16,0,0,1,2,77.83c.28.28.2.71.07,1.2a18.35,18.35,0,0,0-.29,2c0,.27-.11.54-.17.81,0,.09-.11.21-.08.26.55.83,0,1.76.26,2.61a.77.77,0,0,1,0,.38,25.09,25.09,0,0,0,.07,4.47c0,.76.17,1.51.25,2.27.05.54.07,1.08.1,1.62a11.89,11.89,0,0,1,0,1.79,5,5,0,0,0,.28,1.72c.33,1.48.45,3,.66,4.52.06.47.14.93.22,1.41l1.08-.27.14.15a1.91,1.91,0,0,0-.28,1.94c.36,1.65.68,3.3,1,5A4.81,4.81,0,0,0,6.2,112a3.37,3.37,0,0,1,.53,2.8,31.76,31.76,0,0,1-1.36,6c-.29.86-.44,1.77-.71,2.64a7.12,7.12,0,0,1-.58,1.29c-.37.69-.79,1.37-1.17,2.06a1.18,1.18,0,0,1-.95.78c.66-1.69.56-3.47,1.56-5a5.18,5.18,0,0,0,.32-2.12,4.4,4.4,0,0,1,0-.74c.33-1.13.75-2.23,1-3.36a7.41,7.41,0,0,0,.2-3.66c-.21-.9-.35-1.81-.54-2.71a9.1,9.1,0,0,0-.42-1.54,36.39,36.39,0,0,1-1.64-3.92,19.81,19.81,0,0,1-.87-5.05,9.76,9.76,0,0,0-.17-1.22c-.09-.63-.19-1.25-.25-1.88Q1.05,94.86,1,93.3c-.06-.92-.1-1.84-.11-2.76,0-.2.16-.4.28-.67a1.24,1.24,0,0,1-.46-1.56.42.42,0,0,0,0-.28c-.46-1.1,0-2.26-.18-3.39A1.19,1.19,0,0,1,.6,84a1.8,1.8,0,0,0,0-1.47,4.29,4.29,0,0,1,0-1.15l-.48.28c-.2-.27-.11-.46.11-.65.72-.6.72-.6,0-1.17.08-.77.13-1.56.25-2.34a3.88,3.88,0,0,1,.39-1.25c.49-.91.46-2,1.24-2.83.08-.08,0-.28.07-.43s0-.39.1-.44a2.27,2.27,0,0,0,.85-1.84,9.9,9.9,0,0,1,1.8-4c.57-.88,1.25-1.68,1.85-2.54A7.4,7.4,0,0,0,7.49,63a7.58,7.58,0,0,1,1.92-2.35c.82-.75,1.74-1.39,2.62-2.06A9.09,9.09,0,0,1,14.83,57c.8-.24,1-1,1.15-1.72.07-.5.22-1,.32-1.48a3.67,3.67,0,0,1,2.12-2.32,1,1,0,0,1,.35-.14c.32,0,.61.08.65.41a.64.64,0,0,1-.34.47,2.87,2.87,0,0,0-1.66,1.35,2.12,2.12,0,0,0-.22.52c-.15.84-.29,1.69-.4,2.54-.08.63-.08,1.27-.18,1.9a2.4,2.4,0,0,0,1.19,2.34,16.33,16.33,0,0,0,2.09,1.34,1.05,1.05,0,0,0,.78.14,1.78,1.78,0,0,1,1.2,0,18.3,18.3,0,0,0,4.76.86c1,0,2.09-.1,3.14-.17.44,0,.88-.1,1.33-.11a4.47,4.47,0,0,0,2.82-.6.36.36,0,0,1,.18-.06,12.65,12.65,0,0,0,4.79-2.23,16,16,0,0,0,4.9-4.29,1.4,1.4,0,0,0,.27-1.39c-.23-.64,0-.79.64-.76.23,0,.58,0,.68-.1s0-.52-.26-.72a2.79,2.79,0,0,1-.24-.29,9.42,9.42,0,0,1,.66-1.3,8.39,8.39,0,0,0,1.32-2.72,2.28,2.28,0,0,1,.18-.44,12.22,12.22,0,0,0,1.27-5.12c0-.82.19-1.62.31-2.61a20.31,20.31,0,0,0-2.17.4,4.43,4.43,0,0,1-3.16-.15,2.11,2.11,0,0,1-.58-.3.53.53,0,0,1,.19-1c.32-.12.67-.19,1.07-.31.23.65.78.69,1.37.67s1.46,0,2.2,0a4.06,4.06,0,0,0,.62-.12c0-1,0-1.92,0-2.83,0-.73-.09-1.47,0-2.19.09-1.52.22-3,.38-4.54a6.56,6.56,0,0,1,.38-1.73c.1-.26.51-.4.88-.66a15.15,15.15,0,0,0-.3,2.27c0,1.23-.24,2.44-.22,3.66,0,.16,0,.42.05.45.68.31.55,1,.57,1.49a25.92,25.92,0,0,0,0,3.07,15.07,15.07,0,0,1-.22,2.44A21.89,21.89,0,0,1,48,48.6a16.49,16.49,0,0,1-2.07,3.48.92.92,0,0,0-.06,1.07A2.24,2.24,0,0,1,46,54.71a2.51,2.51,0,0,0,.14,1.11c.74,2.37,1.48,4.73,2.26,7.08.28.84.65,1.65,1,2.47,0,.06.08.11.09.17.11,1.25.54,2.51,0,3.76a24.94,24.94,0,0,1-2,3.9A17,17,0,0,1,45.48,76a3.46,3.46,0,0,1-.55.52,29.67,29.67,0,0,1-6.81,3.56c-.36.13-.71.28-1.06.44a18,18,0,0,1-6.25,1.57c-.24,0-.52.1-.63-.35.53-.16,1.07-.3,1.6-.48q2.83-1,5.65-2c.51-.18,1-.41,1.5-.62a15.17,15.17,0,0,0,5.32-3.77,15.41,15.41,0,0,1,1.43-1.41A10.36,10.36,0,0,0,47.51,71a2.77,2.77,0,0,0,.18-1l-.21-.06a6,6,0,0,0-.46.88,7.72,7.72,0,0,1-2,2.8,7.86,7.86,0,0,1-2.4,1.68,16,16,0,0,1-6,1.78,8.92,8.92,0,0,1-1.41-.17,1.41,1.41,0,0,1,1.1-.68,18.16,18.16,0,0,1,2-.44,7.38,7.38,0,0,0,3.06-1.47A10.67,10.67,0,0,0,43.55,72a19.77,19.77,0,0,0,1.54-2,5.65,5.65,0,0,0,.68-1.53,1.63,1.63,0,0,1,.72-1.1c0,.23.16.44.1.59-.28.8-.61,1.59-.92,2.39l-.27.67.15.15a2,2,0,0,0,.53-.39,9.11,9.11,0,0,0,.55-1l1.1-2.07.51.91ZM17.22,61.83c.24,1.32,1.29,1.95,2.18,1.47-.36-.23-.71-.44-1-.67Zm23.21-1.2-.08-.24c-.42-.08-.69.1-.77.65Z"/><path d="M42.56,116.27a6.76,6.76,0,0,0-.25-.9c-.51-1.23-1.05-2.44-1.57-3.67a1,1,0,0,1-.06-.56,2.06,2.06,0,0,0-.26-1.17,9.15,9.15,0,0,1-.51-2.17c-.13-1.29-.16-2.6-.22-3.9,0-1-.07-1.91-.06-2.86a10.6,10.6,0,0,1,.18-1.34,19,19,0,0,0-2.58-.91,6.94,6.94,0,0,1-2.57-1.4,13.35,13.35,0,0,1-1.23-1.18,3.16,3.16,0,0,0-.6-.45,13.6,13.6,0,0,1-3.24-2.15,2.17,2.17,0,0,0-.73-.44c-.65-.26-.79-.16-1,.53A11.43,11.43,0,0,1,27.31,95c-.45,1-.93,1.92-1.44,3a6.22,6.22,0,0,0,.65-.18c.82-.33.91-.3,1.31.52a4.84,4.84,0,0,1,.39.87,15.48,15.48,0,0,0,1.57,3c.59,1.16,1.09,2.36,1.63,3.54.35.77.73,1.53,1.05,2.32a12.42,12.42,0,0,1,.59,1.79,4.55,4.55,0,0,1,0,1.06c-.17,0-.27,0-.29,0a5.49,5.49,0,0,0-1.24-1.39,6.76,6.76,0,0,1-1.62-3.06,3.77,3.77,0,0,0-.31-.65q-.68-1.13-1.38-2.24c-.11-.18-.29-.31-.42-.48s-.32-.39-.29-.56a2.41,2.41,0,0,0-.48-1.51,9.26,9.26,0,0,1-.48-1.43,2.69,2.69,0,0,0-.27-.69c-.39-.55-.91-.5-1.31,0-.68.91-1.41,1.78-2.11,2.68-.35.45-.67.93-1,1.36-1,1.19-2,2.37-3,3.56a4.68,4.68,0,0,0-.47.71,1.49,1.49,0,0,1-1,.81c-.19-.35,0-.55.17-.78a7.05,7.05,0,0,0,.79-1.16c.4-.78.65-1.67,1.52-2.12.15-.08.23-.3.33-.45,1.12-1.69,2.25-3.37,3.34-5.09.63-1,1.14-2.05,1.78-3a14.14,14.14,0,0,0,1.62-4.54.68.68,0,0,1,.74-.59c.42,0,.8.12.87.57.09.65.55.82,1.05,1.08a17.66,17.66,0,0,1,2,1.32l1.14.83c1.09.77,2.22,1.49,3.25,2.34a7.44,7.44,0,0,0,2.41,1.28,23.23,23.23,0,0,0,9.53.77,3.45,3.45,0,0,1,.66,0,1.14,1.14,0,0,1,1.05,1c.12.46.29.9.39,1.36.15.68.27,1.36.39,2.05,0,.28.05.57.1.85.22,1.22.41,2.45.68,3.65.44,1.94.83,3.9,1.43,5.8a14.88,14.88,0,0,0,2.23,4.61,22.53,22.53,0,0,0,2.38,2.83,8.71,8.71,0,0,1,1.08,1.64c-.63.17-.82-.55-1.38-.49,0,.14-.15.31-.12.46.24.94.53,1.87.77,2.81s.46,2,.73,3c.23.85.55,1.69.79,2.54a17.71,17.71,0,0,1,.63,3.83c.07,1.4.2,2.82.41,4.22a26.44,26.44,0,0,1-.27,9.67c-.16.71-.26,1.44-.44,2.15a.62.62,0,0,0,.34.79,4.29,4.29,0,0,0,1.32.51,10.55,10.55,0,0,0,4-.26c.06,0,.15,0,.18-.06.43-.62,1.14-.59,1.93-.76-.49-.74-.48-1.65-1.2-2.17l-.24.1.5,1.72c-.38.19-.53,0-.68-.24a7.84,7.84,0,0,1-1.34-3.93,35,35,0,0,1-.21-4.09c0-1.43.14-2.85.21-4.28.11-2.13.22-4.25.35-6.38a3.69,3.69,0,0,1,.21-1.2.88.88,0,0,1,.65-.41c.33,0,.45.3.46.61,0,.92.11,1.84.06,2.76-.07,1.3-.3,2.59-.36,3.89-.08,1.62-.07,3.24-.09,4.86a.58.58,0,0,0,.42.65c.4.13.45.49.46.86a8.88,8.88,0,0,0,1.47,5c.36.52.69,1.06,1,1.61a5,5,0,0,1,.46,1c.16.54,0,.79-.58.84a6.48,6.48,0,0,1-1.43-.06,1.53,1.53,0,0,0-1.25.28,1.84,1.84,0,0,1-.77.33c-.81.16-1.62.3-2.44.39a8.92,8.92,0,0,1-3.68-.37c-.45-.14-.84-.27-1.22.13a.86.86,0,0,1-.43.19.42.42,0,0,1-.52-.56,5.5,5.5,0,0,1,.26-.5c.21-.52.4-1.06.6-1.59a3.44,3.44,0,0,1,.14-.45,11.62,11.62,0,0,0,1-5.28c.06-1.21.05-2.42,0-3.63,0-.95-.2-1.89-.29-2.84s-.17-2-.28-3c-.07-.69-.18-1.38-.29-2.07s-.24-1.37-.37-2.06c0-.09,0-.21,0-.28-.59-.79-.43-1.77-.68-2.65a13.64,13.64,0,0,0-.72-2.26,8.53,8.53,0,0,1-.6-2.09c-.27-1.27-.56-2.54-.9-3.79a3.21,3.21,0,0,0-.63-1.05,14.93,14.93,0,0,1-2.83-5.13c-.41-1.43-.77-2.87-1.16-4.31l-.52-1.93a7.31,7.31,0,0,1-.19-.74c-.28-1.75-.54-3.51-.85-5.25a3.64,3.64,0,0,0-.54-1.3,1,1,0,0,0-1.21-.3,6.53,6.53,0,0,1-3.48,0,7.24,7.24,0,0,0-2.48-.06c.09,2,.23,4,.24,6a28.16,28.16,0,0,0,.66,4.6c.26,1.52.7,3,1,4.53.11.48.28,1-.29,1.37Z"/><path d="M20.75,154.79a2.7,2.7,0,0,1-.67-1.91,26.14,26.14,0,0,0-.72-4.89,11.62,11.62,0,0,0-.63-2c-.66-1.82-1.32-3.64-2-5.44-.39-1-.9-2-1.29-3-.32-.82-.53-1.69-.81-2.53-.38-1.15-.77-2.31-1.16-3.46-.07-.21-.25-.41-.24-.61.08-1.65-.87-3-1.11-4.6-.14-.93-.54-1.82-.73-2.75a14.13,14.13,0,0,1,.28-6.69c.33-1.21.63-2.44,1-3.65a2.55,2.55,0,0,1,.41-.73,8.1,8.1,0,0,1,.58-.73,1,1,0,0,1,.42-.35.89.89,0,0,1,.69,0c.25.22.15.53-.1.74a4,4,0,0,0-1.13,2.45c-.23,1.18-.55,2.34-.78,3.52a10.81,10.81,0,0,0,0,3.89c.16.93.32,1.87.43,2.81a6.3,6.3,0,0,0,.58,1.79c.37.84.54,1.75.83,2.62.83,2.5,1.64,5,2.54,7.49.54,1.49,1.24,2.93,1.84,4.39.21.5.37,1,.52,1.53.67,2.22,1.41,4.41,2,6.66a11.62,11.62,0,0,1,.07,2.84,8.59,8.59,0,0,1-.12,1.14A2.2,2.2,0,0,1,20.75,154.79Z"/><path d="M3.94,126.87c1,.61.89.54.68,1.55a7.26,7.26,0,0,1,1.7,3c.56,1.38.93,2.83,1.4,4.24.18.54.43,1.06.6,1.6A26.7,26.7,0,0,1,9.07,140a14.06,14.06,0,0,1,.68,3.34,16.56,16.56,0,0,1-.24,4,5.37,5.37,0,0,1-.12.56c-.52,1.26.1,2.1,1,2.88s1.54,1.42,2.3,2.15c.24.23.51.49.31,1a3.33,3.33,0,0,1-1.62-.86A8.54,8.54,0,0,0,9.84,152a10.46,10.46,0,0,1-1-.76A2.53,2.53,0,0,1,8,148.65a17.69,17.69,0,0,0,.14-6.35,13.83,13.83,0,0,0-.5-1.93c-.17-.57-.37-1.13-.54-1.7-.23-.76-.42-1.53-.65-2.28-.61-2-1.21-3.94-1.85-5.89-.18-.54-.5-1-.73-1.55A2.28,2.28,0,0,1,3.94,126.87Z"/><path d="M31.15,135.46a1.07,1.07,0,0,1-.26,1.48c-.29.26-.31.85-.43,1.29a5.81,5.81,0,0,1-.32,1.07A4.18,4.18,0,0,1,30,137a13.87,13.87,0,0,1,.53-1.8c.24-.72.52-1.43.77-2.14a1.84,1.84,0,0,0,.13-.55,24.53,24.53,0,0,1,1.12-6,14.51,14.51,0,0,0,.25-2.45c0-.47.12-.94.17-1.41.08-.74.1-1.49.22-2.23a25,25,0,0,0-.17-4.9,9.57,9.57,0,0,1,0-1.43.54.54,0,0,1,.33-.38.55.55,0,0,1,.44.27,5.14,5.14,0,0,1,.36,1,17.43,17.43,0,0,1,.27,6.52c-.11,1.17-.15,2.35-.32,3.51a15.75,15.75,0,0,1-.78,3.21,24.91,24.91,0,0,0-.84,3.22c-.18.81-.21,1.65-.45,2.43A8.37,8.37,0,0,1,31.15,135.46Z"/><path d="M28.43,54l1.68-.33,0-.18a1.34,1.34,0,0,0-.42-.24c-1.22-.2-2.45-.35-3.67-.56A28.37,28.37,0,0,1,20.39,51a1.79,1.79,0,0,1-.26-.12c-.58-.35-.79-.85-.52-1.25A1,1,0,0,1,21,49.47a4.6,4.6,0,0,0,1.86.93c1.09.34,2.18.65,3.28,1,.64.18,1.29.36,1.93.51a34.33,34.33,0,0,0,6.64.43,24.63,24.63,0,0,0,4.82-.56,6.37,6.37,0,0,0,1.24-.47c.15-.06.28-.15.43-.21.3-.1.66-.22.84.15s-.17.5-.43.61c-.79.32-1.57.65-2.38.93a7.73,7.73,0,0,1-3.17.48,3.84,3.84,0,0,0-.94.11L31.86,54c-.59.11-1.18.25-1.77.34a3.57,3.57,0,0,1-1.64-.05C28.44,54.16,28.43,54.06,28.43,54Z"/><path d="M44.08,38.6c-.17-.4.08-.7.28-1A8.77,8.77,0,0,0,45.83,34c0-.06,0-.14,0-.19a3.22,3.22,0,0,0,.31-2.38A9.24,9.24,0,0,1,47,28c.21-.66.49-1.3.74-2a1.07,1.07,0,0,1,.06-.18l1.82-3.11,1.3-2.23c-.85-.41-1.93.15-2.4-1,.17-.41.54-.49,1-.48a13.59,13.59,0,0,0,1.52,0,1.94,1.94,0,0,0,1.67-.75.5.5,0,0,1,.14-.13c.32-.24.7-.47,1-.19.18.15.17.53.27.89l.53.34c0,.14-.05.27-.11.3a2.9,2.9,0,0,1-1,.36,1.49,1.49,0,0,0-1.27.86c-.22.39-.44.77-.66,1.16L49.8,25.09a15,15,0,0,0-2.13,4.65,1.83,1.83,0,0,1-.26.61,2.23,2.23,0,0,0-.33,1.54,3.14,3.14,0,0,1-.25,1.17c-.2.66-.45,1.31-.63,2a11.53,11.53,0,0,1-1.62,3.31,1,1,0,0,1-.27.26S44.19,38.61,44.08,38.6Z"/><path d="M45.75,16.82a5.91,5.91,0,0,0,.61.15,2.92,2.92,0,0,0,1.21.11c1.08-.34,2.14-.78,3.19-1.21s1.15-1.31,1.65-2a7.52,7.52,0,0,1,3.55-3c.87-.31,1.74-.62,2.62-.85a4.31,4.31,0,0,1,2.72.2c.5.19.71.56.54.85s-.9.6-1.16.37c-.57-.51-1-.17-1.43.16-.89.67-1.74,1.39-2.64,2a32.57,32.57,0,0,1-3.46,2.35,47,47,0,0,1-4.51,2,4.09,4.09,0,0,1-2.43-.19C45.88,17.69,45.65,17.37,45.75,16.82ZM56.49,12a5.35,5.35,0,0,0-3.75,2.73l2.55-1.82c.4-.29.79-.61,1.19-.92l.51-.18-.09-.15Z"/><path d="M42.54,116.26c-.14,1.86-.26,3.73-.43,5.6-.13,1.45-.33,2.9-.49,4.35a7.07,7.07,0,0,1-.46,2,11.59,11.59,0,0,0-.45,2.14c-.2,1-.37,1.93-.62,2.88-.41,1.56-.88,3.11-1.3,4.67a3.78,3.78,0,0,0-.05.76q0,.51-.06,1l-.2,0a2.21,2.21,0,0,1-.19-.64,26.79,26.79,0,0,1,.17-3.5c.39-2.47.92-4.92,1.37-7.38.18-1,.2-2,.48-3a20.83,20.83,0,0,0,.45-4.8c0-.44.16-.87.22-1.31a16.2,16.2,0,0,0,.19-2.06c0-1.06.25-1.26,1.21-.81l.18.07Z"/><path d="M66.16,127.81a7.42,7.42,0,0,1-1.22-2.63,16.23,16.23,0,0,0-.72-2.34,11.16,11.16,0,0,1-1.06-3.31,27.34,27.34,0,0,1-1-4.06,10.44,10.44,0,0,0-.36-1.38c-.51-2.13-1-4.27-1.53-6.38-.34-1.25-.84-2.46-1.26-3.69a3.08,3.08,0,0,1-.23-.72c0-.22,0-.61.15-.65a1,1,0,0,1,.78.1,2.16,2.16,0,0,1,.55.86c.22.56.37,1.15.56,1.72.33,1,.73,2,1,3,.33,1.39.53,2.8.83,4.2.21,1,.49,1.91.72,2.86q.29,1.2.55,2.4c.36,1.7.69,3.41,1.08,5.1.34,1.44.75,2.87,1.13,4.31A4.32,4.32,0,0,1,66.16,127.81Z"/><path d="M32.82,140.76a20.58,20.58,0,0,1-.48,5.4c-.18.73-.3,1.48-.43,2.22a3.3,3.3,0,0,0,.55,2.54c.21.31.53.65,0,1a1.14,1.14,0,0,1-1.5-.37c-.15-.34-.35-.66-.46-1a3.06,3.06,0,0,1-.2-1.1,15.09,15.09,0,0,1,.3-2c.23-1.11.49-2.22.73-3.33a1.79,1.79,0,0,0,0-.66,9.56,9.56,0,0,1,.15-3.41,1.36,1.36,0,0,0,0-.65c-.22-.66.13-1.25.26-1.85a.6.6,0,0,1,.48-.33.66.66,0,0,1,.48.36,2.45,2.45,0,0,1,.1.84C32.82,139.17,32.82,140,32.82,140.76Z"/><path d="M44.27,149.14a9.48,9.48,0,0,1,.1,1c0,.79-.44,1.27-1,1.19s-.79-.38-.62-.85c.46-1.23-.08-2.27-.48-3.38A18.37,18.37,0,0,0,40,143.26a5.17,5.17,0,0,1-.36-.67.68.68,0,0,1,.17-.94.74.74,0,0,1,1,.13,17.82,17.82,0,0,1,1.71,2.28,17.36,17.36,0,0,1,1.33,2.84,14.9,14.9,0,0,1,.47,2.21Z"/><path d="M64.37,12.45a5.15,5.15,0,0,1-1.1-3c-.08-.82,0-1.65-.09-2.47q-.13-2-.32-4.08c-.06-.63,0-.81.57-1a.73.73,0,0,1,1,.41,2.36,2.36,0,0,1,.39,1.05,38,38,0,0,1-.14,6.17c-.08.78-.06,1.58-.1,2.37A3.05,3.05,0,0,1,64.37,12.45Z"/><path d="M42.79,50.24l1.58-2.1c.13-.17.33-.32.41-.51.47-1.17.92-2.35,1.36-3.53.21-.56.38-1.15.59-1.71a.92.92,0,0,1,.35-.43.35.35,0,0,1,.59.23,1.78,1.78,0,0,1,0,.75,13.61,13.61,0,0,1-2.16,5.13A13.53,13.53,0,0,1,43,50.45Z"/><path d="M66,10.2a2.5,2.5,0,0,1,.84-.13c.15,0,.25.34.37.52-.17.1-.37.29-.52.26a2.74,2.74,0,0,1-.71-.36C66,10.39,66,10.3,66,10.2Z"/><path d="M16.14,109.14l.51-.77C16.83,108.9,16.83,108.9,16.14,109.14Z"/><path d="M47.33,64.17c-.18.12-.27.24-.35.23s-.16-.14-.24-.21.12-.17.18-.17A1.53,1.53,0,0,1,47.33,64.17Z"/><path d="M70.23,120.09c.39.12.72.29.81.7l-.17.15-.63-.86Z"/><path d="M66,54.83c-.16.12-.25.24-.32.23s-.17-.13-.21-.22.1-.17.15-.17A1.33,1.33,0,0,1,66,54.83Z"/><path d="M9,81.83H8.37s0-.06,0-.09H9S9,81.8,9,81.83Z"/><path d="M43.34,151.37s-4.1,2-10.88-.45"/><path class="b" d="M20.75,154.79S15,153.44,13,153.94"/></svg>