<svg xmlns="http://www.w3.org/2000/svg" viewBox="0 0 44.54 123.93"><defs><style>.a{fill:#fff;}.b,.c{fill:none;stroke-miterlimit:10;stroke-width:2px;}.b{stroke:#000;}.c{stroke:#010101;}</style></defs><title>horse-6</title><path class="a" d="M42.53,75.7c-.53-.87-1-1.81-1.57-2.64a8.24,8.24,0,0,1-1.44-7.11,14.74,14.74,0,0,0-.08-6.61c-.69-3.32-1.31-6.66-2-10a34.64,34.64,0,0,0-1.53-6A42.71,42.71,0,0,1,32.26,28c-.09-3.11-.38-6.16.25-9.24a7.73,7.73,0,0,0-.62-5.6,10.25,10.25,0,0,1-.66-1.87c.69-2.26,2.57-3.9,1.93-6.54a14.13,14.13,0,0,1-6.78-2.14,3.78,3.78,0,0,0-1.67-.28,6.37,6.37,0,0,0-1.89.07c-.06.65-.14,1.3-.15,2,0,2.34-3.68,2.35-3.64,0,0,0,0-.08,0-.11l-.23.19a8.92,8.92,0,0,1-6.24,2.43c-.49,0-1,.39-1.43.56a5.07,5.07,0,0,0,.77,4c2.1,2.82,2.39,5.9,1.74,9.25a3.48,3.48,0,0,0,.87,3.29c2.1,2,1.49,4,.06,5.89-2,2.68-4.1,5.29-6.21,7.89C7.2,39.18,5.89,40.55,4.71,42a3.15,3.15,0,0,0-1,2.82A7.05,7.05,0,0,1,2.42,51.5,2.4,2.4,0,0,0,2,52.75c-.24,3.54-.81,7.1-.59,10.6A49,49,0,0,0,4,77.24a23.74,23.74,0,0,1,.68,14C3.94,94.37,3,97.49,2,100.58a9.43,9.43,0,0,0-.14,6.48,15,15,0,0,1,.94,7c-.28,2.3-.81,4.58-1.29,7.14A2.76,2.76,0,0,0,4,123.41a35.51,35.51,0,0,0,8.71-.29,25.66,25.66,0,0,0-.47-12.18,21.17,21.17,0,0,1,.28-13.52c.34-1,.62-2,.87-3,.92-3.72,1.83-7.44,2.74-11.16.19-.79.36-1.58.68-2.91a35.88,35.88,0,0,1,4.56,8.05,8.71,8.71,0,0,1,.56,3,67.72,67.72,0,0,0,2.48,15.72,67.56,67.56,0,0,1,1.74,9.13,11.35,11.35,0,0,0,2.28,6.08c4.08,1,7.93-.31,11.81-1.07.32-.07.56-.6.91-1-.73-2.49-.76-5.27-3.25-6.94a2.37,2.37,0,0,1-.75-1.92c.25-1.73-.43-3.19-.91-4.73s-.91-3.06-1.4-4.68c1-.45,2.07-.6,2.37-1.19,1.74-3.37,4.23-6.34,5-10.22.32-1.58.88-3.11,1.31-4.68C44.55,82.38,44.52,78.93,42.53,75.7ZM32.95,93.91C31.55,89.4,31.76,85.1,32,80.33a11.18,11.18,0,0,1,2,1A3.66,3.66,0,0,1,35.31,84,23.68,23.68,0,0,1,32.95,93.91Z"/><path d="M28.58,45.5a5.9,5.9,0,0,1,1,.25,10.56,10.56,0,0,1,4.47,4,25.07,25.07,0,0,1,2.4,4.65A30.53,30.53,0,0,1,37.67,59c.3,1.35.46,2.72.69,4.09a9,9,0,0,1-.4,5c-.62,1.53-1,3.14-1.59,4.69-.33.91-.5,2-1.84,2.11-.35,0-.68.44-1,.64.23.31.28.45.33.44a1.93,1.93,0,0,1,2.2,1.63,6.63,6.63,0,0,0,1.88,3,1.3,1.3,0,0,1,.18,1.87,5,5,0,0,1-1.27-.64,11.63,11.63,0,0,1-2.8-3.21,7.28,7.28,0,0,0-1-1.25A1.45,1.45,0,0,0,32.17,79c0,.6.18,1.19.23,1.78a9.42,9.42,0,0,1,0,1.64c-.08,1-.27,2-.34,3q-.2,2.61-.3,5.23c0,1,0,1.93,0,2.9q0,1.72,0,3.44a4.25,4.25,0,0,1-.24.78,7.1,7.1,0,0,1-.3-1,17.74,17.74,0,0,1-.37-4.93,6.48,6.48,0,0,0-.23-2.32,1.75,1.75,0,0,0-.7-1,17.83,17.83,0,0,1-6.14-7A5.19,5.19,0,0,0,21,79a10.6,10.6,0,0,1-4.15-3.09A36.19,36.19,0,0,1,9.71,65.09a30.87,30.87,0,0,1-2.33-7.76,26.19,26.19,0,0,1,.08-4.94,39.84,39.84,0,0,1,.57-4c.52-2.92,1.53-5.67,3.9-7.55a12.31,12.31,0,0,1,4.23-2c1.82-.52,3.3.47,4.53,1.75A4.37,4.37,0,0,1,21.23,42c-1.88.07-2.61-1.81-4.35-1.93.23.66.4,1.18.57,1.69-.59.29-.85-.07-1.12-.38a1.59,1.59,0,0,0-1.86-.45,6,6,0,0,0-4.12,3.56,8.94,8.94,0,0,0-1.06,3.46l1,.39a3.6,3.6,0,0,1-.32.53c-1.78,1.81-2,4.08-1.81,6.43A31.41,31.41,0,0,0,12.6,68.11,31.6,31.6,0,0,0,20,76.83a4.39,4.39,0,0,0,.69.46,2.18,2.18,0,0,0,.52.11,4.81,4.81,0,0,0,0-.93c-.54-2.56-1.19-5.1-1.61-7.69a17.65,17.65,0,0,1-.12-4.54c.26-2.56.25-5.16,1.05-7.65.13-.39.29-.77.44-1.15.4-1.07.82-2.13,1.18-3.22a18.87,18.87,0,0,0,.77-2.78,34.33,34.33,0,0,0,.36-3.56c0-.55-.06-1.11.78-1.47a5.18,5.18,0,0,1,.36,1.39A25,25,0,0,1,24.08,49q-.4,2.59-.93,5.15c-.1.47-.5.88-.61,1.36-.72,3-1.82,6-2,9.17a21.05,21.05,0,0,0,.19,3.85,42.33,42.33,0,0,0,1.09,5.69,25.63,25.63,0,0,0,2,4.83,6.22,6.22,0,0,0,1.89,1.73,10.41,10.41,0,0,1,1.81,1.4l-2.5-.9a14.74,14.74,0,0,0,2.42,3.93,19.32,19.32,0,0,0,2.1,2.19,1.09,1.09,0,0,0,.94.25c.22-.13.29-.61.31-1,0-.65-.08-1.29-.06-1.93.05-1.15.16-2.29.24-3.44,0-.3,0-.6,0-1.09l-1.81,1.16-.2-.19c.55-.81,1.12-1.59,1.63-2.42,1.74-2.87,3.47-5.74,5.17-8.64,1.18-2,1.09-4.24,1-6.45-.09-1.47-.25-2.93-.44-4.39A19.31,19.31,0,0,0,32,49.11a22.57,22.57,0,0,0-2.67-2.36l-1-.83A4.45,4.45,0,0,0,28.58,45.5Z"/><path d="M38.51,48.84a16.06,16.06,0,0,1-.61-2,17.77,17.77,0,0,0-2.2-5,14.73,14.73,0,0,1-1.32-3c-.42-1.49-.61-3.06-.94-4.58a35.27,35.27,0,0,1-.66-8.08,1.73,1.73,0,0,0-.16-.93,4.14,4.14,0,0,1-.5-3c.21-1.6.45-3.19.68-4.78A8.1,8.1,0,0,0,33,16c-.06-1.24-.19-2.47-.27-3.71a1.42,1.42,0,0,0-.81-1.31c-1.06-.58-1.12-1.35-.5-2.39,1.2-2,2.32-4,3.49-6a1.1,1.1,0,0,0-1.49-.17,3.2,3.2,0,0,1-1,.46c-1,.16-2,.25-3,.36a2,2,0,0,1-.23-.31,5.57,5.57,0,0,0-6-2.72l-.35.11a1.84,1.84,0,0,1,.08.57c0,.17,0,.34,0,.5a4.57,4.57,0,0,1,3.7.75,22.7,22.7,0,0,1,2,2c.25.24.53.45.77.66A2.79,2.79,0,0,1,32.19,4c.23.95-.53,3.1-1.53,4.34l-.53-1-.28,0c0,.33,0,.65,0,1A7.73,7.73,0,0,1,29.77,10a29.52,29.52,0,0,1-2.54,6.78,3.31,3.31,0,0,0-.3,1.34c-.13,2.06-.27,4.12-.31,6.19,0,2.34,0,4.68,0,7,0,1.1,0,2.2-.05,3.3a1.65,1.65,0,0,1-.35.88,5.07,5.07,0,0,1-5.47,1.16,7.31,7.31,0,0,0,.72-.21c.21-.09.4-.22.76-.41-.36-.13-.53-.21-.7-.26-1-.28-1.63-.13-2,.47A2.08,2.08,0,0,0,20,38.46c.31.33.56.71.9,1.15.74-.48,1.29.2,2.1.57-.1-.51-.17-.82-.28-1.32a3.39,3.39,0,0,1,1.14.1c.83.44,1.58.53,2.15-.31a2.9,2.9,0,0,0,.81.37,2.67,2.67,0,0,0,.75-.12c.78.42.43,1.42,1.32,1.77a14.09,14.09,0,0,0,.46-4.78c-.19-1.87-.35-3.75-.6-5.62a19.27,19.27,0,0,1,0-5.78,1.46,1.46,0,0,0-.07-.42l-.88.1c-.73-4,.25-7.67,1.85-11.24a2,2,0,0,1,.92-1.16c.08.27.14.44.18.62a41.64,41.64,0,0,1,.41,8.39c0,1.1,0,2.2,0,3.29,0,.64-.05,1.28,0,1.91.08,1.15.22,2.28.3,3.43,0,.68-.07,1.38,0,2.05.3,2,.66,4.08.93,5.76L31.7,39c-1.46.37-1.46.37-1.76,1.1.46.19.92.41,1.39.58a7.1,7.1,0,0,1,4.28,4.23c.84,2.07,1.61,4.17,2.42,6.25,0,.09.21.13.33.19A2.59,2.59,0,0,0,38.51,48.84Z"/><path d="M.73,102.54c1.74.89,1.69,2.7,2.17,4.17A25.58,25.58,0,0,1,4,113.65a19.14,19.14,0,0,1-1,6.09,5.46,5.46,0,0,1-.52,1c.54.85,1.3.44,2,.33a2,2,0,0,1-1.09,1.86,1.46,1.46,0,0,1-1.53-.4,1.61,1.61,0,0,1-.35-1.89,30.86,30.86,0,0,1,1.14-3.81c.8-1.59.31-3.12.17-4.67a17.8,17.8,0,0,0-.65-2.68c-.24-.94-.48-1.87-.72-2.8,0-.14,0-.31-.12-.39a4.46,4.46,0,0,1-1.21-3.07,1.69,1.69,0,0,1,.14-1.27A42.11,42.11,0,0,0,4.73,91.45c.6-1.91,1.19-3.82,1.73-5.74a4.91,4.91,0,0,0-.77-4.54A19.34,19.34,0,0,1,3.88,77c-.38-.94-.69-1.9-1.06-2.83-.22-.55-.5-1.08-.74-1.63A24.06,24.06,0,0,1,.54,63.14c0-1.42-.11-2.84-.14-4.26A9.12,9.12,0,0,1,1,54.73c0-.08.11-.23.08-.25-.74-.64-.05-1.25,0-1.87a4.32,4.32,0,0,1,.62-1.74,6.91,6.91,0,0,0,.49-2.65c.18-1.68,1.22-2.93,2-4.3a1.2,1.2,0,0,1,.53-.43,13.89,13.89,0,0,0,3.35-2.63,1.08,1.08,0,0,1,1.27-.31c-.8.74-1.46,1.42-2.18,2a18.09,18.09,0,0,0-3.39,4.49,5.4,5.4,0,0,0-1.06,2.78c.06,2-.85,3.81-.61,5.8a14,14,0,0,1-.24,2.3,25.93,25.93,0,0,0-.08,3.43c.25,3.22,1.23,6.3,1.9,9.44A43.26,43.26,0,0,0,5.5,76.31,38,38,0,0,0,7.3,80a2.74,2.74,0,0,1,.45,1.13,23,23,0,0,1-.3,4.52A77,77,0,0,1,3.79,97a15.24,15.24,0,0,1-2.61,4.82A4.68,4.68,0,0,0,.73,102.54Z"/><path d="M15.7,27.52c0-.34,0-.68,0-1a13.6,13.6,0,0,0-.23-2.44,6.91,6.91,0,0,1-.55-2.66.67.67,0,0,0-.15-.52c-1-.76-.65-1.77-.62-2.77,0-1.47,0-2.94,0-4.4a8.31,8.31,0,0,1,1.38-4.43,2.79,2.79,0,0,1,.84-.89c.54-.34,1-.11,1.1.51a1.68,1.68,0,0,1,0,.27,2.81,2.81,0,0,1-.12,1.31c-.24.55-.52,1.09-.71,1.66-.57,1.7-1.08,3.42-1.69,5.1-.19.53-.2.85.42,1.2a15.28,15.28,0,0,0,2.34-7.11c.85.8.6,1.7.46,2.57a5.14,5.14,0,0,1-.28.63.72.72,0,0,0,.3.93c.81.58.82,1,0,1.54a3.56,3.56,0,0,0-1.45,2.59c.3.69,1.74.29,1.23,1.6l-2.13.1,1,2.77,1.58-1a6.67,6.67,0,0,1,.07,3.6c-.66,1.71-.76,3.61-1.72,5.23a8.83,8.83,0,0,0-1,2.48l.8-.67c0,.36.07.65.1,1l1,.24-1.31,1.09.1.25L17.88,36a4.73,4.73,0,0,1-3,1.73A4.75,4.75,0,0,0,11.72,39c-.44.43-.82.22-1.19-.43a15,15,0,0,1,2-1.12,2.49,2.49,0,0,0,1.74-2.74l-7.67,6.6-.23-.18a1.91,1.91,0,0,1,.27-.61c1-1,2-2.14,3.16-3.09A22,22,0,0,0,14,32.86a3.28,3.28,0,0,1,.53-.63c.34-.31.71-.65,1.26-.11l-.32-1.48c1.55-.44,1.38-1.93,1.74-3.06A2.59,2.59,0,0,0,17,24.9c-.63.87-.18,2-1,2.69Zm0-15.83-.44-.1-.49,2.71.26.06Z"/><path d="M28.91,115c1-.16,1.35.48,1.4,1.38.06,1.15.19,2.3.14,3.44a3.32,3.32,0,0,1-.69,1.44.61.61,0,0,1-.6.11,1.31,1.31,0,0,1-.26-.7.67.67,0,0,1,.14-.38c.72-1.27.38-2.56,0-3.86,0,.48-.06,1-.11,1.76a6.3,6.3,0,0,1-1.15-3.56,49.83,49.83,0,0,0-2.13-10.53,2,2,0,0,0-1.42-1.66l-.77,1.1c.09-1.4.12-2.53.23-3.65a33.76,33.76,0,0,0-.35-9.76,4.1,4.1,0,0,1-.11-.54c-.1-3-1.67-5.4-3.07-7.87-.09-.16-.23-.29-.32-.45-.26-.41-.49-.86,0-1.23s.88,0,1.25.24a1.66,1.66,0,0,1,.46.51,22.64,22.64,0,0,1,3.23,9c.14,1.56.38,3.1.47,4.66a12.63,12.63,0,0,1-.2,2.61,7.17,7.17,0,0,0,1.17,5,13.49,13.49,0,0,1,1.59,4.82C28.22,109.53,28.51,112.19,28.91,115Z"/><path d="M40.21,61.95c.82.09.8.61.75,1.05-.09.82-.25,1.64-.4,2.45-.12.63-.27,1.26-.41,1.89a2.17,2.17,0,0,0,.19,1.44,6.66,6.66,0,0,1,.42,2.11,21.3,21.3,0,0,0,1.1,6.23,10.13,10.13,0,0,0,2.67,3.92c-1,1.22-.75,2.75-1,4.17-.05.27,0,.6-.1.82-.82,1.52-1,3.25-1.55,4.84a3.5,3.5,0,0,1-.18.36l-.29-.11a6,6,0,0,1,0-1c.43-2.59.85-5.18,1.32-7.77a1.56,1.56,0,0,0-.41-1.5,12.86,12.86,0,0,1-2.62-5,29.72,29.72,0,0,0-1.36-3.07l-1.12.52c.48-1.45.93-2.66,1.28-3.91s.51-2.52.89-3.75S39.5,63.08,40.21,61.95Z"/><path d="M31.58,98.25A2.4,2.4,0,0,1,33,100c1.11,2.92,2.23,5.83,3.31,8.76.41,1.11.71,2.27,1.15,3.39.54,1.36,1.17,2.69,1.75,4a21.44,21.44,0,0,1,1,2.42,2.41,2.41,0,0,1-1.92,3.16,2.92,2.92,0,0,1,.27-.65,1.88,1.88,0,0,0,.06-2.42c-.28-.41-.34-1-.61-1.38a6.61,6.61,0,0,0-1.25-1.42c-.45-.37-1.17-.54-1.06-1.28s.9-.6,1.3-.7c-1.1-2.93-2.17-5.85-3.3-8.75-.6-1.53-1.31-3-2-4.53A2.73,2.73,0,0,1,31.58,98.25Z"/><path d="M9.62,100.45a6,6,0,0,1,.07-1.23c.66-2,1.33-4,2-6,.54-1.55,1.16-3.08,1.71-4.64A41.28,41.28,0,0,0,15.67,80c-.23-.43-.61-.84-.52-1a1.88,1.88,0,0,1,.94-.89c.19-.08.61.25.84.48s.09.44,0,.66c-.35,1.81-.62,3.63-1.1,5.4-.59,2.17-1.29,4.32-2.06,6.43-1.06,2.89-2.22,5.74-3.37,8.6C10.37,99.88,10.07,100,9.62,100.45Z"/><path d="M10.5,102.57c0,2.11,0,3.94.08,5.77.05,1.61.1,3.22.31,4.81a30.34,30.34,0,0,0,.85,3.62,2.91,2.91,0,0,1-.54,2.88c-.73,0-.89-.55-1-1.09a38.89,38.89,0,0,1-.73-4.91c-.12-3-.06-6.08,0-9.11A1.87,1.87,0,0,1,10.5,102.57Z"/><path d="M35.66,93a8.19,8.19,0,0,1,0-1.72c.63-2.48,1.3-4.95,2-7.41,0-.14.25-.23.4-.37.81.38.77,1,.6,1.65-.36,1.32-.77,2.63-1.22,3.93-.35,1-.77,2.06-1.19,3.08A5.76,5.76,0,0,1,35.66,93Z"/><path d="M17.47,4.58a22.72,22.72,0,0,0-1.28,1.94A7.06,7.06,0,0,0,15.8,8L12.14,4.89a8.39,8.39,0,0,1,5.35-.28Z"/><path d="M34.82,96c1,1.73,1.84,3.59,4.11,4.62-.69.35-1,.66-1.34.65a2.68,2.68,0,0,1-2.36-1.43,16.68,16.68,0,0,1-1-2.41C34,96.66,34,96.65,34.82,96Z"/><path d="M39.94,99.49c.67,1.91.65,2.23-.16,3A4.08,4.08,0,0,1,39.94,99.49Z"/><path d="M8.56,102.43l.67-1.62a1.37,1.37,0,0,1-.38,1.81Z"/><path d="M29.58,6.5l.49-.56.25.19-.42.64Z"/><path d="M29.91,33.7c-.07,0-.16.07-.2,0s0-.13-.07-.2.16-.07.2-.05S29.89,33.63,29.91,33.7Z"/><path class="b" d="M11.2,119.65S7,123.31,3.32,122.9"/><path class="b" d="M38.51,121.09s-5.8,2.55-9.35.31"/><path class="b" d="M41.85,90.87a38.61,38.61,0,0,1-1.91,8.62"/><line class="c" x1="22.6" y1="0.82" x2="22.6" y2="36.82"/><line class="c" x1="18.6" y1="0.82" x2="18.6" y2="36.82"/></svg>