<?xml version="1.0" encoding="utf-8"?>
<!-- Generator: Adobe Illustrator 18.1.1, SVG Export Plug-In . SVG Version: 6.00 Build 0)  -->
<!DOCTYPE svg PUBLIC "-//W3C//DTD SVG 1.1//EN" "http://www.w3.org/Graphics/SVG/1.1/DTD/svg11.dtd">
<svg version="1.1" id="Layer_1" xmlns="http://www.w3.org/2000/svg" xmlns:xlink="http://www.w3.org/1999/xlink" x="0px" y="0px"
	 viewBox="967.8 785.3 285.5 122.3" enable-background="new 967.8 785.3 285.5 122.3" xml:space="preserve">
<g>
	<path fill-rule="evenodd" clip-rule="evenodd" fill="#6DCFF6" d="M1128.7,882.8c0,0-60.2,7.7-105.8-13.5
		c-47.9-22.3-32.6-47.8-32.6-47.8s16.2-21.1,55-20.7c0.5,0-7.7,2.5-7.7,2.5s-13.1,2.5-14.9,3.2c-1.8,0.8-32,8-19.3,33.1
		c0,0,5.9,14.8,34.7,26.6c0,0,42.3,14.8,85.3,10l0.6-0.6l1.9,3.9l1.5,2.2l0.6,0.6L1128.7,882.8z"/>
	<path fill-rule="evenodd" clip-rule="evenodd" fill="#F099C1" d="M1135.4,893.4c0,0-38.3,3-87.2-5.8c0,0-35.1-5.3-53.8-24.7
		c0,0-33.6-32.5-1.7-53.8c0,0,19.4-11.2,55.8-9.5c0.1,0,0.3,0,0.4,0c36.6,1.8-4.1,1.4-4.1,1.4s-14.7,1.2-21.7,2.8
		c0,0-21,2.1-31.8,19c0,0-11,17.6,14.4,35.5c0,0,38.2,31.1,122.8,24L1135.4,893.4z"/>
	<path fill-rule="evenodd" clip-rule="evenodd" fill="#FFF799" d="M1142.8,906.9c0,0-30.3-0.2-51.9-1.9c0,0-36-3.1-64.2-12.4
		c0,0-23.8-4-44.8-26.5c0,0-22-24.6-11-46.9c0,0,5.5-10.4,21.1-15.6c0,0,13.2-5.1,34.4-6.2c0,0,23.4-0.4,24.2-0.4s2,2.9,2,2.9
		l-21.8,0.5l-0.6,0.1c0,0-19,1.5-29,6s-19.2,7.1-21.9,24.9c0,0-2.2,16.4,19.5,35.5c0,0,19.1,14.6,48,20c0,0,40.6,8.2,88.8,6
		c0,0,8,10.6,7.8,12.8"/>
</g>
<g>
	<path fill="#C6403D" d="M1161.2,869.7c-1-0.2-1.7-0.3-2.4-0.5c-0.2,0-0.3-0.3-0.4-0.5c-0.3-2.5-1.3-4.7-3.5-6.2
		c-0.4-0.3-0.6-1-0.6-1.4c0.2-2.7,2.6-3.3,4.3-4.7c3.4-2.5,6.7-5.2,10.1-7.7c3.1-2.4,6.3-4.7,9.4-7c2-1.5,3.9-3.2,5.9-4.7
		c1.1-0.9,2.4-0.6,3.4,0.2c1.5,1.1,2.9,2.5,4.2,3.8c0.5,0.5,0.4,0.9-0.4,1c-2.3,0.4-4.5,2.8-3.3,5.4c0.1,0.2-0.1,0.6-0.3,0.7
		c-1.9,1.7-2.8,3.9-3.1,6.3c0,0.4,0,0.8,0.2,1.1c0.7,1,0.2,1.5-0.6,2c-2.8,1.6-5.6,3.3-8.5,4.8c-3.8,2-7.7,3.9-11.5,5.9
		C1163.1,868.7,1162.1,869.2,1161.2,869.7z"/>
	<path fill="#FFFFFF" d="M1146.1,888.4c-7.3-1.4-13.2-0.5-14.8,8.7c-1.1-2.1-2.1-3.6-2.8-5.3c-2.2-5.4-4.3-10.7-6.3-16.2
		c-1.2-3.3,0.9-7.9,4.2-9.4c4.3-2,8-0.5,10.1,3.6c2.9,5.6,5.9,11.1,8.8,16.7C1145.6,887.1,1145.8,887.8,1146.1,888.4z"/>
	<path fill="#ECDDA1" d="M1197.8,815.3c0.5-1.6,0.8-3,1.3-4.3c1-2.5,3.1-3.1,5.5-3.3c3.3-0.4,6.3,0.8,9.1,2.1c3.3,1.5,4.9,6,3.7,9.4
		c-1.8,4.9-5,5.6-9.4,5.6c-3.7-0.1-6.7-1.8-8.7-4.8C1198.4,818.6,1198.3,816.8,1197.8,815.3z M1199.8,816.4c-0.1,0-0.2,0-0.3,0
		c-0.1,0.4-0.3,0.7-0.3,1.1c0,1.2,1.2,2.9,2.3,2.7c1.8-0.3,2.7,1.1,4.1,1.5c0.9,0.2,1.9,0.6,2.8,0.4c1.3-0.3,2.5-1.1,3.6-1.8
		c0.1-0.1,0.1-0.5,0.1-0.8c-0.2,0-0.4,0-0.6,0.1c-2,1.8-4.2,1.8-6.5,0.6c-1.4-0.7-1.9-1.7-1.8-3.7c0.1-1.4,1.3-0.9,2-1.1
		c0.6-0.2,1.2-0.3,1.7-0.5c0.8-0.3,1.1-1.5,0.3-1.8c-1.4-0.7-2.8-1.3-4.3-1.6c-0.8-0.2-1.7,0.3-2.5,0.5c0.4,0.8,0.7,1.6,1.3,2.3
		c0.6,0.8,1.1,3.5,0.4,4.3c-0.2,0.3-1,0.4-1.2,0.3c-0.4-0.4-0.7-1-1-1.5C1200,817,1199.9,816.6,1199.8,816.4z"/>
	<path fill="#4D4D4D" d="M1142.2,888.4c2.7-0.3,4.5,1.3,6.2,3.1c0.1,0.1,0.2,0.6,0,0.8c-0.9,1.1-1.8,1.1-2.8,0.1
		c-1.5-1.4-3.4-1.1-5.1-0.7c-2.5,0.5-3.9,2.3-4.8,4.6c-0.6,1.5,0.5,4.6,2,5.9c2.2,1.9,5.8,1.9,8,0c0.5-0.4,1.2-0.7,1.5-1.3
		c0.4-0.7,0.8-1.6,0.8-2.4c0-1.4,0.7-2.5,2-2.7c0.2,0,0.6,0.3,0.6,0.5c0.8,2.5,0.2,4.9-1.4,6.9c-2.6,3.3-6.3,4.2-10.2,3.1
		c-1.6-0.5-3.1-1.7-4.2-3c-3-3.2-3.2-6.8-1.3-10.6c1.2-2.3,3.1-3.8,5.7-4.1C1140.2,888.6,1141.2,888.5,1142.2,888.4z"/>
	<path fill="#FFFFFF" d="M1146.3,874.7c2-1,2.2-0.9,3.2,0.9c2.2,3.8,4.4,7.5,6.6,11.2c1.2,2,1,2.9-0.9,4.2c-4,2.6-8,5.2-12.1,7.7
		c-0.3,0.2-1.2,0-1.5-0.3c-0.5-0.6-1.3-1.3-0.6-2.2c0.1-0.1,0.6,0,0.9,0c0.2,0,0.6,0.2,0.7,0.2c1.4-0.8,2.8-1.5,4.2-2.4
		c2.2-1.4,4.4-2.9,6.6-4.4c1.1-0.7,1.4-1.8,0.6-3c-0.2,0.1-0.3,0.3-0.5,0.4C1151.2,882.9,1148.8,878.9,1146.3,874.7z"/>
	<path fill="#FFFFFF" d="M1145.9,893.8c-0.7,0.7-1.2,1-2.1,0.2c-1.5-1.3-4.1-0.3-5.2,1.8c-0.8,1.6-0.2,3.8,1.2,4.6
		c1.8,1,4.3,0.7,5.3-0.8c0.5-0.8,1-1.6,1.5-2.4c0.2,0.1,0.5,0.2,0.7,0.2c-0.1,0.9,0,1.9-0.4,2.6c-1.1,1.9-4.8,3.3-6.9,2.7
		c-1.5-0.4-2.5-1.5-3-3c-1.2-3.5-0.1-5.2,2.7-7.2C1141.4,891.4,1144.8,892,1145.9,893.8z"/>
	<path fill="#C6403D" d="M1152.4,864.8c-0.8-1,0.1-1.5,0.7-1.9c0.3-0.2,0.9,0.1,1.3,0.3c2.3,1.3,3,3.6,3.1,6c0,0.5-0.9,1-1.4,1.5
		c-0.8-1.3-1.5-2.4-2.2-3.6c-0.1,0.1-0.2,0.1-0.4,0.2c0.5,1,0.9,1.9,1.4,2.9c0.2,0.4,0.4,0.9,0.6,1.3c0.4,0.9-0.1,1.2-0.8,1.3
		c-0.2,0-0.7-0.5-0.8-0.8c-0.6-2.9-2.5-4.9-4-7.2c-0.2-0.3,0-0.8,0.1-1.2c0.4,0.1,0.8,0,1.2,0.2
		C1151.6,864.1,1152,864.4,1152.4,864.8z"/>
	<path fill="#FFFFFF" d="M1130.4,864.2c0.8-0.5,1.5-0.8,2.1-1.2c1.6-0.9,3.2-1.8,4.9-2.5c0.6-0.2,1.8,0,2.1,0.4
		c2,2.8,3.9,5.7,5.7,8.6c0.3,0.5-0.2,1.4-0.5,2.4c-1.7-2.6-3.2-4.9-4.7-7.1c-0.2-0.2-0.3-0.5-0.5-0.8c-1.5-2-1.7-1.9-3.9-0.7
		C1134.2,864.2,1132.6,865.3,1130.4,864.2z"/>
	<path fill="#FFFFFF" d="M1146.9,873.4c-1.2,0-1.8-0.9-1.2-1.6c1.2-1.6,2.7-3,4.1-4.4c0.1-0.1,0.5,0.1,0.7,0.1
		c0.1,0,0.1,0.2,0.2,0.3c1.8,3.5,1.9,2.8-1.6,4.5C1148.2,872.7,1147.4,873.1,1146.9,873.4z"/>
	<path fill="#FFFFFF" d="M1143.9,895.4c-0.8,0-1.4-0.1-1.9-0.1c-0.4,0-1-0.1-1.1,0.1c-0.4,0.6-0.9,1.4-0.8,1.9
		c0.3,0.9,1,1.8,1.5,2.7c-1.1,0.2-1.7-0.7-2.2-1.6c-0.6-1,0.1-3.2,1.1-3.8C1141.7,894,1143,894.1,1143.9,895.4z"/>
	<g>
		<path fill="#9F6744" d="M1251.1,889.1c-1.9-2.6-4-5.1-5.6-7.9c-1.9-3.2-3.3-6.7-4.9-10.1c-0.6-1.3-1.2-2.6-1.7-3.9
			c0,0,0.1,0,0.1,0c1.3,2,2.6,4,4.1,6.3c0.8-1.3,1.5-2.2,1.9-3.2c0.7-1.7,1-3.4,1.6-5.1c1.6-4.4,2-8.9,1.1-13.5
			c-0.9-4.7-1.8-9.4-4.4-13.6c-1.9-3.1-3.9-6.2-5.9-9.3c-0.3-0.4-0.4-0.9-0.6-1.3c-1.9,0.9-3.9,1.7-5.8,2.6
			c-0.1-0.2-0.2-0.3-0.2-0.5c3.5-0.9,6-3.1,8.3-5.7c2.4-2.6,3.6-5.7,4.3-9.1c0.8-4.1,0.4-8.9-0.9-9.9c-0.5,0.6-1,1.2-1.5,1.7
			c-1.8,1.8-4.2,2.7-6.6,1.8c-0.2-0.1-0.3-0.3-0.5-0.4c0.2-0.1,0.3-0.2,0.5-0.2c0.9-0.1,1.9,0.1,2.8-0.2c3.9-1.3,6.6-4.8,6.4-8.8
			c-0.2-3.5-1-6.9-4.5-8.9c-2.3-1.3-4.6-2.4-7.2-1.9c-2.1,0.3-4.1,1.1-4.8,3.4c-0.1,0.3-0.3,0.5-0.4,0.8c-0.5-1.6,0.4-2.8,1.3-4
			c-2.1-0.6-4-0.8-6.1-0.7c-6.6,0.5-12.3,2.7-16.3,8.1c-1.2,1.7-1.7,3.9-2.4,6c-0.1,0.2,0.3,0.8,0.5,0.8c2.1,0.3,2.8,1.3,2.7,3.4
			c0,0.3,0.1,0.9,0.3,0.9c2.4,0.8,4.8,1.5,7.3,2.2c0.8-3.9,2.4-4.3,5-4c1.4,0.1,2.1,1.1,2.3,2.9c0.2,2.1-1.3,4-3.7,4.7
			c1.4,3.4,1.4,6.7-0.8,9.7c-2.3,3.2-5.7,3.5-9.2,3.6c2.5,1.7,5.1,3.2,8,3.7c2.9,0.5,5.9,0.7,8.7,0.9c-1.9,0.6-9.2,0.5-11.5-0.8
			c-0.6-0.4-1-0.4-1.5,0.5c-0.9,1.7-2.1,3.3-3.1,4.9c-0.8,1.2-1.5,2.3-2.2,3.5c-0.3,0.6-0.4,1.3-0.6,2.2c3-1,5.5-2.5,7.7-4.3
			c1.8-1.4,3.8-2.5,6-3.1c3.1-0.8,6.2,0.3,7.8,2.7c0.3,0.4,0.3,1,0.5,1.4c-0.9-1.8-2.3-3.2-4.3-3.6c-3-0.6-5.7,0-8.2,1.9
			c-2.4,1.8-5,3.4-7.7,4.8c-1.6,0.8-3.5,1.1-5.3,1.4c-1.9,0.3-3.9,0.1-5.8,0.3c-1.8,0.2-3.7,0.3-5.3,0.9c-0.8,0.3-1.5,1.5-1.9,2.5
			c-0.2,0.3,0.5,1,0.7,1.5c0.1,0.2,0,0.6-0.1,0.8c-0.7,0.7-1.6,1.3-2.2,2.1c-1.9,2.3-2,5.1,0,7.3c1,1.1,2.3,1.9,3.5,2.6
			c2.6,1.6,5.4,2.4,8.5,2.2c3.3-0.3,6.2-1.6,9.1-3c4.9-2.3,8.8-5.8,12.8-9.4c0.4-0.4,0.8-0.7,1.1-1c-0.2-0.1-0.4-0.2-0.6,0.1
			c0.3-0.3,0.5-0.2,0.6-0.1c0.8-0.8,1.6-1.5,2.3-2.2c-0.2,0.3-0.5,0.8-0.9,1.2c-0.4,0.4-0.8,0.8-1.2,1.2c0.3,0.5,0.5,1.4,1.1,0.9
			c-0.2-0.2-0.3-0.3-0.5-0.5c0.5,0,1,0.2,1.2,0.5c0.8,1,1.5,2,2.3,3c1.8,2.1,2.7,4.5,2.8,7.2c0,0.2,0.4,0.6,0.7,0.7
			c1.3,0.4,2.6,0.8,3.8,1.2c0.4,0.1,0.6,0.5,1,0.8c-2.8-1.1-5.5-2.2-8.3-0.3c-2.4,1.6-4.3,3.6-4.2,6.7c0,2.1,0.3,4.1,0.5,6.2
			c0.1,1.1,0.3,2.2,0.6,3.3c1.3,4.4,2.9,8.7,4,13.1c0.7,2.8,0.7,5.8,1,8.7c0.1,1-0.5,2.1,0.9,3.1c2.2,1.5,4.6,1.8,7.1,1.8
			c2.3-0.1,4.7-0.2,6.5-1.7c3.5-2.9,6.8-6,8.6-10.3C1252.1,891.6,1252,890.4,1251.1,889.1z M1229.7,795.2c0.1-0.1,0.2-0.1,0.2-0.2
			c0.4,0.5,0.9,1,1.2,1.4c0.8-0.7,1.5-1.6,2.4-2.1c1.6-0.9,3.1-0.1,4.2,0.9c0.7,0.6,1.1,2,1,3c-0.2,2.4-1.7,3.4-4,3.2
			c-0.7,0-1.3,0.1-0.9,1.1c0.2,0.5,0.2,1,0.2,1.5c-0.4-0.8-0.8-1.5-1.1-2.3c-0.1-0.3,0.3-0.9,0.5-1c0.6-0.2,1.2-0.2,1.9-0.3
			c1.3,0,1.9-0.9,2.3-1.8c0.4-1,0.2-2.1-0.8-2.8c-0.9-0.6-1.9-1.3-2.9-0.4c-0.6,0.5-1.1,1.1-1.6,1.6c-0.3,0.3-0.5,0.7-0.9,1.2
			C1230.7,797.2,1230.2,796.2,1229.7,795.2z"/>
		<path fill="#ECDDA1" d="M1222.4,848.9c-0.9,0.9-1.9,1.9-2.8,2.8c-1.4,1.3-2.7,2.8-4.2,4c-3.5,2.8-7.4,4.9-11.5,6.6
			c-1.3,0.6-1.5,1.2-1.2,2.4c1.1,4.5,3.1,8.3,6.6,11.4c2,1.8,4,3.3,6.5,4.1c1.6,0.6,4.8-0.3,6-1.7c0.2-0.3,0.5-0.7,0.5-1.1
			c-0.2-1.9-0.6-3.7-0.7-5.6c-0.1-1.7-0.4-3.7,0.1-5.2c1-2.6,3.1-4.6,5.8-5.6c1.7-0.6,1.5-1.6,1.2-2.7c-0.5-2.4-1.7-4.5-3.3-6.4
			c-0.6-0.7-1.2-1.4-1.9-2C1223,850.3,1222.7,849.4,1222.4,848.9z"/>
		<path fill="#9F6744" d="M1206.4,874.8c1.3,1.1,2.5,2.3,3.9,3.2c3.6,2.4,7.5,4,11.9,3.3c1.3-0.2,2.3,1.1,1.7,2.3
			c-1.8,4-3.5,7.9-5.4,11.8c-0.7,1.4-1.9,2.7-2.9,3.9c-0.8,1-1.8,1.4-3,1.3c-2.4-0.2-4.8-0.3-7.2-0.6c-2.6-0.3-4.5-2.1-6-3.9
			c-1.7-2-3-4.4-4.4-6.7c-0.8-1.4-0.5-2.5,0.9-3.3c1.9-1.2,3.9-2.4,5.8-3.6c1.7-1.1,2.8-2.7,3.5-4.7
			C1205.4,876.9,1205.9,875.9,1206.4,874.8z"/>
		<path fill="#9F6744" d="M1209.9,831c-0.8,1-1.7,2-2.4,3.1c-1.3,2-2.5,4.1-3.8,6.1c-0.2,0.4-0.7,0.8-1.1,0.9
			c-2.3,0.2-4.7,0-6.9,0.4c-2.3,0.4-3.2-1-4.4-2.4c-0.9-1.1-2.2-1.9-3.3-2.9c-0.2-0.2-0.5-0.3-0.7-0.8c0.8-0.1,1.7-0.2,2.5-0.3
			c3.4-0.2,6.8-0.1,10.1-0.5c3.4-0.4,6.4-1.8,9.2-3.8c0.1-0.1,0.3-0.1,0.5-0.2C1209.7,830.8,1209.8,830.9,1209.9,831z"/>
		<path fill="#9F6744" d="M1214.1,787.8c-4.4,2.6-8.9,4.8-11,10.1c-1.2-2-1.6-3.9-1-5.8c0.9-2.9,2.9-4.9,5.8-5.4
			C1209.9,786.4,1212.1,786.5,1214.1,787.8z"/>
		<path fill="#9F6744" d="M1252.8,867.3c-0.1,1.4-1.5,3.4-2.6,3.7c-1.5,0.4-2.5-0.1-2.5-1.6c0-1.5,0.3-3,0.8-4.4
			c0.2-0.5,1.2-1.1,1.7-1c0.8,0.2,1.6,0.8,2.1,1.5C1252.7,865.8,1252.7,866.6,1252.8,867.3z"/>
		<path fill="#9F6744" d="M1182.2,836.9c-1.6,1.1-2.9,2-4.3,3C1178.1,838,1180.2,836.4,1182.2,836.9z"/>
		<path fill="#9F6744" d="M1220,880.7c0.8-0.7,1.5-1.4,2.4-2.2c0.2,0.6,0.4,1.3,0.7,1.9c-1,0.2-2,0.5-2.9,0.7
			C1220.1,880.9,1220,880.8,1220,880.7z"/>
	</g>
	<path fill="#FFFFFF" d="M1219,809.1c-0.5-0.7-1.1-1.2-1.1-1.5c0.1-0.4,0.7-0.8,1.1-0.9c0.2,0,0.9,0.6,0.9,0.9
		C1219.9,808,1219.5,808.4,1219,809.1z"/>
	<path fill="#FFFFFF" d="M1205,806c-0.4-0.5-0.8-0.8-0.7-1c0.1-0.3,0.5-0.5,0.8-0.6c0.1,0,0.5,0.4,0.5,0.6
		C1205.6,805.3,1205.3,805.6,1205,806z"/>
	<path fill="#534741" d="M1206.6,813.7c-2.1,1.5-4.2,0.9-5.4-1.5C1202.6,811.6,1205.3,812.4,1206.6,813.7z"/>
	<g>
		<path fill="#6DCFF6" d="M1125.4,885c0,0-0.7-11.5,14.2-9.8l-5.4-9.5c0,0-12.5-3.5-12.7,10.1L1125.4,885z"/>
		<path fill="#F099C1" d="M1139,873.8c-13.1-2.8-14.8,8.4-14.8,8.4l4.4,11c0,0,0.2-10.4,14.8-10.2L1139,873.8z"/>
		<path fill="#FFF799" d="M1128.5,893.1l3.4,6.5c0,0-0.4-16.7,15.2-9.9l-3.9-7.6C1143.2,882.2,1127.6,879.6,1128.5,893.1z"/>
	</g>
	<g>
		<path d="M1210.7,828.8c-0.4-0.2-0.7-0.4-1.1-0.6c-1.1-0.8-2.1-1.7-3.2-2.4c-1.2-0.7-2.5-1.1-3.8-1.8c-3.2-1.7-5.4-4.4-5.3-8.4
			c0.1-3.3,1-6,3.7-8c0.1-0.1,0.2-0.5,0.1-0.7c-0.3-1.3-0.5-2.5,0.5-3.6c0.2-0.2,0.1-0.6,0.2-0.8c0.7-2.4-0.2-4.5-0.8-6.8
			c-0.8-2.9,0.1-5.4,2.5-7.6c2.3-2,4.8-3.2,7.8-2.6c1.2,0.2,2.2,1.3,3.4,2c0.2,0.1,0.6,0.3,0.8,0.2c2.7-0.4,5.3-1,8-1.2
			c1.3-0.1,2.7,0.4,4,0.5c0.9,0.1,1.9,0.3,2.8,0.1c2.6-0.6,5-0.3,7.2,1.2c1.4,0.9,2.8,1.9,4,3c1.4,1.3,1.8,3.1,2.2,5
			c0.4,2.4,0.3,4.8-0.6,7.1c-0.2,0.7,0.5,1.6,0.6,2.5c0.2,1.4,0.5,2.9,0.4,4.3c-0.2,2.4-0.5,4.8-1,7.1c-0.7,3-2.4,5.5-4.6,7.7
			c-1.8,1.8-1.8,2.1-0.4,4.2c1.9,2.8,4,5.6,5.8,8.5c1.5,2.6,2.9,5.3,3.6,8.3c0.9,3.9,1.5,7.9,1.3,11.9c-0.1,1.8-0.2,3.6-0.4,5.5
			c1.7-0.7,3.1-0.1,3.8,1.2c0.9,1.6,1,3.5,0,5.2c-0.5,0.9-1.1,1.8-2,2.3c-1.5,0.9-2.9,0.2-4.1-1.1c-0.9,1.2-2.1,2.3-2.6,3.6
			c-0.3,0.7,0.4,1.9,0.8,2.8c0.6,1.3,1.3,2.5,2.1,3.7c1.9,2.9,4,5.7,5.8,8.7c0.4,0.7,0.3,2.1-0.1,3c-0.8,1.9-1.7,3.7-2.9,5.3
			c-2.2,3-4.3,6.2-8.1,7.1c-2.9,0.7-6,1-9.1,0.9c-2.3,0-4.2-1.6-5.7-3.4c-0.2-0.2-0.1-0.7,0-1c0.6-2.7,0.6-5.3-0.1-8
			c-0.6-2.4-1.1-4.8-1.7-7.2c-0.1-0.3-0.2-0.5-0.5-1c-0.9,1.9-1.5,3.6-2.4,5.2c-1.9,3.4-4,6.7-5.9,10.1c-0.9,1.6-2.3,1.9-3.8,1.6
			c-3.2-0.6-6.5-1-9.5-2.1c-1.6-0.5-3.1-2-4.3-3.3c-1.4-1.6-2.6-3.5-3.8-5.3c-0.6-0.9-1.3-1.9-1.5-3c-0.1-0.7,0.3-1.8,0.9-2.2
			c1.9-1.4,3.9-2.8,6-3.9c2.6-1.4,3.9-3.5,4.8-6.1c0-0.1,0-0.2,0.1-0.3c1.2-1.5,0.3-2.4-0.7-3.6c-2.1-2.5-3.5-5.3-3.5-8.6
			c0-0.2-0.6-0.6-0.9-0.7c-2.8-0.6-5.7-0.7-8.4-1.7c-1.9-0.7-4.2-1.4-5.5-3.4c-0.1-0.2-0.7-0.2-0.9-0.1c-2.6,1.4-5.2,2.8-7.8,4.2
			c-2.9,1.5-5.9,2.9-8.9,4.4c-2.2,1.1-4.3,2.3-6.6,3.3c-0.5,0.2-1.2,0.4-1.7,0.3c-1.3-0.4-2.5-0.3-3.5,0.7c-0.2,0.2-0.4,0.4-0.4,0.6
			c0.2,1.4-0.8,1.9-1.7,2.1c-1,0.2-1.8-0.3-2.2-1.3c0-0.1-0.1-0.2-0.1-0.2c-0.9,0.3-1.7,0.6-2.5,1c-0.3,0.1-0.5,0.8-0.4,1
			c2.1,3.6,4.2,7.2,6.3,10.8c0.7,1.2,1.3,2.5,1.8,3.9c0.7,1.9-1.1,2.5-2.1,3.4c-1.1,1-2.4,1.6-3.6,2.5c-0.3,0.2-0.4,0.8-0.3,1.1
			c0.8,3.5-0.2,6.6-2.7,9c-1,1-2.5,1.4-3.9,2c-3.2,1.3-6.3,1.1-9.1-0.8c-1.4-1-2.6-2.6-3.5-4.1c-1.4-2.3-2.7-4.7-3.7-7.1
			c-2.5-5.6-4.9-11.3-7.1-17c-1.6-4.2-0.2-9.5,3.9-12c1.1-0.7,2.4-1,3.6-1.6c3-1.5,5.9-3.2,9-4.7c0.5-0.2,1.7,0.4,2.1,1
			c1.9,2.5,3.6,5.2,5.3,7.8c0.6,0.9,1.1,1.3,1.9,0.1c0.4-0.5,1-1,1.5-1.3c0.7-0.5,0.7-0.9,0.1-1.4c-1-0.8-0.8-1.5,0.1-2.2
			c0.4-0.4,0.7-0.8,1.1-1.4c-0.1,0,0.1,0,0.2,0c0.7,0.1,0.9,1.9,2,0.5c0.5-0.7,1.3-1.3,1.4-2.1c0.2-2.1,1.8-2.8,3.2-3.8
			c5.4-4,10.6-8.2,15.9-12.3c0.7-0.5,1.3-1.2,2-1.8c0.8-0.8,1.7-1.4,1.7-2.8c0-1.5,2.8-3.7,4.6-4c2.3-0.4,4.5-1.1,6.7-1.2
			c3.2-0.3,6.5,0,9.8-0.4c2.6-0.3,5.2-1,7.7-1.8c2-0.7,3.8-2,5.7-3C1210.8,829.1,1210.8,829,1210.7,828.8z M1224.6,846.5
			c-0.2,0.3-0.5,0.8-0.9,1.2c-1.3,1.3-2.7,2.6-4,3.9c-1.4,1.3-2.7,2.8-4.2,4c-3.5,2.8-7.4,4.9-11.5,6.6c-1.3,0.6-1.5,1.2-1.2,2.4
			c1.1,4.5,3.1,8.3,6.6,11.4c2,1.8,4,3.3,6.5,4.1c1.6,0.6,4.8-0.3,6-1.7c0.2-0.3,0.5-0.7,0.5-1.1c-0.2-1.9-0.6-3.7-0.7-5.6
			c-0.1-1.7-0.4-3.7,0.1-5.2c1-2.6,3.1-4.6,5.8-5.6c1.7-0.6,1.5-1.6,1.2-2.7c-0.5-2.4-1.7-4.5-3.3-6.4c-0.7-0.9-1.6-1.7-2.4-2.6
			c0.5,0,1,0.2,1.2,0.5c0.8,1,1.5,2,2.3,3c1.8,2.1,2.7,4.5,2.8,7.2c0,0.2,0.4,0.6,0.7,0.7c1.3,0.4,2.6,0.8,3.8,1.2
			c0.4,0.1,0.6,0.5,1,0.8c-2.8-1.1-5.5-2.2-8.3-0.3c-2.4,1.6-4.3,3.6-4.2,6.7c0,2.1,0.3,4.1,0.5,6.2c0.1,1.1,0.3,2.2,0.6,3.3
			c1.3,4.4,2.9,8.7,4,13.1c0.7,2.8,0.7,5.8,1,8.7c0.1,1-0.5,2.1,0.9,3.1c2.2,1.5,4.6,1.8,7.1,1.7c2.3-0.1,4.7-0.2,6.5-1.7
			c3.5-2.9,6.8-6,8.6-10.3c0.6-1.6,0.6-2.8-0.4-4.1c-1.9-2.6-4-5.1-5.6-7.9c-1.9-3.2-3.3-6.7-4.9-10.1c-0.6-1.3-1.2-2.6-1.7-3.9
			c0,0,0.1,0,0.1,0c1.3,2,2.6,4,4.1,6.3c0.8-1.3,1.5-2.2,1.9-3.2c0.6-1.7,1-3.4,1.6-5.1c1.6-4.4,2-8.9,1.1-13.5
			c-0.9-4.7-1.8-9.4-4.4-13.6c-1.9-3.1-3.9-6.2-5.9-9.3c-0.3-0.4-0.4-0.9-0.6-1.3c-1.9,0.9-3.9,1.7-5.8,2.6
			c-0.1-0.2-0.2-0.3-0.2-0.5c3.5-0.9,6-3.1,8.3-5.7c2.4-2.6,3.6-5.7,4.3-9.1c0.8-4.1,0.4-8.9-0.9-9.9c-0.5,0.6-1,1.2-1.5,1.7
			c-1.8,1.8-4.2,2.7-6.6,1.8c-0.2-0.1-0.3-0.3-0.5-0.4c0.2-0.1,0.3-0.2,0.5-0.2c0.9-0.1,1.9,0.1,2.8-0.2c3.9-1.3,6.6-4.8,6.4-8.8
			c-0.2-3.5-1-6.9-4.5-8.9c-2.3-1.3-4.6-2.4-7.2-1.9c-2.1,0.3-4.1,1.1-4.8,3.4c-0.1,0.3-0.3,0.5-0.4,0.8c-0.5-1.6,0.4-2.8,1.3-4
			c-2.1-0.6-4-0.8-6.1-0.7c-6.6,0.5-12.3,2.7-16.3,8.1c-1.2,1.7-1.7,3.9-2.4,6c-0.1,0.2,0.3,0.8,0.5,0.8c2.1,0.3,2.8,1.3,2.7,3.4
			c0,0.3,0.1,0.9,0.3,0.9c2.4,0.8,4.8,1.5,7.3,2.2c0.8-3.9,2.4-4.3,5-4c1.4,0.1,2.1,1.1,2.3,2.9c0.2,2.1-1.3,4-3.7,4.7
			c1.4,3.4,1.4,6.7-0.8,9.7c-2.3,3.2-5.7,3.5-9.2,3.6c2.5,1.7,5.1,3.2,8,3.7c2.9,0.5,5.9,0.7,8.7,0.9c-1.9,0.6-9.2,0.5-11.5-0.8
			c-0.6-0.4-1-0.4-1.5,0.5c-0.9,1.7-2.1,3.3-3.1,4.9c-0.8,1.2-1.5,2.3-2.2,3.5c-0.3,0.6-0.4,1.3-0.6,2.2c3-1,5.5-2.5,7.7-4.3
			c1.8-1.4,3.8-2.5,6-3.1c3.1-0.8,6.2,0.3,7.8,2.7c0.3,0.4,0.3,1,0.5,1.4c-0.9-1.8-2.3-3.2-4.3-3.6c-3-0.6-5.7,0-8.2,1.9
			c-2.4,1.8-5,3.4-7.7,4.8c-1.6,0.8-3.5,1.1-5.3,1.4c-1.9,0.3-3.9,0.1-5.8,0.3c-1.8,0.2-3.7,0.3-5.3,0.9c-0.8,0.3-1.5,1.5-1.9,2.5
			c-0.2,0.3,0.5,1,0.7,1.5c0.1,0.2,0,0.6-0.1,0.8c-0.7,0.7-1.6,1.3-2.2,2.1c-1.9,2.3-2,5.1,0,7.3c1,1.1,2.3,1.9,3.5,2.6
			c2.6,1.6,5.4,2.4,8.5,2.2c3.3-0.3,6.2-1.6,9.1-3c4.9-2.3,8.8-5.8,12.8-9.4C1222.3,848.6,1223.5,847.5,1224.6,846.5z M1161.2,869.7
			c0.9-0.5,1.9-1,2.9-1.6c3.8-2,7.7-3.9,11.5-5.9c2.9-1.5,5.7-3.2,8.5-4.8c0.8-0.5,1.3-1,0.6-2c-0.2-0.3-0.2-0.7-0.2-1.1
			c0.3-2.5,1.2-4.6,3.1-6.3c0.2-0.2,0.3-0.6,0.3-0.7c-1.2-2.6,0.9-5.1,3.3-5.4c0.9-0.1,0.9-0.6,0.4-1c-1.4-1.3-2.7-2.7-4.2-3.8
			c-1-0.7-2.2-1-3.4-0.2c-2,1.6-3.9,3.2-5.9,4.7c-3.1,2.4-6.3,4.7-9.4,7c-3.4,2.6-6.7,5.2-10.1,7.7c-1.7,1.3-4.1,2-4.3,4.7
			c0,0.5,0.2,1.2,0.6,1.4c2.2,1.5,3.2,3.7,3.5,6.2c0,0.2,0.2,0.5,0.4,0.5C1159.5,869.4,1160.2,869.5,1161.2,869.7z M1206.4,874.8
			c-0.5,1.1-0.9,2.1-1.3,3.1c-0.7,1.9-1.7,3.6-3.5,4.7c-1.9,1.2-3.9,2.4-5.8,3.6c-1.4,0.9-1.7,2-0.9,3.3c1.4,2.3,2.7,4.7,4.4,6.7
			c1.5,1.8,3.4,3.6,6,3.9c2.4,0.3,4.8,0.4,7.2,0.6c1.2,0.1,2.2-0.3,3-1.3c1-1.3,2.2-2.5,2.9-3.9c1.9-3.9,3.7-7.9,5.4-11.8
			c0.6-1.3-0.4-2.5-1.7-2.3c-4.5,0.7-8.3-0.9-11.9-3.3C1208.9,877.1,1207.7,875.9,1206.4,874.8z M1146.1,888.4
			c-0.3-0.6-0.5-1.3-0.9-1.9c-2.9-5.6-5.9-11.1-8.8-16.7c-2.1-4.1-5.8-5.6-10.1-3.6c-3.3,1.5-5.4,6.1-4.2,9.4
			c2,5.4,4.1,10.8,6.3,16.2c0.7,1.7,1.7,3.2,2.8,5.3C1132.9,887.9,1138.9,887,1146.1,888.4z M1197.8,815.3c0.4,1.5,0.6,3.3,1.5,4.6
			c2,3,5,4.7,8.7,4.8c4.4,0.1,7.6-0.7,9.4-5.6c1.2-3.3-0.4-7.9-3.7-9.4c-2.8-1.3-5.8-2.5-9.1-2.1c-2.4,0.3-4.5,0.9-5.5,3.3
			C1198.6,812.3,1198.3,813.7,1197.8,815.3z M1134.2,865c0.8,1.2,1.8,2.3,2.5,3.6c1,1.9,1.9,3.8,2.9,5.8c0.8,1.6,1.6,3.3,2.5,4.9
			c1,1.8,2,3.6,3,5.4c1.2,2.1,2.4,4.2,3.8,6.2c0.2,0.3,1,0.4,1.3,0.2c1-0.5,1.9-1.1,2.8-1.8c0.3-0.2,0.4-0.8,0.3-1.1
			c-0.4-1.1-0.9-2.1-1.5-3.1c-2.8-4.5-5.5-9-8.3-13.5c-1.5-2.4-3-4.8-4.7-7.2c-0.3-0.5-1.2-1-1.6-0.8
			C1136.1,863.8,1135.1,864.5,1134.2,865z M1142.2,888.4c-1,0.1-2,0.2-3,0.3c-2.6,0.4-4.5,1.8-5.7,4.1c-1.9,3.8-1.7,7.5,1.3,10.6
			c1.2,1.2,2.7,2.5,4.2,3c3.9,1.1,7.6,0.2,10.2-3.1c1.6-2,2.2-4.4,1.4-6.9c-0.1-0.2-0.4-0.5-0.6-0.5c-1.4,0.1-2.1,1.3-2,2.7
			c0,0.8-0.4,1.7-0.8,2.4c-0.3,0.5-1,0.8-1.5,1.3c-2.2,1.9-5.8,1.9-8,0c-1.5-1.3-2.5-4.4-2-5.9c0.9-2.3,2.3-4,4.8-4.6
			c1.8-0.4,3.6-0.7,5.1,0.7c1,0.9,2,0.9,2.8-0.1c0.1-0.2,0.1-0.6,0-0.8C1146.8,889.8,1145,888.2,1142.2,888.4z M1209.9,831
			c-0.1-0.1-0.2-0.2-0.3-0.3c-0.2,0.1-0.3,0.1-0.5,0.2c-2.8,1.9-5.9,3.3-9.2,3.8c-3.3,0.4-6.7,0.4-10.1,0.5c-0.8,0-1.7,0.2-2.5,0.3
			c0.2,0.5,0.5,0.6,0.7,0.8c1.1,0.9,2.3,1.8,3.3,2.9c1.2,1.4,2.1,2.9,4.4,2.4c2.3-0.4,4.6-0.3,6.9-0.4c0.4,0,0.9-0.5,1.1-0.9
			c1.3-2,2.5-4.1,3.8-6.1C1208.3,833.1,1209.1,832.1,1209.9,831z M1146.3,874.7c2.5,4.1,4.9,8.2,7.3,12.3c0.2-0.1,0.3-0.3,0.5-0.4
			c0.7,1.2,0.4,2.3-0.6,3c-2.2,1.4-4.4,3-6.6,4.4c-1.4,0.9-2.8,1.6-4.2,2.4c-0.2,0.1-0.5-0.1-0.7-0.2c-0.3,0-0.8-0.2-0.9,0
			c-0.7,0.9,0.1,1.6,0.6,2.2c0.3,0.3,1.2,0.5,1.5,0.3c4.1-2.5,8.1-5.1,12.1-7.7c1.9-1.3,2.1-2.2,0.9-4.2c-2.2-3.7-4.4-7.5-6.6-11.2
			C1148.5,873.8,1148.3,873.7,1146.3,874.7z M1214.1,787.8c-2-1.3-4.2-1.4-6.2-1.1c-2.9,0.5-4.9,2.5-5.8,5.4c-0.6,1.9-0.2,3.8,1,5.8
			C1205.2,792.6,1209.7,790.4,1214.1,787.8z M1145.9,893.8c-1.1-1.8-4.5-2.5-6.2-1.3c-2.8,2-3.9,3.7-2.7,7.2c0.5,1.5,1.5,2.6,3,3
			c2.1,0.6,5.8-0.8,6.9-2.7c0.4-0.7,0.3-1.7,0.4-2.6c-0.2-0.1-0.5-0.2-0.7-0.2c-0.5,0.8-1,1.6-1.5,2.4c-1,1.4-3.5,1.8-5.3,0.8
			c-1.4-0.8-2-3-1.2-4.6c1-2.1,3.7-3.1,5.2-1.8C1144.7,894.9,1145.2,894.5,1145.9,893.8z M1152.4,864.8c-0.4-0.3-0.8-0.7-1.2-0.9
			c-0.3-0.2-0.8-0.2-1.2-0.2c0,0.4-0.3,1-0.1,1.2c1.6,2.3,3.5,4.4,4,7.2c0.1,0.3,0.6,0.8,0.8,0.8c0.6-0.1,1.2-0.4,0.8-1.3
			c-0.2-0.4-0.4-0.9-0.6-1.3c-0.5-1-0.9-1.9-1.4-2.9c0.1-0.1,0.2-0.1,0.4-0.2c0.7,1.1,1.4,2.2,2.2,3.6c0.5-0.5,1.4-1,1.4-1.5
			c-0.1-2.4-0.8-4.7-3.1-6c-0.4-0.2-1.1-0.5-1.3-0.3C1152.5,863.3,1151.6,863.7,1152.4,864.8z M1130.4,864.2c2.2,1.1,3.8,0,5.4-0.8
			c2.2-1.2,2.3-1.3,3.9,0.7c0.2,0.2,0.3,0.5,0.5,0.8c1.5,2.3,3,4.5,4.7,7.1c0.2-1,0.7-2,0.5-2.4c-1.8-3-3.7-5.8-5.7-8.6
			c-0.3-0.4-1.5-0.7-2.1-0.4c-1.7,0.7-3.3,1.7-4.9,2.5C1131.9,863.4,1131.2,863.8,1130.4,864.2z M1252.8,867.3
			c-0.1-0.6-0.1-1.4-0.5-1.9c-0.5-0.6-1.3-1.3-2.1-1.5c-0.5-0.1-1.5,0.5-1.7,1c-0.5,1.4-0.8,2.9-0.8,4.4c0,1.5,1,2,2.5,1.6
			C1251.3,870.6,1252.7,868.6,1252.8,867.3z M1146.9,873.4c0.5-0.3,1.3-0.7,2.1-1.1c3.4-1.7,3.3-1,1.6-4.5c-0.1-0.1-0.1-0.3-0.2-0.3
			c-0.2-0.1-0.6-0.2-0.7-0.1c-1.4,1.4-2.9,2.8-4.1,4.4C1145.1,872.5,1145.7,873.4,1146.9,873.4z M1143.9,895.4
			c-0.9-1.3-2.2-1.5-3.3-0.8c-1,0.6-1.7,2.8-1.1,3.8c0.5,0.9,1.1,1.8,2.2,1.6c-0.6-0.9-1.3-1.7-1.5-2.7c-0.1-0.5,0.4-1.3,0.8-1.9
			c0.1-0.2,0.7-0.1,1.1-0.1C1142.5,895.4,1143.1,895.4,1143.9,895.4z M1182.2,836.9c-2.1-0.5-4.1,1.1-4.3,3
			C1179.3,838.9,1180.7,837.9,1182.2,836.9z M1220,880.7c0.1,0.1,0.1,0.3,0.2,0.4c1-0.2,2-0.5,2.9-0.7c-0.2-0.6-0.4-1.2-0.7-1.9
			C1221.5,879.3,1220.7,880,1220,880.7z M1219,809.1c0.5-0.7,1-1.1,1-1.5c0-0.3-0.6-1-0.9-0.9c-0.4,0.1-1,0.5-1.1,0.9
			C1217.8,807.9,1218.4,808.4,1219,809.1z M1205,806c0.3-0.5,0.6-0.8,0.6-1c0-0.2-0.4-0.7-0.5-0.6c-0.3,0.1-0.7,0.4-0.8,0.6
			C1204.2,805.2,1204.6,805.6,1205,806z"/>
		<path d="M1231.4,798.3c-0.6-1.1-1.1-2.1-1.7-3.1c0.1-0.1,0.2-0.1,0.2-0.2c0.4,0.5,0.9,1,1.2,1.4c0.8-0.7,1.5-1.6,2.4-2.1
			c1.6-0.9,3.1-0.1,4.2,0.9c0.7,0.6,1.1,2,1,3c-0.2,2.4-1.7,3.4-4,3.2c-0.7,0-1.3,0.1-0.9,1.1c0.2,0.5,0.2,1,0.2,1.5
			c-0.4-0.8-0.8-1.5-1.1-2.3c-0.1-0.3,0.3-0.9,0.5-1c0.6-0.2,1.2-0.2,1.9-0.3c1.3,0,1.9-0.9,2.3-1.8c0.4-1,0.2-2.1-0.8-2.8
			c-0.9-0.6-1.9-1.3-2.9-0.4c-0.6,0.5-1.1,1.1-1.6,1.6C1231.9,797.5,1231.7,797.9,1231.4,798.3z"/>
		<path d="M1199.8,816.4c0.1,0.3,0.1,0.6,0.3,0.9c0.3,0.5,0.5,1.1,1,1.5c0.2,0.2,1,0,1.2-0.3c0.6-0.8,0.2-3.5-0.4-4.3
			c-0.5-0.7-0.8-1.5-1.3-2.3c0.8-0.2,1.8-0.7,2.5-0.5c1.5,0.3,2.9,0.9,4.3,1.6c0.8,0.4,0.5,1.6-0.3,1.8c-0.6,0.2-1.2,0.3-1.7,0.5
			c-0.7,0.3-1.9-0.3-2,1.1c-0.1,1.9,0.4,3,1.8,3.7c2.3,1.2,4.5,1.1,6.5-0.6c0.1-0.1,0.4-0.1,0.6-0.1c0,0.3,0,0.7-0.1,0.8
			c-1.2,0.6-2.4,1.4-3.6,1.8c-0.8,0.2-1.9-0.1-2.8-0.4c-1.4-0.4-2.4-1.7-4.1-1.5c-1.1,0.2-2.3-1.5-2.3-2.7c0-0.4,0.2-0.7,0.3-1.1
			C1199.6,816.3,1199.7,816.4,1199.8,816.4z M1206.6,813.7c-1.3-1.3-4-2.1-5.4-1.5C1202.4,814.7,1204.5,815.3,1206.6,813.7z"/>
	</g>
</g>
</svg>
