<?xml version="1.0" encoding="utf-8"?>
<!-- Generator: Adobe Illustrator 16.0.0, SVG Export Plug-In . SVG Version: 6.00 Build 0)  -->
<!DOCTYPE svg PUBLIC "-//W3C//DTD SVG 1.1//EN" "http://www.w3.org/Graphics/SVG/1.1/DTD/svg11.dtd">
<svg version="1.1" id="Layer_1" xmlns="http://www.w3.org/2000/svg" xmlns:xlink="http://www.w3.org/1999/xlink" x="0px" y="0px"
	 width="132.375px" height="122.325px" viewBox="0 0 132.375 122.325" enable-background="new 0 0 132.375 122.325"
	 xml:space="preserve">
<path fill="#FFFFFF" d="M40.271,84.398c-0.978-0.206-1.714-0.335-2.432-0.532c-0.156-0.043-0.33-0.318-0.353-0.506
	c-0.312-2.545-1.269-4.693-3.475-6.201c-0.369-0.252-0.647-0.961-0.609-1.43c0.214-2.66,2.586-3.35,4.333-4.65
	c3.399-2.531,6.712-5.181,10.089-7.744c3.112-2.363,6.283-4.65,9.384-7.027c1.99-1.525,3.884-3.175,5.856-4.726
	c1.125-0.885,2.402-0.555,3.354,0.155c1.518,1.132,2.873,2.493,4.23,3.825c0.473,0.464,0.443,0.907-0.436,1.042
	c-2.346,0.359-4.519,2.834-3.271,5.417c0.079,0.163-0.094,0.559-0.265,0.716c-1.856,1.709-2.773,3.869-3.065,6.324
	c-0.043,0.364-0.015,0.835,0.185,1.11c0.705,0.984,0.189,1.537-0.612,1.996c-2.831,1.612-5.638,3.271-8.517,4.795
	c-3.804,2.014-7.671,3.908-11.503,5.867C42.134,83.355,41.13,83.93,40.271,84.398z"/>
<path fill="#FFFFFF" d="M25.196,103.062c-7.271-1.364-13.206-0.487-14.846,8.716c-1.094-2.055-2.102-3.613-2.79-5.304
	c-2.182-5.363-4.348-10.737-6.314-16.183c-1.19-3.295,0.94-7.856,4.2-9.398c4.264-2.018,8.036-0.463,10.106,3.594
	c2.862,5.605,5.858,11.143,8.788,16.715C24.659,101.808,24.915,102.448,25.196,103.062z"/>
<path fill="#FFFFFF" d="M76.912,30.013c0.477-1.649,0.764-3.017,1.266-4.3c0.967-2.463,3.125-3.061,5.49-3.333
	c3.295-0.379,6.267,0.793,9.111,2.093c3.264,1.491,4.898,6.046,3.663,9.382c-1.812,4.887-4.964,5.64-9.399,5.558
	c-3.68-0.069-6.664-1.794-8.668-4.794C77.488,33.291,77.347,31.465,76.912,30.013z M78.896,31.055
	c-0.107-0.007-0.219-0.014-0.326-0.021c-0.1,0.355-0.293,0.714-0.281,1.066c0.043,1.238,1.178,2.861,2.316,2.698
	c1.773-0.254,2.736,1.093,4.139,1.461c0.9,0.237,1.924,0.605,2.754,0.386c1.281-0.339,2.455-1.11,3.644-1.756
	c0.14-0.076,0.081-0.516,0.116-0.788c-0.188,0.035-0.432,0.005-0.557,0.113c-2.043,1.751-4.215,1.773-6.541,0.603
	c-1.352-0.68-1.873-1.744-1.754-3.67c0.088-1.418,1.26-0.858,1.955-1.146c0.551-0.228,1.152-0.323,1.719-0.519
	c0.832-0.288,1.098-1.485,0.344-1.849c-1.383-0.667-2.836-1.277-4.326-1.598c-0.766-0.165-1.678,0.344-2.523,0.548
	c0.412,0.77,0.73,1.608,1.256,2.291c0.6,0.779,1.055,3.48,0.445,4.303c-0.189,0.258-0.986,0.43-1.164,0.268
	c-0.428-0.391-0.675-0.992-0.953-1.53C79.021,31.653,78.98,31.343,78.896,31.055z"/>
<path fill="#FFFFFF" d="M21.312,103.12c2.72-0.262,4.503,1.342,6.203,3.082c0.136,0.139,0.157,0.6,0.034,0.752
	c-0.866,1.074-1.82,1.08-2.841,0.146c-1.524-1.397-3.352-1.095-5.105-0.714c-2.477,0.537-3.923,2.281-4.795,4.556
	c-0.579,1.511,0.469,4.638,1.952,5.942c2.178,1.916,5.766,1.904,7.988-0.016c0.498-0.431,1.18-0.732,1.502-1.262
	c0.431-0.707,0.835-1.583,0.817-2.376c-0.032-1.378,0.651-2.526,2.02-2.655c0.198-0.02,0.56,0.301,0.628,0.529
	c0.762,2.549,0.166,4.939-1.416,6.917c-2.637,3.293-6.278,4.228-10.21,3.087c-1.577-0.458-3.069-1.729-4.237-2.971
	c-2.964-3.15-3.194-6.801-1.271-10.604c1.183-2.34,3.086-3.756,5.707-4.119C19.29,103.276,20.304,103.215,21.312,103.12z"/>
<path fill="#FFFFFF" d="M25.405,89.411c2.002-1.021,2.159-0.943,3.198,0.857c2.167,3.751,4.389,7.469,6.562,11.216
	c1.173,2.022,1.02,2.945-0.924,4.226c-3.994,2.631-8.035,5.19-12.104,7.705c-0.322,0.199-1.202-0.012-1.473-0.328
	c-0.493-0.578-1.284-1.269-0.581-2.18c0.112-0.146,0.622-0.005,0.943,0.038c0.247,0.033,0.558,0.25,0.72,0.163
	c1.414-0.77,2.832-1.538,4.188-2.402c2.231-1.422,4.405-2.936,6.626-4.373c1.078-0.699,1.359-1.754,0.635-2.998
	c-0.168,0.133-0.326,0.258-0.498,0.396C30.276,97.638,27.855,93.547,25.405,89.411z"/>
<path fill="#FFFFFF" d="M24.983,108.543c-0.689,0.666-1.173,1.008-2.095,0.176c-1.453-1.311-4.119-0.312-5.158,1.759
	c-0.793,1.58-0.212,3.794,1.207,4.603c1.803,1.026,4.321,0.682,5.291-0.75c0.54-0.799,1.03-1.629,1.543-2.443
	c0.231,0.082,0.463,0.164,0.694,0.246c-0.107,0.889,0.043,1.929-0.373,2.635c-1.137,1.93-4.792,3.312-6.909,2.708
	c-1.517-0.433-2.541-1.528-3.047-3.021c-1.204-3.549-0.132-5.188,2.678-7.205C20.461,106.066,23.884,106.743,24.983,108.543z"/>
<path fill="#FFFFFF" d="M31.437,79.465c-0.803-1.041,0.135-1.5,0.729-1.861c0.28-0.17,0.94,0.115,1.343,0.346
	c2.317,1.316,2.99,3.569,3.097,5.995c0.021,0.47-0.887,0.978-1.399,1.503c-0.824-1.322-1.521-2.441-2.217-3.561
	c-0.125,0.066-0.25,0.136-0.375,0.203c0.462,0.951,0.929,1.898,1.384,2.854c0.206,0.432,0.367,0.885,0.583,1.311
	c0.435,0.856-0.141,1.195-0.779,1.289c-0.232,0.033-0.736-0.469-0.799-0.787c-0.561-2.854-2.478-4.922-4.03-7.211
	c-0.185-0.271,0.034-0.817,0.066-1.236c0.394,0.064,0.833,0.041,1.17,0.216C30.661,78.756,31.032,79.144,31.437,79.465z"/>
<path fill="#FFFFFF" d="M9.49,78.902c0.821-0.454,1.46-0.821,2.109-1.167c1.634-0.867,3.23-1.831,4.936-2.527
	c0.567-0.23,1.768-0.02,2.084,0.42c2.021,2.799,3.934,5.685,5.728,8.637c0.277,0.455-0.241,1.396-0.453,2.406
	c-1.727-2.627-3.21-4.885-4.692-7.143c-0.164-0.251-0.294-0.525-0.476-0.761c-1.539-1.981-1.678-1.892-3.881-0.711
	C13.297,78.885,11.66,80.034,9.49,78.902z"/>
<path fill="#FFFFFF" d="M25.975,88.103c-1.186,0.026-1.829-0.879-1.249-1.614c1.24-1.572,2.703-2.972,4.106-4.41
	c0.088-0.092,0.457,0.059,0.676,0.144c0.084,0.032,0.119,0.198,0.172,0.305c1.761,3.541,1.862,2.843-1.576,4.521
	C27.307,87.436,26.514,87.834,25.975,88.103z"/>
<path fill="#FFFFFF" d="M22.963,110.145c-0.814-0.036-1.366-0.077-1.917-0.08c-0.382-0.002-0.979-0.091-1.106,0.104
	c-0.375,0.572-0.901,1.359-0.754,1.894c0.262,0.944,0.976,1.767,1.531,2.688c-1.141,0.219-1.709-0.709-2.21-1.566
	c-0.57-0.977,0.141-3.188,1.112-3.795C20.777,108.665,22.031,108.823,22.963,110.145z"/>
<g>
	<path fill="#EECD91" d="M103.636,61.183c-1.061,0.985-2.256,2.106-3.467,3.211c-3.932,3.582-7.867,7.162-12.762,9.431
		c-2.916,1.352-5.845,2.689-9.107,2.977c-3.094,0.273-5.939-0.524-8.541-2.152c-1.239-0.775-2.535-1.574-3.513-2.632
		c-1.991-2.151-1.93-4.981,0.001-7.287c0.641-0.767,1.489-1.356,2.193-2.076c0.155-0.157,0.208-0.563,0.122-0.784
		c-0.213-0.546-0.896-1.234-0.742-1.539c0.471-0.938,1.09-2.175,1.938-2.47c1.678-0.584,3.541-0.691,5.34-0.852
		c1.93-0.172,3.895-0.028,5.805-0.302c1.801-0.257,3.695-0.59,5.285-1.404c2.693-1.381,5.296-3.012,7.721-4.826
		c2.518-1.882,5.227-2.534,8.178-1.898c1.941,0.418,3.342,1.775,4.291,3.619c-0.164-0.486-0.234-1.036-0.512-1.446
		c-1.613-2.39-4.752-3.468-7.818-2.716c-2.242,0.549-4.178,1.655-6,3.076c-2.25,1.755-4.691,3.229-7.725,4.26
		c0.245-0.927,0.303-1.654,0.62-2.24c0.661-1.222,1.452-2.374,2.204-3.546c1.047-1.632,2.202-3.205,3.122-4.905
		c0.448-0.83,0.849-0.861,1.495-0.47c2.219,1.341,9.518,1.407,11.461,0.836c-2.803-0.284-5.801-0.404-8.723-0.935
		c-2.924-0.53-5.529-1.974-7.992-3.716c3.543-0.142,6.939-0.451,9.199-3.617c2.201-3.079,2.229-6.357,0.781-9.735
		c2.389-0.675,3.864-2.571,3.678-4.664c-0.158-1.768-0.924-2.735-2.287-2.879c-2.566-0.273-4.232,0.18-5,4.031
		c-2.432-0.734-4.854-1.445-7.256-2.229c-0.197-0.063-0.346-0.627-0.328-0.948c0.115-2.128-0.65-3.067-2.729-3.383
		c-0.204-0.031-0.545-0.605-0.474-0.798c0.746-2.019,1.189-4.292,2.434-5.96c4.014-5.383,9.738-7.546,16.303-8.06
		c2.119-0.166,4.072,0.017,6.131,0.664c-0.9,1.202-1.766,2.371-1.262,4.018c0.139-0.266,0.326-0.517,0.412-0.799
		c0.729-2.386,2.744-3.108,4.829-3.44c2.619-0.416,4.929,0.653,7.187,1.945c3.504,2.005,4.336,5.39,4.49,8.896
		c0.18,4.059-2.525,7.529-6.416,8.834c-0.855,0.287-1.855,0.144-2.787,0.219c-0.178,0.014-0.348,0.121-0.521,0.186
		c0.151,0.146,0.276,0.354,0.457,0.431c2.302,0.968,4.774,0.044,6.552-1.75c0.543-0.546,1.025-1.15,1.535-1.725
		c1.285,0.993,1.746,5.79,0.92,9.879c-0.682,3.361-1.916,6.438-4.271,9.058c-2.315,2.578-4.812,4.802-8.287,5.699
		c0.08,0.159,0.158,0.318,0.238,0.478c1.957-0.882,3.916-1.764,5.832-2.628c0.178,0.401,0.334,0.903,0.604,1.333
		c1.951,3.1,3.977,6.155,5.881,9.283c2.535,4.166,3.471,8.866,4.369,13.575c0.882,4.61,0.459,9.087-1.143,13.487
		c-0.611,1.68-0.992,3.445-1.643,5.106c-0.4,1.022-1.109,1.923-1.87,3.195c-1.491-2.306-2.79-4.31-4.088-6.312
		c-0.024,0.004-0.052,0.01-0.075,0.014c0.574,1.31,1.121,2.632,1.73,3.924c1.604,3.398,3.045,6.896,4.914,10.146
		c1.604,2.783,3.695,5.289,5.601,7.896c0.958,1.312,0.993,2.534,0.356,4.09c-1.785,4.366-5.073,7.435-8.553,10.328
		c-1.826,1.519-4.22,1.672-6.492,1.728c-2.48,0.06-4.867-0.231-7.08-1.75c-1.375-0.943-0.774-2.025-0.901-3.074
		c-0.351-2.898-0.333-5.881-1.022-8.692c-1.086-4.431-2.654-8.739-3.963-13.118c-0.314-1.053-0.48-2.164-0.599-3.261
		c-0.22-2.05-0.47-4.104-0.493-6.162c-0.035-3.104,1.875-5.127,4.242-6.744c2.794-1.907,5.502-0.862,8.32,0.279
		c-0.314-0.283-0.586-0.693-0.955-0.825c-1.256-0.447-2.557-0.771-3.821-1.204c-0.271-0.093-0.644-0.427-0.655-0.666
		c-0.14-2.722-1.064-5.104-2.847-7.179c-0.825-0.959-1.519-2.031-2.334-2.999c-0.272-0.324-0.739-0.485-1.241-0.517
		c0.797,0.849,1.635,1.662,2.381,2.553c1.569,1.871,2.771,3.957,3.264,6.381c0.234,1.16,0.479,2.107-1.244,2.736
		c-2.637,0.961-4.773,2.965-5.775,5.582c-0.586,1.535-0.259,3.467-0.148,5.209c0.119,1.875,0.496,3.731,0.684,5.604
		c0.035,0.349-0.219,0.792-0.461,1.093c-1.133,1.395-4.324,2.293-5.967,1.729c-2.498-0.854-4.555-2.343-6.508-4.115
		c-3.436-3.118-5.504-6.935-6.557-11.394c-0.289-1.226-0.117-1.857,1.217-2.428c4.082-1.748,8.026-3.812,11.508-6.611
		c1.494-1.202,2.812-2.625,4.197-3.961c1.348-1.305,2.694-2.611,4.008-3.95C103.119,62.01,103.416,61.486,103.636,61.183z
		 M110.419,13.025c0.338-0.475,0.564-0.854,0.852-1.179c0.501-0.568,0.988-1.167,1.572-1.639c1.074-0.867,2.021-0.203,2.938,0.393
		c1.069,0.697,1.207,1.789,0.846,2.818c-0.344,0.981-1.01,1.833-2.281,1.845c-0.625,0.006-1.284,0.041-1.854,0.257
		c-0.281,0.107-0.623,0.73-0.539,0.993c0.254,0.797,0.701,1.532,1.073,2.291c0.077-0.533,0.011-1.04-0.157-1.509
		c-0.343-0.948,0.176-1.125,0.924-1.075c2.316,0.153,3.766-0.855,3.99-3.223c0.092-0.984-0.289-2.362-0.979-2.991
		c-1.084-0.993-2.616-1.82-4.188-0.917c-0.902,0.519-1.598,1.397-2.393,2.12c-0.352-0.407-0.795-0.923-1.238-1.439
		c-0.078,0.057-0.154,0.115-0.232,0.172C109.281,10.919,109.809,11.896,110.419,13.025z"/>
	<path fill="#EECD91" d="M85.439,89.525c1.344,1.106,2.536,2.259,3.891,3.173c3.596,2.426,7.463,3.975,11.944,3.297
		c1.339-0.203,2.306,1.078,1.743,2.338c-1.766,3.959-3.51,7.933-5.441,11.81c-0.722,1.446-1.928,2.653-2.938,3.95
		c-0.754,0.968-1.799,1.38-2.994,1.3c-2.417-0.162-4.836-0.323-7.242-0.586c-2.641-0.288-4.473-2.085-6.02-3.933
		c-1.705-2.037-3.021-4.412-4.391-6.711c-0.824-1.381-0.467-2.457,0.91-3.332c1.915-1.218,3.868-2.373,5.783-3.59
		c1.738-1.105,2.785-2.738,3.465-4.656C84.503,91.583,84.972,90.622,85.439,89.525z"/>
	<path fill="#EECD91" d="M89.011,45.715c-0.803,1.044-1.678,2.041-2.391,3.143c-1.304,2.014-2.486,4.104-3.775,6.126
		c-0.246,0.386-0.736,0.827-1.146,0.861c-2.312,0.193-4.672,0.048-6.939,0.448c-2.328,0.41-3.207-1.035-4.395-2.445
		c-0.924-1.095-2.152-1.934-3.257-2.872c-0.209-0.178-0.476-0.288-0.685-0.768c0.831-0.094,1.659-0.229,2.491-0.273
		c3.367-0.18,6.758-0.14,10.096-0.548c3.355-0.41,6.43-1.805,9.22-3.754c0.138-0.095,0.312-0.136,0.468-0.202
		C88.8,45.526,88.908,45.621,89.011,45.715z"/>
	<path fill="#EECD91" d="M93.167,2.502C88.75,5.12,84.232,7.288,82.197,12.576c-1.166-2.036-1.605-3.894-1.011-5.816
		c0.888-2.86,2.886-4.868,5.81-5.353C88.979,1.078,91.166,1.233,93.167,2.502z"/>
	<path fill="#EECD91" d="M131.878,81.969c-0.104,1.351-1.469,3.351-2.58,3.664c-1.498,0.422-2.488-0.088-2.48-1.609
		c0.008-1.482,0.334-3.005,0.79-4.424c0.155-0.486,1.216-1.087,1.703-0.971c0.784,0.186,1.565,0.818,2.104,1.466
		C131.785,80.542,131.74,81.333,131.878,81.969z"/>
	<path fill="#EECD91" d="M61.302,51.554c-1.573,1.085-2.899,2.001-4.281,2.954C57.185,52.654,59.24,51.066,61.302,51.554z"/>
	<path fill="#EECD91" d="M99.05,95.388c0.761-0.683,1.521-1.362,2.432-2.181c0.229,0.646,0.445,1.26,0.664,1.871
		c-0.98,0.229-1.963,0.459-2.943,0.688C99.152,95.64,99.102,95.514,99.05,95.388z"/>
</g>
<path fill="#FFFFFF" d="M98.039,23.774c-0.533-0.701-1.129-1.161-1.062-1.479c0.085-0.396,0.685-0.843,1.129-0.935
	c0.243-0.05,0.872,0.577,0.886,0.917C99.007,22.658,98.524,23.059,98.039,23.774z"/>
<path fill="#FFFFFF" d="M84.056,20.745c-0.367-0.492-0.762-0.821-0.702-0.985c0.103-0.281,0.463-0.523,0.771-0.642
	c0.09-0.035,0.508,0.396,0.514,0.618C84.643,19.992,84.357,20.255,84.056,20.745z"/>
<g>
	<path d="M89.814,43.489c-0.354-0.199-0.732-0.365-1.059-0.604c-1.068-0.785-2.059-1.696-3.19-2.371
		c-1.19-0.709-2.544-1.141-3.769-1.8c-3.188-1.714-5.418-4.38-5.271-8.423c0.122-3.333,1.025-6.011,3.747-7.999
		c0.134-0.098,0.162-0.461,0.112-0.671c-0.307-1.29-0.479-2.533,0.537-3.639c0.172-0.186,0.121-0.564,0.199-0.846
		c0.666-2.386-0.168-4.528-0.797-6.805c-0.797-2.892,0.061-5.445,2.52-7.565c2.334-2.011,4.807-3.223,7.814-2.606
		c1.201,0.246,2.23,1.309,3.354,1.974c0.238,0.141,0.562,0.266,0.82,0.227c2.656-0.397,5.293-0.96,7.961-1.196
		c1.322-0.117,2.691,0.394,4.049,0.542c0.929,0.101,1.914,0.255,2.799,0.052c2.604-0.596,5.016-0.277,7.225,1.2
		c1.393,0.931,2.799,1.879,4.028,3.006c1.419,1.3,1.837,3.142,2.155,4.989c0.42,2.439,0.291,4.781-0.602,7.144
		c-0.248,0.656,0.508,1.642,0.641,2.502c0.223,1.435,0.516,2.905,0.414,4.334c-0.168,2.367-0.465,4.75-1,7.059
		c-0.694,3.006-2.379,5.515-4.555,7.709c-1.757,1.769-1.785,2.086-0.365,4.21c1.898,2.844,4.021,5.551,5.764,8.486
		c1.543,2.6,2.871,5.316,3.597,8.35c0.942,3.935,1.511,7.863,1.337,11.895c-0.076,1.781-0.248,3.559-0.389,5.48
		c1.714-0.672,3.102-0.101,3.791,1.187c0.857,1.599,0.97,3.483,0.043,5.166c-0.484,0.881-1.148,1.829-1.982,2.315
		c-1.539,0.896-2.935,0.19-4.099-1.061c-0.927,1.207-2.077,2.275-2.627,3.598c-0.289,0.694,0.364,1.879,0.784,2.752
		c0.615,1.279,1.342,2.52,2.129,3.703c1.939,2.908,4.041,5.717,5.846,8.705c0.45,0.744,0.305,2.135-0.062,3.026
		c-0.764,1.864-1.672,3.728-2.854,5.351c-2.152,2.957-4.254,6.235-8.104,7.104c-2.944,0.662-6.039,0.96-9.057,0.896
		c-2.314-0.05-4.205-1.593-5.67-3.428c-0.172-0.215-0.111-0.686-0.041-1.01c0.572-2.67,0.609-5.314-0.086-7.98
		c-0.625-2.396-1.134-4.82-1.71-7.228c-0.063-0.271-0.233-0.517-0.476-1.032c-0.86,1.889-1.504,3.596-2.385,5.171
		c-1.896,3.392-3.955,6.688-5.859,10.074c-0.895,1.591-2.277,1.926-3.816,1.649c-3.197-0.574-6.453-1.045-9.513-2.072
		c-1.632-0.547-3.086-2.004-4.292-3.346c-1.441-1.604-2.57-3.498-3.762-5.314c-0.619-0.945-1.307-1.95-1.522-3.018
		c-0.136-0.666,0.341-1.776,0.908-2.207c1.896-1.439,3.87-2.82,5.97-3.93c2.575-1.357,3.868-3.549,4.752-6.133
		c0.028-0.084,0.002-0.202,0.053-0.262c1.24-1.479,0.291-2.403-0.676-3.563c-2.061-2.47-3.512-5.257-3.504-8.62
		c0.002-0.229-0.55-0.604-0.893-0.673c-2.799-0.562-5.732-0.728-8.375-1.696c-1.944-0.711-4.169-1.416-5.501-3.363
		c-0.119-0.174-0.688-0.229-0.926-0.104c-2.62,1.373-5.193,2.834-7.822,4.186c-2.938,1.515-5.927,2.93-8.883,4.408
		c-2.189,1.097-4.349,2.254-6.553,3.319c-0.5,0.242-1.181,0.423-1.686,0.286c-1.312-0.354-2.467-0.279-3.492,0.654
		c-0.184,0.168-0.439,0.441-0.411,0.627c0.212,1.382-0.768,1.861-1.746,2.085c-0.994,0.226-1.793-0.306-2.15-1.335
		c-0.029-0.083-0.113-0.229-0.128-0.223c-0.851,0.305-1.729,0.562-2.526,0.977c-0.253,0.132-0.515,0.807-0.395,1.018
		c2.062,3.608,4.214,7.168,6.274,10.778c0.701,1.229,1.283,2.541,1.771,3.87c0.708,1.926-1.079,2.523-2.096,3.419
		c-1.087,0.957-2.401,1.649-3.551,2.543c-0.262,0.204-0.424,0.79-0.348,1.138c0.776,3.51-0.186,6.57-2.672,9.008
		c-0.986,0.967-2.529,1.41-3.872,1.961c-3.15,1.289-6.314,1.1-9.069-0.834c-1.437-1.008-2.566-2.604-3.508-4.135
		c-1.404-2.281-2.655-4.681-3.729-7.135c-2.469-5.641-4.917-11.296-7.132-17.039c-1.619-4.197-0.201-9.479,3.888-11.975
		c1.097-0.67,2.417-0.965,3.568-1.559c2.991-1.545,5.91-3.238,8.953-4.668c0.474-0.224,1.717,0.424,2.146,1.006
		c1.856,2.521,3.552,5.158,5.283,7.771c0.613,0.924,1.142,1.269,1.933,0.132c0.38-0.546,0.984-0.96,1.548-1.346
		c0.696-0.475,0.678-0.909,0.067-1.393c-0.975-0.771-0.772-1.464,0.058-2.209c0.395-0.354,0.674-0.834,1.084-1.357
		c-0.057-0.004,0.063-0.008,0.176,0.018c0.671,0.148,0.925,1.885,1.979,0.536c0.517-0.661,1.32-1.347,1.378-2.069
		c0.17-2.127,1.765-2.765,3.173-3.82c5.36-4.02,10.614-8.18,15.895-12.306c0.704-0.55,1.329-1.203,1.986-1.813
		c0.836-0.776,1.698-1.425,1.652-2.846c-0.048-1.489,2.778-3.671,4.635-3.983c2.252-0.378,4.471-1.051,6.736-1.244
		c3.24-0.277,6.529-0.031,9.754-0.394c2.604-0.293,5.217-0.954,7.69-1.833c2.007-0.713,3.813-1.992,5.709-3.02
		C89.901,43.82,89.857,43.655,89.814,43.489z M103.636,61.183c-0.221,0.303-0.52,0.827-0.928,1.245
		c-1.312,1.339-2.66,2.646-4.008,3.949c-1.385,1.338-2.703,2.76-4.197,3.961c-3.48,2.802-7.426,4.865-11.508,6.611
		c-1.334,0.57-1.506,1.203-1.217,2.428c1.053,4.459,3.121,8.275,6.557,11.395c1.953,1.771,4.01,3.262,6.508,4.115
		c1.643,0.562,4.834-0.336,5.967-1.73c0.242-0.3,0.496-0.742,0.461-1.092c-0.188-1.873-0.562-3.73-0.684-5.604
		c-0.109-1.742-0.438-3.674,0.148-5.209c1.002-2.617,3.139-4.623,5.775-5.584c1.723-0.627,1.479-1.574,1.244-2.735
		c-0.49-2.425-1.693-4.509-3.264-6.382c-0.746-0.891-1.584-1.703-2.381-2.553c0.502,0.031,0.969,0.192,1.241,0.518
		c0.815,0.968,1.509,2.04,2.334,2.999c1.78,2.073,2.707,4.457,2.847,7.179c0.014,0.239,0.385,0.573,0.655,0.666
		c1.265,0.432,2.565,0.758,3.821,1.204c0.369,0.132,0.641,0.542,0.955,0.825c-2.818-1.143-5.526-2.188-8.32-0.279
		c-2.367,1.617-4.277,3.641-4.242,6.744c0.023,2.057,0.273,4.113,0.493,6.162c0.116,1.097,0.282,2.208,0.599,3.261
		c1.309,4.378,2.877,8.688,3.963,13.118c0.689,2.812,0.674,5.794,1.022,8.691c0.127,1.049-0.474,2.133,0.901,3.076
		c2.213,1.518,4.6,1.809,7.08,1.748c2.272-0.055,4.666-0.207,6.492-1.727c3.479-2.895,6.768-5.962,8.553-10.328
		c0.637-1.555,0.602-2.777-0.356-4.09c-1.903-2.607-3.997-5.112-5.601-7.896c-1.869-3.248-3.311-6.746-4.914-10.146
		c-0.609-1.292-1.156-2.614-1.73-3.923c0.023-0.006,0.051-0.01,0.075-0.016c1.298,2.004,2.597,4.008,4.088,6.312
		c0.761-1.271,1.47-2.174,1.87-3.195c0.648-1.662,1.029-3.428,1.643-5.107c1.602-4.399,2.023-8.875,1.143-13.486
		c-0.898-4.709-1.834-9.41-4.369-13.575c-1.904-3.128-3.93-6.183-5.881-9.283c-0.27-0.43-0.426-0.932-0.604-1.333
		c-1.916,0.864-3.875,1.746-5.832,2.628c-0.08-0.159-0.158-0.318-0.238-0.478c3.477-0.897,5.972-3.122,8.287-5.699
		c2.354-2.621,3.59-5.697,4.271-9.058c0.826-4.089,0.365-8.886-0.92-9.879c-0.51,0.575-0.992,1.179-1.535,1.725
		c-1.777,1.794-4.25,2.718-6.552,1.75c-0.181-0.076-0.306-0.284-0.457-0.431c0.174-0.064,0.345-0.171,0.521-0.186
		c0.932-0.075,1.932,0.068,2.787-0.219c3.891-1.305,6.596-4.775,6.416-8.834c-0.154-3.507-0.986-6.892-4.49-8.896
		c-2.258-1.292-4.566-2.361-7.187-1.945c-2.085,0.332-4.101,1.054-4.829,3.44c-0.086,0.282-0.273,0.534-0.412,0.799
		c-0.504-1.646,0.36-2.815,1.262-4.018c-2.059-0.647-4.012-0.83-6.131-0.664c-6.563,0.514-12.289,2.677-16.303,8.06
		c-1.242,1.668-1.688,3.941-2.434,5.96c-0.071,0.193,0.27,0.767,0.474,0.798c2.079,0.316,2.845,1.255,2.729,3.383
		c-0.018,0.321,0.131,0.883,0.328,0.948c2.4,0.784,4.824,1.495,7.256,2.229c0.768-3.852,2.434-4.304,5-4.031
		c1.363,0.145,2.129,1.112,2.287,2.879c0.188,2.092-1.289,3.988-3.678,4.664c1.447,3.378,1.42,6.656-0.781,9.735
		c-2.262,3.166-5.656,3.475-9.199,3.617c2.463,1.742,5.068,3.186,7.992,3.716c2.922,0.531,5.92,0.651,8.723,0.935
		c-1.943,0.57-9.242,0.504-11.461-0.836c-0.646-0.391-1.047-0.36-1.495,0.47c-0.92,1.7-2.075,3.273-3.122,4.905
		c-0.752,1.172-1.543,2.324-2.204,3.546c-0.317,0.586-0.375,1.313-0.62,2.24c3.032-1.031,5.475-2.505,7.725-4.26
		c1.822-1.421,3.758-2.527,6-3.076c3.066-0.752,6.205,0.326,7.818,2.716c0.276,0.411,0.348,0.96,0.512,1.446
		c-0.949-1.844-2.35-3.201-4.291-3.619c-2.951-0.636-5.66,0.016-8.178,1.898c-2.425,1.813-5.027,3.445-7.721,4.826
		c-1.59,0.814-3.484,1.147-5.285,1.404c-1.91,0.273-3.875,0.129-5.805,0.302c-1.799,0.16-3.662,0.268-5.34,0.852
		c-0.848,0.295-1.465,1.532-1.938,2.47c-0.154,0.305,0.529,0.992,0.742,1.54c0.086,0.219,0.033,0.625-0.122,0.783
		c-0.704,0.721-1.552,1.311-2.193,2.076c-1.931,2.305-1.992,5.135-0.001,7.287c0.978,1.059,2.273,1.855,3.513,2.632
		c2.602,1.628,5.447,2.427,8.541,2.153c3.264-0.287,6.191-1.625,9.107-2.977c4.895-2.27,8.83-5.85,12.762-9.432
		C101.38,63.292,102.576,62.168,103.636,61.183z M40.271,84.398c0.86-0.468,1.863-1.043,2.892-1.567
		c3.833-1.961,7.699-3.854,11.503-5.867c2.879-1.523,5.687-3.184,8.517-4.797c0.801-0.457,1.317-1.01,0.612-1.994
		c-0.198-0.276-0.228-0.748-0.185-1.111c0.292-2.455,1.209-4.615,3.065-6.324c0.171-0.158,0.344-0.553,0.265-0.716
		c-1.248-2.583,0.926-5.059,3.271-5.417c0.879-0.134,0.908-0.578,0.436-1.042c-1.357-1.333-2.712-2.693-4.23-3.825
		c-0.953-0.71-2.23-1.04-3.354-0.155c-1.972,1.551-3.866,3.201-5.856,4.726c-3.102,2.377-6.272,4.664-9.384,7.026
		c-3.376,2.564-6.688,5.215-10.089,7.746c-1.748,1.301-4.119,1.989-4.333,4.649c-0.038,0.47,0.241,1.179,0.609,1.431
		c2.206,1.508,3.163,3.655,3.475,6.2c0.022,0.187,0.195,0.464,0.353,0.507C38.556,84.063,39.293,84.192,40.271,84.398z
		 M85.439,89.525c-0.467,1.097-0.936,2.058-1.289,3.06c-0.68,1.918-1.727,3.551-3.465,4.656c-1.915,1.217-3.869,2.372-5.783,3.59
		c-1.375,0.875-1.734,1.951-0.91,3.332c1.369,2.299,2.686,4.674,4.391,6.711c1.547,1.848,3.379,3.645,6.02,3.933
		c2.406,0.263,4.825,0.424,7.242,0.586c1.195,0.08,2.24-0.332,2.994-1.3c1.01-1.297,2.216-2.504,2.938-3.95
		c1.932-3.877,3.676-7.851,5.441-11.81c0.562-1.26-0.404-2.541-1.743-2.338c-4.481,0.678-8.349-0.871-11.944-3.297
		C87.975,91.784,86.783,90.631,85.439,89.525z M25.196,103.062c-0.281-0.614-0.537-1.254-0.855-1.86
		c-2.93-5.572-5.926-11.109-8.788-16.715c-2.071-4.057-5.843-5.609-10.106-3.594c-3.26,1.542-5.391,6.104-4.2,9.398
		c1.966,5.444,4.132,10.818,6.314,16.183c0.688,1.688,1.696,3.249,2.79,5.304C11.99,102.575,17.925,101.698,25.196,103.062z
		 M76.912,30.013c0.436,1.452,0.576,3.277,1.463,4.605c2.004,3,4.988,4.725,8.668,4.794c4.437,0.082,7.59-0.671,9.399-5.558
		c1.235-3.336-0.399-7.891-3.663-9.382c-2.846-1.299-5.816-2.472-9.111-2.093c-2.365,0.272-4.523,0.87-5.49,3.333
		C77.673,26.996,77.388,28.364,76.912,30.013z M13.272,79.65c0.828,1.185,1.764,2.315,2.469,3.577
		c1.047,1.871,1.926,3.837,2.888,5.756c0.816,1.626,1.619,3.26,2.484,4.859c0.978,1.811,1.998,3.599,3.037,5.373
		c1.218,2.082,2.446,4.16,3.757,6.184c0.166,0.256,0.958,0.366,1.293,0.202c0.987-0.483,1.927-1.091,2.801-1.757
		c0.259-0.197,0.436-0.836,0.315-1.141c-0.428-1.07-0.929-2.129-1.53-3.113c-2.753-4.51-5.534-9.004-8.336-13.484
		c-1.513-2.419-3.049-4.824-4.667-7.174c-0.312-0.453-1.172-0.969-1.573-0.835C15.134,78.456,14.169,79.151,13.272,79.65z
		 M21.312,103.12c-1.009,0.096-2.023,0.156-3.025,0.295c-2.621,0.364-4.524,1.78-5.707,4.119c-1.923,3.803-1.693,7.453,1.271,10.604
		c1.168,1.241,2.661,2.513,4.237,2.971c3.932,1.142,7.573,0.206,10.21-3.087c1.582-1.977,2.178-4.368,1.416-6.917
		c-0.068-0.229-0.431-0.549-0.628-0.53c-1.369,0.131-2.051,1.278-2.02,2.656c0.018,0.793-0.386,1.669-0.817,2.376
		c-0.322,0.528-1.004,0.831-1.502,1.261c-2.222,1.92-5.81,1.934-7.988,0.018c-1.483-1.307-2.53-4.434-1.952-5.943
		c0.872-2.273,2.318-4.018,4.795-4.557c1.753-0.381,3.581-0.684,5.105,0.715c1.021,0.936,1.975,0.93,2.841-0.146
		c0.123-0.152,0.103-0.611-0.034-0.752C25.816,104.459,24.033,102.858,21.312,103.12z M89.011,45.715
		c-0.104-0.095-0.211-0.189-0.314-0.284c-0.158,0.066-0.332,0.107-0.469,0.202c-2.79,1.949-5.863,3.344-9.219,3.754
		c-3.338,0.408-6.729,0.368-10.098,0.548c-0.832,0.044-1.66,0.18-2.49,0.273c0.209,0.479,0.476,0.59,0.685,0.768
		c1.105,0.938,2.333,1.777,3.256,2.872c1.189,1.41,2.068,2.855,4.395,2.445c2.269-0.4,4.629-0.255,6.941-0.448
		c0.409-0.034,0.898-0.475,1.145-0.861c1.291-2.022,2.474-4.113,3.775-6.126C87.333,47.756,88.208,46.759,89.011,45.715z
		 M25.405,89.411c2.45,4.139,4.872,8.229,7.294,12.318c0.172-0.137,0.33-0.262,0.498-0.396c0.724,1.244,0.441,2.301-0.635,2.998
		c-2.221,1.438-4.395,2.951-6.626,4.375c-1.356,0.863-2.774,1.633-4.188,2.401c-0.162,0.087-0.473-0.13-0.72-0.163
		c-0.322-0.043-0.832-0.186-0.943-0.039c-0.703,0.912,0.088,1.602,0.581,2.18c0.271,0.317,1.151,0.528,1.473,0.33
		c4.068-2.516,8.109-5.076,12.104-7.705c1.943-1.28,2.097-2.203,0.924-4.227c-2.172-3.747-4.395-7.465-6.562-11.216
		C27.563,88.467,27.407,88.39,25.405,89.411z M93.167,2.502c-2.002-1.27-4.188-1.424-6.172-1.096
		c-2.924,0.484-4.922,2.493-5.81,5.353c-0.597,1.922-0.155,3.781,1.011,5.816C84.232,7.288,88.75,5.12,93.167,2.502z
		 M24.983,108.543c-1.099-1.801-4.522-2.479-6.169-1.295c-2.811,2.018-3.882,3.656-2.678,7.205c0.507,1.492,1.53,2.59,3.047,3.021
		c2.117,0.604,5.772-0.779,6.909-2.708c0.416-0.706,0.266-1.746,0.373-2.635c-0.231-0.082-0.463-0.164-0.694-0.246
		c-0.513,0.814-1.003,1.646-1.543,2.443c-0.969,1.432-3.488,1.776-5.291,0.75c-1.419-0.809-2-3.021-1.207-4.603
		c1.039-2.071,3.705-3.069,5.158-1.759C23.81,109.551,24.293,109.209,24.983,108.543z M31.437,79.465
		c-0.405-0.321-0.776-0.709-1.227-0.941c-0.337-0.175-0.777-0.15-1.17-0.216c-0.032,0.419-0.251,0.966-0.066,1.237
		c1.553,2.287,3.469,4.354,4.03,7.209c0.063,0.32,0.566,0.822,0.799,0.787c0.638-0.092,1.213-0.432,0.779-1.287
		c-0.216-0.426-0.377-0.879-0.583-1.312c-0.455-0.954-0.922-1.901-1.384-2.854c0.125-0.066,0.25-0.135,0.375-0.203
		c0.697,1.119,1.394,2.238,2.217,3.561c0.512-0.523,1.419-1.033,1.399-1.502c-0.106-2.426-0.779-4.679-3.097-5.996
		c-0.403-0.229-1.062-0.515-1.343-0.345C31.572,77.965,30.634,78.424,31.437,79.465z M9.49,78.902
		c2.169,1.132,3.807-0.017,5.354-0.846c2.203-1.181,2.342-1.271,3.881,0.711c0.182,0.235,0.312,0.51,0.476,0.761
		c1.481,2.258,2.965,4.516,4.692,7.143c0.212-1.01,0.73-1.951,0.453-2.406c-1.793-2.952-3.706-5.838-5.728-8.637
		c-0.316-0.438-1.517-0.65-2.084-0.42c-1.705,0.696-3.301,1.66-4.937,2.527C10.95,78.081,10.312,78.448,9.49,78.902z
		 M131.878,81.969c-0.141-0.637-0.094-1.428-0.465-1.875c-0.537-0.646-1.318-1.279-2.104-1.465
		c-0.488-0.116-1.547,0.483-1.703,0.971c-0.456,1.419-0.783,2.939-0.79,4.424c-0.008,1.521,0.981,2.031,2.479,1.609
		C130.412,85.32,131.774,83.32,131.878,81.969z M25.975,88.103c0.54-0.269,1.332-0.667,2.129-1.058
		c3.438-1.678,3.337-0.979,1.576-4.521c-0.053-0.106-0.088-0.271-0.172-0.306c-0.22-0.084-0.588-0.233-0.676-0.143
		c-1.403,1.438-2.867,2.838-4.106,4.41C24.146,87.224,24.789,88.129,25.975,88.103z M22.963,110.145
		c-0.933-1.322-2.186-1.48-3.345-0.756c-0.971,0.607-1.682,2.818-1.112,3.795c0.501,0.857,1.069,1.785,2.21,1.566
		c-0.556-0.924-1.27-1.744-1.531-2.688c-0.147-0.533,0.378-1.319,0.754-1.894c0.127-0.194,0.724-0.105,1.106-0.104
		C21.597,110.068,22.149,110.109,22.963,110.145z M61.302,51.554c-2.062-0.488-4.117,1.1-4.281,2.954
		C58.402,53.555,59.729,52.639,61.302,51.554z M99.05,95.388c0.052,0.126,0.102,0.252,0.15,0.378
		c0.981-0.229,1.963-0.458,2.944-0.688c-0.218-0.611-0.435-1.225-0.664-1.871C100.572,94.026,99.811,94.708,99.05,95.388z
		 M98.039,23.774c0.485-0.715,0.969-1.116,0.953-1.497c-0.014-0.339-0.643-0.967-0.886-0.917c-0.444,0.092-1.044,0.539-1.129,0.935
		C96.91,22.613,97.505,23.074,98.039,23.774z M84.056,20.745c0.301-0.49,0.587-0.753,0.58-1.009
		c-0.004-0.223-0.424-0.653-0.514-0.618c-0.307,0.119-0.668,0.361-0.77,0.642C83.294,19.924,83.689,20.253,84.056,20.745z"/>
	<path d="M110.419,13.025c-0.61-1.129-1.139-2.106-1.666-3.083c0.076-0.057,0.154-0.115,0.23-0.172
		c0.443,0.516,0.889,1.032,1.238,1.439c0.796-0.722,1.49-1.601,2.395-2.12c1.569-0.903,3.104-0.077,4.188,0.917
		c0.688,0.629,1.068,2.007,0.977,2.991c-0.225,2.366-1.673,3.376-3.99,3.223c-0.748-0.05-1.266,0.127-0.924,1.075
		c0.17,0.469,0.235,0.976,0.158,1.509c-0.371-0.759-0.818-1.494-1.072-2.291c-0.084-0.263,0.258-0.886,0.537-0.993
		c0.57-0.216,1.23-0.251,1.855-0.257c1.271-0.012,1.938-0.863,2.281-1.845c0.359-1.029,0.224-2.121-0.846-2.818
		c-0.916-0.596-1.863-1.259-2.939-0.393c-0.584,0.472-1.07,1.071-1.571,1.639C110.986,12.171,110.757,12.55,110.419,13.025z"/>
	<path d="M78.896,31.055c0.084,0.288,0.125,0.598,0.262,0.86c0.277,0.538,0.524,1.139,0.953,1.53
		c0.178,0.162,0.973-0.009,1.163-0.268c0.608-0.822,0.153-3.524-0.444-4.303c-0.525-0.683-0.846-1.521-1.256-2.291
		c0.846-0.204,1.758-0.713,2.521-0.548c1.492,0.321,2.943,0.931,4.328,1.598c0.754,0.363,0.488,1.561-0.344,1.849
		c-0.566,0.196-1.17,0.291-1.719,0.519c-0.697,0.288-1.869-0.271-1.957,1.146c-0.117,1.926,0.403,2.99,1.756,3.67
		c2.326,1.17,4.498,1.148,6.541-0.603c0.125-0.108,0.366-0.079,0.555-0.113c-0.033,0.271,0.023,0.711-0.115,0.788
		c-1.188,0.646-2.361,1.417-3.645,1.756c-0.828,0.219-1.853-0.149-2.754-0.386c-1.4-0.368-2.363-1.715-4.138-1.461
		c-1.14,0.163-2.274-1.46-2.315-2.698c-0.014-0.352,0.182-0.711,0.281-1.066C78.677,31.041,78.789,31.048,78.896,31.055z
		 M85.664,28.423c-1.267-1.346-4.037-2.105-5.363-1.507C81.501,29.352,83.56,29.95,85.664,28.423z"/>
</g>
<path fill="#FFFFFF" d="M85.664,28.423c-2.104,1.526-4.16,0.929-5.363-1.507C81.626,26.318,84.397,27.078,85.664,28.423z"/>
</svg>
