<?xml version="1.0" encoding="utf-8"?>
<!-- Generator: Adobe Illustrator 18.1.1, SVG Export Plug-In . SVG Version: 6.00 Build 0)  -->
<!DOCTYPE svg PUBLIC "-//W3C//DTD SVG 1.1//EN" "http://www.w3.org/Graphics/SVG/1.1/DTD/svg11.dtd">
<svg version="1.1" id="Layer_1" xmlns="http://www.w3.org/2000/svg" xmlns:xlink="http://www.w3.org/1999/xlink" x="0px" y="0px"
	 viewBox="0 0 480.6 179" enable-background="new 0 0 480.6 179" xml:space="preserve">
<g>
	<g>
		<path fill="#2C5F67" d="M1.8,102.5c-1.9-1.8-1.9-2.7,0-4.4c1.4-1.3,2.8-2.5,5.5-2.5c-1.4-0.7-2.3-1-3.1-1.5
			c-0.9-0.5-1.6-1.3-1.1-2.2c0.9-1.5,0.4-2.8-0.2-4.3c-1.1-2.6,0.4-4.6,3.5-5c0.7-0.1,1.4-0.1,2.2-0.1c-0.3-1.2-0.6-2.2-0.7-3.2
			c-0.5-3.6,2.4-5.7,6.2-4.6c3.2,1,6.1,2.4,8.1,4.9c0.9,1.1,1.8,1.5,3.2,0.7c1.5-0.9,3-0.8,4.6,0c0.4,0.2,0.9,0.3,1.9,0.6
			c-0.5-0.8-0.6-1.2-0.9-1.5c-0.6-0.6-1.2-1.2-1.9-1.7c-0.9-0.8-1.4-1.9-0.8-2.8c0.4-0.6,1.6-0.9,2.5-1.2c0.5-0.2,1.2-0.1,1.7-0.2
			c0-0.6,0-1,0-1.4c0.1-1.9,0.7-2.5,2.9-2.2c1.4,0.2,2.7,0.7,4.5,1.1c-0.8-1.5-1.4-2.9-2.2-4.2c-1.5-2.3-1.3-3.8,1-5.7
			c0.3,0.2,0.8,0.3,1.1,0.6c2.6,2.4,5.2,4.8,7.8,7.2c2.5,2.3,4.8,4.7,6.5,7.6c1.1,1.9,1.6,2,4.1,0.9c-0.4-0.8-0.8-1.6-1.2-2.3
			c-1.5-3.2-0.3-6.3,3.1-8c1.9-1,3.3-0.5,4.4,1.2c1,1.5,2.1,2.9,3.2,4.3c2.4-0.5,4.3-0.1,6,1.2c1.1,0.8,2,0.5,2.7-0.5
			c0.3-0.4,0.4-0.9,0.6-1.2c-0.7-1.2-1.1-2.4-2-3.3c-1.4-1.5-3-2.9-4.6-4.4c-1.2-1-1.7-2.2-1.6-3.6c0-0.5,0-1,0-1.3
			c-1.5-0.4-2.7-0.6-3.8-1.1c-1.6-0.7-1.8-1.8-0.7-3.2c0.5-0.6,1-1.2,1.7-1.8c-0.5-0.1-0.7-0.2-0.8-0.2c-0.7,0.2-1.4,0.4-2,0.6
			c-3.9,1.4-7.6,0.9-11.1-0.8c-2-1-2.2-2.3-0.5-3.6c2.1-1.5,4.4-2.7,7.3-2.1c-0.4-2-0.8-2.4-2.4-1.9c-4.8,1.4-9.6,0.2-14.4-0.4
			c-1.5-0.2-2.1-1.3-1.5-2.5c0.5-1,1.4-1.8,2.3-2.5c0.7-0.6,1.7-1,2.4-1.5c-2.1-2-4-3.7-5.8-5.4c-1.7-1.7-2.4-3.6-1.5-5.7
			c0.8-1.9,3-2.4,4.8-1c0.6,0.5,1,1.2,1.7,1.5c4.3,2.4,6.3,6,6.7,10.4c0.1,0.7,0.4,1.4,0.8,1.9c0.4,0.4,1.2,0.5,1.8,0.7
			c0.2-0.5,0.6-1.1,0.7-1.6c0.1-1.9-0.1-3.8,0.2-5.7c0.4-2.5,2.2-3,4.7-1.8c3.4,1.7,4.5,4.6,5.2,7.7c0.3,1.2-0.3,2.3-1.5,3.1
			c-0.6,0.4-1.1,0.9-1.6,1.4c3.3,2.9,7.1,4.3,11.5,5.4c-0.4-0.7-0.5-1-0.7-1.4c-0.7-1.3-1.5-2.5-2.2-3.8c-1-2.1-0.4-3.2,2-3.8
			c1.4-0.4,3-0.5,4.5-0.6c1.4-0.1,2.8-0.2,4.5-0.2c-0.7-0.9-1.3-1.5-1.5-2.1c-0.5-1.2-1.3-1.6-2.8-1.8c-1.9-0.3-3.9-0.8-5.5-1.8
			c-2.4-1.4-5.2-2.2-6.8-4.5C64,29,63.4,28.9,63,28.7c-2.3-1.1-2.4-2.6-0.1-3.7c0.8-0.4,1.9-0.5,2.8-0.4c1.9,0.2,3.8,0.5,5.9,0.8
			c0-1.8-1.1-3.1-1.8-4.5c-0.6-1.2-1.4-2-2.9-2.2c-2.2-0.4-4-1.5-5.6-2.8c-1.4-1.1-2.7-2.3-4.1-3.5c-0.8-0.7-1.3-1.6-0.8-2.6
			c0.5-1,1.5-1.4,2.6-1.3c2.4,0.2,4.3,1,5.6,2.9c0.6,0.9,1.2,1.8,2.8,1.9c-0.1-0.9-0.2-1.7-0.3-2.5c-0.4-2.5-1-5-1.3-7.6
			c-0.3-1.9,0.4-2.6,2.5-3.1c2-0.5,3.2-0.1,4.1,1.4c0.5,0.8,0.7,1.6,1.2,2.4c2.7,4.3,2.1,8.4-0.9,12.4c-0.9,1.2-0.7,2,0.3,3
			c1.3-0.5,2.5-1,3.7-1.4c1.8-0.6,4.3,0,5.2,1c0.9,1.1,0.8,2.4-0.7,4.1c-1.2,1.3-2.9,2.4-4.2,3.6c-0.5,0.5-1.2,1.3-1,1.7
			c0.5,1.3,1.3,2.5,2.1,4c0.7-0.9,1-1.7,1.6-2.1c0.5-0.3,1.3-0.6,1.9-0.5c1.3,0.4,2.6,0.8,3.6,1.6c0.8,0.6,1,1.8,1.6,2.6
			c0.6,0.8,2,0.5,2.4,1.9c0.5,1.9,0.5,3.6-0.2,5.4c-0.5,1.2-0.4,2.4,0.5,3.4c0.4,0.4,1,0.9,1.5,0.8c0.4,0,0.9-0.7,1.2-1.1
			c0.5-0.9,0.8-2,1.3-2.9c0.8-1.3,2.7-2.2,4-1.9c1.3,0.2,2.3,1.4,2.5,3.1c0.1,0.6,0,1.1,0.1,1.7c0,0.6,0.1,1.2,0.2,1.9
			c3.5,0,5.7,2.3,8.5,3.8c0.9-1,1.7-2,2.4-2.8c-1-2.2-2.3-3.8-4.7-4.9c-2.2-1-4-2.6-5.9-4.1c-1.2-1-0.8-1.8,0.6-2.4
			c1.5-0.6,3.2-0.7,4.7-0.1c2.7,1,5.8,1.9,7.1,4.4c1.3,2.6,3.6,3.4,6.4,0.8c0.8-0.8,1.8-1.4,3-2.3c0.3,1,0.5,1.6,0.7,2.2
			c0.6,1.3,0.8,2.8,2.9,3.2c1,0.2,1.2,1.1,1,2c-0.5,1.8,0.4,3,2,4.3c0.2-0.9,0.2-1.5,0.5-2.1c0.2-0.4,1-1,1.3-0.9
			c2.1,0.5,4.5,0.4,5.9,2.4c0.3,0.4,0.7,0.6,1.2,1.1c3-2.1,5.4-0.7,7.8,1.6c0.8-1.3,1.5-2.2,2.1-3.1c0.9-1.5,2.3-2.7,4.2-2.5
			c1.9,0.2,3.3-0.4,4.8-1c2.1-0.8,2.5-0.7,3.5,1.2c0.5,0.9,1,1.8,2.3,1.8c2.4-0.1,4.7-0.3,7.3-0.5c-0.3-0.5-0.5-0.8-0.7-1
			c-0.9-1.1-1.9-2.1-2.8-3.2c-0.6-0.8-0.8-1.8-0.1-2.7c0.7-0.9,1.6-0.8,2.6-0.7c1.9,0.3,3.9,0.5,5.9,0.7c0.2,0,0.5-0.1,0.9-0.2
			c0.1-0.6,0.2-1.2,0.4-1.8c1.1-0.6,2-1.3,2.6-2.2c0.6-0.8,1.4-1.2,2.5-1.1c0.8,0.1,1.6,0.2,2.4,0.3c-0.4-0.9-0.7-1.8-1-2.6
			c-0.4-1.1-0.2-2.1,1-2.7c1.2-0.6,2.3-0.2,3.2,0.6c1.1,1,2.2,2.1,3.3,3.1c0.1,0,0.2-0.1,0.2-0.1c0.5-3.2,1.4-6.1,5.5-7.2
			c0.4-0.1,1-0.9,0.9-1.3c-0.3-1.6,0.5-2.7,1.5-3.9c0.7-0.8,1-1.9,1.4-2.8c0.3-0.8,0.4-1.6,0.7-2.3c1.3-3.1,4.8-3.6,7.1-1.1
			c0.4,0.5,0.9,0.9,1.4,1.5c0.5-0.7,0.8-1.6,1.4-1.9c1.6-0.8,1.8-1.9,1.7-3.4c-0.2-2.7,1.7-4.1,4.8-3.7c0.8,0.1,1.6,0.3,2.7,0.4
			c-0.3-1-0.4-1.5-0.6-2c-0.4-1.2-0.4-2.3,0.3-3.5c0.6-1.1,1.8-0.5,2.6-0.8c0.2-0.1,0.3-0.1,0.5-0.2c1.9-0.5,2.4-0.3,3.5,1.2
			c0.7,0.9,1.5,1.8,2.3,2.8c3.7-3.5,3.7-3.5,8.6-2.9c1.1,1.8,2.2,3.7,3.3,5.6c0.5-1.7,0.6-3.3,0.7-4.8c0-1,0.3-1.9,1.4-2.4
			c1.2-0.5,2.1,0,2.9,0.7c1.1,0.9,2,1.9,3.1,2.9c0.6-0.2,1.1-0.4,1.6-0.6c1.7-0.5,3.4-1.1,5.2-1.3c2.6-0.3,3.8,1,3.3,3.3
			c-0.1,0.6-0.3,1.2-0.4,1.8c5.1,2.6,5.4,2.8,1.9,8.8c1.3-0.2,2.5-0.5,3.7-0.4c1.3,0.1,2.5,0.6,3.9,1c0.4-1.1,0.5-2.2,1.1-3.1
			c0.4-0.7,1.3-1.5,2.1-1.6c0.7-0.1,1.7,0.7,2.3,1.2c0.6,0.5,0.8,1.3,1.3,1.8c0.8,0.8,0.9,1.6,0.6,2.6c-0.7,2.7-0.4,3.1,2.6,3.2
			c2.1,0.1,3.3,1.7,2.6,3.5c-0.3,0.6-0.7,1.2-1.1,2.1c1.7,0.5,3.1,1.6,4.7,1c1.8-0.7,3.3-0.2,4.8,0.6c0.7,0.4,1.4,0.7,2.2,1
			c0.3-0.4,0.6-0.7,0.9-1c1.8-2.2,2.9-2.3,5.4-0.7c0.6,0.4,1.2,0.8,1.5,1.3c0.9,1.5,2.4,1.7,4,1.8c0.7-1.3,1.1-2.6,1.9-3.7
			c2.2-3.2,5.4-3.3,8.1-0.4c1.1,1.2,2.1,2.6,3.8,3.4c2.6-2.2,5.6-2.7,9-2.5c3.3,0.2,4.5,1.4,3.5,4.2c-0.7,1.9-1.9,3.7-3,5.6
			c-0.5,0.9-1.2,1.7-1.8,2.5c1.8,1.3,3.3,2.5,4.9,3.7c0.3-0.3,0.5-0.5,0.6-0.7c0.2-0.3,0.2-0.6,0.3-0.9c1.1-2,2.6-2.3,4.5-0.9
			c1.1,0.8,1.9,1.9,2.8,2.9c0.7,0.7,1.5,1.4,2.3,2.1c0.2-0.1,0.3-0.2,0.5-0.3c-0.1-0.4-0.2-0.9-0.4-1.3c-0.5-0.9-1.1-1.9-1.5-2.8
			c-1-2.3-0.2-4.8,1.8-6.1c1.1-0.7,2.2-0.6,2.3,0.4c0.4,2.3,2.7,3,4.4,4.2c-0.2-0.5-0.3-0.9-0.5-1.6c0.7,0.4,1.1,0.7,1.7,1
			c-0.3-5.9,0.8-7.5,5.4-7.2c0.3,0.6,0.7,1.2,1.2,2.1c1.6-1.6,3-3,4.3-4.4c1.4-1.5,3.3-1.9,5.4-1.5c2,0.3,2.5,1.9,3,3.3
			c0.1,0.2,0.1,0.5,0.1,0.7c0.5,1.9,0.6,2,2.9,2c1.4,0,2.9-0.1,4.3,0c1.9,0.1,3.4,0.7,4.5,2.3c-1,2.2-1.9,4.3-3,6.6
			c1,0.4,1.8,0.7,2.5,1.2c1.2,0.8,2.5,1.6,3.4,2.6c1.8,2.2,1.2,3.8-1.4,5.1c-0.6,0.3-1.3,0.7-1.9,1.1c1.4,1.1,2.6,1.9,3.6,2.9
			c1.6,1.8,0.8,4.1-1.6,4.8c-1.3,0.4-2.8,0.3-4.2,0.4c-1.9,0.2-3.8,0.4-5.6,0.6c0,0.2-0.1,0.4-0.1,0.6c1.3,0.7,2.7,1.4,4,2.2
			c3.1,1.7,3.2,2.6,0.9,5c-0.1,0.1-0.1,0.3-0.3,0.7c1,1,2.2,2.1,3.3,3.2c1.3,1.4,0.3,2.9,0.2,4.4c1.4,0.7,2.7,1.4,3.9,2.2
			c1.4,0.9,2.6,1.8,2.3,3.7c-0.1,1,0.2,2.1,0.5,3.1c0.1,0.2,0.2,0.3,0.3,0.5c-1.2,0.7-0.5,2.8,1.2,2.4c2.3-0.6,4.1-1.6,5.9-3
			c0.5-0.4,0.6-1.1,0.2-1.6c-2.8-3.6-4.4-8.9-0.6-12.4c0.2-0.2,0.3-0.4,0.4-0.5c0.7,0.3,1.2,0.9,1.6,1.6c0.4,0.5,0.7,1.2,0.7,1.8
			c0.2,1.5,0.2,3,0.3,4.5c0.1,1.1,0.1,2.2,0.1,3.4c-0.1,0.3-0.1,0.5,0,0.8c0,0.1,0,0.2,0,0.2c0,0,0.1,0,0.1-0.1
			c0.4,0.7,1.5,1.1,2.4,0.4c5.6-4.5,0.9-12.3,2.6-17.9c0.1-0.4,0-0.8-0.2-1.1c0.6,0.1,1.2,0.4,1.8,1c0.8,1,1.3,2.2,1.9,3.3
			c0.2,0.3,0.3,0.6,0.4,0.9c-0.1,0.1-0.1,0.3-0.2,0.4c-0.9,1.5,1.6,2.8,2.5,1.3c3.4-5.6-2.4-11-0.6-16.6c0-0.1,0-0.1,0-0.2
			c0.5,0.2,1,0.5,1.3,0.8c0.6,0.7,0.7,1.7,1,2.6c0.3,0.8,0.5,1.6,0.8,2.6c0.1-0.1,0.2-0.2,0.3-0.4c0.7,0.6,2.1,0.6,2.5-0.5
			c1.5-4.6-2.7-8.8-2.6-13.3c0,0,0,0,0,0c0.8,0,1.6,0.6,2.3,1.6c0.4,0.7,0.9,1.4,1.4,2.2c0.7-0.4,1.2-0.7,1.7-1c0.5-0.3,1-0.7,1.5-1
			c2.5-1.4,4.5-0.8,4.9,1.9c0.2,1.7-0.1,3.6-0.8,5.1c-0.3,0.5-0.6,1-1,1.5c-1.3,0.3-2.7,0.6-4,0.9c-0.8,0.2-1.1,0.8-1,1.4
			c-1.2,0.2-1.3,0.6-1.5,2.6c0.8,0.1,1.7,0.3,2.6,0.4c1.7,0.3,3,1,4.1,2.1c0.9,1,1.5,2.1,0.9,3.3c-0.2,0.4-0.4,0.7-0.7,0.9
			c-0.2-0.5-0.6-0.9-1.3-0.9h-8.6c-1.4,0-1.7,1.4-1.1,2.1c-0.9,0.5-1.3,1.6-1.6,3.5c0.9,0.2,1.9,0.4,2.8,0.6
			c2.5,0.6,3.5,2.1,3.1,4.3c-0.2,1-0.7,1.8-1.5,2.4c-0.2-0.2-0.6-0.3-1-0.3c-2.2,0-4.2,0-6.3-0.6c-1.2-0.3-1.9,0.6-1.8,1.5
			c-0.5,0.1-0.9,0.3-1.2,0.5c-0.9,0.8-1.6,1.9-2.5,3.1c1,0.1,1.6,0.2,2.2,0.2c2.3,0,4.2,0.9,5.7,2.4c1.1,1.1,2,2.3,1.3,3.9
			c-0.5,0.9-1.2,1.5-2.1,1.8c-3-1-5.9-2.6-9-2.7c0-0.8-0.7-1.5-1.8-1.2c-1.4,0.4-2.3,0.7-3.3,1.7c-0.7,0.8-0.5,1.9,0.7,2.2
			c1.5,0.4,2.9,1,4.4,1.2c0.3,1.4,0.4,1.5,1.5,2.2c0.5,0.3,1.2,0.6,1.4,1c1.1,1.9,3.1,3,5,4.3c0.8,0.6,1.6,1.3,2.3,2
			c2,2.5,1.6,5-1,7c-0.6,0.4-1.2,0.9-1.9,1.3c0.3,0.5,0.5,1,0.7,1.4c1,2.5-0.2,3.8-3.2,3.6c-0.8-0.1-1.5-0.1-2.3-0.1
			c0.3,1.7,0.8,3.2,0.6,4.6c-0.3,1.9-2.5,1.9-3.9,2.1v3.8c0.9,1.1,2.4,2.1,2.4,3.1c0.1,2.3,1.3,3.3,3.4,4c0.7,0.2,1.3,0.6,1.8,1
			c1.7,1.1,2.3,2.5,1.7,4.2c-0.4,1-1,1.8-1.7,2.7c-0.7,0.9-1.5,1.7-2.3,2.7c0.9,0.8,1.7,1.3,2.3,1.9c1.6,1.5,2.2,5.5,0.8,6.6
			c-1.7,1.3-3.7,2.3-6.1,2.2c-3,0-6.1,0.4-8.8-1c-0.2,0.3-0.2,0.4-0.2,0.5c0.5,0.9,0.9,1.7,1.4,2.6c1.1,2,1,2.5-1.2,3.7
			c-1.3,0.7-2.5,1.2-2.7,2.7c-0.1,0.5-0.8,1.1-1.3,1.4c-2.6,1.3-5.4,1.4-8,0.2c-1.5-0.7-2.6-0.7-3.8,0.3c-0.9,0.8-2.3,1.1-3.2,0.3
			c-1.7-1.4-3.6-1.5-5.7-1.2c-0.8,0.1-1.7-0.4-2.6-0.4c-0.9,0-2,0-2.7,0.5c-1.2,0.8-2.5,1.3-4,1.1c-1-0.1-1.7,0.2-2.2,1
			c-2.1,2.9-4,3.4-7.4,1.7c-2.1-1.1-4.2-2.2-6-3.6c-2.1-1.6-4.2-1.8-6.7-0.8c-2.6,1-3.6,0.7-5.7-1.1c-1.4-1.2-2.9-2.2-4.1-3.7
			c-0.5-0.6-1.7-0.8-2.6-1c-2-0.4-2.6,0.1-2.8,1.8c-0.1,1.1-0.4,2-1.5,2.6c-1.1,0.6-2.2,1.3-3.2,2.1c-0.9,0.7-1.7,0.8-2.6,0
			c-0.4-0.4-0.9-0.8-1.3-1.2c-1.8-1.7-4.2-2-6.5-2.5c-1.4-0.3-2.9-0.4-4.8-0.6c-4.4,2.2-7.5,2.1-9.2-0.8c3.1-0.9,1.9-2.9,1.4-4.7
			c-0.4-1.5-1.2-2.7-2.8-4c0,0.9-0.1,1.4,0,1.8c0.1,0.6,0.3,1.1,0.4,1.6c0.2,1.6-0.5,2.1-2.2,2.3c-0.9,0.1-1.8,0.5-2.7,0.7
			c-1.3,0.3-2.5,0.7-3.8,1c-0.8,0.1-1.6,0-2.7,0c-0.2,1.8-1.3,2.7-3.3,2.8c-0.3,0-0.9,0.5-1,0.7c-0.1,1.8-1.6,2.5-3.1,3.4
			c0.3,0.6,0.6,1.1,0.8,1.6c0.6,1.3,1.6,2.8,0.2,4c-1.3,1.2-3.1,0.6-4.5-0.1c-2-0.9-3.9-1.3-6.1-0.4c-1,0.4-1.7,0.5-2.1,1.5
			c-1,2.1-2.7,2.5-4.9,1.2c-0.4-0.2-0.8-0.5-1-0.8c-1.6-1.8-3.6-2.5-6.2-2.1c-0.5,0.1-1.1,0.1-1.6-0.1c-2.4-1-4.7-1.8-7.4-0.9
			c-0.8,0.3-1.8-0.1-2.6,0.1c-2.5,0.5-3.2,0.4-4.7-1.6c-0.9-1.2-1.6-2.5-2.6-3.6c-0.5-0.6-1.3-1.1-2.3-1.8c-0.4,1.3-0.7,2.1-0.9,3
			c-0.5,1.6-1.7,2.5-3.7,2.7c-1,0.1-2.1,0.5-3.1,0.8c-3.2,1-6-0.6-6.4-3.6c-0.1-0.7-0.1-1.4-0.2-2.1c-0.2-1.1-0.8-1.7-2.2-1.4
			c-2.1,0.4-3.9,0-5.6-1.3c-1.5,2.4-3.9,2.5-6.4,2.3c-3.5-0.2-6.7-1.4-9.4-3.2c-2.3-1.4-5.1-1.4-7.4-2.6c-0.3-0.1-0.7,0-1.1,0
			c-1.3-0.1-2.7,0.1-3.9-0.3c-1.5-0.4-2.4,0.2-3.2,1.1c-0.8,0.9-1,1.8-0.3,2.9c0.4,0.5,0.8,1.2,0.7,1.7c-0.4,2.4-0.8,4.8-1.6,7
			c-0.7,2.1-3.4,2.3-4.9,0.6c-0.4-0.5-0.7-1.1-1-1.6c-1.4,0.7-5,1.1-6.4,0.4c-1.3-0.6-2.4-0.6-3.8-0.3c-2.7,0.7-4.8-0.6-5.3-3.1
			c-0.1-0.6-0.2-1.2-0.3-1.8c-1.5-0.4-2.5-0.1-3.4,1c-0.8,1-2,1.8-3,2.7c-0.8,0.6-1.6,0.8-2.7,0.2c-0.5-0.3-1.4-0.3-2-0.2
			c-1.9,0.4-3.6,0.2-4.9-1.1c-0.9-0.9-2.1-1.2-3.4-0.7c-1.2,0.4-2.1,0.1-3-0.6c-0.5-0.4-1.2-0.8-1.7-1.2c-0.7-0.5-1.4-1.1-2.4-0.6
			c-1,0.4-1.3,1.3-1.3,2.2c0,0.9,0.1,1.7,0.2,2.6c-3,0.8-3.3-2.9-6-2.7c0.2,1,0.4,1.9,0.6,2.9c0.5,2.5-0.5,3.4-3.4,3.1
			c-0.9-0.1-1.7-0.2-2.4,0.5c-1.9,1.8-2.5,1.8-4.6,0.1c-2.3-2-4.5-4-6.8-6c-0.9,0-2.1,0.1-3-0.2c-1.3-0.4-2-0.1-2.8,0.7
			c-2.2,2.2-4.6,2.4-6.8,0.6c-1.1-0.9-2-0.6-3.1,0.1c-1.7,1.2-3.6,1.4-4.9,0.5c-0.6-0.4-1.1-1-1.7-1.7c-2.7,1.3-3.3-0.8-4.3-2.6
			c-0.6,1.3-1,2.3-1.4,3.2c-0.9,2.4-2.6,2.8-4.8,1.3c-0.8-0.5-1.4-1.3-2.1-1.8c-0.6-0.5-1.3-1.1-2-1.1c-2.3-0.1-3.6-1.2-4.3-3.1
			c-1,0.4-1.8,0.7-2.6,0.9c-0.7,0.2-1.4,0.3-2.1,0.1c-3.6-1-5.3-3.4-4.8-6.8c0.2-1.3,0.4-2.5,0.6-3.8c-1.5-0.7-2.9-1.4-4.2-2
			c-1.1-0.5-2.5-0.8-2.4-2.3c0.1-1.5-0.9-3.2,1.6-4.1c1-0.3,0.9-1.4-0.2-1.8c-0.5-0.2-1.1-0.2-1.6-0.3c-3-1.1-6-2.1-8.9-3.3
			c-0.7-0.3-1.5-1-1.8-1.7c-0.3-0.7-0.1-1.6-0.1-2.3c-0.6-0.1-1.4,0-1.9-0.3c-3.1-1.5-6-3.2-8.3-5.6c-1.7-1.8-1.3-3.2,1-4.5
			c0.4-0.2,0.7-0.4,1.9-1c-0.9-0.4-1.6-0.6-2-1c-1.4-1.2-1.4-2,0.1-3.2c0.9-0.7,2.1-1.2,3.2-1.7c0.6-0.3,1.3-0.4,2.1-0.7
			c-2-1.1-2-1.1-3.8-0.6c-2.1,0.5-4.2,1.4-6.2,1.2c-2.7-0.2-5.5-1-8-1.8c-3.2-1.1-3.5-2-2.4-5c0.1-0.3,0.1-0.6,0.2-0.7
			c-1.5-1.4-3-2.6-4-4.1c-1.1-1.7,0.7-3.3,1.2-4.9C2.1,102.9,1.9,102.7,1.8,102.5z"/>
		<g>
			<path d="M409.1,63c-0.4-1.5-0.7-2.9-1.1-4.4c-0.3-0.7-0.9-1.6-1.9-1.2c-0.6,0.2-1.1,1.1-1.2,1.7c-0.1,2.8,0,5.7,1.8,8.1
				c1.4,1.8,1.4,3.3,0.2,5c-0.9,1.2-1.5,2.6-2.6,4.4c-0.5-1.6-0.8-2.5-1.1-3.5c0,1.4,0.1,2.9,0.1,4.3c0,1-0.2,2.1-1.7,2.2
				c-3.2-3.4-3.4-9.2-0.1-11.7c0.6,1.8,1.2,3.5,1.8,5.2c-0.2-1.5-0.3-3-0.7-4.5c-0.2-0.6-0.9-1.6-1.3-1.6c-0.7,0.1-1.6,0.6-2,1.2
				c-0.5,0.9-0.8,2-0.9,3c-0.3,3.1,0.2,6.1,1.9,8.8c0.7,1.2,0.6,2.1-0.2,3.1c-1.3,1.4-2.2,3.3-4.7,3.9c0-3.2,0.1-6.2,0-9.2
				c0-1.1-0.4-2.2-1-3.2c-0.4-0.7-1.4-1.3-2.2-1.3c-0.6,0-1.7,0.8-1.8,1.4c-0.5,1.9-0.8,3.9-0.8,5.9c0,1.5,0.4,3.1,1,4.4
				c0.5,1.1,1.7,2,2.6,2.9c-0.7-1.1-1.7-2.2-1.9-3.3c-0.5-2.6-0.7-5.2-0.8-7.8c-0.1-1.5,0.9-2.7,1.8-2.6c1.4,0.1,1.8,1.2,2.1,2.2
				c1.1,3,1.1,6.1,0.4,9.2c-0.2,0.8-1.1,1.6-1.7,2.3c-1.6,1.6-3.5,2.6-5.8,3.4c-2,0.7-4,1.4-6.3,2.2c1.6,1.4,0.1,2.6,0.3,4.1
				c0.6-0.6,1.2-1.2,1.6-1.7c1,0.1,2.2,0.6,2.7,0.3c2.4-1.6,4.6-0.8,6.9,0c1,0.3,1.8,0.9,2.9,1.4c-2.4,2.4-6.3,1.8-8.1,4.5
				c0.6-0.2,1.2-0.4,1.8-0.6c2.5-0.8,5-1.7,7.8-1.6c0.8,0,1.6,0.2,2.2,0.6c1.3,0.8,1.3,1.8,0,3.9c0.7-0.1,1.3-0.1,1.8-0.3
				c2.4-0.7,3.7,0.6,5,2c1.3,1.5,1.7,3.2,0.7,4.9c-0.3,0.5-1.2,1-1.9,1.1c-2.3,0.3-4.4-0.1-6.4-1.2c-1.8-1-3.9-1.7-6-2.4
				c-0.4-0.2-1.1,0.2-1.7,0.3c0,0.2-0.1,0.3-0.1,0.5c1,0.5,2.1,1,3.1,1.5c2.1,0.9,4.3,1.6,6.4,2.6c1.8,0.8,3,2.1,4.3,3.7
				c-3.7,1.3-6.7-1.4-10.5-0.7c0.9,0.8,1.6,1.4,2.2,2.1c1,1.1,1.9,2.3,2.7,3.5c0.3,0.4,0.1,1.3-0.3,1.7c-0.2,0.3-1.3,0.3-1.7,0.1
				c-2.1-1.3-4.2-2.7-6.2-4.1c-0.7-0.5-1.3-1.2-2.1-1.7c-0.2,1.1,0.7,1.5,1.3,2c1.9,1.6,3.8,3.1,5.8,4.6c1.1,0.8,2.5,1,3.7,0.2
				c1.1-0.7,1.3-2.1,0.4-3.5c-0.6-1.1-1.5-2.2-2.5-3.6c1.6,0.3,2.8,0.7,4.1,0.9c1.4,0.2,3.1,0.7,3.9-0.6c0.9-1.3-0.5-2.3-1.5-3.3
				c-0.3-0.3-0.5-0.6-0.9-1c0.4-0.2,0.6-0.3,0.8-0.3c4.5-0.5,6.3-4.2,3.4-7.5c-0.9-1.1-2.4-1.8-3.7-2.7c-0.7-0.5-1.5-0.8-2-1.4
				c-1.6-2.2-1.5-2.2-4.4-3c0.3-1,0-1.9-1.3-2.3c-1-0.3-2-0.7-3-1.1c-0.8-0.3-1.6-0.6-2.6-1c3.3-3.3,7.2-5.1,11.7-5.9
				c1.7-0.3,5.2,2.1,5.6,3.6c0.2,0.9-0.4,1.5-1.2,1.6c-1.5,0.2-3,0.3-4.5,0c-1.6-0.3-3.1-1.1-4.7-1.7c-0.4-0.2-0.9-0.2-1.6-0.3
				c0.1,0.4,0.1,0.8,0.3,0.9c2.7,1.3,5.4,2.5,8.6,2.4c0.9,0,1.8-0.2,2.6-0.5c1.7-0.8,2.2-2.2,1.1-3.6c-1.7-2.1-3.8-3.6-7-3.1
				c-1,0.1-1.9,0.3-3.3,0.5c1.6-2,2.9-3.6,4.2-5.3c0.7-0.9,1.5-0.9,2.6-0.6c1.6,0.3,3.3,0.5,5,0.6c2.2,0.1,3.8-0.8,4.2-2.9
				c-2.2,2.1-4.9,2.3-7.9,1.7c-1.7-0.4-1.9-1-1.2-2.5c0.9-1.7,2.8-2.5,4.8-2.2c2.1,0.3,3.3,1.4,4.2,3c0.3-1.8-0.1-2.8-1.9-3.3
				c-1.5-0.5-3.1-0.6-5-1c0.7-1.9,1.6-3.8,2.9-5.3c2.4,0.2,4.6,0.4,6.8,0.5c1,0,2-0.1,2.9-0.3c1.7-0.4,2.2-1.5,1.6-2.9
				c-0.9-2.1-3.8-3.4-6.3-3.1c-0.8,0.1-1.5,0.2-2.8,0.3c0.9-1.7,1.5-3.1,2.3-4.4c0.3-0.4,0.9-0.7,1.5-0.9c0.8-0.4,1.6-0.7,2.5-0.9
				c3.7-1.2,4.2-2.8,3.5-7c-0.3-1.6-1.6-2.1-3.2-1.2c-1.5,0.8-2.8,2-4.5,3.2c-0.4-0.8-0.7-1.5-1.1-2.2c-0.3-0.6-0.6-1.4-1.1-1.9
				c-0.9-1-2.2-0.7-2.7,0.5c-0.2,0.5-0.3,1.2-0.2,1.6c0.9,2.5,1.9,4.9,2.9,7.4c0.3-0.1,0.5-0.2,0.8-0.2c-0.6-1.5-1.3-2.9-1.9-4.4
				c-0.6-1.4-1.9-2.8-0.3-4.3c3.6,2.4,4.1,9.5,0,14.4C409.8,64,409.4,63.4,409.1,63c0,1.3,0,2.7,0,4.5c-2.3-0.9-2.6-2.5-3-3.9
				c-0.5-1.7-1.2-3.5,0.4-5.3C408.2,59.6,408.2,61.5,409.1,63z M416.1,70C416.1,70,416.1,70.1,416.1,70c-1.3,0-2.7-0.1-4-0.3
				c-1.7-0.3-2-1-1.1-2.4c1.5-2.4,5.7-2.6,8-0.2c0.5,0.6,0.7,1.4,1,2.1c-0.8,0.3-1.5,0.6-2.3,0.8C417.2,70.1,416.6,70,416.1,70z
				 M420,51.3c1.4,4.5-0.4,7-5.2,7.3c0.5-1.4,1-2.7,1.4-4.1C416.5,52.4,417.2,51.8,420,51.3z M392,90.5c0.1,0.1,0.2,0.3,0.3,0.4
				c-1.6,1.2-3.5,2-5.4,2.7c-0.1-0.2-0.2-0.4-0.3-0.5C388.4,92.2,390.2,91.4,392,90.5z"/>
			<path d="M339.2,114.4c-1.5,1.8-4.2,2.5-5.5,4.8c1.5,0.2,2.2-0.6,3-1.1c1.8-1.1,3.8-1.4,5.9-1.3c1,0.1,2.2,0.3,2.3,1.3
				c0,0.6-0.6,1.5-1.2,1.9c-1,0.7-2.3,1.2-3.5,1.7c-0.6,0.3-1.2,0.5-2.1,0.9c1.2,1.1,2.2,0.3,3.1,0.1c3.8-0.8,7.5-0.5,10.9,1.4
				c0.9,0.5,2.1,1.3,2.3,2.1c0.2,1.2-1.4,1.5-2.4,1.8c-1.6,0.5-3.2,1-4.9,1.5c2.1,0.7,4.9,0.3,7.3-1.1c1.3-0.8,2.7-1.5,2.9-3.2
				c0.1-1.2,1.1-1.5,2.3-0.9c0.7,0.3,1.2,0.9,1.8,1.4c0.6,0.4,1.2,0.7,1.8,1c0.2-0.2,0.3-0.3,0.5-0.5c-0.5-0.6-1-1.2-1.5-1.8
				c-0.7-1-0.3-1.8,1-1.9c0.7-0.1,1.4,0,2.1,0.2c1.7,0.5,1.9,1.1,1.3,2.5c-0.2,0.5-0.6,1-0.9,1.5c-0.2,0.4-0.4,0.8-0.6,1.4
				c2-0.6,3.2-2.1,3.1-3.9c-0.1-1.5-0.9-2.3-2.9-2.6c-1.7-0.3-3.4-0.4-4.7,1c-0.3,0.3-1,0.5-1.4,0.4c-1.7-0.3-2.7,0.4-3.8,1.7
				c-3.3-1.7-6.5-3.6-11-3.1c1.1-1.4,1.8-2.3,2.6-3.3c0.7,0.1,1.4,0.3,2.1,0.3c1,0.1,2,0.1,2.9,0c1.3-0.2,2.4-0.8,2.7-2.1
				c0.2-1.2-0.5-2.2-1.6-2.9c-0.6-0.4-1.2-0.6-2.1-1.1c0.8-0.9,1.7-1.8,0-2.7c0.5-0.3,0.9-0.6,1.2-0.8c1-0.9,1.1-1.5,0-2.4
				c-0.9-0.6-1.9-1.1-3-1.7c0.5-0.9,0.9-1.7,1.4-2.6c-0.1-0.1-0.2-0.2-0.3-0.2c-0.8,0.8-1.5,1.6-2.4,2.3c-0.9,0.6-1.9,1.1-3.2,1.8
				c2.5,0.8,5.5-1.2,7.1,1.6c-1.4,1.5-3.8,1-5.8,2.1c1.3,0.4,2.2,0.8,3.4,1.2c-0.6,0.5-1.1,0.9-1.7,1.4c0.6,1.1,1.7,0.9,2.6,1.1
				c2.1,0.6,3.3,1.4,3.2,2.4c-0.1,1-1.5,1.6-3.8,1.5c-1.2-0.1-2.5-0.4-3.6-0.7c-1.8-0.5-3.5-1-5.4-1.6c0.2-0.3,0.5-0.8,0.8-1.2
				c-0.1-0.2-0.2-0.4-0.3-0.5c-4.3-1.4-8.7-1.6-13.2-0.5c-2.8,0.7-4.8,3.1-4.7,5.6c0.3-0.4,0.5-0.6,0.7-0.9c1.5-3.2,4.4-4.5,8.1-4.4
				c2.3,0.1,4.6,0.3,6.9,0.4C339.1,113.9,339.1,114.1,339.2,114.4z"/>
			<path d="M359.9,165.3c3.1,1.4,5.8,3.9,8.4,0.2c0.8,0.8,1.3,1.5,2,2.1c0.7,0.7,1.5,1.5,2.7,1.2c1.2-0.3,1.7-1.1,1.8-2.1
				c0.1-0.3,0.2-0.6,0.4-1.2c1,0.7,1.8,1.3,2.6,1.8c0.5,0.3,0.9,0.8,1.5,1c0.4,0.2,1.1,0.1,1.5,0c0.2-0.1,0.4-0.7,0.3-1.1
				c-0.4-1.4-0.9-2.7-1.2-4.1c-0.2-1.1-2-1.8-3.5-2.2c1.1,1.9,2.8,3.5,3.2,6.2c-2.7-1.4-4.7-2.9-7.1-4.1c0.3,0.6,0.6,1.1,0.9,1.7
				c0.4,0.9,0.8,2-0.4,2.6c-1.2,0.7-1.9-0.2-2.7-0.9c-3.2-2.7-5.2-6.3-7.6-9.6c-0.7-1-1.5-1.9-2.2-2.9c-0.2,0.1-0.4,0.2-0.5,0.3
				c0.2,0.4,0.4,0.9,0.7,1.3c1.7,2.5,3.4,4.9,5,7.4c0.6,0.9,1.4,2.1,0.3,3.1c-1.1,0.9-2.3,0.1-3.5-0.3c-2.3-0.9-3.8-2.6-5.2-4.4
				c-0.5-0.6-1-1.2-1.7-2c-0.7,1.3,0.1,1.8,0.5,2.4c0.7,0.9,1.4,1.8,2,2.8c0.5,0.9,0.9,2.1-0.3,2.6c-0.8,0.4-2.1,0.2-3-0.1
				c-1.8-0.8-3.1-2.2-3.9-3.8c-1.7-3.6-4.5-6.5-7.5-9.2c-0.4-0.4-0.9-0.8-1.4-1.1c-1.4-0.7-1.9-0.3-2.1,1.6c0.6-0.2,1.2-0.7,1.7-0.6
				c0.5,0,1.2,0.5,1.5,0.9c1.1,1.2,2.1,2.5,3.2,3.7c-0.2,0.1-0.3,0.3-0.5,0.5c-1.4-0.8-2.8-1.7-4.7-2.8c0.7,2.5,3.4,3.5,3.1,5.9
				c-3.5,0-4.7-3.2-7.3-4.3c-1.6,1.8-1.9,2.9-0.7,4.4c2.7,3.5,5.5,6.9,9.9,9c0.8,0.4,1.6,0.7,2.5,0.9c2.2,0.6,5.1-0.4,4.6-3.3
				c-0.1-0.3,0-0.6,0-0.9c1.5,0.3,2.9,0.8,4.3,0.8C359.4,168.6,359.9,167.1,359.9,165.3z M345.9,160.1c2.7,1,6.6,6.7,6,9.2
				c-0.2,1-1,1.6-2.1,1.5c-1.2-0.2-2.5-0.5-3.5-1c-3.9-1.8-6.5-4.7-9-7.7c-0.6-0.8-1.1-1.6,0.2-2.7c0.7,0.5,1.3,1.1,1.9,1.6
				c0.7,0.5,1.3,1.1,2,1.5c1.1,0.7,2.4,1.2,3.5,0.4C345.6,162.4,345.6,161.2,345.9,160.1z"/>
			<path d="M302.2,148.4c0,0.3,0.1,0.6,0.1,0.9c0.5,2.2,0,2.6-2.5,2c-2-0.5-3.5-1.6-4.9-2.9c-0.7-0.6-1.5-1.2-2.2-1.8
				c-0.2,0.1-0.3,0.3-0.5,0.4c0.9,1.1,2,2.1,2.7,3.3c0.7,1.2,1.9,2.4,1.4,4.3c-1.4-0.4-2.6-0.6-3.8-1.1c-1.1-0.4-2.2-1-3.8-1.7
				c0.7,1.5,1.3,2.6,1.7,3.7c0.4,1.2,0.7,2.5,1,3.7c0.3,1.2,1.5,2.2,1,3.7c-0.9,0.2-1.9,0.3-3,0.5c0.6,1,1.6,0.9,2.4,0.8
				c1.4-0.2,2.7-0.8,4.1-0.2c0.3,0.1,0.9-0.4,1.2-0.7c0.4-0.4,0.5-0.9,0.9-1.6c1.8,1.2,3.1,3.6,5.6,1.8c1.3,0.5,2.3,1.2,3.5,1.4
				c1.5,0.3,1.8-1,2.2-2.1c1.3,1.5,2.5,2.9,3.6,4.2c1.5-0.3,2-2.1,3.6-1.4c0.1,0,1-1.1,1.1-1.7c0.1-1.1-0.1-2.2-0.2-3.2
				c1.2,0,2.4-0.1,3.6-0.1c0.5,0,1.1,0.1,1.5,0.3c1.2,0.6,2.3,0.9,3.4-0.1c0.9-0.8,0.9-1.9,0-3.3c-0.1-0.2-0.5-0.4-0.9-0.8
				c0.1,1.3,0.2,2.3,0.3,3.3c-3.3,0.6-4-2-6-3.1c0.2,0.9,0.4,1.7,0.7,2.8c-2.9-0.1-3.2-2.9-5.4-3.9c0.5,2.8,2.4,5.2,1.9,8.1
				c-0.9-0.1-1.8-0.2-2.7-0.3c-0.2,0.6-0.4,1.1-0.6,1.6c-0.2,0-0.4,0-0.5-0.1c-2.3-2.9-5-5.7-5.2-9.5c0-0.4-0.7-0.7-1.3-0.9
				c0,3,1.8,5.6,1.5,8.7c-3.7,0.3-3.4-2.8-5.2-4.2c0,1.2,0,2.3,0,3.8c-3.3-0.5-4.2-2.8-5.8-4.7c-0.1,1.5-0.2,2.9-0.4,4.4
				c-0.3,0-0.5,0.1-0.8,0.1c-2.9-1.8-2.3-5-3.9-7.9c1.6,0.2,2.7,0.4,3.7,0.5c2,0.2,2.5-0.3,2.1-2c-0.1-0.5-0.3-1.1-0.5-1.9
				c0.8,0.2,1.4,0.3,1.9,0.4c0.6,0.1,1.2,0.4,1.8,0.4c0.9-0.1,2.2-0.2,2.6-0.7c0.4-0.5,0-1.6-0.3-2.4
				C303,148.9,302.5,148.7,302.2,148.4L302.2,148.4z"/>
			<path d="M358.6,32.7c1.1-0.6,2.1-1.2,3.2-1.7c1.5-0.7,2.7-0.5,3.6,0.5c0.9,1.1,0.8,2.5-0.3,3.5c-1.4,1.1-3,2-4.5,3.1
				c-1,0.7-1.9,1.3-2.1,2.6c1.3,0.3,1.8-0.5,2.4-1c1-0.9,2-1.5,3.5-1c0.5,0.2,1.3-0.2,1.9-0.5c2.8-1.5,5.8-1.6,8.8-1.4
				c1.9,0.1,2.3,0.9,1.6,2.4c-0.4,0.8-0.8,1.6-1.3,2.4c-1,1.9-2.5,3.3-5.1,3.1c-0.2,0-0.5,0.1-0.8,0.2c-0.1,0-0.1,0.1-0.4,0.3
				c1.1,1,2.4,0.8,3.6,0.6c2.4-0.3,4.4,0.4,6.4,1.3c0.5,0.3,1.1,0.6,1.5,1c1.5,1.5,1.3,2.7-0.8,3.3c-2.2,0.6-4.5,0.9-6.8,1.4
				c-0.6,0.1-1.1,0.2-1.6,0.3c0,0.2,0,0.4-0.1,0.5c0.9,0.2,1.8,0.3,2.7,0.6c2.1,0.8,4.2,1.7,6.2,2.7c0.7,0.4,1.4,1.5,1.2,2.1
				c-0.2,0.6-1.4,1.1-2.2,1.3c-1.3,0.4-2.6,0.5-4,0.7c1.8,0.7,5.2,0.6,6.5-0.3c1.3-0.8,1.6-2.4,0.4-3.6c-0.9-0.9-2-1.6-3.1-2.3
				c-0.6-0.4-1.4-0.7-2.5-1.3c1.5-0.5,2.6-0.8,3.7-1.2c2.8-1,3.4-2.7,1.5-4.8c-0.7-0.8-1.7-1.4-2.7-1.8c-1.2-0.6-2.5-0.9-3.9-1.4
				c0.7-1.2,1.5-2.2,2.1-3.4c2.2-4.2,1.3-5.5-3.9-5.5c-1.1,0-2.1,0.1-3.2,0.2c-2.4,0.3-3-0.2-3-2.4c-0.1-2.3-1.5-4-3.7-3.9
				C361.1,29.6,359.4,30.7,358.6,32.7L358.6,32.7z"/>
			<path d="M272,35.8c4.2,2.7,8.3,2.1,11.9-1.5c1.7,1.4,1.4,4.4,4.4,4.7c-1-1.6-1.9-3-2.8-4.5c-0.2-0.3-0.4-0.7-0.4-1.1
				c-0.1-1.1-0.7-2.5,0.7-3c0.8-0.3,2.3,0.2,3.1,0.8c2.3,1.5,4.5,3.2,6.7,4.8c0.3,0.2,0.6,0.4,1,0.7c0.2-0.1,0.3-0.2,0.5-0.3
				c-0.6-0.7-1.1-1.5-1.7-2.2c-1-1-1.2-2.1-1-3.4c0.1-0.4,0.4-1.1,0.7-1.1c0.5-0.1,1.3,0.1,1.6,0.4c1.1,1.2,2,2.6,3.2,4.2
				c-0.1-2.2-1.1-3.8-2.7-5.1c-0.6-0.4-1.7-0.7-2.4-0.5c-0.7,0.2-1.2,1.1-1.5,1.8c-0.2,0.5,0,1.2,0,2.2c-1.7-1-3.2-1.9-4.8-2.7
				c-1.6-0.8-3.1-1.3-4.4,0.2c-2.2-0.7-4.3-1.3-6.7-2.1c0.9-0.7,1.5-1.2,2.1-1.7c1.2-1.1,1.1-2.2-0.5-2.8c-1.2-0.4-2.6-0.4-3.9-0.6
				c-0.3,0-0.7,0-1-0.1c0-1.8,0.1-3.4,0-5.1c-0.1-1.1-0.5-2.2-1-3.1c-0.3-0.5-1.4-1-2-0.9c-0.6,0.1-1.2,0.8-1.5,1.4
				c-0.6,1.3-0.5,5.3,0.1,6.9c1.5-2.4-0.9-5.2,1.9-7.5c0.5,0.6,1.2,1.1,1.3,1.7c0.2,1.8,0.2,3.7,0,5.5c0,0.3-0.9,0.6-1.4,0.9
				c-0.3,1.2-0.6,2.7-1.1,4.7c2.5-3.7,5.5-4.4,9.1-2.4c-1.9,2.8-6,2.9-8.1,5.4c0.6-0.2,1.3-0.3,1.9-0.5c1.7-0.6,3.3-1.3,5.1-0.2
				c0.6,0.4,1.6,0.2,2.4,0.3c3.1,0.5,3.9,2.5,1.8,4.7c-1.8,1.8-4.1,2.2-6.6,1.9C274.5,36.3,273.4,36,272,35.8z"/>
			<path d="M391.4,148.4c1.6,1.2,3.2,0.8,4.7,0.4c2.7-0.7,4.9,0.2,6.9,1.8c1,0.8,1.3,1.8,0.7,3c-1,2.2-2.5,3.1-6,3.6
				c1.8,1.2,4.2,0.6,6.2-1.5c1.5-1.6,2-3.6,0.9-4.9c-1.2-1.3-2.8-2.2-4.1-3.2c1-0.9,2-1.9,3-2.9c3.2-3.2,2.5-5.7-1.9-7.4
				c-1.2-0.4-2.4-0.7-3.5-1.1c-0.5-0.2-0.9-0.4-1.5-0.7c0.4-0.7,0.7-1.2,1-1.8c0.8-1.7,0.4-2.3-1.6-2.6c-0.6-0.1-1.2-0.2-2.1-0.3
				c0.7-0.6,1.1-0.9,1.5-1.3c1.3-1.2,1.2-2-0.3-2.9c-4.1-2.4-10.9-0.6-12.9,3.3c-0.1,0.1,0.1,0.3,0.2,0.8c2.1-2.5,4.5-4.3,8-4.1
				c1.6,0.1,3.3-0.2,4.7,1.3c-2.4,2.7-6.3,3.1-9.4,5.3c2.3,0.7,3.8-0.9,5.6-0.8c1.8,0.1,3.6-0.9,5.6-0.1c-0.3,2-2.5,2.7-3.6,4.3
				c0.7,0.1,1.1,0.2,1.6,0.2c2.5,0.1,5,0.4,7.3,1.5c2.7,1.2,3,2.7,1.1,4.8c-2.1,2.3-4.6,4-8.2,3.6
				C393.7,146.8,392.3,146.8,391.4,148.4z"/>
			<path d="M77.8,82.9c0.9,0.7,1.8,1.4,3.1,2.4c0.1-1.6-0.9-1.9-1.6-2.5c-1.5-1.2-1.5-1.6-0.5-3.8c1.4,0.8,2.7,1.6,4,2.4
				c0.1-0.1,0.3-0.3,0.4-0.4c-0.5-0.5-0.9-1.1-1.4-1.5c-0.7-0.6-1.4-1.2-2.2-1.8c-2.2-1.5-2.8-3.2-1.5-4.4c1.5-1.5,4.7-1.6,6.4-0.3
				c0.9,0.7,1.7,1.5,2.8,2.5c0.3-1.5-0.6-1.9-1.1-2.5c-0.6-0.9-1.3-1.7-1.7-2.7c-0.6-1.3,0.1-2,1.7-1.8c2.1,0.3,3.8,1.3,5.2,2.7
				c0.9,0.9,1.9,1.8,2.9,2.7c0.2-0.1,0.4-0.3,0.6-0.4c-0.3-0.5-0.6-1-1-1.4c-1.1-1.3-2.3-2.4-3.3-3.7c-1.2-1.5-0.7-2.3,1.3-2.6
				c1.9-0.3,3.7,0.1,5.3,1.3c0.5,0.4,1,0.8,1.8,1.1c-1.6-3.1-3.9-6-4.8-9.5c1.5-0.9,2.9-0.3,4.1,0.3c5.1,2.7,8.8,6.5,11.1,11.4
				c0.1,0.3,0.1,0.6,0.2,1.4c0.7-1.5,0.4-2.6-0.1-3.5c-2.7-4.3-6.4-7.8-11.3-10.3c-0.2-0.1-0.5-0.3-0.7-0.2
				c-1.3,0.1-2.9-0.2-3.8,0.4c-1.1,0.8,0,2,0.5,3c0.6,1.1,1.2,2.3,1.9,3.6c-3.1,0.3-6.8-1-7.5,3.1c-1-0.1-2-0.2-3-0.2
				c-2.1,0-2.4,0.3-2.5,2.3c0,0.2-0.1,0.5-0.1,0.9c-1.1,0.2-2.2,0.4-3.3,0.6c-1.4,0.3-2.6,0.9-2.9,2.2c-0.4,1.5-1.5,1.8-2.9,2.1
				c-0.8,0.1-1.6,0.4-2.4,0.7c0,0.2,0.1,0.3,0.1,0.5c0.7-0.1,1.5-0.2,2.2-0.3c0.7,0,1.4,0,2.4,0c-0.3,0.9-0.5,1.6-0.7,2.4
				c0.7-0.4,1.3-0.7,2.2-1.3C77.3,79.6,76.7,81.3,77.8,82.9L77.8,82.9z"/>
			<path d="M301.4,133.8c0.7-1,1.2-2.1,0.2-3.6c-2.3,0.9-4.6,1.8-6.9,2.7c-0.1-0.1-0.2-0.2-0.3-0.3c0.6-0.6,1.2-1.3,2.3-2.4
				c-1.9,0.5-3.1,0.8-4.3,1.1c0-0.7,0.2-1,0.5-1.2c3.3-1.9,4.9-4.8,6.5-7.7c0.6-1,0.9-2.1-0.5-3.3c-1.9,1-3.9,2-6.4,3.3
				c0.4-0.6,0.7-1.2,1-1.8c0.7-0.6,1.4-1.1,2.1-1.7c0,0.1,0.1,0.3,0.1,0.4c0.8-0.3,1.4-0.6,2.1-0.8c2-0.7,3.3,0,3.2,1.9
				c-0.1,1-0.4,2.1-0.9,3c-1.2,2-2.6,3.9-3.9,5.7c1.5,1.3,3.1,1,4.8,0.4c1.6-0.5,2.5,0.2,2.2,1.7c-0.2,1.2-0.7,2.5-1.4,3.6
				c-1.8,2.7-4.8,4-8,4.9c-1.1,0.3-2.3,0.4-3.4,0.6l-0.1-0.5c0.9-0.2,1.8-0.4,2.8-0.7C296.4,138.1,299.4,136.7,301.4,133.8z"/>
			<path d="M344.2,57.6c2-1.6,1.5-4.3,4-5.6c1.5,0.6,1.3,1.8,1,2.8c-0.5,1.6-1.2,3.2-1.9,4.7c-0.2,0.5-0.4,1-0.8,1.9
				c0.7-0.3,1.2-0.4,1.3-0.6c1.4-2.4,2.5-4.8,2.3-7.5c0-0.5,0-1-0.2-1.4c-0.5-1.3-1.6-1.5-2.7-0.6c-0.6,0.5-1.1,1.2-1.8,2.1
				c-0.3-0.6-0.5-1.1-0.7-1.5c-0.2-0.5-0.3-1.1-0.5-1.6c-1-2.5-2.1-2.9-5.1-2.3c-1-1.4-1.9-2.8-3-4.2c-0.4-0.5-0.9-1-1.4-1.4
				c-1.9-1.5-3.3-1.1-3.9,1.1c-0.2,0.9-0.3,1.9-0.4,3.1c-0.5-0.5-0.8-0.9-1.2-1.3c-1-0.9-2-1.9-3-2.7c-0.8-0.6-2-1.2-2.9-0.5
				c-0.7,0.6-0.8,1.6-1.2,2.5c-0.1,0.1,0,0.3,0,0.5c1,3.3,1.9,6.6,2.9,10c0.1,0.2,0.5,0.4,1.2,0.4c-0.4-1.3-0.9-2.6-1.3-3.9
				c-0.4-1.4-0.8-2.8-1.3-4.2c-0.4-1.4-0.9-2.8,0-4.4c0.6,0.2,1.3,0.3,1.9,0.6c2.4,1.4,3.8,3.5,4.9,5.8c0.3,0.7,0.6,1.4,1.2,2.1
				c0.9-1.5-0.1-2.9,0-4.4c0-1.5-0.3-3,0.7-4.4c3.4,0.9,6,5.1,5.2,7.9c-0.3,1.1-0.4,2.3-0.4,3.5c0,0.5,0.5,0.9,1.1,2
				c0.5-1.1,0.9-1.7,1-2.3c0.1-0.9,0-1.8,0-2.6c0-1.1,0.2-2.2,1.7-2.4c1.5-0.2,2,1,2.3,1.9c0.4,1.5,0.6,3.1,0.8,4.7
				C344.2,56.1,344.2,56.9,344.2,57.6z"/>
			<path d="M169.5,46.1c0.9,1,1.8,1.9,2.9,3.2c-3.6-0.2-6.8-1-10.2,0.6c-0.7-0.7-1.4-1.5-2.1-2.2l0.1,0c-0.6,0.5-1.2,0.9-1.8,1.4
				c1,1.2,1,1.2,2.3,0.3c1.5,1.7,3.1,3.5,4.8,5.4c-2,0.3-4.2-0.4-5.6,1.5c0.4,0.5,0.8,1,1.3,1.7c-2.5,0.6-3.8,2-3.3,4.5
				c0.2-0.5,0.4-1,0.6-1.4c0.9-1.9,3.5-2.6,5.3-1.4c0.4,0.3,0.8,0.9,0.8,1.3c0,0.3-0.7,0.7-1.1,0.9c-0.6,0.2-1.2,0.2-1.8,0.2
				c-1.9,0.2-3,1.1-3.6,2.7c0.3,0.1,0.6,0.2,0.6,0.1c1.3-1.7,3.4-1.8,5.4-2.3c1.2-0.3,2-0.1,2.8,0.7c0.5,0.6,1.2,1,2.1,1.2
				c-0.7-1-1.5-1.9-2.1-2.9c-0.6-1-0.9-2.2-1.3-3.3c1.6-0.8,3.2-0.3,4.4,1.4c0.7,0.9,1.3,1.9,2,2.8c0.1,0.1,0.3,0.1,0.7,0.2
				c0-1.8-2.7-3.3-0.9-5.2c2.3,0.1,2.6,2.2,4.2,3.2c0-2.4-2-4.6-4.1-4.2c-1.6,0.3-2.6-0.3-3.6-0.9c-2-1.2-3.9-2.6-4.7-5.1
				c3.7-2.1,7.3,0.1,10.8,0.2C173.9,48.9,171.7,47,169.5,46.1L169.5,46.1z M165.6,56c-2.3,1.9-2.5,1.8-3.6,0C163,56,164,56,165.6,56
				z"/>
			<path d="M71.1,45.6c0.3,0.6,0.5,1.4,1,1.9c1.2,1,1.5,2.1,1.2,3.5l-0.1,0c0.7-0.6,1.5-1.1,2-1.6c-0.8-2.2-1.5-4.3-2.3-6.7
				c2.4,1.1,4.4,2.1,6.4,3c2.3,1,4.7,1.5,7.3,1.1c1.5-0.2,2.6,0.2,3.7,1c1.5,1,3,2,4.4,2.9c4.9-1.7,5.5-5.4,4.5-8.4
				c-0.7-2-2.2-2.4-4-1.1c-1.4,1-2,2.4-2.4,3.9c-0.2,0.7-0.4,1.5-0.7,2.3c-2.8-0.4-4-2.1-5-3.8c2.2-3.7,2.3-5.2,0.7-8.5
				c0,2.7,0.9,5.5-1.6,7.5c-0.3,0-0.6,0-0.7,0c-3-2.6-6.7-2.1-10.3-1.8c-1.4,0.1-2.8,0.4-4.2,0.7c-1.1,0.2-1.5,1-1.3,1.8
				C70,44,70.7,44.8,71.1,45.6c-0.2-0.9-0.8-1.8,0-2.9c1.7,1,1.8,2.4,1.9,4.2C72.2,46.3,71.7,46,71.1,45.6z M98.7,44.6
				c-0.3,0.9-0.7,2.2-1.3,3.4c-0.6,1.2-1.8,1.5-2.9,1.1c-1.2-0.5-1.5-1.3-1.2-2.4c0.3-1,0.5-2,0.9-3c0.3-0.7,0.9-1.4,1.6-1.9
				c1.2-0.8,2.2-0.4,2.6,0.8C98.6,43.1,98.6,43.6,98.7,44.6z M74.7,41.6c3.7-0.1,6.9-1.1,9.8,1.8c-0.9,0.2-1.5,0.3-2.1,0.5
				c0.8,1.9,3.3-0.4,4,1.4C83.5,46.7,77.8,45.1,74.7,41.6z"/>
			<path d="M303,108.5c0.4-0.2,0.7-0.3,1.1-0.5c1.3-0.6,1.8-1.5,1-2.8c-0.3-0.4-0.5-0.9-0.7-1.3c0.2-0.8,0.3-1.6,0.4-2.4
				c0.3-0.3,0.5-0.6,0.7-1.1c1.1-2.4,3.3-3.6,6.1-3.6c2.5,0,5.1,0.4,5.9,3.1c1.6-0.4,2.3-2.1,4.3-1.4c0,0.6,0.1,1.3,0.1,2.1
				c1.8-0.4,3.4-0.8,5.1-1.1c1.9-0.3,3.6,0.5,4.1,1.6c1,2.2-1,6.3-3.5,7.1c-1.1,0.4-2.2,0.5-2.9-0.6c1.4-0.4,3.1-0.5,3.7-1.3
				c1-1.1,1.3-2.7,1.7-4.2c0.2-0.9-0.6-1.5-1.5-1.7c-0.8-0.1-1.6-0.2-2.4,0.1c-2,0.6-3.9,1.3-6.1,2c0.2-1,0.3-1.9,0.6-3.3
				c-2.2,0.8-3,2.5-4.3,3.6c-1.3,1.1-1.5,3-4.1,3.7c0.6-1.4,1-2.3,1.5-3.2c0.5-0.9,1.1-1.6,1.6-2.5c0.9-1.5,0.6-2.3-1.1-3
				c-3.4-1.4-7.7,0.6-8.3,3.8c-0.1,0.4,0,1,0.2,1.3c1.6,3.1,1.5,3.7-1.6,5.8c-0.3,0.2-0.5,0.4-0.9,0.7c0.5,0.4,0.9,0.7,1.7,1.4
				c-1.2-0.4-2.3-0.5-3.4-0.5C302.4,109.8,302.7,109.1,303,108.5z"/>
			<path d="M135.1,48.9c0.4,0.3,0.7,0.7,1,1c0.6,0.6,1.2,1.3,1.8,2c3.3-2.6,5.1-2.3,7.2,1.1c0.2,0.4,0.5,0.7,1,1.2
				c0.2-0.5,0.3-0.8,0.5-1.1c0.4-1,0.9-2.1,2.3-2c1.5,0,2,1.1,2.4,2.2c0.9,2.5,0.4,7.8-1.3,10.4c0.2-1.1,0.3-1.8,0.3-2.5
				c0.1-2.2,0.2-4.3,0.2-6.5c0-1.1-0.3-2.2-2.1-2.8c-0.5,0.9-1,1.8-1.3,2.8c-0.3,0.9-0.3,1.9-0.4,2.8c-0.1,0.9,0.4,1.9-0.7,3
				c-0.3-1.6-0.5-3-0.9-4.3c-0.4-1.2-0.8-2.5-1.6-3.5c-0.5-0.6-1.5-1.1-2.4-1.2c-1.2-0.1-1.7,0.9-1.8,1.8c-0.1,1.5,0.1,3,0.2,4.5
				c0.1,0.8,0.6,1.6-0.6,2.8c-0.4-1.4-0.7-2.3-0.8-3.3c-0.3-2.9-1.6-5.4-3.8-7.5c-0.7-0.6-1.6-1-2.7-1.7
				C132.8,48.5,134,48.8,135.1,48.9z"/>
			<path d="M124.4,52.9c1.5,0.2,2.8,0.9,4.2,1.4c0.8,0.3,1.2,1.1,2.4,0.9c-0.2-0.9-0.4-1.7-0.5-2.4c-0.2-1-0.6-2.1-0.5-3.1
				c0-0.7,0.3-1.5,0.7-2c0.3,0.1,0.7,0.3,1,0.4c-1.1,4.5,1,8.2,1.2,12.2c-1.3-0.3-2.1-0.6-1.9-1.9c0.1-0.4-0.1-1.1-0.4-1.3
				c-1.8-1.2-3.7-2.4-5.7-3.4c-0.8-0.4-1.5,0.2-1.5,1.2c0.1,0.8,0.2,1.5,0.3,2.3c-0.5-0.7-1.1-1.4-1.3-2.2
				C122,53.5,122.8,52.6,124.4,52.9z"/>
			<path d="M368.6,85.4c1.5,2.2,3.6,3.8,6,5c2.5,1.2,5,1.1,7.5,0.3c2.1-0.7,3.2-2.4,2.8-4.4c-0.4-1.7-1.1-3.2-2.8-4.2
				c-1.5-0.9-2.9-1.8-4.4-2.8c0.3-0.5,0.4-0.7,0.6-1c1.2-1.9,1-3.2-1-4.6c-0.8-0.5-1.7-0.9-2.5-1.4c-0.7-0.4-1.5-0.8-2.5-1.4
				c1.5-0.6,2.7-0.9,3.8-1.4c1.3-0.6,1.3-1.4,0.3-2.3c-0.7-0.6-1.6-1-2.5-1.4c-1.5-0.8-3-1.5-4.4-2.2c0.3-1.1,0.8-2,0.8-2.9
				c0-0.6-0.9-1.2-1.6-2c-0.1,0.5-0.2,0.7-0.1,0.8c0.4,0.6,1.6,1.2,0.7,2c-0.5,0.5-1.6,0.6-2.4,0.5c-1.5-0.1-2.9-0.4-4.5-0.6
				c-0.2,1.6,0.8,1.9,1.9,2.1c3.3,0.7,6.6,1.4,9.5,3.1c0.8,0.5,1.5,1,2.4,1.7c-2.1,1.8-4.8,1.1-7.6,2c1.4,0.8,2.3,1.3,3.2,1.7
				c1.3,0.6,2.6,1.1,3.9,1.7c0.6,0.3,1.2,0.7,1.8,1.1c0.7,0.6,1.5,1.5,0.7,2.3c-0.5,0.6-1.6,0.9-2.5,1.1c-0.7,0.1-1.5-0.2-2.5-0.4
				c0.4,1.2,1.3,1.4,2.1,1.6c2.7,0.7,4.7,2.2,6.8,3.8c0.5,0.4,1,0.9,1.4,1.5c1.6,2.5,0.5,4.8-2.7,5.5c-2.1,0.5-4.1,0.1-5.9-0.9
				c-1.4-0.8-2.6-1.6-4-2.5C370,86.2,369.3,85.8,368.6,85.4z"/>
			<path d="M114.3,161.4c0.3,1,1,1.9,1.8,2.4c1.5,0.9,3,1.5,4.6,0.1c0.3-0.3,1.4-0.4,1.6-0.1c0.7,0.6,0,1.1-0.6,1.5
				c-0.4,0.3-0.9,0.5-1.4,0.7c-1.8,0.9-2.3,2.3-1.4,4c0.2,0.4,0.4,0.7,0.7,1.3c-2-0.9-2.6-1.3-2.2-2.5c0.9-2.5-0.5-3.7-2.6-4.8
				c-0.4-0.2-0.7-0.5-1-0.8c-0.4-0.4-0.7-0.7-1-1C113.3,161.9,113.8,161.7,114.3,161.4z"/>
			<path d="M248.9,46.3c-2,0.7-4,1.3-6.3,2.1c0.8,1.3,2,1.5,3.2,1.6c1.3,0.2,2.7,0.2,3.9,0.6c2,0.5,2.5,1.8,1.4,3.3
				c-1.2,1.8-2,4.1-5.8,3.7c2.4,1.3,2.7,1.3,3.8,0.2c1-0.9,1.9-1.9,3-3.1c1,1.3,1.8,2.3,2.8,3.6c-2.5,0.4-5,0-6.1,2.3
				c-0.4,0.9-0.8,1.7,0,2.7c0.2-0.1,0.5-0.2,0.5-0.3c0.6-2.9,1.7-3.6,4.9-3.3c1.4,0.2,2.7,0.5,4.6,0.9c-0.5-0.6-0.8-1-1.2-1.4
				c-1.3-1.2-2.6-2.4-3.8-3.7c-0.3-0.4-0.5-1.2-0.3-1.5c0.4-0.4,1.2-0.7,1.8-0.6c3,0.3,4.5,2.2,5.7,4.5c0.1,0.3,0.2,0.6,0.6,0.9
				c0.1-0.4,0.3-0.8,0.2-1.1c-0.7-2.7-3.7-5-6.9-5.3c-1.4-0.1-2.4-0.4-3.3-1.6c-0.6-0.8-2.1-1-3.2-1.4c-1-0.3-2.1-0.3-3.1-0.4
				c0-0.2-0.1-0.3-0.1-0.5c1.7-0.7,3.3-1.4,5-2.1c-0.3-1.5-1.2-1.7-2.4-1.8c-1.6-0.1-2.9-0.4-3.8-1.8c-0.3-0.5-1.5-0.9-2.3-1
				c-3.3-0.3-7.1,1.9-8.4,4.7c1.7-1.1,3.3-2.4,5.1-3.5c1.7-1,2.9-0.9,4.9,0.3c-0.7,1.8-3.2,0.6-4.2,2.2c1.8,0.8,3.3-0.5,4.9-0.4
				c1.5,0.1,3.1,0.3,4.6,0.4C248.9,45.9,248.9,46.1,248.9,46.3z"/>
			<path d="M194.9,150.6c0.8-0.2,1.3-0.4,1.7-0.8c0.6-0.3,1.1-0.5,1.7-0.8c-0.1,0.5-0.2,1-0.3,1.5c1,1.4,1.9,2.5,2.7,3.7
				c2.3-0.2,4.7,1.2,5,2.9c0.3,1.6-0.9,3.1-3.1,3.5c0.6-0.8,1.2-1.3,1.6-2c0.7-1.2,0.4-2-1-2.4c-1.3-0.4-2.6-0.4-3.9,0
				c-1.4,0.5-2.9,0.9-4.3,1.2c-1.5,0.3-1.7,0.2-2.1-1.6c1.9-0.2,3.6-0.7,4.1-3c-2.1,0.6-4,2.1-5.7-0.1c0-0.3,0.1-0.5,0.2-0.7
				C192.6,151.6,193.8,151.1,194.9,150.6z"/>
			<path d="M211.6,141.5c-0.1,0.3-0.3,0.6-0.6,0.9c-0.8,0.9-2.4,1.6-4.1,1.8C208.5,143.4,210.1,142.5,211.6,141.5z"/>
			<path d="M39.2,120.9c0.7,1.1,1.3,2.2,2.1,3.4c-1.5-0.2-2.8-0.6-4.1-0.6c-1,0-2.2,0.4-2.8,1c-0.9,0.8-0.2,1.8,0.5,2.6
				c0.6,0.8,1.2,1.5,2,2.5c-1.7-0.1-3.2-0.4-4.7-0.3c-0.9,0-2,0.4-2.5,1c-0.8,0.9-0.1,1.9,0.6,2.6c0.9,0.9,1.9,1.7,2.9,2.5
				c0.6,0.5,1.1,0.9,1.8,1.4c-1,0.7-1.9,1.1-2.6,1.7c-1.4,1.3-1.2,3,0.6,3.8c3.7,1.6,7.6,2.8,11.8,2.7c0.8,0,1.6-0.3,2.3-0.8
				c-3.8,0.2-7.3-0.8-10.8-1.6c-0.8-0.2-1.6-0.6-2.4-0.9c-2.1-0.8-1.5-2.8,0.4-3.4c0.9-0.3,1.9-0.4,2.9-0.5c0.4-0.1,0.9-0.1,1.9-0.2
				c-1-0.5-1.4-0.8-1.9-1c-2.3-0.9-4.5-2-5.9-4c-0.4-0.5-0.8-1.4-0.5-1.7c0.4-0.5,1.4-0.7,2.1-0.7c2.9,0,5.3,1.2,7.9,2.2
				c0.7,0.3,1.3,0.5,2,0.8c0.1-0.1,0.2-0.3,0.2-0.4c-1.6-1.1-3.2-2.2-4.7-3.4c-0.9-0.7-1.8-1.6-2.4-2.5c-1-1.4-0.4-2.2,1.4-2.5
				c1.9-0.2,3.5,0.5,5.1,1.2c0.6,0.3,1.2,0.7,2.1,1.2c-0.2-1.7-1.6-2.3-2.3-3.3c-0.7-1-1.6-1.9-2.4-2.9
				C39.4,120.8,39.3,120.9,39.2,120.9z"/>
			<path d="M250.3,18.1c0.2-0.8,0.3-1.3,0.4-1.7c0.2-1-0.4-1.5-1.4-1.8c-0.5-0.1-1.1-0.2-1.6-0.2c-2.3,0.1-4.5,0.7-6.8,0.9
				c-2.2,0.2-3.5,2.1-4.1,4.1c-0.4,1.3-0.3,2.7-0.3,4.1c1.9-6.6,1.9-6.6,5.1-7.5c0,0.6,0,1.2,0,1.8c1,0.5,2,0.4,2.3-0.6
				c0.6-2,2.4-2,4-2c1.7,0,2.3,0.9,1.3,2.2c-0.8,1-2,1.8-3,2.7c-0.5,0.4-1.1,0.7-1.5,1.2c1.5,0.3,2.6-0.5,3.6-1.1
				c2.5-1.6,5.3-1.9,8.2-1.7c1.8,0.1,2.6,0.5,4.1,2c-1.5,0.9-2.9,1.9-4.4,2.8c0,0.2,0.1,0.3,0.1,0.5c0.7,0,1.4,0,2.2,0.1
				c2.4,0.1,3,0.9,2.4,2.9c-0.9,3-3,4.8-6.7,4.8c3.6,1,5.5,0.2,7-2.6c0.2-0.4,0.4-0.9,0.6-1.3c1.1-2.7,0.8-3.4-2.2-4.8
				c0.9-0.9,1.7-1.7,2.6-2.7C258.8,16.4,254.7,17.3,250.3,18.1z"/>
			<path d="M48.2,152.4c0,0.7-0.4,1.3-1.1,1.7c-0.6,0.4-1.2,0.6-1.9,0.7C46.3,154.1,47.3,153.3,48.2,152.4z"/>
			<path d="M304.6,117c4-0.9,7.8-0.9,11.3,1.6c-1.7,2.7-5.2,1.1-7.7,3.1c1.4,0.1,2.3,0.3,3.2,0.3c1.8,0.1,3.3,0.8,4.3,2.1
				c1,1.2,0.6,2.2-1,2.4c-1.3,0.2-2.7,0-4-0.2c-0.9-0.1-1.9-0.5-3-0.8c2,1.9,5.3,2.8,7.7,2.1c2.1-0.6,2.6-2.1,1.3-3.8
				c-0.7-0.8-1.5-1.6-2.2-2.3c0.1-0.2,0.1-0.4,0.2-0.5c3-2.1,2.8-3.1-0.5-4.5c-1-0.4-2.1-0.8-3.2-1.2c0-0.7,0.3-1.7-0.1-2.2
				c-0.7-0.8-1.9-1.2-2.9-1.8c-0.2,0.2-0.4,0.5-0.7,0.7c0.8,0.4,1.7,0.7,2.5,1.1c-0.1,0.1-0.3,0.2-0.4,0.3c-2.5,0-5.1,0-7.6,0
				c-0.1,0.2-0.1,0.3-0.2,0.5c1.3,0.5,2.6,1,3.9,1.5C305.5,116.1,303.9,115.9,304.6,117z"/>
			<path d="M76.6,158.4c0.1,0.1,0.2,0.2,0.3,0.2c-1.6,3.2-1.2,6.4-0.4,9.6c0.4,1.7,1.8,2.1,3.4,1.1c1.4-0.9,2.2-2.1,1.8-3.7
				c-0.2-0.8-0.5-1.8-0.3-2.6c0.1-0.4,0.5-0.9,1-1.1c0.6,0.3,1.2,0.5,1.8,0.8c0,0.3,0,0.5,0,0.9c-0.7-0.4-1.2-0.6-2.3-1.2
				c0.1,1.2,0.2,2,0.3,2.7c0.7-0.1,1.2-0.1,1.8-0.2c-0.1,0.6-0.3,1.1-0.3,1.6c-0.1,1.3,1.2,3,2.6,3.6c1.2,0.5,2.2,0.1,3.4-1.2
				c1.1-1.2,1.7-2.5,1.5-4c0.6,0.1,1.1,0.2,1.7,0.3c0,0.6,0.1,1.3,0.4,1.7c1,1.5,2.6,1.3,3.4-0.3c0.2-0.4,0.3-0.7,0.4-1.1
				c0.3,0,0.7,0,1,0c-0.1,0.8-0.4,1.5-0.8,2.3c-0.7,1.3-1.7,1.6-3.1,0.9c-0.7-0.3-1.3-0.7-2-1.1c-4.3,4.8-4.3,4.8-9.4,1
				c-0.9,0.6-1.7,1.4-2.6,1.9c-2,1.1-3.9,0.6-4.5-1.2c-1.1-3.5-0.8-7,0.5-10.4C76.3,158.6,76.4,158.5,76.6,158.4z"/>
			<path d="M243.6,10.1c1.1-2.3-1.1-4.4-0.1-6.9c3.7,2,3.9,5,3.3,8.3c1.4-0.3,1.5-1.1,1.7-1.9c0.6-3.2,4-5.4,7.6-5.1
				c1.1,0.1,1.4,0.7,1.1,1.5c-0.6,1.5-1.3,3-3.2,3.6c-1.8,0.5-2.4,1.7-2.3,3.4c1.3,0.1,1.8-0.8,2.5-1.3c1.6-1.2,4-1.4,5.6-0.4
				c1,0.6,1.4,1.7,0.5,2.4c-0.8,0.7-2,1.2-3.2,1.6c-0.6,0.2-1.3,0.1-2,0.4c1.4,0.8,2.8,0.8,4.1,0.1c1.4-0.7,2.6-1.8,2.6-3.4
				c0-1.3-0.6-2.1-2-2.5c-0.9-0.2-1.9-0.4-3.1-0.7c0.5-1,0.9-1.9,1.2-2.7c0.7-1.9,0-2.9-2.2-2.7c-1.9,0.2-3.7,1-5.5,1.6
				c-0.6,0.2-1.2,0.7-1.9,1c-0.4-0.5-0.8-0.8-1.1-1.2c-0.3-0.5-0.6-1-0.9-1.4c-1-1.3-2.7-2.2-3.5-1.7c-1.4,0.8-0.8,2.1-0.6,3.1
				C242.5,6.9,243.1,8.5,243.6,10.1z"/>
			<path d="M308.7,34c1.8,0.4,2.1-0.5,2.6-1.1c0.3-0.4,0.4-0.9,0.8-1.2c0.4-0.4,1.3-1.1,1.5-1c0.6,0.4,1.2,1,1.4,1.6
				c0.2,0.8,0,1.7,0.3,2.7c0.7-0.7,1.4-1.3,2-2.1c2.2-2.9,5.5-3.3,9-3c1,0.1,1.8,0.5,1.5,1.6c-1.1,3.9-3.4,7-7.1,9.3
				c-0.1,0.1-0.4,0-0.5,0.1c-0.2,0-0.3,0.1-0.6,0.3c0.2,0.8,0.6,1.4,1.6,0.7c3.8-2.6,6.6-5.8,7.6-10.1c0.4-1.8-0.3-2.7-2.5-2.8
				c-3.7-0.2-7.2-0.1-9.7,3.4c-1.7-1.7-3.3-3.2-4.6-4.7c-1.7-2-4.5-2.1-6.3,0c-0.8,0.9-1.2,2.1-1.7,3.2c-0.3,0.7-0.3,1.6-0.4,2.4
				c-0.1,0.6,0,1.3,0.3,2c0.2-0.4,0.4-0.7,0.4-1.1c0.2-1.1,0.3-2.2,0.7-3.3c0.4-1.1,1-2.3,1.8-3.2c1.1-1.2,2.6-1.2,3.8-0.3
				c1.2,0.9,1.4,2.1,0.5,3.4C310.4,31.7,309.6,32.7,308.7,34z"/>
			<path d="M111.8,58.1c0.1-2.7-3.3-4.4-0.8-7.1c0.9,0.7,1.7,1.3,2.8,2.1c0.3-1.7-2-2.9-0.6-4.7c0.6,0.3,1.2,0.5,1.7,0.9
				c2.5,2.1,4.2,4.6,4.8,7.6c0.2,1.2-0.4,2.5-0.6,3.8c0.9-0.3,1.4-1,1.5-2c0.1-0.9,0.2-1.8-0.1-2.6c-1.1-3.1-2.9-5.8-5.7-8
				c-1.8-1.4-2.4-1-3.4,0.9c-0.5,1-1.6,1.7-2.5,2.6c-1.1-0.8-2-1.6-3-2.2c-0.9-0.6-1.8-1.1-2.8-1.5c-0.9-0.4-2-1-2.7,0
				c-0.4,0.6-0.2,1.6,0,2.4c0.1,0.7,0.7,1.3,1,2c0.3,0.7,0.6,1.4,1,2.6c-1.5-0.5-2.4-0.8-3.5-1.1c1.3,1.8,2.8,2.5,5.9,2.7
				c-0.8-2.6-3.4-4.6-3.5-7.6c0.6,0.1,1.3,0,1.7,0.2c2.7,1.1,4.7,2.9,6,5.2C109.6,55.4,110,56.8,111.8,58.1z"/>
			<path d="M190,44.3c1.8-1.5,3.3-3,2.6-5.5c-0.4-1.4-0.3-2.9,0-4.5c0.6,0.7,1.2,1.4,1.7,2.1c0.2-0.1,0.4-0.1,0.6-0.2
				c-0.1-0.7-0.3-1.5-0.4-2.2c-0.1-1.1-0.4-2.2-0.2-3.3c0.1-0.6,0.9-1.4,1.6-1.7c0.5-0.2,1.5,0.4,2,0.8c0.6,0.5,0.9,1.3,1.4,2
				c0.2,0.2,0.5,0.3,1.2,0.8c-0.8-2.6-2.8-4.6-1.4-7.3c0.4,0.1,0.7,0.3,1,0.4c0.2,0.1,0.4,0.1,1.2,0.2c-0.8-0.9-1.3-1.5-1.8-2.1
				c-2.3,0.8-1.3,2.7-2,3.9c-5.9,0.8-6.2,5-6.4,9.2c-0.2,0-0.4,0-0.6-0.1c-0.4-0.6-0.7-1.2-1.1-1.7c-1-1.3-2.1-2.6-3.3-3.7
				c-0.4-0.4-1.4-0.6-1.9-0.4c-0.5,0.2-0.9,1-0.9,1.6c0.1,1,0.5,1.9,0.7,2.9c0.2,0,0.3-0.1,0.5-0.1c0-1.1,0-2.1,0-3.6
				c2.7,1.5,4,3.5,5.1,5.6C190.9,39.6,191.6,41.9,190,44.3z"/>
			<path d="M375.8,137.7c0.8-2.5,0.2-3.5-2.9-4.1c-2.7-0.5-5.2-0.1-7.1,1.8c-0.4,0.4-0.7,1-0.8,1.7c1.2-1.5,2.8-2.4,4.8-2.8
				c1.5-0.3,2.8-0.1,4.1,0.5c1.6,0.7,1.6,1.9,0.1,2.7c-0.7,0.4-1.5,0.5-2.2,0.8c-0.7,0.3-1.5,0.5-2.2,0.8c-0.1,0-0.2,0.2-0.4,0.6
				c3,0.5,6.1-2.2,9.3,0.3c-0.7,0.5-1.1,0.8-1.6,1c-0.5,0.2-1.1,0.4-1.7,0.6c0.3,1.1,1.1,0.8,1.7,0.8c1.1-0.1,2.3-0.3,3.4-0.3
				c1.5,0.1,2.9,0.7,3.4,2c0.6,1.4,0,2.7-1.2,3.7c-1.9,1.6-4.2,2.3-6.8,2.3c-0.7,0-1.4-0.1-2.3,0.1c0.6,0.2,1.2,0.5,1.9,0.7
				c3.5,0.8,7.5-0.8,9.2-3.6c1.4-2.4,0.9-4.2-1.7-5.5c-1.6-0.8-3.3-1.4-4.4-2.9C378.1,138.4,376.8,138.2,375.8,137.7z"/>
			<path d="M76.4,107.3c-1.6,0.3-1.9,0.7-2.6,1.6c0.2,0.1,0.4,0.2,0.6,0.3c-0.2,0.2-0.5,0.5-0.7,0.7c-0.4-0.3-0.7-0.6-0.8-0.9
				c-0.1-0.5,0.6-1.4,1.1-1.6c1.1-0.4,2.2-0.7,3.4-1C77.1,106.7,76.7,107,76.4,107.3z"/>
			<path d="M77.2,101.8c0.8,1,1.8,1.8,3,2.4c-0.2,0.2-0.4,0.3-0.6,0.5c-0.9-0.6-1.7-1.2-2.4-1.7c-1.2-1-0.9-2.2,0.6-2.5
				c1.7-0.3,3.5-0.6,5.1,0.3C81,101.1,78.8,100.1,77.2,101.8z"/>
			<path d="M45.1,30.8c1.8,2.1,3.4,4.3,3.8,7c-0.2,0.2-0.3,0.3-0.5,0.5c-1-0.5-2.1-0.9-3.1-1.5c-1.5-0.9-3-2-4.4-3.1
				c-0.7-0.6-1.3-1.3-1.8-2.1c-0.7-1.1-1.1-2.2-0.4-3.4c0.8-1.3,2.2-0.7,3.4-0.6c-0.8-1-2-1.5-3.2-0.9c-1.2,0.6-1.6,1.7-1.5,2.9
				c0.2,1.5,0.7,3,2.1,4c1.8,1.4,3.6,2.8,5.5,4.2c0.5,0.4,1.1,0.8,1.5,1.1c-1.6,0.8-3.2,1.5-4.8,2.4c-0.6,0.3-1,0.9-1.4,1.4
				c-0.8,1.3-0.4,2.2,1.3,2.4c2.9,0.3,5.9,0.5,8.8,0.6c1.3,0.1,2.6,0,4,0c0.3,0,0.6-0.3,0.9-0.6c-4.7-0.4-9.5,0.2-14-1.2
				c1-3.2,2.8-3.9,8.4-3.3c-0.1-1-0.2-2-0.2-2.9c-0.1-2.4-1.5-4.4-3.1-6.2C46.2,31,45.5,30.9,45.1,30.8z"/>
			<path d="M4.2,90.6c-0.6,1.1-1.6,2-1.5,2.8c0.2,1.2,1.6,1.5,2.9,1.8c1.6,0.3,3.2,0.7,5,0.8c-2.1-1.3-5.1-0.9-6.7-2.9
				c1.8-2.6,4.1-0.1,6.2-0.6c-0.6-1.1-1.7-1-2.5-1.3c-1.6-0.6-3.2-1.1-3.9-2.7c-0.5-1-0.8-2,0-3c0.8-1,2-1.1,3.1-0.9
				c1.7,0.3,3.4,0.9,5.1,1.3c0.6,0.1,1.1,0.3,1.9,0.2c-0.4-0.3-0.7-0.8-1.1-1c-1.8-1-3-2.5-3.7-4.3c-0.5-1.2-0.7-2.5,0.4-3.6
				c1.2-1.1,2.7-1,4-0.5c1.5,0.5,2.9,1.2,4.2,2.1c1.4,0.9,2.7,2,4.1,2.8c-2-3-5.1-4.8-8.6-5.9c-1.4-0.4-3.1-0.5-4.3,0.6
				C7.4,77.6,7.4,79.3,8,81c0.3,0.9,0.8,1.7,1.4,2.9c-1.3-0.1-2-0.1-2.8-0.2c-3.4-0.2-5.2,2-3.8,4.8C3.1,89.3,3.7,90,4.2,90.6z"/>
			<path d="M315.3,142.7c0.8-0.5,1.5-1,2.4-1.6c-0.9-1.1-1.8-2.1-2.7-3.2c0.3-0.2,0.5-0.5,0.9-0.7c1.1-0.7,0.9-1.5,0.1-2.2
				c-1.5-1.2-3.1-2.3-4.7-3.4c-0.1,0.2-0.3,0.3-0.4,0.5c1.5,1.2,3.1,2.4,4.8,3.7c-2.8,1.5-5.3-0.5-7.8,0.2c2.8,1.4,6.2,1.9,8.2,5
				c-1.8,0.3-3.3,0.5-5.2,0.8c0.7,0.4,1,0.6,1.4,0.9c1.3,0.9,2.8,1.7,4,2.7c1.2,1.1,0.6,2.3-1.2,2.4c-0.9,0.1-1.8,0-2.6-0.3
				c-2.2-0.7-4.3-1.6-6.4-2.4c-0.6-0.2-1.3-0.5-2-0.5c2,1.7,4.3,2.8,6.7,3.7c1.2,0.4,2.6,0.7,3.9,0.8c1.3,0.1,2.5-0.1,3.2-1.4
				c0.6-1.2,0.2-2.2-0.7-3.1C316.5,144,315.9,143.4,315.3,142.7z"/>
			<path d="M86.7,54.8c-0.7-2.3-2.5-3.7-5.2-5c0.4,2.2,0.7,4,1.1,6.2c-1.3-0.4-2.1-0.6-2.9-0.8c-2.8-0.9-3.9-0.2-4.1,2.5
				c0,0.2-0.1,0.3-0.2,0.7c-0.6,0-1.3,0-2-0.1c-1.6-0.2-3,0.2-4,1.5c-0.9,1.2-0.7,2.6,0.2,3.6c1.1,1.3,2.5,2.5,3.9,3.6
				c0.9,0.7,2.1,1.2,3.2,1.7c0.4,0.2,0.9,0.1,1.5-0.2c-0.9-0.5-1.8-0.9-2.7-1.4c-1.5-1-3.1-1.9-4.4-3.1c-1.4-1.3-1.5-3-0.6-3.9
				c0.8-0.9,2.5-1.2,4.2-0.5c1,0.4,1.8,1,2.7,1.6c0.9,0.6,1.8,1.3,2.7,2c0.1,0.1,0.3,0,0.7,0.1c0-1-1.1-1.4-1.6-2
				c-0.8-1-1.8-2-2.3-3.1c-0.7-1.6,0.5-2.6,2.3-1.9c1.2,0.5,2.3,1.4,3.3,2.2c0.5,0.4,0.8,1,1.5,1.9c0.6-2.9-1.5-5.2-0.6-8
				C84.6,53.2,85.7,54,86.7,54.8L86.7,54.8z"/>
			<path d="M181.6,75.9c-2.5-1.5-4.9-3-6.4-5.4c-0.6-0.9-0.9-2.1-0.9-3.1c0-1.3,0.9-1.8,2.4-1.5c1.9,0.4,3.3,1.5,4.4,2.9
				c1,1.3,2.1,2.5,3.5,4.2c0.4-1.6-0.5-2.1-1-2.7c-1-1.2-1.8-2.4-1.8-3.9c0.1-1.8,1.3-2.7,3.2-2.2c1.8,0.4,3,1.4,3.8,2.8
				c0.5,0.8,0.8,1.6,1.3,2.4c0.5,0.7,1,1.4,1.9,2.5c0.6-2-1-2.5-1.3-3.6c-0.3-1.1-0.8-2.2-1.2-3.6c4,0.6,5.3,3.2,6.9,5.6
				c0.1-3.7-3.9-6.8-7.6-6.1c-0.6,0.1-1.3-0.1-2-0.3c-0.7-0.2-1.3-0.5-2-0.6c-1.9-0.3-3.1,0.3-3.7,1.9c-0.2,0.4-0.2,0.9-0.4,1.6
				c-1.2-0.6-2.2-1.2-3.3-1.6c-2.4-0.9-4.1,0.3-3.9,2.6C173.7,71,177.6,75.5,181.6,75.9z"/>
			<path d="M15,117.9c-3,0.7-5.5,0.4-7.9-0.6c-2.2-0.9-2.4-1.9-0.7-3.4c0.8-0.7,1.9-1,3-1.6c-0.5-0.8-1.5-0.7-2.3-0.9
				c-1.2-0.5-2.6-0.8-3.6-1.4c-2.3-1.4-2.3-3.7,0.2-5c0.9-0.5,2.2-0.6,3.3-0.8c0.6-0.1,1.2,0,1.8-0.2c-2.2-1.6-5.5-0.5-7.7-2.3
				C1.9,99.1,5,99,6.6,97.4c-2.6,0-4.6,1.2-6,2.9c-0.9,1.1-0.6,1.8,0.7,2.5c0.5,0.3,1.1,0.5,1.8,0.9c-0.5,0.7-1,1.2-1.4,1.8
				c-1.4,1.9-1.1,3.7,0.9,5c1.1,0.7,2.2,1.2,3.5,1.9c-0.6,0.9-1.1,1.7-1.6,2.6c-0.5,1-0.3,1.9,0.8,2.4c2.3,1.2,4.8,1.8,7.4,1.9
				C13.5,119.4,14.4,119.2,15,117.9z"/>
			<path d="M364.5,109.1c1.3,1.6,2.6,3.2,3.7,4.9c1,1.4,1.9,2.9,2.7,4.4c0.3,0.5,0.1,1.5-0.3,1.9c-0.4,0.4-1.6,0.6-2.2,0.3
				c-1.6-0.8-3.1-1.8-4.6-2.8c-1.2-0.9-2.3-2-3.5-2.9c-0.6-0.5-1.4-0.7-2.3-1.1c-0.1,0.5-0.2,0.7-0.1,0.7c2.6,1.3,4.8,3,6.7,5.1
				c0.7,0.8,1.7,1.6,2.7,1.9c2.1,0.5,3.2,1.9,4.7,3c1.2,0.9,2.5,1.8,3.9,2.4c2,0.8,3,0,3-2c0-0.8,0.2-1.8-1.4-2.2c0,1.1,0,2.1,0,3.3
				c-2.3-0.4-3.9-1.5-5.2-2.8c-0.5-0.4-0.5-1.5-0.3-2.2c0.5-1.3,0.4-2.4-0.4-3.4c-2.1-2.8-4.2-5.6-6.3-8.3c-0.1-0.2-0.4-0.3-0.6-0.4
				C364.7,109,364.6,109.1,364.5,109.1z"/>
			<path d="M181.3,46.1c1.9,2.2,2.5,5.2,4.6,7.3c0.2-0.1,0.4-0.2,0.6-0.2c-0.4-0.9-0.8-1.7-1.1-2.6c-0.2-0.7-0.5-1.6,0.5-1.8
				c0.6-0.1,1.4,0.4,2,0.8c0.6,0.5,1,1.3,1.8,1.8c-0.1-0.8-0.2-1.6-0.1-2.4c0.1-0.6,0.4-1.4,0.9-1.5c0.4-0.2,1.4,0.3,1.7,0.7
				c0.8,1,1.4,2.2,2.1,3.3c0.2,0.4,0.6,0.7,1,1.3c1-1.8-0.1-3.8,1.8-5.2c1.3,1.1,0.8,2.7,1.1,4c0.3,1.4,0.6,2.7,1,4.1
				c0.7-2.9,0.4-5.8-0.5-8.6c-0.3-1.1-1.4-1.3-2.3-0.4c-0.7,0.7-1.1,1.6-1.8,2.6c-0.5-0.5-0.9-0.9-1.3-1.4c-1.9-2.2-3-2.3-5-0.2
				c-1.4,0.1-2.8,0.2-4.4,0.3C183.1,47.4,182.2,46.8,181.3,46.1L181.3,46.1z"/>
			<path d="M223.1,30.5c3.1,1,4.1,3.6,6.3,5.9c-0.1-1.7-0.2-2.8-0.3-4c1.8,1.5,1.8,3.5,2.6,5.7c0.9-2,0-3.4-0.5-4.8
				c-0.5-1.4-0.8-3.1-2.8-4.3c-0.1,1.4-0.2,2.4-0.3,3.7c-1.3-0.9-2.4-1.8-3.6-2.6c-1.5-0.9-2.4-0.6-2.8,1.1
				c-0.2,0.7-0.2,1.4-0.4,2.2c-0.9-0.2-1.5-0.5-2.2-0.6c-1.9-0.4-3.4,0.6-3.5,2.4c-0.1,2.6,1.4,4.6,2.4,6.8c0.2-0.1,0.4-0.1,0.6-0.2
				c-0.1-0.5-0.1-1-0.3-1.4c-0.5-1.4-1.2-2.7-1.7-4c-0.4-1-0.2-2.1,0.9-2.5c0.8-0.2,2,0,2.7,0.4c0.9,0.5,1.5,1.4,2.1,2.1
				c0.7,0.8,1.3,1.7,2.1,2.4C223.9,36.1,221.4,33.7,223.1,30.5z"/>
			<path d="M268.5,170.3c0.2,1,0.5,2,0.8,3.3c-1.1-0.1-1.9-0.1-2.6-0.4c-3-1.2-5.5-2.9-6.6-5.9c-0.2-0.6-0.8-1-1.5-1.4
				c0,2.3,2.3,4.2,1.1,6.7c-2.5-0.3-1.8-3-3.7-3.9c-1.5,2.3,0.9,5-1.1,7.2c-3.1-0.6-3.9-3-5.2-5.1c0.2,2.4,1.3,4.3,3.5,5.7
				c1.6,1,3.3,0.3,3.5-1.5c0.1-0.9-0.1-1.9-0.1-2.9c1,0.6,2,1.5,2.8,1.5c0.9,0,1.7-1,2.8-1.8c0.6,0.4,1.6,1.1,2.7,1.6
				c1.2,0.5,2.5,1,3.7,1.1c1.2,0.2,1.9-0.6,1.6-1.7c-0.3-1-0.8-1.9-1.2-2.8C268.8,170.2,268.7,170.3,268.5,170.3z"/>
			<path d="M217.3,170.9c0.5,0,1.1-0.1,1.6-0.1c2.3,0.2,2.9-0.1,3.5-2.1c0.4-1.3,0.7-2.6,1-4c2.3,1.2,3.8,2.7,5,4.6
				c0.9,1.4,1.8,3.2,4,3.7c1.2-1.9,0.4-3.6-0.9-5.1c0.2,1.2,0.4,2.3,0.6,3.7c-1.8-0.3-2.2-1.5-2.9-2.3c-0.7-0.9-1.3-1.9-1.9-2.9
				c-0.3-0.4-0.5-1-0.9-1.2c-1.8-0.5-2.6-1.8-3.2-3.2c-0.2,0-0.4,0-0.5,0.1c-0.2,1.2-0.3,2.4-0.6,3.7c-0.3,1.2-0.5,2.3-1,3.5
				c-0.2,0.4-0.9,0.6-1.5,0.7c-0.2,0-0.6-0.7-0.7-1.1c-0.1-0.7,0.1-1.4,0.1-2.1c0-2.7-1.4-4.4-4.2-5.2c0.1,0.9,0,1.6,0.2,2.3
				c0.4,1.4,1,2.7,1.5,4.1C216.9,168.9,217.1,169.9,217.3,170.9L217.3,170.9z M218,167.7c-1.1-1.2-2.2-2.5-1.5-4.6
				C217.9,164.6,218.4,166,218,167.7z"/>
			<path d="M228,8.2c-0.8-2.4-2.8-3.8-5.2-4.9c-0.7-0.3-2-0.2-2.7,0.1c-0.5,0.3-0.7,1.5-0.5,2.1c0.4,1.5,1.1,2.8,1.9,4.6
				c-0.8-0.2-1.3-0.4-1.8-0.5C218.4,9.4,217.2,9,216,9c-2.5,0-3.5,1.4-2.9,3.5c0.2,0.8,0.5,1.5,0.8,2.2c-1.1,1-3.3,0.3-3.5,2
				c-0.1,0.7,0.3,1.4,0.9,2.1c0.1-0.2,0.1-0.4,0.2-0.6c0.2-1.8,1.2-2.3,3-1.5c0.5,0.2,0.9,0.6,1.3,0.8c0.4,0.2,0.8,0.5,1.7,0.4
				c-0.5-0.7-1.1-1.4-1.5-2.1c-0.6-1.1-1.4-2.3-1.7-3.5c-0.5-1.7,0.5-2.7,2.5-2.3c1.6,0.3,3.2,1,4.7,1.6c0.6,0.2,1.2,0.5,2.3,0.5
				c-0.6-1.1-1.2-2.2-1.8-3.3c-0.5-1-1.1-2-1.3-3.1c-0.3-1.4,0.6-2,2.1-1.4c0.9,0.4,1.8,1.1,2.6,1.7C226.3,6.6,227.1,7.4,228,8.2
				L228,8.2z"/>
			<path d="M280.7,128.1c-0.3-0.2-0.7-0.4-1-0.6c0.2-0.1,0.5-0.1,0.7-0.2c0.1,0,0.3-0.1,0.4-0.2c0.5,0.2,0.9,0.5,1.3,0.8
				c1.1,1,1.5,2.2,1,3.5c-0.4,1.2-1.5,1.7-3.5,1.6c0.4-0.3,0.7-0.5,1-0.6C282.8,131.1,282.8,129.5,280.7,128.1z"/>
			<path d="M108.8,173.1c1.1,0.5,1.9,0.9,2.8,1.2c1.3,0.4,2.3-0.2,2.3-1.3c-0.3-3.1-1.9-5.8-4.2-8.1c1.3,2.7,3.1,5.2,3.3,8.4
				c-2.5-0.2-3.9-1-4.7-2.7c-0.4-0.9-0.8-1.8-1.3-2.6c-0.5-0.9-1.3-1.5-2.8-1.4c-0.1,1.5,0.7,2.7,1.7,3.8c1.3,1.4,1.6,2.8,0.8,4.8
				c-3.5-1.3-4.9-4.8-8.5-5.8c2.1,1.9,4,4,6.2,5.8c2.1,1.7,3.2,1.3,3.9-1.2C108.4,173.7,108.6,173.5,108.8,173.1z"/>
			<path d="M354,142.3c1.2,0.3,2,0.6,2.7,0.7c0.8,0.1,1.6,0.3,2.4,0.2c1.6-0.2,1.9-1.1,1-2.2c-0.3-0.3-0.6-0.6-0.9-0.9
				c-2.7-1.9-5.4-3.7-8.1-5.6c-0.5-0.3-1.1-0.6-1.7-0.8c-1.4-0.3-2.3,0.4-2,1.7c0.2,0.8,0.6,1.5,1,2.3c0.2-0.1,0.4-0.1,0.5-0.2
				c-0.2-0.9-0.3-1.8-0.5-3.1c4.8,1.3,7.7,4.1,11,7.2c-4.4,1-7.2-1.5-10.6-2.5c3.2,2.2,5.8,4.6,7.5,7.8c-0.1,0.2-0.2,0.3-0.3,0.5
				c-1.5-0.4-3.1-0.9-4.6-1.3c1.1,1.2,2.4,2.2,3.6,2.3c0.7,0.1,1.8,0,2.1-0.4c0.4-0.4,0.3-1.4,0-1.9
				C356.4,145,355.3,143.9,354,142.3z"/>
			<path d="M57.1,130c0.9-2.6,1.7-4.7,2.4-6.9c1.2-0.2,2.6-0.5,4-0.6c0.7-0.1,1.4-0.1,2,0.1c-0.2,0.7-0.5,1.3-0.7,2
				c-0.5-0.1-1.1-0.2-1.6-0.2c-2.6-0.1-4.3,1.1-4.5,3.4c-0.1,0.9,0.2,1.7,1.1,1.9c1.3,0.4,2.5,0.8,3.8,0.9c0,0.3,0,0.6-0.1,0.9
				c-0.6,0-1.2-0.1-1.8-0.2c-3.7-0.7-7.1-0.3-9.9,2.2c-0.3,0.3-0.8,0.5-1.2,0.7C52.3,131.7,54.9,130.6,57.1,130z"/>
			<path d="M280.3,158c1.7,0.6,3,1.2,4.4,1.5c0.8,0.2,2,0.1,2.4-0.3c0.4-0.4,0.1-1.5-0.2-2.2c-0.4-1-1.2-1.9-2.1-2.7
				c0.6,1.3,1.1,2.6,1.8,4.2c-4.5-0.2-7.5-2-9.8-5.4c-1,1.9,0.8,2.4,1.2,3.4c0.4,1.1,1,2.1,1.6,3.5c-4.2,0.4-5.4-2.4-7.4-4.9
				c-0.4,2.1,1.1,2.9,1.5,4.1c0.5,1.2,0.7,2.4,0.3,3.9c-2-0.4-2.3-2.3-3.7-3.1c0.3,1.3,1.5,3.3,2.5,3.8c0.6,0.2,1.4,0.3,2,0.1
				c0.3-0.1,0.4-0.9,0.5-1.4c0.1-0.5,0-1.1,0-1.9c0.9,0.2,1.7,0.3,2.4,0.5c2.2,0.5,2.5,0.2,2.4-1.7
				C280.3,159.1,280.3,158.8,280.3,158z"/>
			<path d="M338.8,147.1c-2-1.3-4.1-2.5-6.1-3.8c-0.1,0.1-0.2,0.2-0.3,0.4c1.2,0.9,2.5,1.7,3.7,2.6c1.2,0.9,2.3,1.9,3.9,3.1
				c-5.1,1-8.9-1.7-13.3-1.9c0.5,1.6,3.5,1.1,2.6,3.1c1.1,0.5,2.3,0.7,3.1,1.3c1.2,0.9,1.5,1.9,1.8,3.7c-1.8,0.4-3.1-0.9-5-1.6
				c1.1,1.6,2.3,2.5,4,2.8c1.8,0.3,2.9-0.6,2.2-2.2c-0.6-1.3-1.5-2.5-2.4-3.7c-0.4-0.5-1.1-0.7-1.6-1.1c0.1-0.1,0.3-0.3,0.4-0.4
				c1.3,0.3,2.5,0.8,3.8,1c1.1,0.2,2.3,0.3,3.4,0.3c1.4,0,2.1-0.7,1.8-2.1C340.1,148.2,339.5,147.7,338.8,147.1z"/>
			<path d="M110.3,39c-3.1-2.6-7.1-3.3-9.9-1.7c0.1,0.3,0.2,0.6,0.4,0.8c2.5,1.8,4.6,4,7.8,5c1.7,0.5,2,1.9,3,3.6
				c0.2-1.1,0.3-1.7,0.4-2.4c1.4,0.3,2.3,1.2,3.1,2c0.8,0.9,1.5,1.9,2.2,2.8c0.2-0.1,0.4-0.1,0.5-0.2c-0.2-0.6-0.5-1.2-0.7-1.8
				c-0.3-0.9-0.6-1.9,0.3-2.7c1-0.8,2-0.2,2.9,0.3c0.3,0.2,0.5,0.3,1.1,0.5c-1.9-2.8-3.6-2.9-6-0.7c-2.5-1-5.1-1.9-7.6-2.9
				c-2.2-0.9-4.3-2.1-5.8-4.2c1.5-0.6,2.8-0.3,4,0C107.5,37.9,108.9,38.4,110.3,39L110.3,39z"/>
			<path d="M221,50c0.3,1.5-0.5,3.2,1.5,4.8c-0.1-1.2-0.2-1.8-0.2-2.5c0-1,0.2-2,1.3-2.4c1.2-0.5,2,0.3,2.7,1
				c1.4,1.5,2.5,3.1,2.9,5.1c0.2,1.1,0.5,2.3,1.2,3.4c0.2-0.5,0.3-1,0.5-1.5c0.3-0.7,0.6-1.6,1.2-2.1c0.7-0.6,1.9-1.3,2.7-1.2
				c0.8,0.1,1.9,1.1,2.1,1.9c0.3,1.4,0.2,2.8,0.1,4.3c0,0.9-0.2,1.8-0.3,2.7c0.2,0,0.5,0.1,0.7,0.1c0.3-1.9,0.7-3.9,0.9-5.8
				c0.1-1.7-0.7-3.2-2.5-3.9c-1.9-0.8-3.3,0.1-4.5,1.3c-0.2,0.2-0.4,0.3-0.8,0.5c-0.3-0.6-0.5-1.2-0.8-1.8c-0.5-0.9-0.9-1.8-1.5-2.5
				C225.8,48.4,224.3,48.2,221,50L221,50z"/>
			<path d="M162.2,170c0.2,0.1,0.6,0.4,0.8,0.6c-0.4-2.1-0.9-4.3-1.4-6.9c-0.1,1.1-0.1,1.9-0.3,2.7c-0.3,1.2-0.5,2.5-1.1,3.7
				c-0.3,0.6-1.3,1.2-2,1.2c-0.5,0-1.5-0.7-1.7-1.2c-0.5-1.7-0.8-3.4-1.1-5.1c-0.1-0.5-0.1-1-0.1-1.6c-1.3,0.1-1.2,0.8-1.2,1.4
				c0,1,0.3,2.1,0.3,3.1c0,1.8-1.1,2.8-2.6,2.7c-1.5-0.1-2.4-1.3-2.2-3c0.1-1.2,0.4-2.3,0.1-3.6c-0.3,0.3-0.7,0.6-0.8,1
				c-0.2,1.2-0.4,2.4-0.3,3.6c0.1,2.9,2.5,4.1,5.3,2.6c0.4-0.2,0.7-0.5,0.9-0.6c1.3,0.7,2.5,1.8,3.7,1.7
				C159.6,172,160.8,170.9,162.2,170z"/>
			<path d="M72.2,3.9c-0.2-0.6-0.3-1.2-0.6-1.8c-1-1.6-1.7-1.7-3.8-1.1c-1.7,0.5-2,0.9-1.7,2.7c0.6,3.2,1.2,6.4,1.9,9.6
				c0.3,1.4-0.3,3.1,1.7,4.2c-0.1-0.9-0.3-1.6-0.2-2.3c0.3-2.7-0.1-5.3-1-7.9c-0.6-1.8-0.4-3.8,1-5.8C70.5,2.4,71.4,3.1,72.2,3.9
				L72.2,3.9z"/>
			<path d="M160.3,71.8c-1.7-1.8-4.4-1.8-5.4-3.7c2.2-2.3,4.9-2.2,10.8,0.3c0-0.1,0.1-0.2,0-0.2c-2.1-2.5-8.6-3.3-11.3-1.5
				c-0.9,0.6-1,1.3-0.2,2c0.6,0.5,1.3,0.8,2,1.3c-0.1,0.2-0.2,0.4-0.3,0.6c-1.4,0.4-2.8,0.8-4.2,1.3c-2.2,0.9-2.6,2.5-1.3,4.1
				c0.3,0.4,0.6,0.9,1.1,1c2.1,0.8,4.2,1.6,6.4,2.3c0.5,0.1,1.1-0.2,1.7-0.4c0-0.2,0-0.3,0-0.5c-0.5-0.1-1-0.2-1.5-0.2
				c-2.4,0-4.6-0.5-6.3-2.2c-1.6-1.5-1.2-2.8,0.9-3.5c1.8-0.6,3.7-1.2,5.7-0.7C158.8,71.9,159.3,71.8,160.3,71.8z"/>
			<path d="M52.1,142.5c0.8-0.9,1.6-1.9,2.5-2.8l0,0c0.5-0.1,1-0.2,1.6-0.3c-0.5,0.8-1.3,1.3-1.9,1.8c-0.6,0.6-1,1.3-1.5,2
				c-0.5,0.6-0.9,1.2-0.2,1.9c0.7,0.8,1.8,1.5,2.8,1c1.8-0.9,4.1-1.5,4.4-3.8c0.1-0.1,0.2-0.1,0.3-0.1c1.6,0.5,1.7,1.1,0.1,2.2
				c-1.1,0.8-2.1,1.5-1.8,2.9c0.3,1.3,0.9,2.4,2.2,3.2c1.9,1.2,3.8,0.8,5.5-0.1c0.9-0.5,1.8-1.1,2.7-1.7c0.2,0.3,0.3,0.5,0.5,0.8
				c-1.4,1.3-3.1,2.1-5,2.5c-2.7,0.6-5.2-0.8-6.1-3.1c-0.3-0.7-0.5-1.5-0.8-2.3c-0.8,0.2-1.3,0.3-1.8,0.4c-1.7,0.3-2.8-0.5-3.6-1.5
				C50.8,144.5,51.2,143.5,52.1,142.5z"/>
			<path d="M28.9,75.8c2.6-0.3,4.4,0.6,5.9,1.7c1.4,1.1,2.6,2.4,3.9,3.6c0.6,0.6,1.1,1.4,2.7,1.3c-2.8-3.7-7.7-5.9-8.3-10.8
				c2.2-0.6,3.7,0.8,5.5,1c-1.2-1.2-2.9-1.7-4.5-2c-1.4-0.3-2.1,0.4-1.8,1.6c0.2,0.8,0.6,1.6,1,2.8c-1.3-0.2-2.3-0.5-3.3-0.5
				c-0.8,0-1.6,0.4-2.4,0.6c0.2,0.7,0.2,1.5,0.7,1.9c1.2,1.2,2.7,2.3,4.4,3.8c-0.3-1.5-1.2-2-1.8-2.8C30.3,77.5,29.7,76.7,28.9,75.8
				z"/>
			<path d="M245.8,163.7c3.2,2.9,3.4,2.6,5.2,0.5c0.5,0.3,1,0.7,1.5,0.9c1.9,0.9,3.8-0.1,3.8-1.9c0-1.5-0.6-2.9-1.2-4.2
				c-0.2,0-0.4,0.1-0.6,0.1c0.2,1.1,0.5,2.1,0.7,3.2c0.2,0.8,0.2,1.8-0.8,2c-0.7,0.1-1.8-0.3-2.3-0.8c-0.8-0.9-1.3-2-2.2-3.6
				c-0.3,1.8-0.5,3.1-0.8,4.6c-2.6-0.7-2.3-3.1-3.9-4.5c-0.4,1.4-0.7,2.6-1.1,3.9c-2.2-1-2.1-2.9-3-4.3c-0.5,1.8,0.3,3.3,1.4,4.7
				c0.7,0.8,1.6,1.1,2.5,0.2C245.3,164.4,245.5,164,245.8,163.7z"/>
			<path d="M295.2,51.5c-0.8-0.9-1.5-2-2.5-2.7c-2.8-1.9-4.4-1.5-6.1,1.2c-0.6-0.1-1.2-0.3-1.8-0.4c-2.7-0.5-4.4,0.8-3.5,3.2
				c0.8,2.1,2.1,4,3.5,5.9c0.8,1,2.1,1.7,3.2,2.5c0.4,0.3,1.1,0.2,2.1,0.3c-1.7-1.1-3.1-1.8-4.2-2.8c-1.2-1.1-2.1-2.4-3-3.7
				c-1.2-1.7-1.3-3.4-0.3-4.2c1-0.6,2.9-0.3,4.4,0.9c0.7,0.6,1.3,1.3,2,2c0.5,0.5,1,1,1.7,1.7c0.5-1.4-0.4-1.9-0.9-2.6
				c-0.6-0.8-1.3-1.6-1.6-2.4c-0.4-1.3,0.4-2,1.9-1.6c0.8,0.2,1.6,0.7,2.3,1.1C293.5,50.3,294.3,50.8,295.2,51.5L295.2,51.5z"/>
			<path d="M77.8,82.9L77.8,82.9c-1.2-0.4-2.5-1-3.7-1.2c-2-0.4-3-0.1-5.3,1c-2.5-1.2-5-2.3-8-3.7c-0.7,0-2-0.1-3.4,0
				c-0.7,0-1.7,0.1-2.1,0.5c-0.7,0.8,0.1,1.5,0.7,2c0.2,0.2,0.6,0.3,1.4,0.6c-0.6-1-1-1.6-1.6-2.6c1.7,0.1,3.1,0,4.3,0.4
				c2.4,0.7,4.7,1.6,6.9,2.6c0.9,0.4,1.4,1.3,2.1,2c0.1,0.1,0.1,0.4,0.2,0.4c2.8,1.2,4.1,3.9,6.5,5.5c0.4,0.2,0.9,0.3,1.5,0.5
				c-1.4-1.4-2.8-2.7-4-4c-0.8-0.8-1.7-1.7-2.3-2.6c-0.9-1.3-0.3-2.2,1.3-2.3c1.2,0,2.4,0.4,3.6,0.6C76.5,83,77.2,82.9,77.8,82.9z"
				/>
			<path d="M64.7,48c2,1.2,3.9,2.3,6.2,3.6c-1,0.4-1.8,0.6-2.4,1c-1.5,1.1-3.1,2.1-4.4,3.4c-1,1-0.5,1.9,0.9,2.3
				c0.7,0.2,1.4,0.3,2.1,0.2c1.1-0.1,2.1-0.3,3.1-0.6c1.1-0.3,2.1-0.6,3.1-1.1c-2.8-0.4-5.5,1.5-8.3,0.2c1.1-3.1,5.4-4.9,8.8-3.7
				c1.1,0.4,2,0.8,2.6-0.5c-1.1-0.7-2.2-1.3-3.2-2l0,0c-2-0.7-3.9-1.4-5.9-2C66.5,48.6,65.6,48.4,64.7,48L64.7,48z"/>
			<path d="M56.2,162.7c0.5-2.2,0.9-4.3,1.3-6.5c-0.2-0.1-0.4-0.1-0.6-0.2c-0.4,1-0.7,2-1.2,3c-0.7,1.3-1.4,2.6-2.5,3.6
				c-1.2,1.3-2.8,1.4-4.1,0.8c-1.3-0.6-2-1.8-1.5-3.5c1.1-3.9,1.4-5.9,5.6-8.5c-0.5,0-1.1-0.1-1.5,0.2c-3.6,2.3-5.1,5.6-5.2,9.5
				c0,1.5,0.7,2.8,2.4,3.4c1.6,0.6,3.2,0.2,4.5-0.8c0.6-0.4,1-0.9,1.6-1.3C55.3,162.4,55.8,162.6,56.2,162.7L56.2,162.7z"/>
			<path d="M155.6,99.4c-0.7,0.4-1.6,0.6-2.4,0.9c0,0,0,0,0,0c-0.1-0.1-0.2-0.2-0.3-0.3c-0.4-0.4-0.9-1-1.6-1.6
				c1.1,0.3,2.1,0.1,3.1-0.7c0.6-0.5,1.3-0.8,1.8-0.1C156.9,98.4,156.3,99,155.6,99.4z"/>
			<path d="M151.1,90.1c-1.5,0.3-3.2,0.5-4.6,1.1c-0.4,0.2-0.7,0.4-0.9,0.5c-0.1-0.2-0.3-0.4-0.4-0.5c0.8-0.4,1.6-0.8,2.4-1.2
				c0.4-0.3,0.7-0.7,1-1.1c1.5,0.1,3,0.1,4.4,1C152.3,90.1,151.7,90,151.1,90.1z"/>
			<path d="M297.9,75c0.6,2.1,0.2,4.5,2,6.4c0-0.5-0.1-1.1-0.1-1.6c0-0.9-0.2-1.9,0.1-2.8c0.5-1.7,1.9-2,3.1-0.7
				c1.7,1.7,2.8,3.7,2.6,6.1c0,0.7,0.1,1.5,0.4,2.3c1-1.7,1-3.8,3.6-4.6c0.3,0.5,0.7,1.1,1.1,1.8c0.7-1.2,0.5-2.2-0.7-3.2
				c-1.1,0.6-2.1,1.2-3.4,1.9c-0.5-1-1-2-1.5-2.8c-0.5-0.8-1.1-1.7-1.8-2.3c-1.1-1-2.4-1.3-3.8-0.3C299.1,75.3,298.4,75,297.9,75
				L297.9,75z"/>
			<path d="M315.2,67.1c2.7-0.2,5.5-0.4,8-1.6c1.1-0.5,1.3-2.1,0.3-3.2c-0.7-0.8-1.5-1.7-2.5-2.1c-1.6-0.7-2.2-1.7-2.3-3.1
				c0-0.2-0.2-0.4-0.6-1c-0.2,0.9-0.3,1.4-0.4,2.1c-0.9,0-1.9-0.1-2.8,0c-0.9,0.1-1.8,0.4-2.7,1c1.8,0.3,3.5,0.6,5.3,0.9
				c2.8,0.3,4.5,1.9,5.8,4c-1.2,1.4-2.8,1.3-4.3,1.6c-1.4,0.3-2.8,0.5-4.1,0.7C315.2,66.6,315.2,66.8,315.2,67.1z"/>
			<path d="M274.1,44.3c-1.6-1-2.8-1.7-4.1-2.5c-0.1,0.1-0.1,0.2-0.2,0.2c1.7,1.7,3.4,3.5,5,5.1c0.8-1.5,1.7-3.2,2.8-5.2
				c-0.9,0.5-1.3,0.8-1.8,1.1c-0.1-0.1-0.2-0.2-0.2-0.3c0.5-1.4,1.5-2.3,3.3-2.5c2.3,2.5,1.5,5.4,1.5,8.3c0.2-0.3,0.7-0.6,0.7-1
				c0-1.9,0.1-3.8-0.1-5.7c-0.2-1.5-1.5-2.4-2.6-2.4c-1.3,0-2.7,0.9-3.3,2.1C274.7,42.4,274.4,43.2,274.1,44.3z"/>
			<path d="M303.9,92.2c-0.3-1.1-0.6-2.2-1.1-3.2c1.2,0.6,1.6,1.7,1.1,3.1C304,92.1,304,92.1,303.9,92.2z"/>
			<path d="M58.8,90.3c0.3,0.4,0.6,0.8,1,1.3c-0.6,0.3-1.1,0.5-1.6,0.7c-0.7,0.3-1.5,0.6-2.1,1c-1.1,0.8-2.3,1.7-2,3.2
				c0.3,1.4,1.9,1.6,3.2,1.8c2.2,0.3,4.4,0.5,6.6,0.7c0.8,0.1,1.6,0,2.4-0.4c-2.3-0.3-4.7-0.6-7-0.9c-1-0.1-1.9-0.3-2.8-0.7
				c-1.6-0.6-1.8-1.4-0.5-2.5c1.6-1.4,3.7-1.9,5.9-2c0.6,0,1.2,0,1.8-0.2C62.2,91.4,60.6,90.5,58.8,90.3L58.8,90.3z"/>
			<path d="M374.6,105.4c0.3,0.5,0.6,1.1,1,1.7c-4.6,1.9-6.6-2.1-10.1-3.7c1.2,3.6,5.5,4.1,6.7,7.3c-0.9-0.2-1.5-0.3-2.2-0.5
				c0,0.2-0.1,0.4,0,0.5c0.9,0.8,1.9,1.6,3.2,1c0.3-0.2,0.1-1.2,0-1.9c0-0.2-0.2-0.4-0.3-0.8c0.7-0.1,1.4-0.1,2.1-0.2
				c1.9-0.3,2.2-1.1,1-2.5c-0.3-0.4-0.8-0.7-1.1-1C374.9,105.3,374.7,105.4,374.6,105.4z"/>
			<path d="M338.8,147.1c0.6,0.5,1.3,1.1,1.9,1.6c1.7,1.3,3.3,2.6,5.1,3.8c1,0.7,2.4,1.1,3.6,1.3c1.5,0.2,2.8-0.9,2.4-2.2
				c-0.9-2.7-2.3-5.1-5.6-6.2l0,0c1,1.3,2.1,2.5,3.1,3.8c0.4,0.5,0.7,0.9,0.9,1.5c0.5,1.3-0.3,2.2-1.7,1.6c-2.1-0.8-4-2-5.8-3.2
				c-0.9-0.6-1.6-1.5-2.4-2.2C339.8,146.6,339.3,146.4,338.8,147.1z"/>
			<path d="M169.8,159c1.2-0.3,2.5-0.6,3.7-0.9c0.5,0.3,1,0.6,1.5,0.8c1.3,0.5,2.1-0.2,1.7-1.5c0-0.1,0-0.1-0.1-0.2
				c0.3-0.1,0.7-0.2,1-0.3c0.1,0.2,0.1,0.3,0.2,0.5c0.6,1.8-0.8,3-2.9,2.5c-1.2-0.3-2.3-0.8-3.4-1.3c-2.8,3.5-2.9,3.5-5.4,2.4
				C168.6,160.8,169.3,160.3,169.8,159z"/>
			<path d="M216.2,42.8c-1.4-2.5-4.1-3.2-6.9-3.4c-1.3-0.1-2.3,0.5-2.7,1.6c-0.3,1.1-0.6,2.2-0.5,3.3c0,2.9,2.1,6.7,4.3,8.2
				c0.6-0.9-0.2-1.4-0.5-2.1c-0.9-1.7-1.9-3.4-2.5-5.2c-0.5-1.5-0.5-3.4,1.1-4.4c1.5-1,3.3-0.2,4.8,0.5
				C214.3,41.7,215.2,42.2,216.2,42.8L216.2,42.8z"/>
			<path d="M66.9,50.6c-5,2.5-10.1,3.2-15.7,1.2c1.2-2.3,4.2-2.3,5.8-3.9c-2.3,0.5-4.4,1.4-6.3,2.7c-0.9,0.6-0.8,1.4,0.2,2
				c0.4,0.3,0.9,0.5,1.4,0.6c4.8,1.2,9.4,0.7,13.8-1.2c0.4-0.2,0.7-0.6,1.1-0.9C67.1,50.9,67,50.8,66.9,50.6z"/>
			<path d="M64.7,48.1c-0.5-1.3-1.9-1.6-3.1-2.1c-1.6-0.8-3.6-1.2-4.3-3c-1.2-2.8-2.6-5.5-1.9-8.5c0.4-1.7,0.6-1.9,2.7-2.3
				c-2.1-0.6-2.9-0.2-3.4,1.6c-0.5,2.2-0.2,4.3,0.5,6.4c0.3,0.7,0.7,1.3,0.8,2c0.1,0.5-0.1,1.1-0.2,1.8c1,0.6,2.2,1.3,3.5,2
				c-0.2,0.4-0.4,0.8-0.5,1.1C60.8,47.4,62.8,47.7,64.7,48.1L64.7,48.1z"/>
			<path d="M76,19.2c1.1,0,2.2-0.1,3.2,0.1c1.9,0.4,2.4,1.5,1.2,2.8c-1.9,2-3.7,4.1-7,4.3c-0.9,0-1.8,0.4-2.7,0.6l0,0
				c2,1.9,4,3.7,6.2,5.7c-0.3-1.8-1.8-3-2.8-4.5c1.5-1,3.2-1.9,4.6-3.1c1.2-1,2.2-2.1,2.9-3.4c0.7-1.2,0.2-2.2-1.3-2.6
				C78.9,18.6,77.3,18,76,19.2L76,19.2z"/>
			<path d="M19,97.5c0.7,1,1.3,2,2.1,3.1c-1.5,0.2-2.9,0.2-4.2,0.5c-2.5,0.5-3.1,1.8-1.6,3.6c1.4,1.6,3.1,3.1,4.7,4.5
				c0.2,0.2,0.7,0,1.8,0c-1.6-1.2-2.9-2-3.8-3c-1-1-1.7-2.1-2.8-3.4c2.9-1.9,5.9-0.7,8.6-0.9C23.2,100.7,20.7,98.4,19,97.5L19,97.5z
				"/>
			<path d="M59.5,77.7c-0.5-0.6-1-1.2-1.5-1.8c-1.7-2.4-0.8-5.9,2-7c1.4-0.6,2.3-0.4,2.5,1c0.3,2,0.2,3.9,0.1,5.9
				c0,0.6-0.3,1.2-0.5,2.1c1.3-0.5,1.4-1.3,1.4-2c0.1-2,0.2-4,0-6c-0.1-0.8-0.8-2.1-1.5-2.3c-0.9-0.2-2.3,0.3-3.2,0.8
				C55.2,70.9,55.4,75.3,59.5,77.7z"/>
			<path d="M182.3,42.2c-0.5-1.6-2.3-2.8-1.7-4.7c2.6-0.5,3.8,1.3,5.1,2.9c1.1-1.2,0.2-2,0.1-2.7c-0.9-0.3-1.6-0.5-2.4-0.8
				c-2.6-1.2-4-0.5-4.2,2.3c-0.8,0-1.6,0-2.5,0c0.3,2.1,0.7,2.2,2.5,2.2C180.1,41.3,181,41.8,182.3,42.2z"/>
			<path d="M27.2,130.6c-1.6-2.7-5.5-3.7-8.1-2.1c-1.1,0.6-1.3,1.5-0.7,2.5c0,0.1,0.1,0.1,0.2,0.2c1,1.4,7.6,5.7,9.9,6.3
				c-0.4-0.5-0.6-1-0.9-1.2c-1.8-1.2-3.7-2.3-5.5-3.4c-0.7-0.5-1.5-0.9-2.1-1.5c-0.4-0.4-0.8-1.2-0.6-1.6c0.2-0.4,1.1-0.9,1.7-0.9
				C23.2,128.6,25.3,129.2,27.2,130.6z"/>
			<path d="M337,106.2c2.1-4.5,6.3-7,11-8.9c1.2-0.5,2.6-0.7,3.9-0.5c1.9,0.2,2.2,1.3,1.1,2.7c-0.2,0.3-0.5,0.6-0.8,0.9
				c0.1,0.1,0.3,0.2,0.4,0.3c0.7-0.7,1.5-1.3,1.9-2c0.2-0.4,0-1.4-0.4-1.7c-0.7-0.5-1.8-0.9-2.6-0.8c-1.9,0.2-3.9,0.6-5.6,1.3
				c-3.3,1.3-6,3.4-8.2,6c-0.6,0.8-0.9,1.8-1.3,2.7C336.6,106.1,336.8,106.2,337,106.2z"/>
			<path d="M18.8,123.9c1.9,2.5,6.3,3.8,9.4,2.3c-3.1-0.2-5.9-0.2-7.9-2.1c2.4-2.7,5.4-2.9,9.7-0.6c-0.2-0.6-0.1-1.1-0.4-1.3
				c-1.5-1-3.3-1.5-5.3-1.2C22.2,121.3,20.2,122.3,18.8,123.9z"/>
			<path d="M58.2,104.2c-0.6,0.3-1.2,0.6-2.3,1.2c1.7,0.9,3,1.5,4.5,2.3c-1.6,0.4-2.9,0.7-4.3,1.1c1.1,2.2,4,3.6,7.2,3.6
				c-2-0.9-3.8-1.8-5.6-2.6c0-0.2,0.1-0.3,0.1-0.5c1.8-0.3,3.5-0.6,5.3-0.8c0-0.1,0-0.3,0-0.4c-1.4-0.6-2.7-1.3-4.1-1.9
				C58.1,105.7,57.6,105.1,58.2,104.2L58.2,104.2z"/>
			<path d="M360.9,150.6c1.6,1,3,0.8,4.2,0.8c1.4,0,2.8-0.2,4.2-0.4c1.2-0.2,1.8-1,1.6-2.1c-0.7-2.9-5.6-5-8.8-3.6
				c0.3,0.1,0.5,0.4,0.6,0.3c2.6-0.8,4.5,0.5,6.2,2c0.5,0.4,0.8,1.3,0.7,1.8c-0.1,0.4-1.1,0.8-1.7,0.9c-1.7,0.2-3.4,0.1-5.1,0.2
				C362.4,150.4,361.9,150.5,360.9,150.6z"/>
			<path d="M142.1,167.6c-0.7,0.7-1.4,1.3-2.4,2.4c-0.4-1.3-0.7-2.2-1.1-3.4c-0.4,0.5-0.8,0.9-1.1,1.3c-1.9,2.4-3.6,2.3-5.2-0.2
				c-0.2-0.3-0.4-0.5-0.7-1c-0.5,1.6,0.1,2.6,1.2,3.4c1.3,0.9,2.4,0.8,5.3-0.4c0.5,0.5,1,1,1.6,1.6
				C141.4,170.4,142.1,169.2,142.1,167.6z"/>
			<path d="M121,71.1c-0.2,0.2-0.5,0.4-0.7,0.6c0.5,0.7,1,1.4,1.5,2.1c0.7,0.9,1.5,1.8,2,2.8c0.1,0.1,0.1,0.3,0.1,0.4
				c-0.5-0.1-1-0.2-1.4-0.3c-0.5-2.5-3.9-3.6-3.5-6.7c3.6,0.4,5.6,2.4,7.6,4.3c-0.1,0.1-0.2,0.3-0.3,0.4
				C124.5,73.5,122.7,72.3,121,71.1z"/>
			<path d="M249.6,131.3c-0.4,0.1-0.8,0.2-1.2,0.4c-0.1-0.5-0.2-1-0.4-1.5c0.8,0.1,1.6,0.2,2.3,0.2c0.7,1.6-0.1,3-2.6,3.9
				c0.8-1.1,1.5-1.9,2.2-2.7C249.9,131.4,249.8,131.3,249.6,131.3z"/>
			<path d="M56.2,162.7c0.1,1.2,0,2.4,0.5,3.5c0.9,2,3.3,2.1,4.6,0.3c0.8-1.1,1.5-2.4,1.8-3.7c0.5-1.6,0.6-3.4,0.4-5.1
				c-0.4,1.5-0.8,3-1.3,4.5c-0.5,1.3-1,2.5-1.8,3.7c-0.7,1.1-1.8,1.1-2.5,0.1C57.1,164.9,56.7,163.8,56.2,162.7L56.2,162.7z"/>
			<path d="M382.3,124.3c-0.9,0.3-1.3,0.4-2.1,0.7c1.4,0.7,2.5,1.2,3.8,1.9c0.5-2-0.7-3.1-1.7-4.1c-1.7-1.8-2.5-4.5-5.8-5.1
				c-0.1,0.6-0.1,1.1-0.2,1.5C379.8,119.5,380.3,122.4,382.3,124.3z"/>
			<path d="M37.6,67.1c0.1-1.1,0.2-1.7,0.2-2.8c4.7,1.7,6.6,5.6,9.8,8.5c-0.2-0.5-0.4-1.1-0.7-1.5c-1.6-1.9-3.2-3.8-4.9-5.7
				c-0.6-0.6-1.3-1.1-2.1-1.5c-0.8-0.4-1.8-1-2.7-0.2C36.3,64.8,36.6,65.8,37.6,67.1z"/>
			<path d="M126.9,45.4c-0.1,0.8-0.3,1.5-0.8,2.1c-0.2-1-0.2-2-0.3-3C126.1,44.7,126.5,45.1,126.9,45.4z"/>
			<path d="M122.4,39.6c0.1,0.3,0.3,0.7,0.5,1v5.4l-0.5,0c-0.2-1.2-0.5-2.3-0.7-3.5c-0.1-0.6-0.1-1.3,0-1.9
				C121.8,40,122.1,39.7,122.4,39.6z"/>
			<path d="M181.3,46.1c-3.2-3-7.3-4.5-11.8-5c-0.8-0.1-2,0.2-2.3,0.7c-0.3,0.5-0.1,1.5,0.3,2.1c0.5,0.8,1.3,1.5,2,2.2l0,0
				c-0.5-1.3-1-2.5-1.6-4.1c1.3,0,2.4-0.3,3.3,0c2.3,0.7,4.4,1.6,6.6,2.5C179,45,180.1,45.6,181.3,46.1L181.3,46.1z"/>
			<path d="M49.1,123.4c-0.7-0.8-1.2-1.8-2-2.4c-2.4-1.8-4.9-3.5-7.4-5.1c-1-0.6-2.3-0.8-3.4-1.2c-0.5,2-0.5,2,1.9,4.1
				c-0.5-1.2-0.8-1.9-1.1-2.8c1.6,0,2.8,0.6,3.8,1.3C43.6,119.3,46.4,121.4,49.1,123.4L49.1,123.4z"/>
			<path d="M148.5,88.9c-0.3-0.4-0.6-0.8-0.9-1.2c-1.5-1.8-1.2-2.8,1.2-3.5c1.2-0.4,2.6-0.5,3.9-0.6c1.7-0.1,3.4,0,5.1,0
				c-0.1-0.2-0.1-0.5-0.1-0.5c-3.6-1-7.1-0.4-10.4,0.9c-2.2,0.9-2.3,2.9-0.4,4.2C147.3,88.5,148,88.6,148.5,88.9L148.5,88.9z"/>
			<path d="M56.5,119.9c0.5-0.7,1.1-1.6,1.9-1.9c2.6-0.9,5.2-1.6,7.8-2.2c0.8-0.2,1.8-0.1,2.6,0.2c-0.1,0.2-0.2,0.4-0.4,0.6
				c-3.1-0.5-6,0.3-8.7,1.6c-1.7,0.8-3.1,1.8-2.3,4.3C56,120.9,55.9,120.8,56.5,119.9z"/>
			<path d="M267.5,47.1c0.7-1.5-0.3-2.5-1-3.4c-0.7-0.9-0.6-1.6,0.3-2c-1.5-0.1-3.1-0.2-4.7-0.4c-1.7-0.1-2.9,0.5-3.7,1.9
				c1.4-0.4,2.6-0.8,3.8-1c1-0.1,1.9,0.1,2.4,1.1c0.3,0.5,1.1,0.7,1.5,1.2c0.3,0.3,0.4,0.8,0.3,1.2C266,46.6,266,46.6,267.5,47.1z"
				/>
			<path d="M201,18c0.2-0.4,0.4-0.9,0.5-1.3c0.1-0.1,0.1-0.2,0.2-0.3c1.4-2.2,4-2.2,5.7-0.1c-0.3,0-0.6-0.1-0.8-0.1
				c-2.5-0.8-4-0.2-4.7,2c-0.3,1-0.4,2-0.3,3.1c0,1.2,0.2,2.3,0.3,3.5c-0.2,0-0.4,0-0.5,0c-0.2-1-0.5-2-0.6-3
				c-0.1-0.7-0.2-1.4-0.1-2.1C200.7,19,200.8,18.5,201,18z"/>
			<path d="M285.5,68.7c-0.1-1.2-0.2-2.4-0.2-3.6c0-0.7,0.1-2,0.5-2.1c0.8-0.2,2,0,2.6,0.4c1.8,1.2,3.4,2.7,5.2,4.2
				c-0.1-0.4-0.2-0.8-0.4-1.1c-1.6-1.4-3.2-3-5-4.2c-2.3-1.4-4-0.5-3.9,2C284.5,65.8,285.2,67.2,285.5,68.7L285.5,68.7z"/>
			<path d="M176,52.9c-0.4,1.2-0.7,2.2-1,3.2c0.2,0.1,0.4,0.1,0.5,0.2c0.3-0.6,0.7-1.1,1.2-2c2.3,2.4,2.9,5.1,3.5,7.7
				C181.4,60,179.4,54.9,176,52.9z"/>
			<path d="M58.8,90.3c-0.9-0.6-1.9-1.2-2.7-1.9c-1.1-0.9-0.9-1.9,0.6-2.3c1.5-0.3,3-0.3,4.5-0.4c0.5,0,1,0,1.7,0
				c-0.5-1.1-1.2-1.5-2.2-1.3c-1.2,0.2-2.4,0.5-3.6,0.7c-1.2,0.2-2.2,0.6-2.5,1.8c-0.3,1.2,0.5,2,1.5,2.5
				C56.9,89.8,57.9,90,58.8,90.3L58.8,90.3z"/>
			<path d="M19,97.5c-0.4-0.7-0.7-1.4-1.2-2.3c3.4-1,5.7,1.3,8.5,1.8c-2.2-1.6-4.4-3.1-7.4-2.9c-0.8,0-2,0.5-2.1,1
				c-0.2,0.5,0.5,1.4,1,2C18.1,97.3,18.6,97.3,19,97.5L19,97.5z"/>
			<path d="M63,168.4c0.1,0.4,0.1,0.7,0.3,1.1c0.4,1,1,1.9,2.5,1.9c1.3,0,1.9-0.8,2.4-1.7c1.1-2.2,1.9-4.5,1.3-7.4
				c-0.3,0.8-0.4,1.1-0.5,1.5c-0.4,1.7-0.8,3.4-1.4,5.1c-0.2,0.6-1.1,1.5-1.8,1.5c-0.6,0-1.3-0.9-1.9-1.4c-0.2-0.2-0.3-0.5-0.5-0.7
				C63.2,168.4,63.1,168.4,63,168.4z"/>
			<path d="M200.7,162.9c-1.5,0.6-2.8,0.8-4.3,0.4c-1.4-0.4-3.4-0.2-4.1,1.7c1.9,0,3.7,0,5.5,0C199.1,165,199.6,164.6,200.7,162.9z"
				/>
			<path d="M217.3,171c-0.3,0.1-0.7,0.2-1,0.2c-2.9,0.6-4.3-0.2-4.4-2.9c-0.1-1.8,0-3.7,0-5.5l0,0c-1.3,2.1-1.3,4.4-0.9,6.8
				c0.2,1.4,1.3,2.2,2.8,2.5C215.4,172.4,216.6,172.2,217.3,171L217.3,171z"/>
			<path d="M352.7,35.1c-0.2-0.8-0.6-1.8-1.6-1.6c-0.7,0.1-1.5,0.9-1.8,1.5c-1.2,2.2-0.7,4.4,0.5,6.9c0.9-1.3,0.2-2.2,0.2-3.1
				c0-0.8-0.2-1.6-0.1-2.4C350.1,34.7,350.7,34.5,352.7,35.1L352.7,35.1z"/>
			<path d="M169.4,164.6c0.4,2.3-0.5,4.3-1.1,6.4c-0.6,2.3-1.2,2.5-3.9,1.4c0.5,1.1,1.2,1.7,2.4,1.8c1.2,0,1.8-0.8,2-1.6
				c0.6-2.6,1-5.2,1.5-7.8C170,164.7,169.7,164.7,169.4,164.6z"/>
			<path d="M59.4,43.2c4.1-0.7,5-2.4,3.4-5.5c-0.3-0.6-0.6-1.1-1-1.7c-0.4-0.5-0.9-0.9-1.7-1.2c0.5,0.9,1,1.7,1.5,2.6
				c1.5,2.6,1.2,3.4-1.5,5.2C59.9,42.8,59.7,43,59.4,43.2z"/>
			<path d="M59.1,13.7c2.7,2.4,5.5,4.7,9.7,5c-0.4-0.3-0.7-0.9-1.1-1c-3.1-0.5-5.5-2.2-7.9-3.8C59.6,13.7,59.3,13.7,59.1,13.7z"/>
			<path d="M385.8,166.7c-1.1-0.2-1.9-0.5-3-0.7c0.2,0.3,0.2,0.5,0.4,0.7c1,0.7,1.9,1.6,3.3,0.7c0.9-0.6,0.9-1.7-0.3-3.2
				c-0.9-1.2-2.1-2.3-3.3-3.3C383.5,163,386.1,164.1,385.8,166.7z"/>
			<path d="M142.6,74.4c-0.5-1.2-0.9-2.4-1.6-3.5c-0.8-1.1-2.2-1.3-3.3-0.8c-1.2,0.7-1.5,1.9-0.5,3.6c0.2-0.4,0.3-0.7,0.4-0.9
				c0.1-0.8,0.1-1.6,1.2-1.6c0.7,0,1.5,0.5,2,0.9C141.5,72.8,142,73.6,142.6,74.4L142.6,74.4z"/>
			<path d="M72.2,3.9c0.4,1.5,0.8,2.9,1.2,4.4c0.6,2,0.1,3.8-1.5,5.3c-0.2,0.2-0.3,0.5-0.8,1.2c2.1-0.6,2.9-1.9,3.1-3.2
				C74.7,8.8,74.2,6.2,72.2,3.9L72.2,3.9z"/>
			<path d="M58,12.8c-0.1-0.8-0.3-1.5-0.4-2.2c2.7-1.2,4.3,0.9,6.4,1.4c-1.2-1.4-2.9-2.2-4.8-2.7c-1-0.2-2,0-2.6,0.9
				C56.1,11,56.4,11.6,58,12.8z"/>
			<path d="M70.1,32.7c1.8,1.8,4.4,2.2,6.8,2.7c0.5,0.1,1.1-0.6,1.7-0.9l0,0c-1.2-0.2-2.3-0.5-3.5-0.7
				C73.5,33.5,71.8,33.1,70.1,32.7L70.1,32.7z"/>
			<path d="M39.2,69.8c1.4,2.2,1.9,4.9,4.6,6.6C43.7,75.1,41.3,71.6,39.2,69.8z"/>
			<path d="M302.2,148.4c-1.5-3.9-4.4-6.4-7.8-6.5c0.7,0.4,1,0.7,1.5,0.8c1.8,0.8,3.2,1.9,4.4,3.4
				C300.8,147,301.5,147.7,302.2,148.4L302.2,148.4z"/>
			<path d="M86.7,54.7c0.6,1.4,1,3,1.9,4.2c0.9,1.2-0.6,2.8,1.2,3.7C90.7,60.4,89.4,57.1,86.7,54.7L86.7,54.7z"/>
			<path d="M258.5,68.3c-0.4,0-0.9,0-1.3,0.1c-2.4-0.5-4.3-2-6.3-3.2c2.6,0.9,5.3,1.8,7.9,2.7C258.7,68,258.7,68.1,258.5,68.3
				C258.6,68.3,258.6,68.3,258.5,68.3z"/>
			<path d="M331.8,162.9c-0.1,1.2-0.1,2-0.2,3.1c-1.1-0.2-2.1-0.4-3.3-0.6c0.1,1.2,1.1,1.6,2.1,1.6c0.7,0,1.8-0.2,2.1-0.7
				C333.1,165.3,333,164.2,331.8,162.9z"/>
			<path d="M358.5,60.3c2.7-3.1,2.7-3.1,7.1-2.9C362.3,55.5,358.8,56.8,358.5,60.3z"/>
			<path d="M280.9,152c-0.8-0.9-1.6-1.8-2.8-3.1c1.2,0.2,1.8,0.3,2.5,0.4c0-0.1,0.1-0.3,0-0.4c-0.2-0.2-0.4-0.3-0.6-0.5
				c-0.8-0.5-1.9-1-2.6-0.2c-0.8,0.9,0.3,1.4,0.9,1.9c0.7,0.7,1.4,1.4,2.2,2C280.6,152.2,280.7,152.1,280.9,152z"/>
			<path d="M160.1,47.6L160.1,47.6c-0.2-2-0.5-2.2-2.3-1.4c-1,0.4-1.9,0.9-2.8,1.4c-0.9,0.5-1.4,1.1-1,2.2
				C156.1,47.3,156.9,47,160.1,47.6z"/>
			<path d="M307,91.3c2.5-0.7,3.7-2.9,3.4-6.2C308.9,87.1,309.4,89.8,307,91.3z"/>
			<path d="M78.6,34.6c0.4,1.2,0.8,2.3,1.2,3.5c0.2,0,0.4,0,0.6-0.1c-0.5-2.6-2-5.3,0.7-7.7C79,31.2,79.1,33,78.6,34.6L78.6,34.6z"
				/>
			<path d="M258.9,45.7c0.4,3,1.4,5.9,2.7,8.6c0.2-0.1,0.4-0.1,0.7-0.2C261.1,51.3,260,48.5,258.9,45.7z"/>
			<path d="M182.7,156.8c0,1,0,2.1,0,3.3c-0.9-0.1-1.6-0.2-2.2-0.3c0,0.2,0,0.4,0,0.4c0.4,0.3,0.8,0.6,1.3,0.8
				c1.3,0.4,2.1-0.1,2-1.4c-0.1-1-0.5-1.9-0.7-2.9C182.9,156.8,182.8,156.8,182.7,156.8z"/>
			<path d="M123.8,57.1c0.2,0.6,0.5,1.2,0.7,1.8c0.5,1.2,0.9,2.5,1.4,3.9c1.2,0,1.3-0.8,0.9-1.5C125.9,59.8,124.8,58.5,123.8,57.1
				L123.8,57.1z"/>
			<path d="M216.2,42.7c1.6,2.4,3.2,4.8,4.8,7.2l0,0C220.5,47,219.1,44.5,216.2,42.7L216.2,42.7z"/>
			<path d="M137.2,75c-0.2,2.6,0.8,4.2,2.6,5.4c0.2-0.1,0.4-0.2,0.6-0.3C139.4,78.6,138.5,77,137.2,75z"/>
			<path d="M211.9,162.8c1-2.2,2.1-4.5,3.1-6.7c-1.4,0.3-1.4,0.3-2.2,2.8C212.4,160.2,212.2,161.5,211.9,162.8L211.9,162.8z"/>
			<path d="M142.6,74.4c0.1,1.1,0.2,2.2,0.3,3.3c0.1,1,0,2,0,3.1C144.6,78.9,144.5,77.7,142.6,74.4L142.6,74.4z"/>
			<path d="M23.2,84.1c0.7,1.3,1.3,2.6,2,3.9c0,0.1,0.5,0,0.7-0.1C25.8,86.2,25.4,85.5,23.2,84.1z"/>
			<path d="M285.8,71.3c-0.2-0.9-0.3-1.7-0.3-2.6c0.7,1,1.2,2.1,1.4,3.1C286.6,71.6,286.2,71.5,285.8,71.3z"/>
			<path d="M66.3,25.5c-0.9-0.1-1.8-0.5-2.5-0.3c-0.8,0.2-1.7,0.8-2.2,1.4c-0.4,0.5,0,0.9,1.8,2.2c-0.3-0.9-0.6-1.6-1-2.5
				C63.8,26,65,25.8,66.3,25.5L66.3,25.5z"/>
			<path d="M358.6,32.7c-2.4,1.2-3.3,3.2-4,5.3c0.2,0.1,0.3,0.2,0.5,0.3C356.3,36.4,357.4,34.5,358.6,32.7L358.6,32.7z"/>
			<path d="M76,19.3c-2.9,0.6-3.6,1.8-2.4,4.9C73.5,21.8,74.5,20.4,76,19.3L76,19.3z"/>
			<path d="M50.4,78.6c0.6,1.7,1.1,3.5,1.8,5.4C52.6,82,52.4,81.1,50.4,78.6z"/>
			<path d="M18.1,112.8c0.8,1.5,2.1,2.5,3.9,3C21.2,114.3,19.7,113.6,18.1,112.8z"/>
			<path d="M379.7,157.5c-0.7-0.4-1.4-0.8-2.1-1.1c-0.2-0.1-0.7,0.3-0.9,0.6c-0.1,0.1,0.2,0.6,0.4,0.8
				C377.8,158.1,378.7,158.2,379.7,157.5z"/>
			<path d="M299.4,44.7c-0.3-1.3-1-1.6-2-1.3c-1.3,0.4-1.6,1.3-1.5,2.8c0.7-0.9,1.1-1.5,1.6-2.1C298,44.2,298.6,44.4,299.4,44.7z"/>
			<path d="M295.2,51.4c0.1,0.8,0.2,1.5,1.5,2.2c-0.2-1.7-0.4-3.1-0.6-4.9C295.7,49.9,295.4,50.7,295.2,51.4L295.2,51.4z"/>
			<path d="M352.7,35.1c0,1.6,0,3.2,0,4.8c0.2,0,0.4,0,0.6-0.1C354.5,38.1,353.3,36.6,352.7,35.1L352.7,35.1z"/>
			<path d="M45.7,138.8c1.2-1.2,2.3-2.2,3.5-3.3C47.1,136,46.2,136.8,45.7,138.8z"/>
			<path d="M70.1,32.7c-1.5-1.3-3.1-2.4-5.2-3C66.4,31,68,32.2,70.1,32.7L70.1,32.7z"/>
			<path d="M346.2,145.5c-1-2.6-1-2.6-2.4-3.1C343.8,144.1,345.1,144.7,346.2,145.5L346.2,145.5z"/>
			<path d="M54.5,139.7c-1.9,0-3.8,0-5.7,0C50.7,140.5,52.6,140.2,54.5,139.7L54.5,139.7z"/>
			<path d="M312.3,54.4c1.2-0.6,2.3-1.2,3.3-1.6C313.8,52.1,313.4,52.3,312.3,54.4z"/>
			<path d="M235.6,67.1c-0.6,1.2-1.2,2.3-1.9,3.5C235.3,69.8,235.6,68.5,235.6,67.1z"/>
			<path d="M368.1,100.4c-1-1.1-2.2-1.8-4.3-1.2C365.6,99.7,366.8,100.1,368.1,100.4z"/>
			<path d="M304.6,132c0.6-0.5,1.3-1.2,1.9-1.7C304.4,129.9,304,130.4,304.6,132z"/>
			<path d="M275.6,151.8c-0.2-0.3-0.3-0.6-0.6-0.7c-0.3-0.2-0.8-0.2-1.2-0.3C274.1,152.2,274.1,152.2,275.6,151.8z"/>
			<path d="M230.4,13.9c-0.3,0.8-0.6,1.4-0.9,2.2C231.3,16,231.3,16,230.4,13.9z"/>
			<path d="M206.8,53.1c0.6,0.8,1.2,1.6,1.8,2.5c0.2-0.1,0.4-0.2,0.5-0.3c-0.6-0.9-1.1-1.7-1.7-2.6C207.2,52.9,207,53,206.8,53.1z"
				/>
			<path d="M110.4,38.9c0.9,1,1.7,1.9,2.6,2.9C112.9,40.2,112,39.3,110.4,38.9L110.4,38.9z"/>
			<path d="M297.8,75c0.2-1.5-0.6-2.7-1.9-3.6C296.6,72.5,297.2,73.7,297.8,75L297.8,75z"/>
			<path d="M229.8,163.2c-0.8-1-1.4-1.7-2.3-2.9C228,162.4,228,162.4,229.8,163.2z"/>
			<path d="M301,38.7c-0.1-0.9-0.1-1.8-0.2-2.8c-0.2,0-0.4,0-0.5,0c0.1,0.9,0.2,1.8,0.2,2.8C300.7,38.7,300.8,38.7,301,38.7z"/>
			<path d="M70.6,26.9c-1.1-1.3-2.6-1.6-4.4-1.4l0,0C67.7,26,69.2,26.4,70.6,26.9L70.6,26.9z"/>
			<path d="M228.1,8.2c0.5,1,0.9,2.1,1.4,3.1c0.2-0.1,0.4-0.2,0.7-0.3C229.4,10.1,228.7,9.1,228.1,8.2L228.1,8.2z"/>
			<path d="M58.2,104.2c1.2-0.3,2.3-0.6,3.5-0.9C60.2,102.8,59.1,103.2,58.2,104.2L58.2,104.2z"/>
			<path d="M49.1,123.4c0.4,0.8,0.9,1.6,1.3,2.4c0.2-0.1,0.4-0.2,0.6-0.3C51,124.5,50,124,49.1,123.4L49.1,123.4z"/>
			<path d="M31.1,100.4c0.2,0.6,0.3,1.1,0.6,1.9c1.1-1.1,0.5-1.6,0-2.1C31.5,100.3,31.3,100.4,31.1,100.4z"/>
		</g>
	</g>
	<g>
		<path fill-rule="evenodd" clip-rule="evenodd" fill="#2C5F67" d="M237.4,143.4c0.4-1.6,1.3-2.8,3.1-3.2c0.8-0.2,1.7-0.4,2.5-0.3
			c2.7,0.3,5.5,0.6,7.9,1c0.2-1.8-0.2-4.1,0.9-5.6c1.1-1.5,3.6-2.2,5.7-3.4c-0.4-0.8-1-1.8-1.5-2.8c0.8-0.9,1.4-1.6,2.2-2.4
			c-7.1-2.1-7.6-7.8-9.8-12.5c-0.4-1,0.2-2.3,1.9-2.1c5.5,0.6,10.6,1.9,14.2,6c0.5,0.5,0.9,1.1,1.8,2.1c-0.3-4-0.9-7.4,0.9-10.5
			c0.4-0.1,0.6-0.2,0.8-0.2c4.3,0.5,4.4,0.5,6.4-2.8c0.9-1.4,2-2.4,4.1-2.1c0.5,0.1,1.1-0.1,1.7-0.2c0-0.8,0-1.5,0-2.1
			c0.2-2.9,1.9-4,5.1-3.2c1.2,0.3,2.4,1,3.4,1.8c1.1,0.8,1.9,1.9,2.9,2.9c2,2.1,3.6,2.4,6.3,0.9c2.2-1.2,4.4-1.8,7-1.3
			c1.6,0.3,3,0.1,3.8-1.3c0.9-1.6,2.4-2.3,4.5-2.3c2.1,0,3.1-1,3.2-3.3c-1.9,2-4,2.7-6.1,1.4c-1-0.6-2.2-1.3-3.4-2
			c1.1-0.4,0.9-2.2-0.5-2.2c-3.9,0-7.5-1-11.1-2.2c-2.6-1.6-5-3.7-7.3-5.4c-0.5-0.3-0.8-0.7-1.1-1.1c0.2-0.1,0.3-0.2,0.4-0.4
			c2.4-3.4,6.6-2.5,10.5-2.2c1.6,0.1,1.6-2.1,0-2.3c-0.3,0-0.7-0.1-1-0.1c-1.1-2-2.9-1.7-4.4-1.7c-4.5-0.1-8.1-1.9-10.5-5.1
			c-0.8-1-1-1.8-0.8-2.5c0.2-0.1,0.5-0.1,0.7-0.2c0.4-0.1,0.8-0.3,1.2-0.5c1.8,2.1,6.5,1.4,6.5-1.9c0-4.3,0-8.7,0.6-13
			c0-0.1,0-0.2,0-0.4c0.6-0.6,1.3-0.9,2.1-1c0.4,0.4,1.1,0.8,1.9,0.9c3.1,0.4,6.5,7.7,5.2,10.1c-0.8,1.3-0.4,2.6,0.4,3.6
			c0,0-0.1,0-0.1,0.1c-2,1.5-3.4,3.2-2.6,5.6c0.3,0.9,1.8,1.2,2.3,0.3c1.7-3.1,6.7-6.7,10.3-4.6c1,0.9,1.6,2.2,1.7,3.8
			c0.2,4.1-0.9,7.8-5.1,10.4c-0.5,0.3-0.9,1-1.5,1.6c0.1,0.1,0.2,0.2,0.3,0.2c-0.4,0.3-0.5,0.8-0.2,1.3c0.8,1.1,1.5,2.3,2.5,3.3
			c1,0.9,2.8-0.3,2-1.4c-0.2-0.3-0.4-0.6-0.6-0.9c1.4-0.2,2.8-1,3.9-2.2c0.2-0.2,0.3-0.4,0.3-0.7c0.1,0,0.2-0.1,0.3-0.1
			c1.3-0.8,2-0.2,2.2-1.6c0.3-2.2,0.9-4.2,3.4-4.9c-0.7-0.8-1.7-1.4-1.7-2c-0.1-1.2,1-1.9,2.4-2c1.1,0,2.2,0.1,3.3,0.2
			c1.2,0.1,2.4,0.3,3.7,0.4c0.3-1,0.6-1.7,0.7-2.4c0.6-2.7,2.2-5,4.5-6.8c0.8-0.7,2.2-1.4,3.1-1.3c2,0.2,2.9-0.6,4-1.7
			c0.9-1,1.9-2,3.1-2.7c1.7-1,2.5-2.3,2.5-4c-0.1-2.1-0.1-4.2-0.3-6.3c-0.5-3.6,1.2-5,5.2-4.3c0.5,0.1,1,0.4,1.4,0.3
			c0.8-0.1,1.9-0.3,2.2-0.8c1.9-3,4.6-3,7.9-2c2.2,0.7,3.1,0,3.4-2.1c0.1-0.6-0.1-1.3,0.2-1.9c0.2-0.5,0.7-1.3,1.3-1.4
			c2.1-0.5,4.1-0.8,6.4,0c1.9,0.7,2.2,1.8,2.6,3.2c0.4,1.5,1.5,1.8,3.1,1.3c2.5-0.9,5.2-1.3,7.2-3c1.8-1.5,4.1-1.1,5.1,0.9
			c0.9,1.7,1.3,3.6,1.6,5.5c0.4,2,0.3,4,0.7,6c0.3,1.5,0.8,2.9,3.1,3.6c2.5-1.7,5.2-3.4,7.7-5.2c2.3-1.8,4.8-2.5,7.8-1.5
			c2.7,0.9,3.2,2,2,4.4c-1.1,2.2-1.7,4.3,0.3,6.6c0.7,0.8,0.7,2.2,0.7,3.3c-0.1,2.6,0.1,3.1,3.1,3c2.3-0.1,4.6-0.6,6.9-1
			c2.4-0.5,4.5-0.2,5.7,1.8c0.7,1.2,1.8,1.6,3.2,1.7c1.3,0.1,2.7,0.5,3.8,1c1.3,0.6,2.8,1.5,2.2,2.9c-0.7,2,0.8,2.6,2,3.3
			c2.4-1.1,4.5-2.3,6.7-3.1c3.3-1,5.6,0.5,5.7,3.5c0,1.2-0.3,2.3-0.4,3.5c0,0.9,0.2,1.7,0.3,2.9c2.8-1,5-2,7.3-2.6
			c4.4-1.2,6.9,0.7,5.9,4.5c-0.6,2.5-1.3,5-2.1,7.4c-0.5,1.6-0.3,2.7,0.9,4.1c1.2,1.3,2.1,2.9,2.3,4.5c0.6,4-1.2,5.4-5.9,5.3
			c-0.9,0-1.8,0.1-3.6,0.2c3.5,2.6,8.5,1.8,9.6,5.8c4.2-1.1,7,1.1,9.8,2.9c1.8,1.2,1.4,3.5-0.4,4.7c-0.7,0.4-1.5,0.7-2.3,0.9
			c-1.9,0.5-3.4,1.1-3,3.3c0.1,0.7-0.6,1.5-1.1,2.2c-0.6,0.8-1.3,1.5-2.2,2.3c1,0.9,1.8,1.7,2.6,2.5c2.1,2.1,2.1,3.6-0.2,5.5
			c-3.4,2.8-7,3.1-11,1c-3.6-1.9-3.8-1.9-6.5,0.6c-0.5,0.5-1.2,0.8-1.8,1.2c-0.7,0.4-1.4,0.9-2.1,1.3c0.1,0.2,0.2,0.4,0.4,0.6
			c1.2-0.2,2.3-0.4,3.5-0.7c3.6-0.8,3.8-0.8,5,3c0.7-3,2.7-2.5,4.3-1.7c1.7,0.9,3.9,2,4.5,3.5c1.4,2.9,3.3,5,6.4,6.7
			c2.8,1.5,2.8,4.5,0.6,6.6c-2,1.9-4.6,2.7-7.4,2.2c-6.4-1.1-13-2-17.7-6.5c-0.3-0.3-0.8-0.4-1.5-0.7c-2.1,3.3-4.9,5.9-8.9,7.2
			c0,0.5,0,0.8,0.1,1.1c0.7,3.4-0.9,5-4.9,5c-1.2,0-2.5-0.1-3.7,0c-4,0.5-6.8-1.2-9.5-3.4c-1.2-0.9-2.4-1.8-3.7-2.6
			c-1.4-0.8-2.8-0.9-4.1,0.2c-2.1,1.8-4.6,1.9-7.2,1.4c-1.9-0.3-3.3-0.3-4.2,1.5c-0.9,1.9-2.9,2.7-5.2,2.4c-3.1-0.5-6.3-0.9-9.3-1.9
			c-1.9-0.6-3.1-0.6-4.8,0.2c-1.7,0.8-3.6,1.3-5.3,2.1c-0.7,0.3-1.5,0.9-1.6,1.5c-0.3,2.3-2,2.7-4.2,2.6c-0.8,0-1.9,0-2.5,0.3
			c-4.4,2.5-8.4,1.6-12.3-0.8c-0.1-0.1-0.5,0-1,0.1c-0.3,0.6-0.7,1.4-1.1,2.2c-1,2.3-1.9,2.7-4.4,1.9c-1.8-0.6-3.6-1.5-5.4-2
			c-1.1-0.3-2.8-0.6-3.5-0.1c-2.3,1.7-4.9,1.6-7.5,0.9c-1.2,4.2-4,5.4-8.3,3.8c-2-0.8-3.5-1.8-4.6-3.5c-1.5-2.4-3.6-4.2-6.7-5.7
			c-0.7,1.1-1.4,2.1-2,3.1c-0.9,1.3-2,2.4-4,2.5c-1.6,0.1-3.2,0.3-4.8,0.4c-2.2,0.1-3-0.4-3.1-2.3c0-1.6,0.2-3.3,0.4-5.5
			c-1.8,1.7-3.1,3.1-4.6,4.2c-1.7,1.3-3.6,2.3-5.3,3.4c-2.7,1.8-3.3,2-5.8,0.2c-2.1-1.4-4.1-1.5-6.5-0.9c-5.7,1.6-8,1-11.5-3.1
			c-1-1.2-1.9-1.5-3.4-1.1c-0.9,0.3-1.9,0.5-2.8,0.7c-5.2,1.3-7.6-0.5-6.5-5.1c0.1-0.4,0.2-0.8,0.3-1.3c0.7-2.3,0.1-4-2.6-5.2
			c-2.6-1.2-3.1-3-2.2-5.5c0.4-1,0.8-1.9,1.2-3c-2.1-0.4-3.9-0.6-5.7-1c-1.9-0.5-3.8-1-5.5-1.7C238,146.1,237,145,237.4,143.4z"/>
		<g>
			<path d="M405,145.8c0.4-0.1,0.9-0.2,1.3-0.4c0-0.5-0.1-0.9-0.3-1.3c0.3-0.6,0.5-1.2,0.7-1.8c0.3,0.5,0.5,1,0.8,1.5
				c1.1,2.5-0.2,3.9-3.2,3.5c-0.2,0-0.4-0.1-0.7-0.1C404.2,146.7,404.6,146.3,405,145.8z"/>
			<path d="M397.5,150c0.6,0.1,1.1,0.2,1.7,0.2c0.2-0.2,0.5-0.5,0.7-0.7c0-0.1-0.1-0.1-0.1-0.2c0.4-0.1,0.8-0.3,1.2-0.5
				c0.5,0.9,0.8,1.7-0.3,2.6c-1.3,1-2.6,0.2-3.8-0.3c-0.5-0.2-0.9-0.4-1.4-0.6C396.1,150.3,396.8,150.2,397.5,150z"/>
			<path d="M363.9,171.8c2.2,0,2.9-1.3,1.5-2.8c-0.9-1-2.1-1.8-3.1-2.7c3.6-3.7,5-4,9.6-2c1.7,0.7,3.4,1.3,5.2,1.6
				c2.3,0.4,3-0.1,4.4-2.7c-1.9-0.5-3.7-1.1-5.6-1.6c-1.9-0.5-3.9-1.1-5.4-1.5c1-1.4,2.5-2.5,2.7-3.8c0.3-1.3,0.1-2.6-0.3-3.8
				c0.5,0,1.1,0.1,1.6,0.1c0.7,2.1,0.7,4.5-0.2,7.2c2.5,0.5,4.9,1.2,7.3,1.5c0.7,0.1,1.9-0.3,2.2-0.8c0.3-0.5,0.1-1.5-0.3-2.1
				c-1.1-1.6-2.6-2.6-4.8-2.8c-0.6-0.1-1.2-0.2-2.2-0.4c1.5-1,2.6-1.8,3.8-2.6c0.4,0.4,0.9,0.9,1.4,1.3c1.6,1.4,3.1,2.9,4.8,4.2
				c1.2,0.9,2.8,1.7,4.4,0.9c1.8-0.9,2.4-2.6,2-4.3c-0.2-1.1-0.6-2.2-1-3.3c0.6-0.1,1.2-0.2,1.8-0.4c0.2,1.2,0.4,2.1,0.6,3.1
				c0.8,5-1.5,7.1-7,6.4c-0.2,0-0.5,0.1-0.8,0.1c-1.6,1.6-3.2,3.3-4.7,5c-1.4,1.5-3.1,2.1-5.3,1.6c-0.5-0.1-1.1-0.1-2-0.2
				c0.3,0.9,0.4,1.5,0.6,2.2c0.5,2.4-0.3,3.1-2.9,2.3c-1.1-0.3-2.3-0.7-3.5-1.1c-1.3,2.8-3.7,3.6-6.4,3c-2.1-0.4-4-1.3-4.3-3.7
				c0.9,0.2,1.5,0.8,2.3,1.1C361.4,171.1,362.6,171.7,363.9,171.8z M373.3,170c-1.4-5.4-4.8-7-8.5-4.2
				C367.1,167.8,369.7,169.2,373.3,170z"/>
			<path d="M322.8,94.8c-2.9-1.4-3-4-4.8-5.5c-0.8,1.7-1.3,3.4-2.2,4.9c-0.2,0.4-0.5,0.8-0.7,1.1c-1.3,0.2-2.6,0.5-3.8,0.8
				c-0.4-0.2-0.9-0.4-1.3-0.7c-1-0.7-2.3-1.6-3.4-1.6c-6.3-0.1-11.4-2.8-16.2-5.8c-1.4-0.8-3.3-1.8-2.7-3.6c0.6-1.9,2.8-1.8,4.7-1.9
				c1.6,0,3.2,0.1,4.8,0.1c0.7,0,1.3,0,2.1,0c-1.3-4-1.3-4-5.2-3.9c-3.8,0.1-7-1.1-9.7-3.4c-1.4-1.2-2.4-2.5-1.8-4.8h8.6
				c-3-4.8-2.2-9.3-0.9-13.7c0.7-2.2,2.2-2.9,4.4-1.8c1.5,0.7,3,1.6,3.1,3.4c-1-0.7-1.9-1.3-2.9-1.9c-1.1-0.6-2.1-0.6-2.9,0.5
				c-2.2,3-2.9,10.1,0.6,12.7c2.1,1.6,3.3,3.7,5,5.5c0.2,0.2,0.6,0.3,0.9,0.4c1.4-1.7,2.6-3.3,3.9-4.8c1.8-1.9,4-1.2,6.1-0.6
				c2.1,0.5,2.5,1.9,2.6,3.6c0.3,3-0.3,5.9-2,8.3c-1.1,1.7-3.4,2.8-5.5,4.4c1.3,1.5,2.9,3.2,4.8,5.3c1.4-3.2,3.4-5.5,6.5-6.6
				c1.8-0.7,2-1.7,2-3.1c0-1.1,0.1-2.2,0.2-3.4c0.3,0,0.6,0,0.9,0c0.2,1.8,0.3,3.6,0.7,5.4c0.5,1.9,1.1,3.8,1.9,5.7
				c0.7,1.6,1.7,3.1,2.9,5.1C323.2,94.8,323,94.8,322.8,94.8z M291.1,72.2c-2.4-0.4-4.8-0.4-7.3-0.6c1,4.6,6.9,6.9,12.2,4.8
				C295.1,74.1,293.6,72.6,291.1,72.2z M308.3,80.4c0.7-1.7,1.3-3.6,1.7-5.4c0.5-2.3,0-3-2.2-4c-2.1-0.9-4-0.7-5.4,0.8
				c-2.1,2.3-3.4,4.9-1.8,7.9c0.6,1.1,0.9,2.3,1.3,3.5C306,83.6,307,83.2,308.3,80.4z M289.2,84.6c2.6,4.3,11.4,8.2,15.9,7.1
				C303,85.1,296,82,289.2,84.6z M310.3,92.7c0.2,0.8,1,1.8,1.9,2.1c0.6,0.2,2-0.5,2.3-1.1c1-2.3,1.8-4.6,2.6-7.1
				C312.9,86.7,309.7,89.7,310.3,92.7z"/>
			<path fill-rule="evenodd" clip-rule="evenodd" d="M440.1,106.2c1.9,2.1,4.4,2.7,7.2,2.7c5.4,0,7.1-2.4,4.5-6.9
				c0.4-0.4,0.9-0.9,1.3-1.4c1.7-2.1,1.9-3.4,0-5.4c-2.7-2.7-5.7-5.1-8.5-7.8c-0.7-0.7-1.2-1.6-1.5-2.4c-0.7-2.4-2-3.9-4.7-3.9
				c-2.4-0.1-4.9,0.4-7.2,1c-2.3,0.6-4.5,1.6-7.2,2.5c0.1-1.7,0.3-2.9,0.3-4.1c0-1.2,0-2.4-0.4-3.6c-0.7-2.4-1.8-2.9-4.7-2.2
				c-0.6,0.1-1.2,0.3-2,0.6c-0.5-1.2-1-2.3-1.5-3.3c-0.9-1.9-2.2-3.5-4.5-4.1c-2.9-0.8-4.6-0.1-6.1,2.2c-0.5,0.8-1.4,1.4-2.4,2.4
				c0.8,0.9,1.9,2.2,3.1,3.5c0.2-0.1,0.4-0.2,0.6-0.3c-0.1-1.1-0.3-2.1-0.2-3.2c0.1-1.4,0.5-3,2.4-3.4c1.7-0.4,3.3,0.2,4.3,1.5
				c2.1,2.6,3.4,5.3,1.5,8.6c-1.4,2.5-1.2,2.6-0.2,5.1c1.8-0.8,1.8-2.3,2-3.6c0.4-2.6,2.2-4,4.6-4.9c2.2,1,2.3,2.6,2.2,4.1
				c-0.2,2.3-0.7,4.6-1.1,6.9c-0.2,1.2-0.6,2.5-0.6,3.8c2.1-1.9,2.3-5.2,6.3-5.5c1.3,3.2-1.2,5.6-1.6,8.3l-0.1,0
				c1.2-1.4,2.3-2.7,3.8-4.4c8.1-1.7,10.8-1.8,14.1,0.1c-1.3,0.6-2.5,1-3.6,1.5c0,0.2,0,0.4,0,0.6c0.8,0,1.6,0.1,2.5,0
				c4.4-0.5,8.8,2.1,9.9,5.8c0.5,1.7-0.5,2.8-2,3.5c-1,0.5-2.2,0.7-4,1.3c1.6,0.7,2.6,0.9,3.4,1.5c0.7,0.5,1.8,1.4,1.6,1.9
				c-0.3,0.8-1.3,1.8-2.1,1.9c-2,0.2-4.1,0-6.2-0.2C442.2,107,441.1,106.6,440.1,106.2L440.1,106.2z M430.5,87.2
				c0.5-1.6,0.6-2.8,1.2-3.5c1.6-1.8,6.7-2,8.6-0.6c0.5,0.4,1.1,1.2,1,1.6c-0.2,0.6-1,1.3-1.7,1.4C436.9,86.6,434.2,86.8,430.5,87.2
				z"/>
			<path fill-rule="evenodd" clip-rule="evenodd" d="M442.6,144.7c0.8,0.2,1.8,0.4,2.9,0.6c3.3,0.4,5-1.1,4.3-4
				c-0.3-1.5-0.9-2.9-1.4-4.3c0.6-0.3,0.9-0.5,1.2-0.6c3.6-0.9,4-1.8,2-4.5c-1.5-2.1-3-4.2-5.9-5.8c1.6,3.3,4.7,5.2,5.7,8.3
				c-2.6,0.5-2.6,0.5-7.8-2.6c0.5,1.1,0.8,1.7,1.2,2.3c1.3,2.4,2.8,4.7,3.8,7.2c0.8,1.9-0.5,3.1-2.6,2.8c-2.2-0.4-4.2-1.2-5.3-3.2
				c-0.9-1.6-2-3-3.1-4.4c-0.5-0.6-1.4-1.1-2.1-1.6c-0.2,0.1-0.4,0.3-0.7,0.4c0.4,0.9,0.6,1.8,1.1,2.6c0.8,1.2,1.9,2.3,2.7,3.6
				c0.6,1,1.2,2.2,1.4,3.3c0.2,1.4,0.2,3.1-1.7,3.7c-1.8,0.6-2.7-0.8-3.5-1.9c-1.1-1.5-2-3-3-4.6c-0.5-0.8-1-1.6-1.7-2.9
				c-0.9,1.9,0.3,2.9,0.5,3.9c0.4,1.8,1,3.6,1.2,5.5c0.1,1.5-0.8,2.8-2.5,3.3c-1.7,0.4-3-0.6-3.7-1.7c-1.2-1.9-2-3.9-3.3-6.5
				c-0.2,1.1-0.6,1.7-0.4,2.2c0.8,1.9,1.5,4,2.8,5.7c2.3,2.9,5.8,2.6,7.8-0.5c0.5-0.8,0.8-1.6,1.3-2.5c1.9,0.5,3.6,2.9,5.6,1.4
				C440.9,148.5,441.4,146.5,442.6,144.7z"/>
			<path fill-rule="evenodd" clip-rule="evenodd" d="M384.8,64.8c0.6-2,1.1-4,1.7-6c0.6-2.3,1.8-4.3,4.2-5.6c0.6-0.3,1.3-0.7,2-0.7
				c1.3-0.1,2.6,0.4,2.8,1.6c0.1,0.6-0.7,1.6-1.4,2c-1.1,0.7-2.4,1.2-3.6,1.7c-0.6,0.3-1.3,0.5-1.9,0.8c0.3,0.3,0.5,0.6,0.8,0.9
				c0.6-0.1,1.3-0.1,1.9-0.4c1.5-0.7,3-1.5,4.4-2.4c3-1.7,3.6-1.6,5.6,1c2-0.5,3.9-1.1,6-1.5c3-0.6,4.9,0,5.6,1.4
				c0.7,1.6-0.2,4.4-2,5.7c-0.7,0.5-1.5,1-2.2,2.1c2.8,0,5.6,0,8.6,0c0.3-2-2.5-1.2-3.6-2.4c0.3-0.9,0.7-1.9,0.9-3
				c0.7-3.1-1-4.9-4.5-5c-1.2,0-2.6-0.1-3.7,0.2c-2.9,0.9-5.7,0.1-8.2-0.9c-2-0.9-3.9-2.3-5.3-3.9c-0.8-0.9-0.5-2.5-0.6-3.8
				c-0.3-2.6-0.4-5.3-0.8-7.9c-0.1-0.8-0.6-1.7-1.1-2.4c-1.3-1.8-3-1.9-4.4,0c-0.7,1-1.2,2.1-1.7,3.2c0.2,0.1,0.4,0.3,0.6,0.4
				c1-1.2,2-2.3,3.3-3.8c0.7,0.7,1.5,1.2,1.8,1.8c1.7,4,1.9,8.2,0.8,12.3c-0.2,0.9-1.1,1.7-1.8,2.4
				C385.7,56.2,384.2,60.2,384.8,64.8z"/>
			<path fill-rule="evenodd" clip-rule="evenodd" d="M270.4,162.6c-2.5-1-3.7-0.2-4.3,1.3c-1.2,3.4-4.3,4.7-7.7,5.5
				c-2.8,0.7-3.2,0.4-4-2.3c-0.1-0.3-0.2-0.5-0.5-1.1c-1,1.5-1.1,2.7-0.2,3.9c1,1.3,2.5,1.4,4,1c2.5-0.7,4.9-1.5,7.5-2.3
				c0.4,0.7,0.8,1.5,1.1,2.2c1.5,3.1,4.8,4.5,8.5,3.8c0.8-0.2,1.7-0.3,2.5-0.7c2.5-1.2,4.6-1.4,7.5-0.4c4.5,1.6,10.7-1.7,13.2-6.4
				c0.6-1.1,0.9-2.3,1-3.7c-2.2,4.1-4.9,7.7-10.2,8.8c-2.2,0.5-4.4,0.3-6.4-1.3c0.7-2.9,3.7-5.1,3-8.5c-1.1,1.9-2.2,3.9-3.6,6.3
				c-0.5-1.2-0.7-1.9-1.2-3.1c-0.2,1-0.3,1.4-0.3,1.8c-0.1,3.3-1.4,4.9-4.9,5.6c-3.7,0.7-6.8-0.5-8.1-3.1c-0.9-1.7-0.8-3.2,0.7-4.6
				C268.9,164.6,269.6,163.7,270.4,162.6z"/>
			<path fill-rule="evenodd" clip-rule="evenodd" d="M463.1,137.3c4.4,1.5,7.5,0.2,10.3-2c1.3-1.1,1.4-2.3,0.2-3.5
				c-1.2-1.1-2.4-2.2-3.7-3.3c-0.8-0.8-1.6-1.5-2.7-2.5c2.4-0.7,4.5-1.3,6.4-1.9c0.2-2.6-2.4-2.8-3.7-4.5c2-0.1,3.7-0.1,5.4-0.3
				c2-0.3,4.6-0.5,5.2-2.5c0.6-2.1-1.9-2.8-3.5-3.7c-1.4-0.8-2.9-1.4-4.4-2.1c-0.1,0.2-0.3,0.4-0.4,0.6c2.3,1.4,4.5,2.9,7.3,4.7
				c-6.7,3.6-13.2,0.8-19.4,0.8c-0.1,0.3-0.1,0.5-0.2,0.8c1.9,0.7,3.9,1.3,5.8,2.1c1.9,0.8,3.6,1.7,6.3,3c-3,0.9-5.2,1.5-8.2,2.3
				c3.3,2.9,6,5.3,8.8,7.7C470.7,136.8,466.5,135.7,463.1,137.3z"/>
			<path fill-rule="evenodd" clip-rule="evenodd" d="M423.6,130.4c3.4,1,3.6-1.2,4.6-2.5c1.5,0.5,2.9,1,4.3,1.3
				c1.5,0.4,3.2,0.7,4.5-0.6c1.3-1.4,0.9-2.9,0.1-4.3c-0.5-1-1.2-1.9-1.7-2.8c1.1-1.7,2.1-3.3,3.2-5c1.5-0.6,3.3-1,4.8-1.9
				c2.3-1.3,2.3-2.7-0.1-4c-0.8-0.4-1.7-0.6-2.9-0.6c1,0.8,2,1.5,3.2,2.5c-4.6,4-9.8,1.7-14.8,1.7c1.9,2,5.7,0.6,7,3.4
				c-1.3,1.7-1.3,1.7-6.1,1.7c3,2.4,6.6,4.1,6.3,8.5c-6.7,0.4-10.5-4.3-15.9-6.3c0.6,0.7,1.2,1.4,1.8,2.1c0.9,0.9,1.8,1.8,2.7,2.7
				C425.9,127.7,426.4,129.1,423.6,130.4z"/>
			<path fill-rule="evenodd" clip-rule="evenodd" d="M338,153.6c1.9,0.5,3.7,0.2,5.3-0.8c0.8-0.5,1.3-1.1,1.4-1.7
				c0.4,0.1,0.8,0.1,1.2,0.2c0,0,0,0,0,0c-0.3,1.4-1.9,2.6-3,4c0.2,1.2,2,2.3,0.4,3.6c-1.5,1.2-3.3,1.2-5.9,0.4
				c2.1-0.6,3.5-1,4.8-1.5c-1.7-3.9-6.3-1.1-8.5-3.6C335.1,153.1,336.5,153.3,338,153.6z"/>
			<path fill-rule="evenodd" clip-rule="evenodd" d="M408.8,154.6c1.3,1.6,2.6,3.1,4,4.7c-1.4,2.4-1.8,2.7-4.3,2.1
				c-1.8-0.4-3.4-1.1-5.1-1.9c-1.6-0.8-3.1-1.8-5.1-2.3c0.3,0.6,0.6,1.3,1,1.9c2.7,4,2.4,4.9-2.1,7.1c3.2,1.3,4.6,0,5.6-5.1
				c1.6,0.5,3.2,1,4.8,1.5c2.5,0.7,4.5,0.3,6.3-1.6c0.8-0.8,2.1-1.4,3.4-1.7c3-0.8,5-3.7,3.7-6.1c-1.2-2.1-2.6-4.2-5.3-5.2l0.1,0
				c1.1,1.6,2.2,3.1,3.3,4.7c1.3,1.8,1.2,3.1-0.4,4.4c-1.5,1.2-2.9,1-3.6-0.8c-0.6-1.7-1.6-3-3.4-3.7
				C409.6,151.8,408.7,152.6,408.8,154.6c0.6-1.2,1.6-1.2,2.7-0.6c1.2,0.7,2.1,1.5,1.1,3.3C411.3,156.3,410.1,155.4,408.8,154.6z"/>
			<path fill-rule="evenodd" clip-rule="evenodd" d="M461.6,142.1c0.8,0.5,1.5,0.9,2.3,1.4c1.2,0.8,2.5,1.5,3.3,2.6
				c0.6,0.7,0.8,1.8,0.7,2.7c-0.1,0.3-1.6,0.5-2.5,0.6c-0.9,0.1-1.9,0-3.2,0c1.1,2.2,2.9,2.1,4.6,2.1c3,0.1,5.6,0.9,7.8,2.6
				c1.9,1.4,1.9,2.2,0.2,3.8c-1.5,1.4-3.4,1.9-5.4,1.7c-4.6-0.6-9.3-1-12.9-4.2c-0.7-0.6-2.1-0.6-3.2-0.8c-0.1,0.2-0.2,0.4-0.3,0.6
				c0.6,0.4,1.2,0.9,1.9,1.2c4.4,1.5,8.7,3.2,13.1,4.4c3,0.8,5.9,0.1,8.1-2.1c2-1.9,1.8-3.7-0.4-5.4c-0.4-0.3-0.8-0.6-1.2-0.8
				c-2.8-1.1-4.5-2.5-5.3-5.6C468.5,144,465.3,142.4,461.6,142.1z"/>
			<path fill-rule="evenodd" clip-rule="evenodd" d="M344.6,80.7c0.5-3,2.2-4.9,5.6-5.5c3.2-0.5,5.4,1.7,8.4,2.3
				c-0.9-0.9-2-1.7-2.7-2.6c-0.5-0.7-1.1-1.9-0.8-2.3c0.6-0.7,1.9-1.3,2.7-1.1c2,0.4,3.9,1.3,5.8,2c0.9,0.4,1.8,0.9,2.9,1.5
				c-0.9-3-1.7-5.7-2.4-8.4c-0.1-0.4,0.4-1,0.7-1.9c1.7,1,3.1,1.9,5.2,3.2c-0.4-1-0.5-1.5-0.8-1.7c-1.4-1.3-2.6-3.4-5.1-2.5
				c-2.4,0.9-1.3,3-1.3,4.7c0,0.9,0.2,1.7,0.3,2.7c-2.4-0.3-4.5-0.8-6.6-0.8c-2.4,0-3.8,1.4-3.6,3.6
				C345.9,74.5,343.1,76.8,344.6,80.7z"/>
			<path fill-rule="evenodd" clip-rule="evenodd" d="M342,170.6c-1.3-1.6-2.6-3.2-4-4.7c-0.3-0.3-1.2-0.1-2.5-0.2
				c0.9,1.2,1.5,1.9,1.9,2.6c0.6,1.1,1.3,2.1,1.6,3.3c0.3,1.6-0.8,2.3-2.5,1.8c-2.4-0.7-4.4-2-5.1-4.4c-0.3-1.1-0.6-2.3-1.2-3.4
				c-1.6,3.7-0.2,7.7-1.3,11.6c-3.5,0.4-4.3-3.1-7.4-3.9c1,2.7,2.9,4.4,5.5,5.5c1.7,0.7,2.8,0.2,3.3-1.5c0.4-1.6,0.5-3.2,0.7-5.3
				c1,0.6,1.7,1.1,2.4,1.6c3.5,2.3,5.6,1.7,7.2-1.8C341,171.2,341.6,170.9,342,170.6L342,170.6z"/>
			<path fill-rule="evenodd" clip-rule="evenodd" d="M437.9,68.9c-2.3,0.9-4.1,1.7-6.1,2.5c2.3,2.7,6.4-0.6,8,2.8c-1,2-3.8,0.4-5,2
				c1.8,1.3,2,1.3,6.2,0.3c0.8-4,0.6-4.2-4.5-5.4c1.6-0.6,2.8-1.1,4.2-1.7c-2.1-3.5-5.9-2.9-9.3-3.4c-0.4-2-1.2-3.7-3.9-3.6
				c-2.3,0.1-3.9,0.9-4.8,3.1c1.6-0.6,2.8-1.3,4.1-1.6c0.8-0.1,1.7,0.5,2.6,0.8c-0.3,0.6-0.6,1.3-0.9,1.9c-0.2,0.4-0.5,0.7-0.9,1.5
				C431.1,66.8,434.4,66.4,437.9,68.9z"/>
			<path fill-rule="evenodd" clip-rule="evenodd" d="M336.1,63.2c-1.3-1.3-2.2-0.3-3.1,0.4c-2.7,2.4-4.6,5.2-4.8,8.7
				c0,0.5-0.1,1-0.1,2c-2.6-0.4-5-0.5-7.4-1.1c-2.3-0.5-2.8,0.4-3.2,2.5c1-0.7,1.6-1.1,2.5-1.7c1,1.2,2,2.2,3.1,3.5
				c0.3-0.8,0.5-1.5,0.7-2.2c4.1-0.7,6.6,1.3,8.6,4c0.9,1.2,1.7,2.4,4,2.7c-0.4-1-0.5-1.7-0.9-2.3c-0.5-0.7-1.3-1.3-2-2
				C327.6,72.6,328.7,66.5,336.1,63.2L336.1,63.2z"/>
			<path fill-rule="evenodd" clip-rule="evenodd" d="M460.5,102.4c3.7,2.6,7.6,2.2,8.9-0.3c1.2-2.4-1.2-7.2-4-8.1
				c-3.2-1.1-5.6,0.2-6.9,3.7c0.4-0.2,0.7-0.3,0.9-0.5c3-3.1,6.8-2.5,8.4,1.4c1,2.3-0.3,4-3,4C463.3,102.7,461.9,102.5,460.5,102.4z
				"/>
			<path fill-rule="evenodd" clip-rule="evenodd" d="M349.5,53.2c-0.5-1.1-0.9-2.3-1.4-3.4c-0.4-0.8-1-1.6-1.1-2.4
				c-0.1-1,0.2-2.1,0.4-3.1c1.2,0.1,2.5,0,3.4,0.5c3.3,1.5,5.2,4.3,7.3,6.9c0.4,0.6,0.9,1.1,1.9,1.4c-0.2-0.6-0.2-1.2-0.5-1.7
				c-0.6-1-1.5-1.8-1.9-2.8c-1.4-3.5-5.1-4.3-8.1-5.7c-2.4-1.1-4.8,0.6-4.2,2.9C345.9,48.5,346.5,51.5,349.5,53.2L349.5,53.2z"/>
			<path fill-rule="evenodd" clip-rule="evenodd" d="M452.2,82.2c2-2.6,2.3-5.7,2.7-8.7c0.2-2.1-1.9-3.4-4.3-2.8
				c-3.7,0.9-6.3,2.9-8,6c-0.1,0.2-0.1,0.4-0.1,0.6c0,0.2,0.2,0.4,0.6,0.8c0.9-1.1,1.9-2,2.6-3.1c1.1-1.7,2.8-2.4,4.8-2.8
				c2.1-0.4,3.1,0.3,2.7,2.3c-0.4,2-1,3.9-1.5,5.8c-0.2,0.6-0.2,1.2-0.4,1.8C451.6,82.2,451.9,82.2,452.2,82.2z"/>
			<path fill-rule="evenodd" clip-rule="evenodd" d="M253,150.3c0.3,0.3,0.6,0.6,0.9,0.9c-0.7,0.3-1.3,0.6-1.9,1
				c-2.5,1.8-2.2,4.2,0.8,5.5c2,0.9,4.2,1.2,6.5,0.4c0.9-0.3,1.9-0.9,3,0c-3.8,2.5-7.6,2.7-11.1,0.6c-2.3-1.4-2.9-3.1-1.9-5.1
				C250,151.9,251.4,150.8,253,150.3z"/>
			<path fill-rule="evenodd" clip-rule="evenodd" d="M250.9,149.3c-3.7-2.3-9-1.5-12.4-4.8c2.4-3.8,5.7-2,9-1.2
				c-2.8-2.8-7.4-2.9-9.8-0.5c-1.2,1.2-1.3,2.6,0.3,3.4C242.1,148.1,246.3,149.3,250.9,149.3z"/>
			<path fill-rule="evenodd" clip-rule="evenodd" d="M420.6,161.1c4.5,1.8,8.4,3.4,12.3,5c0.5,0.2,0.9,0.4,1.3,0.6
				c2.6,0.9,4.7,0.5,5.6-1c0.9-1.6,0.1-3.2-3-5.2c0.6,1.3,1.1,2.1,1.4,2.9c0.6,1.5-0.1,2.4-1.9,2.3c-1-0.1-2-0.3-2.9-0.6
				c-2.2-0.8-4.3-1.7-6.4-2.6C425.1,161.7,423.3,160.9,420.6,161.1z"/>
			<path fill-rule="evenodd" clip-rule="evenodd" d="M366.1,40.9c-0.1,0.9-0.3,1.9-0.4,2.8c-0.3,0.2-0.6,0.4-0.9,0.6
				c-0.6-0.8-1-1.7-1.8-2.4c-1-0.9-2.2-1.9-3.5-2.2c-1.1-0.3-2.7,0-3.8,0.5c-1.4,0.7-1.6,2-1,3.4c0.3-0.1,0.7-0.2,0.7-0.3
				c1.1-3,2.9-3.6,5.6-1.8c0.9,0.6,1.6,1.7,2.4,2.5c0.8,0.8,1.7,1.7,2.7,2.6c1.8-2.2,1.1-4,0.9-5.8
				C366.8,40.9,366.5,40.9,366.1,40.9z"/>
			<path fill-rule="evenodd" clip-rule="evenodd" d="M342.1,170.6c2.4,2.6,5.7,3.7,9,5c2.1,0.8,3.2-0.2,2.6-2.1
				c-0.7-2.2-1.7-4.3-2.7-6.5c-0.2-0.6-0.6-1.1-0.8-1.7c-0.3,0.2-0.5,0.4-0.8,0.7c0.9,2.5,1.9,5.1,3.1,8.4
				C348.5,172.9,345.3,171.8,342.1,170.6L342.1,170.6z"/>
			<path fill-rule="evenodd" clip-rule="evenodd" d="M467.5,83c1.2-1.2,1.4-2.7,0.4-4c-1.1-1.4-2.9-1-4.4-0.6
				c-3.4,1-6.6,2.4-9.2,4.8c-1.1,1.1-2,2.2-1.1,4.4c1.7-4.1,5.1-5.9,8.8-7.4C466.9,78.4,467.3,79.9,467.5,83L467.5,83z"/>
			<path fill-rule="evenodd" clip-rule="evenodd" d="M403.8,48.7c1.9-0.7,3.7-1.9,5.6-2c1.7-0.1,3.5,1.1,5.4,1.8
				c-0.1-1.8-1.6-2.6-3.3-3.1C408.7,44.7,406,45.8,403.8,48.7z"/>
			<path fill-rule="evenodd" clip-rule="evenodd" d="M359.4,89.1c-5-0.2-8.2-3.3-12.3-5.9C349.8,88,355.9,90.9,359.4,89.1z"/>
			<path fill-rule="evenodd" clip-rule="evenodd" d="M308.5,166.4c0.1,2.1,2.2,4.4-0.5,6.7c-1.1-0.6-2.3-1.2-3.5-1.8
				c0,0.2-0.2,0.4-0.1,0.6c1,1.4,2,2.9,4.3,2.5c1.3-0.3,2.4-2.7,2-4.6c-0.2-1.2-0.9-2.3-1.4-3.5C309,166.3,308.7,166.4,308.5,166.4z
				"/>
			<path fill-rule="evenodd" clip-rule="evenodd" d="M297.6,58.5c0.4,1.2,0.8,2.3,1.1,3.5c1.1,3.8,0.6,6-1.7,9
				c1.9-0.3,2.3-0.5,2.8-2.4C300.8,64.9,301,61.4,297.6,58.5L297.6,58.5z"/>
			<path fill-rule="evenodd" clip-rule="evenodd" d="M372.1,70.8c1.2,3.2,2.5,6.5,3.7,9.6C377,78.4,375.9,74.7,372.1,70.8z"/>
			<path fill-rule="evenodd" clip-rule="evenodd" d="M469.1,109.8c-5.5-3.4-9.6-3-12.1,1c2-0.8,3.8-1.9,5.7-2.1
				C464.6,108.6,466.6,109.4,469.1,109.8z"/>
			<path fill-rule="evenodd" clip-rule="evenodd" d="M349.5,53.2c0.8,2.2,1.4,4.4,2.4,6.4c0.3,0.7,1.5,1.1,2.5,1.4
				C353.8,57.8,352,55.3,349.5,53.2L349.5,53.2z"/>
			<path fill-rule="evenodd" clip-rule="evenodd" d="M467.5,83c-1.6,2.3-3.2,4.6-4.9,7C465.4,89.5,467,87,467.5,83L467.5,83z"/>
			<path fill-rule="evenodd" clip-rule="evenodd" d="M459.8,141c-2.8-0.4-3.9,0.1-4.5,1.9c-0.5,1.6,0.4,2.2,2.1,2.4
				C456.4,141.9,455.6,142.8,459.8,141z"/>
			<path fill-rule="evenodd" clip-rule="evenodd" d="M426,93.7c-2,1.1-4,2.3-5.9,3.4C423.1,97.4,425.1,96.3,426,93.7L426,93.7z"/>
			<path fill-rule="evenodd" clip-rule="evenodd" d="M424.3,106.1c1.9-0.4,4-0.8,5.9-1.1C427.8,103.5,425.9,103.9,424.3,106.1z"/>
			<path fill-rule="evenodd" clip-rule="evenodd" d="M384.1,48.5c0.1-1.6,0.2-3.1,0.3-4.7c-0.3,0-0.7-0.1-1-0.1
				c-0.2,1.6-0.4,3.2-0.6,4.7C383.2,48.4,383.6,48.4,384.1,48.5z"/>
			<path fill-rule="evenodd" clip-rule="evenodd" d="M366.3,38.6c0.8-1.5,1.4-2.7,2.2-4.1c-0.4,0-1.4-0.3-2.1,0
				C365.6,34.8,365.6,35.8,366.3,38.6z"/>
			<path fill-rule="evenodd" clip-rule="evenodd" d="M439.8,156.3c0.9,1.4,1.7,2.3,3.5,0.9C442.6,155.7,441.8,154.9,439.8,156.3z"/>
			<path fill-rule="evenodd" clip-rule="evenodd" d="M415.6,148.1c-1.9-2.7-3.2-3-6-1.1C411.5,147.9,414,146.2,415.6,148.1
				L415.6,148.1z"/>
			<path fill-rule="evenodd" clip-rule="evenodd" d="M448.9,164.4c-1.6,0.7-2.5,1.1-3.6,1.6c1,0.7,2.1,1.5,3.4,0.8
				C449.1,166.6,448.9,165.5,448.9,164.4z"/>
			<path fill-rule="evenodd" clip-rule="evenodd" d="M376.3,51.2c0,1.8,0,3.6,0,5.4c0.2,0,0.4,0,0.7,0c0.1-1.8,0.2-3.6,0.3-5.3
				C377,51.2,376.7,51.2,376.3,51.2z"/>
			<path fill-rule="evenodd" clip-rule="evenodd" d="M336.2,63.1c0.4,1.2,0.8,2.4,1.4,4.1c0.9-0.9,1.3-1.4,1.8-1.9
				C338.2,64.5,337.2,63.8,336.2,63.1L336.2,63.1z"/>
			<path fill-rule="evenodd" clip-rule="evenodd" d="M440.3,124.2c1.1,0.1,2.2,0.1,3.9,0.2C442.7,122.8,441.5,122.9,440.3,124.2z"/>
			<path fill-rule="evenodd" clip-rule="evenodd" d="M440.1,106.3c-1.3-1-2.6-2-3.9-3c-0.2,0.2-0.4,0.5-0.6,0.7
				C437.1,104.7,438.6,105.5,440.1,106.3L440.1,106.3z"/>
		</g>
	</g>
</g>
</svg>
