<?xml version="1.0" encoding="utf-8"?>
<!-- Generator: Adobe Illustrator 18.1.1, SVG Export Plug-In . SVG Version: 6.00 Build 0)  -->
<!DOCTYPE svg PUBLIC "-//W3C//DTD SVG 1.1//EN" "http://www.w3.org/Graphics/SVG/1.1/DTD/svg11.dtd">
<svg version="1.1" id="Layer_1" xmlns="http://www.w3.org/2000/svg" xmlns:xlink="http://www.w3.org/1999/xlink" x="0px" y="0px"
	 viewBox="0 0 429.4 179" enable-background="new 0 0 429.4 179" xml:space="preserve">
<g>
	<g>
		<path fill="#2C5F67" d="M427.8,102.5c1.7-1.8,1.7-2.7,0-4.4c-1.3-1.3-2.5-2.5-4.9-2.5c1.3-0.7,2.1-1,2.8-1.5
			c0.8-0.5,1.4-1.3,1-2.2c-0.8-1.5-0.3-2.8,0.2-4.3c0.9-2.6-0.3-4.6-3.1-5c-0.6-0.1-1.2-0.1-2-0.1c0.2-1.2,0.5-2.2,0.6-3.2
			c0.4-3.6-2.1-5.7-5.5-4.6c-2.8,1-5.4,2.4-7.2,4.9c-0.8,1.1-1.6,1.5-2.8,0.7c-1.3-0.9-2.7-0.8-4.1,0c-0.4,0.2-0.8,0.3-1.7,0.6
			c0.4-0.8,0.6-1.2,0.8-1.5c0.5-0.6,1.1-1.2,1.7-1.7c0.8-0.8,1.3-1.9,0.7-2.8c-0.4-0.6-1.4-0.9-2.2-1.2c-0.5-0.2-1-0.1-1.5-0.2
			c0-0.6,0-1,0-1.4c-0.1-1.9-0.6-2.5-2.6-2.2c-1.2,0.2-2.4,0.7-4,1.1c0.7-1.5,1.3-2.9,2-4.2c1.3-2.3,1.1-3.8-0.9-5.7
			c-0.3,0.2-0.7,0.3-0.9,0.6c-2.3,2.4-4.6,4.8-7,7.2c-2.2,2.3-4.3,4.7-5.8,7.6c-1,1.9-1.4,2-3.7,0.9c0.4-0.8,0.8-1.6,1.1-2.3
			c1.4-3.2,0.3-6.3-2.7-8c-1.7-1-3-0.5-4,1.2c-0.9,1.5-1.9,2.9-2.9,4.3c-2.1-0.5-3.9-0.1-5.4,1.2c-1,0.8-1.8,0.5-2.4-0.5
			c-0.2-0.4-0.4-0.9-0.5-1.2c0.6-1.2,1-2.4,1.8-3.3c1.3-1.5,2.7-2.9,4.1-4.4c1-1,1.6-2.2,1.5-3.6c0-0.5,0-1,0-1.3
			c1.3-0.4,2.4-0.6,3.4-1.1c1.5-0.7,1.6-1.8,0.6-3.2c-0.4-0.6-0.9-1.2-1.5-1.8c0.4-0.1,0.6-0.2,0.7-0.2c0.6,0.2,1.2,0.4,1.8,0.6
			c3.5,1.4,6.8,0.9,9.9-0.8c1.8-1,2-2.3,0.4-3.6c-1.9-1.5-3.9-2.7-6.5-2.1c0.4-2,0.8-2.4,2.2-1.9c4.3,1.4,8.6,0.2,12.8-0.4
			c1.3-0.2,1.9-1.3,1.3-2.5c-0.5-1-1.3-1.8-2.1-2.5c-0.7-0.6-1.5-1-2.2-1.5c1.9-2,3.6-3.7,5.2-5.4c1.5-1.7,2.1-3.6,1.3-5.7
			c-0.7-1.9-2.7-2.4-4.3-1c-0.5,0.5-0.9,1.2-1.5,1.5c-3.8,2.4-5.6,6-6,10.4c-0.1,0.7-0.3,1.4-0.8,1.9c-0.3,0.4-1.1,0.5-1.6,0.7
			c-0.2-0.5-0.6-1.1-0.6-1.6c-0.1-1.9,0.1-3.8-0.2-5.7c-0.4-2.5-1.9-3-4.2-1.8c-3.1,1.7-4,4.6-4.6,7.7c-0.2,1.2,0.2,2.3,1.3,3.1
			c0.5,0.4,1,0.9,1.4,1.4c-2.9,2.9-6.3,4.3-10.3,5.4c0.3-0.7,0.5-1,0.7-1.4c0.6-1.3,1.4-2.5,1.9-3.8c0.9-2.1,0.4-3.2-1.8-3.8
			c-1.3-0.4-2.7-0.5-4-0.6c-1.2-0.1-2.5-0.2-4.1-0.2c0.6-0.9,1.2-1.5,1.4-2.1c0.4-1.2,1.2-1.6,2.5-1.8c1.7-0.3,3.5-0.8,4.9-1.8
			c2.1-1.4,4.7-2.2,6.1-4.5c0.2-0.3,0.7-0.4,1-0.6c2-1.1,2.1-2.6,0.1-3.7c-0.7-0.4-1.7-0.5-2.5-0.4c-1.7,0.2-3.4,0.5-5.2,0.8
			c0-1.8,1-3.1,1.6-4.5c0.5-1.2,1.3-2,2.6-2.2c1.9-0.4,3.5-1.5,5-2.8c1.2-1.1,2.4-2.3,3.6-3.5c0.7-0.7,1.2-1.6,0.7-2.6
			c-0.4-1-1.3-1.4-2.4-1.3c-2.1,0.2-3.9,1-5,2.9c-0.5,0.9-1,1.8-2.5,1.9c0.1-0.9,0.2-1.7,0.3-2.5c0.4-2.5,0.9-5,1.2-7.6
			c0.2-1.9-0.3-2.6-2.2-3.1c-1.8-0.5-2.8-0.1-3.6,1.4c-0.4,0.8-0.7,1.6-1.1,2.4c-2.4,4.3-1.9,8.4,0.8,12.4c0.8,1.2,0.7,2-0.3,3
			c-1.1-0.5-2.2-1-3.3-1.4c-1.6-0.6-3.9,0-4.7,1c-0.8,1.1-0.7,2.4,0.7,4.1c1.1,1.3,2.5,2.4,3.8,3.6c0.4,0.5,1,1.3,0.9,1.7
			c-0.4,1.3-1.1,2.5-1.9,4c-0.6-0.9-0.9-1.7-1.4-2.1c-0.4-0.3-1.2-0.6-1.7-0.5c-1.1,0.4-2.3,0.8-3.2,1.6c-0.7,0.6-0.9,1.8-1.5,2.6
			c-0.5,0.8-1.8,0.5-2.1,1.9c-0.4,1.9-0.4,3.6,0.2,5.4c0.4,1.2,0.3,2.4-0.5,3.4c-0.3,0.4-0.9,0.9-1.3,0.8c-0.4,0-0.8-0.7-1-1.1
			c-0.5-0.9-0.7-2-1.2-2.9c-0.7-1.3-2.4-2.2-3.6-1.9c-1.2,0.2-2,1.4-2.3,3.1c-0.1,0.6,0,1.1-0.1,1.7c0,0.6-0.1,1.2-0.2,1.9
			c-3.2,0-5.1,2.3-7.6,3.8c-0.8-1-1.5-2-2.2-2.8c0.9-2.2,2.1-3.8,4.2-4.9c2-1,3.6-2.6,5.2-4.1c1-1,0.8-1.8-0.6-2.4
			c-1.4-0.6-2.8-0.7-4.2-0.1c-2.4,1-5.2,1.9-6.3,4.4c-1.2,2.6-3.2,3.4-5.7,0.8c-0.7-0.8-1.6-1.4-2.7-2.3c-0.3,1-0.4,1.6-0.7,2.2
			c-0.5,1.3-0.7,2.8-2.5,3.2c-0.9,0.2-1.1,1.1-0.9,2c0.4,1.8-0.4,3-1.8,4.3c-0.2-0.9-0.2-1.5-0.4-2.1c-0.2-0.4-0.9-1-1.1-0.9
			c-1.9,0.5-4.1,0.4-5.3,2.4c-0.2,0.4-0.7,0.6-1.1,1.1c-2.7-2.1-4.8-0.7-6.9,1.6c-0.7-1.3-1.3-2.2-1.8-3.1c-0.8-1.5-2.1-2.7-3.7-2.5
			c-1.7,0.2-2.9-0.4-4.3-1c-1.8-0.8-2.2-0.7-3.1,1.2c-0.4,0.9-0.9,1.8-2,1.8c-2.1-0.1-4.2-0.3-6.5-0.5c0.3-0.5,0.4-0.8,0.6-1
			c0.8-1.1,1.7-2.1,2.5-3.2c0.6-0.8,0.7-1.8,0.1-2.7c-0.6-0.9-1.5-0.8-2.4-0.7c-1.7,0.3-3.5,0.5-5.2,0.7c-0.2,0-0.4-0.1-0.8-0.2
			c-0.1-0.6-0.2-1.2-0.3-1.8c-1-0.6-1.7-1.3-2.3-2.2c-0.6-0.8-1.2-1.2-2.2-1.1c-0.7,0.1-1.4,0.2-2.1,0.3c0.3-0.9,0.6-1.8,0.9-2.6
			c0.3-1.1,0.1-2.1-0.9-2.7c-1-0.6-2-0.2-2.8,0.6c-1,1-1.9,2.1-2.9,3.1c-0.1,0-0.2-0.1-0.2-0.1c-0.4-3.2-1.3-6.1-4.9-7.2
			c-0.4-0.1-0.9-0.9-0.8-1.3c0.3-1.6-0.4-2.7-1.4-3.9c-0.6-0.8-0.9-1.9-1.2-2.8c-0.3-0.8-0.3-1.6-0.6-2.3c-1.2-3.1-4.2-3.6-6.4-1.1
			c-0.4,0.5-0.8,0.9-1.2,1.5c-0.5-0.7-0.7-1.6-1.3-1.9c-1.4-0.8-1.6-1.9-1.5-3.4c0.2-2.7-1.6-4.1-4.3-3.7c-0.7,0.1-1.4,0.3-2.4,0.4
			c0.3-1,0.4-1.5,0.5-2c0.4-1.2,0.3-2.3-0.2-3.5c-0.6-1.1-1.6-0.5-2.3-0.8c-0.2-0.1-0.3-0.1-0.4-0.2c-1.7-0.5-2.1-0.3-3.2,1.2
			c-0.6,0.9-1.3,1.8-2.1,2.8c-3.3-3.5-3.3-3.5-7.7-2.9c-1,1.8-2,3.7-3,5.6c-0.4-1.7-0.5-3.3-0.6-4.8c0-1-0.3-1.9-1.2-2.4
			c-1-0.5-1.9,0-2.6,0.7c-1,0.9-1.8,1.9-2.8,2.9c-0.5-0.2-0.9-0.4-1.4-0.6c-1.5-0.5-3-1.1-4.6-1.3c-2.4-0.3-3.4,1-3,3.3
			c0.1,0.6,0.2,1.2,0.4,1.8c-4.6,2.6-4.8,2.8-1.7,8.8c-1.1-0.2-2.2-0.5-3.3-0.4c-1.1,0.1-2.3,0.6-3.5,1c-0.3-1.1-0.5-2.2-0.9-3.1
			c-0.4-0.7-1.2-1.5-1.8-1.6c-0.7-0.1-1.5,0.7-2.1,1.2c-0.5,0.5-0.7,1.3-1.2,1.8c-0.7,0.8-0.8,1.6-0.6,2.6c0.7,2.7,0.4,3.1-2.4,3.2
			c-1.9,0.1-3,1.7-2.3,3.5c0.2,0.6,0.6,1.2,1,2.1c-1.5,0.5-2.7,1.6-4.2,1c-1.6-0.7-3-0.2-4.3,0.6c-0.6,0.4-1.2,0.7-1.9,1
			c-0.3-0.4-0.5-0.7-0.8-1c-1.6-2.2-2.6-2.3-4.8-0.7c-0.5,0.4-1.1,0.8-1.4,1.3c-0.8,1.5-2.1,1.7-3.5,1.8c-0.6-1.3-1-2.6-1.7-3.7
			c-2-3.2-4.8-3.3-7.2-0.4c-1,1.2-1.9,2.6-3.4,3.4c-2.3-2.2-5-2.7-8.1-2.5c-2.9,0.2-4,1.4-3.1,4.2c0.6,1.9,1.7,3.7,2.7,5.6
			c0.5,0.9,1.1,1.7,1.6,2.5c-1.6,1.3-3,2.5-4.4,3.7c-0.3-0.3-0.5-0.5-0.6-0.7c-0.1-0.3-0.2-0.6-0.3-0.9c-0.9-2-2.3-2.3-4-0.9
			c-1,0.8-1.7,1.9-2.5,2.9c-0.6,0.7-1.4,1.4-2,2.1c-0.1-0.1-0.3-0.2-0.4-0.3c0.1-0.4,0.2-0.9,0.4-1.3c0.4-0.9,1-1.9,1.3-2.8
			c0.9-2.3,0.2-4.8-1.6-6.1c-1-0.7-1.9-0.6-2.1,0.4c-0.3,2.3-2.4,3-4,4.2c0.1-0.5,0.3-0.9,0.5-1.6c-0.6,0.4-1,0.7-1.5,1
			c0.3-5.9-0.8-7.5-4.8-7.2c-0.3,0.6-0.6,1.2-1.1,2.1c-1.4-1.6-2.7-3-3.9-4.4c-1.3-1.5-2.9-1.9-4.8-1.5c-1.8,0.3-2.2,1.9-2.7,3.3
			c-0.1,0.2-0.1,0.5-0.1,0.7c-0.4,1.9-0.6,2-2.6,2c-1.3,0-2.6-0.1-3.8,0c-1.7,0.1-3.1,0.7-4,2.3c0.9,2.2,1.7,4.3,2.6,6.6
			c-0.9,0.4-1.6,0.7-2.2,1.2c-1.1,0.8-2.3,1.6-3,2.6c-1.6,2.2-1.1,3.8,1.3,5.1c0.6,0.3,1.1,0.7,1.7,1.1c-1.2,1.1-2.3,1.9-3.2,2.9
			c-1.5,1.8-0.8,4.1,1.5,4.8c1.2,0.4,2.5,0.3,3.8,0.4c1.7,0.2,3.4,0.4,5,0.6c0,0.2,0.1,0.4,0.1,0.6c-1.2,0.7-2.4,1.4-3.6,2.2
			c-2.8,1.7-2.9,2.6-0.8,5c0.1,0.1,0.1,0.3,0.2,0.7c-0.9,1-2,2.1-3,3.2c-1.2,1.4-0.3,2.9-0.2,4.4c-1.2,0.7-2.4,1.4-3.5,2.2
			c-1.3,0.9-2.3,1.8-2.1,3.7c0.1,1-0.2,2.1-0.4,3.1c0,0.2-0.1,0.3-0.2,0.5c1.1,0.7,0.4,2.8-1.1,2.4c-2-0.6-3.7-1.6-5.2-3
			c-0.4-0.4-0.5-1.1-0.2-1.6c2.5-3.6,3.9-8.9,0.5-12.4c-0.2-0.2-0.3-0.4-0.3-0.5c-0.6,0.3-1,0.9-1.4,1.6c-0.3,0.5-0.6,1.2-0.7,1.8
			c-0.2,1.5-0.2,3-0.3,4.5c-0.1,1.1-0.1,2.2-0.1,3.4c0.1,0.3,0.1,0.5,0,0.8c0,0.1,0,0.2,0,0.2c0,0-0.1,0-0.1-0.1
			c-0.4,0.7-1.4,1.1-2.1,0.4c-5-4.5-0.8-12.3-2.3-17.9c-0.1-0.4,0-0.8,0.2-1.1c-0.5,0.1-1.1,0.4-1.6,1c-0.7,1-1.2,2.2-1.7,3.3
			c-0.1,0.3-0.3,0.6-0.4,0.9c0.1,0.1,0.1,0.3,0.2,0.4c0.8,1.5-1.5,2.8-2.3,1.3c-3-5.6,2.1-11,0.5-16.6c0-0.1,0-0.1,0-0.2
			c-0.5,0.2-0.9,0.5-1.1,0.8c-0.5,0.7-0.7,1.7-0.9,2.6c-0.2,0.8-0.4,1.6-0.7,2.6c-0.1-0.1-0.2-0.2-0.3-0.4c-0.6,0.6-1.9,0.6-2.2-0.5
			c-1.3-4.6,2.4-8.8,2.3-13.3c0,0,0,0,0,0c-0.8,0-1.5,0.6-2.1,1.6c-0.4,0.7-0.8,1.4-1.2,2.2c-0.6-0.4-1.1-0.7-1.6-1
			c-0.5-0.3-0.8-0.7-1.3-1c-2.3-1.4-4-0.8-4.3,1.9c-0.2,1.7,0.1,3.6,0.7,5.1c0.2,0.5,0.5,1,0.9,1.5c1.2,0.3,2.4,0.6,3.6,0.9
			c0.7,0.2,1,0.8,0.9,1.4c1.1,0.2,1.2,0.6,1.4,2.6c-0.7,0.1-1.5,0.3-2.3,0.4c-1.5,0.3-2.7,1-3.6,2.1c-0.8,1-1.3,2.1-0.8,3.3
			c0.1,0.4,0.3,0.7,0.6,0.9c0.2-0.5,0.6-0.9,1.2-0.9h7.7c1.2,0,1.6,1.4,1,2.1c0.8,0.5,1.2,1.6,1.4,3.5c-0.8,0.2-1.7,0.4-2.5,0.6
			c-2.2,0.6-3.1,2.1-2.8,4.3c0.2,1,0.6,1.8,1.3,2.4c0.2-0.2,0.5-0.3,0.9-0.3c1.9,0,3.8,0,5.7-0.6c1-0.3,1.7,0.6,1.6,1.5
			c0.4,0.1,0.8,0.3,1.1,0.5c0.8,0.8,1.4,1.9,2.3,3.1c-0.9,0.1-1.5,0.2-2,0.2c-2,0-3.7,0.9-5,2.4c-1,1.1-1.8,2.3-1.1,3.9
			c0.4,0.9,1.1,1.5,1.9,1.8c2.7-1,5.2-2.6,8.1-2.7c0-0.8,0.7-1.5,1.6-1.2c1.2,0.4,2.1,0.7,2.9,1.7c0.7,0.8,0.4,1.9-0.6,2.2
			c-1.4,0.4-2.6,1-4,1.2c-0.3,1.4-0.4,1.5-1.3,2.2c-0.5,0.3-1.1,0.6-1.3,1c-1,1.9-2.8,3-4.4,4.3c-0.7,0.6-1.5,1.3-2,2
			c-1.8,2.5-1.5,5,0.9,7c0.5,0.4,1.1,0.9,1.7,1.3c-0.2,0.5-0.4,1-0.6,1.4c-0.9,2.5,0.2,3.8,2.9,3.6c0.7-0.1,1.4-0.1,2.1-0.1
			c-0.2,1.7-0.8,3.2-0.5,4.6c0.3,1.9,2.3,1.9,3.5,2.1v3.8c-0.8,1.1-2.1,2.1-2.2,3.1c-0.1,2.3-1.2,3.3-3.1,4c-0.6,0.2-1.1,0.6-1.6,1
			c-1.5,1.1-2.1,2.5-1.5,4.2c0.3,1,0.9,1.8,1.5,2.7c0.6,0.9,1.3,1.7,2.1,2.7c-0.8,0.8-1.5,1.3-2.1,1.9c-1.5,1.5-2,5.5-0.7,6.6
			c1.5,1.3,3.3,2.3,5.4,2.2c2.7,0,5.4,0.4,7.9-1c0.1,0.3,0.2,0.4,0.2,0.5c-0.4,0.9-0.8,1.7-1.2,2.6c-1,2-0.9,2.5,1.1,3.7
			c1.1,0.7,2.2,1.2,2.4,2.7c0,0.5,0.7,1.1,1.2,1.4c2.3,1.3,4.8,1.4,7.1,0.2c1.4-0.7,2.3-0.7,3.4,0.3c0.8,0.8,2,1.1,2.9,0.3
			c1.6-1.4,3.2-1.5,5.1-1.2c0.7,0.1,1.6-0.4,2.3-0.4c0.8,0,1.8,0,2.4,0.5c1.1,0.8,2.2,1.3,3.6,1.1c0.9-0.1,1.5,0.2,2,1
			c1.9,2.9,3.6,3.4,6.6,1.7c1.9-1.1,3.7-2.2,5.4-3.6c1.9-1.6,3.8-1.8,6-0.8c2.3,1,3.3,0.7,5.1-1.1c1.2-1.2,2.6-2.2,3.6-3.7
			c0.4-0.6,1.5-0.8,2.4-1c1.8-0.4,2.3,0.1,2.5,1.8c0.1,1.1,0.4,2,1.4,2.6c1,0.6,2,1.3,2.9,2.1c0.8,0.7,1.5,0.8,2.3,0
			c0.4-0.4,0.8-0.8,1.2-1.2c1.6-1.7,3.7-2,5.8-2.5c1.3-0.3,2.6-0.4,4.2-0.6c4,2.2,6.7,2.1,8.2-0.8c-2.7-0.9-1.7-2.9-1.2-4.7
			c0.4-1.5,1.1-2.7,2.5-4c0,0.9,0,1.4,0,1.8c-0.1,0.6-0.3,1.1-0.3,1.6c-0.1,1.6,0.4,2.1,2,2.3c0.8,0.1,1.6,0.5,2.4,0.7
			c1.1,0.3,2.3,0.7,3.4,1c0.7,0.1,1.4,0,2.4,0c0.2,1.8,1.2,2.7,3,2.8c0.3,0,0.8,0.5,0.8,0.7c0.1,1.8,1.4,2.5,2.7,3.4
			c-0.3,0.6-0.5,1.1-0.8,1.6c-0.5,1.3-1.4,2.8-0.2,4c1.2,1.2,2.8,0.6,4.1-0.1c1.8-0.9,3.5-1.3,5.5-0.4c0.9,0.4,1.5,0.5,1.9,1.5
			c0.9,2.1,2.5,2.5,4.4,1.2c0.3-0.2,0.7-0.5,0.9-0.8c1.4-1.8,3.2-2.5,5.5-2.1c0.5,0.1,1,0.1,1.4-0.1c2.1-1,4.2-1.8,6.6-0.9
			c0.7,0.3,1.6-0.1,2.3,0.1c2.3,0.5,2.9,0.4,4.2-1.6c0.8-1.2,1.5-2.5,2.3-3.6c0.5-0.6,1.2-1.1,2-1.8c0.4,1.3,0.6,2.1,0.8,3
			c0.5,1.6,1.5,2.5,3.3,2.7c0.9,0.1,1.8,0.5,2.7,0.8c2.8,1,5.4-0.6,5.7-3.6c0.1-0.7,0.1-1.4,0.2-2.1c0.2-1.1,0.8-1.7,2-1.4
			c1.8,0.4,3.5,0,5-1.3c1.3,2.4,3.5,2.5,5.7,2.3c3.2-0.2,5.9-1.4,8.4-3.2c2.1-1.4,4.6-1.4,6.6-2.6c0.2-0.1,0.6,0,0.9,0
			c1.2-0.1,2.4,0.1,3.5-0.3c1.4-0.4,2.1,0.2,2.9,1.1c0.8,0.9,0.9,1.8,0.2,2.9c-0.3,0.5-0.7,1.2-0.7,1.7c0.4,2.4,0.7,4.8,1.4,7
			c0.6,2.1,3,2.3,4.3,0.6c0.4-0.5,0.6-1.1,0.9-1.6c1.2,0.7,4.5,1.1,5.7,0.4c1.2-0.6,2.1-0.6,3.4-0.3c2.4,0.7,4.3-0.6,4.7-3.1
			c0.1-0.6,0.2-1.2,0.3-1.8c1.4-0.4,2.2-0.1,3,1c0.7,1,1.7,1.8,2.7,2.7c0.7,0.6,1.4,0.8,2.4,0.2c0.4-0.3,1.2-0.3,1.8-0.2
			c1.7,0.4,3.2,0.2,4.4-1.1c0.8-0.9,1.9-1.2,3.1-0.7c1,0.4,1.9,0.1,2.6-0.6c0.5-0.4,1-0.8,1.5-1.2c0.6-0.5,1.2-1.1,2.1-0.6
			c0.9,0.4,1.2,1.3,1.1,2.2c0,0.9-0.1,1.7-0.2,2.6c2.7,0.8,2.9-2.9,5.4-2.7c-0.2,1-0.4,1.9-0.6,2.9c-0.4,2.5,0.5,3.4,3,3.1
			c0.8-0.1,1.5-0.2,2.2,0.5c1.7,1.8,2.2,1.8,4.1,0.1c2.1-2,4.1-4,6.1-6c0.8,0,1.8,0.1,2.7-0.2c1.1-0.4,1.8-0.1,2.5,0.7
			c2,2.2,4.1,2.4,6.1,0.6c1-0.9,1.8-0.6,2.8,0.1c1.5,1.2,3.3,1.4,4.4,0.5c0.6-0.4,1-1,1.5-1.7c2.4,1.3,3-0.8,3.8-2.6
			c0.5,1.3,0.9,2.3,1.3,3.2c0.8,2.4,2.3,2.8,4.3,1.3c0.7-0.5,1.2-1.3,1.9-1.8c0.5-0.5,1.2-1.1,1.8-1.1c2.1-0.1,3.2-1.2,3.8-3.1
			c0.9,0.4,1.6,0.7,2.3,0.9c0.6,0.2,1.3,0.3,1.8,0.1c3.3-1,4.7-3.4,4.3-6.8c-0.2-1.3-0.4-2.5-0.5-3.8c1.4-0.7,2.6-1.4,3.7-2
			c1-0.5,2.3-0.8,2.1-2.3c-0.1-1.5,0.8-3.2-1.5-4.1c-0.9-0.3-0.8-1.4,0.2-1.8c0.4-0.2,1-0.2,1.4-0.3c2.7-1.1,5.3-2.1,7.9-3.3
			c0.7-0.3,1.3-1,1.6-1.7c0.3-0.7,0.1-1.6,0.1-2.3c0.5-0.1,1.2,0,1.7-0.3c2.8-1.5,5.4-3.2,7.4-5.6c1.6-1.8,1.2-3.2-0.9-4.5
			c-0.3-0.2-0.7-0.4-1.7-1c0.8-0.4,1.4-0.6,1.8-1c1.2-1.2,1.2-2-0.1-3.2c-0.8-0.7-1.9-1.2-2.8-1.7c-0.5-0.3-1.2-0.4-1.8-0.7
			c1.8-1.1,1.8-1.1,3.4-0.6c1.8,0.5,3.7,1.4,5.6,1.2c2.4-0.2,4.9-1,7.2-1.8c2.9-1.1,3.1-2,2.1-5c-0.1-0.3-0.1-0.6-0.1-0.7
			c1.3-1.4,2.7-2.6,3.6-4.1c1-1.7-0.7-3.3-1.1-4.9C427.5,102.9,427.6,102.7,427.8,102.5z"/>
		<g>
			<path d="M63.9,63c0.3-1.5,0.6-2.9,1-4.4c0.2-0.7,0.8-1.6,1.7-1.2c0.5,0.2,1,1.1,1,1.7c0.1,2.8,0,5.7-1.7,8.1
				c-1.3,1.8-1.2,3.3-0.1,5c0.8,1.2,1.4,2.6,2.3,4.4c0.5-1.6,0.7-2.5,1-3.5c0,1.4-0.1,2.9-0.1,4.3c0,1,0.2,2.1,1.5,2.2
				c2.8-3.4,3-9.2,0.1-11.7c-0.6,1.8-1.1,3.5-1.6,5.2c0.2-1.5,0.3-3,0.6-4.5c0.1-0.6,0.8-1.6,1.1-1.6c0.7,0.1,1.5,0.6,1.8,1.2
				c0.5,0.9,0.7,2,0.8,3c0.3,3.1-0.1,6.1-1.7,8.8c-0.7,1.2-0.6,2.1,0.2,3.1c1.2,1.4,2,3.3,4.2,3.9c0-3.2-0.1-6.2,0-9.2
				c0-1.1,0.4-2.2,0.9-3.2c0.4-0.7,1.3-1.3,2-1.3c0.5,0,1.5,0.8,1.6,1.4c0.4,1.9,0.7,3.9,0.7,5.9c0,1.5-0.3,3.1-0.9,4.4
				c-0.5,1.1-1.5,2-2.3,2.9c0.6-1.1,1.5-2.2,1.7-3.3c0.4-2.6,0.7-5.2,0.8-7.8c0.1-1.5-0.8-2.7-1.6-2.6c-1.3,0.1-1.6,1.2-1.9,2.2
				c-1,3-1,6.1-0.4,9.2c0.2,0.8,1,1.6,1.5,2.3c1.4,1.6,3.2,2.6,5.1,3.4c1.8,0.7,3.6,1.4,5.6,2.2c-1.4,1.4-0.1,2.6-0.2,4.1
				c-0.5-0.6-1.1-1.2-1.5-1.7c-0.9,0.1-2,0.6-2.4,0.3c-2.1-1.6-4.1-0.8-6.1,0c-0.9,0.3-1.6,0.9-2.6,1.4c2.1,2.4,5.6,1.8,7.3,4.5
				c-0.5-0.2-1.1-0.4-1.6-0.6c-2.3-0.8-4.5-1.7-7-1.6c-0.7,0-1.5,0.2-2,0.6c-1.2,0.8-1.2,1.8,0,3.9c-0.7-0.1-1.2-0.1-1.6-0.3
				c-2.1-0.7-3.3,0.6-4.4,2c-1.2,1.5-1.5,3.2-0.7,4.9c0.3,0.5,1.1,1,1.7,1.1c2,0.3,3.9-0.1,5.7-1.2c1.6-1,3.5-1.7,5.3-2.4
				c0.4-0.2,1,0.2,1.5,0.3c0,0.2,0.1,0.3,0.1,0.5c-0.9,0.5-1.8,1-2.8,1.5c-1.9,0.9-3.8,1.6-5.7,2.6c-1.6,0.8-2.7,2.1-3.8,3.7
				c3.3,1.3,6-1.4,9.4-0.7c-0.8,0.8-1.4,1.4-1.9,2.1c-0.9,1.1-1.7,2.3-2.4,3.5c-0.2,0.4-0.1,1.3,0.2,1.7c0.2,0.3,1.1,0.3,1.5,0.1
				c1.9-1.3,3.7-2.7,5.5-4.1c0.7-0.5,1.1-1.2,1.9-1.7c0.2,1.1-0.6,1.5-1.2,2c-1.7,1.6-3.4,3.1-5.2,4.6c-1,0.8-2.2,1-3.3,0.2
				c-0.9-0.7-1.1-2.1-0.4-3.5c0.6-1.1,1.3-2.2,2.2-3.6c-1.4,0.3-2.5,0.7-3.7,0.9c-1.2,0.2-2.8,0.7-3.5-0.6c-0.8-1.3,0.5-2.3,1.3-3.3
				c0.3-0.3,0.5-0.6,0.8-1c-0.3-0.2-0.5-0.3-0.7-0.3c-4-0.5-5.6-4.2-3.1-7.5c0.8-1.1,2.2-1.8,3.3-2.7c0.6-0.5,1.4-0.8,1.8-1.4
				c1.4-2.2,1.4-2.2,3.9-3c-0.3-1,0-1.9,1.1-2.3c0.9-0.3,1.8-0.7,2.7-1.1c0.7-0.3,1.4-0.6,2.3-1c-3-3.3-6.4-5.1-10.4-5.9
				c-1.5-0.3-4.7,2.1-5,3.6c-0.2,0.9,0.3,1.5,1.1,1.6c1.3,0.2,2.7,0.3,4,0c1.5-0.3,2.8-1.1,4.2-1.7c0.4-0.2,0.8-0.2,1.4-0.3
				c-0.1,0.4-0.1,0.8-0.2,0.9c-2.4,1.3-4.8,2.5-7.6,2.4c-0.8,0-1.6-0.2-2.3-0.5c-1.6-0.8-2-2.2-1-3.6c1.5-2.1,3.4-3.6,6.3-3.1
				c0.9,0.1,1.7,0.3,3,0.5c-1.4-2-2.6-3.6-3.8-5.3c-0.6-0.9-1.3-0.9-2.3-0.6c-1.5,0.3-3,0.5-4.5,0.6c-2,0.1-3.4-0.8-3.8-2.9
				c2,2.1,4.4,2.3,7,1.7c1.5-0.4,1.7-1,1-2.5c-0.8-1.7-2.5-2.5-4.3-2.2c-1.8,0.3-3,1.4-3.7,3c-0.3-1.8,0.1-2.8,1.7-3.3
				c1.3-0.5,2.7-0.6,4.4-1c-0.6-1.9-1.5-3.8-2.6-5.3c-2.1,0.2-4.1,0.4-6.1,0.5c-0.9,0-1.8-0.1-2.6-0.3c-1.5-0.4-2-1.5-1.4-2.9
				c0.8-2.1,3.4-3.4,5.6-3.1c0.7,0.1,1.4,0.2,2.5,0.3c-0.8-1.7-1.4-3.1-2.1-4.4c-0.2-0.4-0.8-0.7-1.3-0.9c-0.7-0.4-1.5-0.7-2.2-0.9
				c-3.3-1.2-3.8-2.8-3.1-7c0.3-1.6,1.4-2.1,2.9-1.2c1.3,0.8,2.5,2,4,3.2c0.4-0.8,0.6-1.5,1-2.2c0.3-0.6,0.5-1.4,1-1.9
				c0.8-1,2-0.7,2.4,0.5c0.2,0.5,0.3,1.2,0.1,1.6c-0.8,2.5-1.7,4.9-2.6,7.4c-0.2-0.1-0.5-0.2-0.7-0.2c0.6-1.5,1.1-2.9,1.7-4.4
				c0.5-1.4,1.7-2.8,0.3-4.3c-3.2,2.4-3.6,9.5,0,14.4C63.3,64,63.6,63.4,63.9,63c0,1.3,0,2.7,0,4.5c2-0.9,2.3-2.5,2.7-3.9
				c0.4-1.7,1-3.5-0.4-5.3C64.7,59.6,64.7,61.5,63.9,63z M57.6,70C57.6,70,57.7,70.1,57.6,70c1.2,0,2.4-0.1,3.5-0.3
				c1.5-0.3,1.8-1,1-2.4c-1.4-2.4-5.1-2.6-7.1-0.2c-0.5,0.6-0.6,1.4-0.9,2.1c0.7,0.3,1.3,0.6,2.1,0.8C56.7,70.1,57.2,70,57.6,70z
				 M54.2,51.3c-1.2,4.5,0.4,7,4.7,7.3c-0.4-1.4-0.9-2.7-1.2-4.1C57.3,52.4,56.7,51.8,54.2,51.3z M79.2,90.5
				c-0.1,0.1-0.2,0.3-0.2,0.4c1.4,1.2,3.1,2,4.8,2.7c0.1-0.2,0.2-0.4,0.3-0.5C82.4,92.2,80.8,91.4,79.2,90.5z"/>
			<path d="M126.3,114.4c1.3,1.8,3.8,2.5,4.9,4.8c-1.3,0.2-2-0.6-2.7-1.1c-1.6-1.1-3.4-1.4-5.3-1.3c-0.9,0.1-1.9,0.3-2,1.3
				c0,0.6,0.5,1.5,1,1.9c0.9,0.7,2.1,1.2,3.1,1.7c0.5,0.3,1.1,0.5,1.9,0.9c-1.1,1.1-2,0.3-2.8,0.1c-3.4-0.8-6.7-0.5-9.7,1.4
				c-0.8,0.5-1.9,1.3-2,2.1c-0.2,1.2,1.2,1.5,2.2,1.8c1.4,0.5,2.8,1,4.4,1.5c-1.9,0.7-4.4,0.3-6.5-1.1c-1.2-0.8-2.4-1.5-2.6-3.2
				c-0.1-1.2-1-1.5-2.1-0.9c-0.6,0.3-1.1,0.9-1.6,1.4c-0.5,0.4-1.1,0.7-1.6,1c-0.2-0.2-0.3-0.3-0.5-0.5c0.4-0.6,0.9-1.2,1.3-1.8
				c0.6-1,0.2-1.8-0.9-1.9c-0.6-0.1-1.3,0-1.9,0.2c-1.5,0.5-1.7,1.1-1.1,2.5c0.2,0.5,0.5,1,0.8,1.5c0.2,0.4,0.3,0.8,0.5,1.4
				c-1.8-0.6-2.8-2.1-2.7-3.9c0.1-1.5,0.8-2.3,2.6-2.6c1.5-0.3,3-0.4,4.2,1c0.2,0.3,0.9,0.5,1.3,0.4c1.5-0.3,2.4,0.4,3.4,1.7
				c2.9-1.7,5.8-3.6,9.8-3.1c-0.9-1.4-1.6-2.3-2.3-3.3c-0.6,0.1-1.3,0.3-1.9,0.3c-0.9,0.1-1.8,0.1-2.6,0c-1.1-0.2-2.2-0.8-2.4-2.1
				c-0.2-1.2,0.5-2.2,1.4-2.9c0.5-0.4,1.1-0.6,1.8-1.1c-0.7-0.9-1.5-1.8,0-2.7c-0.5-0.3-0.8-0.6-1.1-0.8c-0.9-0.9-1-1.5,0-2.4
				c0.8-0.6,1.7-1.1,2.7-1.7c-0.4-0.9-0.8-1.7-1.2-2.6c0.1-0.1,0.2-0.2,0.3-0.2c0.7,0.8,1.3,1.6,2.2,2.3c0.8,0.6,1.7,1.1,2.9,1.8
				c-2.3,0.8-4.9-1.2-6.4,1.6c1.3,1.5,3.4,1,5.2,2.1c-1.2,0.4-2,0.8-3.1,1.2c0.5,0.5,1,0.9,1.5,1.4c-0.5,1.1-1.6,0.9-2.3,1.1
				c-1.9,0.6-3,1.4-2.9,2.4c0.1,1,1.4,1.6,3.4,1.5c1.1-0.1,2.2-0.4,3.3-0.7c1.6-0.5,3.1-1,4.8-1.6c-0.2-0.3-0.5-0.8-0.8-1.2
				c0.1-0.2,0.1-0.4,0.3-0.5c3.9-1.4,7.8-1.6,11.8-0.5c2.5,0.7,4.3,3.1,4.2,5.6c-0.3-0.4-0.5-0.6-0.6-0.9c-1.3-3.2-3.9-4.5-7.2-4.4
				c-2.1,0.1-4.1,0.3-6.1,0.4C126.5,113.9,126.4,114.1,126.3,114.4z"/>
			<path d="M107.9,165.3c-2.8,1.4-5.1,3.9-7.5,0.2c-0.7,0.8-1.2,1.5-1.8,2.1c-0.6,0.7-1.3,1.5-2.4,1.2c-1.1-0.3-1.5-1.1-1.6-2.1
				c0-0.3-0.1-0.6-0.3-1.2c-0.9,0.7-1.6,1.3-2.4,1.8c-0.4,0.3-0.8,0.8-1.3,1c-0.4,0.2-0.9,0.1-1.3,0c-0.2-0.1-0.3-0.7-0.2-1.1
				c0.4-1.4,0.8-2.7,1.1-4.1c0.2-1.1,1.7-1.8,3.1-2.2c-1,1.9-2.5,3.5-2.9,6.2c2.4-1.4,4.2-2.9,6.3-4.1c-0.3,0.6-0.6,1.1-0.8,1.7
				c-0.3,0.9-0.7,2,0.3,2.6c1.1,0.7,1.7-0.2,2.4-0.9c2.9-2.7,4.6-6.3,6.8-9.6c0.6-1,1.3-1.9,2-2.9c0.2,0.1,0.3,0.2,0.5,0.3
				c-0.2,0.4-0.4,0.9-0.6,1.3c-1.5,2.5-3.1,4.9-4.5,7.4c-0.5,0.9-1.3,2.1-0.3,3.1c1,0.9,2.1,0.1,3.1-0.3c2.1-0.9,3.4-2.6,4.6-4.4
				c0.4-0.6,0.9-1.2,1.5-2c0.6,1.3,0,1.8-0.5,2.4c-0.6,0.9-1.3,1.8-1.8,2.8c-0.4,0.9-0.8,2.1,0.2,2.6c0.7,0.4,1.9,0.2,2.7-0.1
				c1.6-0.8,2.8-2.2,3.5-3.8c1.5-3.6,4-6.5,6.7-9.2c0.4-0.4,0.8-0.8,1.3-1.1c1.2-0.7,1.7-0.3,1.9,1.6c-0.5-0.2-1.1-0.7-1.5-0.6
				c-0.5,0-1,0.5-1.4,0.9c-1,1.2-1.9,2.5-2.9,3.7c0.1,0.1,0.3,0.3,0.4,0.5c1.3-0.8,2.5-1.7,4.2-2.8c-0.6,2.5-3.1,3.5-2.8,5.9
				c3.2,0,4.2-3.2,6.5-4.3c1.5,1.8,1.7,2.9,0.7,4.4c-2.4,3.5-4.9,6.9-8.8,9c-0.7,0.4-1.4,0.7-2.2,0.9c-2,0.6-4.6-0.4-4.1-3.3
				c0-0.3,0-0.6,0-0.9c-1.3,0.3-2.6,0.8-3.8,0.8C108.3,168.6,107.9,167.1,107.9,165.3z M120.3,160.1c-2.4,1-5.9,6.7-5.4,9.2
				c0.2,1,0.9,1.6,1.8,1.5c1.1-0.2,2.2-0.5,3.2-1c3.4-1.8,5.8-4.7,8-7.7c0.6-0.8,1-1.6-0.1-2.7c-0.6,0.5-1.2,1.1-1.7,1.6
				c-0.6,0.5-1.2,1.1-1.8,1.5c-0.9,0.7-2.2,1.2-3.1,0.4C120.6,162.4,120.7,161.2,120.3,160.1z"/>
			<path d="M159.4,148.4c0,0.3-0.1,0.6-0.1,0.9c-0.4,2.2,0,2.6,2.2,2c1.8-0.5,3.1-1.6,4.3-2.9c0.6-0.6,1.3-1.2,2-1.8
				c0.1,0.1,0.3,0.3,0.4,0.4c-0.8,1.1-1.8,2.1-2.4,3.3c-0.6,1.2-1.7,2.4-1.2,4.3c1.2-0.4,2.4-0.6,3.4-1.1c1-0.4,1.9-1,3.4-1.7
				c-0.6,1.5-1.2,2.6-1.5,3.7c-0.4,1.2-0.6,2.5-0.9,3.7c-0.3,1.2-1.4,2.2-0.9,3.7c0.8,0.2,1.7,0.3,2.6,0.5c-0.5,1-1.4,0.9-2.1,0.8
				c-1.2-0.2-2.4-0.8-3.7-0.2c-0.2,0.1-0.8-0.4-1.1-0.7c-0.3-0.4-0.5-0.9-0.8-1.6c-1.6,1.2-2.7,3.6-5,1.8c-1.1,0.5-2.1,1.2-3.1,1.4
				c-1.3,0.3-1.6-1-2-2.1c-1.2,1.5-2.2,2.9-3.2,4.2c-1.3-0.3-1.8-2.1-3.3-1.4c-0.1,0-0.9-1.1-1-1.7c-0.1-1.1,0.1-2.2,0.2-3.2
				c-1.1,0-2.1-0.1-3.2-0.1c-0.4,0-0.9,0.1-1.3,0.3c-1.1,0.6-2.1,0.9-3.1-0.1c-0.8-0.8-0.8-1.9,0-3.3c0.1-0.2,0.4-0.4,0.8-0.8
				c-0.1,1.3-0.2,2.3-0.3,3.3c3,0.6,3.6-2,5.4-3.1c-0.2,0.9-0.4,1.7-0.6,2.8c2.6-0.1,2.8-2.9,4.8-3.9c-0.4,2.8-2.1,5.2-1.7,8.1
				c0.8-0.1,1.6-0.2,2.4-0.3c0.2,0.6,0.4,1.1,0.6,1.6c0.2,0,0.4,0,0.4-0.1c2.1-2.9,4.5-5.7,4.7-9.5c0-0.4,0.6-0.7,1.1-0.9
				c0,3-1.6,5.6-1.3,8.7c3.3,0.3,3.1-2.8,4.6-4.2c0,1.2,0,2.3,0,3.8c3-0.5,3.8-2.8,5.1-4.7c0.1,1.5,0.2,2.9,0.3,4.4
				c0.2,0,0.5,0.1,0.7,0.1c2.6-1.8,2-5,3.5-7.9c-1.5,0.2-2.4,0.4-3.3,0.5c-1.8,0.2-2.2-0.3-1.9-2c0.1-0.5,0.3-1.1,0.5-1.9
				c-0.7,0.2-1.2,0.3-1.7,0.4c-0.5,0.1-1.1,0.4-1.6,0.4c-0.8-0.1-2-0.2-2.3-0.7c-0.4-0.5,0-1.6,0.2-2.4
				C158.7,148.9,159.2,148.7,159.4,148.4L159.4,148.4z"/>
			<path d="M109,32.7c-1-0.6-1.9-1.2-2.9-1.7c-1.4-0.7-2.5-0.5-3.2,0.5c-0.8,1.1-0.8,2.5,0.3,3.5c1.2,1.1,2.7,2,4,3.1
				c0.9,0.7,1.7,1.3,1.9,2.6c-1.2,0.3-1.6-0.5-2.1-1c-0.9-0.9-1.7-1.5-3.2-1c-0.4,0.2-1.2-0.2-1.7-0.5c-2.5-1.5-5.2-1.6-7.9-1.4
				c-1.7,0.1-2,0.9-1.4,2.4c0.3,0.8,0.8,1.6,1.1,2.4c0.9,1.9,2.2,3.3,4.6,3.1c0.2,0,0.5,0.1,0.7,0.2c0.1,0,0.1,0.1,0.3,0.3
				c-1,1-2.2,0.8-3.2,0.6c-2.1-0.3-3.9,0.4-5.7,1.3c-0.5,0.3-0.9,0.6-1.3,1c-1.3,1.5-1.1,2.7,0.7,3.3c2,0.6,4,0.9,6.1,1.4
				c0.5,0.1,1,0.2,1.5,0.3c0,0.2,0,0.4,0.1,0.5c-0.8,0.2-1.6,0.3-2.4,0.6c-1.9,0.8-3.8,1.7-5.5,2.7c-0.6,0.4-1.2,1.5-1.1,2.1
				c0.1,0.6,1.2,1.1,2,1.3c1.1,0.4,2.3,0.5,3.6,0.7c-1.6,0.7-4.7,0.6-5.8-0.3c-1.2-0.8-1.4-2.4-0.4-3.6c0.8-0.9,1.8-1.6,2.8-2.3
				c0.6-0.4,1.2-0.7,2.3-1.3c-1.3-0.5-2.3-0.8-3.3-1.2c-2.5-1-3.1-2.7-1.4-4.8c0.6-0.8,1.5-1.4,2.4-1.8c1-0.6,2.2-0.9,3.5-1.4
				c-0.7-1.2-1.3-2.2-1.9-3.4c-2-4.2-1.2-5.5,3.5-5.5c1,0,1.9,0.1,2.9,0.2c2.2,0.3,2.6-0.2,2.7-2.4c0.1-2.3,1.3-4,3.3-3.9
				C106.8,29.6,108.3,30.7,109,32.7L109,32.7z"/>
			<path d="M186.4,35.8c-3.7,2.7-7.4,2.1-10.6-1.5c-1.5,1.4-1.2,4.4-3.9,4.7c0.9-1.6,1.7-3,2.5-4.5c0.2-0.3,0.3-0.7,0.4-1.1
				c0.1-1.1,0.6-2.5-0.6-3c-0.7-0.3-2,0.2-2.8,0.8c-2.1,1.5-4,3.2-6,4.8c-0.3,0.2-0.6,0.4-0.9,0.7c-0.1-0.1-0.3-0.2-0.4-0.3
				c0.5-0.7,1-1.5,1.6-2.2c0.8-1,1.1-2.1,0.9-3.4c-0.1-0.4-0.4-1.1-0.7-1.1c-0.4-0.1-1.2,0.1-1.4,0.4c-1,1.2-1.8,2.6-2.9,4.2
				c0.1-2.2,1-3.8,2.4-5.1c0.5-0.4,1.5-0.7,2.1-0.5c0.6,0.2,1.1,1.1,1.4,1.8c0.2,0.5,0,1.2,0,2.2c1.6-1,2.9-1.9,4.3-2.7
				c1.4-0.8,2.8-1.3,4,0.2c2-0.7,3.8-1.3,6-2.1c-0.8-0.7-1.4-1.2-1.8-1.7c-1.1-1.1-1-2.2,0.5-2.8c1.1-0.4,2.3-0.4,3.5-0.6
				c0.3,0,0.6,0,0.9-0.1c0-1.8-0.1-3.4,0-5.1c0.1-1.1,0.4-2.2,0.9-3.1c0.3-0.5,1.2-1,1.8-0.9c0.5,0.1,1.1,0.8,1.3,1.4
				c0.6,1.3,0.4,5.3-0.1,6.9c-1.3-2.4,0.8-5.2-1.7-7.5c-0.4,0.6-1.1,1.1-1.1,1.7c-0.2,1.8-0.1,3.7,0,5.5c0,0.3,0.8,0.6,1.3,0.9
				c0.2,1.2,0.5,2.7,0.9,4.7c-2.2-3.7-4.9-4.4-8.1-2.4c1.7,2.8,5.3,2.9,7.2,5.4c-0.6-0.2-1.1-0.3-1.7-0.5c-1.5-0.6-2.9-1.3-4.5-0.2
				c-0.5,0.4-1.4,0.2-2.1,0.3c-2.8,0.5-3.5,2.5-1.6,4.7c1.6,1.8,3.6,2.2,5.9,1.9C184.2,36.3,185.1,36,186.4,35.8z"/>
			<path d="M79.7,148.4c-1.5,1.2-2.9,0.8-4.2,0.4c-2.4-0.7-4.4,0.2-6.1,1.8c-0.9,0.8-1.1,1.8-0.7,3c0.9,2.2,2.2,3.1,5.4,3.6
				c-1.6,1.2-3.8,0.6-5.5-1.5c-1.3-1.6-1.8-3.6-0.8-4.9c1-1.3,2.5-2.2,3.7-3.2c-0.9-0.9-1.8-1.9-2.7-2.9c-2.9-3.2-2.3-5.7,1.7-7.4
				c1-0.4,2.1-0.7,3.2-1.1c0.4-0.2,0.8-0.4,1.4-0.7c-0.3-0.7-0.6-1.2-0.9-1.8c-0.7-1.7-0.4-2.3,1.4-2.6c0.5-0.1,1-0.2,1.9-0.3
				c-0.6-0.6-1-0.9-1.4-1.3c-1.2-1.2-1.1-2,0.3-2.9c3.7-2.4,9.7-0.6,11.6,3.3c0.1,0.1-0.1,0.3-0.2,0.8c-1.8-2.5-4-4.3-7.1-4.1
				c-1.4,0.1-2.9-0.2-4.2,1.3c2.1,2.7,5.7,3.1,8.4,5.3c-2.1,0.7-3.4-0.9-5-0.8c-1.6,0.1-3.2-0.9-5-0.1c0.2,2,2.2,2.7,3.2,4.3
				c-0.6,0.1-1,0.2-1.4,0.2c-2.3,0.1-4.5,0.4-6.5,1.5c-2.4,1.2-2.7,2.7-1,4.8c1.9,2.3,4.1,4,7.4,3.6
				C77.7,146.8,78.9,146.8,79.7,148.4z"/>
			<path d="M359.9,82.9c-0.8,0.7-1.6,1.4-2.8,2.4c-0.1-1.6,0.8-1.9,1.4-2.5c1.3-1.2,1.4-1.6,0.4-3.8c-1.2,0.8-2.4,1.6-3.6,2.4
				c-0.1-0.1-0.3-0.3-0.4-0.4c0.4-0.5,0.8-1.1,1.2-1.5c0.6-0.6,1.2-1.2,1.9-1.8c1.9-1.5,2.5-3.2,1.4-4.4c-1.3-1.5-4.2-1.6-5.7-0.3
				c-0.8,0.7-1.5,1.5-2.5,2.5c-0.3-1.5,0.5-1.9,0.9-2.5c0.6-0.9,1.2-1.7,1.5-2.7c0.5-1.3-0.1-2-1.5-1.8c-1.9,0.3-3.4,1.3-4.7,2.7
				c-0.8,0.9-1.7,1.8-2.6,2.7c-0.2-0.1-0.4-0.3-0.5-0.4c0.3-0.5,0.5-1,0.9-1.4c1-1.3,2.1-2.4,3-3.7c1-1.5,0.6-2.3-1.1-2.6
				c-1.7-0.3-3.3,0.1-4.7,1.3c-0.5,0.4-0.9,0.8-1.6,1.1c1.5-3.1,3.5-6,4.3-9.5c-1.4-0.9-2.6-0.3-3.6,0.3c-4.5,2.7-7.8,6.5-9.9,11.4
				c-0.1,0.3-0.1,0.6-0.2,1.4c-0.7-1.5-0.4-2.6,0.1-3.5c2.4-4.3,5.7-7.8,10.1-10.3c0.2-0.1,0.4-0.3,0.7-0.2c1.1,0.1,2.6-0.2,3.4,0.4
				c1,0.8,0,2-0.5,3c-0.5,1.1-1.1,2.3-1.7,3.6c2.8,0.3,6.1-1,6.7,3.1c0.9-0.1,1.8-0.2,2.6-0.2c1.8,0,2.1,0.3,2.2,2.3
				c0,0.2,0,0.5,0.1,0.9c0.9,0.2,1.9,0.4,2.9,0.6c1.3,0.3,2.3,0.9,2.6,2.2c0.3,1.5,1.3,1.8,2.6,2.1c0.7,0.1,1.4,0.4,2.2,0.7
				c0,0.2-0.1,0.3-0.1,0.5c-0.7-0.1-1.3-0.2-2-0.3c-0.6,0-1.2,0-2.1,0c0.2,0.9,0.4,1.6,0.7,2.4c-0.6-0.4-1.1-0.7-2-1.3
				C360.3,79.6,360.8,81.3,359.9,82.9L359.9,82.9z"/>
			<path d="M160.1,133.8c-0.6-1-1.1-2.1-0.2-3.6c2.1,0.9,4.1,1.8,6.2,2.7c0.1-0.1,0.2-0.2,0.2-0.3c-0.6-0.6-1.1-1.3-2-2.4
				c1.7,0.5,2.8,0.8,3.9,1.1c0-0.7-0.2-1-0.5-1.2c-2.9-1.9-4.4-4.8-5.8-7.7c-0.5-1-0.8-2.1,0.5-3.3c1.7,1,3.5,2,5.7,3.3
				c-0.3-0.6-0.6-1.2-0.9-1.8c-0.6-0.6-1.3-1.1-1.8-1.7c0,0.1-0.1,0.3-0.1,0.4c-0.7-0.3-1.3-0.6-1.9-0.8c-1.8-0.7-2.9,0-2.8,1.9
				c0,1,0.4,2.1,0.8,3c1.1,2,2.3,3.9,3.5,5.7c-1.3,1.3-2.7,1-4.3,0.4c-1.4-0.5-2.2,0.2-2,1.7c0.2,1.2,0.6,2.5,1.2,3.6
				c1.6,2.7,4.3,4,7.2,4.9c1,0.3,2,0.4,3.1,0.6l0.1-0.5c-0.8-0.2-1.7-0.4-2.5-0.7C164.6,138.1,161.9,136.7,160.1,133.8z"/>
			<path d="M121.9,57.6c-1.8-1.6-1.3-4.3-3.6-5.6c-1.3,0.6-1.2,1.8-0.9,2.8c0.4,1.6,1.1,3.2,1.7,4.7c0.2,0.5,0.4,1,0.8,1.9
				c-0.7-0.3-1-0.4-1.1-0.6c-1.2-2.4-2.2-4.8-2.1-7.5c0-0.5,0-1,0.2-1.4c0.4-1.3,1.4-1.5,2.4-0.6c0.6,0.5,1,1.2,1.6,2.1
				c0.3-0.6,0.5-1.1,0.6-1.5c0.2-0.5,0.2-1.1,0.4-1.6c0.9-2.5,1.9-2.9,4.6-2.3c0.9-1.4,1.7-2.8,2.6-4.2c0.3-0.5,0.8-1,1.3-1.4
				c1.7-1.5,3-1.1,3.5,1.1c0.2,0.9,0.2,1.9,0.4,3.1c0.4-0.5,0.7-0.9,1.1-1.3c0.9-0.9,1.7-1.9,2.7-2.7c0.7-0.6,1.8-1.2,2.6-0.5
				c0.6,0.6,0.7,1.6,1,2.5c0.1,0.1,0,0.3,0,0.5c-0.9,3.3-1.7,6.6-2.6,10c-0.1,0.2-0.4,0.4-1.1,0.4c0.4-1.3,0.8-2.6,1.2-3.9
				c0.4-1.4,0.8-2.8,1.1-4.2c0.4-1.4,0.8-2.8,0-4.4c-0.6,0.2-1.2,0.3-1.7,0.6c-2.2,1.4-3.4,3.5-4.4,5.8c-0.3,0.7-0.5,1.4-1.1,2.1
				c-0.8-1.5,0-2.9,0-4.4c0-1.5,0.3-3-0.6-4.4c-3.1,0.9-5.4,5.1-4.6,7.9c0.3,1.1,0.3,2.3,0.4,3.5c0,0.5-0.4,0.9-0.9,2
				c-0.5-1.1-0.8-1.7-0.9-2.3c-0.1-0.9,0-1.8,0-2.6c0-1.1-0.2-2.2-1.5-2.4c-1.3-0.2-1.8,1-2.1,1.9c-0.4,1.5-0.5,3.1-0.7,4.7
				C121.9,56.1,121.9,56.9,121.9,57.6z"/>
			<path d="M278,46.1c-0.8,1-1.6,1.9-2.6,3.2c3.2-0.2,6.1-1,9.1,0.6c0.6-0.7,1.2-1.5,1.9-2.2l-0.1,0c0.5,0.5,1.1,0.9,1.6,1.4
				c-0.8,1.2-0.8,1.2-2.1,0.3c-1.4,1.7-2.8,3.5-4.3,5.4c1.8,0.3,3.7-0.4,5,1.5c-0.4,0.5-0.7,1-1.2,1.7c2.2,0.6,3.4,2,2.9,4.5
				c-0.2-0.5-0.3-1-0.5-1.4c-0.8-1.9-3.1-2.6-4.8-1.4c-0.4,0.3-0.7,0.9-0.7,1.3c0,0.3,0.6,0.7,1,0.9c0.5,0.2,1.1,0.2,1.7,0.2
				c1.7,0.2,2.7,1.1,3.2,2.7c-0.3,0.1-0.5,0.2-0.6,0.1c-1.2-1.7-3-1.8-4.8-2.3c-1.1-0.3-1.8-0.1-2.5,0.7c-0.5,0.6-1.1,1-1.9,1.2
				c0.6-1,1.4-1.9,1.9-2.9c0.5-1,0.8-2.2,1.2-3.3c-1.4-0.8-2.8-0.3-3.9,1.4c-0.6,0.9-1.2,1.9-1.8,2.8c-0.1,0.1-0.3,0.1-0.6,0.2
				c0-1.8,2.4-3.3,0.8-5.2c-2,0.1-2.4,2.2-3.8,3.2c0-2.4,1.8-4.6,3.7-4.2c1.4,0.3,2.3-0.3,3.2-0.9c1.8-1.2,3.5-2.6,4.2-5.1
				c-3.3-2.1-6.5,0.1-9.7,0.2C274,48.9,276,47,278,46.1L278,46.1z M281.4,56c2.1,1.9,2.2,1.8,3.2,0C283.7,56,282.8,56,281.4,56z"/>
			<path d="M365.8,45.6c-0.3,0.6-0.4,1.4-0.9,1.9c-1,1-1.4,2.1-1.1,3.5l0,0c-0.7-0.6-1.3-1.1-1.8-1.6c0.7-2.2,1.3-4.3,2.1-6.7
				c-2.1,1.1-3.9,2.1-5.8,3c-2.1,1-4.2,1.5-6.5,1.1c-1.4-0.2-2.3,0.2-3.3,1c-1.3,1-2.7,2-3.9,2.9c-4.4-1.7-4.9-5.4-4-8.4
				c0.6-2,1.9-2.4,3.6-1.1c1.3,1,1.8,2.4,2.2,3.9c0.2,0.7,0.4,1.5,0.6,2.3c2.5-0.4,3.5-2.1,4.4-3.8c-2-3.7-2.1-5.2-0.6-8.5
				c0,2.7-0.8,5.5,1.5,7.5c0.3,0,0.5,0,0.6,0c2.7-2.6,6-2.1,9.2-1.8c1.3,0.1,2.5,0.4,3.7,0.7c1,0.2,1.3,1,1.1,1.8
				C366.8,44,366.2,44.8,365.8,45.6c0.2-0.9,0.7-1.8,0-2.9c-1.5,1-1.6,2.4-1.7,4.2C364.9,46.3,365.4,46,365.8,45.6z M341.2,44.6
				c0.3,0.9,0.6,2.2,1.2,3.4c0.5,1.2,1.6,1.5,2.6,1.1c1.1-0.5,1.3-1.3,1.1-2.4c-0.2-1-0.4-2-0.8-3c-0.3-0.7-0.8-1.4-1.4-1.9
				c-1-0.8-2-0.4-2.4,0.8C341.3,43.1,341.3,43.6,341.2,44.6z M362.7,41.6c-3.3-0.1-6.2-1.1-8.7,1.8c0.8,0.2,1.3,0.3,1.9,0.5
				c-0.7,1.9-2.9-0.4-3.6,1.4C354.8,46.7,359.9,45.1,362.7,41.6z"/>
			<path d="M158.7,108.5c-0.3-0.2-0.6-0.3-1-0.5c-1.1-0.6-1.6-1.5-0.9-2.8c0.3-0.4,0.4-0.9,0.6-1.3c-0.1-0.8-0.3-1.6-0.3-2.4
				c-0.2-0.3-0.5-0.6-0.6-1.1c-1-2.4-3-3.6-5.5-3.6c-2.3,0-4.5,0.4-5.3,3.1c-1.4-0.4-2.1-2.1-3.8-1.4c0,0.6-0.1,1.3-0.1,2.1
				c-1.6-0.4-3-0.8-4.5-1.1c-1.7-0.3-3.2,0.5-3.7,1.6c-0.9,2.2,0.9,6.3,3.1,7.1c1,0.4,1.9,0.5,2.6-0.6c-1.2-0.4-2.7-0.5-3.3-1.3
				c-0.9-1.1-1.2-2.7-1.5-4.2c-0.2-0.9,0.5-1.5,1.4-1.7c0.7-0.1,1.5-0.2,2.1,0.1c1.8,0.6,3.5,1.3,5.4,2c-0.2-1-0.3-1.9-0.5-3.3
				c2,0.8,2.7,2.5,3.8,3.6c1.1,1.1,1.4,3,3.7,3.7c-0.6-1.4-0.9-2.3-1.3-3.2c-0.4-0.9-1-1.6-1.5-2.5c-0.8-1.5-0.5-2.3,1-3
				c3-1.4,6.9,0.6,7.5,3.8c0.1,0.4,0,1-0.2,1.3c-1.4,3.1-1.3,3.7,1.4,5.8c0.2,0.2,0.5,0.4,0.8,0.7c-0.4,0.4-0.8,0.7-1.5,1.4
				c1.1-0.4,2.1-0.5,3-0.5C159.2,109.8,159,109.1,158.7,108.5z"/>
			<path d="M308.6,48.9c-0.3,0.3-0.6,0.7-0.9,1c-0.6,0.6-1.1,1.3-1.6,2c-3-2.6-4.5-2.3-6.4,1.1c-0.2,0.4-0.5,0.7-0.9,1.2
				c-0.2-0.5-0.3-0.8-0.4-1.1c-0.4-1-0.8-2.1-2.1-2c-1.3,0-1.8,1.1-2.2,2.2c-0.8,2.5-0.3,7.8,1.1,10.4c-0.1-1.1-0.3-1.8-0.3-2.5
				c-0.1-2.2-0.2-4.3-0.2-6.5c0-1.1,0.3-2.2,1.9-2.8c0.4,0.9,0.9,1.8,1.2,2.8c0.2,0.9,0.2,1.9,0.4,2.8c0.1,0.9-0.4,1.9,0.6,3
				c0.3-1.6,0.5-3,0.8-4.3c0.3-1.2,0.8-2.5,1.4-3.5c0.4-0.6,1.3-1.1,2.1-1.2c1.1-0.1,1.6,0.9,1.6,1.8c0,1.5-0.1,3-0.2,4.5
				c-0.1,0.8-0.5,1.6,0.5,2.8c0.3-1.4,0.7-2.3,0.7-3.3c0.2-2.9,1.5-5.4,3.4-7.5c0.6-0.6,1.4-1,2.4-1.7
				C310.7,48.5,309.7,48.8,308.6,48.9z"/>
			<path d="M318.3,52.9c-1.3,0.2-2.5,0.9-3.8,1.4c-0.7,0.3-1.1,1.1-2.2,0.9c0.2-0.9,0.3-1.7,0.5-2.4c0.2-1,0.5-2.1,0.4-3.1
				c0-0.7-0.3-1.5-0.7-2c-0.3,0.1-0.6,0.3-0.9,0.4c1,4.5-0.9,8.2-1.1,12.2c1.1-0.3,1.8-0.6,1.7-1.9c0-0.4,0.1-1.1,0.4-1.3
				c1.7-1.2,3.3-2.4,5.1-3.4c0.7-0.4,1.4,0.2,1.3,1.2c-0.1,0.8-0.2,1.5-0.3,2.3c0.4-0.7,1-1.4,1.2-2.2
				C320.4,53.5,319.7,52.6,318.3,52.9z"/>
			<path d="M100.1,85.4c-1.3,2.2-3.2,3.8-5.4,5c-2.2,1.2-4.5,1.1-6.7,0.3c-1.9-0.7-2.8-2.4-2.5-4.4c0.3-1.7,1-3.2,2.5-4.2
				c1.3-0.9,2.6-1.8,3.9-2.8c-0.3-0.5-0.4-0.7-0.5-1c-1.1-1.9-0.9-3.2,0.9-4.6c0.7-0.5,1.5-0.9,2.2-1.4c0.7-0.4,1.3-0.8,2.2-1.4
				c-1.4-0.6-2.4-0.9-3.4-1.4c-1.1-0.6-1.2-1.4-0.2-2.3c0.6-0.6,1.4-1,2.2-1.4c1.3-0.8,2.6-1.5,3.9-2.2c-0.3-1.1-0.7-2-0.7-2.9
				c0-0.6,0.8-1.2,1.5-2c0.1,0.5,0.2,0.7,0.1,0.8c-0.4,0.6-1.4,1.2-0.7,2c0.4,0.5,1.4,0.6,2.2,0.5c1.3-0.1,2.6-0.4,4-0.6
				c0.2,1.6-0.7,1.9-1.7,2.1c-2.9,0.7-5.9,1.4-8.5,3.1c-0.7,0.5-1.3,1-2.1,1.7c1.9,1.8,4.3,1.1,6.8,2c-1.3,0.8-2,1.3-2.8,1.7
				c-1.1,0.6-2.3,1.1-3.5,1.7c-0.6,0.3-1.1,0.7-1.6,1.1c-0.7,0.6-1.3,1.5-0.6,2.3c0.5,0.6,1.4,0.9,2.2,1.1c0.6,0.1,1.3-0.2,2.2-0.4
				c-0.4,1.2-1.2,1.4-1.9,1.6c-2.4,0.7-4.2,2.2-6,3.8c-0.5,0.4-0.9,0.9-1.2,1.5c-1.4,2.5-0.5,4.8,2.4,5.5c1.9,0.5,3.7,0.1,5.3-0.9
				c1.2-0.8,2.4-1.6,3.5-2.5C98.9,86.2,99.5,85.8,100.1,85.4z"/>
			<path d="M327.3,161.4c-0.3,1-0.9,1.9-1.6,2.4c-1.4,0.9-2.7,1.5-4.1,0.1c-0.3-0.3-1.2-0.4-1.4-0.1c-0.6,0.6,0,1.1,0.5,1.5
				c0.4,0.3,0.8,0.5,1.3,0.7c1.6,0.9,2.1,2.3,1.3,4c-0.2,0.4-0.3,0.7-0.6,1.3c1.8-0.9,2.3-1.3,1.9-2.5c-0.8-2.5,0.5-3.7,2.3-4.8
				c0.3-0.2,0.6-0.5,0.9-0.8c0.3-0.4,0.6-0.7,0.9-1C328.1,161.9,327.7,161.7,327.3,161.4z"/>
			<path d="M207,46.3c1.8,0.7,3.6,1.3,5.6,2.1c-0.7,1.3-1.8,1.5-2.9,1.6c-1.2,0.2-2.4,0.2-3.5,0.6c-1.7,0.5-2.2,1.8-1.3,3.3
				c1.1,1.8,1.7,4.1,5.2,3.7c-2.1,1.3-2.4,1.3-3.4,0.2c-0.9-0.9-1.7-1.9-2.7-3.1c-0.9,1.3-1.6,2.3-2.5,3.6c2.2,0.4,4.4,0,5.5,2.3
				c0.4,0.9,0.7,1.7,0,2.7c-0.2-0.1-0.4-0.2-0.4-0.3c-0.5-2.9-1.5-3.6-4.4-3.3c-1.2,0.2-2.5,0.5-4.1,0.9c0.5-0.6,0.7-1,1-1.4
				c1.1-1.2,2.3-2.4,3.4-3.7c0.3-0.4,0.5-1.2,0.3-1.5c-0.3-0.4-1.1-0.7-1.6-0.6c-2.7,0.3-4.1,2.2-5.1,4.5c-0.1,0.3-0.2,0.6-0.6,0.9
				c-0.1-0.4-0.3-0.8-0.2-1.1c0.7-2.7,3.3-5,6.2-5.3c1.3-0.1,2.1-0.4,3-1.6c0.5-0.8,1.9-1,2.9-1.4c0.9-0.3,1.8-0.3,2.8-0.4
				c0-0.2,0.1-0.3,0.1-0.5c-1.5-0.7-3-1.4-4.4-2.1c0.2-1.5,1.1-1.7,2.1-1.8c1.4-0.1,2.6-0.4,3.4-1.8c0.3-0.5,1.3-0.9,2-1
				c2.9-0.3,6.3,1.9,7.5,4.7c-1.5-1.1-2.9-2.4-4.5-3.5c-1.5-1-2.6-0.9-4.4,0.3c0.6,1.8,2.9,0.6,3.8,2.2c-1.6,0.8-2.9-0.5-4.3-0.4
				c-1.4,0.1-2.8,0.3-4.1,0.4C207,45.9,207,46.1,207,46.3z"/>
			<path d="M255.2,150.6c-0.7-0.2-1.2-0.4-1.5-0.8c-0.5-0.3-1-0.5-1.5-0.8c0.1,0.5,0.2,1,0.2,1.5c-0.9,1.4-1.7,2.5-2.4,3.7
				c-2.1-0.2-4.2,1.2-4.5,2.9c-0.3,1.6,0.8,3.1,2.8,3.5c-0.6-0.8-1.1-1.3-1.4-2c-0.7-1.2-0.3-2,0.9-2.4c1.2-0.4,2.3-0.4,3.5,0
				c1.3,0.5,2.6,0.9,3.9,1.2c1.4,0.3,1.5,0.2,1.8-1.6c-1.7-0.2-3.2-0.7-3.6-3c1.8,0.6,3.5,2.1,5.1-0.1c0-0.3-0.1-0.5-0.2-0.7
				C257.3,151.6,256.3,151.1,255.2,150.6z"/>
			<path d="M240.3,141.5c0.1,0.3,0.3,0.6,0.5,0.9c0.7,0.9,2.1,1.6,3.6,1.8C243.1,143.4,241.7,142.5,240.3,141.5z"/>
			<path d="M394.4,120.9c-0.6,1.1-1.2,2.2-1.9,3.4c1.4-0.2,2.5-0.6,3.7-0.6c0.9,0,1.9,0.4,2.5,1c0.8,0.8,0.2,1.8-0.4,2.6
				c-0.5,0.8-1.1,1.5-1.7,2.5c1.6-0.1,2.9-0.4,4.2-0.3c0.8,0,1.8,0.4,2.2,1c0.7,0.9,0.1,1.9-0.5,2.6c-0.8,0.9-1.7,1.7-2.6,2.5
				c-0.5,0.5-1,0.9-1.6,1.4c0.9,0.7,1.7,1.1,2.3,1.7c1.3,1.3,1.1,3-0.5,3.8c-3.3,1.6-6.8,2.8-10.6,2.7c-0.7,0-1.4-0.3-2.1-0.8
				c3.4,0.2,6.5-0.8,9.6-1.6c0.8-0.2,1.5-0.6,2.2-0.9c1.9-0.8,1.3-2.8-0.3-3.4c-0.8-0.3-1.7-0.4-2.6-0.5c-0.4-0.1-0.8-0.1-1.7-0.2
				c0.9-0.5,1.2-0.8,1.7-1c2.1-0.9,4-2,5.3-4c0.3-0.5,0.7-1.4,0.5-1.7c-0.4-0.5-1.2-0.7-1.9-0.7c-2.5,0-4.8,1.2-7,2.2
				c-0.6,0.3-1.2,0.5-1.8,0.8c-0.1-0.1-0.1-0.3-0.2-0.4c1.4-1.1,2.9-2.2,4.2-3.4c0.8-0.7,1.6-1.6,2.2-2.5c0.9-1.4,0.4-2.2-1.2-2.5
				c-1.7-0.2-3.1,0.5-4.5,1.2c-0.6,0.3-1.1,0.7-1.9,1.2c0.1-1.7,1.4-2.3,2-3.3c0.6-1,1.4-1.9,2.1-2.9
				C394.1,120.8,394.2,120.9,394.4,120.9z"/>
			<path d="M205.7,18.1c-0.2-0.8-0.3-1.3-0.4-1.7c-0.2-1,0.4-1.5,1.2-1.8c0.5-0.1,0.9-0.2,1.4-0.2c2,0.1,4,0.7,6,0.9
				c2,0.2,3.1,2.1,3.6,4.1c0.4,1.3,0.3,2.7,0.2,4.1c-1.7-6.6-1.7-6.6-4.5-7.5c0,0.6,0,1.2,0,1.8c-0.9,0.5-1.8,0.4-2.1-0.6
				c-0.5-2-2.1-2-3.6-2c-1.5,0-2,0.9-1.2,2.2c0.7,1,1.7,1.8,2.7,2.7c0.4,0.4,0.9,0.7,1.3,1.2c-1.3,0.3-2.3-0.5-3.2-1.1
				c-2.2-1.6-4.7-1.9-7.3-1.7c-1.6,0.1-2.3,0.5-3.6,2c1.3,0.9,2.6,1.9,3.9,2.8c0,0.2-0.1,0.3-0.1,0.5c-0.6,0-1.3,0-1.9,0.1
				c-2.1,0.1-2.7,0.9-2.1,2.9c0.8,3,2.7,4.8,6,4.8c-3.2,1-4.9,0.2-6.2-2.6c-0.2-0.4-0.4-0.9-0.5-1.3c-0.9-2.7-0.7-3.4,2-4.8
				c-0.8-0.9-1.5-1.7-2.3-2.7C198.2,16.4,201.8,17.3,205.7,18.1z"/>
			<path d="M386.3,152.4c0,0.7,0.4,1.3,0.9,1.7c0.5,0.4,1.1,0.6,1.7,0.7C388,154.1,387.1,153.3,386.3,152.4z"/>
			<path d="M157.3,117c-3.6-0.9-7-0.9-10.1,1.6c1.5,2.7,4.6,1.1,6.8,3.1c-1.3,0.1-2.1,0.3-2.9,0.3c-1.6,0.1-2.9,0.8-3.9,2.1
				c-0.9,1.2-0.6,2.2,0.9,2.4c1.1,0.2,2.4,0,3.5-0.2c0.8-0.1,1.7-0.5,2.6-0.8c-1.8,1.9-4.8,2.8-6.9,2.1c-1.9-0.6-2.4-2.1-1.2-3.8
				c0.6-0.8,1.3-1.6,2-2.3c-0.1-0.2-0.1-0.4-0.2-0.5c-2.6-2.1-2.5-3.1,0.5-4.5c0.9-0.4,1.9-0.8,2.9-1.2c0-0.7-0.3-1.7,0.1-2.2
				c0.7-0.8,1.7-1.2,2.6-1.8c0.2,0.2,0.4,0.5,0.6,0.7c-0.7,0.4-1.5,0.7-2.2,1.1c0.1,0.1,0.3,0.2,0.4,0.3c2.3,0,4.5,0,6.8,0
				c0.1,0.2,0.1,0.3,0.2,0.5c-1.2,0.5-2.3,1-3.5,1.5C156.4,116.1,157.9,115.9,157.3,117z"/>
			<path d="M360.9,158.4c-0.1,0.1-0.2,0.2-0.3,0.2c1.4,3.2,1.1,6.4,0.4,9.6c-0.4,1.7-1.6,2.1-3.1,1.1c-1.2-0.9-2-2.1-1.6-3.7
				c0.2-0.8,0.4-1.8,0.2-2.6c-0.1-0.4-0.5-0.9-0.9-1.1c-0.5,0.3-1.1,0.5-1.6,0.8c0,0.3,0,0.5,0,0.9c0.6-0.4,1-0.6,2-1.2
				c-0.1,1.2-0.2,2-0.2,2.7c-0.7-0.1-1.1-0.1-1.6-0.2c0.1,0.6,0.3,1.1,0.3,1.6c0.1,1.3-1,3-2.3,3.6c-1.1,0.5-2,0.1-3.1-1.2
				c-1-1.2-1.5-2.5-1.3-4c-0.5,0.1-1,0.2-1.5,0.3c0,0.6-0.1,1.3-0.4,1.7c-0.9,1.5-2.4,1.3-3-0.3c-0.1-0.4-0.3-0.7-0.4-1.1
				c-0.3,0-0.6,0-0.9,0c0.1,0.8,0.4,1.5,0.7,2.3c0.6,1.3,1.5,1.6,2.8,0.9c0.6-0.3,1.2-0.7,1.8-1.1c3.9,4.8,3.9,4.8,8.4,1
				c0.8,0.6,1.5,1.4,2.3,1.9c1.8,1.1,3.5,0.6,4-1.2c1-3.5,0.7-7-0.5-10.4C361.2,158.6,361.1,158.5,360.9,158.4z"/>
			<path d="M211.7,10.1c-1-2.3,1-4.4,0.1-6.9c-3.3,2-3.5,5-2.9,8.3c-1.3-0.3-1.4-1.1-1.5-1.9c-0.6-3.2-3.5-5.4-6.7-5.1
				c-0.9,0.1-1.3,0.7-1,1.5c0.5,1.5,1.2,3,2.9,3.6c1.6,0.5,2.1,1.7,2.1,3.4c-1.1,0.1-1.6-0.8-2.2-1.3c-1.4-1.2-3.5-1.4-5-0.4
				c-0.9,0.6-1.2,1.7-0.4,2.4c0.8,0.7,1.8,1.2,2.8,1.6c0.5,0.2,1.2,0.1,1.8,0.4c-1.2,0.8-2.5,0.8-3.7,0.1c-1.3-0.7-2.3-1.8-2.3-3.4
				c0-1.3,0.5-2.1,1.8-2.5c0.8-0.2,1.7-0.4,2.8-0.7c-0.4-1-0.8-1.9-1.1-2.7c-0.6-1.9,0-2.9,1.9-2.7c1.7,0.2,3.3,1,4.9,1.6
				c0.6,0.2,1.1,0.7,1.7,1c0.4-0.5,0.7-0.8,1-1.2c0.3-0.5,0.5-1,0.8-1.4c0.9-1.3,2.4-2.2,3.2-1.7c1.2,0.8,0.7,2.1,0.5,3.1
				C212.8,6.9,212.2,8.5,211.7,10.1z"/>
			<path d="M153.6,34c-1.6,0.4-1.9-0.5-2.3-1.1c-0.3-0.4-0.4-0.9-0.7-1.2c-0.4-0.4-1.2-1.1-1.3-1c-0.5,0.4-1.1,1-1.2,1.6
				c-0.2,0.8,0,1.7-0.3,2.7c-0.6-0.7-1.2-1.3-1.7-2.1c-2-2.9-4.9-3.3-8.1-3c-0.9,0.1-1.6,0.5-1.3,1.6c1,3.9,3,7,6.3,9.3
				c0.1,0.1,0.3,0,0.5,0.1c0.1,0,0.3,0.1,0.5,0.3c-0.2,0.8-0.5,1.4-1.4,0.7c-3.4-2.6-5.9-5.8-6.8-10.1c-0.4-1.8,0.3-2.7,2.2-2.8
				c3.3-0.2,6.5-0.1,8.6,3.4c1.5-1.7,2.9-3.2,4.1-4.7c1.6-2,4.1-2.1,5.6,0c0.7,0.9,1.1,2.1,1.5,3.2c0.3,0.7,0.3,1.6,0.4,2.4
				c0.1,0.6,0,1.3-0.3,2c-0.1-0.4-0.3-0.7-0.4-1.1c-0.2-1.1-0.3-2.2-0.6-3.3c-0.4-1.1-0.9-2.3-1.6-3.2c-1-1.2-2.4-1.2-3.4-0.3
				c-1.1,0.9-1.3,2.1-0.5,3.4C152.1,31.7,152.8,32.7,153.6,34z"/>
			<path d="M329.5,58.1c-0.1-2.7,3-4.4,0.7-7.1c-0.8,0.7-1.5,1.3-2.5,2.1c-0.2-1.7,1.8-2.9,0.6-4.7c-0.5,0.3-1.1,0.5-1.5,0.9
				c-2.2,2.1-3.8,4.6-4.3,7.6c-0.2,1.2,0.3,2.5,0.5,3.8c-0.8-0.3-1.3-1-1.4-2c-0.1-0.9-0.2-1.8,0.1-2.6c1-3.1,2.6-5.8,5.1-8
				c1.6-1.4,2.1-1,3.1,0.9c0.5,1,1.5,1.7,2.3,2.6c1-0.8,1.8-1.6,2.7-2.2c0.8-0.6,1.6-1.1,2.5-1.5c0.8-0.4,1.8-1,2.4,0
				c0.4,0.6,0.2,1.6,0,2.4c-0.1,0.7-0.6,1.3-0.9,2c-0.3,0.7-0.5,1.4-0.9,2.6c1.3-0.5,2.2-0.8,3.1-1.1c-1.2,1.8-2.5,2.5-5.3,2.7
				c0.7-2.6,3-4.6,3.1-7.6c-0.6,0.1-1.1,0-1.6,0.2c-2.4,1.1-4.2,2.9-5.4,5.2C331.4,55.4,331.1,56.8,329.5,58.1z"/>
			<path d="M259.7,44.3c-1.6-1.5-2.9-3-2.3-5.5c0.3-1.4,0.3-2.9,0-4.5c-0.5,0.7-1,1.4-1.5,2.1c-0.2-0.1-0.4-0.1-0.6-0.2
				c0.1-0.7,0.3-1.5,0.3-2.2c0.1-1.1,0.3-2.2,0.2-3.3c-0.1-0.6-0.8-1.4-1.4-1.7c-0.4-0.2-1.3,0.4-1.8,0.8c-0.6,0.5-0.8,1.3-1.3,2
				c-0.1,0.2-0.4,0.3-1.1,0.8c0.7-2.6,2.5-4.6,1.2-7.3c-0.3,0.1-0.6,0.3-0.9,0.4c-0.2,0.1-0.4,0.1-1,0.2c0.7-0.9,1.1-1.5,1.6-2.1
				c2,0.8,1.1,2.7,1.8,3.9c5.3,0.8,5.5,5,5.7,9.2c0.2,0,0.4,0,0.6-0.1c0.3-0.6,0.6-1.2,1-1.7c0.9-1.3,1.8-2.6,2.9-3.8
				c0.3-0.4,1.3-0.6,1.7-0.4c0.4,0.2,0.8,1,0.8,1.6c0,1-0.4,1.9-0.6,2.9c-0.2,0-0.3-0.1-0.5-0.1c0-1.1,0-2.1,0-3.6
				c-2.4,1.5-3.5,3.5-4.5,5.6C258.8,39.6,258.2,41.9,259.7,44.3z"/>
			<path d="M93.6,137.7c-0.7-2.5-0.1-3.5,2.6-4.1c2.4-0.5,4.6-0.1,6.4,1.8c0.4,0.4,0.6,1,0.7,1.7c-1.1-1.5-2.5-2.4-4.3-2.8
				c-1.3-0.3-2.5-0.1-3.7,0.5c-1.4,0.7-1.4,1.9-0.1,2.7c0.6,0.4,1.3,0.5,2,0.8c0.7,0.3,1.3,0.5,2,0.8c0.1,0,0.2,0.2,0.3,0.6
				c-2.7,0.5-5.5-2.2-8.3,0.3c0.6,0.5,1,0.8,1.5,1c0.5,0.2,1,0.4,1.5,0.6c-0.3,1.1-0.9,0.8-1.5,0.8c-1-0.1-2.1-0.3-3.1-0.3
				c-1.3,0.1-2.5,0.7-3,2c-0.5,1.4,0,2.7,1,3.7c1.7,1.6,3.8,2.3,6.1,2.3c0.6,0,1.3-0.1,2,0.1c-0.6,0.2-1.1,0.5-1.7,0.7
				c-3.1,0.8-6.7-0.8-8.2-3.6c-1.3-2.4-0.8-4.2,1.5-5.5c1.5-0.8,2.9-1.4,3.9-2.9C91.6,138.4,92.8,138.2,93.6,137.7z"/>
			<path d="M361.2,107.3c1.4,0.3,1.7,0.7,2.3,1.6c-0.2,0.1-0.4,0.2-0.5,0.3c0.2,0.2,0.4,0.5,0.6,0.7c0.3-0.3,0.6-0.6,0.7-0.9
				c0.1-0.5-0.5-1.4-1-1.6c-0.9-0.4-2-0.7-3-1C360.5,106.7,360.8,107,361.2,107.3z"/>
			<path d="M360.4,101.8c-0.7,1-1.6,1.8-2.7,2.4c0.2,0.2,0.4,0.3,0.6,0.5c0.8-0.6,1.5-1.2,2.1-1.7c1.1-1,0.8-2.2-0.6-2.5
				c-1.5-0.3-3.1-0.6-4.6,0.3C357,101.1,358.9,100.1,360.4,101.8z"/>
			<path d="M389.1,30.8c-1.6,2.1-3.1,4.3-3.4,7c0.1,0.2,0.3,0.3,0.4,0.5c0.9-0.5,1.9-0.9,2.7-1.5c1.4-0.9,2.7-2,3.9-3.1
				c0.6-0.6,1.1-1.3,1.6-2.1c0.6-1.1,1-2.2,0.3-3.4c-0.7-1.3-1.9-0.7-3-0.6c0.7-1,1.8-1.5,2.9-0.9c1.1,0.6,1.4,1.7,1.3,2.9
				c-0.1,1.5-0.7,3-1.9,4c-1.6,1.4-3.3,2.8-4.9,4.2c-0.5,0.4-1,0.8-1.4,1.1c1.5,0.8,2.9,1.5,4.3,2.4c0.5,0.3,0.9,0.9,1.2,1.4
				c0.8,1.3,0.3,2.2-1.2,2.4c-2.6,0.3-5.2,0.5-7.9,0.6c-1.2,0.1-2.4,0-3.5,0c-0.3,0-0.5-0.3-0.8-0.6c4.2-0.4,8.5,0.2,12.5-1.2
				c-0.9-3.2-2.5-3.9-7.5-3.3c0.1-1,0.1-2,0.2-2.9c0.1-2.4,1.3-4.4,2.8-6.2C388.1,31,388.7,30.9,389.1,30.8z"/>
			<path d="M425.7,90.6c0.6,1.1,1.4,2,1.3,2.8c-0.1,1.2-1.4,1.5-2.6,1.8c-1.5,0.3-2.9,0.7-4.4,0.8c1.8-1.3,4.5-0.9,6-2.9
				c-1.6-2.6-3.7-0.1-5.6-0.6c0.5-1.1,1.5-1,2.3-1.3c1.4-0.6,2.9-1.1,3.5-2.7c0.4-1,0.7-2,0-3c-0.7-1-1.8-1.1-2.8-0.9
				c-1.5,0.3-3.1,0.9-4.6,1.3c-0.5,0.1-1,0.3-1.7,0.2c0.3-0.3,0.6-0.8,1-1c1.6-1,2.7-2.5,3.3-4.3c0.4-1.2,0.6-2.5-0.4-3.6
				c-1-1.1-2.4-1-3.6-0.5c-1.3,0.5-2.6,1.2-3.8,2.1c-1.3,0.9-2.4,2-3.7,2.8c1.8-3,4.5-4.8,7.7-5.9c1.2-0.4,2.8-0.5,3.8,0.6
				c1.2,1.4,1.2,3.1,0.7,4.7c-0.3,0.9-0.7,1.7-1.2,2.9c1.1-0.1,1.8-0.1,2.5-0.2c3-0.2,4.6,2,3.4,4.8C426.6,89.3,426,90,425.7,90.6z"
				/>
			<path d="M147.7,142.7c-0.7-0.5-1.3-1-2.2-1.6c0.8-1.1,1.6-2.1,2.4-3.2c-0.2-0.2-0.5-0.5-0.8-0.7c-0.9-0.7-0.8-1.5-0.1-2.2
				c1.3-1.2,2.8-2.3,4.2-3.4c0.1,0.2,0.3,0.3,0.4,0.5c-1.4,1.2-2.7,2.4-4.3,3.7c2.5,1.5,4.7-0.5,6.9,0.2c-2.5,1.4-5.5,1.9-7.3,5
				c1.6,0.3,2.9,0.5,4.6,0.8c-0.6,0.4-0.9,0.6-1.2,0.9c-1.2,0.9-2.5,1.7-3.5,2.7c-1.1,1.1-0.5,2.3,1.1,2.4c0.8,0.1,1.6,0,2.3-0.3
				c1.9-0.7,3.8-1.6,5.7-2.4c0.6-0.2,1.1-0.5,1.8-0.5c-1.7,1.7-3.8,2.8-6,3.7c-1.1,0.4-2.3,0.7-3.5,0.8c-1.1,0.1-2.3-0.1-2.8-1.4
				c-0.5-1.2-0.2-2.2,0.6-3.1C146.6,144,147.1,143.4,147.7,142.7z"/>
			<path d="M351.9,54.8c0.6-2.3,2.3-3.7,4.7-5c-0.3,2.2-0.6,4-1,6.2c1.2-0.4,1.9-0.6,2.6-0.8c2.5-0.9,3.5-0.2,3.7,2.5
				c0,0.2,0.1,0.3,0.2,0.7c0.6,0,1.2,0,1.7-0.1c1.5-0.2,2.7,0.2,3.5,1.5c0.8,1.2,0.6,2.6-0.1,3.6c-1,1.3-2.2,2.5-3.5,3.6
				c-0.8,0.7-1.9,1.2-2.9,1.7c-0.3,0.2-0.8,0.1-1.4-0.2c0.8-0.5,1.6-0.9,2.4-1.4c1.3-1,2.7-1.9,3.9-3.1c1.2-1.3,1.3-3,0.6-3.9
				c-0.7-0.9-2.2-1.2-3.8-0.5c-0.9,0.4-1.6,1-2.4,1.6c-0.8,0.6-1.6,1.3-2.4,2c-0.1,0.1-0.3,0-0.6,0.1c0-1,1-1.4,1.4-2
				c0.7-1,1.6-2,2.1-3.1c0.6-1.6-0.4-2.6-2-1.9c-1.1,0.5-2,1.4-3,2.2c-0.4,0.4-0.7,1-1.3,1.9c-0.5-2.9,1.3-5.2,0.5-8
				C353.8,53.2,352.8,54,351.9,54.8L351.9,54.8z"/>
			<path d="M267.1,75.9c2.3-1.5,4.4-3,5.7-5.4c0.5-0.9,0.8-2.1,0.8-3.1c0-1.3-0.8-1.8-2.1-1.5c-1.7,0.4-2.9,1.5-3.9,2.9
				c-0.9,1.3-1.9,2.5-3.1,4.2c-0.3-1.6,0.5-2.1,0.9-2.7c0.9-1.2,1.6-2.4,1.6-3.9c-0.1-1.8-1.1-2.7-2.8-2.2c-1.6,0.4-2.7,1.4-3.4,2.8
				c-0.4,0.8-0.7,1.6-1.2,2.4c-0.4,0.7-0.9,1.4-1.7,2.5c-0.6-2,0.9-2.5,1.2-3.6c0.3-1.1,0.7-2.2,1.1-3.6c-3.6,0.6-4.7,3.2-6.2,5.6
				c-0.1-3.7,3.5-6.8,6.8-6.1c0.6,0.1,1.2-0.1,1.8-0.3c0.6-0.2,1.2-0.5,1.8-0.6c1.7-0.3,2.8,0.3,3.3,1.9c0.2,0.4,0.2,0.9,0.4,1.6
				c1.1-0.6,2-1.2,3-1.6c2.1-0.9,3.7,0.3,3.4,2.6C274.2,71,270.7,75.5,267.1,75.9z"/>
			<path d="M416,117.9c2.7,0.7,5,0.4,7.1-0.6c1.9-0.9,2.2-1.9,0.6-3.4c-0.7-0.7-1.7-1-2.7-1.6c0.5-0.8,1.4-0.7,2-0.9
				c1.1-0.5,2.3-0.8,3.2-1.4c2.1-1.4,2-3.7-0.2-5c-0.8-0.5-1.9-0.6-2.9-0.8c-0.5-0.1-1.1,0-1.6-0.2c2-1.6,4.9-0.5,6.9-2.3
				c-0.7-2.5-3.4-2.6-4.9-4.2c2.3,0,4.1,1.2,5.4,2.9c0.8,1.1,0.5,1.8-0.7,2.5c-0.5,0.3-0.9,0.5-1.6,0.9c0.5,0.7,0.9,1.2,1.3,1.8
				c1.3,1.9,1,3.7-0.8,5c-0.9,0.7-2,1.2-3.1,1.9c0.5,0.9,1,1.7,1.4,2.6c0.5,1,0.2,1.9-0.8,2.4c-2,1.2-4.3,1.8-6.6,1.9
				C417.3,119.4,416.5,119.2,416,117.9z"/>
			<path d="M103.7,109.1c-1.1,1.6-2.3,3.2-3.3,4.9c-0.9,1.4-1.7,2.9-2.4,4.4c-0.2,0.5-0.1,1.5,0.2,1.9c0.4,0.4,1.5,0.6,1.9,0.3
				c1.4-0.8,2.8-1.8,4.1-2.8c1.1-0.9,2.1-2,3.2-2.9c0.6-0.5,1.3-0.7,2.1-1.1c0.1,0.5,0.1,0.7,0.1,0.7c-2.3,1.3-4.3,3-6,5.1
				c-0.6,0.8-1.5,1.6-2.4,1.9c-1.8,0.5-2.9,1.9-4.2,3c-1.1,0.9-2.2,1.8-3.5,2.4c-1.8,0.8-2.7,0-2.7-2c0-0.8-0.1-1.8,1.3-2.2
				c0,1.1,0,2.1,0,3.3c2.1-0.4,3.5-1.5,4.6-2.8c0.4-0.4,0.5-1.5,0.2-2.2c-0.5-1.3-0.3-2.4,0.4-3.4c1.8-2.8,3.7-5.6,5.6-8.3
				c0.1-0.2,0.4-0.3,0.6-0.4C103.5,109,103.6,109.1,103.7,109.1z"/>
			<path d="M267.4,46.1c-1.7,2.2-2.2,5.2-4.1,7.3c-0.2-0.1-0.3-0.2-0.5-0.2c0.3-0.9,0.7-1.7,1-2.6c0.2-0.7,0.4-1.6-0.5-1.8
				c-0.5-0.1-1.3,0.4-1.8,0.8c-0.5,0.5-0.9,1.3-1.6,1.8c0.1-0.8,0.2-1.6,0.1-2.4c-0.1-0.6-0.4-1.4-0.8-1.5c-0.4-0.2-1.3,0.3-1.6,0.7
				c-0.7,1-1.2,2.2-1.8,3.3c-0.2,0.4-0.5,0.7-0.9,1.3c-0.9-1.8,0.1-3.8-1.6-5.2c-1.1,1.1-0.7,2.7-1,4c-0.3,1.4-0.5,2.7-0.9,4.1
				c-0.7-2.9-0.3-5.8,0.4-8.6c0.3-1.1,1.3-1.3,2-0.4c0.6,0.7,1,1.6,1.6,2.6c0.4-0.5,0.8-0.9,1.2-1.4c1.7-2.2,2.6-2.3,4.4-0.2
				c1.3,0.1,2.5,0.2,3.9,0.3C265.8,47.4,266.6,46.8,267.4,46.1L267.4,46.1z"/>
			<path d="M230,30.5c-2.8,1-3.6,3.6-5.6,5.9c0.1-1.7,0.2-2.8,0.3-4c-1.6,1.5-1.6,3.5-2.3,5.7c-0.8-2,0-3.4,0.5-4.8
				c0.5-1.4,0.7-3.1,2.5-4.3c0.1,1.4,0.2,2.4,0.3,3.7c1.1-0.9,2.1-1.8,3.2-2.6c1.4-0.9,2.2-0.6,2.5,1.1c0.1,0.7,0.2,1.4,0.3,2.2
				c0.8-0.2,1.3-0.5,1.9-0.6c1.7-0.4,3,0.6,3.1,2.4c0.1,2.6-1.2,4.6-2.1,6.8c-0.2-0.1-0.4-0.1-0.6-0.2c0.1-0.5,0.1-1,0.3-1.4
				c0.5-1.4,1.1-2.7,1.5-4c0.3-1,0.2-2.1-0.8-2.5c-0.7-0.2-1.7,0-2.4,0.4c-0.8,0.5-1.3,1.4-1.9,2.1c-0.6,0.8-1.1,1.7-1.9,2.4
				C229.4,36.1,231.6,33.7,230,30.5z"/>
			<path d="M189.5,170.3c-0.2,1-0.4,2-0.7,3.3c1-0.1,1.7-0.1,2.3-0.4c2.7-1.2,5-2.9,5.9-5.9c0.2-0.6,0.7-1,1.3-1.4
				c0,2.3-2.1,4.2-1,6.7c2.2-0.3,1.6-3,3.3-3.9c1.4,2.3-0.8,5,1,7.2c2.8-0.6,3.5-3,4.7-5.1c-0.1,2.4-1.2,4.3-3.1,5.7
				c-1.4,1-2.9,0.3-3.1-1.5c-0.1-0.9,0.1-1.9,0.1-2.9c-0.9,0.6-1.7,1.5-2.5,1.5c-0.8,0-1.5-1-2.5-1.8c-0.6,0.4-1.4,1.1-2.4,1.6
				c-1.1,0.5-2.2,1-3.3,1.1c-1.1,0.2-1.7-0.6-1.4-1.7c0.2-1,0.7-1.9,1.1-2.8C189.2,170.2,189.3,170.3,189.5,170.3z"/>
			<path d="M235.3,170.9c-0.5,0-0.9-0.1-1.4-0.1c-2,0.2-2.5-0.1-3.1-2.1c-0.4-1.3-0.6-2.6-0.9-4c-2,1.2-3.4,2.7-4.5,4.6
				c-0.8,1.4-1.6,3.2-3.6,3.7c-1-1.9-0.4-3.6,0.8-5.1c-0.2,1.2-0.4,2.3-0.6,3.7c1.6-0.3,1.9-1.5,2.6-2.3c0.7-0.9,1.1-1.9,1.7-2.9
				c0.2-0.4,0.4-1,0.8-1.2c1.6-0.5,2.3-1.8,2.9-3.2c0.2,0,0.3,0,0.5,0.1c0.2,1.2,0.3,2.4,0.5,3.7c0.2,1.2,0.5,2.3,0.9,3.5
				c0.1,0.4,0.8,0.6,1.3,0.7c0.2,0,0.6-0.7,0.6-1.1c0.1-0.7-0.1-1.4-0.1-2.1c0-2.7,1.2-4.4,3.8-5.2c-0.1,0.9,0,1.6-0.2,2.3
				c-0.4,1.4-0.9,2.7-1.3,4.1C235.6,168.9,235.4,169.9,235.3,170.9L235.3,170.9z M234.6,167.7c1-1.2,2-2.5,1.3-4.6
				C234.7,164.6,234.2,166,234.6,167.7z"/>
			<path d="M225.7,8.2c0.7-2.4,2.5-3.8,4.6-4.9c0.6-0.3,1.8-0.2,2.4,0.1c0.4,0.3,0.6,1.5,0.5,2.1c-0.4,1.5-1,2.8-1.7,4.6
				c0.7-0.2,1.2-0.4,1.7-0.5c1.1-0.3,2.2-0.7,3.2-0.7c2.2,0,3.1,1.4,2.6,3.5c-0.2,0.8-0.5,1.5-0.7,2.2c1,1,2.9,0.3,3.2,2
				c0.1,0.7-0.3,1.4-0.8,2.1c0-0.2-0.1-0.4-0.1-0.6c-0.2-1.8-1.1-2.3-2.7-1.5c-0.4,0.2-0.8,0.6-1.2,0.8c-0.4,0.2-0.7,0.5-1.5,0.4
				c0.5-0.7,1-1.4,1.3-2.1c0.6-1.1,1.2-2.3,1.5-3.5c0.4-1.7-0.5-2.7-2.2-2.3c-1.5,0.3-2.8,1-4.2,1.6c-0.6,0.2-1.1,0.5-2.1,0.5
				c0.5-1.1,1.1-2.2,1.6-3.3c0.4-1,1-2,1.2-3.1c0.3-1.4-0.5-2-1.8-1.4c-0.8,0.4-1.6,1.1-2.3,1.7C227.2,6.6,226.5,7.4,225.7,8.2
				L225.7,8.2z"/>
			<path d="M178.6,128.1c0.3-0.2,0.6-0.4,0.9-0.6c-0.2-0.1-0.4-0.1-0.6-0.2c-0.1,0-0.3-0.1-0.4-0.2c-0.4,0.2-0.8,0.5-1.1,0.8
				c-1,1-1.3,2.2-0.9,3.5c0.4,1.2,1.3,1.7,3.1,1.6c-0.4-0.3-0.6-0.5-0.9-0.6C176.8,131.1,176.7,129.5,178.6,128.1z"/>
			<path d="M332.2,173.1c-1,0.5-1.7,0.9-2.5,1.2c-1.2,0.4-2.1-0.2-2-1.3c0.2-3.1,1.7-5.8,3.8-8.1c-1.1,2.7-2.8,5.2-2.9,8.4
				c2.2-0.2,3.5-1,4.2-2.7c0.3-0.9,0.7-1.8,1.2-2.6c0.5-0.9,1.1-1.5,2.5-1.4c0.1,1.5-0.7,2.7-1.6,3.8c-1.2,1.4-1.4,2.8-0.7,4.8
				c3.1-1.3,4.4-4.8,7.6-5.8c-1.8,1.9-3.6,4-5.6,5.8c-1.9,1.7-2.9,1.3-3.5-1.2C332.5,173.7,332.4,173.5,332.2,173.1z"/>
			<path d="M113.1,142.3c-1.1,0.3-1.7,0.6-2.4,0.7c-0.7,0.1-1.4,0.3-2.1,0.2c-1.4-0.2-1.7-1.1-0.9-2.2c0.2-0.3,0.5-0.6,0.8-0.9
				c2.4-1.9,4.8-3.7,7.2-5.6c0.4-0.3,1-0.6,1.5-0.8c1.2-0.3,2.1,0.4,1.8,1.7c-0.2,0.8-0.6,1.5-0.9,2.3c-0.2-0.1-0.3-0.1-0.5-0.2
				c0.1-0.9,0.3-1.8,0.5-3.1c-4.3,1.3-6.9,4.1-9.8,7.2c3.9,1,6.4-1.5,9.4-2.5c-2.9,2.2-5.2,4.6-6.7,7.8c0.1,0.2,0.2,0.3,0.3,0.5
				c1.4-0.4,2.8-0.9,4.1-1.3c-1,1.2-2.2,2.2-3.2,2.3c-0.6,0.1-1.6,0-1.9-0.4c-0.3-0.4-0.3-1.4,0-1.9
				C111,145,111.9,143.9,113.1,142.3z"/>
			<path d="M378.4,130c-0.8-2.6-1.5-4.7-2.2-6.9c-1.1-0.2-2.3-0.5-3.6-0.6c-0.6-0.1-1.2-0.1-1.8,0.1c0.2,0.7,0.4,1.3,0.6,2
				c0.5-0.1,0.9-0.2,1.4-0.2c2.3-0.1,3.8,1.1,4.1,3.4c0.1,0.9-0.2,1.7-1,1.9c-1.1,0.4-2.3,0.8-3.4,0.9c0,0.3,0,0.6,0.1,0.9
				c0.5,0,1-0.1,1.6-0.2c3.3-0.7,6.3-0.3,8.8,2.2c0.3,0.3,0.7,0.5,1.1,0.7C382.6,131.7,380.4,130.6,378.4,130z"/>
			<path d="M178.9,158c-1.5,0.6-2.7,1.2-3.9,1.5c-0.7,0.2-1.8,0.1-2.1-0.3c-0.3-0.4-0.1-1.5,0.2-2.2c0.4-1,1-1.9,1.9-2.7
				c-0.5,1.3-1,2.6-1.6,4.2c4-0.2,6.7-2,8.7-5.4c0.9,1.9-0.7,2.4-1.1,3.4c-0.4,1.1-0.9,2.1-1.5,3.5c3.7,0.4,4.9-2.4,6.6-4.9
				c0.4,2.1-1,2.9-1.4,4.1c-0.5,1.2-0.6,2.4-0.3,3.9c1.8-0.4,2-2.3,3.3-3.1c-0.2,1.3-1.3,3.3-2.3,3.8c-0.5,0.2-1.3,0.3-1.7,0.1
				c-0.3-0.1-0.4-0.9-0.5-1.4c-0.1-0.5,0-1.1,0-1.9c-0.8,0.2-1.5,0.3-2.1,0.5c-1.9,0.5-2.3,0.2-2.2-1.7
				C178.9,159.1,178.9,158.8,178.9,158z"/>
			<path d="M126.7,147.1c1.8-1.3,3.6-2.5,5.5-3.8c0.1,0.1,0.2,0.2,0.3,0.4c-1.1,0.9-2.2,1.7-3.3,2.6c-1.1,0.9-2,1.9-3.4,3.1
				c4.5,1,7.9-1.7,11.9-1.9c-0.4,1.6-3.2,1.1-2.3,3.1c-1,0.5-2,0.7-2.7,1.3c-1,0.9-1.3,1.9-1.6,3.7c1.6,0.4,2.7-0.9,4.4-1.6
				c-1,1.6-2.1,2.5-3.5,2.8c-1.6,0.3-2.6-0.6-2-2.2c0.5-1.3,1.4-2.5,2.2-3.7c0.3-0.5,1-0.7,1.5-1.1c-0.1-0.1-0.2-0.3-0.4-0.4
				c-1.1,0.3-2.2,0.8-3.4,1c-1,0.2-2.1,0.3-3.1,0.3c-1.2,0-1.9-0.7-1.6-2.1C125.5,148.2,126.1,147.7,126.7,147.1z"/>
			<path d="M330.8,39c2.8-2.6,6.3-3.3,8.9-1.7c-0.1,0.3-0.1,0.6-0.4,0.8c-2.2,1.8-4.1,4-6.9,5c-1.5,0.5-1.8,1.9-2.7,3.6
				c-0.2-1.1-0.2-1.7-0.3-2.4c-1.3,0.3-2,1.2-2.8,2c-0.7,0.9-1.3,1.9-2,2.8c-0.2-0.1-0.3-0.1-0.5-0.2c0.2-0.6,0.4-1.2,0.6-1.8
				c0.3-0.9,0.6-1.9-0.3-2.7c-0.9-0.8-1.8-0.2-2.6,0.3c-0.2,0.2-0.5,0.3-1,0.5c1.7-2.8,3.2-2.9,5.3-0.7c2.3-1,4.5-1.9,6.8-2.9
				c2-0.9,3.9-2.1,5.2-4.2c-1.3-0.6-2.5-0.3-3.6,0C333.3,37.9,332,38.4,330.8,39L330.8,39z"/>
			<path d="M231.9,50c-0.2,1.5,0.5,3.2-1.3,4.8c0.1-1.2,0.2-1.8,0.2-2.5c0-1-0.2-2-1.2-2.4c-1.1-0.5-1.8,0.3-2.4,1
				c-1.3,1.5-2.3,3.1-2.6,5.1c-0.2,1.1-0.4,2.3-1.1,3.4c-0.1-0.5-0.2-1-0.4-1.5c-0.3-0.7-0.5-1.6-1-2.1c-0.6-0.6-1.7-1.3-2.4-1.2
				c-0.7,0.1-1.7,1.1-1.8,1.9c-0.3,1.4-0.1,2.8-0.1,4.3c0,0.9,0.2,1.8,0.3,2.7c-0.2,0-0.4,0.1-0.6,0.1c-0.3-1.9-0.7-3.9-0.8-5.8
				c-0.1-1.7,0.7-3.2,2.3-3.9c1.7-0.8,2.9,0.1,4,1.3c0.2,0.2,0.4,0.3,0.7,0.5c0.3-0.6,0.4-1.2,0.7-1.8c0.4-0.9,0.8-1.8,1.3-2.5
				C227.7,48.4,229,48.2,231.9,50L231.9,50z"/>
			<path d="M284.4,170c-0.1,0.1-0.5,0.4-0.7,0.6c0.4-2.1,0.8-4.3,1.2-6.9c0.1,1.1,0.1,1.9,0.3,2.7c0.3,1.2,0.5,2.5,1,3.7
				c0.3,0.6,1.2,1.2,1.8,1.2c0.5,0,1.4-0.7,1.5-1.2c0.5-1.7,0.7-3.4,1-5.1c0.1-0.5,0.1-1,0.1-1.6c1.1,0.1,1.1,0.8,1.1,1.4
				c0,1-0.3,2.1-0.2,3.1c0,1.8,1,2.8,2.3,2.7c1.4-0.1,2.2-1.3,2-3c-0.1-1.2-0.3-2.3-0.1-3.6c0.2,0.3,0.6,0.6,0.7,1
				c0.2,1.2,0.3,2.4,0.3,3.6c-0.1,2.9-2.3,4.1-4.8,2.6c-0.3-0.2-0.6-0.5-0.8-0.6c-1.2,0.7-2.3,1.8-3.3,1.7
				C286.8,172,285.8,170.9,284.4,170z"/>
			<path d="M364.9,3.9c0.2-0.6,0.3-1.2,0.6-1.8c0.9-1.6,1.5-1.7,3.4-1.1c1.5,0.5,1.8,0.9,1.5,2.7c-0.5,3.2-1,6.4-1.7,9.6
				c-0.3,1.4,0.3,3.1-1.6,4.2c0.1-0.9,0.3-1.6,0.2-2.3c-0.2-2.7,0.1-5.3,0.8-7.9c0.5-1.8,0.4-3.8-0.9-5.8
				C366.4,2.4,365.6,3.1,364.9,3.9L364.9,3.9z"/>
			<path d="M286.2,71.8c1.5-1.8,3.9-1.8,4.9-3.7c-1.9-2.3-4.4-2.2-9.7,0.3c0-0.1-0.1-0.2,0-0.2c1.9-2.5,7.7-3.3,10.1-1.5
				c0.8,0.6,0.9,1.3,0.2,2c-0.5,0.5-1.2,0.8-1.8,1.3c0.1,0.2,0.2,0.4,0.3,0.6c1.2,0.4,2.5,0.8,3.7,1.3c1.9,0.9,2.4,2.5,1.2,4.1
				c-0.3,0.4-0.6,0.9-1,1c-1.9,0.8-3.8,1.6-5.7,2.3c-0.4,0.1-1-0.2-1.5-0.4c0-0.2,0-0.3,0-0.5c0.4-0.1,0.9-0.2,1.3-0.2
				c2.1,0,4.1-0.5,5.6-2.2c1.4-1.5,1.1-2.8-0.8-3.5c-1.6-0.6-3.3-1.2-5.1-0.7C287.5,71.9,287,71.8,286.2,71.8z"/>
			<path d="M382.9,142.5c-0.7-0.9-1.5-1.9-2.2-2.8l0,0c-0.5-0.1-0.9-0.2-1.4-0.3c0.5,0.8,1.2,1.3,1.7,1.8c0.5,0.6,0.9,1.3,1.3,2
				c0.4,0.6,0.8,1.2,0.2,1.9c-0.7,0.8-1.6,1.5-2.5,1c-1.6-0.9-3.7-1.5-3.9-3.8c-0.1-0.1-0.2-0.1-0.3-0.1c-1.4,0.5-1.5,1.1-0.1,2.2
				c1,0.8,1.9,1.5,1.6,2.9c-0.3,1.3-0.8,2.4-1.9,3.2c-1.7,1.2-3.4,0.8-4.9-0.1c-0.8-0.5-1.6-1.1-2.4-1.7c-0.1,0.3-0.3,0.5-0.4,0.8
				c1.2,1.3,2.8,2.1,4.5,2.5c2.4,0.6,4.6-0.8,5.5-3.1c0.2-0.7,0.4-1.5,0.7-2.3c0.7,0.2,1.2,0.3,1.6,0.4c1.5,0.3,2.5-0.5,3.2-1.5
				C384,144.5,383.6,143.5,382.9,142.5z"/>
			<path d="M403.5,75.8c-2.3-0.3-3.9,0.6-5.3,1.7c-1.3,1.1-2.3,2.4-3.5,3.6c-0.6,0.6-1,1.4-2.4,1.3c2.5-3.7,6.9-5.9,7.4-10.8
				c-2-0.6-3.3,0.8-4.9,1c1.1-1.2,2.6-1.7,4.1-2c1.3-0.3,1.8,0.4,1.6,1.6c-0.2,0.8-0.5,1.6-0.9,2.8c1.1-0.2,2-0.5,2.9-0.5
				c0.7,0,1.4,0.4,2.1,0.6c-0.2,0.7-0.2,1.5-0.6,1.9c-1.1,1.2-2.4,2.3-4,3.8c0.2-1.5,1.1-2,1.6-2.8
				C402.3,77.5,402.8,76.7,403.5,75.8z"/>
			<path d="M209.8,163.7c-2.8,2.9-3,2.6-4.6,0.5c-0.4,0.3-0.9,0.7-1.4,0.9c-1.7,0.9-3.4-0.1-3.4-1.9c0-1.5,0.5-2.9,1.1-4.2
				c0.2,0,0.3,0.1,0.5,0.1c-0.2,1.1-0.4,2.1-0.6,3.2c-0.1,0.8-0.2,1.8,0.7,2c0.6,0.1,1.6-0.3,2.1-0.8c0.7-0.9,1.2-2,2-3.6
				c0.3,1.8,0.5,3.1,0.7,4.6c2.3-0.7,2-3.1,3.5-4.5c0.3,1.4,0.6,2.6,0.9,3.9c2-1,1.9-2.9,2.7-4.3c0.4,1.8-0.2,3.3-1.2,4.7
				c-0.6,0.8-1.4,1.1-2.2,0.2C210.3,164.4,210,164,209.8,163.7z"/>
			<path d="M165.7,51.5c0.7-0.9,1.3-2,2.2-2.7c2.5-1.9,4-1.5,5.5,1.2c0.5-0.1,1-0.3,1.6-0.4c2.4-0.5,3.9,0.8,3.1,3.2
				c-0.7,2.1-1.9,4-3.1,5.9c-0.7,1-1.8,1.7-2.9,2.5c-0.4,0.3-1,0.2-1.9,0.3c1.5-1.1,2.8-1.8,3.7-2.8c1-1.1,1.8-2.4,2.7-3.7
				c1.1-1.7,1.2-3.4,0.2-4.2c-0.9-0.6-2.6-0.3-3.9,0.9c-0.7,0.6-1.2,1.3-1.7,2c-0.4,0.5-0.9,1-1.5,1.7c-0.5-1.4,0.4-1.9,0.8-2.6
				c0.5-0.8,1.2-1.6,1.4-2.4c0.4-1.3-0.4-2-1.7-1.6c-0.7,0.2-1.4,0.7-2.1,1.1C167.2,50.3,166.4,50.8,165.7,51.5L165.7,51.5z"/>
			<path d="M359.9,82.9L359.9,82.9c1.1-0.4,2.2-1,3.3-1.2c1.8-0.4,2.7-0.1,4.7,1c2.2-1.2,4.5-2.3,7.2-3.7c0.6,0,1.8-0.1,3,0
				c0.7,0,1.6,0.1,1.9,0.5c0.6,0.8-0.1,1.5-0.7,2c-0.2,0.2-0.5,0.3-1.2,0.6c0.6-1,0.9-1.6,1.5-2.6c-1.5,0.1-2.8,0-3.8,0.4
				c-2.1,0.7-4.2,1.6-6.1,2.6c-0.8,0.4-1.3,1.3-1.9,2c-0.1,0.1-0.1,0.4-0.2,0.4c-2.5,1.2-3.7,3.9-5.8,5.5c-0.3,0.2-0.8,0.3-1.3,0.5
				c1.3-1.4,2.5-2.7,3.6-4c0.7-0.8,1.5-1.7,2-2.6c0.8-1.3,0.3-2.2-1.2-2.3c-1.1,0-2.2,0.4-3.3,0.6C361,83,360.4,82.9,359.9,82.9z"/>
			<path d="M371.6,48c-1.8,1.2-3.5,2.3-5.6,3.6c0.9,0.4,1.6,0.6,2.1,1c1.4,1.1,2.8,2.1,3.9,3.4c0.9,1,0.5,1.9-0.8,2.3
				c-0.6,0.2-1.3,0.3-1.9,0.2c-0.9-0.1-1.9-0.3-2.8-0.6c-1-0.3-1.9-0.6-2.8-1.1c2.5-0.4,4.9,1.5,7.4,0.2c-1-3.1-4.8-4.9-7.9-3.7
				c-1,0.4-1.8,0.8-2.3-0.5c1-0.7,1.9-1.3,2.9-2l0,0c1.8-0.7,3.5-1.4,5.3-2C370,48.6,370.8,48.4,371.6,48L371.6,48z"/>
			<path d="M379.2,162.7c-0.4-2.2-0.8-4.3-1.2-6.5c0.2-0.1,0.3-0.1,0.5-0.2c0.4,1,0.6,2,1.1,3c0.6,1.3,1.3,2.6,2.2,3.6
				c1.1,1.3,2.5,1.4,3.7,0.8c1.2-0.6,1.8-1.8,1.4-3.5c-1-3.9-1.3-5.9-5-8.5c0.5,0,1-0.1,1.3,0.2c3.2,2.3,4.6,5.6,4.6,9.5
				c0,1.5-0.7,2.8-2.2,3.4c-1.5,0.6-2.8,0.2-4-0.8c-0.5-0.4-0.9-0.9-1.4-1.3C379.9,162.4,379.5,162.6,379.2,162.7L379.2,162.7z"/>
			<path d="M290.4,99.4c0.6,0.4,1.4,0.6,2.1,0.9c0,0,0,0,0,0c0.1-0.1,0.2-0.2,0.3-0.3c0.3-0.4,0.8-1,1.4-1.6c-1,0.3-1.9,0.1-2.7-0.7
				c-0.5-0.5-1.1-0.8-1.6-0.1C289.2,98.4,289.7,99,290.4,99.4z"/>
			<path d="M294.4,90.1c1.4,0.3,2.9,0.5,4.1,1.1c0.3,0.2,0.6,0.4,0.8,0.5c0.1-0.2,0.3-0.4,0.4-0.5c-0.7-0.4-1.4-0.8-2.1-1.2
				c-0.4-0.3-0.6-0.7-0.9-1.1c-1.3,0.1-2.7,0.1-3.9,1C293.3,90.1,293.9,90,294.4,90.1z"/>
			<path d="M163.3,75c-0.5,2.1-0.2,4.5-1.8,6.4c0-0.5,0.1-1.1,0.1-1.6c0-0.9,0.1-1.9-0.1-2.8c-0.4-1.7-1.7-2-2.8-0.7
				c-1.5,1.7-2.5,3.7-2.4,6.1c0,0.7-0.1,1.5-0.4,2.3c-0.9-1.7-0.9-3.8-3.2-4.6c-0.3,0.5-0.6,1.1-1,1.8c-0.6-1.2-0.4-2.2,0.6-3.2
				c1,0.6,1.9,1.2,3.1,1.9c0.5-1,0.9-2,1.4-2.8c0.5-0.8,1-1.7,1.6-2.3c1-1,2.1-1.3,3.4-0.3C162.1,75.3,162.8,75,163.3,75L163.3,75z"
				/>
			<path d="M147.7,67.1c-2.4-0.2-4.9-0.4-7.2-1.6c-1-0.5-1.1-2.1-0.3-3.2c0.6-0.8,1.3-1.7,2.2-2.1c1.5-0.7,2-1.7,2-3.1
				c0-0.2,0.2-0.4,0.5-1c0.2,0.9,0.2,1.4,0.4,2.1c0.8,0,1.7-0.1,2.5,0c0.8,0.1,1.6,0.4,2.4,1c-1.6,0.3-3.2,0.6-4.8,0.9
				c-2.5,0.3-4.1,1.9-5.2,4c1.1,1.4,2.5,1.3,3.8,1.6c1.2,0.3,2.5,0.5,3.7,0.7C147.8,66.6,147.8,66.8,147.7,67.1z"/>
			<path d="M184.5,44.3c1.4-1,2.5-1.7,3.6-2.5c0,0.1,0.1,0.2,0.1,0.2c-1.5,1.7-3,3.5-4.4,5.1c-0.7-1.5-1.5-3.2-2.5-5.2
				c0.8,0.5,1.2,0.8,1.6,1.1c0.1-0.1,0.2-0.2,0.2-0.3c-0.4-1.4-1.4-2.3-2.9-2.5c-2.1,2.5-1.3,5.4-1.3,8.3c-0.2-0.3-0.6-0.6-0.6-1
				c0-1.9-0.1-3.8,0.1-5.7c0.2-1.5,1.3-2.4,2.3-2.4c1.1,0,2.4,0.9,2.9,2.1C184,42.4,184.2,43.2,184.5,44.3z"/>
			<path d="M157.9,92.2c0.3-1.1,0.6-2.2,0.9-3.2c-1,0.6-1.4,1.7-1,3.1C157.8,92.1,157.8,92.1,157.9,92.2z"/>
			<path d="M376.8,90.3c-0.3,0.4-0.5,0.8-0.9,1.3c0.5,0.3,1,0.5,1.5,0.7c0.6,0.3,1.3,0.6,1.9,1c1,0.8,2.1,1.7,1.8,3.2
				c-0.3,1.4-1.7,1.6-2.9,1.8c-2,0.3-3.9,0.5-5.9,0.7c-0.7,0.1-1.4,0-2.1-0.4c2.1-0.3,4.2-0.6,6.3-0.9c0.9-0.1,1.7-0.3,2.5-0.7
				c1.4-0.6,1.6-1.4,0.5-2.5c-1.4-1.4-3.3-1.9-5.2-2c-0.5,0-1.1,0-1.6-0.2C373.8,91.4,375.2,90.5,376.8,90.3L376.8,90.3z"/>
			<path d="M94.7,105.4c-0.3,0.5-0.6,1.1-0.9,1.7c4.1,1.9,5.9-2.1,9-3.7c-1,3.6-4.9,4.1-6,7.3c0.8-0.2,1.3-0.3,1.9-0.5
				c0,0.2,0.1,0.4,0,0.5c-0.8,0.8-1.7,1.6-2.9,1c-0.3-0.2,0-1.2,0-1.9c0-0.2,0.1-0.4,0.3-0.8c-0.7-0.1-1.3-0.1-1.9-0.2
				c-1.7-0.3-2-1.1-0.9-2.5c0.3-0.4,0.7-0.7,1-1C94.5,105.3,94.6,105.4,94.7,105.4z"/>
			<path d="M126.7,147.1c-0.6,0.5-1.1,1.1-1.7,1.6c-1.5,1.3-3,2.6-4.6,3.8c-0.9,0.7-2.1,1.1-3.2,1.3c-1.3,0.2-2.5-0.9-2.1-2.2
				c0.8-2.7,2.1-5.1,5-6.2l0,0c-0.9,1.3-1.9,2.5-2.8,3.8c-0.3,0.5-0.6,0.9-0.8,1.5c-0.5,1.3,0.2,2.2,1.5,1.6c1.8-0.8,3.5-2,5.2-3.2
				c0.8-0.6,1.4-1.5,2.1-2.2C125.8,146.6,126.3,146.4,126.7,147.1z"/>
			<path d="M277.7,159c-1.1-0.3-2.2-0.6-3.3-0.9c-0.4,0.3-0.9,0.6-1.3,0.8c-1.2,0.5-1.9-0.2-1.6-1.5c0-0.1,0-0.1,0.1-0.2
				c-0.3-0.1-0.6-0.2-0.9-0.3c-0.1,0.2-0.1,0.3-0.2,0.5c-0.5,1.8,0.8,3,2.6,2.5c1-0.3,2-0.8,3-1.3c2.5,3.5,2.6,3.5,4.8,2.4
				C278.7,160.8,278.1,160.3,277.7,159z"/>
			<path d="M236.2,42.8c1.3-2.5,3.6-3.2,6.2-3.4c1.2-0.1,2.1,0.5,2.4,1.6c0.3,1.1,0.5,2.2,0.5,3.3c0,2.9-1.9,6.7-3.9,8.2
				c-0.6-0.9,0.2-1.4,0.5-2.1c0.8-1.7,1.7-3.4,2.2-5.2c0.5-1.5,0.5-3.4-0.9-4.4c-1.4-1-2.9-0.2-4.3,0.5
				C237.9,41.7,237.1,42.2,236.2,42.8L236.2,42.8z"/>
			<path d="M369.6,50.6c4.5,2.5,9,3.2,14,1.2c-1.1-2.3-3.8-2.3-5.2-3.9c2.1,0.5,4,1.4,5.6,2.7c0.8,0.6,0.7,1.4-0.2,2
				c-0.4,0.3-0.8,0.5-1.3,0.6c-4.3,1.2-8.4,0.7-12.3-1.2c-0.4-0.2-0.7-0.6-1-0.9C369.4,50.9,369.5,50.8,369.6,50.6z"/>
			<path d="M371.6,48.1c0.5-1.3,1.7-1.6,2.8-2.1c1.5-0.8,3.2-1.2,3.9-3c1-2.8,2.3-5.5,1.7-8.5c-0.3-1.7-0.6-1.9-2.4-2.3
				c1.9-0.6,2.6-0.2,3,1.6c0.5,2.2,0.2,4.3-0.5,6.4c-0.2,0.7-0.6,1.3-0.7,2c-0.1,0.5,0.1,1.1,0.1,1.8c-0.9,0.6-2,1.3-3.1,2
				c0.2,0.4,0.3,0.8,0.5,1.1C375.1,47.4,373.3,47.7,371.6,48.1L371.6,48.1z"/>
			<path d="M361.5,19.2c-1,0-1.9-0.1-2.9,0.1c-1.7,0.4-2.2,1.5-1.1,2.8c1.7,2,3.3,4.1,6.3,4.3c0.8,0,1.6,0.4,2.4,0.6l0,0
				c-1.8,1.9-3.6,3.7-5.5,5.7c0.3-1.8,1.6-3,2.5-4.5c-1.4-1-2.8-1.9-4.1-3.1c-1-1-1.9-2.1-2.6-3.4c-0.7-1.2-0.2-2.2,1.1-2.6
				C358.9,18.6,360.3,18,361.5,19.2L361.5,19.2z"/>
			<path d="M412.4,97.5c-0.6,1-1.2,2-1.9,3.1c1.3,0.2,2.6,0.2,3.8,0.5c2.3,0.5,2.8,1.8,1.4,3.6c-1.2,1.6-2.8,3.1-4.2,4.5
				c-0.2,0.2-0.7,0-1.6,0c1.5-1.2,2.6-2,3.4-3c0.9-1,1.6-2.1,2.5-3.4c-2.6-1.9-5.2-0.7-7.7-0.9C408.6,100.7,410.9,98.4,412.4,97.5
				L412.4,97.5z"/>
			<path d="M376.2,77.7c0.4-0.6,0.9-1.2,1.3-1.8c1.6-2.4,0.7-5.9-1.8-7c-1.3-0.6-2.1-0.4-2.2,1c-0.2,2-0.1,3.9-0.1,5.9
				c0,0.6,0.3,1.2,0.5,2.1c-1.1-0.5-1.3-1.3-1.3-2c-0.1-2-0.2-4,0-6c0.1-0.8,0.7-2.1,1.3-2.3c0.8-0.2,2.1,0.3,2.8,0.8
				C380,70.9,379.9,75.3,376.2,77.7z"/>
			<path d="M266.5,42.2c0.4-1.6,2.1-2.8,1.5-4.7c-2.3-0.5-3.4,1.3-4.5,2.9c-1-1.2-0.2-2-0.1-2.7c0.8-0.3,1.5-0.5,2.1-0.8
				c2.4-1.2,3.5-0.5,3.7,2.3c0.7,0,1.5,0,2.2,0c-0.3,2.1-0.6,2.2-2.2,2.2C268.5,41.3,267.6,41.8,266.5,42.2z"/>
			<path d="M405.1,130.6c1.4-2.7,4.9-3.7,7.2-2.1c0.9,0.6,1.2,1.5,0.6,2.5c0,0.1-0.1,0.1-0.1,0.2c-0.9,1.4-6.8,5.7-8.8,6.3
				c0.4-0.5,0.5-1,0.8-1.2c1.6-1.2,3.3-2.3,4.9-3.4c0.6-0.5,1.4-0.9,1.9-1.5c0.4-0.4,0.7-1.2,0.5-1.6c-0.2-0.4-0.9-0.9-1.5-0.9
				C408.6,128.6,406.8,129.2,405.1,130.6z"/>
			<path d="M128.3,106.2c-1.9-4.5-5.6-7-9.8-8.9c-1-0.5-2.3-0.7-3.5-0.5c-1.7,0.2-2,1.3-1,2.7c0.2,0.3,0.4,0.6,0.7,0.9
				c-0.1,0.1-0.2,0.2-0.4,0.3c-0.6-0.7-1.3-1.3-1.7-2c-0.2-0.4,0-1.4,0.3-1.7c0.7-0.5,1.6-0.9,2.4-0.8c1.7,0.2,3.5,0.6,5,1.3
				c3,1.3,5.4,3.4,7.3,6c0.6,0.8,0.8,1.8,1.2,2.7C128.7,106.1,128.5,106.2,128.3,106.2z"/>
			<path d="M412.6,123.9c-1.7,2.5-5.7,3.8-8.4,2.3c2.8-0.2,5.2-0.2,7.1-2.1c-2.2-2.7-4.9-2.9-8.7-0.6c0.1-0.6,0.1-1.1,0.4-1.3
				c1.4-1,2.9-1.5,4.7-1.2C409.5,121.3,411.3,122.3,412.6,123.9z"/>
			<path d="M377.3,104.2c0.5,0.3,1.1,0.6,2,1.2c-1.6,0.9-2.7,1.5-4,2.3c1.5,0.4,2.6,0.7,3.8,1.1c-0.9,2.2-3.6,3.6-6.5,3.6
				c1.8-0.9,3.4-1.8,5-2.6c0-0.2-0.1-0.3-0.1-0.5c-1.6-0.3-3.1-0.6-4.7-0.8c0-0.1,0-0.3,0-0.4c1.2-0.6,2.5-1.3,3.7-1.9
				C377.4,105.7,377.9,105.1,377.3,104.2L377.3,104.2z"/>
			<path d="M106.9,150.6c-1.4,1-2.6,0.8-3.8,0.8c-1.3,0-2.5-0.2-3.8-0.4c-1-0.2-1.6-1-1.4-2.1c0.6-2.9,5-5,7.9-3.6
				c-0.2,0.1-0.4,0.4-0.5,0.3c-2.4-0.8-4,0.5-5.5,2c-0.4,0.4-0.8,1.3-0.7,1.8c0.1,0.4,0.9,0.8,1.5,0.9c1.5,0.2,3,0.1,4.5,0.2
				C105.6,150.4,106.1,150.5,106.9,150.6z"/>
			<path d="M302.5,167.6c0.6,0.7,1.2,1.3,2.1,2.4c0.4-1.3,0.6-2.2,1-3.4c0.4,0.5,0.7,0.9,1,1.3c1.7,2.4,3.3,2.3,4.6-0.2
				c0.1-0.3,0.3-0.5,0.7-1c0.5,1.6-0.1,2.6-1.1,3.4c-1.2,0.9-2.2,0.8-4.7-0.4c-0.4,0.5-0.9,1-1.4,1.6
				C303.1,170.4,302.5,169.2,302.5,167.6z"/>
			<path d="M321.3,71.1c0.2,0.2,0.4,0.4,0.6,0.6c-0.4,0.7-0.9,1.4-1.3,2.1c-0.6,0.9-1.4,1.8-1.8,2.8c-0.1,0.1-0.1,0.3-0.1,0.4
				c0.4-0.1,0.9-0.2,1.3-0.3c0.5-2.5,3.5-3.6,3.2-6.7c-3.2,0.4-5,2.4-6.8,4.3c0.1,0.1,0.2,0.3,0.3,0.4
				C318.2,73.5,319.7,72.3,321.3,71.1z"/>
			<path d="M206.4,131.3c0.4,0.1,0.7,0.2,1.1,0.4c0.1-0.5,0.2-1,0.3-1.5c-0.7,0.1-1.4,0.2-2.1,0.2c-0.6,1.6,0.1,3,2.3,3.9
				c-0.8-1.1-1.3-1.9-1.9-2.7C206.1,131.4,206.2,131.3,206.4,131.3z"/>
			<path d="M379.1,162.7c-0.1,1.2,0,2.4-0.4,3.5c-0.8,2-2.9,2.1-4.1,0.3c-0.7-1.1-1.3-2.4-1.7-3.7c-0.4-1.6-0.5-3.4-0.3-5.1
				c0.4,1.5,0.7,3,1.2,4.5c0.4,1.3,0.9,2.5,1.6,3.7c0.6,1.1,1.6,1.1,2.3,0.1C378.3,164.9,378.7,163.8,379.1,162.7L379.1,162.7z"/>
			<path d="M87.8,124.3c0.8,0.3,1.2,0.4,1.9,0.7c-1.2,0.7-2.2,1.2-3.4,1.9c-0.5-2,0.7-3.1,1.5-4.1c1.5-1.8,2.2-4.5,5.2-5.1
				c0.1,0.6,0.1,1.1,0.2,1.5C90.1,119.5,89.6,122.4,87.8,124.3z"/>
			<path d="M395.7,67.1c-0.1-1.1-0.1-1.7-0.2-2.8c-4.2,1.7-5.9,5.6-8.8,8.5c0.2-0.5,0.3-1.1,0.6-1.5c1.4-1.9,2.9-3.8,4.4-5.7
				c0.5-0.6,1.2-1.1,1.9-1.5c0.7-0.4,1.6-1,2.4-0.2C396.9,64.8,396.7,65.8,395.7,67.1z"/>
			<path d="M316,45.4c0.1,0.8,0.3,1.5,0.7,2.1c0.2-1,0.2-2,0.3-3C316.7,44.7,316.4,45.1,316,45.4z"/>
			<path d="M320,39.6c-0.1,0.3-0.3,0.7-0.4,1v5.4l0.5,0c0.2-1.2,0.5-2.3,0.6-3.5c0.1-0.6,0.1-1.3,0-1.9
				C320.6,40,320.3,39.7,320,39.6z"/>
			<path d="M267.4,46.1c2.9-3,6.5-4.5,10.6-5c0.7-0.1,1.7,0.2,2.1,0.7c0.3,0.5,0.1,1.5-0.3,2.1c-0.4,0.8-1.2,1.5-1.8,2.2l0,0
				c0.4-1.3,0.9-2.5,1.4-4.1c-1.2,0-2.1-0.3-2.9,0c-2,0.7-4,1.6-5.9,2.5C269.5,45,268.5,45.6,267.4,46.1L267.4,46.1z"/>
			<path d="M385.5,123.4c0.6-0.8,1-1.8,1.8-2.4c2.1-1.8,4.3-3.5,6.6-5.1c0.9-0.6,2-0.8,3.1-1.2c0.4,2,0.4,2-1.7,4.1
				c0.4-1.2,0.7-1.9,1-2.8c-1.5,0-2.5,0.6-3.4,1.3C390.4,119.3,387.9,121.4,385.5,123.4L385.5,123.4z"/>
			<path d="M296.7,88.9c0.3-0.4,0.5-0.8,0.8-1.2c1.3-1.8,1.1-2.8-1.1-3.5c-1.1-0.4-2.3-0.5-3.5-0.6c-1.5-0.1-3,0-4.5,0
				c0.1-0.2,0.1-0.5,0.1-0.5c3.2-1,6.4-0.4,9.3,0.9c2,0.9,2.1,2.9,0.3,4.2C297.7,88.5,297.2,88.6,296.7,88.9L296.7,88.9z"/>
			<path d="M378.9,119.9c-0.4-0.7-1-1.6-1.7-1.9c-2.3-0.9-4.6-1.6-7-2.2c-0.8-0.2-1.6-0.1-2.3,0.2c0.1,0.2,0.2,0.4,0.3,0.6
				c2.8-0.5,5.3,0.3,7.8,1.6c1.5,0.8,2.8,1.8,2.1,4.3C379.3,120.9,379.4,120.8,378.9,119.9z"/>
			<path d="M190.4,47.1c-0.6-1.5,0.3-2.5,0.9-3.4c0.7-0.9,0.5-1.6-0.3-2c1.3-0.1,2.8-0.2,4.2-0.4c1.5-0.1,2.6,0.5,3.3,1.9
				c-1.2-0.4-2.3-0.8-3.4-1c-0.8-0.1-1.7,0.1-2.2,1.1c-0.2,0.5-0.9,0.7-1.3,1.2c-0.2,0.3-0.4,0.8-0.3,1.2
				C191.7,46.6,191.8,46.6,190.4,47.1z"/>
			<path d="M249.8,18c-0.2-0.4-0.3-0.9-0.5-1.3c0-0.1-0.1-0.2-0.1-0.3c-1.3-2.2-3.6-2.2-5.1-0.1c0.3,0,0.5-0.1,0.7-0.1
				c2.2-0.8,3.6-0.2,4.2,2c0.3,1,0.3,2,0.3,3.1c0,1.2-0.2,2.3-0.3,3.5c0.2,0,0.3,0,0.5,0c0.2-1,0.4-2,0.6-3c0.1-0.7,0.2-1.4,0.1-2.1
				C250.1,19,250,18.5,249.8,18z"/>
			<path d="M174.3,68.7c0.1-1.2,0.2-2.4,0.2-3.6c0-0.7-0.1-2-0.5-2.1c-0.7-0.2-1.8,0-2.3,0.4c-1.6,1.2-3.1,2.7-4.7,4.2
				c0.1-0.4,0.2-0.8,0.4-1.1c1.5-1.4,2.8-3,4.5-4.2c2-1.4,3.6-0.5,3.5,2C175.2,65.8,174.6,67.2,174.3,68.7L174.3,68.7z"/>
			<path d="M272.2,52.9c0.4,1.2,0.6,2.2,0.9,3.2c-0.2,0.1-0.3,0.1-0.5,0.2c-0.3-0.6-0.6-1.1-1.1-2c-2.1,2.4-2.6,5.1-3.1,7.7
				C267.3,60,269.1,54.9,272.2,52.9z"/>
			<path d="M376.8,90.3c0.8-0.6,1.7-1.2,2.4-1.9c1-0.9,0.8-1.9-0.5-2.3c-1.3-0.3-2.7-0.3-4-0.4c-0.4,0-0.9,0-1.5,0
				c0.5-1.1,1-1.5,2-1.3c1.1,0.2,2.1,0.5,3.2,0.7c1.1,0.2,2,0.6,2.2,1.8c0.2,1.2-0.4,2-1.4,2.5C378.5,89.8,377.6,90,376.8,90.3
				L376.8,90.3z"/>
			<path d="M412.4,97.5c0.3-0.7,0.6-1.4,1-2.3c-3-1-5.1,1.3-7.6,1.8c1.9-1.6,4-3.1,6.6-2.9c0.7,0,1.8,0.5,1.9,1
				c0.2,0.5-0.5,1.4-0.9,2C413.2,97.3,412.7,97.3,412.4,97.5L412.4,97.5z"/>
			<path d="M373.1,168.4c-0.1,0.4-0.1,0.7-0.2,1.1c-0.4,1-0.9,1.9-2.2,1.9c-1.1,0-1.7-0.8-2.1-1.7c-1-2.2-1.7-4.5-1.1-7.4
				c0.2,0.8,0.4,1.1,0.4,1.5c0.4,1.7,0.7,3.4,1.2,5.1c0.2,0.6,1,1.5,1.6,1.5c0.5,0,1.2-0.9,1.7-1.4c0.2-0.2,0.3-0.5,0.5-0.7
				C372.9,168.4,373,168.4,373.1,168.4z"/>
			<path d="M250.1,162.9c1.4,0.6,2.5,0.8,3.9,0.4c1.2-0.4,3-0.2,3.7,1.7c-1.7,0-3.3,0-4.9,0C251.5,165,251,164.6,250.1,162.9z"/>
			<path d="M235.2,171c0.3,0.1,0.6,0.2,0.9,0.2c2.6,0.6,3.8-0.2,3.9-2.9c0.1-1.8,0-3.7,0-5.5l0,0c1.2,2.1,1.2,4.4,0.8,6.8
				c-0.2,1.4-1.1,2.2-2.5,2.5C237,172.4,235.9,172.2,235.2,171L235.2,171z"/>
			<path d="M114.3,35.1c0.2-0.8,0.5-1.8,1.4-1.6c0.6,0.1,1.3,0.9,1.6,1.5c1,2.2,0.6,4.4-0.4,6.9c-0.8-1.3-0.2-2.2-0.2-3.1
				c0-0.8,0.2-1.6,0.1-2.4C116.6,34.7,116,34.5,114.3,35.1L114.3,35.1z"/>
			<path d="M278.1,164.6c-0.4,2.3,0.5,4.3,1,6.4c0.5,2.3,1.1,2.5,3.5,1.4c-0.5,1.1-1.1,1.7-2.1,1.8c-1.1,0-1.6-0.8-1.8-1.6
				c-0.5-2.6-0.9-5.2-1.4-7.8C277.5,164.7,277.8,164.7,278.1,164.6z"/>
			<path d="M376.3,43.2c-3.6-0.7-4.5-2.4-3.1-5.5c0.3-0.6,0.6-1.1,0.9-1.7c0.3-0.5,0.8-0.9,1.5-1.2c-0.5,0.9-0.9,1.7-1.4,2.6
				c-1.3,2.6-1.1,3.4,1.3,5.2C375.8,42.8,376.1,43,376.3,43.2z"/>
			<path d="M376.6,13.7c-2.4,2.4-4.9,4.7-8.6,5c0.3-0.3,0.6-0.9,1-1c2.8-0.5,4.9-2.2,7-3.8C376.1,13.7,376.4,13.7,376.6,13.7z"/>
			<path d="M84.7,166.7c1-0.2,1.7-0.5,2.6-0.7c-0.1,0.3-0.2,0.5-0.3,0.7c-0.8,0.7-1.7,1.6-2.9,0.7c-0.8-0.6-0.8-1.7,0.3-3.2
				c0.8-1.2,1.8-2.3,2.9-3.3C86.8,163,84.5,164.1,84.7,166.7z"/>
			<path d="M302,74.4c0.5-1.2,0.8-2.4,1.4-3.5c0.7-1.1,2-1.3,2.9-0.8c1.1,0.7,1.3,1.9,0.5,3.6c-0.1-0.4-0.3-0.7-0.3-0.9
				c-0.1-0.8-0.1-1.6-1-1.6c-0.6,0-1.3,0.5-1.8,0.9C303,72.8,302.5,73.6,302,74.4L302,74.4z"/>
			<path d="M364.8,3.9c-0.3,1.5-0.7,2.9-1,4.4c-0.5,2-0.1,3.8,1.4,5.3c0.2,0.2,0.3,0.5,0.7,1.2c-1.9-0.6-2.6-1.9-2.8-3.2
				C362.6,8.8,363.1,6.2,364.8,3.9L364.8,3.9z"/>
			<path d="M377.6,12.8c0.1-0.8,0.2-1.5,0.3-2.2c-2.4-1.2-3.9,0.9-5.7,1.4c1.1-1.4,2.6-2.2,4.3-2.7c0.9-0.2,1.8,0,2.3,0.9
				C379.2,11,379,11.6,377.6,12.8z"/>
			<path d="M366.8,32.7c-1.6,1.8-3.9,2.2-6.1,2.7c-0.4,0.1-1-0.6-1.5-0.9l0,0c1-0.2,2.1-0.5,3.1-0.7
				C363.7,33.5,365.3,33.1,366.8,32.7L366.8,32.7z"/>
			<path d="M394.3,69.8c-1.2,2.2-1.7,4.9-4.2,6.6C390.3,75.1,392.4,71.6,394.3,69.8z"/>
			<path d="M159.4,148.4c1.4-3.9,3.9-6.4,7-6.5c-0.6,0.4-0.9,0.7-1.3,0.8c-1.6,0.8-2.9,1.9-3.9,3.4C160.7,147,160,147.7,159.4,148.4
				L159.4,148.4z"/>
			<path d="M351.9,54.7c-0.6,1.4-0.9,3-1.7,4.2c-0.8,1.2,0.5,2.8-1,3.7C348.3,60.4,349.5,57.1,351.9,54.7L351.9,54.7z"/>
			<path d="M198.4,68.3c0.4,0,0.8,0,1.2,0.1c2.1-0.5,3.8-2,5.6-3.2c-2.3,0.9-4.7,1.8-7,2.7C198.2,68,198.3,68.1,198.4,68.3
				C198.4,68.3,198.4,68.3,198.4,68.3z"/>
			<path d="M133,162.9c0.1,1.2,0.1,2,0.1,3.1c1-0.2,1.9-0.4,2.9-0.6c-0.1,1.2-1,1.6-1.9,1.6c-0.6,0-1.6-0.2-1.8-0.7
				C131.8,165.3,131.9,164.2,133,162.9z"/>
			<path d="M109.1,60.3c-2.4-3.1-2.4-3.1-6.4-2.9C105.7,55.5,108.8,56.8,109.1,60.3z"/>
			<path d="M178.4,152c0.7-0.9,1.5-1.8,2.5-3.1c-1,0.2-1.6,0.3-2.2,0.4c0-0.1-0.1-0.3,0-0.4c0.1-0.2,0.3-0.3,0.5-0.5
				c0.8-0.5,1.7-1,2.3-0.2c0.7,0.9-0.3,1.4-0.8,1.9c-0.6,0.7-1.3,1.4-1.9,2C178.7,152.2,178.6,152.1,178.4,152z"/>
			<path d="M286.3,47.6L286.3,47.6c0.2-2,0.4-2.2,2-1.4c0.9,0.4,1.7,0.9,2.5,1.4c0.8,0.5,1.3,1.1,0.9,2.2
				C289.9,47.3,289.2,47,286.3,47.6z"/>
			<path d="M155.1,91.3c-2.2-0.7-3.3-2.9-3-6.2C153.4,87.1,153,89.8,155.1,91.3z"/>
			<path d="M359.1,34.6c-0.4,1.2-0.7,2.3-1.1,3.5c-0.2,0-0.4,0-0.6-0.1c0.5-2.6,1.8-5.3-0.6-7.7C358.8,31.2,358.7,33,359.1,34.6
				L359.1,34.6z"/>
			<path d="M198.1,45.7c-0.3,3-1.3,5.9-2.4,8.6c-0.2-0.1-0.4-0.1-0.6-0.2C196.1,51.3,197.1,48.5,198.1,45.7z"/>
			<path d="M266.2,156.8c0,1,0,2.1,0,3.3c0.8-0.1,1.4-0.2,2-0.3c0,0.2,0,0.4,0,0.4c-0.4,0.3-0.7,0.6-1.2,0.8
				c-1.1,0.4-1.9-0.1-1.8-1.4c0.1-1,0.4-1.9,0.7-2.9C265.9,156.8,266,156.8,266.2,156.8z"/>
			<path d="M318.8,57.1c-0.2,0.6-0.4,1.2-0.6,1.8c-0.4,1.2-0.8,2.5-1.2,3.9c-1,0-1.1-0.8-0.8-1.5C316.9,59.8,317.9,58.5,318.8,57.1
				L318.8,57.1z"/>
			<path d="M236.2,42.7c-1.4,2.4-2.9,4.8-4.3,7.2l0,0C232.4,47,233.7,44.5,236.2,42.7L236.2,42.7z"/>
			<path d="M306.8,75c0.1,2.6-0.7,4.2-2.3,5.4c-0.2-0.1-0.3-0.2-0.5-0.3C304.8,78.6,305.7,77,306.8,75z"/>
			<path d="M240.1,162.8c-0.9-2.2-1.9-4.5-2.8-6.7c1.2,0.3,1.3,0.3,2,2.8C239.6,160.2,239.8,161.5,240.1,162.8L240.1,162.8z"/>
			<path d="M301.9,74.4c-0.1,1.1-0.2,2.2-0.3,3.3c0,1,0,2,0,3.1C300.2,78.9,300.3,77.7,301.9,74.4L301.9,74.4z"/>
			<path d="M408.6,84.1c-0.6,1.3-1.2,2.6-1.8,3.9c0,0.1-0.4,0-0.6-0.1C406.3,86.2,406.7,85.5,408.6,84.1z"/>
			<path d="M174,71.3c0.1-0.9,0.2-1.7,0.2-2.6c-0.6,1-1,2.1-1.3,3.1C173.3,71.6,173.7,71.5,174,71.3z"/>
			<path d="M370.2,25.5c0.8-0.1,1.6-0.5,2.3-0.3c0.7,0.2,1.5,0.8,2,1.4c0.4,0.5,0,0.9-1.6,2.2c0.3-0.9,0.5-1.6,0.8-2.5
				C372.4,26,371.3,25.8,370.2,25.5L370.2,25.5z"/>
			<path d="M109,32.7c2.1,1.2,2.9,3.2,3.6,5.3c-0.2,0.1-0.3,0.2-0.5,0.3C111.1,36.4,110.1,34.5,109,32.7L109,32.7z"/>
			<path d="M361.5,19.3c2.6,0.6,3.2,1.8,2.1,4.9C363.7,21.8,362.8,20.4,361.5,19.3L361.5,19.3z"/>
			<path d="M384.3,78.6c-0.5,1.7-1,3.5-1.6,5.4C382.3,82,382.6,81.1,384.3,78.6z"/>
			<path d="M413.2,112.8c-0.7,1.5-1.9,2.5-3.5,3C410.4,114.3,411.8,113.6,413.2,112.8z"/>
			<path d="M90.2,157.5c0.6-0.4,1.2-0.8,1.9-1.1c0.2-0.1,0.7,0.3,0.8,0.6c0.1,0.1-0.1,0.6-0.3,0.8C91.8,158.1,91.1,158.2,90.2,157.5
				z"/>
			<path d="M161.9,44.7c0.3-1.3,0.9-1.6,1.8-1.3c1.1,0.4,1.5,1.3,1.4,2.8c-0.6-0.9-1-1.5-1.4-2.1C163.1,44.2,162.6,44.4,161.9,44.7z
				"/>
			<path d="M165.6,51.4c-0.1,0.8-0.2,1.5-1.3,2.2c0.2-1.7,0.4-3.1,0.5-4.9C165.2,49.9,165.4,50.7,165.6,51.4L165.6,51.4z"/>
			<path d="M114.3,35.1c0,1.6,0,3.2,0,4.8c-0.2,0-0.4,0-0.6-0.1C112.7,38.1,113.7,36.6,114.3,35.1L114.3,35.1z"/>
			<path d="M388.5,138.8c-1.1-1.2-2.1-2.2-3.1-3.3C387.3,136,388.1,136.8,388.5,138.8z"/>
			<path d="M366.8,32.7c1.3-1.3,2.8-2.4,4.6-3C370,31,368.6,32.2,366.8,32.7L366.8,32.7z"/>
			<path d="M120.1,145.5c0.9-2.6,0.9-2.6,2.1-3.1C122.3,144.1,121.1,144.7,120.1,145.5L120.1,145.5z"/>
			<path d="M380.7,139.7c1.7,0,3.4,0,5.1,0C384.1,140.5,382.4,140.2,380.7,139.7L380.7,139.7z"/>
			<path d="M150.4,54.4c-1.1-0.6-2.1-1.2-2.9-1.6C149.1,52.1,149.4,52.3,150.4,54.4z"/>
			<path d="M218.9,67.1c0.6,1.2,1.1,2.3,1.7,3.5C219.1,69.8,218.9,68.5,218.9,67.1z"/>
			<path d="M100.5,100.4c0.9-1.1,2-1.8,3.8-1.2C102.8,99.7,101.7,100.1,100.5,100.4z"/>
			<path d="M157.3,132c-0.5-0.5-1.1-1.2-1.7-1.7C157.4,129.9,157.8,130.4,157.3,132z"/>
			<path d="M183.1,151.8c0.2-0.3,0.3-0.6,0.5-0.7c0.3-0.2,0.7-0.2,1.1-0.3C184.5,152.2,184.5,152.2,183.1,151.8z"/>
			<path d="M223.5,13.9c0.3,0.8,0.5,1.4,0.8,2.2C222.8,16,222.8,16,223.5,13.9z"/>
			<path d="M244.7,53.1c-0.6,0.8-1.1,1.6-1.7,2.5c-0.2-0.1-0.3-0.2-0.5-0.3c0.5-0.9,1-1.7,1.5-2.6C244.2,52.9,244.4,53,244.7,53.1z"
				/>
			<path d="M330.8,38.9c-0.8,1-1.6,1.9-2.3,2.9C328.5,40.2,329.3,39.3,330.8,38.9L330.8,38.9z"/>
			<path d="M163.3,75c-0.2-1.5,0.5-2.7,1.7-3.6C164.4,72.5,163.9,73.7,163.3,75L163.3,75z"/>
			<path d="M224.1,163.2c0.7-1,1.2-1.7,2-2.9C225.7,162.4,225.7,162.4,224.1,163.2z"/>
			<path d="M160.5,38.7c0.1-0.9,0.1-1.8,0.2-2.8c0.2,0,0.3,0,0.5,0c-0.1,0.9-0.1,1.8-0.2,2.8C160.8,38.7,160.6,38.7,160.5,38.7z"/>
			<path d="M366.3,26.9c1-1.3,2.4-1.6,3.9-1.4l0,0C368.9,26,367.6,26.4,366.3,26.9L366.3,26.9z"/>
			<path d="M225.6,8.2c-0.4,1-0.8,2.1-1.3,3.1c-0.2-0.1-0.4-0.2-0.6-0.3C224.4,10.1,225,9.1,225.6,8.2L225.6,8.2z"/>
			<path d="M377.4,104.2c-1-0.3-2.1-0.6-3.1-0.9C375.6,102.8,376.6,103.2,377.4,104.2L377.4,104.2z"/>
			<path d="M385.5,123.4c-0.4,0.8-0.8,1.6-1.2,2.4c-0.2-0.1-0.3-0.2-0.5-0.3C383.8,124.5,384.7,124,385.5,123.4L385.5,123.4z"/>
			<path d="M401.6,100.4c-0.2,0.6-0.3,1.1-0.5,1.9c-1-1.1-0.4-1.6,0-2.1C401.3,100.3,401.4,100.4,401.6,100.4z"/>
		</g>
	</g>
	<g>
		<path fill-rule="evenodd" clip-rule="evenodd" fill="#2C5F67" d="M217.3,143.4c-0.3-1.6-1.1-2.8-2.8-3.2c-0.7-0.2-1.5-0.4-2.3-0.3
			c-2.4,0.3-4.9,0.6-7.1,1c-0.2-1.8,0.2-4.1-0.8-5.6c-1-1.5-3.2-2.2-5.1-3.4c0.4-0.8,0.9-1.8,1.3-2.8c-0.7-0.9-1.3-1.6-2-2.4
			c6.3-2.1,6.8-7.8,8.7-12.5c0.4-1-0.2-2.3-1.7-2.1c-4.9,0.6-9.5,1.9-12.7,6c-0.4,0.5-0.8,1.1-1.6,2.1c0.3-4,0.8-7.4-0.8-10.5
			c-0.3-0.1-0.6-0.2-0.8-0.2c-3.9,0.5-3.9,0.5-5.7-2.8c-0.8-1.4-1.8-2.4-3.7-2.1c-0.5,0.1-1-0.1-1.5-0.2c0-0.8,0-1.5,0-2.1
			c-0.1-2.9-1.7-4-4.6-3.2c-1.1,0.3-2.2,1-3.1,1.8c-1,0.8-1.7,1.9-2.6,2.9c-1.8,2.1-3.2,2.4-5.7,0.9c-2-1.2-4-1.8-6.3-1.3
			c-1.4,0.3-2.6,0.1-3.4-1.3c-0.8-1.6-2.1-2.3-4-2.3c-1.8,0-2.7-1-2.8-3.3c1.7,2,3.5,2.7,5.4,1.4c0.9-0.6,2-1.3,3.1-2
			c-1-0.4-0.8-2.2,0.5-2.2c3.5,0,6.7-1,9.9-2.2c2.4-1.6,4.5-3.7,6.5-5.4c0.4-0.3,0.7-0.7,0.9-1.1c-0.1-0.1-0.3-0.2-0.4-0.4
			c-2.2-3.4-5.9-2.5-9.4-2.2c-1.5,0.1-1.4-2.1,0-2.3c0.3,0,0.6-0.1,0.9-0.1c1-2,2.6-1.7,3.9-1.7c4.1-0.1,7.2-1.9,9.4-5.1
			c0.7-1,0.9-1.8,0.7-2.5c-0.2-0.1-0.4-0.1-0.6-0.2c-0.4-0.1-0.7-0.3-1-0.5c-1.6,2.1-5.8,1.4-5.8-1.9c0-4.3,0-8.7-0.6-13
			c0-0.1,0-0.2,0-0.4c-0.5-0.6-1.2-0.9-1.9-1c-0.4,0.4-1,0.8-1.7,0.9c-2.8,0.4-5.8,7.7-4.6,10.1c0.7,1.3,0.4,2.6-0.4,3.6
			c0,0,0.1,0,0.1,0.1c1.8,1.5,3,3.2,2.4,5.6c-0.3,0.9-1.6,1.2-2.1,0.3c-1.5-3.1-6-6.7-9.2-4.6c-0.9,0.9-1.4,2.2-1.5,3.8
			c-0.2,4.1,0.8,7.8,4.6,10.4c0.5,0.3,0.8,1,1.3,1.6c-0.1,0.1-0.2,0.2-0.3,0.2c0.3,0.3,0.4,0.8,0.1,1.3c-0.7,1.1-1.3,2.3-2.2,3.3
			c-0.9,0.9-2.5-0.3-1.8-1.4c0.2-0.3,0.3-0.6,0.5-0.9c-1.3-0.2-2.5-1-3.4-2.2c-0.2-0.2-0.2-0.4-0.3-0.7c-0.1,0-0.2-0.1-0.2-0.1
			c-1.2-0.8-1.8-0.2-2-1.6c-0.2-2.2-0.8-4.2-3-4.9c0.6-0.8,1.5-1.4,1.5-2c0.1-1.2-0.9-1.9-2.1-2c-1,0-2,0.1-3,0.2
			c-1.1,0.1-2.1,0.3-3.3,0.4c-0.3-1-0.5-1.7-0.7-2.4c-0.5-2.7-2-5-4-6.8c-0.7-0.7-1.9-1.4-2.8-1.3c-1.8,0.2-2.6-0.6-3.5-1.7
			c-0.8-1-1.7-2-2.8-2.7c-1.5-1-2.3-2.3-2.2-4c0.1-2.1,0.1-4.2,0.3-6.3c0.4-3.6-1.1-5-4.7-4.3c-0.4,0.1-0.9,0.4-1.3,0.3
			c-0.7-0.1-1.7-0.3-1.9-0.8c-1.7-3-4.1-3-7.1-2c-2,0.7-2.8,0-3-2.1c-0.1-0.6,0.1-1.3-0.1-1.9c-0.2-0.5-0.7-1.3-1.2-1.4
			c-1.9-0.5-3.7-0.8-5.7,0c-1.7,0.7-2,1.8-2.3,3.2c-0.4,1.5-1.3,1.8-2.7,1.3c-2.2-0.9-4.6-1.3-6.5-3c-1.6-1.5-3.6-1.1-4.6,0.9
			c-0.8,1.7-1.1,3.6-1.5,5.5c-0.3,2-0.3,4-0.6,6c-0.2,1.5-0.7,2.9-2.8,3.6c-2.2-1.7-4.6-3.4-6.8-5.2c-2.1-1.8-4.3-2.5-7-1.5
			c-2.4,0.9-2.8,2-1.8,4.4c1,2.2,1.5,4.3-0.2,6.6c-0.6,0.8-0.6,2.2-0.6,3.3c0.1,2.6-0.1,3.1-2.8,3c-2.1-0.1-4.1-0.6-6.1-1
			c-2.2-0.5-4-0.2-5.1,1.8c-0.6,1.2-1.6,1.6-2.9,1.7c-1.2,0.1-2.4,0.5-3.4,1c-1.2,0.6-2.5,1.5-2,2.9c0.6,2-0.7,2.6-1.8,3.3
			c-2.1-1.1-4-2.3-6-3.1c-2.9-1-5,0.5-5.1,3.5c0,1.2,0.3,2.3,0.3,3.5c0,0.9-0.2,1.7-0.3,2.9c-2.5-1-4.5-2-6.6-2.6
			c-3.9-1.2-6.1,0.7-5.3,4.5c0.6,2.5,1.1,5,1.9,7.4c0.5,1.6,0.3,2.7-0.8,4.1c-1,1.3-1.8,2.9-2.1,4.5c-0.6,4,1,5.4,5.2,5.3
			c0.8,0,1.6,0.1,3.2,0.2c-3.1,2.6-7.6,1.8-8.6,5.8c-3.8-1.1-6.3,1.1-8.8,2.9c-1.6,1.2-1.3,3.5,0.4,4.7c0.6,0.4,1.4,0.7,2.1,0.9
			c1.7,0.5,3,1.1,2.7,3.3c-0.1,0.7,0.6,1.5,1,2.2c0.5,0.8,1.2,1.5,1.9,2.3c-0.9,0.9-1.6,1.7-2.3,2.5c-1.9,2.1-1.9,3.6,0.2,5.5
			c3,2.8,6.3,3.1,9.9,1c3.2-1.9,3.4-1.9,5.8,0.6c0.4,0.5,1,0.8,1.6,1.2c0.6,0.4,1.2,0.9,1.9,1.3c-0.1,0.2-0.2,0.4-0.3,0.6
			c-1-0.2-2.1-0.4-3.1-0.7c-3.2-0.8-3.4-0.8-4.4,3c-0.6-3-2.4-2.5-3.8-1.7c-1.6,0.9-3.5,2-4.1,3.5c-1.2,2.9-3,5-5.7,6.7
			c-2.5,1.5-2.5,4.5-0.5,6.6c1.8,1.9,4.1,2.7,6.6,2.2c5.7-1.1,11.6-2,15.8-6.5c0.3-0.3,0.7-0.4,1.3-0.7c1.9,3.3,4.4,5.9,8,7.2
			c0,0.5,0,0.8-0.1,1.1c-0.6,3.4,0.8,5,4.4,5c1.1,0,2.2-0.1,3.3,0c3.6,0.5,6.1-1.2,8.5-3.4c1-0.9,2.2-1.8,3.3-2.6
			c1.2-0.8,2.5-0.9,3.6,0.2c1.9,1.8,4.1,1.9,6.5,1.4c1.7-0.3,2.9-0.3,3.8,1.5c0.8,1.9,2.6,2.7,4.6,2.4c2.8-0.5,5.7-0.9,8.3-1.9
			c1.7-0.6,2.8-0.6,4.3,0.2c1.5,0.8,3.2,1.3,4.7,2.1c0.6,0.3,1.4,0.9,1.4,1.5c0.3,2.3,1.8,2.7,3.8,2.6c0.7,0,1.7,0,2.2,0.3
			c3.9,2.5,7.5,1.6,11-0.8c0.1-0.1,0.4,0,0.9,0.1c0.3,0.6,0.6,1.4,0.9,2.2c0.9,2.3,1.7,2.7,4,1.9c1.7-0.6,3.2-1.5,4.9-2
			c1-0.3,2.5-0.6,3.1-0.1c2.1,1.7,4.3,1.6,6.7,0.9c1.1,4.2,3.6,5.4,7.4,3.8c1.7-0.8,3.1-1.8,4.1-3.5c1.3-2.4,3.2-4.2,6-5.7
			c0.7,1.1,1.2,2.1,1.8,3.1c0.8,1.3,1.8,2.4,3.5,2.5c1.4,0.1,2.8,0.3,4.3,0.4c1.9,0.1,2.7-0.4,2.8-2.3c0-1.6-0.2-3.3-0.4-5.5
			c1.6,1.7,2.8,3.1,4.1,4.2c1.5,1.3,3.2,2.3,4.8,3.4c2.4,1.8,3,2,5.2,0.2c1.9-1.4,3.7-1.5,5.8-0.9c5.1,1.6,7.2,1,10.3-3.1
			c0.9-1.2,1.7-1.5,3-1.1c0.8,0.3,1.7,0.5,2.5,0.7c4.7,1.3,6.8-0.5,5.8-5.1c-0.1-0.4-0.1-0.8-0.3-1.3c-0.7-2.3-0.1-4,2.3-5.2
			c2.3-1.2,2.8-3,2-5.5c-0.3-1-0.7-1.9-1.1-3c1.9-0.4,3.5-0.6,5.1-1c1.7-0.5,3.4-1,4.9-1.7C216.8,146.1,217.6,145,217.3,143.4z"/>
		<g>
			<path d="M67.6,145.8c-0.4-0.1-0.8-0.2-1.2-0.4c0-0.5,0.1-0.9,0.2-1.3c-0.3-0.6-0.5-1.2-0.6-1.8c-0.2,0.5-0.5,1-0.7,1.5
				c-1,2.5,0.2,3.9,2.9,3.5c0.2,0,0.4-0.1,0.6-0.1C68.3,146.7,67.9,146.3,67.6,145.8z"/>
			<path d="M74.2,150c-0.5,0.1-1,0.2-1.5,0.2c-0.2-0.2-0.4-0.5-0.6-0.7c0-0.1,0.1-0.1,0.1-0.2c-0.4-0.1-0.7-0.3-1-0.5
				c-0.4,0.9-0.7,1.7,0.3,2.6c1.2,1,2.3,0.2,3.4-0.3c0.4-0.2,0.8-0.4,1.3-0.6C75.5,150.3,74.9,150.2,74.2,150z"/>
			<path d="M104.3,171.8c-2,0-2.6-1.3-1.4-2.8c0.8-1,1.9-1.8,2.8-2.7c-3.2-3.7-4.4-4-8.5-2c-1.5,0.7-3.1,1.3-4.7,1.6
				c-2.1,0.4-2.6-0.1-4-2.7c1.7-0.5,3.3-1.1,5-1.6c1.7-0.5,3.5-1.1,4.8-1.5c-0.9-1.4-2.2-2.5-2.4-3.8c-0.2-1.3-0.1-2.6,0.3-3.8
				c-0.5,0-0.9,0.1-1.4,0.1c-0.7,2.1-0.6,4.5,0.2,7.2c-2.3,0.5-4.4,1.2-6.5,1.5c-0.6,0.1-1.7-0.3-2-0.8c-0.3-0.5-0.1-1.5,0.3-2.1
				c0.9-1.6,2.3-2.6,4.3-2.8c0.6-0.1,1.1-0.2,1.9-0.4c-1.3-1-2.3-1.8-3.4-2.6c-0.4,0.4-0.8,0.9-1.3,1.3c-1.4,1.4-2.7,2.9-4.3,4.2
				c-1.1,0.9-2.5,1.7-3.9,0.9c-1.6-0.9-2.1-2.6-1.8-4.3c0.2-1.1,0.6-2.2,0.9-3.3c-0.5-0.1-1.1-0.2-1.6-0.4c-0.2,1.2-0.4,2.1-0.5,3.1
				c-0.7,5,1.3,7.1,6.3,6.4c0.2,0,0.4,0.1,0.7,0.1c1.4,1.6,2.8,3.3,4.2,5c1.3,1.5,2.8,2.1,4.7,1.6c0.5-0.1,1-0.1,1.8-0.2
				c-0.2,0.9-0.4,1.5-0.5,2.2c-0.5,2.4,0.3,3.1,2.6,2.3c1-0.3,2-0.7,3.1-1.1c1.1,2.8,3.3,3.6,5.7,3c1.9-0.4,3.6-1.3,3.8-3.7
				c-0.8,0.2-1.4,0.8-2.1,1.1C106.5,171.1,105.4,171.7,104.3,171.8z M95.9,170c1.3-5.4,4.3-7,7.6-4.2
				C101.4,167.8,99.1,169.2,95.9,170z"/>
			<path d="M141,94.8c2.6-1.4,2.7-4,4.3-5.5c0.7,1.7,1.2,3.4,2,4.9c0.2,0.4,0.4,0.8,0.7,1.1c1.1,0.2,2.3,0.5,3.4,0.8
				c0.4-0.2,0.8-0.4,1.2-0.7c0.9-0.7,2-1.6,3.1-1.6c5.6-0.1,10.1-2.8,14.5-5.8c1.2-0.8,2.9-1.8,2.4-3.6c-0.6-1.9-2.5-1.8-4.2-1.9
				c-1.4,0-2.9,0.1-4.3,0.1c-0.6,0-1.2,0-1.9,0c1.1-4,1.1-4,4.6-3.9c3.4,0.1,6.3-1.1,8.7-3.4c1.2-1.2,2.2-2.5,1.6-4.8h-7.7
				c2.6-4.8,2-9.3,0.8-13.7c-0.6-2.2-1.9-2.9-3.9-1.8c-1.3,0.7-2.6,1.6-2.7,3.4c0.9-0.7,1.7-1.3,2.6-1.9c0.9-0.6,1.9-0.6,2.6,0.5
				c1.9,3,2.6,10.1-0.5,12.7c-1.9,1.6-2.9,3.7-4.5,5.5c-0.2,0.2-0.5,0.3-0.8,0.4c-1.2-1.7-2.3-3.3-3.5-4.8c-1.6-1.9-3.5-1.2-5.5-0.6
				c-1.8,0.5-2.2,1.9-2.4,3.6c-0.3,3,0.3,5.9,1.8,8.3c1,1.7,3,2.8,4.9,4.4c-1.2,1.5-2.6,3.2-4.3,5.3c-1.3-3.2-3-5.5-5.8-6.6
				c-1.6-0.7-1.8-1.7-1.8-3.1c0-1.1-0.1-2.2-0.2-3.4c-0.3,0-0.5,0-0.8,0c-0.2,1.8-0.3,3.6-0.6,5.4c-0.4,1.9-1,3.8-1.7,5.7
				c-0.6,1.6-1.5,3.1-2.5,5.1C140.7,94.8,140.8,94.8,141,94.8z M169.3,72.2c2.1-0.4,4.3-0.4,6.5-0.6c-0.9,4.6-6.2,6.9-10.9,4.8
				C165.7,74.1,167.1,72.6,169.3,72.2z M154,80.4c-0.7-1.7-1.1-3.6-1.5-5.4c-0.5-2.3,0-3,2-4c1.9-0.9,3.6-0.7,4.8,0.8
				c1.8,2.3,3,4.9,1.6,7.9c-0.5,1.1-0.8,2.3-1.2,3.5C156,83.6,155.1,83.2,154,80.4z M171,84.6c-2.3,4.3-10.2,8.2-14.2,7.1
				C158.7,85.1,164.9,82,171,84.6z M152.2,92.7c-0.1,0.8-0.9,1.8-1.7,2.1c-0.5,0.2-1.8-0.5-2.1-1.1c-0.9-2.3-1.6-4.6-2.4-7.1
				C149.8,86.7,152.7,89.7,152.2,92.7z"/>
			<path fill-rule="evenodd" clip-rule="evenodd" d="M36.2,106.2c-1.7,2.1-3.9,2.7-6.5,2.7c-4.9,0-6.4-2.4-4-6.9
				c-0.4-0.4-0.8-0.9-1.2-1.4c-1.5-2.1-1.7-3.4,0-5.4c2.4-2.7,5.1-5.1,7.6-7.8c0.6-0.7,1.1-1.6,1.3-2.4c0.6-2.4,1.8-3.9,4.2-3.9
				c2.1-0.1,4.3,0.4,6.4,1c2.1,0.6,4,1.6,6.4,2.5c-0.1-1.7-0.2-2.9-0.2-4.1c0-1.2,0-2.4,0.3-3.6c0.6-2.4,1.6-2.9,4.2-2.2
				c0.5,0.1,1,0.3,1.8,0.6c0.5-1.2,0.9-2.3,1.4-3.3c0.8-1.9,2-3.5,4.1-4.1c2.6-0.8,4.1-0.1,5.5,2.2c0.5,0.8,1.2,1.4,2.1,2.4
				c-0.7,0.9-1.7,2.2-2.7,3.5c-0.2-0.1-0.4-0.2-0.6-0.3c0.1-1.1,0.3-2.1,0.2-3.2c-0.1-1.4-0.4-3-2.2-3.4c-1.5-0.4-2.9,0.2-3.8,1.5
				c-1.9,2.6-3,5.3-1.4,8.6c1.2,2.5,1.1,2.6,0.2,5.1c-1.6-0.8-1.6-2.3-1.8-3.6c-0.3-2.6-1.9-4-4.1-4.9c-1.9,1-2,2.6-1.9,4.1
				c0.2,2.3,0.6,4.6,1,6.9c0.2,1.2,0.6,2.5,0.5,3.8c-1.9-1.9-2.1-5.2-5.6-5.5c-1.1,3.2,1.1,5.6,1.4,8.3l0,0c-1-1.4-2.1-2.7-3.4-4.4
				c-7.3-1.7-9.7-1.8-12.6,0.1c1.2,0.6,2.2,1,3.2,1.5c0,0.2,0,0.4,0,0.6c-0.7,0-1.5,0.1-2.2,0c-3.9-0.5-7.9,2.1-8.8,5.8
				c-0.4,1.7,0.4,2.8,1.8,3.5c0.9,0.5,1.9,0.7,3.6,1.3c-1.4,0.7-2.3,0.9-3.1,1.5c-0.6,0.5-1.6,1.4-1.4,1.9c0.2,0.8,1.2,1.8,1.9,1.9
				c1.8,0.2,3.7,0,5.5-0.2C34.4,107,35.3,106.6,36.2,106.2L36.2,106.2z M44.8,87.2c-0.5-1.6-0.5-2.8-1.1-3.5c-1.5-1.8-6-2-7.7-0.6
				c-0.5,0.4-1,1.2-0.9,1.6c0.2,0.6,0.9,1.3,1.5,1.4C39,86.6,41.4,86.8,44.8,87.2z"/>
			<path fill-rule="evenodd" clip-rule="evenodd" d="M34,144.7c-0.7,0.2-1.6,0.4-2.6,0.6c-3,0.4-4.4-1.1-3.9-4
				c0.3-1.5,0.8-2.9,1.2-4.3c-0.5-0.3-0.8-0.5-1.1-0.6c-3.2-0.9-3.6-1.8-1.7-4.5c1.4-2.1,2.7-4.2,5.3-5.8c-1.4,3.3-4.2,5.2-5.1,8.3
				c2.4,0.5,2.4,0.5,6.9-2.6c-0.5,1.1-0.7,1.7-1,2.3c-1.2,2.4-2.5,4.7-3.4,7.2c-0.7,1.9,0.4,3.1,2.3,2.8c2-0.4,3.7-1.2,4.7-3.2
				c0.8-1.6,1.8-3,2.8-4.4c0.5-0.6,1.2-1.1,1.9-1.6c0.2,0.1,0.4,0.3,0.6,0.4c-0.3,0.9-0.5,1.8-1,2.6c-0.7,1.2-1.7,2.3-2.4,3.6
				c-0.6,1-1.1,2.2-1.3,3.3c-0.2,1.4-0.2,3.1,1.5,3.7c1.6,0.6,2.4-0.8,3.1-1.9c1-1.5,1.8-3,2.7-4.6c0.5-0.8,0.9-1.6,1.5-2.9
				c0.8,1.9-0.2,2.9-0.5,3.9c-0.4,1.8-0.9,3.6-1.1,5.5c-0.1,1.5,0.7,2.8,2.2,3.3c1.5,0.4,2.6-0.6,3.3-1.7c1.1-1.9,1.8-3.9,3-6.5
				c0.2,1.1,0.5,1.7,0.3,2.2c-0.7,1.9-1.3,4-2.5,5.7c-2.1,2.9-5.2,2.6-7-0.5c-0.4-0.8-0.7-1.6-1.1-2.5c-1.7,0.5-3.2,2.9-5,1.4
				C35.5,148.5,35,146.5,34,144.7z"/>
			<path fill-rule="evenodd" clip-rule="evenodd" d="M85.6,64.8c-0.5-2-1-4-1.5-6c-0.6-2.3-1.6-4.3-3.8-5.6
				c-0.6-0.3-1.2-0.7-1.8-0.7c-1.2-0.1-2.4,0.4-2.5,1.6c-0.1,0.6,0.6,1.6,1.2,2c1,0.7,2.1,1.2,3.2,1.7c0.6,0.3,1.2,0.5,1.7,0.8
				c-0.2,0.3-0.5,0.6-0.7,0.9c-0.6-0.1-1.2-0.1-1.7-0.4c-1.4-0.7-2.7-1.5-4-2.4c-2.7-1.7-3.2-1.6-5,1c-1.8-0.5-3.5-1.1-5.3-1.5
				c-2.6-0.6-4.4,0-5,1.4c-0.7,1.6,0.2,4.4,1.8,5.7c0.6,0.5,1.4,1,1.9,2.1c-2.5,0-5,0-7.7,0c-0.2-2,2.3-1.2,3.2-2.4
				c-0.3-0.9-0.6-1.9-0.8-3c-0.6-3.1,0.9-4.9,4-5c1.1,0,2.3-0.1,3.3,0.2c2.6,0.9,5.1,0.1,7.3-0.9c1.8-0.9,3.5-2.3,4.7-3.9
				c0.7-0.9,0.4-2.5,0.6-3.8c0.2-2.6,0.4-5.3,0.7-7.9c0.1-0.8,0.5-1.7,1-2.4c1.2-1.8,2.7-1.9,3.9,0c0.7,1,1,2.1,1.5,3.2
				c-0.2,0.1-0.4,0.3-0.5,0.4c-0.9-1.2-1.8-2.3-2.9-3.8c-0.7,0.7-1.3,1.2-1.6,1.8c-1.5,4-1.7,8.2-0.7,12.3c0.2,0.9,1,1.7,1.6,2.4
				C84.8,56.2,86.2,60.2,85.6,64.8z"/>
			<path fill-rule="evenodd" clip-rule="evenodd" d="M187.8,162.6c2.2-1,3.3-0.2,3.8,1.3c1.1,3.4,3.9,4.7,6.9,5.5
				c2.5,0.7,2.9,0.4,3.6-2.3c0.1-0.3,0.2-0.5,0.4-1.1c0.8,1.5,1,2.7,0.2,3.9c-0.9,1.3-2.2,1.4-3.6,1c-2.2-0.7-4.3-1.5-6.7-2.3
				c-0.3,0.7-0.7,1.5-1,2.2c-1.4,3.1-4.3,4.5-7.6,3.8c-0.8-0.2-1.5-0.3-2.2-0.7c-2.2-1.2-4.1-1.4-6.7-0.4c-4,1.6-9.5-1.7-11.8-6.4
				c-0.5-1.1-0.8-2.3-0.9-3.7c2,4.1,4.3,7.7,9.1,8.8c2,0.5,3.9,0.3,5.7-1.3c-0.6-2.9-3.3-5.1-2.7-8.5c1,1.9,2,3.9,3.3,6.3
				c0.4-1.2,0.7-1.9,1.1-3.1c0.2,1,0.3,1.4,0.3,1.8c0,3.3,1.3,4.9,4.4,5.6c3.3,0.7,6-0.5,7.3-3.1c0.8-1.7,0.7-3.2-0.6-4.6
				C189.1,164.6,188.6,163.7,187.8,162.6z"/>
			<path fill-rule="evenodd" clip-rule="evenodd" d="M15.6,137.3c-4,1.5-6.7,0.2-9.2-2c-1.2-1.1-1.3-2.3-0.2-3.5
				c1.1-1.1,2.2-2.2,3.3-3.3c0.7-0.8,1.5-1.5,2.4-2.5c-2.2-0.7-4-1.3-5.7-1.9c-0.2-2.6,2.2-2.8,3.3-4.5c-1.8-0.1-3.3-0.1-4.8-0.3
				c-1.8-0.3-4.1-0.5-4.7-2.5c-0.5-2.1,1.7-2.8,3.1-3.7c1.2-0.8,2.6-1.4,3.9-2.1c0.1,0.2,0.2,0.4,0.4,0.6c-2,1.4-4.1,2.9-6.5,4.7
				c6,3.6,11.8,0.8,17.3,0.8c0.1,0.3,0.1,0.5,0.2,0.8c-1.7,0.7-3.5,1.3-5.2,2.1c-1.7,0.8-3.3,1.7-5.7,3c2.7,0.9,4.7,1.5,7.3,2.3
				c-2.9,2.9-5.4,5.3-7.8,7.7C8.8,136.8,12.6,135.7,15.6,137.3z"/>
			<path fill-rule="evenodd" clip-rule="evenodd" d="M51,130.4c-3.1,1-3.3-1.2-4.1-2.5c-1.4,0.5-2.6,1-3.8,1.3
				c-1.4,0.4-2.9,0.7-4-0.6c-1.2-1.4-0.8-2.9-0.1-4.3c0.5-1,1.1-1.9,1.5-2.8c-1-1.7-1.9-3.3-2.9-5c-1.3-0.6-2.9-1-4.3-1.9
				c-2.1-1.3-2-2.7,0.1-4c0.7-0.4,1.6-0.6,2.6-0.6c-0.9,0.8-1.8,1.5-2.9,2.5c4.1,4,8.8,1.7,13.2,1.7c-1.7,2-5.1,0.6-6.3,3.4
				c1.2,1.7,1.2,1.7,5.5,1.7c-2.7,2.4-5.9,4.1-5.6,8.5c6,0.4,9.4-4.3,14.2-6.3c-0.5,0.7-1.1,1.4-1.6,2.1c-0.8,0.9-1.6,1.8-2.4,2.7
				C48.9,127.7,48.5,129.1,51,130.4z"/>
			<path fill-rule="evenodd" clip-rule="evenodd" d="M127.5,153.6c-1.7,0.5-3.3,0.2-4.7-0.8c-0.7-0.5-1.1-1.1-1.3-1.7
				c-0.4,0.1-0.7,0.1-1.1,0.2c0,0,0,0,0,0c0.3,1.4,1.7,2.6,2.7,4c-0.2,1.2-1.8,2.3-0.3,3.6c1.3,1.2,2.9,1.2,5.3,0.4
				c-1.9-0.6-3.1-1-4.3-1.5c1.5-3.9,5.6-1.1,7.6-3.6C130,153.1,128.8,153.3,127.5,153.6z"/>
			<path fill-rule="evenodd" clip-rule="evenodd" d="M64.1,154.6c-1.2,1.6-2.3,3.1-3.5,4.7c1.2,2.4,1.6,2.7,3.9,2.1
				c1.6-0.4,3.1-1.1,4.5-1.9c1.4-0.8,2.7-1.8,4.5-2.3c-0.3,0.6-0.5,1.3-0.9,1.9c-2.4,4-2.2,4.9,1.9,7.1c-2.9,1.3-4.2,0-5-5.1
				c-1.4,0.5-2.8,1-4.3,1.5c-2.2,0.7-4,0.3-5.6-1.6c-0.7-0.8-1.9-1.4-3-1.7c-2.7-0.8-4.5-3.7-3.3-6.1c1.1-2.1,2.3-4.2,4.8-5.2l0,0
				c-1,1.6-2,3.1-3,4.7c-1.2,1.8-1,3.1,0.4,4.4c1.4,1.2,2.6,1,3.2-0.8c0.6-1.7,1.4-3,3-3.7C63.4,151.8,64.3,152.6,64.1,154.6
				c-0.6-1.2-1.5-1.2-2.5-0.6c-1.1,0.7-1.9,1.5-0.9,3.3C62,156.3,63,155.4,64.1,154.6z"/>
			<path fill-rule="evenodd" clip-rule="evenodd" d="M17,142.1c-0.7,0.5-1.4,0.9-2,1.4c-1,0.8-2.2,1.5-3,2.6
				c-0.5,0.7-0.7,1.8-0.6,2.7c0,0.3,1.4,0.5,2.2,0.6c0.8,0.1,1.7,0,2.9,0c-1,2.2-2.6,2.1-4.1,2.1c-2.6,0.1-5,0.9-7,2.6
				c-1.7,1.4-1.7,2.2-0.2,3.8c1.3,1.4,3.1,1.9,4.8,1.7c4.1-0.6,8.3-1,11.5-4.2c0.6-0.6,1.9-0.6,2.9-0.8c0.1,0.2,0.2,0.4,0.3,0.6
				c-0.6,0.4-1.1,0.9-1.7,1.2c-3.9,1.5-7.7,3.2-11.7,4.4c-2.7,0.8-5.3,0.1-7.3-2.1c-1.8-1.9-1.6-3.7,0.4-5.4
				c0.3-0.3,0.7-0.6,1.1-0.8c2.5-1.1,4.1-2.5,4.7-5.6C10.9,144,13.7,142.4,17,142.1z"/>
			<path fill-rule="evenodd" clip-rule="evenodd" d="M121.5,80.7c-0.5-3-2-4.9-5-5.5c-2.9-0.5-4.8,1.7-7.5,2.3
				c0.8-0.9,1.8-1.7,2.5-2.6c0.5-0.7,1-1.9,0.7-2.3c-0.5-0.7-1.7-1.3-2.5-1.1c-1.8,0.4-3.5,1.3-5.2,2c-0.8,0.4-1.6,0.9-2.6,1.5
				c0.8-3,1.5-5.7,2.1-8.4c0.1-0.4-0.3-1-0.7-1.9c-1.5,1-2.8,1.9-4.6,3.2c0.4-1,0.4-1.5,0.7-1.7c1.3-1.3,2.3-3.4,4.6-2.5
				c2.2,0.9,1.2,3,1.2,4.7c0,0.9-0.1,1.7-0.2,2.7c2.1-0.3,4-0.8,5.9-0.8c2.2,0,3.4,1.4,3.2,3.6C120.4,74.5,122.9,76.8,121.5,80.7z"
				/>
			<path fill-rule="evenodd" clip-rule="evenodd" d="M123.8,170.6c1.2-1.6,2.3-3.2,3.6-4.7c0.2-0.3,1.1-0.1,2.3-0.2
				c-0.8,1.2-1.3,1.9-1.7,2.6c-0.5,1.1-1.2,2.1-1.4,3.3c-0.3,1.6,0.7,2.3,2.2,1.8c2.2-0.7,3.9-2,4.5-4.4c0.3-1.1,0.5-2.3,1-3.4
				c1.5,3.7,0.2,7.7,1.2,11.6c3.1,0.4,3.9-3.1,6.6-3.9c-0.9,2.7-2.6,4.4-4.9,5.5c-1.6,0.7-2.5,0.2-2.9-1.5c-0.4-1.6-0.4-3.2-0.7-5.3
				c-0.9,0.6-1.5,1.1-2.2,1.6c-3.2,2.3-5,1.7-6.5-1.8C124.7,171.2,124.2,170.9,123.8,170.6L123.8,170.6z"/>
			<path fill-rule="evenodd" clip-rule="evenodd" d="M38.2,68.9c2,0.9,3.6,1.7,5.5,2.5c-2.1,2.7-5.7-0.6-7.1,2.8
				c0.9,2,3.4,0.4,4.5,2c-1.6,1.3-1.8,1.3-5.5,0.3c-0.7-4-0.5-4.2,4.1-5.4c-1.4-0.6-2.5-1.1-3.7-1.7c1.9-3.5,5.3-2.9,8.3-3.4
				c0.4-2,1.1-3.7,3.5-3.6c2.1,0.1,3.5,0.9,4.3,3.1c-1.4-0.6-2.5-1.3-3.7-1.6c-0.7-0.1-1.5,0.5-2.3,0.8c0.3,0.6,0.5,1.3,0.8,1.9
				c0.2,0.4,0.4,0.7,0.8,1.5C44.2,66.8,41.3,66.4,38.2,68.9z"/>
			<path fill-rule="evenodd" clip-rule="evenodd" d="M129.1,63.2c1.1-1.3,2-0.3,2.8,0.4c2.5,2.4,4.1,5.2,4.3,8.7c0,0.5,0.1,1,0.1,2
				c2.3-0.4,4.5-0.5,6.6-1.1c2-0.5,2.5,0.4,2.8,2.5c-0.9-0.7-1.4-1.1-2.2-1.7c-0.9,1.2-1.7,2.2-2.7,3.5c-0.2-0.8-0.4-1.5-0.6-2.2
				c-3.7-0.7-5.9,1.3-7.7,4c-0.8,1.2-1.5,2.4-3.6,2.7c0.4-1,0.5-1.7,0.8-2.3c0.5-0.7,1.1-1.3,1.8-2
				C136.7,72.6,135.7,66.5,129.1,63.2L129.1,63.2z"/>
			<path fill-rule="evenodd" clip-rule="evenodd" d="M18,102.4c-3.3,2.6-6.8,2.2-8-0.3c-1.1-2.4,1.1-7.2,3.6-8.1
				c2.8-1.1,5,0.2,6.2,3.7c-0.4-0.2-0.7-0.3-0.8-0.5c-2.7-3.1-6.1-2.5-7.5,1.4c-0.9,2.3,0.2,4,2.7,4C15.5,102.7,16.7,102.5,18,102.4
				z"/>
			<path fill-rule="evenodd" clip-rule="evenodd" d="M117.1,53.2c0.4-1.1,0.8-2.3,1.3-3.4c0.3-0.8,0.9-1.6,1-2.4
				c0.1-1-0.2-2.1-0.4-3.1c-1,0.1-2.2,0-3.1,0.5c-2.9,1.5-4.7,4.3-6.5,6.9c-0.4,0.6-0.8,1.1-1.7,1.4c0.1-0.6,0.2-1.2,0.5-1.7
				c0.5-1,1.3-1.8,1.7-2.8c1.2-3.5,4.5-4.3,7.3-5.7c2.1-1.1,4.2,0.6,3.8,2.9C120.3,48.5,119.8,51.5,117.1,53.2L117.1,53.2z"/>
			<path fill-rule="evenodd" clip-rule="evenodd" d="M25.4,82.2c-1.8-2.6-2.1-5.7-2.4-8.7c-0.2-2.1,1.7-3.4,3.8-2.8
				c3.3,0.9,5.6,2.9,7.1,6c0.1,0.2,0.1,0.4,0.1,0.6c0,0.2-0.2,0.4-0.5,0.8c-0.8-1.1-1.7-2-2.3-3.1c-1-1.7-2.5-2.4-4.3-2.8
				c-1.9-0.4-2.7,0.3-2.4,2.3c0.3,2,0.9,3.9,1.3,5.8c0.1,0.6,0.2,1.2,0.3,1.8C25.9,82.2,25.7,82.2,25.4,82.2z"/>
			<path fill-rule="evenodd" clip-rule="evenodd" d="M203.4,150.3c-0.3,0.3-0.5,0.6-0.8,0.9c0.6,0.3,1.2,0.6,1.7,1
				c2.3,1.8,2,4.2-0.7,5.5c-1.8,0.9-3.7,1.2-5.8,0.4c-0.8-0.3-1.7-0.9-2.7,0c3.3,2.5,6.8,2.7,9.9,0.6c2.1-1.4,2.6-3.1,1.7-5.1
				C206,151.9,204.8,150.8,203.4,150.3z"/>
			<path fill-rule="evenodd" clip-rule="evenodd" d="M205.2,149.3c3.3-2.3,8.1-1.5,11-4.8c-2.1-3.8-5.1-2-8-1.2
				c2.5-2.8,6.6-2.9,8.7-0.5c1.1,1.2,1.1,2.6-0.3,3.4C213.1,148.1,209.3,149.3,205.2,149.3z"/>
			<path fill-rule="evenodd" clip-rule="evenodd" d="M53.7,161.1c-4,1.8-7.5,3.4-11,5c-0.4,0.2-0.8,0.4-1.2,0.6
				c-2.4,0.9-4.2,0.5-5-1c-0.8-1.6-0.1-3.2,2.6-5.2c-0.5,1.3-1,2.1-1.2,2.9c-0.5,1.5,0.1,2.4,1.7,2.3c0.9-0.1,1.7-0.3,2.5-0.6
				c1.9-0.8,3.8-1.7,5.7-2.6C49.6,161.7,51.2,160.9,53.7,161.1z"/>
			<path fill-rule="evenodd" clip-rule="evenodd" d="M102.3,40.9c0.1,0.9,0.3,1.9,0.4,2.8c0.3,0.2,0.5,0.4,0.8,0.6
				c0.5-0.8,0.9-1.7,1.6-2.4c0.9-0.9,2-1.9,3.2-2.2c1-0.3,2.4,0,3.4,0.5c1.3,0.7,1.5,2,0.9,3.4c-0.3-0.1-0.6-0.2-0.6-0.3
				c-1-3-2.6-3.6-5-1.8c-0.8,0.6-1.4,1.7-2.1,2.5c-0.8,0.8-1.5,1.7-2.5,2.6c-1.6-2.2-1-4-0.8-5.8C101.7,40.9,102,40.9,102.3,40.9z"
				/>
			<path fill-rule="evenodd" clip-rule="evenodd" d="M123.8,170.6c-2.1,2.6-5.1,3.7-8,5c-1.8,0.8-2.9-0.2-2.3-2.1
				c0.6-2.2,1.6-4.3,2.4-6.5c0.2-0.6,0.5-1.1,0.8-1.7c0.2,0.2,0.5,0.4,0.7,0.7c-0.8,2.5-1.7,5.1-2.8,8.4
				C118.1,172.9,120.9,171.8,123.8,170.6L123.8,170.6z"/>
			<path fill-rule="evenodd" clip-rule="evenodd" d="M11.7,83c-1-1.2-1.3-2.7-0.3-4c1-1.4,2.6-1,4-0.6c3.1,1,5.9,2.4,8.2,4.8
				c1,1.1,1.7,2.2,1,4.4c-1.5-4.1-4.6-5.9-7.9-7.4C12.2,78.4,11.9,79.9,11.7,83L11.7,83z"/>
			<path fill-rule="evenodd" clip-rule="evenodd" d="M68.6,48.7c-1.7-0.7-3.3-1.9-5-2c-1.5-0.1-3.1,1.1-4.9,1.8
				c0.1-1.8,1.4-2.6,3-3.1C64.3,44.7,66.7,45.8,68.6,48.7z"/>
			<path fill-rule="evenodd" clip-rule="evenodd" d="M108.3,89.1c4.4-0.2,7.3-3.3,10.9-5.9C116.9,88,111.4,90.9,108.3,89.1z"/>
			<path fill-rule="evenodd" clip-rule="evenodd" d="M153.8,166.4c-0.1,2.1-1.9,4.4,0.5,6.7c1-0.6,2.1-1.2,3.1-1.8
				c0,0.2,0.2,0.4,0.1,0.6c-0.9,1.4-1.8,2.9-3.8,2.5c-1.2-0.3-2.2-2.7-1.8-4.6c0.2-1.2,0.8-2.3,1.3-3.5
				C153.3,166.3,153.6,166.4,153.8,166.4z"/>
			<path fill-rule="evenodd" clip-rule="evenodd" d="M163.5,58.5c-0.3,1.2-0.7,2.3-1,3.5c-1,3.8-0.6,6,1.5,9c-1.7-0.3-2-0.5-2.5-2.4
				C160.6,64.9,160.4,61.4,163.5,58.5L163.5,58.5z"/>
			<path fill-rule="evenodd" clip-rule="evenodd" d="M97,70.8c-1.1,3.2-2.2,6.5-3.3,9.6C92.6,78.4,93.6,74.7,97,70.8z"/>
			<path fill-rule="evenodd" clip-rule="evenodd" d="M10.3,109.8c4.9-3.4,8.6-3,10.8,1c-1.8-0.8-3.4-1.9-5.1-2.1
				C14.3,108.6,12.5,109.4,10.3,109.8z"/>
			<path fill-rule="evenodd" clip-rule="evenodd" d="M117.1,53.2c-0.7,2.2-1.3,4.4-2.1,6.4c-0.3,0.7-1.3,1.1-2.3,1.4
				C113.3,57.8,114.9,55.3,117.1,53.2L117.1,53.2z"/>
			<path fill-rule="evenodd" clip-rule="evenodd" d="M11.7,83c1.4,2.3,2.8,4.6,4.3,7C13.6,89.5,12.2,87,11.7,83L11.7,83z"/>
			<path fill-rule="evenodd" clip-rule="evenodd" d="M18.6,141c2.5-0.4,3.5,0.1,4,1.9c0.5,1.6-0.4,2.2-1.8,2.4
				C21.7,141.9,22.3,142.8,18.6,141z"/>
			<path fill-rule="evenodd" clip-rule="evenodd" d="M48.8,93.7c1.8,1.1,3.5,2.3,5.3,3.4C51.4,97.4,49.6,96.3,48.8,93.7L48.8,93.7z"
				/>
			<path fill-rule="evenodd" clip-rule="evenodd" d="M50.4,106.1c-1.7-0.4-3.6-0.8-5.2-1.1C47.2,103.5,48.9,103.9,50.4,106.1z"/>
			<path fill-rule="evenodd" clip-rule="evenodd" d="M86.2,48.5c-0.1-1.6-0.2-3.1-0.3-4.7c0.3,0,0.6-0.1,0.9-0.1
				c0.2,1.6,0.4,3.2,0.5,4.7C87,48.4,86.6,48.4,86.2,48.5z"/>
			<path fill-rule="evenodd" clip-rule="evenodd" d="M102.2,38.6c-0.7-1.5-1.3-2.7-2-4.1c0.4,0,1.2-0.3,1.8,0
				C102.8,34.8,102.8,35.8,102.2,38.6z"/>
			<path fill-rule="evenodd" clip-rule="evenodd" d="M36.5,156.3c-0.8,1.4-1.5,2.3-3.2,0.9C33.9,155.7,34.7,154.9,36.5,156.3z"/>
			<path fill-rule="evenodd" clip-rule="evenodd" d="M58.1,148.1c1.7-2.7,2.9-3,5.4-1.1C61.7,147.9,59.5,146.2,58.1,148.1
				L58.1,148.1z"/>
			<path fill-rule="evenodd" clip-rule="evenodd" d="M28.3,164.4c1.4,0.7,2.2,1.1,3.2,1.6c-0.9,0.7-1.8,1.5-3,0.8
				C28.2,166.6,28.4,165.5,28.3,164.4z"/>
			<path fill-rule="evenodd" clip-rule="evenodd" d="M93.2,51.2c0,1.8,0,3.6,0,5.4c-0.2,0-0.4,0-0.6,0c-0.1-1.8-0.2-3.6-0.3-5.3
				C92.6,51.2,92.9,51.2,93.2,51.2z"/>
			<path fill-rule="evenodd" clip-rule="evenodd" d="M129,63.1c-0.4,1.2-0.7,2.4-1.3,4.1c-0.8-0.9-1.2-1.4-1.6-1.9
				C127.2,64.5,128.2,63.8,129,63.1L129,63.1z"/>
			<path fill-rule="evenodd" clip-rule="evenodd" d="M36,124.2c-1,0.1-2,0.1-3.5,0.2C33.9,122.8,35,122.9,36,124.2z"/>
			<path fill-rule="evenodd" clip-rule="evenodd" d="M36.2,106.3c1.2-1,2.3-2,3.5-3c0.2,0.2,0.3,0.5,0.5,0.7
				C38.9,104.7,37.5,105.5,36.2,106.3L36.2,106.3z"/>
		</g>
	</g>
</g>
</svg>
