<?xml version="1.0" encoding="utf-8"?>
<!-- Generator: Adobe Illustrator 18.1.1, SVG Export Plug-In . SVG Version: 6.00 Build 0)  -->
<!DOCTYPE svg PUBLIC "-//W3C//DTD SVG 1.1//EN" "http://www.w3.org/Graphics/SVG/1.1/DTD/svg11.dtd">
<svg version="1.1" id="Layer_1" xmlns="http://www.w3.org/2000/svg" xmlns:xlink="http://www.w3.org/1999/xlink" x="0px" y="0px"
	 viewBox="0 0 240.5 120.6" enable-background="new 0 0 240.5 120.6" xml:space="preserve">
<g>
	<path fill="#2C5F67" d="M180.2,49.2c0.8-0.9,0.8-1.3,0-2.1c-0.6-0.6-1.2-1.2-2.4-1.2c0.6-0.3,1-0.5,1.3-0.7
		c0.4-0.2,0.7-0.6,0.5-1.1c-0.4-0.7-0.2-1.4,0.1-2.1c0.5-1.3-0.2-2.2-1.5-2.4c-0.3,0-0.6,0-1-0.1c0.1-0.6,0.2-1,0.3-1.5
		c0.2-1.7-1-2.8-2.7-2.2c-1.4,0.5-2.6,1.1-3.5,2.4c-0.4,0.5-0.8,0.7-1.4,0.3c-0.6-0.4-1.3-0.4-2,0c-0.2,0.1-0.4,0.2-0.8,0.3
		c0.2-0.4,0.3-0.6,0.4-0.7c0.2-0.3,0.5-0.6,0.8-0.8c0.4-0.4,0.6-0.9,0.4-1.4c-0.2-0.3-0.7-0.4-1.1-0.6c-0.2-0.1-0.5-0.1-0.7-0.1
		c0-0.3,0-0.5,0-0.7c0-0.9-0.3-1.2-1.2-1c-0.6,0.1-1.2,0.3-1.9,0.6c0.3-0.7,0.6-1.4,1-2c0.6-1.1,0.5-1.8-0.4-2.7
		c-0.1,0.1-0.3,0.2-0.5,0.3c-1.1,1.2-2.2,2.3-3.3,3.5c-1.1,1.1-2.1,2.3-2.8,3.7c-0.5,0.9-0.7,1-1.8,0.4c0.2-0.4,0.4-0.7,0.5-1.1
		c0.6-1.5,0.1-3-1.3-3.9c-0.8-0.5-1.4-0.3-1.9,0.6c-0.4,0.7-0.9,1.4-1.4,2.1c-1-0.2-1.9-0.1-2.6,0.6c-0.5,0.4-0.9,0.2-1.1-0.2
		c-0.1-0.2-0.2-0.4-0.3-0.6c0.3-0.6,0.5-1.1,0.8-1.6c0.6-0.7,1.3-1.4,2-2.1c0.5-0.5,0.8-1.1,0.7-1.8c0-0.2,0-0.5,0-0.6
		c0.6-0.2,1.2-0.3,1.6-0.5c0.7-0.4,0.8-0.9,0.3-1.5c-0.2-0.3-0.5-0.6-0.7-0.9c0.2,0,0.3-0.1,0.3-0.1c0.3,0.1,0.6,0.2,0.9,0.3
		c1.7,0.7,3.2,0.4,4.8-0.4c0.9-0.5,0.9-1.1,0.2-1.7c-0.9-0.7-1.9-1.3-3.1-1c0.2-1,0.4-1.1,1-0.9c2.1,0.7,4.1,0.1,6.2-0.2
		c0.6-0.1,0.9-0.6,0.6-1.2c-0.2-0.5-0.6-0.9-1-1.2c-0.3-0.3-0.7-0.5-1-0.7c0.9-0.9,1.7-1.8,2.5-2.6c0.7-0.8,1-1.7,0.6-2.8
		c-0.4-0.9-1.3-1.1-2.1-0.5c-0.3,0.2-0.4,0.6-0.7,0.7c-1.8,1.2-2.7,2.9-2.9,5c0,0.3-0.2,0.7-0.4,0.9c-0.2,0.2-0.5,0.2-0.8,0.3
		c-0.1-0.3-0.3-0.5-0.3-0.8c-0.1-0.9,0-1.8-0.1-2.7c-0.2-1.2-0.9-1.5-2-0.9c-1.5,0.8-1.9,2.2-2.2,3.7c-0.1,0.6,0.1,1.1,0.6,1.5
		c0.3,0.2,0.5,0.4,0.7,0.7c-1.4,1.4-3,2.1-4.9,2.6c0.2-0.3,0.2-0.5,0.3-0.7c0.3-0.6,0.7-1.2,0.9-1.8c0.4-1,0.2-1.5-0.8-1.8
		c-0.6-0.2-1.3-0.2-1.9-0.3c-0.6-0.1-1.2-0.1-2-0.1c0.3-0.5,0.6-0.7,0.7-1c0.2-0.6,0.6-0.8,1.2-0.9c0.8-0.1,1.7-0.4,2.4-0.9
		c1-0.7,2.2-1.1,2.9-2.2c0.1-0.1,0.3-0.2,0.5-0.3c1-0.5,1-1.2,0-1.8c-0.3-0.2-0.8-0.2-1.2-0.2c-0.8,0.1-1.6,0.3-2.5,0.4
		c0-0.8,0.5-1.5,0.8-2.2c0.2-0.6,0.6-0.9,1.2-1.1c0.9-0.2,1.7-0.7,2.4-1.3c0.6-0.5,1.2-1.1,1.8-1.7c0.4-0.3,0.6-0.7,0.3-1.2
		c-0.2-0.5-0.6-0.7-1.1-0.6c-1,0.1-1.9,0.5-2.4,1.4c-0.3,0.4-0.5,0.8-1.2,0.9c0.1-0.4,0.1-0.8,0.1-1.2c0.2-1.2,0.4-2.4,0.6-3.6
		c0.1-0.9-0.2-1.2-1.1-1.5c-0.9-0.2-1.4-0.1-1.7,0.7c-0.2,0.4-0.3,0.8-0.5,1.2c-1.2,2.1-0.9,4.1,0.4,6c0.4,0.6,0.3,1-0.1,1.5
		c-0.5-0.2-1.1-0.5-1.6-0.7c-0.8-0.3-1.9,0-2.2,0.5c-0.4,0.5-0.4,1.2,0.3,2c0.5,0.6,1.2,1.1,1.8,1.8c0.2,0.2,0.5,0.6,0.4,0.8
		c-0.2,0.6-0.5,1.2-0.9,1.9c-0.3-0.5-0.4-0.8-0.7-1c-0.2-0.2-0.6-0.3-0.8-0.2c-0.5,0.2-1.1,0.4-1.5,0.8c-0.3,0.3-0.4,0.9-0.7,1.3
		c-0.2,0.4-0.9,0.3-1,0.9c-0.2,0.9-0.2,1.7,0.1,2.6c0.2,0.6,0.2,1.1-0.2,1.6c-0.2,0.2-0.4,0.4-0.6,0.4c-0.2,0-0.4-0.3-0.5-0.5
		c-0.2-0.4-0.3-0.9-0.6-1.4c-0.3-0.6-1.2-1-1.7-0.9c-0.6,0.1-1,0.7-1.1,1.5c0,0.3,0,0.5,0,0.8c0,0.3-0.1,0.6-0.1,0.9
		c-1.5,0-2.4,1.1-3.7,1.8c-0.4-0.5-0.7-0.9-1.1-1.3c0.4-1.1,1-1.8,2-2.3c0.9-0.5,1.7-1.3,2.5-2c0.5-0.5,0.4-0.9-0.3-1.1
		c-0.7-0.3-1.4-0.3-2-0.1c-1.2,0.5-2.5,0.9-3,2.1c-0.6,1.2-1.5,1.6-2.8,0.4c-0.4-0.4-0.8-0.7-1.3-1.1c-0.1,0.5-0.2,0.8-0.3,1
		c-0.2,0.6-0.4,1.3-1.2,1.5c-0.4,0.1-0.5,0.5-0.4,0.9c0.2,0.9-0.2,1.4-0.8,2c-0.1-0.4-0.1-0.7-0.2-1c-0.1-0.2-0.4-0.5-0.5-0.5
		c-0.9,0.3-2,0.2-2.5,1.2c-0.1,0.2-0.3,0.3-0.5,0.5c-1.3-1-2.3-0.3-3.3,0.8c-0.4-0.6-0.6-1-0.9-1.5c-0.4-0.7-1-1.3-1.8-1.2
		c-0.8,0.1-1.4-0.2-2.1-0.5c-0.9-0.4-1.1-0.3-1.5,0.6c-0.2,0.4-0.4,0.9-1,0.8c-1,0-2-0.2-3.1-0.3c0.1-0.2,0.2-0.4,0.3-0.5
		c0.4-0.5,0.8-1,1.2-1.6c0.3-0.4,0.3-0.9,0-1.3c-0.3-0.4-0.7-0.4-1.1-0.3c-0.8,0.1-1.7,0.2-2.5,0.3c-0.1,0-0.2-0.1-0.4-0.1
		c-0.1-0.3-0.1-0.6-0.2-0.9c-0.5-0.3-0.8-0.6-1.1-1c-0.3-0.4-0.6-0.6-1.1-0.6c-0.3,0-0.7,0.1-1,0.1c0.2-0.5,0.3-0.8,0.4-1.2
		c0.2-0.5,0.1-1-0.4-1.3c-0.5-0.3-1-0.1-1.4,0.3c-0.5,0.5-0.9,1-1.4,1.5c0,0-0.1,0-0.1-0.1c-0.2-1.5-0.6-2.9-2.4-3.5
		c-0.2-0.1-0.4-0.4-0.4-0.6c0.1-0.8-0.2-1.3-0.7-1.9c-0.3-0.4-0.4-0.9-0.6-1.4c-0.1-0.4-0.2-0.8-0.3-1.1c-0.6-1.5-2-1.8-3.1-0.5
		c-0.2,0.2-0.4,0.5-0.6,0.7c-0.2-0.4-0.4-0.7-0.6-0.9C90.1,7,90,6.5,90.1,5.8c0.1-1.3-0.7-2-2-1.8c-0.3,0.1-0.7,0.1-1.2,0.2
		c0.1-0.5,0.2-0.7,0.3-1c0.2-0.6,0.2-1.1-0.1-1.7c-0.3-0.5-0.8-0.2-1.1-0.4c-0.1,0-0.1-0.1-0.2-0.1c-0.8-0.2-1-0.2-1.5,0.6
		c-0.3,0.5-0.6,0.9-1,1.3c-1.6-1.7-1.6-1.7-3.7-1.4C79,2.6,78.5,3.4,78,4.3c-0.2-0.8-0.3-1.6-0.3-2.3c0-0.5-0.1-0.9-0.6-1.2
		c-0.5-0.3-0.9,0-1.3,0.3c-0.5,0.4-0.9,0.9-1.3,1.4c-0.2-0.1-0.5-0.2-0.7-0.3c-0.7-0.2-1.5-0.5-2.2-0.6c-1.1-0.2-1.6,0.5-1.4,1.6
		c0.1,0.3,0.1,0.6,0.2,0.9c-2.2,1.3-2.3,1.4-0.8,4.2c-0.6-0.1-1.1-0.2-1.6-0.2c-0.6,0.1-1.1,0.3-1.7,0.5c-0.2-0.5-0.2-1.1-0.5-1.5
		c-0.2-0.3-0.6-0.7-0.9-0.8c-0.3,0-0.7,0.3-1,0.6c-0.2,0.2-0.3,0.6-0.6,0.9c-0.4,0.4-0.4,0.8-0.3,1.3c0.3,1.3,0.2,1.5-1.1,1.5
		c-0.9,0.1-1.4,0.8-1.1,1.7c0.1,0.3,0.3,0.6,0.5,1c-0.7,0.2-1.3,0.7-2,0.5c-0.8-0.3-1.4-0.1-2.1,0.3c-0.3,0.2-0.6,0.3-0.9,0.5
		c-0.1-0.2-0.3-0.4-0.4-0.5c-0.8-1-1.2-1.1-2.3-0.4c-0.2,0.2-0.5,0.4-0.7,0.6c-0.4,0.7-1,0.8-1.7,0.9c-0.3-0.6-0.5-1.2-0.8-1.8
		c-0.9-1.5-2.3-1.6-3.5-0.2c-0.5,0.6-0.9,1.2-1.6,1.6c-1.1-1-2.4-1.3-3.9-1.2c-1.4,0.1-1.9,0.7-1.5,2c0.3,0.9,0.8,1.8,1.3,2.7
		c0.2,0.4,0.5,0.8,0.8,1.2c-0.8,0.6-1.4,1.2-2.1,1.8c-0.1-0.2-0.2-0.2-0.3-0.3c-0.1-0.1-0.1-0.3-0.1-0.4c-0.5-0.9-1.1-1.1-1.9-0.4
		c-0.5,0.4-0.8,0.9-1.2,1.4c-0.3,0.3-0.7,0.7-1,1c-0.1-0.1-0.1-0.1-0.2-0.2c0.1-0.2,0.1-0.4,0.2-0.6c0.2-0.5,0.5-0.9,0.6-1.4
		c0.4-1.1,0.1-2.3-0.8-2.9c-0.5-0.3-0.9-0.3-1,0.2c-0.2,1.1-1.2,1.4-1.9,2c0.1-0.2,0.1-0.5,0.2-0.8c-0.3,0.2-0.5,0.3-0.7,0.5
		c0.1-2.8-0.4-3.6-2.3-3.5c-0.1,0.3-0.3,0.6-0.5,1c-0.7-0.8-1.3-1.4-1.9-2.1c-0.6-0.7-1.4-0.9-2.3-0.7c-0.9,0.2-1.1,0.9-1.3,1.6
		c0,0.1,0,0.2-0.1,0.3c-0.2,0.9-0.3,1-1.2,1c-0.6,0-1.2,0-1.8,0c-0.8,0-1.5,0.3-1.9,1.1c0.4,1,0.8,2.1,1.3,3.1
		c-0.4,0.2-0.8,0.3-1.1,0.6c-0.5,0.4-1.1,0.8-1.5,1.3c-0.8,1-0.5,1.8,0.6,2.4c0.3,0.2,0.5,0.3,0.8,0.5c-0.6,0.5-1.1,0.9-1.5,1.4
		c-0.7,0.9-0.4,2,0.7,2.3c0.6,0.2,1.2,0.1,1.8,0.2c0.8,0.1,1.6,0.2,2.4,0.3c0,0.1,0,0.2,0,0.3c-0.6,0.3-1.2,0.7-1.7,1
		c-1.3,0.8-1.4,1.2-0.4,2.4c0,0.1,0.1,0.1,0.1,0.3c-0.5,0.5-0.9,1-1.4,1.6c-0.6,0.7-0.1,1.4-0.1,2.1c-0.6,0.4-1.1,0.7-1.7,1
		c-0.6,0.4-1.1,0.9-1,1.8c0.1,0.5-0.1,1-0.2,1.5c0,0.1-0.1,0.2-0.1,0.2c0.5,0.3,0.2,1.3-0.5,1.1c-1-0.3-1.8-0.8-2.5-1.4
		c-0.2-0.2-0.2-0.5-0.1-0.8c1.2-1.7,1.9-4.3,0.3-6c-0.1-0.1-0.1-0.2-0.2-0.3c-0.3,0.2-0.5,0.4-0.7,0.7c-0.2,0.3-0.3,0.6-0.3,0.9
		c-0.1,0.7-0.1,1.4-0.1,2.2c0,0.5,0,1-0.1,1.6c0,0.1,0,0.3,0,0.4c0,0,0,0.1,0,0.1c0,0,0,0,0,0c-0.2,0.3-0.7,0.5-1,0.2
		C8,39,10.1,35.3,9.3,32.6c-0.1-0.2,0-0.4,0.1-0.5c-0.3,0-0.5,0.2-0.8,0.5c-0.3,0.5-0.6,1.1-0.8,1.6c-0.1,0.1-0.1,0.3-0.2,0.5
		c0,0.1,0.1,0.1,0.1,0.2c0.4,0.7-0.7,1.4-1.1,0.6c-1.4-2.7,1-5.3,0.3-8c0,0,0-0.1,0-0.1c-0.2,0.1-0.4,0.2-0.5,0.4
		c-0.2,0.4-0.3,0.8-0.4,1.3c-0.1,0.4-0.2,0.7-0.3,1.3c-0.1-0.1-0.1-0.1-0.1-0.2c-0.3,0.3-0.9,0.3-1.1-0.3c-0.6-2.2,1.1-4.2,1.1-6.4
		c0,0,0,0,0,0c-0.4,0-0.7,0.3-1,0.8c-0.2,0.3-0.4,0.6-0.6,1c-0.3-0.2-0.5-0.3-0.7-0.5c-0.2-0.2-0.4-0.4-0.6-0.5
		c-1.1-0.7-1.9-0.4-2.1,0.9c-0.1,0.8,0,1.7,0.3,2.4c0.1,0.3,0.3,0.5,0.4,0.7c0.6,0.1,1.2,0.3,1.7,0.4c0.4,0.1,0.5,0.4,0.4,0.7
		c0.5,0.1,0.6,0.3,0.7,1.3c-0.4,0.1-0.7,0.1-1.1,0.2c-0.7,0.1-1.3,0.5-1.7,1c-0.4,0.5-0.6,1-0.4,1.6C0.8,33.7,0.9,33.9,1,34
		c0.1-0.2,0.3-0.4,0.6-0.4h3.7c0.6,0,0.8,0.7,0.5,1c0.4,0.3,0.6,0.8,0.7,1.7c-0.4,0.1-0.8,0.2-1.2,0.3c-1.1,0.3-1.5,1-1.3,2.1
		c0.1,0.5,0.3,0.9,0.6,1.1c0.1-0.1,0.2-0.2,0.4-0.2c0.9,0,1.8,0,2.7-0.3c0.5-0.2,0.8,0.3,0.8,0.7c0.2,0,0.4,0.1,0.5,0.2
		c0.4,0.4,0.7,0.9,1.1,1.5c-0.4,0-0.7,0.1-1,0.1c-1,0-1.8,0.4-2.4,1.2c-0.5,0.5-0.9,1.1-0.5,1.9c0.2,0.4,0.5,0.7,0.9,0.9
		c1.3-0.5,2.5-1.2,3.9-1.3c0-0.4,0.3-0.7,0.8-0.6c0.6,0.2,1,0.3,1.4,0.8c0.3,0.4,0.2,0.9-0.3,1.1c-0.6,0.2-1.2,0.5-1.9,0.6
		c-0.1,0.7-0.2,0.7-0.6,1c-0.2,0.2-0.5,0.3-0.6,0.5c-0.5,0.9-1.3,1.5-2.1,2.1c-0.4,0.3-0.7,0.6-1,1c-0.9,1.2-0.7,2.4,0.4,3.4
		c0.3,0.2,0.5,0.4,0.8,0.6c-0.1,0.3-0.2,0.5-0.3,0.7c-0.4,1.2,0.1,1.8,1.4,1.7c0.3,0,0.7,0,1-0.1c-0.1,0.8-0.4,1.5-0.3,2.2
		c0.1,0.9,1.1,0.9,1.7,1v1.8c-0.4,0.5-1,1-1,1.5c0,1.1-0.6,1.6-1.5,1.9C8.5,65.8,8.3,66,8,66.2c-0.7,0.5-1,1.2-0.7,2
		C7.5,68.6,7.8,69,8,69.5c0.3,0.4,0.6,0.8,1,1.3c-0.4,0.4-0.7,0.6-1,0.9c-0.7,0.7-1,2.7-0.4,3.2c0.7,0.6,1.6,1.1,2.6,1.1
		c1.3,0,2.6,0.2,3.8-0.5c0.1,0.2,0.1,0.2,0.1,0.2c-0.2,0.4-0.4,0.8-0.6,1.2c-0.5,1-0.4,1.2,0.5,1.8c0.5,0.3,1.1,0.6,1.1,1.3
		c0,0.2,0.3,0.5,0.6,0.7c1.1,0.6,2.3,0.7,3.4,0.1c0.7-0.3,1.1-0.4,1.6,0.1c0.4,0.4,1,0.5,1.4,0.2c0.7-0.7,1.5-0.7,2.5-0.6
		c0.4,0.1,0.7-0.2,1.1-0.2c0.4,0,0.9,0,1.2,0.2c0.5,0.4,1.1,0.6,1.7,0.5c0.4,0,0.7,0.1,1,0.5c0.9,1.4,1.7,1.6,3.2,0.8
		c0.9-0.5,1.8-1.1,2.6-1.7c0.9-0.8,1.8-0.9,2.9-0.4c1.1,0.5,1.6,0.3,2.4-0.5c0.6-0.6,1.3-1.1,1.7-1.8c0.2-0.3,0.7-0.4,1.1-0.5
		c0.9-0.2,1.1,0,1.2,0.9c0.1,0.5,0.2,1,0.7,1.3c0.5,0.3,0.9,0.6,1.4,1c0.4,0.3,0.7,0.4,1.1,0c0.2-0.2,0.4-0.4,0.6-0.6
		c0.8-0.8,1.8-1,2.8-1.2c0.6-0.1,1.3-0.2,2-0.3c1.9,1,3.2,1,4-0.4c-1.3-0.4-0.8-1.4-0.6-2.3c0.2-0.7,0.5-1.3,1.2-1.9
		c0,0.4,0,0.7,0,0.9c0,0.3-0.1,0.5-0.2,0.8c-0.1,0.8,0.2,1,1,1.1c0.4,0.1,0.8,0.2,1.2,0.4c0.5,0.2,1.1,0.3,1.6,0.5
		c0.3,0.1,0.7,0,1.1,0c0.1,0.9,0.6,1.3,1.4,1.3c0.1,0,0.4,0.2,0.4,0.4c0.1,0.8,0.7,1.2,1.3,1.6c-0.1,0.3-0.3,0.5-0.4,0.8
		c-0.3,0.6-0.7,1.4-0.1,1.9c0.6,0.6,1.3,0.3,1.9,0c0.9-0.4,1.7-0.6,2.6-0.2c0.4,0.2,0.7,0.3,0.9,0.7c0.4,1,1.2,1.2,2.1,0.6
		c0.2-0.1,0.3-0.2,0.4-0.4c0.7-0.9,1.6-1.2,2.7-1c0.2,0,0.5,0,0.7,0c1-0.5,2-0.9,3.2-0.4c0.3,0.1,0.8-0.1,1.1,0
		c1.1,0.3,1.4,0.2,2-0.8c0.4-0.6,0.7-1.2,1.1-1.7c0.2-0.3,0.6-0.5,1-0.9c0.2,0.6,0.3,1,0.4,1.4c0.2,0.8,0.7,1.2,1.6,1.3
		c0.4,0.1,0.9,0.2,1.3,0.4c1.4,0.5,2.6-0.3,2.7-1.7c0-0.3,0-0.7,0.1-1c0.1-0.5,0.4-0.8,1-0.7c0.9,0.2,1.7,0,2.4-0.6
		c0.6,1.1,1.7,1.2,2.7,1.1c1.5-0.1,2.9-0.7,4-1.5c1-0.7,2.2-0.7,3.2-1.3c0.1-0.1,0.3,0,0.5,0c0.6,0,1.2,0,1.7-0.1
		c0.7-0.2,1,0.1,1.4,0.5c0.4,0.4,0.4,0.9,0.1,1.4c-0.2,0.3-0.4,0.6-0.3,0.8c0.2,1.1,0.3,2.3,0.7,3.4c0.3,1,1.5,1.1,2.1,0.3
		c0.2-0.2,0.3-0.5,0.4-0.8c0.6,0.4,2.1,0.5,2.7,0.2c0.6-0.3,1-0.3,1.6-0.1c1.2,0.4,2.1-0.3,2.3-1.5c0-0.3,0.1-0.6,0.1-0.9
		c0.7-0.2,1.1,0,1.4,0.5c0.4,0.5,0.8,0.9,1.3,1.3c0.3,0.3,0.7,0.4,1.1,0.1c0.2-0.2,0.6-0.2,0.9-0.1c0.8,0.2,1.5,0.1,2.1-0.5
		c0.4-0.4,0.9-0.6,1.5-0.4c0.5,0.2,0.9,0,1.3-0.3c0.2-0.2,0.5-0.4,0.7-0.6c0.3-0.3,0.6-0.5,1-0.3c0.5,0.2,0.6,0.6,0.5,1.1
		c0,0.4-0.1,0.8-0.1,1.2c1.3,0.4,1.4-1.4,2.6-1.3c-0.1,0.5-0.2,0.9-0.3,1.4c-0.2,1.2,0.2,1.6,1.5,1.5c0.4-0.1,0.7-0.1,1,0.3
		c0.8,0.9,1.1,0.9,2,0c1-0.9,1.9-1.9,2.9-2.9c0.4,0,0.9,0,1.3-0.1c0.5-0.2,0.9,0,1.2,0.3c1,1,2,1.1,2.9,0.3c0.5-0.4,0.9-0.3,1.3,0.1
		c0.7,0.6,1.6,0.7,2.1,0.2c0.3-0.2,0.5-0.5,0.7-0.8c1.2,0.6,1.4-0.4,1.8-1.3c0.3,0.6,0.4,1.1,0.6,1.6c0.4,1.1,1.1,1.4,2.1,0.6
		c0.3-0.3,0.6-0.6,0.9-0.9c0.3-0.2,0.6-0.5,0.8-0.5c1,0,1.5-0.6,1.8-1.5c0.4,0.2,0.8,0.4,1.1,0.5c0.3,0.1,0.6,0.2,0.9,0.1
		c1.6-0.5,2.3-1.7,2.1-3.3c-0.1-0.6-0.2-1.2-0.3-1.8c0.7-0.4,1.2-0.7,1.8-1c0.5-0.3,1.1-0.4,1-1.1c-0.1-0.7,0.4-1.6-0.7-2
		c-0.4-0.2-0.4-0.7,0.1-0.9c0.2-0.1,0.5-0.1,0.7-0.2c1.3-0.5,2.6-1,3.8-1.6c0.3-0.1,0.6-0.5,0.8-0.8c0.1-0.3,0-0.7,0-1.1
		c0.2,0,0.6,0,0.8-0.1c1.3-0.7,2.6-1.6,3.6-2.7c0.7-0.8,0.6-1.6-0.4-2.2c-0.2-0.1-0.3-0.2-0.8-0.5c0.4-0.2,0.7-0.3,0.8-0.5
		c0.6-0.6,0.6-1-0.1-1.5c-0.4-0.3-0.9-0.6-1.4-0.8c-0.3-0.1-0.6-0.2-0.9-0.3c0.9-0.5,0.8-0.5,1.6-0.3c0.9,0.2,1.8,0.7,2.7,0.6
		c1.2-0.1,2.3-0.5,3.4-0.9c1.4-0.5,1.5-1,1-2.4c0-0.1-0.1-0.3-0.1-0.3c0.6-0.7,1.3-1.2,1.7-1.9c0.5-0.8-0.3-1.6-0.5-2.3
		C180.1,49.4,180.1,49.3,180.2,49.2z"/>
	<g>
		<path d="M5.4,30.3c0.2-0.7,0.3-1.4,0.5-2.1c0.1-0.4,0.4-0.8,0.8-0.6c0.2,0.1,0.5,0.5,0.5,0.8c0.1,1.3,0,2.7-0.8,3.9
			c-0.6,0.9-0.6,1.6-0.1,2.4c0.4,0.6,0.7,1.2,1.1,2.1c0.2-0.7,0.4-1.2,0.5-1.7c0,0.7-0.1,1.4,0,2.1c0,0.5,0.1,1,0.7,1.1
			c1.4-1.7,1.5-4.4,0.1-5.6c-0.3,0.9-0.5,1.7-0.8,2.5c0.1-0.7,0.1-1.5,0.3-2.2c0.1-0.3,0.4-0.8,0.5-0.7c0.3,0.1,0.7,0.3,0.9,0.6
			c0.2,0.4,0.3,0.9,0.4,1.4c0.1,1.5-0.1,2.9-0.8,4.2c-0.3,0.6-0.3,1,0.1,1.5c0.6,0.7,0.9,1.6,2,1.9c0-1.5,0-3,0-4.4
			c0-0.5,0.2-1.1,0.4-1.5c0.2-0.3,0.6-0.6,1-0.6c0.3,0,0.7,0.4,0.8,0.7c0.2,0.9,0.3,1.9,0.3,2.8c0,0.7-0.2,1.5-0.4,2.1
			c-0.2,0.5-0.7,0.9-1.1,1.4c0.3-0.5,0.7-1,0.8-1.6c0.2-1.2,0.3-2.5,0.4-3.8c0-0.7-0.4-1.3-0.8-1.2c-0.6,0.1-0.8,0.6-0.9,1.1
			c-0.5,1.5-0.5,2.9-0.2,4.4c0.1,0.4,0.5,0.7,0.7,1.1c0.7,0.8,1.5,1.3,2.5,1.6c0.9,0.3,1.7,0.7,2.7,1.1c-0.7,0.7,0,1.3-0.1,2
			c-0.3-0.3-0.5-0.6-0.7-0.8c-0.4,0.1-0.9,0.3-1.1,0.1c-1-0.8-2-0.4-2.9,0c-0.4,0.1-0.8,0.4-1.2,0.7c1,1.1,2.7,0.9,3.5,2.2
			c-0.3-0.1-0.5-0.2-0.8-0.3c-1.1-0.4-2.2-0.8-3.3-0.8c-0.3,0-0.7,0.1-1,0.3c-0.6,0.4-0.6,0.9,0,1.9c-0.3,0-0.6,0-0.8-0.1
			c-1-0.4-1.6,0.3-2.1,1c-0.6,0.7-0.7,1.5-0.3,2.4c0.1,0.3,0.5,0.5,0.8,0.5c1,0.1,1.9-0.1,2.7-0.6c0.8-0.5,1.7-0.8,2.6-1.2
			c0.2-0.1,0.5,0.1,0.7,0.1c0,0.1,0,0.2,0.1,0.2c-0.4,0.2-0.9,0.5-1.3,0.7c-0.9,0.4-1.8,0.8-2.7,1.2c-0.8,0.4-1.3,1-1.8,1.8
			c1.6,0.6,2.9-0.7,4.5-0.3c-0.4,0.4-0.7,0.7-0.9,1c-0.4,0.5-0.8,1.1-1.2,1.7c-0.1,0.2,0,0.6,0.1,0.8c0.1,0.1,0.5,0.1,0.7,0
			c0.9-0.6,1.8-1.3,2.7-2c0.3-0.2,0.6-0.6,0.9-0.8c0.1,0.5-0.3,0.7-0.6,1c-0.8,0.8-1.6,1.5-2.5,2.2c-0.5,0.4-1.1,0.5-1.6,0.1
			c-0.5-0.3-0.5-1-0.2-1.7c0.3-0.5,0.6-1,1.1-1.7c-0.7,0.2-1.2,0.3-1.8,0.4c-0.6,0.1-1.3,0.4-1.7-0.3c-0.4-0.6,0.2-1.1,0.6-1.6
			C7.9,55,8,54.9,8.1,54.7c-0.2-0.1-0.3-0.2-0.4-0.2c-1.9-0.3-2.7-2-1.5-3.6c0.4-0.5,1.1-0.9,1.6-1.3c0.3-0.2,0.7-0.4,0.9-0.7
			c0.7-1.1,0.7-1.1,1.9-1.5c-0.1-0.5,0-0.9,0.5-1.1c0.4-0.2,0.9-0.3,1.3-0.5c0.3-0.1,0.7-0.3,1.1-0.5c-1.4-1.6-3.1-2.5-5-2.8
			c-0.7-0.1-2.2,1-2.4,1.7C6.1,44.7,6.3,45,6.7,45c0.6,0.1,1.3,0.1,1.9,0c0.7-0.2,1.3-0.5,2-0.8c0.2-0.1,0.4-0.1,0.7-0.1
			c-0.1,0.2,0,0.4-0.1,0.4c-1.1,0.6-2.3,1.2-3.7,1.2c-0.4,0-0.8-0.1-1.1-0.2c-0.8-0.4-0.9-1-0.5-1.7c0.7-1,1.6-1.7,3-1.5
			c0.4,0.1,0.8,0.1,1.4,0.2c-0.7-1-1.3-1.7-1.8-2.5c-0.3-0.4-0.6-0.4-1.1-0.3c-0.7,0.2-1.4,0.3-2.1,0.3c-1,0-1.6-0.4-1.8-1.4
			c0.9,1,2.1,1.1,3.4,0.8c0.7-0.2,0.8-0.5,0.5-1.2c-0.4-0.8-1.2-1.2-2.1-1c-0.9,0.1-1.4,0.7-1.8,1.4c-0.1-0.9,0.1-1.3,0.8-1.6
			c0.6-0.2,1.3-0.3,2.1-0.5c-0.3-0.9-0.7-1.8-1.2-2.6c-1,0.1-2,0.2-2.9,0.2c-0.4,0-0.8,0-1.2-0.1c-0.7-0.2-1-0.7-0.7-1.4
			c0.4-1,1.6-1.7,2.7-1.5c0.3,0.1,0.7,0.1,1.2,0.1c-0.4-0.8-0.7-1.5-1-2.1c-0.1-0.2-0.4-0.3-0.6-0.4c-0.3-0.2-0.7-0.3-1.1-0.4
			c-1.6-0.6-1.8-1.4-1.5-3.4c0.1-0.8,0.7-1,1.4-0.6c0.6,0.4,1.2,0.9,1.9,1.5c0.2-0.4,0.3-0.7,0.5-1.1c0.1-0.3,0.2-0.7,0.5-0.9
			c0.4-0.5,1-0.3,1.2,0.2c0.1,0.2,0.1,0.6,0.1,0.8c-0.4,1.2-0.8,2.4-1.2,3.5c-0.1,0-0.2-0.1-0.3-0.1c0.3-0.7,0.5-1.4,0.8-2.1
			c0.2-0.7,0.8-1.3,0.1-2.1c-1.5,1.1-1.7,4.5,0,6.9C5.1,30.7,5.2,30.5,5.4,30.3c0,0.6,0,1.3,0,2.1c1-0.5,1.1-1.2,1.3-1.9
			c0.2-0.8,0.5-1.7-0.2-2.5C5.8,28.6,5.8,29.6,5.4,30.3z M2.4,33.6C2.4,33.6,2.4,33.7,2.4,33.6c0.6,0,1.1,0,1.7-0.2
			c0.7-0.1,0.9-0.5,0.5-1.1c-0.7-1.2-2.5-1.2-3.4-0.1c-0.2,0.3-0.3,0.7-0.4,1c0.3,0.1,0.6,0.3,1,0.4C1.9,33.7,2.2,33.6,2.4,33.6z
			 M0.7,24.6C0.1,26.8,0.9,28,3,28.1c-0.2-0.7-0.4-1.3-0.6-2C2.2,25.2,1.9,24.9,0.7,24.6z M12.7,43.5c0,0.1-0.1,0.1-0.1,0.2
			c0.7,0.6,1.5,1,2.3,1.3c0-0.1,0.1-0.2,0.1-0.3C14.3,44.3,13.5,43.9,12.7,43.5z"/>
		<path d="M35.4,54.9c0.6,0.9,1.8,1.2,2.4,2.3c-0.6,0.1-0.9-0.3-1.3-0.5c-0.8-0.5-1.6-0.7-2.5-0.6c-0.4,0-0.9,0.1-1,0.6
			c0,0.3,0.2,0.7,0.5,0.9c0.4,0.3,1,0.6,1.5,0.8c0.3,0.1,0.5,0.3,0.9,0.4c-0.5,0.5-1,0.2-1.3,0.1c-1.6-0.4-3.2-0.2-4.7,0.6
			c-0.4,0.2-0.9,0.6-1,1c-0.1,0.6,0.6,0.7,1,0.9c0.7,0.3,1.4,0.5,2.1,0.7c-0.9,0.4-2.1,0.1-3.1-0.5c-0.6-0.4-1.2-0.7-1.2-1.5
			c0-0.6-0.5-0.7-1-0.4c-0.3,0.2-0.5,0.4-0.8,0.7c-0.2,0.2-0.5,0.3-0.8,0.5c-0.1-0.1-0.1-0.2-0.2-0.2c0.2-0.3,0.4-0.6,0.6-0.9
			c0.3-0.5,0.1-0.8-0.4-0.9c-0.3,0-0.6,0-0.9,0.1c-0.7,0.2-0.8,0.5-0.5,1.2c0.1,0.2,0.3,0.5,0.4,0.7c0.1,0.2,0.2,0.4,0.2,0.7
			c-0.9-0.3-1.4-1-1.3-1.9c0-0.7,0.4-1.1,1.3-1.3c0.7-0.1,1.4-0.2,2,0.5c0.1,0.1,0.4,0.2,0.6,0.2c0.7-0.2,1.2,0.2,1.6,0.8
			c1.4-0.8,2.8-1.7,4.7-1.5c-0.5-0.7-0.8-1.1-1.1-1.6c-0.3,0.1-0.6,0.1-0.9,0.2c-0.4,0-0.8,0.1-1.2,0c-0.5-0.1-1-0.4-1.1-1
			c-0.1-0.6,0.2-1,0.7-1.4c0.2-0.2,0.5-0.3,0.9-0.5c-0.3-0.4-0.7-0.9,0-1.3c-0.2-0.2-0.4-0.3-0.5-0.4c-0.4-0.4-0.5-0.7,0-1.1
			c0.4-0.3,0.8-0.5,1.3-0.8c-0.2-0.4-0.4-0.8-0.6-1.2c0,0,0.1-0.1,0.1-0.1c0.3,0.4,0.6,0.8,1,1.1c0.4,0.3,0.8,0.5,1.4,0.9
			c-1.1,0.4-2.3-0.6-3.1,0.7c0.6,0.7,1.6,0.5,2.5,1c-0.6,0.2-1,0.4-1.5,0.6c0.3,0.2,0.5,0.4,0.7,0.7c-0.3,0.5-0.8,0.4-1.1,0.5
			c-0.9,0.3-1.4,0.7-1.4,1.2c0,0.5,0.7,0.8,1.6,0.7c0.5,0,1.1-0.2,1.6-0.3c0.8-0.2,1.5-0.5,2.3-0.8c-0.1-0.1-0.2-0.4-0.4-0.6
			c0-0.1,0.1-0.2,0.1-0.2c1.9-0.7,3.8-0.8,5.7-0.3c1.2,0.3,2.1,1.5,2,2.7c-0.1-0.2-0.2-0.3-0.3-0.4c-0.6-1.6-1.9-2.2-3.5-2.1
			c-1,0-2,0.1-3,0.2C35.4,54.7,35.4,54.8,35.4,54.9z"/>
		<path d="M26.5,79.4c-1.4,0.7-2.5,1.9-3.6,0.1c-0.3,0.4-0.6,0.7-0.9,1c-0.3,0.3-0.6,0.7-1.2,0.6c-0.5-0.1-0.7-0.5-0.8-1
			c0-0.1-0.1-0.3-0.2-0.6c-0.4,0.3-0.8,0.6-1.1,0.9c-0.2,0.2-0.4,0.4-0.6,0.5c-0.2,0.1-0.5,0.1-0.6,0c-0.1,0-0.2-0.3-0.1-0.5
			c0.2-0.6,0.4-1.3,0.5-1.9c0.1-0.5,0.8-0.9,1.5-1.1c-0.5,0.9-1.2,1.7-1.4,3c1.2-0.7,2-1.4,3-2c-0.1,0.3-0.3,0.5-0.4,0.8
			c-0.2,0.4-0.3,0.9,0.2,1.3c0.5,0.3,0.8-0.1,1.2-0.4c1.4-1.3,2.2-3,3.2-4.6c0.3-0.5,0.6-0.9,0.9-1.4c0.1,0,0.2,0.1,0.2,0.1
			c-0.1,0.2-0.2,0.4-0.3,0.6c-0.7,1.2-1.5,2.3-2.1,3.5c-0.3,0.4-0.6,1-0.1,1.5c0.5,0.4,1,0.1,1.5-0.2c1-0.4,1.6-1.2,2.2-2.1
			c0.2-0.3,0.4-0.6,0.7-1c0.3,0.6,0,0.9-0.2,1.2c-0.3,0.4-0.6,0.9-0.9,1.4c-0.2,0.4-0.4,1,0.1,1.2c0.3,0.2,0.9,0.1,1.3-0.1
			c0.8-0.4,1.3-1,1.7-1.8c0.7-1.7,1.9-3.1,3.2-4.4c0.2-0.2,0.4-0.4,0.6-0.5c0.6-0.3,0.8-0.1,0.9,0.7c-0.3-0.1-0.5-0.3-0.7-0.3
			c-0.2,0-0.5,0.2-0.7,0.4c-0.5,0.6-0.9,1.2-1.4,1.8c0.1,0.1,0.1,0.1,0.2,0.2c0.6-0.4,1.2-0.8,2-1.3c-0.3,1.2-1.5,1.7-1.3,2.9
			c1.5,0,2-1.5,3.1-2.1c0.7,0.9,0.8,1.4,0.3,2.1c-1.2,1.7-2.3,3.3-4.2,4.3c-0.3,0.2-0.7,0.3-1.1,0.5c-1,0.3-2.2-0.2-2-1.6
			c0-0.1,0-0.3,0-0.5c-0.6,0.1-1.2,0.4-1.8,0.4C26.7,81,26.5,80.3,26.5,79.4z M32.5,76.9c-1.2,0.5-2.8,3.2-2.6,4.4
			c0.1,0.5,0.4,0.8,0.9,0.7c0.5-0.1,1.1-0.2,1.5-0.5c1.7-0.8,2.8-2.3,3.9-3.7c0.3-0.4,0.5-0.8-0.1-1.3c-0.3,0.3-0.6,0.5-0.8,0.7
			c-0.3,0.3-0.6,0.5-0.9,0.7c-0.5,0.3-1,0.6-1.5,0.2C32.6,78,32.6,77.4,32.5,76.9z"/>
		<path d="M51.3,71.3c0,0.2,0,0.3-0.1,0.5c-0.2,1,0,1.2,1.1,0.9c0.9-0.2,1.5-0.8,2.1-1.4c0.3-0.3,0.6-0.6,1-0.9
			c0.1,0.1,0.1,0.1,0.2,0.2c-0.4,0.5-0.9,1-1.1,1.6c-0.3,0.6-0.8,1.1-0.6,2.1c0.6-0.2,1.1-0.3,1.6-0.5c0.5-0.2,0.9-0.5,1.6-0.8
			c-0.3,0.7-0.6,1.2-0.7,1.8c-0.2,0.6-0.3,1.2-0.4,1.8c-0.1,0.6-0.7,1.1-0.4,1.8c0.4,0.1,0.8,0.2,1.3,0.2c-0.3,0.5-0.7,0.4-1,0.4
			c-0.6-0.1-1.1-0.4-1.8-0.1c-0.1,0-0.4-0.2-0.5-0.4c-0.2-0.2-0.2-0.5-0.4-0.8c-0.8,0.6-1.3,1.7-2.4,0.9c-0.5,0.3-1,0.6-1.5,0.7
			c-0.6,0.1-0.8-0.5-1-1c-0.6,0.7-1.1,1.4-1.6,2c-0.6-0.1-0.8-1-1.6-0.7c0,0-0.4-0.5-0.5-0.8c0-0.5,0.1-1.1,0.1-1.5
			c-0.5,0-1,0-1.5,0c-0.2,0-0.5,0-0.6,0.1c-0.5,0.3-1,0.4-1.5,0c-0.4-0.4-0.4-0.9,0-1.6c0.1-0.1,0.2-0.2,0.4-0.4
			c0,0.6-0.1,1.1-0.1,1.6c1.4,0.3,1.7-1,2.6-1.5c-0.1,0.4-0.2,0.8-0.3,1.4c1.3,0,1.4-1.4,2.3-1.9c-0.2,1.4-1,2.5-0.8,3.9
			c0.4-0.1,0.8-0.1,1.2-0.2c0.1,0.3,0.2,0.5,0.3,0.8c0.1,0,0.2,0,0.2-0.1c1-1.4,2.1-2.7,2.2-4.6c0-0.2,0.3-0.3,0.5-0.4
			c0,1.4-0.8,2.7-0.6,4.2c1.6,0.1,1.5-1.3,2.2-2c0,0.6,0,1.1,0,1.8c1.4-0.3,1.8-1.3,2.5-2.3c0.1,0.7,0.1,1.4,0.2,2.1
			c0.1,0,0.2,0,0.3,0.1c1.3-0.9,1-2.4,1.7-3.8c-0.7,0.1-1.1,0.2-1.6,0.3c-0.9,0.1-1.1-0.1-0.9-0.9c0-0.3,0.1-0.5,0.2-0.9
			c-0.3,0.1-0.6,0.1-0.8,0.2c-0.3,0.1-0.5,0.2-0.8,0.2c-0.4,0-0.9-0.1-1.1-0.3c-0.2-0.2,0-0.8,0.1-1.1
			C50.9,71.5,51.1,71.4,51.3,71.3L51.3,71.3z"/>
		<path d="M27.1,15.7c-0.5-0.3-0.9-0.6-1.4-0.8c-0.7-0.3-1.2-0.2-1.5,0.2c-0.4,0.5-0.4,1.2,0.1,1.7c0.6,0.5,1.3,1,1.9,1.5
			c0.4,0.3,0.8,0.6,0.9,1.3c-0.6,0.1-0.8-0.2-1-0.5c-0.4-0.4-0.8-0.7-1.5-0.5c-0.2,0.1-0.6-0.1-0.8-0.2c-1.2-0.7-2.5-0.8-3.8-0.7
			c-0.8,0.1-1,0.4-0.7,1.2c0.2,0.4,0.4,0.8,0.5,1.1c0.4,0.9,1.1,1.6,2.2,1.5c0.1,0,0.2,0.1,0.3,0.1c0,0,0.1,0,0.2,0.1
			c-0.5,0.5-1,0.4-1.6,0.3c-1-0.1-1.9,0.2-2.8,0.6c-0.2,0.1-0.5,0.3-0.6,0.5c-0.6,0.7-0.6,1.3,0.3,1.6c0.9,0.3,1.9,0.4,2.9,0.7
			c0.2,0.1,0.5,0.1,0.7,0.2c0,0.1,0,0.2,0,0.3c-0.4,0.1-0.8,0.1-1.1,0.3c-0.9,0.4-1.8,0.8-2.7,1.3c-0.3,0.2-0.6,0.7-0.5,1
			c0.1,0.3,0.6,0.5,1,0.6c0.5,0.2,1.1,0.2,1.7,0.3c-0.8,0.3-2.2,0.3-2.8-0.1c-0.6-0.4-0.7-1.2-0.2-1.7c0.4-0.4,0.9-0.8,1.3-1.1
			c0.3-0.2,0.6-0.3,1.1-0.6c-0.6-0.2-1.1-0.4-1.6-0.6c-1.2-0.5-1.5-1.3-0.7-2.3c0.3-0.4,0.7-0.7,1.2-0.9c0.5-0.3,1.1-0.4,1.7-0.7
			c-0.3-0.6-0.6-1.1-0.9-1.6c-1-2-0.6-2.6,1.7-2.6c0.5,0,0.9,0,1.4,0.1c1,0.1,1.3-0.1,1.3-1.1c0-1.1,0.6-1.9,1.6-1.9
			C26,14.2,26.7,14.7,27.1,15.7L27.1,15.7z"/>
		<path d="M64.2,17.2c-1.8,1.3-3.6,1-5.1-0.7c-0.7,0.6-0.6,2.1-1.9,2.2c0.4-0.7,0.8-1.5,1.2-2.2c0.1-0.2,0.2-0.4,0.2-0.5
			c0-0.5,0.3-1.2-0.3-1.5c-0.3-0.1-1,0.1-1.3,0.4c-1,0.7-1.9,1.5-2.9,2.3c-0.1,0.1-0.3,0.2-0.4,0.3c-0.1-0.1-0.1-0.1-0.2-0.2
			c0.2-0.4,0.5-0.7,0.7-1c0.4-0.5,0.5-1,0.4-1.6c0-0.2-0.2-0.5-0.3-0.5c-0.2,0-0.6,0-0.7,0.2c-0.5,0.6-0.9,1.2-1.4,2
			c0.1-1.1,0.5-1.8,1.2-2.4c0.2-0.2,0.7-0.3,1-0.2c0.3,0.1,0.5,0.5,0.7,0.8c0.1,0.3,0,0.6,0,1.1c0.7-0.5,1.4-0.9,2.1-1.3
			c0.7-0.4,1.4-0.6,1.9,0.1c1-0.3,1.8-0.6,2.9-1c-0.4-0.4-0.7-0.6-0.9-0.8c-0.5-0.5-0.5-1.1,0.2-1.3c0.5-0.2,1.1-0.2,1.7-0.3
			c0.1,0,0.3,0,0.4,0c0-0.8-0.1-1.6,0-2.4c0-0.5,0.2-1.1,0.4-1.5c0.1-0.2,0.6-0.5,0.8-0.4c0.2,0,0.5,0.4,0.6,0.7
			c0.3,0.6,0.2,2.5,0,3.3c-0.6-1.1,0.4-2.5-0.8-3.6c-0.2,0.3-0.5,0.5-0.5,0.8C64,8.6,64,9.5,64,10.4c0,0.1,0.4,0.3,0.6,0.4
			c0.1,0.6,0.3,1.3,0.5,2.3c-1.1-1.8-2.4-2.1-3.9-1.2c0.8,1.3,2.6,1.4,3.5,2.6c-0.3-0.1-0.5-0.2-0.8-0.3c-0.7-0.3-1.4-0.6-2.2-0.1
			c-0.3,0.2-0.7,0.1-1,0.2c-1.3,0.3-1.7,1.2-0.8,2.3c0.8,0.9,1.7,1,2.8,0.9C63.2,17.4,63.6,17.3,64.2,17.2z"/>
		<path d="M13,71.3c-0.7,0.6-1.4,0.4-2,0.2c-1.2-0.3-2.1,0.1-2.9,0.8c-0.4,0.4-0.5,0.9-0.3,1.5c0.4,1.1,1.1,1.5,2.6,1.7
			c-0.8,0.6-1.8,0.3-2.6-0.7C7,74,6.7,73.1,7.2,72.5c0.5-0.6,1.2-1.1,1.8-1.5c-0.4-0.5-0.8-0.9-1.3-1.4C6.3,68,6.6,66.8,8.5,66
			c0.5-0.2,1-0.3,1.5-0.5c0.2-0.1,0.4-0.2,0.7-0.3c-0.2-0.3-0.3-0.6-0.4-0.9c-0.3-0.8-0.2-1.1,0.7-1.3c0.2,0,0.5-0.1,0.9-0.1
			c-0.3-0.3-0.5-0.4-0.7-0.6c-0.6-0.6-0.5-1,0.1-1.4c1.8-1.1,4.7-0.3,5.6,1.6c0,0.1,0,0.1-0.1,0.4c-0.9-1.2-1.9-2-3.4-1.9
			c-0.7,0-1.4-0.1-2,0.6c1,1.3,2.7,1.5,4,2.5c-1,0.4-1.6-0.4-2.4-0.4c-0.8,0-1.6-0.5-2.4,0c0.1,1,1.1,1.3,1.5,2.1
			c-0.3,0.1-0.5,0.1-0.7,0.1c-1.1,0-2.1,0.2-3.1,0.7c-1.2,0.6-1.3,1.3-0.5,2.3c0.9,1.1,2,1.9,3.5,1.7C12,70.5,12.6,70.5,13,71.3z"/>
		<path d="M147.6,39.8c-0.4,0.3-0.8,0.7-1.3,1.1c0-0.8,0.4-0.9,0.7-1.2c0.6-0.6,0.7-0.8,0.2-1.8c-0.6,0.4-1.1,0.8-1.7,1.2
			c-0.1-0.1-0.1-0.1-0.2-0.2c0.2-0.2,0.4-0.5,0.6-0.7c0.3-0.3,0.6-0.6,0.9-0.9c0.9-0.7,1.2-1.5,0.7-2.1c-0.6-0.7-2-0.8-2.7-0.2
			c-0.4,0.3-0.7,0.7-1.2,1.2c-0.1-0.7,0.3-0.9,0.5-1.2c0.3-0.4,0.6-0.8,0.7-1.3c0.2-0.6,0-1-0.7-0.8c-0.9,0.1-1.6,0.6-2.3,1.3
			c-0.4,0.4-0.8,0.9-1.3,1.3c-0.1-0.1-0.2-0.1-0.3-0.2c0.1-0.2,0.3-0.5,0.4-0.7c0.5-0.6,1-1.2,1.4-1.8c0.5-0.7,0.3-1.1-0.5-1.2
			c-0.8-0.1-1.6,0-2.3,0.6c-0.2,0.2-0.4,0.4-0.8,0.5c0.7-1.5,1.7-2.9,2-4.5c-0.7-0.4-1.3-0.1-1.7,0.1c-2.2,1.3-3.8,3.1-4.8,5.5
			c-0.1,0.1,0,0.3-0.1,0.7c-0.3-0.7-0.2-1.3,0-1.7c1.2-2.1,2.8-3.8,4.9-4.9c0.1-0.1,0.2-0.1,0.3-0.1c0.6,0,1.3-0.1,1.6,0.2
			c0.5,0.4,0,1-0.2,1.5c-0.2,0.5-0.5,1.1-0.8,1.7c1.4,0.1,2.9-0.5,3.2,1.5c0.4,0,0.9-0.1,1.3-0.1c0.9,0,1,0.2,1.1,1.1
			c0,0.1,0,0.2,0,0.5c0.5,0.1,0.9,0.2,1.4,0.3c0.6,0.1,1.1,0.4,1.3,1c0.2,0.7,0.6,0.9,1.2,1c0.4,0.1,0.7,0.2,1,0.3
			c0,0.1,0,0.1-0.1,0.2c-0.3,0-0.6-0.1-1-0.1c-0.3,0-0.6,0-1,0c0.1,0.4,0.2,0.8,0.3,1.2c-0.3-0.2-0.5-0.3-0.9-0.6
			C147.8,38.3,148,39.1,147.6,39.8L147.6,39.8z"/>
		<path d="M51.6,64.3c-0.3-0.5-0.5-1-0.1-1.7c1,0.4,2,0.9,3,1.3c0-0.1,0.1-0.1,0.1-0.2c-0.3-0.3-0.5-0.6-1-1.1
			c0.8,0.2,1.3,0.4,1.9,0.5c0-0.3-0.1-0.5-0.2-0.6c-1.4-0.9-2.1-2.3-2.8-3.7c-0.2-0.5-0.4-1,0.2-1.6c0.8,0.5,1.7,1,2.7,1.6
			c-0.2-0.3-0.3-0.6-0.4-0.9c-0.3-0.3-0.6-0.5-0.9-0.8c0,0.1,0,0.1,0,0.2c-0.3-0.1-0.6-0.3-0.9-0.4c-0.8-0.3-1.4,0-1.4,0.9
			c0,0.5,0.2,1,0.4,1.4c0.5,1,1.1,1.9,1.7,2.8c-0.6,0.6-1.3,0.5-2.1,0.2c-0.7-0.3-1.1,0.1-0.9,0.8c0.1,0.6,0.3,1.2,0.6,1.7
			c0.8,1.3,2,1.9,3.4,2.3c0.5,0.1,1,0.2,1.5,0.3l0-0.2c-0.4-0.1-0.8-0.2-1.2-0.3C53.8,66.3,52.4,65.7,51.6,64.3z"/>
		<path d="M33.2,27.7c-0.9-0.8-0.6-2.1-1.7-2.7c-0.6,0.3-0.6,0.9-0.4,1.4c0.2,0.8,0.5,1.5,0.8,2.3c0.1,0.2,0.2,0.5,0.4,0.9
			c-0.3-0.2-0.5-0.2-0.5-0.3c-0.6-1.1-1.1-2.3-1-3.6c0-0.2,0-0.5,0.1-0.7c0.2-0.6,0.7-0.7,1.1-0.3c0.3,0.3,0.5,0.6,0.8,1
			c0.1-0.3,0.2-0.5,0.3-0.7c0.1-0.3,0.1-0.5,0.2-0.8c0.4-1.2,0.9-1.4,2.2-1.1c0.4-0.7,0.8-1.4,1.3-2c0.2-0.3,0.4-0.5,0.6-0.7
			c0.8-0.7,1.4-0.5,1.7,0.5c0.1,0.4,0.1,0.9,0.2,1.5c0.2-0.2,0.3-0.4,0.5-0.6c0.4-0.4,0.8-0.9,1.3-1.3c0.4-0.3,0.9-0.6,1.3-0.2
			c0.3,0.3,0.3,0.8,0.5,1.2c0,0.1,0,0.2,0,0.2c-0.4,1.6-0.8,3.2-1.3,4.8c0,0.1-0.2,0.2-0.5,0.2c0.2-0.6,0.4-1.2,0.6-1.9
			c0.2-0.7,0.4-1.3,0.5-2c0.2-0.7,0.4-1.3,0-2.1c-0.3,0.1-0.6,0.1-0.8,0.3c-1,0.7-1.6,1.7-2.1,2.8c-0.1,0.3-0.3,0.7-0.5,1
			c-0.4-0.7,0-1.4,0-2.1c0-0.7,0.1-1.5-0.3-2.1c-1.5,0.5-2.6,2.4-2.2,3.8c0.1,0.5,0.2,1.1,0.2,1.7c0,0.2-0.2,0.4-0.5,0.9
			c-0.2-0.5-0.4-0.8-0.4-1.1c-0.1-0.4,0-0.8,0-1.3c0-0.5-0.1-1.1-0.7-1.2c-0.6-0.1-0.9,0.5-1,0.9c-0.2,0.7-0.2,1.5-0.3,2.3
			C33.3,27,33.3,27.3,33.2,27.7z"/>
		<path d="M108.2,22.2c-0.4,0.5-0.8,0.9-1.3,1.5c1.5-0.1,2.9-0.5,4.4,0.3c0.3-0.3,0.6-0.7,0.9-1.1l0,0c0.3,0.2,0.5,0.5,0.8,0.7
			c-0.4,0.6-0.4,0.6-1,0.2c-0.7,0.8-1.3,1.7-2,2.6c0.9,0.1,1.8-0.2,2.4,0.7c-0.2,0.2-0.3,0.5-0.6,0.8c1.1,0.3,1.6,1,1.4,2.1
			c-0.1-0.2-0.2-0.5-0.3-0.7c-0.4-0.9-1.5-1.2-2.3-0.7c-0.2,0.1-0.3,0.4-0.3,0.6c0,0.1,0.3,0.3,0.5,0.4c0.2,0.1,0.5,0.1,0.8,0.1
			c0.8,0.1,1.3,0.5,1.6,1.3c-0.1,0-0.3,0.1-0.3,0.1c-0.6-0.8-1.5-0.9-2.3-1.1c-0.5-0.2-0.9,0-1.2,0.3c-0.2,0.3-0.5,0.5-0.9,0.6
			c0.3-0.5,0.7-0.9,0.9-1.4c0.2-0.5,0.4-1.1,0.6-1.6c-0.7-0.4-1.4-0.1-1.9,0.7c-0.3,0.5-0.6,0.9-0.9,1.4c0,0-0.1,0.1-0.3,0.1
			c0-0.9,1.2-1.6,0.4-2.5c-1,0-1.1,1.1-1.8,1.5c0-1.1,0.9-2.2,1.8-2c0.7,0.1,1.1-0.1,1.6-0.4c0.9-0.6,1.7-1.2,2-2.4
			c-1.6-1-3.1,0-4.6,0.1C106.3,23.5,107.3,22.6,108.2,22.2L108.2,22.2z M109.9,26.9c1,0.9,1.1,0.9,1.5,0
			C111,26.9,110.6,26.9,109.9,26.9z"/>
		<path d="M150.4,21.9c-0.1,0.3-0.2,0.7-0.4,0.9c-0.5,0.5-0.7,1-0.5,1.7l0,0c-0.3-0.3-0.6-0.5-0.9-0.7c0.3-1.1,0.6-2.1,1-3.2
			c-1,0.5-1.9,1-2.8,1.4c-1,0.5-2,0.7-3.1,0.5c-0.6-0.1-1.1,0.1-1.6,0.5c-0.6,0.5-1.3,1-1.9,1.4c-2.1-0.8-2.4-2.6-1.9-4.1
			c0.3-1,0.9-1.1,1.7-0.5c0.6,0.5,0.9,1.2,1,1.9c0.1,0.4,0.2,0.7,0.3,1.1c1.2-0.2,1.7-1,2.1-1.8c-0.9-1.8-1-2.5-0.3-4.1
			c0,1.3-0.4,2.6,0.7,3.6c0.1,0,0.3,0,0.3,0c1.3-1.3,2.9-1,4.4-0.9c0.6,0.1,1.2,0.2,1.8,0.3c0.5,0.1,0.6,0.5,0.5,0.9
			C150.9,21.2,150.6,21.5,150.4,21.9c0.1-0.4,0.3-0.9,0-1.4c-0.7,0.5-0.8,1.1-0.8,2C150,22.3,150.2,22.1,150.4,21.9z M138.6,21.4
			c0.1,0.4,0.3,1,0.6,1.6c0.3,0.6,0.8,0.7,1.2,0.5c0.5-0.2,0.6-0.6,0.5-1.1c-0.1-0.5-0.2-1-0.4-1.4c-0.1-0.3-0.4-0.7-0.7-0.9
			c-0.5-0.4-1-0.2-1.1,0.4C138.6,20.7,138.6,21,138.6,21.4z M148.9,20c-1.6,0-3-0.5-4.2,0.8c0.4,0.1,0.6,0.2,0.9,0.2
			c-0.3,0.9-1.4-0.2-1.7,0.7C145.1,22.4,147.6,21.6,148.9,20z"/>
		<path d="M50.9,52.1c-0.2-0.1-0.3-0.2-0.5-0.2c-0.5-0.3-0.8-0.7-0.4-1.3c0.1-0.2,0.2-0.4,0.3-0.6c-0.1-0.4-0.1-0.8-0.2-1.2
			c-0.1-0.1-0.2-0.3-0.3-0.5c-0.5-1.1-1.4-1.7-2.6-1.7c-1.1,0-2.2,0.2-2.5,1.5c-0.7-0.2-1-1-1.8-0.7c0,0.3,0,0.6-0.1,1
			c-0.8-0.2-1.5-0.4-2.2-0.5c-0.8-0.1-1.5,0.2-1.8,0.8c-0.4,1.1,0.4,3,1.5,3.4c0.5,0.2,0.9,0.2,1.2-0.3c-0.6-0.2-1.3-0.3-1.6-0.6
			c-0.4-0.5-0.6-1.3-0.7-2c-0.1-0.4,0.2-0.7,0.7-0.8c0.3,0,0.7-0.1,1,0c0.9,0.3,1.7,0.6,2.6,1c-0.1-0.5-0.1-0.9-0.3-1.6
			c0.9,0.4,1.3,1.2,1.8,1.7c0.5,0.5,0.7,1.4,1.8,1.8c-0.3-0.7-0.4-1.1-0.6-1.5c-0.2-0.4-0.5-0.8-0.7-1.2c-0.4-0.7-0.2-1.1,0.5-1.4
			c1.4-0.7,3.3,0.3,3.6,1.8c0,0.2,0,0.5-0.1,0.6c-0.7,1.5-0.6,1.8,0.7,2.8c0.1,0.1,0.2,0.2,0.4,0.3c-0.2,0.2-0.4,0.3-0.7,0.7
			c0.5-0.2,1-0.3,1.4-0.2C51.2,52.8,51.1,52.4,50.9,52.1z"/>
		<path d="M123,23.5c-0.2,0.2-0.3,0.3-0.4,0.5c-0.3,0.3-0.5,0.6-0.8,1c-1.4-1.3-2.2-1.1-3.1,0.5c-0.1,0.2-0.2,0.3-0.4,0.6
			c-0.1-0.3-0.1-0.4-0.2-0.5c-0.2-0.5-0.4-1-1-1c-0.6,0-0.9,0.5-1,1.1c-0.4,1.2-0.2,3.8,0.5,5c-0.1-0.5-0.1-0.8-0.1-1.2
			c0-1-0.1-2.1-0.1-3.1c0-0.5,0.1-1.1,0.9-1.4c0.2,0.5,0.4,0.9,0.6,1.3c0.1,0.4,0.1,0.9,0.2,1.4c0.1,0.4-0.2,0.9,0.3,1.4
			c0.1-0.8,0.2-1.4,0.4-2.1c0.2-0.6,0.4-1.2,0.7-1.7c0.2-0.3,0.6-0.5,1-0.6c0.5-0.1,0.7,0.4,0.8,0.8c0,0.7,0,1.4-0.1,2.2
			c0,0.4-0.3,0.8,0.2,1.3c0.2-0.7,0.3-1.1,0.4-1.6c0.1-1.4,0.7-2.6,1.6-3.6c0.3-0.3,0.7-0.5,1.2-0.8C123.9,23.3,123.5,23.4,123,23.5
			z"/>
		<path d="M127.6,25.4c-0.6,0.1-1.2,0.4-1.8,0.7c-0.3,0.1-0.5,0.5-1,0.5c0.1-0.4,0.2-0.8,0.2-1.2c0.1-0.5,0.2-1,0.2-1.5
			c0-0.3-0.1-0.7-0.3-1c-0.1,0.1-0.3,0.1-0.4,0.2c0.5,2.2-0.4,4-0.5,5.9c0.5-0.1,0.9-0.3,0.8-0.9c0-0.2,0-0.5,0.2-0.6
			c0.8-0.6,1.6-1.2,2.5-1.6c0.3-0.2,0.7,0.1,0.6,0.6c0,0.4-0.1,0.7-0.1,1.1c0.2-0.3,0.5-0.7,0.6-1C128.6,25.7,128.3,25.3,127.6,25.4
			z"/>
		<path d="M22.8,41c-0.6,1.1-1.5,1.8-2.6,2.4c-1.1,0.6-2.2,0.5-3.2,0.1c-0.9-0.3-1.4-1.2-1.2-2.1c0.2-0.8,0.5-1.5,1.2-2
			c0.6-0.4,1.2-0.9,1.9-1.3c-0.1-0.2-0.2-0.4-0.3-0.5c-0.5-0.9-0.4-1.6,0.4-2.2c0.3-0.3,0.7-0.4,1.1-0.7c0.3-0.2,0.6-0.4,1.1-0.7
			c-0.7-0.3-1.2-0.4-1.6-0.7C19,33,19,32.7,19.4,32.3c0.3-0.3,0.7-0.5,1.1-0.7c0.6-0.4,1.3-0.7,1.9-1.1c-0.1-0.5-0.4-1-0.3-1.4
			c0-0.3,0.4-0.6,0.7-0.9c0,0.2,0.1,0.3,0.1,0.4c-0.2,0.3-0.7,0.6-0.3,1c0.2,0.2,0.7,0.3,1,0.3c0.6,0,1.3-0.2,1.9-0.3
			c0.1,0.8-0.3,0.9-0.8,1c-1.4,0.3-2.8,0.7-4.1,1.5c-0.3,0.2-0.6,0.5-1,0.8c0.9,0.9,2.1,0.5,3.3,0.9c-0.6,0.4-1,0.6-1.4,0.8
			c-0.5,0.3-1.1,0.5-1.7,0.8c-0.3,0.1-0.5,0.3-0.8,0.5c-0.3,0.3-0.6,0.7-0.3,1.1c0.2,0.3,0.7,0.4,1.1,0.5c0.3,0.1,0.6-0.1,1.1-0.2
			c-0.2,0.6-0.6,0.7-0.9,0.8c-1.1,0.3-2,1.1-2.9,1.8c-0.2,0.2-0.4,0.4-0.6,0.7c-0.7,1.2-0.2,2.3,1.1,2.7c0.9,0.2,1.8,0.1,2.5-0.4
			c0.6-0.4,1.1-0.8,1.7-1.2C22.2,41.4,22.5,41.2,22.8,41z"/>
		<path d="M131.9,77.6c-0.1,0.5-0.4,0.9-0.8,1.1c-0.7,0.4-1.3,0.7-2,0c-0.1-0.1-0.6-0.2-0.7-0.1c-0.3,0.3,0,0.5,0.3,0.7
			c0.2,0.1,0.4,0.2,0.6,0.3c0.8,0.5,1,1.1,0.6,1.9c-0.1,0.2-0.2,0.3-0.3,0.6c0.9-0.4,1.1-0.6,0.9-1.2c-0.4-1.2,0.2-1.8,1.1-2.3
			c0.2-0.1,0.3-0.2,0.4-0.4c0.2-0.2,0.3-0.3,0.4-0.5C132.3,77.8,132.1,77.7,131.9,77.6z"/>
		<path d="M74.1,22.3c0.9,0.3,1.7,0.6,2.7,1C76.5,23.9,76,24,75.4,24c-0.6,0.1-1.2,0.1-1.7,0.3c-0.8,0.3-1.1,0.9-0.6,1.6
			c0.5,0.9,0.8,2,2.5,1.8c-1,0.6-1.1,0.6-1.6,0.1c-0.4-0.4-0.8-0.9-1.3-1.5c-0.4,0.6-0.8,1.1-1.2,1.7c1.1,0.2,2.1,0,2.6,1.1
			c0.2,0.4,0.3,0.8,0,1.3c-0.1-0.1-0.2-0.1-0.2-0.1c-0.3-1.4-0.7-1.7-2.1-1.6c-0.6,0.1-1.2,0.2-2,0.4c0.2-0.3,0.3-0.5,0.5-0.7
			c0.5-0.6,1.1-1.1,1.6-1.8c0.1-0.2,0.2-0.6,0.1-0.7c-0.2-0.2-0.5-0.3-0.8-0.3c-1.3,0.1-2,1.1-2.5,2.1c-0.1,0.1-0.1,0.3-0.3,0.4
			c0-0.2-0.1-0.4-0.1-0.5c0.3-1.3,1.6-2.4,3-2.5c0.6-0.1,1-0.2,1.4-0.8c0.3-0.4,0.9-0.5,1.4-0.6c0.4-0.1,0.9-0.1,1.3-0.2
			c0-0.1,0-0.2,0.1-0.2c-0.7-0.3-1.4-0.7-2.1-1c0.1-0.7,0.5-0.8,1-0.9c0.7-0.1,1.3-0.2,1.6-0.9c0.1-0.3,0.6-0.4,1-0.5
			c1.4-0.2,3,0.9,3.6,2.3c-0.7-0.5-1.4-1.2-2.2-1.7c-0.7-0.5-1.2-0.4-2.1,0.2c0.3,0.9,1.4,0.3,1.8,1c-0.8,0.4-1.4-0.3-2.1-0.2
			c-0.7,0-1.3,0.1-2,0.2C74.1,22,74.1,22.2,74.1,22.3z"/>
		<path d="M97.3,72.3c-0.4-0.1-0.6-0.2-0.7-0.4c-0.2-0.1-0.5-0.3-0.7-0.4c0,0.3,0.1,0.5,0.1,0.7c-0.4,0.7-0.8,1.2-1.2,1.8
			c-1-0.1-2,0.6-2.2,1.4c-0.1,0.8,0.4,1.5,1.3,1.7c-0.3-0.4-0.5-0.6-0.7-1c-0.3-0.6-0.2-0.9,0.4-1.2c0.6-0.2,1.1-0.2,1.7,0
			c0.6,0.2,1.2,0.4,1.9,0.6c0.7,0.2,0.7,0.1,0.9-0.8c-0.8-0.1-1.5-0.3-1.7-1.4c0.9,0.3,1.7,1,2.5,0c0-0.1,0-0.2-0.1-0.3
			C98.3,72.8,97.8,72.6,97.3,72.3z"/>
		<path d="M90.1,68c0,0.2,0.1,0.3,0.2,0.4c0.4,0.4,1,0.7,1.8,0.9C91.5,68.9,90.8,68.4,90.1,68z"/>
		<path d="M164.1,58.1c-0.3,0.5-0.6,1-0.9,1.6c0.7-0.1,1.2-0.3,1.8-0.3c0.4,0,0.9,0.2,1.2,0.5c0.4,0.4,0.1,0.9-0.2,1.3
			c-0.3,0.4-0.5,0.7-0.8,1.2c0.7-0.1,1.4-0.2,2-0.1c0.4,0,0.8,0.2,1.1,0.5c0.3,0.4,0.1,0.9-0.3,1.2c-0.4,0.4-0.8,0.8-1.2,1.2
			c-0.2,0.2-0.5,0.4-0.8,0.7c0.4,0.3,0.8,0.5,1.1,0.8c0.6,0.6,0.5,1.4-0.2,1.8c-1.6,0.7-3.3,1.3-5.1,1.3c-0.3,0-0.7-0.2-1-0.4
			c1.6,0.1,3.1-0.4,4.6-0.8c0.4-0.1,0.7-0.3,1-0.4c0.9-0.4,0.6-1.4-0.2-1.6c-0.4-0.1-0.8-0.2-1.2-0.3c-0.2,0-0.4,0-0.8-0.1
			c0.4-0.3,0.6-0.4,0.8-0.5c1-0.4,1.9-1,2.5-1.9c0.2-0.2,0.3-0.7,0.2-0.8c-0.2-0.2-0.6-0.4-0.9-0.4c-1.2,0-2.3,0.6-3.4,1
			c-0.3,0.1-0.6,0.3-0.9,0.4c0-0.1-0.1-0.1-0.1-0.2c0.7-0.5,1.4-1,2-1.6c0.4-0.3,0.8-0.8,1-1.2c0.4-0.7,0.2-1.1-0.6-1.2
			c-0.8-0.1-1.5,0.2-2.2,0.6c-0.3,0.1-0.5,0.3-0.9,0.6c0.1-0.8,0.7-1.1,1-1.6c0.3-0.5,0.7-0.9,1-1.4C164,58,164.1,58.1,164.1,58.1z"
			/>
		<path d="M73.5,8.7c-0.1-0.4-0.1-0.6-0.2-0.8c-0.1-0.5,0.2-0.7,0.6-0.8c0.2-0.1,0.5-0.1,0.7-0.1c1,0.1,1.9,0.4,2.9,0.4
			c1,0.1,1.5,1,1.7,2c0.2,0.6,0.1,1.3,0.1,2c-0.8-3.2-0.8-3.2-2.2-3.6c0,0.3,0,0.6,0,0.9c-0.4,0.3-0.8,0.2-1-0.3c-0.3-1-1-1-1.7-1
			c-0.7,0-1,0.4-0.6,1.1c0.3,0.5,0.8,0.9,1.3,1.3c0.2,0.2,0.5,0.3,0.6,0.6c-0.6,0.1-1.1-0.2-1.5-0.5c-1.1-0.8-2.3-0.9-3.5-0.8
			c-0.8,0-1.1,0.2-1.7,1c0.6,0.5,1.3,0.9,1.9,1.3c0,0.1,0,0.2,0,0.2c-0.3,0-0.6,0-0.9,0c-1,0-1.3,0.5-1,1.4c0.4,1.5,1.3,2.3,2.9,2.3
			c-1.5,0.5-2.4,0.1-3-1.3c-0.1-0.2-0.2-0.4-0.3-0.6c-0.5-1.3-0.3-1.7,1-2.3c-0.4-0.4-0.7-0.8-1.1-1.3C69.9,7.9,71.6,8.3,73.5,8.7z"
			/>
		<path d="M160.3,73.2c0,0.4,0.2,0.6,0.5,0.8c0.2,0.2,0.5,0.3,0.8,0.3C161.1,74,160.7,73.6,160.3,73.2z"/>
		<path d="M50.2,56.2c-1.7-0.4-3.4-0.4-4.8,0.8c0.7,1.3,2.2,0.5,3.3,1.5c-0.6,0.1-1,0.1-1.4,0.2c-0.8,0.1-1.4,0.4-1.9,1
			c-0.4,0.6-0.3,1.1,0.4,1.2c0.6,0.1,1.1,0,1.7-0.1c0.4-0.1,0.8-0.2,1.3-0.4c-0.8,0.9-2.3,1.3-3.3,1c-0.9-0.3-1.1-1-0.6-1.8
			c0.3-0.4,0.6-0.7,1-1.1c0-0.1,0-0.2-0.1-0.2c-1.3-1-1.2-1.5,0.2-2.2c0.4-0.2,0.9-0.4,1.4-0.6c0-0.4-0.1-0.8,0-1
			c0.3-0.4,0.8-0.6,1.2-0.9c0.1,0.1,0.2,0.2,0.3,0.3c-0.4,0.2-0.7,0.3-1.1,0.5c0.1,0.1,0.1,0.1,0.2,0.2c1.1,0,2.2,0,3.3,0
			c0,0.1,0.1,0.2,0.1,0.2c-0.6,0.2-1.1,0.5-1.7,0.7C49.8,55.8,50.5,55.7,50.2,56.2z"/>
		<path d="M148.1,76.1c0,0-0.1,0.1-0.1,0.1c0.7,1.5,0.5,3.1,0.2,4.6c-0.2,0.8-0.8,1-1.5,0.5c-0.6-0.4-0.9-1-0.8-1.8
			c0.1-0.4,0.2-0.8,0.1-1.2c0-0.2-0.2-0.4-0.4-0.5c-0.3,0.1-0.5,0.3-0.8,0.4c0,0.1,0,0.3,0,0.4c0.3-0.2,0.5-0.3,1-0.6
			c0,0.6-0.1,0.9-0.1,1.3c-0.3,0-0.5-0.1-0.8-0.1c0.1,0.3,0.1,0.5,0.1,0.8c0.1,0.6-0.5,1.5-1.1,1.7c-0.5,0.2-0.9,0-1.5-0.6
			c-0.5-0.6-0.7-1.2-0.6-1.9c-0.2,0-0.5,0.1-0.7,0.1c0,0.3-0.1,0.6-0.2,0.8c-0.4,0.7-1.1,0.6-1.4-0.1c-0.1-0.2-0.1-0.3-0.2-0.5
			c-0.1,0-0.3,0-0.4,0c0,0.4,0.2,0.7,0.3,1.1c0.3,0.6,0.7,0.7,1.3,0.4c0.3-0.1,0.6-0.3,0.8-0.5c1.9,2.3,1.9,2.3,4.1,0.5
			c0.4,0.3,0.7,0.7,1.1,0.9c0.9,0.5,1.7,0.3,1.9-0.6c0.5-1.7,0.3-3.3-0.2-5C148.2,76.2,148.1,76.1,148.1,76.1z"/>
		<path d="M76.4,4.8c-0.5-1.1,0.5-2.1,0-3.3c-1.6,1-1.7,2.4-1.4,4c-0.6-0.1-0.7-0.5-0.7-0.9C74,3.1,72.6,2,71.1,2.2
			c-0.5,0.1-0.6,0.3-0.5,0.7c0.3,0.7,0.6,1.4,1.4,1.7c0.8,0.3,1,0.8,1,1.6c-0.5,0.1-0.8-0.4-1.1-0.6c-0.7-0.6-1.7-0.7-2.4-0.2
			c-0.4,0.3-0.6,0.8-0.2,1.2c0.4,0.3,0.9,0.6,1.4,0.8c0.2,0.1,0.6,0.1,0.8,0.2C70.9,8,70.3,8,69.7,7.7c-0.6-0.4-1.1-0.9-1.1-1.6
			c0-0.6,0.2-1,0.9-1.2c0.4-0.1,0.8-0.2,1.3-0.4c-0.2-0.5-0.4-0.9-0.5-1.3c-0.3-0.9,0-1.4,0.9-1.3c0.8,0.1,1.6,0.5,2.4,0.7
			c0.3,0.1,0.5,0.3,0.8,0.5c0.2-0.2,0.3-0.4,0.5-0.6c0.1-0.2,0.3-0.5,0.4-0.7c0.4-0.6,1.2-1,1.5-0.8c0.6,0.4,0.3,1,0.2,1.5
			C76.9,3.3,76.6,4.1,76.4,4.8z"/>
		<path d="M48.5,16.3c-0.8,0.2-0.9-0.2-1.1-0.5c-0.1-0.2-0.2-0.4-0.3-0.6c-0.2-0.2-0.6-0.5-0.6-0.5c-0.3,0.2-0.5,0.5-0.6,0.8
			c-0.1,0.4,0,0.8-0.1,1.3c-0.3-0.3-0.6-0.6-0.8-1c-1-1.4-2.3-1.6-3.9-1.4c-0.4,0-0.8,0.3-0.6,0.8c0.5,1.9,1.5,3.4,3,4.5
			c0.1,0,0.2,0,0.2,0c0.1,0,0.1,0.1,0.2,0.1c-0.1,0.4-0.2,0.7-0.7,0.3c-1.6-1.3-2.8-2.8-3.3-4.9c-0.2-0.9,0.1-1.3,1.1-1.4
			c1.6-0.1,3.1,0,4.1,1.6c0.7-0.8,1.4-1.5,2-2.3c0.8-1,2-1,2.7,0c0.3,0.5,0.5,1,0.7,1.6c0.1,0.4,0.1,0.8,0.2,1.1c0,0.3,0,0.6-0.1,1
			c-0.1-0.2-0.2-0.3-0.2-0.5c-0.1-0.5-0.1-1.1-0.3-1.6c-0.2-0.5-0.4-1.1-0.8-1.5c-0.5-0.6-1.1-0.6-1.6-0.2c-0.5,0.4-0.6,1-0.2,1.6
			C47.7,15.2,48.1,15.7,48.5,16.3z"/>
		<path d="M133,27.9c0-1.3,1.4-2.1,0.4-3.4c-0.4,0.3-0.7,0.6-1.2,1c-0.1-0.8,0.9-1.4,0.3-2.3c-0.2,0.1-0.5,0.2-0.7,0.4
			c-1.1,1-1.8,2.2-2.1,3.6c-0.1,0.6,0.2,1.2,0.3,1.8c-0.4-0.1-0.6-0.5-0.7-1c0-0.4-0.1-0.9,0-1.3c0.5-1.5,1.2-2.8,2.4-3.8
			c0.8-0.6,1-0.5,1.5,0.4c0.2,0.5,0.7,0.8,1.1,1.3c0.5-0.4,0.9-0.8,1.3-1.1c0.4-0.3,0.8-0.5,1.2-0.7c0.4-0.2,0.9-0.5,1.1,0
			c0.2,0.3,0.1,0.8,0,1.2c-0.1,0.3-0.3,0.6-0.4,0.9c-0.1,0.3-0.2,0.7-0.4,1.2c0.6-0.2,1-0.4,1.5-0.5c-0.6,0.8-1.2,1.2-2.5,1.3
			c0.3-1.3,1.4-2.2,1.5-3.7c-0.3,0-0.5,0-0.7,0.1c-1.2,0.5-2,1.4-2.6,2.5C133.9,26.6,133.7,27.3,133,27.9z"/>
		<path d="M99.4,21.3c-0.8-0.7-1.4-1.5-1.1-2.6c0.2-0.7,0.1-1.4,0-2.1c-0.2,0.3-0.5,0.7-0.7,1c-0.1,0-0.2-0.1-0.3-0.1
			c0.1-0.4,0.1-0.7,0.2-1.1c0.1-0.5,0.2-1.1,0.1-1.6c-0.1-0.3-0.4-0.7-0.7-0.8c-0.2-0.1-0.6,0.2-0.9,0.4c-0.3,0.3-0.4,0.6-0.6,1
			c-0.1,0.1-0.2,0.2-0.5,0.4c0.3-1.3,1.2-2.2,0.6-3.5c-0.2,0.1-0.3,0.1-0.4,0.2c-0.1,0-0.2,0-0.5,0.1c0.3-0.4,0.5-0.7,0.8-1
			c1,0.4,0.5,1.3,0.9,1.9c2.5,0.4,2.6,2.4,2.7,4.4c0.1,0,0.2,0,0.3,0c0.2-0.3,0.3-0.6,0.5-0.8c0.4-0.6,0.9-1.2,1.4-1.8
			c0.2-0.2,0.6-0.3,0.8-0.2c0.2,0.1,0.4,0.5,0.4,0.8c0,0.5-0.2,0.9-0.3,1.4c-0.1,0-0.1,0-0.2,0c0-0.5,0-1,0-1.7
			C100.5,16,100,17,99.5,18C99,19,98.7,20.1,99.4,21.3z"/>
		<path d="M19.7,66.2c-0.4-1.2-0.1-1.7,1.2-2c1.2-0.2,2.2,0,3.1,0.9c0.2,0.2,0.3,0.5,0.4,0.8c-0.5-0.7-1.2-1.2-2.1-1.4
			c-0.6-0.1-1.2,0-1.8,0.3c-0.7,0.3-0.7,0.9,0,1.3c0.3,0.2,0.6,0.3,1,0.4c0.3,0.1,0.6,0.3,1,0.4c0.1,0,0.1,0.1,0.2,0.3
			c-1.3,0.2-2.6-1-4,0.1c0.3,0.2,0.5,0.4,0.7,0.5c0.2,0.1,0.5,0.2,0.7,0.3c-0.1,0.5-0.5,0.4-0.7,0.4c-0.5,0-1-0.2-1.5-0.1
			c-0.6,0-1.2,0.3-1.5,1c-0.2,0.7,0,1.3,0.5,1.8c0.8,0.8,1.8,1.1,2.9,1.1c0.3,0,0.6-0.1,1,0.1c-0.3,0.1-0.5,0.3-0.8,0.3
			c-1.5,0.4-3.2-0.4-3.9-1.7c-0.6-1.1-0.4-2,0.7-2.6c0.7-0.4,1.4-0.7,1.9-1.4C18.7,66.5,19.3,66.4,19.7,66.2z"/>
		<path d="M148.2,51.5c0.7,0.2,0.8,0.4,1.1,0.8c-0.1,0-0.2,0.1-0.3,0.1c0.1,0.1,0.2,0.2,0.3,0.3c0.2-0.1,0.3-0.3,0.3-0.4
			c0-0.2-0.2-0.7-0.5-0.8c-0.5-0.2-0.9-0.3-1.4-0.5C147.9,51.2,148,51.4,148.2,51.5z"/>
		<path d="M147.8,48.9c-0.4,0.5-0.8,0.9-1.3,1.2c0.1,0.1,0.2,0.1,0.3,0.2c0.4-0.3,0.7-0.6,1-0.8c0.5-0.5,0.4-1-0.3-1.2
			c-0.7-0.2-1.5-0.3-2.2,0.2C146.2,48.6,147.1,48.1,147.8,48.9z"/>
		<path d="M161.6,14.8c-0.8,1-1.5,2.1-1.6,3.4c0.1,0.1,0.1,0.1,0.2,0.2c0.4-0.2,0.9-0.4,1.3-0.7c0.7-0.5,1.3-0.9,1.9-1.5
			c0.3-0.3,0.5-0.6,0.8-1c0.3-0.5,0.5-1.1,0.2-1.6c-0.4-0.6-0.9-0.3-1.4-0.3c0.4-0.5,0.8-0.7,1.4-0.4c0.5,0.3,0.7,0.8,0.6,1.4
			c-0.1,0.7-0.3,1.4-0.9,1.9c-0.8,0.7-1.6,1.3-2.4,2c-0.2,0.2-0.5,0.4-0.7,0.5c0.7,0.4,1.4,0.7,2,1.1c0.2,0.2,0.4,0.4,0.6,0.7
			c0.4,0.6,0.2,1-0.6,1.1c-1.3,0.1-2.5,0.2-3.8,0.3c-0.6,0-1.1,0-1.7,0c-0.1,0-0.3-0.1-0.4-0.3c2-0.2,4.1,0.1,6-0.6
			c-0.4-1.5-1.2-1.9-3.6-1.6c0-0.5,0.1-0.9,0.1-1.4c0.1-1.2,0.6-2.1,1.3-3C161.1,14.9,161.4,14.9,161.6,14.8z"/>
		<path d="M179.2,43.5c0.3,0.5,0.7,1,0.6,1.3c-0.1,0.6-0.7,0.7-1.2,0.8c-0.7,0.1-1.4,0.3-2.1,0.4c0.9-0.6,2.2-0.4,2.9-1.4
			c-0.8-1.2-1.8-0.1-2.7-0.3c0.3-0.5,0.7-0.5,1.1-0.6c0.7-0.3,1.4-0.5,1.7-1.3c0.2-0.5,0.3-1,0-1.4c-0.3-0.5-0.8-0.5-1.3-0.4
			c-0.7,0.2-1.5,0.4-2.2,0.6c-0.2,0.1-0.5,0.2-0.8,0.1c0.2-0.2,0.3-0.4,0.5-0.5c0.8-0.5,1.3-1.2,1.6-2c0.2-0.6,0.3-1.2-0.2-1.7
			c-0.5-0.5-1.1-0.5-1.7-0.2c-0.6,0.2-1.2,0.6-1.8,1c-0.6,0.4-1.2,0.9-1.8,1.4c0.8-1.5,2.2-2.3,3.7-2.8c0.6-0.2,1.3-0.3,1.8,0.3
			c0.6,0.7,0.6,1.5,0.3,2.3c-0.1,0.4-0.3,0.8-0.6,1.4c0.5,0,0.9-0.1,1.2-0.1c1.5-0.1,2.2,1,1.6,2.3
			C179.6,42.9,179.3,43.2,179.2,43.5z"/>
		<path d="M45.6,68.6c-0.3-0.3-0.6-0.5-1-0.8c0.4-0.5,0.8-1,1.2-1.5c-0.1-0.1-0.2-0.2-0.4-0.4c-0.5-0.3-0.4-0.7,0-1.1
			c0.6-0.6,1.3-1.1,2-1.6c0.1,0.1,0.1,0.1,0.2,0.2c-0.7,0.6-1.3,1.1-2.1,1.8c1.2,0.7,2.3-0.3,3.3,0.1c-1.2,0.7-2.7,0.9-3.5,2.4
			c0.8,0.1,1.4,0.2,2.2,0.4c-0.3,0.2-0.4,0.3-0.6,0.4c-0.6,0.4-1.2,0.8-1.7,1.3c-0.5,0.5-0.2,1.1,0.5,1.1c0.4,0,0.8,0,1.1-0.1
			c0.9-0.3,1.8-0.8,2.7-1.2c0.3-0.1,0.5-0.2,0.9-0.3c-0.8,0.8-1.8,1.4-2.9,1.8c-0.5,0.2-1.1,0.3-1.7,0.4c-0.5,0-1.1-0.1-1.4-0.7
			c-0.2-0.6-0.1-1,0.3-1.5C45.1,69.2,45.4,68.9,45.6,68.6z"/>
		<path d="M143.7,26.3c0.3-1.1,1.1-1.8,2.3-2.4c-0.2,1.1-0.3,1.9-0.5,3c0.6-0.2,0.9-0.3,1.2-0.4c1.2-0.4,1.7-0.1,1.8,1.2
			c0,0.1,0,0.1,0.1,0.3c0.3,0,0.6,0,0.8-0.1c0.7-0.1,1.3,0.1,1.7,0.7c0.4,0.6,0.3,1.2-0.1,1.7c-0.5,0.6-1.1,1.2-1.7,1.7
			c-0.4,0.3-0.9,0.6-1.4,0.8c-0.2,0.1-0.4,0.1-0.7-0.1c0.4-0.2,0.8-0.4,1.1-0.7c0.6-0.5,1.3-0.9,1.9-1.5c0.6-0.6,0.6-1.5,0.3-1.9
			c-0.4-0.4-1.1-0.6-1.8-0.2c-0.4,0.2-0.8,0.5-1.1,0.7c-0.4,0.3-0.8,0.6-1.2,1c0,0-0.1,0-0.3,0c0-0.5,0.5-0.7,0.7-1
			c0.4-0.5,0.8-1,1-1.5c0.3-0.8-0.2-1.2-1-0.9c-0.5,0.2-1,0.7-1.4,1.1c-0.2,0.2-0.3,0.5-0.6,0.9c-0.3-1.4,0.6-2.5,0.2-3.8
			C144.6,25.5,144.2,25.9,143.7,26.3L143.7,26.3z"/>
		<path d="M103,36.5c1.1-0.7,2.1-1.5,2.7-2.6c0.2-0.4,0.4-1,0.4-1.5c0-0.6-0.4-0.9-1-0.7c-0.8,0.2-1.4,0.7-1.9,1.4
			c-0.4,0.6-0.9,1.2-1.5,2c-0.2-0.8,0.2-1,0.4-1.3c0.4-0.6,0.8-1.1,0.8-1.9c0-0.8-0.5-1.3-1.4-1.1c-0.8,0.2-1.3,0.7-1.6,1.3
			c-0.2,0.4-0.3,0.8-0.6,1.1c-0.2,0.3-0.4,0.7-0.8,1.2c-0.3-0.9,0.5-1.2,0.6-1.7c0.1-0.5,0.3-1.1,0.5-1.7c-1.7,0.3-2.3,1.5-3,2.7
			c0-1.8,1.7-3.3,3.2-2.9c0.3,0.1,0.6-0.1,0.9-0.1c0.3-0.1,0.6-0.3,0.9-0.3c0.8-0.2,1.3,0.1,1.6,0.9c0.1,0.2,0.1,0.4,0.2,0.8
			c0.5-0.3,1-0.6,1.4-0.8c1-0.4,1.8,0.1,1.7,1.3C106.4,34.1,104.7,36.3,103,36.5z"/>
		<path d="M174.5,56.6c1.3,0.4,2.4,0.2,3.4-0.3c0.9-0.4,1-0.9,0.3-1.6c-0.3-0.3-0.8-0.5-1.3-0.7c0.2-0.4,0.7-0.3,1-0.4
			c0.5-0.2,1.1-0.4,1.6-0.7c1-0.7,1-1.8-0.1-2.4c-0.4-0.2-0.9-0.3-1.4-0.4c-0.2,0-0.5,0-0.8-0.1c1-0.7,2.4-0.2,3.3-1.1
			c-0.4-1.2-1.7-1.2-2.3-2c1.1,0,2,0.6,2.6,1.4c0.4,0.5,0.3,0.9-0.3,1.2c-0.2,0.1-0.5,0.3-0.8,0.4c0.2,0.3,0.4,0.6,0.6,0.8
			c0.6,0.9,0.5,1.8-0.4,2.4c-0.5,0.3-1,0.6-1.5,0.9c0.2,0.5,0.5,0.8,0.7,1.2c0.2,0.5,0.1,0.9-0.4,1.2c-1,0.6-2.1,0.8-3.2,0.9
			C175.2,57.4,174.8,57.3,174.5,56.6z"/>
		<path d="M24.5,52.4c-0.5,0.8-1.1,1.6-1.6,2.4c-0.4,0.7-0.8,1.4-1.1,2.1c-0.1,0.3-0.1,0.7,0.1,0.9c0.2,0.2,0.7,0.3,0.9,0.1
			c0.7-0.4,1.3-0.9,2-1.4c0.5-0.4,1-1,1.5-1.4c0.3-0.2,0.6-0.3,1-0.5c0,0.2,0.1,0.3,0,0.4c-1.1,0.6-2.1,1.4-2.9,2.4
			c-0.3,0.4-0.7,0.8-1.2,0.9c-0.9,0.2-1.4,0.9-2,1.4c-0.5,0.4-1.1,0.9-1.7,1.1c-0.9,0.4-1.3,0-1.3-1c0-0.4-0.1-0.8,0.6-1
			c0,0.5,0,1,0,1.6c1-0.2,1.7-0.7,2.2-1.3c0.2-0.2,0.2-0.7,0.1-1c-0.2-0.6-0.2-1.1,0.2-1.6c0.9-1.3,1.8-2.7,2.7-4
			c0.1-0.1,0.2-0.1,0.3-0.2C24.4,52.4,24.5,52.4,24.5,52.4z"/>
		<path d="M103.1,22.2c-0.8,1.1-1.1,2.5-2,3.5c-0.1,0-0.2-0.1-0.2-0.1c0.2-0.4,0.3-0.8,0.5-1.3c0.1-0.3,0.2-0.8-0.2-0.9
			c-0.2-0.1-0.6,0.2-0.8,0.4c-0.3,0.2-0.4,0.6-0.8,0.9c0-0.4,0.1-0.8,0.1-1.2c0-0.3-0.2-0.7-0.4-0.7c-0.2-0.1-0.6,0.1-0.7,0.3
			c-0.3,0.5-0.6,1.1-0.9,1.6c-0.1,0.2-0.2,0.3-0.4,0.6c-0.4-0.9,0-1.8-0.8-2.5c-0.5,0.5-0.3,1.3-0.5,1.9c-0.1,0.7-0.2,1.3-0.4,2
			c-0.3-1.4-0.2-2.8,0.2-4.2c0.1-0.5,0.6-0.6,1-0.2c0.3,0.3,0.5,0.8,0.8,1.2c0.2-0.2,0.4-0.4,0.6-0.7c0.8-1.1,1.3-1.1,2.1-0.1
			c0.6,0.1,1.2,0.1,1.9,0.2C102.4,22.8,102.8,22.5,103.1,22.2L103.1,22.2z"/>
		<path d="M85.2,14.6c-1.3,0.5-1.7,1.8-2.7,2.9c0.1-0.8,0.1-1.4,0.1-1.9c-0.8,0.7-0.8,1.7-1.1,2.8c-0.4-1,0-1.7,0.2-2.3
			c0.2-0.7,0.3-1.5,1.2-2.1c0.1,0.7,0.1,1.2,0.1,1.8c0.5-0.4,1-0.9,1.5-1.2c0.7-0.5,1-0.3,1.2,0.5c0.1,0.3,0.1,0.7,0.2,1.1
			c0.4-0.1,0.6-0.2,0.9-0.3c0.8-0.2,1.5,0.3,1.5,1.1c0,1.2-0.6,2.2-1,3.3c-0.1,0-0.2,0-0.3-0.1c0-0.2,0.1-0.5,0.1-0.7
			c0.2-0.6,0.5-1.3,0.7-1.9c0.2-0.5,0.1-1-0.4-1.2c-0.3-0.1-0.8,0-1.1,0.2c-0.4,0.2-0.6,0.7-0.9,1c-0.3,0.4-0.5,0.8-0.9,1.1
			C84.9,17.3,85.9,16.2,85.2,14.6z"/>
		<path d="M65.7,81.8c-0.1,0.5-0.2,0.9-0.3,1.6c0.5-0.1,0.8,0,1.1-0.2c1.3-0.6,2.4-1.4,2.8-2.8c0.1-0.3,0.3-0.5,0.6-0.7
			c0,1.1-1,2-0.5,3.2c1.1-0.2,0.8-1.4,1.6-1.9c0.7,1.1-0.4,2.4,0.5,3.5c1.3-0.3,1.7-1.5,2.2-2.4c-0.1,1.1-0.6,2.1-1.5,2.7
			c-0.7,0.5-1.4,0.1-1.5-0.7c0-0.4,0-0.9,0.1-1.4c-0.4,0.3-0.8,0.7-1.2,0.7c-0.4,0-0.7-0.5-1.2-0.9c-0.3,0.2-0.7,0.5-1.2,0.8
			c-0.5,0.2-1.1,0.5-1.6,0.5c-0.5,0.1-0.8-0.3-0.7-0.8c0.1-0.5,0.3-0.9,0.5-1.4C65.6,81.8,65.6,81.8,65.7,81.8z"/>
		<path d="M87.7,82.1c-0.2,0-0.5,0-0.7,0c-1,0.1-1.2-0.1-1.5-1c-0.2-0.6-0.3-1.3-0.4-1.9c-1,0.6-1.6,1.3-2.1,2.2
			c-0.4,0.7-0.8,1.5-1.7,1.8c-0.5-0.9-0.2-1.7,0.4-2.5c-0.1,0.6-0.2,1.1-0.3,1.8c0.8-0.1,0.9-0.7,1.2-1.1c0.3-0.4,0.5-0.9,0.8-1.4
			c0.1-0.2,0.2-0.5,0.4-0.6c0.8-0.2,1.1-0.8,1.4-1.5c0.1,0,0.2,0,0.2,0c0.1,0.6,0.1,1.2,0.2,1.8c0.1,0.6,0.2,1.1,0.4,1.7
			c0.1,0.2,0.4,0.3,0.6,0.3c0.1,0,0.3-0.3,0.3-0.5c0-0.3,0-0.7,0-1c0-1.3,0.6-2.1,1.8-2.5c0,0.4,0,0.8-0.1,1.1
			c-0.2,0.7-0.4,1.3-0.6,2C87.9,81.2,87.8,81.6,87.7,82.1L87.7,82.1z M87.4,80.6c0.5-0.6,1-1.2,0.6-2.2
			C87.5,79.1,87.2,79.8,87.4,80.6z"/>
		<path d="M83.1,3.9c0.3-1.2,1.2-1.8,2.2-2.3c0.3-0.2,0.9-0.1,1.2,0.1c0.2,0.1,0.3,0.7,0.2,1c-0.2,0.7-0.5,1.4-0.8,2.2
			c0.4-0.1,0.6-0.2,0.8-0.3c0.5-0.1,1-0.3,1.6-0.3c1.1,0,1.5,0.7,1.2,1.7c-0.1,0.4-0.2,0.7-0.3,1.1c0.5,0.5,1.4,0.1,1.5,0.9
			c0,0.3-0.1,0.7-0.4,1c0-0.1-0.1-0.2-0.1-0.3c-0.1-0.8-0.5-1.1-1.3-0.7c-0.2,0.1-0.4,0.3-0.6,0.4c-0.2,0.1-0.4,0.2-0.7,0.2
			c0.2-0.3,0.5-0.7,0.6-1C88.6,7,88.9,6.5,89,5.9c0.2-0.8-0.2-1.3-1.1-1.1c-0.7,0.2-1.4,0.5-2,0.8c-0.3,0.1-0.5,0.2-1,0.2
			c0.3-0.5,0.5-1,0.8-1.6c0.2-0.5,0.5-1,0.6-1.5C86.4,2,86,1.8,85.4,2c-0.4,0.2-0.8,0.5-1.1,0.8C83.9,3.2,83.5,3.6,83.1,3.9
			L83.1,3.9z"/>
		<path d="M60.5,61.5c0.1-0.1,0.3-0.2,0.4-0.3c-0.1,0-0.2-0.1-0.3-0.1c-0.1,0-0.1,0-0.2-0.1c-0.2,0.1-0.4,0.2-0.5,0.4
			c-0.5,0.5-0.6,1-0.4,1.7c0.2,0.6,0.6,0.8,1.5,0.8c-0.2-0.1-0.3-0.2-0.4-0.3C59.6,63,59.6,62.2,60.5,61.5z"/>
		<path d="M134.3,83.1c-0.5,0.2-0.8,0.4-1.2,0.6c-0.6,0.2-1-0.1-1-0.6c0.1-1.5,0.8-2.8,1.8-3.9c-0.5,1.3-1.3,2.5-1.4,4
			c1.1-0.1,1.7-0.5,2-1.3c0.2-0.4,0.3-0.9,0.6-1.3c0.2-0.4,0.5-0.7,1.2-0.7c0.1,0.7-0.3,1.3-0.8,1.8c-0.6,0.7-0.7,1.3-0.3,2.3
			c1.5-0.6,2.1-2.3,3.6-2.8c-0.9,0.9-1.7,1.9-2.7,2.8c-0.9,0.8-1.4,0.6-1.7-0.6C134.4,83.4,134.4,83.3,134.3,83.1z"/>
		<path d="M29,68.4c-0.5,0.2-0.8,0.3-1.2,0.3c-0.3,0.1-0.7,0.1-1,0.1c-0.7-0.1-0.8-0.5-0.4-1c0.1-0.2,0.2-0.3,0.4-0.4
			c1.1-0.9,2.3-1.8,3.5-2.7c0.2-0.2,0.5-0.3,0.7-0.4c0.6-0.2,1,0.2,0.9,0.8c-0.1,0.4-0.3,0.7-0.4,1.1c-0.1,0-0.2,0-0.2-0.1
			c0.1-0.4,0.1-0.9,0.2-1.5c-2.1,0.6-3.3,2-4.7,3.5c1.9,0.5,3.1-0.7,4.5-1.2c-1.4,1-2.5,2.2-3.2,3.7c0,0.1,0.1,0.2,0.1,0.2
			c0.7-0.2,1.3-0.4,2-0.6c-0.5,0.6-1,1.1-1.5,1.1c-0.3,0-0.8,0-0.9-0.2c-0.2-0.2-0.1-0.7,0-0.9C28,69.7,28.5,69.1,29,68.4z"/>
		<path d="M156.4,62.5c-0.4-1.2-0.7-2.3-1-3.3c-0.5-0.1-1.1-0.2-1.7-0.3c-0.3,0-0.6,0-0.9,0c0.1,0.3,0.2,0.6,0.3,1
			c0.2,0,0.5-0.1,0.7-0.1c1.1,0,1.8,0.5,1.9,1.6c0,0.4-0.1,0.8-0.5,0.9c-0.5,0.2-1.1,0.4-1.6,0.4c0,0.1,0,0.3,0,0.4
			c0.2,0,0.5-0.1,0.8-0.1c1.6-0.3,3-0.1,4.2,1.1c0.1,0.1,0.3,0.2,0.5,0.3C158.5,63.2,157.4,62.7,156.4,62.5z"/>
		<path d="M60.6,75.9c-0.7,0.3-1.3,0.6-1.9,0.7c-0.3,0.1-0.9,0.1-1-0.1c-0.2-0.2-0.1-0.7,0.1-1c0.2-0.5,0.5-0.9,0.9-1.3
			c-0.2,0.6-0.5,1.2-0.8,2c1.9-0.1,3.2-1,4.2-2.6c0.4,0.9-0.4,1.1-0.5,1.6c-0.2,0.5-0.4,1-0.7,1.7c1.8,0.2,2.3-1.1,3.2-2.3
			c0.2,1-0.5,1.4-0.7,2c-0.2,0.6-0.3,1.2-0.1,1.9c0.9-0.2,1-1.1,1.6-1.5c-0.1,0.6-0.6,1.6-1.1,1.8c-0.2,0.1-0.6,0.2-0.8,0.1
			c-0.1-0.1-0.2-0.4-0.2-0.7c0-0.3,0-0.5,0-0.9c-0.4,0.1-0.7,0.1-1,0.2c-0.9,0.2-1.1,0.1-1-0.8C60.6,76.4,60.6,76.3,60.6,75.9z"/>
		<path d="M35.5,70.7c0.9-0.6,1.8-1.2,2.6-1.8c0,0.1,0.1,0.1,0.1,0.2c-0.5,0.4-1.1,0.8-1.6,1.2c-0.5,0.4-1,0.9-1.7,1.5
			c2.2,0.5,3.8-0.8,5.7-0.9c-0.2,0.8-1.5,0.5-1.1,1.5c-0.5,0.2-1,0.4-1.3,0.6c-0.5,0.4-0.6,0.9-0.8,1.8c0.8,0.2,1.3-0.4,2.1-0.7
			c-0.5,0.8-1,1.2-1.7,1.4c-0.8,0.1-1.2-0.3-1-1.1c0.2-0.6,0.6-1.2,1-1.8c0.2-0.2,0.5-0.3,0.7-0.5c-0.1-0.1-0.1-0.1-0.2-0.2
			c-0.5,0.2-1.1,0.4-1.6,0.5c-0.5,0.1-1,0.1-1.5,0.1c-0.6,0-0.9-0.3-0.8-1C35,71.2,35.3,70.9,35.5,70.7z"/>
		<path d="M133.6,18.7c1.4-1.3,3-1.6,4.3-0.8c-0.1,0.1-0.1,0.3-0.2,0.4c-1.1,0.8-2,1.9-3.3,2.4c-0.7,0.3-0.9,0.9-1.3,1.7
			c-0.1-0.5-0.1-0.8-0.2-1.2c-0.6,0.1-1,0.6-1.3,1c-0.4,0.4-0.6,0.9-0.9,1.4c-0.1,0-0.2-0.1-0.2-0.1c0.1-0.3,0.2-0.6,0.3-0.9
			c0.1-0.4,0.3-0.9-0.1-1.3c-0.4-0.4-0.9-0.1-1.2,0.2c-0.1,0.1-0.2,0.1-0.5,0.3c0.8-1.3,1.5-1.4,2.6-0.3c1.1-0.5,2.2-0.9,3.2-1.4
			c1-0.4,1.9-1,2.5-2c-0.6-0.3-1.2-0.2-1.7,0C134.8,18.2,134.2,18.5,133.6,18.7L133.6,18.7z"/>
		<path d="M86.1,24c-0.1,0.7,0.2,1.5-0.6,2.3c0-0.6,0.1-0.9,0.1-1.2c0-0.5-0.1-1-0.6-1.2c-0.5-0.2-0.9,0.1-1.2,0.5
			c-0.6,0.7-1.1,1.5-1.2,2.4c-0.1,0.5-0.2,1.1-0.5,1.6c-0.1-0.2-0.1-0.5-0.2-0.7c-0.1-0.4-0.2-0.8-0.5-1c-0.3-0.3-0.8-0.6-1.1-0.6
			c-0.3,0.1-0.8,0.5-0.9,0.9c-0.1,0.7-0.1,1.4,0,2c0,0.4,0.1,0.9,0.1,1.3c-0.1,0-0.2,0-0.3,0c-0.1-0.9-0.3-1.9-0.4-2.8
			c0-0.8,0.3-1.5,1.1-1.9c0.8-0.4,1.4,0,1.9,0.6c0.1,0.1,0.2,0.1,0.3,0.3c0.1-0.3,0.2-0.6,0.3-0.8c0.2-0.4,0.4-0.8,0.6-1.2
			C84.1,23.3,84.7,23.2,86.1,24L86.1,24z"/>
		<path d="M111.3,81.7c-0.1,0.1-0.2,0.2-0.3,0.3c0.2-1,0.4-2.1,0.6-3.3c0.1,0.5,0.1,0.9,0.1,1.3c0.1,0.6,0.2,1.2,0.5,1.8
			c0.1,0.3,0.6,0.6,0.9,0.6c0.2,0,0.7-0.3,0.7-0.6c0.2-0.8,0.3-1.6,0.5-2.4c0-0.2,0-0.5,0.1-0.8c0.5,0,0.5,0.4,0.5,0.7
			c0,0.5-0.1,1-0.1,1.5c0,0.9,0.5,1.3,1.1,1.3c0.7-0.1,1-0.6,1-1.4c-0.1-0.6-0.2-1.1-0.1-1.7c0.1,0.2,0.3,0.3,0.3,0.5
			c0.1,0.6,0.2,1.1,0.1,1.7c-0.1,1.4-1.1,2-2.3,1.3c-0.2-0.1-0.3-0.2-0.4-0.3c-0.6,0.3-1.1,0.8-1.6,0.8
			C112.4,82.6,112,82.1,111.3,81.7z"/>
		<path d="M150,1.9c0.1-0.3,0.1-0.6,0.3-0.9c0.4-0.8,0.7-0.8,1.6-0.5c0.7,0.2,0.9,0.4,0.7,1.3c-0.2,1.5-0.5,3.1-0.8,4.6
			c-0.1,0.7,0.1,1.5-0.8,2c0-0.4,0.1-0.8,0.1-1.1c-0.1-1.3,0-2.5,0.4-3.8c0.3-0.9,0.2-1.8-0.4-2.8C150.7,1.1,150.3,1.5,150,1.9
			L150,1.9z"/>
		<path d="M112.2,34.5c0.7-0.9,1.9-0.9,2.3-1.8c-0.9-1.1-2.1-1-4.6,0.1c0,0,0-0.1,0-0.1c0.9-1.2,3.7-1.6,4.8-0.7
			c0.4,0.3,0.4,0.6,0.1,1c-0.2,0.2-0.6,0.4-0.8,0.6c0,0.1,0.1,0.2,0.1,0.3c0.6,0.2,1.2,0.4,1.8,0.6c0.9,0.4,1.1,1.2,0.6,2
			c-0.1,0.2-0.3,0.4-0.5,0.5c-0.9,0.4-1.8,0.8-2.7,1.1c-0.2,0.1-0.5-0.1-0.7-0.2c0-0.1,0-0.2,0-0.2c0.2,0,0.4-0.1,0.6-0.1
			c1,0,2-0.3,2.7-1c0.7-0.7,0.5-1.3-0.4-1.7c-0.8-0.3-1.6-0.6-2.5-0.4C112.8,34.6,112.6,34.5,112.2,34.5z"/>
		<path d="M158.6,68.5c-0.4-0.5-0.7-0.9-1.1-1.4l0,0c-0.2,0-0.4-0.1-0.7-0.1c0.2,0.4,0.6,0.6,0.8,0.9c0.3,0.3,0.4,0.6,0.6,0.9
			c0.2,0.3,0.4,0.6,0.1,0.9c-0.3,0.4-0.8,0.7-1.2,0.5c-0.8-0.4-1.8-0.7-1.9-1.8c-0.1,0-0.1-0.1-0.1,0c-0.7,0.2-0.7,0.5,0,1.1
			c0.5,0.4,0.9,0.7,0.8,1.4c-0.1,0.6-0.4,1.1-0.9,1.5c-0.8,0.6-1.6,0.4-2.4,0c-0.4-0.2-0.8-0.5-1.1-0.8c-0.1,0.1-0.1,0.3-0.2,0.4
			c0.6,0.6,1.3,1,2.2,1.2c1.2,0.3,2.2-0.4,2.6-1.5c0.1-0.3,0.2-0.7,0.3-1.1c0.3,0.1,0.6,0.1,0.8,0.2c0.7,0.2,1.2-0.2,1.6-0.7
			C159.1,69.4,159,68.9,158.6,68.5z"/>
		<path d="M168.5,36.4c-1.1-0.2-1.9,0.3-2.5,0.8c-0.6,0.5-1.1,1.2-1.7,1.7c-0.3,0.3-0.5,0.7-1.2,0.6c1.2-1.8,3.3-2.9,3.5-5.2
			c-0.9-0.3-1.6,0.4-2.4,0.5c0.5-0.6,1.2-0.8,2-1c0.6-0.1,0.9,0.2,0.8,0.8c-0.1,0.4-0.2,0.8-0.4,1.4c0.5-0.1,1-0.2,1.4-0.2
			c0.3,0,0.7,0.2,1,0.3c-0.1,0.3-0.1,0.7-0.3,0.9c-0.5,0.6-1.1,1.1-1.9,1.8c0.1-0.7,0.5-1,0.8-1.3C167.9,37.2,168.2,36.9,168.5,36.4
			z"/>
		<path d="M75.5,78.7c-1.4,1.4-1.4,1.3-2.2,0.3c-0.2,0.1-0.4,0.3-0.7,0.4c-0.8,0.4-1.6,0-1.6-0.9c0-0.7,0.3-1.4,0.5-2
			c0.1,0,0.2,0,0.2,0.1c-0.1,0.5-0.2,1-0.3,1.5c-0.1,0.4-0.1,0.9,0.3,1c0.3,0.1,0.8-0.1,1-0.4c0.4-0.4,0.6-1,1-1.7
			c0.1,0.9,0.2,1.5,0.3,2.2c1.1-0.3,1-1.5,1.7-2.1c0.2,0.7,0.3,1.2,0.5,1.9c0.9-0.5,0.9-1.4,1.3-2.1c0.2,0.9-0.1,1.6-0.6,2.2
			c-0.3,0.4-0.7,0.5-1.1,0.1C75.7,79,75.6,78.8,75.5,78.7z"/>
		<path d="M54.3,24.7c0.4-0.4,0.6-1,1.1-1.3c1.2-0.9,1.9-0.7,2.6,0.6c0.2-0.1,0.5-0.2,0.8-0.2c1.2-0.2,1.9,0.4,1.5,1.5
			c-0.3,1-0.9,1.9-1.5,2.8c-0.3,0.5-0.9,0.8-1.4,1.2c-0.2,0.1-0.5,0.1-0.9,0.1c0.7-0.5,1.3-0.9,1.8-1.4c0.5-0.5,0.9-1.2,1.3-1.8
			c0.5-0.8,0.6-1.7,0.1-2c-0.4-0.3-1.3-0.1-1.9,0.4c-0.3,0.3-0.6,0.6-0.8,0.9c-0.2,0.2-0.4,0.5-0.7,0.8c-0.2-0.7,0.2-0.9,0.4-1.2
			c0.2-0.4,0.6-0.8,0.7-1.2c0.2-0.6-0.2-1-0.8-0.8c-0.4,0.1-0.7,0.3-1,0.5C55,24.1,54.6,24.4,54.3,24.7L54.3,24.7z"/>
		<path d="M147.6,39.8L147.6,39.8c0.5-0.2,1.1-0.5,1.6-0.6c0.9-0.2,1.3,0,2.3,0.5c1.1-0.6,2.2-1.1,3.4-1.8c0.3,0,0.9,0,1.4,0
			c0.3,0,0.7,0.1,0.9,0.3c0.3,0.4,0,0.7-0.3,1c-0.1,0.1-0.2,0.1-0.6,0.3c0.3-0.5,0.4-0.8,0.7-1.2c-0.7,0.1-1.3,0-1.8,0.2
			c-1,0.3-2,0.8-3,1.3c-0.4,0.2-0.6,0.6-0.9,1c0,0.1,0,0.2-0.1,0.2c-1.2,0.6-1.8,1.9-2.8,2.6c-0.2,0.1-0.4,0.1-0.6,0.2
			c0.6-0.7,1.2-1.3,1.7-1.9c0.3-0.4,0.7-0.8,1-1.3c0.4-0.6,0.1-1.1-0.6-1.1c-0.5,0-1,0.2-1.6,0.3C148.1,39.9,147.8,39.8,147.6,39.8z
			"/>
		<path d="M153.2,23.1c-0.8,0.6-1.7,1.1-2.7,1.8c0.4,0.2,0.8,0.3,1,0.5c0.7,0.5,1.3,1,1.9,1.6c0.4,0.5,0.2,0.9-0.4,1.1
			c-0.3,0.1-0.6,0.1-0.9,0.1c-0.5-0.1-0.9-0.2-1.3-0.3c-0.5-0.1-0.9-0.3-1.3-0.5c1.2-0.2,2.4,0.7,3.6,0.1c-0.5-1.5-2.3-2.4-3.8-1.8
			c-0.5,0.2-0.9,0.4-1.1-0.3c0.5-0.3,0.9-0.6,1.4-1l0,0c0.8-0.3,1.7-0.7,2.5-1C152.4,23.4,152.8,23.2,153.2,23.1L153.2,23.1z"/>
		<path d="M156.8,78.2c-0.2-1-0.4-2.1-0.6-3.1c0.1,0,0.2,0,0.2-0.1c0.2,0.5,0.3,1,0.5,1.4c0.3,0.6,0.6,1.2,1.1,1.7
			c0.5,0.6,1.2,0.7,1.8,0.4c0.6-0.3,0.9-0.9,0.7-1.7c-0.5-1.9-0.6-2.8-2.4-4.1c0.2,0,0.5,0,0.6,0.1c1.5,1.1,2.2,2.7,2.2,4.6
			c0,0.7-0.3,1.4-1,1.6c-0.7,0.3-1.4,0.1-1.9-0.4c-0.2-0.2-0.4-0.4-0.7-0.6C157.2,78,157,78.1,156.8,78.2L156.8,78.2z"/>
		<path d="M114.2,47.8c0.3,0.2,0.7,0.3,1,0.4c0,0,0,0,0,0c0,0,0.1-0.1,0.1-0.1c0.2-0.2,0.4-0.5,0.7-0.8c-0.5,0.1-0.9,0-1.3-0.3
			c-0.2-0.2-0.5-0.4-0.8-0.1C113.6,47.3,113.9,47.6,114.2,47.8z"/>
		<path d="M116.1,43.3c0.7,0.2,1.4,0.2,2,0.5c0.2,0.1,0.3,0.2,0.4,0.3c0.1-0.1,0.1-0.2,0.2-0.3c-0.3-0.2-0.7-0.4-1-0.6
			c-0.2-0.1-0.3-0.4-0.4-0.5c-0.6,0-1.3,0-1.9,0.5C115.6,43.3,115.9,43.2,116.1,43.3z"/>
		<path d="M53.1,36c-0.2,1-0.1,2.1-0.9,3.1c0-0.3,0-0.5,0-0.8c0-0.5,0.1-0.9,0-1.4c-0.2-0.8-0.8-0.9-1.3-0.3
			c-0.7,0.8-1.2,1.8-1.1,2.9c0,0.4,0,0.7-0.2,1.1c-0.4-0.8-0.4-1.8-1.5-2.2c-0.1,0.2-0.3,0.5-0.5,0.9c-0.3-0.6-0.2-1.1,0.3-1.5
			c0.5,0.3,0.9,0.6,1.5,0.9c0.2-0.5,0.4-0.9,0.7-1.4c0.2-0.4,0.5-0.8,0.8-1.1c0.5-0.5,1-0.6,1.6-0.2C52.6,36.2,52.9,36,53.1,36
			L53.1,36z"/>
		<path d="M45.7,32.2c-1.2-0.1-2.4-0.2-3.5-0.8c-0.5-0.3-0.5-1-0.1-1.5c0.3-0.4,0.6-0.8,1.1-1c0.7-0.3,1-0.8,1-1.5
			c0-0.1,0.1-0.2,0.2-0.5c0.1,0.4,0.1,0.7,0.2,1c0.4,0,0.8,0,1.2,0c0.4,0.1,0.8,0.2,1.2,0.5c-0.8,0.1-1.5,0.3-2.3,0.4
			c-1.2,0.2-1.9,0.9-2.5,1.9c0.5,0.6,1.2,0.6,1.8,0.8c0.6,0.1,1.2,0.2,1.8,0.3C45.7,32,45.7,32.1,45.7,32.2z"/>
		<path d="M63.3,21.3c0.7-0.5,1.2-0.8,1.8-1.2c0,0,0,0.1,0.1,0.1c-0.7,0.8-1.5,1.7-2.1,2.5c-0.4-0.7-0.7-1.5-1.2-2.5
			c0.4,0.3,0.6,0.4,0.8,0.5c0-0.1,0.1-0.1,0.1-0.2c-0.2-0.7-0.7-1.1-1.4-1.2c-1,1.2-0.6,2.6-0.6,4c-0.1-0.2-0.3-0.3-0.3-0.5
			c0-0.9-0.1-1.8,0.1-2.7c0.1-0.7,0.6-1.1,1.1-1.1c0.6,0,1.2,0.4,1.4,1C63.1,20.4,63.2,20.8,63.3,21.3z"/>
		<path d="M50.5,44.3c0.1-0.5,0.3-1,0.5-1.5C50.5,43,50.3,43.5,50.5,44.3C50.5,44.2,50.5,44.3,50.5,44.3z"/>
		<path d="M155.7,43.4c-0.1,0.2-0.3,0.4-0.4,0.6c0.3,0.1,0.5,0.2,0.7,0.4c0.3,0.2,0.6,0.3,0.9,0.5c0.5,0.4,1,0.8,0.8,1.5
			c-0.1,0.7-0.8,0.8-1.4,0.8c-0.9,0.2-1.9,0.3-2.8,0.4c-0.3,0-0.7,0-1-0.2c1-0.1,2-0.3,3-0.4c0.4-0.1,0.8-0.2,1.2-0.3
			c0.7-0.3,0.8-0.7,0.2-1.2c-0.7-0.7-1.6-0.9-2.5-0.9c-0.3,0-0.5,0-0.8-0.1C154.3,43.9,154.9,43.5,155.7,43.4L155.7,43.4z"/>
		<path d="M20.2,50.6c-0.1,0.3-0.3,0.5-0.4,0.8c2,0.9,2.8-1,4.3-1.8c-0.5,1.7-2.4,2-2.9,3.5c0.4-0.1,0.6-0.2,0.9-0.2
			c0,0.1,0,0.2,0,0.2c-0.4,0.4-0.8,0.8-1.4,0.5c-0.1-0.1,0-0.6,0-0.9c0-0.1,0.1-0.2,0.1-0.4c-0.3,0-0.6-0.1-0.9-0.1
			c-0.8-0.2-0.9-0.5-0.4-1.2c0.1-0.2,0.3-0.3,0.5-0.5C20.1,50.6,20.1,50.6,20.2,50.6z"/>
		<path d="M35.5,70.7c-0.3,0.3-0.5,0.5-0.8,0.8c-0.7,0.6-1.4,1.3-2.2,1.8c-0.4,0.3-1,0.5-1.6,0.6c-0.6,0.1-1.2-0.5-1-1
			c0.4-1.3,1-2.5,2.4-3l0,0c-0.4,0.6-0.9,1.2-1.3,1.8c-0.2,0.2-0.3,0.5-0.4,0.7c-0.2,0.6,0.1,1.1,0.7,0.8c0.9-0.4,1.7-1,2.5-1.5
			c0.4-0.3,0.7-0.7,1-1.1C35.1,70.4,35.4,70.3,35.5,70.7z"/>
		<path d="M108.1,76.4c-0.5-0.1-1.1-0.3-1.6-0.4c-0.2,0.1-0.4,0.3-0.6,0.4c-0.6,0.3-0.9-0.1-0.7-0.7c0,0,0-0.1,0-0.1
			c-0.1,0-0.3-0.1-0.4-0.1c0,0.1-0.1,0.1-0.1,0.2c-0.2,0.9,0.4,1.4,1.2,1.2c0.5-0.1,1-0.4,1.5-0.6c1.2,1.7,1.3,1.7,2.3,1.1
			C108.6,77.2,108.3,77,108.1,76.4z"/>
		<path d="M88.2,20.6c0.6-1.2,1.7-1.5,3-1.6c0.6,0,1,0.2,1.1,0.8c0.1,0.5,0.2,1,0.2,1.6c0,1.4-0.9,3.2-1.9,3.9
			c-0.3-0.4,0.1-0.7,0.2-1c0.4-0.8,0.8-1.6,1.1-2.5c0.2-0.7,0.2-1.6-0.5-2.1c-0.7-0.5-1.4-0.1-2.1,0.2C89,20,88.6,20.3,88.2,20.6
			L88.2,20.6z"/>
		<path d="M152.3,24.3c2.1,1.2,4.3,1.6,6.7,0.6c-0.5-1.1-1.8-1.1-2.5-1.9c1,0.2,1.9,0.7,2.7,1.3c0.4,0.3,0.3,0.7-0.1,0.9
			c-0.2,0.1-0.4,0.2-0.6,0.3c-2,0.6-4,0.3-5.9-0.6c-0.2-0.1-0.3-0.3-0.5-0.4C152.2,24.5,152.2,24.4,152.3,24.3z"/>
		<path d="M153.2,23.1c0.2-0.6,0.8-0.8,1.3-1c0.7-0.4,1.5-0.6,1.9-1.4c0.5-1.3,1.1-2.6,0.8-4.1c-0.2-0.8-0.3-0.9-1.2-1.1
			c0.9-0.3,1.2-0.1,1.4,0.8c0.2,1,0.1,2.1-0.2,3.1c-0.1,0.3-0.3,0.6-0.3,1c0,0.3,0,0.5,0.1,0.9c-0.4,0.3-1,0.6-1.5,1
			c0.1,0.2,0.2,0.4,0.2,0.5C154.9,22.8,154,22.9,153.2,23.1L153.2,23.1z"/>
		<path d="M148.3,9.2c-0.5,0-0.9,0-1.4,0.1c-0.8,0.2-1,0.7-0.5,1.3c0.8,0.9,1.6,2,3,2c0.4,0,0.8,0.2,1.2,0.3l0,0
			c-0.9,0.9-1.7,1.8-2.7,2.7c0.1-0.9,0.8-1.4,1.2-2.2c-0.7-0.5-1.4-0.9-2-1.5c-0.5-0.5-0.9-1-1.3-1.6c-0.3-0.6-0.1-1.1,0.5-1.3
			C147.1,8.9,147.8,8.7,148.3,9.2L148.3,9.2z"/>
		<path d="M172.8,46.8c-0.3,0.5-0.6,1-0.9,1.5c0.6,0.1,1.2,0.1,1.8,0.3c1.1,0.3,1.3,0.9,0.7,1.7c-0.6,0.8-1.3,1.5-2,2.2
			c-0.1,0.1-0.3,0-0.8,0c0.7-0.6,1.2-1,1.6-1.4c0.4-0.5,0.8-1,1.2-1.6c-1.2-0.9-2.5-0.3-3.7-0.4C171,48.4,172.1,47.3,172.8,46.8
			L172.8,46.8z"/>
		<path d="M155.4,37.3c0.2-0.3,0.4-0.6,0.6-0.9c0.7-1.1,0.3-2.8-0.9-3.4c-0.6-0.3-1-0.2-1.1,0.5c-0.1,0.9-0.1,1.9-0.1,2.8
			c0,0.3,0.1,0.6,0.2,1c-0.5-0.2-0.6-0.6-0.6-1c0-1-0.1-1.9,0-2.9c0-0.4,0.3-1,0.6-1.1c0.4-0.1,1,0.1,1.4,0.4
			C157.3,34.1,157.2,36.2,155.4,37.3z"/>
		<path d="M102.7,20.3c0.2-0.8,1-1.3,0.7-2.3c-1.1-0.2-1.6,0.6-2.2,1.4c-0.5-0.6-0.1-0.9,0-1.3c0.4-0.1,0.7-0.2,1-0.4
			c1.1-0.6,1.7-0.2,1.8,1.1c0.3,0,0.7,0,1.1,0c-0.1,1-0.3,1.1-1.1,1.1C103.7,19.8,103.3,20.1,102.7,20.3z"/>
		<path d="M169.3,62.7c0.7-1.3,2.4-1.8,3.5-1c0.5,0.3,0.6,0.7,0.3,1.2c0,0,0,0.1-0.1,0.1c-0.4,0.7-3.3,2.8-4.2,3
			c0.2-0.3,0.2-0.5,0.4-0.6c0.8-0.6,1.6-1.1,2.4-1.6c0.3-0.2,0.7-0.4,0.9-0.7c0.2-0.2,0.3-0.6,0.3-0.8c-0.1-0.2-0.5-0.4-0.7-0.4
			C171,61.8,170.1,62.1,169.3,62.7z"/>
		<path d="M36.3,51c-0.9-2.1-2.7-3.4-4.7-4.3c-0.5-0.2-1.1-0.3-1.7-0.3c-0.8,0.1-1,0.6-0.5,1.3c0.1,0.1,0.2,0.3,0.3,0.4
			c-0.1,0.1-0.1,0.1-0.2,0.2c-0.3-0.3-0.6-0.6-0.8-1c-0.1-0.2,0-0.7,0.2-0.8c0.3-0.2,0.8-0.5,1.1-0.4c0.8,0.1,1.7,0.3,2.4,0.6
			c1.4,0.6,2.6,1.6,3.5,2.9c0.3,0.4,0.4,0.9,0.6,1.3C36.5,51,36.4,51,36.3,51z"/>
		<path d="M172.9,59.5c-0.8,1.2-2.7,1.8-4,1.1c1.3-0.1,2.5-0.1,3.4-1c-1-1.3-2.3-1.4-4.2-0.3c0.1-0.3,0.1-0.5,0.2-0.6
			c0.7-0.5,1.4-0.7,2.3-0.6C171.4,58.3,172.3,58.8,172.9,59.5z"/>
		<path d="M156,50.1c0.3,0.2,0.5,0.3,1,0.6c-0.8,0.4-1.3,0.7-1.9,1.1c0.7,0.2,1.3,0.4,1.8,0.5c-0.5,1.1-1.7,1.7-3.1,1.7
			c0.9-0.4,1.6-0.8,2.4-1.2c0-0.1,0-0.2,0-0.2c-0.8-0.1-1.5-0.3-2.3-0.4c0-0.1,0-0.1,0-0.2c0.6-0.3,1.2-0.6,1.8-0.9
			C156,50.8,156.2,50.5,156,50.1L156,50.1z"/>
		<path d="M26.1,72.4c-0.7,0.5-1.3,0.4-1.8,0.4c-0.6,0-1.2-0.1-1.8-0.2c-0.5-0.1-0.8-0.5-0.7-1c0.3-1.4,2.4-2.4,3.8-1.7
			c-0.1,0.1-0.2,0.2-0.3,0.2c-1.1-0.4-1.9,0.2-2.6,0.9c-0.2,0.2-0.4,0.6-0.3,0.9c0,0.2,0.5,0.4,0.7,0.4c0.7,0.1,1.5,0.1,2.2,0.1
			C25.4,72.2,25.6,72.3,26.1,72.4z"/>
		<path d="M120,80.5c0.3,0.3,0.6,0.6,1,1.1c0.2-0.6,0.3-1.1,0.5-1.6c0.2,0.2,0.3,0.4,0.5,0.6c0.8,1.1,1.6,1.1,2.2-0.1
			c0.1-0.1,0.2-0.2,0.3-0.5c0.2,0.8,0,1.2-0.5,1.6c-0.6,0.4-1,0.4-2.3-0.2c-0.2,0.2-0.4,0.5-0.7,0.8C120.3,81.9,120,81.3,120,80.5z"
			/>
		<path d="M129,34.2c0.1,0.1,0.2,0.2,0.3,0.3c-0.2,0.3-0.4,0.7-0.6,1c-0.3,0.4-0.7,0.9-0.9,1.3c0,0.1-0.1,0.1-0.1,0.2
			c0.2-0.1,0.4-0.1,0.6-0.2c0.2-1.2,1.7-1.7,1.5-3.2c-1.6,0.2-2.4,1.2-3.3,2.1c0,0.1,0.1,0.1,0.1,0.2
			C127.5,35.3,128.3,34.7,129,34.2z"/>
		<path d="M73.8,63.1c0.2,0.1,0.3,0.1,0.5,0.2c0.1-0.2,0.1-0.5,0.2-0.7c-0.3,0-0.7,0.1-1,0.1c-0.3,0.7,0,1.4,1.1,1.9
			c-0.4-0.5-0.6-0.9-0.9-1.3C73.7,63.1,73.8,63.1,73.8,63.1z"/>
		<path d="M156.8,78.1c-0.1,0.6,0,1.2-0.2,1.7c-0.4,1-1.4,1-2,0.1c-0.3-0.5-0.6-1.1-0.8-1.8c-0.2-0.8-0.3-1.6-0.2-2.5
			c0.2,0.7,0.3,1.5,0.6,2.2c0.2,0.6,0.4,1.2,0.8,1.8c0.3,0.5,0.8,0.5,1.1,0C156.4,79.2,156.6,78.7,156.8,78.1L156.8,78.1z"/>
		<path d="M16.9,59.7c0.4,0.2,0.6,0.2,0.9,0.4c-0.6,0.3-1.1,0.6-1.6,0.9c-0.2-1,0.3-1.5,0.7-2c0.7-0.8,1.1-2.1,2.5-2.4
			c0,0.3,0.1,0.5,0.1,0.7C18,57.4,17.7,58.8,16.9,59.7z"/>
		<path d="M164.8,32.2c0-0.5-0.1-0.8-0.1-1.3c-2,0.8-2.8,2.7-4.2,4.1c0.1-0.2,0.2-0.5,0.3-0.7c0.7-0.9,1.4-1.8,2.1-2.7
			c0.2-0.3,0.6-0.5,0.9-0.7c0.4-0.2,0.8-0.5,1.2-0.1C165.4,31.1,165.3,31.6,164.8,32.2z"/>
		<path d="M126.5,21.8c0,0.4,0.1,0.7,0.3,1c0.1-0.5,0.1-1,0.1-1.5C126.8,21.5,126.7,21.6,126.5,21.8z"/>
		<path d="M128.4,19c-0.1,0.2-0.1,0.3-0.2,0.5v2.6l0.2,0c0.1-0.6,0.2-1.1,0.3-1.7c0-0.3,0-0.6,0-0.9C128.7,19.2,128.6,19.1,128.4,19
			z"/>
		<path d="M103.2,22.2c1.4-1.4,3.1-2.2,5.1-2.4c0.3,0,0.8,0.1,1,0.3c0.1,0.2,0,0.7-0.1,1c-0.2,0.4-0.6,0.7-0.9,1.1l0,0
			c0.2-0.6,0.4-1.2,0.7-2c-0.6,0-1-0.1-1.4,0c-1,0.3-1.9,0.8-2.8,1.2C104.1,21.6,103.6,21.9,103.2,22.2L103.2,22.2z"/>
		<path d="M159.9,59.3c0.3-0.4,0.5-0.9,0.9-1.2c1-0.9,2.1-1.7,3.2-2.4c0.4-0.3,1-0.4,1.5-0.6c0.2,0.9,0.2,0.9-0.8,2
			c0.2-0.6,0.3-0.9,0.5-1.4c-0.7,0-1.2,0.3-1.6,0.6C162.2,57.3,161.1,58.3,159.9,59.3L159.9,59.3z"/>
		<path d="M117.2,42.7c0.1-0.2,0.3-0.4,0.4-0.6c0.6-0.9,0.5-1.3-0.5-1.7c-0.5-0.2-1.1-0.2-1.7-0.3c-0.7,0-1.4,0-2.2,0
			c0-0.1,0-0.2,0.1-0.2c1.6-0.5,3.1-0.2,4.5,0.4c1,0.4,1,1.4,0.2,2C117.7,42.5,117.4,42.6,117.2,42.7L117.2,42.7z"/>
		<path d="M156.7,57.6c-0.2-0.3-0.5-0.8-0.8-0.9c-1.1-0.4-2.2-0.8-3.4-1c-0.4-0.1-0.8-0.1-1.1,0.1c0.1,0.1,0.1,0.2,0.2,0.3
			c1.3-0.2,2.6,0.1,3.8,0.8c0.7,0.4,1.3,0.9,1,2.1C156.9,58.1,157,58,156.7,57.6z"/>
		<path d="M66.1,22.6c-0.3-0.7,0.1-1.2,0.4-1.6c0.3-0.5,0.3-0.8-0.1-0.9c0.6-0.1,1.3-0.1,2-0.2c0.7-0.1,1.2,0.2,1.6,0.9
			c-0.6-0.2-1.1-0.4-1.6-0.5c-0.4-0.1-0.8,0.1-1,0.5c-0.1,0.2-0.5,0.4-0.6,0.6c-0.1,0.1-0.2,0.4-0.1,0.6
			C66.8,22.4,66.8,22.4,66.1,22.6z"/>
		<path d="M94.7,8.6c-0.1-0.2-0.2-0.4-0.2-0.6c0,0,0-0.1-0.1-0.1c-0.6-1-1.7-1.1-2.5,0c0.1,0,0.2,0,0.3-0.1c1.1-0.4,1.7-0.1,2,0.9
			c0.1,0.5,0.2,1,0.1,1.5c0,0.6-0.1,1.1-0.1,1.7c0.1,0,0.2,0,0.2,0c0.1-0.5,0.2-1,0.3-1.5c0-0.3,0.1-0.7,0-1
			C94.8,9.1,94.8,8.9,94.7,8.6z"/>
		<path d="M58.4,33c0-0.6,0.1-1.1,0.1-1.7c0-0.4-0.1-1-0.2-1c-0.3-0.1-0.8,0-1.1,0.2c-0.8,0.6-1.5,1.3-2.3,2
			c0.1-0.2,0.1-0.4,0.2-0.5c0.7-0.7,1.4-1.5,2.2-2c1-0.7,1.7-0.2,1.7,1C58.9,31.6,58.6,32.3,58.4,33L58.4,33z"/>
		<path d="M105.4,25.4c0.2,0.6,0.3,1.1,0.4,1.5c-0.1,0-0.2,0.1-0.2,0.1c-0.1-0.3-0.3-0.5-0.5-0.9c-1,1.1-1.2,2.5-1.5,3.7
			C103.1,28.8,104,26.4,105.4,25.4z"/>
		<path d="M155.7,43.4c0.4-0.3,0.8-0.6,1.2-0.9c0.5-0.4,0.4-0.9-0.3-1.1c-0.6-0.1-1.3-0.2-1.9-0.2c-0.2,0-0.4,0-0.7,0
			c0.2-0.5,0.5-0.7,0.9-0.6c0.5,0.1,1,0.2,1.5,0.3c0.5,0.1,1,0.3,1.1,0.9c0.1,0.6-0.2,1-0.7,1.2C156.5,43.2,156.1,43.2,155.7,43.4
			L155.7,43.4z"/>
		<path d="M172.8,46.8c0.2-0.3,0.3-0.7,0.5-1.1c-1.4-0.5-2.4,0.6-3.7,0.9c0.9-0.8,1.9-1.5,3.2-1.4c0.3,0,0.8,0.2,0.9,0.5
			c0.1,0.3-0.2,0.7-0.4,1C173.2,46.7,173,46.8,172.8,46.8L172.8,46.8z"/>
		<path d="M153.9,80.9c0,0.2-0.1,0.4-0.1,0.5c-0.2,0.5-0.4,0.9-1.1,0.9c-0.5,0-0.8-0.4-1-0.8c-0.5-1.1-0.8-2.1-0.6-3.6
			c0.1,0.4,0.2,0.5,0.2,0.7c0.2,0.8,0.3,1.7,0.6,2.4c0.1,0.3,0.5,0.7,0.8,0.7c0.3,0,0.6-0.4,0.8-0.7c0.1-0.1,0.1-0.2,0.2-0.3
			C153.8,80.9,153.9,80.9,153.9,80.9z"/>
		<path d="M94.8,78.3c0.7,0.3,1.2,0.4,1.9,0.2c0.6-0.2,1.5-0.1,1.8,0.8c-0.8,0-1.6,0-2.3,0C95.5,79.2,95.3,79.1,94.8,78.3z"/>
		<path d="M87.7,82.1c0.1,0,0.3,0.1,0.4,0.1c1.3,0.3,1.8-0.1,1.9-1.4c0-0.9,0-1.8,0-2.6l0,0c0.6,1,0.6,2.1,0.4,3.2
			c-0.1,0.7-0.5,1.1-1.2,1.2C88.5,82.8,88,82.7,87.7,82.1L87.7,82.1z"/>
		<path d="M29.6,16.9c0.1-0.4,0.2-0.8,0.7-0.8c0.3,0.1,0.6,0.4,0.8,0.7c0.5,1.1,0.3,2.1-0.2,3.3c-0.4-0.6-0.1-1-0.1-1.5
			c0-0.4,0.1-0.8,0.1-1.1C30.7,16.7,30.4,16.6,29.6,16.9L29.6,16.9z"/>
		<path d="M108.3,79.1c-0.2,1.1,0.2,2.1,0.5,3.1c0.3,1.1,0.5,1.2,1.7,0.7c-0.2,0.5-0.5,0.8-1,0.8c-0.5,0-0.8-0.4-0.9-0.8
			c-0.2-1.2-0.4-2.5-0.6-3.8C108,79.1,108.1,79.1,108.3,79.1z"/>
		<path d="M155.5,20.8c-1.7-0.3-2.1-1.1-1.5-2.6c0.1-0.3,0.3-0.6,0.4-0.8c0.2-0.2,0.4-0.5,0.7-0.6c-0.2,0.4-0.4,0.8-0.6,1.3
			c-0.6,1.3-0.5,1.6,0.6,2.5C155.2,20.6,155.3,20.7,155.5,20.8z"/>
		<path d="M155.6,6.6c-1.2,1.2-2.3,2.3-4.1,2.4c0.2-0.2,0.3-0.4,0.5-0.5c1.3-0.2,2.3-1.1,3.4-1.8C155.4,6.6,155.5,6.6,155.6,6.6z"/>
		<path d="M15.4,80.1c0.5-0.1,0.8-0.2,1.3-0.3c-0.1,0.1-0.1,0.3-0.2,0.3c-0.4,0.3-0.8,0.8-1.4,0.4c-0.4-0.3-0.4-0.8,0.1-1.5
			c0.4-0.6,0.9-1.1,1.4-1.6C16.4,78.3,15.3,78.8,15.4,80.1z"/>
		<path d="M119.8,35.8c0.2-0.6,0.4-1.2,0.7-1.7c0.3-0.5,1-0.6,1.4-0.4c0.5,0.3,0.6,0.9,0.2,1.7c-0.1-0.2-0.1-0.3-0.2-0.4
			c0-0.4-0.1-0.8-0.5-0.8c-0.3,0-0.6,0.2-0.9,0.4C120.2,35,120,35.4,119.8,35.8L119.8,35.8z"/>
		<path d="M150,1.9c-0.2,0.7-0.3,1.4-0.5,2.1c-0.2,1,0,1.8,0.7,2.5c0.1,0.1,0.2,0.2,0.3,0.6c-0.9-0.3-1.2-0.9-1.4-1.5
			C148.9,4.2,149.1,3,150,1.9L150,1.9z"/>
		<path d="M156.1,6.1c0.1-0.4,0.1-0.7,0.2-1.1c-1.2-0.6-1.9,0.4-2.8,0.7c0.5-0.7,1.2-1.1,2-1.3c0.4-0.1,0.8,0,1.1,0.4
			C156.9,5.3,156.8,5.6,156.1,6.1z"/>
		<path d="M150.9,15.7c-0.8,0.9-1.9,1.1-2.9,1.3c-0.2,0-0.5-0.3-0.7-0.4l0,0c0.5-0.1,1-0.2,1.5-0.4
			C149.4,16.1,150.2,15.9,150.9,15.7L150.9,15.7z"/>
		<path d="M164.1,33.6c-0.6,1.1-0.8,2.4-2,3.1C162.2,36.1,163.2,34.4,164.1,33.6z"/>
		<path d="M51.3,71.3c0.7-1.9,1.9-3.1,3.3-3.1c-0.3,0.2-0.5,0.3-0.6,0.4c-0.8,0.4-1.4,0.9-1.9,1.6C51.9,70.6,51.6,70.9,51.3,71.3
			L51.3,71.3z"/>
		<path d="M143.7,26.3c-0.3,0.7-0.4,1.4-0.8,2c-0.4,0.6,0.2,1.4-0.5,1.8C142,29,142.6,27.4,143.7,26.3L143.7,26.3z"/>
		<path d="M70,32.8c0.2,0,0.4,0,0.6,0c1-0.3,1.8-0.9,2.7-1.5c-1.1,0.4-2.3,0.9-3.4,1.3C69.9,32.7,69.9,32.7,70,32.8
			C70,32.8,70,32.8,70,32.8z"/>
		<path d="M38.6,78.3c0,0.6,0,0.9,0.1,1.5c0.5-0.1,0.9-0.2,1.4-0.3c-0.1,0.6-0.5,0.7-0.9,0.8c-0.3,0-0.8-0.1-0.9-0.3
			C38,79.4,38,78.9,38.6,78.3z"/>
		<path d="M27.1,29c-1.2-1.5-1.2-1.5-3.1-1.4C25.5,26.7,27,27.3,27.1,29z"/>
		<path d="M60.4,73c0.4-0.4,0.7-0.9,1.2-1.5c-0.5,0.1-0.8,0.1-1.1,0.2c0-0.1,0-0.2,0-0.2c0.1-0.1,0.2-0.2,0.3-0.2
			c0.4-0.2,0.8-0.5,1.1-0.1c0.3,0.4-0.1,0.7-0.4,0.9c-0.3,0.3-0.6,0.7-0.9,1C60.5,73.1,60.5,73.1,60.4,73z"/>
		<path d="M112.2,22.9L112.2,22.9c0.1-1,0.2-1.1,1-0.7c0.4,0.2,0.8,0.4,1.2,0.7c0.4,0.2,0.6,0.6,0.4,1.1
			C114,22.7,113.6,22.6,112.2,22.9z"/>
		<path d="M49.2,43.9c-1.1-0.3-1.6-1.4-1.5-3C48.4,41.9,48.2,43.2,49.2,43.9z"/>
		<path d="M147.2,16.6c-0.2,0.6-0.3,1.1-0.5,1.7c-0.1,0-0.2,0-0.3,0c0.2-1.3,0.8-2.5-0.3-3.7C147.1,15,147,15.9,147.2,16.6
			L147.2,16.6z"/>
		<path d="M69.9,22c-0.2,1.5-0.6,2.8-1.2,4.1c-0.1,0-0.2-0.1-0.3-0.1C68.9,24.7,69.4,23.3,69.9,22z"/>
		<path d="M102.6,75.3c0,0.5,0,1,0,1.6c0.4-0.1,0.7-0.1,1-0.2c0,0.1,0,0.2,0,0.2c-0.2,0.1-0.4,0.3-0.6,0.4c-0.5,0.2-0.9-0.1-0.9-0.7
			c0-0.5,0.2-0.9,0.3-1.4C102.4,75.3,102.5,75.3,102.6,75.3z"/>
		<path d="M127.8,27.5c-0.1,0.3-0.2,0.6-0.3,0.9c-0.2,0.6-0.4,1.2-0.6,1.9c-0.5,0-0.5-0.4-0.4-0.7C126.9,28.7,127.4,28.1,127.8,27.5
			L127.8,27.5z"/>
		<path d="M88.2,20.5c-0.7,1.2-1.4,2.3-2.1,3.5l0,0C86.3,22.6,86.9,21.4,88.2,20.5L88.2,20.5z"/>
		<path d="M122.1,36c0.1,1.3-0.3,2-1.1,2.6c-0.1,0-0.2-0.1-0.3-0.1C121.1,37.8,121.5,37,122.1,36z"/>
		<path d="M90,78.2c-0.4-1.1-0.9-2.1-1.3-3.2c0.6,0.1,0.6,0.1,1,1.3C89.8,76.9,89.9,77.6,90,78.2L90,78.2z"/>
		<path d="M119.7,35.7c0,0.5-0.1,1.1-0.1,1.6c0,0.5,0,0.9,0,1.5C118.9,37.9,119,37.3,119.7,35.7L119.7,35.7z"/>
		<path d="M171,40.4c-0.3,0.6-0.6,1.3-0.9,1.9c0,0-0.2,0-0.3,0C169.9,41.4,170,41.1,171,40.4z"/>
		<path d="M58.3,34.3c0.1-0.4,0.1-0.8,0.1-1.2c-0.3,0.5-0.5,1-0.6,1.5C58,34.4,58.1,34.3,58.3,34.3z"/>
		<path d="M152.5,12.3c0.4-0.1,0.8-0.2,1.1-0.1c0.4,0.1,0.7,0.4,0.9,0.7c0.2,0.2,0,0.4-0.8,1c0.2-0.5,0.3-0.8,0.4-1.2
			C153.6,12.5,153,12.4,152.5,12.3L152.5,12.3z"/>
		<path d="M27.1,15.7c1,0.6,1.4,1.5,1.7,2.5c-0.1,0-0.1,0.1-0.2,0.1C28.1,17.5,27.6,16.6,27.1,15.7L27.1,15.7z"/>
		<path d="M148.3,9.3c1.2,0.3,1.6,0.9,1,2.4C149.4,10.5,149,9.8,148.3,9.3L148.3,9.3z"/>
		<path d="M159.3,37.8c-0.2,0.8-0.5,1.7-0.8,2.6C158.4,39.4,158.5,39,159.3,37.8z"/>
		<path d="M173.2,54.2c-0.4,0.7-0.9,1.2-1.7,1.5C171.8,54.9,172.5,54.6,173.2,54.2z"/>
		<path d="M18,75.6c0.3-0.2,0.6-0.4,0.9-0.5c0.1,0,0.3,0.2,0.4,0.3c0,0.1-0.1,0.3-0.2,0.4C18.8,76,18.4,76,18,75.6z"/>
		<path d="M52.5,21.5c0.1-0.6,0.4-0.8,0.9-0.6c0.5,0.2,0.7,0.6,0.7,1.4c-0.3-0.4-0.5-0.7-0.7-1C53,21.2,52.8,21.3,52.5,21.5z"/>
		<path d="M54.3,24.7c0,0.4-0.1,0.7-0.6,1.1c0.1-0.8,0.2-1.5,0.3-2.3C54,24,54.2,24.3,54.3,24.7L54.3,24.7z"/>
		<path d="M29.6,16.8c0,0.8,0,1.5,0,2.3c-0.1,0-0.2,0-0.3,0C28.8,18.3,29.3,17.6,29.6,16.8L29.6,16.8z"/>
		<path d="M161.3,66.7c-0.5-0.6-1-1.1-1.5-1.6C160.7,65.3,161.1,65.7,161.3,66.7z"/>
		<path d="M150.9,15.7c0.6-0.6,1.3-1.2,2.2-1.4C152.5,14.9,151.8,15.5,150.9,15.7L150.9,15.7z"/>
		<path d="M32.4,69.9c0.4-1.2,0.4-1.2,1-1.5C33.4,69.2,32.9,69.5,32.4,69.9L32.4,69.9z"/>
		<path d="M157.6,67.1c0.8,0,1.6,0,2.5,0C159.2,67.5,158.4,67.4,157.6,67.1L157.6,67.1z"/>
		<path d="M46.9,26.1c-0.5-0.3-1-0.6-1.4-0.8C46.3,25,46.4,25.1,46.9,26.1z"/>
		<path d="M79.9,32.2c0.3,0.6,0.5,1.1,0.8,1.7C80,33.5,79.8,32.9,79.9,32.2z"/>
		<path d="M23,48.2c0.4-0.6,1-0.8,1.8-0.6C24.1,47.9,23.5,48.1,23,48.2z"/>
		<path d="M50.2,63.4c-0.3-0.3-0.5-0.6-0.8-0.8C50.3,62.4,50.5,62.7,50.2,63.4z"/>
		<path d="M62.7,72.9c0.1-0.1,0.1-0.3,0.3-0.3c0.1-0.1,0.3-0.1,0.5-0.1C63.3,73.1,63.3,73.1,62.7,72.9z"/>
		<path d="M82.1,6.7c0.1,0.4,0.3,0.7,0.4,1C81.7,7.7,81.7,7.7,82.1,6.7z"/>
		<path d="M92.2,25.5c-0.3,0.4-0.5,0.8-0.8,1.2c-0.1,0-0.2-0.1-0.2-0.1c0.2-0.4,0.5-0.8,0.7-1.2C92,25.4,92.1,25.5,92.2,25.5z"/>
		<path d="M133.6,18.7c-0.4,0.5-0.7,0.9-1.1,1.4C132.5,19.3,132.9,18.9,133.6,18.7L133.6,18.7z"/>
		<path d="M53.1,36c-0.1-0.7,0.2-1.3,0.8-1.8C53.7,34.8,53.4,35.4,53.1,36L53.1,36z"/>
		<path d="M82.3,78.4c0.3-0.5,0.6-0.8,1-1.4C83.1,78,83.1,78,82.3,78.4z"/>
		<path d="M51.8,18.6c0-0.4,0.1-0.9,0.1-1.3c0.1,0,0.2,0,0.2,0c0,0.4-0.1,0.9-0.1,1.3C51.9,18.6,51.8,18.6,51.8,18.6z"/>
		<path d="M150.7,12.9c0.5-0.6,1.1-0.8,1.9-0.7l0,0C151.9,12.5,151.3,12.7,150.7,12.9L150.7,12.9z"/>
		<path d="M83.1,3.9c-0.2,0.5-0.4,1-0.6,1.5c-0.1-0.1-0.2-0.1-0.3-0.2C82.5,4.8,82.8,4.4,83.1,3.9L83.1,3.9z"/>
		<path d="M156,50.1c-0.5-0.1-1-0.3-1.5-0.4C155.1,49.4,155.6,49.6,156,50.1L156,50.1z"/>
		<path d="M159.9,59.3c-0.2,0.4-0.4,0.8-0.6,1.2c-0.1,0-0.2-0.1-0.2-0.1C159.1,59.8,159.5,59.6,159.9,59.3L159.9,59.3z"/>
		<path d="M167.6,48.3c-0.1,0.3-0.1,0.5-0.3,0.9c-0.5-0.5-0.2-0.8,0-1C167.4,48.2,167.5,48.2,167.6,48.3z"/>
	</g>
</g>
<g>
	<path fill-rule="evenodd" clip-rule="evenodd" fill="#2C5F67" d="M240.2,93.8c-0.2-1.2-0.9-2.1-2.1-2.4c-0.5-0.2-1.2-0.3-1.7-0.2
		c-1.8,0.2-3.7,0.5-5.3,0.7c-0.1-1.4,0.1-3.1-0.6-4.2c-0.7-1.1-2.4-1.7-3.8-2.6c0.3-0.6,0.7-1.4,1-2.1c-0.5-0.6-1-1.2-1.5-1.8
		c4.8-1.6,5.1-5.9,6.5-9.4c0.3-0.8-0.2-1.7-1.3-1.6c-3.7,0.5-7.1,1.4-9.5,4.5c-0.3,0.4-0.6,0.8-1.2,1.6c0.2-3,0.6-5.6-0.6-7.9
		c-0.3-0.1-0.4-0.1-0.6-0.1c-2.9,0.3-2.9,0.4-4.3-2.1c-0.6-1.1-1.4-1.8-2.8-1.6c-0.4,0.1-0.8-0.1-1.1-0.2c0-0.6,0-1.1,0-1.6
		c-0.1-2.2-1.3-3-3.5-2.4c-0.8,0.2-1.6,0.8-2.3,1.3c-0.7,0.6-1.3,1.4-1.9,2.2c-1.3,1.6-2.4,1.8-4.3,0.7c-1.5-0.9-3-1.3-4.7-1
		c-1,0.2-2,0.1-2.5-1c-0.6-1.2-1.6-1.8-3-1.7c-1.4,0-2.1-0.7-2.1-2.5c1.3,1.5,2.7,2.1,4.1,1.1c0.7-0.5,1.5-1,2.3-1.5
		c-0.7-0.3-0.6-1.6,0.4-1.6c2.6,0,5-0.7,7.4-1.7c1.8-1.2,3.4-2.8,4.9-4c0.3-0.3,0.5-0.5,0.7-0.8c-0.1-0.1-0.2-0.2-0.3-0.3
		c-1.6-2.6-4.4-1.9-7-1.7c-1.1,0.1-1.1-1.6,0-1.7c0.2,0,0.5,0,0.7-0.1c0.8-1.5,1.9-1.2,2.9-1.3c3.1-0.1,5.4-1.4,7.1-3.8
		c0.5-0.7,0.7-1.4,0.6-1.9c-0.2,0-0.3-0.1-0.5-0.1c-0.3-0.1-0.5-0.2-0.8-0.4c-1.2,1.6-4.4,1.1-4.4-1.5c0-3.2,0-6.5-0.4-9.7
		c0-0.1,0-0.2,0-0.3c-0.4-0.4-0.9-0.7-1.4-0.8c-0.3,0.3-0.7,0.6-1.3,0.7c-2.1,0.3-4.4,5.8-3.5,7.6c0.5,1,0.3,2-0.3,2.7
		c0,0,0,0,0.1,0c1.3,1.1,2.3,2.4,1.8,4.2c-0.2,0.7-1.2,0.9-1.6,0.2c-1.2-2.3-4.5-5-6.9-3.4c-0.6,0.7-1.1,1.6-1.1,2.8
		c-0.1,3.1,0.6,5.9,3.4,7.8c0.4,0.3,0.6,0.7,1,1.2c-0.1,0.1-0.1,0.1-0.2,0.2c0.2,0.3,0.3,0.6,0.1,1c-0.5,0.8-1,1.8-1.7,2.5
		c-0.7,0.7-1.9-0.2-1.3-1c0.1-0.2,0.3-0.5,0.4-0.7c-1-0.2-1.9-0.8-2.6-1.7c-0.1-0.2-0.2-0.3-0.2-0.5c-0.1,0-0.1-0.1-0.2-0.1
		c-0.9-0.6-1.4-0.1-1.5-1.2c-0.2-1.6-0.6-3.2-2.3-3.7c0.4-0.6,1.1-1,1.1-1.5c0-0.9-0.7-1.5-1.6-1.5c-0.7,0-1.5,0.1-2.2,0.2
		c-0.8,0.1-1.6,0.2-2.5,0.3c-0.2-0.7-0.4-1.3-0.5-1.8c-0.4-2-1.5-3.7-3-5.1c-0.5-0.5-1.5-1.1-2.1-1c-1.3,0.2-2-0.4-2.7-1.3
		c-0.6-0.7-1.3-1.5-2.1-2c-1.1-0.8-1.7-1.7-1.7-3c0-1.6,0-3.2,0.2-4.8c0.3-2.7-0.8-3.8-3.5-3.3c-0.3,0.1-0.7,0.3-1,0.2
		c-0.5-0.1-1.3-0.2-1.5-0.6c-1.3-2.3-3.1-2.3-5.3-1.5c-1.5,0.5-2.1,0-2.3-1.5c-0.1-0.5,0.1-1-0.1-1.4c-0.2-0.4-0.5-1-0.9-1
		c-1.4-0.4-2.8-0.6-4.3,0c-1.3,0.5-1.5,1.4-1.8,2.4c-0.3,1.1-1,1.4-2.1,1c-1.7-0.7-3.5-0.9-4.9-2.3c-1.2-1.2-2.7-0.9-3.4,0.7
		c-0.6,1.3-0.9,2.7-1.1,4.1c-0.3,1.5-0.2,3-0.5,4.5c-0.2,1.1-0.6,2.2-2.1,2.7c-1.7-1.3-3.5-2.5-5.1-3.9c-1.6-1.3-3.2-1.9-5.2-1.1
		c-1.8,0.7-2.1,1.5-1.3,3.3c0.8,1.7,1.1,3.3-0.2,5c-0.5,0.6-0.5,1.7-0.4,2.5c0.1,1.9-0.1,2.3-2.1,2.3c-1.5,0-3.1-0.4-4.6-0.8
		c-1.6-0.4-3-0.2-3.8,1.4c-0.5,0.9-1.2,1.2-2.2,1.3c-0.9,0.1-1.8,0.4-2.6,0.8c-0.9,0.4-1.9,1.1-1.5,2.2c0.5,1.5-0.5,2-1.3,2.5
		c-1.6-0.8-3-1.8-4.5-2.3c-2.2-0.8-3.8,0.4-3.8,2.6c0,0.9,0.2,1.7,0.3,2.6c0,0.6-0.1,1.3-0.2,2.2c-1.9-0.8-3.4-1.5-4.9-2
		c-2.9-0.9-4.6,0.5-4,3.4c0.4,1.9,0.9,3.7,1.4,5.6c0.4,1.2,0.2,2-0.6,3.1c-0.8,1-1.4,2.2-1.6,3.4c-0.4,3,0.8,4.1,3.9,4
		c0.6,0,1.2,0.1,2.4,0.2c-2.3,2-5.7,1.3-6.5,4.4c-2.8-0.9-4.7,0.8-6.6,2.2c-1.2,0.9-1,2.7,0.3,3.5c0.5,0.3,1,0.5,1.6,0.7
		c1.3,0.4,2.3,0.9,2,2.5c-0.1,0.5,0.4,1.2,0.8,1.7c0.4,0.6,0.9,1.1,1.5,1.8c-0.6,0.7-1.2,1.3-1.7,1.9c-1.4,1.6-1.4,2.7,0.1,4.1
		c2.3,2.1,4.7,2.3,7.4,0.8c2.4-1.4,2.6-1.4,4.4,0.5c0.3,0.3,0.8,0.6,1.2,0.9c0.5,0.3,0.9,0.7,1.4,1c-0.1,0.2-0.2,0.3-0.2,0.5
		c-0.8-0.2-1.6-0.3-2.3-0.5c-2.4-0.6-2.5-0.6-3.3,2.3c-0.4-2.2-1.8-1.9-2.9-1.3c-1.2,0.7-2.6,1.5-3.1,2.6c-0.9,2.2-2.2,3.8-4.3,5
		c-1.9,1.1-1.9,3.4-0.4,5c1.3,1.4,3.1,2,5,1.6c4.3-0.8,8.7-1.5,11.9-4.9c0.2-0.2,0.5-0.3,1-0.5c1.4,2.5,3.3,4.4,6,5.4
		c0,0.4,0,0.6-0.1,0.8c-0.4,2.6,0.6,3.7,3.3,3.8c0.8,0,1.7-0.1,2.5,0c2.7,0.4,4.6-0.9,6.4-2.5c0.8-0.7,1.6-1.3,2.5-1.9
		c0.9-0.6,1.9-0.7,2.7,0.1c1.4,1.3,3.1,1.4,4.9,1.1c1.3-0.3,2.2-0.2,2.8,1.1c0.6,1.4,1.9,2,3.5,1.8c2.1-0.3,4.3-0.7,6.2-1.4
		c1.2-0.5,2.1-0.5,3.2,0.1c1.1,0.6,2.4,1,3.6,1.6c0.5,0.2,1,0.7,1.1,1.1c0.2,1.7,1.3,2,2.8,1.9c0.6,0,1.2,0,1.7,0.3
		c2.9,1.9,5.6,1.2,8.3-0.6c0.1-0.1,0.3,0,0.7,0.1c0.2,0.5,0.5,1,0.7,1.6c0.7,1.7,1.2,2,3,1.4c1.2-0.4,2.4-1.1,3.7-1.5
		c0.7-0.2,1.9-0.4,2.3-0.1c1.6,1.3,3.3,1.2,5,0.7c0.8,3.2,2.7,4.1,5.5,2.8c1.3-0.6,2.4-1.3,3.1-2.6c1-1.8,2.4-3.2,4.5-4.2
		c0.5,0.8,0.9,1.6,1.4,2.3c0.6,1,1.3,1.8,2.7,1.9c1.1,0.1,2.1,0.2,3.2,0.3c1.5,0.1,2-0.3,2.1-1.7c0-1.2-0.1-2.5-0.3-4.1
		c1.2,1.3,2.1,2.3,3.1,3.2c1.1,0.9,2.4,1.7,3.6,2.6c1.8,1.3,2.2,1.5,3.9,0.2c1.4-1.1,2.8-1.1,4.4-0.7c3.9,1.2,5.4,0.7,7.7-2.3
		c0.7-0.9,1.3-1.1,2.3-0.8c0.6,0.2,1.3,0.4,1.9,0.6c3.5,1,5.1-0.4,4.4-3.8c-0.1-0.3-0.1-0.6-0.2-0.9c-0.5-1.8-0.1-3,1.7-3.9
		c1.8-0.9,2.1-2.3,1.5-4.1c-0.2-0.7-0.5-1.4-0.8-2.3c1.4-0.3,2.6-0.4,3.8-0.8c1.3-0.3,2.5-0.7,3.7-1.3
		C239.8,95.9,240.5,95.1,240.2,93.8z"/>
	<g>
		<path fill-rule="evenodd" clip-rule="evenodd" d="M168.9,64.5c2,0.1,3.7,0.8,5.3,2.4c0.6-0.8,1.1-1.4,1.5-2
			c1.7-2.6,3.7-4.9,6.4-6.4c1.1-0.6,2.5-1.6,3.7-0.6c1.2,0.9,0.3,2.3,0,3.5c-0.1,0.4-0.3,0.7-0.5,1.3c4.7-2.8,6-2.4,7,2
			c0.6-0.2,1.2-0.4,1.8-0.6c1.4-0.6,2.8-0.4,4.1,0c1.3,0.4,2,1.4,2.2,2.7c0.4,2.6-2.3,6.5-4.9,7c-0.4,0.1-0.9-0.1-1.6-0.2
			c1.4-0.9,2.7-1.5,3.7-2.4c1.8-1.5,2.3-3.7,1.4-5.1c-0.9-1.4-3.5-1.8-5.5-0.6c-1.2,0.8-2.3,1.9-3.3,2.9c-0.8,0.8-1.4,1.8-3.3,1.4
			c0.8-1,1.5-1.7,2-2.4c0.7-0.8,1.5-1.6,1.8-2.6c0.2-0.7,0-2-0.5-2.4c-0.5-0.4-1.8-0.4-2.5,0c-1.3,0.7-2.4,1.8-3.5,2.8
			c-0.8,0.7-1.6,1.6-2.6,2.2c0.9-2.9,3.4-5.1,3.2-8.7c-0.9,0.3-1.7,0.5-2.4,0.9c-3.8,1.9-6.1,5.3-8,8.9c-0.5,1-1,2-1.5,3
			c-0.2-0.1-0.4-0.2-0.6-0.2c0.2-0.7,0.3-1.3,0.6-1.9c0.4-1,0.1-1.8-0.6-2.5c-1.2-1.1-2.2-0.9-2.5,0.6c-0.3,1.9-0.3,3.8-0.2,5.7
			c0,0.9,0.5,1.9-0.3,3.1c-0.3-0.9-0.5-1.5-0.7-2.1c-0.4-1-0.9-1.8-2.1-1.8c-1.2-0.1-2.1,0.4-2.7,1.4c-0.6,1.1-0.4,2.2,0.4,3
			c0.9,0.9,2,1.7,3.1,2.7c-1.9,1.1-3-2.4-5.1-0.8c1.5,2.2,4,3.7,3.6,7.3c-1.2-2.5-2-4.8-4.4-5.6c-1.6,2.4-1.4,6.1,0.4,8.2
			c1.4,1.6,1.5,3.4,0.2,5.6c-0.4-0.5-0.7-0.9-1-1.3c0.4-0.2,1-0.2,1.1-0.5c0.3-0.9,0.1-1.7-1.1-2.7c0,1.3,0,2.3,0,3.2
			c-0.6-1.2-1.1-2.5-1.9-4.3c-0.6,1.5-1,2.3-1.4,3.2c-0.4-2.9-0.8-5.8-3.7-7.7c-0.4,0.3-0.9,0.6-1,1c-0.5,2.1-1.2,4.2-1.3,6.3
			c-0.1,2.5,1.6,4,4,4.8c1.1,0.4,2.3,1,3.1,1.9c1.2,1.2,0.8,2-1.2,2.8c-0.1-0.3-0.4-0.5-0.4-0.8c-0.3-2.3-0.4-2.5-2.4-3.1
			c-1.9-0.5-3.4-0.1-4.4,1.3c-1.1,1.5-1.7,3.3-1.4,5.2c0.2,1,1.1,1.8,1.8,2.9c-1,0.3-2.3,0.7-3.6,1.1c-1.2,0.4-2.5,0.8-3.7,1.2
			c1,2,1.4,2.3,3,2c1.2-0.2,2.4-0.7,3.5-1.2c3.1-1.5,4-1.3,6.4,1.5c-0.7,0.7-1.5,1.3-2.1,2c-0.9,1.2-0.4,2.2,1,2.1
			c0.8,0,1.7-0.5,2.5-0.8c0.5-0.2,0.9-0.7,1.6-0.8c-0.2,1.8-1.5,2.5-2.9,2.8c-1.9,0.4-3.5-0.1-4.3-2.2c-0.8,0.3-1.6,0.6-2.3,0.8
			c-1.8,0.6-2.3,0.1-2-1.8c0.1-0.5,0.2-0.9,0.4-1.6c-0.6,0.1-1,0-1.4,0.1c-1.5,0.4-2.6-0.1-3.5-1.2c-1.1-1.3-2.1-2.5-3.2-3.7
			c-0.2,0-0.4-0.1-0.5-0.1c-3.7,0.5-5.2-1.1-4.7-4.8c0.1-1,0.3-1.9,0.5-3.3c-1,0.5-1.6,0.8-2.3,1.1c-0.8,0.4-1.7,0.9-2.5,0.2
			c-1-0.8-0.3-1.6,0.1-2.5c0.2-0.4,0.3-0.7,0.6-1.4c-1.2,0.3-2.1,0.7-3.1,0.8c-2,0.3-2.9-0.8-2.2-2.6c1.3-3,3.3-5.5,5.6-7.8
			c0.5-0.5,1.5-0.7,2.4-0.7c-2,1-3.2,2.7-4.4,4.4c-1.2,1.7-2.7,3.2-2.8,5.4c1.9,0.8,3.3-0.2,4.7-1c1.4-0.8,2.6-1.8,4.3-3
			c-1.8,2.6-3.2,4.9-4.7,7.1c0.2,0.2,0.3,0.4,0.5,0.5c2.7-0.1,4.4-2.2,6.7-3.4c-0.5,1-1,2-1.4,3.1c-0.4,1.2-0.9,2.3-1.1,3.6
			c-0.2,1.3,0.2,2.5,1.4,3.2c1.1,0.7,2.1,0,3-0.6c1.1-1,2.1-2.1,3.2-3.1c0.3-0.3,0.7-0.7,0.9-1c0.8,0.6,1.6,1.2,2.6,2
			c-0.6,0.1-1,0.2-1.5,0.3c-1.4,0.1-2.5,0.9-3.2,2.1c-0.3,0.4-0.4,1.2-0.2,1.6c0.2,0.4,1,0.7,1.5,0.6c1.6-0.3,3.2-0.7,4.9-1.1
			c-1.4-4.4,0.1-7.8,3.7-10.4c-3.6-2.9-5.6-3.1-8.6-1c1,2.1,2.8,3,5.3,2.8c-1,1.2-1.9,1.3-3.3,0.5c-0.9-0.6-1.8-1.2-2.6-1.9
			c-0.4-0.3-0.7-1-0.7-1.5c-0.1-1.5,0-3.1,0-4.6c-1.1-0.6-2-1.1-2.9-1.7c0.3-1.5,1.2-1.9,2.4-1.9l0,0c-0.2,1.1,0,2,1.3,2.1
			c0.8,0.1,1.5,0.4,2.5,0.6c-0.8,0.9-1.5,1.6-2.2,2.3c0.1,0.2,0.2,0.4,0.3,0.6c1.2,0,2.4-0.1,3.5,0c1.2,0.2,2.3,0.7,3.7,1.1
			c0-0.7,0.1-1.3,0.1-1.8c0-2.5,0.6-4.9,1.8-7.2c0.7-1.3,1.5-1.5,2.6-0.6c0.7,0.6,1.2,1.3,1.7,2.1c0.4,0.7,0.8,1.4,1.1,2
			c1.3-0.1,1.4-0.8,1.4-1.6c0.1-1.1,0-2.2,0.1-3.2c0.2-1.8,0.5-3.5,1.9-4.7c0.9-0.8,1.2-1.6,1-2.8c-0.1-0.8,0-1.6,0.1-2.6
			c-1.5-1.2-3.2-1.8-5-1.8c-1.6,0-3.2,0.2-4.7,0.6c-2.3,0.6-2.7,2.4-1,4c1.5,1.3,2.7,3.2,5.1,3.2c-0.1,1.2-1,1.5-1.6,1
			c-2-1.6-4-3.3-5.6-5.2c-0.9-1.1,1.1-3.7,3-4c1.2-0.2,2.4-0.4,3.6-0.6c0-0.4,0-0.6-0.1-0.7c-1.8-2.6-1.2-4.2,1.9-4.9
			c3.2-0.7,6.1,0.3,8.8,1.9c0.4,0.3,0.7,0.9,0.7,1.6c-0.3-0.2-0.6-0.5-0.9-0.7c-2.4-1.9-5.2-2.5-8.2-2.1c-0.6,0.1-1.1,0.3-1.6,0.6
			c-1.2,0.7-1.3,1.8-0.3,2.7c2.2,1.8,4.7,2.8,7.5,3c1.3,0.1,2.6-0.2,4.2-0.4C168.1,68.7,169.9,66.8,168.9,64.5L168.9,64.5z
			 M149,113.9c2.4-0.6,4.1-1.7,5.7-3.1C152.3,108.6,150,109.8,149,113.9z"/>
		<path fill-rule="evenodd" clip-rule="evenodd" d="M199.9,30.1c0-1.4,1.1-2,2.1-2.6c1.5-0.8,2.5-0.3,2.9,1.3
			c0.9,3.3,1.4,6.7-0.6,10.3c2.2,0,4,0,5.8,0c0.4,1.7-0.3,2.7-1.2,3.6c-1.8,1.7-4,2.6-6.5,2.6c-2.6-0.1-2.6,0-3.5,2.9
			c0.5,0,1,0,1.4,0c1.1,0,2.2-0.1,3.2-0.1c1.2,0,2.7,0,3.1,1.4c0.4,1.3-0.9,2.1-1.8,2.7c-3.3,2.3-6.7,4.3-10.9,4.4
			c-0.8,0-1.6,0.7-2.3,1.2c-1.8,1.3-3,1.2-4-0.8c-0.6-1.2-1-2.4-1.5-3.7c-1.3,1.2-1.3,3.4-3.7,4.3c0.8-1.7,1.5-2.8,2-4
			c0.5-1.4,1-2.8,1.3-4.3c0.3-1.3,0.3-2.7,0.5-4c0.2,0,0.4,0,0.6,0c0,0.8,0.1,1.7,0.1,2.5c0,1.1,0.1,1.8,1.3,2.3
			c2.1,0.9,3.4,2.6,4.3,5c1.3-1.6,2.3-2.9,3.2-4c-1.4-1.2-2.9-2-3.7-3.3c-1.1-1.8-1.5-4-1.3-6.2c0.1-1.2,0.4-2.3,1.8-2.7
			c1.5-0.4,2.9-1,4.1,0.5c0.9,1.1,1.7,2.4,2.7,3.6c0.2-0.1,0.4-0.2,0.6-0.3c1.2-1.3,2-2.9,3.4-4.1c2.3-2,1.9-7.3,0.4-9.6
			c-0.5-0.8-1.2-0.8-1.9-0.3C201.1,29,200.5,29.6,199.9,30.1L199.9,30.1z M196.9,48.7c0.3-1,0.5-1.8,0.9-2.7c1.1-2.3,0.2-4.2-1.2-6
			c-0.9-1.2-2.2-1.3-3.6-0.6c-1.5,0.7-1.8,1.3-1.5,3c0.3,1.4,0.6,2.8,1.1,4.1C193.5,48.6,194.2,49,196.9,48.7z M194.8,55
			c3,0.8,9-2.2,10.7-5.4C200.9,47.7,196.2,50.1,194.8,55z M200.9,43.6c3.5,1.6,7.5-0.2,8.2-3.6c-1.7,0.1-3.3,0.2-4.9,0.5
			C202.5,40.7,201.5,41.8,200.9,43.6z M186.7,51.1c0.6,1.9,1.1,3.7,1.8,5.4c0.2,0.4,1.2,1,1.5,0.8c0.5-0.2,1.1-1,1.2-1.5
			C191.7,53.5,189.5,51.2,186.7,51.1z"/>
		<path fill-rule="evenodd" clip-rule="evenodd" d="M104.2,65.9c-1.2,1.6-3,2-4.8,2.1c-3.6,0-4.8-1.8-3-5.2c-0.3-0.3-0.6-0.7-0.9-1
			c-1.1-1.6-1.3-2.6,0-4c1.8-2,3.8-3.9,5.7-5.8c0.5-0.5,0.8-1.2,1-1.8c0.5-1.8,1.4-2.9,3.2-3c1.6,0,3.3,0.3,4.8,0.8
			c1.5,0.4,3,1.2,4.8,1.9c-0.1-1.3-0.2-2.2-0.2-3.1c0-0.9,0-1.8,0.2-2.7c0.5-1.8,1.2-2.2,3.1-1.7c0.4,0.1,0.8,0.2,1.4,0.4
			c0.4-0.9,0.7-1.7,1-2.5c0.6-1.4,1.5-2.6,3-3.1c1.9-0.6,3.1-0.1,4.1,1.7c0.3,0.6,0.9,1.1,1.6,1.8c-0.5,0.7-1.3,1.7-2.1,2.7
			c-0.1-0.1-0.3-0.1-0.4-0.2c0.1-0.8,0.2-1.6,0.1-2.4c-0.1-1.1-0.3-2.2-1.6-2.5c-1.1-0.3-2.2,0.2-2.9,1.1c-1.4,2-2.3,4-1,6.5
			c0.9,1.9,0.8,2,0.1,3.8c-1.2-0.6-1.2-1.7-1.3-2.7c-0.2-2-1.4-3-3.1-3.7c-1.4,0.7-1.5,2-1.4,3.1c0.1,1.7,0.4,3.4,0.7,5.2
			c0.2,0.9,0.4,1.9,0.4,2.9c-1.4-1.4-1.6-3.9-4.2-4.2c-0.8,2.4,0.8,4.2,1,6.3l0,0c-0.8-1-1.6-2-2.5-3.3c-5.4-1.3-7.3-1.3-9.5,0
			c0.9,0.4,1.6,0.8,2.4,1.2c0,0.1,0,0.3,0,0.5c-0.5,0-1.1,0.1-1.6,0c-2.9-0.4-5.9,1.6-6.6,4.4c-0.3,1.3,0.3,2.1,1.4,2.6
			c0.7,0.3,1.5,0.5,2.7,1c-1.1,0.5-1.8,0.7-2.3,1.1c-0.5,0.4-1.2,1.1-1.1,1.4c0.2,0.6,0.9,1.3,1.4,1.4c1.4,0.1,2.8,0,4.2-0.1
			C102.8,66.5,103.5,66.2,104.2,65.9L104.2,65.9z M110.6,51.7c-0.4-1.2-0.4-2.1-0.8-2.6c-1.1-1.3-4.5-1.5-5.8-0.4
			c-0.3,0.3-0.7,0.9-0.6,1.2c0.2,0.4,0.7,1,1.1,1C106.3,51.2,108.1,51.4,110.6,51.7z"/>
		<path fill-rule="evenodd" clip-rule="evenodd" d="M102.5,94.8c-0.5,0.1-1.2,0.3-1.9,0.4c-2.2,0.3-3.3-0.8-2.9-3
			c0.2-1.1,0.6-2.2,0.9-3.3c-0.4-0.2-0.6-0.4-0.8-0.4c-2.4-0.7-2.7-1.3-1.3-3.4c1-1.6,2-3.2,4-4.4c-1.1,2.5-3.2,3.9-3.8,6.3
			c1.8,0.4,1.8,0.4,5.2-1.9c-0.4,0.8-0.6,1.3-0.8,1.7c-0.9,1.8-1.8,3.5-2.6,5.4c-0.5,1.4,0.3,2.4,1.8,2.1c1.5-0.3,2.8-0.9,3.6-2.4
			c0.6-1.2,1.3-2.3,2.1-3.3c0.3-0.5,0.9-0.8,1.4-1.2c0.2,0.1,0.3,0.2,0.5,0.3c-0.2,0.6-0.4,1.3-0.7,1.9c-0.5,0.9-1.3,1.7-1.8,2.7
			c-0.4,0.8-0.8,1.6-1,2.5c-0.1,1.1-0.2,2.3,1.1,2.8c1.2,0.4,1.8-0.6,2.4-1.4c0.7-1.1,1.4-2.3,2-3.4c0.3-0.6,0.6-1.2,1.2-2.2
			c0.6,1.4-0.2,2.1-0.3,3c-0.3,1.4-0.7,2.7-0.8,4.1c-0.1,1.1,0.5,2.1,1.7,2.5c1.1,0.3,2-0.4,2.5-1.3c0.8-1.4,1.4-3,2.2-4.9
			c0.1,0.8,0.4,1.3,0.2,1.6c-0.6,1.5-1,3-1.9,4.3c-1.5,2.2-3.9,1.9-5.2-0.4c-0.3-0.6-0.5-1.2-0.8-1.9c-1.3,0.4-2.4,2.2-3.8,1
			C103.7,97.7,103.3,96.2,102.5,94.8z"/>
		<path fill-rule="evenodd" clip-rule="evenodd" d="M141.3,34.9c-0.4-1.5-0.8-3-1.1-4.5c-0.4-1.8-1.2-3.3-2.8-4.2
			c-0.4-0.2-0.9-0.5-1.4-0.5c-0.9-0.1-1.8,0.3-1.9,1.2c-0.1,0.5,0.5,1.2,0.9,1.5c0.7,0.5,1.6,0.9,2.4,1.3c0.4,0.2,0.9,0.4,1.3,0.6
			c-0.2,0.2-0.4,0.5-0.5,0.7c-0.4-0.1-0.9-0.1-1.3-0.3c-1-0.5-2-1.2-3-1.8c-2-1.3-2.4-1.2-3.7,0.7c-1.3-0.4-2.6-0.8-4-1.1
			c-2-0.4-3.3,0-3.7,1.1c-0.5,1.2,0.2,3.3,1.3,4.3c0.5,0.4,1,0.7,1.5,1.6c-1.9,0-3.7,0-5.8,0c-0.2-1.5,1.7-0.9,2.4-1.8
			c-0.2-0.7-0.4-1.5-0.6-2.3c-0.4-2.3,0.7-3.7,3-3.7c0.8,0,1.7-0.1,2.5,0.2c2,0.7,3.8,0.1,5.5-0.7c1.4-0.6,2.6-1.7,3.5-2.9
			c0.5-0.7,0.3-1.9,0.4-2.9c0.2-2,0.3-3.9,0.5-5.9c0.1-0.6,0.4-1.3,0.8-1.8c0.9-1.4,2-1.4,2.9,0c0.5,0.7,0.8,1.6,1.2,2.4
			c-0.1,0.1-0.3,0.2-0.4,0.3c-0.7-0.9-1.4-1.8-2.2-2.8c-0.5,0.6-1,0.9-1.2,1.4c-1.1,3-1.3,6.1-0.5,9.3c0.2,0.7,0.7,1.3,1.2,1.8
			C140.7,28.3,141.7,31.4,141.3,34.9z"/>
		<path fill-rule="evenodd" clip-rule="evenodd" d="M218.3,100.1c0.1-0.5,0.2-0.6,0.2-0.7c1.2-1.8,1.3-2.5,0.4-3.5
			c-0.9-1.1-2.4-1.3-4.1-0.6c-0.7,0.3-1.4,0.7-2.3,1.1c-0.1-1.6,1-1.8,1.5-2.5c0.6-0.9,2-1.6,1.3-3c-0.6-1.2-2-1.4-3.3-1.3
			c-1,0-1.9,0.2-3.2,0.3c0-2.7,2.5-4.5,2.4-7c-3,0.1-5.8,2.7-8,7.4c-0.1-0.8-0.3-1.2-0.2-1.6c0.7-2,2-3.6,3.6-4.9
			c2.3-1.9,4.4-3,7-3.3c-0.6,2.3-1.1,4.4-1.7,7c0.5,0.2,1.2,0.3,1.9,0.6c1.8,0.7,3.3,1.7,3,4c-0.1,0.8,0.2,1.4,1,1.8
			c0.5,0.3,1,0.6,1.4,1C221.3,96.5,220.9,98.6,218.3,100.1z"/>
		<path fill-rule="evenodd" clip-rule="evenodd" d="M218,108.3c1.7-0.8,2.5-0.2,2.9,1c0.8,2.5,2.9,3.5,5.2,4.2
			c1.9,0.5,2.2,0.3,2.7-1.7c0.1-0.2,0.2-0.4,0.3-0.8c0.6,1.1,0.8,2,0.1,2.9c-0.7,0.9-1.7,1.1-2.7,0.8c-1.6-0.5-3.3-1.1-5.1-1.7
			c-0.2,0.5-0.5,1.1-0.8,1.7c-1,2.3-3.2,3.4-5.7,2.9c-0.6-0.1-1.2-0.3-1.7-0.5c-1.7-0.9-3.1-1.1-5.1-0.3c-3,1.2-7.2-1.3-8.9-4.8
			c-0.4-0.8-0.6-1.8-0.7-2.8c1.5,3.1,3.3,5.8,6.8,6.6c1.5,0.3,3,0.2,4.3-1c-0.5-2.2-2.5-3.8-2-6.4c0.7,1.5,1.5,2.9,2.4,4.8
			c0.3-0.9,0.5-1.4,0.8-2.3c0.1,0.8,0.2,1.1,0.2,1.3c0,2.5,1,3.7,3.3,4.2c2.5,0.5,4.5-0.4,5.5-2.4c0.6-1.2,0.5-2.4-0.5-3.4
			C219.1,109.8,218.6,109.1,218,108.3z"/>
		<path fill-rule="evenodd" clip-rule="evenodd" d="M88.7,89.3c-3,1.2-5,0.1-6.9-1.5c-0.9-0.8-1-1.7-0.1-2.6
			c0.8-0.8,1.6-1.6,2.5-2.5c0.6-0.6,1.1-1.1,1.8-1.9c-1.6-0.5-3-1-4.3-1.4c-0.1-1.9,1.6-2.1,2.5-3.4c-1.4-0.1-2.5-0.1-3.6-0.2
			c-1.4-0.2-3.1-0.3-3.5-1.9c-0.4-1.6,1.3-2.1,2.4-2.8c0.9-0.6,2-1.1,3-1.6c0.1,0.1,0.2,0.3,0.3,0.4c-1.5,1.1-3,2.2-4.9,3.5
			c4.5,2.7,8.9,0.6,13,0.6c0,0.2,0.1,0.4,0.1,0.6c-1.3,0.5-2.6,1-3.9,1.6c-1.3,0.6-2.4,1.3-4.2,2.3c2,0.6,3.5,1.1,5.5,1.7
			c-2.2,2.2-4.1,4-5.9,5.8C83.6,88.9,86.5,88.1,88.7,89.3z"/>
		<path fill-rule="evenodd" clip-rule="evenodd" d="M219.8,73.9c0-0.2,0-0.5,0-0.7c0.2-1.1,0.5-2.3-0.7-2.9
			c-1.3-0.7-2.6-0.4-3.7,0.4c-0.9,0.6-1.6,1.5-2.4,2.2c-0.5,0.4-1.1,0.6-2,0.6c0.2-0.5,0.3-1,0.6-1.4c0.6-0.6,1.3-1,1.9-1.6
			c0.5-0.5,1.1-1.1,1.3-1.7c0.3-0.8,0.5-2-0.5-2.4c-0.6-0.3-1.6-0.2-2.3,0.1c-1.4,0.6-2.6,1.5-3.9,2.2c-0.3,0.2-0.7,0.4-1.3,0.8
			c0.3-1.9,1.4-3,2.2-4.4c0.5-0.9,1-1.7,1.3-2.6c0.2-0.5,0.1-1.3-0.2-1.5c-0.4-0.2-1.2-0.2-1.6,0.1c-0.8,0.5-1.6,1.2-2.2,1.9
			c-2,2.2-2.9,4.8-3.4,7.6c-0.2,1-0.4,2.1-1,3.2c-0.1-0.5-0.4-1-0.3-1.5c0.5-4.2,2-7.9,4.9-10.9c0.6-0.6,1.3-1.1,2.1-1.3
			c0.8-0.1,2-0.1,2.5,0.4c0.4,0.5,0.3,1.7,0.1,2.5c-0.2,0.9-0.9,1.6-1.3,2.4c-0.2,0.4-0.4,0.8-0.9,1.8c1.3-0.7,2-1.2,2.8-1.6
			c2.4-1.3,3.7-0.7,4.3,2c0.1,0.3,0.2,0.6,0.3,1c0.8,0.1,1.6,0.2,2.4,0.3c1.3,0.2,2,1.1,2.3,2.3C221.3,72.5,220.9,73.3,219.8,73.9
			L219.8,73.9z"/>
		<path fill-rule="evenodd" clip-rule="evenodd" d="M115.3,84.1c-2.3,0.7-2.4-0.9-3.1-1.9c-1,0.4-1.9,0.8-2.9,1
			c-1,0.3-2.2,0.5-3-0.4c-0.9-1-0.6-2.2,0-3.3c0.4-0.7,0.8-1.4,1.2-2.1c-0.8-1.3-1.4-2.5-2.2-3.8c-1-0.4-2.2-0.8-3.2-1.4
			c-1.6-0.9-1.5-2.1,0-3c0.5-0.3,1.2-0.5,2-0.4c-0.7,0.6-1.4,1.2-2.2,1.9c3.1,3,6.6,1.3,9.9,1.3c-1.3,1.5-3.8,0.5-4.7,2.6
			c0.9,1.3,0.9,1.3,4.1,1.2c-2,1.8-4.4,3.1-4.2,6.4c4.5,0.3,7-3.2,10.7-4.8c-0.4,0.5-0.8,1.1-1.2,1.6c-0.6,0.7-1.2,1.3-1.8,2
			C113.7,82.1,113.4,83.2,115.3,84.1z"/>
		<path fill-rule="evenodd" clip-rule="evenodd" d="M173.1,105.8c-1.7,0.6-3,0.5-3.9-0.3c-1.1-0.9,0.1-1.8,0.3-2.7
			c-0.7-1-1.8-1.9-2-3c-0.2-1.1,0.5-2.3,0.9-3.7c-0.6-0.2-1.3-0.4-2-0.8c-1.9-0.8-2.3-2.6-1.1-4.3c0.3-0.4,0.7-0.7,1.1-1
			c3.4-2.3,9.1-0.4,10.7,3.5c-0.1,0-0.4,0.2-0.4,0.1c-2-3.2-5.1-3.7-8.5-3.3c-0.7,0.1-1.4,0.5-1.9,1c-1.4,1.4-1.1,2.8,0.9,3.3
			c1.4,0.4,2.9,0.5,4.4,0.7c1.2,0.2,2.3,0.4,4,0.7c-1.3,1-2.2,0.5-3,0.4c-1.5-0.2-2.8,0.2-3.8,1.5c-0.9,1.1-0.8,2.1,0.4,3
			c1.1,0.7,2.3,1,3.6,0.6c1-0.3,1.9-0.4,2.8,0.5c-1.5,1.9-4.6-0.2-5.7,2.7C170.8,105,171.7,105.3,173.1,105.8z"/>
		<path fill-rule="evenodd" clip-rule="evenodd" d="M125.2,102.3c-0.9,1.2-1.8,2.3-2.7,3.6c0.9,1.8,1.2,2,2.9,1.6
			c1.2-0.3,2.3-0.9,3.4-1.4c1.1-0.6,2-1.3,3.4-1.7c-0.2,0.5-0.4,1-0.7,1.4c-1.8,3-1.6,3.7,1.4,5.4c-2.2,1-3.1,0-3.7-3.8
			c-1.1,0.4-2.1,0.8-3.2,1.1c-1.7,0.5-3,0.2-4.2-1.2c-0.5-0.6-1.4-1-2.2-1.3c-2-0.6-3.4-2.8-2.5-4.6c0.8-1.6,1.8-3.2,3.6-3.9l0,0
			c-0.7,1.2-1.5,2.3-2.2,3.5c-0.9,1.4-0.8,2.3,0.3,3.3c1,0.9,1.9,0.8,2.4-0.6c0.4-1.2,1.1-2.3,2.3-2.8
			C124.6,100.2,125.3,100.8,125.2,102.3c-0.4-0.9-1.1-0.9-1.8-0.5c-0.8,0.5-1.4,1.1-0.7,2.5C123.5,103.5,124.3,102.9,125.2,102.3z"
			/>
		<path fill-rule="evenodd" clip-rule="evenodd" d="M89.7,92.9c-0.5,0.3-1,0.7-1.5,1c-0.8,0.6-1.7,1.2-2.2,1.9
			c-0.4,0.5-0.5,1.4-0.4,2c0,0.2,1.1,0.4,1.7,0.5c0.6,0.1,1.3,0,2.2,0c-0.8,1.6-2,1.6-3.1,1.6c-2,0-3.7,0.7-5.2,1.9
			c-1.3,1.1-1.3,1.6-0.1,2.8c1,1.1,2.3,1.4,3.6,1.2c3.1-0.5,6.2-0.7,8.7-3.1c0.5-0.5,1.4-0.4,2.2-0.6c0.1,0.2,0.1,0.3,0.2,0.5
			c-0.4,0.3-0.8,0.7-1.3,0.9c-2.9,1.1-5.8,2.4-8.8,3.3c-2,0.6-4,0.1-5.4-1.5c-1.3-1.4-1.2-2.8,0.3-4.1c0.3-0.2,0.5-0.5,0.8-0.6
			c1.9-0.8,3-1.9,3.6-4.2C85.1,94.3,87.3,93.1,89.7,92.9z"/>
		<path fill-rule="evenodd" clip-rule="evenodd" d="M168.3,46.8c-0.4-2.3-1.5-3.7-3.8-4.1c-2.2-0.4-3.6,1.2-5.7,1.7
			c0.6-0.7,1.3-1.3,1.8-2c0.3-0.5,0.7-1.4,0.5-1.7c-0.4-0.5-1.3-1-1.8-0.8c-1.3,0.3-2.6,1-3.9,1.5c-0.6,0.3-1.2,0.7-1.9,1.1
			c0.6-2.3,1.1-4.3,1.6-6.3c0.1-0.3-0.2-0.7-0.5-1.4c-1.1,0.8-2.1,1.5-3.5,2.4c0.3-0.8,0.3-1.1,0.5-1.3c1-1,1.7-2.5,3.4-1.8
			c1.6,0.7,0.9,2.3,0.9,3.5c0,0.6-0.1,1.3-0.2,2c1.6-0.2,3-0.6,4.5-0.6c1.6,0,2.6,1,2.4,2.7C167.4,42.1,169.3,43.8,168.3,46.8z"/>
		<path fill-rule="evenodd" clip-rule="evenodd" d="M232.7,69.9c0.1,0.5,0.5,1,0.4,1.4c-0.8,2.2-1.7,4.5-2.8,6.6
			c-0.4,0.9-1.4,1.6-2.2,2.2c-0.2,0.2-0.7,0-1.3,0c0.1-1.8,1.3-2.8,2.2-3.8c0.8-1,1.4-1.9,0.8-3.3c-3.1-0.7-5,1.6-7.1,3.4
			c-0.1-0.1-0.2-0.3-0.3-0.4c0.1-0.4,0-0.8,0.3-1c2.2-2.1,4.3-4.4,7.9-4.1C231.2,71,231.9,70.3,232.7,69.9z"/>
		<path fill-rule="evenodd" clip-rule="evenodd" d="M170,114.3c0.9-1.2,1.7-2.4,2.7-3.5c0.2-0.2,0.8-0.1,1.7-0.2
			c-0.6,0.9-1,1.4-1.3,1.9c-0.4,0.8-0.9,1.6-1,2.5c-0.2,1.2,0.5,1.7,1.7,1.3c1.6-0.6,2.9-1.5,3.4-3.3c0.2-0.9,0.4-1.7,0.8-2.6
			c1.1,2.8,0.2,5.8,0.9,8.7c2.4,0.3,2.9-2.3,4.9-2.9c-0.7,2.1-2,3.3-3.7,4.1c-1.2,0.5-1.9,0.2-2.2-1.1c-0.3-1.2-0.3-2.4-0.5-4
			c-0.7,0.5-1.1,0.8-1.6,1.2c-2.4,1.7-3.7,1.3-4.9-1.4C170.7,114.8,170.3,114.5,170,114.3L170,114.3z"/>
		<path fill-rule="evenodd" clip-rule="evenodd" d="M105.7,37.9c1.5,0.7,2.7,1.3,4.1,1.9c-1.5,2-4.3-0.5-5.4,2.1
			c0.6,1.5,2.6,0.3,3.3,1.5c-1.2,1-1.4,1-4.1,0.2c-0.5-3-0.4-3.1,3-4c-1-0.5-1.9-0.8-2.8-1.2c1.4-2.7,4-2.2,6.3-2.6
			c0.3-1.5,0.8-2.8,2.6-2.7c1.6,0,2.6,0.7,3.2,2.3c-1.1-0.5-1.9-1-2.8-1.2c-0.5-0.1-1.1,0.4-1.7,0.6c0.2,0.5,0.4,1,0.6,1.4
			c0.1,0.3,0.3,0.5,0.6,1.1C110.2,36.3,108,36,105.7,37.9z"/>
		<path fill-rule="evenodd" clip-rule="evenodd" d="M138.5,81.9c0.9-2.4,2.5-3.4,4.5-3.8c1.2-0.2,2.2-0.5,3.1-1.3
			c1.4-1.1,3-0.7,4.2,0.6c-2.9-0.2-2.9-0.2-3.9,0.6c0.8,1.2,1.4,2.6,2.4,3.6c0.6,0.6,1.7,0.8,2.6,1.1c-2.2,1.1-5.3,0.1-6.5-2.1
			c-1.1-2-1.5-2.1-3.4-1.1C140.6,80.2,139.7,81,138.5,81.9z"/>
		<path fill-rule="evenodd" clip-rule="evenodd" d="M174,33.6c0.9-1,1.5-0.2,2.1,0.3c1.8,1.8,3.1,3.9,3.2,6.5c0,0.4,0,0.8,0.1,1.5
			c1.8-0.3,3.4-0.4,4.9-0.8c1.5-0.4,1.9,0.3,2.1,1.9c-0.7-0.5-1.1-0.8-1.7-1.3c-0.7,0.9-1.3,1.7-2.1,2.6c-0.2-0.6-0.3-1.1-0.5-1.6
			c-2.8-0.5-4.4,1-5.8,3c-0.6,0.9-1.1,1.8-2.7,2.1c0.3-0.8,0.3-1.3,0.6-1.7c0.4-0.5,0.9-1,1.3-1.5C179.6,40.7,178.9,36.1,174,33.6
			L174,33.6z"/>
		<path fill-rule="evenodd" clip-rule="evenodd" d="M224.2,86.9c1.2-0.1,2.5-0.3,3.7-0.2c2.8,0.1,4.1,2.2,3.1,4.8
			c-0.8,2.1-1.8,4.1-3.5,5.6c-1.4,1.2-2.2,1-3.5-1c2.3,1.1,3.4-0.2,4.3-1.7c0.6-1,1.2-2,1.6-3c0.9-2.2,0.2-3.3-2.2-3.5
			C226.5,87.7,225.2,88,224.2,86.9L224.2,86.9z"/>
		<path fill-rule="evenodd" clip-rule="evenodd" d="M90.5,63c-2.5,1.9-5.1,1.6-6-0.3c-0.8-1.8,0.8-5.4,2.7-6.1
			c2.1-0.8,3.8,0.1,4.6,2.8c-0.3-0.2-0.5-0.2-0.6-0.4c-2-2.3-4.6-1.8-5.7,1.1c-0.6,1.7,0.2,3,2,3C88.6,63.3,89.6,63.1,90.5,63z"/>
		<path fill-rule="evenodd" clip-rule="evenodd" d="M165,26.1c0.3-0.8,0.6-1.7,1-2.5c0.2-0.6,0.7-1.2,0.7-1.8
			c0.1-0.8-0.2-1.6-0.3-2.3c-0.8,0.1-1.7,0-2.3,0.3c-2.2,1.2-3.5,3.2-4.9,5.2c-0.3,0.4-0.6,0.8-1.3,1.1c0.1-0.4,0.2-0.9,0.4-1.3
			c0.4-0.7,1-1.4,1.3-2.1c0.9-2.6,3.4-3.2,5.5-4.3c1.6-0.8,3.2,0.5,2.8,2.2C167.4,22.6,167,24.8,165,26.1L165,26.1z"/>
		<path fill-rule="evenodd" clip-rule="evenodd" d="M96.1,47.9c-1.4-2-1.6-4.3-1.8-6.6c-0.2-1.6,1.3-2.6,2.9-2.1
			c2.5,0.7,4.2,2.2,5.4,4.5c0.1,0.1,0.1,0.3,0,0.5c0,0.1-0.2,0.3-0.4,0.6c-0.6-0.8-1.3-1.5-1.7-2.3c-0.7-1.3-1.9-1.8-3.2-2.1
			c-1.4-0.3-2.1,0.2-1.8,1.7c0.2,1.5,0.7,2.9,1,4.4c0.1,0.5,0.2,0.9,0.2,1.4C96.4,47.9,96.3,47.9,96.1,47.9z"/>
		<path fill-rule="evenodd" clip-rule="evenodd" d="M224.3,86.9c-0.5,0.2-1,0.5-1.8,0.9c0.3-2.3,2.7-2.6,3.3-4.4
			c-2-1.3-4.1-0.4-6.2,0.2c1.2-2.6,5.4-2.7,8.4-0.2C226.8,84.5,225.5,85.7,224.3,86.9L224.3,86.9z"/>
		<path fill-rule="evenodd" clip-rule="evenodd" d="M227.5,99c2-0.5,3.8,0.5,4.7,2.5c0.7,1.5,0.3,2.8-1.3,3.8
			c-2.3,1.6-4.9,1.4-7.4-0.5c0.7-0.7,1.5-0.2,2,0c1.5,0.6,3,0.4,4.3-0.3c2-1,2.2-2.7,0.5-4.1C229.7,99.8,228.6,99.5,227.5,99z"/>
		<path fill-rule="evenodd" clip-rule="evenodd" d="M231.1,98.3c2.5-1.7,6.1-1.1,8.3-3.6c-1.6-2.8-3.8-1.5-6-0.9
			c1.9-2.1,5-2.2,6.6-0.4c0.8,0.9,0.9,1.9-0.2,2.5C237.1,97.4,234.2,98.3,231.1,98.3z"/>
		<path fill-rule="evenodd" clip-rule="evenodd" d="M117.3,107.2c-3,1.4-5.6,2.6-8.2,3.7c-0.3,0.1-0.6,0.3-0.9,0.4
			c-1.8,0.7-3.2,0.4-3.7-0.8c-0.6-1.2-0.1-2.4,2-3.9c-0.4,0.9-0.7,1.6-0.9,2.2c-0.4,1.1,0.1,1.8,1.3,1.7c0.6,0,1.3-0.2,1.9-0.5
			c1.4-0.6,2.9-1.3,4.3-1.9C114.2,107.6,115.5,107,117.3,107.2z"/>
		<path fill-rule="evenodd" clip-rule="evenodd" d="M153.8,16.9c0.1,0.7,0.2,1.4,0.3,2.1c0.2,0.1,0.4,0.3,0.6,0.4
			c0.4-0.6,0.7-1.3,1.2-1.8c0.7-0.7,1.5-1.4,2.4-1.7c0.8-0.2,1.8,0,2.5,0.4c1,0.5,1.1,1.5,0.7,2.6c-0.2-0.1-0.4-0.1-0.5-0.2
			c-0.7-2.2-2-2.7-3.8-1.3c-0.6,0.5-1.1,1.2-1.6,1.9c-0.6,0.6-1.2,1.2-1.8,2c-1.2-1.6-0.7-3-0.6-4.4
			C153.4,16.9,153.6,16.9,153.8,16.9z"/>
		<path fill-rule="evenodd" clip-rule="evenodd" d="M170,114.3c-1.6,1.9-3.8,2.8-6,3.7c-1.4,0.6-2.2-0.1-1.7-1.5
			c0.5-1.7,1.2-3.2,1.8-4.9c0.2-0.4,0.4-0.9,0.6-1.3c0.2,0.2,0.4,0.3,0.5,0.5c-0.6,1.9-1.3,3.8-2.1,6.3
			C165.7,116,167.8,115.2,170,114.3L170,114.3z"/>
		<path fill-rule="evenodd" clip-rule="evenodd" d="M85.8,48.5c-0.8-0.9-0.9-2-0.3-3c0.8-1.1,2-0.8,3-0.4c2.3,0.7,4.5,1.8,6.1,3.6
			c0.8,0.8,1.3,1.7,0.7,3.3c-1.2-3.1-3.4-4.5-5.9-5.5C86.2,45,85.9,46.1,85.8,48.5L85.8,48.5z"/>
		<path fill-rule="evenodd" clip-rule="evenodd" d="M141.6,86.4c0.8-0.5,1.7-1,2.9-1.7c-1.4-0.5-2.5-1-3.5-1.4
			c2.8-0.8,4.8,0.6,7.2,2.5C145.6,86.5,143.6,86.6,141.6,86.4L141.6,86.4z"/>
		<path fill-rule="evenodd" clip-rule="evenodd" d="M169,64.5c-1.2-0.7-1.1-1.7-0.8-2.8c0.4-1.3,0.8-2.6,2.1-3.2
			c0.4-0.2,1.3,0.1,1.7,0.5c1.1,1.1,1.7,2.4,1.3,4.6c-0.5-1.1-0.7-1.9-1-2.5c-0.4-0.7-0.9-1.2-1.4-1.9
			C168.7,60.7,168.9,62.6,169,64.5L169,64.5z"/>
		<path fill-rule="evenodd" clip-rule="evenodd" d="M128.5,22.7c-1.2-0.5-2.5-1.4-3.7-1.5c-1.1-0.1-2.3,0.8-3.7,1.3
			c0.1-1.3,1.1-2,2.2-2.3C125.2,19.7,127.1,20.5,128.5,22.7z"/>
		<path fill-rule="evenodd" clip-rule="evenodd" d="M158.3,53.1c3.3-0.2,5.5-2.5,8.2-4.4C164.8,52.3,160.7,54.5,158.3,53.1z"/>
		<path fill-rule="evenodd" clip-rule="evenodd" d="M192.5,111.2c-0.1,1.6-1.5,3.3,0.4,5c0.7-0.4,1.5-0.9,2.3-1.4
			c0,0.1,0.1,0.3,0.1,0.4c-0.7,1.1-1.4,2.2-2.9,1.8c-0.9-0.2-1.6-2-1.4-3.5c0.2-0.9,0.6-1.7,1-2.6
			C192.2,111.1,192.3,111.1,192.5,111.2z"/>
		<path fill-rule="evenodd" clip-rule="evenodd" d="M199.8,30.1c-0.2,0.9-0.5,1.7-0.7,2.6c-0.7,2.8-0.4,4.5,1.2,6.8
			c-1.3-0.2-1.5-0.3-1.9-1.8C197.7,34.9,197.5,32.3,199.8,30.1L199.8,30.1z"/>
		<path fill-rule="evenodd" clip-rule="evenodd" d="M149.8,39.3c-0.8,2.4-1.7,4.9-2.5,7.2C146.5,45.1,147.3,42.3,149.8,39.3z"/>
		<path fill-rule="evenodd" clip-rule="evenodd" d="M84.7,68.6c3.7-2.6,6.4-2.3,8.1,0.8c-1.3-0.6-2.5-1.4-3.8-1.6
			C87.8,67.7,86.4,68.3,84.7,68.6z"/>
		<path fill-rule="evenodd" clip-rule="evenodd" d="M219.8,73.9c-1.1,3.3-4,5.1-6.3,3.9c1.2-0.5,2.4-0.9,3.4-1.5
			C218,75.6,218.8,74.7,219.8,73.9L219.8,73.9z"/>
		<path fill-rule="evenodd" clip-rule="evenodd" d="M209,102.5c2.2-0.3,4.2-0.6,6.1-0.9C213.6,103.5,211.4,103.9,209,102.5z"/>
		<path fill-rule="evenodd" clip-rule="evenodd" d="M165,26.1c-0.5,1.6-1,3.3-1.6,4.8c-0.2,0.5-1,0.8-1.7,1
			C162.1,29.5,163.3,27.7,165,26.1L165,26.1z"/>
		<path fill-rule="evenodd" clip-rule="evenodd" d="M85.8,48.5c1.1,1.7,2.1,3.5,3.3,5.3C87.2,53.4,86.1,51.5,85.8,48.5L85.8,48.5z"
			/>
		<path fill-rule="evenodd" clip-rule="evenodd" d="M91,92c1.9-0.3,2.6,0.1,3,1.5c0.3,1.2-0.3,1.6-1.4,1.8
			C93.2,92.7,93.7,93.4,91,92z"/>
		<path fill-rule="evenodd" clip-rule="evenodd" d="M113.6,56.5c1.3,0.9,2.7,1.7,4,2.6C115.6,59.3,114.2,58.5,113.6,56.5L113.6,56.5
			z"/>
		<path fill-rule="evenodd" clip-rule="evenodd" d="M114.8,65.9c-1.3-0.3-2.7-0.6-3.9-0.8C112.5,63.9,113.7,64.2,114.8,65.9z"/>
		<path fill-rule="evenodd" clip-rule="evenodd" d="M141.8,22.5c-0.1-1.2-0.1-2.4-0.2-3.5c0.2,0,0.5,0,0.7-0.1
			c0.1,1.2,0.3,2.4,0.4,3.6C142.4,22.5,142.1,22.5,141.8,22.5z"/>
		<path fill-rule="evenodd" clip-rule="evenodd" d="M153.7,15.2c-0.5-1.1-1-2-1.5-3.1c0.3,0,0.9-0.2,1.4,0
			C154.2,12.3,154.2,13.1,153.7,15.2z"/>
		<path fill-rule="evenodd" clip-rule="evenodd" d="M104.4,103.5c-0.6,1-1.1,1.7-2.4,0.7C102.5,103.1,103,102.5,104.4,103.5z"/>
		<path fill-rule="evenodd" clip-rule="evenodd" d="M120.7,97.4c1.3-2.1,2.1-2.3,4.1-0.8C123.4,97.2,121.7,96,120.7,97.4L120.7,97.4
			z"/>
		<path fill-rule="evenodd" clip-rule="evenodd" d="M98.2,109.6c1.1,0.5,1.7,0.8,2.4,1.2c-0.7,0.5-1.4,1.1-2.3,0.6
			C98.2,111.3,98.3,110.5,98.2,109.6z"/>
		<path fill-rule="evenodd" clip-rule="evenodd" d="M172.5,73c0.5,0.8,1.1,1.5,1.8,2.6C172.5,75.4,172.2,74.4,172.5,73z"/>
		<path fill-rule="evenodd" clip-rule="evenodd" d="M147,24.6c0,1.4,0,2.7,0,4c-0.1,0-0.3,0-0.4,0c-0.1-1.3-0.2-2.7-0.2-4
			C146.5,24.6,146.8,24.6,147,24.6z"/>
		<path fill-rule="evenodd" clip-rule="evenodd" d="M173.9,33.6c-0.3,0.9-0.6,1.8-1,3.1c-0.6-0.7-0.9-1-1.2-1.4
			C172.6,34.6,173.3,34.1,173.9,33.6L173.9,33.6z"/>
		<path fill-rule="evenodd" clip-rule="evenodd" d="M104,79.4c-0.8,0-1.5,0.1-2.6,0.1C102.5,78.4,103.2,78.4,104,79.4z"/>
		<path fill-rule="evenodd" clip-rule="evenodd" d="M104.2,66c0.9-0.8,1.7-1.5,2.6-2.3c0.1,0.2,0.3,0.4,0.4,0.6
			C106.2,64.8,105.2,65.4,104.2,66L104.2,66z"/>
	</g>
</g>
</svg>
