<?xml version="1.0" encoding="utf-8"?>
<!-- Generator: Adobe Illustrator 19.2.0, SVG Export Plug-In . SVG Version: 6.00 Build 0)  -->
<svg version="1.1" id="Layer_1" xmlns="http://www.w3.org/2000/svg" xmlns:xlink="http://www.w3.org/1999/xlink" x="0px" y="0px"
	 viewBox="0 0 34.3 35" style="enable-background:new 0 0 34.3 35;" xml:space="preserve">
<style type="text/css">
	.st0{fill:#FFFFFF;}
	.st1{fill:#231F20;}
</style>
<title>instagram</title>
<g>
	<path class="st0" d="M0.4,18.3c0.1-1,0-1.8,0-2.8c-0.1-0.9,0.1-1.5,0-2.4c0-0.4,0-0.7,0-1.1c0-0.1,0-0.7,0-0.8c0-0.5,0-1.1,0-1.6
		c0-0.8-0.1-1.9,0-2.7c0-0.3,0.1-1.8,0.4-1.8c0.1,0,1,0,1.1,0c0.5,0,0.9,0,1.4-0.1C3.6,5,4,4.9,4.3,4.8c0.3,0,0.5,0,0.8,0
		c0.8,0,1.6,0.1,2.3,0.1c1,0,1.9,0,2.8,0c0.9-0.1,2.3-0.1,3.3-0.1c1.3,0,2.4,0.2,3.6,0.2c1.1,0,2.2-0.1,3.3-0.1
		c0.6,0,1.3-0.1,1.9-0.2s0.5,1,0.5,1.5c0,0.7,0,1.3,0,2c0.1,0.4-0.2,0.8-0.6,1c-0.3,0.2-0.6,0.5-0.8,0.8c-0.2,0.3-0.5,0.5-0.8,0.7
		c-0.2,0.3-0.6,0.7-0.9,1c-0.3,0.3,2.8,3.8,2.9,3.7l0.2-0.4c0.1,0.1,0.4-0.7,0.5-0.6c0,0.2-0.4,1.4-0.4,1.6c0,1.1,0,2.2,0.1,3.3
		c0,1,0,1.9,0.2,2.9c-0.1,0.4,0,0.8,0.1,1.2c0.1,0.4,0.1,0.7-0.1,1.1c-0.1,0.3-0.1,0.6,0,0.9c0,0.5,0,1,0,1.4c0,0.2,0,0.4,0,0.6
		c0,1.4,0,2.9-0.1,4.3c0,0.8,0,1.6,0,2.3c0,0.2-0.1,0.4-0.3,0.5c-0.1,0-0.1,0-0.2,0c-1.3,0-2.5,0.1-3.8,0.1c-1.5,0-3.1,0.1-4.6,0.1
		c-2.2,0-4.4-0.1-6.7-0.1l-4.4,0.1c-0.5,0-0.9,0-1.4,0c-0.3,0-1.3,0.1-1.3-0.2v-0.5c0.1-1.4,0.2-1.4,0.2-2.8c0-0.8,0-1.9,0-2.7
		c0-1.3-0.1-1.4,0-2.7c-0.2-0.9-0.4-0.7-0.2-1.5c0-0.1,0-1.2,0-1.3c-0.1-0.4-0.1-1,0-1.4c0-0.6,0-1.6,0-2.2
		C0.3,19.3,0.5,18.4,0.4,18.3z M14.3,13.6H9.1c-0.7,0-1.4,0-2.1,0c-1.1,0-2.2-0.1-3.3-0.1c-0.2,0-0.4,0.1-0.4,0.3v0.1
		c0.9,0,1.9,0.1,2.8,0.1c1.6,0,3.1,0,4.7,0h3C14,14.1,14.3,14.1,14.3,13.6z M9.2,29.2v0.1c0.1,0,0.2,0,0.3,0l4.1,0.1
		c0.9,0,1.8,0,2.8,0l4.1,0.1c0.1,0,0.3-0.1,0.4-0.1v-0.1c-0.4,0-0.8-0.1-1.2-0.1c-0.6,0-1.1,0-1.7,0s-1-0.1-1.4-0.1
		c-1.5,0.1-3,0.1-4.5-0.1c-0.1,0-0.3,0-0.4-0.1c-0.7,0-1.4,0.1-2,0.1C9.5,29.1,9.3,29.1,9.2,29.2z M17.4,32.6v-0.2
		c-0.4-0.1-0.8-0.1-1.2-0.2c-0.5,0-1,0.1-1.5,0c-0.9-0.2-1.7,0.2-2.6,0c-0.5-0.1-1-0.1-1.5,0c-0.5,0-1,0-1.6,0S7.8,32.1,7.2,32
		c-0.2,0-0.4,0.2-0.5,0.1c-0.8-0.1-1.6-0.2-2.4-0.2c-0.3,0-0.6,0.1-0.9,0.2v0.2L17.4,32.6z M3.3,17.7c0.5,0.1,0.9,0.1,1.4,0.2
		c1.3,0,2.5,0,3.8,0H12c0.1,0,0.3-0.1,0.4-0.2v-0.2h-0.8c-0.4,0-0.8,0-1.2,0c-0.7,0-1.4-0.1-2.2-0.2c-1.1-0.1-2.3-0.1-3.4-0.1
		C4.3,17.1,3.7,17.3,3.3,17.7z M14.6,9.6V9.4c-0.6,0-1.2,0-1.8,0s-1.6-0.1-2.3-0.1c-1.3,0-2.6,0.1-3.8,0.1c-1.1,0-2.1,0-3.2,0
		c-0.1,0-0.3,0.1-0.4,0.1v0.1L14.6,9.6z M10,21.5c-0.1-0.1-0.1-0.1-0.2-0.2c-0.4,0-0.7-0.1-1-0.1l-1.7-0.1c-0.8,0-1.6,0-2.4-0.1
		c-0.5-0.1-0.9,0.1-1.3,0.4C5.6,21.6,7.8,21.6,10,21.5z M20.2,25.9l-0.4-0.2c-0.1-0.1-0.2-0.1-0.3-0.1c-0.5,0-0.9,0-1.4,0h-2.5
		c0,0.2,0,0.4,0.3,0.4c1,0,2,0.1,3,0.1c0.2,0,0.5,0,0.7,0C19.7,26,20,26,20.2,25.9z M18.8,32.5v0.1c0.8,0.1,1.7,0.1,2.5,0
		c-0.1-0.1-0.2-0.2-0.3-0.2c-0.5-0.1-1.1-0.1-1.6-0.1C19.2,32.3,19,32.4,18.8,32.5z M13.8,25.8c0.5,0.3,1.1,0.3,1.6,0.1
		c-0.2-0.1-0.4-0.2-0.6-0.3C14.5,25.6,14.2,25.7,13.8,25.8z"/>
	<path class="st0" d="M21.4,15.5c-0.1,0.6-1.1,1.1-1.7,1.4c-0.8,0.7-1.6,1.2-2.4,2c-0.7,0.8-1.4,1.2-2.1,1.7c-0.7,0.6-1.2,1-1.6,1.5
		c-0.2,0.1-0.5,0.2-0.7,0.3c-0.5,0.1-0.9-0.3-1-0.8c0-0.1,0-0.1,0-0.2c0.1-0.7,0.5-1.3,0.9-1.7c0.3-0.3,0.6-0.9,0.9-1.3
		c0.1-0.1,0.3-0.2,0.5-0.3c0.1-0.1,0.5-0.6,0.7-0.8c0.8-1,1.6-2,2.4-2.9c0.2-0.3,5.4-6,5.7-6.2c5.9-5.7,10-7.4,10.3-7.3
		c1.3,0.2-0.3,1,0,1.7C33.3,2.5,22.5,14.7,21.4,15.5z"/>
	<path d="M14.4,13.5L14.4,13.5c0,0.1,0,0.2,0,0.3C14.4,13.7,14.4,13.6,14.4,13.5h-0.2C14.2,13.5,14.3,13.5,14.4,13.5
		c-1.9-0.1-3.8-0.1-5.6-0.2H7.4c-0.5,0-0.9-0.1-1.4-0.1H4.5H3.8c-0.2,0-0.4,0.1-0.5,0.2s-0.2,0.3-0.2,0.5v0.3h0.3h2.8
		c0.9,0,1.9,0,2.8,0l2.8-0.1l1.4-0.1h0.7c0.1,0,0.1,0,0.2,0c0.1,0,0.1,0,0.1-0.1l0.1-0.1v0.1C14.4,13.8,14.4,13.6,14.4,13.5z"/>
	<path d="M11.9,29.4c1,0.1,1.9,0.1,2.9,0.1l2.9,0.2h1.5h0.7h0.4c0.1,0,0.3-0.1,0.4-0.1l0.2-0.1l-0.1-0.3v-0.1v-0.2h-0.2l-0.7-0.1
		c-0.2,0-0.5-0.1-0.7-0.1h-1.5H17c-0.3,0-0.5,0-0.8,0l-1.5,0.1c-1,0-1.9,0-2.9,0c-0.1,0-0.2,0-0.4,0c-0.1,0-0.3,0-0.4,0l-0.7,0.1
		L9.6,29c-0.1,0-0.1,0-0.2,0H9.1c-0.1,0-0.2,0.1-0.3,0.2v0.1c0.5,0.1,1,0.1,1.5,0.1H11.9z"/>
	<path d="M5.2,31.7l-0.9-0.1c-0.3,0-0.6,0.1-0.8,0.3H3.3v0.2v0.2v0.2h0.2c2.3,0,4.7,0.1,7,0.1s4.7,0,7,0v-0.2l-0.9-0.1
		c-0.3-0.1-0.6-0.1-0.9-0.1c-0.3,0-0.6,0-0.9,0c-0.3-0.1-0.6-0.1-0.9-0.1c-0.6,0.1-1.1,0.1-1.7,0C11.9,32,11.6,32,11.3,32
		c-0.3,0-0.6,0-0.9,0c-0.6,0-1.2-0.1-1.8-0.1l-0.9-0.1H7.3H7.2H7l-0.2,0.1H6.7H6.5H6.1L5.2,31.7z"/>
	<path d="M10.2,17.3c-0.8,0-1.5-0.1-2.3-0.1H5.6c-0.4,0-0.8,0-1.2,0s-0.7,0.2-1,0.5l1.2,0.2h0.1h0.1h0.1c0.3,0,0.5,0.1,0.8,0.1
		L8,18.1c0.8,0.1,1.5,0.1,2.3,0.1h1.1H12c0.1,0,0.2,0,0.2,0c0.1-0.1,0.2-0.1,0.3-0.1l0.2-0.1v-0.2v-0.2v-0.2h-1.3
		C11,17.3,10.6,17.3,10.2,17.3z"/>
	<path d="M9.7,21.2l-0.4-0.1C9,21.1,8.7,21,8.4,21l-1.7-0.1c-0.6,0-1.1-0.1-1.7-0.1H4.6c-0.2,0-0.3,0-0.5,0c-0.3,0-0.7,0.2-0.9,0.4
		l-0.3,0.4h0.4c1.1,0.2,2.2,0.2,3.4,0.1c1.1-0.1,2.2-0.2,3.3-0.3c-0.1,0-0.1-0.1-0.1-0.2C9.8,21.3,9.8,21.2,9.7,21.2z M9.8,21.3
		L9.8,21.3c0.1,0,0.1,0,0.1,0.1C9.9,21.4,9.9,21.4,9.8,21.3z"/>
	<path class="st1" d="M17.9,10.8l0.5-0.1h0.1c0.1,0,0.2,0,0.3,0v-0.1c0.1,0,0.1-0.1,0.2-0.1l0.6-0.5h-0.7c-0.6,0-1.2,0-1.8,0
		c-0.3,0-0.6,0-0.9,0.1c-0.3,0.1-0.6,0.2-0.9,0.3c0.3,0,0.4,0,0,0c0.6,0.2,1.2,0.3,1.8,0.3C17.3,10.9,17.6,10.9,17.9,10.8z"/>
	<path class="st1" d="M5.4,24.9l0.5-0.1H6c0.1,0,0.2,0,0.3,0v-0.1c0.1,0,0.1-0.1,0.2-0.1L7,24.2H6.3c-0.6,0-1.2,0-1.8,0
		c-0.3,0-0.6,0-0.9,0.1S3,24.5,2.7,24.6c0.3,0,0.4,0,0,0c0.6,0.2,1.2,0.3,1.8,0.3C4.8,24.9,5.1,24.9,5.4,24.9z"/>
	<path d="M20.7,32.1h-0.3c-0.2,0-0.5,0-0.7,0h-0.3c-0.1,0-0.2,0-0.4,0c-0.2,0.1-0.4,0.2-0.6,0.4v0.1c0.8,0.3,1.7,0.3,2.6,0.2
		l0.5-0.1l-0.4-0.3L21,32.2C20.9,32.2,20.9,32.1,20.7,32.1z"/>
	<path d="M15.5,26.2L15.5,26.2h0.1c0.1,0.1,0.3,0.1,0.4,0.1h0.6c0.4,0,0.8,0,1.2,0h1c0.1,0,0.2,0,0.3,0h0.3c0.1,0,0.2,0,0.3-0.1
		l0.6-0.2c-0.2-0.1-0.4-0.2-0.5-0.3c-0.1-0.1-0.2-0.1-0.3-0.1h-0.3L18,25.5c-0.8-0.1-1.6-0.1-2.4-0.1h-0.3v0.1c0,0-0.1,0-0.1-0.1
		c-0.1,0-0.2,0-0.3,0l-0.2,0.1l-0.8,0.3c0.2,0.2,0.5,0.3,0.8,0.3C15.1,26.2,15.3,26.2,15.5,26.2z"/>
	<path d="M18.4,13.5L18.4,13.5C18.4,13.4,18.4,13.5,18.4,13.5z"/>
	<path d="M23.4,8.1l-0.2,0.2C23.3,8.2,23.3,8.2,23.4,8.1z"/>
	<path d="M22.7,13.8C22.7,13.8,22.6,13.9,22.7,13.8C22.6,13.9,22.7,13.8,22.7,13.8z"/>
	<path d="M33.6,0.3C33.5,0.1,33.3,0,33.1,0s-0.4,0-0.6,0.1c-0.4,0.2-0.7,0.3-1.1,0.5c-0.7,0.4-1.3,1-2,1.4c-0.7,0.5-1.3,1-1.9,1.5
		s-1.4,0.9-2,1.4S24.3,6,23.8,6.6c-0.1,0.1-0.2,0.2-0.3,0.1c-0.1,0-0.1,0-0.1-0.1s0-0.1,0-0.2c0-0.1,0-0.3,0-0.4V4.8V4.7
		c0-0.1,0-0.1-0.1-0.2c-0.1-0.1-0.2-0.2-0.3-0.2h-0.6h-1.2l-2.4,0.1c-1.6,0.1-3.2,0-4.9,0l-5,0.3C7.5,4.6,6,4.9,4.6,4.7h0.1h0.1
		c-0.1,0-0.2,0-0.3,0c-0.1,0-0.2,0-0.2,0h0.1c-0.1,0-0.2,0-0.3,0c-0.7,0-1.4,0-2.2-0.1c-0.3,0-0.5,0-0.8,0H1c-0.2,0-0.3,0-0.4,0.1
		H0.5C0.3,4.9,0.2,5.1,0.2,5.3C0.1,5.5,0.1,5.7,0.1,5.9c-0.1,1.6,0,3.2,0,4.9c0,1.6,0.1,3.2,0,4.9c-0.1,1.6,0,3.2,0,4.9
		c0,0.8,0,1.6,0.1,2.4s0,1.6,0,2.4c0.1,0.4,0.1,0.8,0.1,1.2v1.1c0,0.4,0,0.7,0,1c0,0.6,0,1.1,0,1.7c0,0.8-0.2,1.7-0.2,2.4
		s-0.3,1.4,0.2,2c0,0.1,0,0.2,0,0.2c0.4,0,0.7,0,1.2,0c0.1,0,0.2,0,0.3,0c0.1,0,0.1,0,0.2,0c0.5-0.1,1-0.1,1.6-0.1h3.2
		c0.2,0,0.5,0,0.7,0c0.1,0,0.1,0,0.2,0c2.2,0,4.4,0.1,6.6,0.1c1.1,0,2.2,0,3.4,0c0.2,0,0.3,0,0.5,0c0.4,0,0.8,0,1.3,0
		c1-0.1,2.1-0.1,3.1-0.1h0.8c0.2,0,0.3,0,0.5-0.1l0.1-0.1c0,0,0,0,0.1-0.1c0-0.4,0-0.8,0-1.2c0-0.1,0-0.3,0-0.4v-3.2v-3.1v-3.2v-3.2
		c-0.1-1-0.1-2.1-0.1-3.1v-1.6v-0.8c0-0.3,0-0.5,0.1-0.8s0.3-0.5,0.5-0.7c0.4-0.4,0.8-0.8,1.2-1.1c0.1-0.1,0.1-0.1,0.2-0.2
		c0.1-0.1,0.1-0.1,0.2-0.2l0.1-0.1c0.5-0.4,0.9-0.9,1.3-1.4c0.1-0.1,0.1-0.2,0.2-0.2V10c0.1-0.2,0.3-0.4,0.4-0.6
		c0.5-0.3,1-0.6,1.3-1.1V8.2L29,7.9c0.2,0,0.4-0.1,0.5-0.2L30,7.3c0.3-0.3,0.6-0.6,0.8-0.9c0.5-0.6,0.9-1.3,1.5-1.9s1.1-1.3,1.4-2
		c0.2-0.4,0.4-0.8,0.5-1.2C34.3,0.9,34,0.5,33.6,0.3z M0.8,27.9c0.1,1.2,0,2.4,0,3.7v1.8c0,0.2,0,0.3,0,0.5C0.9,34,0.9,34,1,34
		c-0.2-0.1-0.2-0.4-0.1-0.6v-1.8C0.9,30.3,0.9,29.1,0.8,27.9c0.1-1,0-1.9,0-2.9c0,0.4,0,0.8,0,1.2c0-1.1-0.1-2.1-0.1-3.2
		c-0.1-0.9-0.1-1.8,0.1-2.6v-0.1v0.1c0-0.1,0-0.2,0-0.3c0,0,0-0.1-0.1-0.1c-0.1-0.3-0.1-0.6-0.1-0.8c0-0.1,0-0.1,0-0.2v-0.1v-0.1
		c0-0.5,0-0.9,0-1.4c0-0.1,0-0.1,0-0.2s-0.1-0.1-0.2-0.1c0.1-1,0.2-1.9,0.2-2.9c0-0.2,0-0.4,0-0.6s0-0.3,0-0.5c0.1-0.7,0.1-1.3,0-2
		c0-0.3-0.1-0.7-0.1-1c0-0.1,0-0.1,0-0.2V9.8c0-0.2,0-0.5,0-0.7c0-0.7,0-1.3,0.1-2V6.6c0-0.2,0-0.5,0-0.7c0-0.1,0-0.1,0-0.1
		C1,5.3,1.3,5.2,1.5,5.3c0.5,0,0.9,0,1.4-0.1C3.3,5.1,3.7,5,4,5c0.2,0,0.3,0,0.5,0s0.4,0,0.6,0H6c0.4,0,0.8,0,1.2,0C7.5,5,7.7,5,8,5
		h1l4-0.1l4,0.2C18.4,5,19.7,5,21,5c-0.5,0-1.1,0-1.6,0c0.2,0,0.5,0,0.7,0c0.6,0,1.2,0,1.7-0.1c0.3,0,0.5,0.1,0.5,0.3
		c0-0.1-0.1-0.1-0.2-0.1c0.1,0,0.1,0.1,0.1,0.1c0,0.1,0.1,0.2,0.1,0.4c0,0.3,0,0.6,0,1s-0.1,0.7,0,1.1c0,0.2-0.1,0.4-0.2,0.6L22,8.4
		c-0.1,0.1-0.2,0.1-0.3,0.2c-0.1,0.1-0.1,0.1-0.2,0.2c-0.2,0.1-0.3,0.2-0.4,0.4c-0.4,0.5-1,0.9-1.4,1.4c-0.8,1-1.9,1.9-2.7,2.9
		c-0.2,0.3-0.4,0.5-0.6,0.8c-0.1,0.1-0.1,0.3-0.2,0.4c-0.2,0.1-0.3,0.2-0.4,0.3c-0.4,0.5-0.9,1-1.3,1.5c-0.8,1.1-1.6,2.1-2.3,3.2
		c-0.2,0.3-0.4,0.5-0.6,0.8c-0.1,0.3-0.3,0.6-0.4,0.9c-0.1,0.3-0.4,0.5-0.6,0.7l-0.8,0.6l-1.6,1.2c-0.6,0.3-1,0.9-1.3,1.5
		c-0.2,0.6-0.5,1.2-0.7,1.8c-0.3,0.6-0.5,1.2-0.6,1.9v0.1l0.1-0.1c0.7-0.4,1.4-0.8,2.1-1.1L9,27.4c0.4-0.2,0.7-0.4,1-0.7
		c0.2-0.3,0.4-0.7,0.6-1c0.2-0.3,0.4-0.7,0.6-1l0.6-1.1L12,23l0.1-0.3l0.1-0.3v-0.1h-0.1L12,22.2h-0.1v0.1c-0.2,0.3-0.4,0.5-0.5,0.7
		L11,23.9c-0.3,0.5-0.7,1-0.9,1.6s-0.5,1.1-1,1.4c-0.5,0.2-1,0.4-1.6,0.6L8,26.9c0.2-0.2,0.4-0.4,0.6-0.6c0.1-0.1,0.2-0.1,0.3-0.1
		s0.2,0,0.2,0c0.1,0,0.1-0.1,0.2-0.2c0.1-0.1,0.2-0.3,0.2-0.5c-0.1-0.1-0.2-0.3-0.3-0.4C9,25.1,8.9,25,8.7,25s-0.4,0.1-0.5,0.2
		l-0.1,0.1v0.1c0,0.1,0,0.1,0,0.2S8,25.8,8,26c-0.2,0.4-0.6,0.7-0.9,1.1l0.2-0.7c0.1-0.3,0.2-0.6,0.3-0.9c0.3-0.5,0.7-1,1.3-1.3
		l1.5-1c0.5-0.3,1-0.7,1.5-1l1.3,0.4c0.1,0,0.2,0.1,0.4,0.1c0.1,0,0.2-0.1,0.3-0.1c0.2-0.1,0.4-0.2,0.6-0.3c0.2-0.1,0.4-0.3,0.5-0.4
		l0.5-0.4c0.2-0.1,0.4-0.3,0.5-0.4c0.1,0,0.1,0,0.2-0.1l0.1-0.1l0.3-0.2c0.2-0.1,0.4-0.3,0.6-0.4l0.5-0.5c0.3-0.3,0.7-0.6,1.1-0.9
		c0.2-0.2,0.4-0.3,0.6-0.4c0.2-0.2,0.3-0.3,0.5-0.5c0.1-0.2,0.3-0.3,0.5-0.5c0.1-0.2,0.1-0.3,0.1-0.4l0.1-0.2V17v0.1l0.1-0.1
		c0.4-0.3,0.8-0.7,1.1-1l0.6-0.5c0.1-0.1,0.2-0.2,0.2-0.3c0.1-0.1,0.1-0.2,0.2-0.3l0.1,0.1c0,0.2,0,0.4,0,0.6c0,0.9,0.1,1.9,0.1,2.8
		v0.1c0,0.1,0,0.1,0,0.2s0,0.2,0,0.3c0,0.8,0,1.7,0.1,2.5c0,0.1,0,0.3,0,0.4c0,0.2,0,0.4,0,0.6s0,0.4,0,0.6c0.1,0.1,0.1,0.2,0.1,0.4
		c0,0.2-0.1,0.5-0.2,0.7c-0.1,0.3-0.1,0.6,0,0.9c0,0.2,0,0.3,0,0.5v0.1c0,0.1,0,0.1,0,0.2c0,0.2,0,0.4,0,0.6s0,0.4,0,0.6
		c0,1.4-0.1,2.9-0.1,4.3c0,0.8,0,1.6,0,2.3c0,0.1,0,0.1,0,0.2c0,0.1-0.1,0.2-0.2,0.3c0,0,0,0-0.1,0h-0.5h-1.8l-3.7,0.1
		c-1.2,0-2.4,0.1-3.7,0L5.7,34c-1.2,0-2.4-0.1-3.7,0c-0.3,0-0.6,0-0.9,0H1c0.1,0,0.1,0,0.2,0.1c0.3,0,0.6,0,0.9,0
		c1.2,0,2.4,0.1,3.7,0.1l7.3,0.2c1.2,0.1,2.4,0,3.7,0l3.7-0.1l1.8-0.1h0.1c-1.2,0-2.5,0.1-3.7,0.1c-1.5,0.1-3.1,0.1-4.6,0.1
		c-2.2,0-4.4-0.1-6.7-0.1l-4.8-0.1c-0.5,0-0.9,0-1.4,0c-0.1,0-0.1,0-0.2,0c-0.2-0.1-0.4-0.3-0.3-0.6c0.1-1.4,0.1-2.7,0.1-4.1
		C0.8,28.9,0.8,28.4,0.8,27.9z M14.8,5L13,4.9L9,5H8.5C9,5,9.4,5,9.9,5c1-0.1,2.1-0.1,3.1-0.1C13.6,4.9,14.2,5,14.8,5z M16.8,5.1
		c0.4,0,0.9,0,1.3,0c-0.4,0-0.7,0-1.1,0H16.8z M23.4,7.9L24.3,7l1-0.8c0.3-0.3,0.6-0.5,1-0.8c0.3-0.3,0.6-0.6,1-0.8
		c0.2-0.1,0.3-0.3,0.4-0.4C27.8,4,28,3.9,28.2,3.8c0.4-0.2,0.7-0.4,1.1-0.6l2-1.5c0.3-0.3,0.6-0.5,1-0.7c0.2-0.1,0.4-0.2,0.6-0.2
		c0.1,0,0.2,0,0.4,0c0.1,0,0.2,0.1,0.3,0.3s0,0.5-0.2,0.7L33,2.2l-0.7,1l-1.5,2c-0.2,0.4-0.4,0.7-0.7,1l-0.8,1l-0.8,1l-0.9,0.9
		l-1.8,1.8c-0.6,0.6-1.1,1.2-1.8,1.7c-0.3,0.3-0.6,0.5-0.9,0.9c-0.3,0.3-0.6,0.6-1,0.8l-1.8,1.6c-0.4-1-1.1-1.9-2-2.4l0.1-0.1
		c0,0,0-0.1,0.1-0.1c0.1-0.1,0.1-0.2,0.2-0.3c0.4-0.5,0.8-1,1.2-1.5c0.5-0.6,1.1-1.2,1.7-1.8L23.4,7.9z M11.7,22L11.7,22l0.7,0.2
		L11.7,22z M20,16.3c0,0.1-0.1,0.1-0.1,0.2c0,0,0,0,0,0.1l-0.1,0.1c0,0,0,0.1-0.1,0.1c-0.1,0.2-0.3,0.4-0.6,0.5
		c-0.2,0.2-0.5,0.4-0.7,0.6l-0.8,0.7c-0.4,0.4-0.8,0.7-1.3,1.1s-1,0.8-1.5,1.3L14,21.5c-0.3,0.3-0.6,0.4-1,0.5
		c-0.4,0-0.8-0.3-0.9-0.7c0-0.4,0-0.8,0.2-1.1c0.2-0.3,0.4-0.6,0.6-0.9c0.2-0.3,0.4-0.6,0.6-0.9c0.1-0.2,0.2-0.3,0.4-0.4
		c0.1-0.1,0.2-0.2,0.3-0.4L15,17l1.2-1.5c0.4-0.5,0.7-0.9,1.1-1.3c0.1-0.1,0.2-0.2,0.3-0.2c0.1,0,0.3,0,0.4,0
		c0.2,0.1,0.4,0.2,0.6,0.3c0.3,0.2,0.6,0.5,0.8,0.8c0.1,0.1,0.2,0.3,0.2,0.4c0,0.1,0.1,0.1,0.1,0.2L20,16C20,16.1,20,16.2,20,16.3z
		 M20.5,16.8L20.5,16.8z M23.5,7h0.1H23.5C23.4,7,23.4,7,23.5,7C23.4,7,23.5,7,23.5,7z M18.7,4.7l2.4-0.1h1.2h0.6L23,4.7l-0.1-0.1
		c-0.6,0-1.2,0-1.7,0c-1.2,0-2.6,0.1-3.7,0.1c-1,0-2.1-0.1-3.1-0.1C15.8,4.7,17.2,4.8,18.7,4.7z M8.9,4.8l3.9-0.1
		c-1.7,0-3.4,0.1-5.1,0.1C8.2,4.8,8.5,4.8,8.9,4.8z M6.5,4.9c0.4,0,0.7-0.1,1.1-0.1C6.9,4.9,6.2,4.9,5.5,4.9
		C5.8,4.9,6.2,4.9,6.5,4.9z"/>
	<path d="M22.1,5c0,0-0.1,0-0.2,0C22,5,22.1,5,22.1,5z"/>
	<path class="st1" d="M19.9,11.5c-0.4,0.5-0.8,1-1.2,1.5c-0.1,0.1-0.2,0.2-0.3,0.4l-0.1,0.1c0.9,0.6,1.6,1.4,2,2.5
		c-0.4-1-1.1-1.9-2-2.5C18.9,12.8,19.4,12.1,19.9,11.5c0.6-0.6,1.2-1.2,1.8-1.7l1.6-1.5l0.2-0.2V8L25,6.4l0.3,0
		c0.4-0.3,0.7-0.5,1-0.8c0.3-0.3,0.6-0.5,1-0.8c0.2-0.1,0.3-0.3,0.5-0.5c0.1-0.2,0.3-0.3,0.4-0.4c0.4-0.2,0.8-0.3,1.1-0.6l2-1.5
		c0.3-0.3,0.6-0.5,1-0.7c0.2,0,0.4-0.1,0.6-0.1c0,0,0,0,0.1,0c0.1-0.1,0.3,0,0.4,0.1c0,0.2,0,0.4-0.1,0.5L33,2.1l-0.7,1l-1.5,2
		c-0.2,0.4-0.4,0.7-0.7,1l-0.8,1l-0.8,1l-1,0.9l-1.7,1.8c-0.6,0.6-1.1,1.2-1.8,1.8c-0.3,0.3-0.6,0.6-0.9,0.9
		c-0.1,0.1-0.3,0.3-0.4,0.4L22.6,14c-0.1,0.1-0.3,0.2-0.4,0.3L20.4,16l1.8-1.6c0.4-0.2,0.7-0.5,1-0.8c0.3-0.3,0.6-0.6,0.9-0.9
		c0.6-0.5,1.2-1.2,1.8-1.7l1.8-1.8l0.9-0.9l0.8-1l0.8-1c0.3-0.3,0.5-0.6,0.7-1l1.5-2l0.7-1l0.3-0.6c0.2-0.2,0.2-0.4,0.2-0.7
		c-0.1-0.1-0.2-0.2-0.3-0.3c-0.1,0-0.2,0-0.4,0c-0.2,0.1-0.4,0.1-0.6,0.2c-0.4,0.2-0.7,0.4-1,0.7l-2,1.5c-0.3,0.2-0.7,0.5-1.1,0.6
		c-0.2,0.1-0.4,0.2-0.5,0.4c-0.1,0.2-0.3,0.3-0.4,0.4c-0.4,0.2-0.7,0.5-1,0.8c-0.3,0.3-0.7,0.5-1,0.8l-1,0.8l-0.9,0.9l-1.8,1.7
		C21,10.2,20.4,10.8,19.9,11.5z"/>
	<path class="st1" d="M19.6,16.8C19.7,16.7,19.7,16.7,19.6,16.8C19.7,16.7,19.7,16.7,19.6,16.8z"/>
	<path class="st1" d="M20,16.3c0-0.1,0-0.2,0-0.3c0,0.2,0,0.3-0.1,0.4L20,16.3z"/>
	<path class="st1" d="M19.9,16.4C19.9,16.5,19.9,16.5,19.9,16.4C19.9,16.5,19.9,16.5,19.9,16.4z"/>
	<rect x="1.7" y="8.2" class="st0" width="13.7" height="2.2"/>
	<path class="st1" d="M3.4,10.6v0.2h0.2c1.9-0.1,3.8,0,5.8-0.1c1.9,0,3.8-0.1,5.8-0.2c-1.3-0.1-2.6-0.1-3.9-0.1c0.3,0,0.7,0,1,0
		c0.9,0,1.9-0.1,2.8-0.1v-0.1c-1,0-1.9-0.1-2.9-0.1c-0.5-0.1-1-0.1-1.5-0.1H9.3c-1,0-1.9,0-2.9,0L5,10H4.3c-0.1,0-0.2,0-0.4,0
		c-0.1,0-0.3,0.1-0.4,0.1l-0.2,0.1l0.1,0.2L3.4,10.6z"/>
</g>
</svg>

