<?xml version="1.0" encoding="utf-8"?>
<!-- Generator: Adobe Illustrator 16.0.0, SVG Export Plug-In . SVG Version: 6.00 Build 0)  -->
<!DOCTYPE svg PUBLIC "-//W3C//DTD SVG 1.1 Tiny//EN" "http://www.w3.org/Graphics/SVG/1.1/DTD/svg11-tiny.dtd">
<svg version="1.1" baseProfile="tiny" id="Layer_1" xmlns="http://www.w3.org/2000/svg" xmlns:xlink="http://www.w3.org/1999/xlink"
	 x="0px" y="0px" width="33.715px" height="32.966px" viewBox="0 0 33.715 32.966" xml:space="preserve">
<g>
	<path fill-rule="evenodd" d="M0.003,32.902c0-1.325-0.009-2.549,0.001-3.774c0.025-2.904,0.052-5.812,0.09-8.72
		c0.038-2.903,0.085-5.806,0.138-8.71c0.033-1.767,0.109-3.529,0.122-5.297C0.365,4.763,0.31,3.126,0.3,1.486
		C0.299,1.193,0.334,0.882,0.438,0.61c0.121-0.321,0.369-0.503,0.767-0.501c2.965,0.032,5.931,0.062,8.896,0.051
		c1.879-0.008,3.76-0.106,5.641-0.125c1.221-0.012,2.444,0.061,3.666,0.069c1.432,0.012,2.864,0,4.295-0.012
		c2.608-0.021,5.219-0.049,7.826-0.074c0.45-0.005,0.902-0.034,1.35-0.008c0.283,0.017,0.561,0.118,0.838,0.18
		c-0.244,2.191-0.186,4.307-0.201,6.419c-0.014,1.971-0.088,3.941-0.103,5.911c-0.025,3.232-0.024,6.467-0.034,9.699
		c-0.006,2.574-0.011,5.149-0.013,7.723c-0.001,0.449,0.013,0.9,0.03,1.349c0.041,1.042-0.504,1.605-1.574,1.604
		c-2.941-0.003-5.883-0.021-8.824-0.017c-4.41,0.006-8.819,0.023-13.229,0.036c-2.009,0.007-4.018,0.011-6.027,0.021
		c-0.987,0.005-1.975,0.026-2.962,0.03C0.544,32.967,0.31,32.929,0.003,32.902z M27.186,5.902c-1.988-0.766-3.957-0.626-5.928-0.087
		c-0.223,0.062-0.477,0.178-0.613,0.35c-0.467,0.582-0.93,1.178-1.309,1.816c-0.188,0.315-0.244,0.739-0.264,1.118
		c-0.051,0.986-0.045,1.976-0.07,2.962c-0.014,0.539-0.057,1.076-0.066,1.614c-0.013,0.646-0.004,1.293-0.004,2.017
		c-0.316,0.027-0.576,0.064-0.835,0.067c-0.718,0.005-1.436-0.021-2.153-0.003c-0.665,0.016-0.81,0.103-0.874,0.764
		c-0.097,1.01-0.117,2.027-0.143,3.043c-0.008,0.342,0.069,0.687,0.121,1.144c1.038,0,1.992-0.001,2.946,0.001
		c0.934,0.003,1.133,0.248,1.074,1.195c-0.08,1.286-0.124,2.573-0.188,3.857c-0.029,0.625-0.075,1.251-0.1,1.875
		c-0.027,0.717-0.055,1.435-0.051,2.15c0.004,0.7,0.047,1.398,0.076,2.18c1.486,0,2.85,0,4.264,0
		c0.085-0.309,0.206-0.59,0.234-0.881c0.047-0.5,0.04-1.007,0.052-1.511c0.054-2.245,0.108-4.49,0.154-6.736
		c0.005-0.267-0.013-0.539-0.06-0.802c-0.206-1.127-0.055-1.317,1.111-1.332c0.624-0.011,1.248-0.003,1.786-0.003
		c1.021-1.463,1.06-3.068,1.358-4.741c-0.553-0.054-1.045-0.127-1.542-0.148c-0.659-0.026-1.319,0.006-1.979-0.021
		c-0.567-0.023-0.902-0.377-0.855-0.909c0.099-1.132,0.23-2.26,0.34-3.391c0.016-0.169,0.005-0.35-0.037-0.515
		c-0.208-0.799,0.133-1.556,0.873-1.655c0.592-0.081,1.177-0.223,1.765-0.339c0.286-0.055,0.573-0.114,0.915-0.184
		C27.186,7.812,27.186,6.893,27.186,5.902z M4.936,0.921c-0.467-0.025-0.88-0.053-1.293-0.066C2.838,0.831,2.64,1.019,2.609,1.84
		c-0.021,0.567-0.021,1.135-0.046,1.7C2.516,4.644,2.434,5.743,2.41,6.847c-0.034,1.467-0.013,2.935-0.041,4.402
		c-0.034,1.736-0.101,3.473-0.144,5.211c-0.037,1.525-0.056,3.053-0.094,4.58c-0.038,1.611-0.108,3.223-0.127,4.835
		c-0.015,1.344,0.013,2.69,0.045,4.034c0.017,0.732,0.08,1.463,0.123,2.226c0.769,0.05,1.442,0.104,2.13-0.144
		C4.513,21.653,4.723,11.345,4.936,0.921z M8.294,0.87C8.268,1.265,8.231,1.586,8.228,1.908C8.221,2.624,8.247,3.341,8.23,4.056
		c-0.035,1.586-0.097,3.173-0.129,4.76c-0.039,1.945-0.06,3.889-0.085,5.833c-0.026,2.007-0.042,4.014-0.075,6.02
		c-0.024,1.526-0.074,3.054-0.099,4.58c-0.029,1.798-0.051,3.597-0.056,5.394c0,0.457,0.248,0.933-0.319,1.376
		c0.977,0.13,1.786,0.183,2.655,0.02c0-0.407-0.004-0.735,0-1.061c0.014-1.259,0.024-2.518,0.047-3.775
		c0.038-2.092,0.094-4.181,0.125-6.272c0.03-1.915,0.03-3.833,0.058-5.748c0.028-1.882,0.078-3.762,0.11-5.643
		c0.025-1.556,0.028-3.11,0.058-4.664c0.021-1.102,0.086-2.2,0.1-3.302c0.008-0.59-0.109-0.689-0.663-0.7
		C9.452,0.862,8.945,0.87,8.294,0.87z M16.423,0.995c-0.633-0.072-1.163-0.119-1.69-0.193c-0.636-0.088-0.687-0.068-0.866,0.551
		c-0.075,0.258-0.164,0.521-0.18,0.784c-0.059,0.977-0.112,1.953-0.127,2.931c-0.019,1.254,0.01,2.508,0.001,3.763
		c-0.011,1.492-0.042,2.985-0.062,4.477c-0.032,2.358-0.072,4.717-0.089,7.073c-0.011,1.4,0.034,2.801,0.02,4.2
		c-0.021,2.12-0.075,4.244-0.106,6.367c-0.005,0.323,0.039,0.646,0.068,1.09c0.828,0,1.608,0,2.477,0
		c0.051-1.772,0.12-3.5,0.145-5.226c0.025-1.746,0.005-3.492,0.005-5.238c-0.184-0.018-0.273-0.037-0.36-0.031
		c-1.561,0.12-1.642-0.432-1.566-1.554c0.099-1.482,0.314-2.981-0.003-4.474c-0.077-0.362,0.087-0.596,0.46-0.612
		c0.503-0.021,1.008-0.005,1.64-0.005C16.267,10.242,16.344,5.652,16.423,0.995z M5.552,1.012C5.308,2.437,5.01,31.382,5.234,32.114
		c0.592,0,1.19,0,1.823,0C7.24,21.676,7.422,11.329,7.604,0.915C6.885,0.899,6.242,0.685,5.552,1.012z M30.663,31.931
		c0.181-10.372,0.361-20.656,0.542-30.991c-0.736,0.089-1.424-0.238-2.062,0.133c-0.185,1.081-0.516,30.052-0.336,30.858
		C29.368,31.931,29.951,31.931,30.663,31.931z M11.214,0.825c-0.021,0.502-0.032,0.905-0.057,1.307
		c-0.058,0.924-0.168,1.848-0.176,2.772c-0.02,2.747,0.011,5.493,0.003,8.241c-0.004,1.434-0.047,2.865-0.068,4.301
		c-0.026,1.757-0.053,3.515-0.069,5.271c-0.019,2.088-0.028,4.176-0.039,6.263c-0.004,1.003,0,2.006,0,3.039
		c0.686,0.033,1.241,0.18,1.849-0.112c0.162-10.296,0.325-20.585,0.489-30.978C12.512,0.894,11.956,0.865,11.214,0.825z
		 M32.242,31.784c0.058-0.526,0.159-1.054,0.169-1.584c0.042-2.213,0.052-4.426,0.082-6.639c0.04-2.787,0.094-5.574,0.132-8.36
		c0.042-2.999,0.071-5.998,0.108-8.998c0.018-1.498,0.055-2.996,0.054-4.495c-0.002-0.752-0.043-0.761-0.868-0.65
		c-0.025,0.078-0.077,0.161-0.079,0.244c-0.054,1.885-0.124,3.77-0.149,5.654c-0.051,3.862-0.068,7.728-0.114,11.59
		c-0.03,2.607-0.084,5.213-0.126,7.818c-0.023,1.38-0.045,2.76-0.063,4.139c-0.007,0.449-0.001,0.9-0.001,1.402
		c0.045,0,0.193,0.014,0.338-0.003C31.868,31.885,32.008,31.838,32.242,31.784z M2.145,1.043c-0.896-0.264-1.136-0.12-1.198,0.719
		C0.93,2.001,0.949,2.24,0.95,2.481c0.007,1.975,0.027,3.95,0.019,5.924C0.953,12.954,0.817,17.5,0.884,22.05
		c0.035,2.363-0.036,4.729-0.021,7.094c0.005,0.896,0.114,1.793,0.173,2.688c0.02,0.301,0.14,0.45,0.527,0.304
		C1.756,21.782,1.951,11.408,2.145,1.043z M16.889,14.902c0.284,0,0.523,0.021,0.758-0.005c0.383-0.042,0.572-0.268,0.586-0.661
		c0.042-1.28,0.094-2.562,0.143-3.841c0.055-1.372,0.096-2.742,0.925-3.941c0.142-0.203,0.175-0.506,0.184-0.767
		c0.049-1.405,0.078-2.812,0.104-4.222c0.002-0.165-0.059-0.333-0.102-0.558c-0.778,0-1.514,0-2.232,0
		C16.886,2.005,16.588,13.37,16.889,14.902z M25.771,21.48c-0.091,3.604-0.229,7.095-0.008,10.628
		c0.762-0.05,1.429-0.093,2.167-0.141c0.073-4.478,0.144-8.835,0.213-13.191c-0.062-0.007-0.123-0.012-0.185-0.018
		c-0.079,0.282-0.177,0.561-0.234,0.846c-0.096,0.469-0.146,0.946-0.251,1.414c-0.143,0.64-0.359,0.741-1.021,0.557
		C26.288,21.528,26.11,21.526,25.771,21.48z M16.639,21.513c-0.029,3.549-0.129,6.994,0.018,10.43
		c0.564,0.123,0.859,0.008,0.896-0.522c0.035-0.478,0.121-0.95,0.141-1.428c0.114-2.552,0.212-5.104,0.321-7.657
		c0.03-0.705-0.034-0.793-0.712-0.82C17.126,21.507,16.95,21.513,16.639,21.513z M26.014,9.913
		c-0.066,1.754-0.111,3.352-0.039,5.063c0.8-0.046,1.494-0.086,2.211-0.126c0.299-1.89,0.068-3.656,0.071-5.487
		c-0.197,0.649-0.644,0.599-1.108,0.556C26.805,9.888,26.455,9.913,26.014,9.913z M22.524,4.584c0-1.198,0-2.383,0-3.648
		c-0.811,0-1.568,0-2.408,0c-0.125,1.574-0.26,3.112-0.16,4.639C20.854,5.228,21.68,4.909,22.524,4.584z M25.817,0.931
		c-0.896,0-1.71,0-2.527,0c-0.376,1.185-0.268,2.342-0.279,3.58c0.889,0,1.703,0,2.654,0C25.711,3.394,25.76,2.245,25.817,0.931z
		 M28.116,8.717c0.064,0.007,0.131,0.015,0.195,0.022c0.093-2.578,0.186-5.154,0.279-7.8c-0.575,0-1.051,0.001-1.525,0
		c-0.706-0.004-0.826,0.11-0.854,0.814c-0.027,0.685-0.062,1.37-0.076,2.057c-0.004,0.229,0.049,0.462,0.08,0.735
		c0.294,0.045,0.554,0.096,0.816,0.121c1.025,0.102,1.15,0.287,1.094,1.296C28.077,6.879,28.116,7.8,28.116,8.717z M25.359,21.593
		c-0.642,0.086-0.657,0.085-0.676,0.545c-0.116,2.86-0.228,5.723-0.333,8.585c-0.01,0.267,0.033,0.535,0.057,0.806
		c0.042,0.463,0.3,0.524,0.785,0.336C25.247,28.477,25.302,25.07,25.359,21.593z M25.45,14.929c0-1.7,0-3.264,0-4.828
		c-0.894,0.046-1.051,0.146-1.203,0.929c-0.242,1.237-0.006,2.47-0.01,3.767C24.634,14.84,24.95,14.873,25.45,14.929z"/>
	<path fill-rule="evenodd" fill="#FFFFFF" d="M27.186,5.902c0,0.99,0,1.91,0,2.896c-0.342,0.069-0.629,0.129-0.915,0.184
		c-0.588,0.116-1.173,0.258-1.765,0.339c-0.74,0.1-1.081,0.856-0.873,1.655c0.042,0.165,0.053,0.346,0.037,0.515
		c-0.109,1.131-0.241,2.259-0.34,3.391c-0.047,0.532,0.288,0.886,0.855,0.909c0.66,0.027,1.32-0.005,1.979,0.021
		c0.497,0.021,0.989,0.095,1.542,0.148c-0.299,1.673-0.337,3.278-1.358,4.741c-0.538,0-1.162-0.008-1.786,0.003
		c-1.166,0.015-1.317,0.205-1.111,1.332c0.047,0.263,0.064,0.535,0.06,0.802c-0.046,2.246-0.101,4.491-0.154,6.736
		c-0.012,0.504-0.005,1.011-0.052,1.511c-0.028,0.291-0.149,0.572-0.234,0.881c-1.414,0-2.777,0-4.264,0
		c-0.029-0.781-0.072-1.479-0.076-2.18c-0.004-0.716,0.023-1.434,0.051-2.15c0.024-0.624,0.07-1.25,0.1-1.875
		c0.063-1.284,0.107-2.571,0.188-3.857c0.059-0.947-0.141-1.192-1.074-1.195c-0.954-0.002-1.908-0.001-2.946-0.001
		c-0.051-0.457-0.128-0.802-0.121-1.144c0.025-1.016,0.045-2.033,0.143-3.043c0.064-0.661,0.208-0.748,0.874-0.764
		c0.717-0.018,1.435,0.008,2.153,0.003c0.259-0.003,0.519-0.04,0.835-0.067c0-0.724-0.009-1.371,0.004-2.017
		c0.01-0.538,0.053-1.075,0.066-1.614c0.025-0.986,0.02-1.976,0.07-2.962c0.02-0.379,0.076-0.803,0.264-1.118
		c0.379-0.639,0.842-1.234,1.309-1.816c0.137-0.172,0.391-0.288,0.613-0.35C23.229,5.276,25.198,5.137,27.186,5.902z"/>
	<path fill-rule="evenodd" fill="#FFFFFF" d="M4.936,0.921c-0.212,10.424-0.423,20.732-0.634,31.07
		c-0.688,0.247-1.361,0.193-2.13,0.144c-0.043-0.763-0.106-1.493-0.123-2.226c-0.032-1.344-0.06-2.69-0.045-4.034
		c0.019-1.612,0.09-3.224,0.127-4.835c0.038-1.527,0.057-3.055,0.094-4.58c0.043-1.738,0.11-3.475,0.144-5.211
		C2.397,9.781,2.375,8.313,2.41,6.847C2.434,5.743,2.516,4.644,2.562,3.54c0.025-0.565,0.026-1.133,0.046-1.7
		C2.64,1.019,2.838,0.831,3.642,0.854C4.055,0.868,4.468,0.896,4.936,0.921z"/>
	<path fill-rule="evenodd" fill="#FFFFFF" d="M8.294,0.87c0.65,0,1.158-0.008,1.665,0.002c0.554,0.011,0.671,0.11,0.663,0.7
		c-0.014,1.102-0.079,2.2-0.1,3.302c-0.03,1.554-0.033,3.108-0.058,4.664c-0.032,1.881-0.082,3.761-0.11,5.643
		c-0.028,1.915-0.028,3.833-0.058,5.748c-0.032,2.092-0.088,4.181-0.125,6.272c-0.023,1.258-0.034,2.517-0.047,3.775
		c-0.004,0.325,0,0.653,0,1.061c-0.869,0.163-1.679,0.11-2.655-0.02c0.567-0.443,0.319-0.919,0.319-1.376
		c0.005-1.797,0.027-3.596,0.056-5.394c0.024-1.526,0.075-3.054,0.099-4.58c0.033-2.006,0.049-4.013,0.075-6.02
		c0.025-1.944,0.046-3.888,0.085-5.833c0.032-1.587,0.094-3.174,0.129-4.76c0.016-0.715-0.009-1.432-0.002-2.147
		C8.231,1.586,8.268,1.265,8.294,0.87z"/>
	<path fill-rule="evenodd" fill="#FFFFFF" d="M16.423,0.995c-0.079,4.657-0.156,9.247-0.234,13.902c-0.632,0-1.136-0.017-1.64,0.005
		c-0.373,0.017-0.537,0.25-0.46,0.612c0.317,1.492,0.102,2.991,0.003,4.474c-0.075,1.122,0.005,1.674,1.566,1.554
		c0.087-0.006,0.176,0.014,0.36,0.031c0,1.746,0.02,3.492-0.005,5.238c-0.024,1.726-0.094,3.453-0.145,5.226
		c-0.869,0-1.649,0-2.477,0c-0.029-0.443-0.073-0.767-0.068-1.09c0.031-2.123,0.084-4.247,0.106-6.367
		c0.014-1.399-0.031-2.8-0.02-4.2c0.018-2.356,0.057-4.715,0.089-7.073c0.021-1.491,0.051-2.984,0.062-4.477
		c0.009-1.255-0.02-2.509-0.001-3.763c0.015-0.978,0.068-1.954,0.127-2.931c0.017-0.264,0.105-0.526,0.18-0.784
		c0.179-0.619,0.23-0.639,0.866-0.551C15.26,0.876,15.791,0.923,16.423,0.995z"/>
	<path fill-rule="evenodd" fill="#FFFFFF" d="M5.552,1.012c0.689-0.327,1.333-0.112,2.052-0.097
		C7.422,11.329,7.24,21.676,7.057,32.114c-0.632,0-1.231,0-1.823,0C5.01,31.382,5.308,2.437,5.552,1.012z"/>
	<path fill-rule="evenodd" fill="#FFFFFF" d="M30.663,31.931c-0.712,0-1.295,0-1.855,0c-0.18-0.807,0.151-29.777,0.336-30.858
		c0.638-0.371,1.325-0.044,2.062-0.133C31.024,11.274,30.843,21.559,30.663,31.931z"/>
	<path fill-rule="evenodd" fill="#FFFFFF" d="M11.214,0.825c0.742,0.04,1.298,0.068,1.933,0.104
		c-0.164,10.393-0.327,20.682-0.489,30.978c-0.607,0.292-1.163,0.146-1.849,0.112c0-1.033-0.004-2.036,0-3.039
		c0.01-2.087,0.02-4.175,0.039-6.263c0.016-1.756,0.043-3.514,0.069-5.271c0.021-1.436,0.064-2.867,0.068-4.301
		c0.007-2.748-0.023-5.494-0.003-8.241c0.007-0.925,0.118-1.849,0.176-2.772C11.182,1.73,11.192,1.327,11.214,0.825z"/>
	<path fill-rule="evenodd" fill="#FFFFFF" d="M32.242,31.784c-0.233,0.054-0.374,0.101-0.519,0.118
		c-0.145,0.017-0.293,0.003-0.338,0.003c0-0.502-0.006-0.953,0.001-1.402c0.019-1.379,0.04-2.759,0.063-4.139
		c0.042-2.605,0.096-5.211,0.126-7.818c0.046-3.862,0.063-7.728,0.114-11.59c0.025-1.885,0.096-3.77,0.149-5.654
		c0.002-0.083,0.054-0.166,0.079-0.244c0.825-0.11,0.866-0.102,0.868,0.65c0.001,1.499-0.036,2.997-0.054,4.495
		c-0.037,3-0.066,5.999-0.108,8.998c-0.038,2.786-0.092,5.573-0.132,8.36c-0.03,2.213-0.04,4.426-0.082,6.639
		C32.401,30.73,32.299,31.258,32.242,31.784z"/>
	<path fill-rule="evenodd" fill="#FFFFFF" d="M2.145,1.043C1.951,11.408,1.756,21.782,1.562,32.135
		c-0.387,0.146-0.507-0.003-0.527-0.304c-0.059-0.895-0.168-1.791-0.173-2.688c-0.014-2.364,0.056-4.73,0.021-7.094
		C0.817,17.5,0.953,12.954,0.969,8.405C0.977,6.432,0.957,4.456,0.95,2.481c-0.001-0.241-0.02-0.48-0.002-0.72
		C1.009,0.923,1.249,0.779,2.145,1.043z"/>
	<path fill-rule="evenodd" fill="#FFFFFF" d="M16.889,14.902c-0.301-1.532-0.003-12.897,0.365-13.994c0.719,0,1.454,0,2.232,0
		c0.043,0.225,0.104,0.393,0.102,0.558c-0.026,1.409-0.056,2.816-0.104,4.222c-0.009,0.261-0.042,0.563-0.184,0.767
		c-0.829,1.199-0.87,2.569-0.925,3.941c-0.049,1.279-0.101,2.561-0.143,3.841c-0.014,0.394-0.203,0.619-0.586,0.661
		C17.413,14.923,17.173,14.902,16.889,14.902z"/>
	<path fill-rule="evenodd" fill="#FFFFFF" d="M25.771,21.48c0.339,0.046,0.517,0.048,0.682,0.095
		c0.661,0.185,0.878,0.083,1.021-0.557c0.104-0.468,0.155-0.945,0.251-1.414c0.058-0.285,0.155-0.563,0.234-0.846
		c0.062,0.006,0.123,0.011,0.185,0.018c-0.069,4.356-0.14,8.714-0.213,13.191c-0.738,0.048-1.405,0.091-2.167,0.141
		C25.542,28.575,25.68,25.084,25.771,21.48z"/>
	<path fill-rule="evenodd" fill="#FFFFFF" d="M16.639,21.513c0.311,0,0.487-0.006,0.664,0.002c0.678,0.027,0.742,0.115,0.712,0.82
		c-0.109,2.553-0.207,5.105-0.321,7.657c-0.02,0.478-0.105,0.95-0.141,1.428c-0.037,0.53-0.332,0.646-0.896,0.522
		C16.51,28.507,16.61,25.062,16.639,21.513z"/>
	<path fill-rule="evenodd" fill="#FFFFFF" d="M26.014,9.913c0.44,0,0.791-0.025,1.135,0.006c0.465,0.043,0.911,0.094,1.108-0.556
		c-0.003,1.831,0.228,3.598-0.071,5.487c-0.717,0.04-1.411,0.08-2.211,0.126C25.903,13.265,25.948,11.667,26.014,9.913z"/>
	<path fill-rule="evenodd" fill="#FFFFFF" d="M22.524,4.584c-0.844,0.325-1.67,0.644-2.568,0.99c-0.1-1.526,0.035-3.064,0.16-4.639
		c0.84,0,1.598,0,2.408,0C22.524,2.201,22.524,3.386,22.524,4.584z"/>
	<path fill-rule="evenodd" fill="#FFFFFF" d="M25.817,0.931c-0.057,1.314-0.105,2.463-0.152,3.58c-0.951,0-1.766,0-2.654,0
		c0.012-1.238-0.097-2.396,0.279-3.58C24.107,0.931,24.92,0.931,25.817,0.931z"/>
	<path fill-rule="evenodd" fill="#FFFFFF" d="M28.116,8.717c0-0.917-0.039-1.838,0.01-2.754c0.057-1.009-0.068-1.194-1.094-1.296
		c-0.263-0.025-0.522-0.076-0.816-0.121c-0.031-0.273-0.084-0.506-0.08-0.735c0.014-0.687,0.049-1.372,0.076-2.057
		c0.027-0.704,0.147-0.818,0.854-0.814c0.475,0.001,0.95,0,1.525,0c-0.094,2.646-0.187,5.222-0.279,7.8
		C28.247,8.731,28.18,8.724,28.116,8.717z"/>
	<path fill-rule="evenodd" fill="#FFFFFF" d="M25.359,21.593c-0.057,3.478-0.112,6.884-0.167,10.271
		c-0.485,0.188-0.743,0.127-0.785-0.336c-0.023-0.271-0.066-0.539-0.057-0.806c0.105-2.862,0.217-5.725,0.333-8.585
		C24.702,21.678,24.717,21.679,25.359,21.593z"/>
	<path fill-rule="evenodd" fill="#FFFFFF" d="M25.45,14.929c-0.5-0.056-0.815-0.089-1.213-0.133c0.004-1.297-0.232-2.529,0.01-3.767
		c0.152-0.782,0.31-0.883,1.203-0.929C25.45,11.665,25.45,13.229,25.45,14.929z"/>
</g>
</svg>
