<?xml version="1.0" encoding="utf-8"?>
<!-- Generator: Adobe Illustrator 16.0.0, SVG Export Plug-In . SVG Version: 6.00 Build 0)  -->
<!DOCTYPE svg PUBLIC "-//W3C//DTD SVG 1.1 Tiny//EN" "http://www.w3.org/Graphics/SVG/1.1/DTD/svg11-tiny.dtd">
<svg version="1.1" baseProfile="tiny" id="Layer_1" xmlns="http://www.w3.org/2000/svg" xmlns:xlink="http://www.w3.org/1999/xlink"
	 x="0px" y="0px" viewBox="0 0 201.436 36.371" xml:space="preserve">
<g>
	<g>
		<rect x="4.79" y="16.521" fill="#FFFFFF" stroke="#C8B475" stroke-miterlimit="10"/>
		<g>
			<circle fill="#FFFFFF" stroke="#C8B475" stroke-miterlimit="10" cx="197.877" cy="18.185" r="3.059"/>
			<line fill="none" stroke="#C8B475" stroke-miterlimit="10" x1="195.902" y1="31.166" x2="191.006" y2="31.166"/>
			<line fill="none" stroke="#C8B475" stroke-miterlimit="10" x1="195.902" y1="28.867" x2="191.006" y2="28.867"/>
			<line fill="none" stroke="#C8B475" stroke-miterlimit="10" x1="195.902" y1="26.564" x2="191.006" y2="26.564"/>
			<line fill="none" stroke="#C8B475" stroke-miterlimit="10" x1="195.902" y1="24.221" x2="191.006" y2="24.221"/>
			<line fill="none" stroke="#C8B475" stroke-miterlimit="10" x1="195.902" y1="21.475" x2="191.006" y2="21.475"/>
			<line fill="none" stroke="#C8B475" stroke-miterlimit="10" x1="195.902" y1="18.257" x2="191.006" y2="18.257"/>
			<line fill="none" stroke="#C8B475" stroke-miterlimit="10" x1="191.006" y1="5.348" x2="195.902" y2="5.348"/>
			<line fill="none" stroke="#C8B475" stroke-miterlimit="10" x1="191.006" y1="7.648" x2="195.902" y2="7.648"/>
			<line fill="none" stroke="#C8B475" stroke-miterlimit="10" x1="191.006" y1="9.947" x2="195.902" y2="9.947"/>
			<line fill="none" stroke="#C8B475" stroke-miterlimit="10" x1="191.006" y1="12.292" x2="195.902" y2="12.292"/>
			<line fill="none" stroke="#C8B475" stroke-miterlimit="10" x1="191.006" y1="15.329" x2="195.902" y2="15.329"/>
			<rect x="188.479" y="2.497" fill="#FFFFFF" stroke="#C8B475" stroke-miterlimit="10" width="9.46" height="31.378"/>
			<line fill="none" stroke="#C8B475" stroke-miterlimit="10" x1="195.902" y1="31.166" x2="191.006" y2="31.166"/>
			<line fill="none" stroke="#C8B475" stroke-miterlimit="10" x1="195.902" y1="28.867" x2="191.006" y2="28.867"/>
			<line fill="none" stroke="#C8B475" stroke-miterlimit="10" x1="195.902" y1="26.564" x2="191.006" y2="26.564"/>
			<line fill="none" stroke="#C8B475" stroke-miterlimit="10" x1="195.902" y1="24.221" x2="191.006" y2="24.221"/>
			<line fill="none" stroke="#C8B475" stroke-miterlimit="10" x1="195.902" y1="21.475" x2="191.006" y2="21.475"/>
			<line fill="none" stroke="#C8B475" stroke-miterlimit="10" x1="195.902" y1="18.257" x2="191.006" y2="18.257"/>
			<line fill="none" stroke="#C8B475" stroke-miterlimit="10" x1="191.006" y1="5.348" x2="195.902" y2="5.348"/>
			<line fill="none" stroke="#C8B475" stroke-miterlimit="10" x1="191.006" y1="7.648" x2="195.902" y2="7.648"/>
			<line fill="none" stroke="#C8B475" stroke-miterlimit="10" x1="191.006" y1="9.947" x2="195.902" y2="9.947"/>
			<line fill="none" stroke="#C8B475" stroke-miterlimit="10" x1="191.006" y1="12.292" x2="195.902" y2="12.292"/>
			<line fill="none" stroke="#C8B475" stroke-miterlimit="10" x1="191.006" y1="15.329" x2="195.902" y2="15.329"/>
		</g>
		<g>
			<circle fill="#FFFFFF" stroke="#C8B475" stroke-miterlimit="10" cx="3.559" cy="18.185" r="3.059"/>
			<line fill="none" stroke="#C8B475" stroke-miterlimit="10" x1="5.533" y1="31.166" x2="10.431" y2="31.166"/>
			<line fill="none" stroke="#C8B475" stroke-miterlimit="10" x1="5.533" y1="28.867" x2="10.431" y2="28.867"/>
			<line fill="none" stroke="#C8B475" stroke-miterlimit="10" x1="5.533" y1="26.564" x2="10.431" y2="26.564"/>
			<line fill="none" stroke="#C8B475" stroke-miterlimit="10" x1="5.533" y1="24.221" x2="10.431" y2="24.221"/>
			<line fill="none" stroke="#C8B475" stroke-miterlimit="10" x1="5.533" y1="21.475" x2="10.431" y2="21.475"/>
			<line fill="none" stroke="#C8B475" stroke-miterlimit="10" x1="5.533" y1="18.257" x2="10.431" y2="18.257"/>
			<line fill="none" stroke="#C8B475" stroke-miterlimit="10" x1="10.431" y1="5.348" x2="5.533" y2="5.348"/>
			<line fill="none" stroke="#C8B475" stroke-miterlimit="10" x1="10.431" y1="7.648" x2="5.533" y2="7.648"/>
			<line fill="none" stroke="#C8B475" stroke-miterlimit="10" x1="10.431" y1="9.947" x2="5.533" y2="9.947"/>
			<line fill="none" stroke="#C8B475" stroke-miterlimit="10" x1="10.431" y1="12.292" x2="5.533" y2="12.292"/>
			<line fill="none" stroke="#C8B475" stroke-miterlimit="10" x1="10.431" y1="15.329" x2="5.533" y2="15.329"/>
			<rect x="3.498" y="2.497" fill="#FFFFFF" stroke="#C8B475" stroke-miterlimit="10" width="9.46" height="31.378"/>
			<line fill="none" stroke="#C8B475" stroke-miterlimit="10" x1="5.533" y1="31.166" x2="10.431" y2="31.166"/>
			<line fill="none" stroke="#C8B475" stroke-miterlimit="10" x1="5.533" y1="28.867" x2="10.431" y2="28.867"/>
			<line fill="none" stroke="#C8B475" stroke-miterlimit="10" x1="5.533" y1="26.564" x2="10.431" y2="26.564"/>
			<line fill="none" stroke="#C8B475" stroke-miterlimit="10" x1="5.533" y1="24.221" x2="10.431" y2="24.221"/>
			<line fill="none" stroke="#C8B475" stroke-miterlimit="10" x1="5.533" y1="21.475" x2="10.431" y2="21.475"/>
			<line fill="none" stroke="#C8B475" stroke-miterlimit="10" x1="5.533" y1="18.257" x2="10.431" y2="18.257"/>
			<line fill="none" stroke="#C8B475" stroke-miterlimit="10" x1="10.431" y1="5.348" x2="5.533" y2="5.348"/>
			<line fill="none" stroke="#C8B475" stroke-miterlimit="10" x1="10.431" y1="7.648" x2="5.533" y2="7.648"/>
			<line fill="none" stroke="#C8B475" stroke-miterlimit="10" x1="10.431" y1="9.947" x2="5.533" y2="9.947"/>
			<line fill="none" stroke="#C8B475" stroke-miterlimit="10" x1="10.431" y1="12.292" x2="5.533" y2="12.292"/>
			<line fill="none" stroke="#C8B475" stroke-miterlimit="10" x1="10.431" y1="15.329" x2="5.533" y2="15.329"/>
		</g>
	</g>
	<path fill="#FFFFFF" stroke="#C8B475" stroke-miterlimit="10" d="M17.72,18.185C17.72,25.262,18.762,31,20.051,31
		c0.082,0,0.165-0.029,0.248-0.074h160.838c0.086,0.045,0.164,0.074,0.25,0.074c1.287,0,2.33-5.738,2.33-12.815
		c0-6.983-1.017-12.652-2.281-12.8V5.371H19.849v0.057C18.654,5.99,17.72,11.482,17.72,18.185z"/>
	<path fill="#FFFFFF" stroke="#C8B475" stroke-miterlimit="10" d="M21.823,18.185c0,9.77,2.18,17.687,3.388,17.687
		c0.078,0,0.157-0.036,0.232-0.103h150.55c0.075,0.066,0.153,0.103,0.235,0.103c1.205,0,3.384-7.917,3.384-17.687
		c0-9.641-2.159-17.464-3.342-17.665V0.5H25.021v0.075C23.904,1.35,21.823,8.934,21.823,18.185z"/>
</g>
</svg>
