<svg xmlns="http://www.w3.org/2000/svg" viewBox="0 0 200 200">
  <g class="cloud">
    <path d="M198.31,43.32a15,15,0,0,0-2.55-.25c-2.39-.09-4.79-.15-7.18-.2-.86,0-1.73,0-2.59,0s-1.91,0-2.86-.12c-4.78-.37-9.55-.94-14.34-1.08-8.26-.24-16.45-1.13-24.64-2.11a18.67,18.67,0,0,1-2.53-.53,1.42,1.42,0,0,1-1.09-1.5,4.83,4.83,0,0,1,0-.86c.55-3.28-.8-5.76-3.2-7.86-3.49-3-7.65-4.27-12.16-4.53a47,47,0,0,1-5.73-.24,11.58,11.58,0,0,1-.46-1.13c-1.33-4.67-4.74-6.76-9.27-7.4-3.31-.47-6.62-1.1-10,0l-3.46-5.08A21.63,21.63,0,0,0,86.08,2.27,26.24,26.24,0,0,0,78.8.65C74.31.24,70,.71,66.18,3.5c-.13.1-.36.05-.7.09-.43-.36-.92-.81-1.46-1.19A11.07,11.07,0,0,0,55.91.1C50.8.86,47.31,3.55,44.83,8c-1.26,2.28-1.69,4.48-3.27,6.58-1,1.31.72,1.22-1.16,1.91-1.09.4-3.45-.57-4.79-.43a11.79,11.79,0,0,0-9.26,5.55c-3.24,5.13-5.74,1.56-10.9,3-4.53,1.29-7,5.42-8.66,9.55-.65,1.6-1.28,3.34-.71,5a7.82,7.82,0,0,1,0,4C4.86,43.13,3.83,43,2.79,43,1.53,42.89,1.21,43,0,44.24c1.65.21,3.14.46,4.65.58a160.17,160.17,0,0,0,17.27.11c3.93-.12,7.85-.33,11.79-.36,7.77-.06,15.55,0,23.32,0,10.36,0,20.73,0,31.1,0,5,0,10,.25,15,.31,10.27.11,20.53,0,30.79.56,5.56.31,11.1.79,16.63,1.36.12,0,.23.2.34.3l-.55.75c.8,0,1.27.1,1.74.09l8.92-.11a17.68,17.68,0,0,0,4,0,28.7,28.7,0,0,1,6.58-.43c3.07-.06,6.14-.13,9.2-.25,2-.07,4-.31,6-.32a50.5,50.5,0,0,0,10.27-1.28,4.24,4.24,0,0,0,1.35-.46,1.19,1.19,0,0,0,.52-.89A1.13,1.13,0,0,0,198.31,43.32ZM189,44.9c-6.61,0-13.19,1.17-19.81.61a8.88,8.88,0,0,0-1.73,0c-5.55.6-11.09,0-16.62-.28-6.88-.36-13.78-.48-20.63-1.11-4.42-.41-8.81-.12-13.21-.26-4.11-.14-8.22-.2-12.33-.25-1.53,0-3.06.19-4.59.17-4.79-.06-9.58-.23-14.37-.27-2.87,0-5.73.14-8.6.2A25.66,25.66,0,0,1,74,43.66a100.66,100.66,0,0,0-11.77-.12c-2.58,0-5.17,0-7.75,0-4.89,0-9.78-.07-14.67-.19s-9.57.29-14.36.1c-3.73-.14-7.47.25-11.21.32a15.54,15.54,0,0,1-3.69-.42,2.18,2.18,0,0,1-1.91-2.2A2.6,2.6,0,0,0,8.44,40c-.93-1.82-.42-3.55.27-5.27a16.25,16.25,0,0,1,4.2-6.45,6.86,6.86,0,0,1,3.54-1.8c3.07-.45,6.08-.61,8.87,1.18.89.57,1.69,0,1.51-1.15a4.75,4.75,0,0,1,.78-3.27,10.61,10.61,0,0,1,8.29-5.54c2.54-.29,5,0,6.61,2.48a1.34,1.34,0,0,0,.66.51,1,1,0,0,0,.8-.08,1.27,1.27,0,0,0,.38-.71.87.87,0,0,0-.1-.55c-1.19-2.38-.61-4.73.31-7A21.12,21.12,0,0,1,49.41,5,10.88,10.88,0,0,1,60.6,2.39c1.83.54,3.31,1.53,3.73,3.59A1.18,1.18,0,0,0,65.5,7a1.36,1.36,0,0,0,1.35-.88,5.8,5.8,0,0,1,4-3A24.24,24.24,0,0,1,87.71,4.62a17.12,17.12,0,0,1,6.53,5.53c1.63,2.13,3.2,4.31,3.77,7a1.17,1.17,0,0,0,1.8.82c3.74-2.17,7.64-1.17,11.51-.62a5.81,5.81,0,0,1,1.61.59c3.59,1.7,4.63,3.55,4.28,7.55a5.84,5.84,0,0,0,0,1.13,1,1,0,0,0,1.12.67.87.87,0,0,0,.27-.08c2.77-2,5.9-1.38,8.91-1.08a16.4,16.4,0,0,1,8.21,3.23,13.81,13.81,0,0,1,2.39,2.47,3.91,3.91,0,0,1,.81,3.25c-.26,1.4-.58,2.78-1,4.6a12.44,12.44,0,0,0,2.17.75c4,.59,8,1.22,12,1.64,3.62.38,7.27.45,10.9.73,6.3.48,12.6,1,18.9,1.49,1.82.14,3.64.14,5.46.2l2.15.08C189.2,44.8,189.12,44.9,189,44.9Z"/><path class="cls-1" d="M138,39.7a12.44,12.44,0,0,0,2.17.75c4,.59,8,1.22,12,1.64,3.62.38,7.27.45,10.9.73,6.3.48,12.6,1,18.9,1.49,1.82.14,3.64.14,5.46.2l2.15.08c-.32.21-.39.31-.47.31-6.61,0-13.19,1.17-19.81.61a8.88,8.88,0,0,0-1.73,0c-5.55.6-11.09,0-16.62-.28-6.88-.36-13.78-.48-20.63-1.11-4.42-.41-8.81-.12-13.21-.26-4.11-.14-8.22-.2-12.33-.25-1.53,0-3.06.19-4.59.17-4.79-.06-9.58-.23-14.37-.27-2.87,0-5.73.14-8.6.2A25.66,25.66,0,0,1,74,43.66a100.66,100.66,0,0,0-11.77-.12c-2.58,0-5.17,0-7.75,0-4.89,0-9.78-.07-14.67-.19s-9.57.29-14.36.1c-3.73-.14-7.47.25-11.21.32a15.54,15.54,0,0,1-3.69-.42,2.18,2.18,0,0,1-1.91-2.2A2.6,2.6,0,0,0,8.44,40c-.93-1.82-.42-3.55.27-5.27a16.25,16.25,0,0,1,4.2-6.45,6.86,6.86,0,0,1,3.54-1.8c3.07-.45,6.08-.61,8.87,1.18.89.57,1.69,0,1.51-1.15a4.75,4.75,0,0,1,.78-3.27,10.61,10.61,0,0,1,8.29-5.54c2.54-.29,5,0,6.61,2.48a1.34,1.34,0,0,0,.66.51,1,1,0,0,0,.8-.08,1.27,1.27,0,0,0,.38-.71.87.87,0,0,0-.1-.55c-1.19-2.38-.61-4.73.31-7A21.12,21.12,0,0,1,49.41,5,10.88,10.88,0,0,1,60.6,2.4c1.83.54,3.31,1.53,3.73,3.59A1.18,1.18,0,0,0,65.49,7a1.36,1.36,0,0,0,1.35-.88,5.8,5.8,0,0,1,4-3A24.24,24.24,0,0,1,87.71,4.62a17.12,17.12,0,0,1,6.53,5.53c1.63,2.13,3.2,4.31,3.77,7a1.17,1.17,0,0,0,1.8.82c3.74-2.17,7.64-1.17,11.51-.62a5.81,5.81,0,0,1,1.61.59c3.59,1.7,4.63,3.55,4.28,7.55a5.84,5.84,0,0,0,0,1.13,1,1,0,0,0,1.12.67.87.87,0,0,0,.27-.08c2.77-2,5.9-1.38,8.91-1.08a16.4,16.4,0,0,1,8.21,3.23,13.81,13.81,0,0,1,2.39,2.47,3.91,3.91,0,0,1,.81,3.25C138.67,36.5,138.35,37.88,138,39.7ZM56.29,5.23A8.58,8.58,0,0,0,57.7,5c.23-.08.57-.44.52-.58a1.36,1.36,0,0,0-.63-.83,1.35,1.35,0,0,0-1.07.12c-.62.4-.3,1-.18,1.56a6.08,6.08,0,0,0-3.66-.14c-.26.1-.46.58-.51.91a.85.85,0,0,0,.43.67,3.74,3.74,0,0,0,3.61-.93C56.31,5.66,56.27,5.42,56.29,5.23ZM100.67,22l2.68-1c.88-.33,2.07-.42,2.57-1.06.72-.91,1.9-.36,2.49-1.18,0-.11,0-.23-.09-.29-1-1-2.27-.82-3.5-.75A2.32,2.32,0,0,0,102.48,19c-.14.32-.77.46-1.19.63s-1.1.32-1.62.55a.83.83,0,0,0,0,1.44,3.24,3.24,0,0,0,1.08.29,10.7,10.7,0,0,0-2,1,1.31,1.31,0,0,0-.16,1.26,1.32,1.32,0,0,0,1.14.57c1.4-.55,2.74-1.24,4.21-1.94-.31-.38-.46-.74-.66-.76C102.39,22,101.53,22,100.67,22Zm25.7,9.56c-.42-.87-1.73.08-2.18-1.17.72-.1,1.36-.16,2-.3.35-.08.93-.27.95-.46.13-1.31,1.54-1,2.13-1.7-.51-1.1-1.56-1-2.46-1.18a1.8,1.8,0,0,0-2,.89,1.52,1.52,0,0,1-1.5.64c-1,0-1.92-.07-2.87,0-1.11.09-1.41.64-1.25,2,0,.18,0,.36.07.63-.69.54-1.86.54-2.16,1.6a3.78,3.78,0,0,0,0,.6c.08.47.18.94.29,1.4.27,1.13.75,1.52,1.81,1.25,1.67-.42,3.31-.93,5-1.43.12,0,.18-.3.31-.56-.81-.79-2-.19-2.88-.58l4.67-1.4C126.33,31.77,126.34,31.62,126.38,31.53ZM77.71,4a3.6,3.6,0,0,0-3.43-.71c-.6.19-1,1-1.53,1.58-.72,0-1.47,0-2.21.12-.48.07-.93.39-.82,1a1.23,1.23,0,0,0,.61.85,5.78,5.78,0,0,0,4.42-.38A21,21,0,0,0,77.71,4ZM17.61,35.79c-1.65.26-3.43.52-5.21.82a1.31,1.31,0,0,0-.76.36,1.37,1.37,0,0,0-.4.94c.07.29.48.5.75.73a.37.37,0,0,0,.27,0c2.13-.42,4.26-.82,6.38-1.3.23-.05.44-.55.49-.87,0-.15-.34-.41-.58-.52A4.28,4.28,0,0,0,17.61,35.79Zm57.26-28A21,21,0,0,0,68,8.05a.89.89,0,0,0-.81,1,1,1,0,0,0,1,.84A14.94,14.94,0,0,0,73.85,9C74.13,8.91,74.29,8.5,74.87,7.81ZM20.2,39.51c-.85-.3-1.12-.48-1.36-.46-2.16.24-4.33.49-6.48.81-.28,0-.58.45-.72.75s.35,1,.8,1a6.45,6.45,0,0,0,1.69-.06c1.48-.34,2.94-.74,4.4-1.17A12.63,12.63,0,0,0,20.2,39.51ZM52.77,14.68c-.15-.11-.3-.31-.44-.3q-2.71.08-5.41.22a1.67,1.67,0,0,0-.8.25c-.21.14-.49.43-.47.62a2.27,2.27,0,0,0,.48,1,.7.7,0,0,0,.51.22c2.19,0,4.36-.15,6.13-1.68C52.82,14.91,52.77,14.77,52.77,14.68ZM38,20.43c-.34-.32-.54-.65-.83-.77-.64-.26-1.5-.34-1.85.22C34.6,21,33.6,20.95,32.58,21.1a2.12,2.12,0,0,0-.75.37.84.84,0,0,0,.09,1.23A3.64,3.64,0,0,0,33,23C35.09,23.12,36.41,21.74,38,20.43ZM17.89,32.63a9.76,9.76,0,0,0-5.53.3,1.16,1.16,0,0,0-.62.85.86.86,0,0,0,.9.91,8.53,8.53,0,0,0,4.93-1.24C17.69,33.38,17.71,33.13,17.89,32.63ZM52.85,18a31.86,31.86,0,0,0-5.49,0,.82.82,0,0,0-.57.55,2.11,2.11,0,0,0,.34,1,.74.74,0,0,0,.48.27A6.46,6.46,0,0,0,52.54,19C52.7,18.87,52.7,18.5,52.85,18Zm-17.43,6.4c-1.86-1.08-3.62-.79-5.37-.48-.24,0-.55.57-.54.86s.34.63.61.84a1.2,1.2,0,0,0,.81.19c1.22-.15,2.44-.32,3.64-.56C34.85,25.2,35.06,24.8,35.42,24.42ZM55,8.61a25.13,25.13,0,0,0-4.7-.26,2.6,2.6,0,0,0-1.07.32.92.92,0,0,0-.36.7.94.94,0,0,0,.37.69,1.74,1.74,0,0,0,1.06.32c1.31-.2,2.61-.48,3.89-.79C54.43,9.55,54.56,9.21,55,8.61ZM20.82,29.7l-.12-.76a17.68,17.68,0,0,0-5.16.09.42.42,0,0,0-.24.15c-.15.23-.41.5-.37.69s.36.82.55.82a31,31,0,0,0,3.9-.27A4.87,4.87,0,0,0,20.82,29.7ZM52,11.33c-1.49,0-2.61,0-3.73,0a1.8,1.8,0,0,0-1.07.29,1.88,1.88,0,0,0-.63,1.13.78.78,0,0,0,1,.79c1.38-.29,2.73-.68,4.08-1.09C51.75,12.42,51.78,12,52,11.33ZM32.23,26.44a7.63,7.63,0,0,0-1.65.2.9.9,0,0,0,0,1.68,4.82,4.82,0,0,0,3.61-.39A.68.68,0,0,0,34,26.66,14.52,14.52,0,0,0,32.23,26.44Zm90.95,10.68c-.39-.26-.68-.62-.94-.6a32.32,32.32,0,0,0-3.67.52,1.08,1.08,0,0,0-.67.76c0,.54.4.84.93.85A5.89,5.89,0,0,0,123.18,37.12ZM71.6,12.56c-1.66-.82-2.75-.95-4-.34a1.09,1.09,0,0,0-.5.89,1.07,1.07,0,0,0,.75.7,5.52,5.52,0,0,0,3.55-.75C71.53,13,71.54,12.73,71.6,12.56ZM51.95,21.5a4.16,4.16,0,0,0-3.6.54.79.79,0,0,0-.25.73c.16.29.51.68.78.67a4.31,4.31,0,0,0,2.88-1.09C51.91,22.2,51.88,21.84,51.95,21.5Zm49.27,4.23a14.29,14.29,0,0,0-2,.33,1.25,1.25,0,0,0-.63.82c-.1.4.5.86,1,.75a27.39,27.39,0,0,0,2.75-.73.74.74,0,0,0,.32-.66c-.06-.2-.38-.36-.62-.46A3,3,0,0,0,101.22,25.73ZM67.85,15.37c-.62,0-1.1.71-.83,1.16a1.67,1.67,0,0,0,2.21.55c.28-.1.66-.52.64-.75-.09-.86-.89-.79-1.5-.92A3.15,3.15,0,0,0,67.85,15.37Zm32.68,13.55c-.38.39-.87.67-.89,1,0,.54.47.73,1,.7s1-.24,1-.76C101.55,29.54,101,29.3,100.52,28.92ZM30.88,30.77a4.8,4.8,0,0,0,1.16.56,1.22,1.22,0,0,0,1.4-.7.34.34,0,0,0,0-.27c-.38-.59-1-.49-1.5-.34C31.62,30.09,31.38,30.39,30.88,30.77Zm19.44-6.11-.64.55c.17.19.33.51.53.55a.71.71,0,0,0,.56-.43C50.81,25.17,50.52,24.93,50.32,24.65Z"/><path d="M126.38,31.53c0,.09,0,.24-.1.26l-4.67,1.4c.88.39,2.07-.21,2.88.58-.14.25-.19.52-.31.56-1.64.5-3.29,1-5,1.43-1.06.27-1.55-.12-1.81-1.25-.11-.47-.21-.93-.29-1.4a3.78,3.78,0,0,1,0-.6c.3-1.06,1.48-1.06,2.16-1.6l-.07-.63c-.16-1.39.14-1.95,1.25-2,1-.07,1.92,0,2.88,0a1.52,1.52,0,0,0,1.5-.64,1.8,1.8,0,0,1,2-.89c.9.16,2,.08,2.46,1.18-.59.74-2,.4-2.13,1.7,0,.19-.6.38-.95.46-.62.14-1.26.2-2,.3C124.64,31.61,126,30.65,126.38,31.53Z"/><path d="M100.73,21.93a3.25,3.25,0,0,1-1.08-.29.83.83,0,0,1,0-1.44c.52-.23,1.09-.34,1.62-.55s1-.31,1.19-.63a2.32,2.32,0,0,1,2.34-1.34c1.23-.07,2.49-.21,3.5.75.06.06.06.18.09.29-.59.82-1.77.27-2.49,1.18-.5.64-1.69.73-2.57,1.06l-2.68,1Z"/><path d="M77.71,4a21.1,21.1,0,0,1-3,2.41,5.78,5.78,0,0,1-4.42.38,1.23,1.23,0,0,1-.61-.85c-.11-.56.34-.88.82-1,.74-.1,1.5-.09,2.21-.12.52-.57.93-1.39,1.53-1.58A3.61,3.61,0,0,1,77.71,4Z"/><path d="M17.61,35.79a4.28,4.28,0,0,1,1,.19c.24.11.6.38.58.52,0,.32-.26.82-.49.87-2.12.48-4.25.88-6.38,1.3a.37.37,0,0,1-.27,0c-.28-.23-.69-.44-.75-.73a1.37,1.37,0,0,1,.4-.94,1.31,1.31,0,0,1,.76-.36C14.18,36.31,16,36,17.61,35.79Z"/><path d="M74.87,7.81c-.58.69-.74,1.1-1,1.2a14.94,14.94,0,0,1-5.63.89,1,1,0,0,1-1-.84.89.89,0,0,1,.81-1A21,21,0,0,1,74.87,7.81Z"/><path d="M20.2,39.51a12.63,12.63,0,0,1-1.67.85c-1.46.42-2.92.83-4.4,1.17a6.45,6.45,0,0,1-1.69.06c-.45,0-1-.63-.8-1s.44-.71.72-.75c2.15-.32,4.32-.57,6.48-.81C19.08,39,19.34,39.22,20.2,39.51Z"/><path d="M52.77,14.68c0,.09,0,.23,0,.27-1.78,1.53-3.95,1.65-6.13,1.68a.7.7,0,0,1-.51-.22,2.26,2.26,0,0,1-.48-1c0-.19.26-.48.47-.62a1.66,1.66,0,0,1,.8-.25q2.7-.14,5.41-.22C52.47,14.37,52.62,14.57,52.77,14.68Z"/><path d="M38,20.43c-1.57,1.31-2.88,2.7-5,2.54a3.61,3.61,0,0,1-1.07-.27.84.84,0,0,1-.09-1.23,2.12,2.12,0,0,1,.75-.37c1-.15,2-.14,2.71-1.21.36-.56,1.22-.48,1.85-.22C37.43,19.78,37.64,20.11,38,20.43Z"/><path d="M17.89,32.63c-.18.5-.19.74-.31.82a8.53,8.53,0,0,1-4.93,1.24.86.86,0,0,1-.9-.91,1.16,1.16,0,0,1,.62-.85A9.77,9.77,0,0,1,17.89,32.63Z"/><path d="M52.85,18c-.15.48-.15.85-.32,1a6.46,6.46,0,0,1-4.92.87.74.74,0,0,1-.48-.27,2.11,2.11,0,0,1-.34-1,.82.82,0,0,1,.57-.55A31.57,31.57,0,0,1,52.85,18Z"/><path d="M35.42,24.42c-.37.38-.57.78-.85.84-1.2.25-2.42.41-3.64.56a1.2,1.2,0,0,1-.81-.19c-.27-.21-.6-.54-.61-.84s.3-.81.54-.86C31.8,23.62,33.57,23.33,35.42,24.42Z"/><path d="M100.67,22c.86,0,1.72,0,2.57.14.19,0,.34.38.66.76-1.47.69-2.81,1.39-4.21,1.94a1.32,1.32,0,0,1-1.14-.57A1.31,1.31,0,0,1,98.72,23a10.7,10.7,0,0,1,2-1Z"/><path d="M55,8.61c-.48.6-.61.93-.81,1-1.29.31-2.59.58-3.89.79a1.74,1.74,0,0,1-1.06-.32.94.94,0,0,1-.37-.69.92.92,0,0,1,.36-.7,2.59,2.59,0,0,1,1.07-.32A25,25,0,0,1,55,8.61Z"/><path d="M20.82,29.7a4.93,4.93,0,0,1-1.43.72,31,31,0,0,1-3.9.27c-.19,0-.48-.51-.55-.82s.22-.47.37-.69a.41.41,0,0,1,.24-.15,17.68,17.68,0,0,1,5.16-.09Z"/><path d="M52,11.33c-.22.67-.25,1.09-.4,1.14-1.35.41-2.7.8-4.07,1.09a.78.78,0,0,1-1-.79,1.89,1.89,0,0,1,.63-1.13,1.8,1.8,0,0,1,1.07-.29C49.39,11.3,50.51,11.33,52,11.33Z"/><path d="M32.23,26.44a14.31,14.31,0,0,1,1.76.22.68.68,0,0,1,.18,1.27,4.82,4.82,0,0,1-3.61.39.9.9,0,0,1,0-1.68A7.69,7.69,0,0,1,32.23,26.44Z"/><path d="M123.18,37.12a5.89,5.89,0,0,1-4.35,1.52c-.53,0-1-.31-.93-.85a1.08,1.08,0,0,1,.67-.76,32.58,32.58,0,0,1,3.67-.52C122.5,36.5,122.79,36.86,123.18,37.12Z"/><path d="M71.6,12.56c-.06.17-.07.43-.19.51a5.52,5.52,0,0,1-3.55.75,1.07,1.07,0,0,1-.75-.7,1.09,1.09,0,0,1,.5-.89C68.85,11.61,69.94,11.74,71.6,12.56Z"/><path d="M56.3,5.23c0,.19,0,.43-.08.56a3.74,3.74,0,0,1-3.61.93A.85.85,0,0,1,52.17,6c.05-.33.25-.81.51-.91a6.08,6.08,0,0,1,3.66.14Z"/><path d="M51.95,21.5c-.07.34,0,.7-.19.84a4.31,4.31,0,0,1-2.88,1.09c-.26,0-.62-.38-.78-.67a.79.79,0,0,1,.25-.73A4.16,4.16,0,0,1,51.95,21.5Z"/><path d="M101.22,25.73a3,3,0,0,1,.82,0c.24.11.56.26.62.46a.74.74,0,0,1-.32.66,27.14,27.14,0,0,1-2.75.73c-.5.11-1.1-.35-1-.75a1.25,1.25,0,0,1,.63-.82A14.46,14.46,0,0,1,101.22,25.73Z"/><path d="M67.85,15.37a3.17,3.17,0,0,1,.53,0c.61.14,1.4.07,1.5.92,0,.23-.36.65-.64.75A1.67,1.67,0,0,1,67,16.53C66.75,16.08,67.22,15.39,67.85,15.37Z"/><path d="M100.52,28.92c.46.38,1,.61,1.07.92.07.52-.47.73-1,.76s-1-.16-1-.7C99.66,29.59,100.14,29.32,100.52,28.92Z"/><path d="M56.34,5.27c-.12-.55-.44-1.16.18-1.56a1.35,1.35,0,0,1,1.07-.12,1.36,1.36,0,0,1,.63.83c0,.13-.3.5-.52.58a8.56,8.56,0,0,1-1.4.24Z"/><path d="M30.88,30.77c.5-.38.74-.68,1-.77.53-.15,1.12-.25,1.5.34a.33.33,0,0,1,0,.27,1.22,1.22,0,0,1-1.4.7A4.72,4.72,0,0,1,30.88,30.77Z"/><path d="M50.32,24.65c.2.28.49.52.45.67a.71.71,0,0,1-.56.43c-.2,0-.36-.35-.53-.55Z"/>
  </g>
</svg>
