<svg viewBox="0 0 86 86">
  <g class="cloud">
    <path d="M25.14,8.63c1.29-1.48,2.38-2.82,3.55-4.08A13.42,13.42,0,0,1,39.18,0a9.86,9.86,0,0,1,9.64,7.28c.24.73.35,1.5.6,2.22s.6,1.37.85,1.91c1.14.41,1.86-.17,2.66-.44a7.66,7.66,0,0,1,5.88,0,6.94,6.94,0,0,1,3,2.54,11.38,11.38,0,0,1,1.86,4.79c.35,2.76.69,5.52-.17,8.27-.05.16,0,.37.1.75a9.52,9.52,0,0,0,1.77.51c3.24.31,6.49.57,9.74.85,2.48.22,5,.43,7.45.67a11.85,11.85,0,0,1,2,.32,1.44,1.44,0,0,1,1.13,1.46,1.32,1.32,0,0,1-1.1,1.18,11.12,11.12,0,0,1-2.26.31c-4.7.06-9.39.07-14.09.11-2.87,0-5.75.07-8.62.11-6,.08-12.07.11-18.11.24s-12.08-.15-18.11-.48c-1.62-.09-3.26,0-4.89.08q-6,.24-12.06.55c-1,0-1.89.3-2.85.38a16.37,16.37,0,0,1-1.84,0c-.25-.27-.43-.39-.51-.55A16.08,16.08,0,0,1,0,25.78c.12-3.47,5-8.08,9.36-6.88a15.33,15.33,0,0,0,1.84.26,15.37,15.37,0,0,0,.05-1.79,10.7,10.7,0,0,1,3-8.13A7.84,7.84,0,0,1,23,7.5C23.79,7.84,24.53,8.3,25.14,8.63ZM65.39,30.16c-.85-.09-1.7-.15-2.54-.29-2.1-.36-2.79-1.52-1.84-3.43a13.12,13.12,0,0,0,.92-7.87,8.44,8.44,0,0,0-1.87-4.14,4.8,4.8,0,0,0-5.15-1.71,19.21,19.21,0,0,0-3.45,1.39c-.52.23-1,.58-1.51.81a1.09,1.09,0,0,1-1.41-.64,11.4,11.4,0,0,1-.33-1.38c-.37-1.68-.63-3.39-1.14-5a8.12,8.12,0,0,0-9.12-5.78,12.87,12.87,0,0,0-10,7c-.22.41-.51,1-.39,1.34.45,1.35-.59,1.92-1.26,2.66a.93.93,0,0,1-1.57-.48,9.12,9.12,0,0,1-.27-1.12,3.24,3.24,0,0,0-3-2.65,7.09,7.09,0,0,0-3.12.25c-3.78,1.09-6.15,7-4.75,10.21.65,1.5.37,2.78-.42,3.09a2.46,2.46,0,0,1-2.86-.73A3.06,3.06,0,0,0,8,20.7c-4.36,0-7.64,5.09-5.91,9.12A1.68,1.68,0,0,0,3.61,31c1.43.06,2.87.12,4.3.06,4.31-.18,8.62-.43,12.92-.62.86,0,1.73,0,2.59,0,5.17.19,10.35.46,15.52.55A220.11,220.11,0,0,0,65.39,30.16Z"/><path class="cls-1" d="M65.39,30.16A220.1,220.1,0,0,1,38.95,31c-5.17-.09-10.35-.36-15.52-.55-.86,0-1.73-.08-2.59,0-4.31.2-8.61.45-12.92.63-1.43.06-2.87,0-4.3-.06a1.68,1.68,0,0,1-1.49-1.18c-1.73-4,1.56-9.1,5.91-9.12a3.06,3.06,0,0,1,2.32,1,2.46,2.46,0,0,0,2.86.73c.79-.31,1.07-1.59.42-3.09-1.4-3.26,1-9.12,4.75-10.21a7.09,7.09,0,0,1,3.12-.25,3.24,3.24,0,0,1,3,2.65,9.16,9.16,0,0,0,.27,1.12.92.92,0,0,0,1.57.48C27,12.37,28,11.8,27.6,10.44c-.12-.37.17-.93.39-1.34a12.86,12.86,0,0,1,10-7,8.12,8.12,0,0,1,9.13,5.78c.51,1.64.77,3.35,1.14,5a11.58,11.58,0,0,0,.33,1.38,1.09,1.09,0,0,0,1.41.64c.52-.23,1-.58,1.51-.81a19.21,19.21,0,0,1,3.45-1.39,4.8,4.8,0,0,1,5.15,1.71,8.44,8.44,0,0,1,1.87,4.14A13.12,13.12,0,0,1,61,26.44c-1,1.9-.27,3.07,1.84,3.43C63.68,30,64.54,30.07,65.39,30.16ZM55.13,18.38,52.73,17a20.73,20.73,0,0,0,2.28-1c.33-.2.49-.65.78-1.06a4.12,4.12,0,0,0-4.27.1c-1,.54-.58,1.51-.93,2.27a4.09,4.09,0,0,0-1.09.31,1.37,1.37,0,0,0-.65.8c-.08.55.39.82.85,1a.72.72,0,0,0,.28,0A13.83,13.83,0,0,0,55.13,18.38ZM37.53,5.43a2.87,2.87,0,0,0-2.73-.37c-.54.12-1.36.33-1.49.7A4.42,4.42,0,0,1,31,8.12a.79.79,0,0,0-.24.73,1.37,1.37,0,0,0,.74.74,2.73,2.73,0,0,0,1.41-.07c1.17-.38,2.31-.85,3.46-1.28A4,4,0,0,1,36.45,7,12.6,12.6,0,0,1,37.53,5.43Zm-6.21,7.41a12.7,12.7,0,0,0,1.3-1.1.94.94,0,0,0,.21-.76,1,1,0,0,0-.61-.51,2.27,2.27,0,0,0-1.12,0,5.5,5.5,0,0,0-1.81.77c-.51.39-.23,1-.1,1.6,0,.23-.18.5-.25.76-.34,1.24.16,1.93,1.34,1.63a42.54,42.54,0,0,0,4.28-1.48c.08,0,.07-.33.11-.58C33.74,12.41,32.65,13.2,31.32,12.84ZM8.12,25.53c.2-1.09-.64-1.77,0-2.51.08-.08-.22-.74-.46-.85-1.23-.51-2.18-.07-2.21,1.17,0,.92-.61,1.31-1,1.95a1.15,1.15,0,0,0,.07,1,1.09,1.09,0,0,0,1,.36C6.44,26.37,7.26,25.92,8.12,25.53Zm15.31-4.69c-.43-.37-.56-.58-.71-.6a14.8,14.8,0,0,0-5.55.9c-.22.06-.44.64-.39.93a1.28,1.28,0,0,0,.66.81,1.9,1.9,0,0,0,1.11.06A14.48,14.48,0,0,0,23.42,20.84ZM19.2,17c-1,.34-2,.64-2.92,1a.81.81,0,0,0-.45,1.18c.22.32.75.43,1.15.61a.44.44,0,0,0,.28,0c1.18-.39,2.37-.76,3.54-1.18a2.42,2.42,0,0,0,.68-.52c.24-.21.09-.89-.24-.94C20.59,17.13,19.93,17.09,19.2,17Zm-.73-2.53a20.64,20.64,0,0,0-2.3.85,1,1,0,0,0-.36.94,1.11,1.11,0,0,0,.79.67,3.79,3.79,0,0,0,3.23-1.49c.1-.12-.18-.66-.41-.87S18.87,14.54,18.46,14.51ZM8,27.75c-.4-.19-.75-.51-1-.46A8.28,8.28,0,0,0,4.83,28a1,1,0,0,0-.36.94,1.11,1.11,0,0,0,.81.66A2.75,2.75,0,0,0,8,27.75Zm13.58-16c-.23-.25-.42-.61-.56-.59a21.72,21.72,0,0,0-3,.55c-.23.06-.43.58-.46.9s.53.81,1,.71A5.71,5.71,0,0,0,21.61,11.73Zm28.3,11.06c.85-.11,1.52-.62,1.37-1.07-.22-.65-.81-.7-1.36-.77s-1.34-.15-1.77.49a.87.87,0,0,0,0,.78A1.63,1.63,0,0,0,49.92,22.79ZM32.08,16.21a12.25,12.25,0,0,0-1.6.68.79.79,0,0,0-.22.72c.06.21.38.52.56.5a4.32,4.32,0,0,0,1.56-.39,1,1,0,0,0,.47-.86C32.81,16.61,32.36,16.44,32.08,16.21ZM19,25.28c.19.12.44.4.61.36A6.91,6.91,0,0,0,21.05,25c.09,0,.13-.34.09-.49a.61.61,0,0,0-.33-.39,1.57,1.57,0,0,0-1.74.51C19,24.79,19,25,19,25.28Zm31.35,0c.23-.22.61-.42.68-.7.15-.57-.31-.82-.78-.91a1.19,1.19,0,0,0-.79.1.9.9,0,0,0-.39.64.94.94,0,0,0,.38.65A2.82,2.82,0,0,0,50.32,25.3Z"/><path d="M55.13,18.38a13.86,13.86,0,0,1-5.14,1,.72.72,0,0,1-.28,0c-.46-.19-.92-.46-.85-1a1.38,1.38,0,0,1,.65-.8,4.09,4.09,0,0,1,1.09-.31c.34-.75-.08-1.73.93-2.27a4.12,4.12,0,0,1,4.27-.1c-.29.41-.46.86-.78,1.06a20.73,20.73,0,0,1-2.28,1Z"/><path d="M37.53,5.43A12.48,12.48,0,0,0,36.45,7a4,4,0,0,0-.12,1.24c-1.16.43-2.29.9-3.46,1.28a2.71,2.71,0,0,1-1.41.07,1.37,1.37,0,0,1-.74-.74A.79.79,0,0,1,31,8.12a4.42,4.42,0,0,0,2.34-2.36c.13-.37,1-.57,1.49-.7A2.88,2.88,0,0,1,37.53,5.43Z"/><path d="M31.32,12.84c1.33.36,2.42-.43,3.35.33,0,.25,0,.55-.11.58a42.44,42.44,0,0,1-4.28,1.48c-1.18.3-1.68-.4-1.34-1.63.07-.26.3-.54.25-.76-.12-.56-.41-1.21.1-1.6a5.5,5.5,0,0,1,1.81-.77,2.25,2.25,0,0,1,1.13,0,1,1,0,0,1,.61.51.94.94,0,0,1-.21.76A12.58,12.58,0,0,1,31.32,12.84Z"/><path d="M8.12,25.53c-.86.39-1.68.84-2.56,1.14a1.09,1.09,0,0,1-1-.36,1.15,1.15,0,0,1-.07-1c.35-.63.94-1,1-1.95,0-1.24,1-1.67,2.21-1.17.24.1.54.76.46.85C7.47,23.76,8.31,24.44,8.12,25.53Z"/><path d="M23.42,20.84A14.47,14.47,0,0,1,18.55,23a1.91,1.91,0,0,1-1.11-.06,1.28,1.28,0,0,1-.66-.81c0-.3.17-.87.39-.93a14.8,14.8,0,0,1,5.55-.9C22.86,20.26,23,20.47,23.42,20.84Z"/><path d="M19.2,17c.73.06,1.39.09,2,.18.32,0,.48.73.24.94a2.43,2.43,0,0,1-.68.52c-1.17.42-2.36.79-3.54,1.18a.44.44,0,0,1-.28,0c-.4-.19-.93-.3-1.15-.61a.81.81,0,0,1,.45-1.18C17.23,17.67,18.23,17.37,19.2,17Z"/><path d="M18.46,14.51c.4,0,.78,0,.94.11s.5.75.41.87A3.79,3.79,0,0,1,16.59,17a1.11,1.11,0,0,1-.79-.67,1,1,0,0,1,.36-.94A20.41,20.41,0,0,1,18.46,14.51Z"/><path d="M8,27.75a2.75,2.75,0,0,1-2.74,1.83,1.11,1.11,0,0,1-.81-.66A1,1,0,0,1,4.83,28,8.31,8.31,0,0,1,7,27.29C7.28,27.24,7.63,27.56,8,27.75Z"/><path d="M21.61,11.73a5.71,5.71,0,0,1-3,1.56c-.48.1-1.06-.27-1-.71s.23-.84.46-.9a21.75,21.75,0,0,1,3-.55C21.19,11.12,21.39,11.48,21.61,11.73Z"/><path d="M49.92,22.79a1.63,1.63,0,0,1-1.74-.58.87.87,0,0,1,0-.78c.43-.64,1.11-.58,1.77-.49s1.14.13,1.36.77C51.44,22.17,50.77,22.68,49.92,22.79Z"/><path d="M32.08,16.21c.29.22.73.4.78.65a1,1,0,0,1-.47.86,4.32,4.32,0,0,1-1.56.39c-.18,0-.5-.29-.56-.5a.79.79,0,0,1,.22-.72A12.39,12.39,0,0,1,32.08,16.21Z"/><path d="M19,25.28c0-.26,0-.48.1-.6a1.57,1.57,0,0,1,1.74-.51.61.61,0,0,1,.33.39c0,.15,0,.44-.09.49a6.89,6.89,0,0,1-1.48.59C19.4,25.68,19.15,25.39,19,25.28Z"/><path d="M50.32,25.3a2.75,2.75,0,0,1-.89-.21.94.94,0,0,1-.38-.65.9.9,0,0,1,.39-.64,1.2,1.2,0,0,1,.79-.1c.47.1.93.35.78.91C50.93,24.89,50.54,25.08,50.32,25.3Z"/>
  </g>
</svg>
