<?xml version="1.0" encoding="utf-8"?>
<!-- Generator: Adobe Illustrator 16.0.0, SVG Export Plug-In . SVG Version: 6.00 Build 0)  -->
<!DOCTYPE svg PUBLIC "-//W3C//DTD SVG 1.1//EN" "http://www.w3.org/Graphics/SVG/1.1/DTD/svg11.dtd">
<svg version="1.1" id="Layer_1" xmlns="http://www.w3.org/2000/svg" xmlns:xlink="http://www.w3.org/1999/xlink" x="0px" y="0px"
	 viewBox="0 0 808.799 276.011" enable-background="new 0 0 808.799 276.011"
	 xml:space="preserve">
<path opacity="0.8" fill="#FFFFFF" d="M808.281,163.771c-0.245-0.996-0.899-1.824-1.773-2.561c-2.915-2.457-6.42-4.201-10.622-5.256
	c0.068-0.377,0.055-0.748,0.211-1.072c1.293-2.689,1.328-5.461,0.857-8.154c-0.242-1.385-1.185-2.805-2.289-3.904
	c-1.693-1.682-3.585-3.266-5.988-4.418c-2.326-1.117-4.756-1.419-7.441-0.831c-0.572,0.125-1.15,0.229-1.811,0.36
	c-0.539-0.672-1.031-1.273-1.506-1.885c-0.811-1.043-1.867-1.843-3.357-2.28c-0.736-0.217-1.449-0.5-2.126-0.814
	c-1.108-0.512-2.282-0.816-3.601-0.672c-0.986,0.107-1.617-0.191-2.154-0.812c-2.008-2.318-4.74-3.965-7.998-5.076
	c-2.758-0.939-5.748-1.166-8.74-1.316c-1.525-0.076-3.075,0.039-4.605-0.012c-2.188-0.072-4.262,0.356-6.293,0.988
	c-3.484,1.086-6.738,2.555-9.957,4.081c-0.343,0.163-0.69,0.319-1.182,0.546c-0.301-0.395-0.586-0.719-0.811-1.07
	c-1.056-1.65-2.393-3.064-4.588-3.9c-0.59-0.223-1.115-0.742-1.383-1.232c-1.271-2.343-3.709-3.678-6.416-4.808
	c-0.405-0.169-0.83-0.31-1.236-0.478c-0.105-0.045-0.171-0.152-0.297-0.273c1.299-4.668-0.53-8.544-4.754-11.902
	c0.945-0.351,1.719-0.645,2.5-0.926c1.883-0.679,3.617-1.528,4.801-2.926c0.955-1.128,2.197-1.506,3.816-1.307
	c3.564,0.438,6.73-0.395,9.63-2.191c0.665-0.412,1.56-0.596,2.36-0.859c2.439-0.803,4.979-1.445,7.301-2.43
	c2.124-0.904,3.535-2.408,4.521-4.238c1.442-2.678,1.09-5.062-0.182-7.629c-1.143-2.305-2.661-4.127-5.533-5.149
	c-0.786-0.278-1.091-0.812-1.292-1.462c-0.536-1.732-1.267-3.396-2.679-4.812c-2.551-2.557-6.051-4.013-10.014-4.57
	c-2.859-0.402-5.869-0.01-8.512,1.399c-0.565,0.3-1.151,0.578-1.742,0.846c-1.756,0.796-3.203,1.825-4.137,3.272
	c-0.178,0.278-0.428,0.529-0.738,0.908c-0.344-0.287-0.597-0.488-0.836-0.699c-0.646-0.568-1.208-1.213-1.951-1.687
	c-0.562-0.359-0.832-0.731-0.912-1.288c-0.481-3.314-2.619-5.828-5.842-7.804c-1.081-0.663-2.123-1.34-3.5-1.683
	c-0.582-0.146-1.029-0.732-1.395-1.194c-1.525-1.936-3.695-3.202-6.5-3.734c-1.067-0.202-2.236-0.123-3.615-0.185
	c-0.102-0.473-0.281-1.012-0.324-1.564c-0.179-2.39-1.166-4.496-3.111-6.278c-1.023-0.937-1.985-1.929-3.127-2.769
	c-2.955-2.174-6.654-3.234-10.594-3.863c-2.01-0.32-4.037-0.559-6.148-0.359c-3.564,0.336-6.246,1.66-7.775,4.318
	c-0.358,0.623-0.787,1.057-1.646,1.316c-0.664,0.199-1.271,0.603-1.819,0.992c-1.772,1.258-3.397,2.617-4.614,4.257
	c-0.77,1.036-1.885,1.514-3.459,1.679c-2.778,0.291-5.527,0.854-8.549,1.343c-0.326-0.554-0.744-1.237-1.143-1.929
	c-0.73-1.275-1.361-2.596-2.193-3.826c-1.807-2.674-4.811-4.452-7.719-6.301c-4.448-2.828-9.859-3.738-15.369-4.541
	c-3.816-0.556-7.572-0.288-11.314,0.576c-1.217,0.281-2.361,0.795-3.525,1.227c-0.716,0.268-1.408,0.579-2.309,0.953
	c1.869-10.352-3.105-17.852-13.322-23.323c0.04-0.965,0.205-1.972,0.096-2.947c-0.26-2.324-1.373-4.252-4.303-5.138
	c-0.789-0.24-1.045-0.734-1.256-1.293c-1.535-4.099-9.514-9.604-16.887-9.063c-3.842,0.283-7.783,0.597-11.178,2.488
	c-0.854,0.475-1.602,0.453-2.379-0.001c-2.946-1.721-6.418-2.176-10.035-2.516c-4.322-0.408-8.363,0.404-12.439,1.473
	c-2.609,0.682-4.991,1.676-7.152,3.036c-1.498,0.942-3.219,1.737-4.425,2.87c-1.413,1.324-2.974,1.996-5.038,2.402
	c-2.332,0.459-4.254,1.626-5.613,3.309c-0.346,0.43-0.863,0.814-1.396,1.109c-4.115,2.286-6.756,5.306-7.574,9.191
	c-0.162,0.764-0.592,1.107-1.426,1.371c-1.066,0.34-2.141,0.697-3.135,1.157c-3.322,1.542-5.194,4.716-4.574,7.642
	c0.077,0.357,0.186,0.709,0.316,1.201c-0.752,0.278-1.459,0.579-2.201,0.809c-2.917,0.906-5.24,2.473-7.396,4.23
	c-0.429,0.35-0.844,0.708-1.291,1.041c-1.338,0.998-2.23,2.17-2.531,3.6c-0.098,0.47-0.322,0.927-0.455,1.395
	c-0.236,0.82-0.781,1.447-1.658,1.962c-0.764,0.446-1.457,0.979-2.113,1.526c-2.059,1.718-2.512,3.742-2.002,5.922
	c0.01,0.045,0.023,0.091,0.036,0.137c-0.163,0.448-0.433,0.879-0.853,1.295c-0.025,0.023-0.055,0.043-0.082,0.064
	c0.008,0.002,0.014,0.002,0.021,0.004c-1.405-0.181-2.9-0.164-4.479,0.051c-4.867,0.664-9.055,2.467-12.686,5.151
	c-0.627,0.464-1.068,1.1-1.539,1.683c-1.652,2.054-3.296,4.117-3.387,6.622c-0.033,0.94-0.016,1.88-0.023,2.972
	c-0.355,0.168-0.885,0.395-1.391,0.648c-2.107,1.057-3.674,2.414-3.955,4.447c-0.119,0.844-0.583,1.344-1.576,1.865
	c-4.473,2.346-7.91,5.432-10.115,9.333c-1.656,2.932-2.516,5.983-2.957,9.107c-0.217,1.537-0.215,1.581-2.125,1.776
	c-3.957,0.408-7.808,1.135-11.397,2.677c-3.126,1.341-6.107,2.884-8.704,4.812c-0.659,0.489-1.262,1.033-1.861,1.603
	c-4.608-1.68-9.472-2.512-14.744-1.998c-1.344,0.13-2.832-0.017-4.099-0.47c-5.662-2.025-11.452-3.279-17.419-4.098
	c-9.743-1.339-18.154,1.443-25.577,7.5c-1.678,1.367-3.161,1.85-5.18,1.521c-3.664-0.599-7.424-1.007-10.991,0.147
	c-2.914,0.943-5.169,0.173-7.473-1.411c-1.783-1.226-3.616-2.382-5.485-3.47c-0.977-0.568-2.042-1.094-3.134-1.34
	c-5.088-1.148-10.167-2.391-15.312-3.225c-5.399-0.875-10.878-1.72-16.346-0.752c-10.636,1.887-20.853,4.889-29.229,12.229
	c-0.571,0.504-1.176,1.015-1.851,1.344c-0.78,0.38-1.671,0.841-2.484,0.788c-4.047-0.254-7.789,1.139-11.638,1.954
	c-3.7,0.783-7.03,2.358-9.762,4.96c-2.047,1.951-4.266,2.764-7.139,2.871c-7.493,0.274-14.295,2.539-19.461,8.353
	c-1.399,1.574-3.285,1.974-5.143,2.206c-3.004,0.375-5.632,1.472-8.072,3.203c-0.93,0.658-1.929,1.307-2.994,1.674
	c-4.933,1.723-7.782,5.541-10.212,9.836c-2.582,4.564-1.818,9.344-0.904,14.113c0.137,0.707,0.629,1.422,1.133,1.969
	c1.091,1.186,2.177,2.379,3.272,3.561c-1.104,1.209-2.072,2.529-2.726,4.104c-0.401,0.967-0.85,1.912-1.38,3.105
	c-2.573,0.658-4.895,1.756-7.023,3.264c-1.843,1.305-3.706,2.586-5.517,3.934c-0.837,0.623-1.623,1.336-2.35,2.088
	c-4.578,4.779-7.351,10.555-9.223,16.82c-0.163,0.539-0.245,1.102-0.336,1.66c-0.563,3.463-0.556,3.52-4.108,3.865
	c-4.419,0.432-8.303,1.938-11.38,5.248c-0.58,0.621-1.29,0.986-2.155,0.91c-3.221-0.287-5.873,1.15-8.164,3.096
	c-1.467,1.246-2.765,1.344-4.411,0.787c-2.246-0.76-4.557-1.115-6.908-0.525c-1.22,0.305-1.956-0.225-2.657-1.146
	c-1.124-1.471-2.388-2.832-3.52-4.297c-1.982-2.566-4.772-3.9-7.747-4.631c-5.985-1.465-11.691-0.58-16.921,2.826
	c-0.474,0.309-0.909,0.699-1.421,0.92c-2.793,1.211-4.662,3.404-6.294,5.844c-0.757,1.133-1.181,2.689-2.208,3.393
	c-1.114,0.764-2.763,0.736-4.166,1.102c-3.523,0.92-6.653,2.572-8.938,5.453c-1.062,1.34-2.242,2.094-3.887,2.568
	c-3.948,1.145-6.744,3.791-7.314,7.883c-0.349,2.51-1.535,3.686-3.595,4.498c-0.449,0.176-0.911,0.334-1.351,0.535
	c-1.759,0.805-3.577,1.51-5.25,2.469c-1.64,0.941-3.349,1.539-5.168,1.982c-2.349,0.574-4.676,1.26-6.977,2.006
	c-1.796,0.582-3.397,1.576-4.5,3.141c-0.973,1.381-1.807,2.859-2.644,4.33c-0.218,0.385-0.387,0.953-0.271,1.344
	c0.671,2.303,1.41,4.588,3.996,5.537c0.35,0.129,0.604,0.514,0.934,0.734c0.325,0.219,0.693,0.549,1.034,0.539
	c2.739-0.072,5.412,0.66,8.197,0.375c2.87-0.295,5.792-0.062,8.691-0.033c0.39,0.006,0.799,0.145,1.164,0.305
	c3.203,1.414,6.598,2.09,10.019,2.691c0.471,0.084,1.17,0.041,1.366,0.328c1.166,1.705,3.076,1.975,4.776,2.619
	c1.799,0.682,3.617,1.359,5.486,1.783c1.95,0.441,3.964,0.67,5.96,0.822c2.647,0.203,5.305,0.279,7.96,0.348
	c3.224,0.084,6.468-0.088,9.67,0.211c2.621,0.246,5.145,0.072,7.694-0.416c0.789-0.154,1.601-0.217,2.405-0.27
	c5.739-0.363,11.381-1.256,16.878-3.004c2.151-0.684,4.391-1.117,6.507-1.891c2.183-0.795,4.503-1.205,6.529-2.471
	c2.115-1.324,4.309-2.535,6.522-3.688c0.827-0.432,1.805-0.758,2.727-0.789c1.923-0.066,3.855,0.066,5.781,0.172
	c2.821,0.152,5.664,0.174,8.453,0.566c7.346,1.035,14.728,1.672,22.135,1.971c4.267,0.172,8.546,0.143,12.819,0.053
	c3.621-0.076,7.245-0.293,10.857-0.588c3.768-0.307,7.567-0.484,11.172-1.893c1.115-0.436,2.346-0.701,3.542-0.775
	c2.553-0.158,4.896-1.033,7.158-2.055c2.371-1.066,4.629-1.139,6.986-0.143c0.665,0.281,1.363,0.531,2.072,0.65
	c3.964,0.674,7.854,1.74,11.931,1.809c3.055,0.051,6.104,0.471,9.155,0.711c0.402,0.031,0.808,0.008,1.21-0.033
	c5.057-0.51,10.122-0.98,15.17-1.574c1.257-0.148,2.475-0.674,3.693-1.076c2.902-0.955,5.744-2.166,8.709-2.848
	c2.697-0.619,5.238-1.539,7.81-2.506c4.027-1.514,7.86-3.424,12.369-3.762c5.195-0.395,10.33-1.646,15.216-3.701
	c2.963-1.246,5.679-3.047,8.821-3.879c0.076-0.02,0.139-0.086,0.209-0.121c2.292-1.195,4.63-2.305,6.863-3.6
	c3.218-1.861,6.814-1.793,10.319-2.188c0.454-0.051,1.158,0.266,1.405,0.637c0.41,0.617-0.202,0.975-0.71,1.271
	c-0.346,0.203-0.7,0.416-0.987,0.689c-1.866,1.764-1.96,4.438-0.125,6.205c1.226,1.182,2.708,1.971,4.385,2.426
	c3.859,1.043,7.877,0.344,11.76,1.121c0.439,0.09,0.942-0.148,1.418-0.215c0.719-0.098,1.437-0.203,2.161-0.256
	c2.412-0.172,4.832-0.277,7.242-0.486c2.079-0.18,4.173-0.346,6.222-0.729c3.167-0.594,6.311-1.334,9.449-2.08
	c2.912-0.691,5.815-1.465,8.191-3.43c1.089-0.9,2.271-1.127,3.621-0.871c2.162,0.412,4.335,0.283,6.508,0.094
	c3.123-0.271,6.261-0.426,9.363-0.844c4.396-0.594,8.796-1.234,13.132-2.146c2.262-0.475,4.459-1.432,6.564-2.424
	c2.424-1.141,4.781-2.291,7.561-2.209c2.328,0.07,4.481-0.645,6.354-1.998c1.097-0.797,2.039-1.812,3.026-2.756
	c1.21-1.158,1.216-1.455,0.445-2.898c-0.876-1.639-2.218-2.627-3.837-3.162c4.129,0.076,8.494-0.762,12.851-2.586
	c6.304-2.639,12.634,2.834,10.307,8.25c-1.31,3.047-2.276,6.135-2.642,9.104c13.656,7.969,26.842,16.705,43.738,18.104
	c1.067,0.088,2.01,0.338,2.826,0.711c1.31-0.098,2.621-0.197,3.932-0.289c0.999-0.068,2-0.092,3-0.152
	c0.391-0.023,0.787-0.066,1.17-0.146c2.607-0.543,5.209-1.107,7.819-1.637c0.374-0.074,0.817-0.072,1.175,0.014
	c2.904,0.697,5.939,0.939,8.932,1.32c3.678,0.469,7.383,0.594,11.133,0.201c2.318-0.244,4.655-0.221,6.967-0.664
	c0.887-0.17,1.857-0.072,2.78-0.029c1.229,0.055,1.241,0.078,1.751-1.012c-1.902,0.113-3.562-0.396-5.192-0.965
	c1.201,0.416,2.419,0.799,3.74,0.926c0.472-0.221,0.958-0.42,1.462-0.584c0.103,0.031,0.206,0.064,0.309,0.092
	c-0.094,0.17-0.184,0.338-0.273,0.502c0.832-0.162,1.668-0.307,2.49-0.498c0.709-0.166,1.404-0.377,2.095-0.59
	c0.495-0.154,1.094-0.254,1.44-0.535c1.674-1.355,3.721-2.143,5.916-2.721c0.503-0.133,1.055-0.223,1.572-0.209
	c2.129,0.057,4.25,0.23,6.382,0.223c1.661-0.006,3.335-0.176,4.997-0.34c2.184-0.217,4.363-0.486,6.539-0.768
	c0.448-0.057,0.863-0.299,1.311-0.402c0.774-0.178,1.566-0.42,2.344-0.439c0.98-0.023,1.955,0.277,2.857-0.381
	c0.162-0.117,0.646-0.029,0.94,0.051c1.598,0.436,3.272,0.438,4.942,0.324c2.195-0.146,4.395-0.141,6.583-0.609
	c1.065-0.23,2.259-0.104,3.378-0.039c0.953,0.055,1.785-0.062,2.715-0.355c1.626-0.51,3.391-0.711,5.038-1.182
	c2.479-0.709,4.909-1.535,7.356-2.32c0.376-0.121,0.715-0.334,1.098-0.426c3.139-0.768,4.042-3.639,3.274-5.416
	c-1.06-2.463-3.142-4.041-6.138-4.865c-1.728-0.477-3.566-0.77-5.394-0.982c-0.937-0.107-1.985,0.061-2.942,0.25
	c-1.186,0.23-2.225,0.277-3.148-0.424c-0.367-0.279-0.853-0.588-1.332-0.629c-2.453-0.201-3.283-1.682-4.086-3.156
	c-1.23-2.254-3.127-4.041-5.611-5.475c-5.13-2.959-10.893-3.971-17.309-2.994c-1.386,0.211-2.774,0.434-4.131,0.744
	c-1.84,0.422-3.113,1.498-4.318,2.621c-0.305,0.283-0.637,0.547-0.836,0.717c-2.617-0.51-5.092-0.99-7.561-1.473
	c-1.131-2.721-1.602-2.973-5.012-4.107c-3.743-1.246-7.37-1.004-10.939,0.467c-0.229-0.029-0.387-0.012-0.482-0.066
	c-2.434-1.418-2.312-1.25-1.388-3.637c0.251-0.65,0.783-1.246,1.196-1.865c1.586-2.365,2.279-4.846,1.452-7.383
	c-0.771-2.365-1.302-4.816-2.884-6.951c-0.49-0.664-0.984-1.322-1.57-2.107c0.496-0.082,0.91-0.195,1.326-0.211
	c2.338-0.094,4.643-0.436,6.943-0.812c2.436-0.398,4.877-0.791,7.307-1.227c1.637-0.293,3.25-0.814,4.893-0.941
	c2.059-0.16,3.842-0.914,5.751-1.396c0.54-0.137,1.169-0.113,1.739-0.064c1.711,0.143,3.415,0.316,5.117,0.512
	c1.369,0.158,2.727,0.361,4.211,0.561c0.2-0.314,0.371-0.953,0.623-0.975c0.49-0.045,1.01-0.092,1.607-0.145
	c0,0,0.105,0.371,0.027,0.469c-1.081,1.344-1.693,2.801-1.836,4.42c-1.812,0.477-3.031,1.408-3.682,2.812
	c-0.906,1.959-0.34,3.652,1.215,5.133c1.395,1.328,3.451,1.785,5.443,2.354c6.672,1.906,13.469,1.287,20.316,0.037
	c1.352-0.246,2.777-0.189,4.047-0.834c0.287-0.145,0.896,0.016,1.291,0.148c0.599,0.205,1.203,0.453,1.689,0.785
	c1.784,1.225,3.879,1.902,6.227,2.18c0.117,0.014,0.217,0.104,0.401,0.195c-0.074,0.176-0.108,0.395-0.247,0.559
	c-2.002,2.391-1.988,4.93-1.34,7.518c0.037,0.154,0.123,0.301,0.148,0.455c0.721,4.605,5.043,6.209,9.889,7.373
	c2.951-0.029,5.275,1.02,7.52,2.338c0.955,0.562,2.257,0.77,3.416,1.111c0.615,0.18,1.277,0.266,1.889,0.451
	c3.258,0.99,6.652,1.303,10.189,1.004c1.727-0.146,3.46-0.234,5.371-0.359c0.264-0.596,0.838-1.154,1.871-1.26
	c0.852-0.086,1.705-0.154,2.635-0.238c0.045-0.236,0.065-0.438,0.123-0.635c0.285-0.982,1.098-1.465,2.293-1.293
	c0.977,0.139,1.943,0.328,2.893,0.547c3.439,0.797,6.908,1.291,10.598,0.848c1.299-0.154,2.646,0.029,3.969,0.094
	c0.668,0.031,1.439,0.203,1.858-0.328c0.782-0.996,1.919-1.113,3.156-1.076c0.709,0.021,1.243-0.023,1.652-0.65
	c0.239-0.367,0.87-0.674,1.401-0.83c4.203-1.244,7.453-3.506,10.371-6.135c0.404-0.365,0.762-0.764,1.151-1.139
	c0.46-0.445,1.044-0.684,1.767-0.668c2.799,0.055,5.43-0.545,8.006-1.467c1.359-0.486,2.805-1.158,4.18-1.162
	c1.356-0.004,2.666,0.746,4.012,1.137c4.496,1.305,9.102,2.146,14.045,1.547c2.852-0.346,5.71-0.648,8.561-1.01
	c0.578-0.074,1.132-0.322,1.697-0.486c3.695-1.082,7.101-2.686,10.654-4.004c5.461-2.023,9.846-4.895,13.189-8.836
	c1.132-1.334,1.955-1.633,3.895-1.314c0.517,0.086,1.018,0.225,1.529,0.33c1.164,0.238,2.329,0.516,3.371-0.369
	c0.125-0.105,0.367-0.131,0.56-0.178c2.06-0.498,4.128-0.973,6.179-1.498c0.494-0.127,0.969-0.369,1.391-0.627
	c1.617-0.986,3.15-2.027,4.496-3.281c0.947-0.883,2.16-1.58,2.893-2.635c0.389-0.559,0.909-1.02,0.99-1.717
	c0.096-0.838,0.838-1.332,1.923-1.391c1.06-0.057,2.122-0.068,3.183-0.098c0.947-0.025,1.842,0.027,2.107-1.057
	c0.098-0.396,0.869-0.807,1.438-1.037c1.581-0.643,2.421-1.74,2.95-2.949c0.262-0.594,0.652-0.873,1.271-1.123
	c5.512-2.223,9.828-5.572,13.742-9.293c0.518-0.494,0.889-1.084,1.314-1.635c0.177-0.23,0.244-0.586,0.488-0.695
	c1.33-0.596,1.402-1.639,1.887-2.604C809.185,168.511,808.866,166.152,808.281,163.771z M416.929,223.359
	c-0.012-0.018-0.027-0.033-0.041-0.051c0.086,0.027,0.174,0.051,0.261,0.078C417.075,223.376,417.003,223.369,416.929,223.359z
	 M533.597,254.304c0.396,0.137,0.745,0.279,1.143,0.418c-0.397-0.139-0.723-0.281-1.118-0.418c-1.673-0.58-3.292-1.283-5.292-2.09
	c0-0.002,0-0.002,0-0.002C530.329,253.021,531.925,253.724,533.597,254.304z"/>
</svg>
