<?xml version="1.0" encoding="utf-8"?>
<!-- Generator: Adobe Illustrator 16.0.0, SVG Export Plug-In . SVG Version: 6.00 Build 0)  -->
<!DOCTYPE svg PUBLIC "-//W3C//DTD SVG 1.1//EN" "http://www.w3.org/Graphics/SVG/1.1/DTD/svg11.dtd">
<svg version="1.1" id="Layer_1" xmlns="http://www.w3.org/2000/svg" xmlns:xlink="http://www.w3.org/1999/xlink" x="0px" y="0px"
	 viewBox="0 0 1098.292 247.372" enable-background="new 0 0 1098.292 247.372"
	 xml:space="preserve">
<path fill="#72CBD0" d="M1079.711,174.852c2.28-9.311-0.644-14.717-5.14-17.848c-6.302-12.176-25.064-21.01-47.233-21.01
	c-0.894,0-1.78,0.017-2.662,0.045c-1.778-0.244-3.556-0.34-5.303-0.307c5.327-2.725,8.438-6.004,8.438-9.531
	c0-5.339-7.119-10.106-18.27-13.245c24.516-3.115,11.476-13.383,6.898-16.458c-0.829-0.557-1.379-0.878-1.379-0.878
	c-6.15-11.731-33.351-3.769-33.351-3.769c5.5-11.5-11.442-15.752-11.442-15.752c-17.058-25.248-65.058-13.248-65.058-13.248
	c-16-36.5-53.5-16.5-53.5-16.5c-11.5-34.5-48.5-35.5-48.5-35.5S777.759-7.301,725.058,3.35s-80.847,63.002-80.847,63.002
	c-22-12.5-39.343-4.429-55.316,3.178s-32.184,27.322-32.184,27.322c-5.5-6-14.979-17.433-36.278-18.955s-37.722,6.455-37.722,6.455
	c-13.5-27.5-47.5-15.5-47.5-15.5c-8.498-16-27.498-30-56.498-32.5s-90.29,11.878-92.002,25.5
	c-69.032-6.775-93.084,37.385-93.084,37.385c-29.916-15.385-42.902,3.324-43.37,3.255c-5.819-0.857-22.546-18.641-47.678-12.09
	c-7.376,1.922-16.428,7.564-26.098,16.226c-13.446,12.045-31.15,19.527-31.15,19.527l-9.121,5.196l-20.5,5
	c-32.5,8-4.5,14.5-4.5,14.5c23,10,49.5,2,49.5,2c11.5,5,29.5,1,29.5,1c15.5,13,40.5,10,40.5,10c-19,7.5-0.5,12.5-0.5,12.5
	c12,17.5,20,12,20,12c23,14,53.5,9,53.5,9c14.5,15,25,11,25,11c-1,7.5,9,6.5,9,6.5c19,20.5,49,19,49,19
	c21.248,14.824,45.803,16.363,45.504,5.388c0.819,0.201,1.649,0.405,2.496,0.612c7.289,1.786,75,16,102.5-0.02
	c41,16.02,99.5-2.98,99.5-2.98c18.5,3.5,40.5-3,40.5-3c42,8,44-12,44-12c17,7.5,62.41-9.879,62.41-9.879s-0.011-0.062-0.028-0.168
	c0.154,0.232,0.342,0.459,0.577,0.678c6.568,6.092,44.041,7.369,44.041,7.369c37.5,8,120.5-17,120.5-17c20,21,39.5,7,39.5,7
	c5,4,17,3.5,17,3.5s-34-6,3,0.5s105-6.5,105-6.5c26.5,12,31.5-4.5,31.5-4.5c19,0.5,22.81-2.146,26.5-8
	C1126.711,191.852,1079.711,174.852,1079.711,174.852z"/>
</svg>
