<?xml version="1.0" encoding="utf-8"?>
<!-- Generator: Adobe Illustrator 16.0.0, SVG Export Plug-In . SVG Version: 6.00 Build 0)  -->
<!DOCTYPE svg PUBLIC "-//W3C//DTD SVG 1.1//EN" "http://www.w3.org/Graphics/SVG/1.1/DTD/svg11.dtd">
<svg version="1.1" id="Layer_1" xmlns="http://www.w3.org/2000/svg" xmlns:xlink="http://www.w3.org/1999/xlink" x="0px" y="0px"
	 viewBox="0 0 358.037 142.465" enable-background="new 0 0 358.037 142.465"
	 xml:space="preserve">
<path opacity="0.5" fill="#EBB7C3" d="M234.048,1.501c-1.449,0.332-3.094,0.402-4.539,0.125c-6.463-1.239-12.957-1.668-19.586-1.623
	c-10.822,0.069-19.615,4.169-26.875,11.482c-1.643,1.65-3.193,2.365-5.442,2.326c-4.083-0.071-8.245,0.066-11.978,1.779
	c-3.05,1.4-5.619,0.943-8.353-0.34c-2.116-0.994-4.279-1.908-6.472-2.747c-1.146-0.438-2.381-0.819-3.608-0.91
	c-5.714-0.424-11.431-0.946-17.164-1.04c-6.016-0.098-12.114-0.152-17.947,1.65c-11.348,3.51-22.082,8.104-30.202,16.875
	c-0.554,0.601-1.145,1.215-1.835,1.652c-0.797,0.504-1.707,1.109-2.601,1.176c-4.453,0.34-8.344,2.322-12.432,3.729
	c-3.93,1.352-7.345,3.461-9.966,6.534c-1.963,2.305-4.272,3.467-7.394,4.003c-8.14,1.391-15.25,4.723-20.079,11.45
	c-1.31,1.823-3.312,2.512-5.309,3.024c-3.226,0.83-5.941,2.346-8.364,4.481c-0.925,0.813-1.924,1.626-3.035,2.161
	c-5.146,2.496-7.724,6.837-9.78,11.603c-2.183,5.064-0.683,9.854,0.978,14.611c0.249,0.705,0.885,1.365,1.512,1.852
	c3.209,2.492,6.374,5.059,9.765,7.318c1.78,1.186,3.92,2.012,6.029,2.621c4.533,1.316,9.121,2.463,13.727,3.547
	c7.141,1.678,14.353,2.084,21.617,0.322c1.362-0.332,2.682-0.852,4.053-1.102c0.926-0.172,2.089-0.336,2.836,0.037
	c2.545,1.281,5.081,2.645,7.393,4.264c3.344,2.342,6.359,5.107,9.764,7.357c2.353,1.553,5.066,2.678,7.737,3.738
	c1.905,0.758,4.116,0.863,5.992,1.662c4.081,1.742,8.105,1.65,12.236,0.139c2.232-0.816,4.376-1.365,5.54,1.479
	c0.208,0.502,1.005,0.828,1.59,1.137c1.93,1.02,3.886,2,5.842,2.98c0.602,0.305,1.201,0.676,1.859,0.816
	c8.556,1.877,17.201,3.352,25.962,4.137c4.748,0.422,9.46,0.27,14.06-1.592c4.045-1.641,7.278-0.529,10.022,2.979
	c2.251-0.582,4.508-0.723,6.654,0.736c0.816,0.555,2.136,0.434,3.212,0.686c1.468,0.344,3.015,0.572,4.355,1.178
	c2.064,0.934,3.992,1.703,6.393,0.902c1.504-0.502,3.086-0.23,4.259,0.939c1.175,1.172,2.407,0.92,3.825,0.344
	c1.926-0.777,3.902-1.461,5.904-2.039c4.17-1.201,8.41-2.154,12.217-4.34c1.828-1.049,3.877-1.299,6.063-1.303
	c3.62-0.008,7.257-0.346,10.868-0.707c2.758-0.275,5.502-0.764,8.234-1.252c0.803-0.145,1.703-0.441,2.291-0.945
	c2.965-2.557,6.621-3.895,10.045-5.697c5.514-2.895,10.707-6.545,14.57-11.406c1.956-2.469,4.295-3.566,7.393-4.002
	c3.736-0.521,7.582-0.99,11.078-2.256c5.879-2.121,11.661-4.592,17.225-7.387c7.053-3.541,13.385-8.158,17.092-15.016
	c2.051-3.797,5.197-5.725,9.035-7.234c2.727-1.074,5.457-2.17,8.09-3.436c4.65-2.238,9.15-4.716,13.223-7.846
	c2.887-2.22,5.303-4.729,6.408-8.444c-2.15-1.701-4.322-1.963-6.607-1.713c-1.812,0.198-3.627,0.447-5.408,0.814
	c-1.953,0.406-3.467,0.064-4.908-1.334c-2.771-2.691-6.301-4.154-10.123-5.24c-4.184-1.191-8.361-2.039-12.766-1.9
	c-2.48,0.076-4.564-0.455-6.02-2.711c-0.727-1.121-2.242-1.926-3.582-2.514c-2.135-0.932-3.025-2.373-3.422-4.526
	c-0.421-2.294-1.023-4.692-2.225-6.678c-1.848-3.058-4.1-5.933-6.48-8.651c-5.693-6.502-12.568-11.092-22.098-11.018
	c-0.793,0.008-1.762-0.186-2.341-0.635c-2.104-1.633-4.06-3.439-6.11-5.139c-0.828-0.689-1.677-1.437-2.664-1.867
	C254.017,1.522,244.464-0.896,234.048,1.501z"/>
</svg>
