<?xml version="1.0" encoding="utf-8"?>
<!-- Generator: Adobe Illustrator 16.0.0, SVG Export Plug-In . SVG Version: 6.00 Build 0)  -->
<!DOCTYPE svg PUBLIC "-//W3C//DTD SVG 1.1//EN" "http://www.w3.org/Graphics/SVG/1.1/DTD/svg11.dtd">
<svg version="1.1" id="Layer_1" xmlns="http://www.w3.org/2000/svg" xmlns:xlink="http://www.w3.org/1999/xlink" x="0px" y="0px"
	 width="1074.365px" height="305.295px" viewBox="0 0 1074.365 305.295" enable-background="new 0 0 1074.365 305.295"
	 xml:space="preserve">
<path fill="#D3BECB" d="M1074.117,239.695c-0.189-1.114-1.037-2.099-2.234-3.01c-3.995-3.049-9.023-5.399-15.242-7.093
	c0.174-0.399,0.222-0.805,0.52-1.135c2.467-2.75,3.032-5.752,2.809-8.734c-0.115-1.536-1.291-3.199-2.773-4.535
	c-2.277-2.049-4.871-4.014-8.325-5.578c-3.347-1.516-6.998-2.162-11.204-1.875c-0.896,0.062-1.799,0.1-2.83,0.154
	c-0.697-0.801-1.338-1.517-1.95-2.242c-1.044-1.238-2.511-2.244-4.702-2.914c-1.086-0.332-2.12-0.732-3.096-1.16
	c-1.597-0.701-3.332-1.186-5.372-1.201c-1.524-0.014-2.433-0.419-3.138-1.162c-2.636-2.778-6.504-4.923-11.27-6.555
	c-4.035-1.38-8.559-2.017-13.098-2.571c-2.312-0.282-4.698-0.36-7.025-0.616c-3.323-0.365-6.568-0.17-9.784,0.249
	c-5.517,0.723-10.753,1.89-15.946,3.125c-0.553,0.132-1.111,0.257-1.903,0.438c-0.386-0.468-0.762-0.856-1.039-1.268
	c-1.308-1.93-3.087-3.637-6.283-4.832c-0.86-0.319-1.567-0.951-1.884-1.518c-1.51-2.709-4.982-4.477-8.906-6.056
	c-0.588-0.237-1.211-0.444-1.8-0.681c-0.153-0.062-0.231-0.187-0.403-0.334c2.842-4.896,0.765-9.34-5.062-13.535
	c1.507-0.258,2.742-0.475,3.985-0.678c2.999-0.49,5.802-1.185,7.864-2.547c1.665-1.098,3.631-1.346,6.064-0.918
	c5.357,0.942,10.342,0.453,15.099-1.117c1.091-0.359,2.489-0.442,3.759-0.623c3.871-0.553,7.865-0.916,11.59-1.682
	c3.407-0.702,5.838-2.15,7.679-4.006c2.694-2.717,2.596-5.35,1.128-8.301c-1.319-2.649-3.301-4.825-7.497-6.31
	c-1.149-0.405-1.515-1.024-1.702-1.754c-0.498-1.95-1.307-3.852-3.203-5.573c-3.422-3.107-8.494-5.144-14.438-6.267
	c-4.29-0.812-8.954-0.779-13.247,0.404c-0.918,0.252-1.863,0.477-2.814,0.689c-2.826,0.633-5.225,1.561-6.914,3.009
	c-0.322,0.279-0.752,0.518-1.294,0.889c-0.473-0.356-0.821-0.607-1.147-0.868c-0.88-0.701-1.62-1.475-2.668-2.085
	c-0.791-0.463-1.133-0.902-1.154-1.517c-0.124-3.658-2.924-6.665-7.479-9.23c-1.527-0.861-2.994-1.731-5.031-2.284
	c-0.86-0.234-1.437-0.93-1.908-1.478c-1.973-2.299-5.049-3.957-9.232-4.902c-1.591-0.359-3.389-0.426-5.482-0.673
	c-0.067-0.526-0.244-1.135-0.206-1.74c0.166-2.616-0.954-5.031-3.595-7.218c-1.389-1.15-2.674-2.353-4.262-3.412
	c-4.109-2.746-9.56-4.38-15.453-5.578c-3.01-0.61-6.061-1.134-9.318-1.194c-5.5-0.103-9.838,0.983-12.66,3.667
	c-0.66,0.629-1.396,1.043-2.754,1.213c-1.051,0.13-2.051,0.487-2.959,0.838c-2.936,1.133-5.666,2.395-7.826,4.015
	c-1.364,1.023-3.152,1.396-5.586,1.369c-4.293-0.048-8.592,0.202-13.292,0.338c-0.397-0.643-0.909-1.44-1.389-2.242
	c-0.882-1.479-1.601-2.995-2.644-4.438c-2.264-3.138-6.523-5.459-10.619-7.845c-6.268-3.651-14.359-5.346-22.618-6.938
	c-5.723-1.103-11.503-1.304-17.373-0.855c-1.907,0.145-3.748,0.553-5.604,0.869c-1.142,0.196-2.255,0.443-3.698,0.731
	c4.757-10.986-1.454-19.773-16.038-27.046c0.238-1.041,0.676-2.111,0.688-3.185c0.03-2.555-1.312-4.793-5.622-6.137
	c-1.16-0.363-1.459-0.934-1.677-1.566c-1.59-4.648-12.751-11.664-24.102-12.043c-5.915-0.195-11.987-0.371-17.517,1.237
	c-1.389,0.403-2.525,0.282-3.628-0.312c-4.181-2.253-9.394-3.2-14.851-4.042c-6.523-1.008-12.838-0.655-19.254-0.03
	c-4.109,0.399-7.926,1.165-11.476,2.358c-2.458,0.827-5.231,1.464-7.279,2.535c-2.401,1.252-4.905,1.777-8.13,1.947
	c-3.645,0.193-6.792,1.208-9.174,2.856c-0.607,0.42-1.47,0.77-2.338,1.021c-6.7,1.941-11.285,4.873-13.249,8.981
	c-0.39,0.807-1.107,1.123-2.429,1.301c-1.689,0.229-3.393,0.477-4.995,0.845c-4.06,0.938-7.015,3.005-8.03,5.369
	c-1.584-1.032-3.768-1.806-6.568-2.288c-1.291-0.223-2.748-0.271-4.445-0.429c-0.057-0.314-0.203-0.679-0.174-1.04
	c0.121-1.561-0.799-3.008-2.947-4.327c-1.131-0.694-2.178-1.418-3.469-2.058c-3.342-1.66-7.764-2.662-12.543-3.406
	c-2.441-0.379-4.914-0.707-7.554-0.758c-4.455-0.088-7.964,0.539-10.235,2.128c-0.532,0.373-1.127,0.616-2.225,0.711
	c-0.852,0.072-1.659,0.281-2.393,0.486c-2.373,0.662-4.578,1.402-6.32,2.359c-1.1,0.604-2.546,0.818-4.518,0.79
	c-3.478-0.049-6.958,0.079-10.764,0.137c-0.325-0.386-0.744-0.864-1.135-1.345c-0.722-0.887-1.312-1.796-2.163-2.663
	c-1.849-1.885-5.311-3.292-8.64-4.736c-5.094-2.211-11.656-3.262-18.353-4.252c-4.641-0.687-9.323-0.835-14.076-0.596
	c-1.544,0.078-3.032,0.312-4.535,0.492c-0.923,0.111-1.824,0.254-2.992,0.418c3.799-6.536-1.274-11.813-13.122-16.227
	c0.188-0.62,0.537-1.257,0.542-1.898c0.012-1.525-1.086-2.868-4.583-3.692c-0.942-0.222-1.186-0.564-1.366-0.943
	c-1.311-2.783-10.384-7.026-19.58-7.308c-4.792-0.146-9.711-0.28-14.182,0.653c-1.123,0.234-2.044,0.156-2.939-0.204
	c-3.397-1.365-7.624-1.957-12.048-2.486c-5.289-0.634-10.401-0.454-15.595-0.112c-3.327,0.218-6.414,0.657-9.283,1.352
	c-1.987,0.482-4.23,0.849-5.883,1.478c-1.938,0.736-3.964,1.037-6.575,1.123c-2.951,0.097-5.495,0.688-7.417,1.66
	c-0.489,0.248-1.187,0.453-1.888,0.598c-5.417,1.126-9.117,2.854-10.688,5.297c-0.311,0.48-0.891,0.665-1.96,0.765
	c-1.367,0.128-2.746,0.268-4.042,0.48c-4.33,0.713-7.101,2.606-6.754,4.552c0.043,0.237,0.126,0.474,0.217,0.804
	c-0.969,0.116-1.887,0.25-2.838,0.335c-3.736,0.337-6.835,1.15-9.754,2.103c-0.58,0.19-1.145,0.386-1.746,0.563
	c-1.798,0.531-3.07,1.212-3.647,2.111c-0.189,0.296-0.532,0.572-0.764,0.864c-0.409,0.51-1.175,0.869-2.333,1.127
	c-1.007,0.223-1.943,0.509-2.832,0.807c-2.794,0.935-3.644,2.205-3.328,3.659c0.007,0.03,0.017,0.061,0.026,0.092
	c-0.267,0.276-0.662,0.531-1.24,0.765c-0.035,0.013-0.074,0.023-0.11,0.035c0.008,0.001,0.017,0.002,0.026,0.004
	c-1.713-0.237-3.564-0.354-5.546-0.35c-6.114,0.013-11.55,0.821-16.427,2.247c-0.843,0.247-1.479,0.62-2.145,0.957
	c-2.339,1.187-4.669,2.381-5.14,3.994c-0.177,0.605-0.29,1.215-0.456,1.92c-0.465,0.078-1.151,0.18-1.812,0.3
	c-2.76,0.503-4.893,1.247-5.532,2.539c-0.268,0.536-0.915,0.819-2.216,1.071c-5.868,1.135-10.564,2.836-13.852,5.172
	c-2.47,1.754-3.97,3.655-4.965,5.638c-0.489,0.976-0.494,1.004-2.883,0.968c-4.953-0.075-9.819,0.065-14.479,0.756
	c-4.059,0.6-7.967,1.342-11.455,2.367c-2.113,0.621-3.88,1.439-6.098,2.281c-0.372-0.065-1.14-0.177-1.86-0.328
	c-2.994-0.627-6.07-0.804-9.228-0.39c-0.984,0.13-1.694,0.039-2.508-0.233c-1.907-0.637-3.944-1.187-6.258-1.561
	c-5.047-0.816-9.853-0.644-14.394,0.396c-1.758,0.403-3.465,0.678-5.526,0.771c-2.015,0.091-4.008,0.415-5.872,0.759
	c-2.244,0.416-3.2,1.337-4.08,2.218c-0.837,0.835-0.841,1.744-0.435,2.639c0.42,0.932,2.104,1.478,3.913,1.959
	c0.352,0.093,0.75,0.16,1.14,0.223c1.392,0.222,2.994,0.327,4.12,0.688c1.058,0.34,1.616,0.949,2.51,1.513
	c-0.348,0.154-0.744,0.358-1.217,0.528c-0.739,0.268-1.563,0.497-2.29,0.769c-1.7,0.639-2.791,1.398-2.809,2.406
	c-0.012,0.769-0.119,0.774-1.85,0.987c-0.317,0.039-0.636,0.077-0.961,0.104c-5.129,0.419-8.552,1.739-10.612,3.617
	c-1.317,1.198-2.164,2.499-2.969,3.783c-0.563,0.903-0.205,1.845,0.475,2.757c0.243,0.323,0.421,0.654,0.705,1.097
	c-1.134,0.107-2.103,0.155-2.988,0.29c-2.818,0.431-5.131,0.018-7.73-0.549c-7.191-1.57-14.332-1.457-21.141,0.262
	c-0.352,0.088-0.707,0.175-1.072,0.253c-0.138,0.031-0.312,0.035-0.635,0.067c-0.284-0.116-0.663-0.248-0.974-0.401
	c-3.144-1.554-7.071-2.587-11.793-3.062c-1.042-0.104-1.553-0.315-1.941-0.707c-1.946-1.962-5.604-3.31-9.9-4.333
	c-2.91-0.694-6.085-1.175-9.385-1.506c-3.456-0.348-6.759-0.255-10.123,0.07c-4.842,0.467-9.086,1.411-13.138,2.526
	c-0.475,0.13-0.917,0.292-1.285,0.47c-2.081,1.018-3.771,2.137-4.852,3.405c-0.228,0.271-0.606,0.557-0.019,0.908
	c0.956-0.154,1.023-0.517,1.352-0.808c0.077-0.068,0.15-0.138,0.228-0.207c-0.162,0.381-0.204,0.768-0.229,1.167
	c-0.018,0.306-0.381,0.512-0.872,0.624c0.126-0.091,0.246-0.185,0.374-0.275c-0.426-0.055-0.92-0.196-1.267-0.154
	c-4.187,0.521-7.935,1.362-10.802,2.728c-0.823,0.391-1.25,0.942-1.687,1.447c-0.654,0.75-0.588,0.777-2.599,0.812
	c-5.076,0.089-8.864,1.18-12.248,2.569c-0.556,0.229-0.955,0.558-1.216,0.872c-0.367,0.438-1.051,0.569-2.091,0.519
	c-0.666-0.031-1.333-0.042-1.998-0.073c-8.022-0.375-15.02,1.531-17.875,4.492c-1.147,1.189-0.435,1.979,2.503,2.523
	c4.298,0.798,8.626,1.566,13.292,1.897c1.571,0.111,2.806,0.346,3.066,1.144c0.156,0.48,1.407,0.652,2.413,0.838
	c1.297,0.238,2.592,0.479,3.997,0.74c0.677-0.022,1.538-0.103,2.377-0.069c4.155,0.161,8.306,0.364,12.461,0.526
	c2.978,0.118,5.961,0.225,8.944,0.276c1.74,0.03,3.482-0.075,5.229-0.087c2.907-0.017,5.845,0.08,8.722-0.032
	c2.869-0.113,5.713-0.374,8.503-0.662c2.201-0.228,4.192-0.307,6.175,0.333c0.489,0.158,1.384,0.126,2.093,0.133
	c0.906,0.01,1.851-0.112,2.705-0.031c1.495,0.144,2.894,0.508,4.46,0.113c0.289-0.074,1.034,0.031,1.398,0.147
	c1.21,0.38,2.397,0.417,3.692,0.151c0.278-0.057,0.627-0.057,0.904-0.079c0.488-0.962,1.173-1.104,3.195-0.645
	c0.956,0.218,1.839,0.496,2.737,0.755c5.888,1.707,12.292,2.928,19.273,3.542c2.359,0.207,4.813,0.203,7.224,0.305
	c1.568,0.065,3.132,0.156,4.699,0.217c0.479,0.019,0.979-0.009,1.451-0.047c0.647-0.052,1.265-0.161,1.914-0.192
	c3.15-0.154,3.994,0.122,4.618,1.407c0.275,0.569,0.695,1.129,1.037,1.679c-1.368,0.265-2.6,0.519-3.86,0.745
	c-2.345,0.423-4.116,1.087-5.361,2.012c-0.391,0.29-1.151,0.495-1.534,0.787c-0.255,0.195-0.488,0.396-0.724,0.596
	c2.005,1.457,4.131,2.796,7.088,3.964c3.582,1.415,8.036,0.885,12.31,0.803c4.058-0.078,8.68,1.206,9.708,3.064
	c1.005,1.817,1.594,3.802,3.371,5.528c1.115,0.423,2.27,0.814,3.474,1.159c1.765-3.256,11.838-4.621,16.406-2.161
	c1.372-0.157,2.88-0.213,4.498-0.139c2.57,0.12,5.073,0.329,7.516,0.608c2.013-0.86,3.829-1.809,5.439-2.751
	c4.616-2.7,13.884-1.057,16.255,1.732c6.451,7.593,22.109,10.65,38.815,8.266c8.176-1.168,15.217,2.914,11.56,6.218
	c-2.057,1.859-3.698,3.773-4.574,5.663c5.885,2.364,11.675,4.792,17.698,7.028c-1.757,0.079-3.508,0.248-5.273,0.494
	c-5.983,0.831-11.232,2.455-16.247,4.363c-0.587,0.223-1.136,0.498-1.592,0.801c-2.579,1.726-4.678,3.617-6.024,5.752
	c-0.284,0.457-0.754,0.939-0.032,1.521c1.183-0.269,1.269-0.876,1.677-1.367c0.097-0.115,0.188-0.232,0.283-0.348
	c-0.204,0.639-0.26,1.288-0.293,1.957c-0.025,0.514-0.476,0.861-1.083,1.055c0.156-0.154,0.306-0.312,0.464-0.465
	c-0.525-0.088-1.134-0.318-1.562-0.244c-5.174,0.913-9.811,2.36-13.365,4.678c-1.02,0.662-1.553,1.59-2.098,2.441
	c-0.814,1.264-0.734,1.308-3.217,1.387c-6.268,0.201-10.957,2.066-15.148,4.428c-0.689,0.391-1.185,0.943-1.51,1.472
	c-0.458,0.739-1.304,0.964-2.587,0.89c-0.822-0.045-1.646-0.057-2.466-0.102c-9.901-0.547-18.562,2.715-22.116,7.704
	c-1.429,2.003-0.557,3.319,3.065,4.202c5.299,1.293,10.635,2.535,16.393,3.043c1.939,0.17,3.461,0.551,3.774,1.884
	c0.188,0.803,1.731,1.079,2.971,1.38c1.6,0.386,3.195,0.776,4.927,1.199c0.837-0.045,1.9-0.188,2.936-0.141
	c5.129,0.228,10.252,0.527,15.381,0.756c3.676,0.168,7.358,0.316,11.041,0.373c2.148,0.033,4.301-0.162,6.457-0.199
	c3.59-0.058,7.217,0.074,10.77-0.143c3.544-0.217,7.058-0.683,10.506-1.194c2.72-0.403,5.18-0.558,7.62,0.495
	c0.603,0.26,1.708,0.198,2.583,0.203c1.119,0.008,2.286-0.207,3.341-0.08c1.844,0.227,3.567,0.822,5.505,0.145
	c0.358-0.127,1.277,0.042,1.726,0.232c1.49,0.625,2.956,0.674,4.558,0.217c0.344-0.098,0.774-0.103,1.117-0.143
	c0.612-1.617,1.459-1.861,3.951-1.112c1.178,0.356,2.266,0.812,3.372,1.237c7.253,2.8,15.147,4.781,23.761,5.737
	c2.911,0.323,5.941,0.292,8.917,0.438c1.936,0.093,3.864,0.229,5.799,0.315c0.593,0.026,1.209-0.025,1.792-0.093
	c0.8-0.094,1.563-0.283,2.365-0.342c3.891-0.291,4.93,0.163,5.688,2.31c0.334,0.95,0.847,1.884,1.264,2.802
	c-1.691,0.457-3.215,0.895-4.773,1.287c-2.9,0.732-5.093,1.863-6.639,3.424c-0.486,0.49-1.428,0.84-1.903,1.334
	c-0.316,0.33-0.606,0.668-0.899,1.005c2.461,2.419,5.072,4.643,8.711,6.569c4.409,2.332,9.914,1.4,15.191,1.22
	c5.011-0.172,10.705,1.932,11.955,5.034c1.223,3.033,1.93,6.352,4.105,9.226c1.373,0.697,2.795,1.341,4.277,1.907
	c2.213-5.473,14.664-7.86,20.279-3.787c1.695-0.277,3.559-0.386,5.555-0.277c3.172,0.174,6.26,0.499,9.274,0.943
	c2.493-1.462,4.745-3.07,6.743-4.664c5.728-4.569,17.153-1.911,20.053,2.736c7.889,12.654,27.191,17.615,47.843,13.453
	c10.106-2.039,18.759,4.727,14.21,10.299c-2.559,3.135-4.604,6.357-5.705,9.531c19.371,10.433,37.887,21.635,63.412,25.363
	c1.613,0.235,3.004,0.629,4.182,1.141c2.018,0.065,4.036,0.128,6.053,0.201c1.538,0.056,3.07,0.162,4.605,0.226
	c0.603,0.026,1.216,0.031,1.812-0.005c4.08-0.247,8.154-0.52,12.234-0.752c0.586-0.032,1.26,0.027,1.791,0.168
	c4.305,1.135,8.89,1.796,13.387,2.602c5.525,0.988,11.158,1.609,16.951,1.674c3.584,0.039,7.146,0.37,10.753,0.191
	c1.385-0.068,2.848,0.166,4.249,0.331c1.866,0.221,1.881,0.247,2.857-0.867c-2.914-0.128-5.35-0.894-7.725-1.722
	c1.75,0.608,3.531,1.179,5.517,1.489c0.761-0.179,1.54-0.331,2.337-0.442c0.152,0.047,0.305,0.096,0.455,0.14
	c-0.175,0.172-0.342,0.342-0.509,0.509c1.298-0.068,2.601-0.113,3.891-0.215c1.112-0.086,2.212-0.226,3.306-0.366
	c0.785-0.103,1.716-0.132,2.297-0.391c2.804-1.253,6.072-1.838,9.529-2.179c0.791-0.078,1.648-0.104,2.437-0.021
	c3.239,0.34,6.443,0.805,9.698,1.076c2.535,0.213,5.121,0.246,7.688,0.285c3.374,0.051,6.748,0.043,10.121,0.023
	c0.694-0.004,1.371-0.211,2.074-0.265c1.213-0.091,2.466-0.25,3.658-0.171c1.499,0.102,2.931,0.558,4.43-0.039
	c0.268-0.105,0.99,0.054,1.425,0.179c2.358,0.681,4.913,0.902,7.481,0.997c3.378,0.128,6.734,0.424,10.159,0.201
	c1.669-0.11,3.466,0.182,5.163,0.398c1.444,0.185,2.734,0.166,4.206-0.029c2.576-0.342,5.306-0.328,7.907-0.624
	c3.914-0.444,7.773-1.022,11.652-1.554c0.596-0.082,1.152-0.269,1.753-0.319c4.931-0.421,6.838-3.417,5.994-5.447
	c-1.165-2.81-4.051-4.796-8.471-6.081c-2.548-0.742-5.3-1.303-8.05-1.771c-1.41-0.239-3.041-0.193-4.535-0.114
	c-1.854,0.097-3.446,0.011-4.727-0.871c-0.51-0.353-1.193-0.75-1.918-0.856c-3.705-0.539-4.7-2.254-5.655-3.959
	c-1.462-2.606-4.026-4.793-7.556-6.674c-7.282-3.881-15.891-5.732-25.862-5.513c-2.152,0.047-4.312,0.106-6.44,0.267
	c-2.885,0.217-5.025,1.219-7.07,2.279c-0.518,0.268-1.073,0.51-1.408,0.668c-3.902-0.895-7.589-1.741-11.268-2.586
	c-1.224-3.1-1.896-3.436-6.891-5.113c-5.483-1.842-11.062-2.054-16.779-0.924c-0.345-0.061-0.59-0.063-0.725-0.135
	c-3.453-1.858-3.301-1.659-1.449-4.127c0.504-0.674,1.425-1.251,2.168-1.867c2.856-2.359,4.37-4.961,3.576-7.82
	c-0.74-2.667-1.1-5.395-3.123-7.919c-0.625-0.784-1.258-1.563-2.008-2.491c0.773-0.024,1.426-0.092,2.064-0.055
	c3.584,0.202,7.162,0.135,10.743,0.027c3.792-0.115,7.588-0.222,11.376-0.377c2.553-0.104,5.109-0.457,7.641-0.381
	c3.171,0.096,6.031-0.49,9.031-0.763c0.851-0.076,1.807,0.03,2.666,0.158c2.585,0.378,5.154,0.791,7.715,1.225
	c2.061,0.351,4.094,0.749,6.322,1.159c0.364-0.314,0.742-0.986,1.132-0.977c0.757,0.016,1.558,0.033,2.479,0.054
	c0,0,0.093,0.416-0.045,0.513c-1.896,1.316-3.098,2.816-3.612,4.555c-2.856,0.279-4.887,1.131-6.137,2.57
	c-1.745,2.006-1.191,3.917,0.909,5.727c1.882,1.623,4.937,2.389,7.874,3.268c9.828,2.939,20.315,3.156,30.994,2.695
	c2.109-0.09,4.273,0.16,6.331-0.375c0.464-0.119,1.364,0.135,1.94,0.332c0.877,0.301,1.754,0.647,2.436,1.072
	c2.496,1.562,5.568,2.571,9.102,3.179c0.174,0.03,0.31,0.14,0.575,0.265c-0.146,0.181-0.237,0.414-0.479,0.574
	c-3.494,2.33-3.942,5.087-3.43,7.98c0.029,0.171,0.133,0.342,0.143,0.513c0.254,5.091,6.554,7.396,13.735,9.292
	c4.507,0.355,7.861,1.796,11.044,3.521c1.355,0.734,3.303,1.131,5.008,1.65c0.906,0.276,1.902,0.456,2.799,0.737
	c4.791,1.501,9.913,2.284,15.365,2.423c2.662,0.066,5.323,0.199,8.264,0.312c0.512-0.611,1.489-1.143,3.086-1.122
	c1.316,0.019,2.631,0.057,4.064,0.087c0.113-0.252,0.181-0.467,0.306-0.672c0.614-1.028,1.944-1.445,3.735-1.104
	c1.465,0.279,2.907,0.609,4.313,0.971c5.103,1.315,10.306,2.307,16.017,2.307c2.01,0.002,4.034,0.379,6.041,0.621
	c1.013,0.122,2.158,0.41,2.895-0.111c1.378-0.979,3.133-0.958,5.016-0.756c1.078,0.116,1.9,0.137,2.641-0.488
	c0.434-0.369,1.453-0.617,2.291-0.719c6.644-0.799,12.02-2.828,16.955-5.298c0.686-0.343,1.303-0.729,1.967-1.086
	c0.785-0.421,1.719-0.604,2.82-0.493c4.26,0.426,8.385,0.119,12.486-0.545c2.162-0.35,4.491-0.889,6.592-0.713
	c2.07,0.174,3.932,1.159,5.913,1.758c6.619,2.005,13.493,3.52,21.146,3.516c4.417-0.002,8.834,0.044,13.25,0.023
	c0.896-0.002,1.786-0.199,2.681-0.305c5.838-0.69,11.329-1.984,16.995-2.948c8.706-1.481,15.926-4.022,21.751-7.861
	c1.975-1.3,3.285-1.517,6.186-0.916c0.773,0.159,1.513,0.376,2.273,0.557c1.734,0.413,3.46,0.864,5.213,0.042
	c0.209-0.099,0.584-0.096,0.887-0.119c3.234-0.271,6.478-0.517,9.703-0.817c0.777-0.073,1.548-0.274,2.238-0.498
	c2.65-0.858,5.182-1.789,7.467-2.973c1.605-0.833,3.586-1.431,4.898-2.479c0.694-0.557,1.574-0.986,1.826-1.733
	c0.301-0.897,1.524-1.335,3.19-1.258c1.628,0.077,3.251,0.204,4.875,0.312c1.45,0.097,2.804,0.271,3.411-0.871
	c0.22-0.418,1.475-0.761,2.385-0.938c2.531-0.488,4.014-1.57,5.045-2.813c0.508-0.608,1.155-0.862,2.147-1.052
	c8.819-1.689,16.023-4.76,22.679-8.284c0.883-0.468,1.558-1.06,2.308-1.601c0.313-0.228,0.479-0.605,0.873-0.691
	c2.14-0.472,2.441-1.594,3.359-2.576C1074.623,244.956,1074.572,242.354,1074.117,239.695z M372.04,140.309
	c0.404-0.399,1.148-0.739,1.747-1.104c2.302-1.395,3.515-2.94,2.858-4.652c-0.612-1.596-0.917-3.227-2.568-4.743
	c-0.51-0.471-1.026-0.94-1.638-1.498c0.626-0.011,1.154-0.048,1.671-0.023c2.904,0.139,5.802,0.116,8.702,0.069
	c0.996-0.016,1.992-0.039,2.988-0.055c-2.467,0.764-3.604,2.219-4.641,3.623c-1.042,1.408-1.056,2.929-0.563,4.425
	c0.51,1.557,2.582,2.454,4.812,3.242c0.434,0.152,0.925,0.261,1.405,0.363c1.715,0.358,3.693,0.517,5.08,1.111
	c1.302,0.559,1.986,1.574,3.084,2.508c-0.431,0.261-0.923,0.608-1.508,0.897c-0.478,0.239-0.983,0.46-1.487,0.683
	c-0.761-0.664-1.908-0.985-4.565-1.658c-4.45-1.126-8.97-1.28-13.595-0.633c-0.28-0.038-0.479-0.041-0.588-0.084
	C370.428,141.654,370.553,141.773,372.04,140.309z M361.344,163.341c1.837,0.563,3.575,1.061,5.248,1.514l0,0
	C364.919,164.401,363.182,163.905,361.344,163.341L361.344,163.341z M364.541,171.188c-3.483,0.751-6.336,0.082-9.539-0.842
	c-8.862-2.558-17.682-2.295-26.105,0.652c-0.435,0.151-0.875,0.3-1.326,0.435c-0.17,0.053-0.387,0.061-0.785,0.119
	c-0.35-0.192-0.816-0.408-1.198-0.663c-3.866-2.571-8.705-4.263-14.53-5.009c-1.285-0.165-1.914-0.512-2.391-1.164
	c-0.546-0.748-1.215-1.436-1.967-2.08c1.562,0.237,3.145,0.459,4.774,0.645c1.308,0.148,2.436,0.391,3.393,0.701
	c1.634,0.049,3.27,0.096,4.903,0.149c1.247,0.041,2.488,0.112,3.731,0.157c0.488,0.02,0.985,0.025,1.468,0.006
	c3.303-0.127,6.602-0.27,9.905-0.389c0.474-0.017,1.02,0.021,1.451,0.109c3.492,0.699,7.209,1.115,10.855,1.618
	c4.48,0.617,9.045,1.016,13.738,1.083c1.894,0.025,3.781,0.121,5.675,0.163c0.152,0.659,0.425,1.315,0.779,1.963
	c0.297,0.54,0.514,1.091,0.859,1.83C366.832,170.863,365.634,170.952,364.541,171.188z M638.267,301.964
	c-2.446-0.848-5.674-1.845-7.674-2.969v-0.001C632.593,300.119,635.822,301.116,638.267,301.964c0.515,0.18,1.028,0.361,1.543,0.541
	C639.295,302.325,638.782,302.144,638.267,301.964z"/>
</svg>
