<?xml version="1.0" encoding="utf-8"?>
<!-- Generator: Adobe Illustrator 16.0.0, SVG Export Plug-In . SVG Version: 6.00 Build 0)  -->
<!DOCTYPE svg PUBLIC "-//W3C//DTD SVG 1.1//EN" "http://www.w3.org/Graphics/SVG/1.1/DTD/svg11.dtd">
<svg version="1.1" id="Layer_1" xmlns="http://www.w3.org/2000/svg" xmlns:xlink="http://www.w3.org/1999/xlink" x="0px" y="0px"
	 viewBox="0 0 1074.365 305.295" enable-background="new 0 0 1074.365 305.295"
	 xml:space="preserve">
<path opacity="0.9" fill="#D1A8C3" d="M1074.117,239.695c-0.189-1.113-1.037-2.098-2.234-3.01
	c-3.995-3.049-9.023-5.398-15.242-7.092c0.174-0.4,0.222-0.805,0.52-1.136c2.467-2.749,3.032-5.751,2.809-8.734
	c-0.115-1.536-1.291-3.198-2.773-4.535c-2.277-2.048-4.871-4.014-8.325-5.577c-3.347-1.516-6.998-2.163-11.204-1.875
	c-0.896,0.062-1.799,0.099-2.83,0.154c-0.697-0.801-1.338-1.518-1.95-2.243c-1.044-1.237-2.511-2.243-4.702-2.914
	c-1.086-0.331-2.12-0.731-3.096-1.16c-1.597-0.701-3.332-1.185-5.372-1.201c-1.524-0.013-2.433-0.419-3.138-1.162
	c-2.636-2.778-6.504-4.923-11.27-6.554c-4.035-1.381-8.559-2.018-13.098-2.572c-2.312-0.282-4.698-0.36-7.025-0.615
	c-3.323-0.365-6.568-0.171-9.784,0.248c-5.517,0.723-10.753,1.891-15.946,3.125c-0.553,0.133-1.111,0.258-1.903,0.439
	c-0.386-0.469-0.762-0.857-1.039-1.268c-1.308-1.93-3.087-3.638-6.283-4.832c-0.86-0.32-1.567-0.951-1.884-1.519
	c-1.51-2.708-4.983-4.476-8.906-6.056c-0.588-0.236-1.211-0.443-1.8-0.68c-0.153-0.062-0.231-0.188-0.403-0.334
	c2.842-4.896,0.765-9.34-5.062-13.535c1.507-0.258,2.742-0.476,3.985-0.678c2.999-0.49,5.802-1.186,7.864-2.547
	c1.665-1.099,3.631-1.346,6.064-0.918c5.357,0.941,10.342,0.452,15.099-1.117c1.091-0.36,2.489-0.443,3.759-0.624
	c3.871-0.552,7.865-0.916,11.59-1.681c3.407-0.703,5.838-2.15,7.679-4.006c2.694-2.718,2.596-5.35,1.128-8.302
	c-1.319-2.649-3.301-4.825-7.497-6.31c-1.149-0.405-1.515-1.024-1.702-1.754c-0.498-1.95-1.307-3.852-3.203-5.573
	c-3.422-3.107-8.494-5.144-14.438-6.267c-4.29-0.812-8.954-0.779-13.247,0.404c-0.918,0.252-1.863,0.477-2.814,0.689
	c-2.827,0.633-5.225,1.561-6.914,3.009c-0.322,0.279-0.752,0.518-1.294,0.889c-0.473-0.356-0.821-0.607-1.147-0.868
	c-0.88-0.701-1.62-1.475-2.668-2.085c-0.791-0.463-1.133-0.902-1.154-1.517c-0.124-3.658-2.924-6.665-7.479-9.23
	c-1.527-0.861-2.994-1.731-5.031-2.284c-0.86-0.234-1.437-0.93-1.908-1.478c-1.973-2.299-5.049-3.957-9.232-4.902
	c-1.591-0.359-3.389-0.426-5.482-0.673c-0.067-0.526-0.244-1.135-0.206-1.74c0.166-2.616-0.954-5.031-3.595-7.218
	c-1.389-1.15-2.674-2.353-4.262-3.412c-4.109-2.746-9.56-4.38-15.454-5.578c-3.009-0.61-6.06-1.134-9.317-1.194
	c-5.5-0.103-9.838,0.983-12.66,3.667c-0.66,0.629-1.397,1.043-2.754,1.213c-1.051,0.13-2.051,0.487-2.959,0.838
	c-2.936,1.133-5.666,2.395-7.826,4.015c-1.364,1.023-3.152,1.396-5.586,1.369c-4.293-0.048-8.592,0.202-13.292,0.338
	c-0.397-0.643-0.909-1.44-1.389-2.242c-0.883-1.479-1.601-2.995-2.644-4.438c-2.264-3.138-6.523-5.459-10.619-7.845
	c-6.268-3.651-14.359-5.346-22.618-6.938c-5.723-1.103-11.503-1.304-17.373-0.855c-1.907,0.145-3.748,0.553-5.604,0.869
	c-1.142,0.196-2.255,0.443-3.698,0.731c4.757-10.986-1.454-19.773-16.038-27.046c0.238-1.041,0.676-2.111,0.688-3.185
	c0.03-2.555-1.312-4.793-5.622-6.137c-1.16-0.363-1.459-0.934-1.677-1.566c-1.59-4.648-12.751-11.664-24.102-12.043
	c-5.915-0.195-11.987-0.371-17.517,1.237c-1.389,0.403-2.525,0.282-3.628-0.312c-4.182-2.253-9.394-3.2-14.851-4.042
	c-6.523-1.008-12.838-0.655-19.254-0.03c-4.109,0.399-7.926,1.165-11.476,2.358c-2.458,0.827-5.231,1.464-7.279,2.535
	c-2.401,1.252-4.906,1.777-8.13,1.947c-3.645,0.193-6.792,1.208-9.174,2.856c-0.607,0.42-1.47,0.77-2.338,1.021
	c-6.7,1.941-11.285,4.873-13.249,8.981c-0.39,0.807-1.107,1.123-2.429,1.301c-1.689,0.229-3.393,0.477-4.995,0.845
	c-4.06,0.938-7.015,3.005-8.03,5.369c-1.584-1.032-3.768-1.806-6.568-2.288c-1.291-0.223-2.748-0.271-4.445-0.429
	c-0.057-0.314-0.203-0.679-0.174-1.04c0.121-1.561-0.799-3.008-2.947-4.327c-1.131-0.694-2.178-1.418-3.469-2.058
	c-3.342-1.66-7.764-2.662-12.543-3.406c-2.441-0.379-4.915-0.707-7.554-0.758c-4.455-0.088-7.964,0.539-10.236,2.128
	c-0.531,0.373-1.126,0.616-2.224,0.711c-0.852,0.072-1.659,0.281-2.393,0.486c-2.373,0.662-4.578,1.402-6.32,2.359
	c-1.1,0.604-2.546,0.818-4.518,0.79c-3.478-0.049-6.958,0.079-10.764,0.137c-0.325-0.386-0.744-0.864-1.135-1.345
	c-0.722-0.887-1.312-1.796-2.163-2.663c-1.849-1.885-5.311-3.292-8.64-4.736c-5.094-2.211-11.656-3.262-18.353-4.252
	c-4.641-0.687-9.324-0.835-14.076-0.596c-1.544,0.078-3.032,0.312-4.535,0.492c-0.923,0.111-1.824,0.254-2.992,0.418
	c3.799-6.536-1.274-11.813-13.122-16.227c0.188-0.62,0.537-1.257,0.542-1.898c0.012-1.525-1.086-2.868-4.583-3.692
	c-0.942-0.222-1.186-0.564-1.366-0.943c-1.311-2.783-10.384-7.026-19.58-7.308c-4.792-0.146-9.711-0.28-14.182,0.653
	c-1.123,0.234-2.044,0.156-2.939-0.204c-3.397-1.365-7.624-1.957-12.048-2.486c-5.289-0.634-10.402-0.454-15.595-0.112
	c-3.327,0.218-6.414,0.657-9.283,1.352c-1.987,0.482-4.23,0.849-5.883,1.478c-1.938,0.736-3.964,1.037-6.575,1.123
	c-2.951,0.097-5.495,0.688-7.417,1.66c-0.489,0.248-1.187,0.453-1.888,0.598c-5.417,1.126-9.117,2.854-10.688,5.297
	c-0.311,0.48-0.891,0.665-1.96,0.765c-1.367,0.128-2.746,0.268-4.042,0.48c-4.33,0.713-7.101,2.606-6.754,4.552
	c0.043,0.237,0.126,0.474,0.217,0.804c-0.969,0.116-1.887,0.25-2.838,0.335c-3.736,0.337-6.835,1.15-9.754,2.103
	c-0.58,0.19-1.145,0.386-1.746,0.563c-1.798,0.531-3.07,1.212-3.647,2.111c-0.189,0.296-0.532,0.572-0.764,0.864
	c-0.409,0.51-1.175,0.869-2.333,1.127c-1.007,0.223-1.943,0.509-2.832,0.807c-2.794,0.935-3.644,2.205-3.328,3.659
	c0.007,0.03,0.017,0.061,0.026,0.092c-0.267,0.276-0.662,0.531-1.24,0.765c-0.035,0.013-0.074,0.023-0.11,0.035
	c0.008,0.001,0.017,0.002,0.026,0.004c-1.713-0.237-3.564-0.354-5.546-0.35c-6.114,0.013-11.55,0.821-16.427,2.247
	c-0.843,0.247-1.479,0.62-2.145,0.957c-2.339,1.187-4.669,2.381-5.14,3.994c-0.177,0.605-0.29,1.215-0.456,1.92
	c-0.465,0.078-1.151,0.18-1.812,0.3c-2.76,0.503-4.893,1.247-5.532,2.539c-0.268,0.536-0.915,0.819-2.216,1.071
	c-5.868,1.135-10.564,2.836-13.852,5.172c-2.47,1.754-3.97,3.655-4.965,5.638c-0.489,0.976-0.494,1.004-2.883,0.968
	c-4.953-0.075-9.819,0.065-14.479,0.756c-4.059,0.6-7.967,1.342-11.455,2.367c-2.113,0.621-3.88,1.439-6.098,2.281
	c-0.372-0.065-1.14-0.177-1.86-0.328c-2.994-0.627-6.07-0.804-9.228-0.39c-0.984,0.13-1.694,0.039-2.508-0.233
	c-1.907-0.637-3.944-1.187-6.258-1.561c-5.047-0.816-9.853-0.644-14.394,0.396c-1.758,0.403-3.465,0.678-5.526,0.771
	c-2.015,0.091-4.008,0.415-5.872,0.759c-2.244,0.416-3.2,1.337-4.08,2.218c-0.837,0.835-0.841,1.744-0.435,2.639
	c0.42,0.932,2.104,1.478,3.913,1.959c0.352,0.093,0.75,0.16,1.14,0.223c1.392,0.222,2.994,0.327,4.12,0.688
	c1.058,0.34,1.616,0.949,2.51,1.513c-0.348,0.154-0.744,0.358-1.217,0.528c-0.739,0.268-1.563,0.497-2.29,0.769
	c-1.7,0.639-2.791,1.398-2.809,2.406c-0.012,0.769-0.119,0.774-1.85,0.987c-0.317,0.039-0.636,0.077-0.961,0.104
	c-5.129,0.419-8.552,1.739-10.612,3.617c-1.317,1.198-2.164,2.499-2.969,3.783c-0.563,0.903-0.205,1.845,0.475,2.757
	c0.243,0.323,0.421,0.654,0.705,1.097c-1.134,0.107-2.103,0.155-2.988,0.29c-2.818,0.431-5.131,0.018-7.73-0.549
	c-7.191-1.57-14.332-1.457-21.141,0.262c-0.352,0.088-0.707,0.175-1.072,0.253c-0.138,0.031-0.312,0.035-0.635,0.067
	c-0.284-0.116-0.664-0.248-0.974-0.401c-3.144-1.554-7.071-2.587-11.793-3.062c-1.042-0.104-1.553-0.315-1.941-0.707
	c-1.946-1.962-5.604-3.31-9.9-4.333c-2.91-0.694-6.085-1.175-9.386-1.506c-3.455-0.348-6.759-0.255-10.122,0.07
	c-4.842,0.467-9.086,1.411-13.138,2.526c-0.475,0.13-0.917,0.292-1.285,0.47c-2.081,1.018-3.771,2.137-4.852,3.405
	c-0.229,0.271-0.606,0.557-0.019,0.908c0.956-0.154,1.023-0.517,1.352-0.808c0.077-0.068,0.15-0.138,0.228-0.207
	c-0.162,0.381-0.204,0.768-0.229,1.167c-0.018,0.306-0.381,0.512-0.872,0.624c0.126-0.091,0.246-0.185,0.374-0.275
	c-0.426-0.055-0.92-0.196-1.267-0.154c-4.187,0.521-7.935,1.362-10.802,2.728c-0.823,0.391-1.25,0.942-1.687,1.447
	c-0.654,0.75-0.588,0.777-2.599,0.812c-5.076,0.089-8.864,1.18-12.248,2.569c-0.556,0.229-0.955,0.558-1.216,0.872
	c-0.367,0.438-1.051,0.569-2.091,0.519c-0.666-0.031-1.333-0.042-1.998-0.073c-8.022-0.375-15.02,1.531-17.875,4.492
	c-1.147,1.189-0.435,1.979,2.503,2.523c4.298,0.798,8.626,1.566,13.292,1.897c1.571,0.111,2.806,0.346,3.066,1.144
	c0.156,0.48,1.407,0.652,2.413,0.838c1.297,0.238,2.592,0.479,3.997,0.74c0.677-0.022,1.538-0.103,2.377-0.069
	c4.155,0.161,8.306,0.364,12.461,0.526c2.978,0.118,5.961,0.225,8.944,0.276c1.74,0.03,3.482-0.075,5.229-0.087
	c2.907-0.017,5.845,0.08,8.722-0.032c2.869-0.113,5.713-0.374,8.503-0.662c2.201-0.228,4.192-0.307,6.175,0.333
	c0.489,0.158,1.384,0.126,2.093,0.133c0.906,0.01,1.851-0.112,2.705-0.031c1.495,0.144,2.894,0.508,4.46,0.113
	c0.289-0.074,1.034,0.031,1.398,0.147c1.21,0.38,2.397,0.417,3.692,0.151c0.278-0.057,0.627-0.057,0.904-0.079
	c0.488-0.962,1.173-1.104,3.195-0.645c0.956,0.218,1.838,0.496,2.737,0.755c5.888,1.707,12.292,2.928,19.273,3.542
	c2.359,0.207,4.813,0.203,7.224,0.305c1.568,0.065,3.132,0.156,4.699,0.217c0.479,0.019,0.979-0.009,1.451-0.047
	c0.647-0.052,1.265-0.161,1.914-0.192c3.15-0.154,3.994,0.122,4.618,1.407c0.275,0.569,0.695,1.129,1.037,1.679
	c-1.368,0.265-2.6,0.519-3.86,0.745c-2.345,0.423-4.116,1.087-5.361,2.012c-0.391,0.29-1.151,0.495-1.534,0.787
	c-0.255,0.195-0.488,0.396-0.724,0.596c2.005,1.457,4.131,2.796,7.088,3.964c3.582,1.415,8.036,0.885,12.31,0.803
	c4.058-0.078,8.68,1.206,9.708,3.064c1.005,1.817,1.594,3.802,3.371,5.528c1.115,0.423,2.27,0.814,3.474,1.159
	c1.765-3.256,11.838-4.621,16.406-2.161c1.372-0.157,2.88-0.213,4.498-0.139c2.57,0.12,5.073,0.329,7.516,0.608
	c2.013-0.86,3.828-1.809,5.439-2.751c4.616-2.7,13.884-1.057,16.255,1.732c6.451,7.593,22.109,10.65,38.815,8.266
	c8.176-1.168,15.217,2.914,11.56,6.218c-2.057,1.859-3.698,3.773-4.574,5.663c5.885,2.364,11.675,4.792,17.698,7.028
	c-1.757,0.078-3.508,0.248-5.273,0.494c-5.983,0.83-11.232,2.454-16.247,4.363c-0.587,0.223-1.136,0.498-1.592,0.8
	c-2.579,1.726-4.678,3.618-6.024,5.753c-0.284,0.457-0.754,0.939-0.032,1.521c1.183-0.27,1.269-0.877,1.677-1.367
	c0.097-0.116,0.188-0.233,0.283-0.349c-0.204,0.64-0.26,1.288-0.293,1.958c-0.025,0.513-0.476,0.861-1.083,1.054
	c0.156-0.153,0.306-0.312,0.464-0.465c-0.525-0.087-1.134-0.318-1.562-0.244c-5.174,0.913-9.811,2.36-13.365,4.679
	c-1.02,0.662-1.553,1.59-2.098,2.441c-0.814,1.263-0.734,1.307-3.217,1.387c-6.268,0.201-10.957,2.065-15.148,4.428
	c-0.689,0.39-1.185,0.943-1.51,1.471c-0.458,0.739-1.304,0.965-2.587,0.891c-0.822-0.046-1.646-0.057-2.466-0.103
	c-9.901-0.546-18.562,2.716-22.116,7.704c-1.429,2.004-0.557,3.319,3.065,4.202c5.299,1.293,10.635,2.536,16.393,3.043
	c1.939,0.171,3.461,0.552,3.774,1.884c0.188,0.803,1.731,1.079,2.971,1.381c1.6,0.385,3.195,0.775,4.927,1.199
	c0.837-0.045,1.9-0.188,2.936-0.141c5.129,0.227,10.252,0.526,15.381,0.756c3.676,0.168,7.358,0.316,11.041,0.372
	c2.148,0.033,4.301-0.161,6.457-0.198c3.59-0.059,7.217,0.074,10.77-0.143c3.544-0.218,7.058-0.684,10.506-1.195
	c2.72-0.403,5.18-0.557,7.62,0.496c0.603,0.26,1.708,0.197,2.583,0.202c1.119,0.008,2.286-0.206,3.341-0.079
	c1.844,0.226,3.567,0.822,5.505,0.144c0.358-0.126,1.277,0.042,1.726,0.233c1.49,0.624,2.956,0.674,4.558,0.216
	c0.344-0.097,0.774-0.103,1.117-0.142c0.612-1.617,1.459-1.861,3.951-1.113c1.178,0.356,2.266,0.812,3.372,1.238
	c7.253,2.799,15.147,4.781,23.761,5.736c2.911,0.324,5.941,0.292,8.917,0.438c1.936,0.093,3.864,0.229,5.799,0.315
	c0.593,0.027,1.209-0.025,1.792-0.093c0.8-0.093,1.563-0.282,2.365-0.341c3.891-0.291,4.93,0.162,5.688,2.309
	c0.334,0.951,0.847,1.885,1.264,2.803c-1.691,0.457-3.215,0.895-4.773,1.286c-2.9,0.733-5.093,1.863-6.639,3.425
	c-0.486,0.49-1.428,0.84-1.903,1.334c-0.316,0.329-0.606,0.668-0.899,1.004c2.461,2.42,5.072,4.643,8.711,6.569
	c4.409,2.333,9.914,1.401,15.191,1.22c5.011-0.172,10.705,1.932,11.955,5.034c1.223,3.034,1.93,6.353,4.105,9.226
	c1.373,0.697,2.795,1.341,4.277,1.907c2.213-5.473,14.664-7.86,20.279-3.786c1.695-0.277,3.559-0.387,5.555-0.277
	c3.172,0.174,6.26,0.498,9.274,0.942c2.493-1.462,4.745-3.069,6.743-4.664c5.728-4.569,17.153-1.911,20.053,2.737
	c7.889,12.654,27.191,17.615,47.843,13.453c10.106-2.039,18.759,4.727,14.21,10.299c-2.559,3.135-4.604,6.357-5.705,9.53
	c19.371,10.433,37.886,21.636,63.412,25.363c1.613,0.235,3.004,0.63,4.182,1.141c2.018,0.065,4.036,0.128,6.053,0.201
	c1.538,0.056,3.07,0.163,4.605,0.226c0.603,0.026,1.216,0.031,1.812-0.005c4.08-0.247,8.154-0.519,12.234-0.751
	c0.586-0.033,1.26,0.026,1.791,0.167c4.305,1.136,8.89,1.796,13.387,2.602c5.525,0.989,11.158,1.61,16.951,1.675
	c3.583,0.039,7.146,0.369,10.753,0.191c1.385-0.069,2.848,0.165,4.248,0.33c1.867,0.221,1.882,0.248,2.858-0.867
	c-2.914-0.127-5.35-0.893-7.725-1.721c1.75,0.607,3.531,1.178,5.517,1.488c0.761-0.179,1.54-0.33,2.337-0.442
	c0.152,0.048,0.304,0.097,0.455,0.14c-0.175,0.172-0.342,0.342-0.509,0.51c1.298-0.068,2.601-0.114,3.891-0.215
	c1.112-0.087,2.212-0.227,3.306-0.367c0.785-0.103,1.716-0.131,2.297-0.391c2.804-1.252,6.072-1.838,9.529-2.179
	c0.791-0.077,1.648-0.104,2.437-0.021c3.239,0.34,6.443,0.806,9.698,1.077c2.535,0.212,5.121,0.246,7.688,0.285
	c3.374,0.05,6.748,0.043,10.121,0.022c0.694-0.003,1.371-0.21,2.074-0.265c1.213-0.091,2.466-0.25,3.658-0.171
	c1.499,0.103,2.931,0.558,4.43-0.039c0.268-0.105,0.99,0.054,1.425,0.179c2.358,0.682,4.913,0.902,7.481,0.998
	c3.378,0.127,6.734,0.423,10.159,0.201c1.669-0.111,3.466,0.182,5.163,0.398c1.444,0.184,2.734,0.166,4.206-0.03
	c2.576-0.341,5.306-0.327,7.907-0.624c3.914-0.443,7.773-1.022,11.652-1.553c0.596-0.082,1.152-0.27,1.753-0.32
	c4.931-0.421,6.838-3.417,5.994-5.447c-1.165-2.809-4.051-4.795-8.471-6.081c-2.548-0.742-5.3-1.302-8.05-1.771
	c-1.41-0.24-3.041-0.194-4.535-0.115c-1.854,0.097-3.446,0.012-4.727-0.871c-0.51-0.352-1.193-0.75-1.918-0.855
	c-3.705-0.54-4.7-2.254-5.655-3.959c-1.462-2.607-4.026-4.794-7.556-6.674c-7.282-3.881-15.891-5.732-25.862-5.514
	c-2.152,0.047-4.312,0.107-6.44,0.268c-2.885,0.217-5.025,1.218-7.07,2.279c-0.518,0.267-1.073,0.509-1.408,0.668
	c-3.902-0.896-7.589-1.742-11.268-2.586c-1.224-3.1-1.896-3.437-6.891-5.113c-5.483-1.842-11.062-2.055-16.779-0.924
	c-0.345-0.062-0.591-0.064-0.725-0.135c-3.453-1.859-3.301-1.66-1.449-4.128c0.504-0.673,1.425-1.251,2.167-1.866
	c2.857-2.359,4.371-4.961,3.577-7.82c-0.74-2.668-1.1-5.396-3.123-7.92c-0.625-0.783-1.258-1.563-2.008-2.49
	c0.773-0.025,1.426-0.093,2.064-0.056c3.584,0.202,7.162,0.136,10.743,0.027c3.792-0.115,7.588-0.222,11.376-0.376
	c2.553-0.104,5.109-0.457,7.641-0.382c3.171,0.096,6.031-0.489,9.031-0.763c0.851-0.076,1.807,0.031,2.666,0.158
	c2.585,0.379,5.154,0.791,7.715,1.225c2.061,0.351,4.094,0.749,6.322,1.16c0.364-0.314,0.742-0.986,1.132-0.978
	c0.757,0.017,1.558,0.034,2.479,0.054c0,0,0.093,0.416-0.045,0.513c-1.896,1.317-3.098,2.817-3.612,4.556
	c-2.856,0.279-4.887,1.131-6.137,2.57c-1.745,2.005-1.191,3.916,0.909,5.727c1.882,1.623,4.936,2.388,7.874,3.267
	c9.828,2.94,20.315,3.157,30.994,2.696c2.109-0.09,4.273,0.159,6.331-0.375c0.464-0.119,1.364,0.134,1.94,0.331
	c0.877,0.301,1.754,0.647,2.436,1.073c2.496,1.562,5.568,2.57,9.102,3.178c0.174,0.031,0.31,0.141,0.575,0.266
	c-0.146,0.18-0.237,0.414-0.479,0.573c-3.494,2.331-3.942,5.087-3.43,7.981c0.029,0.17,0.133,0.341,0.143,0.512
	c0.254,5.092,6.554,7.396,13.735,9.293c4.507,0.355,7.861,1.795,11.044,3.521c1.355,0.735,3.303,1.131,5.008,1.651
	c0.906,0.275,1.902,0.455,2.799,0.736c4.791,1.502,9.913,2.285,15.364,2.423c2.663,0.067,5.324,0.2,8.265,0.313
	c0.512-0.611,1.489-1.144,3.086-1.123c1.316,0.02,2.631,0.057,4.064,0.088c0.113-0.252,0.181-0.467,0.306-0.672
	c0.613-1.029,1.944-1.445,3.735-1.104c1.465,0.279,2.907,0.61,4.313,0.972c5.103,1.314,10.306,2.306,16.017,2.307
	c2.01,0.002,4.034,0.379,6.041,0.62c1.013,0.122,2.158,0.41,2.895-0.111c1.378-0.978,3.133-0.958,5.016-0.755
	c1.078,0.115,1.9,0.137,2.641-0.489c0.434-0.368,1.453-0.616,2.291-0.718c6.644-0.8,12.02-2.829,16.955-5.299
	c0.686-0.343,1.303-0.729,1.967-1.086c0.784-0.421,1.719-0.604,2.82-0.493c4.26,0.427,8.385,0.12,12.486-0.544
	c2.162-0.35,4.491-0.889,6.592-0.713c2.07,0.174,3.932,1.158,5.913,1.758c6.619,2.004,13.493,3.519,21.146,3.516
	c4.417-0.003,8.834,0.043,13.25,0.023c0.896-0.003,1.785-0.2,2.681-0.305c5.838-0.691,11.329-1.984,16.995-2.949
	c8.706-1.481,15.926-4.022,21.751-7.861c1.975-1.3,3.285-1.516,6.186-0.916c0.773,0.16,1.513,0.376,2.273,0.557
	c1.734,0.413,3.46,0.865,5.213,0.043c0.209-0.1,0.584-0.096,0.887-0.12c3.234-0.271,6.478-0.517,9.703-0.817
	c0.777-0.072,1.548-0.273,2.238-0.498c2.649-0.858,5.182-1.789,7.467-2.973c1.605-0.833,3.586-1.431,4.898-2.479
	c0.694-0.556,1.574-0.986,1.826-1.733c0.301-0.896,1.524-1.335,3.19-1.258c1.628,0.078,3.251,0.205,4.875,0.312
	c1.45,0.097,2.804,0.271,3.411-0.87c0.22-0.419,1.475-0.762,2.385-0.938c2.531-0.489,4.014-1.57,5.045-2.814
	c0.508-0.608,1.155-0.861,2.147-1.052c8.819-1.689,16.023-4.759,22.679-8.284c0.883-0.467,1.558-1.059,2.308-1.601
	c0.313-0.228,0.479-0.604,0.873-0.69c2.14-0.473,2.441-1.594,3.359-2.577C1074.623,244.957,1074.572,242.354,1074.117,239.695z
	 M361.344,163.341c1.837,0.563,3.575,1.062,5.248,1.514c0,0,0,0,0,0.001C364.919,164.402,363.182,163.905,361.344,163.341
	C361.344,163.341,361.344,163.341,361.344,163.341z M364.541,171.188c-3.483,0.751-6.336,0.082-9.539-0.842
	c-8.862-2.557-17.682-2.295-26.105,0.652c-0.435,0.151-0.875,0.301-1.326,0.436c-0.17,0.053-0.387,0.061-0.785,0.118
	c-0.35-0.192-0.816-0.408-1.198-0.663c-3.866-2.57-8.705-4.262-14.53-5.008c-1.285-0.166-1.914-0.512-2.391-1.165
	c-0.546-0.748-1.215-1.436-1.967-2.079c1.562,0.236,3.145,0.459,4.774,0.644c1.308,0.149,2.436,0.391,3.393,0.702
	c1.634,0.049,3.27,0.096,4.903,0.148c1.247,0.041,2.488,0.113,3.731,0.158c0.488,0.019,0.985,0.024,1.468,0.006
	c3.303-0.127,6.602-0.27,9.905-0.389c0.474-0.018,1.02,0.021,1.451,0.108c3.492,0.699,7.209,1.116,10.855,1.618
	c4.48,0.617,9.045,1.016,13.738,1.083c1.894,0.026,3.781,0.122,5.675,0.163c0.152,0.659,0.425,1.316,0.779,1.963
	c0.297,0.54,0.514,1.092,0.859,1.83C366.832,170.863,365.634,170.953,364.541,171.188z M638.101,301.965
	c-2.446-0.848-5.84-1.846-7.84-2.969c0-0.001,0-0.002,0-0.002C632.261,300.119,635.656,301.117,638.101,301.965
	c0.515,0.18,1.028,0.361,1.543,0.541C639.129,302.325,638.616,302.144,638.101,301.965z"/>
</svg>
