<?xml version="1.0" encoding="utf-8"?>
<!-- Generator: Adobe Illustrator 16.0.0, SVG Export Plug-In . SVG Version: 6.00 Build 0)  -->
<!DOCTYPE svg PUBLIC "-//W3C//DTD SVG 1.1//EN" "http://www.w3.org/Graphics/SVG/1.1/DTD/svg11.dtd">
<svg version="1.1" id="Layer_1" xmlns="http://www.w3.org/2000/svg" xmlns:xlink="http://www.w3.org/1999/xlink" x="0px" y="0px"
	 width="358.037px" height="142.465px" viewBox="0 0 358.037 142.465" enable-background="new 0 0 358.037 142.465"
	 xml:space="preserve">
<path opacity="0.6" fill="#D3BECB" d="M234.047,1.501c-1.447,0.332-3.093,0.402-4.539,0.125c-6.462-1.239-12.957-1.667-19.584-1.623
	c-10.822,0.069-19.617,4.169-26.877,11.482c-1.643,1.651-3.191,2.366-5.441,2.327c-4.083-0.071-8.244,0.066-11.978,1.779
	c-3.05,1.4-5.619,0.943-8.353-0.34c-2.116-0.994-4.279-1.908-6.472-2.747c-1.146-0.439-2.381-0.82-3.608-0.91
	c-5.714-0.424-11.431-0.947-17.164-1.04c-6.016-0.098-12.114-0.153-17.947,1.65c-11.348,3.51-22.082,8.104-30.202,16.875
	c-0.554,0.601-1.145,1.215-1.835,1.652c-0.797,0.505-1.707,1.11-2.601,1.176c-4.453,0.34-8.344,2.323-12.432,3.729
	c-3.93,1.351-7.345,3.46-9.966,6.534c-1.963,2.305-4.271,3.467-7.394,4.002c-8.14,1.392-15.25,4.723-20.079,11.451
	c-1.31,1.823-3.312,2.512-5.309,3.025c-3.226,0.829-5.941,2.345-8.364,4.481c-0.925,0.813-1.924,1.625-3.035,2.161
	c-5.146,2.497-7.724,6.837-9.78,11.603c-2.183,5.064-0.683,9.854,0.978,14.611c0.248,0.705,0.885,1.365,1.511,1.852
	c3.209,2.492,6.374,5.059,9.765,7.318c1.78,1.187,3.92,2.012,6.029,2.622c4.533,1.315,9.121,2.463,13.727,3.546
	c7.141,1.678,14.353,2.084,21.617,0.322c1.362-0.331,2.682-0.851,4.053-1.102c0.926-0.172,2.09-0.336,2.836,0.037
	c2.545,1.281,5.081,2.645,7.393,4.264c3.344,2.342,6.359,5.107,9.764,7.358c2.353,1.552,5.066,2.678,7.737,3.738
	c1.905,0.757,4.116,0.863,5.992,1.662c4.081,1.741,8.105,1.65,12.236,0.138c2.232-0.816,4.376-1.364,5.54,1.479
	c0.208,0.502,1.005,0.828,1.59,1.138c1.93,1.02,3.886,1.999,5.842,2.979c0.602,0.305,1.201,0.676,1.859,0.817
	c8.556,1.876,17.201,3.351,25.962,4.137c4.748,0.421,9.46,0.27,14.06-1.593c4.045-1.64,7.278-0.529,10.022,2.979
	c2.251-0.581,4.509-0.723,6.654,0.736c0.816,0.555,2.136,0.434,3.212,0.686c1.467,0.345,3.014,0.572,4.354,1.178
	c2.064,0.934,3.992,1.704,6.393,0.903c1.504-0.502,3.086-0.231,4.26,0.939c1.176,1.171,2.406,0.919,3.824,0.343
	c1.928-0.776,3.902-1.46,5.905-2.039c4.171-1.201,8.409-2.154,12.216-4.34c1.828-1.048,3.877-1.298,6.064-1.303
	c3.619-0.008,7.258-0.346,10.867-0.707c2.76-0.275,5.502-0.764,8.234-1.252c0.804-0.145,1.704-0.441,2.291-0.945
	c2.967-2.556,6.621-3.895,10.047-5.697c5.513-2.895,10.707-6.545,14.568-11.406c1.957-2.468,4.297-3.566,7.394-4.001
	c3.735-0.521,7.581-0.991,11.077-2.256c5.879-2.122,11.662-4.592,17.227-7.388c7.053-3.54,13.385-8.157,17.091-15.016
	c2.051-3.797,5.196-5.725,9.034-7.234c2.728-1.074,5.458-2.17,8.092-3.436c4.648-2.237,9.149-4.717,13.223-7.846
	c2.885-2.22,5.303-4.729,6.408-8.444c-2.15-1.702-4.322-1.963-6.607-1.713c-1.812,0.198-3.627,0.447-5.408,0.814
	c-1.955,0.406-3.469,0.064-4.908-1.333c-2.773-2.692-6.302-4.155-10.124-5.241c-4.185-1.191-8.36-2.039-12.767-1.9
	c-2.48,0.076-4.564-0.455-6.02-2.71c-0.725-1.121-2.24-1.927-3.58-2.514c-2.135-0.932-3.025-2.374-3.422-4.527
	c-0.422-2.294-1.025-4.693-2.225-6.678c-1.848-3.057-4.1-5.932-6.48-8.651c-5.693-6.502-12.568-11.092-22.1-11.018
	c-0.793,0.008-1.762-0.185-2.34-0.635c-2.104-1.633-4.059-3.439-6.109-5.139c-0.83-0.689-1.678-1.436-2.664-1.867
	C254.017,1.522,244.465-0.896,234.047,1.501z"/>
</svg>
