<?xml version="1.0" encoding="utf-8"?>
<!-- Generator: Adobe Illustrator 16.0.0, SVG Export Plug-In . SVG Version: 6.00 Build 0)  -->
<!DOCTYPE svg PUBLIC "-//W3C//DTD SVG 1.1//EN" "http://www.w3.org/Graphics/SVG/1.1/DTD/svg11.dtd">
<svg version="1.1" id="Layer_1" xmlns="http://www.w3.org/2000/svg" xmlns:xlink="http://www.w3.org/1999/xlink" x="0px" y="0px"
	 viewBox="0 0 667.303 203.802"
	 xml:space="preserve">
<g>
	<path fill="#FFFFFF" d="M540.586,40.065l-0.057-0.133c0.02,0.005,0.018-0.169,0.043-0.162c0.023,0.005,0.01-0.349,0.031-0.351
		c0.002-0.001-0.689,0.067-0.924,0.09c0.316,0.077,0.593,0.372,0.883,0.606C540.572,40.114,540.577,40.067,540.586,40.065z"/>
	<path fill="#FFFFFF" d="M664.01,84.99c-1.737-0.798-3.656-1.307-5.541-1.584c-6.129-0.902-12.059-2.412-17.983-4.395
		c-6.347-2.119-12.965-4.093-19.788-1.93c-1.639,0.519-2.844-0.294-4.203-1.093c-1.711-1.006-3.616-1.659-5.443-2.455
		c0.064,0.19,0.127,0.382,0.189,0.572c-0.197-0.087-0.393-0.18-0.586-0.273c0.098-0.113,0.197-0.228,0.291-0.342
		c-3.082-1.559-9.107-2.241-10.545-1.324c0.01-0.007,0.012-0.017,0.022-0.022c-1.362-0.225-2.739-0.292-4.127-0.242
		c0.021,0.014,0.04,0.027,0.063,0.038c-0.029,3-2.574,7.094-6.518,10.767c3.936-3.669,6.473-7.758,6.501-10.753
		c-0.122-0.062-0.243-0.168-0.37-0.177c-0.545-0.042-1.098-0.104-1.638-0.065c-6.237,0.46-11.646-1.188-15.704-6.48
		c0,0,0-0.001-0.004-0.003l0.008,0.006c0,0-0.047-0.053-0.112-0.128c-0.784-0.999-1.704-1.892-2.612-2.781
		c-1.328-1.369-3.09-3.121-5.171-5.051c-4.98-5.895-11.024-10.342-18.032-13.501c0.013,0.008,0.027,0.017,0.039,0.025
		c-0.334-0.182-0.672-0.358-1.008-0.532c-0.09-0.077-0.162-0.172-0.258-0.243c-0.062-0.043-0.095-0.07-0.138-0.1
		c-0.151-0.083-0.296-0.168-0.452-0.241c-0.109-0.054-0.225-0.094-0.336-0.142c-0.059-0.012-0.139,0.031-0.26-0.001
		c-0.014-0.002-0.012,0.055-0.023,0.056c-0.033,0.004-0.066,0.007-0.099,0.01c-0.349,0.034-0.743-0.402-1.113-0.563
		c0.019-0.083,0.032-0.195,0.05-0.276c-1.355-0.538-2.731-1-4.143-1.277c-0.024-0.007-0.049-0.025-0.074-0.032l0.023,0.014
		c-1.299-0.252-2.625-0.347-3.992-0.25c-0.07-0.018-0.646,0.012-0.717-0.007c-0.01-0.003-0.539,0.042-0.539,0.037l-0.041-0.411
		l-0.029-0.321c0,0,0.035-0.003,0.082-0.008c-0.011-0.003-0.021-0.011-0.033-0.013c-6.76-1.266-13.547-1.459-20.322-0.402
		c-0.857,0.133-1.549,1.508-2.328,2.132c1.28-0.084,2.606,0.232,3.868,0.114c-0.71,0.065-1.43,0.042-2.126,0.315
		c-1.184,0.463-2.273,0.184-3.184-0.197c0.357-0.09,0.874-0.421,1.252-0.529c-4.977-7.222-12.393-10.735-19.871-14.108
		c0.004,0.038,0.014,0.033,0.02,0.069c-1.195-0.749-2.404-1.474-3.613-2.127c0.1-0.292,0.196-0.589,0.295-0.882
		c-2.365-0.963-4.666-2.211-7.109-2.845c-9.938-2.571-19.963-2.941-30.057-1.086c-9.43,1.731-18.115,5.161-25.775,11.196
		c-0.838,0.661-2.32,1.051-3.314,0.79c-4.234-1.111-8.119-0.423-11.956,1.505c-2.085,1.046-4.384,1.646-6.448,2.722
		c-3.034,1.583-5.997,3.354-7.689,6.528c-0.333-0.451-0.663-0.905-1.021-1.333c-2.305-2.752-5.36-4.442-8.514-5.806
		c-3.148-1.365-6.432-2.533-9.938-2.311c-1.366,0.085-2.327-0.645-3.394-1.29c-1.795-1.087-3.562-2.261-5.457-3.121
		c-3.564-1.617-7.139-3.279-10.844-4.461c-2.967-0.949-6.115-1.374-9.213-1.733c-3.293-0.377-6.697-0.941-9.918-0.47
		c-6.436,0.946-13.097,1.097-19.115,4.056c-1.046,0.514-2.097,1.019-3.146,1.528c-2.518-2.522-15.727-12.275-17.057-13.145
		c-8.316-5.44-16.793-10.833-26.539-12.947c-10.589-2.299-21.867-2.076-32.457-0.129c-11.915,2.187-22.886,6.521-32.563,14.143
		c-1.061,0.836-2.933,1.33-4.188,1c-5.35-1.404-10.259-0.537-15.107,1.9c-2.632,1.323-5.536,2.08-8.144,3.438
		c-4.171,2.174-8.255,4.603-10.26,9.318c-0.917,2.164-2.415,3.429-4.591,3.896c-4.22,0.907-8.442,1.84-12.683,2.639
		c-9.236,1.732-17.461,5.585-24.271,12.296c-3.7,3.642-6.146,8.131-7.299,13.316c-1.22,5.508-2.252,6.377-7.614,6.486
		c-16.856,0.339-31.964,7.36-43.845,19.593c-7.533,7.757-12.671,10.358-23.38,11.043c-1.729,0.11-3.471,0.312-5.186,0.167
		c-5.804-0.495-10.973,1.775-16.25,3.65c1.558,0.039-11.033,2.629-11.962,2.984c-3.079,1.175-6.188,2.31-9.141,3.777
		c-7.36,3.66-8.812,6.471-7.986,14.737c0.032,0.335,0.247,0.653,0.425,1.083c6.14,4.51,12.662,7.947,20.638,6.915
		c1.146-0.149,2.373,0.427,3.572,0.596c6.719,0.943,11.394,5.761,16.538,9.571c2.59,1.917,5.101,3.71,8.251,4.336
		c5.26,1.047,10.536,2.012,15.779,3.132c9.286,1.978,18.497,2.466,27.579-0.888c4.944-1.826,9.203-2.385,14.516,0.891
		c6.566,4.058,14.316,6.105,22.04,7.558c4.918,0.923,9.908,2.023,14.536,3.915c6.479,2.647,13.002,3.894,19.593,4.054
		c-0.729,0.429-1.459,0.856-2.185,1.286c-3.318,1.957-4.987,4.942-5.146,8.871c-0.041,0.977-0.13,1.948-0.201,2.986
		c-2.496,1.729-4.391,3.988-5.522,6.753c-2.347,0.817-4.622,1.494-6.808,2.396c-2.374,0.979-4.182,2.634-4.961,5.287
		c-0.556,1.896-0.481,2.249,1.183,3.352c1.354,0.898,2.675,1.892,4.124,2.587c2.472,1.185,5.121,1.539,7.788,0.92
		c3.188-0.738,6.171,0.091,9.23,0.895c2.659,0.694,5.413,1.331,8.13,1.377c5.211,0.088,10.435-0.16,15.641-0.465
		c3.674-0.217,7.329-0.756,10.994-1.15c2.549-0.275,5.087-0.623,7.485-1.609c1.499-0.619,2.916-0.621,4.377,0.203
		c3.194,1.797,6.721,2.047,10.24,2.203c3.789,0.166,7.585,0.323,11.376,0.303c2.452-0.016,4.905-0.3,7.346-0.566
		c2.829-0.305,5.642-0.736,8.466-1.086c0.845-0.105,1.699-0.143,2.549-0.193c0.566-0.032,1.198,0.139,1.686-0.069
		c4.301-1.822,9.095-1.915,13.307-4.048c1.828-0.928,3.356-2.209,4.497-3.9c1.711-2.529,0.987-5.697-1.571-7.37
		c-0.395-0.259-0.853-0.432-1.297-0.593c-0.655-0.238-1.443-0.523-1.113-1.354c0.2-0.5,0.939-1.038,1.475-1.082
		c4.133-0.337,8.264-1.247,12.406,0.233c2.875,1.027,5.827,1.813,8.744,2.709c0.092,0.026,0.179,0.09,0.27,0.096
		c3.817,0.268,7.365,1.789,11.069,2.594c6.109,1.324,12.321,1.635,18.404,0.906c5.278-0.634,10.138,0.76,15.132,1.639
		c3.19,0.56,6.333,1.07,9.585,1.188c3.579,0.13,7.134,0.919,10.703,1.391c1.498,0.198,3.023,0.545,4.508,0.432
		c5.959-0.453,11.908-1.06,17.859-1.617c0.473-0.045,0.949-0.11,1.403-0.238c3.464-0.99,6.886-2.191,10.397-2.957
		c4.686-1.02,8.928-3.189,13.346-4.903c0.789-0.307,1.537-0.766,2.238-1.252c2.49-1.732,5.111-2.167,8.092-1.44
		c2.844,0.695,5.748,1.199,8.73,0.802c1.396-0.188,2.878-0.155,4.264,0.107c4.482,0.85,8.904,0.186,13.322-0.316
		c4.234-0.48,8.464-1.058,12.658-1.8c4.949-0.877,9.893-1.83,14.773-3.015c8.477-2.062,16.844-4.522,25.078-7.448
		c3.127-1.109,6.4-1.792,9.619-2.623c2.199-0.567,4.396-1.17,6.629-1.536c1.07-0.175,2.275-0.01,3.328,0.312
		c2.817,0.867,5.627,1.805,8.371,2.895c2.629,1.045,5.398,0.998,8.1,1.443c2.619,0.434,5.303,0.435,7.941,0.754
		c6.744,0.818,13.457,0.582,20.16-0.304c0.939-0.122,1.891-0.235,2.836-0.235c3.053-0.002,6.006-0.375,8.971-1.273
		c3.625-1.093,7.406-1.636,11.107-2.479c3.045-0.693,6.094-1.396,9.1-2.249c2.268-0.642,4.539-1.377,6.686-2.353
		c2.059-0.936,3.998-2.164,5.918-3.392c1.812-1.159,3.953-1.921,4.907-4.222c0.159-0.387,0.974-0.498,1.5-0.705
		c3.806-1.507,7.567-3.094,10.935-5.517c0.383-0.275,0.824-0.534,1.271-0.631c3.338-0.705,6.656-1.653,10.032-1.964
		c3.279-0.3,6.194-1.789,9.37-2.334c0.395-0.067,0.744-0.546,1.066-0.881c0.332-0.34,0.533-0.855,0.908-1.09
		c2.766-1.73,3.092-4.623,3.335-7.521c0.044-0.495-0.282-1.132-0.622-1.542c-1.303-1.56-2.605-3.131-4.045-4.552
		c-1.634-1.612-3.709-2.43-5.914-2.709c-2.824-0.361-5.668-0.641-8.51-0.785c-2.201-0.111-4.309-0.43-6.418-1.174
		c-2.149-0.758-4.41-1.18-6.623-1.734c-0.555-0.139-1.123-0.221-1.684-0.326c-2.189-0.421-3.698-1.316-4.704-3.379
		c8.249-0.998,16.305-3.055,24.188-5.783c6.721-2.322,13.035-5.442,15.586-13.16c0.074-0.223,0.401-0.358,1.053-0.905
		c2.804-0.131,6.07-0.227,9.322-0.456c2.323-0.165,4.734-0.158,6.916-0.859c2.41-0.777,4.87-1.928,6.834-3.541
		C668.464,90.633,667.815,86.738,664.01,84.99z"/>
</g>
</svg>
