<?xml version="1.0" encoding="utf-8"?>
<!-- Generator: Adobe Illustrator 16.0.0, SVG Export Plug-In . SVG Version: 6.00 Build 0)  -->
<!DOCTYPE svg PUBLIC "-//W3C//DTD SVG 1.1//EN" "http://www.w3.org/Graphics/SVG/1.1/DTD/svg11.dtd">
<svg version="1.1" id="Layer_1" xmlns="http://www.w3.org/2000/svg" xmlns:xlink="http://www.w3.org/1999/xlink" x="0px" y="0px"
	 viewBox="0 0 428.522 155.291" enable-background="new 0 0 428.522 155.291"
	 xml:space="preserve">
<path opacity="0.8" fill="#FFFFFF" d="M381.548,122.22c3.122-0.272,6.261-0.426,9.362-0.844c4.396-0.594,8.797-1.235,13.133-2.146
	c2.261-0.476,4.458-1.433,6.564-2.424c2.423-1.142,4.78-2.292,7.56-2.21c2.328,0.071,4.481-0.645,6.354-1.998
	c1.096-0.796,2.039-1.812,3.025-2.755c1.21-1.159,1.217-1.455,0.445-2.898c-1.078-2.018-2.854-3.061-4.994-3.47
	c-1.971-0.375-3.977-0.557-6.068-0.837c-1.393-2.051-3.338-3.568-5.699-4.562c-0.228-0.827-0.458-1.598-0.649-2.379
	c-0.767-3.147-2.642-5.288-5.726-6.336c-1.897-0.644-3.798-1.279-5.738-1.935c-0.603-1.715-1.154-3.48-1.845-5.19
	c-0.479-1.188-1.022-2.388-1.759-3.427c-1.065-1.503-2.254-2.94-3.534-4.268c-1.054-1.088-2.288-2.008-3.49-2.938
	c-1.147-0.889-2.343-1.714-3.545-2.525c-1.134-0.767-2.253-1.581-3.47-2.196c-3.454-1.754-7.026-3.242-10.73-4.4
	c-2.876-0.898-5.863-1.73-8.795-0.851c-2.398,0.72-4.22,0.37-5.932-1.297c-0.23-0.223-0.512-0.394-0.778-0.578
	c-2.976-2.059-6.128-3.587-9.882-3.415c-1.896,0.088-3.795,0.12-5.83,0.18c-0.072-0.742-0.018-1.647-0.262-2.465
	c-1.809-6.075-5.141-10.948-11.162-13.534c-2.519-1.084-5.092-2.068-7.701-2.915c-3.168-1.027-6.446-1.454-9.797-1.191
	c-1.674,0.133-3.354,0.216-5.044,0.322c-0.248-0.488-0.464-0.827-0.6-1.193c-1.319-3.56-3.63-6.472-6.178-9.179
	c-1.943-2.065-4.19-3.8-6.938-4.745c-2.357-0.812-4.696-1.69-7.074-2.44c-0.985-0.311-1.755-0.67-2.128-1.728
	c-0.421-1.206-1.441-1.939-2.472-2.578c-3.424-2.13-7.154-3.21-11.092-3.08c-1.033-1.037-1.95-2.055-2.971-2.959
	c-2.014-1.784-4.5-2.759-6.871-3.955c-4.085-2.059-8.5-2.997-12.86-4.119c-5.501-1.42-11.086-0.468-16.61-0.192
	c-2.764,0.138-5.516,1.142-8.201,1.978c-2.53,0.79-5.09,1.643-7.414,2.886c-2.902,1.553-5.617,3.471-8.33,5.352
	c-1.444,1-2.731,2.232-4.054,3.399c-0.785,0.693-1.47,1.438-2.625,1.589c-2.962,0.388-5.515,1.86-7.924,3.47
	c-2.412,1.611-4.691,3.468-6.171,6.062c-0.638,1.118-1.137,2.317-1.736,3.459c-1.099,2.09-3.323,4.25-5.117,5.74
	c-3.26,2.704-7.005,5.006-8.538,9.327c-0.339,0.955-1.091,1.496-2.183,1.674c-1.541,0.249-2.918,1.004-4.061,2.049
	c-2.205,2.012-4.409,4.045-5.593,6.897c-0.401,0.966-0.85,1.912-1.38,3.105c-2.573,0.657-4.895,1.755-7.023,3.263
	c-1.843,1.306-3.706,2.586-5.517,3.935c-0.837,0.622-1.623,1.335-2.349,2.088c-4.579,4.778-7.352,10.555-9.224,16.82
	c-0.163,0.539-0.245,1.102-0.336,1.659c-0.563,3.464-0.556,3.52-4.108,3.866c-4.419,0.431-8.303,1.937-11.38,5.247
	c-0.58,0.621-1.29,0.987-2.155,0.91c-3.221-0.286-5.873,1.151-8.164,3.096c-1.467,1.247-2.765,1.344-4.411,0.788
	c-2.246-0.761-4.557-1.116-6.908-0.525c-1.22,0.305-1.956-0.226-2.657-1.146c-1.124-1.471-2.388-2.832-3.52-4.298
	c-1.982-2.565-4.772-3.9-7.747-4.63c-5.985-1.466-11.691-0.58-16.921,2.825c-0.474,0.31-0.909,0.699-1.421,0.92
	c-2.793,1.211-4.662,3.405-6.294,5.844c-0.757,1.134-1.181,2.689-2.208,3.393c-1.114,0.764-2.763,0.736-4.166,1.102
	c-3.523,0.921-6.653,2.573-8.938,5.453c-1.062,1.34-2.242,2.095-3.887,2.569c-3.948,1.145-6.744,3.791-7.314,7.883
	c-0.349,2.509-1.535,3.686-3.595,4.497c-0.449,0.176-0.911,0.334-1.351,0.535c-1.759,0.805-3.577,1.511-5.25,2.47
	c-1.64,0.94-3.349,1.538-5.168,1.982c-2.349,0.574-4.676,1.259-6.977,2.005c-1.796,0.582-3.397,1.577-4.5,3.141
	c-0.973,1.381-1.807,2.859-2.644,4.33c-0.218,0.386-0.387,0.953-0.271,1.345c0.671,2.302,1.41,4.587,3.996,5.536
	c0.35,0.13,0.604,0.515,0.934,0.734c0.325,0.219,0.693,0.549,1.034,0.539c2.739-0.072,5.412,0.661,8.197,0.375
	c2.87-0.295,5.792-0.062,8.691-0.033c0.39,0.006,0.799,0.145,1.164,0.306c3.203,1.413,6.598,2.089,10.019,2.69
	c0.471,0.084,1.17,0.042,1.366,0.328c1.166,1.705,3.076,1.976,4.776,2.619c1.799,0.682,3.617,1.36,5.486,1.783
	c1.95,0.442,3.964,0.67,5.96,0.823c2.647,0.203,5.305,0.279,7.96,0.348c3.224,0.084,6.468-0.088,9.67,0.211
	c2.621,0.246,5.145,0.072,7.694-0.417c0.789-0.153,1.601-0.216,2.405-0.269c5.739-0.364,11.381-1.257,16.878-3.005
	c2.151-0.684,4.391-1.117,6.507-1.891c2.183-0.795,4.503-1.204,6.529-2.471c2.115-1.323,4.309-2.535,6.522-3.688
	c0.827-0.431,1.805-0.758,2.727-0.789c1.923-0.065,3.855,0.066,5.781,0.172c2.821,0.152,5.664,0.175,8.453,0.567
	c7.346,1.034,14.728,1.672,22.135,1.971c4.267,0.171,8.546,0.143,12.819,0.053c3.621-0.076,7.245-0.293,10.857-0.589
	c3.768-0.306,7.567-0.484,11.172-1.893c1.115-0.436,2.346-0.701,3.542-0.775c2.553-0.158,4.896-1.032,7.158-2.054
	c2.371-1.067,4.629-1.14,6.986-0.143c0.665,0.28,1.363,0.53,2.072,0.65c3.964,0.673,7.855,1.74,11.931,1.808
	c3.056,0.052,6.104,0.471,9.155,0.711c0.402,0.031,0.809,0.008,1.21-0.033c5.058-0.509,10.122-0.979,15.17-1.574
	c1.257-0.147,2.475-0.674,3.693-1.076c2.901-0.955,5.743-2.166,8.71-2.848c2.696-0.618,5.237-1.538,7.81-2.505
	c4.027-1.515,7.86-3.424,12.369-3.763c5.195-0.394,10.329-1.646,15.216-3.701c2.963-1.246,5.679-3.047,8.821-3.879
	c0.076-0.019,0.14-0.085,0.209-0.121c2.292-1.194,4.63-2.304,6.863-3.599c3.218-1.862,6.813-1.794,10.319-2.188
	c0.453-0.052,1.158,0.265,1.405,0.636c0.41,0.618-0.202,0.976-0.71,1.271c-0.347,0.203-0.7,0.417-0.987,0.689
	c-1.866,1.765-1.96,4.438-0.125,6.205c1.226,1.183,2.708,1.972,4.385,2.426c3.859,1.043,7.877,0.345,11.761,1.122
	c0.439,0.09,0.941-0.149,1.418-0.216c0.719-0.097,1.438-0.203,2.16-0.255c2.412-0.173,4.832-0.278,7.242-0.487
	c2.079-0.179,4.173-0.345,6.223-0.728c3.167-0.595,6.311-1.334,9.448-2.08c2.912-0.691,5.815-1.465,8.191-3.431
	c1.089-0.9,2.271-1.126,3.621-0.87C377.202,122.539,379.375,122.41,381.548,122.22z"/>
</svg>
