<?xml version="1.0" encoding="utf-8"?>
<!-- Generator: Adobe Illustrator 16.0.0, SVG Export Plug-In . SVG Version: 6.00 Build 0)  -->
<!DOCTYPE svg PUBLIC "-//W3C//DTD SVG 1.1//EN" "http://www.w3.org/Graphics/SVG/1.1/DTD/svg11.dtd">
<svg version="1.1" id="Layer_1" xmlns="http://www.w3.org/2000/svg" xmlns:xlink="http://www.w3.org/1999/xlink" x="0px" y="0px"
	 viewBox="0 0 802.33 301.91" xml:space="preserve">
<path fill="#FFFFFF" d="M802.012,206.56c-0.185-1.18-0.788-2.185-1.615-3.094c-2.762-3.031-6.156-5.256-10.288-6.711
	c0.091-0.438,0.1-0.875,0.275-1.246c1.454-3.086,1.659-6.333,1.353-9.516c-0.158-1.637-1.013-3.349-2.049-4.695
	c-1.59-2.061-3.382-4.016-5.711-5.489c-2.257-1.431-4.664-1.911-7.383-1.36c-0.578,0.119-1.162,0.209-1.83,0.329
	c-0.496-0.816-0.951-1.546-1.389-2.288c-0.745-1.266-1.752-2.258-3.213-2.848c-0.724-0.293-1.417-0.662-2.074-1.065
	c-1.075-0.657-2.229-1.075-3.556-0.974c-0.991,0.075-1.604-0.309-2.102-1.064c-1.863-2.822-4.493-4.894-7.679-6.365
	c-2.696-1.244-5.67-1.665-8.648-1.996c-1.519-0.168-3.073-0.113-4.599-0.252c-2.18-0.198-4.278,0.197-6.345,0.832
	c-3.545,1.093-6.885,2.646-10.191,4.27c-0.352,0.173-0.709,0.338-1.214,0.578c-0.275-0.479-0.541-0.873-0.743-1.297
	c-0.954-1.989-2.203-3.717-4.345-4.811c-0.576-0.291-1.069-0.928-1.306-1.516c-1.129-2.812-3.48-4.504-6.115-5.969
	c-0.395-0.219-0.811-0.406-1.207-0.624c-0.102-0.058-0.16-0.188-0.279-0.336c1.581-5.405-0.01-10.043-4.023-14.199
	c0.965-0.362,1.756-0.667,2.554-0.956c1.921-0.698,3.705-1.604,4.971-3.182c1.023-1.273,2.287-1.651,3.892-1.333
	c3.532,0.698,6.745-0.114,9.75-2.07c0.689-0.449,1.594-0.618,2.409-0.886c2.485-0.814,5.061-1.437,7.439-2.47
	c2.176-0.95,3.677-2.64,4.772-4.734c1.604-3.064,1.397-5.879,0.283-8.953c-1.001-2.762-2.406-4.976-5.213-6.324
	c-0.768-0.367-1.04-1.009-1.201-1.781c-0.43-2.059-1.058-4.047-2.383-5.781c-2.393-3.128-5.799-5.017-9.722-5.876
	c-2.831-0.62-5.86-0.315-8.586,1.2c-0.583,0.322-1.185,0.618-1.79,0.901c-1.804,0.842-3.312,1.974-4.331,3.622
	c-0.194,0.317-0.46,0.599-0.792,1.027c-0.327-0.355-0.567-0.604-0.793-0.863c-0.61-0.7-1.133-1.484-1.847-2.078
	c-0.539-0.451-0.785-0.9-0.833-1.558c-0.277-3.91-2.26-6.968-5.358-9.451c-1.039-0.833-2.039-1.681-3.394-2.154
	c-0.571-0.202-0.983-0.912-1.318-1.473c-1.407-2.348-3.496-3.945-6.266-4.714c-1.053-0.293-2.225-0.26-3.6-0.404
	c-0.071-0.559-0.219-1.201-0.227-1.851c-0.034-2.811-0.893-5.331-2.727-7.521c-0.965-1.151-1.865-2.364-2.955-3.408
	c-2.818-2.702-6.448-4.137-10.344-5.078c-1.988-0.479-3.998-0.864-6.119-0.74c-3.579,0.21-6.338,1.623-8.027,4.66
	c-0.396,0.711-0.851,1.198-1.724,1.458c-0.676,0.199-1.306,0.641-1.878,1.069c-1.846,1.383-3.551,2.892-4.867,4.751
	c-0.831,1.175-1.973,1.677-3.555,1.789c-2.793,0.198-5.572,0.714-8.619,1.131c-0.293-0.666-0.668-1.489-1.023-2.32
	c-0.653-1.533-1.202-3.114-1.958-4.599c-1.642-3.228-4.534-5.468-7.326-7.787c-4.27-3.545-9.619-4.893-15.071-6.12
	c-3.779-0.849-7.546-0.729-11.336,0.09c-1.23,0.266-2.405,0.809-3.594,1.255c-0.732,0.276-1.441,0.606-2.364,0.998
	c2.495-12.038-2.015-21.088-11.886-28.032c0.099-1.13,0.325-2.301,0.275-3.45c-0.119-2.738-1.113-5.056-3.986-6.246
	c-0.773-0.323-0.998-0.916-1.174-1.581c-1.285-4.884-8.917-11.751-16.313-11.5c-3.854,0.134-7.809,0.297-11.314,2.338
	c-0.881,0.513-1.626,0.449-2.375-0.124c-2.838-2.17-6.277-2.883-9.868-3.469c-4.293-0.702-8.377,0.041-12.513,1.083
	c-2.648,0.664-5.087,1.706-7.328,3.188c-1.553,1.027-3.32,1.87-4.593,3.136c-1.492,1.479-3.092,2.186-5.178,2.555
	c-2.357,0.417-4.348,1.686-5.807,3.588c-0.371,0.486-0.912,0.91-1.463,1.228c-4.249,2.467-7.069,5.87-8.123,10.383
	c-0.208,0.887-0.658,1.269-1.508,1.534c-1.085,0.343-2.179,0.707-3.199,1.195c-3.412,1.635-5.475,5.259-5.033,8.721
	c0.055,0.423,0.142,0.84,0.242,1.425c-0.767,0.287-1.492,0.603-2.247,0.834c-2.968,0.911-5.384,2.627-7.645,4.576
	c-0.448,0.388-0.886,0.786-1.352,1.154c-1.397,1.101-2.359,2.428-2.747,4.089c-0.127,0.545-0.378,1.07-0.539,1.611
	c-0.285,0.95-0.869,1.656-1.775,2.215c-0.789,0.483-1.516,1.072-2.203,1.68c-2.161,1.907-2.735,4.257-2.359,6.838
	c0.008,0.053,0.018,0.107,0.027,0.162c-0.19,0.517-0.485,1.008-0.93,1.474c-0.026,0.026-0.057,0.047-0.086,0.071
	c0.008,0.002,0.014,0.002,0.021,0.005c-1.393-0.285-2.888-0.343-4.477-0.172c-4.9,0.526-9.191,2.423-12.98,5.382
	c-0.655,0.511-1.134,1.234-1.64,1.893c-1.775,2.322-3.542,4.656-3.784,7.588c-0.092,1.101-0.131,2.203-0.205,3.482
	c-0.365,0.178-0.907,0.417-1.428,0.688c-2.17,1.129-3.816,2.64-4.221,5.009c-0.17,0.983-0.664,1.545-1.688,2.105
	c-4.609,2.518-8.23,5.958-10.67,10.417c-1.832,3.351-2.875,6.884-3.507,10.523c-0.31,1.791-0.311,1.843-2.229,1.972
	c-3.977,0.274-7.867,0.926-11.545,2.547c-3.203,1.41-6.274,3.064-8.984,5.19c-0.688,0.54-1.323,1.146-1.956,1.782
	c-4.5-2.208-9.307-3.435-14.604-3.106c-1.35,0.083-2.827-0.166-4.065-0.763c-5.531-2.668-11.237-4.438-17.147-5.706
	c-2.929-0.63-5.756-0.801-8.494-0.556c0.011-0.688,0.029-1.431-0.11-2.13c-1.437-7.216-4.468-13.102-10.324-16.445
	c-2.449-1.401-4.959-2.688-7.513-3.816c-3.102-1.368-6.35-2.039-9.711-1.904c-1.68,0.069-3.363,0.079-5.057,0.116
	c-0.218-0.585-0.414-0.994-0.526-1.43c-1.102-4.241-3.232-7.775-5.611-11.081c-1.815-2.522-3.954-4.672-6.641-5.922
	c-2.305-1.075-4.587-2.225-6.917-3.228c-0.965-0.415-1.712-0.876-2.02-2.135c-0.347-1.436-1.322-2.348-2.312-3.15
	c-3.29-2.674-6.949-4.134-10.89-4.186c-0.968-1.269-1.822-2.509-2.787-3.623c-1.902-2.196-4.325-3.467-6.621-4.993
	c-3.954-2.625-8.306-3.954-12.593-5.495c-5.407-1.95-11.042-1.123-16.576-1.086c-2.769,0.019-5.577,1.053-8.311,1.894
	c-2.575,0.795-5.182,1.662-7.579,2.999c-2.993,1.67-5.821,3.778-8.645,5.843c-1.503,1.097-2.863,2.475-4.256,3.775
	c-0.825,0.772-1.555,1.609-2.717,1.727c-2.982,0.301-5.621,1.895-8.125,3.657c-2.507,1.765-4.896,3.823-6.531,6.787
	c-0.705,1.277-1.276,2.658-1.943,3.965c-1.225,2.392-3.577,4.81-5.459,6.464c-3.42,3.001-7.3,5.506-9.094,10.492
	c-0.396,1.102-1.181,1.697-2.282,1.849c-1.554,0.212-2.975,1.025-4.18,2.191c-2.325,2.244-4.649,4.514-6.005,7.796
	c-0.459,1.112-0.965,2.198-1.566,3.569c-2.609,0.637-4.996,1.804-7.212,3.461c-1.919,1.436-3.858,2.84-5.749,4.327
	c-0.874,0.686-1.702,1.481-2.473,2.326c-4.863,5.365-7.983,11.992-10.234,19.241c-0.195,0.624-0.312,1.279-0.437,1.928
	c-0.773,4.032-0.77,4.097-4.338,4.32c-4.44,0.276-8.41,1.84-11.685,5.562c-0.617,0.698-1.349,1.091-2.208,0.956
	c-3.198-0.502-5.935,1.045-8.341,3.207c-1.541,1.385-2.843,1.432-4.453,0.695c-2.197-1.008-4.483-1.545-6.867-0.974
	c-1.236,0.294-1.939-0.366-2.584-1.482c-1.032-1.782-2.212-3.444-3.254-5.221c-1.824-3.11-4.528-4.82-7.455-5.829
	c-5.888-2.028-11.64-1.286-17.07,2.436c-0.492,0.338-0.951,0.772-1.475,1.004c-2.863,1.275-4.863,3.75-6.641,6.525
	c-0.825,1.29-1.342,3.092-2.412,3.863c-1.16,0.837-2.804,0.72-4.227,1.076c-3.574,0.896-6.801,2.672-9.257,5.93
	c-1.142,1.516-2.366,2.34-4.038,2.811c-4.013,1.138-6.965,4.096-7.784,8.863c-0.5,2.922-1.756,4.24-3.863,5.086
	c-0.459,0.182-0.93,0.344-1.382,0.557c-1.806,0.852-3.664,1.586-5.394,2.623c-1.694,1.018-3.438,1.63-5.281,2.057
	c-2.38,0.552-4.746,1.234-7.09,1.988c-1.829,0.59-3.488,1.674-4.685,3.449c-1.056,1.568-1.979,3.259-2.903,4.939
	c-0.24,0.441-0.444,1.098-0.352,1.562c0.53,2.732,1.129,5.451,3.654,6.697c0.342,0.17,0.571,0.635,0.889,0.909
	c0.31,0.273,0.658,0.679,0.999,0.686c2.74,0.058,5.364,1.056,8.163,0.864c2.884-0.197,5.789,0.227,8.681,0.412
	c0.39,0.026,0.79,0.21,1.144,0.418c3.112,1.822,6.461,2.79,9.841,3.672c0.465,0.124,1.166,0.111,1.345,0.457
	c1.061,2.059,2.952,2.475,4.61,3.317c1.756,0.892,3.53,1.782,5.371,2.375c1.92,0.619,3.917,0.99,5.902,1.273
	c2.631,0.376,5.281,0.603,7.928,0.819c3.214,0.267,6.464,0.232,9.645,0.749c2.602,0.425,5.134,0.352,7.709-0.091
	c0.797-0.139,1.612-0.17,2.418-0.189c5.753-0.13,11.442-0.885,17.038-2.648c2.19-0.689,4.453-1.082,6.613-1.88
	c2.229-0.818,4.57-1.179,6.67-2.558c2.193-1.442,4.457-2.749,6.738-3.984c0.852-0.463,1.85-0.795,2.771-0.785
	c1.925,0.023,3.846,0.278,5.763,0.501c2.808,0.325,5.646,0.499,8.407,1.104c7.273,1.593,14.607,2.724,21.985,3.457
	c4.251,0.421,8.526,0.61,12.799,0.726c3.621,0.099,7.254,0.032,10.879-0.127c3.781-0.164,7.586-0.177,11.272-1.641
	c1.14-0.453,2.385-0.701,3.584-0.726c2.559-0.053,4.953-0.956,7.273-2.036c0.146-0.068,0.291-0.118,0.436-0.178
	c0.174,0.08,0.338,0.174,0.473,0.301c2.036,1.936,4.048,3.961,5.815,6.227c2.556,3.278,4.742,6.965,7.369,10.152
	c1.814,2.201,4.029,3.996,6.216,5.711c1.56,1.225,3.51,1.781,5.036,3.047c3.32,2.754,6.919,3.453,10.87,2.588
	c2.135-0.467,4.143-0.652,4.666,2.75c0.095,0.603,0.746,1.125,1.211,1.586c1.535,1.521,3.101,3.004,4.666,4.487
	c0.48,0.459,0.949,0.993,1.507,1.28c7.281,3.795,14.713,7.16,22.373,9.779c4.151,1.414,8.375,2.183,12.806,1.019
	c3.897-1.024,6.575,0.857,8.388,5.318c2.108-0.202,4.144,0.089,5.792,2.144c0.627,0.781,1.823,0.909,2.737,1.404
	c1.245,0.677,2.581,1.237,3.666,2.18c1.669,1.453,3.247,2.695,5.528,2.279c1.429-0.262,2.79,0.355,3.624,1.896
	c0.835,1.54,1.978,1.502,3.344,1.143c1.854-0.483,3.738-0.854,5.625-1.102c3.93-0.51,7.876-0.731,11.659-2.412
	c1.816-0.807,3.686-0.678,5.634-0.248c3.226,0.711,6.524,1.059,9.805,1.372c2.506,0.24,5.037,0.241,7.558,0.241
	c0.741-0.002,1.597-0.154,2.21-0.601c3.101-2.261,6.596-3.028,9.971-4.358c5.431-2.133,10.713-5.173,15.027-9.83
	c2.187-2.365,4.468-3.125,7.304-2.994c2.258,0.106,4.555,0.241,6.817,0.119c6.506,9.654,17.827,12.32,29.449,7.342
	c6.456-2.768,12.445,3.977,9.791,10.205c-1.492,3.504-2.646,7.074-3.19,10.535c13.152,10.05,25.789,20.975,42.577,23.49
	c1.062,0.158,1.986,0.5,2.779,0.979c1.313-0.046,2.63-0.096,3.944-0.135c1.002-0.028,2.003-0.004,3.005-0.023
	c0.393-0.008,0.791-0.038,1.177-0.11c2.638-0.502,5.271-1.028,7.909-1.515c0.379-0.066,0.82-0.043,1.173,0.078
	c2.857,0.966,5.873,1.408,8.84,2.01c3.643,0.74,7.336,1.078,11.105,0.812c2.33-0.166,4.662-0.018,6.996-0.418
	c0.896-0.152,1.859,0.012,2.779,0.109c1.225,0.129,1.235,0.157,1.81-1.095c-0.499,0.009-0.975-0.046-1.44-0.124
	c0.482-0.234,0.979-0.44,1.488-0.605c-0.021-0.008-0.043-0.018-0.065-0.027c0.122,0.051,0.246,0.104,0.368,0.15
	c-0.104,0.194-0.203,0.386-0.303,0.574c0.84-0.147,1.684-0.273,2.516-0.454c0.719-0.158,1.426-0.37,2.129-0.583
	c0.504-0.156,1.107-0.241,1.471-0.553c1.754-1.502,3.847-2.318,6.074-2.885c0.51-0.129,1.065-0.206,1.582-0.163
	c2.123,0.177,4.23,0.49,6.36,0.591c1.658,0.081,3.341-0.031,5.01-0.139c2.195-0.141,4.388-0.344,6.577-0.561
	c0.451-0.044,0.881-0.305,1.334-0.403c0.784-0.169,1.59-0.411,2.367-0.396c0.98,0.023,1.936,0.428,2.877-0.298
	c0.168-0.128,0.646,0.001,0.936,0.109c1.569,0.593,3.242,0.683,4.916,0.636c2.201-0.059,4.398,0.062,6.611-0.373
	c1.079-0.215,2.262-0.006,3.377,0.129c0.948,0.113,1.785,0.02,2.731-0.275c1.655-0.515,3.429-0.658,5.104-1.126
	c2.52-0.701,4.996-1.544,7.488-2.338c0.382-0.122,0.734-0.354,1.121-0.442c3.182-0.737,4.259-4.057,3.6-6.181
	c-0.909-2.94-2.892-4.9-5.833-6.021c-1.696-0.647-3.515-1.087-5.327-1.431c-0.929-0.174-1.985-0.031-2.953,0.141
	c-1.198,0.209-2.238,0.211-3.118-0.659c-0.351-0.348-0.816-0.735-1.292-0.806c-2.438-0.364-3.177-2.143-3.89-3.912
	c-1.091-2.707-2.876-4.9-5.271-6.709c-4.942-3.734-10.636-5.22-17.104-4.407c-1.396,0.175-2.797,0.364-4.171,0.659
	c-1.862,0.398-3.199,1.595-4.471,2.849c-0.321,0.316-0.67,0.608-0.879,0.797c-2.583-0.733-5.025-1.426-7.461-2.118
	c-0.963-3.248-1.419-3.569-4.755-5.076c-3.662-1.654-7.299-1.559-10.953-0.018c-0.228-0.047-0.386-0.034-0.478-0.104
	c-2.345-1.789-2.234-1.585-1.165-4.335c0.29-0.749,0.858-1.421,1.308-2.125c1.729-2.69,2.571-5.563,1.899-8.579
	c-0.625-2.812-1.007-5.715-2.458-8.299c-0.448-0.805-0.901-1.602-1.439-2.552c0.502-0.07,0.922-0.183,1.338-0.179
	c2.341,0.01,4.662-0.271,6.982-0.593c2.458-0.343,4.919-0.675,7.372-1.06c1.653-0.26,3.295-0.787,4.944-0.852
	c2.065-0.08,3.892-0.872,5.827-1.338c0.548-0.132,1.175-0.072,1.74,0.015c1.7,0.256,3.392,0.548,5.079,0.865
	c1.357,0.256,2.701,0.564,4.172,0.875c0.22-0.358,0.429-1.099,0.682-1.111c0.492-0.026,1.015-0.054,1.613-0.085
	c0,0,0.084,0.44-0.001,0.551c-1.161,1.52-1.86,3.196-2.102,5.086c-1.84,0.465-3.112,1.494-3.847,3.107
	c-1.025,2.249-0.562,4.264,0.9,6.08c1.311,1.629,3.337,2.271,5.293,3.041c6.546,2.58,13.372,2.207,20.286,1.095
	c1.365-0.219,2.785-0.077,4.093-0.767c0.295-0.156,0.895,0.062,1.279,0.24c0.586,0.271,1.174,0.594,1.641,1.008
	c1.707,1.528,3.758,2.432,6.086,2.879c0.115,0.021,0.209,0.131,0.388,0.25c-0.085,0.201-0.132,0.455-0.28,0.642
	c-2.145,2.698-2.286,5.676-1.796,8.743c0.028,0.182,0.104,0.359,0.12,0.541c0.441,5.437,4.659,7.541,9.429,9.156
	c2.948,0.118,5.205,1.467,7.367,3.13c0.919,0.709,2.206,1.019,3.343,1.479c0.604,0.243,1.26,0.378,1.858,0.628
	c3.194,1.33,6.565,1.873,10.115,1.705c1.733-0.083,3.47-0.096,5.386-0.143c0.301-0.686,0.906-1.311,1.945-1.381
	c0.856-0.057,1.713-0.092,2.646-0.143c0.06-0.275,0.092-0.51,0.162-0.737c0.344-1.138,1.186-1.661,2.368-1.397
	c0.967,0.214,1.922,0.484,2.855,0.79c3.386,1.114,6.821,1.872,10.531,1.544c1.307-0.115,2.643,0.172,3.959,0.314
	c0.665,0.072,1.425,0.313,1.875-0.287c0.843-1.128,1.984-1.207,3.218-1.098c0.706,0.062,1.243,0.036,1.689-0.678
	c0.262-0.418,0.911-0.745,1.45-0.9c2.338-0.68,4.402-1.738,6.303-3.031c1.364-5.217,4.202-9.666,7.907-14.148
	c13.081-15.824,34.819-20.999,54.255-22.804c3.753-0.349,7.364,0.254,10.706,1.56c5.582-4.836,13.447-7.56,20.294-7.56
	c5.206,0,9.953,1.338,14.249,3.708c0.225-0.069,0.448-0.143,0.672-0.215c0.932-0.485,1.841-1.01,2.73-1.566
	c0.371-0.365,0.735-0.738,1.094-1.123c4.086-4.39,9.367-7.068,14.973-8.158c0.228-0.315,0.444-0.641,0.675-0.953
	c0.191-0.262,0.279-0.675,0.53-0.789c1.363-0.631,1.5-1.85,2.042-2.955C802.625,212.165,802.451,209.382,802.012,206.56z
	 M525.829,300.031c0.263,0.077,0.528,0.143,0.8,0.198C526.358,300.173,526.091,300.109,525.829,300.031z M525.359,299.884
	c-0.128-0.044-0.257-0.089-0.383-0.137C525.104,299.795,525.231,299.84,525.359,299.884z M516.865,295.732c0-0.002,0-0.002,0-0.002
	c1.848,1.045,3.596,1.962,5.229,2.729C520.46,297.692,518.713,296.775,516.865,295.732z"/>
</svg>
