<?xml version="1.0" encoding="utf-8"?>
<!-- Generator: Adobe Illustrator 16.0.0, SVG Export Plug-In . SVG Version: 6.00 Build 0)  -->
<!DOCTYPE svg PUBLIC "-//W3C//DTD SVG 1.1//EN" "http://www.w3.org/Graphics/SVG/1.1/DTD/svg11.dtd">
<svg version="1.1" id="Layer_1" xmlns="http://www.w3.org/2000/svg" xmlns:xlink="http://www.w3.org/1999/xlink" x="0px" y="0px"
	 viewBox="0 0 496.472 169.568"
	 xml:space="preserve">
<path opacity="0.5" fill="#FFFFFF" d="M441.51,143.569c3.619-0.193,7.252-0.25,10.857-0.61c5.105-0.509,10.221-1.073,15.275-1.944
	c2.637-0.455,5.221-1.457,7.705-2.5c2.857-1.202,5.639-2.418,8.846-2.223c2.684,0.166,5.207-0.562,7.439-2.025
	c1.307-0.86,2.449-1.975,3.636-3.006c1.456-1.268,1.479-1.602,0.661-3.263c-1.142-2.322-3.139-3.569-5.59-4.11
	c-2.258-0.498-4.565-0.776-6.967-1.172c-1.502-2.371-3.672-4.161-6.35-5.373c-0.221-0.944-0.449-1.826-0.629-2.717
	c-0.725-3.59-2.779-6.082-6.291-7.381c-2.156-0.799-4.318-1.588-6.527-2.399c-0.607-1.964-1.156-3.982-1.865-5.942
	c-0.492-1.363-1.061-2.741-1.857-3.943c-1.152-1.74-2.453-3.41-3.863-4.961c-1.16-1.268-2.539-2.355-3.882-3.452
	c-1.278-1.048-2.616-2.026-3.964-2.99c-1.271-0.908-2.523-1.87-3.896-2.612c-3.9-2.113-7.949-3.929-12.169-5.375
	c-3.275-1.124-6.684-2.177-10.114-1.288c-2.807,0.727-4.892,0.263-6.785-1.688c-0.253-0.26-0.57-0.463-0.867-0.683
	c-3.332-2.439-6.895-4.285-11.238-4.229c-2.195,0.029-4.391-0.004-6.744-0.012c-0.045-0.843,0.062-1.864-0.176-2.799
	c-1.779-6.942-5.379-12.578-12.201-15.728c-2.854-1.319-5.777-2.528-8.746-3.581c-3.607-1.281-7.373-1.886-11.254-1.711
	c-1.939,0.087-3.885,0.12-5.842,0.179c-0.262-0.563-0.495-0.953-0.633-1.375c-1.343-4.075-3.863-7.457-6.666-10.613
	c-2.14-2.409-4.646-4.454-7.771-5.626c-2.681-1.006-5.34-2.087-8.047-3.023c-1.121-0.387-1.993-0.822-2.367-2.033
	c-0.428-1.38-1.568-2.249-2.725-3.01c-3.846-2.535-8.1-3.896-12.654-3.894c-1.141-1.211-2.146-2.397-3.279-3.458
	c-2.236-2.094-5.057-3.288-7.734-4.729c-4.615-2.48-9.666-3.705-14.644-5.137c-6.279-1.808-12.778-0.938-19.175-0.831
	c-3.199,0.054-6.426,1.088-9.574,1.936c-2.961,0.8-5.961,1.669-8.709,2.991c-3.43,1.649-6.664,3.72-9.893,5.749
	c-1.719,1.079-3.267,2.425-4.856,3.699c-0.943,0.754-1.771,1.571-3.112,1.7c-3.441,0.329-6.466,1.901-9.328,3.633
	c-2.869,1.733-5.597,3.75-7.438,6.632c-0.793,1.242-1.432,2.58-2.181,3.85c-1.376,2.325-4.053,4.688-6.203,6.307
	c-3.902,2.94-8.345,5.405-10.338,10.24c-0.439,1.067-1.335,1.653-2.605,1.813c-1.792,0.225-3.42,1.029-4.794,2.168
	c-2.65,2.198-5.299,4.417-6.811,7.6c-0.511,1.078-1.079,2.133-1.753,3.462c-3.004,0.649-5.744,1.806-8.277,3.434
	c-2.195,1.41-4.412,2.789-6.573,4.249c-0.998,0.674-1.941,1.45-2.818,2.275c-5.533,5.238-9.032,11.673-11.514,18.693
	c-0.214,0.605-0.337,1.238-0.471,1.865c-0.828,3.898-0.822,3.963-4.942,4.225c-5.127,0.324-9.69,1.885-13.413,5.518
	c-0.701,0.682-1.54,1.069-2.534,0.949c-3.707-0.442-6.842,1.086-9.587,3.203c-1.758,1.355-3.262,1.418-5.135,0.729
	c-2.554-0.945-5.207-1.432-7.952-0.852c-1.425,0.301-2.248-0.324-3.012-1.393c-1.221-1.707-2.613-3.294-3.845-4.994
	c-2.159-2.977-5.312-4.59-8.711-5.525c-6.838-1.881-13.472-1.088-19.686,2.572c-0.563,0.332-1.087,0.758-1.69,0.988
	c-3.288,1.268-5.557,3.681-7.567,6.381c-0.932,1.256-1.5,2.998-2.722,3.758c-1.327,0.824-3.229,0.729-4.868,1.093
	c-4.117,0.913-7.815,2.667-10.601,5.841c-1.295,1.477-2.696,2.287-4.62,2.764c-4.619,1.149-7.982,4.041-8.851,8.651
	c-0.53,2.825-1.958,4.112-4.381,4.955c-0.528,0.183-1.069,0.345-1.589,0.557c-2.072,0.846-4.207,1.575-6.188,2.6
	c-1.942,1.004-3.946,1.616-6.07,2.053c-2.743,0.563-5.465,1.252-8.159,2.013c-2.105,0.592-4.004,1.656-5.358,3.388
	c-1.195,1.526-2.233,3.169-3.274,4.8c-0.271,0.43-0.494,1.065-0.382,1.514c0.658,2.629,1.396,5.242,4.333,6.413
	c0.398,0.159,0.67,0.603,1.042,0.864c0.364,0.26,0.772,0.646,1.165,0.648c3.167,0.021,6.216,0.947,9.449,0.728
	c3.328-0.228,6.692,0.142,10.04,0.283c0.45,0.021,0.917,0.192,1.329,0.388c3.626,1.719,7.514,2.606,11.432,3.416
	c0.541,0.11,1.351,0.089,1.561,0.421c1.262,1.972,3.455,2.349,5.386,3.14c2.042,0.838,4.108,1.673,6.246,2.222
	c2.229,0.572,4.542,0.903,6.842,1.149c3.046,0.328,6.113,0.512,9.174,0.688c3.72,0.215,7.475,0.141,11.16,0.596
	c3.014,0.376,5.937,0.272,8.906-0.188c0.92-0.145,1.859-0.185,2.793-0.215c6.646-0.202,13.207-1.002,19.647-2.777
	c2.519-0.695,5.127-1.103,7.61-1.898c2.564-0.82,5.265-1.197,7.667-2.556c2.51-1.42,5.106-2.71,7.721-3.933
	c0.976-0.456,2.125-0.791,3.189-0.792c2.225-0.003,4.449,0.22,6.669,0.407c3.249,0.277,6.532,0.407,9.733,0.957
	c8.433,1.439,16.926,2.434,25.463,3.045c4.921,0.351,9.864,0.477,14.803,0.532c4.187,0.048,8.384-0.064,12.572-0.265
	c4.368-0.207,8.764-0.269,13-1.729c1.311-0.452,2.745-0.706,4.13-0.745c2.957-0.088,5.708-0.99,8.372-2.061
	c2.793-1.121,5.405-1.119,8.077,0.096c0.752,0.342,1.547,0.65,2.359,0.812c4.544,0.908,8.983,2.26,13.687,2.486
	c3.525,0.171,7.025,0.758,10.537,1.143c0.463,0.051,0.935,0.039,1.401,0.006c5.867-0.389,11.74-0.734,17.6-1.221
	c1.46-0.121,2.892-0.67,4.321-1.08c3.4-0.975,6.744-2.239,10.205-2.902c3.145-0.601,6.125-1.547,9.148-2.547
	c4.729-1.565,9.252-3.585,14.477-3.802c6.02-0.253,12.014-1.479,17.764-3.625c3.484-1.302,6.714-3.239,10.386-4.063
	c0.088-0.02,0.163-0.092,0.247-0.13c2.709-1.267,5.464-2.437,8.111-3.819c3.812-1.988,7.961-1.778,12.029-2.094
	c0.525-0.043,1.323,0.34,1.591,0.771c0.44,0.714-0.284,1.097-0.887,1.414c-0.408,0.215-0.829,0.445-1.175,0.743
	c-2.246,1.926-2.49,4.95-0.459,7.017c1.354,1.382,3.027,2.33,4.939,2.905c4.404,1.323,9.078,0.682,13.524,1.705
	c0.505,0.117,1.096-0.136,1.649-0.191c0.834-0.083,1.67-0.178,2.508-0.211c2.795-0.105,5.595-0.135,8.39-0.283
	c2.41-0.125,4.837-0.234,7.223-0.594c3.69-0.555,7.358-1.275,11.019-2.004c3.398-0.676,6.793-1.441,9.637-3.578
	c1.303-0.98,2.68-1.193,4.228-0.852C436.473,143.768,438.99,143.703,441.51,143.569z"/>
</svg>
