<?xml version="1.0" encoding="utf-8"?>
<!-- Generator: Adobe Illustrator 16.0.0, SVG Export Plug-In . SVG Version: 6.00 Build 0)  -->
<!DOCTYPE svg PUBLIC "-//W3C//DTD SVG 1.1//EN" "http://www.w3.org/Graphics/SVG/1.1/DTD/svg11.dtd">
<svg version="1.1" id="Layer_1" xmlns="http://www.w3.org/2000/svg" xmlns:xlink="http://www.w3.org/1999/xlink" x="0px" y="0px"
	 width="851.225px" height="261.945px" viewBox="0 0 851.225 261.945" enable-background="new 0 0 851.225 261.945"
	 xml:space="preserve">
<path fill="#A9BAE0" d="M850.49,204.957c-1.588-3.561-4.479-5.553-8.068-6.506c-3.305-0.878-6.693-1.431-10.217-2.162
	c-2.115-3.655-5.238-6.473-9.135-8.45c-0.285-1.433-0.584-2.772-0.814-4.123c-0.92-5.444-3.846-9.312-8.965-11.468
	c-3.146-1.325-6.297-2.637-9.521-3.984c-0.812-2.99-1.537-6.059-2.504-9.051c-0.668-2.078-1.449-4.186-2.572-6.039
	c-1.629-2.686-3.475-5.272-5.49-7.688c-1.656-1.975-3.645-3.69-5.576-5.416c-1.84-1.65-3.773-3.201-5.719-4.728
	c-1.836-1.44-3.641-2.959-5.633-4.153c-5.66-3.402-11.551-6.368-17.709-8.785c-4.779-1.879-9.758-3.657-14.848-2.517
	c-4.166,0.935-7.219,0.116-9.928-2.927c-0.363-0.406-0.822-0.729-1.252-1.077c-4.809-3.86-9.982-6.843-16.385-7.007
	c-3.234-0.082-6.467-0.257-9.936-0.403c-0.031-1.271,0.17-2.802-0.145-4.221c-2.336-10.55-7.408-19.238-17.33-24.368
	c-4.152-2.147-8.406-4.133-12.738-5.889c-5.264-2.132-10.785-3.259-16.512-3.218c-2.861,0.021-5.729-0.041-8.615-0.064
	c-0.361-0.861-0.688-1.463-0.875-2.104c-1.811-6.211-5.385-11.442-9.387-16.354c-3.053-3.747-6.66-6.969-11.219-8.91
	c-3.908-1.667-7.779-3.446-11.73-5.01c-1.637-0.646-2.902-1.352-3.406-3.194c-0.572-2.102-2.217-3.474-3.889-4.686
	c-5.562-4.035-11.773-6.326-18.486-6.583c-1.629-1.889-3.064-3.731-4.689-5.393c-3.207-3.278-7.314-5.237-11.201-7.558
	c-6.697-3.997-14.086-6.128-21.363-8.568c-9.178-3.081-18.789-2.141-28.217-2.346c-4.715-0.102-9.514,1.271-14.184,2.366
	c-4.396,1.035-8.852,2.171-12.953,4.004c-5.123,2.286-9.973,5.218-14.812,8.086c-2.578,1.526-4.914,3.464-7.307,5.289
	c-1.42,1.082-2.674,2.264-4.654,2.38c-5.084,0.298-9.604,2.492-13.895,4.936c-0.803,0.457-1.594,0.936-2.376,1.429
	c-6.495-3.716-13.598-5.795-20.603-8.144c-9.178-3.081-18.789-2.141-28.216-2.346c-4.715-0.102-9.514,1.271-14.185,2.366
	c-4.396,1.035-8.851,2.171-12.952,4.004c-5.123,2.286-9.973,5.218-14.812,8.086c-2.578,1.526-4.914,3.464-7.307,5.289
	c-1.42,1.082-2.674,2.264-4.654,2.38c-5.085,0.298-9.604,2.492-13.895,4.936c-4.296,2.445-8.398,5.325-11.228,9.556
	c-1.22,1.823-2.214,3.8-3.371,5.669c-2.124,3.42-6.165,6.823-9.397,9.138c-5.869,4.201-12.518,7.658-15.649,14.82
	c-0.692,1.581-2.037,2.41-3.914,2.579c-2.651,0.236-5.082,1.354-7.153,2.989c-3.993,3.155-7.987,6.343-10.346,11.048
	c-0.799,1.594-1.678,3.149-2.725,5.11c-4.454,0.806-8.537,2.39-12.337,4.694c-3.292,1.996-6.614,3.945-9.858,6.018
	c-1.498,0.958-2.92,2.073-4.246,3.264c-3.913,3.539-7.174,7.502-9.948,11.779c-1.972,0.699-3.926,1.57-5.858,2.641
	c-0.842,0.468-1.631,1.078-2.528,1.392c-4.897,1.718-8.34,5.222-11.41,9.17c-1.426,1.835-2.335,4.427-4.167,5.5
	c-1.987,1.163-4.786,0.913-7.216,1.366c-6.102,1.139-11.623,3.566-15.857,8.184c-1.969,2.147-4.065,3.287-6.92,3.896
	c-4.06,0.868-7.487,2.689-9.918,5.457c-3.032-1.006-6.168-1.467-9.422-0.893c-2.112,0.371-3.299-0.619-4.381-2.27
	c-1.729-2.639-3.714-5.105-5.459-7.736c-3.061-4.603-7.639-7.211-12.607-8.814c-9.998-3.219-19.805-2.406-29.111,2.748
	c-0.842,0.468-1.631,1.078-2.528,1.392c-4.897,1.718-8.34,5.222-11.41,9.17c-1.426,1.835-2.335,4.427-4.167,5.5
	c-1.987,1.163-4.786,0.913-7.216,1.366c-6.102,1.139-11.623,3.566-15.857,8.184c-1.969,2.147-4.065,3.287-6.92,3.896
	c-6.853,1.465-11.926,5.624-13.394,12.514c-0.897,4.222-3.055,6.078-6.658,7.206c-0.786,0.244-1.59,0.458-2.363,0.747
	c-3.087,1.154-6.265,2.131-9.224,3.559c-2.904,1.4-5.88,2.207-9.028,2.743c-4.064,0.69-8.103,1.571-12.104,2.562
	c-3.125,0.771-5.967,2.266-8.032,4.793c-1.822,2.229-3.42,4.643-5.02,7.038c-0.416,0.63-0.772,1.573-0.625,2.255
	c0.861,3.993,1.84,7.969,6.121,9.898c0.58,0.264,0.963,0.945,1.5,1.361c0.523,0.411,1.109,1.016,1.689,1.043
	c4.666,0.211,9.12,1.78,13.892,1.633c4.913-0.152,9.854,0.596,14.78,1.002c0.661,0.056,1.342,0.341,1.94,0.658
	c5.273,2.793,10.964,4.353,16.704,5.793c0.792,0.197,1.986,0.212,2.283,0.724c1.777,3.04,4.992,3.732,7.804,5.032
	c2.976,1.379,5.985,2.754,9.111,3.701c3.262,0.988,6.657,1.619,10.034,2.121c4.475,0.669,8.985,1.119,13.489,1.559
	c5.473,0.537,11.008,0.64,16.416,1.535c4.426,0.738,8.737,0.749,13.132,0.226c1.36-0.164,2.747-0.171,4.122-0.163
	c9.8,0.076,19.5-0.754,29.062-3.057c3.74-0.901,7.599-1.366,11.29-2.423c3.811-1.087,7.805-1.5,11.4-3.407
	c3.757-1.994,7.636-3.785,11.538-5.478c1.457-0.63,3.163-1.068,4.73-1.009c3.279,0.123,6.546,0.583,9.81,0.994
	c4.776,0.603,9.607,0.986,14.302,1.995c12.365,2.649,24.836,4.631,37.389,6.038c7.236,0.809,14.516,1.281,21.789,1.647
	c6.167,0.31,12.355,0.382,18.532,0.319c6.443-0.062,12.923,0.097,19.224-1.859c1.949-0.604,4.074-0.905,6.116-0.886
	c4.358,0.038,8.449-1.163,12.419-2.623c4.161-1.526,8.009-1.374,11.896,0.607c1.095,0.558,2.252,1.066,3.441,1.356
	c6.658,1.627,13.143,3.914,20.064,4.524c5.188,0.459,10.318,1.542,15.479,2.322c0.679,0.102,1.374,0.11,2.063,0.091
	c8.659-0.252,17.326-0.436,25.979-0.833c2.155-0.099,4.289-0.845,6.41-1.38c5.05-1.272,10.029-2.984,15.154-3.784
	c4.66-0.725,9.09-1.979,13.582-3.309c7.033-2.087,13.779-4.866,21.486-4.895c8.879-0.037,17.762-1.542,26.32-4.44
	c0.492-0.167,0.979-0.35,1.466-0.531c2.178,0.368,4.355,0.751,6.538,1.081c0.68,0.102,1.375,0.11,2.064,0.091
	c8.658-0.252,17.326-0.436,25.979-0.833c2.109-0.097,4.195-0.812,6.271-1.343c0.289,1.057,0.832,2.08,1.657,2.996
	c1.939,2.156,4.365,3.68,7.16,4.654c6.434,2.244,13.348,1.546,19.855,3.341c0.74,0.204,1.621-0.144,2.439-0.194
	c1.232-0.078,2.469-0.174,3.703-0.174c4.121,0.002,8.248,0.117,12.371,0.054c3.557-0.052,7.137-0.079,10.666-0.481
	c5.459-0.625,10.895-1.5,16.316-2.387c5.035-0.823,10.066-1.781,14.346-4.835c1.959-1.399,3.996-1.642,6.262-1.04
	c3.623,0.961,7.334,1.007,11.053,0.95c5.34-0.085,10.695,0.036,16.02-0.298c7.545-0.474,15.104-1.031,22.588-2.053
	c3.9-0.535,7.752-1.895,11.453-3.323c4.26-1.646,8.406-3.316,13.123-2.839c3.906,0.399,7.616-0.533,10.938-2.563
	c4.418-0.576,8.823-1.28,13.218-1.999c5.035-0.823,10.066-1.781,14.346-4.835c1.959-1.399,3.996-1.642,6.262-1.04
	c3.623,0.961,7.334,1.007,11.053,0.95c5.34-0.085,10.695,0.036,16.02-0.298c7.545-0.474,15.104-1.031,22.588-2.053
	c3.9-0.535,7.752-1.895,11.453-3.323c4.26-1.646,8.406-3.316,13.123-2.839c3.947,0.403,7.695-0.549,11.045-2.624
	c1.961-1.22,3.688-2.83,5.48-4.315C851.58,208.004,851.627,207.501,850.49,204.957z"/>
</svg>
