<?xml version="1.0" encoding="utf-8"?>
<svg viewBox="101.36054229736328 46.25850296020508 190.4761505126953 60.54420852661133" xmlns="http://www.w3.org/2000/svg">
  <g transform="matrix(1, 0, 0, 1, 31.098366475948026, -575.6322216702373)">
    <g id="fill_2_">
      <path fill="#FFFFFF" d="M237.522,660.331c-1.547,1.388-3.079,2.791-4.646,4.155c-0.638,0.555-1.296,1.164-2.457,1.002&#10;&#9;&#9;&#9;c0.419-2.165,2.545-3.043,3.491-5.297c-3.149,2.596-5.443,5.612-9.717,6.524c1.517-2.375,3.728-3.624,4.762-5.887&#10;&#9;&#9;&#9;c-1.773,1.535-3.488,3.146-5.335,4.588c-2.267,1.769-4.618,3.43-6.986,5.06c-0.891,0.612-1.887,1.174-3.591,0.903&#10;&#9;&#9;&#9;c2.283-1.819,4.24-3.379,6.196-4.938c-2.954,0.864-5.086,3.006-7.596,4.537c-2.512,1.53-5.168,2.706-8.076,3.319&#10;&#9;&#9;&#9;c4.262-3.815,9.093-6.893,12.771-11.386c-0.326,0.203-0.672,0.383-0.977,0.616c-3.363,2.572-6.68,5.209-10.091,7.715&#10;&#9;&#9;&#9;c-2.477,1.82-5.307,2.818-8.789,3.104c3.031-2.469,6.402-3.887,8.731-6.68c-4.479,2.406-8.518,5.666-13.72,6.726&#10;&#9;&#9;&#9;c1.451-1.062,2.9-2.123,4.352-3.185c-0.084-0.139-0.167-0.275-0.251-0.414c-3.444,1.486-6.456,4.197-10.948,3.982&#10;&#9;&#9;&#9;c2.977-1.754,5.63-3.318,8.283-4.883c-0.09-0.177-0.181-0.353-0.271-0.527c-1.297,0.113-2.162,1.246-3.306,1.721&#10;&#9;&#9;&#9;c-1.254,0.521-2.474,1.123-3.726,1.652c-1.173,0.496-2.353,0.988-3.558,1.396c-1.172,0.398-2.381,0.689-3.662,0.828&#10;&#9;&#9;&#9;c2.75-1.924,5.504-3.75,7.526-6.522c-1.651,1.121-3.239,2.354-4.968,3.344c-3.913,2.236-3.941,2.188-5.796,2.047&#10;&#9;&#9;&#9;c1.375-1.244,2.646-2.393,3.918-3.543c-0.084-0.109-0.168-0.221-0.252-0.33c-2.121,1.381-4.165,2.906-6.386,4.104&#10;&#9;&#9;&#9;c-2.285,1.231-4.498,2.729-7.336,2.846c2.332-1.541,4.723-3.002,6.98-4.646c2.241-1.633,4.348-3.448,6.359-5.405&#10;&#9;&#9;&#9;c-0.967-0.062-1.518,0.59-2.142,1.082c-4.087,3.225-8.396,6.114-13.026,8.5c-1.473,0.76-3.022,1.438-4.943,1.332&#10;&#9;&#9;&#9;c0.261-1.044,1.125-1.183,1.716-1.574c3.528-2.342,7.087-4.64,10.602-7c0.754-0.506,1.37-1.217,1.768-2.17&#10;&#9;&#9;&#9;c-2.488,1.662-5.011,3.276-7.457,5.002c-3.152,2.223-6.517,4.021-10.137,5.332c-0.648,0.233-1.368,0.274-2.179,0.184&#10;&#9;&#9;&#9;c5.129-2.652,9.552-6.133,13.298-10.512c-5.905,4.983-11.938,9.688-19.898,10.68c-0.085-0.147-0.169-0.297-0.254-0.445&#10;&#9;&#9;&#9;c1.828-1.041,3.697-2.018,5.474-3.139c1.722-1.088,3.349-2.326,4.917-3.666c-4.412,2.316-8.519,5.254-13.512,6.252&#10;&#9;&#9;&#9;c-0.488,0.099-1.035-0.096-1.624-0.363c4.358-2.03,8.451-4.375,11.824-7.846c-2.568,1.5-5.057,3.168-7.729,4.451&#10;&#9;&#9;&#9;c-2.566,1.232-5.166,2.855-8.713,1.83c4.184-2.164,7.877-4.301,11.234-6.949c-0.082-0.146-0.163-0.293-0.244-0.438&#10;&#9;&#9;&#9;c-1.013,0.545-2.023,1.094-3.038,1.635c-2.743,1.461-5.483,2.934-8.237,4.377c-1.166,0.609-2.4,0.723-4.096,0.295&#10;&#9;&#9;&#9;c2.826-1.871,5.374-3.557,7.922-5.242c-0.07-0.127-0.141-0.256-0.21-0.385c-1.938,1.061-3.95,2.006-5.8,3.201&#10;&#9;&#9;&#9;c-4.072,2.631-8.418,4.562-13.145,5.633c-0.387,0.088-0.777,0.158-1.17,0.219c-0.059,0.008-0.132-0.08-0.507-0.324&#10;&#9;&#9;&#9;c4.354-2.348,8.929-4.036,12.489-7.42c-6.162,2.729-11.727,6.92-18.712,7.658c2.131-1.604,4.718-2.34,6.971-3.688&#10;&#9;&#9;&#9;c2.313-1.384,4.718-2.648,6.694-4.519c-0.081-0.137-0.161-0.272-0.242-0.41c-2.832,1.638-5.535,3.595-8.536,4.816&#10;&#9;&#9;&#9;c-2.95,1.201-5.661,3.428-9.647,2.957c2.891-1.305,5.451-2.303,7.856-3.592c2.421-1.299,4.489-3.144,6.556-5.004&#10;&#9;&#9;&#9;c-5.912,3.453-11.662,7.174-18.635,8.162c2.623-1.546,5.511-2.648,7.705-4.873c-3.52,1.399-7.014,2.873-10.568,4.184&#10;&#9;&#9;&#9;c-3.54,1.307-7.32,1.158-11.031,1.467c2.063-0.559,4.168-1.004,6.174-1.721c1.068-0.381,1.967-1.232,2.941-1.871&#10;&#9;&#9;&#9;c2.82-1.02,5.644-2.029,8.451-3.08c0.166-0.062,0.213-0.447,0.512-1.135c-2.418,1.026-4.396,1.817-6.328,2.709&#10;&#9;&#9;&#9;c-0.911,0.42-1.734,1.026-2.599,1.551c-1.063,0.305-2.113,0.674-3.192,0.904c-1.877,0.397-3.768,0.729-5.657,1.061&#10;&#9;&#9;&#9;c-1.63,0.283-1.634,0.267-2.591,1.75c-3.481-0.209-6.96-0.631-10.309-1.785c-0.748-0.258-1.547-0.561-2.123-1.067&#10;&#9;&#9;&#9;c-0.465-0.41-1.023-1.355-0.844-1.713c0.297-0.591,1.245-1.334,1.762-1.23c1.022,0.207,1.672-0.322,2.473-0.594&#10;&#9;&#9;&#9;c2.629-0.894,5.267-1.762,8.184-2.734c-0.797-0.194-1.406-0.342-2.068-0.504c-0.021-0.236-0.129-0.496-0.053-0.678&#10;&#9;&#9;&#9;c0.922-2.16,2.145-4.102,4.099-5.499c3.011-2.155,6.175-3.987,9.864-4.719c-0.963,1.842-0.963,1.842,0.465,2.384&#10;&#9;&#9;&#9;c-0.286,0.51-0.91,0.955-0.452,1.521c4.112-2.756,8.183-5.48,12.251-8.206c-2.425,0.237-7.158,2.925-11.838,6.722&#10;&#9;&#9;&#9;c0.537-0.943,0.889-2.089,1.65-2.787c1.454-1.332,3.141-2.41,4.732-3.589c0.385-0.285,0.783-0.552,1.174-0.825&#10;&#9;&#9;&#9;c-3.432,0.451-5.729,2.633-8.02,4.826c1.322-2.852,3.299-5.041,6.196-6.388c3.077-1.43,6.185-2.606,9.68-2.241&#10;&#9;&#9;&#9;c0.687,0.07,1.401-0.12,2.157-0.195c1.381-5.374,5.058-8.844,9.203-11.95c-1.52,2.398-3.994,4.072-5.002,6.932&#10;&#9;&#9;&#9;c0.365-0.31,0.784-0.575,1.09-0.938c2.486-2.947,5.262-5.571,8.375-7.861c4.943-3.637,10.446-5.783,16.515-6.614&#10;&#9;&#9;&#9;c4.796-0.657,9.568-0.783,14.297,0.375c3.666,0.898,7.235,2.127,10.186,4.574c1.271,1.056,2.526,0.617,4.387,0.35&#10;&#9;&#9;&#9;c-1.696,1.396-2.997,2.468-4.299,3.539c0.07,0.08,0.141,0.159,0.211,0.239c1.835-1.054,3.664-2.116,5.506-3.156&#10;&#9;&#9;&#9;c1.715-0.97,3.569-1.106,5.323-0.341c1.886,0.824,3.704,1.854,5.427,2.982c0.667,0.438,1.212,1.339,1.427,2.133&#10;&#9;&#9;&#9;c0.57,2.104,1.919,2.718,3.936,2.654c3.045-0.096,6.086,0.01,8.979,1.163c2.448,0.977,4.908,1.928,7.335,2.957&#10;&#9;&#9;&#9;c0.629,0.267,1.15,0.784,1.796,1.239c-1.702,3.459-4.712,5.343-7.617,7.539c1.441-0.259,2.154-0.533,3.522-1.619&#10;&#9;&#9;&#9;c1.563-1.238,3.034-2.597,4.598-3.836c0.361-0.287,0.936-0.308,1.412-0.45c-0.019,0.511,0.169,1.194-0.091,1.503&#10;&#9;&#9;&#9;c-1.183,1.396-2.452,2.729-3.769,4.004c-0.845,0.817-1.826,1.497-2.647,2.382c1.739-0.521,3.125-1.623,4.479-2.748&#10;&#9;&#9;&#9;c1.346-1.119,2.624-2.32,4.121-3.655c0.395,0.329,0.852,0.712,1.31,1.096c-1.073,1.041-2.131,2.099-3.225,3.117&#10;&#9;&#9;&#9;c-1.114,1.038-2.264,2.038-3.397,3.056c2.475-0.865,4.384-2.485,6.299-4.097c0.73-0.614,0.745-1.334,0.277-2.111&#10;&#9;&#9;&#9;c1.493,0.12,2.985,0.239,4.611,0.371c0.104,1.56-1.165,2.496-1.527,3.953c1.223-1.15,2.446-2.303,3.7-3.482&#10;&#9;&#9;&#9;c0.427,1.523,0.427,1.523-2.896,5.654c2.016-1.021,3.172-2.51,4.479-3.815c0.859-0.857,0.855-0.861,2.61-0.401&#10;&#9;&#9;&#9;c-0.29,0.645-0.57,1.265-0.85,1.885c0.136,0.047,0.307,0.171,0.4,0.128c0.287-0.133,0.624-0.27,0.8-0.509&#10;&#9;&#9;&#9;c1.575-2.142,3.893-2.243,6.232-2.354c6.365-0.296,12.59,0.56,18.708,2.269c0.726,0.202,1.414,0.538,2.129,0.815&#10;&#9;&#9;&#9;c-0.22,1.349-0.948,1.903-1.885,1.722c-1.433-0.277-2.424,0.317-3.462,1.116c-0.534,0.41-1.222,0.62-1.988,0.741&#10;&#9;&#9;&#9;c0.234-1.38,1.663-1.779,2.378-3.23c-2.109,1.296-3.929,2.413-5.749,3.53c-0.125-0.099-0.249-0.198-0.374-0.297&#10;&#9;&#9;&#9;c0.412-0.717,0.824-1.434,1.342-2.334c-2.224,1.213-4.222,2.303-6.22,3.393C238.602,659.458,238.062,659.894,237.522,660.331z&#10;&#9;&#9;&#9; M142.845,650.396c1.731-0.315,2.742-1.59,3.765-2.847c-1.435,0.714-2.798,1.521-3.727,2.892&#10;&#9;&#9;&#9;c-1.765,0.955-3.529,1.911-5.294,2.868c-1.52,0.462-3.035,0.935-4.559,1.382c-1.449,0.426-2.904,0.823-4.357,1.233&#10;&#9;&#9;&#9;c0.414,0.498,0.799,0.733,1.121,0.666c2.805-0.587,5.549-1.342,7.762-3.322C139.628,652.881,141.414,651.968,142.845,650.396z&#10;&#9;&#9;&#9; M90.475,670.48c2.241,0.752,4.704,0.004,6.639-2.021c-1.981,0.461-3.969,0.904-5.94,1.406c-0.261,0.065-0.445,0.434-0.664,0.662&#10;&#9;&#9;&#9;c-2.611,0.03-5.119,0.448-7.347,2.002c0.364,0.186,0.721,0.25,1.044,0.174c1.77-0.42,3.542-0.84,5.288-1.348&#10;&#9;&#9;&#9;C89.874,671.246,90.15,670.781,90.475,670.48z M151.963,648.958c1.827-0.351,3.044-1.571,4.188-2.896&#10;&#9;&#9;&#9;c-1.518,0.791-3.164,1.404-4.15,2.938c-0.652,0.266-1.342,0.464-1.948,0.809c-2.075,1.18-4.104,2.44-6.183,3.613&#10;&#9;&#9;&#9;c-3.406,1.921-6.88,3.689-10.821,4.266c-0.223,0.033-0.43,0.17-0.643,0.259c0.699,0.548,1.219,0.776,1.668,0.682&#10;&#9;&#9;&#9;c1.006-0.216,2.052-0.452,2.947-0.931c4.633-2.474,9.229-5.015,13.816-7.57C151.289,649.875,151.591,649.354,151.963,648.958z&#10;&#9;&#9;&#9; M149.24,660.971c0.999,1.144,1.917,0.712,2.762,0.396c3.603-1.344,7.117-2.885,10.215-5.214&#10;&#9;&#9;&#9;c4.048-3.044,7.438-6.775,10.833-10.496c0.241-0.266,0.38-0.622,0.566-0.937c-0.761,0.215-1.273,0.647-1.751,1.117&#10;&#9;&#9;&#9;c-2.504,2.466-4.985,4.954-7.5,7.408c-3.704,3.615-8.295,5.617-13.141,7.139C150.566,660.592,149.902,660.776,149.24,660.971z&#10;&#9;&#9;&#9; M139.153,658.659c0.405,0.354,0.641,0.723,0.83,0.7c0.941-0.111,1.951-0.148,2.79-0.533c3.484-1.601,6.964-3.223,10.354-5.007&#10;&#9;&#9;&#9;c4.71-2.481,8.378-6.373,12.552-9.583c0.052-0.04-0.033-0.259-0.1-0.681c-0.859,0.584-1.653,1.062-2.381,1.627&#10;&#9;&#9;&#9;c-2.9,2.249-5.692,4.649-8.688,6.763c-4.273,3.012-8.947,5.225-14.147,6.182C140.016,658.191,139.697,658.415,139.153,658.659z&#10;&#9;&#9;&#9; M166.947,647.621c-7.614,4.953-14.8,10.548-23.815,12.961c0.505,0.323,0.99,0.586,1.363,0.475&#10;&#9;&#9;&#9;c1.596-0.478,3.218-0.937,4.723-1.635c6.116-2.834,11.435-6.929,16.856-10.852C166.415,648.323,166.658,647.94,166.947,647.621z&#10;&#9;&#9;&#9; M142.046,629.494c-0.15-0.021-0.308-0.08-0.451-0.059c-0.234,0.037-0.465,0.113-0.688,0.197&#10;&#9;&#9;&#9;c-5.929,2.221-11.011,5.729-15.42,10.229c-0.774,0.79-1.407,1.732-2.017,2.664c-0.188,0.286-0.082,0.766-0.111,1.155&#10;&#9;&#9;&#9;C128.263,637.042,134.8,632.839,142.046,629.494z M177.786,646.641c-2.904,2.717-5.612,5.689-8.767,8.073&#10;&#9;&#9;&#9;c-3.103,2.345-6.657,4.09-10.108,6.154C162.742,661.321,173.793,653.052,177.786,646.641z M167.918,658.764&#10;&#9;&#9;&#9;c3.649-0.191,13.602-8.496,15.52-12.85C178.599,650.594,174.041,655.618,167.918,658.764z M101.583,661.466&#10;&#9;&#9;&#9;c2.413-1.743,4.354-3.35,6.49-4.63c2.201-1.317,4.592-2.316,6.899-3.455C111.323,652.911,102.796,657.796,101.583,661.466z&#10;&#9;&#9;&#9; M102.101,668.91c-0.072-0.172-0.145-0.346-0.217-0.521c-0.341,0.144-0.691,0.263-1.019,0.429&#10;&#9;&#9;&#9;c-1.852,0.93-3.681,1.907-5.552,2.797c-1.351,0.643-2.652,1.192-4.309,0.594c-1.115-0.406-2.432-0.014-3.333,1.256&#10;&#9;&#9;&#9;c2.72,0.221,5.241,0.66,7.614-0.732C97.532,671.416,99.827,670.182,102.101,668.91z M185.899,647.507&#10;&#9;&#9;&#9;c-1.382,1.597-2.691,3.261-4.165,4.768c-1.45,1.479-3.064,2.8-4.746,4.314C180.214,656.085,183.693,652.711,185.899,647.507z&#10;&#9;&#9;&#9; M118.086,655.927c-2.966-0.183-8.682,2.611-10.049,4.785c0.222,0.08,0.502,0.284,0.638,0.213&#10;&#9;&#9;&#9;C111.728,659.327,114.765,657.699,118.086,655.927z M127.638,642.854c1.359-1.193,2.538-2.335,3.826-3.336&#10;&#9;&#9;&#9;c1.381-1.074,2.839-2.06,4.312-3.008c1.329-0.854,2.724-1.608,4.089-2.406c-0.095-0.148-0.19-0.298-0.286-0.445&#10;&#9;&#9;&#9;c-4.201,1.601-7.677,4.348-11.036,7.265C128.052,641.349,127.38,641.775,127.638,642.854z M114.499,662.371&#10;&#9;&#9;&#9;c2.541-1.472,5.082-2.943,7.862-4.553C119.368,657.795,115.067,660.092,114.499,662.371z M87.827,668.992&#10;&#9;&#9;&#9;c-1.58-0.631-2.937,0.164-4.291,0.611c-2.539,0.838-2.838,1.086-3.467,2.344c2.539-0.814,5.018-1.604,7.488-2.414&#10;&#9;&#9;&#9;C87.654,669.502,87.688,669.281,87.827,668.992z M209.681,645.468c-2.287,2.16-4.409,4.166-6.344,5.994&#10;&#9;&#9;&#9;c2.105-1.044,4.062-2.755,5.921-4.584C209.766,646.378,210.213,645.749,209.681,645.468z M126.774,653.794&#10;&#9;&#9;&#9;c0.535,0.957,1.261,0.769,1.953,0.658c1.856-0.293,5.105-1.987,6.521-3.521c-1.572,0.67-2.834,1.305-4.158,1.746&#10;&#9;&#9;&#9;C129.706,653.14,128.259,653.418,126.774,653.794z M181.754,633.895c-3.341,0.044-6.969,1.931-8.312,3.981&#10;&#9;&#9;&#9;c1.345-0.738,2.622-1.516,3.965-2.156C178.823,635.043,180.302,634.497,181.754,633.895z M219.12,651.381&#10;&#9;&#9;&#9;c-0.181-0.06-0.36-0.12-0.54-0.18c-0.644,0.773-1.247,1.588-1.943,2.312c-0.711,0.74-1.596,1.326-2.295,2.628&#10;&#9;&#9;&#9;c2.064-0.996,3.665-1.88,4.684-3.483C219.227,652.339,219.097,651.812,219.12,651.381z M133.266,641.276&#10;&#9;&#9;&#9;c2.536-1.451,5.073-2.902,7.61-4.354C138.621,637.031,134.853,639.161,133.266,641.276z M189.927,648.114&#10;&#9;&#9;&#9;c-2.095,0.912-4.029,2.805-4.524,4.427C186.944,652.111,188.854,650.242,189.927,648.114z M142.219,639.807&#10;&#9;&#9;&#9;c-2.737,0.188-4.831,1.426-5.515,3.105C138.706,641.785,140.462,640.796,142.219,639.807z M176.907,639.545&#10;&#9;&#9;&#9;c1.778-0.91,3.558-1.82,5.336-2.73C180.111,637.05,178.019,637.358,176.907,639.545z M118.368,662.995&#10;&#9;&#9;&#9;c1.977-0.07,3.254-0.771,4.735-2.23C120.974,660.854,119.483,661.101,118.368,662.995z M126.88,662.276&#10;&#9;&#9;&#9;c-1.54,0.13-3.067,0.312-4.187,2.007C124.756,664.543,125.669,663.086,126.88,662.276z M207.865,644.973&#10;&#9;&#9;&#9;c-1.565,0.766-2.751,1.972-3.839,3.29C205.784,647.722,207.281,646.879,207.865,644.973z M94.3,667.055&#10;&#9;&#9;&#9;c-1.607,0.068-3.055,0.568-4.316,1.574C91.748,668.988,93.011,667.986,94.3,667.055z M126.319,651.255&#10;&#9;&#9;&#9;c1.939,0.529,2.168,0.426,3.932-1.418C128.74,650.382,127.53,650.818,126.319,651.255z M192.562,648.955&#10;&#9;&#9;&#9;c-2.06,0.659-2.06,0.659-2.411,2.211C191.397,650.89,191.956,650.048,192.562,648.955z"/>
      <path fill="#FFFFFF" d="M237.522,660.331c0.54-0.438,1.079-0.873,1.619-1.312c0.024,1.877-1.549,2.7-2.682,3.852&#10;&#9;&#9;&#9;C236.813,662.024,237.168,661.178,237.522,660.331z"/>
    </g>
    <g id="stroke_1_">
      <path d="M72.802,672.107c1.45-2.185,3.504-3.132,5.709-3.576c2.818-0.566,4.955-1.666,6.148-4.521&#10;&#9;&#9;&#9;c0.768-1.838,2.32-3.268,4.094-4.275c2.357-1.343,4.79-2.554,7.152-3.889c0.805-0.454,1.713-0.967,2.198-1.7&#10;&#9;&#9;&#9;c2.863-4.321,7.227-6.196,11.96-7.366c1.746-0.433,3.634-0.286,5.453-0.404c4.164-8.798,11.425-13.885,20.236-17.259&#10;&#9;&#9;&#9;c4.914-1.883,9.988-2.933,15.178-3.267c7.507-0.481,14.604,1.034,21.05,5.146c0.654,0.418,1.642,0.437,2.474,0.432&#10;&#9;&#9;&#9;c1.91-0.011,3.824-0.279,5.729-0.21c3.261,0.118,5.998,1.658,8.387,3.734c0.858,0.745,1.407,1.908,1.929,2.965&#10;&#9;&#9;&#9;c0.483,0.979,1.125,1.487,2.215,1.496c1.199,0.01,2.399,0.051,3.597,0.119c5.149,0.294,9.773,2.355,14.318,4.508&#10;&#9;&#9;&#9;c1.844,0.873,3.403,2.365,5.045,3.638c1.324,1.025,2.706,1.596,4.434,1.322c1.604-0.253,3.092,0.163,4.638,0.771&#10;&#9;&#9;&#9;c1.588,0.626,3.454,1.1,5.11,0.9c6.203-0.746,12.29-0.142,18.364,0.994c1.962,0.366,3.907,0.817,5.857,1.242&#10;&#9;&#9;&#9;c0.311,0.067,0.618,0.172,0.909,0.301c1.629,0.724,1.852,2.258,0.475,3.39c-0.3,0.246-0.682,0.437-1.056,0.537&#10;&#9;&#9;&#9;c-3.777,1.021-7.538,2.12-11.353,2.978c-1.796,0.403-3.175,0.987-4.36,2.545c-2.443,3.211-5.772,5.01-9.926,4.899&#10;&#9;&#9;&#9;c-2.22-0.059-4.168,0.523-6.135,1.623c-5.469,3.06-11.298,5.175-17.48,6.402c-6.812,1.354-13.64,1.391-20.512,0.906&#10;&#9;&#9;&#9;c-2.708-0.191-5.416-0.445-8.128-0.533c-1.177-0.037-2.432,0.074-3.536,0.455c-7.679,2.646-15.571,3.227-23.63,2.926&#10;&#9;&#9;&#9;c-4.464-0.166-8.718-1.168-12.865-2.555c-3.229-1.08-6.361-0.928-9.406,0.012c-4.099,1.267-8.263,1.816-12.497,2.107&#10;&#9;&#9;&#9;c-0.239,0.018-0.48,0.043-0.719,0.028c-5.022-0.299-10.044-0.61-15.067-0.903c-4.148-0.24-8.304-0.402-12.448-0.707&#10;&#9;&#9;&#9;c-3.43-0.252-6.847-0.662-10.071-2C74.753,674.693,73.442,673.861,72.802,672.107z M99.163,672.955&#10;&#9;&#9;&#9;c-0.975,0.639-1.873,1.49-2.941,1.871c-2.006,0.717-4.11,1.162-6.174,1.721c3.711-0.309,7.491-0.16,11.031-1.467&#10;&#9;&#9;&#9;c3.555-1.311,7.049-2.783,10.568-4.184c-2.194,2.225-5.082,3.327-7.705,4.872c6.973-0.987,12.723-4.709,18.635-8.161&#10;&#9;&#9;&#9;c-2.066,1.86-4.135,3.705-6.556,5.004c-2.405,1.289-4.966,2.287-7.856,3.592c3.986,0.471,6.697-1.756,9.647-2.957&#10;&#9;&#9;&#9;c3.001-1.223,5.704-3.18,8.536-4.816c0.081,0.138,0.161,0.273,0.242,0.41c-1.977,1.869-4.381,3.135-6.694,4.519&#10;&#9;&#9;&#9;c-2.253,1.348-4.84,2.084-6.971,3.688c6.985-0.738,12.55-4.93,18.712-7.658c-3.561,3.384-8.135,5.072-12.489,7.42&#10;&#9;&#9;&#9;c0.375,0.244,0.448,0.332,0.507,0.324c0.393-0.061,0.783-0.131,1.17-0.219c4.727-1.07,9.072-3.002,13.145-5.633&#10;&#9;&#9;&#9;c1.85-1.195,3.861-2.142,5.8-3.201c0.069,0.129,0.14,0.258,0.21,0.385c-2.548,1.687-5.096,3.371-7.922,5.242&#10;&#9;&#9;&#9;c1.695,0.428,2.93,0.313,4.096-0.295c2.754-1.443,5.494-2.916,8.237-4.377c1.015-0.541,2.025-1.09,3.038-1.635&#10;&#9;&#9;&#9;c0.081,0.146,0.162,0.293,0.244,0.438c-3.357,2.648-7.051,4.785-11.234,6.949c3.547,1.025,6.146-0.598,8.713-1.83&#10;&#9;&#9;&#9;c2.673-1.283,5.161-2.951,7.729-4.451c-3.373,3.471-7.466,5.814-11.824,7.846c0.589,0.269,1.136,0.461,1.624,0.363&#10;&#9;&#9;&#9;c4.993-0.998,9.1-3.936,13.512-6.252c-1.568,1.34-3.195,2.578-4.917,3.666c-1.776,1.121-3.646,2.098-5.474,3.139&#10;&#9;&#9;&#9;c0.085,0.148,0.169,0.297,0.254,0.445c7.961-0.99,13.993-5.695,19.898-10.68c-3.746,4.379-8.169,7.858-13.298,10.512&#10;&#9;&#9;&#9;c0.811,0.092,1.53,0.051,2.179-0.184c3.62-1.312,6.984-3.109,10.137-5.332c2.446-1.726,4.969-3.34,7.457-5.002&#10;&#9;&#9;&#9;c-0.397,0.953-1.014,1.664-1.768,2.17c-3.515,2.36-7.073,4.658-10.602,7c-0.591,0.393-1.455,0.53-1.716,1.573&#10;&#9;&#9;&#9;c1.921,0.105,3.471-0.571,4.943-1.331c4.63-2.386,8.939-5.275,13.026-8.5c0.624-0.492,1.175-1.146,2.142-1.082&#10;&#9;&#9;&#9;c-2.012,1.957-4.118,3.772-6.359,5.405c-2.258,1.646-4.648,3.105-6.98,4.646c2.838-0.115,5.051-1.613,7.336-2.847&#10;&#9;&#9;&#9;c2.221-1.196,4.265-2.723,6.386-4.104c0.084,0.109,0.168,0.221,0.252,0.33c-1.271,1.15-2.543,2.299-3.918,3.543&#10;&#9;&#9;&#9;c1.854,0.141,1.883,0.189,5.796-2.047c1.729-0.988,3.316-2.223,4.968-3.344c-2.022,2.772-4.776,4.6-7.526,6.522&#10;&#9;&#9;&#9;c1.281-0.139,2.49-0.43,3.662-0.828c1.205-0.407,2.385-0.899,3.558-1.396c1.252-0.529,2.472-1.131,3.726-1.652&#10;&#9;&#9;&#9;c1.144-0.475,2.009-1.606,3.306-1.721c0.09,0.176,0.181,0.352,0.271,0.527c-2.653,1.563-5.307,3.129-8.283,4.883&#10;&#9;&#9;&#9;c4.492,0.215,7.504-2.496,10.948-3.982c0.084,0.139,0.167,0.275,0.251,0.414c-1.451,1.061-2.9,2.121-4.352,3.184&#10;&#9;&#9;&#9;c5.202-1.059,9.24-4.317,13.72-6.725c-2.329,2.793-5.7,4.211-8.731,6.68c3.482-0.284,6.312-1.282,8.789-3.104&#10;&#9;&#9;&#9;c3.411-2.506,6.728-5.143,10.091-7.715c0.305-0.233,0.65-0.413,0.977-0.616c-3.679,4.493-8.51,7.569-12.771,11.386&#10;&#9;&#9;&#9;c2.908-0.613,5.564-1.789,8.076-3.32c2.51-1.53,4.642-3.672,7.596-4.536c-1.956,1.559-3.913,3.116-6.196,4.938&#10;&#9;&#9;&#9;c1.704,0.271,2.7-0.291,3.591-0.904c2.368-1.629,4.72-3.291,6.986-5.059c1.847-1.441,3.562-3.053,5.335-4.588&#10;&#9;&#9;&#9;c-1.034,2.263-3.245,3.512-4.762,5.887c4.273-0.912,6.567-3.93,9.717-6.524c-0.946,2.254-3.072,3.132-3.491,5.297&#10;&#9;&#9;&#9;c1.161,0.162,1.819-0.447,2.457-1.002c1.567-1.364,3.1-2.769,4.646-4.155c-0.354,0.847-0.709,1.692-1.062,2.54&#10;&#9;&#9;&#9;c1.133-1.15,2.706-1.976,2.682-3.852c1.998-1.09,3.996-2.18,6.22-3.393c-0.518,0.9-0.93,1.617-1.342,2.334&#10;&#9;&#9;&#9;c0.125,0.099,0.249,0.198,0.374,0.297c1.82-1.117,3.64-2.234,5.749-3.53c-0.715,1.451-2.144,1.852-2.378,3.23&#10;&#9;&#9;&#9;c0.767-0.121,1.454-0.331,1.988-0.741c1.038-0.799,2.029-1.395,3.462-1.116c0.937,0.183,1.665-0.373,1.885-1.722&#10;&#9;&#9;&#9;c-0.715-0.277-1.403-0.613-2.129-0.815c-6.118-1.709-12.343-2.563-18.708-2.269c-2.34,0.109-4.657,0.212-6.232,2.354&#10;&#9;&#9;&#9;c-0.176,0.239-0.513,0.376-0.8,0.509c-0.094,0.043-0.265-0.081-0.4-0.128c0.279-0.62,0.56-1.24,0.85-1.885&#10;&#9;&#9;&#9;c-1.755-0.46-1.751-0.456-2.61,0.401c-1.308,1.307-2.464,2.796-4.479,3.815c3.322-4.131,3.322-4.131,2.896-5.654&#10;&#9;&#9;&#9;c-1.254,1.181-2.478,2.332-3.7,3.482c0.362-1.457,1.632-2.395,1.527-3.953c-1.626-0.132-3.118-0.252-4.611-0.371l0.046,0.034&#10;&#9;&#9;&#9;c-0.458-0.383-0.915-0.766-1.31-1.095c-1.497,1.335-2.775,2.536-4.121,3.655c-1.354,1.125-2.739,2.228-4.479,2.748&#10;&#9;&#9;&#9;c0.821-0.885,1.803-1.563,2.647-2.382c1.316-1.274,2.586-2.606,3.769-4.004c0.26-0.309,0.072-0.992,0.091-1.504&#10;&#9;&#9;&#9;c-0.477,0.145-1.051,0.163-1.412,0.451c-1.563,1.239-3.034,2.598-4.598,3.836c-1.368,1.085-2.081,1.36-3.522,1.619&#10;&#9;&#9;&#9;c2.905-2.197,5.915-4.08,7.617-7.539c-0.646-0.456-1.167-0.974-1.796-1.239c-2.427-1.029-4.887-1.98-7.335-2.957&#10;&#9;&#9;&#9;c-2.894-1.153-5.935-1.26-8.979-1.163c-2.017,0.062-3.365-0.551-3.936-2.654c-0.215-0.794-0.76-1.694-1.427-2.133&#10;&#9;&#9;&#9;c-1.723-1.13-3.541-2.158-5.427-2.982c-1.754-0.767-3.608-0.629-5.323,0.34c-1.842,1.04-3.671,2.104-5.506,3.157&#10;&#9;&#9;&#9;c-0.07-0.08-0.141-0.16-0.211-0.24c1.302-1.07,2.603-2.143,4.299-3.538c-1.86,0.269-3.115,0.705-4.387-0.35&#10;&#9;&#9;&#9;c-2.95-2.448-6.52-3.676-10.186-4.574c-4.729-1.158-9.501-1.032-14.297-0.376c-6.068,0.832-11.571,2.979-16.515,6.615&#10;&#9;&#9;&#9;c-3.113,2.29-5.889,4.914-8.375,7.861c-0.306,0.36-0.725,0.628-1.09,0.938c1.008-2.858,3.482-4.532,5.002-6.932&#10;&#9;&#9;&#9;c-4.146,3.106-7.822,6.576-9.203,11.95c-0.756,0.075-1.471,0.267-2.157,0.194c-3.495-0.364-6.603,0.812-9.68,2.242&#10;&#9;&#9;&#9;c-2.897,1.347-4.874,3.536-6.196,6.388l0.037-0.045c-3.689,0.731-6.854,2.563-9.864,4.72c-1.954,1.397-3.177,3.339-4.099,5.499&#10;&#9;&#9;&#9;c-0.076,0.182,0.031,0.44,0.053,0.678c0.662,0.162,1.271,0.309,2.068,0.504c-2.917,0.973-5.555,1.842-8.184,2.734&#10;&#9;&#9;&#9;c-0.801,0.271-1.45,0.801-2.473,0.594c-0.517-0.104-1.465,0.641-1.762,1.23c-0.18,0.356,0.379,1.303,0.844,1.713&#10;&#9;&#9;&#9;c0.576,0.508,1.375,0.811,2.123,1.067c3.349,1.154,6.827,1.576,10.309,1.785c0.957-1.484,0.961-1.467,2.591-1.75&#10;&#9;&#9;&#9;c1.89-0.33,3.78-0.662,5.657-1.061c1.079-0.23,2.129-0.601,3.192-0.904L99.163,672.955z"/>
      <path d="M149.24,660.971c0.662-0.193,1.326-0.379,1.984-0.585c4.846-1.521,9.437-3.522,13.141-7.139&#10;&#9;&#9;&#9;c2.515-2.454,4.996-4.942,7.5-7.408c0.478-0.47,0.99-0.903,1.751-1.117c-0.187,0.313-0.325,0.671-0.566,0.937&#10;&#9;&#9;&#9;c-3.396,3.721-6.785,7.452-10.833,10.496c-3.098,2.328-6.612,3.869-10.215,5.214C151.157,661.683,150.239,662.113,149.24,660.971z&#10;&#9;&#9;&#9;"/>
      <path d="M139.153,658.659c0.544-0.244,0.862-0.468,1.209-0.532c5.2-0.957,9.874-3.17,14.147-6.182&#10;&#9;&#9;&#9;c2.996-2.112,5.788-4.514,8.688-6.763c0.728-0.563,1.521-1.043,2.381-1.627c0.066,0.422,0.151,0.641,0.1,0.681&#10;&#9;&#9;&#9;c-4.174,3.21-7.842,7.102-12.552,9.583c-3.39,1.784-6.869,3.406-10.354,5.007c-0.839,0.385-1.849,0.422-2.79,0.533&#10;&#9;&#9;&#9;C139.794,659.382,139.559,659.015,139.153,658.659z"/>
      <path d="M166.947,647.621c-0.289,0.318-0.532,0.702-0.873,0.949c-5.422,3.923-10.74,8.018-16.856,10.852&#10;&#9;&#9;&#9;c-1.505,0.698-3.127,1.157-4.723,1.635c-0.373,0.111-0.858-0.15-1.363-0.475C152.147,658.169,159.333,652.574,166.947,647.621z"/>
      <path d="M142.046,629.494c-7.246,3.345-13.783,7.548-18.688,14.188c0.029-0.391-0.076-0.869,0.111-1.155&#10;&#9;&#9;&#9;c0.609-0.932,1.242-1.874,2.017-2.664c4.409-4.501,9.491-8.009,15.42-10.229c0.224-0.084,0.454-0.16,0.688-0.197&#10;&#9;&#9;&#9;C141.738,629.414,141.896,629.473,142.046,629.494z"/>
      <path d="M177.786,646.641c-3.993,6.411-15.044,14.682-18.875,14.229c3.451-2.064,7.006-3.811,10.108-6.154&#10;&#9;&#9;&#9;C172.174,652.33,174.882,649.356,177.786,646.641z"/>
      <path d="M167.918,658.764c6.123-3.146,10.681-8.17,15.52-12.85C181.52,650.268,171.567,658.571,167.918,658.764z"/>
      <path d="M101.583,661.466c1.213-3.67,9.74-8.555,13.39-8.085c-2.308,1.139-4.698,2.138-6.899,3.455&#10;&#9;&#9;&#9;C105.937,658.116,103.996,659.723,101.583,661.466z"/>
      <path d="M151.963,648.958c-0.372,0.396-0.674,0.917-1.126,1.168c-4.587,2.557-9.184,5.098-13.816,7.57&#10;&#9;&#9;&#9;c-0.896,0.479-1.941,0.715-2.947,0.931c-0.449,0.096-0.969-0.134-1.668-0.682c0.213-0.089,0.42-0.226,0.643-0.258&#10;&#9;&#9;&#9;c3.941-0.576,7.415-2.346,10.821-4.267c2.079-1.173,4.107-2.435,6.183-3.612c0.606-0.346,1.296-0.544,1.948-0.81L151.963,648.958z&#10;&#9;&#9;&#9;"/>
      <path d="M102.101,668.91c-2.273,1.271-4.568,2.506-6.814,3.822c-2.373,1.393-4.895,0.952-7.614,0.731&#10;&#9;&#9;&#9;c0.901-1.27,2.218-1.662,3.333-1.256c1.656,0.6,2.958,0.049,4.309-0.594c1.871-0.89,3.7-1.867,5.552-2.797&#10;&#9;&#9;&#9;c0.327-0.166,0.678-0.285,1.019-0.429C101.956,668.564,102.028,668.738,102.101,668.91z"/>
      <path d="M99.169,658.609c4.68-3.797,9.413-6.483,11.838-6.722c-4.068,2.726-8.139,5.45-12.251,8.206&#10;&#9;&#9;&#9;c-0.458-0.564,0.166-1.011,0.452-1.521L99.169,658.609z"/>
      <path d="M185.899,647.507c-2.206,5.204-5.686,8.578-8.911,9.082c1.682-1.516,3.296-2.835,4.746-4.314&#10;&#9;&#9;&#9;C183.208,650.768,184.518,649.104,185.899,647.507z"/>
      <path d="M118.086,655.927c-3.321,1.772-6.358,3.4-9.411,4.998c-0.136,0.071-0.416-0.133-0.638-0.213&#10;&#9;&#9;&#9;C109.404,658.538,115.12,655.744,118.086,655.927z"/>
      <path d="M127.638,642.854c-0.258-1.078,0.414-1.506,0.904-1.932c3.359-2.917,6.835-5.664,11.036-7.265&#10;&#9;&#9;&#9;c0.096,0.147,0.191,0.297,0.286,0.444c-1.365,0.799-2.76,1.553-4.089,2.407c-1.473,0.948-2.931,1.934-4.312,3.008&#10;&#9;&#9;&#9;C130.176,640.52,128.997,641.66,127.638,642.854z"/>
      <path d="M98.706,656.234c2.29-2.193,4.588-4.375,8.02-4.826c-0.391,0.273-0.789,0.54-1.174,0.825&#10;&#9;&#9;&#9;c-1.592,1.179-3.278,2.257-4.732,3.589c-0.762,0.697-1.113,1.844-1.65,2.787l0.039-0.035c-1.428-0.542-1.428-0.542-0.465-2.384&#10;&#9;&#9;&#9;L98.706,656.234z"/>
      <path d="M114.499,662.371c0.568-2.279,4.869-4.576,7.862-4.553C119.581,659.428,117.04,660.899,114.499,662.371z"/>
      <path d="M216.701,649.866c0.468,0.778,0.453,1.497-0.277,2.112c-1.915,1.609-3.824,3.229-6.299,4.096&#10;&#9;&#9;&#9;c1.134-1.018,2.283-2.018,3.397-3.055c1.094-1.021,2.151-2.077,3.225-3.118L216.701,649.866z"/>
      <path d="M87.827,668.992c-0.139,0.289-0.173,0.51-0.27,0.541c-2.471,0.811-4.949,1.6-7.488,2.414&#10;&#9;&#9;&#9;c0.629-1.258,0.928-1.506,3.467-2.344C84.891,669.156,86.247,668.361,87.827,668.992z"/>
      <path d="M209.681,645.468c0.532,0.281,0.085,0.91-0.423,1.41c-1.858,1.829-3.815,3.54-5.921,4.584&#10;&#9;&#9;&#9;C205.271,649.634,207.394,647.628,209.681,645.468z"/>
      <path d="M137.556,653.27c-2.213,1.98-4.957,2.735-7.762,3.322c-0.322,0.067-0.707-0.168-1.121-0.666&#10;&#9;&#9;&#9;c1.453-0.41,2.908-0.809,4.357-1.233c1.523-0.447,3.039-0.92,4.559-1.382L137.556,653.27z"/>
      <path d="M126.774,653.794c1.484-0.376,2.932-0.654,4.316-1.117c1.324-0.441,2.586-1.076,4.158-1.746&#10;&#9;&#9;&#9;c-1.416,1.534-4.665,3.229-6.521,3.521C128.035,654.562,127.31,654.751,126.774,653.794z"/>
      <path d="M99.199,673c0.864-0.523,1.688-1.131,2.599-1.551c1.933-0.892,3.91-1.683,6.328-2.709&#10;&#9;&#9;&#9;c-0.299,0.688-0.346,1.072-0.512,1.135c-2.808,1.051-5.631,2.061-8.451,3.08L99.199,673z"/>
      <path d="M181.754,633.895c-1.452,0.604-2.931,1.148-4.348,1.825c-1.343,0.642-2.62,1.418-3.965,2.156&#10;&#9;&#9;&#9;C174.785,635.824,178.413,633.938,181.754,633.895z"/>
      <path d="M90.475,670.48c-0.324,0.301-0.601,0.766-0.98,0.875c-1.746,0.508-3.519,0.928-5.288,1.348&#10;&#9;&#9;&#9;c-0.323,0.076-0.68,0.012-1.044-0.174c2.228-1.554,4.735-1.972,7.347-2.002L90.475,670.48z"/>
      <path d="M90.509,670.527c0.219-0.229,0.403-0.597,0.664-0.662c1.972-0.502,3.959-0.945,5.94-1.404&#10;&#9;&#9;&#9;c-1.935,2.023-4.397,2.771-6.639,2.021L90.509,670.527z"/>
      <path d="M219.12,651.381c-0.023,0.432,0.106,0.958-0.095,1.275c-1.019,1.604-2.619,2.487-4.684,3.483&#10;&#9;&#9;&#9;c0.699-1.302,1.584-1.888,2.295-2.628c0.696-0.724,1.3-1.537,1.943-2.312C218.76,651.261,218.939,651.321,219.12,651.381z"/>
      <path d="M133.266,641.276c1.587-2.115,5.355-4.245,7.61-4.354C138.339,638.374,135.802,639.825,133.266,641.276z"/>
      <path d="M189.927,648.114c-1.072,2.128-2.982,3.997-4.524,4.427C185.897,650.919,187.832,649.026,189.927,648.114z"/>
      <path d="M142.219,639.807c-1.757,0.989-3.513,1.979-5.515,3.105C137.388,641.231,139.481,639.994,142.219,639.807z"/>
      <path d="M176.907,639.545c1.111-2.187,3.204-2.495,5.336-2.73C180.465,637.725,178.686,638.635,176.907,639.545z"/>
      <path d="M118.368,662.995c1.115-1.896,2.605-2.143,4.735-2.23C121.622,662.226,120.345,662.925,118.368,662.995z"/>
      <path d="M126.88,662.276c-1.211,0.81-2.124,2.267-4.187,2.007C123.812,662.59,125.34,662.406,126.88,662.276z"/>
      <path d="M207.865,644.973c-0.584,1.906-2.081,2.749-3.839,3.29C205.114,646.943,206.3,645.737,207.865,644.973z"/>
      <path d="M94.3,667.055c-1.289,0.933-2.552,1.935-4.316,1.574C91.245,667.623,92.692,667.123,94.3,667.055z"/>
      <path d="M137.589,653.311c1.765-0.957,3.529-1.912,5.294-2.868l-0.038-0.044c-1.431,1.569-3.217,2.482-5.289,2.871&#10;&#9;&#9;&#9;L137.589,653.311z"/>
      <path d="M152,649c0.986-1.532,2.633-2.146,4.15-2.938c-1.144,1.323-2.36,2.545-4.188,2.896L152,649z"/>
      <path d="M126.319,651.255c1.211-0.437,2.421-0.873,3.932-1.418C128.487,651.681,128.259,651.784,126.319,651.255z"/>
      <path d="M192.562,648.955c-0.606,1.093-1.165,1.935-2.411,2.211C190.503,649.614,190.503,649.614,192.562,648.955z"/>
      <path d="M142.883,650.441c0.929-1.37,2.292-2.178,3.727-2.892c-1.022,1.257-2.033,2.53-3.765,2.847L142.883,650.441z"/>
    </g>
  </g>
</svg>