<?xml version="1.0" encoding="utf-8"?>
<!-- Generator: Adobe Illustrator 16.0.0, SVG Export Plug-In . SVG Version: 6.00 Build 0)  -->
<!DOCTYPE svg PUBLIC "-//W3C//DTD SVG 1.1//EN" "http://www.w3.org/Graphics/SVG/1.1/DTD/svg11.dtd">
<svg version="1.1" id="Layer_1" xmlns="http://www.w3.org/2000/svg" xmlns:xlink="http://www.w3.org/1999/xlink" x="0px" y="0px"
	 viewBox="0 0 847.131 292.134" enable-background="new 0 0 847.131 292.134"
	 xml:space="preserve">
<g opacity="0.7">
	<path fill="#FFFFFF" d="M695.309,86.057l-0.048-0.199c0.023,0.009,0.051-0.244,0.081-0.23c0.028,0.009,0.073-0.505,0.101-0.506
		c0.003-0.001-0.883,0.035-1.184,0.047c0.387,0.14,0.684,0.593,1.012,0.959C695.282,86.125,695.296,86.058,695.309,86.057z"/>
	<path fill="#FFFFFF" d="M843.68,162.335c-2.06-1.315-4.397-2.227-6.735-2.798c-7.598-1.862-14.836-4.586-21.989-7.997
		c-7.663-3.645-15.694-7.104-24.7-4.584c-2.162,0.603-3.547-0.684-5.127-1.964c-1.991-1.614-4.288-2.731-6.463-4.051
		c0.048,0.282,0.096,0.565,0.142,0.847c-0.235-0.144-0.465-0.296-0.694-0.449c0.143-0.155,0.287-0.312,0.426-0.469
		c-3.627-2.539-11.135-4.073-13.109-2.873c0.014-0.009,0.018-0.022,0.032-0.03c-1.685-0.449-3.416-0.671-5.179-0.725
		c0.023,0.022,0.047,0.044,0.074,0.061c-0.557,4.345-4.483,10.051-10.106,15.02c5.612-4.963,9.527-10.662,10.083-15.001
		c-0.145-0.102-0.281-0.265-0.439-0.29c-0.682-0.109-1.369-0.25-2.059-0.243c-7.971,0.104-14.527-2.773-18.746-10.812l0.004,0.003
		c0,0-0.051-0.081-0.12-0.196c-0.82-1.518-1.831-2.896-2.825-4.268c-1.443-2.104-3.369-4.803-5.667-7.789
		c-5.282-8.995-12.159-15.988-20.479-21.202c0.016,0.013,0.031,0.027,0.047,0.041c-0.393-0.294-0.789-0.579-1.183-0.861
		c-0.102-0.119-0.177-0.264-0.286-0.376c-0.071-0.068-0.107-0.11-0.156-0.156c-0.178-0.134-0.346-0.271-0.53-0.391
		c-0.13-0.088-0.269-0.156-0.401-0.236c-0.07-0.023-0.181,0.032-0.328-0.026c-0.017-0.004-0.023,0.08-0.038,0.08
		c-0.044,0.003-0.086,0.005-0.128,0.007c-0.445,0.018-0.869-0.651-1.311-0.917c0.039-0.12,0.074-0.28,0.111-0.397
		c-1.623-0.903-3.283-1.695-5.02-2.225c-0.031-0.013-0.059-0.042-0.09-0.054l0.027,0.023c-1.598-0.483-3.262-0.74-5.007-0.724
		c-0.085-0.032-0.818-0.041-0.904-0.074c-0.013-0.004-0.69,0.012-0.689,0.006l0.02-0.601l0.018-0.468c0,0,0.046-0.001,0.106-0.004
		c-0.015-0.005-0.026-0.017-0.041-0.021c-8.332-2.446-16.884-3.339-25.639-2.42c-1.107,0.116-2.219,2.046-3.314,2.881
		c1.637-0.008,3.263,0.574,4.882,0.515c-0.913,0.03-1.822-0.07-2.749,0.264c-1.58,0.565-2.909,0.061-3.996-0.574
		c0.469-0.098,1.18-0.53,1.676-0.653c-5.047-10.919-13.82-16.683-22.699-22.247c-0.002,0.054,0.012,0.048,0.013,0.101
		c-1.384-1.192-2.786-2.354-4.202-3.41c0.177-0.415,0.349-0.837,0.524-1.253c-2.825-1.609-5.521-3.625-8.501-4.766
		c-12.129-4.625-24.746-6.068-37.836-4.29c-12.228,1.658-23.809,5.844-34.541,13.9c-1.176,0.881-3.12,1.314-4.331,0.845
		c-5.165-1.992-10.198-1.347-15.385,1.103c-2.817,1.329-5.829,1.99-8.627,3.363c-2.909,1.429-5.789,2.999-8.183,5.362
		c-0.195-0.369-0.391-0.739-0.6-1.096c-2.439-4.197-6.014-6.924-9.767-9.186c-3.748-2.263-7.7-4.253-12.173-4.249
		c-1.745,0-2.834-1.145-4.071-2.175c-2.083-1.739-4.115-3.601-6.364-5.018c-4.228-2.667-8.463-5.4-12.946-7.448
		c-3.589-1.643-7.499-2.544-11.355-3.345c-4.101-0.844-8.31-1.969-12.464-1.577c-8.305,0.789-16.76,0.406-24.883,4.152
		c-1.412,0.65-2.829,1.287-4.244,1.931c-2.748-3.884-17.772-19.217-19.305-20.597c-9.581-8.64-19.371-17.222-31.335-21.168
		c-12.998-4.29-27.304-4.986-41.036-3.121c-15.451,2.095-30.079,7.385-43.639,17.561c-1.485,1.115-3.94,1.663-5.471,1.072
		c-6.524-2.52-12.886-1.705-19.439,1.389c-3.559,1.681-7.363,2.515-10.896,4.25c-5.652,2.775-11.238,5.927-14.59,12.581
		c-1.535,3.054-3.648,4.751-6.481,5.233c-5.494,0.933-10.997,1.904-16.5,2.679c-11.983,1.677-23.054,6.519-32.83,15.633
		c-5.31,4.943-9.18,11.231-11.534,18.643c-2.496,7.875-3.952,9.041-10.755,8.714c-21.383-1.032-41.707,7.782-58.852,24.44
		c-10.87,10.565-17.82,13.871-31.485,13.896c-2.207,0.004-4.444,0.139-6.589-0.227c-7.257-1.243-14.188,1.58-21.188,3.823
		c1.963,0.198-14.413,2.813-15.649,3.244c-4.098,1.425-8.229,2.789-12.216,4.65c-9.944,4.641-12.267,8.585-12.651,20.644
		c-0.017,0.488,0.2,0.969,0.351,1.607c6.988,7.092,14.645,12.666,24.912,11.89c1.476-0.114,2.929,0.833,4.417,1.186
		c8.335,1.976,13.418,9.38,19.266,15.371c2.946,3.012,5.812,5.838,9.689,7.031c6.473,1.991,12.979,3.866,19.42,5.965
		c11.405,3.705,22.973,5.245,35.042,1.206c6.569-2.201,12.054-2.627,18.209,2.603c7.606,6.475,17.056,10.145,26.575,12.946
		c6.062,1.781,12.185,3.829,17.712,6.99c7.738,4.424,15.776,6.818,24.087,7.646c-0.997,0.555-1.994,1.111-2.987,1.667
		c-4.537,2.538-7.163,6.714-8.043,12.396c-0.22,1.411-0.501,2.812-0.771,4.309c-3.456,2.283-6.243,5.387-8.153,9.293
		c-3.111,0.971-6.104,1.748-9.027,2.859c-3.172,1.205-5.746,3.439-7.191,7.216c-1.029,2.698-0.996,3.215,0.918,4.965
		c1.557,1.425,3.057,2.984,4.769,4.122c2.923,1.941,6.214,2.695,9.694,2.038c4.162-0.784,7.791,0.688,11.521,2.131
		c3.244,1.246,6.617,2.419,10.047,2.731c6.577,0.598,13.228,0.711,19.867,0.738c4.685,0.02,9.402-0.434,14.106-0.674
		c3.272-0.168,6.543-0.442,9.748-1.658c2.001-0.76,3.795-0.635,5.502,0.691c3.729,2.894,8.147,3.576,12.572,4.119
		c4.765,0.583,9.54,1.154,14.339,1.467c3.104,0.199,6.258,0.01,9.391-0.156c3.632-0.188,7.265-0.558,10.897-0.811
		c1.087-0.076,2.174-0.053,3.259-0.049c0.721,0.004,1.492,0.31,2.144,0.051c5.756-2.253,11.837-1.953,17.534-4.665
		c2.472-1.181,4.627-2.899,6.363-5.247c2.602-3.514,2.234-8.17-0.713-10.826c-0.455-0.41-1.004-0.703-1.538-0.979
		c-0.788-0.403-1.736-0.888-1.174-2.062c0.34-0.707,1.367-1.42,2.053-1.436c5.287-0.115,10.67-1.061,15.654,1.458
		c3.458,1.751,7.058,3.157,10.593,4.719c0.111,0.046,0.211,0.146,0.325,0.163c4.783,0.732,9.008,3.258,13.555,4.762
		c7.5,2.471,15.304,3.48,23.125,2.975c6.786-0.441,12.693,2.02,18.86,3.742c3.94,1.101,7.829,2.125,11.92,2.589
		c4.506,0.511,8.866,1.978,13.301,2.983c1.861,0.423,3.729,1.064,5.628,1.033c7.617-0.119,15.248-0.46,22.871-0.73
		c0.607-0.021,1.22-0.074,1.817-0.219c4.552-1.123,9.089-2.555,13.663-3.347c6.105-1.056,11.846-3.816,17.732-5.902
		c1.051-0.373,2.078-0.972,3.047-1.613c3.451-2.286,6.841-2.679,10.485-1.355c3.477,1.265,7.064,2.258,10.906,1.95
		c1.798-0.146,3.669,0.035,5.375,0.541c5.523,1.637,11.233,1.074,16.909,0.744c5.438-0.312,10.889-0.767,16.324-1.463
		c6.411-0.826,12.83-1.76,19.209-3.037c11.08-2.224,22.09-5.032,33.012-8.53c4.147-1.326,8.408-2.021,12.624-2.934
		c2.88-0.624,5.762-1.3,8.651-1.628c1.383-0.156,2.879,0.191,4.154,0.753c3.416,1.511,6.808,3.124,10.09,4.952
		c3.146,1.752,6.656,1.936,9.997,2.824c3.238,0.865,6.632,1.108,9.916,1.811c8.392,1.795,16.924,2.06,25.557,1.381
		c1.21-0.09,2.433-0.17,3.628-0.084c3.863,0.273,7.662-0.003,11.568-1.037c4.775-1.255,9.65-1.701,14.48-2.588
		c3.971-0.729,7.95-1.474,11.901-2.438c2.979-0.726,5.978-1.587,8.861-2.807c2.768-1.17,5.433-2.775,8.074-4.382
		c2.493-1.516,5.333-2.427,6.938-5.677c0.268-0.545,1.317-0.635,2.02-0.887c5.075-1.84,10.106-3.801,14.784-7.009
		c0.534-0.363,1.137-0.7,1.72-0.799c4.345-0.721,8.707-1.798,13.03-1.94c4.201-0.139,8.146-2.033,12.257-2.537
		c0.512-0.062,1.035-0.725,1.501-1.18c0.479-0.464,0.824-1.192,1.338-1.5c3.799-2.256,4.709-6.422,5.519-10.602
		c0.142-0.713-0.161-1.665-0.521-2.291c-1.378-2.379-2.756-4.773-4.33-6.965c-1.787-2.484-4.271-3.856-7.013-4.462
		c-3.512-0.778-7.062-1.439-10.63-1.905c-2.766-0.361-5.377-1.012-7.916-2.281c-2.588-1.295-5.375-2.109-8.078-3.113
		c-0.68-0.25-1.384-0.424-2.073-0.625c-1.981-0.594-3.458-1.52-4.466-3.189c9.246-0.954,18.443-3.024,27.562-5.855
		c8.901-2.761,17.431-6.711,21.992-17.668c0.132-0.317,0.569-0.484,1.485-1.219c3.57,0.064,7.721,0.221,11.873,0.182
		c2.969-0.028,6.016,0.199,8.898-0.621c3.182-0.908,6.494-2.355,9.257-4.516C848.341,170.917,848.191,165.213,843.68,162.335z"/>
</g>
</svg>
