<?xml version="1.0" encoding="utf-8"?>
<!-- Generator: Adobe Illustrator 16.0.0, SVG Export Plug-In . SVG Version: 6.00 Build 0)  -->
<!DOCTYPE svg PUBLIC "-//W3C//DTD SVG 1.1//EN" "http://www.w3.org/Graphics/SVG/1.1/DTD/svg11.dtd">
<svg version="1.1" id="Layer_1" xmlns="http://www.w3.org/2000/svg" xmlns:xlink="http://www.w3.org/1999/xlink" x="0px" y="0px"
	 viewBox="0 0 853.597 357.64"
	 xml:space="preserve">
<g opacity="0.7">
	<g>
		<path fill="#B9DAE8" d="M101.903,317.074c-6.253-0.261-12.449-0.229-18.777-0.844c-8.966-0.877-17.984-1.875-27.086-3.536
			c-4.748-0.87-9.741-2.92-14.59-5.067c-5.579-2.473-11.036-4.977-16.354-4.415c-4.448,0.478-9.173-0.986-13.851-4.053
			c-2.742-1.8-5.355-4.155-8-6.333c-3.242-2.673-3.485-3.395-3.116-7.018c0.519-5.065,3.144-7.849,6.969-9.122
			c3.522-1.173,7.266-1.877,11.095-2.837c1.1-5.186,3.684-9.145,7.483-11.883c-0.203-2.047-0.354-3.961-0.592-5.889
			c-0.964-7.789,0.999-13.259,6.155-16.219c3.171-1.82,6.354-3.619,9.606-5.468c-0.171-4.267-0.474-8.653-0.469-12.919
			c0.002-2.963,0.123-5.965,0.739-8.596c0.892-3.811,2.077-7.474,3.522-10.884c1.19-2.79,2.864-5.2,4.472-7.625
			c1.526-2.319,3.197-4.491,4.894-6.632c1.601-2.018,3.135-4.15,5.01-5.812c5.32-4.73,11.075-8.833,17.347-12.138
			c4.868-2.571,10.002-4.993,16.361-3.223c5.202,1.449,8.454,0.354,10.474-3.938c0.27-0.574,0.683-1.027,1.056-1.514
			c4.158-5.411,9.071-9.555,16.47-9.623c3.738-0.033,7.439-0.2,11.425-0.319c-0.44-1.825-1.248-4.023-1.412-6.052
			c-1.223-15.073,1.438-27.404,11.081-34.505c4.032-2.971,8.248-5.709,12.638-8.115c5.334-2.923,11.348-4.394,18.039-4.184
			c3.338,0.103,6.656,0.089,10.011,0.13c0.098-1.226,0.256-2.079,0.232-2.995c-0.214-8.862,1.995-16.273,4.821-23.214
			c2.154-5.297,5.153-9.825,9.737-12.491c3.93-2.29,7.778-4.739,11.796-6.878c1.666-0.887,2.876-1.865,2.773-4.497
			c-0.119-3,1.283-4.925,2.778-6.62c4.974-5.643,11.354-8.768,19.079-8.959c1.19-2.668,2.175-5.272,3.445-7.615
			c2.514-4.619,6.565-7.321,10.226-10.551C253.7,9.062,261.513,6.2,269.08,2.89c9.542-4.18,21.093-2.581,32.001-2.628
			c5.456-0.023,11.562,2.072,17.413,3.765c5.509,1.598,11.125,3.345,16.591,6.082c6.824,3.411,13.572,7.745,20.283,11.986
			c3.574,2.258,7.022,5.096,10.493,7.778c2.06,1.587,3.963,3.315,6.312,3.535c6.038,0.562,12.125,3.826,18.038,7.443
			c5.919,3.619,11.778,7.857,16.657,14c2.104,2.649,4.001,5.512,6.051,8.222c3.753,4.96,9.734,9.949,14.367,13.354
			c8.41,6.18,17.447,11.312,23.777,21.668c1.398,2.287,3.277,3.512,5.525,3.8c3.178,0.409,6.43,2.076,9.455,4.476
			c5.832,4.631,11.678,9.308,16.188,16.119c1.527,2.308,3.133,4.562,5.088,7.403c5.49,1.271,10.838,3.649,16.129,7.055
			c4.582,2.948,9.184,5.832,13.74,8.892c2.104,1.412,4.176,3.048,6.166,4.791c12.582,11.076,22.441,24.822,30.938,39.878
			c0.732,1.299,1.33,2.662,1.938,4.01c3.783,8.384,3.814,8.523,10.957,8.907c8.891,0.478,17.58,3.651,26.113,11.335
			c1.604,1.441,3.262,2.244,4.875,1.944c6.012-1.118,12.262,2.046,18.211,6.497c3.807,2.855,6.395,2.922,9.148,1.35
			c3.756-2.149,7.953-3.318,12.963-2.183c2.598,0.589,3.611-0.8,4.254-3.142c1.029-3.738,2.42-7.226,3.469-10.954
			c1.846-6.522,6.203-10.146,11.393-12.315c10.447-4.356,22.178-2.936,34.949,4.703c1.156,0.691,2.305,1.588,3.467,2.061
			c6.35,2.594,11.672,7.709,16.729,13.455c2.346,2.668,4.375,6.409,6.91,7.996c2.752,1.721,5.918,1.436,8.92,2.147
			c7.535,1.796,14.877,5.423,21.539,12.157c3.098,3.13,5.967,4.82,9.521,5.768c8.533,2.281,16,8.379,20.287,18.301
			c2.625,6.082,5.832,8.801,10.453,10.513c1.01,0.37,2.025,0.699,3.035,1.133c4.027,1.736,8.098,3.221,12.078,5.345
			c3.906,2.086,7.68,3.321,11.545,4.172c4.996,1.098,10.031,2.467,15.064,3.991c3.928,1.187,7.799,3.406,11.15,7.085
			c2.957,3.244,5.723,6.75,8.482,10.227c0.723,0.915,1.488,2.277,1.572,3.252c0.49,5.707,0.836,11.385-3.43,14.041
			c-0.578,0.361-0.77,1.33-1.24,1.912c-0.455,0.576-0.914,1.43-1.576,1.451c-5.359,0.182-9.963,2.316-15.576,1.98
			c-5.781-0.345-11.26,0.598-16.848,1.051c-0.75,0.062-1.438,0.455-2.016,0.893c-5.098,3.869-11.146,5.96-17.297,7.877
			c-0.848,0.262-2.234,0.252-2.389,0.978c-0.934,4.315-4.42,5.224-7.211,7.015c-2.951,1.9-5.943,3.795-9.23,5.072
			c-3.434,1.333-7.15,2.149-10.898,2.781c-4.965,0.843-10.051,1.371-15.135,1.885c-6.178,0.627-12.588,0.63-18.555,1.773
			c-4.881,0.943-9.9,0.844-15.217-0.021c-1.646-0.271-3.264-0.316-4.863-0.341c-11.393-0.147-23.006-1.592-35.008-5.145
			c-4.693-1.392-9.365-2.158-14.061-3.771c-4.848-1.658-9.656-2.355-14.559-5.187c-5.123-2.956-10.314-5.628-15.492-8.157
			c-1.936-0.943-4.088-1.613-5.891-1.572c-3.775,0.093-7.41,0.666-11.059,1.172c-5.34,0.739-10.826,1.162-15.918,2.489
			c-13.418,3.478-27.207,5.995-41.309,7.683c-8.129,0.973-16.434,1.461-24.773,1.797c-7.068,0.284-14.252,0.225-21.475-0.024
			c-7.531-0.26-15.02-0.201-23.094-3.17c-2.498-0.92-5.086-1.407-7.459-1.433c-5.064-0.061-10.279-1.889-15.451-4.086
			c-5.42-2.3-9.846-2.179-13.633,0.561c-1.068,0.771-2.227,1.472-3.506,1.857c-7.148,2.158-13.85,5.27-21.686,5.965
			c-5.874,0.523-11.447,1.944-17.167,2.928c-0.753,0.127-1.559,0.122-2.37,0.074c-10.185-0.586-20.352-1.076-30.584-1.872
			c-2.548-0.196-5.312-1.323-7.985-2.146c-6.361-1.958-12.803-4.543-19.073-5.826c-5.701-1.161-11.332-3.075-17.063-5.101
			c-8.976-3.176-17.877-7.341-26.867-7.581c-10.361-0.285-21.273-2.676-32.33-7.059c-6.703-2.662-13.361-6.703-20.091-8.327
			c-0.161-0.037-0.332-0.19-0.5-0.269c-5.362-2.617-10.75-5.025-16.078-7.896c-7.68-4.129-14.586-3.496-21.674-4.002
			c-0.919-0.066-2.038,0.796-2.229,1.734c-0.311,1.564,1.154,2.361,2.368,3.019c0.824,0.446,1.675,0.926,2.446,1.554
			c4.982,4.062,7.243,10.583,5.065,15.135c-1.454,3.045-3.709,5.167-6.601,6.492c-6.66,3.05-14.975,1.867-21.888,4.272
			c-0.786,0.273-1.942-0.248-2.916-0.343c-1.465-0.144-2.94-0.314-4.379-0.345c-4.803-0.108-9.566-0.049-14.394-0.247
			c-4.166-0.168-8.346-0.299-12.61-0.969c-6.595-1.041-13.253-2.437-19.904-3.851c-6.175-1.312-12.396-2.817-18.525-7.31
			c-2.805-2.061-5.271-2.46-7.685-1.656C110.565,317.284,106.256,317.251,101.903,317.074z"/>
	</g>
	<path fill="#B9DAE8" d="M652.071,115.081c-1.641,0.197-3.457-0.024-5.004-0.71c-6.91-3.062-13.977-4.959-21.26-6.197
		c-11.891-2.024-22.156,2.183-31.215,11.342c-2.049,2.067-3.859,2.797-6.322,2.299c-4.473-0.905-9.061-1.522-13.414,0.224
		c-3.557,1.427-6.309,0.261-9.121-2.134c-2.176-1.854-4.412-3.603-6.693-5.248c-1.193-0.859-2.492-1.654-3.826-2.026
		c-6.209-1.737-12.408-3.615-18.688-4.876c-6.59-1.323-13.277-2.601-19.949-1.137c-12.982,2.854-25.451,7.393-35.674,18.494
		c-0.697,0.762-1.436,1.535-2.26,2.032c-0.951,0.575-2.039,1.272-3.031,1.192c-4.939-0.384-9.506,1.722-14.203,2.955
		c-4.518,1.185-8.58,3.566-11.916,7.501c-2.498,2.951-5.205,4.18-8.711,4.342c-9.146,0.415-17.448,3.84-23.751,12.631
		c-1.709,2.38-4.01,2.985-6.277,3.336c-3.666,0.566-6.873,2.226-9.852,4.842c-1.135,0.995-2.354,1.976-3.653,2.533
		c-6.021,2.604-9.497,8.379-12.464,14.875c-3.151,6.902-2.22,14.128-1.104,21.342c0.168,1.069,0.768,2.15,1.383,2.978
		c3.152,4.239,6.244,8.574,9.631,12.512c1.777,2.067,4.004,3.682,6.229,4.979c4.779,2.796,9.646,5.357,14.541,7.829
		c7.591,3.834,15.449,5.838,23.685,4.712c1.545-0.209,3.07-0.703,4.613-0.797c1.041-0.066,2.344-0.077,3.107,0.611
		c2.604,2.354,5.184,4.826,7.48,7.623c3.324,4.047,6.221,8.643,9.625,12.568c2.35,2.711,5.164,4.873,7.938,6.932
		c1.979,1.471,4.389,2.059,6.33,3.584c4.221,3.322,8.652,3.982,13.412,2.604c2.572-0.742,5.008-1.116,5.861,3.228
		c0.154,0.769,0.98,1.397,1.576,1.96c1.967,1.854,3.969,3.656,5.971,5.461c0.615,0.558,1.219,1.214,1.918,1.548
		c9.115,4.395,18.385,8.229,27.887,11.087c5.148,1.543,10.348,2.248,15.674,0.455c4.686-1.576,8.068,0.666,10.559,6.283
		c2.559-0.4,5.057-0.163,7.195,2.371c0.814,0.963,2.279,1.048,3.424,1.625c1.561,0.787,3.225,1.418,4.607,2.558
		c2.127,1.757,4.127,3.251,6.881,2.563c1.725-0.432,3.424,0.271,4.537,2.197c1.115,1.926,2.506,1.801,4.148,1.247
		c2.23-0.745,4.502-1.347,6.787-1.793c4.756-0.917,9.553-1.465,14.057-3.88c2.164-1.158,4.449-1.117,6.852-0.695
		c3.977,0.699,8.02,0.926,12.037,1.111c3.07,0.141,6.154-0.025,9.227-0.194c0.904-0.052,1.936-0.304,2.656-0.92
		c3.637-3.116,7.848-4.337,11.877-6.273c6.484-3.107,12.73-7.369,17.695-13.65c2.516-3.187,5.248-4.316,8.713-4.337
		c4.178-0.022,8.471,0.053,12.498-1.09c6.768-1.917,13.486-4.357,20.012-7.311c8.27-3.739,15.908-9.18,20.998-18.379
		c2.818-5.092,6.561-7.265,10.998-8.697c3.154-1.02,6.314-2.07,9.396-3.385c5.436-2.324,10.746-5.029,15.684-8.76
		c3.498-2.646,6.525-5.804,8.293-10.965c-2.107-2.885-4.451-3.691-6.998-3.777c-2.02-0.068-4.049-0.065-6.059,0.118
		c-2.205,0.204-3.816-0.591-5.191-2.896c-2.643-4.44-6.299-7.252-10.332-9.575c-4.416-2.545-8.875-4.593-13.732-5.259
		c-2.736-0.377-4.943-1.554-6.205-5.104c-0.629-1.766-2.172-3.229-3.557-4.342c-2.205-1.77-2.967-4.031-3.082-7.226
		c-0.121-3.403-0.428-6.994-1.447-10.103c-1.572-4.789-3.619-9.393-5.826-13.796c-5.281-10.529-12.146-18.523-22.619-20.289
		c-0.873-0.145-1.908-0.615-2.475-1.379c-2.068-2.778-3.945-5.775-5.943-8.64c-0.807-1.16-1.627-2.409-2.646-3.225
		C673.989,119.035,663.862,113.658,652.071,115.081z"/>
</g>
</svg>
