<?xml version="1.0" encoding="utf-8"?>
<svg viewBox="72.78911590576172 33.33333396911621 198.63943481445312 69.38775825500488" xmlns="http://www.w3.org/2000/svg">
  <g transform="matrix(1, 0, 0, 1, -114.6039460382537, -428.489977742734)">
    <g id="fill">
      <path fill="#FFFFFF" d="M247.98,522.504c1.218-0.689,2.366-1.505,3.658-2.104c-1.514,1.737-3.502,2.897-5.555,4.688&#10;&#9;&#9;&#9;c2.379-0.177,3.883-1.343,5.466-2.231c1.58-0.888,3.06-1.951,4.679-2.817c-1.198,1.964-3.594,2.609-5.185,4.632&#10;&#9;&#9;&#9;c1.391-0.114,2.22-0.76,3.117-1.194c0.572-0.276,1.08-0.687,1.646-0.979c1.063-0.551,2.106-1.2,3.237-1.55&#10;&#9;&#9;&#9;c1.079-0.334,2.259-0.34,3.943-0.562c-1.742,1.601-3.117,2.861-4.698,4.312c1.276,0.129,2.182-0.095,3.034-0.703&#10;&#9;&#9;&#9;c1.235-0.882,2.493-1.732,3.745-2.592c0.717-0.492,1.441-0.975,2.273-1.334c-0.777,1.374-2.235,2.063-3.375,3.22&#10;&#9;&#9;&#9;c0.649,0.546,1.058,0.162,1.508-0.117c1.557-0.961,3.114-1.923,4.7-2.834c0.38-0.217,0.872-0.24,1.738-0.462&#10;&#9;&#9;&#9;c-0.443,0.631-0.642,0.913-0.85,1.209c0.11,0.068,0.238,0.216,0.323,0.194c1.416-0.365,2.838-0.738,2.871-2.681&#10;&#9;&#9;&#9;c-0.887-0.367-1.754-0.728-2.698-1.118c0.206-0.465,0.38-0.857,0.646-1.457c-1.318,0.215-2.465,0.4-3.611,0.589&#10;&#9;&#9;&#9;c-0.288-0.907,0.294-1.112,0.813-1.268c1.373-0.406,2.761-0.761,4.236-1.161c0.033,0.288,0.066,0.576,0.126,1.099&#10;&#9;&#9;&#9;c1.097-0.35,2.165-0.688,3.574-1.133c-0.329,0.647-0.492,0.97-0.654,1.29c0.627,0.829,1.428,1.14,2.584,0.956&#10;&#9;&#9;&#9;c-0.584,0.578-1.169,1.157-1.955,1.935c2.006,0.295,3.375-0.983,5.201-1.464c-0.327,0.557-0.538,0.915-0.792,1.349&#10;&#9;&#9;&#9;c0.548,0.599,1.139,0.438,1.718,0.131c1.129-0.598,2.246-1.225,3.371-1.834c0.316-0.173,0.643-0.327,1.057-0.345&#10;&#9;&#9;&#9;c-1.556,1.678-3.824,2.419-5.545,4.116c1.531,0.285,1.531,0.285,5.072-1.015c-1.791,1.673-3.528,2.681-5.769,3.692&#10;&#9;&#9;&#9;c2.784,0.563,4.557-1.133,7.15-1.704c-1.15,0.994-1.765,1.76-2.802,2.062c-0.885,0.258-1.754,0.609-2.612,1.646&#10;&#9;&#9;&#9;c2.887-0.092,5.176-1.268,7.774-1.963c-0.75,1.514-2.571,1.115-3.189,2.668c2.348-0.424,4.215-1.672,6.443-2.124&#10;&#9;&#9;&#9;c-0.758,0.588-1.517,1.177-2.678,2.078c2.737-0.176,4.397-1.852,6.869-2.439c-0.458,0.513-0.657,0.881-0.965,1.05&#10;&#9;&#9;&#9;c-0.816,0.442-1.681,0.801-2.808,1.322c0.868,0.681,1.45,0.464,2.016,0.294c2.635-0.784,4.947-2.226,7.282-3.615&#10;&#9;&#9;&#9;c0.819-0.488,1.619-1.013,2.891-1.812c-0.574,1.269-1.364,1.611-1.982,2.085c-0.697,0.535-1.474,0.967-2.165,1.508&#10;&#9;&#9;&#9;c-0.683,0.533-1.304,1.147-2.084,1.847c3.102-0.228,5.32-1.998,7.843-3.373c-0.33,0.373-0.658,0.747-0.988,1.119&#10;&#9;&#9;&#9;c-0.363,0.408-0.728,0.814-1.26,1.412c1.527,0.235,2.506-0.421,3.486-1.037c0.949-0.595,1.9-1.186,2.822-1.818&#10;&#9;&#9;&#9;c0.943-0.647,1.701-1.575,2.879-1.896c-1.35,1.776-3.088,3.112-5.324,4.715c2.408-0.062,3.771-1.329,5.32-1.984&#10;&#9;&#9;&#9;c0.42,0.288,0.83,0.799,1.15,0.747c1.082-0.172,2.161-0.472,3.186-0.867c0.576-0.222,1.029-0.747,1.562-1.102&#10;&#9;&#9;&#9;c0.508-0.34,1.045-0.634,1.793-0.708c-0.388,0.448-0.791,0.884-1.154,1.349c-0.334,0.425-0.623,0.884-1.232,1.757&#10;&#9;&#9;&#9;c3.015-1.151,4.941-3.07,7.386-4.296c-0.691,0.766-1.384,1.528-2.103,2.324c0.941,0.025,0.943,0.027,2.771-1.201&#10;&#9;&#9;&#9;c0.848-0.57,1.688-1.151,2.885-1.971c-0.449,1.406-1.494,1.853-2.125,2.861c2.598-0.66,4.312-2.408,6.309-3.734&#10;&#9;&#9;&#9;c-0.903,1.789-2.604,2.869-4.147,4.532c0.643,0.098,1.022,0.281,1.289,0.175c1.25-0.505,2.494-1.039,3.688-1.663&#10;&#9;&#9;&#9;c0.82-0.43,1.558-1.024,2.578-1.712c-0.248,0.719-0.387,1.124-0.619,1.795c2.254-0.404,3.59-2.049,5.527-2.726&#10;&#9;&#9;&#9;c-0.658,0.676-1.316,1.35-2.098,2.151c1.481,0.1,2.088-1.466,3.549-1.528c-0.467,1.545-2.154,1.794-2.744,3.262&#10;&#9;&#9;&#9;c2.381-0.4,4.029-2.04,6.473-2.913c-0.838,0.86-1.43,1.468-2.274,2.337c1.182-0.066,1.7-0.688,2.272-1.146&#10;&#9;&#9;&#9;c0.933-0.746,1.744-1.542,3.17-1.257c0.586,0.117,1.33-0.438,1.974-0.747c1.438-0.691,2.86-1.423,4.289-2.137&#10;&#9;&#9;&#9;c0.44-0.312,0.883-0.625,1.323-0.938c-1.821-1.219-3.493-2.688-5.737-3.167c-0.828-0.176-1.609-0.562-2.601-0.921&#10;&#9;&#9;&#9;c-1.545,0.621-2.961,1.978-4.963,2.18c1.777-1.137,3.557-2.271,5.422-3.463c-0.084-0.521-0.17-1.041-0.26-1.603&#10;&#9;&#9;&#9;c-0.367,0.047-0.627,0.014-0.814,0.114c-1.965,1.066-3.916,2.16-5.881,3.229c-0.328,0.181-0.698,0.282-1.227,0.14&#10;&#9;&#9;&#9;c0.328-0.242,0.639-0.513,0.986-0.726c1.903-1.168,3.842-2.291,5.725-3.497c1.166-0.747,1.291-1.068,0.842-2.395&#10;&#9;&#9;&#9;c-0.303-0.892-0.832-1.708-1.293-2.54c-2.44-4.398-6.346-7.176-10.785-9.122c-2.686-1.179-5.668-1.786-8.666-1.37&#10;&#9;&#9;&#9;c-1.67,0.23-3.166,0.182-4.442-1.09c-2.556,1.084-4.613,2.994-7.693,3.676c3.082-1.904,5.822-3.596,8.557-5.282&#10;&#9;&#9;&#9;c0.146-1.234-0.541-2.046-1.303-2.736c-3.875-3.521-8.119-6.476-13.131-8.165c-2.225-0.749-4.537-0.885-6.87-0.735&#10;&#9;&#9;&#9;c-0.47,0.029-0.939,0.036-1.616,0.062c-0.266-0.75-0.53-1.481-0.787-2.216c-0.57-1.623-1.473-3.012-2.895-4.016&#10;&#9;&#9;&#9;c-4.396-3.102-9.253-5.094-14.618-5.523c-4.062-0.327-8.133-0.299-11.934,1.684c-1.62,0.844-3.432,1.312-5.086,2.101&#10;&#9;&#9;&#9;c-3.104,1.48-5.623,3.623-7.141,6.783c-1.158,0.648-2.419,1.186-3.475,1.992c-0.994,0.759-1.771,1.803-2.571,2.645&#10;&#9;&#9;&#9;c-0.302,0.002-0.481,0.054-0.613-0.004c-4.5-1.94-8.907-0.866-13.295,0.433c-0.993,0.294-1.914,0.827-2.906,1.116&#10;&#9;&#9;&#9;c-3.655,1.068-5.769,3.853-7.696,6.839c-0.491,0.762-0.581,1.646-0.291,2.54c0.27,0.836,0.594,1.663,0.756,2.521&#10;&#9;&#9;&#9;c0.104,0.55-0.227,0.735-0.676,0.696c-0.09,0.271-0.228,0.498-0.4,0.684c-0.187,0.377-0.542,0.616-1.075,0.771&#10;&#9;&#9;&#9;c-1.896,0.55-3.42,1.688-4.667,3.209c-0.876,1.068-1.539,2.231-1.733,3.629c-0.179,1.28-0.991,1.963-2.208,2.201&#10;&#9;&#9;&#9;c-0.703,0.137-1.423,0.321-2.129,0.299c-2.486-0.081-4.969-0.116-7.503,0.188c-0.742,0.324-1.516,0.682-2.296,0.726&#10;&#9;&#9;&#9;c-0.582,0.032-0.971,0.051-1.315,0.042c-0.424,0.467-0.975,0.921-1.512,1.206c-0.043,0.201-0.121,0.396-0.232,0.581&#10;&#9;&#9;&#9;c0.005-0.002,0.008-0.003,0.013-0.003c-0.011,0.01-0.016,0.015-0.026,0.021c-0.111,0.18-0.247,0.352-0.429,0.5&#10;&#9;&#9;&#9;c-0.16,0.132-0.346,0.231-0.545,0.309c-0.04,0.022-0.08,0.051-0.122,0.062c-1.665,0.511-3.339,0.989-5.017,1.455&#10;&#9;&#9;&#9;c-1.308,0.362-2.62,0.712-3.94,1.023c-0.609,0.146-1.242,0.252-1.866,0.264c-1.854,0.029-3.681,1.077-4.956,3.01&#10;&#9;&#9;&#9;c0.61,0.217,1.168,0.465,1.751,0.613c2.71,0.688,5.424,1.363,8.143,2.019c2.504,0.604,4.86,0.291,7.173-1.363&#10;&#9;&#9;&#9;c-1.798-0.661-3.384,0.438-5.078,0.032c0.983-0.391,1.967-0.781,3.391-1.347c-2.025-0.625-3.541,0.551-5.413,0.242&#10;&#9;&#9;&#9;c1.256-0.996,2.507-0.916,3.631-1.202c0.749-0.19,1.628-0.035,2.011-1.017c0.086-0.222,0.502-0.363,0.793-0.445&#10;&#9;&#9;&#9;c1.596-0.455,3.201-0.881,4.862-1.17c-0.967,1.22-2.524,1.316-4.205,2.258c1.522-0.057,2.612-0.002,3.67-0.159&#10;&#9;&#9;&#9;c1.082-0.163,2.132-0.532,3.653-0.931c-1.795,1.683-3.934,1.709-5.925,2.962c2.32,0.577,4.007,0.024,5.701-0.61&#10;&#9;&#9;&#9;c1.634-0.613,3.292-1.167,5.001-1.602c-1.895,1.389-4.065,2.21-6.266,2.908c-2.253,0.717-4.56,1.267-6.82,2.097&#10;&#9;&#9;&#9;c2.675-0.353,5.404-0.484,8.011-1.118c2.689-0.653,5.261-1.794,8.194-2.831c-0.732,0.972-1.668,1.156-2.426,1.587&#10;&#9;&#9;&#9;c-0.738,0.419-1.478,0.836-2.141,1.428c2.452,0.292,4.299-1.466,6.535-1.835c0.067,0.881-0.777,0.751-1.22,1.052&#10;&#9;&#9;&#9;c-0.514,0.35-1.085,0.61-2.069,1.148c2.532,0.124,4.185-1.274,6.256-1.419c-0.439,0.938-1.407,0.884-2.063,1.289&#10;&#9;&#9;&#9;c-0.721,0.445-1.478,0.833-2.609,1.464c1.429,0.409,2.304,0.037,3.179-0.17c0.855-0.201,1.715-0.406,2.546-0.688&#10;&#9;&#9;&#9;c0.877-0.297,1.724-0.685,2.781-0.737c-0.854,0.768-1.709,1.536-2.763,2.483c2.323-0.032,3.941-1.53,6.026-1.731&#10;&#9;&#9;&#9;c-1.223,0.888-2.444,1.772-3.666,2.661c2.178-0.035,3.906-1.3,6.28-1.876c-0.941,1.53-2.823,1.312-3.492,2.987&#10;&#9;&#9;&#9;c2.483-1.06,4.766-2.033,7.049-3.007c-1.334,2.105-3.944,2.16-5.56,3.764c1.397,0.337,2.787,0.073,4.814-0.976&#10;&#9;&#9;&#9;c1.485-0.77,2.946-1.585,4.503-2.27c-1.089,1.743-3.022,2.489-4.522,3.803c1.395,0.009,2.499-0.743,3.652-1.353&#10;&#9;&#9;&#9;c1.191-0.629,2.376-1.27,3.666-1.759c-1.125,1.763-3.179,2.39-4.924,3.979c0.719,0.014,1.183,0.16,1.499,0.005&#10;&#9;&#9;&#9;C244.612,524.322,246.317,523.446,247.98,522.504z M327.301,492.936c-0.932,1.504-1.049,1.579-3.717,2.1&#10;&#9;&#9;&#9;C324.709,494.399,325.834,493.765,327.301,492.936z M265.865,514.745c0.851-1.234,0.851-1.234,5.708-2.247&#10;&#9;&#9;&#9;c0.038,0.341,0.123,0.568,0.059,0.623C270.813,513.825,269.074,514.302,265.865,514.745z M302.928,508.094&#10;&#9;&#9;&#9;c-0.328,0.161-0.721,0.187-1.312,0.329c1.289-1.295,6.204-3.761,11.775-5.502C309.906,504.647,306.421,506.382,302.928,508.094z&#10;&#9;&#9;&#9; M312.158,505.851c-1.4,1.574-2.385,2.04-4.111,2.16C309.268,507.368,310.5,506.721,312.158,505.851z M279.548,512.617&#10;&#9;&#9;&#9;c0.242-0.64,0.271-1.071,0.458-1.157c3.71-1.72,7.438-3.397,11.199-5.018C287.829,509.105,283.982,510.896,279.548,512.617z&#10;&#9;&#9;&#9; M291.205,508.94c-2.495,1.513-4.986,3.029-7.494,4.521c-0.15,0.09-0.422-0.026-0.679-0.052&#10;&#9;&#9;&#9;C284.332,511.898,288.415,509.414,291.205,508.94z M280.668,507.464c-2.699,1.479-5.514,2.714-8.431,3.712&#10;&#9;&#9;&#9;c-0.432,0.147-0.988-0.067-1.912-0.158c3.666-1.437,6.906-2.705,10.147-3.976L280.668,507.464z M290.557,503.98&#10;&#9;&#9;&#9;c-4.397,2.394-8.794,4.789-13.201,7.167c-0.16,0.086-0.427-0.028-0.684-0.055C277.845,509.592,285.278,505.608,290.557,503.98z&#10;&#9;&#9;&#9; M299.526,506.522c-0.019-0.07-0.055-0.143-0.048-0.21c0.007-0.072,0.035-0.166,0.088-0.209c0.122-0.096,0.254-0.188,0.398-0.241&#10;&#9;&#9;&#9;c1.711-0.66,3.471-1.216,5.128-1.989c2.814-1.316,5.564-2.772,8.346-4.159c0.008-0.005,0.079,0.124,0.122,0.191&#10;&#9;&#9;&#9;C310.281,502.524,301.91,506.472,299.526,506.522z M278.021,502.59c-1.186,0.948-2.325,1.984-3.925,2.168&#10;&#9;&#9;&#9;C275.129,503.54,276.648,503.195,278.021,502.59z M266.562,506.127c-0.38,0.183-0.867,0.145-1.313,0.188&#10;&#9;&#9;&#9;c0.271-0.256,0.512-0.568,0.831-0.723c2.705-1.306,5.427-2.575,8.282-3.696c-0.393,0.308-0.748,0.688-1.184,0.912&#10;&#9;&#9;&#9;C270.988,503.943,268.786,505.059,266.562,506.127z M277.735,504.958c0.134-0.066,0.31-0.05,0.855-0.126&#10;&#9;&#9;&#9;c-0.427,0.422-0.604,0.7-0.859,0.835c-2.826,1.49-5.655,2.975-8.505,4.418c-0.559,0.283-1.209,0.392-1.822,0.562&#10;&#9;&#9;&#9;c-2.768,0.764-5.537,1.522-8.308,2.271c-0.13,0.035-0.292-0.046-0.557-0.094c0.429-0.925,1.275-1.168,2.082-1.378&#10;&#9;&#9;&#9;c1.853-0.479,3.757-0.783,5.576-1.36c1.959-0.623,3.876-1.408,5.754-2.251C273.914,506.954,275.806,505.917,277.735,504.958z&#10;&#9;&#9;&#9; M265.8,512.39c1.007-0.37,2.127-0.437,3.198-0.637c0.026,0.188,0.052,0.378,0.078,0.565c-2.03,0.548-4.06,1.094-6.475,1.744&#10;&#9;&#9;&#9;C263.457,512.483,264.815,512.754,265.8,512.39z M291.105,511.222c-1.708,1.771-4.428,3.129-6.527,3.207&#10;&#9;&#9;&#9;C286.812,513.168,288.658,512.01,291.105,511.222z M299.887,514.399c1.082-1.245,2.844-2.128,5.713-2.915&#10;&#9;&#9;&#9;C303.833,513.027,302.161,514.018,299.887,514.399z M296.22,513.794c1.291-1.159,2.757-1.96,4.9-2.39&#10;&#9;&#9;&#9;C299.533,513.051,297.895,513.46,296.22,513.794z M291.815,514.035c-0.114,0.058-0.372-0.168-0.838-0.397&#10;&#9;&#9;&#9;c2.245-1.304,4.301-2.467,6.56-3.259C295.887,512.011,293.841,513.011,291.815,514.035z M301.832,510.485&#10;&#9;&#9;&#9;c2.094-1.096,3.987-1.871,5.987-2.384C306.239,509.63,304,510.588,301.832,510.485z M310.484,510.237&#10;&#9;&#9;&#9;c0.926-0.756,1.729-0.937,2.44-1.274c0.791-0.376,1.576-0.769,2.363-1.15c0.762-0.37,1.527-0.736,2.291-1.105&#10;&#9;&#9;&#9;C314.879,509.022,312.895,509.929,310.484,510.237z M316.363,509.949c0.08-0.123,0.133-0.312,0.246-0.357&#10;&#9;&#9;&#9;c1.272-0.524,2.559-1.027,4.196-1.68C318.893,509.564,317.727,510.062,316.363,509.949z M349.719,505.78&#10;&#9;&#9;&#9;c-0.916,1.339-4.592,3.569-8.256,4.697c2.611-1.599,5.223-3.199,7.844-4.785C349.395,505.641,349.58,505.747,349.719,505.78z&#10;&#9;&#9;&#9; M348.531,504.737c-4.129,2.994-8.752,4.927-13.793,5.979c0.303-0.146,0.592-0.334,0.91-0.429&#10;&#9;&#9;&#9;c3.229-0.967,6.289-2.287,9.129-4.126c1.119-0.726,2.325-1.313,3.491-1.964L348.531,504.737z M347.393,503.069&#10;&#9;&#9;&#9;c-3.389,2.059-6.938,3.751-10.838,4.613c3.633-1.74,7.267-3.48,11.021-5.279C347.504,502.688,347.52,502.993,347.393,503.069z&#10;&#9;&#9;&#9; M346.096,500.772c-1.942,1.802-4.395,2.701-6.643,3.961c-0.078-0.135-0.156-0.27-0.232-0.403&#10;&#9;&#9;&#9;c2.201-1.312,4.402-2.624,6.605-3.938C345.916,500.52,346.006,500.646,346.096,500.772z M272.824,478.585&#10;&#9;&#9;&#9;c0.385-0.316,0.739-0.705,1.18-0.887c1.504-0.619,3.045-1.147,4.64-1.523C276.797,477.222,274.938,478.214,272.824,478.585z&#10;&#9;&#9;&#9; M270.044,471.59c-1.783,1.218-3.566,2.436-5.112,3.489C266.132,473.544,267.961,472.401,270.044,471.59z M264.779,477.768&#10;&#9;&#9;&#9;c1.958-3.095,5.258-4.279,8.81-6.011c-0.513,1.126-1.253,1.246-1.767,1.588c-0.595,0.396-1.25,0.701-1.866,1.064&#10;&#9;&#9;&#9;c-0.547,0.324-1.096,0.649-1.611,1.021c-0.58,0.42-1.137,0.873-1.676,1.345c-0.523,0.456-1.012,0.952-1.517,1.432&#10;&#9;&#9;&#9;C265.027,478.06,264.903,477.913,264.779,477.768z M272.323,475.829c0.098,0.129,0.195,0.258,0.293,0.387&#10;&#9;&#9;&#9;c-0.454,0.294-0.905,0.594-1.363,0.881c-2.042,1.28-4.085,2.556-6.233,3.665C267.061,478.519,269.667,477.136,272.323,475.829z&#10;&#9;&#9;&#9; M272.656,478.674c-0.745,1.094-1.901,1.535-3.072,1.952C270.331,479.522,271.315,478.806,272.656,478.674z M275.857,479.519&#10;&#9;&#9;&#9;c0.086,0.146,0.173,0.29,0.259,0.436c-1.362,0.813-2.725,1.63-4.087,2.443C272.819,480.665,274.352,480.111,275.857,479.519z&#10;&#9;&#9;&#9; M277.418,481.647c0.841-0.333,1.664-0.795,2.714-0.434c-1.523,0.67-3.047,1.341-4.592,2.021&#10;&#9;&#9;&#9;C276.087,482.197,276.079,482.177,277.418,481.647z M282.751,482.692c-1.194,0.991-2.611,1.432-4.068,1.771&#10;&#9;&#9;&#9;C279.766,483.192,281.239,482.896,282.751,482.692z M286.001,484.636c-1.032,0.747-2.047,1.523-3.477,1.429&#10;&#9;&#9;&#9;C283.471,485.101,284.679,484.729,286.001,484.636z M322.971,486.415c-0.887,1.816-2.813,2.238-4.364,3.192&#10;&#9;&#9;&#9;C319.875,488.312,321.285,487.207,322.971,486.415z M325.498,488.388c-0.449,0.591-0.605,0.945-0.877,1.131&#10;&#9;&#9;&#9;c-2.238,1.521-4.582,2.826-7.305,3.339c0.672-0.733,1.643-0.943,2.481-1.382c0.92-0.477,1.824-0.979,2.728-1.485&#10;&#9;&#9;&#9;C323.379,489.509,324.008,488.615,325.498,488.388z M252.246,486.248c1.613-0.4,3.226-0.8,5.333-1.323&#10;&#9;&#9;&#9;c-0.971,1.271-1.967,0.962-2.77,1.166c-0.816,0.207-1.637,0.395-2.456,0.59C252.317,486.536,252.281,486.393,252.246,486.248z&#10;&#9;&#9;&#9; M259.148,487.343c-1.771,0.363-3.543,0.729-5.549,1.142C254.764,487.451,256.173,487.151,259.148,487.343z M297.103,491.649&#10;&#9;&#9;&#9;c-1.355,1.661-1.783,1.862-3.841,1.784C294.629,492.8,295.74,492.282,297.103,491.649z M293.677,495.079&#10;&#9;&#9;&#9;c2.001-0.869,4.002-1.738,6.243-2.712C298.339,494.188,295.471,495.534,293.677,495.079z M292.639,498.037&#10;&#9;&#9;&#9;c4.581-0.856,8.742-2.518,12.824-4.415c-3.779,2.53-7.805,4.435-12.35,5.033C293.014,498.668,292.869,498.345,292.639,498.037z&#10;&#9;&#9;&#9; M294.023,501.104c2.64-0.96,4.788-1.66,6.87-2.521c2.096-0.866,4.126-1.893,6.642-3.061c-2.172,2.009-9.203,5.387-12.013,5.905&#10;&#9;&#9;&#9;C295.219,501.483,294.872,501.297,294.023,501.104z M303.692,500.74c2.408-1.004,4.763-2.134,7.14-3.208&#10;&#9;&#9;&#9;c-4.048,2.932-8.519,4.967-13.276,6.375c-0.303,0.089-0.684-0.08-1.573-0.206C298.908,502.585,301.327,501.727,303.692,500.74z&#10;&#9;&#9;&#9; M241.157,499.743c1.165-0.496,2.33-0.993,3.495-1.49c-0.888,1.045-1.963,1.682-3.231,1.922&#10;&#9;&#9;&#9;C241.333,500.031,241.245,499.887,241.157,499.743z M242.409,500.812l4.518-1.839c0.067,0.142,0.134,0.283,0.202,0.426&#10;&#9;&#9;&#9;C245.68,500.192,244.34,501.273,242.409,500.812z M242.18,503.101c2.958-0.852,5.458-1.569,7.87-2.264&#10;&#9;&#9;&#9;C248.798,502.324,244.693,503.662,242.18,503.101z M244.97,504.605c1.674-0.485,3.35-0.973,5.025-1.459&#10;&#9;&#9;&#9;C248.487,504.221,246.965,505.246,244.97,504.605z M250.396,506.249c-0.516-0.413-1.621-0.092-2.479-0.367&#10;&#9;&#9;&#9;c2.466-0.895,4.933-1.788,7.899-2.862c-1.427,1.371-2.909,1.727-4.427,2.752c3.782,0.197,6.61-1.727,9.75-2.436&#10;&#9;&#9;&#9;c-2.325,1.384-4.743,2.499-7.367,3.072C252.672,506.648,251.595,507.207,250.396,506.249z M228.4,504.911&#10;&#9;&#9;&#9;c-0.814,1.684-2.337,0.179-3.377,0.76C225.963,504.564,227.012,503.914,228.4,504.911z M233.867,505.666&#10;&#9;&#9;&#9;c-1.4,0.452-2.799,0.904-4.198,1.355C230.81,505.978,232.212,505.418,233.867,505.666z M251.786,509.768&#10;&#9;&#9;&#9;c0.951-0.402,1.93-0.742,2.977-1.137c-0.068-0.447-0.133-0.873-0.224-1.467c2.574,0.366,4.529-1.208,6.936-1.944&#10;&#9;&#9;&#9;c-0.447,1.322-1.948,1.13-2.579,2.212c0.847,0.461,1.628,0.101,2.424-0.062c1.283-0.264,2.39-1.2,3.787-1.013&#10;&#9;&#9;&#9;c-2.515,1.51-5.112,2.73-8.154,2.711c-0.769-0.005-1.555,0.252-2.306,0.478c-1.125,0.339-2.227,0.755-3.542,0.859&#10;&#9;&#9;&#9;C251.328,510.188,251.517,509.882,251.786,509.768z M255.239,511.11c3.09-1.013,6.137-2.178,9.438-2.405&#10;&#9;&#9;&#9;c0.76-0.053,1.525-0.425,2.233-0.764c1.719-0.824,3.392-1.746,5.116-2.56c0.596-0.281,1.278-0.378,1.927-0.546&#10;&#9;&#9;&#9;c-0.186,0.216-0.349,0.474-0.583,0.602c-2.376,1.29-4.759,2.57-7.159,3.815c-1.137,0.59-2.334,0.77-3.655,0.818&#10;&#9;&#9;&#9;c-1.71,0.062-3.411,0.613-5.096,1.032c-0.971,0.241-1.904,0.634-3.033,0.583C254.697,511.491,254.938,511.209,255.239,511.11z&#10;&#9;&#9;&#9; M238.734,509.965c-1.714,0.811-3.516,1.296-5.402,1.476C234.968,510.343,236.81,510.003,238.734,509.965z M240.549,511.251&#10;&#9;&#9;&#9;c-1.687,1.01-1.838,1.045-4.47,0.953C237.774,511.536,239.051,511.384,240.549,511.251z M196.688,514.675&#10;&#9;&#9;&#9;c1.842-1.368,4.226-1.872,7.303-1.496C201.257,513.738,199.098,514.181,196.688,514.675z M242.771,513.116&#10;&#9;&#9;&#9;c-0.259,0.161-0.418,0.325-0.605,0.368c-1.678,0.39-3.36,0.76-5.041,1.135C239.088,513.253,240.07,513.046,242.771,513.116z&#10;&#9;&#9;&#9; M242.4,517.594c0.859-0.824,1.835-0.656,3.181-0.553C244.386,517.884,243.415,517.879,242.4,517.594z"/>
      <path fill="#FFFFFF" d="M360.223,515.645c0.941-0.622,1.974-0.493,3.015-0.396c4.35,0.411,8.396,1.833,12.36,3.583&#10;&#9;&#9;&#9;c1.968,0.868,3.988,1.612,5.98,2.426c0.354,0.146,0.684,0.36,1.031,0.546c-0.728,1.139-0.728,1.139-2.83,1.798&#10;&#9;&#9;&#9;c0.184-0.5,0.324-0.879,0.51-1.383c-1.893-0.079-3.504,1.238-5.594,0.849c0.326-0.52,0.557-0.886,0.858-1.363&#10;&#9;&#9;&#9;c-0.871,0.167-1.674,0.322-2.475,0.476c-0.254-0.403-0.455-0.725-0.68-1.08c-0.666,0.201-1.343,0.405-2.175,0.656&#10;&#9;&#9;&#9;c-0.153-0.417-0.278-0.756-0.45-1.225c-0.877,0.284-1.759,0.568-2.742,0.888c-0.105-0.315-0.199-0.598-0.351-1.048&#10;&#9;&#9;&#9;c-0.719,0.235-1.438,0.473-2.17,0.713c-0.067-0.437-0.024-1.649,0.06-1.937c-1.804,0.479-3.158,2.113-5.291,2.118&#10;&#9;&#9;&#9;c0.004-1.294,1.371-1.545,1.709-2.699c-2.646,0.61-4.906,1.99-7.479,2.459c0.742-1.073,1.908-1.553,2.854-2.309&#10;&#9;&#9;&#9;c0.86-0.688,1.688-1.422,2.533-2.135C359.34,516.269,359.781,515.956,360.223,515.645z"/>
      <path fill="#FFFFFF" d="M266.361,525.476c2.375-2.024,4.776-3.187,7.379-4.021c1.659-0.53,3.258-1.244,4.893-1.852&#10;&#9;&#9;&#9;c0.649-0.241,1.322-0.418,2.181-0.284c-0.309,0.25-0.581,0.585-0.932,0.735c-1.388,0.601-2.812,1.118-4.202,1.713&#10;&#9;&#9;&#9;c-2.841,1.214-5.669,2.457-8.506,3.681C267.052,525.501,266.89,525.462,266.361,525.476z"/>
      <path fill="#FFFFFF" d="M280.033,522.184c-1.816,0.758-3.659,1.453-5.439,2.286c-1.703,0.796-3.341,1.732-5.379,2.803&#10;&#9;&#9;&#9;C270.817,524.75,276.696,521.979,280.033,522.184z"/>
      <path fill="#FFFFFF" d="M259.979,521.714c-2.486,1.942-4.833,4.123-8.154,4.972C253.184,524.91,256.59,522.76,259.979,521.714z"/>
    </g>
    <g id="line">
      <path d="M360.223,515.645c-1.821-1.219-3.494-2.688-5.737-3.166c-0.828-0.177-1.609-0.562-2.601-0.922&#10;&#9;&#9;&#9;c-1.545,0.621-2.961,1.978-4.963,2.18c1.777-1.137,3.557-2.271,5.422-3.463c-0.084-0.521-0.17-1.041-0.26-1.603&#10;&#9;&#9;&#9;c-0.367,0.047-0.627,0.014-0.814,0.114c-1.965,1.066-3.916,2.16-5.881,3.229c-0.328,0.181-0.699,0.282-1.227,0.14&#10;&#9;&#9;&#9;c0.328-0.242,0.639-0.513,0.986-0.726c1.903-1.168,3.842-2.291,5.725-3.497c1.166-0.747,1.291-1.068,0.842-2.395&#10;&#9;&#9;&#9;c-0.303-0.892-0.832-1.708-1.293-2.54c-2.441-4.398-6.346-7.176-10.785-9.122c-2.686-1.179-5.668-1.786-8.666-1.37&#10;&#9;&#9;&#9;c-1.67,0.23-3.166,0.182-4.442-1.09c-2.556,1.084-4.613,2.994-7.693,3.676c3.082-1.904,5.822-3.596,8.557-5.282&#10;&#9;&#9;&#9;c0.146-1.234-0.541-2.046-1.303-2.736c-3.875-3.521-8.119-6.476-13.131-8.165c-2.225-0.749-4.537-0.885-6.87-0.735&#10;&#9;&#9;&#9;c-0.47,0.029-0.939,0.036-1.616,0.062c-0.266-0.75-0.53-1.481-0.787-2.216c-0.57-1.623-1.473-3.012-2.895-4.016&#10;&#9;&#9;&#9;c-4.396-3.102-9.253-5.094-14.618-5.523c-4.062-0.327-8.133-0.299-11.934,1.684c-1.62,0.844-3.432,1.312-5.086,2.101&#10;&#9;&#9;&#9;c-3.104,1.48-5.623,3.623-7.141,6.783c-1.158,0.648-2.419,1.187-3.475,1.992c-0.994,0.759-1.771,1.803-2.571,2.645&#10;&#9;&#9;&#9;c-0.302,0.002-0.481,0.054-0.613-0.004c-4.5-1.94-8.907-0.865-13.295,0.433c-0.993,0.294-1.914,0.828-2.906,1.116&#10;&#9;&#9;&#9;c-3.655,1.068-5.769,3.853-7.696,6.839c-0.491,0.762-0.581,1.646-0.291,2.541c0.27,0.835,0.594,1.662,0.756,2.521&#10;&#9;&#9;&#9;c0.123,0.646-0.353,0.792-0.917,0.659l0.037,0.041c-0.245-0.844-0.484-1.688-0.735-2.531c-0.577-1.94-0.033-3.627,1.181-5.151&#10;&#9;&#9;&#9;c2.118-2.659,4.559-4.75,7.854-6.046c3.633-1.427,7.312-2.309,11.155-2.518c1.637-0.089,3.298,0.278,5.204,0.463&#10;&#9;&#9;&#9;c0.626-0.572,1.328-1.551,2.282-2.014c2.139-1.038,3.651-2.586,5.07-4.474c1.537-2.045,3.672-3.521,6.16-4.416&#10;&#9;&#9;&#9;c2.632-0.946,5.216-2.024,7.833-3.018c2.457-0.93,5.056-0.797,7.594-0.748c6.437,0.124,12.215,2.321,17.326,6.163&#10;&#9;&#9;&#9;c1.025,0.771,1.644,2.115,2.364,3.251c0.374,0.59,0.559,1.302,0.859,2.033c0.604,0.059,1.152,0.188,1.691,0.151&#10;&#9;&#9;&#9;c4.785-0.312,8.929,1.566,12.886,3.894c1.986,1.169,3.779,2.676,5.609,4.096c1.697,1.318,2.908,2.961,3.008,5.226&#10;&#9;&#9;&#9;c0.012,0.229,0.139,0.449,0.254,0.799c0.416,0.062,0.875,0.213,1.324,0.186c4.008-0.242,7.855,0.492,11.371,2.363&#10;&#9;&#9;&#9;c4.43,2.354,8.408,5.339,10.303,10.246c0.854,2.218,1.336,4.58,2.027,7.014c1.721,0.591,3.504,1.247,4.957,2.562&#10;&#9;&#9;&#9;c0.313,0.283,0.889,0.313,1.354,0.39c1.814,0.288,3.627,0.607,5.453,0.803c2.91,0.313,5.566,1.427,8.232,2.5&#10;&#9;&#9;&#9;c3.037,1.225,6.037,2.535,9.047,3.828c0.352,0.15,0.649,0.422,1.012,0.661c-0.283,1.783-1.403,2.709-2.94,3.158&#10;&#9;&#9;&#9;c-0.67,0.195-1.437,0.222-2.138,0.144c-2.608-0.292-5.2-0.741-7.813-0.978c-3.572-0.326-7.158-0.514-10.738-0.76&#10;&#9;&#9;&#9;c-1.037-0.07-2.074-0.199-3.109-0.198c-1.35,0.002-2.696,0.112-4.047,0.166c-0.537,0.021-1.078-0.003-1.614,0.03&#10;&#9;&#9;&#9;c-0.459,0.029-0.941,0.032-1.363,0.186c-3.822,1.378-7.816,1.616-11.812,1.656c-3.11,0.03-6.227-0.16-9.336-0.352&#10;&#9;&#9;&#9;c-1.506-0.093-2.813,0.497-4.19,0.876c-2.326,0.642-4.679,1.041-7.095,0.735c-0.698-0.088-1.432-0.225-2.049-0.537&#10;&#9;&#9;&#9;c-0.994-0.501-1.844-0.402-2.666,0.269c-2.233,1.819-4.809,2.354-7.637,2.22c-1.587-0.074-3.188,0.16-4.784,0.24&#10;&#9;&#9;&#9;c-3.59,0.185-7.18,0.357-10.77,0.539c-0.635,0.031-1.271,0.084-1.905,0.125c-0.396,0.025-0.811,0.138-1.184,0.057&#10;&#9;&#9;&#9;c-3.035-0.658-6.076-1.308-9.088-2.064c-1.037-0.26-1.875-0.194-2.65,0.539c-1.384,1.312-3.059,1.526-4.893,1.469&#10;&#9;&#9;&#9;c-5.028-0.156-10.064-0.402-15.085-0.241c-3.767,0.12-7.523,0.12-11.245-0.273c-4.588-0.485-9.224-0.894-13.558-2.768&#10;&#9;&#9;&#9;c-1.226-0.529-2.608-0.688-3.894-1.094c-1.188-0.375-2.216-1.097-3.521-1.278c-2.915-0.411-5.787-1.143-8.705-1.517&#10;&#9;&#9;&#9;c-2.371-0.303-4.752-0.44-7.111-0.923c-5.083-1.038-10.195-1.931-15.291-2.907c-1.08-0.208-2.2-0.364-3.136-1.156&#10;&#9;&#9;&#9;c0.048-1.533,0.781-2.631,2.024-3.332c1.807-1.021,3.649-1.946,5.752-2.309c2.755-0.475,5.48-1.122,8.221-1.683&#10;&#9;&#9;&#9;c0.433-0.088,0.878-0.109,1.842-0.223c-0.657,0.533-0.859,0.812-1.122,0.893c-1.665,0.511-3.339,0.989-5.017,1.455&#10;&#9;&#9;&#9;c-1.308,0.363-2.62,0.712-3.94,1.023c-0.609,0.146-1.242,0.253-1.866,0.264c-1.854,0.03-3.681,1.077-4.956,3.01&#10;&#9;&#9;&#9;c0.61,0.217,1.168,0.465,1.751,0.613c2.71,0.688,5.424,1.363,8.143,2.019c2.504,0.604,4.86,0.291,7.173-1.362&#10;&#9;&#9;&#9;c-1.798-0.661-3.384,0.438-5.078,0.031c0.983-0.391,1.967-0.781,3.391-1.347c-2.025-0.625-3.541,0.551-5.413,0.242&#10;&#9;&#9;&#9;c1.256-0.996,2.507-0.916,3.631-1.202c0.749-0.19,1.628-0.035,2.011-1.016c0.086-0.223,0.502-0.364,0.793-0.446&#10;&#9;&#9;&#9;c1.596-0.455,3.201-0.88,4.862-1.17c-0.967,1.22-2.524,1.316-4.205,2.258c1.522-0.056,2.612-0.002,3.67-0.159&#10;&#9;&#9;&#9;c1.082-0.163,2.132-0.532,3.653-0.931c-1.795,1.683-3.934,1.709-5.925,2.962c2.32,0.578,4.007,0.024,5.701-0.61&#10;&#9;&#9;&#9;c1.634-0.612,3.292-1.167,5.001-1.602c-1.895,1.389-4.065,2.21-6.266,2.909c-2.253,0.716-4.56,1.266-6.82,2.096&#10;&#9;&#9;&#9;c2.675-0.353,5.404-0.484,8.011-1.118c2.689-0.653,5.261-1.794,8.194-2.831c-0.732,0.972-1.668,1.156-2.426,1.587&#10;&#9;&#9;&#9;c-0.738,0.419-1.478,0.836-2.141,1.428c2.452,0.292,4.299-1.466,6.535-1.835c0.067,0.881-0.777,0.751-1.22,1.053&#10;&#9;&#9;&#9;c-0.514,0.349-1.085,0.609-2.069,1.147c2.532,0.124,4.185-1.273,6.256-1.419c-0.439,0.938-1.407,0.884-2.063,1.289&#10;&#9;&#9;&#9;c-0.721,0.445-1.478,0.833-2.609,1.464c1.429,0.409,2.304,0.037,3.179-0.17c0.855-0.201,1.715-0.406,2.546-0.688&#10;&#9;&#9;&#9;c0.877-0.298,1.724-0.686,2.781-0.738c-0.854,0.768-1.709,1.536-2.763,2.484c2.323-0.033,3.941-1.531,6.026-1.732&#10;&#9;&#9;&#9;c-1.223,0.888-2.444,1.773-3.666,2.661c2.178-0.035,3.906-1.3,6.28-1.876c-0.941,1.531-2.823,1.312-3.492,2.988&#10;&#9;&#9;&#9;c2.483-1.061,4.766-2.034,7.049-3.008c-1.334,2.105-3.944,2.16-5.56,3.764c1.397,0.337,2.787,0.073,4.814-0.976&#10;&#9;&#9;&#9;c1.485-0.77,2.946-1.585,4.503-2.27c-1.089,1.744-3.022,2.49-4.522,3.803c1.395,0.009,2.499-0.743,3.652-1.352&#10;&#9;&#9;&#9;c1.191-0.629,2.376-1.271,3.666-1.76c-1.125,1.763-3.179,2.39-4.924,3.979c0.719,0.014,1.183,0.16,1.499,0.005&#10;&#9;&#9;&#9;c1.718-0.842,3.423-1.718,5.087-2.66c1.218-0.689,2.366-1.505,3.658-2.104c-1.514,1.737-3.502,2.897-5.555,4.688&#10;&#9;&#9;&#9;c2.379-0.177,3.883-1.343,5.466-2.231c1.58-0.888,3.06-1.951,4.679-2.817c-1.198,1.964-3.594,2.609-5.185,4.632&#10;&#9;&#9;&#9;c1.391-0.114,2.22-0.76,3.117-1.193c0.572-0.277,1.08-0.688,1.646-0.98c1.063-0.551,2.106-1.2,3.237-1.55&#10;&#9;&#9;&#9;c1.079-0.334,2.259-0.34,3.943-0.562c-1.742,1.601-3.117,2.861-4.698,4.312c1.276,0.129,2.182-0.095,3.034-0.703&#10;&#9;&#9;&#9;c1.235-0.882,2.493-1.732,3.745-2.592c0.717-0.492,1.441-0.975,2.273-1.334c-0.777,1.374-2.235,2.063-3.375,3.22&#10;&#9;&#9;&#9;c0.649,0.546,1.058,0.162,1.508-0.117c1.557-0.961,3.114-1.923,4.7-2.834c0.38-0.217,0.872-0.239,1.738-0.462&#10;&#9;&#9;&#9;c-0.443,0.631-0.642,0.913-0.85,1.209c0.11,0.068,0.238,0.216,0.323,0.194c1.416-0.365,2.838-0.738,2.871-2.68&#10;&#9;&#9;&#9;c-0.887-0.368-1.754-0.729-2.698-1.119c0.206-0.464,0.38-0.857,0.646-1.457c-1.318,0.215-2.465,0.4-3.611,0.589&#10;&#9;&#9;&#9;c-0.288-0.907,0.294-1.112,0.813-1.268c1.373-0.406,2.761-0.761,4.236-1.16c0.033,0.287,0.066,0.575,0.126,1.098&#10;&#9;&#9;&#9;c1.097-0.349,2.165-0.688,3.574-1.133c-0.329,0.647-0.492,0.97-0.654,1.29c0.627,0.83,1.428,1.14,2.584,0.957&#10;&#9;&#9;&#9;c-0.584,0.577-1.169,1.156-1.955,1.934c2.006,0.295,3.375-0.983,5.201-1.464c-0.327,0.557-0.538,0.915-0.792,1.349&#10;&#9;&#9;&#9;c0.548,0.599,1.139,0.438,1.718,0.131c1.129-0.598,2.246-1.225,3.371-1.834c0.316-0.173,0.643-0.326,1.057-0.345&#10;&#9;&#9;&#9;c-1.556,1.678-3.824,2.419-5.545,4.116c1.531,0.285,1.531,0.285,5.072-1.015c-1.791,1.673-3.528,2.681-5.769,3.692&#10;&#9;&#9;&#9;c2.784,0.563,4.557-1.133,7.15-1.704c-1.15,0.994-1.765,1.761-2.802,2.062c-0.885,0.258-1.754,0.609-2.612,1.646&#10;&#9;&#9;&#9;c2.887-0.092,5.176-1.268,7.774-1.963c-0.75,1.515-2.571,1.115-3.189,2.668c2.348-0.424,4.215-1.672,6.443-2.124&#10;&#9;&#9;&#9;c-0.758,0.588-1.517,1.178-2.678,2.078c2.737-0.176,4.397-1.852,6.869-2.438c-0.458,0.512-0.657,0.88-0.965,1.049&#10;&#9;&#9;&#9;c-0.816,0.442-1.681,0.801-2.808,1.323c0.868,0.68,1.45,0.463,2.016,0.294c2.635-0.785,4.947-2.227,7.282-3.616&#10;&#9;&#9;&#9;c0.819-0.488,1.619-1.012,2.891-1.812c-0.574,1.269-1.364,1.611-1.982,2.085c-0.697,0.535-1.474,0.967-2.165,1.508&#10;&#9;&#9;&#9;c-0.683,0.533-1.304,1.147-2.084,1.847c3.102-0.228,5.32-1.998,7.843-3.373c-0.33,0.373-0.658,0.747-0.988,1.119&#10;&#9;&#9;&#9;c-0.363,0.408-0.727,0.814-1.26,1.412c1.527,0.235,2.506-0.421,3.486-1.037c0.949-0.594,1.9-1.186,2.822-1.818&#10;&#9;&#9;&#9;c0.943-0.647,1.701-1.575,2.879-1.896c-1.35,1.776-3.088,3.112-5.324,4.715c2.408-0.061,3.771-1.329,5.32-1.984&#10;&#9;&#9;&#9;c0.42,0.288,0.83,0.799,1.15,0.747c1.082-0.172,2.162-0.472,3.186-0.867c0.576-0.222,1.029-0.747,1.562-1.102&#10;&#9;&#9;&#9;c0.508-0.34,1.045-0.634,1.793-0.708c-0.388,0.448-0.791,0.884-1.154,1.349c-0.334,0.426-0.623,0.885-1.232,1.758&#10;&#9;&#9;&#9;c3.015-1.152,4.941-3.071,7.386-4.297c-0.691,0.766-1.383,1.528-2.103,2.324c0.941,0.025,0.943,0.027,2.771-1.201&#10;&#9;&#9;&#9;c0.848-0.57,1.688-1.151,2.885-1.971c-0.449,1.406-1.494,1.854-2.125,2.861c2.598-0.66,4.312-2.408,6.309-3.734&#10;&#9;&#9;&#9;c-0.903,1.789-2.604,2.869-4.147,4.532c0.643,0.098,1.022,0.282,1.289,0.175c1.25-0.505,2.494-1.039,3.688-1.663&#10;&#9;&#9;&#9;c0.82-0.43,1.558-1.023,2.578-1.712c-0.248,0.719-0.387,1.124-0.619,1.795c2.254-0.404,3.59-2.049,5.527-2.726&#10;&#9;&#9;&#9;c-0.658,0.676-1.316,1.35-2.098,2.151c1.481,0.1,2.088-1.466,3.549-1.527c-0.467,1.544-2.154,1.793-2.744,3.261&#10;&#9;&#9;&#9;c2.381-0.4,4.029-2.04,6.473-2.913c-0.838,0.861-1.43,1.468-2.274,2.337c1.182-0.066,1.701-0.688,2.272-1.146&#10;&#9;&#9;&#9;c0.933-0.745,1.744-1.541,3.17-1.257c0.586,0.117,1.33-0.438,1.974-0.747c1.438-0.691,2.86-1.423,4.289-2.137&#10;&#9;&#9;&#9;c-0.845,0.713-1.672,1.445-2.533,2.135c-0.945,0.755-2.111,1.234-2.854,2.309c2.572-0.47,4.832-1.849,7.479-2.459&#10;&#9;&#9;&#9;c-0.338,1.154-1.705,1.405-1.709,2.698c2.133-0.004,3.488-1.64,5.291-2.117c-0.084,0.286-0.127,1.5-0.06,1.937&#10;&#9;&#9;&#9;c0.73-0.24,1.451-0.478,2.171-0.713c0.149,0.45,0.243,0.731,0.35,1.048c0.984-0.317,1.865-0.604,2.742-0.888&#10;&#9;&#9;&#9;c0.172,0.469,0.297,0.808,0.451,1.225c0.832-0.251,1.508-0.455,2.174-0.656c0.225,0.355,0.426,0.677,0.68,1.08&#10;&#9;&#9;&#9;c0.801-0.152,1.604-0.309,2.475-0.476c-0.303,0.479-0.532,0.845-0.858,1.363c2.09,0.391,3.701-0.928,5.594-0.849&#10;&#9;&#9;&#9;c-0.186,0.504-0.326,0.883-0.51,1.383c2.104-0.659,2.104-0.659,2.83-1.798c-0.349-0.186-0.676-0.4-1.031-0.546&#10;&#9;&#9;&#9;c-1.992-0.812-4.014-1.558-5.98-2.426c-3.965-1.75-8.012-3.172-12.36-3.583C362.195,515.15,361.164,515.021,360.223,515.645z&#10;&#9;&#9;&#9; M266.361,525.476c0.529-0.014,0.691,0.025,0.813-0.026c2.837-1.224,5.666-2.467,8.506-3.68c1.391-0.596,2.814-1.113,4.202-1.714&#10;&#9;&#9;&#9;c0.351-0.15,0.623-0.485,0.932-0.735c-0.859-0.133-1.532,0.043-2.181,0.283c-1.635,0.607-3.234,1.321-4.893,1.853&#10;&#9;&#9;&#9;C271.137,522.289,268.736,523.45,266.361,525.476z M280.033,522.184c-3.336-0.205-9.216,2.566-10.819,5.089&#10;&#9;&#9;&#9;c2.038-1.069,3.676-2.007,5.379-2.803C276.374,523.637,278.217,522.94,280.033,522.184z M259.979,521.714&#10;&#9;&#9;&#9;c-3.388,1.046-6.795,3.196-8.154,4.972C255.145,525.837,257.493,523.656,259.979,521.714z"/>
      <path d="M231.001,495.784c0.027,0.86-0.42,1.256-1.234,1.49c-1.896,0.55-3.42,1.688-4.667,3.209&#10;&#9;&#9;&#9;c-0.876,1.068-1.539,2.231-1.733,3.629c-0.179,1.28-0.991,1.963-2.208,2.2c-0.703,0.138-1.423,0.322-2.129,0.3&#10;&#9;&#9;&#9;c-2.944-0.098-5.879-0.16-8.906,0.374c0.311-0.255,0.585-0.653,0.937-0.738c1.31-0.324,2.636-0.652,3.975-0.774&#10;&#9;&#9;&#9;c1.507-0.138,3.037-0.016,4.553-0.085c0.707-0.031,1.422-0.193,2.102-0.4c0.751-0.229,1.316-0.83,1.204-1.601&#10;&#9;&#9;&#9;c-0.2-1.363,0.55-2.282,1.231-3.256c1.69-2.413,3.978-3.881,6.912-4.307L231.001,495.784z"/>
      <path d="M265.168,506.319c-2.534,1.525-5.149,2.769-8.217,2.747c-0.769-0.006-1.555,0.252-2.306,0.478&#10;&#9;&#9;&#9;c-1.125,0.339-2.227,0.755-3.542,0.859c0.225-0.218,0.414-0.521,0.683-0.637c0.951-0.402,1.93-0.742,2.977-1.137&#10;&#9;&#9;&#9;c-0.068-0.447-0.133-0.873-0.224-1.467c2.574,0.366,4.529-1.208,6.936-1.944c-0.447,1.322-1.948,1.13-2.579,2.212&#10;&#9;&#9;&#9;c0.847,0.461,1.628,0.101,2.424-0.062c1.312-0.271,2.438-1.251,3.88-1.005L265.168,506.319z"/>
      <path d="M258.539,512.824c0.429-0.925,1.275-1.168,2.082-1.378c1.853-0.479,3.757-0.783,5.576-1.36&#10;&#9;&#9;&#9;c1.959-0.623,3.876-1.408,5.754-2.251c1.963-0.881,3.855-1.918,5.784-2.877c0.134-0.066,0.31-0.05,0.855-0.126&#10;&#9;&#9;&#9;c-0.427,0.422-0.604,0.7-0.859,0.835c-2.826,1.49-5.655,2.975-8.505,4.418c-0.559,0.283-1.209,0.392-1.822,0.561&#10;&#9;&#9;&#9;c-2.768,0.765-5.537,1.523-8.308,2.272C258.965,512.953,258.803,512.872,258.539,512.824z"/>
      <path d="M274.008,504.771c-0.21,0.227-0.379,0.526-0.636,0.666c-2.376,1.29-4.759,2.57-7.159,3.815&#10;&#9;&#9;&#9;c-1.137,0.59-2.334,0.77-3.655,0.818c-1.71,0.062-3.411,0.613-5.096,1.032c-0.971,0.241-1.904,0.634-3.033,0.583&#10;&#9;&#9;&#9;c0.269-0.196,0.509-0.479,0.811-0.577c3.09-1.013,6.137-2.178,9.438-2.405c0.76-0.053,1.525-0.425,2.233-0.764&#10;&#9;&#9;&#9;c1.719-0.824,3.392-1.746,5.116-2.56c0.622-0.293,1.339-0.384,2.013-0.565L274.008,504.771z"/>
      <path d="M261.14,503.336c-2.325,1.384-4.743,2.499-7.367,3.072c-1.101,0.24-2.178,0.799-3.376-0.159&#10;&#9;&#9;&#9;c-0.516-0.413-1.621-0.092-2.479-0.367c2.466-0.895,4.933-1.788,7.899-2.862c-1.427,1.371-2.909,1.727-4.427,2.752&#10;&#9;&#9;&#9;C255.171,505.969,258,504.045,261.14,503.336z"/>
      <path d="M310.832,497.532c-4.048,2.932-8.519,4.967-13.276,6.375c-0.303,0.089-0.684-0.08-1.573-0.206&#10;&#9;&#9;&#9;c2.925-1.116,5.344-1.976,7.709-2.961C306.1,499.736,308.455,498.606,310.832,497.532z"/>
      <path d="M290.557,503.98c-4.397,2.394-8.794,4.789-13.201,7.167c-0.16,0.086-0.427-0.028-0.684-0.055&#10;&#9;&#9;&#9;C277.845,509.592,285.278,505.608,290.557,503.98z"/>
      <path d="M313.561,499.905c-3.278,2.619-11.65,6.565-14.035,6.617c-0.019-0.07-0.055-0.143-0.048-0.21&#10;&#9;&#9;&#9;c0.007-0.072,0.035-0.166,0.088-0.209c0.122-0.096,0.254-0.188,0.398-0.241c1.711-0.66,3.471-1.216,5.128-1.989&#10;&#9;&#9;&#9;c2.814-1.316,5.564-2.772,8.346-4.159C313.445,499.709,313.518,499.838,313.561,499.905z"/>
      <path d="M348.531,504.737c-4.129,2.994-8.752,4.927-13.793,5.979c0.303-0.146,0.592-0.334,0.91-0.429&#10;&#9;&#9;&#9;c3.229-0.967,6.289-2.287,9.129-4.126c1.119-0.726,2.325-1.313,3.491-1.964C348.355,504.377,348.443,504.558,348.531,504.737z"/>
      <path d="M294.023,501.104c2.64-0.96,4.788-1.66,6.87-2.521c2.096-0.866,4.126-1.893,6.642-3.061&#10;&#9;&#9;&#9;c-2.172,2.009-9.203,5.387-12.013,5.905C295.219,501.483,294.872,501.297,294.023,501.104z"/>
      <path d="M279.548,512.617c0.242-0.64,0.271-1.071,0.458-1.157c3.71-1.72,7.438-3.397,11.199-5.018&#10;&#9;&#9;&#9;C287.829,509.105,283.982,510.896,279.548,512.617z"/>
      <path d="M292.639,498.037c4.581-0.856,8.742-2.518,12.824-4.415c-3.779,2.53-7.805,4.435-12.35,5.033&#10;&#9;&#9;&#9;C293.014,498.668,292.869,498.345,292.639,498.037z"/>
      <path d="M313.393,502.921c-3.485,1.728-6.971,3.461-10.463,5.173c-0.328,0.161-0.721,0.187-1.312,0.329&#10;&#9;&#9;&#9;C302.906,507.128,307.82,504.662,313.393,502.921z"/>
      <path d="M264.779,477.768c1.958-3.095,5.258-4.279,8.81-6.011c-0.513,1.126-1.253,1.246-1.767,1.588&#10;&#9;&#9;&#9;c-0.595,0.396-1.25,0.701-1.866,1.064c-0.547,0.324-1.096,0.649-1.611,1.021c-0.58,0.42-1.137,0.873-1.676,1.345&#10;&#9;&#9;&#9;c-0.523,0.456-1.012,0.952-1.517,1.432C265.027,478.06,264.903,477.913,264.779,477.768z"/>
      <path d="M336.555,507.684c3.633-1.74,7.267-3.48,11.021-5.279c-0.072,0.283-0.058,0.59-0.185,0.666&#10;&#9;&#9;&#9;C344.004,505.128,340.455,506.82,336.555,507.684z"/>
      <path d="M280.668,507.464c-2.699,1.479-5.514,2.714-8.431,3.712c-0.432,0.147-0.988-0.067-1.912-0.158&#10;&#9;&#9;&#9;c3.666-1.437,6.906-2.705,10.147-3.976C280.538,507.183,280.603,507.323,280.668,507.464z"/>
      <path d="M291.205,508.94c-2.495,1.513-4.986,3.029-7.494,4.521c-0.15,0.09-0.422-0.026-0.679-0.052&#10;&#9;&#9;&#9;C284.332,511.898,288.415,509.414,291.205,508.94z"/>
      <path d="M265.199,506.363c0.292-0.264,0.542-0.608,0.881-0.771c2.705-1.306,5.427-2.575,8.282-3.697&#10;&#9;&#9;&#9;c-0.393,0.309-0.748,0.688-1.184,0.913c-2.19,1.137-4.392,2.251-6.616,3.319c-0.403,0.193-0.926,0.135-1.394,0.192&#10;&#9;&#9;&#9;L265.199,506.363z"/>
      <path d="M341.463,510.479c2.611-1.599,5.223-3.199,7.844-4.785c0.088-0.053,0.273,0.055,0.41,0.089&#10;&#9;&#9;&#9;C348.803,507.119,345.127,509.351,341.463,510.479z"/>
      <path d="M325.498,488.388c-0.449,0.591-0.605,0.945-0.877,1.131c-2.238,1.521-4.582,2.826-7.305,3.339&#10;&#9;&#9;&#9;c0.672-0.733,1.643-0.943,2.481-1.382c0.92-0.477,1.824-0.979,2.728-1.485C323.379,489.509,324.008,488.615,325.498,488.388z"/>
      <path d="M272.616,476.216c-0.454,0.294-0.905,0.594-1.363,0.881c-2.042,1.28-4.085,2.556-6.233,3.665&#10;&#9;&#9;&#9;c2.042-2.243,4.647-3.626,7.304-4.933C272.42,475.958,272.518,476.087,272.616,476.216z"/>
      <path d="M271.573,512.498c0.038,0.341,0.123,0.568,0.059,0.623c-0.819,0.704-2.558,1.181-5.767,1.624&#10;&#9;&#9;&#9;C266.716,513.511,266.716,513.511,271.573,512.498z"/>
      <path d="M242.18,503.101c2.958-0.852,5.458-1.569,7.87-2.264C248.798,502.324,244.693,503.662,242.18,503.101z"/>
      <path d="M317.58,506.706c-2.701,2.316-4.687,3.223-7.096,3.531c0.926-0.756,1.729-0.937,2.44-1.274&#10;&#9;&#9;&#9;c0.791-0.376,1.576-0.769,2.363-1.15C316.051,507.441,316.816,507.075,317.58,506.706z"/>
      <path d="M346.096,500.772c-1.942,1.802-4.395,2.701-6.643,3.961c-0.078-0.135-0.156-0.27-0.232-0.403&#10;&#9;&#9;&#9;c2.201-1.312,4.402-2.624,6.605-3.938C345.916,500.52,346.006,500.646,346.096,500.772z"/>
      <path d="M297.537,510.379c-1.649,1.632-3.695,2.632-5.722,3.656c-0.114,0.058-0.372-0.168-0.838-0.397&#10;&#9;&#9;&#9;C293.222,512.334,295.278,511.171,297.537,510.379z"/>
      <path d="M293.677,495.079c2.001-0.869,4.002-1.738,6.243-2.712C298.339,494.188,295.471,495.534,293.677,495.079z"/>
      <path d="M269.076,512.318c-2.03,0.548-4.06,1.094-6.475,1.744c0.856-1.579,2.214-1.31,3.199-1.674&#10;&#9;&#9;&#9;c1.007-0.371,2.127-0.437,3.198-0.637C269.024,511.941,269.05,512.131,269.076,512.318z"/>
      <path d="M291.105,511.222c-1.708,1.771-4.428,3.129-6.527,3.207C286.812,513.168,288.658,512.01,291.105,511.222z"/>
      <path d="M203.991,513.179c-2.734,0.561-4.894,1.002-7.303,1.496C198.53,513.307,200.914,512.803,203.991,513.179z"/>
      <path d="M264.932,475.079c1.2-1.535,3.029-2.678,5.112-3.489C268.261,472.808,266.478,474.024,264.932,475.079z"/>
      <path d="M305.6,511.484c-1.767,1.543-3.439,2.532-5.713,2.915C300.969,513.154,302.731,512.271,305.6,511.484z"/>
      <path d="M307.906,508.022c-1.583,1.575-3.867,2.566-6.075,2.463c2.136-1.116,4.062-1.906,6.105-2.418L307.906,508.022z"/>
      <path d="M301.121,511.404c-1.588,1.646-3.226,2.056-4.9,2.39C297.511,512.635,298.977,511.834,301.121,511.404z"/>
      <path d="M322.971,486.415c-0.887,1.816-2.813,2.238-4.364,3.192C319.875,488.312,321.285,487.207,322.971,486.415z"/>
      <path d="M237.125,514.619c1.963-1.366,2.945-1.573,5.646-1.503c-0.259,0.161-0.418,0.325-0.605,0.368&#10;&#9;&#9;&#9;C240.488,513.874,238.806,514.244,237.125,514.619z"/>
      <path d="M233.332,511.439c1.636-1.098,3.478-1.438,5.402-1.476C237.02,510.774,235.218,511.261,233.332,511.439z"/>
      <path d="M247.129,499.398c-1.449,0.794-2.789,1.875-4.72,1.412c1.506-0.611,3.012-1.225,4.518-1.838&#10;&#9;&#9;&#9;C246.995,499.114,247.062,499.257,247.129,499.398z"/>
      <path d="M225.023,505.671c0.94-1.105,1.989-1.757,3.377-0.76C227.586,506.595,226.063,505.09,225.023,505.671z"/>
      <path d="M272.739,478.657c0.418-0.326,0.792-0.765,1.265-0.959c1.504-0.619,3.045-1.147,4.64-1.523&#10;&#9;&#9;&#9;c-1.882,1.066-3.776,2.081-5.94,2.437L272.739,478.657z"/>
      <path d="M259.148,487.343c-1.771,0.363-3.543,0.729-5.549,1.142C254.764,487.451,256.173,487.151,259.148,487.343z"/>
      <path d="M244.97,504.605c1.674-0.485,3.35-0.973,5.025-1.459C248.487,504.221,246.965,505.246,244.97,504.605z"/>
      <path d="M252.246,486.248c1.613-0.4,3.226-0.8,5.333-1.323c-0.971,1.271-1.967,0.962-2.77,1.166&#10;&#9;&#9;&#9;c-0.816,0.207-1.637,0.395-2.456,0.59C252.317,486.536,252.281,486.393,252.246,486.248z"/>
      <path d="M280.132,481.215c-1.523,0.67-3.047,1.341-4.592,2.021c0.546-1.038,0.538-1.06,1.877-1.588&#10;&#9;&#9;&#9;C278.259,481.314,279.082,480.854,280.132,481.215z"/>
      <path d="M276.117,479.953c-1.362,0.813-2.725,1.63-4.087,2.443c0.79-1.731,2.322-2.285,3.828-2.879&#10;&#9;&#9;&#9;C275.944,479.664,276.03,479.809,276.117,479.953z"/>
      <path d="M320.807,507.912c-1.914,1.652-3.08,2.15-4.442,2.037c0.08-0.123,0.133-0.312,0.246-0.357&#10;&#9;&#9;&#9;C317.883,509.066,319.168,508.562,320.807,507.912z"/>
      <path d="M323.584,495.034c1.125-0.635,2.25-1.271,3.717-2.1C326.369,494.438,326.252,494.515,323.584,495.034z"/>
      <path d="M282.751,482.692c-1.194,0.991-2.611,1.432-4.068,1.771C279.766,483.192,281.239,482.896,282.751,482.692z"/>
      <path d="M236.079,512.204c1.695-0.668,2.972-0.82,4.47-0.953C238.863,512.261,238.711,512.296,236.079,512.204z"/>
      <path d="M229.669,507.022c1.141-1.046,2.543-1.604,4.198-1.356C232.467,506.118,231.068,506.57,229.669,507.022z"/>
      <path d="M242.4,517.594c0.859-0.824,1.835-0.656,3.181-0.553C244.386,517.884,243.415,517.879,242.4,517.594z"/>
      <path d="M293.262,493.435c1.367-0.635,2.478-1.151,3.841-1.784C295.748,493.312,295.32,493.513,293.262,493.435z"/>
      <path d="M274.04,504.816c1.034-1.271,2.585-1.61,3.981-2.228c-1.208,0.966-2.364,2.028-4.013,2.183L274.04,504.816z"/>
      <path d="M282.524,486.062c0.947-0.963,2.155-1.334,3.477-1.428C284.969,485.383,283.955,486.159,282.524,486.062z"/>
      <path d="M241.157,499.743c1.165-0.496,2.33-0.993,3.495-1.49c-0.888,1.045-1.963,1.682-3.231,1.922&#10;&#9;&#9;&#9;C241.333,500.031,241.245,499.887,241.157,499.743z"/>
      <path d="M307.938,508.067c1.259-0.66,2.515-1.32,4.222-2.218c-1.439,1.618-2.435,2.069-4.252,2.172L307.938,508.067z"/>
      <path d="M272.704,478.61c-0.743,1.143-1.925,1.59-3.121,2.016c0.764-1.127,1.77-1.86,3.156-1.969L272.704,478.61z"/>
    </g>
  </g>
</svg>