<?xml version="1.0" encoding="utf-8"?>
<!-- Generator: Adobe Illustrator 16.0.0, SVG Export Plug-In . SVG Version: 6.00 Build 0)  -->
<!DOCTYPE svg PUBLIC "-//W3C//DTD SVG 1.1//EN" "http://www.w3.org/Graphics/SVG/1.1/DTD/svg11.dtd">
<svg version="1.1" id="Layer_1" xmlns="http://www.w3.org/2000/svg" xmlns:xlink="http://www.w3.org/1999/xlink" x="0px" y="0px"
	 width="1346.394px" height="526.396px" viewBox="0 0 1346.394 526.396" enable-background="new 0 0 1346.394 526.396"
	 xml:space="preserve">
<path fill="#F9A463" d="M1346.331,97.806c0.164-4.488-1.934-7.799-4.442-10.96c-1.052-1.325-2.6-2.112-4.413-2.615
	c-6.051-1.677-12.493-1.879-19.506-0.57c-0.156-0.613-0.434-1.159-0.421-1.751c0.086-4.913-1.764-9.086-4.317-12.794
	c-1.315-1.906-3.699-3.383-6.107-4.271c-3.691-1.355-7.609-2.428-11.996-2.5c-4.251-0.072-8.096,1.141-11.709,3.867
	c-0.77,0.581-1.564,1.135-2.464,1.783c-1.266-0.637-2.416-1.197-3.548-1.788c-1.93-1.005-4.061-1.475-6.589-1.109
	c-1.253,0.184-2.514,0.249-3.743,0.244c-2.009-0.005-3.976,0.345-5.851,1.466c-1.403,0.841-2.552,0.826-3.783,0.264
	c-4.595-2.092-9.817-2.678-15.455-2.104c-4.772,0.487-9.403,2.203-13.987,4.033c-2.334,0.933-4.574,2.169-6.898,3.145
	c-3.324,1.394-6.135,3.46-8.738,5.803c-4.47,4.017-8.332,8.451-12.102,12.945c-0.4,0.479-0.813,0.951-1.394,1.628
	c-0.72-0.384-1.37-0.673-1.946-1.047c-2.714-1.743-5.687-2.94-9.545-2.686c-1.039,0.073-2.181-0.345-2.917-0.895
	c-3.513-2.632-8.077-2.957-12.905-2.789c-0.723,0.024-1.455,0.107-2.18,0.136c-0.188,0.004-0.357-0.112-0.632-0.204
	c-1.262-7.88-6.66-12.426-15.288-14.55c1.176-1.174,2.131-2.146,3.106-3.104c2.353-2.309,4.364-4.771,5.175-7.677
	c0.656-2.344,2.256-3.763,4.815-4.576c5.636-1.792,9.801-5.211,12.907-9.894c0.713-1.074,1.924-1.963,2.941-2.906
	c3.1-2.877,6.461-5.584,9.26-8.652c2.557-2.812,3.638-6.031,3.854-9.446c0.321-4.999-1.845-8.328-5.512-11.294
	c-3.29-2.666-6.814-4.35-11.816-3.905c-1.367,0.122-2.189-0.468-2.938-1.302c-1.99-2.226-4.227-4.213-7.314-5.363
	c-5.574-2.074-11.811-1.85-18.124,0.037c-4.557,1.361-8.791,4.017-11.779,7.939c-0.64,0.837-1.326,1.655-2.026,2.463
	c-2.082,2.397-3.541,4.933-3.943,7.738c-0.074,0.54-0.277,1.086-0.48,1.866c-0.713-0.194-1.229-0.322-1.732-0.472
	c-1.355-0.407-2.641-0.984-4.079-1.183c-1.088-0.153-1.746-0.524-2.25-1.303c-2.995-4.63-7.922-6.925-14.103-7.667
	c-2.073-0.25-4.098-0.548-6.395-0.115c-0.971,0.181-2.043-0.389-2.905-0.83c-3.613-1.849-7.729-2.256-12.294-1.125
	c-1.735,0.431-3.43,1.352-5.538,2.207c-0.475-0.638-1.115-1.319-1.559-2.119c-1.908-3.453-4.834-5.927-8.969-7.26
	c-2.176-0.697-4.296-1.521-6.582-1.994c-5.916-1.225-12.181-0.271-18.507,1.493c-3.229,0.899-6.428,1.937-9.45,3.685
	c-5.104,2.95-8.208,6.773-8.672,11.805c-0.108,1.176-0.452,2.12-1.559,3.1c-0.858,0.752-1.489,1.773-2.041,2.734
	c-1.789,3.099-3.287,6.249-3.984,9.54c-0.438,2.077-1.779,3.56-4.022,4.887c-3.958,2.344-7.687,5.073-11.872,7.88
	c-0.87-0.604-1.964-1.339-3.034-2.1c-1.971-1.406-3.82-2.951-5.911-4.221c-4.54-2.761-10.259-3.359-15.881-4.129
	c-8.599-1.178-17.323,1.176-26.119,3.758c-6.096,1.791-11.532,4.771-16.54,8.633c-1.626,1.258-2.986,2.812-4.433,4.258
	c-0.888,0.893-1.71,1.834-2.801,3.014c-4.312-16.777-16.908-24.587-35.956-25.758c-0.604-1.472-1.048-3.092-1.881-4.478
	c-1.986-3.299-4.975-5.421-9.97-4.734c-1.347,0.185-2.068-0.38-2.767-1.071c-5.115-5.082-20.834-7.84-31.497-1.969
	c-5.558,3.062-11.24,6.238-15.022,11.4c-0.951,1.298-2.085,1.779-3.56,1.633c-5.593-0.552-11.1,1.15-16.746,3.127
	c-6.751,2.358-12.24,6.349-17.606,10.749c-3.439,2.812-6.32,5.937-8.623,9.456c-1.592,2.438-3.622,4.812-4.649,7.334
	c-1.205,2.952-3.079,5.029-5.89,7.054c-3.176,2.289-5.25,5.356-6.128,8.809c-0.224,0.88-0.735,1.812-1.329,2.618
	c-4.59,6.248-6.468,12.582-5.024,18.958c0.282,1.256-0.125,2.065-1.192,3.032c-1.361,1.241-2.724,2.515-3.896,3.884
	c-3.913,4.59-4.535,10.627-1.597,14.58c0.359,0.481,0.762,0.933,1.297,1.58c-0.934,0.934-1.785,1.868-2.739,2.723
	c-3.742,3.358-6.146,7.299-8.166,11.41c-0.4,0.817-0.776,1.639-1.216,2.445c-1.316,2.413-1.848,4.778-1.315,7.125
	c0.175,0.771,0.154,1.61,0.275,2.4c0.212,1.39-0.175,2.703-1.134,4.074c-0.836,1.193-1.508,2.468-2.113,3.736
	c-1.902,3.985-1.188,7.325,1.069,10.239c0.048,0.06,0.097,0.12,0.149,0.18c0.062,0.781-0.045,1.611-0.388,2.522
	c-0.021,0.054-0.052,0.101-0.078,0.153c0.013-0.004,0.021-0.006,0.036-0.01c-2.228,0.696-4.455,1.746-6.671,3.152
	c-2.344,1.489-4.461,3.134-6.396,4.902c-0.238-0.045-0.475-0.096-0.684-0.184c-3.796-1.585-7.459-3.497-11.211-5.208
	c-1.518-0.693-3.088-1.467-4.709-1.702c-15.22-2.197-30.08-1.823-43.895,6.223c-1.922,1.119-4.249,1.922-6.457,2.113
	c-9.865,0.855-19.392,2.957-28.885,5.831c-15.502,4.688-26.18,14.627-33.131,28.791c-1.573,3.197-3.46,4.938-6.707,5.834
	c-5.895,1.618-11.802,3.591-16.348,7.768c-3.713,3.413-7.618,3.809-12.153,3.02c-3.509-0.609-7.047-1.081-10.592-1.426
	c-1.853-0.178-3.808-0.233-5.61,0.148c-8.405,1.775-16.859,3.404-25.133,5.69c-8.681,2.398-17.462,4.896-24.98,10.102
	c-14.622,10.129-27.851,21.637-35.345,38.375c-0.511,1.148-1.065,2.328-1.849,3.284c-0.906,1.104-1.923,2.405-3.175,2.886
	c-6.233,2.398-10.876,7.053-16.077,10.918c-2.944,2.185-5.494,4.704-7.574,7.575c-0.085-0.102-0.167-0.209-0.254-0.31
	c-2.718-3.152-6.325-5.162-9.712-7.487c-5.836-4.005-12.408-6.357-18.859-8.983c-8.136-3.317-16.895-3.018-25.421-3.742
	c-4.266-0.362-8.69,0.607-12.983,1.332c-4.041,0.686-8.14,1.46-11.961,2.883c-4.771,1.777-9.331,4.156-13.879,6.476
	c-2.421,1.234-4.649,2.856-6.921,4.372c-1.347,0.898-2.551,1.897-4.352,1.891c-4.622-0.022-8.839,1.707-12.865,3.673
	c-4.033,1.969-7.912,4.342-10.718,8.013c-1.21,1.581-2.223,3.315-3.377,4.941c-2.12,2.976-5.976,5.826-9.037,7.736
	c-5.556,3.469-11.775,6.221-15.022,12.526c-0.716,1.394-1.981,2.067-3.691,2.112c-2.415,0.061-4.682,0.936-6.649,2.299
	c-3.798,2.629-7.6,5.287-10.005,9.412c-0.813,1.398-1.7,2.755-2.759,4.473c-4.081,0.476-7.869,1.677-11.442,3.546
	c-3.096,1.617-6.218,3.193-9.275,4.887c-1.413,0.78-2.763,1.709-4.032,2.712c-8.01,6.376-13.461,14.654-17.631,23.869
	c-0.36,0.794-0.601,1.64-0.857,2.474c-1.582,5.194-1.583,5.281-7.1,5.075c-6.864-0.256-13.13,1.245-18.536,5.682
	c-1.016,0.832-2.18,1.245-3.49,0.949c-4.878-1.107-9.241,0.545-13.156,3.051c-2.508,1.606-4.517,1.485-6.927,0.291
	c-3.283-1.631-6.753-2.655-10.479-2.238c-1.934,0.216-2.953-0.749-3.838-2.307c-1.416-2.489-3.071-4.837-4.503-7.318
	c-2.508-4.344-6.504-6.971-10.913-8.707c-8.87-3.488-17.801-3.313-26.524,0.822c-0.791,0.374-1.539,0.883-2.369,1.114
	c-4.534,1.276-7.853,4.253-10.86,7.653c-1.396,1.581-2.369,3.874-4.088,4.74c-1.866,0.94-4.388,0.555-6.615,0.825
	c-5.592,0.681-10.731,2.565-14.831,6.505c-1.907,1.833-3.872,2.744-6.491,3.132c-6.291,0.935-11.124,4.411-12.849,10.566
	c-1.056,3.772-3.115,5.331-6.442,6.147c-0.727,0.174-1.467,0.322-2.184,0.539c-2.863,0.871-5.796,1.574-8.56,2.696
	c-2.709,1.102-5.452,1.662-8.333,1.968c-3.721,0.393-7.429,0.959-11.11,1.626c-2.875,0.52-5.535,1.711-7.55,3.88
	c-1.778,1.914-3.364,4.009-4.949,6.09c-0.414,0.545-0.79,1.379-0.696,2.004c0.552,3.668,1.211,7.322,4.978,9.317
	c0.511,0.271,0.819,0.911,1.28,1.316c0.452,0.404,0.948,0.986,1.471,1.043c4.213,0.457,8.16,2.136,12.489,2.274
	c4.458,0.144,8.891,1.104,13.329,1.755c0.596,0.088,1.195,0.386,1.72,0.706c4.616,2.832,9.681,4.571,14.796,6.204
	c0.707,0.227,1.788,0.308,2.026,0.787c1.435,2.854,4.308,3.666,6.78,5.004c2.617,1.42,5.262,2.839,8.04,3.874
	c2.897,1.081,5.936,1.849,8.965,2.496c4.016,0.863,8.075,1.531,12.13,2.187c4.925,0.796,9.934,1.207,14.781,2.329
	c3.966,0.92,7.871,1.18,11.879,0.955c1.242-0.07,2.499,0.003,3.743,0.09c8.874,0.631,17.706,0.434,26.497-1.105
	c3.439-0.602,6.961-0.802,10.365-1.545c3.514-0.768,7.154-0.914,10.521-2.436c3.518-1.589,7.132-2.99,10.764-4.3
	c1.356-0.488,2.927-0.784,4.343-0.642c2.963,0.299,5.895,0.902,8.828,1.461c4.292,0.819,8.645,1.444,12.838,2.626
	c11.048,3.109,22.23,5.618,33.52,7.61c6.507,1.146,13.073,1.993,19.641,2.741c5.566,0.634,11.167,1.054,16.765,1.352
	c5.839,0.312,11.701,0.828,17.518-0.584c1.8-0.436,3.742-0.588,5.591-0.453c3.946,0.285,7.719-0.567,11.398-1.662
	c3.855-1.146,7.332-0.787,10.741,1.23c0.959,0.568,1.978,1.095,3.038,1.427c5.938,1.854,11.681,4.297,17.914,5.246
	c4.673,0.715,9.258,1.988,13.887,2.989c0.609,0.13,1.238,0.181,1.862,0.199c7.858,0.269,15.719,0.598,23.58,0.735
	c1.956,0.034,3.932-0.519,5.884-0.882c4.647-0.864,9.255-2.131,13.942-2.56c4.262-0.391,8.347-1.272,12.491-2.222
	c6.49-1.484,12.759-3.616,19.741-3.2c8.045,0.475,16.175-0.379,24.091-2.516c4.8-1.297,9.338-3.492,14.328-4.115
	c0.12-0.014,0.229-0.103,0.345-0.142c3.761-1.354,7.575-2.571,11.267-4.093c5.32-2.188,10.818-1.336,16.271-1.213
	c0.707,0.015,1.721,0.645,2.023,1.265c0.499,1.033-0.514,1.456-1.354,1.804c-0.57,0.238-1.158,0.494-1.656,0.852
	c-3.228,2.316-3.925,6.397-1.478,9.487c1.633,2.063,3.742,3.581,6.218,4.626c0.558,0.234,1.122,0.438,1.69,0.627
	c-6.602,5.087-10.164,12.465-9.596,19.411c0.272,3.371,2.106,4.574,6.11,3.679c5.856-1.308,11.709-2.701,17.368-5.273
	c1.903-0.869,3.593-1.23,4.929,0.307c0.805,0.924,2.433,0.415,3.802,0.108c1.765-0.402,3.529-0.794,5.443-1.222
	c0.73-0.525,1.587-1.304,2.571-1.823c4.864-2.581,9.777-5.065,14.641-7.646c2.333-1.232,4.652-2.493,6.958-3.778
	c1.756-0.162,3.512-0.33,5.266-0.505c4.607-0.457,9.22-1.037,13.27-3.558c1.855-1.155,3.713-1.259,5.732-0.583
	c3.227,1.078,6.586,1.334,9.955,1.493c4.843,0.229,9.687,0.646,14.528,0.649c6.858,0.003,13.738-0.068,20.574-0.566
	c3.564-0.261,7.13-1.272,10.566-2.354c3.952-1.246,7.802-2.521,12.046-1.819c3.554,0.592,7.003-0.056,10.155-1.744
	c1.846-0.991,3.502-2.353,5.209-3.596c2.096-1.523,2.167-1.977,1.285-4.349c-1.235-3.313-3.74-5.283-6.937-6.354
	c-2.941-0.986-5.981-1.68-9.129-2.544c-1.708-3.432-4.375-6.161-7.79-8.176c-0.176-1.313-0.37-2.545-0.501-3.781
	c-0.155-1.479-0.5-2.829-0.996-4.074c0.768-0.292,1.535-0.581,2.3-0.9c2.915-1.217,5.656-2.955,8.49-4.434
	c1.841-0.964,3.71-1.868,5.543-2.843c0.562-0.297,1.084-0.709,1.564-1.123c0.657-0.567,1.205-1.237,1.891-1.765
	c3.326-2.552,4.63-2.551,7.014-0.218c1.053,1.034,2.256,1.946,3.361,2.893c-1.185,1.535-2.231,2.948-3.345,4.325
	c-2.072,2.566-3.184,5.247-3.366,8.117c-0.056,0.903-0.642,1.879-0.687,2.781c-0.029,0.6-0.027,1.197-0.029,1.793
	c4.153,1.73,8.29,3.121,13.131,3.559c5.864,0.526,10.159-3.753,14.835-6.944c4.439-3.026,11.297-3.514,14.884-0.228
	c3.505,3.209,6.767,7.078,11.019,9.551c1.803,0.124,3.608,0.155,5.407,0.052c-2.291-8.271,7.199-18.311,15.537-16.224
	c1.33-1.307,2.945-2.489,4.854-3.469c3.034-1.553,6.109-2.865,9.213-3.984c1.125-3.274,1.914-6.601,2.481-9.767
	c1.631-9.079,14.159-12.064,20.469-7.72c17.176,11.837,38.714,7.396,54.292-9.52c7.622-8.28,20.854-4.436,21.092,5.269
	c0.133,5.459,0.805,10.745,2.298,15.44c25.911,2.546,51.646,6.566,77.894-2.944c1.659-0.603,3.239-0.875,4.719-0.88
	c1.893-1.044,3.785-2.093,5.685-3.13c1.45-0.79,2.933-1.511,4.386-2.29c0.569-0.305,1.133-0.641,1.65-1.021
	c3.529-2.604,7.037-5.234,10.58-7.819c0.51-0.369,1.171-0.672,1.768-0.788c4.826-0.952,9.533-2.671,14.275-4.158
	c5.824-1.823,11.455-4.182,16.799-7.344c3.303-1.958,6.816-3.528,9.97-5.778c1.211-0.863,2.729-1.384,4.141-1.955
	c1.878-0.762,1.913-0.735,1.927-2.716c-3.45,1.838-7.005,1.977-10.52,2.314c-2.902,0.28-6.068,0.458-9.463,0.557
	c-0.002-0.003-0.002-0.003-0.002-0.003c3.396-0.096,6.563-0.275,9.465-0.554c2.775-0.27,5.565-0.42,8.319-1.375
	c0.555-0.656,1.146-1.287,1.788-1.877c-0.037,0.004-0.077,0.01-0.114,0.016c0.211-0.03,0.428-0.058,0.637-0.091
	c-0.022,0.319-0.042,0.63-0.062,0.938c1.131-0.814,2.283-1.604,3.383-2.456c0.947-0.734,1.843-1.527,2.73-2.32
	c0.635-0.572,1.463-1.132,1.789-1.792c1.573-3.176,4.097-5.761,6.985-8.137c0.663-0.541,1.424-1.055,2.208-1.391
	c3.227-1.379,6.519-2.575,9.705-4.05c2.482-1.146,4.871-2.552,7.244-3.94c3.121-1.824,6.196-3.725,9.262-5.641
	c0.631-0.394,1.086-1.039,1.685-1.501c1.037-0.798,2.056-1.704,3.206-2.269c1.45-0.708,3.116-0.924,4.015-2.534
	c0.161-0.282,0.947-0.483,1.442-0.566c2.69-0.444,5.198-1.593,7.619-2.91c3.186-1.728,6.481-3.228,9.436-5.432
	c1.436-1.077,3.308-1.707,5.029-2.379c1.464-0.573,2.627-1.319,3.816-2.397c2.084-1.881,4.587-3.393,6.729-5.229
	c3.226-2.763,6.295-5.667,9.419-8.523c0.479-0.439,0.841-0.991,1.348-1.392c4.172-3.305,3.552-8.221,1.183-10.354
	c-3.277-2.958-7.479-3.892-12.528-3.067c-2.911,0.476-5.864,1.297-8.745,2.236c-1.477,0.482-2.93,1.453-4.232,2.393
	c-1.617,1.161-3.14,1.943-5.004,1.529c-0.741-0.167-1.68-0.296-2.425-0.025c-3.81,1.383-6.068-0.264-8.284-1.919
	c-3.389-2.527-7.453-3.899-12.158-4.338c-9.707-0.907-19.028,1.537-27.962,7.404c-1.927,1.268-3.853,2.555-5.671,3.951
	c-2.463,1.894-3.629,4.38-4.662,6.889c-0.26,0.633-0.577,1.256-0.758,1.647c-4.268,1.035-8.303,2.014-12.328,2.988
	c-3.56-3.295-4.439-3.352-10.32-2.707c-6.459,0.707-11.721,3.56-16.052,8.214c-0.363,0.113-0.588,0.248-0.767,0.231
	c-4.62-0.453-4.321-0.281-4.576-4.49c-0.07-1.146,0.316-2.404,0.508-3.613c0.75-4.63,0.084-8.819-2.895-12.049
	c-2.778-3.008-5.256-6.312-9.092-8.42c-1.188-0.658-2.382-1.305-3.798-2.076c0.688-0.466,1.23-0.918,1.842-1.228
	c3.435-1.747,6.647-3.839,9.831-5.984c3.373-2.271,6.756-4.532,10.095-6.854c2.249-1.564,4.304-3.45,6.676-4.771
	c2.972-1.654,5.122-4.006,7.648-6.038c0.715-0.577,1.673-0.973,2.558-1.291c2.659-0.96,5.329-1.872,8.012-2.748
	c2.156-0.704,4.327-1.332,6.686-2.054c0.084-0.607-0.1-1.682,0.264-1.891c0.703-0.4,1.449-0.828,2.307-1.316
	c0,0,0.414,0.482,0.363,0.684c-0.695,2.754-0.61,5.354,0.289,7.875c-2.387,1.959-3.57,4.19-3.58,6.736
	c-0.012,3.558,2,5.701,5.344,6.848c2.999,1.033,6.391,0.305,9.765-0.214c11.294-1.729,21.041-7.323,30.429-13.898
	c1.855-1.298,4.028-2.19,5.486-4.027c0.328-0.413,1.352-0.594,2.033-0.663c1.036-0.104,2.111-0.15,3.069,0.014
	c3.511,0.608,7.11,0.184,10.815-1.016c0.185-0.059,0.394,0.006,0.733,0.019c0.01,0.313,0.11,0.665,0.016,1.006
	c-1.355,4.95,0.408,8.744,3.155,12.172c0.162,0.202,0.391,0.365,0.535,0.577c4.243,6.398,11.812,5.831,19.865,4.246
	c4.396-2.073,8.594-2.098,12.859-1.666c1.815,0.186,3.906-0.397,5.873-0.686c1.047-0.151,2.097-0.479,3.138-0.62
	c5.558-0.757,10.853-2.619,15.94-5.494c2.483-1.407,5.018-2.727,7.793-4.229c-0.016-1.072,0.459-2.304,1.934-3.169
	c1.218-0.716,2.447-1.404,3.779-2.166c-0.094-0.388-0.202-0.7-0.249-1.035c-0.25-1.665,0.637-2.948,2.541-3.51
	c1.557-0.464,3.136-0.846,4.704-1.17c5.696-1.168,11.229-2.811,16.444-6.007c1.837-1.125,3.981-1.776,6.005-2.589
	c1.022-0.41,2.295-0.683,2.557-1.766c0.486-2.03,2.107-2.983,3.983-3.779c1.077-0.452,1.846-0.889,2.026-2.108
	c0.107-0.713,0.841-1.606,1.526-2.204c5.438-4.748,8.749-10.367,11.311-16.303c0.354-0.825,0.614-1.667,0.94-2.498
	c0.385-0.98,1.093-1.736,2.187-2.213c4.226-1.839,7.752-4.543,10.974-7.695c1.699-1.66,3.402-3.657,5.458-4.605
	c2.026-0.938,4.503-0.715,6.786-1.054c7.623-1.136,15.094-3.04,22.08-7.331c4.031-2.479,8.101-4.894,12.119-7.395
	c0.814-0.505,1.473-1.256,2.206-1.893c4.789-4.154,8.782-8.894,13.198-13.307c6.783-6.779,11.373-14.088,13.669-22.282
	c0.778-2.775,1.806-3.787,4.927-4.644c0.832-0.229,1.676-0.363,2.514-0.557c1.909-0.441,3.843-0.829,4.794-2.867
	c0.113-0.244,0.458-0.449,0.716-0.649c2.74-2.161,5.509-4.292,8.217-6.487c0.652-0.528,1.198-1.217,1.651-1.893
	c1.744-2.588,3.323-5.199,4.478-7.998c0.809-1.973,2.146-3.849,2.52-5.93c0.196-1.103,0.659-2.151,0.3-3.25
	c-0.431-1.321,0.343-2.569,1.925-3.404c1.548-0.81,3.129-1.559,4.697-2.33c1.399-0.688,2.773-1.224,2.428-3.028
	c-0.127-0.662,0.747-1.805,1.44-2.54c1.925-2.048,2.428-4.268,2.39-6.44c-0.017-1.067,0.375-1.756,1.131-2.557
	c6.724-7.108,10.885-15.087,14.185-23.344c0.438-1.094,0.587-2.231,0.845-3.349c0.107-0.467-0.037-1.046,0.255-1.377
	C1346.874,101.194,1346.267,99.582,1346.331,97.806z M607.155,416.153c-0.258,0.407-0.521,0.812-0.804,1.208
	c-0.116,0.162-0.307,0.294-0.624,0.594c-0.471-0.052-1.069-0.069-1.618-0.183c-1.056-0.216-2.121-0.352-3.19-0.445
	c1.631-0.283,3.261-0.581,4.887-0.897C606.257,416.342,606.707,416.249,607.155,416.153z"/>
</svg>
