<?xml version="1.0" encoding="utf-8"?>
<!-- Generator: Adobe Illustrator 16.0.0, SVG Export Plug-In . SVG Version: 6.00 Build 0)  -->
<!DOCTYPE svg PUBLIC "-//W3C//DTD SVG 1.1//EN" "http://www.w3.org/Graphics/SVG/1.1/DTD/svg11.dtd">
<svg version="1.1" id="Layer_1" xmlns="http://www.w3.org/2000/svg" xmlns:xlink="http://www.w3.org/1999/xlink" x="0px" y="0px"
	 viewBox="0 0 1411.224 627.905"
	 xml:space="preserve">
<path opacity="0.9" fill="#93C0DD" d="M0.628,459.807c4.255-11.702,16.995-20.553,32.7-21.221c1.302-0.054,2.599-0.188,3.903-0.241
	c2.036-0.079,3.305-0.738,3.828-2.457c0.371-1.23,1.001-2.547,1.981-3.54c5.957-6.015,12.828-11.024,22.624-12.656
	c3.88-0.646,3.742-0.729,4.686-3.676c0.629-1.984,1.22-4.135,2.646-5.795c4.968-5.795,11.868-9.872,19.756-12.873
	c0.653-0.246,1.671,0.15,2.521,0.244c-0.208,0.369-0.401,0.746-0.605,1.115c0.903-0.541,1.517-1.396,1.421-2.535
	c-0.127-1.484-0.211-2.93-0.062-4.383c-0.118,0.273-0.23,0.549-0.351,0.822c-0.511,1.164-0.484,2.523-2.271,3.341
	c-1.288-1.148-0.679-2.304-0.354-3.368c1.547-4.975,4.34-9.555,7.933-13.857c0.638-0.754,1.426-1.467,2.289-2.07
	c7.373-5.169,15.188-9.752,24.37-12.725c6.377-2.064,12.737-3.257,19.582-2.854c6.536,0.382,12.896,1.352,18.835,3.175
	c8.766,2.69,16.433,6.743,21.047,13.515c0.923,1.352,2.004,1.998,4.067,2.12c9.352,0.546,17.407,3.368,24.168,8.317
	c0.667,0.49,1.458,0.879,2.06,1.238c0.609-0.203,0.948-0.263,1.203-0.411c0.673-0.384,1.326-0.796,1.967-1.212
	c12.452-8.111,26.242-10.363,40.852-6.39c5.279,1.437,9.941,2.372,15.214,0.054c1.655-0.728,3.514-1.15,5.663-1.84
	c-0.74-1.568-1.229-2.746-1.837-3.882c-1.711-3.204-2.811-6.602-2.107-10.091c1.006-4.962,2.087-10,4.123-14.774
	c3.184-7.483,9.249-13.25,19.007-16.118c0.618-0.181,1.219-0.407,1.816-0.631c3.263-1.23,3.467-1.279,3.161-4.128
	c-0.399-3.738,1.385-6.829,4.405-9.632c1.29-1.196,2.789-2.255,4.107-3.438c0.842-0.749,1.523-1.609,2.13-2.269
	c-1.975-1.858-3.319-3.972-5.515-4.961c-2.338-1.05-5.488-1.026-8.28-1.492c-0.782-0.133-1.583-0.282-2.305-0.536
	c-3.714-1.319-7.208-2.91-8.425-6.254c-1.171-3.212-1.556-6.576-0.294-9.887c1.327-3.487,2.782-7.143,6.952-9.26
	c3.463-1.752,7.185-3.463,11.05-4.317c3.955-0.873,7.143-2.33,10.375-4.272c8.351-5.018,17.589-6.884,27.72-5.154
	c4.645,0.791,8.829,2.302,12.799,4.174c1.691,0.797,3.106,0.954,4.958,0.221c5.939-2.343,11.976-2.475,18.047-0.92
	c1.458,0.373,2.996,0.589,3.744,0.737c3.935-3.688,7.008-7.17,10.834-10.012c6.317-4.69,13.571-8.444,21.176-11.705
	c8.731-3.752,18.1-5.518,27.73-6.511c4.644-0.478,4.643-0.583,5.167-4.323c1.076-7.602,3.166-15.025,7.194-22.158
	c5.365-9.493,13.73-17,24.612-22.708c2.415-1.267,3.545-2.484,3.832-4.537c0.685-4.947,4.497-8.249,9.625-10.82
	c1.23-0.617,2.517-1.17,3.384-1.577c0.019-2.657-0.025-4.944,0.057-7.231c0.22-6.093,4.219-11.115,8.24-16.111
	c1.145-1.419,2.217-2.964,3.744-4.094c8.833-6.532,19.021-10.916,30.86-12.532c3.839-0.525,7.478-0.564,10.898-0.125
	c-0.019-0.003-0.034-0.006-0.054-0.008c0.068-0.054,0.139-0.1,0.201-0.157c1.02-1.013,1.675-2.061,2.072-3.152
	c-0.031-0.111-0.062-0.222-0.089-0.333c-1.237-5.303-0.138-10.227,4.873-14.405c1.595-1.332,3.284-2.63,5.14-3.715
	c2.133-1.252,3.461-2.777,4.033-4.772c0.325-1.139,0.87-2.251,1.11-3.395c0.731-3.479,2.902-6.33,6.157-8.756
	c1.087-0.811,2.098-1.683,3.14-2.534c5.246-4.276,10.899-8.085,17.995-10.29c1.807-0.56,3.528-1.291,5.355-1.969
	c-0.318-1.197-0.581-2.053-0.768-2.921c-1.51-7.119,3.046-14.842,11.129-18.593c2.418-1.118,5.029-1.988,7.624-2.814
	c2.029-0.644,3.075-1.478,3.47-3.335c1.99-9.455,8.415-16.801,18.427-22.363c1.298-0.719,2.56-1.655,3.399-2.699
	c3.306-4.094,7.981-6.934,13.657-8.051c5.021-0.987,8.817-2.622,12.257-5.843c2.933-2.755,7.121-4.689,10.764-6.983
	c5.26-3.311,11.053-5.727,17.403-7.388c9.917-2.597,19.747-4.573,30.264-3.582c8.801,0.828,17.246,1.933,24.416,6.122
	c1.891,1.104,3.711,1.156,5.785,0.001c8.26-4.601,17.848-5.365,27.197-6.054c17.938-1.314,37.346,12.079,41.084,22.052
	c0.51,1.356,1.133,2.561,3.053,3.143c7.129,2.156,9.836,6.846,10.471,12.501c0.266,2.375-0.137,4.823-0.232,7.17
	c24.855,13.312,36.957,31.558,32.41,56.743c2.191-0.909,3.875-1.668,5.617-2.316c2.832-1.05,5.617-2.301,8.576-2.984
	c9.104-2.104,18.242-2.755,27.529-1.402c13.402,1.953,26.57,4.165,37.391,11.048c7.074,4.497,14.385,8.822,18.781,15.328
	c2.023,2.994,3.557,6.207,5.336,9.309c0.969,1.681,1.984,3.346,2.779,4.692c7.35-1.191,14.039-2.558,20.799-3.267
	c3.83-0.401,6.541-1.564,8.414-4.084c2.961-3.99,6.916-7.298,11.227-10.358c1.334-0.947,2.809-1.927,4.428-2.413
	c2.088-0.632,3.133-1.686,4.004-3.203c3.721-6.469,10.246-9.689,18.916-10.505c5.137-0.484,10.07,0.094,14.961,0.872
	c9.582,1.532,18.582,4.111,25.771,9.401c2.777,2.041,5.119,4.455,7.607,6.734c4.734,4.335,7.137,9.461,7.572,15.275
	c0.104,1.344,0.543,2.656,0.787,3.808c3.357,0.148,6.199-0.044,8.795,0.448c6.826,1.296,12.104,4.376,15.816,9.085
	c0.887,1.123,1.977,2.55,3.391,2.906c3.35,0.834,5.887,2.48,8.516,4.094c7.844,4.807,13.043,10.922,14.213,18.985
	c0.197,1.355,0.854,2.26,2.219,3.135c1.809,1.151,3.178,2.721,4.748,4.103c0.582,0.515,1.197,1.004,2.035,1.701
	c0.754-0.922,1.363-1.532,1.797-2.209c2.27-3.522,5.789-6.026,10.064-7.961c1.436-0.651,2.861-1.327,4.236-2.058
	c6.432-3.427,13.752-4.384,20.711-3.403c9.639,1.355,18.154,4.897,24.359,11.117c3.438,3.445,5.215,7.495,6.52,11.711
	c0.488,1.579,1.23,2.877,3.141,3.556c6.99,2.486,10.686,6.921,13.463,12.527c3.096,6.246,3.951,12.046,0.441,18.563
	c-2.396,4.45-5.832,8.111-10.998,10.309c-5.65,2.397-11.83,3.958-17.766,5.913c-1.947,0.641-4.121,1.088-5.74,2.091
	c-7.055,4.371-14.758,6.398-23.428,5.332c-3.939-0.485-6.963,0.435-9.287,3.179c-2.877,3.4-7.098,5.467-11.678,7.118
	c-1.9,0.685-3.783,1.399-6.084,2.254c10.275,8.169,14.725,17.598,11.564,28.958c0.309,0.293,0.467,0.556,0.723,0.663
	c0.988,0.411,2.023,0.751,3.01,1.163c6.586,2.748,12.514,5.997,15.609,11.697c0.65,1.194,1.928,2.456,3.365,3
	c5.342,2.034,8.592,5.472,11.162,9.489c0.545,0.855,1.24,1.643,1.969,2.604c1.197-0.552,2.043-0.935,2.875-1.329
	c7.832-3.715,15.75-7.287,24.227-9.93c4.941-1.537,9.988-2.581,15.309-2.405c3.725,0.124,7.494-0.156,11.205,0.031
	c7.279,0.366,14.559,0.916,21.266,3.202c7.926,2.704,14.576,6.711,19.457,12.351c1.309,1.512,2.842,2.236,5.242,1.975
	c3.209-0.35,6.066,0.391,8.762,1.637c1.646,0.764,3.379,1.453,5.174,1.979c3.623,1.065,6.195,3.012,8.166,5.55
	c1.156,1.488,2.354,2.95,3.662,4.588c1.607-0.318,3.016-0.57,4.406-0.877c6.533-1.434,12.445-0.695,18.105,2.021
	c5.848,2.802,10.447,6.656,14.57,10.751c2.686,2.673,4.977,6.126,5.568,9.499c1.146,6.552,1.059,13.294-2.086,19.839
	c-0.379,0.787-0.346,1.691-0.514,2.607c10.223,2.566,18.752,6.807,25.844,12.788c2.123,1.789,3.717,3.804,4.312,6.229
	c1.424,5.791,2.199,11.533-0.789,17.459c-1.18,2.348-1.357,4.885-4.592,6.334c-0.596,0.264-0.756,1.129-1.189,1.69
	c-1.033,1.34-1.936,2.776-3.197,3.976c-9.52,9.053-20.021,17.203-33.432,22.608c-1.508,0.608-2.459,1.29-3.094,2.733
	c-1.289,2.943-3.33,5.614-7.178,7.176c-1.385,0.562-3.264,1.557-3.5,2.523c-0.648,2.639-2.822,2.511-5.127,2.571
	c-2.58,0.071-5.164,0.099-7.744,0.235c-2.639,0.144-4.443,1.345-4.68,3.386c-0.195,1.697-1.463,2.816-2.406,4.175
	c-1.783,2.568-4.734,4.264-7.037,6.411c-3.273,3.05-7.004,5.585-10.941,7.985c-1.023,0.625-2.182,1.217-3.383,1.525
	c-4.99,1.275-10.021,2.433-15.031,3.645c-0.471,0.11-1.059,0.175-1.361,0.432c-2.535,2.15-5.369,1.479-8.203,0.895
	c-1.244-0.256-2.463-0.594-3.721-0.799c-4.719-0.777-6.721-0.051-9.475,3.197c-8.133,9.588-18.801,16.572-32.088,21.498
	c-8.646,3.205-16.93,7.106-25.92,9.738c-1.377,0.4-2.725,1.006-4.131,1.183c-6.936,0.88-13.889,1.616-20.828,2.458
	c-12.027,1.457-23.232-0.587-34.17-3.764c-3.273-0.949-6.461-2.773-9.76-2.765c-3.348,0.01-6.863,1.642-10.168,2.825
	c-6.268,2.244-12.67,3.705-19.479,3.568c-1.76-0.035-3.178,0.546-4.299,1.625c-0.949,0.915-1.816,1.886-2.803,2.773
	c-7.096,6.394-15.004,11.898-25.232,14.926c-1.289,0.381-2.824,1.125-3.408,2.02c-0.994,1.525-2.295,1.634-4.02,1.582
	c-3.012-0.091-5.775,0.195-7.68,2.619c-1.018,1.293-2.895,0.873-4.52,0.795c-3.217-0.154-6.498-0.604-9.658-0.226
	c-8.975,1.079-17.416-0.125-25.783-2.065c-2.307-0.531-4.662-0.989-7.037-1.329c-2.906-0.415-4.885,0.759-5.576,3.148
	c-0.143,0.477-0.191,0.966-0.303,1.544c-2.26,0.203-4.336,0.369-6.41,0.578c-2.514,0.255-3.908,1.616-4.549,3.065
	c-4.652,0.306-8.869,0.516-13.07,0.874c-8.604,0.728-16.861-0.034-24.791-2.444c-1.484-0.451-3.098-0.659-4.594-1.098
	c-2.82-0.828-5.986-1.334-8.309-2.701c-5.463-3.21-11.117-5.759-18.295-5.689c-11.793-2.832-22.305-6.731-24.061-17.937
	c-0.062-0.377-0.271-0.734-0.361-1.106c-1.578-6.298-1.609-12.478,3.262-18.291c0.338-0.399,0.42-0.933,0.6-1.358
	c-0.449-0.227-0.691-0.442-0.975-0.477c-5.713-0.673-10.811-2.321-15.148-5.303c-1.186-0.809-2.656-1.409-4.113-1.908
	c-0.957-0.327-2.443-0.717-3.139-0.363c-3.09,1.57-6.559,1.429-9.848,2.027c-16.66,3.043-33.197,4.55-49.428-0.087
	c-4.848-1.385-9.852-2.497-13.242-5.728c-3.783-3.603-5.164-7.723-2.955-12.486c1.582-3.418,4.545-5.686,8.957-6.845
	c0.346-3.938,1.834-7.481,4.463-10.752c0.193-0.239-0.066-1.142-0.066-1.142c-1.451,0.131-2.715,0.242-3.908,0.35
	c-0.615,0.055-1.029,1.61-1.518,2.374c-3.611-0.485-6.914-0.979-10.246-1.364c-4.139-0.474-8.287-0.897-12.449-1.244
	c-1.385-0.119-2.914-0.175-4.23,0.155c-4.643,1.173-8.982,3.007-13.99,3.396c-3.998,0.312-7.922,1.577-11.904,2.292
	c-5.912,1.06-11.85,2.014-17.777,2.986c-5.598,0.917-11.203,1.745-16.891,1.976c-1.012,0.039-2.02,0.313-3.229,0.513
	c1.426,1.908,2.629,3.514,3.82,5.127c3.852,5.195,5.143,11.156,7.018,16.912c2.01,6.17,0.324,12.207-3.535,17.963
	c-1.004,1.503-2.297,2.953-2.908,4.537c-2.252,5.807-2.547,5.396,3.377,8.85c0.23,0.131,0.615,0.09,1.174,0.161
	c8.682-3.581,17.506-4.171,26.615-1.14c8.293,2.762,9.441,3.378,12.189,9.997c6.006,1.17,12.027,2.342,18.396,3.582
	c0.484-0.415,1.293-1.057,2.035-1.744c2.932-2.733,6.027-5.353,10.504-6.378c3.301-0.757,6.68-1.299,10.049-1.81
	c15.613-2.376,29.633,0.085,42.111,7.283c6.047,3.488,10.66,7.836,13.652,13.321c1.955,3.586,3.975,7.188,9.943,7.68
	c1.164,0.096,2.346,0.847,3.24,1.527c2.248,1.709,4.773,1.595,7.66,1.03c2.328-0.458,4.877-0.868,7.158-0.604
	c4.445,0.514,8.92,1.229,13.121,2.387c7.289,2.005,12.354,5.848,14.934,11.836c1.867,4.328-0.33,11.312-7.969,13.178
	c-0.928,0.227-1.754,0.744-2.668,1.038c-5.955,1.909-11.865,3.92-17.898,5.643c-4.01,1.146-8.303,1.635-12.26,2.878
	c-2.262,0.711-4.283,0.996-6.602,0.863c-2.725-0.158-5.627-0.464-8.219,0.096c-5.324,1.141-10.678,1.124-16.018,1.481
	c-4.062,0.276-8.137,0.271-12.023-0.786c-0.719-0.195-1.895-0.41-2.287-0.127c-2.197,1.604-4.568,0.869-6.951,0.926
	c-1.895,0.052-3.82,0.64-5.703,1.072c-1.09,0.252-2.1,0.838-3.189,0.977c-5.295,0.684-10.596,1.34-15.91,1.867
	c-4.043,0.401-8.117,0.816-12.156,0.827c-5.188,0.019-10.346-0.404-15.527-0.542c-1.26-0.033-2.6,0.189-3.824,0.508
	c-5.34,1.41-10.322,3.324-14.393,6.623c-0.846,0.684-2.301,0.924-3.506,1.3c-1.682,0.519-3.373,1.034-5.098,1.436
	c-2,0.468-4.035,0.815-6.057,1.214c0.219-0.402,0.436-0.809,0.664-1.223c-0.303-0.083-0.609-0.182-0.912-0.271
	c0.053,0.016,0.107,0.033,0.162,0.048c-1.225,0.398-2.408,0.881-3.557,1.422c-4.287-0.416-8.127-1.93-12.02-3.283
	c-4.066-1.41-8.43-3.121-13.051-5.086c0,0,0,0.001,0,0.003c4.621,1.962,8.98,3.673,13.051,5.083
	c4.93,1.715,9.787,3.717,15.551,3.378c-1.238,2.649-1.268,2.592-4.258,2.458c-2.248-0.102-4.609-0.341-6.766,0.074
	c-5.623,1.078-11.309,1.021-16.947,1.615c-9.125,0.955-18.141,0.649-27.085-0.49c-7.283-0.928-14.664-1.518-21.73-3.213
	c-0.872-0.211-1.948-0.213-2.859-0.031c-6.35,1.288-12.681,2.661-19.025,3.98c-0.929,0.193-1.894,0.298-2.846,0.354
	c-2.432,0.149-4.867,0.206-7.299,0.373c-3.189,0.222-6.379,0.465-9.564,0.702c-1.988-0.905-4.279-1.514-6.877-1.729
	c-41.106-3.403-73.188-24.656-106.41-44.046c0.886-7.222,3.24-14.733,6.426-22.148c5.662-13.177-9.738-26.492-25.076-20.071
	c-31.343,13.115-62.999,5.807-78.77-20.668c-5.794-9.725-24.458-13.436-32.241-2.252c-2.714,3.904-5.823,7.885-9.353,11.588
	c-4.856-0.41-9.794-0.543-14.826-0.326c-3.166,0.139-6.064,0.732-8.654,1.668c-9.911-7.942-28.841-0.306-30.859,12.211
	c-2.48-0.971-4.886-2.123-7.231-3.404c-4.184-5.939-6.18-13.141-8.91-19.615c-2.792-6.621-12.3-10.191-20.128-8.861
	c-8.246,1.4-16.648,4.503-24.197,0.181c-6.232-3.567-10.929-7.986-15.441-12.868c0.371-0.801,0.736-1.604,1.145-2.391
	c0.617-1.183,2.003-2.134,2.635-3.311c2.013-3.742,5.158-6.656,9.521-8.826c2.344-1.163,4.621-2.418,7.158-3.749
	c-0.901-1.949-1.956-3.915-2.732-5.954c-1.763-4.601-3.517-5.406-9.554-4.027c-1.245,0.283-2.394,0.848-3.625,1.203
	c-0.899,0.261-1.854,0.494-2.792,0.546c-3.062,0.177-6.129,0.239-9.196,0.4c-4.715,0.239-9.469,0.885-14.131,0.722
	c-13.79-0.48-26.723-3.363-38.867-8.178c-1.854-0.732-3.683-1.532-5.629-2.097c-4.117-1.185-5.381-0.481-5.914,3.209
	c-0.527,0.151-1.203,0.245-1.718,0.524c-2.394,1.314-4.711,1.483-7.219,0.385c-0.754-0.336-2.244-0.535-2.774-0.188
	c-2.864,1.868-5.73,0.875-8.688,0.727c-1.692-0.082-3.469,0.613-5.229,0.808c-1.375,0.155-3.097,0.503-4.113,0.043
	c-4.115-1.865-7.94-1.06-12.107,0.348c-5.282,1.786-10.679,3.479-16.189,4.632c-5.525,1.152-11.261,1.548-16.887,2.357
	c-3.377,0.488-6.708,1.326-10.094,1.66c-5.802,0.575-11.628,0.945-17.449,1.271c-8.122,0.463-16.251,0.771-24.372,1.242
	c-1.641,0.093-3.273,0.609-4.576,0.867c-2.833-0.606-5.446-1.168-8.062-1.717c-2.028-0.432-4.526-0.749-5.037-2.488
	c-0.848-2.886-3.34-3.44-6.433-3.448c-9.183-0.03-17.901-1.767-26.571-3.621C0.638,467.249-1.083,464.504,0.628,459.807z"/>
</svg>
