<?xml version="1.0" encoding="utf-8"?>
<!-- Generator: Adobe Illustrator 16.0.0, SVG Export Plug-In . SVG Version: 6.00 Build 0)  -->
<!DOCTYPE svg PUBLIC "-//W3C//DTD SVG 1.1//EN" "http://www.w3.org/Graphics/SVG/1.1/DTD/svg11.dtd">
<svg version="1.1" id="Layer_1" xmlns="http://www.w3.org/2000/svg" xmlns:xlink="http://www.w3.org/1999/xlink" x="0px" y="0px"
	 width="1364.915px" height="492.104px" viewBox="0 0 1364.915 492.104" enable-background="new 0 0 1364.915 492.104"
	 xml:space="preserve">
<path fill="#FCE5DD" d="M1361.068,103.505c-0.971-1.384-2.469-2.263-4.248-2.872c-5.941-2.033-12.361-2.617-19.439-1.728
	c-0.119-0.621-0.363-1.182-0.316-1.772c0.379-4.898-1.221-9.174-3.551-13.027c-1.199-1.98-3.492-3.597-5.842-4.625
	c-3.605-1.572-7.453-2.875-11.828-3.208c-4.238-0.324-8.148,0.659-11.918,3.167c-0.801,0.533-1.629,1.038-2.564,1.634
	c-1.227-0.713-2.34-1.34-3.436-1.996c-1.865-1.117-3.965-1.714-6.512-1.497c-1.262,0.107-2.523,0.098-3.75,0.02
	c-2.006-0.124-3.99,0.109-5.928,1.117c-1.449,0.755-2.596,0.673-3.793,0.039c-4.461-2.361-9.641-3.257-15.303-3.019
	c-4.793,0.204-9.518,1.642-14.201,3.197c-2.385,0.792-4.695,1.894-7.074,2.729c-3.4,1.194-6.328,3.091-9.066,5.273
	c-4.699,3.745-8.818,7.942-12.848,12.205c-0.428,0.455-0.869,0.902-1.488,1.542c-0.695-0.426-1.328-0.752-1.881-1.159
	c-2.605-1.902-5.502-3.274-9.369-3.248c-1.041,0.011-2.156-0.474-2.857-1.066c-3.352-2.835-7.889-3.431-12.717-3.549
	c-0.725-0.019-1.461,0.021-2.184,0.005c-0.189-0.007-0.352-0.133-0.619-0.241c-0.793-7.939-5.912-12.798-14.398-15.432
	c1.242-1.102,2.254-2.015,3.285-2.912c2.484-2.167,4.639-4.505,5.621-7.356c0.793-2.301,2.475-3.623,5.078-4.283
	c5.732-1.454,10.094-4.62,13.471-9.11c0.777-1.029,2.039-1.845,3.109-2.726c3.266-2.688,6.781-5.191,9.758-8.087
	c2.719-2.655,3.988-5.806,4.408-9.202c0.617-4.972-1.348-8.422-4.832-11.601c-3.127-2.856-6.545-4.747-11.564-4.601
	c-1.371,0.041-2.158-0.597-2.855-1.474c-1.855-2.34-3.969-4.457-6.982-5.787c-5.441-2.401-11.682-2.548-18.096-1.039
	c-4.629,1.089-9.014,3.488-12.229,7.227c-0.689,0.798-1.422,1.574-2.17,2.339c-2.221,2.269-3.828,4.713-4.395,7.49
	c-0.107,0.534-0.342,1.067-0.592,1.835c-0.699-0.235-1.207-0.395-1.701-0.574c-1.328-0.487-2.576-1.14-4.002-1.423
	c-1.076-0.218-1.711-0.628-2.168-1.434c-2.715-4.8-7.496-7.383-13.623-8.49c-2.055-0.373-4.059-0.79-6.375-0.494
	c-0.98,0.122-2.018-0.51-2.852-1.002c-3.498-2.06-7.582-2.709-12.207-1.853c-1.758,0.327-3.504,1.146-5.658,1.875
	c-0.436-0.665-1.035-1.384-1.43-2.208c-1.701-3.56-4.475-6.203-8.523-7.778c-2.129-0.826-4.197-1.775-6.451-2.383
	c-5.834-1.573-12.143-0.994-18.562,0.393c-3.277,0.707-6.531,1.552-9.652,3.118c-5.27,2.642-8.596,6.274-9.357,11.268
	c-0.178,1.169-0.578,2.091-1.74,3.003c-0.9,0.7-1.592,1.682-2.199,2.608c-1.971,2.987-3.652,6.043-4.543,9.286
	c-0.562,2.049-1.988,3.448-4.305,4.64c-4.092,2.105-7.975,4.609-12.32,7.162c-0.832-0.654-1.881-1.453-2.904-2.276
	c-1.883-1.521-3.639-3.172-5.65-4.564c-4.367-3.024-10.041-3.962-15.607-5.063c-8.514-1.686-17.363,0.146-26.297,2.201
	c-6.189,1.427-11.795,4.078-17.021,7.637c-1.699,1.158-3.148,2.63-4.678,3.987c-0.939,0.838-1.816,1.729-2.975,2.841
	c-3.311-17.002-15.42-25.546-34.365-27.846c-0.516-1.505-0.861-3.148-1.611-4.582c-1.787-3.41-4.645-5.705-9.672-5.316
	c-1.354,0.104-2.041-0.503-2.697-1.234C899,2.829,883.472-0.858,872.478,4.37c-5.729,2.728-11.59,5.561-15.672,10.49
	c-1.025,1.238-2.186,1.651-3.65,1.418c-5.549-0.883-11.148,0.49-16.902,2.127c-6.879,1.954-12.596,5.611-18.213,9.685
	c-3.6,2.604-6.662,5.552-9.168,8.929c-1.734,2.34-3.902,4.588-5.076,7.045c-1.379,2.875-3.373,4.839-6.299,6.692
	c-3.307,2.098-5.559,5.035-6.641,8.429c-0.273,0.865-0.84,1.766-1.482,2.536c-4.951,5.964-7.201,12.175-6.139,18.626
	c0.207,1.27-0.248,2.054-1.371,2.956c-1.434,1.158-2.867,2.348-4.119,3.646c-4.178,4.35-5.158,10.339-2.459,14.459
	c0.33,0.503,0.705,0.978,1.201,1.654c-0.988,0.877-1.895,1.76-2.896,2.556c-3.936,3.131-6.566,6.921-8.828,10.906
	c-0.447,0.792-0.871,1.59-1.359,2.368c-1.457,2.33-2.127,4.66-1.736,7.034c0.131,0.78,0.059,1.616,0.133,2.412
	c0.129,1.4-0.334,2.688-1.373,4.001c-0.904,1.141-1.652,2.374-2.332,3.604c-2.135,3.866-1.621,7.242,0.461,10.284
	c0.043,0.062,0.09,0.126,0.137,0.188c0.018,0.784-0.139,1.606-0.535,2.495c-0.023,0.052-0.057,0.099-0.088,0.148
	c0.014-0.002,0.023-0.005,0.037-0.007c-2.266,0.562-4.551,1.479-6.846,2.75c-2.429,1.348-4.64,2.864-6.676,4.515
	c-0.235-0.06-0.469-0.124-0.672-0.224c-3.695-1.809-7.238-3.934-10.881-5.863c-1.475-0.783-2.996-1.648-4.6-1.979
	c-15.062-3.097-29.92-3.604-44.188,3.607c-1.985,1.002-4.355,1.666-6.571,1.726c-9.898,0.27-19.533,1.801-29.18,4.107
	c-15.753,3.76-27.002,13.048-34.78,26.773c-1.76,3.1-3.747,4.726-7.041,5.426c-5.981,1.267-11.995,2.885-16.781,6.784
	c-3.908,3.188-7.83,3.35-12.311,2.293c-3.467-0.816-6.971-1.497-10.489-2.052c-1.839-0.288-3.787-0.46-5.609-0.185
	c-8.495,1.273-17.031,2.397-25.427,4.188c-8.808,1.879-17.722,3.852-25.535,8.601c-15.197,9.243-29.086,19.947-37.561,36.211
	c-0.577,1.115-1.201,2.26-2.04,3.169c-0.97,1.048-2.062,2.286-3.341,2.691c-6.364,2.024-11.275,6.396-16.696,9.944
	c-3.068,2.007-5.763,4.37-8.01,7.113c-0.079-0.106-0.154-0.218-0.235-0.324c-2.526-3.308-6.007-5.528-9.25-8.05
	c-5.588-4.344-12.009-7.082-18.293-10.088c-7.925-3.793-16.686-4.014-25.154-5.243c-4.237-0.614-8.711,0.091-13.04,0.559
	c-4.074,0.444-8.212,0.975-12.11,2.169c-4.869,1.491-9.562,3.595-14.239,5.641c-2.491,1.088-4.81,2.575-7.168,3.953
	c-1.397,0.817-2.66,1.743-4.456,1.629c-4.613-0.296-8.926,1.179-13.062,2.903c-4.142,1.727-8.155,3.864-11.174,7.361
	c-1.301,1.508-2.416,3.178-3.665,4.732c-2.292,2.845-6.311,5.462-9.479,7.188c-5.753,3.134-12.124,5.511-15.74,11.613
	c-0.797,1.349-2.101,1.945-3.811,1.889c-2.414-0.082-4.729,0.656-6.774,1.899c-3.947,2.399-7.899,4.827-10.545,8.803
	c-0.896,1.348-1.86,2.649-3.02,4.301c-4.102,0.232-7.954,1.207-11.633,2.86c-3.187,1.432-6.396,2.819-9.548,4.328
	c-1.456,0.695-2.859,1.542-4.186,2.469c-8.375,5.888-14.307,13.829-19.016,22.78c-0.407,0.771-0.698,1.601-1.003,2.42
	c-1.887,5.09-1.893,5.176-7.388,4.644c-6.837-0.663-13.181,0.464-18.84,4.571c-1.063,0.771-2.251,1.113-3.541,0.739
	c-4.804-1.394-9.257-0.003-13.314,2.265c-2.599,1.455-4.598,1.216-6.931-0.119c-3.181-1.823-6.584-3.052-10.329-2.856
	c-1.943,0.101-2.903-0.923-3.694-2.53c-1.265-2.567-2.779-5.011-4.061-7.573c-2.245-4.484-6.079-7.344-10.377-9.338
	c-8.647-4.009-17.572-4.364-26.526-0.754c-0.811,0.327-1.589,0.79-2.431,0.972c-4.601,1.005-8.091,3.779-11.295,6.995
	c-1.487,1.496-2.594,3.728-4.362,4.491c-1.919,0.826-4.414,0.292-6.652,0.43c-5.623,0.349-10.865,1.924-15.19,5.613
	c-2.013,1.716-4.028,2.51-6.666,2.741c-6.335,0.56-11.366,3.743-13.453,9.785c-1.277,3.704-3.426,5.137-6.796,5.754
	c-0.735,0.132-1.483,0.235-2.211,0.41c-2.91,0.698-5.879,1.226-8.705,2.183c-2.769,0.938-5.541,1.336-8.435,1.469
	c-3.737,0.172-7.472,0.518-11.187,0.965c-2.901,0.348-5.626,1.379-7.767,3.426c-1.888,1.805-3.595,3.802-5.302,5.784
	c-0.445,0.52-0.87,1.33-0.813,1.959c0.333,3.695,0.774,7.382,4.416,9.597c0.494,0.301,0.763,0.958,1.2,1.391
	c0.427,0.43,0.888,1.04,1.407,1.128c4.179,0.707,8.019,2.616,12.332,3.012c4.442,0.408,8.81,1.63,13.202,2.542
	c0.589,0.123,1.17,0.456,1.675,0.808c4.439,3.102,9.392,5.138,14.403,7.071c0.691,0.268,1.766,0.413,1.976,0.906
	c1.263,2.934,4.083,3.915,6.472,5.397c2.527,1.571,5.084,3.145,7.796,4.345c2.828,1.251,5.815,2.196,8.801,3.023
	c3.957,1.099,7.969,2.006,11.978,2.901c4.87,1.088,9.845,1.796,14.617,3.202c3.904,1.154,7.787,1.645,11.802,1.659
	c1.243,0.004,2.494,0.151,3.73,0.312c8.82,1.155,17.648,1.483,26.515,0.469c3.469-0.396,6.997-0.387,10.439-0.928
	c3.552-0.557,7.196-0.487,10.647-1.807c3.605-1.377,7.296-2.561,10.999-3.653c1.383-0.406,2.968-0.61,4.374-0.383
	c2.939,0.474,5.831,1.251,8.725,1.982c4.236,1.072,8.544,1.954,12.66,3.384c10.844,3.758,21.857,6.926,33.009,9.586
	c6.427,1.531,12.931,2.765,19.443,3.901c5.52,0.963,11.085,1.715,16.656,2.344c5.811,0.657,11.63,1.521,17.522,0.456
	c1.822-0.327,3.771-0.363,5.607-0.119c3.922,0.519,7.739-0.109,11.477-0.984c3.917-0.914,7.366-0.35,10.648,1.867
	c0.924,0.623,1.91,1.21,2.949,1.604c5.817,2.203,11.405,4.983,17.571,6.301c4.622,0.99,9.124,2.534,13.685,3.808
	c0.6,0.166,1.225,0.253,1.847,0.31c7.829,0.735,15.656,1.53,23.495,2.133c1.951,0.15,3.957-0.283,5.926-0.531
	c4.69-0.586,9.365-1.577,14.069-1.728c4.277-0.136,8.408-0.774,12.601-1.476c6.565-1.098,12.951-2.854,19.896-2.024
	c8.002,0.952,16.169,0.583,24.198-1.08c4.868-1.011,9.529-2.933,14.547-3.259c0.12-0.007,0.235-0.088,0.353-0.121
	c3.835-1.129,7.714-2.117,11.49-3.417c5.44-1.868,10.878-0.69,16.314-0.245c0.704,0.057,1.68,0.747,1.945,1.384
	c0.438,1.061-0.599,1.422-1.458,1.72c-0.583,0.204-1.186,0.424-1.703,0.752c-3.359,2.12-4.298,6.152-2.039,9.383
	c1.507,2.156,3.522,3.796,5.933,4.985c0.543,0.268,1.095,0.504,1.65,0.727c-6.893,4.687-10.885,11.841-10.732,18.808
	c0.072,3.382,1.831,4.691,5.881,4.035c5.924-0.957,11.85-2.001,17.65-4.234c1.952-0.753,3.66-1.015,4.902,0.599
	c0.75,0.971,2.404,0.56,3.789,0.334c1.785-0.296,3.57-0.582,5.506-0.896c0.76-0.48,1.662-1.208,2.675-1.668
	c5.008-2.288,10.061-4.477,15.069-6.764c2.402-1.091,4.792-2.212,7.17-3.358c1.763-0.058,3.525-0.121,5.286-0.191
	c4.626-0.183,9.266-0.488,13.457-2.764c1.92-1.044,3.782-1.036,5.756-0.242c3.157,1.268,6.495,1.722,9.849,2.082
	c4.821,0.516,9.63,1.22,14.464,1.51c6.846,0.41,13.718,0.747,20.571,0.655c3.574-0.049,7.193-0.847,10.687-1.723
	c4.019-1.01,7.939-2.054,12.134-1.102c3.512,0.802,6.994,0.359,10.24-1.139c1.902-0.88,3.636-2.141,5.414-3.279
	c2.182-1.397,2.28-1.846,1.541-4.265c-1.037-3.382-3.419-5.497-6.547-6.755c-2.878-1.158-5.872-2.031-8.962-3.08
	c-1.501-3.527-4.001-6.411-7.291-8.625c-0.098-1.322-0.219-2.562-0.276-3.804c-0.067-1.486-0.331-2.854-0.752-4.126
	c0.784-0.246,1.567-0.489,2.35-0.763c2.981-1.041,5.821-2.613,8.737-3.923c1.895-0.852,3.814-1.645,5.702-2.508
	c0.579-0.264,1.124-0.644,1.628-1.028c0.689-0.527,1.276-1.164,1.992-1.649c3.471-2.35,4.773-2.272,7.015,0.199
	c0.989,1.095,2.137,2.076,3.184,3.086c-1.273,1.462-2.402,2.811-3.596,4.12c-2.221,2.438-3.489,5.048-3.842,7.902
	c-0.109,0.898-0.751,1.838-0.85,2.735c-0.065,0.597-0.099,1.193-0.136,1.788c4.043,1.974,8.09,3.608,12.896,4.331
	c5.822,0.874,10.363-3.143,15.22-6.05c4.611-2.759,11.486-2.839,14.871,0.654c3.309,3.412,6.336,7.468,10.432,10.188
	c1.793,0.23,3.594,0.369,5.396,0.372c-1.797-8.392,8.271-17.851,16.471-15.272c1.406-1.226,3.088-2.311,5.051-3.175
	c3.121-1.37,6.27-2.497,9.434-3.43c1.318-3.202,2.303-6.476,3.057-9.604c2.168-8.966,14.852-11.202,20.891-6.49
	c16.443,12.834,38.207,9.681,54.762-6.281c8.1-7.814,21.08-3.19,20.742,6.511c-0.191,5.458,0.166,10.774,1.377,15.549
	c25.715,4.08,51.166,9.62,77.932,1.684c1.691-0.503,3.285-0.682,4.762-0.597c1.951-0.931,3.904-1.866,5.861-2.788
	c1.494-0.703,3.016-1.335,4.514-2.026c0.586-0.271,1.17-0.572,1.707-0.921c3.68-2.391,7.336-4.809,11.025-7.179
	c0.531-0.338,1.209-0.601,1.812-0.681c4.873-0.664,9.676-2.102,14.496-3.305c5.922-1.475,11.684-3.494,17.205-6.334
	c3.414-1.758,7.014-3.117,10.295-5.177c1.26-0.79,2.809-1.219,4.25-1.706c1.92-0.648,1.953-0.619,2.084-2.596
	c-3.553,1.629-7.109,1.557-10.639,1.686c-2.912,0.107-6.084,0.098-9.479-0.005c-0.002-0.003-0.002-0.003-0.002-0.003
	c3.396,0.105,6.568,0.113,9.48,0.008c2.787-0.104,5.582-0.089,8.387-0.878c0.594-0.623,1.221-1.218,1.896-1.77
	c0.176-0.014,0.354-0.026,0.527-0.043c-0.043,0.316-0.08,0.627-0.119,0.933c1.178-0.746,2.375-1.465,3.523-2.25
	c0.988-0.677,1.93-1.416,2.863-2.154c0.668-0.534,1.527-1.044,1.893-1.683c1.76-3.078,4.432-5.508,7.455-7.708
	c0.693-0.501,1.484-0.969,2.287-1.257c3.303-1.186,6.66-2.185,9.928-3.468c2.547-0.998,5.016-2.259,7.467-3.504
	c3.223-1.635,6.406-3.35,9.578-5.08c0.654-0.355,1.146-0.973,1.771-1.398c1.084-0.735,2.152-1.579,3.336-2.074
	c1.488-0.621,3.164-0.738,4.158-2.291c0.178-0.272,0.973-0.428,1.473-0.48c2.713-0.284,5.283-1.281,7.779-2.452
	c3.281-1.536,6.66-2.839,9.74-4.863c1.498-0.99,3.402-1.508,5.162-2.076c1.494-0.485,2.699-1.161,3.951-2.166
	c2.193-1.754,4.781-3.114,7.027-4.821c3.385-2.566,6.619-5.284,9.908-7.95c0.504-0.41,0.898-0.938,1.428-1.309
	c4.361-3.051,4.033-7.996,1.795-10.267c-3.096-3.146-7.234-4.327-12.324-3.805c-2.934,0.301-5.932,0.947-8.863,1.713
	c-1.502,0.394-3.01,1.276-4.365,2.137c-1.684,1.063-3.25,1.755-5.086,1.23c-0.73-0.211-1.66-0.396-2.42-0.17
	c-3.885,1.154-6.041-0.623-8.156-2.406c-3.232-2.725-7.209-4.336-11.879-5.053c-9.637-1.481-19.086,0.405-28.352,5.732
	c-2,1.15-3.998,2.321-5.895,3.607c-2.572,1.745-3.883,4.157-5.062,6.6c-0.299,0.617-0.652,1.221-0.855,1.601
	c-4.322,0.779-8.408,1.517-12.484,2.251c-3.357-3.501-4.232-3.608-10.141-3.314c-6.49,0.322-11.912,2.857-16.512,7.246
	c-0.369,0.092-0.602,0.213-0.779,0.186c-4.584-0.726-4.297-0.537-4.301-4.752c-0.002-1.15,0.459-2.382,0.723-3.577
	c1.023-4.578,0.605-8.8-2.176-12.199c-2.594-3.169-4.873-6.614-8.576-8.945c-1.148-0.728-2.301-1.444-3.668-2.298
	c0.715-0.424,1.283-0.843,1.912-1.116c3.531-1.541,6.863-3.438,10.168-5.391c3.502-2.066,7.014-4.123,10.484-6.243
	c2.338-1.428,4.5-3.188,6.947-4.365c3.062-1.475,5.35-3.695,7.992-5.574c0.748-0.532,1.729-0.871,2.631-1.137
	c2.711-0.801,5.43-1.552,8.16-2.268c2.193-0.574,4.398-1.072,6.795-1.653c0.121-0.601,0.002-1.684,0.377-1.87
	c0.725-0.358,1.494-0.741,2.379-1.179c0,0,0.385,0.507,0.322,0.704c-0.857,2.707-0.926,5.309-0.178,7.879
	c-2.5,1.813-3.812,3.97-3.973,6.513c-0.225,3.549,1.656,5.809,4.928,7.152c2.932,1.208,6.359,0.683,9.76,0.364
	c11.375-1.056,21.438-6.062,31.199-12.067c1.93-1.186,4.15-1.948,5.715-3.694c0.354-0.394,1.385-0.513,2.07-0.542
	c1.041-0.043,2.117-0.024,3.062,0.196c3.469,0.815,7.088,0.604,10.857-0.371c0.188-0.049,0.393,0.028,0.73,0.061
	c-0.008,0.313,0.07,0.671-0.045,1.006c-1.646,4.861-0.111,8.752,2.428,12.337c0.15,0.212,0.369,0.388,0.5,0.609
	c3.857,6.639,11.445,6.52,19.578,5.415c4.512-1.807,8.703-1.584,12.936-0.899c1.803,0.293,3.924-0.165,5.904-0.335
	c1.053-0.09,2.121-0.354,3.168-0.434c5.594-0.425,10.99-1.97,16.238-4.538c2.562-1.258,5.172-2.425,8.031-3.758
	c0.049-1.071,0.596-2.272,2.117-3.05c1.258-0.642,2.527-1.256,3.902-1.938c-0.07-0.393-0.16-0.712-0.188-1.049
	c-0.15-1.677,0.811-2.904,2.744-3.353c1.582-0.37,3.182-0.657,4.766-0.888c5.756-0.828,11.375-2.141,16.771-5.021
	c1.9-1.014,4.08-1.536,6.148-2.228c1.045-0.35,2.332-0.546,2.656-1.61c0.605-1.997,2.281-2.854,4.201-3.536
	c1.102-0.389,1.895-0.778,2.148-1.984c0.148-0.706,0.934-1.554,1.654-2.109c5.711-4.418,9.348-9.831,12.258-15.604
	c0.402-0.803,0.713-1.628,1.088-2.438c0.441-0.955,1.193-1.669,2.312-2.079c4.328-1.584,8.008-4.075,11.412-7.029
	c1.795-1.557,3.611-3.449,5.721-4.275c2.078-0.815,4.537-0.445,6.836-0.649c7.678-0.681,15.248-2.138,22.477-6.007
	c4.172-2.235,8.379-4.403,12.537-6.661c0.844-0.456,1.545-1.167,2.314-1.759c5.027-3.864,9.295-8.357,13.965-12.501
	c7.174-6.365,12.189-13.388,14.967-21.432c0.941-2.725,2.027-3.673,5.193-4.342c0.844-0.179,1.695-0.264,2.543-0.407
	c1.932-0.328,3.885-0.599,4.955-2.578c0.129-0.236,0.484-0.421,0.754-0.605c2.863-1.994,5.754-3.956,8.588-5.987
	c0.682-0.489,1.268-1.145,1.76-1.791c1.895-2.48,3.627-4.994,4.943-7.72c0.926-1.92,2.371-3.715,2.867-5.77
	c0.262-1.089,0.787-2.108,0.494-3.226c-0.354-1.347,0.492-2.546,2.121-3.284c1.594-0.717,3.217-1.37,4.828-2.049
	c1.438-0.603,2.842-1.057,2.604-2.878c-0.088-0.668,0.854-1.757,1.588-2.449c2.043-1.932,2.678-4.117,2.77-6.288
	c0.045-1.067,0.477-1.73,1.279-2.484c7.135-6.698,11.76-14.415,15.545-22.461c0.502-1.067,0.719-2.194,1.043-3.293
	c0.135-0.46,0.023-1.046,0.334-1.359c1.686-1.708,1.174-3.353,1.344-5.122C1365.283,110.24,1363.386,106.81,1361.068,103.505z
	 M606.725,388.83c0.456-0.062,0.91-0.127,1.363-0.195c-0.281,0.39-0.568,0.779-0.875,1.156c-0.125,0.156-0.323,0.276-0.657,0.557
	c-0.468-0.08-1.063-0.134-1.604-0.278c-1.041-0.278-2.096-0.477-3.158-0.634C603.438,389.25,605.083,389.048,606.725,388.83z"/>
</svg>
