<?xml version="1.0" encoding="utf-8"?>
<!-- Generator: Adobe Illustrator 16.0.0, SVG Export Plug-In . SVG Version: 6.00 Build 0)  -->
<!DOCTYPE svg PUBLIC "-//W3C//DTD SVG 1.1//EN" "http://www.w3.org/Graphics/SVG/1.1/DTD/svg11.dtd">
<svg version="1.1" id="Layer_1" xmlns="http://www.w3.org/2000/svg" xmlns:xlink="http://www.w3.org/1999/xlink" x="0px" y="0px"
	 viewBox="0 0 1179.779 599.23"
	 xml:space="preserve">
<g opacity="0.9">
	<path fill="#A7CFE7" d="M951.368,571.939c7.807-0.124,15.637,0.054,23.422-0.436c11.029-0.692,22.084-1.508,33.025-3.001
		c5.705-0.782,11.334-2.771,16.746-4.859c6.229-2.406,12.291-4.849,19.188-4.15c5.771,0.59,11.252-0.803,16.148-3.837
		c2.867-1.782,5.393-4.138,8.012-6.311c3.215-2.665,3.283-3.399,1.623-7.122c-2.322-5.205-6.551-8.117-11.799-9.512
		c-4.832-1.283-9.787-2.092-14.938-3.162c-3.094-5.344-7.66-9.463-13.355-12.354c-0.418-2.095-0.855-4.054-1.191-6.028
		c-1.346-7.961-5.623-13.615-13.107-16.767c-4.602-1.938-9.209-3.856-13.922-5.826c-1.189-4.372-2.248-8.859-3.66-13.233
		c-0.979-3.039-2.119-6.119-3.764-8.83c-2.381-3.927-5.08-7.709-8.027-11.24c-2.42-2.888-5.326-5.396-8.152-7.92
		c-2.691-2.412-5.516-4.678-8.361-6.91c-2.684-2.105-5.322-4.327-8.234-6.074c-8.277-4.973-16.891-9.31-25.893-12.844
		c-6.99-2.748-14.27-5.348-21.711-3.68c-6.09,1.366-10.555,0.17-14.516-4.279c-0.531-0.594-1.201-1.066-1.83-1.575
		c-7.031-5.644-14.596-10.005-23.957-10.245c-4.729-0.119-9.455-0.376-14.525-0.59c-0.047-1.859,0.248-4.098-0.211-6.172
		c-3.416-15.426-10.834-28.129-25.342-35.629c-6.068-3.141-12.289-6.045-18.625-8.611c-7.693-3.118-15.768-4.766-24.143-4.705
		c-4.182,0.03-8.373-0.061-12.594-0.094c-0.527-1.26-1.008-2.139-1.279-3.077c-2.648-9.081-7.873-16.73-13.727-23.912
		c-4.463-5.479-9.736-10.188-16.4-13.027c-5.715-2.438-11.377-5.038-17.152-7.325c-2.395-0.945-4.246-1.976-4.98-4.67
		c-0.838-3.073-3.242-5.079-5.688-6.852c-8.133-5.9-17.213-9.25-27.027-9.625c-2.383-2.762-4.48-5.456-6.855-7.885
		c-4.691-4.792-10.695-7.657-16.379-11.051c-9.791-5.844-20.598-8.959-31.236-12.527c-13.42-4.504-27.473-3.131-41.256-3.43
		c-6.894-0.148-13.911,1.859-20.74,3.459c-6.426,1.513-12.94,3.175-18.938,5.854c-7.49,3.342-14.581,7.63-21.657,11.823
		c-3.769,2.231-7.185,5.064-10.684,7.733c-2.076,1.581-3.909,3.31-6.804,3.48c-7.436,0.436-14.043,3.644-20.315,7.216
		c-6.282,3.574-12.28,7.785-16.417,13.971c-1.784,2.666-3.237,5.557-4.929,8.288c-3.106,5.001-9.014,9.977-13.741,13.361
		c-8.581,6.143-18.301,11.197-22.881,21.668c-1.012,2.312-2.978,3.524-5.722,3.771c-3.877,0.346-7.432,1.979-10.46,4.371
		c-5.839,4.613-11.679,9.274-15.127,16.153c-1.168,2.33-2.453,4.604-3.983,7.472c-6.513,1.178-12.481,3.494-18.038,6.864
		c-4.812,2.917-9.671,5.768-14.414,8.799c-2.191,1.4-4.27,3.03-6.208,4.772c-12.232,11.064-20.154,24.931-25.922,40.172
		c-0.498,1.313-0.801,2.698-1.127,4.065c-2.016,8.51-2.008,8.651-10.898,8.881c-11.064,0.285-20.986,3.339-29.227,11.021
		c-1.55,1.442-3.381,2.225-5.516,1.88c-7.955-1.283-14.803,1.816-20.845,6.244c-3.868,2.838-7.11,2.85-11.104,1.174
		c-5.446-2.291-11.131-3.584-17.078-2.535c-3.088,0.542-4.823-0.904-6.406-3.318c-2.527-3.857-5.43-7.465-7.982-11.312
		c-4.475-6.729-11.168-10.544-18.434-12.887c-14.618-4.707-28.957-3.519-42.564,4.018c-1.231,0.684-2.384,1.577-3.696,2.034
		c-7.16,2.512-12.194,7.635-16.684,13.408c-2.084,2.683-3.413,6.472-6.092,8.041c-2.906,1.7-6.997,1.335-10.552,1.997
		c-8.922,1.665-16.994,5.214-23.186,11.966c-2.879,3.141-5.943,4.807-10.119,5.696c-10.019,2.143-17.437,8.224-19.582,18.297
		c-1.312,6.173-4.467,8.888-9.735,10.537c-1.149,0.356-2.324,0.669-3.455,1.092c-4.515,1.688-9.16,3.116-13.487,5.203
		c-4.245,2.047-8.598,3.228-13.199,4.011c-5.943,1.011-11.848,2.298-17.698,3.745c-4.57,1.127-8.725,3.313-11.744,7.008
		c-2.664,3.259-5.001,6.788-7.34,10.291c-0.608,0.921-1.129,2.3-0.913,3.296c1.26,5.84,2.69,11.652,8.95,14.475
		c0.848,0.384,1.408,1.381,2.193,1.989c0.766,0.602,1.623,1.486,2.47,1.524c6.822,0.309,13.334,2.604,20.312,2.389
		c7.183-0.223,14.407,0.871,21.61,1.464c0.967,0.082,1.962,0.499,2.837,0.963c7.71,4.083,16.03,6.364,24.423,8.471
		c1.158,0.289,2.904,0.31,3.338,1.058c2.599,4.444,7.299,5.457,11.411,7.358c4.351,2.015,8.75,4.025,13.321,5.411
		c4.769,1.444,9.732,2.367,14.67,3.102c6.543,0.978,13.138,1.637,19.723,2.279c8.002,0.783,16.096,0.935,24.003,2.244
		c6.471,1.079,12.774,1.095,19.2,0.329c1.988-0.239,4.016-0.249,6.026-0.237c14.329,0.109,28.513-1.103,42.491-4.471
		c5.468-1.317,11.11-1.996,16.508-3.542c5.572-1.589,11.412-2.193,16.668-4.982c5.493-2.914,11.164-5.533,16.869-8.008
		c2.131-0.922,4.626-1.562,6.918-1.476c4.794,0.18,9.57,0.853,14.342,1.453c6.984,0.882,14.048,1.442,20.91,2.918
		c18.081,3.874,36.314,6.771,54.669,8.828c10.579,1.183,21.224,1.873,31.858,2.409c9.016,0.453,18.064,0.56,27.096,0.468
		c9.421-0.092,18.895,0.141,28.106-2.719c2.851-0.885,5.958-1.324,8.943-1.296c6.374,0.055,12.354-1.7,18.158-3.835
		c6.084-2.232,11.71-2.009,17.394,0.889c1.602,0.814,3.294,1.559,5.032,1.983c9.734,2.378,19.217,5.723,29.337,6.614
		c7.586,0.672,15.088,2.255,22.632,3.396c0.992,0.148,2.009,0.162,3.017,0.132c12.661-0.367,25.333-0.636,37.984-1.217
		c3.152-0.145,6.271-1.234,9.375-2.018c7.385-1.861,14.662-4.363,22.156-5.533c6.812-1.059,13.291-2.893,19.859-4.838
		c10.281-3.051,20.146-7.115,31.414-7.156c12.984-0.055,25.969-2.254,38.482-6.493c7.586-2.573,14.66-6.565,22.617-8.075
		c0.191-0.035,0.357-0.187,0.543-0.264c5.908-2.561,11.914-4.905,17.697-7.727c8.332-4.057,17.258-3.248,26.039-3.604
		c1.139-0.048,2.834,0.861,3.383,1.829c0.908,1.61-0.678,2.393-1.994,3.038c-0.893,0.439-1.811,0.91-2.574,1.537
		c-4.955,4.051-5.662,10.685-1.414,15.401c2.836,3.153,6.383,5.381,10.471,6.806c9.406,3.281,19.516,2.26,29.029,4.885
		c1.082,0.298,2.371-0.209,3.566-0.283c1.803-0.115,3.609-0.255,5.416-0.255c6.025,0.001,12.059,0.17,18.088,0.078
		c5.201-0.075,10.436-0.116,15.596-0.704c7.982-0.914,15.928-2.192,23.855-3.49c7.363-1.203,14.721-2.604,20.975-7.068
		c2.865-2.047,5.846-2.4,9.156-1.521C940.504,571.955,945.93,572.022,951.368,571.939z"/>
	<path fill="#A7CFE7" d="M1069.708,261.876c7.516-1.562,15.113-2.834,22.535-4.75c10.516-2.715,21.031-5.555,31.307-9.039
		c5.357-1.819,10.404-4.806,15.225-7.853c5.547-3.508,10.924-7.02,17.721-7.609c5.689-0.488,10.711-2.864,14.846-6.741
		c2.422-2.276,4.4-5.05,6.508-7.663c2.584-3.205,2.506-3.938,0.178-7.278c-3.258-4.673-7.908-6.746-13.248-7.144
		c-4.918-0.365-9.861-0.242-15.043-0.341c-4.029-4.664-9.242-7.858-15.307-9.64c-0.812-1.976-1.617-3.815-2.326-5.687
		c-2.852-7.552-8.086-12.304-15.928-14.011c-4.822-1.05-9.645-2.079-14.58-3.139c-2.002-4.064-3.9-8.266-6.115-12.292
		c-1.537-2.797-3.24-5.604-5.357-7.958c-3.064-3.409-6.408-6.617-9.943-9.532c-2.902-2.383-6.197-4.305-9.418-6.256
		c-3.068-1.868-6.238-3.566-9.422-5.229c-3.004-1.568-5.984-3.257-9.137-4.432c-8.963-3.345-18.127-6.004-27.51-7.805
		c-7.285-1.402-14.822-2.606-21.684,0.402c-5.615,2.463-10.16,2.115-14.854-1.513c-0.627-0.484-1.367-0.824-2.074-1.206
		c-7.889-4.232-16.045-7.109-25.133-5.617c-4.59,0.756-9.205,1.378-14.143,2.104c-0.408-1.813-0.559-4.061-1.406-6.009
		c-6.309-14.485-15.949-25.563-31.422-30.235c-6.473-1.957-13.047-3.653-19.664-5c-8.039-1.635-16.156-1.758-24.232-0.154
		c-4.033,0.802-8.1,1.487-12.182,2.233c-0.754-1.137-1.389-1.91-1.836-2.779c-4.326-8.41-10.865-14.941-17.918-20.898
		c-5.377-4.544-11.391-8.186-18.379-9.738c-5.994-1.334-11.969-2.836-17.992-4.011c-2.496-0.484-4.484-1.152-5.721-3.657
		c-1.408-2.856-4.121-4.378-6.828-5.665c-9.004-4.279-18.428-5.886-27.979-4.442c-2.838-2.267-5.391-4.519-8.158-6.461
		c-5.465-3.83-11.822-5.529-17.971-7.806c-10.596-3.919-21.639-4.977-32.609-6.508c-13.836-1.937-27.141,2.004-40.51,4.255
		c-6.686,1.127-13.07,4.39-19.354,7.219c-5.912,2.669-11.879,5.5-17.148,9.232c-6.58,4.658-12.592,10.169-18.607,15.583
		c-3.205,2.883-5.951,6.289-8.809,9.55c-1.697,1.933-3.131,3.965-5.893,4.667c-7.096,1.8-12.851,6.163-18.211,10.822
		c-5.37,4.662-10.342,9.896-13.13,16.721c-1.203,2.942-2.043,6.043-3.144,9.032c-2.024,5.473-6.76,11.439-10.664,15.629
		c-7.089,7.604-15.489,14.351-17.871,25.457c-0.526,2.452-2.188,4.003-4.791,4.751c-3.676,1.054-6.79,3.311-9.248,6.214
		c-4.739,5.598-9.47,11.244-11.458,18.621c-0.674,2.5-1.472,4.964-2.391,8.058c-6.059,2.356-11.371,5.728-16.08,10.056
		c-4.078,3.748-8.215,7.437-12.204,11.284c-1.843,1.776-3.532,3.758-5.064,5.823c-9.655,13.1-14.602,28.15-17.2,44.15
		c-0.225,1.379-0.246,2.792-0.295,4.192c-0.286,8.71-0.251,8.848-8.792,10.714c-10.63,2.322-19.616,7.146-26.075,16.195
		c-1.216,1.699-2.831,2.804-4.959,2.859c-7.934,0.211-13.941,4.514-18.914,9.967c-3.181,3.496-6.311,4.105-10.494,3.201
		c-5.707-1.239-11.447-1.458-16.986,0.668c-2.877,1.101-4.835,0.004-6.834-2.07c-3.193-3.312-6.699-6.312-9.915-9.61
		c-5.633-5.768-12.841-8.271-20.314-9.225c-15.034-1.913-28.651,1.897-40.321,11.795c-1.056,0.897-1.994,1.985-3.173,2.676
		c-6.425,3.783-10.288,9.732-13.497,16.218c-1.488,3.014-2.034,6.973-4.314,9.004c-2.475,2.203-6.497,2.6-9.801,3.905
		c-8.291,3.279-15.395,8.247-20.057,16.006c-2.168,3.608-4.803,5.808-8.661,7.45c-9.258,3.949-15.235,11.277-15.343,21.544
		c-0.063,6.292-2.58,9.534-7.347,12.123c-1.04,0.562-2.114,1.085-3.124,1.708c-4.03,2.487-8.238,4.744-12.01,7.588
		c-3.7,2.789-7.674,4.75-11.965,6.367c-5.543,2.088-10.993,4.439-16.361,6.938c-4.193,1.947-7.778,4.857-9.975,9.035
		c-1.938,3.685-3.506,7.574-5.081,11.439c-0.407,1.015-0.642,2.461-0.239,3.398c2.355,5.489,4.871,10.921,11.467,12.53
		c0.893,0.221,1.629,1.094,2.506,1.545c0.856,0.448,1.857,1.157,2.682,1.038c6.648-0.957,13.385,0.09,20.081-1.409
		c6.894-1.544,14.083-1.807,21.155-2.556c0.949-0.098,1.991,0.127,2.927,0.42c8.242,2.578,16.722,3.277,25.237,3.793
		c1.175,0.068,2.865-0.233,3.43,0.42c3.377,3.875,8.113,3.999,12.455,5.104c4.594,1.171,9.234,2.329,13.919,2.844
		c4.888,0.535,9.86,0.522,14.772,0.33c6.509-0.25,13.006-0.82,19.49-1.407c7.881-0.709,15.727-2.056,23.618-2.231
		c6.459-0.138,12.55-1.286,18.605-3.223c1.874-0.602,3.83-0.985,5.774-1.346c13.858-2.537,27.318-6.344,40.162-12.225
		c5.023-2.301,10.34-4.008,15.25-6.519c5.072-2.586,10.594-4.256,15.125-7.96c4.736-3.869,9.703-7.482,14.729-10.961
		c1.878-1.297,4.163-2.385,6.393-2.723c4.665-0.709,9.409-0.932,14.134-1.224c6.917-0.425,13.848-1.181,20.763-1.001
		c18.216,0.459,36.389-0.069,54.515-1.441c10.447-0.795,20.861-2.083,31.236-3.521c8.795-1.22,17.554-2.786,26.258-4.543
		c9.08-1.83,18.275-3.351,26.613-7.854c2.58-1.393,5.494-2.396,8.383-2.921c6.166-1.122,11.6-3.946,16.789-7.11
		c5.439-3.311,10.916-4.129,16.969-2.34c1.705,0.503,3.486,0.92,5.248,1.015c9.863,0.533,19.674,2.06,29.619,1.065
		c7.457-0.742,15.012-0.576,22.52-0.851c0.986-0.038,1.971-0.212,2.938-0.428c12.156-2.697,24.342-5.3,36.445-8.205
		c3.016-0.724,5.816-2.367,8.658-3.708c6.77-3.186,13.311-6.981,20.318-9.512c6.373-2.296,12.271-5.288,18.234-8.407
		c9.336-4.888,18.068-10.691,28.943-12.812c12.527-2.45,24.639-7.003,35.896-13.467c6.822-3.922,12.875-9.141,20.266-12.089
		c0.18-0.07,0.311-0.249,0.473-0.358c5.207-3.6,10.551-7.007,15.584-10.839c7.256-5.513,16.033-6.369,24.443-8.338
		c1.09-0.257,2.904,0.321,3.625,1.167c1.189,1.411-0.189,2.47-1.334,3.345c-0.775,0.596-1.572,1.227-2.188,1.982
		c-3.994,4.884-3.383,11.515,1.639,15.353c3.354,2.567,7.213,4.094,11.438,4.736c9.725,1.478,19.287-1.388,28.988-0.573
		c1.104,0.092,2.248-0.643,3.389-0.937c1.719-0.445,3.436-0.916,5.182-1.249c5.818-1.111,11.678-2.06,17.48-3.263
		c5.01-1.035,10.057-2.04,14.926-3.569c7.529-2.369,14.953-5.088,22.355-7.823c6.875-2.539,13.707-5.27,18.879-10.799
		c2.365-2.535,5.174-3.432,8.545-3.181C1059.219,263.897,1064.475,262.961,1069.708,261.876z"/>
</g>
</svg>
