<svg viewBox="0 0 156 156">
  <g class="cloud">
    <path class="cls-1" d="M4.74,45.09s-6.63-5.17-2.79-10.67,8.6-10.77,13.3-7.88c0,0-2.3-6.45-.3-8.45s7-9.83,14.17-5.83c0,0,2.67,1.83,2.83,2.5s.67-6,4.83-8.83,15-9.17,20.67-1.17l1.33,2.33s5.17-2.83,7.17-2.83,11,3,14.33,10.83a12.84,12.84,0,0,1,14.67,2c7.33,6.33,6.33,10.5,8,17.67,0,0,6.5-1.5,8,.33s4,8.33,4.83,8.5,18.17,2.33,18.17,2.33l17.33,1.17-3.33,1.67-10.67.5-20.83-1.83Z"/><path d="M148.29,47.6c-1-.14-1.75-.28-2.55-.36-3.72-.34-7.45-.7-11.17-1-2.2-.15-4.41-.17-6.61-.15-4.08,0-8-1-11.91-1.88a2.21,2.21,0,0,1-.91-.64.57.57,0,0,1-.1-.52,1.27,1.27,0,0,1,.53-.6,1.47,1.47,0,0,1,.84,0c.75.16,1.49.37,2.23.56A43.79,43.79,0,0,0,128,44.4c4.5.14,9,.63,13.47,1,3.82.27,7.65.52,11.47.77a11.22,11.22,0,0,1,1.72.09,1.24,1.24,0,0,1,1,1.24,1,1,0,0,1-.92.93c-2.27.38-4.53.82-6.82,1.07-3,.33-6.05,1-9.14.75a16.12,16.12,0,0,1-2.29-.21,51,51,0,0,0-9.41-1.08c-4.31-.23-8.61-.51-12.92-.69-2-.08-4,.06-6,0-1.43,0-2.86-.28-4.29-.3-5-.05-10,0-15-.08-4.79-.09-9.58-.31-14.36-.46a12.58,12.58,0,0,0-1.73,0,65.47,65.47,0,0,1-12.35,0c-2-.17-4-.13-6-.21-8.34-.33-16.67-.59-25-.61-6.42,0-12.83-.52-19.25-.81-.86,0-1.73,0-2.59-.12a24.57,24.57,0,0,1-2.82-.54,1,1,0,0,1-.84-1c0-.5.69-.88,1.37-.64,2.41.84,4.9.79,7.4.86,4.21.14,8.42.4,12.64.58s8.24.32,12.36.47q13.51.49,27,1c1.05,0,2.11-.08,3.16-.05,4.12.09,8.23.23,12.35.3,4.6.08,9.21.12,13.81.17,4,0,8.06,0,12.08.11q9.92.15,19.84.36c1.53,0,3.05.23,4.58.4a112.8,112.8,0,0,0,15.22.77,13.89,13.89,0,0,0,2-.24C147.85,48.11,148,47.9,148.29,47.6Z"/><path d="M59.19,5.42c1.62-.57,3-1,4.32-1.52A9.11,9.11,0,0,1,70,4.15a17.67,17.67,0,0,1,7.45,5.69c1,1.25,2,2.56,3.08,4l2.79-.46c3.63-.57,7.06-.19,10.13,2.06.77.56,1.67.95,2.48,1.45,4,2.46,5.86,6.18,6.32,10.72A10.78,10.78,0,0,0,104,33a6.21,6.21,0,0,0,3.08.21,5.79,5.79,0,0,1,5,2.34c1.08,1.35,2.21,2.68,2.41,4.49a3.79,3.79,0,0,1-.06,1.14c0,.14-.26.29-.42.34s-.45,0-.52-.09c-.4-.64-.75-1.32-1.14-2a29.69,29.69,0,0,0-2-3.13,4,4,0,0,0-4.12-1.43c-.93.19-1.83.53-2.76.78s-1.73-.23-1.65-1c.2-1.9-.55-3.57-1.07-5.31a10.49,10.49,0,0,1-.52-2.5c-.18-4.46-2.52-7.52-6.21-9.71-.82-.49-1.73-.84-2.55-1.32-3-1.74-6-1.59-9.15-.49-.18.06-.35.15-.53.23-2.34.93-2.3.92-3.31-1.34a17.82,17.82,0,0,0-7.65-8.3c-3.48-2-6.84-1.17-10.07.74-.41.24-.72.63-1.11.9A1.07,1.07,0,0,1,58,7.1a9.45,9.45,0,0,0-2.12-3,8.92,8.92,0,0,0-8.67-2.62A20.55,20.55,0,0,0,36.63,6.88c-1.51,1.53-2.9,3.09-2.77,5.44,0,.18,0,.46-.11.54-.28.21-.66.48-.95.43s-.71-.5-.68-.72a7.34,7.34,0,0,1,.61-2.18,17.54,17.54,0,0,1,8.49-8.26A37.24,37.24,0,0,1,46.13.48C50-.73,53.3.46,56.31,2.85,57.28,3.62,58.16,4.5,59.19,5.42Z"/><path d="M16.79,25.37c-.29,1.43-.53,1.69-1.55,1.17-1.86-1-3.49-.49-5.17.42a18.8,18.8,0,0,0-7.44,7.77,5.36,5.36,0,0,0,.22,6.22,4.75,4.75,0,0,1,.44,1,.63.63,0,0,1-1,.07C0,40-.68,37.67.76,35,3.22,30.5,6.52,26.7,11.42,24.6c.52-.23,1.06-.43,1.52-.61.56-1,.29-2,.29-2.9A7.86,7.86,0,0,1,16,15a16.31,16.31,0,0,1,8.85-4.44,6.7,6.7,0,0,1,3.39.32,3.32,3.32,0,0,1,2.17,2.49c.06.28-.16.62-.34,1.24-.48-.48-.82-.69-1-1-.71-1.58-2-1.9-3.56-1.77-4.23.37-7.34,2.61-9.72,5.94A6.44,6.44,0,0,0,14.93,23a3.48,3.48,0,0,0,1.91,2.38Z"/><path d="M44.71,7.63c-2.51,1-5,2.07-7.54,3.09a.9.9,0,0,1-.55,0,.72.72,0,0,1-.42-.32.6.6,0,0,1,0-.51,1.69,1.69,0,0,1,.62-.56C39.37,8.23,41.92,7.33,44.71,7.63Z"/><path d="M4.68,41c-.79,0-1-.34-1-.9A3.23,3.23,0,0,1,5,37.93a11,11,0,0,1,4.11-2.12c-.55,1-1.31,1.2-1.8,1.67a14.26,14.26,0,0,0-1.57,1.64A15.75,15.75,0,0,0,4.68,41Z"/><path d="M42.88,10.6c-1.35,1-2.73,1.21-3.24,2.57-.15.41-.89.68-1.42.85a1.3,1.3,0,0,1-1-.31c-.12-.09-.09-.58,0-.77C38.36,11.36,40.24,10.52,42.88,10.6Z"/><path d="M83.63,17c2.47-1.32,4.9-1,7.45-.08a28.26,28.26,0,0,1-7.13.69C83.85,17.6,83.79,17.32,83.63,17Z"/><path d="M14.24,39.07c-.33.14-.66.3-1,.43a24.55,24.55,0,0,0-5.19,2.28,1,1,0,0,1-.93-.23,1,1,0,0,1,.18-.95A12.21,12.21,0,0,1,14.24,39.07Z"/><path d="M8,30.2c1.15-1.46,2.92-2,6.63-1.75-1.84,1.22-3.9,1.24-5.66,2-.21.1-.53,0-.8-.1C8.1,30.39,8.05,30.27,8,30.2Z"/><path d="M10.2,33A35.43,35.43,0,0,0,7,34.65a26.91,26.91,0,0,0-2.54,2.08c-.77-.42-.49-.88-.27-1.26a5.28,5.28,0,0,1,3.21-2.22,23.32,23.32,0,0,1,2.74-.51Z"/><path d="M39.26,5.72a13.56,13.56,0,0,1,6.67-1.47,3.27,3.27,0,0,1-1.94,1L41.55,6A1.9,1.9,0,0,1,39.26,5.72Z"/><path d="M21.52,19.38a29.85,29.85,0,0,1-4.67,2.48.78.78,0,0,1-.72-.23.75.75,0,0,1,.11-.72A7.89,7.89,0,0,1,21.52,19.38Z"/><path d="M16.84,25.41c0-.46-.09-1.05.15-1.36a5.21,5.21,0,0,1,1.7-1.4c.86-.43,1.74-1.08,2.88-.74-.15.28-.19.49-.31.58q-1.95,1.37-3.92,2.7a2,2,0,0,1-.53.17Z"/><path d="M22.77,15.82a10.67,10.67,0,0,1-4.29,2.51c-.18,0-.46-.25-.6-.45a.53.53,0,0,1,.1-.51A7,7,0,0,1,22.77,15.82Z"/><path d="M67.55,8.18c-1.19.09-2.39.21-3.58.26-.18,0-.51-.33-.53-.53s.25-.51.46-.58A3.83,3.83,0,0,1,67.55,8.18Z"/><path d="M64.85,10.13a4.25,4.25,0,0,1-3.07.59c-.3-.08-.52-.47-.78-.72.26-.23.51-.64.78-.66A4.43,4.43,0,0,1,64.85,10.13Z"/><path d="M83.86,21.89a3.82,3.82,0,0,1-2.92.51.51.51,0,0,1-.3-.39.55.55,0,0,1,.26-.44A4.56,4.56,0,0,1,83.86,21.89Z"/><path d="M21.88,26c-.64.95-1.31,1.89-2.82,1.57C19.92,26.35,19.92,26.35,21.88,26Z"/><path d="M15,42c-2.54,1.21-3,1.28-4.29.6.12-.13.23-.35.36-.36,1.32-.09,2.64-.14,4-.2Z"/><path d="M108.14,36.83c-1.88.6-2.48.53-2.75-.18a.36.36,0,0,1,0-.27C105.78,35.79,106.29,35.85,108.14,36.83Z"/><path d="M61.91,13.55c-1.14.39-1.9.71-2.58-.09a.28.28,0,0,1,0-.27C60.11,12.45,60.81,12.92,61.91,13.55Z"/><path d="M38.81,15.72c.27.12.54.17.57.27a1,1,0,0,1-.05.72,1.06,1.06,0,0,1-.67.41,1,1,0,0,1-.67-.29c-.08-.06,0-.4.05-.5A6.19,6.19,0,0,1,38.81,15.72Z"/><path d="M106.1,39.26a2.7,2.7,0,0,1-2.39-.31C104.84,37.85,105.28,37.9,106.1,39.26Z"/><path d="M84.39,19.38c-.83.34-1.66.8-2.63.14C82.81,19,82.81,19,84.39,19.38Z"/><path d="M80.68,24l.83.66c-.16.18-.35.54-.47.52a2.8,2.8,0,0,1-.82-.44Z"/><path d="M20.68,29.19a4.51,4.51,0,0,1,1-.76c.17-.06.44.16.66.26a3.48,3.48,0,0,1-.67.78C21.51,29.55,21.19,29.35,20.68,29.19Z"/><path d="M60.75,17.2l-.39-.7a3.24,3.24,0,0,1,.88-.39c.11,0,.28.35.43.55Z"/><path d="M105.17,40.78l.37.58c-.15.09-.37.28-.45.24a2.38,2.38,0,0,1-.49-.51Z"/><path d="M15,42.06l.8-.41.09.38H15Z"/>
  </g>
</svg>
