<svg xmlns="http://www.w3.org/2000/svg" viewBox="0 0 51.33 59.64"><defs><style>.a{fill:#fff;}</style></defs><title>Asset 5</title><polygon class="a" points="25.02 14.68 11 15.29 7.18 15.82 14.86 17.52 25.26 17.44 25.02 14.68"/><path class="a" d="M24.59,19.57a5.49,5.49,0,0,0,2.49,1.5.72.72,0,0,1,.61.87,10.13,10.13,0,0,0-.06,1.29c-1.46.06-3.15-1.07-3-2a7.79,7.79,0,0,0,1.2.73,7.52,7.52,0,0,0,1.46.33c.06,0,.18-.09.22-.16a.34.34,0,0,0-.09-.26,1.92,1.92,0,0,0-.63-.2,3.13,3.13,0,0,1-2.19-1.53C24.54,20,24.59,19.84,24.59,19.57Z"/><path class="a" d="M27.3,29.25c-1-.51-2.23-.62-2.58-2l2.74.9c0,.63,0,1.38,0,2.13,0,.07-.25.24-.34.2a5.59,5.59,0,0,1-1.05-.37,3,3,0,0,1-1.3-1.34C25.65,29,26.35,29.78,27.3,29.25Z"/><path class="a" d="M24.65,18.57c.65.37,1.35.79,2.07,1.18a.37.37,0,0,0,.17.08l.48-.12c-.09-.15-.14-.34-.27-.41s-.58-.22-.85-.37a2.35,2.35,0,0,1-1.48-1.62,1.15,1.15,0,0,1,0-.29,3.44,3.44,0,0,0,2.59,1.45c.1,0,.29.17.29.26,0,.64,0,1.29,0,1.94C26.21,20.23,25.17,19.82,24.65,18.57Z"/><path class="a" d="M27.47,33.92c-1.13-.09-2.69-1.43-2.62-2.29.83.27,1.59,1,2.62.73Z"/><path class="a" d="M27.38,23.54l0,0c.09,1.25.17,1.32-1,.9a2.13,2.13,0,0,1-1.53-1.19,2.33,2.33,0,0,1-.12-.48c.89.29,1.75.55,2.61.82A.4.4,0,0,0,27.38,23.54Z"/><path class="a" d="M24.6,25.21a3.29,3.29,0,0,1,.33.14,4.42,4.42,0,0,0,2.27,1.19c.15,0,.25.24.36.37-.13.07-.29.22-.42.24a2.67,2.67,0,0,1-2.3-.92C24.66,26,24.68,25.65,24.6,25.21Z"/><path class="a" d="M24.6,29.81c.22.11.29.11.33.15a4.43,4.43,0,0,0,2.27,1.19c.15,0,.25.24.36.37-.13.07-.29.22-.42.24a2.68,2.68,0,0,1-2.3-.92C24.66,30.64,24.68,30.25,24.6,29.81Z"/><path class="a" d="M27.5,36.91a6.32,6.32,0,0,1-2.27-1.74c-.15-.2-.66-.2-.31-.73a4.06,4.06,0,0,0,2.39,1.16.49.49,0,0,1,.25.37A7.86,7.86,0,0,1,27.5,36.91Z"/><path class="a" d="M27.4,26.11a3.41,3.41,0,0,1-2.62-1.64l2.51.81C27.54,25.37,27.57,25.59,27.4,26.11Z"/><path class="a" d="M24.68,15.54c.44.4.82.77,1.24,1.11a1.45,1.45,0,0,0,.71.32,1,1,0,0,1,1,.85C26.89,18.18,24.65,16.46,24.68,15.54Z"/><path class="a" d="M25.33,15.25c.8-.26,1.33.31,2,.54.08,0,.08.42.05.63s-.27.18-.38.16A2.59,2.59,0,0,1,25.33,15.25Z"/><path class="a" d="M24.88,33.33c.83.39,1.64.73,2.43,1.12.13.07.15.36.21.55a.86.86,0,0,1-.42.07,3.15,3.15,0,0,1-2-1.43A1.2,1.2,0,0,0,24.88,33.33Z"/><path class="a" d="M24.9,35.83l1.34,1c-.35,0-.64.05-.79-.07a4.88,4.88,0,0,1-.67-.88A.3.3,0,0,0,24.9,35.83Z"/><path d="M16.2,52.19c1.15.33,2.12.62,3.12.88A18,18,0,0,0,24,53.7c1.49,0,3,0,4.48-.07.8,0,1.59-.22,2.37-.31a1.43,1.43,0,0,1,.48.15c-.13.13-.24.37-.38.39a31.86,31.86,0,0,1-3.18.35c-1.7.06-3.39.06-5.09,0a9.76,9.76,0,0,1-2.38-.36,11.6,11.6,0,0,1-3.73-1.08C16.39,52.64,16.33,52.41,16.2,52.19Z"/><path d="M13.5,52a2.54,2.54,0,0,1-1.67,1.15,12.41,12.41,0,0,1-6.26.24,6.09,6.09,0,0,1-.81-.15c-.14,0-.23-.2-.34-.31a.86.86,0,0,0,.1-.17A16.68,16.68,0,0,0,7,53.2a24.31,24.31,0,0,0,3.27-.13A4.66,4.66,0,0,0,12.93,52c.12-.11.32-.11.5-.16A1.76,1.76,0,0,0,13.5,52Z"/><path d="M40.77,9.1c-.1.24-.14.5-.25.53a1.43,1.43,0,0,1-.63-.05c0-.2.1-.41.17-.66-.46-.08-.95-.2-1.44-.27-.07,0-.25.14-.28.24s-.07.51-.12.85a4,4,0,0,1,.68-.36,1.27,1.27,0,0,1,.53,0,2.5,2.5,0,0,1-.24.48c-.43.45-.89.89-1.4,1.39-.05-.09-.24-.24-.24-.4a1.91,1.91,0,0,0-1.1-1.67c-.08,0-.12-.18-.23-.35a2.06,2.06,0,0,1,1.6.73c0-.36,0-.73-.08-1.07a.34.34,0,0,0-.25-.19l-1.9.1c.1.2.18.34.31.6-.31,0-.53,0-.74-.07s-.23-.09-.33-.07c-.36.07-.62,0-.49-.47l-8-.18a.63.63,0,0,1-.19,0c-.14-.09-.27-.2-.4-.3.13-.1.26-.27.4-.28.61,0,1.23,0,1.85,0,.81,0,1.61.13,2.42.15,1.69.06,3.38.09,5.07.13a6.45,6.45,0,0,0,.82-.08c1.49-.2,2.85.45,4.29.68.62.1,1.24.28,1.85.41a1.4,1.4,0,0,1,.41.13.64.64,0,0,1,.22.29c-.1.06-.22.17-.31.15-.49-.07-1-.18-1.48-.3Z"/><path d="M19.25,8.8a5.34,5.34,0,0,1-1,.17c-.27,0-.25-.2-.08-.38S18.8,8.35,19.25,8.8Z"/><path d="M16,9.26a1,1,0,0,1,0,.3,1.88,1.88,0,0,1-.22.31,2.31,2.31,0,0,1-.06-.33,2.12,2.12,0,0,1-.09-.48c0-.12.1-.24.16-.36A1.34,1.34,0,0,1,16,9c0,.06,0,.16,0,.25Z"/><path d="M7.19,48.14a12.57,12.57,0,0,0,1.43,0c.13,0,.3-.35.3-.51,0-.81,0-1.6,0-2.39,0-1.23,0-2.46.07-3.69,0-.17.19-.33.3-.49a1.57,1.57,0,0,1,.25.55c0,.94-.1,1.85-.11,2.79,0,1.23,0,2.46,0,3.69,0,.77,0,.77-.73.66a8.91,8.91,0,0,0-1.55,0c-.46,0-.58-.2-.55-.66a15.64,15.64,0,0,0,0-2c0-1.5-.09-3-.18-4.49-.06-1.1.15-1.32,1.21-1.21.25,0,.5,0,.73,0a2,2,0,0,1,.38.24c-.11.11-.2.29-.31.33a2.56,2.56,0,0,1-.74,0c-.63-.06-.74,0-.73.7q.08,2.39.17,4.78C7.2,47,7.19,47.57,7.19,48.14Z"/><path d="M5.19,40.84l.42-.31c.07.2.23.46.17.57a4.81,4.81,0,0,0-.18,2.57c0,1.51.09,3,.11,4.5,0,.6-.06.6-.67.53a8.63,8.63,0,0,0-1.37,0c-.37,0-.48-.2-.49-.52C3.11,46.41,3,44.65,3,42.89c0-.44,0-.88-.07-1.3,0-.75.4-1.16,1.11-1.06a3,3,0,0,0,.59,0C4.9,40.51,5.18,40.53,5.19,40.84Zm-1.6.28a6.21,6.21,0,0,0-.15,1c.06,1.63.18,3.27.25,4.9,0,1.14,0,1.14,1.09,1,.33,0,.42-.15.41-.5-.05-1.49-.07-3-.09-4.44,0-.66,0-1.34,0-2Z"/><path d="M12.87,48.58a6.66,6.66,0,0,1-.75.13c-.4,0-.83,0-1.25,0s-.61-.15-.61-.59c0-1.12,0-2.28,0-3.41s0-2.35,0-3.52c0-.53.22-.81.71-.83s1,0,1.52,0c0,.09.06.16.07.24-.17.11-.35.31-.52.31-1.27.11-1.3.09-1.31,1.41,0,1.8,0,3.59,0,5.39,0,.33.14.44.46.4s.74,0,1.22,0V44.25c0-.93,0-1.85.07-2.79,0-.17.19-.33.29-.5.06.18.22.36.22.55,0,2,0,3.91,0,5.87C13,47.75,12.92,48.12,12.87,48.58Z"/><path class="a" d="M38.19,17.43V16l.19,0c.32.42.06,1,.23,1.49l7.2-.32,0-.06a6.45,6.45,0,0,0-.77-.27c-1.28-.27-2.6-.51-3.88-.79-.88-.19-1.74-.41-2.61-.64-.22-.05-.67,0-.33-.53l-.91-.06.47.39a.57.57,0,0,0,0,.13,3.49,3.49,0,0,1-.63.1q-3.11,0-6.2-.12c-.73,0-1.45-.07-2.19-.1a4.79,4.79,0,0,0-.89.12c.06.82.15,1.62.18,2.42h1a.24.24,0,0,1,0-.27Z"/><path class="a" d="M25,37.3c-1.06,0-2.13.13-3.2.15-1.48,0-3,0-4.45,0-.53,0-1.07.07-1.6.09-.37,0-.51.22-.48.59,0,1.28.07,2.57.12,3.83,0,1.8.11,3.58.15,5.38,0,1.28.06,2.59.09,3.89a1,1,0,0,1-.15.37c-.09-.11-.25-.22-.26-.33-.07-.81-.13-1.61-.14-2.42,0-1.56,0-3.1,0-4.66s-.14-2.92-.19-4.38c0-1,0-2,0-3-.77-.4-1.19-.13-1.16.73.11,2.51.26,5,.33,7.52,0,1.43-.09,2.84-.12,4.25,0,.51,0,1-.05,1.56a4.57,4.57,0,0,1-.17.68c-.73-.48,0-1.17-.38-1.64-1.41.33-10,.22-10.68-.22.18.83-.24,1.67.44,2.35.13.13.31.22.45.35a3.92,3.92,0,0,1,.28.28c-.14.07-.31.22-.45.2a1.62,1.62,0,0,1-1.14-1.25c0-1.1,0-2.22-.09-3.32-.1-2.05-.27-4.13-.37-6.16-.07-1.45-.09-2.92-.14-4.37,0-.42.24-.46.49-.46a1.34,1.34,0,0,1-.48-.11c-.06,0-.11.09-.17.09-.86,0-1,.09-.94,1,.07,2.5.13,5,.22,7.49S1,50.58,1.07,53a1.88,1.88,0,0,0,1,1.67,20.53,20.53,0,0,0,4.36,1.41,22.61,22.61,0,0,0,4.94.66,11.58,11.58,0,0,1,1.81.42.63.63,0,0,1,.6-.72A22.19,22.19,0,0,1,16,56c1.74-.22,3.49-.42,5.26-.53,2-.11,4-.13,6-.15a59.49,59.49,0,0,1,9.71.83c.63.09,1.27.22,1.92.35.36.05.6.17.38.63a2.73,2.73,0,0,0-.06.79,27.42,27.42,0,0,0,6.41-1.12,11.74,11.74,0,0,0,2-.79,7.33,7.33,0,0,0,1.58-1.4,1.81,1.81,0,0,0,.21-1c.18-2.36.39-4.73.5-7.1.11-1.82.13-3.65.18-5.47,0-1,0-1.93-.06-2.88,0-.16-.26-.35-.44-.46s-.32,0-.49,0c-.39,0-.56.13-.53.6,0,1.82,0,3.63,0,5.47,0,1.63,0,3.27,0,4.9,0,1.21,0,2.4-.09,3.59,0,.88-.19,1.08-1,1.36-.33.13-.68.28-1,.39s-.66.11-.79-.39c.53-.16,1-.33,1.55-.47a.91.91,0,0,0,.71-1c0-2.17.07-4.33.1-6.48s0-4.26,0-6.39c0-1,0-1-.93-1.06-2.19-.16-4.39-.31-6.59-.46L37,37.5a8.07,8.07,0,0,0-.89.15v6.55q0,3.5,0,7a1.52,1.52,0,0,0,1,1.41,9.18,9.18,0,0,0,2,.65c1,.18,2.08.24,3.14.36a6.12,6.12,0,0,0,2.39.11c.07,0,.22.18.34.31-.12.07-.24.24-.36.24a14.3,14.3,0,0,1-1.76-.05c-1.1-.11-2.19-.26-3.3-.4a6.39,6.39,0,0,1-2.8-.77,2.19,2.19,0,0,1-1.17-1.91c0-2.57.1-5.12.14-7.69q.05-2.11,0-4.24a15.69,15.69,0,0,0-.22-2.28c0-.2-.25-.55-.33-.53a1,1,0,0,0-.63.39,1.43,1.43,0,0,0-.16.72c0,1.8,0,3.6,0,5.41,0,2.88-.13,5.76-.21,8.64a2.29,2.29,0,0,1-1.62,1.82c-.15,0-.32-.07-.5-.09a1.39,1.39,0,0,0-.09-.2,1.31,1.31,0,0,1,.27-.09,2.2,2.2,0,0,0,1.47-2.28c.06-2.31.1-4.64.17-7,0-1.07.12-2.13.16-3.19s0-2.11,0-3.28c-.87,0-1.66,0-2.46,0-1.23,0-2.46.09-3.7.09C26.88,37.39,25.95,37.28,25,37.3ZM11.83,53.2a12.41,12.41,0,0,1-6.26.24,6.09,6.09,0,0,1-.81-.15c-.14,0-.23-.2-.34-.31a.86.86,0,0,0,.1-.17A16.68,16.68,0,0,0,7,53.2a24.31,24.31,0,0,0,3.27-.13A4.66,4.66,0,0,0,12.93,52c.12-.11.32-.11.5-.16a2,2,0,0,0,.07.2A2.55,2.55,0,0,1,11.83,53.2Zm19,.11a1.43,1.43,0,0,1,.48.15c-.13.13-.24.37-.38.39a31.86,31.86,0,0,1-3.18.35c-1.7.06-3.39.06-5.09,0a9.76,9.76,0,0,1-2.38-.36,11.6,11.6,0,0,1-3.73-1.08c-.14-.09-.2-.31-.33-.53,1.15.33,2.12.62,3.12.88A18,18,0,0,0,24,53.7c1.49,0,3,0,4.48-.07C29.24,53.59,30,53.41,30.81,53.31Z"/><path class="a" d="M17.21,8.76c-.34.45-.7.89-1,1.36-.22.31-.36.37-.65.1a1.27,1.27,0,0,0-.43-.19,4.38,4.38,0,0,0,.06.47,6.51,6.51,0,0,1,.31,2.3,13.89,13.89,0,0,0,0,1.43l-6.39.66c-1.15.11-2.3.24-3.45.33-.76.06-1.52,0-2.29.12s-.89.12-.92-.82c0-1.23,0-2.48-.07-3.71,0-.35.07-.6.48-.67C5,9.78,7.12,9.38,9.29,9c1-.18,2.12-.23,3.23-.34,0,.17-.06.31-.11.51a4.42,4.42,0,0,0,.62.11,2.78,2.78,0,0,1,1.69.53.31.31,0,0,0,.32,0c.06-.08.05-.31,0-.34-.38-.22-.74-.43-1.14-.61a4.76,4.76,0,0,0-.61-.17,17.35,17.35,0,0,1,4.79-.52c1,0,2,0,3,0s2.24.06,3.37.06c.11,0,.21-.13.32-.2-.09-.1-.18-.27-.27-.27-.56,0-1.12,0-1.68-.05-2.3,0-4.61-.12-6.93-.13a14,14,0,0,0-1.46.33c-2,.26-3.94.47-5.92.72-1.07.14-2.14.33-3.32.51a6.83,6.83,0,0,1,.48-1,16.42,16.42,0,0,1,5.38-4.76A23.07,23.07,0,0,1,19,.9,50.51,50.51,0,0,1,24.17.64c1.41,0,2.83-.09,4.24,0,1.2.06,2.4.24,3.61.4l3.64.48a3.7,3.7,0,0,1,1,.23c2,.94,4,1.9,6,2.88.66.32,1.28.73,1.92,1.09A9.6,9.6,0,0,1,47,8a3.34,3.34,0,0,1,.75,1.92,38.65,38.65,0,0,0-4.4-.77,1.07,1.07,0,0,0-.08.24,2.91,2.91,0,0,0,.73.38c1.58.34,3.15.64,4.75,1a16.48,16.48,0,0,1,1.61.39.49.49,0,0,1,.31.35c0,1.75,0,3.5-.06,5.25a2,2,0,0,1-.06.22c-.72-.18-1.43-.37-2.16-.57-1.39-.37-2.81-.75-4.21-1.1-.17,0-.39.11-.59.18.15.11.26.29.41.35l4.22,1.1.18.09a2.21,2.21,0,0,1-1.63-.17,19.5,19.5,0,0,0-2.37-.58c-1.18-.27-2.39-.53-3.57-.79a1.06,1.06,0,0,1-.51-.27l1.1.18c.42.08.83.17,1.26.22a.84.84,0,0,0,.37-.1c-.08-.12-.15-.31-.26-.35-.49-.16-1-.27-1.52-.39-.9-.19-1.83-.4-2.73-.57-.29-.06-.32-.2-.3-.45a13.75,13.75,0,0,0,0-1.52c0-.13-.13-.26-.19-.38-.09.11-.25.22-.26.35,0,.53,0,1-.06,1.57,0,.31-.12.41-.46.39s-.87.17-1.31.18c-.6,0-1.19,0-1.8,0-1.74,0-3.48,0-5.23-.06-.61,0-1.2-.08-1.81-.1s-1.42,0-2.13,0l-2.33,0-3,0c-1.24,0-2.46,0-3.68,0a11.51,11.51,0,0,1,0-2.31A3.39,3.39,0,0,1,17.4,9.47C17.71,9.26,17.64,9,17.21,8.76Zm23.56.34.46.07c.49.11,1,.22,1.48.3.09,0,.21-.09.31-.15A.64.64,0,0,0,42.81,9a1.41,1.41,0,0,0-.41-.13c-.62-.14-1.23-.31-1.85-.41-1.43-.23-2.8-.88-4.29-.68a6.45,6.45,0,0,1-.82.08c-1.7,0-3.39-.07-5.07-.13-.81,0-1.61-.11-2.42-.15-.62,0-1.25,0-1.85,0-.14,0-.27.18-.4.28l.4.3a.63.63,0,0,0,.19,0l8,.18c-.13.51.14.53.49.47.1,0,.22,0,.33.07s.43,0,.74.07c-.13-.26-.21-.4-.31-.6l1.9-.1a.34.34,0,0,1,.25.19c0,.35.05.72.08,1.07a2.06,2.06,0,0,0-1.6-.73c.11.16.15.31.23.35a1.91,1.91,0,0,1,1.1,1.67c0,.17.18.31.24.4.51-.5,1-.94,1.4-1.39a2.47,2.47,0,0,0,.24-.48,1.29,1.29,0,0,0-.53,0,4.06,4.06,0,0,0-.68.36c0-.35.06-.61.12-.85s.21-.25.28-.24c.49.06,1,.18,1.44.27-.06.26-.12.46-.17.66a1.43,1.43,0,0,0,.63.05C40.63,9.6,40.67,9.34,40.77,9.1ZM19.25,8.8c-.45-.45-.87-.49-1.09-.21S18,9,18.24,9A5.36,5.36,0,0,0,19.25,8.8ZM16,9.26h0c0-.09,0-.19,0-.25a1.34,1.34,0,0,0-.22-.32c-.05.13-.16.24-.16.36a2.15,2.15,0,0,0,.09.48,2.46,2.46,0,0,0,.06.33A1.8,1.8,0,0,0,16,9.56,1,1,0,0,0,16,9.26Z"/><path class="a" d="M5.88,39.63a4.46,4.46,0,0,0,.65.09l6.5-.2.3,0c0,.77.09,1.56.12,2.33,0,1.34.09,2.66.1,4a9.16,9.16,0,0,1-.11,2.2c-.11.44-.45.84-.56,1.34,0,.07-.28.13-.45.13-1.21,0-2.42.07-3.61.07s-2.34,0-3.51-.07c-.73,0-1.48-.17-2.21-.22a1,1,0,0,0-.41.07c-.06-1.21-.11-2.42-.19-3.63q-.14-2.42-.3-4.84a1,1,0,0,1,1-1c.6,0,1.2,0,1.81-.07.12,0,.23-.16.35-.24-.11-.09-.22-.22-.32-.22-.94,0-1.85,0-2.84,0,0-.35,0-.84-.07-1.45.79.05,1.53.05,2.29.13,2.81.24,5.58.42,8.4.4.24,0,.54,0,.48.3,0,.13-.29.29-.44.31-2,.09-4.06.15-6.1.24a4.2,4.2,0,0,0-.82.13A1.59,1.59,0,0,0,5.88,39.63Zm1.31,8.51c0-.57,0-1.14,0-1.71Q7.11,44,7,41.65c0-.66.09-.75.73-.7a2.56,2.56,0,0,0,.74,0c.11,0,.2-.22.31-.33a2,2,0,0,0-.38-.24c-.23,0-.48,0-.73,0-1.06-.11-1.27.11-1.21,1.21.09,1.5.14,3,.18,4.49a15.27,15.27,0,0,1,0,2c0,.46.09.66.55.66a8.91,8.91,0,0,1,1.55,0c.72.11.74.11.73-.66,0-1.23,0-2.46,0-3.69,0-.94.09-1.85.11-2.79A1.57,1.57,0,0,0,9.3,41c-.11.16-.3.33-.3.49,0,1.23-.06,2.46-.07,3.69,0,.79,0,1.58,0,2.39,0,.16-.17.49-.3.51A12.8,12.8,0,0,1,7.19,48.14Zm-2-7.3c0-.31-.29-.33-.6-.33a3.13,3.13,0,0,1-.59,0c-.71-.09-1.14.31-1.11,1.06,0,.42,0,.86.07,1.3.07,1.76.14,3.52.21,5.28,0,.31.12.52.49.52a8.63,8.63,0,0,1,1.37,0c.61.07.68.07.67-.53,0-1.5-.11-3-.11-4.5a4.81,4.81,0,0,1,.18-2.57c.06-.11-.1-.36-.17-.57Zm7.68,7.74c.05-.46.12-.83.13-1.19,0-2,0-3.91,0-5.87,0-.18-.16-.36-.22-.55-.1.16-.27.33-.29.5,0,.93-.05,1.85-.07,2.79v3.87c-.48,0-.85,0-1.22,0s-.46-.07-.46-.4c0-1.8,0-3.6,0-5.39,0-1.32,0-1.3,1.31-1.41.17,0,.35-.2.52-.31,0-.08,0-.15-.07-.24-.5,0-1,0-1.52,0s-.71.29-.71.83c0,1.17,0,2.35,0,3.52s0,2.29,0,3.41c0,.44.26.57.61.59s.85,0,1.25,0A6.41,6.41,0,0,0,12.87,48.58Z"/><path class="a" d="M38.65,58.19c-.84-.15-1.67-.29-2.48-.42-1.36-.17-2.69-.37-4-.48s-2.91-.17-4.37-.2c-1.88,0-3.74-.07-5.62,0-2.1.09-4.2.33-6.29.5-.51,0-1,.13-1.51.15-.22,0-.5.05-.53-.35a.48.48,0,0,1,.46-.59c.73-.15,1.48-.24,2.22-.39a37.83,37.83,0,0,1,7.73-.57c2.3,0,4.61,0,6.91,0a21.83,21.83,0,0,1,2.17.26c1.64.24,3.27.49,4.89.7.49.05.55.33.51.72C38.71,57.75,38.68,58,38.65,58.19Z"/><path class="a" d="M38.19,58.91c-1.13.09-2.27.22-3.39.26-1.77,0-3.55,0-5.33,0-1.4,0-2.81-.05-4.21-.07-2.48-.05-5-.05-7.43-.15-1.15,0-2.3-.24-3.44-.39a4.09,4.09,0,0,1-.42-.2c.43-.07.7-.15,1-.17,2.94-.22,5.89-.51,8.83-.59,2.48-.07,5,.09,7.42.15a28.18,28.18,0,0,1,6.58.86,1.64,1.64,0,0,1,.41.13S38.19,58.85,38.19,58.91Z"/><path class="a" d="M27,23"/><path class="a" d="M18.27,14.65h3.12v.17H18.28C18.28,14.77,18.27,14.71,18.27,14.65Z"/><path d="M51,10.75c-.69-.17-1.37-.35-2.06-.5a.76.76,0,0,1-.67-.66,4.3,4.3,0,0,0-.43-1.27,7.79,7.79,0,0,0-2.42-2.6c-1.14-.78-2.32-1.48-3.52-2.15a18.73,18.73,0,0,0-2-.91,9,9,0,0,1-1.65-.71A7.37,7.37,0,0,0,35.07.88C33.62.73,32.17.51,30.73.34A36,36,0,0,0,26.89,0c-2,0-4,.11-6,.27a25.35,25.35,0,0,0-4.5.58A20.18,20.18,0,0,0,10.75,3,16,16,0,0,0,7,5.76,10,10,0,0,0,4.57,9.34l-.38.06c-.67,0-1.31.09-2,.1-.37,0-.39.24-.39.5,0,.8,0,1.61,0,2.42,0,1,.16,2,.1,2.92,0,.54.22.68.58.73.93.13,1.88.22,2.81.31,2.14.24,4.28.45,6.42.71.69.08,1.39.27,2.09.39.44.08.89.14,1.34.18.2,0,.41-.07.63-.06.73,0,1.45,0,2.17.06l5.56.11c.22,0,.5.08.44-.27,0-.1-.3-.25-.46-.25-.48,0-1,.06-1.46,0-.31,0-.6-.16-.91-.17-.56,0-1.12,0-1.69,0H14.68c0-.4,0-.72,0-1,0-.09-.15-.18-.22-.27,0,.09-.14.18-.15.3,0,.29,0,.58,0,.87l-6-.86a.48.48,0,0,1,0-.16,15,15,0,0,1,1.48-.22c2-.13,3.92-.15,5.85-.36a24.27,24.27,0,0,1,2.81-.19c1,0,2,0,3,0,.83,0,1.66-.06,2.64-.11,0,1.3,0,2.59,0,3.87.06,2,0,4,.1,5.94l0,.23c0,1.14.09,2.29.09,3.43a2.13,2.13,0,0,0,.06.93v.55l-.07,0a.88.88,0,0,0-.13.37c.05.77.15,1.52.16,2.29,0,1.26,0,2.53,0,3.8a.54.54,0,0,1-.29.39c-.95,0-1.89.05-2.85.07s-1.86,0-2.78,0H15.43a3.64,3.64,0,0,0-.33-.66.93.93,0,0,0-1.24-.18,1.05,1.05,0,0,0-.63,1.17,5,5,0,0,1,0,.62c-1.67-.05-3.25-.07-4.83-.17-2-.13-4.06-.31-6.1-.44-.3,0-.69-.07-.67.46,0,1.45.06,2.92.14,4.37.1,2,.27,4.11.37,6.16.05,1.1,0,2.22.09,3.32A1.61,1.61,0,0,0,3.37,52.9c.14,0,.31-.13.45-.2a3.55,3.55,0,0,0-.28-.28c-.14-.13-.32-.22-.45-.35-.68-.68-.26-1.52-.44-2.35.7.44,9.26.55,10.68.22.34.46-.36,1.16.38,1.64a4.55,4.55,0,0,0,.17-.68c0-.52,0-1,.05-1.56,0-1.41.15-2.82.12-4.25-.07-2.49-.22-5-.33-7.52,0-.86.39-1.14,1.16-.73,0,1,0,2,0,3,.06,1.47.16,2.92.19,4.38s0,3.1,0,4.66c0,.81.06,1.61.14,2.42,0,.11.17.22.26.33a1,1,0,0,0,.15-.37c0-1.3,0-2.6-.09-3.89,0-1.8-.1-3.58-.15-5.37,0-1.27-.08-2.55-.12-3.83,0-.37.11-.57.48-.59.53,0,1.07-.07,1.6-.09,1.48,0,3,0,4.45,0,1.07,0,2.14-.13,3.2-.15s1.86.09,2.78.07c1.25,0,2.48-.07,3.7-.09.8,0,1.59,0,2.46,0,0,1.17,0,2.24,0,3.28s-.12,2.13-.16,3.19c-.06,2.33-.11,4.66-.17,7A2.2,2.2,0,0,1,32.17,53a1.31,1.31,0,0,0-.27.09,1.51,1.51,0,0,1,.09.2c.18,0,.35.13.5.09a2.29,2.29,0,0,0,1.62-1.82c.08-2.88.17-5.76.21-8.64,0-1.82,0-3.61,0-5.41a1.43,1.43,0,0,1,.16-.72,1,1,0,0,1,.63-.39c.08,0,.3.33.33.53a15.69,15.69,0,0,1,.22,2.28q.05,2.12,0,4.24c0,2.57-.09,5.12-.14,7.69A2.19,2.19,0,0,0,36.68,53a6.38,6.38,0,0,0,2.8.77c1.11.15,2.2.29,3.3.4a14.5,14.5,0,0,0,1.76.05c.13,0,.25-.16.36-.24-.12-.13-.27-.33-.34-.31a6.12,6.12,0,0,1-2.39-.11c-1.06-.13-2.1-.18-3.14-.36a9.13,9.13,0,0,1-2-.65,1.52,1.52,0,0,1-1-1.41q0-3.5,0-7V37.65A7.81,7.81,0,0,1,37,37.5l3.6.29c2.19.15,4.4.29,6.59.46,1,.06.94.07.93,1.06,0,2.13,0,4.24,0,6.39S48,50,48,52.18a.91.91,0,0,1-.71,1c-.52.15-1,.31-1.55.47.13.5.48.46.79.39s.68-.26,1-.39c.8-.27,1-.47,1-1.36,0-1.19.08-2.38.09-3.59,0-1.63,0-3.27,0-4.9,0-1.83,0-3.65,0-5.47,0-.47.15-.6.53-.6.16,0,.36-.06.49,0s.43.29.44.46c.06,1,.06,1.93.06,2.88,0,1.81-.06,3.65-.18,5.47-.12,2.36-.32,4.73-.5,7.1a1.81,1.81,0,0,1-.21,1A7.28,7.28,0,0,1,47.62,56a11.74,11.74,0,0,1-2,.79,27.42,27.42,0,0,1-6.41,1.12,2.76,2.76,0,0,1,.06-.79c.22-.46,0-.57-.38-.62-.64-.13-1.28-.26-1.92-.35a59.49,59.49,0,0,0-9.71-.83c-2,0-4,0-6,.15-1.76.11-3.51.31-5.26.53a22.19,22.19,0,0,0-2.2.48.63.63,0,0,0-.6.72,11.69,11.69,0,0,0-1.81-.42,22.62,22.62,0,0,1-4.94-.66,20.53,20.53,0,0,1-4.36-1.41,1.88,1.88,0,0,1-1-1.67C1,50.59.84,48.18.76,45.78s-.15-5-.22-7.49c0-.88.07-1,.94-1,.12,0,.25-.13.36-.2a1.45,1.45,0,0,0-.31-.39c-.1-.07-.25,0-.39,0-.55.06-1.15.57-1.13,1,.08,1.19.17,2.4.22,3.61.06,1.61.07,3.23.12,4.84q.14,3.72.3,7.43a1.13,1.13,0,0,0,.18.66,5.37,5.37,0,0,0,2.12,1.39c1.33.35,2.65.72,4,1s2.42.46,3.64.68c.89.17,1.81.33,2.74.48-.13.73.18,1.19.82,1.28a32.66,32.66,0,0,0,3.54.36c3,.09,6,.09,9.05.13,2.05,0,4.11.09,6.15.05,1.75,0,3.49-.13,5.23-.24.59,0,1.2-.15,1.26-1,1.43-.18,2.83-.29,4.2-.55,1.14-.22,2.23-.64,3.34-1a5.28,5.28,0,0,0,2.55-1.69,2.09,2.09,0,0,0,.48-.94,26.21,26.21,0,0,0,.29-2.8c.11-2,.21-4,.27-6,.05-2.48.07-4.93.08-7.39a1,1,0,0,0-.17-.6,1.45,1.45,0,0,0-2.06,0,.69.69,0,0,1-.83.29,3.82,3.82,0,0,0-.49-.05l-4.87-.33-2.35-.17c-1-.07-1.95-.15-2.92-.2a7.57,7.57,0,0,0-.9,0c0-.53-.18-1.1-.82-1.21a1.37,1.37,0,0,0-1.29.81.43.43,0,0,1-.34.18l-1.86,0-3.07.05c-.34,0-.55-.11-.48-.55s0-.71,0-1.06.1-.57.14-.86a8.24,8.24,0,0,1-.2-.82c0-2,0-4,0-6.05l.06-3.37c0-2,0-4,0-6,0-1-.13-1.91-.21-2.89a4.79,4.79,0,0,1,.89-.12c.74,0,1.47.08,2.19.1q3.1.08,6.2.12a3.33,3.33,0,0,0,.63-.1.57.57,0,0,1,0-.13l-.47-.39.91.06c-.34.49.11.48.33.53.86.23,1.73.45,2.61.64,1.28.28,2.6.52,3.88.79a6.57,6.57,0,0,1,.77.27l0,.06-7.2.32c-.16-.51.09-1.06-.23-1.49l-.19,0v1.45H29c-.13.32.1.39.39.39l2.68,0,5,0c.6,0,1.17.07,1.76,0,.92,0,1.83-.18,2.73-.21q3-.15,6-.22c1,0,2,0,3,0a.49.49,0,0,0,.53-.53c0-1.67,0-3.35,0-5a1.61,1.61,0,0,1,.11-.64C51.4,11,51.28,10.82,51,10.75ZM13.45,48.07c-.11.44-.45.84-.56,1.34,0,.07-.28.13-.45.13-1.21,0-2.42.07-3.61.07s-2.34,0-3.51-.07c-.73,0-1.48-.17-2.21-.22a1,1,0,0,0-.41.07c-.06-1.21-.11-2.42-.19-3.63q-.14-2.42-.3-4.84a1,1,0,0,1,1-1c.6,0,1.2,0,1.81-.07.12,0,.23-.16.35-.24-.11-.09-.22-.22-.32-.22-.94,0-1.85,0-2.84,0,0-.35,0-.84-.07-1.45.79.05,1.53.05,2.29.13,2.81.24,5.58.42,8.4.4.24,0,.54,0,.48.3,0,.13-.29.29-.44.31-2,.09-4.06.15-6.1.24a4.2,4.2,0,0,0-.82.13,1.71,1.71,0,0,0,0,.26,4.46,4.46,0,0,0,.65.09l6.5-.2.3,0c0,.77.09,1.56.12,2.33,0,1.34.09,2.66.1,4A9.21,9.21,0,0,1,13.45,48.07ZM38.19,58.91c-1.13.09-2.27.22-3.39.26-1.77,0-3.55,0-5.33,0-1.4,0-2.81-.05-4.21-.07-2.48-.05-5-.05-7.43-.15-1.15,0-2.3-.24-3.44-.39a4.09,4.09,0,0,1-.42-.2c.43-.07.7-.15,1-.17,2.94-.22,5.89-.51,8.83-.59,2.48-.07,5,.09,7.42.15a28.18,28.18,0,0,1,6.58.86,1.64,1.64,0,0,1,.41.13S38.19,58.85,38.19,58.91Zm.53-1.36c0,.2,0,.4-.07.64-.84-.15-1.67-.29-2.48-.42-1.36-.17-2.69-.37-4-.48s-2.91-.17-4.37-.2c-1.88,0-3.74-.07-5.62,0-2.1.09-4.2.33-6.29.5-.51,0-1,.13-1.51.15-.22,0-.5.05-.53-.35a.48.48,0,0,1,.46-.59c.73-.15,1.48-.24,2.22-.39a37.83,37.83,0,0,1,7.73-.57c2.3,0,4.61,0,6.91,0a21.83,21.83,0,0,1,2.17.26c1.64.24,3.27.49,4.89.7C38.7,56.89,38.76,57.17,38.73,57.55ZM5.58,15.79l1.64-.18A1.38,1.38,0,0,1,5.58,15.79Zm8.88-.72c0-.07,0-.14,0-.22l1.34-.14c0,.05,0,.11,0,.17Zm6.93-.25H18.28c0-.06,0-.11,0-.17h3.12Zm4.06,22a4.88,4.88,0,0,1-.67-.88.3.3,0,0,0,.12-.09l1.34,1C25.89,36.86,25.6,36.93,25.45,36.8Zm2,.11a6.32,6.32,0,0,1-2.27-1.74l-.08-.08-.05,0L25,35,24.94,35l0,0a.29.29,0,0,1-.08-.09h0c0-.09,0-.21.09-.41a2.61,2.61,0,0,0,.45.41,4.06,4.06,0,0,0,1.41.61l.06,0,.47.11a.49.49,0,0,1,.25.37A7.86,7.86,0,0,1,27.5,36.91Zm-2.37-3.27a1.17,1.17,0,0,0-.25-.31c.83.39,1.64.73,2.43,1.12.1.05.13.23.17.39h0a1.43,1.43,0,0,0,0,.15.86.86,0,0,1-.42.07l-.57-.23h0A2.55,2.55,0,0,1,25.12,33.65Zm2.35.27c-1.13-.09-2.69-1.43-2.62-2.29.83.27,1.59,1,2.62.73Zm-.33-2.17a2.68,2.68,0,0,1-2.3-.92c-.17-.2-.16-.59-.24-1,.22.11.29.11.33.15a4.43,4.43,0,0,0,2.27,1.19c.15,0,.25.24.36.37A1.49,1.49,0,0,1,27.14,31.75Zm-2.42-4.55,2.74.9c0,.63,0,1.38,0,2.13,0,.07-.25.24-.34.2a5.59,5.59,0,0,1-1.05-.37,3,3,0,0,1-1.3-1.34c.89.27,1.6,1,2.54.51C26.33,28.73,25.07,28.62,24.72,27.21Zm2.42-.06a2.67,2.67,0,0,1-2.3-.92c-.17-.2-.16-.59-.24-1a3.29,3.29,0,0,1,.33.14,4.42,4.42,0,0,0,2.27,1.19c.15,0,.25.24.36.37A1.49,1.49,0,0,1,27.14,27.15Zm-.75-2.68a2.13,2.13,0,0,1-1.53-1.19,2.33,2.33,0,0,1-.12-.48c.89.29,1.75.55,2.61.82a.39.39,0,0,0,0-.09l0,0C27.5,24.82,27.58,24.9,26.39,24.47Zm1,1.63a3.41,3.41,0,0,1-2.62-1.64l2.51.81C27.54,25.37,27.57,25.59,27.4,26.11Zm.23-2.88a3.17,3.17,0,0,1-.78-.07h0L26.41,23h0a3.78,3.78,0,0,1-.78-.38l0,0-.31-.23,0,0A2.47,2.47,0,0,1,25,22.1h0a1.7,1.7,0,0,1-.18-.26l0,0a1.12,1.12,0,0,1-.1-.26.45.45,0,0,1,0-.05.84.84,0,0,1,0-.27,7.79,7.79,0,0,0,1.2.73,7.52,7.52,0,0,0,1.46.33c.06,0,.18-.09.22-.16a.34.34,0,0,0-.09-.26,1.92,1.92,0,0,0-.63-.2,3.13,3.13,0,0,1-2.19-1.53c-.06-.08,0-.27,0-.55a5.49,5.49,0,0,0,2.49,1.5.72.72,0,0,1,.61.87,5.51,5.51,0,0,0-.05.64c0,.19,0,.38,0,.57C27.63,23.17,27.63,23.2,27.63,23.23Zm-1.71-6.58a1.45,1.45,0,0,0,.71.32,1,1,0,0,1,1,.85c-.71.36-3-1.35-2.92-2.27C25.12,15.93,25.5,16.31,25.92,16.65Zm-.59-1.4c.8-.26,1.33.31,2,.54.08,0,.08.42.05.63s-.27.18-.38.16A2.59,2.59,0,0,1,25.33,15.25ZM27.1,19.3c-.27-.16-.58-.22-.85-.37a2.35,2.35,0,0,1-1.48-1.62,1.15,1.15,0,0,1,0-.29,3.44,3.44,0,0,0,2.59,1.45c.1,0,.29.17.29.26,0,.64,0,1.29,0,1.94-1.46-.42-2.49-.83-3-2.09.65.37,1.35.79,2.07,1.18a.37.37,0,0,0,.17.08l.48-.12C27.28,19.57,27.23,19.37,27.1,19.3Zm23.5-2.57a2,2,0,0,1-.06.22c-.72-.18-1.43-.37-2.16-.57-1.39-.37-2.81-.75-4.21-1.1-.17,0-.39.11-.59.18.15.11.26.29.41.35l4.22,1.1.18.09a2.21,2.21,0,0,1-1.63-.17,19.5,19.5,0,0,0-2.37-.58c-1.18-.27-2.39-.53-3.57-.79a1.06,1.06,0,0,1-.51-.27l1.1.18c.42.08.83.17,1.26.22a.84.84,0,0,0,.37-.1c-.08-.12-.15-.31-.26-.35-.49-.16-1-.27-1.52-.39-.9-.19-1.83-.4-2.73-.57-.29-.06-.32-.2-.3-.45a13.75,13.75,0,0,0,0-1.52c0-.13-.13-.26-.19-.38-.09.11-.25.22-.26.35,0,.53,0,1-.06,1.57,0,.31-.12.41-.46.39s-.87.17-1.31.18c-.6,0-1.19,0-1.8,0-1.74,0-3.48,0-5.23-.06-.61,0-1.2-.08-1.81-.1s-1.42,0-2.13,0l-2.33,0-3,0c-1.24,0-2.46,0-3.68,0a11.51,11.51,0,0,1,0-2.31A3.39,3.39,0,0,1,17.4,9.47c.31-.2.24-.43-.19-.71-.34.45-.7.89-1,1.36-.22.31-.36.37-.65.1a1.27,1.27,0,0,0-.43-.19,4.38,4.38,0,0,0,.06.47,6.51,6.51,0,0,1,.31,2.3,13.89,13.89,0,0,0,0,1.43l-6.39.66c-1.15.11-2.3.24-3.45.33-.76.06-1.52,0-2.29.12s-.89.12-.92-.82c0-1.23,0-2.48-.07-3.71,0-.35.07-.6.48-.67C5,9.78,7.12,9.38,9.29,9c1-.18,2.12-.23,3.23-.34,0,.17-.06.31-.11.51a4.42,4.42,0,0,0,.62.11,2.78,2.78,0,0,1,1.69.53.31.31,0,0,0,.32,0c.06-.08.05-.31,0-.34-.38-.22-.74-.43-1.14-.61a4.76,4.76,0,0,0-.61-.17,17.35,17.35,0,0,1,4.79-.52c1,0,2,0,3,0s2.24.06,3.37.06c.11,0,.21-.13.32-.2-.09-.1-.18-.27-.27-.27-.56,0-1.12,0-1.68-.05-2.3,0-4.61-.12-6.93-.13a14,14,0,0,0-1.46.33c-2,.26-3.94.47-5.92.72-1.07.14-2.14.33-3.32.51a6.83,6.83,0,0,1,.48-1,16.42,16.42,0,0,1,5.38-4.76A23.07,23.07,0,0,1,19,.9,50.51,50.51,0,0,1,24.17.65c1.41,0,2.83-.09,4.24,0,1.2.06,2.4.24,3.61.4l3.64.48a3.7,3.7,0,0,1,1,.23c2,.94,4,1.9,6,2.88.66.32,1.28.73,1.92,1.09A9.6,9.6,0,0,1,47,8a3.34,3.34,0,0,1,.75,1.92,38.65,38.65,0,0,0-4.4-.77,1.07,1.07,0,0,0-.08.24,2.91,2.91,0,0,0,.73.38c1.58.34,3.15.64,4.75,1a16.48,16.48,0,0,1,1.61.39.49.49,0,0,1,.31.35C50.64,13.24,50.62,15,50.6,16.73Z"/><path class="a" d="M7.21,15.6a1.38,1.38,0,0,1-1.64.18Z"/><path class="a" d="M15.78,14.88l-1.32.19c0-.07,0-.14,0-.22l1.34-.14C15.77,14.77,15.78,14.82,15.78,14.88Z"/><path class="a" d="M3.59,41.11h1.5c0,.7,0,1.38,0,2,0,1.49,0,3,.09,4.44,0,.35-.08.48-.41.5-1.08.11-1.06.11-1.09-1-.06-1.63-.18-3.27-.25-4.9A6.21,6.21,0,0,1,3.59,41.11Z"/></svg>