<svg xmlns="http://www.w3.org/2000/svg" viewBox="0 0 17.95 22.68"><defs><style>.a,.d{fill:#fff;}.a,.b,.c{stroke:#000;stroke-miterlimit:10;}.a,.c{stroke-width:0.28px;}.b,.c{fill:none;}.b{stroke-width:0.55px;}</style></defs><title>pod</title><path class="a" d="M9.72,1.05a.86.86,0,0,1-.8.91.86.86,0,0,1-.8-.91.86.86,0,0,1,.8-.91A.86.86,0,0,1,9.72,1.05Z"/><line class="b" x1="8.51" y1="5.49" x2="8.51" y2="17.1"/><line class="c" x1="9.43" y1="5.49" x2="9.43" y2="17.1"/><path class="d" d="M11.61,1.66A15.42,15.42,0,0,0,9,1.44C4.61,1.44,1,3.2.35,5.49H17.58c-.5-1.81-2.86-3.29-6-3.83"/><path d="M11.6,1.69c-.53,0-1.06-.11-1.59-.1s-1,0-1.58,0-1,.1-1.56.18a13,13,0,0,0-3,.84,8.57,8.57,0,0,0-1.37.71A4.4,4.4,0,0,0,.6,5.56L.35,5.24c2.87,0,5.74.14,8.61.17,1.44,0,2.87,0,4.31-.05s2.87-.09,4.31-.09l-.22.29A3.83,3.83,0,0,0,17,4.77l-.25-.36a3,3,0,0,0-.3-.33,3.68,3.68,0,0,0-.67-.59A5.41,5.41,0,0,0,15,3a5.22,5.22,0,0,0-.81-.42,6.6,6.6,0,0,0-.85-.35,9.16,9.16,0,0,0-.87-.3l-.9-.24V1.64l.92.15a9.27,9.27,0,0,1,.91.21,6.14,6.14,0,0,1,.89.3,5.36,5.36,0,0,1,.86.39,4.42,4.42,0,0,1,.82.49,4,4,0,0,1,.74.61,3.26,3.26,0,0,1,.34.35l.29.4a4.23,4.23,0,0,1,.43.89l.14.29h-.36c-1.44,0-2.87,0-4.31-.09S10.4,5.56,9,5.58c-2.87,0-5.74.16-8.61.17H0l.11-.33A3.84,3.84,0,0,1,.94,3.94,5.9,5.9,0,0,1,2.22,2.88a9.72,9.72,0,0,1,3-1.22,14,14,0,0,1,1.59-.28A13,13,0,0,1,8.43,1.3,15.42,15.42,0,0,1,10,1.38c.53,0,1,.17,1.57.25Z"/><path class="d" d="M11.37,14.12H.81v3.69c0,2.64,3.65,4.78,8.16,4.78s8.15-2.14,8.15-4.78V14.12H11.37"/><path d="M11.37,14.14q-2.64.12-5.28.17c-1.76,0-3.52.07-5.28.07l.26-.26v3.51a3,3,0,0,0,.36,1.56,4.3,4.3,0,0,0,1.08,1.25,7.32,7.32,0,0,0,1.43.92,9.9,9.9,0,0,0,1.6.62A12.7,12.7,0,0,0,9,22.5a15.23,15.23,0,0,0,1.74-.1,11.22,11.22,0,0,0,1.7-.36,8.11,8.11,0,0,0,3-1.56,4.46,4.46,0,0,0,1.07-1.28,3.06,3.06,0,0,0,.37-1.58c0-1.17,0-2.34,0-3.51l.2.2q-2.88,0-5.76-.17v-.05q2.88-.14,5.76-.17h.2v.2c0,1.17,0,2.34,0,3.51a3.54,3.54,0,0,1-.45,1.79,4.58,4.58,0,0,1-1.23,1.34,7.51,7.51,0,0,1-1.54.9,12,12,0,0,1-1.67.58A14.7,14.7,0,0,1,9,22.68,17.35,17.35,0,0,1,7.2,22.6a12.49,12.49,0,0,1-1.74-.31,10.43,10.43,0,0,1-1.69-.58,7.46,7.46,0,0,1-1.55-.92A4.77,4.77,0,0,1,1,19.42a3.39,3.39,0,0,1-.35-.89,3.51,3.51,0,0,1-.11-.92V13.85H.81c1.76,0,3.52,0,5.28.07s3.52.09,5.28.17v.05Z"/><path class="d" d="M4.87,2.56a4.74,4.74,0,0,1,1.2-.17"/><path d="M4.82,2.39l.19,0a2.22,2.22,0,0,1,.43,0h.62a0,0,0,0,1,0,0,0,0,0,0,1,0,0h0l-.59.13a3.55,3.55,0,0,0-.57.17.17.17,0,0,1-.08-.33Z"/><path class="d" d="M3,3.59A10.84,10.84,0,0,1,5.5,3"/><path d="M2.93,3.42a11.6,11.6,0,0,1,1.27-.3A5.56,5.56,0,0,1,5.09,3l.4,0a0,0,0,0,1,0,0,0,0,0,0,1,0,0h0l-.39.07a5.4,5.4,0,0,0-.85.2A11.27,11.27,0,0,0,3,3.75a.17.17,0,0,1-.13-.32h0Z"/><path class="d" d="M1.9,4.61A7.3,7.3,0,0,1,4,4"/><path d="M1.84,4.46a6.6,6.6,0,0,1,1.08-.3A5.21,5.21,0,0,1,3.67,4L4,4A0,0,0,0,1,4,4a0,0,0,0,1,0,0H4l-.33.08a5,5,0,0,0-.72.2,6.43,6.43,0,0,0-1,.41.17.17,0,0,1-.16-.3h0Z"/><path d="M1.92,16.07c-.13,0-.23-.13-.33,0l0,0c-.09.05-.25.09-.18.22a.47.47,0,0,0,.3.23q1.15.16,2.31.27a3.06,3.06,0,0,0,.58,0,.56.56,0,0,0,0-.06c-.36,0-.72,0-1.07-.09s-.66-.12-1-.19l-.63-.14a.68.68,0,0,1-.17-.11l.16-.1Z"/><path d="M4.85,15.71a3.3,3.3,0,0,1-.45.1c-.33,0-.65,0-1,0a4.34,4.34,0,0,1-1.18-.11c-.18-.05-.36-.14-.55-.18a.69.69,0,0,0-.31,0s0,.12,0,.14a.5.5,0,0,0,.23.14A8.32,8.32,0,0,0,3.82,16a7.55,7.55,0,0,0,.79-.14,1.45,1.45,0,0,0,.25-.11Z"/><path d="M4.72,14.92c-.23,0-.45.07-.67.08a5.56,5.56,0,0,1-1.86-.12,4.12,4.12,0,0,1-.65-.27s-.11,0-.17,0,0,.12,0,.14a2.65,2.65,0,0,0,.71.32,6.37,6.37,0,0,0,1.93,0A4.53,4.53,0,0,0,4.73,15Z"/><path d="M4.59,18.57a6.11,6.11,0,0,1-2-.21A1,1,0,0,1,1.89,18s-.13,0-.19,0a1.41,1.41,0,0,0,0,.26.42.42,0,0,0,.08.13A5.4,5.4,0,0,0,4.59,18.57Z"/><path d="M1.88,19a2.92,2.92,0,0,0,2.68.53l-.66-.05a5.35,5.35,0,0,1-.6-.09,3.72,3.72,0,0,1-1.16-.45C2,18.84,1.94,18.82,1.88,19Z"/><path d="M4.4,17.74l-.55-.05c-.39-.06-.79-.12-1.18-.21s-.48-.18-.72-.26a1,1,0,0,0-.3,0s-.06.07,0,.08.09.17.15.19a7.14,7.14,0,0,0,1.36.29,7.33,7.33,0,0,0,1.27,0A.32.32,0,0,0,4.4,17.74Z"/><path d="M6.34,21.48c-.4,0-.73-.3-1.16-.27,0-.11-.15-.15-.31-.16s-.2-.09-.31-.12a2.74,2.74,0,0,0-.43-.08s-.07.05-.11.08a.58.58,0,0,0,.08.1l.12.09c.05,0,.11.09.16.09.41,0,.77.23,1.17.26.21,0,.42.06.63.09h.14S6.34,21.5,6.34,21.48Z"/><path d="M2.53,20.12a5,5,0,0,0,2.64.35s0,0,0-.07H5.05l-1.24-.1-.46-.06A1.09,1.09,0,0,1,2.82,20C2.63,19.85,2.57,19.88,2.53,20.12Z"/></svg>