<svg xmlns="http://www.w3.org/2000/svg" viewBox="0 0 220 220">
  <g class="cloud">
    <path d="M1.84,51.79C-.27,49.63-.18,47,.25,44.3a4,4,0,0,1,2.63-2.85L6.71,39.7c.34-.84-.4-1.07-.66-1.52a7.18,7.18,0,0,1-.76-4.46A3.83,3.83,0,0,1,6.17,32,27.16,27.16,0,0,1,17,23.79a9.12,9.12,0,0,1,4.79-5.94c2.38-1.38,5-1.89,7.77-.4,2.13-5.55,5.61-8.69,11.76-7.72.43-.64.85-1.27,1.29-1.89C45.94,3.14,50.71.93,56.22.1a10.86,10.86,0,0,1,5.92.9,18.72,18.72,0,0,1,10.14,9.33,19.7,19.7,0,0,0,1.07,1.77,7.56,7.56,0,0,0,1.7-.42c4.6-2.45,8.77-1.07,12.72,1.52A12.24,12.24,0,0,1,93,21.5c.09.47.15.94.24,1.41a1.26,1.26,0,0,0,.13.27c.6.66,1.41.39,2.15.45a36.2,36.2,0,0,1,6,.53c6,1.51,10,5,11.19,11.36a10.94,10.94,0,0,0,.73,1.88c.8-.22,1.45-.36,2.07-.58,4.48-1.61,9.32-.37,12.81,4a4.63,4.63,0,0,1,.48.72,2.62,2.62,0,0,0,2.08,1.37c1.33.2,2.66.34,4,.51,3.61.47,7.23.89,10.87,1.06,5.56.25,11.11.65,16.65,1.09,6.69.54,13.38,1.11,20.05,1.83,4.86.52,9.69,1.3,14.54,2l4.28.57c1.41.19,2.83.19,4.09,1.12a4.39,4.39,0,0,0,2.23.33c2.49.11,5,.17,7.47.27a2,2,0,0,1,.83.18.92.92,0,0,1,.54,1.17,1.12,1.12,0,0,1-.84.59c-1.82-.1-3.63-.4-5.44-.43-8-.1-15.91-.58-23.86-1.07-3.25-.2-6.52-.18-9.78-.2q-13.1-.1-26.2-.14c-8.83,0-17.65,0-26.48,0-2.4,0-4.79-.26-7.19-.32-7.39-.21-14.77-.32-22.15-.59-5-.18-10-.6-14.93-.87-2.78-.15-5.56-.28-8.34-.3-5.18,0-10.36,0-15.54,0-4.7,0-9.4.1-14.1.13-6.81,0-13.59.51-20.39.82-5.17.23-10.36.16-15.54.19C3.54,50.83,3.54,50.79,1.84,51.79ZM46.78,5.87l0,0c-1.09.77-2.18,1.54-2.46,3.1,2.61,1.06,5.35.52,8,1-.1.23-.12.37-.18.39a18,18,0,0,1-6.22.81,7.27,7.27,0,0,1-1.86-.61,4.34,4.34,0,0,0-.76-.11L42,12.11c-3.39-1.88-6-.48-8.32,1.84A5.57,5.57,0,0,0,32,16.89a1.79,1.79,0,0,0,.59,2c.45,0,1.12,0,1.77,0s1.32-.08,1.7.53c-.09.23-.1.38-.15.39L31.54,21a8.81,8.81,0,0,1-1-.72c-3-2.95-5.21-2.49-8.55-.57a5.24,5.24,0,0,0-.71.49c-1.58,1.3-2.71,2.76-1.75,5,.05.12-.13.33-.26.65a2.63,2.63,0,0,1-1,.1,4.8,4.8,0,0,0-4.35.94,69.69,69.69,0,0,0-5.53,4.58c-1.9,1.74-1.8,3.89-.82,6.08.19.43.51.81.74,1.23a2.35,2.35,0,0,1,0,2.31c-.46.15-1,.28-1.54.49-1.24.51-2.49,1-3.67,1.61a3.51,3.51,0,0,0-1.78,3.65,1.89,1.89,0,0,0,1.68,2,19.18,19.18,0,0,0,2.57.28c5.08.31,10.16-.05,15.23-.07,4.59,0,9.19-.1,13.78-.4,5.26-.34,10.55.06,15.8-.6a10.89,10.89,0,0,1,2,.11c.57,0,1.14.11,1.71.1L69.08,48l.29,0c2.58.1,5.17.18,7.76.3,5.26.26,10.56-.06,15.77,1.08a8.66,8.66,0,0,0,1.44,0c7.85.35,15.71.1,23.56.58,5.06.31,10.14.26,15.22.28,4.2,0,8.4.17,12.61,0a146.24,146.24,0,0,1,19,.24c1.23.11,2.49,0,3.73,0,3.92,0,7.85,0,11.77,0,4.11,0,8.22.17,12.57.26-.36-.32-.48-.51-.61-.52-3-.44-6.06-1-9.11-1.27-5-.51-9.94-.81-14.9-1.31-7.35-.73-14.71-1.32-22.09-1.57-1.63-.06-3.26-.15-4.88-.28-3.25-.27-6.49-.58-9.74-.87-.76-.07-1.53-.11-2.29-.22a2.06,2.06,0,0,1-1.89-1.51,5.53,5.53,0,0,0-1-2c-2.52-2.8-6.85-4.88-11.42-2.3-.58.33-1.14.71-1.73,1a1,1,0,0,1-1.39-.66c-.2-.93-.33-1.89-.43-2.83a11.38,11.38,0,0,0-6.6-9.48c-3.72-1.84-7.6-2.59-11.63-.75-1.29.59-2,.06-2.06-1.36,0-.76.11-1.53.11-2.3a9.1,9.1,0,0,0-2.85-7,12.91,12.91,0,0,0-7.2-3.35C79.56,12,78,12,76.81,13.3l.05,0c-1,.45-2.1.88-3.13,1.36s-1.74.32-2.12-.94c-.28-.91-.5-1.84-.82-2.74A11.45,11.45,0,0,0,68,6.63a18.83,18.83,0,0,0-6.94-4.45,8.89,8.89,0,0,0-3.63-.64A17.39,17.39,0,0,0,46.78,5.87Z"/><path class="cls-1" d="M76.81,13.3C78,12,79.56,12,81.08,12.19a12.9,12.9,0,0,1,7.2,3.35,9.11,9.11,0,0,1,2.85,7c0,.77-.14,1.53-.11,2.3,0,1.42.77,2,2.06,1.36,4-1.84,7.91-1.1,11.63.75a11.38,11.38,0,0,1,6.6,9.48c.1,1,.23,1.9.43,2.83a1,1,0,0,0,1.39.66c.6-.3,1.15-.68,1.73-1,4.57-2.58,8.91-.51,11.42,2.3a5.55,5.55,0,0,1,1,2,2.06,2.06,0,0,0,1.89,1.51c.76.1,1.53.15,2.29.22,3.25.29,6.49.61,9.74.88,1.62.14,3.25.23,4.88.28,7.38.25,14.74.84,22.09,1.57,5,.49,9.94.8,14.9,1.31,3,.31,6.07.83,9.11,1.27.14,0,.25.21.61.52-4.35-.09-8.46-.21-12.57-.26-3.92,0-7.85,0-11.77,0-1.24,0-2.5.16-3.73,0a146.23,146.23,0,0,0-19-.24c-4.21.16-8.41,0-12.61,0-5.08,0-10.16,0-15.22-.28-7.85-.48-15.71-.23-23.56-.58a8.66,8.66,0,0,1-1.44,0c-5.2-1.13-10.51-.82-15.77-1.08-2.58-.13-5.17-.2-7.76-.3l-.29,0-14.93.24c-.57,0-1.14-.07-1.71-.1a10.9,10.9,0,0,0-2-.11c-5.25.66-10.53.27-15.8.6-4.58.29-9.18.38-13.78.4-5.08,0-10.15.38-15.23.07a19.35,19.35,0,0,1-2.57-.28,1.89,1.89,0,0,1-1.68-2,3.51,3.51,0,0,1,1.78-3.65c1.18-.62,2.43-1.1,3.67-1.61.52-.21,1.08-.35,1.54-.49a2.35,2.35,0,0,0,0-2.31c-.23-.42-.54-.8-.74-1.23-1-2.19-1.08-4.33.82-6.08A70.5,70.5,0,0,1,14,26.86a4.8,4.8,0,0,1,4.35-.94,2.61,2.61,0,0,0,1-.1c.13-.31.31-.53.26-.65-1-2.21.17-3.67,1.75-5a5.15,5.15,0,0,1,.71-.49c3.34-1.92,5.57-2.37,8.55.57a8.81,8.81,0,0,0,1,.72l4.37-1.18c.05,0,.06-.16.15-.39-.38-.61-1.09-.49-1.7-.53s-1.32,0-1.77,0a1.79,1.79,0,0,1-.59-2,5.56,5.56,0,0,1,1.71-2.94C36,11.62,38.63,10.23,42,12.11l1.29-1.66a4.34,4.34,0,0,1,.76.11,7.27,7.27,0,0,0,1.86.61,18,18,0,0,0,6.22-.81c.06,0,.08-.17.18-.39-2.6-.52-5.34,0-8-1,.28-1.57,1.37-2.34,2.46-3.1,0,.84.3,1.69,1.22,1.65a25.88,25.88,0,0,0,6.52-.71c.33-.1.73-.27.48-.88H46.79A17.41,17.41,0,0,1,57.46,1.53a8.88,8.88,0,0,1,3.63.64A18.83,18.83,0,0,1,68,6.62a11.45,11.45,0,0,1,2.76,4.31c.31.9.54,1.83.82,2.74.38,1.26.95,1.49,2.13.94s2.09-.91,3.13-1.36c-.57,1.28-.44,1.83.56,1.87a38.58,38.58,0,0,0,4-.13c.16,0,.3-.37.52-.67ZM35.25,23.73c.2-.55,1.29-.67.79-1.58-1.78,0-1.78,0-2.69,1.16l1.94.36a4.05,4.05,0,0,0,.33,1,1,1,0,0,0,1.65.07c.27-.25.21-.86-.12-.91C36.52,23.79,35.88,23.78,35.25,23.73Zm46.3-6.43a36.85,36.85,0,0,0-9.6-.44c.26.51.36,1,.56,1.05a14.46,14.46,0,0,0,3.33.51c1.7,0,3.39-.28,5.08-.47C81,17.94,81.14,17.72,81.54,17.29ZM52.44,15.14l-.07-.56c-2.46-.21-4.92-.44-7.38-.63a1.25,1.25,0,0,0-.8.22,1.22,1.22,0,0,0-.35.71.61.61,0,0,0,.28.46,1.55,1.55,0,0,0,.77.31c2.2,0,4.4,0,6.6-.11A2.92,2.92,0,0,0,52.44,15.14ZM91.06,30.33c1.56,1.27,3.3.92,4.93.87,1,0,2.25.22,3.17-.85a37.59,37.59,0,0,0-7.39-.63C91.54,29.76,91.37,30,91.06,30.33ZM51,19.21c-1.62-.74-4.53-1-5.74-.58a.57.57,0,0,0-.3.43,1.21,1.21,0,0,0,.24.74,1.26,1.26,0,0,0,.75.33,11.18,11.18,0,0,0,4.8-.5C50.91,19.61,50.95,19.36,51,19.21Zm49.05,8.32a6.34,6.34,0,0,0-5.42-.48c-.25.11-.36.54-.63,1C96.26,28.5,98.15,27.78,100.08,27.53Zm12.71,17a2.32,2.32,0,0,0,2.86.89c.89-.2,2.1-.1,2.61-1.51C116.31,43.76,114.55,43.43,112.79,44.58ZM14.08,35.85c-.11-.12-.23-.36-.34-.36-1.6,0-3.2.11-4.8.18a.33.33,0,0,0-.22.16.92.92,0,0,0-.17.49.65.65,0,0,0,.31.44C10.19,37.33,12.4,36.93,14.08,35.85Zm65-14.6c-3.5-.92-4.58-.92-6.55-.15C73.41,22.06,74.91,22.13,79.09,21.24ZM96.7,33.88a10.54,10.54,0,0,0-5.7-1c-.21,0-.39.32-.58.49.22.25.42.69.67.72A15.66,15.66,0,0,0,96.7,33.88ZM9.15,33.12c0,.75.38,1,.88.92,1.39-.23,2.78-.52,4.15-.85.18,0,.27-.41.5-.78A9.19,9.19,0,0,0,9.15,33.12Zm6.19-3a8,8,0,0,0-3.93.09c-.21.06-.5.51-.44.63.13.3.47.74.7.73A5.24,5.24,0,0,0,15.34,30.1ZM3.6,46.54c.43.36.66.72.94.76,1.65.26,2.51,0,4.1-1.35A9.63,9.63,0,0,0,3.6,46.54ZM77.88,24.74c0-.21,0-.42,0-.63-1.19-.1-2.37-.22-3.56-.27-.17,0-.48.33-.5.54a.78.78,0,0,0,.37.65A5.7,5.7,0,0,0,77.88,24.74Zm36.17,16.83c-.08.92.44,1.11,1,1.19,1.71.25,2.21.13,3.07-.76A7,7,0,0,0,114.05,41.57ZM51,22.32l-3,.16a1,1,0,0,0-.54.12,1.44,1.44,0,0,0-.42.64c0,.11.13.37.27.44C48.35,24.24,49.41,23.93,51,22.32ZM38.25,16a5.85,5.85,0,0,0-4.17-.12c-.12,0-.24.3-.25.45a.57.57,0,0,0,.23.46C35.37,17.24,36.54,16.9,38.25,16ZM8.88,43.29c-1.53-.06-2.8-.07-3.92.73.16.9.75.93,1.32.77C7.17,44.54,8.35,44.74,8.88,43.29Zm86.84-6.46a5.9,5.9,0,0,0-3.51-.55.8.8,0,0,0-.56.5.75.75,0,0,0,.37.64A4.6,4.6,0,0,0,95.72,36.83ZM56.35,3.61a5.89,5.89,0,0,0-3.57.12c-.18.08-.28.43-.31.68s.21.34.35.35A4.31,4.31,0,0,0,56.35,3.61ZM24.25,22.67a4.8,4.8,0,0,0-3.58,0c-.23.68,0,1.1.57,1.14A3.53,3.53,0,0,0,24.25,22.67ZM39.32,13a3.17,3.17,0,0,0-3-.07c-.17.08-.25.46-.26.7a.53.53,0,0,0,.32.4A3,3,0,0,0,39.32,13Zm-13,7a7.12,7.12,0,0,0-1.72-.31c-.69.13-1.54.13-1.74,1-.12.52.63.61,1.9.17A13.7,13.7,0,0,0,26.34,19.94ZM120,39.63c-1.64-.5-1.64-.51-3-.08C117.84,40.48,117.84,40.5,120,39.63Zm-1.68,6.8a2,2,0,0,0-2.19-.09.55.55,0,0,0-.2.46c0,.15.18.38.3.4C117,47.33,117.87,47.46,118.3,46.43ZM13.45,38.81a1.47,1.47,0,0,0-2.08-.16.7.7,0,0,0-.22.65.77.77,0,0,0,.66.33A12.73,12.73,0,0,0,13.45,38.81Zm80.47.63a1.13,1.13,0,0,0,1.68.18.5.5,0,0,0,0-.48A1.09,1.09,0,0,0,94.11,39C94,39,94,39.28,93.92,39.44ZM20.67,26c.07.17.12.45.22.47a6.54,6.54,0,0,0,1.38.13c.1,0,.28-.26.29-.41s-.11-.45-.22-.48A6.12,6.12,0,0,0,21,25.58C20.87,25.58,20.77,25.86,20.67,26Zm57,.88c-.07-.06-.14-.18-.19-.18a10.41,10.41,0,0,0-1.26.21.64.64,0,0,0,0,.47c.39.43.83.29,1.21,0C77.53,27.27,77.55,27,77.62,26.88Zm-62.38.53a2.54,2.54,0,0,0-.49.55c0,.09.12.39.24.42a3.31,3.31,0,0,0,1,.14c.12,0,.29-.25.31-.4a.54.54,0,0,0-.24-.42A5,5,0,0,0,15.24,27.42ZM23,28.3l-.79,1.08c.21.14.5.44.62.38a1.89,1.89,0,0,0,.73-.7C23.58,29,23.27,28.68,23,28.3ZM14.39,40.06l-.64.6c.19.17.38.48.57.48s.41-.29.62-.45Z"/><path d="M81.54,17.29c-.4.43-.51.64-.63.66-1.69.18-3.39.44-5.08.47a14.46,14.46,0,0,1-3.33-.51c-.2,0-.3-.55-.56-1.05A36.76,36.76,0,0,1,81.54,17.29Z"/><path d="M52.44,15.14a2.94,2.94,0,0,1-1,.42c-2.2.07-4.4.1-6.6.11a1.56,1.56,0,0,1-.77-.31.61.61,0,0,1-.28-.46,1.22,1.22,0,0,1,.35-.71,1.25,1.25,0,0,1,.8-.22c2.46.19,4.92.42,7.38.63Z"/><path d="M46.78,5.87h8.27c.26.62-.15.78-.48.88A25.84,25.84,0,0,1,48,7.46c-.92,0-1.2-.81-1.22-1.65Z"/><path d="M91.06,30.33c.31-.28.48-.56.71-.62a37.51,37.51,0,0,1,7.39.63c-.92,1.07-2.13.82-3.17.85C94.35,31.25,92.61,31.59,91.06,30.33Z"/><path d="M51,19.22c-.08.15-.12.39-.24.43a11.18,11.18,0,0,1-4.8.5,1.25,1.25,0,0,1-.75-.33,1.21,1.21,0,0,1-.24-.74.57.57,0,0,1,.3-.43C46.49,18.17,49.41,18.48,51,19.22Z"/><path d="M100.08,27.53c-1.93.25-3.82,1-6,.51.28-.45.38-.88.63-1A6.33,6.33,0,0,1,100.08,27.53Z"/><path d="M112.79,44.58c1.76-1.15,3.52-.82,5.47-.62-.52,1.41-1.73,1.31-2.61,1.51A2.33,2.33,0,0,1,112.79,44.58Z"/><path d="M14.08,35.85c-1.69,1.08-3.9,1.48-5.22.92a.65.65,0,0,1-.31-.44.93.93,0,0,1,.17-.49.33.33,0,0,1,.22-.16c1.6-.07,3.2-.14,4.8-.18C13.85,35.49,14,35.72,14.08,35.85Z"/><path d="M79.09,21.24c-4.18.89-5.68.82-6.55-.15C74.51,20.33,75.59,20.33,79.09,21.24Z"/><path d="M76.81,13.3l5.14,1c-.23.3-.36.65-.52.67a38.85,38.85,0,0,1-4,.13c-1,0-1.13-.59-.56-1.87Z"/><path d="M96.7,33.88a15.66,15.66,0,0,1-5.61.21c-.25,0-.45-.47-.67-.72.19-.17.36-.45.58-.49A10.53,10.53,0,0,1,96.7,33.88Z"/><path d="M9.15,33.12a9.19,9.19,0,0,1,5.54-.7c-.23.37-.33.73-.5.78-1.37.32-2.76.62-4.15.85C9.53,34.12,9.12,33.87,9.15,33.12Z"/><path d="M15.34,30.1a5.24,5.24,0,0,1-3.66,1.45c-.23,0-.57-.43-.7-.73-.06-.13.23-.57.44-.63A8,8,0,0,1,15.34,30.1Z"/><path d="M3.6,46.54a9.63,9.63,0,0,1,5-.58c-1.6,1.34-2.45,1.6-4.1,1.35C4.26,47.26,4,46.9,3.6,46.54Z"/><path d="M77.88,24.74a5.7,5.7,0,0,1-3.72.29.78.78,0,0,1-.37-.65c0-.2.33-.54.5-.54,1.19,0,2.38.17,3.56.27C77.86,24.31,77.87,24.52,77.88,24.74Z"/><path d="M114.05,41.57a7,7,0,0,1,4.11.43c-.86.89-1.36,1-3.07.76C114.49,42.68,114,42.49,114.05,41.57Z"/><path d="M51,22.32c-1.57,1.62-2.62,1.92-3.73,1.36-.14-.07-.3-.33-.27-.44a1.44,1.44,0,0,1,.42-.64,1,1,0,0,1,.54-.12Z"/><path d="M38.25,16c-1.71.93-2.88,1.27-4.19.79a.57.57,0,0,1-.23-.46c0-.16.12-.41.25-.45A5.86,5.86,0,0,1,38.25,16Z"/><path d="M8.88,43.29c-.53,1.45-1.71,1.24-2.6,1.5C5.71,45,5.13,44.93,5,44,6.08,43.22,7.36,43.23,8.88,43.29Z"/><path d="M95.72,36.83a4.6,4.6,0,0,1-3.69.59.75.75,0,0,1-.37-.64.8.8,0,0,1,.56-.5A5.9,5.9,0,0,1,95.72,36.83Z"/><path d="M56.35,3.61a4.31,4.31,0,0,1-3.53,1.15c-.14,0-.36-.25-.35-.35s.14-.6.31-.68A5.9,5.9,0,0,1,56.35,3.61Z"/><path d="M24.25,22.67a3.53,3.53,0,0,1-3,1.17c-.55,0-.79-.46-.57-1.14A4.8,4.8,0,0,1,24.25,22.67Z"/><path d="M35.29,23.68l-1.94-.36c.92-1.15.92-1.15,2.69-1.16.49.9-.59,1-.79,1.58Z"/><path d="M39.32,13a3,3,0,0,1-3,1,.53.53,0,0,1-.32-.4c0-.25.1-.62.26-.7A3.18,3.18,0,0,1,39.32,13Z"/><path d="M26.34,19.94a14,14,0,0,1-1.56.91c-1.28.45-2,.36-1.9-.17.21-.92,1.05-.92,1.74-1A7,7,0,0,1,26.34,19.94Z"/><path d="M120,39.63c-2.14.88-2.14.85-3-.08C118.34,39.12,118.34,39.13,120,39.63Z"/><path d="M118.3,46.43c-.43,1-1.28.9-2.09.77-.12,0-.28-.25-.3-.4a.56.56,0,0,1,.2-.46A2,2,0,0,1,118.3,46.43Z"/><path d="M35.25,23.73c.64,0,1.28.07,1.9.16.33.05.39.65.12.91a1,1,0,0,1-1.65-.07,4.06,4.06,0,0,1-.33-1Z"/><path d="M13.45,38.81a12.7,12.7,0,0,1-1.64.81.78.78,0,0,1-.66-.33.7.7,0,0,1,.22-.65A1.47,1.47,0,0,1,13.45,38.81Z"/><path d="M93.92,39.44c.06-.16.07-.42.18-.48a1.09,1.09,0,0,1,1.49.17.5.5,0,0,1,0,.48A1.13,1.13,0,0,1,93.92,39.44Z"/><path d="M20.67,26c.1-.15.2-.42.3-.42a6.25,6.25,0,0,1,1.36.14c.11,0,.23.32.22.48s-.18.4-.29.41a6.54,6.54,0,0,1-1.37-.13C20.79,26.46,20.74,26.17,20.67,26Z"/><path d="M77.62,26.88c-.07.16-.1.38-.22.48-.39.3-.82.45-1.21,0a.64.64,0,0,1,0-.47,10.65,10.65,0,0,1,1.26-.21C77.49,26.7,77.56,26.82,77.62,26.88Z"/><path d="M15.24,27.42a4.91,4.91,0,0,1,.86.28.54.54,0,0,1,.24.42c0,.15-.2.4-.31.4a3.28,3.28,0,0,1-1-.14c-.12,0-.28-.34-.24-.42A2.65,2.65,0,0,1,15.24,27.42Z"/><path d="M23,28.3c.29.38.61.68.57.75a1.89,1.89,0,0,1-.73.7c-.12.06-.41-.24-.62-.38Z"/><path d="M14.39,40.06l.55.63c-.21.16-.41.45-.62.45s-.38-.31-.57-.48Z"/>
  </g>
</svg>
