<?xml version="1.0" encoding="utf-8"?>
<!-- Generator: Adobe Illustrator 16.0.0, SVG Export Plug-In . SVG Version: 6.00 Build 0)  -->
<!DOCTYPE svg PUBLIC "-//W3C//DTD SVG 1.1//EN" "http://www.w3.org/Graphics/SVG/1.1/DTD/svg11.dtd">
<svg version="1.1" id="Layer_1" xmlns="http://www.w3.org/2000/svg" xmlns:xlink="http://www.w3.org/1999/xlink" x="0px" y="0px"
	 width="944.766px" height="424.203px" viewBox="0 0 944.766 424.203" enable-background="new 0 0 944.766 424.203"
	 xml:space="preserve">
<g opacity="0.8">
	<g>
		<path fill="#FFDE9C" d="M0.891,210.808c4.362-7.211,13.984-11.417,24.499-9.797c0.872,0.134,1.75,0.217,2.623,0.354
			c1.363,0.213,2.291-0.057,2.864-1.13c0.408-0.768,1-1.56,1.781-2.091c4.744-3.211,9.965-5.635,16.684-5.435
			c2.661,0.081,2.581,0.009,3.592-1.823c0.678-1.235,1.354-2.586,2.519-3.502c4.06-3.193,9.175-4.995,14.808-5.952
			c0.467-0.077,1.089,0.32,1.642,0.492c-0.188,0.219-0.364,0.443-0.549,0.661c0.67-0.239,1.189-0.727,1.276-1.495
			c0.109-1.004,0.245-1.975,0.534-2.918c-0.115,0.165-0.224,0.333-0.341,0.499c-0.491,0.706-0.651,1.611-1.947,1.92
			c-0.704-0.931-0.148-1.618,0.208-2.281c1.68-3.102,4.137-5.776,7.087-8.162c0.521-0.414,1.139-0.785,1.791-1.072
			c5.574-2.465,11.366-4.482,17.852-5.249c4.505-0.534,8.885-0.491,13.377,0.676c4.29,1.112,8.385,2.592,12.089,4.582
			c5.467,2.937,10.025,6.636,12.2,11.737c0.435,1.018,1.068,1.589,2.423,1.94c6.137,1.592,11.115,4.522,14.954,8.695
			c0.379,0.412,0.854,0.777,1.205,1.096c0.433-0.058,0.664-0.053,0.854-0.118c0.496-0.165,0.983-0.354,1.463-0.546
			c9.334-3.751,18.786-3.437,27.965,1.122c3.316,1.647,6.288,2.881,10.094,2.033c1.194-0.264,2.484-0.302,4.002-0.477
			c-0.285-1.139-0.456-1.984-0.71-2.818c-0.716-2.354-1-4.753-0.073-6.979c1.319-3.162,2.698-6.364,4.677-9.269
			c3.096-4.55,7.88-7.583,14.737-8.206c0.434-0.038,0.862-0.111,1.288-0.182c2.328-0.388,2.47-0.393,2.642-2.324
			c0.225-2.534,1.815-4.354,4.189-5.817c1.014-0.624,2.149-1.13,3.178-1.743c0.657-0.387,1.221-0.868,1.712-1.225
			c-1.066-1.494-1.683-3.073-3.011-4.02c-1.413-1.004-3.509-1.402-5.302-2.076c-0.5-0.193-1.013-0.396-1.459-0.661
			c-2.294-1.362-4.405-2.877-4.773-5.259c-0.355-2.285-0.17-4.57,1.104-6.603c1.339-2.14,2.785-4.378,5.831-5.235
			c2.53-0.708,5.225-1.355,7.904-1.416c2.742-0.061,5.049-0.607,7.452-1.475c6.203-2.234,12.582-2.261,19.082,0.218
			c2.979,1.137,5.56,2.689,7.95,4.453c1.019,0.751,1.938,1.042,3.265,0.796c4.251-0.775,8.275-0.068,12.102,1.762
			c0.92,0.438,1.912,0.784,2.39,0.982c3.097-1.934,5.594-3.842,8.508-5.227c4.811-2.285,10.12-3.824,15.599-4.992
			c6.29-1.345,12.742-1.287,19.266-0.684c3.147,0.295,3.16,0.225,3.999-2.189c1.714-4.906,4.075-9.562,7.687-13.77
			c4.807-5.597,11.349-9.484,19.324-11.844c1.77-0.525,2.68-1.186,3.14-2.511c1.104-3.194,4.069-4.886,7.811-5.919
			c0.898-0.249,1.825-0.447,2.455-0.604c0.36-1.762,0.632-3.285,0.986-4.793c0.946-4.019,4.262-6.827,7.587-9.616
			c0.946-0.792,1.862-1.677,3.024-2.227c6.724-3.177,14.063-4.751,22.137-4.27c2.617,0.157,5.039,0.609,7.251,1.35
			c-0.012-0.005-0.022-0.009-0.034-0.014c0.053-0.025,0.105-0.048,0.154-0.078c0.811-0.538,1.383-1.147,1.79-1.819
			c-0.007-0.078-0.012-0.156-0.015-0.232c-0.125-3.684,1.251-6.809,5.127-8.927c1.233-0.673,2.525-1.313,3.9-1.791
			c1.581-0.55,2.663-1.389,3.305-2.64c0.364-0.712,0.873-1.379,1.182-2.107c0.943-2.214,2.759-3.82,5.238-5.006
			c0.829-0.396,1.614-0.842,2.417-1.27c4.045-2.15,8.299-3.938,13.3-4.471c1.272-0.134,2.511-0.393,3.814-0.604
			c-0.055-0.836-0.117-1.438-0.125-2.04c-0.068-4.925,3.97-9.454,9.83-10.884c1.752-0.426,3.601-0.66,5.432-0.868
			c1.432-0.159,2.236-0.577,2.742-1.761c2.563-6.014,7.792-10.049,15.171-12.427c0.955-0.307,1.916-0.763,2.611-1.346
			c2.732-2.284,6.209-3.556,10.125-3.552c3.463,0.004,6.199-0.584,8.905-2.271c2.31-1.443,5.345-2.178,8.063-3.223
			c3.926-1.506,8.092-2.352,12.526-2.619c6.926-0.425,13.712-0.445,20.565,1.594c5.734,1.705,11.196,3.549,15.407,7.271
			c1.11,0.982,2.312,1.257,3.841,0.761c6.09-1.971,12.557-1.219,18.854-0.448c12.083,1.484,23.211,12.924,24.383,20.036
			c0.162,0.97,0.416,1.851,1.615,2.489c4.451,2.368,5.632,5.837,5.312,9.675c-0.137,1.611-0.727,3.185-1.098,4.731
			c14.756,12.102,20.395,25.808,14.068,41.933c1.575-0.317,2.793-0.6,4.035-0.803c2.019-0.325,4.031-0.789,6.086-0.856
			c6.32-0.2,12.473,0.568,18.463,2.685c8.643,3.057,17.094,6.257,23.375,12.246c4.107,3.915,8.393,7.748,10.457,12.645
			c0.951,2.254,1.548,4.588,2.321,6.883c0.423,1.243,0.878,2.479,1.23,3.479c5.036,0.176,9.657,0.146,14.239,0.562
			c2.595,0.237,4.549-0.18,6.121-1.607c2.491-2.26,5.551-3.936,8.814-5.4c1.011-0.456,2.12-0.914,3.256-1.021
			c1.471-0.146,2.303-0.711,3.08-1.602c3.32-3.807,8.076-5.088,13.939-4.492c3.476,0.353,6.674,1.385,9.819,2.545
			c6.162,2.273,11.798,5.168,15.878,9.625c1.577,1.722,2.812,3.632,4.168,5.471c2.572,3.502,3.494,7.221,3.021,11.137
			c-0.108,0.907,0.012,1.835,0.022,2.63c2.211,0.54,4.123,0.786,5.782,1.453c4.362,1.757,7.462,4.496,9.308,8.11
			c0.441,0.862,0.979,1.952,1.87,2.375c2.114,0.992,3.582,2.42,5.116,3.836c4.576,4.221,7.227,8.965,6.944,14.473
			c-0.047,0.924,0.27,1.611,1.062,2.373c1.051,1.003,1.754,2.223,2.614,3.347c0.319,0.416,0.663,0.823,1.128,1.397
			c0.621-0.515,1.106-0.838,1.482-1.232c1.969-2.039,4.637-3.24,7.728-3.964c1.04-0.245,2.075-0.507,3.085-0.812
			c4.719-1.43,9.706-1.104,14.197,0.46c6.223,2.167,11.41,5.637,14.715,10.582c1.83,2.739,2.479,5.659,2.791,8.63
			c0.117,1.113,0.439,2.074,1.619,2.775c4.314,2.568,6.186,5.997,7.293,10.085c1.236,4.552,1.043,8.517-2.145,12.382
			c-2.175,2.643-4.937,4.619-8.656,5.402c-4.064,0.848-8.373,1.074-12.572,1.592c-1.376,0.17-2.878,0.182-4.086,0.633
			c-5.259,1.979-10.638,2.312-16.255,0.465c-2.552-0.838-4.681-0.625-6.583,0.893c-2.359,1.879-5.431,2.697-8.689,3.193
			c-1.353,0.205-2.696,0.432-4.335,0.695c5.75,6.775,7.465,13.621,3.875,20.746c0.167,0.236,0.237,0.43,0.394,0.537
			c0.602,0.4,1.244,0.762,1.846,1.166c4.012,2.689,7.521,5.627,8.829,9.816c0.274,0.877,0.956,1.883,1.841,2.434
			c3.277,2.051,4.986,4.762,6.166,7.766c0.248,0.641,0.605,1.254,0.965,1.986c0.866-0.207,1.478-0.348,2.082-0.504
			c5.688-1.436,11.416-2.77,17.391-3.41c3.482-0.373,6.971-0.402,10.48,0.412c2.456,0.572,4.996,0.881,7.435,1.492
			c4.787,1.199,9.546,2.52,13.7,4.918c4.906,2.836,8.797,6.369,11.297,10.754c0.67,1.178,1.594,1.861,3.223,2.002
			c2.176,0.188,3.976,1.057,5.602,2.236c0.994,0.723,2.054,1.408,3.176,1.994c2.266,1.184,3.717,2.812,4.693,4.756
			c0.572,1.141,1.176,2.268,1.829,3.527c1.108,0,2.078,0.018,3.04-0.004c4.527-0.094,8.354,1.174,11.758,3.721
			c3.514,2.627,6.062,5.789,8.262,9.051c1.433,2.127,2.501,4.723,2.451,7.037c-0.101,4.502-1.045,8.967-3.99,12.898
			c-0.356,0.475-0.452,1.078-0.684,1.666c6.451,3.045,11.557,6.982,15.479,11.883c1.175,1.469,1.969,3.016,2.046,4.703
			c0.184,4.033-0.055,7.945-2.816,11.488c-1.092,1.402-1.543,3.064-3.881,3.604c-0.43,0.098-0.65,0.65-1.012,0.967
			c-0.862,0.754-1.65,1.588-2.645,2.221c-7.511,4.76-15.554,8.793-25.167,10.619c-1.082,0.207-1.802,0.535-2.413,1.41
			c-1.242,1.783-2.949,3.289-5.709,3.822c-0.992,0.191-2.371,0.605-2.654,1.217c-0.776,1.664-2.204,1.295-3.74,1.033
			c-1.725-0.293-3.445-0.611-5.174-0.861c-1.771-0.25-3.128,0.309-3.553,1.635c-0.352,1.1-1.342,1.678-2.146,2.457
			c-1.521,1.469-3.703,2.207-5.514,3.332c-2.574,1.594-5.384,2.787-8.312,3.863c-0.763,0.283-1.608,0.521-2.447,0.568
			c-3.481,0.193-6.973,0.301-10.459,0.447c-0.326,0.012-0.726-0.023-0.961,0.107c-1.965,1.096-3.759,0.277-5.564-0.482
			c-0.793-0.334-1.557-0.719-2.365-1.02c-3.03-1.133-4.455-0.916-6.711,0.879c-6.659,5.299-14.659,8.535-24.128,10.061
			c-6.163,0.994-12.175,2.496-18.49,3.062c-0.967,0.086-1.94,0.311-2.896,0.242c-4.722-0.324-9.435-0.75-14.154-1.102
			c-8.176-0.611-15.347-3.441-22.192-6.984c-2.049-1.061-3.926-2.693-6.117-3.119c-2.224-0.434-4.772,0.189-7.122,0.541
			c-4.457,0.668-8.899,0.795-13.401-0.188c-1.165-0.256-2.184-0.057-3.068,0.514c-0.75,0.482-1.454,1.014-2.226,1.475
			c-5.552,3.311-11.524,5.93-18.713,6.596c-0.907,0.082-2.024,0.377-2.528,0.893c-0.861,0.883-1.738,0.785-2.877,0.523
			c-1.987-0.455-3.86-0.631-5.442,0.73c-0.846,0.725-2.036,0.199-3.105-0.064c-2.116-0.527-4.237-1.254-6.384-1.418
			c-6.101-0.463-11.548-2.369-16.85-4.758c-1.461-0.654-2.964-1.27-4.498-1.807c-1.873-0.658-3.342-0.139-4.115,1.357
			c-0.157,0.299-0.252,0.617-0.402,0.986c-1.527-0.162-2.928-0.324-4.334-0.457c-1.701-0.16-2.807,0.561-3.422,1.438
			c-3.129-0.408-5.957-0.822-8.794-1.135c-5.808-0.648-11.19-2.238-16.14-4.879c-0.926-0.494-1.969-0.844-2.906-1.334
			c-1.764-0.918-3.799-1.67-5.162-2.883c-3.205-2.848-6.623-5.285-11.4-6.18c-7.457-3.43-13.926-7.398-13.62-15.07
			c0.009-0.258-0.083-0.523-0.095-0.783c-0.221-4.387,0.57-8.494,4.567-11.713c0.276-0.221,0.401-0.566,0.577-0.826
			c-0.269-0.209-0.4-0.383-0.585-0.443c-3.704-1.197-6.872-2.961-9.362-5.51c-0.68-0.693-1.578-1.285-2.479-1.809
			c-0.594-0.342-1.528-0.795-2.038-0.652c-2.256,0.635-4.541,0.088-6.804,0.055c-11.46-0.168-22.638-1.34-32.806-6.549
			c-3.04-1.555-6.215-2.951-8.042-5.543c-2.04-2.889-2.415-5.805-0.323-8.68c1.499-2.061,3.765-3.176,6.846-3.365
			c0.748-2.57,2.201-4.729,4.377-6.555c0.158-0.133,0.105-0.768,0.105-0.768c-0.981-0.104-1.836-0.193-2.641-0.281
			c-0.416-0.043-0.896,0.936-1.32,1.377c-2.334-0.795-4.463-1.557-6.623-2.25c-2.688-0.859-5.385-1.684-8.104-2.461
			c-0.903-0.26-1.912-0.5-2.828-0.451c-3.238,0.168-6.359,0.814-9.736,0.416c-2.696-0.318-5.466,0.008-8.205-0.041
			c-4.065-0.072-8.133-0.219-12.196-0.354c-3.837-0.125-7.667-0.311-11.474-0.904c-0.678-0.105-1.383-0.057-2.212-0.082
			c0.696,1.453,1.284,2.676,1.863,3.906c1.876,3.953,1.95,8.084,2.44,12.148c0.524,4.361-1.388,8.148-4.707,11.463
			c-0.863,0.869-1.913,1.66-2.527,2.633c-2.258,3.561-2.398,3.246,1.081,6.318c0.136,0.117,0.396,0.141,0.757,0.26
			c6.236-1.236,12.172-0.469,17.822,2.74c5.145,2.922,5.826,3.48,6.781,8.236c3.834,1.566,7.679,3.135,11.744,4.795
			c0.375-0.211,0.998-0.529,1.58-0.891c2.306-1.43,4.706-2.762,7.812-2.855c2.291-0.068,4.605,0.016,6.91,0.117
			c10.678,0.473,19.665,3.949,27.004,10.367c3.557,3.109,6.049,6.604,7.316,10.637c0.828,2.639,1.695,5.295,5.593,6.404
			c0.763,0.217,1.447,0.871,1.951,1.441c1.269,1.428,2.961,1.684,4.952,1.689c1.605,0,3.352,0.064,4.831,0.537
			c2.885,0.926,5.761,1.988,8.399,3.309c4.576,2.289,7.435,5.504,8.359,9.82c0.673,3.117-1.703,7.467-7.02,7.703
			c-0.646,0.027-1.262,0.262-1.908,0.338c-4.205,0.486-8.393,1.045-12.625,1.396c-2.812,0.236-5.727-0.004-8.518,0.301
			c-1.596,0.176-2.975,0.1-4.497-0.291c-1.789-0.465-3.675-1.049-5.47-1.018c-3.686,0.059-7.236-0.656-10.83-1.119
			c-2.733-0.35-5.438-0.887-7.88-2.102c-0.45-0.225-1.205-0.52-1.501-0.385c-1.672,0.777-3.148-0.021-4.738-0.297
			c-1.264-0.217-2.619-0.078-3.928-0.037c-0.756,0.023-1.503,0.279-2.245,0.229c-3.606-0.24-7.212-0.5-10.81-0.85
			c-2.736-0.264-5.496-0.523-8.18-1.047c-3.447-0.668-6.816-1.627-10.24-2.396c-0.832-0.188-1.75-0.217-2.604-0.166
			c-3.732,0.234-7.291,0.852-10.426,2.506c-0.651,0.344-1.65,0.312-2.5,0.406c-1.185,0.121-2.375,0.24-3.572,0.283
			c-1.391,0.045-2.787,0.01-4.181,0.008c0.196-0.236,0.395-0.479,0.601-0.723c-0.189-0.096-0.381-0.201-0.57-0.301
			c0.033,0.016,0.068,0.037,0.102,0.053c-0.865,0.105-1.715,0.27-2.549,0.479c-2.791-0.84-5.142-2.35-7.55-3.758
			c-2.514-1.473-5.187-3.18-7.997-5.092c0,0,0,0,0,0.004c2.81,1.908,5.481,3.615,7.997,5.088c3.048,1.783,6.011,3.752,9.884,4.283
			c-1.171,1.598-1.184,1.557-3.151,1.072c-1.479-0.361-3.015-0.83-4.502-0.838c-3.874-0.021-7.642-0.807-11.465-1.152
			c-6.183-0.564-12.129-1.951-17.918-3.883c-4.715-1.57-9.538-2.932-14.008-4.986c-0.551-0.254-1.264-0.396-1.894-0.396
			c-4.385,0.021-8.769,0.102-13.155,0.146c-0.642,0.006-1.295-0.053-1.936-0.139c-1.635-0.221-3.258-0.504-4.896-0.711
			c-2.146-0.271-4.295-0.529-6.441-0.791c-1.201-0.863-2.642-1.566-4.34-2.051c-26.846-7.654-45.356-25.982-64.871-43.217
			c1.538-4.68,4.087-9.357,7.176-13.861c5.489-8.008-2.987-18.871-14.015-16.621c-22.533,4.594-42.592-4.418-49.587-24.068
			c-2.571-7.217-14.476-12.131-21.113-5.727c-2.313,2.236-4.901,4.471-7.73,6.467c-3.171-0.91-6.433-1.646-9.802-2.166
			c-2.12-0.322-4.122-0.309-5.965-0.027c-5.538-6.574-19.109-3.992-22.093,4.055c-1.52-0.969-2.965-2.051-4.354-3.207
			c-1.999-4.494-2.377-9.541-3.34-14.195c-0.984-4.764-6.828-8.383-12.2-8.527c-5.659-0.152-11.646,0.803-16.091-3.057
			c-3.669-3.188-6.208-6.738-8.562-10.572c0.35-0.482,0.698-0.969,1.073-1.438c0.565-0.703,1.61-1.152,2.185-1.852
			c1.828-2.221,4.299-3.744,7.48-4.609c1.709-0.467,3.386-0.998,5.245-1.549c-0.342-1.414-0.784-2.857-1.032-4.312
			c-0.566-3.289-1.625-4.053-5.813-3.93c-0.865,0.025-1.702,0.248-2.566,0.322c-0.631,0.055-1.295,0.084-1.925-0.004
			c-2.056-0.285-4.102-0.645-6.158-0.941c-3.164-0.459-6.404-0.656-9.479-1.377c-9.092-2.131-17.301-5.742-24.732-10.533
			c-1.135-0.73-2.245-1.5-3.462-2.131c-2.579-1.328-3.51-1.025-4.348,1.354c-0.371,0.031-0.832,0.006-1.209,0.123
			c-1.762,0.559-3.323,0.365-4.844-0.693c-0.456-0.322-1.419-0.65-1.817-0.488c-2.146,0.863-3.919-0.172-5.864-0.66
			c-1.113-0.273-2.384-0.047-3.578-0.148c-0.934-0.078-2.123-0.072-2.736-0.512c-2.489-1.777-5.134-1.748-8.085-1.359
			c-3.74,0.492-7.547,0.908-11.357,0.949c-3.821,0.041-7.681-0.449-11.523-0.652c-2.306-0.117-4.628,0-6.92-0.221
			c-3.927-0.379-7.845-0.9-11.751-1.449c-5.454-0.756-10.892-1.619-16.346-2.373c-1.102-0.156-2.253-0.025-3.152-0.027
			c-1.802-0.773-3.462-1.49-5.127-2.197c-1.29-0.553-2.907-1.092-3.019-2.314c-0.183-2.027-1.765-2.723-3.816-3.135
			c-6.094-1.225-11.655-3.523-17.168-5.893C-0.08,215.75-0.862,213.701,0.891,210.808z"/>
	</g>
</g>
</svg>
