<?xml version="1.0" encoding="utf-8"?>
<!-- Generator: Adobe Illustrator 16.0.0, SVG Export Plug-In . SVG Version: 6.00 Build 0)  -->
<!DOCTYPE svg PUBLIC "-//W3C//DTD SVG 1.1//EN" "http://www.w3.org/Graphics/SVG/1.1/DTD/svg11.dtd">
<svg version="1.1" id="Layer_1" xmlns="http://www.w3.org/2000/svg" xmlns:xlink="http://www.w3.org/1999/xlink" x="0px" y="0px"
	 viewBox="0 0 1137.294 270.562"
	 xml:space="preserve">
<path fill="#9EC3DD" d="M1137.132,187.978c-0.136-0.928-0.794-1.766-1.73-2.551c-3.129-2.628-7.086-4.701-11.998-6.259
	c0.145-0.327,0.188-0.662,0.43-0.93c1.996-2.22,2.488-4.696,2.352-7.177c-0.068-1.276-0.979-2.686-2.136-3.83
	c-1.778-1.755-3.81-3.449-6.529-4.832c-2.634-1.34-5.522-1.966-8.866-1.831c-0.711,0.03-1.428,0.038-2.248,0.059
	c-0.541-0.681-1.039-1.291-1.516-1.909c-0.812-1.053-1.961-1.922-3.691-2.532c-0.857-0.301-1.672-0.659-2.439-1.039
	c-1.258-0.621-2.629-1.064-4.246-1.128c-1.211-0.049-1.926-0.407-2.475-1.042c-2.053-2.369-5.094-4.243-8.852-5.714
	c-3.184-1.244-6.766-1.884-10.359-2.455c-1.832-0.292-3.725-0.416-5.567-0.685c-2.632-0.384-5.212-0.303-7.769-0.034
	c-4.389,0.464-8.562,1.304-12.701,2.2c-0.44,0.096-0.887,0.187-1.518,0.317c-0.299-0.398-0.592-0.729-0.807-1.077
	c-1.011-1.634-2.398-3.093-4.918-4.163c-0.678-0.286-1.23-0.827-1.474-1.306c-1.161-2.284-3.892-3.835-6.982-5.243
	c-0.464-0.211-0.955-0.397-1.419-0.607c-0.121-0.055-0.182-0.161-0.314-0.288c2.324-3.991,0.738-7.729-3.828-11.353
	c1.201-0.177,2.184-0.326,3.174-0.464c2.387-0.333,4.621-0.84,6.277-1.919c1.338-0.871,2.902-1.028,4.828-0.612
	c4.238,0.913,8.202,0.629,12-0.556c0.871-0.272,1.98-0.307,2.99-0.425c3.08-0.363,6.256-0.566,9.225-1.11
	c2.713-0.499,4.664-1.64,6.15-3.134c2.178-2.188,2.137-4.374,1.013-6.859c-1.009-2.229-2.55-4.084-5.86-5.419
	c-0.906-0.364-1.188-0.887-1.326-1.497c-0.367-1.63-0.982-3.228-2.463-4.702c-2.672-2.662-6.67-4.477-11.371-5.554
	c-3.393-0.779-7.096-0.866-10.52,0.009c-0.732,0.186-1.486,0.35-2.242,0.503c-2.254,0.456-4.17,1.166-5.531,2.326
	c-0.262,0.223-0.604,0.411-1.04,0.706c-0.37-0.307-0.644-0.524-0.899-0.749c-0.688-0.603-1.264-1.263-2.088-1.795
	c-0.621-0.404-0.887-0.776-0.895-1.287c-0.046-3.038-2.225-5.602-5.805-7.841c-1.199-0.751-2.352-1.51-3.961-2.018
	c-0.68-0.215-1.127-0.807-1.492-1.273c-1.533-1.956-3.951-3.407-7.259-4.293c-1.257-0.337-2.683-0.437-4.343-0.693
	c-0.045-0.439-0.176-0.948-0.139-1.449c0.17-2.166-0.684-4.197-2.749-6.077c-1.087-0.988-2.089-2.017-3.335-2.936
	c-3.223-2.378-7.524-3.868-12.186-5.007c-2.381-0.58-4.794-1.089-7.379-1.219c-4.365-0.22-7.822,0.574-10.101,2.731
	c-0.532,0.506-1.122,0.831-2.202,0.938c-0.838,0.082-1.635,0.354-2.361,0.622c-2.346,0.868-4.531,1.848-6.268,3.139
	c-1.1,0.815-2.523,1.08-4.453,0.999c-3.408-0.145-6.824-0.044-10.556-0.047c-0.306-0.543-0.701-1.217-1.069-1.894
	c-0.68-1.249-1.229-2.523-2.036-3.747c-1.753-2.659-5.1-4.689-8.317-6.769c-4.922-3.183-11.32-4.788-17.853-6.311
	c-4.526-1.056-9.112-1.365-13.778-1.137c-1.515,0.074-2.982,0.368-4.461,0.584c-0.908,0.133-1.795,0.312-2.945,0.515
	c3.932-8.997-0.871-16.439-12.344-22.831c0.203-0.858,0.566-1.735,0.592-2.625c0.061-2.119-0.975-4.008-4.375-5.229
	c-0.916-0.33-1.145-0.811-1.309-1.34c-1.197-3.896-9.955-9.99-18.959-10.583c-4.691-0.308-9.509-0.602-13.92,0.596
	c-1.107,0.3-2.01,0.172-2.877-0.348c-3.285-1.972-7.408-2.886-11.729-3.719c-5.162-0.996-10.18-0.859-15.281-0.499
	c-3.268,0.23-6.307,0.772-9.143,1.674c-1.961,0.625-4.172,1.086-5.812,1.924c-1.924,0.979-3.92,1.353-6.48,1.415
	c-2.895,0.07-5.408,0.835-7.322,2.143c-0.487,0.334-1.178,0.603-1.869,0.79c-5.346,1.447-9.027,3.764-10.645,7.125
	c-0.32,0.66-0.895,0.904-1.945,1.019c-1.346,0.148-2.701,0.312-3.977,0.578c-4.268,0.896-7.044,3.465-6.766,6.176
	c0.035,0.33,0.107,0.661,0.188,1.121c-0.953,0.139-1.857,0.305-2.793,0.403c-3.674,0.385-6.736,1.448-9.628,2.707
	c-0.575,0.25-1.136,0.511-1.729,0.744c-1.779,0.698-3.047,1.617-3.641,2.853c-0.195,0.407-0.541,0.784-0.777,1.183
	c-0.418,0.7-1.179,1.182-2.322,1.514c-0.994,0.288-1.92,0.665-2.801,1.059c-2.769,1.237-3.643,2.983-3.379,5.009
	c0.006,0.043,0.014,0.085,0.021,0.128c-0.27,0.378-0.664,0.724-1.238,1.036c-0.035,0.017-0.072,0.03-0.111,0.045
	c0.01,0.002,0.018,0.004,0.027,0.006c-1.672-0.368-3.482-0.571-5.426-0.609c-5.992-0.116-11.348,0.886-16.172,2.76
	c-0.834,0.324-1.471,0.829-2.133,1.282c-2.33,1.598-4.652,3.206-5.166,5.435c-0.191,0.837-0.322,1.681-0.508,2.658
	c-0.457,0.098-1.133,0.224-1.785,0.377c-2.721,0.638-4.835,1.625-5.504,3.404c-0.279,0.738-0.922,1.119-2.205,1.44
	c-5.789,1.448-10.445,3.708-13.741,6.88c-2.476,2.383-4.007,4.991-5.048,7.724c-0.508,1.345-0.514,1.384-2.854,1.281
	c-4.853-0.213-9.626-0.126-14.216,0.731c-3.996,0.743-7.852,1.689-11.303,3.037c-2.092,0.816-3.85,1.914-6.051,3.034
	c-0.361-0.099-1.111-0.271-1.812-0.496c-2.914-0.937-5.924-1.25-9.031-0.745c-0.969,0.158-1.662,0.016-2.449-0.379
	c-1.85-0.928-3.829-1.735-6.086-2.305c-4.921-1.245-9.637-1.113-14.121,0.232c-1.734,0.521-3.416,0.866-5.44,0.95
	c-1.979,0.083-3.942,0.489-5.78,0.925c-2.213,0.529-3.179,1.787-4.068,2.992c-0.848,1.142-0.88,2.404-0.512,3.656
	c0.384,1.304,2.015,2.1,3.773,2.808c0.342,0.137,0.73,0.239,1.11,0.336c1.356,0.339,2.924,0.52,4.017,1.046
	c1.025,0.495,1.553,1.354,2.412,2.156c-0.346,0.207-0.741,0.482-1.209,0.708c-0.734,0.356-1.549,0.656-2.27,1.019
	c-1.688,0.85-2.779,1.881-2.83,3.28c-0.036,1.067-0.141,1.073-1.846,1.33c-0.311,0.046-0.625,0.094-0.943,0.123
	c-3.752,0.35-6.591,1.415-8.655,2.993c-1.39-1.013-3.137-1.813-5.252-2.381c-1.257-0.337-2.683-0.437-4.343-0.693
	c-0.045-0.439-0.176-0.948-0.139-1.449c0.17-2.166-0.684-4.197-2.749-6.077c-1.086-0.988-2.089-2.017-3.335-2.936
	c-3.223-2.378-7.524-3.868-12.186-5.007c-2.38-0.58-4.793-1.089-7.378-1.219c-4.365-0.22-7.822,0.574-10.101,2.731
	c-0.533,0.506-1.123,0.831-2.203,0.938c-0.837,0.082-1.635,0.354-2.361,0.622c-2.346,0.868-4.531,1.848-6.268,3.139
	c-1.099,0.815-2.522,1.08-4.453,0.999c-3.408-0.145-6.823-0.044-10.555-0.047c-0.306-0.543-0.701-1.217-1.07-1.894
	c-0.679-1.249-1.228-2.523-2.036-3.747c-1.753-2.659-5.1-4.689-8.318-6.769c-4.922-3.183-11.32-4.788-17.853-6.311
	c-4.526-1.056-9.112-1.365-13.777-1.137c-1.515,0.074-2.983,0.368-4.461,0.584c-0.908,0.133-1.796,0.312-2.945,0.515
	c3.932-8.997-0.872-16.439-12.345-22.831c0.204-0.858,0.567-1.735,0.592-2.625c0.061-2.119-0.974-4.008-4.375-5.229
	c-0.916-0.33-1.145-0.811-1.309-1.34c-1.196-3.896-9.954-9.99-18.958-10.583c-4.692-0.308-9.509-0.602-13.921,0.596
	c-1.107,0.3-2.009,0.172-2.876-0.348c-3.285-1.972-7.409-2.886-11.729-3.719c-5.162-0.996-10.18-0.859-15.281-0.499
	c-3.267,0.23-6.307,0.772-9.142,1.674c-1.962,0.625-4.173,1.086-5.813,1.924c-1.923,0.979-3.919,1.353-6.479,1.415
	c-2.896,0.07-5.408,0.835-7.323,2.143c-0.487,0.334-1.177,0.603-1.869,0.79c-5.346,1.447-9.027,3.764-10.644,7.125
	c-0.32,0.66-0.895,0.904-1.946,1.019c-1.345,0.148-2.7,0.312-3.977,0.578c-4.267,0.896-7.044,3.465-6.766,6.176
	c0.035,0.33,0.108,0.661,0.188,1.121c-0.953,0.139-1.857,0.305-2.792,0.403c-3.673,0.385-6.737,1.448-9.628,2.707
	c-0.575,0.25-1.135,0.511-1.729,0.744c-1.779,0.698-3.047,1.617-3.642,2.853c-0.195,0.407-0.54,0.784-0.777,1.183
	c-0.417,0.7-1.178,1.182-2.321,1.514c-0.994,0.288-1.92,0.665-2.802,1.059c-2.768,1.237-3.642,2.983-3.378,5.009
	c0.006,0.043,0.014,0.085,0.022,0.128c-0.27,0.378-0.665,0.724-1.239,1.036c-0.035,0.017-0.073,0.03-0.111,0.045
	c0.01,0.002,0.018,0.004,0.026,0.006c-1.671-0.368-3.482-0.571-5.426-0.609c-5.992-0.116-11.347,0.886-16.172,2.76
	c-0.834,0.324-1.47,0.829-2.132,1.282c-2.331,1.598-4.652,3.206-5.166,5.435c-0.192,0.837-0.322,1.681-0.508,2.658
	c-0.458,0.098-1.134,0.224-1.786,0.377c-2.72,0.638-4.834,1.625-5.503,3.404c-0.279,0.738-0.922,1.119-2.206,1.44
	c-5.789,1.448-10.445,3.708-13.741,6.88c-2.476,2.383-4.007,4.991-5.047,7.724c-0.509,1.345-0.515,1.384-2.855,1.281
	c-4.853-0.213-9.626-0.126-14.216,0.731c-3.996,0.743-7.851,1.689-11.302,3.037c-2.091,0.816-3.85,1.914-6.05,3.034
	c-0.362-0.099-1.112-0.271-1.812-0.496c-2.915-0.937-5.924-1.25-9.032-0.745c-0.969,0.158-1.662,0.016-2.45-0.379
	c-1.849-0.928-3.828-1.735-6.085-2.305c-4.921-1.245-9.637-1.113-14.121,0.232c-1.735,0.521-3.417,0.866-5.44,0.95
	c-1.979,0.083-3.942,0.489-5.779,0.925c-2.213,0.529-3.18,1.787-4.07,2.992c-0.847,1.142-0.879,2.404-0.51,3.656
	c0.383,1.304,2.014,2.1,3.772,2.808c0.343,0.137,0.729,0.239,1.11,0.336c1.356,0.339,2.924,0.52,4.017,1.046
	c1.025,0.495,1.553,1.354,2.412,2.156c-0.345,0.207-0.741,0.482-1.209,0.708c-0.733,0.356-1.548,0.656-2.269,1.019
	c-1.687,0.85-2.78,1.881-2.83,3.28c-0.036,1.067-0.141,1.073-1.845,1.33c-0.312,0.046-0.626,0.094-0.945,0.123
	c-5.04,0.47-8.438,2.229-10.517,4.792c-1.329,1.635-2.201,3.424-3.03,5.191c-0.582,1.241-0.26,2.559,0.378,3.84
	c0.227,0.455,0.392,0.917,0.655,1.539c-1.114,0.125-2.066,0.169-2.938,0.338c-2.775,0.536-5.03-0.088-7.559-0.934
	c-6.998-2.34-14.001-2.34-20.73-0.102c-0.346,0.115-0.698,0.228-1.058,0.328c-0.137,0.039-0.309,0.041-0.625,0.079
	c-0.275-0.168-0.643-0.359-0.942-0.579c-3.032-2.229-6.849-3.75-11.461-4.513c-1.018-0.169-1.512-0.472-1.881-1.024
	c-1.844-2.769-5.386-4.721-9.565-6.238c-2.831-1.027-5.928-1.767-9.152-2.299c-3.375-0.56-6.616-0.502-9.923-0.126
	c-4.762,0.542-8.95,1.76-12.958,3.221c-0.469,0.17-0.908,0.385-1.275,0.625c-2.072,1.368-3.764,2.886-4.863,4.624
	c-0.232,0.372-0.611,0.761-0.048,1.261c0.943-0.192,1.02-0.695,1.351-1.093c0.079-0.094,0.152-0.188,0.23-0.281
	c-0.171,0.525-0.225,1.062-0.261,1.615c-0.027,0.426-0.39,0.703-0.875,0.85c0.126-0.125,0.247-0.252,0.375-0.375
	c-0.417-0.086-0.896-0.293-1.237-0.24c-4.12,0.63-7.82,1.717-10.674,3.551c-0.82,0.525-1.256,1.282-1.7,1.975
	c-0.665,1.027-0.602,1.066-2.573,1.071c-4.978,0.013-8.726,1.444-12.085,3.3c-0.553,0.307-0.954,0.754-1.22,1.184
	c-0.375,0.602-1.049,0.769-2.066,0.676c-0.651-0.059-1.305-0.088-1.956-0.146c-7.851-0.696-14.771,1.797-17.662,5.848
	c-1.162,1.627-0.489,2.74,2.373,3.561c4.187,1.203,8.405,2.365,12.968,2.928c1.537,0.189,2.738,0.543,2.968,1.656
	c0.139,0.67,1.36,0.938,2.339,1.219c1.263,0.359,2.524,0.722,3.893,1.115c0.665-0.017,1.511-0.108,2.332-0.045
	c4.068,0.314,8.129,0.689,12.197,1.006c2.915,0.23,5.835,0.443,8.758,0.58c1.705,0.081,3.416-0.028,5.127-0.005
	c2.851,0.04,5.728,0.238,8.55,0.146c2.816-0.093,5.611-0.393,8.355-0.732c2.165-0.268,4.12-0.334,6.042,0.6
	c0.474,0.23,1.353,0.205,2.047,0.23c0.889,0.034,1.818-0.115,2.653,0.017c1.46,0.232,2.819,0.771,4.366,0.255
	c0.287-0.096,1.014,0.066,1.367,0.234c1.174,0.557,2.337,0.633,3.614,0.293c0.274-0.072,0.616-0.066,0.889-0.09
	c0.51-1.326,1.184-1.51,3.152-0.826c0.93,0.324,1.785,0.729,2.658,1.109c5.717,2.502,11.955,4.339,18.777,5.344
	c2.307,0.34,4.712,0.389,7.072,0.582c1.535,0.125,3.063,0.287,4.598,0.406c0.47,0.037,0.959,0.008,1.424-0.034
	c0.636-0.058,1.245-0.195,1.882-0.226c3.093-0.145,3.91,0.257,4.481,2.057c0.251,0.797,0.645,1.584,0.963,2.355
	c-1.349,0.338-2.564,0.662-3.807,0.949c-2.312,0.537-4.069,1.421-5.319,2.678c-0.392,0.395-1.144,0.662-1.529,1.061
	c-0.256,0.265-0.491,0.539-0.729,0.811c1.919,2.068,3.961,3.977,6.821,5.664c3.466,2.044,7.849,1.406,12.04,1.386
	c3.98-0.02,8.469,1.866,9.417,4.47c0.927,2.547,1.44,5.317,3.127,7.756c1.08,0.611,2.199,1.18,3.368,1.686
	c1.834-4.484,11.75-6.159,16.149-2.641c1.35-0.189,2.829-0.234,4.412-0.095c2.516,0.222,4.962,0.567,7.348,1.011
	c2-1.151,3.81-2.43,5.418-3.704c4.611-3.649,13.642-1.163,15.876,2.765c6.082,10.691,21.333,15.281,37.782,12.337
	c8.05-1.443,14.821,4.383,11.133,8.892c-2.076,2.539-3.745,5.162-4.664,7.768c15.227,9.131,29.763,18.879,49.97,22.6
	c1.277,0.236,2.375,0.597,3.303,1.05c1.599,0.104,3.201,0.206,4.801,0.315c1.22,0.084,2.435,0.211,3.652,0.301
	c0.477,0.037,0.964,0.057,1.438,0.041c3.241-0.105,6.479-0.23,9.721-0.324c0.465-0.012,1,0.055,1.419,0.184
	c3.4,1.049,7.03,1.709,10.589,2.488c4.371,0.956,8.832,1.609,13.431,1.806c2.843,0.12,5.665,0.483,8.531,0.423
	c1.1-0.023,2.258,0.207,3.368,0.379c1.478,0.229,1.488,0.252,2.28-0.648c-2.888-0.222-5.169-1.25-7.506-2.177
	c-1.929-0.764-3.983-1.655-6.15-2.654c0-0.001,0-0.001,0-0.001c2.167,1,4.222,1.892,6.15,2.655c1.845,0.731,3.654,1.52,5.757,1.931
	c0.606-0.131,1.226-0.237,1.861-0.311c0.119,0.043,0.239,0.087,0.358,0.127c-0.14,0.139-0.276,0.275-0.411,0.41
	c1.031-0.025,2.066-0.031,3.091-0.083c0.884-0.044,1.759-0.133,2.63-0.222c0.624-0.066,1.363-0.068,1.829-0.268
	c2.242-0.971,4.845-1.376,7.593-1.574c0.63-0.045,1.311-0.046,1.935,0.043c2.566,0.361,5.103,0.826,7.683,1.131
	c2.008,0.238,4.062,0.33,6.098,0.426c2.677,0.125,5.354,0.201,8.032,0.268c0.551,0.015,1.091-0.141,1.65-0.168
	c0.964-0.045,1.961-0.146,2.905-0.052c1.188,0.122,2.318,0.534,3.517,0.076c0.214-0.081,0.785,0.069,1.129,0.185
	c1.862,0.622,3.887,0.869,5.924,1.011c2.679,0.188,5.339,0.517,8.061,0.417c1.326-0.051,2.748,0.235,4.092,0.457
	c1.144,0.189,2.167,0.205,3.339,0.08c2.049-0.221,4.216-0.143,6.285-0.324c3.113-0.271,6.185-0.656,9.271-1.002
	c0.475-0.053,0.919-0.194,1.396-0.222c3.921-0.228,5.476-2.667,4.835-4.372c-0.884-2.359-3.148-4.078-6.637-5.253
	c-2.012-0.679-4.188-1.21-6.364-1.667c-1.116-0.233-2.41-0.235-3.598-0.207c-1.473,0.035-2.735-0.075-3.739-0.838
	c-0.399-0.305-0.938-0.652-1.509-0.758c-2.935-0.539-3.7-1.986-4.433-3.424c-1.124-2.198-3.128-4.075-5.902-5.723
	c-5.725-3.398-12.53-5.145-20.449-5.209c-1.709-0.014-3.424-0.018-5.116,0.062c-2.292,0.109-4.005,0.887-5.644,1.717
	c-0.415,0.209-0.859,0.396-1.127,0.521c-3.084-0.839-5.999-1.632-8.907-2.423c-0.926-2.602-1.457-2.896-5.396-4.411
	c-4.326-1.663-8.752-1.976-13.306-1.179c-0.272-0.061-0.466-0.068-0.572-0.131c-2.716-1.625-2.596-1.457-1.092-3.459
	c0.41-0.547,1.148-1.002,1.747-1.495c2.3-1.888,3.539-4.009,2.949-6.399c-0.55-2.23-0.796-4.502-2.365-6.646
	c-0.486-0.665-0.977-1.328-1.56-2.115c0.615-0.002,1.134-0.043,1.64,0.004c2.843,0.258,5.684,0.289,8.526,0.287
	c3.012-0.002,6.027,0.004,9.036-0.031c2.027-0.024,4.061-0.255,6.069-0.129c2.516,0.156,4.794-0.258,7.18-0.41
	c0.676-0.043,1.433,0.069,2.114,0.196c2.045,0.378,4.08,0.782,6.105,1.206c1.63,0.341,3.24,0.721,5.002,1.117
	c0.293-0.252,0.603-0.8,0.912-0.783c0.6,0.032,1.236,0.066,1.966,0.105c0,0,0.069,0.348-0.042,0.425
	c-1.524,1.046-2.5,2.261-2.933,3.688c-2.27,0.162-3.893,0.82-4.907,1.982c-1.413,1.621-1.001,3.221,0.642,4.773
	c1.47,1.393,3.884,2.102,6.202,2.902c7.76,2.682,16.081,3.119,24.563,3c1.675-0.022,3.391,0.238,5.03-0.154
	c0.369-0.089,1.081,0.145,1.536,0.321c0.691,0.271,1.382,0.581,1.917,0.95c1.959,1.357,4.383,2.27,7.178,2.861
	c0.138,0.029,0.245,0.123,0.453,0.233c-0.118,0.146-0.194,0.337-0.388,0.464c-2.807,1.848-3.201,4.123-2.835,6.537
	c0.02,0.142,0.1,0.285,0.106,0.428c0.129,4.23,5.096,6.297,10.77,8.047c3.573,0.406,6.214,1.684,8.716,3.192
	c1.064,0.643,2.604,1.019,3.951,1.493c0.715,0.251,1.503,0.424,2.211,0.68c3.782,1.363,7.836,2.139,12.161,2.389
	c2.112,0.119,4.222,0.296,6.554,0.463c0.416-0.496,1.2-0.912,2.466-0.855c1.044,0.047,2.087,0.111,3.224,0.172
	c0.094-0.205,0.15-0.383,0.253-0.55c0.502-0.839,1.564-1.151,2.98-0.824c1.158,0.269,2.298,0.577,3.41,0.911
	c4.03,1.217,8.146,2.168,12.679,2.309c1.596,0.051,3.197,0.413,4.786,0.663c0.803,0.126,1.708,0.394,2.299-0.021
	c1.108-0.778,2.5-0.718,3.992-0.504c0.854,0.123,1.507,0.161,2.103-0.34c0.35-0.295,1.162-0.477,1.828-0.54
	c5.285-0.5,9.581-2.051,13.533-3.978c0.549-0.268,1.045-0.573,1.577-0.854c0.628-0.33,1.372-0.458,2.245-0.34
	c3.375,0.459,6.655,0.307,9.919-0.144c1.722-0.237,3.578-0.627,5.242-0.429c1.641,0.193,3.103,1.057,4.667,1.603
	c5.227,1.826,10.66,3.251,16.734,3.437c3.506,0.107,7.012,0.254,10.518,0.346c0.711,0.02,1.42-0.122,2.131-0.188
	c4.643-0.428,9.02-1.367,13.531-2.027c6.931-1.016,12.697-2.945,17.376-5.986c1.585-1.029,2.628-1.178,4.923-0.607
	c0.611,0.15,1.193,0.348,1.796,0.518c1.37,0.385,2.733,0.802,4.136,0.163c0.168-0.077,0.465-0.065,0.707-0.077
	c2.57-0.146,5.148-0.27,7.713-0.439c0.617-0.041,1.232-0.189,1.783-0.358c2.115-0.647,4.139-1.356,5.969-2.282
	c1.286-0.652,2.865-1.099,3.922-1.938c0.469-0.371,1.02-0.675,1.316-1.119c1.648,1.326,3.301,2.648,5.094,3.862
	c2.35,1.591,5.164,2.86,7.938,4.068c1.979,0.863,4.389,1.209,6.33,2.104c4.221,1.95,8.652,2.337,13.412,1.527
	c2.572-0.436,5.008-0.654,5.861,1.895c0.154,0.451,0.98,0.82,1.576,1.151c1.967,1.088,3.969,2.146,5.971,3.205
	c0.615,0.327,1.219,0.713,1.918,0.908c9.115,2.58,18.385,4.83,27.887,6.508c5.148,0.906,10.348,1.319,15.674,0.268
	c4.686-0.926,8.068,0.391,10.559,3.688c2.559-0.234,5.057-0.096,7.195,1.393c0.814,0.564,2.279,0.614,3.424,0.953
	c1.561,0.462,3.225,0.833,4.607,1.502c2.127,1.031,4.127,1.908,6.881,1.505c1.725-0.254,3.424,0.159,4.537,1.289
	c1.115,1.131,2.506,1.058,4.148,0.732c2.23-0.438,4.502-0.791,6.787-1.053c4.756-0.538,9.553-0.859,14.057-2.277
	c2.164-0.68,4.449-0.656,6.852-0.408c3.977,0.41,8.02,0.544,12.037,0.652c3.07,0.083,6.154-0.015,9.227-0.114
	c0.904-0.03,1.936-0.178,2.656-0.54c3.637-1.829,7.848-2.545,11.877-3.682c6.484-1.824,12.73-4.326,17.695-8.013
	c2.516-1.871,5.248-2.534,8.713-2.546c4.178-0.014,8.471,0.031,12.498-0.64c6.768-1.125,13.486-2.558,20.012-4.291
	c8.27-2.195,15.908-5.389,20.998-10.788c2.818-2.989,6.561-4.265,10.998-5.105c3.154-0.599,6.314-1.215,9.396-1.986
	c5.436-1.364,10.746-2.952,15.684-5.143c2.934-1.302,5.525-2.826,7.331-5.067c3.293,0.421,6.496,0.269,9.685-0.171
	c1.723-0.236,3.578-0.627,5.242-0.429c1.641,0.194,3.104,1.058,4.668,1.603c5.227,1.826,10.66,3.252,16.734,3.438
	c3.506,0.106,7.012,0.254,10.518,0.346c0.711,0.02,1.42-0.123,2.131-0.188c4.643-0.429,9.02-1.367,13.531-2.027
	c6.93-1.016,12.697-2.946,17.376-5.986c1.585-1.03,2.628-1.178,4.923-0.608c0.611,0.151,1.193,0.349,1.796,0.519
	c1.37,0.385,2.733,0.801,4.136,0.162c0.168-0.076,0.465-0.064,0.707-0.077c2.57-0.146,5.148-0.269,7.713-0.438
	c0.617-0.042,1.232-0.19,1.783-0.359c2.115-0.646,4.139-1.355,5.969-2.281c1.286-0.652,2.865-1.1,3.922-1.938
	c0.561-0.443,1.264-0.779,1.475-1.392c0.252-0.737,1.229-1.071,2.551-0.966c1.291,0.105,2.578,0.25,3.865,0.379
	c1.148,0.115,2.221,0.293,2.719-0.639c0.182-0.342,1.182-0.596,1.906-0.719c2.017-0.344,3.209-1.204,4.045-2.21
	c0.411-0.493,0.928-0.688,1.719-0.821c7.024-1.184,12.785-3.553,18.119-6.313c0.707-0.366,1.25-0.841,1.854-1.272
	c0.252-0.18,0.389-0.488,0.703-0.55c1.703-0.339,1.961-1.263,2.703-2.056C1137.458,192.355,1137.455,190.195,1137.132,187.978z"/>
</svg>
