<?xml version="1.0" encoding="utf-8"?>
<!-- Generator: Adobe Illustrator 16.0.0, SVG Export Plug-In . SVG Version: 6.00 Build 0)  -->
<!DOCTYPE svg PUBLIC "-//W3C//DTD SVG 1.1//EN" "http://www.w3.org/Graphics/SVG/1.1/DTD/svg11.dtd">
<svg version="1.1" id="Layer_1" xmlns="http://www.w3.org/2000/svg" xmlns:xlink="http://www.w3.org/1999/xlink" x="0px" y="0px"
	 viewBox="0 0 889.52 428.593"
	 xml:space="preserve">
<path fill="#D1E2F2" d="M889.272,301.861c-0.189-1.567-1.037-2.951-2.234-4.234c-3.994-4.287-9.023-7.594-15.242-9.976
	c0.174-0.562,0.223-1.132,0.52-1.597c2.467-3.867,3.033-8.09,2.809-12.286c-0.115-2.16-1.291-4.499-2.773-6.379
	c-2.277-2.88-4.871-5.646-8.324-7.846c-3.348-2.132-6.998-3.042-11.205-2.637c-0.895,0.087-1.799,0.14-2.83,0.216
	c-0.697-1.125-1.338-2.133-1.949-3.154c-1.045-1.74-2.512-3.155-4.703-4.098c-1.086-0.467-2.119-1.029-3.096-1.633
	c-1.596-0.986-3.332-1.666-5.371-1.689c-1.525-0.018-2.434-0.588-3.139-1.635c-2.635-3.907-6.504-6.924-11.27-9.219
	c-4.035-1.941-8.559-2.836-13.098-3.617c-2.312-0.397-4.697-0.507-7.025-0.866c-3.322-0.513-6.568-0.239-9.783,0.351
	c-5.518,1.016-10.754,2.658-15.947,4.396c-0.553,0.185-1.111,0.36-1.902,0.616c-0.387-0.658-0.762-1.204-1.039-1.782
	c-1.309-2.714-3.088-5.116-6.283-6.796c-0.861-0.45-1.568-1.338-1.885-2.137c-1.51-3.809-4.982-6.295-8.906-8.517
	c-0.588-0.333-1.211-0.624-1.799-0.957c-0.152-0.087-0.232-0.263-0.404-0.471c2.842-6.886,0.766-13.136-5.062-19.038
	c1.508-0.362,2.742-0.668,3.986-0.954c2.998-0.689,5.801-1.667,7.863-3.582c1.666-1.545,3.631-1.894,6.064-1.292
	c5.357,1.325,10.342,0.636,15.1-1.572c1.09-0.506,2.488-0.622,3.758-0.877c3.871-0.777,7.865-1.288,11.59-2.365
	c3.408-0.988,5.838-3.024,7.68-5.634c2.693-3.822,2.596-7.525,1.127-11.677c-1.318-3.726-3.301-6.787-7.496-8.875
	c-1.148-0.57-1.516-1.44-1.703-2.468c-0.498-2.743-1.307-5.418-3.203-7.838c-3.422-4.371-8.494-7.236-14.438-8.815
	c-4.291-1.141-8.955-1.095-13.248,0.568c-0.918,0.354-1.863,0.67-2.814,0.97c-2.826,0.891-5.225,2.195-6.914,4.232
	c-0.322,0.392-0.752,0.729-1.293,1.25c-0.473-0.501-0.822-0.854-1.148-1.221c-0.879-0.986-1.619-2.074-2.668-2.933
	c-0.791-0.652-1.133-1.27-1.154-2.134c-0.123-5.146-2.924-9.375-7.479-12.983c-1.527-1.21-2.994-2.435-5.031-3.212
	c-0.859-0.33-1.436-1.308-1.908-2.079c-1.973-3.234-5.049-5.565-9.232-6.895c-1.59-0.505-3.389-0.599-5.482-0.946
	c-0.066-0.741-0.244-1.597-0.205-2.448c0.166-3.68-0.955-7.077-3.596-10.153c-1.389-1.618-2.674-3.31-4.262-4.8
	c-4.109-3.862-9.559-6.16-15.453-7.846c-3.01-0.858-6.061-1.595-9.318-1.679c-5.5-0.144-9.838,1.382-12.66,5.159
	c-0.66,0.885-1.396,1.467-2.754,1.706c-1.051,0.182-2.051,0.685-2.959,1.178c-2.936,1.593-5.666,3.369-7.826,5.647
	c-1.363,1.439-3.152,1.963-5.586,1.926c-4.293-0.067-8.592,0.284-13.291,0.476c-0.398-0.904-0.91-2.026-1.389-3.153
	c-0.883-2.08-1.602-4.212-2.645-6.243c-2.264-4.414-6.523-7.679-10.619-11.035c-6.268-5.136-14.359-7.519-22.617-9.758
	c-5.723-1.551-11.504-1.834-17.373-1.203c-1.908,0.205-3.748,0.779-5.605,1.223c-1.141,0.275-2.254,0.624-3.697,1.028
	c4.756-15.453-1.455-27.812-16.039-38.042c0.238-1.465,0.676-2.97,0.689-4.48c0.029-3.594-1.312-6.741-5.623-8.632
	c-1.16-0.51-1.459-1.313-1.676-2.203c-1.59-6.538-12.752-16.407-24.102-16.939c-5.916-0.274-11.988-0.521-17.518,1.74
	c-1.389,0.567-2.525,0.396-3.627-0.438c-4.182-3.169-9.395-4.501-14.852-5.686c-6.523-1.418-12.838-0.922-19.254-0.043
	c-4.109,0.562-7.926,1.639-11.475,3.317c-2.459,1.164-5.232,2.06-7.279,3.566c-2.402,1.761-4.906,2.499-8.131,2.738
	c-3.645,0.271-6.792,1.699-9.173,4.017c-0.607,0.591-1.47,1.083-2.338,1.436c-6.7,2.731-11.285,6.854-13.249,12.633
	c-0.389,1.136-1.107,1.58-2.429,1.83c-1.689,0.322-3.393,0.67-4.995,1.188c-5.354,1.741-8.795,6.241-8.386,10.821
	c0.051,0.559,0.15,1.115,0.26,1.89c-1.197,0.287-2.332,0.615-3.508,0.83c-4.617,0.847-8.451,2.807-12.065,5.093
	c-0.718,0.456-1.418,0.926-2.161,1.352c-2.225,1.276-3.803,2.9-4.524,5.027c-0.237,0.699-0.663,1.355-0.952,2.045
	c-0.511,1.208-1.459,2.064-2.892,2.688c-1.246,0.54-2.404,1.227-3.505,1.941c-3.459,2.242-4.521,5.247-4.146,8.667
	c0.008,0.072,0.02,0.144,0.031,0.216c-0.332,0.654-0.822,1.262-1.539,1.82c-0.043,0.031-0.091,0.055-0.137,0.083
	c0.011,0.003,0.021,0.005,0.032,0.009c-2.112-0.534-4.397-0.785-6.845-0.746c-7.549,0.118-14.27,2.098-20.305,5.526
	c-1.043,0.593-1.833,1.481-2.658,2.284c-2.9,2.83-5.789,5.677-6.387,9.482c-0.225,1.428-0.37,2.866-0.583,4.531
	c-0.575,0.189-1.423,0.439-2.241,0.733c-3.412,1.225-6.053,3.008-6.855,6.059c-0.336,1.266-1.137,1.944-2.747,2.556
	c-7.257,2.757-13.072,6.833-17.155,12.381c-3.066,4.169-4.938,8.667-6.188,13.354c-0.613,2.306-0.619,2.373-3.569,2.321
	c-6.114-0.106-12.124,0.293-17.885,1.986c-5.018,1.47-9.851,3.276-14.168,5.74c-2.615,1.493-4.806,3.445-7.553,5.46
	c-0.459-0.149-1.406-0.401-2.293-0.746c-3.69-1.435-7.487-1.808-11.39-0.788c-1.217,0.319-2.093,0.115-3.094-0.514
	c-2.349-1.474-4.858-2.738-7.712-3.586c-6.224-1.851-12.159-1.379-17.776,1.136c-2.175,0.974-4.285,1.646-6.831,1.895
	c-2.489,0.244-4.953,1.035-7.258,1.872c-2.775,1.013-3.965,3.196-5.061,5.283c-1.042,1.981-1.056,4.121-0.563,6.224
	c0.51,2.189,2.582,3.452,4.812,4.56c0.434,0.214,0.925,0.368,1.405,0.51c1.716,0.503,3.693,0.727,5.08,1.562
	c1.303,0.786,1.986,2.214,3.084,3.528c-0.431,0.368-0.923,0.855-1.508,1.262c-0.915,0.642-1.936,1.192-2.836,1.845
	c-2.105,1.529-3.459,3.333-3.491,5.708c-0.022,1.81-0.155,1.825-2.295,2.35c-0.392,0.095-0.786,0.192-1.188,0.258
	c-6.337,1.061-10.577,4.219-13.141,8.672c-1.638,2.84-2.696,5.919-3.703,8.956c-0.705,2.135-0.272,4.349,0.558,6.488
	c0.297,0.759,0.514,1.534,0.859,2.574c-1.4,0.27-2.598,0.394-3.691,0.725c-3.483,1.056-6.336,0.116-9.539-1.184
	c-8.862-3.598-17.682-3.228-26.105,0.917c-0.435,0.212-0.875,0.422-1.326,0.611c-0.17,0.074-0.387,0.086-0.785,0.167
	c-0.35-0.27-0.816-0.574-1.198-0.932c-3.866-3.616-8.705-5.995-14.53-7.045c-1.285-0.232-1.914-0.72-2.391-1.638
	c-2.383-4.595-6.885-7.718-12.18-10.068c-3.586-1.593-7.502-2.682-11.573-3.416c-4.263-0.771-8.343-0.504-12.499,0.309
	c-5.983,1.169-11.232,3.453-16.247,6.138c-0.587,0.313-1.136,0.701-1.592,1.125c-2.579,2.428-4.678,5.088-6.024,8.092
	c-0.284,0.643-0.754,1.321-0.032,2.14c1.183-0.378,1.269-1.232,1.677-1.923c0.097-0.163,0.188-0.327,0.283-0.489
	c-0.204,0.9-0.26,1.812-0.293,2.753c-0.025,0.722-0.476,1.212-1.083,1.482c0.156-0.216,0.306-0.438,0.464-0.654
	c-0.525-0.123-1.134-0.448-1.562-0.343c-5.174,1.285-9.811,3.321-13.365,6.58c-1.02,0.933-1.553,2.237-2.098,3.434
	c-0.814,1.777-0.734,1.839-3.217,1.951c-6.268,0.283-10.957,2.906-15.148,6.228c-0.689,0.549-1.185,1.326-1.51,2.07
	c-0.458,1.039-1.304,1.355-2.587,1.251c-0.822-0.064-1.646-0.079-2.466-0.144c-9.901-0.769-18.562,3.818-22.116,10.837
	c-1.429,2.817-0.557,4.668,3.065,5.909c5.299,1.819,10.635,3.568,16.393,4.281c1.939,0.239,3.461,0.775,3.774,2.65
	c0.188,1.129,1.731,1.518,2.971,1.941c1.6,0.542,3.195,1.092,4.927,1.687c0.837-0.063,1.9-0.265,2.936-0.198
	c5.129,0.32,10.252,0.74,15.381,1.064c3.676,0.235,7.358,0.444,11.041,0.522c2.148,0.047,4.301-0.228,6.457-0.278
	c3.59-0.082,7.217,0.104,10.77-0.201c3.544-0.307,7.058-0.961,10.506-1.681c2.72-0.567,5.18-0.783,7.62,0.698
	c0.603,0.365,1.708,0.277,2.583,0.283c1.119,0.012,2.286-0.29,3.341-0.111c1.844,0.318,3.567,1.157,5.505,0.202
	c0.358-0.178,1.277,0.06,1.726,0.327c1.49,0.879,2.956,0.948,4.558,0.305c0.344-0.137,0.774-0.144,1.117-0.199
	c0.612-2.274,1.459-2.619,3.951-1.564c1.178,0.5,2.266,1.141,3.372,1.74c7.253,3.938,15.147,6.725,23.761,8.07
	c2.911,0.454,5.941,0.409,8.917,0.615c1.936,0.131,3.864,0.324,5.799,0.444c0.593,0.038,1.209-0.036,1.792-0.131
	c0.8-0.13,1.563-0.397,2.365-0.48c3.891-0.408,4.93,0.229,5.688,3.249c0.334,1.337,0.847,2.65,1.264,3.941
	c-1.691,0.643-3.215,1.258-4.773,1.809c-2.9,1.031-5.093,2.621-6.639,4.816c-0.486,0.69-1.428,1.183-1.903,1.877
	c-0.316,0.463-0.606,0.939-0.899,1.414c2.461,3.402,5.072,6.529,8.712,9.238c4.408,3.282,9.913,1.973,15.19,1.717
	c5.011-0.242,10.705,2.717,11.955,7.08c1.223,4.268,1.93,8.936,4.105,12.979c1.373,0.98,2.795,1.885,4.277,2.682
	c2.213-7.698,14.664-11.057,20.279-5.326c1.695-0.39,3.559-0.543,5.555-0.39c3.172,0.244,6.26,0.701,9.274,1.325
	c2.493-2.056,4.745-4.317,6.743-6.561c5.728-6.426,17.153-2.688,20.053,3.851c7.889,17.799,27.191,24.777,47.843,18.922
	c10.106-2.867,18.759,6.649,14.21,14.486c-2.524,4.351-4.544,8.82-5.656,13.225c-0.756-0.254-1.528-0.472-2.312-0.646
	c-7.131-1.589-13.873-0.397-19.988,3.769c-0.554,0.378-1.062,0.852-1.661,1.126c-3.282,1.503-5.443,4.151-7.316,7.083
	c-0.87,1.362-1.334,3.216-2.533,4.076c-1.303,0.934-3.258,0.939-4.912,1.408c-4.153,1.18-7.822,3.216-10.459,6.686
	c-1.227,1.613-2.605,2.538-4.543,3.143c-4.653,1.453-7.9,4.66-8.477,9.525c-0.352,2.982-1.727,4.406-4.149,5.418
	c-0.528,0.221-1.072,0.42-1.589,0.67c-2.064,0.997-4.203,1.877-6.162,3.056c-1.92,1.155-3.932,1.905-6.077,2.478
	c-2.771,0.74-5.511,1.609-8.22,2.551c-2.115,0.734-3.988,1.953-5.257,3.835c-1.119,1.659-2.071,3.435-3.025,5.196
	c-0.248,0.463-0.435,1.139-0.288,1.602c0.853,2.712,1.785,5.402,4.874,6.465c0.419,0.145,0.728,0.593,1.126,0.846
	c0.39,0.252,0.834,0.634,1.237,0.615c3.245-0.154,6.433,0.648,9.728,0.24c3.393-0.42,6.863-0.219,10.301-0.254
	c0.462-0.003,0.951,0.15,1.387,0.332c3.831,1.598,7.873,2.312,11.941,2.943c0.562,0.086,1.39,0.02,1.627,0.354
	c1.426,1.991,3.697,2.265,5.729,2.985c2.149,0.764,4.321,1.523,6.549,1.979c2.322,0.476,4.713,0.695,7.085,0.827
	c3.142,0.176,6.296,0.199,9.443,0.215c3.825,0.02,7.667-0.264,11.47,0.011c3.112,0.228,6.1-0.041,9.109-0.686
	c0.932-0.2,1.893-0.294,2.845-0.377c6.794-0.575,13.459-1.771,19.934-3.979c2.532-0.864,5.177-1.434,7.665-2.402
	c2.57-0.996,5.311-1.539,7.679-3.091c2.475-1.62,5.046-3.11,7.64-4.532c0.971-0.53,2.123-0.943,3.213-1.002
	c2.279-0.125,4.571-0.017,6.858,0.06c3.348,0.11,6.718,0.067,10.034,0.465c8.734,1.044,17.499,1.616,26.285,1.786
	c5.063,0.098,10.136-0.043,15.198-0.255c4.29-0.18,8.581-0.526,12.856-0.966c4.459-0.457,8.957-0.762,13.195-2.52
	c1.312-0.544,2.766-0.889,4.182-1.006c3.021-0.254,5.777-1.348,8.434-2.613c2.783-1.324,5.459-1.465,8.279-0.342
	c0.793,0.316,1.627,0.595,2.469,0.721c4.717,0.699,9.355,1.867,14.189,1.847c3.623-0.015,7.246,0.407,10.869,0.616
	c0.477,0.026,0.959-0.012,1.436-0.07c5.982-0.729,11.973-1.411,17.941-2.24c1.486-0.207,2.918-0.86,4.352-1.367
	c3.418-1.205,6.756-2.71,10.254-3.592c3.182-0.801,6.172-1.953,9.197-3.163c4.736-1.896,9.232-4.253,14.568-4.767
	c6.148-0.596,12.203-2.207,17.945-4.763c3.48-1.552,6.656-3.753,10.361-4.817c0.088-0.025,0.162-0.104,0.244-0.148
	c2.688-1.472,5.432-2.846,8.047-4.436c3.768-2.287,8.033-2.295,12.178-2.85c0.537-0.072,1.379,0.285,1.682,0.719
	c0.502,0.723-0.217,1.163-0.811,1.527c-0.404,0.247-0.818,0.51-1.152,0.842c-2.17,2.135-2.215,5.309,0.006,7.357
	c1.48,1.369,3.258,2.269,5.256,2.765c4.602,1.142,9.346,0.215,13.969,1.041c0.525,0.095,1.113-0.202,1.676-0.29
	c0.85-0.133,1.699-0.278,2.555-0.357c2.855-0.264,5.721-0.449,8.572-0.756c2.461-0.264,4.939-0.514,7.357-1.018
	c3.74-0.783,7.449-1.736,11.148-2.699c3.436-0.893,6.859-1.879,9.627-4.268c1.268-1.096,2.664-1.394,4.271-1.122
	c2.57,0.434,5.145,0.228,7.717-0.05c3.693-0.4,7.41-0.66,11.078-1.233c5.193-0.812,10.395-1.683,15.512-2.869
	c2.668-0.62,5.248-1.81,7.721-3.036c2.846-1.413,5.611-2.836,8.908-2.807c2.76,0.025,5.295-0.874,7.482-2.526
	c0.968-0.733,1.829-1.613,2.687-2.494c4.136,1.218,8.435,1.989,13.017,1.987c4.416-0.004,8.834,0.061,13.25,0.033
	c0.896-0.004,1.785-0.281,2.68-0.43c5.838-0.971,11.33-2.791,16.996-4.146c8.705-2.085,15.926-5.659,21.75-11.059
	c1.975-1.828,3.285-2.133,6.186-1.288c0.773,0.224,1.514,0.528,2.273,0.783c1.734,0.58,3.461,1.216,5.213,0.06
	c0.209-0.139,0.584-0.135,0.887-0.168c3.234-0.382,6.479-0.727,9.703-1.15c0.777-0.103,1.549-0.386,2.238-0.7
	c2.65-1.208,5.182-2.517,7.467-4.181c1.605-1.173,3.586-2.014,4.898-3.488c0.695-0.781,1.574-1.388,1.826-2.438
	c0.301-1.262,1.525-1.879,3.191-1.77c1.627,0.109,3.25,0.287,4.875,0.438c1.449,0.137,2.803,0.381,3.41-1.225
	c0.221-0.588,1.475-1.07,2.385-1.318c2.531-0.688,4.016-2.209,5.045-3.957c0.508-0.857,1.156-1.214,2.148-1.48
	c8.818-2.377,16.023-6.694,22.678-11.652c0.883-0.657,1.559-1.49,2.309-2.252c0.312-0.319,0.479-0.85,0.873-0.971
	c2.139-0.664,2.441-2.242,3.359-3.625C889.778,309.261,889.727,305.601,889.272,301.861z M331.819,359.639
	c-0.649-0.815-1.336-1.6-2.026-2.382c1.639,1.25,3.281,2.495,4.931,3.727C333.448,361.228,332.617,360.642,331.819,359.639z"/>
</svg>
