<?xml version="1.0" encoding="utf-8"?>
<!-- Generator: Adobe Illustrator 16.0.0, SVG Export Plug-In . SVG Version: 6.00 Build 0)  -->
<!DOCTYPE svg PUBLIC "-//W3C//DTD SVG 1.1//EN" "http://www.w3.org/Graphics/SVG/1.1/DTD/svg11.dtd">
<svg version="1.1" id="Layer_1" xmlns="http://www.w3.org/2000/svg" xmlns:xlink="http://www.w3.org/1999/xlink" x="0px" y="0px"
	 width="808.799px" height="276.012px" viewBox="0 0 808.799 276.012" enable-background="new 0 0 808.799 276.012"
	 xml:space="preserve">
<path fill="#FFFFFF" d="M808.282,163.771c-0.245-0.996-0.9-1.824-1.773-2.561c-2.914-2.458-6.42-4.201-10.621-5.256
	c0.068-0.377,0.055-0.748,0.211-1.072c1.291-2.689,1.328-5.461,0.856-8.154c-0.243-1.386-1.185-2.805-2.288-3.904
	c-1.695-1.683-3.586-3.267-5.988-4.418c-2.328-1.117-4.758-1.42-7.443-0.831c-0.57,0.126-1.15,0.229-1.811,0.36
	c-0.537-0.673-1.029-1.273-1.505-1.886c-0.811-1.043-1.868-1.843-3.356-2.28c-0.738-0.217-1.449-0.5-2.127-0.814
	c-1.107-0.512-2.281-0.816-3.602-0.672c-0.986,0.107-1.617-0.191-2.154-0.812c-2.006-2.318-4.74-3.965-7.997-5.076
	c-2.757-0.939-5.749-1.166-8.741-1.316c-1.525-0.076-3.074,0.039-4.605-0.012c-2.187-0.072-4.262,0.356-6.292,0.988
	c-3.483,1.086-6.739,2.555-9.958,4.081c-0.342,0.163-0.689,0.319-1.182,0.546c-0.299-0.395-0.585-0.719-0.809-1.07
	c-1.057-1.65-2.393-3.064-4.588-3.9c-0.592-0.223-1.117-0.742-1.383-1.232c-1.273-2.343-3.709-3.678-6.416-4.808
	c-0.406-0.169-0.832-0.31-1.238-0.478c-0.104-0.045-0.17-0.152-0.297-0.273c1.299-4.668-0.529-8.544-4.753-11.902
	c0.945-0.351,1.72-0.645,2.501-0.926c1.883-0.679,3.617-1.528,4.799-2.926c0.956-1.128,2.199-1.506,3.818-1.307
	c3.562,0.438,6.729-0.395,9.629-2.191c0.666-0.412,1.559-0.596,2.359-0.859c2.439-0.803,4.98-1.445,7.303-2.43
	c2.123-0.904,3.535-2.408,4.52-4.238c1.443-2.678,1.092-5.062-0.181-7.629c-1.142-2.305-2.661-4.127-5.534-5.149
	c-0.785-0.278-1.09-0.812-1.291-1.462c-0.535-1.732-1.266-3.396-2.68-4.812c-2.551-2.557-6.05-4.013-10.012-4.57
	c-2.86-0.402-5.869-0.01-8.514,1.399c-0.564,0.3-1.15,0.578-1.74,0.846c-1.758,0.796-3.205,1.825-4.137,3.272
	c-0.178,0.278-0.43,0.529-0.738,0.908c-0.346-0.287-0.598-0.488-0.837-0.699c-0.646-0.568-1.208-1.213-1.952-1.687
	c-0.561-0.359-0.83-0.731-0.912-1.288c-0.48-3.314-2.617-5.828-5.842-7.804c-1.08-0.663-2.123-1.34-3.5-1.683
	c-0.58-0.146-1.029-0.732-1.393-1.194c-1.527-1.936-3.695-3.202-6.502-3.734c-1.066-0.202-2.234-0.123-3.615-0.185
	c-0.1-0.473-0.281-1.012-0.322-1.564c-0.18-2.39-1.168-4.496-3.113-6.278c-1.023-0.937-1.984-1.929-3.127-2.769
	c-2.955-2.174-6.654-3.234-10.592-3.863c-2.012-0.32-4.039-0.559-6.15-0.359c-3.563,0.336-6.246,1.66-7.775,4.318
	c-0.357,0.623-0.787,1.057-1.645,1.316c-0.666,0.199-1.271,0.603-1.82,0.992c-1.771,1.258-3.396,2.617-4.615,4.257
	c-0.77,1.036-1.883,1.514-3.457,1.679c-2.779,0.291-5.528,0.854-8.549,1.343c-0.328-0.554-0.745-1.237-1.143-1.929
	c-0.732-1.275-1.361-2.596-2.193-3.826c-1.807-2.674-4.812-4.452-7.72-6.301c-4.448-2.828-9.86-3.738-15.368-4.541
	c-3.818-0.556-7.574-0.288-11.316,0.576c-1.215,0.281-2.359,0.795-3.523,1.227c-0.717,0.268-1.408,0.579-2.31,0.953
	c1.868-10.352-3.104-17.852-13.321-23.323c0.039-0.965,0.205-1.972,0.096-2.947c-0.262-2.324-1.373-4.252-4.305-5.138
	c-0.789-0.24-1.045-0.734-1.254-1.293c-1.537-4.099-9.514-9.604-16.887-9.063c-3.843,0.283-7.783,0.597-11.18,2.488
	c-0.852,0.475-1.6,0.453-2.377-0.001c-2.947-1.721-6.418-2.176-10.035-2.516c-4.324-0.408-8.363,0.404-12.439,1.473
	c-2.611,0.682-4.992,1.676-7.154,3.036c-1.496,0.942-3.219,1.737-4.424,2.87c-1.414,1.324-2.975,1.996-5.037,2.402
	c-2.334,0.459-4.256,1.626-5.613,3.309c-0.346,0.43-0.865,0.814-1.398,1.109c-4.115,2.286-6.756,5.306-7.574,9.191
	c-0.162,0.764-0.592,1.107-1.426,1.371c-1.066,0.34-2.139,0.697-3.133,1.157c-3.322,1.542-5.195,4.716-4.574,7.642
	c0.076,0.357,0.184,0.709,0.314,1.201c-0.75,0.278-1.458,0.579-2.201,0.809c-2.916,0.906-5.24,2.473-7.396,4.23
	c-0.428,0.35-0.844,0.708-1.29,1.041c-1.338,0.998-2.229,2.17-2.53,3.6c-0.1,0.47-0.323,0.927-0.457,1.395
	c-0.234,0.82-0.781,1.447-1.658,1.962c-0.762,0.446-1.457,0.979-2.111,1.526c-2.061,1.718-2.512,3.742-2.004,5.922
	c0.012,0.045,0.023,0.091,0.037,0.137c-0.164,0.448-0.434,0.879-0.852,1.295c-0.025,0.023-0.055,0.043-0.083,0.064
	c0.008,0.002,0.015,0.002,0.022,0.004c-1.406-0.181-2.902-0.164-4.48,0.051c-4.865,0.664-9.053,2.467-12.684,5.151
	c-0.628,0.464-1.068,1.1-1.539,1.683c-1.653,2.054-3.297,4.117-3.387,6.622c-0.034,0.94-0.016,1.88-0.023,2.972
	c-0.357,0.168-0.885,0.395-1.391,0.648c-2.108,1.057-3.676,2.414-3.957,4.447c-0.117,0.844-0.582,1.344-1.574,1.865
	c-4.473,2.346-7.912,5.432-10.117,9.333c-1.655,2.932-2.514,5.983-2.957,9.107c-0.215,1.537-0.215,1.581-2.123,1.776
	c-3.959,0.408-7.809,1.135-11.398,2.677c-3.126,1.341-6.107,2.884-8.704,4.812c-0.659,0.49-1.262,1.033-1.861,1.603
	c-4.608-1.68-9.472-2.512-14.744-1.998c-1.344,0.13-2.832-0.017-4.099-0.47c-5.662-2.025-11.452-3.279-17.419-4.098
	c-9.743-1.339-18.154,1.443-25.577,7.5c-1.678,1.367-3.161,1.85-5.18,1.521c-3.664-0.599-7.424-1.007-10.991,0.147
	c-2.914,0.943-5.169,0.173-7.473-1.411c-1.783-1.226-3.616-2.382-5.485-3.47c-0.977-0.568-2.042-1.094-3.134-1.34
	c-5.088-1.148-10.167-2.391-15.312-3.225c-5.399-0.875-10.878-1.72-16.346-0.752c-10.636,1.887-20.853,4.889-29.229,12.229
	c-0.572,0.504-1.177,1.015-1.852,1.344c-0.78,0.38-1.671,0.841-2.483,0.788c-4.048-0.254-7.79,1.139-11.639,1.954
	c-3.7,0.783-7.03,2.358-9.762,4.96c-2.047,1.951-4.265,2.764-7.139,2.871c-7.493,0.274-14.295,2.539-19.46,8.353
	c-1.4,1.574-3.285,1.974-5.144,2.206c-3.004,0.375-5.632,1.473-8.072,3.202c-0.93,0.658-1.929,1.307-2.994,1.675
	c-4.933,1.722-7.782,5.541-10.212,9.836c-2.582,4.564-1.818,9.343-0.904,14.113c0.137,0.707,0.629,1.422,1.133,1.969
	c1.091,1.185,2.177,2.378,3.272,3.561c-1.104,1.209-2.072,2.529-2.726,4.104c-0.401,0.966-0.85,1.912-1.38,3.105
	c-2.573,0.657-4.895,1.755-7.023,3.263c-1.843,1.306-3.706,2.586-5.517,3.935c-0.837,0.622-1.623,1.335-2.349,2.088
	c-4.579,4.778-7.352,10.555-9.224,16.82c-0.163,0.539-0.245,1.102-0.336,1.659c-0.563,3.464-0.556,3.52-4.108,3.866
	c-4.42,0.431-8.304,1.937-11.381,5.247c-0.58,0.621-1.29,0.987-2.155,0.91c-3.221-0.286-5.873,1.151-8.164,3.096
	c-1.467,1.247-2.765,1.344-4.411,0.788c-2.246-0.761-4.557-1.116-6.908-0.525c-1.22,0.305-1.956-0.226-2.657-1.146
	c-1.124-1.471-2.388-2.832-3.52-4.298c-1.982-2.565-4.772-3.9-7.747-4.63c-5.985-1.466-11.691-0.58-16.921,2.825
	c-0.474,0.31-0.909,0.699-1.421,0.92c-2.793,1.211-4.662,3.405-6.294,5.844c-0.757,1.134-1.181,2.689-2.208,3.393
	c-1.114,0.764-2.763,0.736-4.166,1.102c-3.523,0.921-6.653,2.573-8.938,5.453c-1.062,1.34-2.242,2.095-3.887,2.569
	c-3.948,1.145-6.744,3.791-7.314,7.883c-0.349,2.509-1.534,3.686-3.595,4.497c-0.449,0.176-0.911,0.334-1.351,0.535
	c-1.759,0.805-3.577,1.511-5.25,2.47c-1.64,0.94-3.349,1.538-5.168,1.982c-2.349,0.574-4.676,1.259-6.977,2.005
	c-1.796,0.582-3.397,1.577-4.5,3.141c-0.973,1.381-1.807,2.859-2.644,4.33c-0.218,0.386-0.387,0.953-0.271,1.345
	c0.671,2.302,1.41,4.587,3.996,5.536c0.351,0.13,0.604,0.515,0.935,0.734c0.324,0.219,0.692,0.549,1.033,0.539
	c2.739-0.072,5.412,0.661,8.197,0.375c2.87-0.295,5.792-0.062,8.691-0.033c0.39,0.006,0.799,0.145,1.164,0.306
	c3.203,1.413,6.598,2.089,10.019,2.69c0.471,0.084,1.17,0.042,1.366,0.328c1.166,1.705,3.076,1.976,4.776,2.619
	c1.799,0.682,3.617,1.36,5.486,1.783c1.95,0.442,3.964,0.67,5.96,0.823c2.647,0.203,5.305,0.279,7.96,0.348
	c3.224,0.084,6.468-0.088,9.67,0.211c2.621,0.246,5.145,0.072,7.694-0.417c0.789-0.153,1.601-0.216,2.405-0.269
	c5.739-0.364,11.381-1.257,16.878-3.005c2.151-0.684,4.391-1.117,6.507-1.891c2.183-0.795,4.503-1.204,6.529-2.471
	c2.115-1.323,4.309-2.535,6.522-3.688c0.827-0.431,1.806-0.758,2.727-0.789c1.923-0.065,3.855,0.066,5.781,0.172
	c2.821,0.152,5.664,0.175,8.453,0.567c7.347,1.034,14.728,1.672,22.135,1.971c4.267,0.171,8.546,0.143,12.819,0.053
	c3.621-0.076,7.245-0.293,10.857-0.589c3.768-0.306,7.567-0.484,11.172-1.893c1.115-0.436,2.346-0.701,3.542-0.775
	c2.553-0.158,4.896-1.032,7.158-2.054c2.371-1.067,4.629-1.14,6.986-0.143c0.665,0.28,1.363,0.53,2.072,0.65
	c3.964,0.673,7.855,1.74,11.931,1.808c3.055,0.052,6.104,0.471,9.155,0.711c0.402,0.031,0.809,0.008,1.21-0.033
	c5.058-0.509,10.122-0.979,15.17-1.574c1.257-0.147,2.475-0.674,3.693-1.076c2.902-0.955,5.744-2.166,8.709-2.848
	c2.697-0.618,5.238-1.538,7.81-2.505c4.027-1.515,7.86-3.424,12.369-3.763c5.195-0.394,10.33-1.646,15.216-3.701
	c2.963-1.246,5.679-3.047,8.821-3.879c0.076-0.019,0.139-0.085,0.209-0.121c2.292-1.194,4.63-2.304,6.863-3.599
	c3.218-1.862,6.814-1.794,10.319-2.188c0.454-0.052,1.158,0.265,1.405,0.636c0.41,0.618-0.202,0.976-0.71,1.271
	c-0.346,0.203-0.7,0.417-0.987,0.689c-1.866,1.765-1.96,4.438-0.125,6.205c1.226,1.183,2.708,1.972,4.385,2.426
	c3.859,1.043,7.877,0.345,11.76,1.122c0.44,0.09,0.942-0.149,1.418-0.216c0.719-0.097,1.438-0.203,2.161-0.255
	c2.412-0.173,4.832-0.278,7.242-0.487c2.079-0.179,4.173-0.345,6.222-0.728c3.167-0.595,6.311-1.334,9.449-2.08
	c2.912-0.691,5.815-1.465,8.191-3.431c1.089-0.9,2.271-1.126,3.621-0.87c2.162,0.412,4.335,0.283,6.508,0.094
	c3.123-0.272,6.261-0.426,9.363-0.844c4.396-0.594,8.796-1.235,13.132-2.146c2.261-0.476,4.458-1.433,6.565-2.424
	c2.422-1.142,4.779-2.292,7.559-2.21c2.328,0.071,4.482-0.645,6.355-1.998c1.096-0.796,2.039-1.812,3.025-2.755
	c1.209-1.159,1.217-1.455,0.445-2.898c-0.876-1.64-2.218-2.627-3.837-3.162c4.129,0.076,8.494-0.763,12.851-2.586
	c6.305-2.64,12.635,2.834,10.307,8.25c-1.309,3.047-2.277,6.135-2.641,9.104c13.654,7.969,26.842,16.705,43.736,18.104
	c1.068,0.088,2.01,0.338,2.827,0.711c1.31-0.098,2.62-0.198,3.931-0.289c1-0.068,2.001-0.092,3-0.153
	c0.393-0.023,0.789-0.066,1.17-0.146c2.608-0.543,5.211-1.107,7.82-1.637c0.375-0.074,0.816-0.073,1.176,0.014
	c2.904,0.696,5.938,0.939,8.932,1.32c3.676,0.469,7.383,0.594,11.133,0.201c2.318-0.244,4.654-0.221,6.965-0.664
	c0.887-0.17,1.857-0.072,2.781-0.03c1.229,0.056,1.242,0.079,1.75-1.011c-2.369,0.14-4.365-0.684-6.391-1.388
	c-1.674-0.58-3.466-1.283-5.365-2.089c0-0.002,0-0.002,0-0.002c1.899,0.808,3.693,1.511,5.365,2.091
	c1.6,0.556,3.178,1.179,4.939,1.349c0.473-0.222,0.959-0.42,1.461-0.584c0.104,0.031,0.207,0.063,0.309,0.092
	c-0.094,0.17-0.183,0.337-0.271,0.502c0.83-0.163,1.666-0.307,2.488-0.498c0.709-0.166,1.404-0.377,2.096-0.59
	c0.496-0.155,1.094-0.254,1.441-0.535c1.673-1.355,3.721-2.143,5.916-2.722c0.502-0.132,1.053-0.223,1.57-0.209
	c2.131,0.057,4.25,0.23,6.383,0.223c1.66-0.005,3.335-0.175,4.996-0.34c2.186-0.217,4.363-0.486,6.54-0.768
	c0.448-0.057,0.863-0.298,1.312-0.401c0.773-0.178,1.564-0.42,2.344-0.44c0.979-0.023,1.953,0.278,2.857-0.381
	c0.16-0.116,0.645-0.028,0.939,0.052c1.598,0.436,3.272,0.438,4.941,0.324c2.195-0.147,4.396-0.141,6.584-0.609
	c1.066-0.23,2.258-0.104,3.379-0.039c0.953,0.055,1.783-0.062,2.713-0.355c1.627-0.511,3.391-0.711,5.039-1.183
	c2.48-0.708,4.909-1.534,7.357-2.319c0.375-0.121,0.715-0.334,1.096-0.427c3.14-0.767,4.043-3.638,3.275-5.416
	c-1.061-2.462-3.143-4.041-6.138-4.865c-1.728-0.476-3.565-0.77-5.394-0.981c-0.938-0.107-1.984,0.061-2.941,0.249
	c-1.188,0.231-2.225,0.278-3.148-0.423c-0.368-0.28-0.854-0.589-1.332-0.629c-2.453-0.201-3.283-1.682-4.088-3.156
	c-1.229-2.254-3.125-4.041-5.611-5.475c-5.129-2.959-10.891-3.971-17.309-2.994c-1.385,0.21-2.773,0.433-4.131,0.744
	c-1.839,0.421-3.111,1.498-4.316,2.621c-0.305,0.283-0.638,0.547-0.837,0.717c-2.618-0.51-5.093-0.991-7.562-1.473
	c-1.129-2.721-1.602-2.974-5.01-4.108c-3.744-1.246-7.371-1.004-10.939,0.468c-0.23-0.029-0.389-0.012-0.482-0.066
	c-2.436-1.419-2.314-1.25-1.389-3.637c0.252-0.65,0.783-1.247,1.195-1.865c1.587-2.365,2.279-4.847,1.453-7.383
	c-0.77-2.365-1.301-4.816-2.885-6.951c-0.489-0.664-0.983-1.323-1.57-2.107c0.498-0.082,0.912-0.195,1.328-0.211
	c2.338-0.095,4.641-0.436,6.941-0.812c2.438-0.399,4.877-0.791,7.308-1.227c1.638-0.294,3.249-0.814,4.894-0.942
	c2.059-0.16,3.842-0.914,5.75-1.396c0.541-0.137,1.17-0.113,1.738-0.064c1.711,0.143,3.416,0.316,5.117,0.512
	c1.369,0.158,2.727,0.361,4.211,0.561c0.201-0.314,0.371-0.953,0.625-0.976c0.49-0.044,1.01-0.091,1.605-0.144
	c0,0,0.107,0.371,0.027,0.469c-1.08,1.344-1.691,2.801-1.834,4.42c-1.814,0.477-3.031,1.408-3.682,2.812
	c-0.908,1.959-0.341,3.652,1.215,5.133c1.393,1.328,3.449,1.785,5.443,2.354c6.67,1.906,13.468,1.287,20.314,0.036
	c1.354-0.246,2.778-0.188,4.049-0.833c0.285-0.146,0.896,0.015,1.289,0.148c0.6,0.205,1.204,0.453,1.691,0.785
	c1.783,1.225,3.878,1.902,6.227,2.18c0.116,0.014,0.215,0.103,0.4,0.195c-0.074,0.176-0.107,0.395-0.246,0.559
	c-2.002,2.39-1.99,4.93-1.342,7.518c0.037,0.153,0.123,0.301,0.148,0.455c0.723,4.605,5.043,6.209,9.891,7.373
	c2.95-0.029,5.273,1.019,7.52,2.338c0.955,0.562,2.256,0.77,3.414,1.11c0.615,0.181,1.279,0.266,1.889,0.451
	c3.26,0.991,6.654,1.304,10.189,1.005c1.728-0.147,3.461-0.234,5.373-0.359c0.264-0.596,0.836-1.155,1.869-1.26
	c0.854-0.086,1.707-0.154,2.635-0.238c0.047-0.237,0.066-0.438,0.125-0.635c0.283-0.982,1.098-1.465,2.291-1.293
	c0.977,0.139,1.945,0.327,2.893,0.546c3.439,0.798,6.91,1.292,10.598,0.849c1.299-0.155,2.648,0.029,3.971,0.093
	c0.668,0.032,1.439,0.204,1.857-0.327c0.783-0.996,1.918-1.113,3.156-1.076c0.709,0.021,1.244-0.023,1.652-0.65
	c0.24-0.367,0.871-0.674,1.4-0.83c4.205-1.244,7.455-3.507,10.371-6.135c0.406-0.365,0.762-0.764,1.152-1.14
	c0.461-0.444,1.043-0.683,1.768-0.668c2.798,0.056,5.43-0.544,8.006-1.467c1.357-0.486,2.803-1.157,4.18-1.161
	c1.355-0.004,2.666,0.746,4.012,1.137c4.494,1.305,9.1,2.146,14.043,1.547c2.854-0.347,5.711-0.648,8.562-1.011
	c0.579-0.073,1.132-0.321,1.698-0.486c3.695-1.081,7.1-2.685,10.654-4.003c5.461-2.023,9.846-4.895,13.188-8.836
	c1.133-1.335,1.955-1.633,3.895-1.314c0.518,0.085,1.019,0.224,1.529,0.329c1.166,0.239,2.33,0.517,3.373-0.368
	c0.123-0.105,0.365-0.132,0.559-0.178c2.06-0.498,4.127-0.973,6.178-1.498c0.494-0.127,0.971-0.369,1.391-0.627
	c1.619-0.986,3.152-2.028,4.498-3.281c0.945-0.883,2.159-1.58,2.893-2.635c0.387-0.559,0.908-1.02,0.988-1.717
	c0.098-0.839,0.84-1.332,1.924-1.392c1.061-0.056,2.123-0.067,3.184-0.097c0.947-0.025,1.84,0.027,2.107-1.057
	c0.096-0.397,0.869-0.807,1.438-1.037c1.582-0.643,2.421-1.74,2.951-2.949c0.26-0.594,0.65-0.874,1.271-1.124
	c5.512-2.222,9.828-5.571,13.74-9.292c0.52-0.494,0.891-1.084,1.314-1.635c0.178-0.23,0.244-0.586,0.489-0.695
	c1.329-0.596,1.402-1.639,1.888-2.604C809.185,168.512,808.867,166.152,808.282,163.771z M416.93,223.359
	c-0.013-0.019-0.028-0.033-0.041-0.051c0.086,0.027,0.174,0.052,0.26,0.078C417.075,223.377,417.003,223.369,416.93,223.359z"/>
</svg>
