<svg viewBox="0 0 55 55">
  <g class="cloud">
    <path d="M13.07,6.46c.48-1,.9-1.85,1.3-2.71a4.81,4.81,0,0,1,4-3C20.71.49,23.09.17,25.48,0a7.86,7.86,0,0,1,2.8.49A3.7,3.7,0,0,1,30.86,3c.14.45.34.88.56,1.42.6,0,1.15.09,1.7.08s1.15-.11,1.72-.11a5.45,5.45,0,0,1,5.85,4.82c.24,1.21.29,2.46.44,3.92a18.49,18.49,0,0,0,2,.74c4.58,1.22,5.26,1.82,6.78,6.24,1.26.56,2.76,0,4.5.52a4.65,4.65,0,0,1-1.08.58c-2.84.38-5.68.95-8.54,0a9,9,0,0,0-2-.23c-7.07-.71-14.16-1-21.27-1-3.74,0-7.48-.32-11.21-.42-2.39-.07-4.79,0-7.31,0C2.3,18.81,1.7,18.06,1,17.42a3.14,3.14,0,0,1-.92-3.15A7.58,7.58,0,0,1,4,8.84,16.07,16.07,0,0,1,13.07,6.46ZM2.59,17c.83,1,2,1,3.15,1,3,.07,5.95.17,8.92.25,5.18.14,10.35.25,15.53.42q5.17.18,10.34.51a28.51,28.51,0,0,0,6.55.15c.23-1.17-.54-1.83-1.14-2.54a2.67,2.67,0,0,0-2-.94c-1.15,0-2.3,0-3.44-.14A1.66,1.66,0,0,1,38.85,14c0-.67.1-1.34.09-2a12.45,12.45,0,0,0-.2-2.57c-.65-2.72-2.5-3.76-5.18-3-.74.21-1.44.55-2.17.75a1.48,1.48,0,0,1-2.09-1.3c-.12-.66-.16-1.33-.24-2A2.3,2.3,0,0,0,27.53,2a7.09,7.09,0,0,0-2.21-.51A21.46,21.46,0,0,0,19,2.11a4.61,4.61,0,0,0-3.47,3.13c-.34,1-.52,2-.8,3.05s-.91,1.36-1.7.85A5.64,5.64,0,0,0,8.65,8.5a11.71,11.71,0,0,0-5.45,3.08A5.7,5.7,0,0,0,1.79,15a2.32,2.32,0,0,0,.84,2Z"/><path class="cls-1" d="M2.63,17a2.32,2.32,0,0,1-.84-2,5.7,5.7,0,0,1,1.42-3.4A11.71,11.71,0,0,1,8.65,8.5a5.64,5.64,0,0,1,4.43.64c.79.51,1.45.09,1.7-.85s.46-2.06.8-3.05A4.6,4.6,0,0,1,19,2.11a21.45,21.45,0,0,1,6.27-.67,7.12,7.12,0,0,1,2.21.51A2.3,2.3,0,0,1,29,3.9c.08.67.12,1.34.24,2a1.48,1.48,0,0,0,2.09,1.3c.74-.2,1.44-.54,2.17-.75,2.68-.77,4.53.27,5.18,3a12.37,12.37,0,0,1,.2,2.57c0,.67-.12,1.34-.09,2a1.66,1.66,0,0,0,1.62,1.7c1.14.11,2.3.09,3.44.14a2.67,2.67,0,0,1,2,.94c.6.71,1.36,1.37,1.14,2.54a28.62,28.62,0,0,1-6.55-.15q-5.16-.33-10.34-.51c-5.17-.18-10.35-.28-15.53-.42-3-.08-5.94-.18-8.92-.25-1.17,0-2.32,0-3.15-1C5,17.25,6.9,16,8.8,14.91l-.87-2.52c-2-.2-3.82-.23-4.27,2.4-.05.32-.56.53-.71.86A6.91,6.91,0,0,0,2.63,17ZM34,10a21.79,21.79,0,0,0,1.74-1.89c.12-.16-.1-.72-.32-.95a.93.93,0,0,0-1.3,0c-.6.45-1.1,1.06-2,1.08a1.79,1.79,0,0,0-1.9,1.39c-.11.37-.74.56-1,.91s-.43.76-.32,1,.63.83,1,.85a6.68,6.68,0,0,0,4.33-.92ZM22,9.06a6.14,6.14,0,0,0-4.6-.62,1,1,0,0,0-.48,1.73,1.68,1.68,0,0,1,.52,1.74.72.72,0,0,0,.88.85A4,4,0,0,0,21,11.41l-1.42-1.17c.49-.22.83-.37,1.17-.54S21.6,9.28,22,9.06ZM11.74,10a1.85,1.85,0,0,0-.14-.41C11,8.82,10.24,9,9.51,9.2s-1.78.06-2.32.9a.91.91,0,0,0-.1.79c.18.28.57.63.83.61A6.62,6.62,0,0,0,11.74,10Zm9.22-4c-.62-1.12-1.52-.8-2.33-.67-.57.09-1.17.24-1.35.89-.05.2.14.66.27.69A3.81,3.81,0,0,0,21,5.95Zm2.68-2.49c-.85-1.16-1.93-1-3-.67a.85.85,0,0,0-.42.67.88.88,0,0,0,.42.68A2.28,2.28,0,0,0,23.63,3.45ZM31,12.85a2.44,2.44,0,0,0-.82.35c-.15.16-.27.57-.18.69a1.32,1.32,0,0,0,.84.57A2.5,2.5,0,0,0,32,14c.08,0,0-.57-.13-.7A3.42,3.42,0,0,0,31,12.85Z"/>
  </g>
</svg>
