<svg xmlns="http://www.w3.org/2000/svg" viewBox="0 0 48.55 38.6"><defs><style>.bf1-cls-1{fill:#faba4b;}.bf1-cls-2{fill:#231f20;}</style></defs><title>Asset 1</title><g id="Layer_2" data-name="Layer 2"><g id="Layer_1-2" data-name="Layer 1"><g id="Layer_5" data-name="Layer 5"><path class="bf1-cls-1" d="M.06,0S16.76,32,46,24.76c0,0-32.62,19.69-45.31,11.44"/><path class="bf1-cls-2" d="M.11,0C.73,1,1.38,2,2.05,2.92S3.43,4.8,4.13,5.73,5.58,7.56,6.34,8.44,7.88,10.18,8.68,11s1.62,1.66,2.45,2.47l1.28,1.18,1.32,1.13c.89.74,1.79,1.47,2.72,2.16.46.36.92.7,1.41,1s.94.68,1.43,1l1.47.93,1.51.85c.5.29,1,.52,1.55.78s1,.5,1.59.71a33.56,33.56,0,0,0,3.28,1.18,33.21,33.21,0,0,0,3.41.75c1.14.22,2.31.27,3.47.38A28.32,28.32,0,0,0,39,25.49c.58-.05,1.16-.08,1.73-.15l1.72-.27a15.49,15.49,0,0,0,1.7-.35l1.69-.4,2.66-.63-2.32,1.45c-1.72,1.08-3.48,2.07-5.26,3.06S37.4,30.08,35.58,31,31.92,32.72,30,33.5c-.94.39-1.87.78-2.82,1.14s-1.91.7-2.87,1-1.93.64-2.91.93-2,.54-2.95.78L17,37.73l-1.5.29c-.5.1-1,.16-1.51.24s-1,.15-1.52.19c-1,.11-2,.14-3.06.15l-1.54,0-1.53-.16c-.51-.08-1-.19-1.51-.29s-1-.3-1.47-.44S2.43,37.24,2,37s-.87-.53-1.3-.79l.07-.11c.45.22.9.45,1.35.66s.93.35,1.41.48,1,.24,1.45.32l1.48.18,1.49.07,1.49,0c1-.07,2-.16,3-.31.49-.06,1-.14,1.48-.24s1-.17,1.47-.29l1.46-.33,1.45-.38c1-.27,1.92-.55,2.87-.87s1.9-.62,2.84-1c1.88-.69,3.75-1.4,5.6-2.17s3.7-1.57,5.51-2.41,3.62-1.73,5.41-2.64,3.57-1.85,5.32-2.83l.34.82-1.75.32a15.47,15.47,0,0,1-1.75.26L40.85,26c-.59,0-1.18,0-1.77.07l-.88,0-.89,0L35.54,26c-1.17-.13-2.35-.2-3.51-.44s-2.31-.46-3.46-.73-2.27-.64-3.37-1.06c-.56-.19-1.12-.39-1.65-.63s-1.1-.44-1.63-.71l-1.59-.78-1.55-.86c-.53-.28-1-.61-1.52-.93s-1-.65-1.47-1c-1-.67-1.89-1.43-2.8-2.18L11.65,15.5l-1.28-1.22Q9.11,13,7.93,11.71A56.89,56.89,0,0,1,3.57,6.14c-.67-1-1.31-2-1.9-3S.5,1.13,0,.06Z"/></g></g></g></svg>
