<svg xmlns="http://www.w3.org/2000/svg" viewBox="0 0 48.48 36.19"><defs><style>.bf4-cls-1{fill:#faba4b;}.bf4-cls-2{fill:#231f20;}</style></defs><title>Asset 4</title><g id="Layer_2" data-name="Layer 2"><g id="Layer_1-2" data-name="Layer 1"><g id="flag_3" data-name="flag 3"><path class="bf4-cls-1" d="M.65,35.9S28.54,38.35,47.54,16C47.54,16,20.27,21.5,0,0"/><path class="bf4-cls-2" d="M.66,35.84a58.62,58.62,0,0,0,6.56-.34c1.09-.1,2.17-.25,3.25-.41s2.15-.37,3.22-.56,2.13-.44,3.2-.69S19,33.29,20,33s2.08-.63,3.11-1,2-.73,3.07-1.12,2-.8,3-1.26,2-.94,2.95-1.42,1.93-1,2.86-1.61,1.84-1.18,2.75-1.8c.45-.31.88-.66,1.32-1s.88-.66,1.29-1c.83-.71,1.67-1.42,2.45-2.18s1.56-1.54,2.3-2.34,1.43-1.65,2.15-2.48l.32.55c-1.09.23-2.17.38-3.26.51s-2.18.21-3.27.25-2.19.06-3.28.06-2.19-.07-3.28-.15-2.18-.2-3.27-.33l-1.63-.24L28,16.12c-1.08-.21-2.15-.44-3.21-.73s-2.12-.59-3.16-.92-2.07-.72-3.09-1.14-2-.87-3-1.33-2-1-2.91-1.55S10.73,9.31,9.8,8.73c-.46-.3-.9-.62-1.35-.94s-.89-.63-1.32-1l-1.29-1C5.42,5.45,5,5.08,4.6,4.72,3.76,4,3,3.24,2.22,2.48S.73.88,0,.08L.09,0C.9.72,1.66,1.49,2.49,2.19S4.13,3.6,5,4.25c.43.33.84.67,1.28,1l1.32.93c.44.32.89.61,1.35.89s.9.59,1.36.87c.93.54,1.85,1.11,2.81,1.59s1.92,1,2.89,1.42c.48.23,1,.42,1.48.63s1,.42,1.49.6c1,.4,2,.74,3,1.07s2,.64,3.09.9,2.08.5,3.13.74l1.58.31,1.59.26c1.06.15,2.13.29,3.2.39s2.14.16,3.22.22,2.15.07,3.23.05S43.21,16,44.28,16s2.15-.17,3.2-.33l1-.16-.68.71c-.76.8-1.49,1.64-2.28,2.4s-1.57,1.55-2.4,2.28-1.65,1.46-2.5,2.16-1.73,1.37-2.61,2S36.23,26.37,35.3,27s-1.86,1.19-2.8,1.78-1.91,1.11-2.91,1.6-2,1-3,1.44-2,.86-3.09,1.21-2.1.71-3.17,1-2.14.56-3.22.81-2.17.45-3.26.64-2.19.33-3.29.44-2.2.2-3.31.25-2.21.06-3.31,0A31.89,31.89,0,0,1,.65,36Z"/></g></g></g></svg>
