<svg xmlns="http://www.w3.org/2000/svg" viewBox="0 0 48.02 36.45"><defs><style>.bf3-cls-1{fill:#faba4b;}.bf3-cls-2{fill:#231f20;}</style></defs><title>Asset 3</title><g id="Layer_2" data-name="Layer 2"><g id="Layer_1-2" data-name="Layer 1"><g id="flag_2" data-name="flag 2"><path class="bf3-cls-1" d="M.38.19S2.93,5.8,14.8,6.72,43.3,4,47.59,13c0,0-3.82-1.77-9.81,2.15-8,5.21-12.87,17-36.77,21.33"/><path class="bf3-cls-2" d="M.11,0A8.7,8.7,0,0,0,2.27,2.27,15.79,15.79,0,0,0,5,3.87a24,24,0,0,0,6,1.77,40.31,40.31,0,0,0,6.31.52c2.12,0,4.25,0,6.39,0s4.28,0,6.42.07,4.29.19,6.42.44a21.52,21.52,0,0,1,6.26,1.58A10.66,10.66,0,0,1,45.58,10a9,9,0,0,1,2,2.63l.42.81-.9-.32A7.25,7.25,0,0,0,44,12.88a12.1,12.1,0,0,0-3.12.82A17.45,17.45,0,0,0,38,15.23a24,24,0,0,0-2.61,2c-1.66,1.44-3.21,3.06-4.81,4.63a63.18,63.18,0,0,1-5,4.54,45.54,45.54,0,0,1-5.63,3.81l-1.5.81c-.51.25-1,.51-1.52.75q-1.54.72-3.12,1.33c-.53.2-1.06.41-1.59.59l-1.61.52L9,34.68l-1.63.43c-1.09.27-2.19.51-3.3.71s-2.21.38-3.32.54l0-.12c1.09-.27,2.18-.51,3.26-.81s2.15-.6,3.22-.92L8.75,34l1.57-.56c1-.39,2.07-.8,3.1-1.23s2-.91,3-1.41c.5-.25,1-.52,1.47-.78l1.43-.84c.94-.58,1.88-1.16,2.78-1.81s1.78-1.31,2.65-2c1.73-1.38,3.36-2.88,5-4.42s3.2-3.13,5-4.59a22.54,22.54,0,0,1,2.78-2,18.44,18.44,0,0,1,3.08-1.54A12.21,12.21,0,0,1,43.92,12a7.9,7.9,0,0,1,3.5.44l-.48.49a8.11,8.11,0,0,0-1.75-2.52,9.69,9.69,0,0,0-2.56-1.77,16,16,0,0,0-3-1,23,23,0,0,0-3.13-.56c-1.06-.12-2.12-.19-3.18-.21s-2.13,0-3.2,0c-2.13.06-4.26.17-6.4.28s-4.28.15-6.44.09a41.14,41.14,0,0,1-6.45-.67A21.78,21.78,0,0,1,4.69,4.45,13.33,13.33,0,0,1,2,2.59,8.13,8.13,0,0,1,0,.05Z"/></g></g></g></svg>
