<svg xmlns="http://www.w3.org/2000/svg" viewBox="0 0 47.88 37.21"><defs><style>.bf2-cls-1{fill:#faba4b;}.bf2-cls-2{fill:#231f20;}</style></defs><title>Asset 2</title><g id="Layer_2" data-name="Layer 2"><g id="Layer_1-2" data-name="Layer 1"><g id="flag_1" data-name="flag 1"><path class="bf2-cls-1" d="M0,0S12.23,11.18,24.1,12.1s21.37,2.15,23.15,7.35c0,0-3.82-1.77-9.81,2.15-8,5.21-12.63,11.64-24.21,14.1S.67,36.31.67,36.31"/><path class="bf2-cls-2" d="M.08,0C1.79,1.37,3.58,2.63,5.4,3.84S9.1,6.16,11,7.2a43.1,43.1,0,0,0,5.92,2.68,32.18,32.18,0,0,0,6.24,1.63c1.05.15,2.17.25,3.25.37l3.28.39c2.18.29,4.35.61,6.52,1A33.15,33.15,0,0,1,42.6,15a11.88,11.88,0,0,1,2.94,1.62,6.31,6.31,0,0,1,2.06,2.74l.28.73-.78-.28a7,7,0,0,0-3-.27,11.68,11.68,0,0,0-3,.74,15.61,15.61,0,0,0-2.79,1.4l-.66.42-.66.46c-.44.31-.88.62-1.3.93-1.71,1.25-3.36,2.61-5,4-.84.67-1.68,1.34-2.54,2s-1.76,1.27-2.67,1.87c-.46.29-.92.59-1.39.87l-1.43.8-1.47.73c-.5.23-1,.43-1.5.65s-1,.39-1.54.58-1,.35-1.56.49c-1,.33-2.11.54-3.17.78s-2.11.39-3.19.55c-.53.08-1.07.15-1.61.21s-1.07.12-1.62.16a24,24,0,0,1-3.25.09A11.3,11.3,0,0,1,2.13,37a4.77,4.77,0,0,1-.8-.22,1.5,1.5,0,0,1-.71-.46l.11-.06a1.45,1.45,0,0,0,.67.31,5.38,5.38,0,0,0,.77.13,10.93,10.93,0,0,0,1.58,0,31.15,31.15,0,0,0,3.17-.33c.53-.08,1.05-.16,1.58-.26s1-.19,1.57-.31c1-.19,2.1-.44,3.13-.67s2.05-.51,3.05-.86c.5-.16,1-.32,1.49-.52s1-.35,1.47-.58,1-.42,1.44-.65l1.4-.72L23.43,31c.45-.27.9-.56,1.34-.84,1.77-1.16,3.46-2.44,5.16-3.75s3.38-2.64,5.16-3.9c.44-.32.89-.62,1.34-.91l.67-.44.71-.43a16.49,16.49,0,0,1,3-1.42,11.72,11.72,0,0,1,3.25-.7,7.69,7.69,0,0,1,3.36.45l-.5.45A5.56,5.56,0,0,0,45.17,17a10.77,10.77,0,0,0-2.74-1.66,28.49,28.49,0,0,0-6.28-1.74c-2.15-.37-4.33-.59-6.52-.75l-3.28-.21c-1.1-.07-2.17-.1-3.3-.2a24.72,24.72,0,0,1-3.3-.59,28.59,28.59,0,0,1-3.19-1,44.24,44.24,0,0,1-6-2.86A53.41,53.41,0,0,1,5,4.37C4.14,3.72,3.28,3,2.44,2.31S.78.87,0,.09Z"/></g></g></g></svg>
