<?xml version="1.0" encoding="utf-8"?>
<!-- Generator: Adobe Illustrator 21.0.2, SVG Export Plug-In . SVG Version: 6.00 Build 0)  -->
<svg version="1.1" id="Layer_1" xmlns="http://www.w3.org/2000/svg" xmlns:xlink="http://www.w3.org/1999/xlink" x="0px" y="0px"
	 viewBox="0 0 87.6 119.5" style="enable-background:new 0 0 87.6 119.5;" xml:space="preserve">
<style type="text/css">
	.st0{stroke:#000000;stroke-width:0.4994;stroke-miterlimit:10;}
	.st1{fill:#FFFFFF;}
	.st2{fill:#FFF5BA;}
	.st3{fill:#221F1F;}
	.st4{fill:#EFA8EA;}
</style>
<g id="cat_1_" transform="matrix(1, 0, 0, 1, -11.660955, -103.05983)">
	<g>
		<path d="M64.9,216c5.2-2.8,4.4-13.3,4.1-18.2c-0.6-11.4-6.5-24-13.2-33c-1.8-2.4-4.8-4.4-5-7.7c-0.2-3,2.7-3,4.9-4
			c4.6-2.2,8.9-5.8,10.4-10.9c0.7-2.3,0.8-4.7,0.5-7c-0.3-2.4-1.7-4.8-1.6-7.1c0.1-2,1.4-3.8,2.1-5.6c0.6-1.5,1.3-3,1.7-4.5
			c0.8-2.6,1.4-5.3,2-8c0.2-0.7,0.3-1.4,0.3-2.1c0-0.4-0.1-0.7-0.6-0.7c-0.9-0.1-1.7-0.3-2.6-0.4c-0.2,0-0.5-0.1-0.7-0.1
			c-1.8,0.6-3.6,1.2-5.3,2c-2.3,1.1-4.5,2.2-6.9,2.9c-0.4,0.1-1,0.1-1.4,0c-1.9-0.5-3.7-1.1-5.6-1.6c-3.1-0.7-6.2-1.3-9.4-0.8
			c-1.5,0.3-3,0.5-4.5,0.8c-1.1,0.2-2.2,0.6-3.3,0.8c-0.2,0-0.5-0.1-0.7-0.2c-0.8-0.4-1.5-1-2.2-1.4c-1.7-0.9-3.5-1.7-5.2-2.5
			c-2.1-0.9-4.2-1.7-6.1-3c-0.6-0.4-1.2-0.9-2-0.8c-2.3,0.3,0.7,15.6,0.6,18.1c-0.1,2.6-0.4,5-1.2,7.4c-2.5,7.2-1.5,15.1,4,20.3
			c0.5,0.5,1,0.9,1.5,1.3c3.8,2.9,12.2,4.3,8.8,10.8c-5,9.3-9,17.8-10.5,28.4c-1.1,7.2,0.2,13.9,0.3,20.9"/>
		<path d="M93.5,159.6c-3.1-3.5-7.5-5.8-12.2-5.7c-1.8,0-4.4,1-5.3,2.7c-1.2,2.1,0.9,3.2,2.6,3.4c4.6,0.6,8.8-0.8,11.9,3.6
			c3.6,5.2,2.3,12.7,0.1,18.2c-1,2.4-2.1,4.7-4.1,6.5c-1.6,1.5-3.2,2.9-5.1,3.9c-1.2,0.7-2.4,0.9-3.7,1.2c-1.8,0.4-3.6,1-5.4,1.3
			c-1,0.2-2.1,0.2-3.2,0.3c-0.9,0.1-1.8,0.1-2.8,0.2c0.2,2.1,0.4,4.3,0.6,6.4c0.1,0,0.2,0,0.3,0c6.1-0.6,11.8-1.3,17.1-4.8
			c4.8-3.1,9-7.3,11.3-12.6c0.6-1.5,1.3-2.9,1.7-4.4C98.8,173,98.2,165,93.5,159.6z"/>
		<path d="M67.1,206.3c-0.1-1.6-0.2-3.1-0.3-4.7c-0.5,0-1,0-1.4,0.2c-0.3,0.1-0.7,0.4-0.7,0.7c-0.1,1.6-0.2,3.3-0.3,4.9
			c-0.1,1.4,0,2.9-0.3,4.3c-0.2,1.3-0.5,2.6-1.3,3.6c-0.2,0.3-0.5,0.5-0.8,0.7c-1.5,1.2-3.1,1.9-4.9,2.6c-2.4,1-4.8,1.1-7.3,1.3
			c-1.6,0.1-3.1,0.2-4.7,0.2c-2.5,0-5-0.1-7.4-0.7c-2-0.5-3.9-1-5.9-1.4c-1.1-0.2-2.3-0.3-3.4-0.3c-1.7-0.1-3.5,0.1-5.2-0.1
			c-1.7-0.2-3.4-0.4-4.9-1.4c-0.5-0.3-1-0.7-1.4-1c-1.6-1.3-0.9-2.8,0.2-3.6c0.5-0.4,0.6-0.7,0.6-1.3c0-0.3,0-0.6,0-1
			c0.1,2.1-2.3,3-2.7,4.9c-0.6,2.6,2.7,4.2,4.8,4.6c0.3,0,0.5,0.1,0.8,0.1c3.9,0.3,8.3-0.3,10.6,0.1c10.5,1.8,22.1,3.6,32-1.2
			c0.7-0.4,1.4-0.8,2-1.4C67.8,213.7,67.3,209.7,67.1,206.3z"/>
		<path d="M21.2,148.9c0.4,0.2,0.8,0.4,1.2,0.6c0.5,0.2,1.1,0.4,1.6,0.6c1.6,0.7,3.1,1.3,4.8,1.7l-13.2-15
			C16.3,141.4,18.2,145.7,21.2,148.9z"/>
		<path class="st0" d="M29.8,111.8c-0.5,0.3-0.8,0.5-1.1,0.7c0,0.1,0,0.2,0,0.2c0.3,0,0.6,0,0.9,0c0.5,0,1.1-0.1,1.6-0.2
			c0.1,0,0.3-0.1,0.3-0.1c0.2-0.7,0.9-0.7,1.4-0.8c2.1-0.5,4.1-1,6.2-1.3c1.5-0.2,3.1-0.1,4.6,0.1c2.3,0.3,4.6,0.8,6.9,1.4
			c1.4,0.3,2.7,0.9,4.1,1.4c0.2,0.1,0.3,0.4,0.5,0.4c0.4,0.1,0.7,0,1.1,0c0-0.3-0.1-0.7-0.1-1.2c0.2-0.1,0.5-0.2,0.9-0.3
			c1.8-0.8,3.5-1.6,5.3-2.3c1.2-0.5,2.4-0.8,3.5-1.3c0.2-0.1,0.3-0.2,0.5-0.2c0.7-0.3,1.4-0.5,2.1-0.2c0.5,0.2,1,0.2,1.7,0.3
			c-0.4,1.6-0.9,3.2-1.3,4.8c-0.2,0.8-0.5,1.6-0.6,2.4c-0.4,2.2-1.2,4.2-2.1,6.3c-0.4,0.8-0.8,1.7-1.2,2.5c-1.8,3.2-0.2,6.5,0.1,9.9
			c0.3,3.8-0.1,7.7-2.2,10.9c-3.4,5.3-10.1,6.6-15.4,9.3c-1.1,0.6-2.1,1.4-2.6,2.6c-0.2,0.6-0.5,1.1,0,1.9c0.8-1.9,2.1-3.2,3.9-3.8
			c0.2,1.3,0.3,2.6,0.6,3.8c0.3,1.2,0.9,2.2,1.5,3.3c0.5,1,1.2,2,1.7,2.9c0.2,0.4,0.5,0.8,0.7,1.1c2.1,2.9,3.7,6.1,4.9,9.5
			c0.5,1.3,1.1,2.6,1.5,4c0.7,2.3,1.4,4.6,2,6.9c0.6,2.1,1.2,4.1,1.7,6.2c0.2,0.8,0.4,1.7,0.6,2.6c1.7-0.1,3.4-0.2,5-0.4
			c1.1-0.1,2.2-0.1,3.2-0.3c1.8-0.4,3.6-0.9,5.4-1.3c1.3-0.3,2.5-0.6,3.7-1.2c1.9-1.1,3.5-2.5,5.1-3.9c2-1.8,3.1-4.1,4.1-6.5
			c1.9-4.5,2.8-10.1,1.3-14.8c-2.1-6.7-6.8-6.7-12.9-7c-0.8,0-1.5-0.2-2.2-0.5c-1.1-0.5-1.4-2.2-0.4-3.2c1.4-1.4,3.1-2.4,5.1-2.4
			c2.9,0.1,5.7,0.5,8.2,2.2c7.7,5.2,9.7,14.9,7.6,23.6c-0.4,1.5-1.1,3-1.7,4.4c-1,2.3-2.4,4.4-4.1,6.3c-1.1,1.3-2.3,2.6-3.6,3.7
			c-1.9,1.5-3.9,2.8-5.9,4c-2.3,1.5-5,2.1-7.6,2.6c-2.4,0.4-4.8,0.5-7.2,0.8c-0.6,0.1-1.2,0-1.7,0.2c-0.3,0.1-0.7,0.4-0.7,0.7
			c-0.1,1.6-0.2,3.3-0.3,4.9c-0.1,1.4,0,2.9-0.3,4.3c-0.2,1.3-0.5,2.6-1.3,3.6c-0.2,0.3-0.5,0.5-0.8,0.7c-1.5,1.2-3.1,1.9-4.9,2.6
			c-2.4,1-4.8,1.1-7.3,1.3c-1.6,0.1-3.1,0.2-4.7,0.2c-2.5,0-5-0.1-7.4-0.7c-2-0.5-3.9-1-5.9-1.4c-1.1-0.2-2.3-0.3-3.4-0.3
			c-1.7-0.1-3.5,0.1-5.2-0.1c-1.7-0.2-3.4-0.4-4.9-1.4c-0.5-0.3-1-0.6-1.4-1c-1.6-1.3-0.9-2.8,0.2-3.6c0.5-0.4,0.6-0.7,0.6-1.3
			c-0.1-2.5-0.2-4.9,0.1-7.4c0.4-3.4,1.2-6.7,1.9-10.1c0.8-3.6,2.4-6.9,3.9-10.1c0.5-1,0.8-2.2,1.3-3.2c0.8-2,1.7-3.9,2.5-5.9
			c0.6-1.4,1-2.9,1.5-4.4c0.7-2.7,1.5-5.4,2.1-8.1c1.4-6.1-5.5-8.7-9.7-11c-8.1-4.5-8.3-12.7-7-21c0.2-1.4,0.6-2,1.4-3.2
			c0.6-0.9,0.7-1.7,1-2.7c0.3-0.9,0-2-0.2-3c-0.2-1.6-0.6-3.2-0.6-4.9c0-3-0.9-5.9-0.9-8.9c0-0.6,0-1.1,0-1.9
			c0.9,0.6,1.8,1.1,2.7,1.6c1,0.5,2,1,3.1,1.5c1.9,0.9,3.8,1.7,5.7,2.6c0.9,0.4,1.8,0.9,2.7,1.4C29.4,111.4,29.5,111.5,29.8,111.8z
			 M60.1,129.1c0-2.4-0.6-4-1.8-5.2c-1.2-1.1-2.5-2.2-4-2.9c-0.3-0.1-0.6-0.2-0.9-0.2c-1.1,0.1-2.2,0.4-3.3,0.6
			c-1.1,0.2-2.2,0.5-3,1.3c-1.2,1.1-2.2,2.3-2.8,4c-0.9,2.6-0.8,5,1,7.2c0.7,0.8,1.5,1.6,2.5,2.1c0.9,0.4,2.1,0.5,3.1,0.7
			c2.4,0.3,4.5-0.1,6.4-1.7C59.3,133.2,60,131,60.1,129.1z M38.6,129.9c0-2.2-0.5-3.8-1.6-5.1c-0.7-1-1.8-1.6-2.8-2.3
			c-2.1-1.4-4.3-1.2-6.5-0.5c-2.1,0.8-3.4,2.3-4.2,4.4c-0.6,1.5-0.9,3-0.5,4.6c0.2,0.8,0.6,1.7,1,2.4c1,1.8,2.5,3.1,4.5,3.5
			c2.7,0.6,5.2,0,7.5-1.7C37.9,133.7,38.5,131.7,38.6,129.9z M47.4,140.1c-0.3,0.5-0.5,1-0.8,1.5c-0.9,1.6-2.2,2-3.7,1
			c-1.4-0.9-1.6-2.2-0.8-3.5c0.4-0.6,0.8-1.1,1.1-1.7c0.1-0.2,0.2-0.6,0.1-0.8c-0.4-0.4-0.9-0.9-1.4-1c-1-0.1-2.1-0.1-3.1,0
			c-0.3,0-0.6,0.4-0.8,0.7c-0.1,0.1,0.3,0.5,0.4,0.7c0.6,0.9,1.1,1.8,1.6,2.7c0,0.1,0,0.2,0,0.3c-0.4,1.4-1.6,2.5-3.3,1.9
			c-0.9-0.3-1.7-0.7-2.1-1.6c-0.1-0.2-0.3-0.3-0.5-0.5c-0.6,0.6-0.4,1.1-0.1,1.6c0.7,1.2,2.8,2.1,4.2,1.7c0.8-0.3,1.6-0.7,2.4-1.1
			c0.2,0.2,0.4,0.4,0.6,0.6c0.9,1,1.8,1.6,3.2,1.5c1.5-0.1,2.5-0.7,2.9-2.1c0.1-0.3,0.2-0.7,0.3-1C48.1,140.8,47.9,140.5,47.4,140.1
			z"/>
		<path d="M60.1,129.1c-0.1,1.9-0.8,4.1-2.8,5.8c-1.9,1.6-4.1,2-6.4,1.7c-1.1-0.1-2.2-0.2-3.1-0.7c-0.9-0.5-1.8-1.2-2.5-2.1
			c-1.7-2.2-1.8-4.6-0.9-7.2c0.5-1.6,1.6-2.8,2.8-4c0.8-0.8,1.9-1.1,3-1.3c1.1-0.2,2.2-0.4,3.3-0.6c0.3,0,0.6,0.1,0.9,0.2
			c1.5,0.7,2.8,1.7,4,2.9C59.6,125.1,60.1,126.7,60.1,129.1z M52.3,135.7c1-0.2,1.7-0.2,2.4-0.5c2.6-0.9,4.4-3.6,4.3-6.2
			c0-1.7-0.4-3.3-1.7-4.5c-0.9-0.8-1.9-1.4-2.8-2.1c-0.2-0.1-0.4-0.2-0.6-0.2c-0.6,0-1.2,0-1.8,0c-2.3,0-4.3,0.9-5.6,2.8
			c-1.4,2-2.1,4.2-1.2,6.7c0.5,1.5,1.6,2.6,3,3.2C49.6,135.4,51.1,135.4,52.3,135.7z"/>
		<path d="M38.6,129.9c-0.1,1.8-0.7,3.9-2.7,5.4c-2.2,1.7-4.8,2.3-7.5,1.7c-2-0.4-3.5-1.7-4.5-3.5c-0.4-0.8-0.8-1.6-1-2.4
			c-0.5-1.6-0.1-3.1,0.5-4.6c0.8-2.1,2.1-3.6,4.2-4.4c2.2-0.8,4.4-0.9,6.5,0.5c1,0.7,2.1,1.4,2.8,2.3
			C38.1,126.1,38.6,127.7,38.6,129.9z M37.5,129.6c0-4-3.6-7.1-7.2-7.1c-3.5,0-6.6,3.5-6.4,7.2c0.2,3.2,2.9,6.5,7,6.3
			C34.9,135.8,37.3,133.4,37.5,129.6z"/>
		<path class="st1" d="M47.4,140.1c0.4,0.4,0.7,0.7,0.4,1.2c-0.2,0.3-0.2,0.7-0.3,1c-0.4,1.4-1.4,2-2.9,2.1
			c-1.4,0.1-2.4-0.6-3.2-1.5c-0.2-0.2-0.4-0.5-0.6-0.6c-0.8,0.4-1.6,0.9-2.4,1.1c-1.3,0.4-3.5-0.5-4.2-1.7c-0.3-0.5-0.5-1.1,0.1-1.6
			c0.2,0.2,0.4,0.3,0.5,0.5c0.4,0.9,1.2,1.3,2.1,1.6c1.7,0.5,2.9-0.6,3.3-1.9c0-0.1,0.1-0.3,0-0.3c-0.5-0.9-1.1-1.8-1.6-2.7
			c-0.1-0.2-0.5-0.6-0.4-0.7c0.2-0.3,0.5-0.7,0.8-0.7c1-0.1,2.1-0.2,3.1,0c0.5,0.1,1,0.6,1.4,1c0.1,0.1,0,0.5-0.1,0.8
			c-0.3,0.6-0.8,1.1-1.1,1.7c-0.9,1.4-0.6,2.6,0.8,3.5c1.5,1,2.9,0.7,3.7-1C46.9,141.2,47.2,140.7,47.4,140.1z M42,137
			c-0.7-0.5-1.5-0.5-2.1,0c0.3,0.6,0.6,1.2,1,1.9C41.3,138.2,41.6,137.6,42,137z"/>
		<path class="st2" d="M52.3,135.7c-1.2-0.2-2.7-0.3-4-0.8c-1.4-0.6-2.4-1.7-3-3.2c-0.9-2.5-0.3-4.7,1.2-6.7
			c1.4-1.9,3.3-2.8,5.6-2.8c0.6,0,1.2,0,1.8,0c0.2,0,0.4,0.1,0.6,0.2c1,0.7,1.9,1.3,2.8,2.1c1.3,1.2,1.6,2.8,1.7,4.5
			c0,2.6-1.7,5.3-4.3,6.2C54,135.4,53.3,135.5,52.3,135.7z"/>
		<path class="st2" d="M37.5,129.6c-0.2,3.9-2.5,6.2-6.5,6.4c-4.2,0.3-6.8-3.1-7-6.3c-0.2-3.8,2.9-7.2,6.4-7.2
			C33.9,122.4,37.5,125.5,37.5,129.6z"/>
		<path class="st3" d="M42,137c-0.3,0.6-0.7,1.2-1.1,1.9c-0.4-0.7-0.7-1.4-1-1.9C40.5,136.6,41.3,136.6,42,137z"/>
		<path d="M47.7,129.9c0.6,1.3,1.5,2.2,2.8,2.7c1.8,0.7,4.2,0.2,5.3-1.4c0.1-0.2,0.2-0.4,0.3-0.6c0.4-1,0.2-2-0.3-3
			c-0.7-1.3-1.5-2.2-3.1-2.4c-1.1-0.1-2.2,0.1-3.2,0.3c-0.2,0-0.4,0.3-0.5,0.5c-0.1,0.1,0.1,0.3,0.2,0.5c0.1,0.1,0.2,0.1,0.4,0.2
			c0.8,0.5,1.2,1.5,0.9,2.3c-0.3,0.8-0.9,1.1-2,1C48.1,129.9,48,129.9,47.7,129.9z"/>
		<path class="st3" d="M47.7,129.9c0.3,0,0.5,0,0.6,0c1.1,0.1,1.8-0.2,2-1c0.3-0.8-0.1-1.8-0.9-2.3c-0.1-0.1-0.3-0.1-0.4-0.2
			c-0.1-0.1-0.2-0.4-0.2-0.5c0.1-0.2,0.3-0.5,0.5-0.5c1.1-0.2,2.1-0.5,3.2-0.3c1.6,0.2,2.5,1.1,3.1,2.4c0.5,0.9,0.7,1.9,0.3,3
			c-0.1,0.2-0.2,0.4-0.3,0.6c-1.1,1.6-3.5,2.1-5.3,1.4C49.1,132,48.3,131.2,47.7,129.9z"/>
	</g>
	<path class="st3" d="M27.9,125.8c0.7-0.3,1.2-0.6,1.7-0.7c1.2-0.4,2.2-0.1,3.2,0.7c1.1,0.8,1.7,1.9,1.7,3.2c0,1.6-1,3.2-2.6,3.7
		c-2.3,0.7-4.5-0.3-5.5-1.9c-0.2-0.3-0.2-0.7-0.1-1c0-0.1,0.5-0.2,0.8-0.2c0.4,0,0.7,0,1.1-0.1c0.7-0.2,1.2-0.7,1.3-1.4
		c0.1-0.7-0.3-1.3-0.9-1.7C28.5,126.2,28.3,126.1,27.9,125.8z"/>
</g>
<path class="st4" d="M26.5,40.3c0,0,1.6,6.5,4.6,0.5l-1.8-2.5L26.5,40.3z"/>
</svg>
