<?xml version="1.0" encoding="utf-8"?>
<svg viewBox="121.29299926757812 127.05500030517578 87.5770034790039 119.53099822998047" xmlns="http://www.w3.org/2000/svg">
  <g id="cat_1_" transform="matrix(1, 0, 0, 1, -11.660955, -103.05983)">
    <g>
      <path d="M186.194,343.043c5.183-2.799,4.351-13.316,4.097-18.178c-0.6-11.411-6.533-23.975-13.181-33.027&#10;&#9;&#9;&#9;&#9;&#9;&#9;c-1.774-2.416-4.797-4.417-4.97-7.68c-0.16-2.966,2.708-2.985,4.887-4.024c4.645-2.214,8.893-5.79,10.365-10.896&#10;&#9;&#9;&#9;&#9;&#9;&#9;c0.652-2.269,0.781-4.669,0.488-6.997c-0.297-2.377-1.705-4.768-1.639-7.142c0.057-2.018,1.35-3.774,2.094-5.578&#10;&#9;&#9;&#9;&#9;&#9;&#9;c0.613-1.484,1.299-2.954,1.748-4.492c0.771-2.642,1.388-5.327,2.046-8.002c0.163-0.671,0.251-1.369,0.333-2.062&#10;&#9;&#9;&#9;&#9;&#9;&#9;c0.049-0.411-0.068-0.676-0.602-0.721c-0.857-0.07-1.702-0.27-2.551-0.405c-0.227-0.035-0.484-0.119-0.681-0.052&#10;&#9;&#9;&#9;&#9;&#9;&#9;c-1.77,0.631-3.581,1.172-5.274,1.97c-2.271,1.068-4.523,2.168-6.921,2.931c-0.429,0.139-0.965,0.128-1.404,0.013&#10;&#9;&#9;&#9;&#9;&#9;&#9;c-1.866-0.489-3.687-1.146-5.562-1.55c-3.089-0.67-6.2-1.313-9.394-0.773c-1.492,0.251-2.988,0.493-4.466,0.802&#10;&#9;&#9;&#9;&#9;&#9;&#9;c-1.108,0.232-2.19,0.592-3.299,0.846c-0.206,0.042-0.489-0.11-0.697-0.238c-0.752-0.45-1.452-0.99-2.231-1.379&#10;&#9;&#9;&#9;&#9;&#9;&#9;c-1.728-0.86-3.475-1.687-5.244-2.458c-2.069-0.901-4.181-1.69-6.067-2.978c-0.563-0.386-1.16-0.858-1.963-0.762&#10;&#9;&#9;&#9;&#9;&#9;&#9;c-2.326,0.272,0.712,15.616,0.58,18.083c-0.142,2.601-0.394,4.98-1.242,7.416c-2.49,7.164-1.509,15.07,3.96,20.336&#10;&#9;&#9;&#9;&#9;&#9;&#9;c0.479,0.461,0.991,0.901,1.538,1.316c3.797,2.889,12.231,4.305,8.804,10.759c-4.963,9.345-8.961,17.845-10.521,28.442&#10;&#9;&#9;&#9;&#9;&#9;&#9;c-1.066,7.238,0.167,13.886,0.342,20.869"/>
      <path d="M214.785,286.648c-3.07-3.504-7.5-5.777-12.211-5.665c-1.799,0.042-4.365,0.993-5.328,2.667&#10;&#9;&#9;&#9;&#9;&#9;&#9;c-1.199,2.085,0.863,3.152,2.643,3.371c4.643,0.569,8.781-0.829,11.866,3.611c3.595,5.182,2.306,12.729,0.065,18.199&#10;&#9;&#9;&#9;&#9;&#9;&#9;c-0.977,2.38-2.115,4.662-4.066,6.457c-1.598,1.47-3.223,2.865-5.125,3.934c-1.166,0.656-2.438,0.9-3.702,1.207&#10;&#9;&#9;&#9;&#9;&#9;&#9;c-1.815,0.446-3.61,0.975-5.438,1.342c-1.045,0.214-2.137,0.195-3.21,0.273c-0.913,0.064-1.839,0.125-2.757,0.189&#10;&#9;&#9;&#9;&#9;&#9;&#9;c0.227,2.13,0.408,4.263,0.56,6.4c0.092-0.004,0.183-0.009,0.272-0.019c6.123-0.606,11.83-1.321,17.107-4.783&#10;&#9;&#9;&#9;&#9;&#9;&#9;c4.766-3.124,9.049-7.302,11.298-12.621c0.616-1.455,1.312-2.908,1.68-4.433C220.061,300.043,219.532,292.07,214.785,286.648z"/>
      <path d="M188.399,333.33c-0.101-1.567-0.206-3.13-0.318-4.695c-0.485,0.034-0.979,0.04-1.442,0.162&#10;&#9;&#9;&#9;&#9;&#9;&#9;c-0.275,0.071-0.662,0.416-0.684,0.656c-0.133,1.625-0.176,3.257-0.258,4.881c-0.071,1.438-0.049,2.889-0.264,4.305&#10;&#9;&#9;&#9;&#9;&#9;&#9;c-0.199,1.271-0.451,2.584-1.344,3.617c-0.221,0.252-0.487,0.472-0.752,0.688c-1.463,1.19-3.137,1.932-4.896,2.642&#10;&#9;&#9;&#9;&#9;&#9;&#9;c-2.383,0.962-4.823,1.126-7.297,1.289c-1.551,0.106-3.105,0.241-4.654,0.244c-2.502,0.01-4.994-0.138-7.441-0.733&#10;&#9;&#9;&#9;&#9;&#9;&#9;c-1.958-0.476-3.904-1.016-5.879-1.418c-1.124-0.228-2.295-0.289-3.446-0.327c-1.727-0.062-3.469,0.105-5.177-0.072&#10;&#9;&#9;&#9;&#9;&#9;&#9;c-1.689-0.177-3.429-0.39-4.899-1.411c-0.483-0.335-0.975-0.654-1.428-1.02c-1.561-1.266-0.937-2.758,0.164-3.576&#10;&#9;&#9;&#9;&#9;&#9;&#9;c0.52-0.382,0.641-0.678,0.625-1.338c-0.007-0.314-0.014-0.636-0.023-0.955c0.054,2.121-2.281,3.049-2.68,4.926&#10;&#9;&#9;&#9;&#9;&#9;&#9;c-0.557,2.628,2.708,4.214,4.832,4.636c0.252,0.05,0.508,0.086,0.761,0.13c3.878,0.291,8.293-0.332,10.596,0.062&#10;&#9;&#9;&#9;&#9;&#9;&#9;c10.509,1.806,22.078,3.623,32.04-1.199c0.739-0.357,1.423-0.831,1.991-1.422C189.094,340.725,188.615,336.713,188.399,333.33z&#10;&#9;&#9;&#9;&#9;&#9;&#9;"/>
      <path d="M142.527,275.946c0.395,0.218,0.798,0.421,1.21,0.61c0.526,0.241,1.093,0.405,1.62,0.644&#10;&#9;&#9;&#9;&#9;&#9;&#9;c1.551,0.698,3.137,1.277,4.78,1.663l-13.213-15.026C137.61,268.437,139.466,272.744,142.527,275.946z"/>
      <path stroke="#000000" stroke-width="0.4994" stroke-miterlimit="10" d="M151.065,238.815c-0.465,0.303-0.801,0.519-1.132,0.73&#10;&#9;&#9;&#9;&#9;&#9;&#9;c0.015,0.08,0.031,0.155,0.044,0.235c0.302,0,0.602,0.02,0.9-0.007c0.542-0.042,1.084-0.11,1.622-0.181&#10;&#9;&#9;&#9;&#9;&#9;&#9;c0.106-0.016,0.268-0.074,0.296-0.15c0.232-0.669,0.852-0.663,1.374-0.781c2.061-0.467,4.111-1.037,6.202-1.316&#10;&#9;&#9;&#9;&#9;&#9;&#9;c1.5-0.195,3.072-0.139,4.58,0.067c2.301,0.321,4.592,0.812,6.857,1.357c1.399,0.335,2.742,0.907,4.102,1.403&#10;&#9;&#9;&#9;&#9;&#9;&#9;c0.188,0.066,0.297,0.398,0.467,0.424c0.357,0.055,0.73-0.016,1.1-0.035c-0.028-0.338-0.056-0.679-0.096-1.178&#10;&#9;&#9;&#9;&#9;&#9;&#9;c0.167-0.062,0.539-0.18,0.893-0.328c1.777-0.766,3.537-1.566,5.329-2.293c1.158-0.47,2.36-0.837,3.546-1.256&#10;&#9;&#9;&#9;&#9;&#9;&#9;c0.172-0.063,0.338-0.154,0.504-0.234c0.688-0.328,1.369-0.536,2.148-0.245c0.47,0.174,0.994,0.214,1.652,0.345&#10;&#9;&#9;&#9;&#9;&#9;&#9;c-0.434,1.619-0.859,3.201-1.281,4.787c-0.215,0.808-0.459,1.611-0.609,2.436c-0.396,2.197-1.248,4.241-2.135,6.268&#10;&#9;&#9;&#9;&#9;&#9;&#9;c-0.37,0.843-0.783,1.671-1.227,2.477c-1.752,3.182-0.193,6.528,0.105,9.885c0.338,3.796-0.121,7.673-2.234,10.921&#10;&#9;&#9;&#9;&#9;&#9;&#9;c-3.441,5.294-10.15,6.63-15.432,9.337c-1.105,0.562-2.131,1.367-2.623,2.609c-0.224,0.562-0.5,1.148-0.04,1.85&#10;&#9;&#9;&#9;&#9;&#9;&#9;c0.765-1.923,2.091-3.188,3.944-3.79c0.193,1.283,0.25,2.576,0.603,3.786c0.333,1.152,0.933,2.232,1.493,3.305&#10;&#9;&#9;&#9;&#9;&#9;&#9;c0.527,1.011,1.154,1.971,1.742,2.947c0.229,0.379,0.451,0.762,0.716,1.118c2.124,2.9,3.687,6.077,4.876,9.463&#10;&#9;&#9;&#9;&#9;&#9;&#9;c0.466,1.335,1.104,2.615,1.535,3.963c0.73,2.284,1.373,4.595,2.031,6.901c0.59,2.066,1.162,4.137,1.725,6.212&#10;&#9;&#9;&#9;&#9;&#9;&#9;c0.223,0.827,0.391,1.67,0.596,2.552c1.697-0.119,3.37-0.232,5.041-0.354c1.074-0.078,2.164-0.055,3.209-0.27&#10;&#9;&#9;&#9;&#9;&#9;&#9;c1.83-0.371,3.623-0.899,5.438-1.343c1.267-0.306,2.538-0.554,3.704-1.206c1.9-1.068,3.527-2.466,5.125-3.935&#10;&#9;&#9;&#9;&#9;&#9;&#9;c1.953-1.794,3.09-4.077,4.062-6.457c1.861-4.53,2.752-10.061,1.273-14.796c-2.087-6.68-6.781-6.68-12.918-6.993&#10;&#9;&#9;&#9;&#9;&#9;&#9;c-0.752-0.04-1.535-0.229-2.229-0.522c-1.133-0.479-1.409-2.242-0.445-3.173c1.402-1.35,3.07-2.413,5.072-2.363&#10;&#9;&#9;&#9;&#9;&#9;&#9;c2.895,0.07,5.707,0.539,8.217,2.239c7.688,5.201,9.744,14.921,7.649,23.557c-0.368,1.524-1.065,2.974-1.68,4.432&#10;&#9;&#9;&#9;&#9;&#9;&#9;c-0.989,2.339-2.371,4.446-4.05,6.339c-1.137,1.289-2.258,2.631-3.596,3.692c-1.869,1.479-3.902,2.762-5.92,4.041&#10;&#9;&#9;&#9;&#9;&#9;&#9;c-2.324,1.483-5.002,2.065-7.648,2.563c-2.36,0.448-4.793,0.532-7.191,0.77c-0.572,0.059-1.164,0.039-1.715,0.181&#10;&#9;&#9;&#9;&#9;&#9;&#9;c-0.275,0.07-0.664,0.412-0.684,0.655c-0.133,1.626-0.176,3.254-0.258,4.881c-0.071,1.438-0.049,2.886-0.264,4.304&#10;&#9;&#9;&#9;&#9;&#9;&#9;c-0.199,1.27-0.451,2.582-1.344,3.617c-0.221,0.254-0.487,0.474-0.752,0.689c-1.463,1.189-3.141,1.928-4.896,2.642&#10;&#9;&#9;&#9;&#9;&#9;&#9;c-2.383,0.958-4.823,1.122-7.297,1.29c-1.551,0.105-3.105,0.243-4.658,0.243c-2.498,0.006-4.99-0.142-7.438-0.733&#10;&#9;&#9;&#9;&#9;&#9;&#9;c-1.958-0.476-3.904-1.018-5.879-1.418c-1.124-0.231-2.295-0.291-3.446-0.329c-1.727-0.061-3.469,0.106-5.177-0.074&#10;&#9;&#9;&#9;&#9;&#9;&#9;c-1.692-0.173-3.429-0.386-4.901-1.411c-0.478-0.332-0.973-0.65-1.426-1.018c-1.561-1.265-0.936-2.757,0.164-3.574&#10;&#9;&#9;&#9;&#9;&#9;&#9;c0.52-0.386,0.641-0.678,0.625-1.338c-0.059-2.453-0.195-4.941,0.122-7.361c0.444-3.381,1.232-6.724,1.939-10.073&#10;&#9;&#9;&#9;&#9;&#9;&#9;c0.757-3.587,2.351-6.858,3.911-10.144c0.497-1.046,0.838-2.168,1.282-3.239c0.821-1.973,1.711-3.917,2.487-5.904&#10;&#9;&#9;&#9;&#9;&#9;&#9;c0.563-1.446,1.049-2.934,1.458-4.43c0.743-2.695,1.465-5.397,2.077-8.13c1.371-6.115-5.453-8.68-9.695-11.02&#10;&#9;&#9;&#9;&#9;&#9;&#9;c-8.119-4.475-8.259-12.749-6.994-21.018c0.209-1.377,0.602-2.049,1.366-3.165c0.6-0.872,0.696-1.744,1.02-2.709&#10;&#9;&#9;&#9;&#9;&#9;&#9;c0.296-0.889-0.036-1.998-0.153-3.005c-0.188-1.621-0.607-3.234-0.609-4.854c-0.005-3.019-0.872-5.936-0.894-8.946&#10;&#9;&#9;&#9;&#9;&#9;&#9;c-0.003-0.574,0-1.149,0-1.887c0.944,0.56,1.796,1.113,2.685,1.583c1.002,0.538,2.031,1.026,3.064,1.496&#10;&#9;&#9;&#9;&#9;&#9;&#9;c1.898,0.865,3.816,1.686,5.714,2.558c0.907,0.416,1.786,0.892,2.669,1.357C150.647,238.435,150.803,238.604,151.065,238.815z&#10;&#9;&#9;&#9;&#9;&#9;&#9; M181.428,256.174c-0.022-2.389-0.582-4.011-1.821-5.249c-1.153-1.147-2.47-2.161-3.97-2.859&#10;&#9;&#9;&#9;&#9;&#9;&#9;c-0.286-0.132-0.635-0.249-0.934-0.206c-1.12,0.147-2.236,0.351-3.348,0.566c-1.096,0.215-2.172,0.547-2.991,1.344&#10;&#9;&#9;&#9;&#9;&#9;&#9;c-1.169,1.137-2.22,2.34-2.755,3.974c-0.853,2.591-0.756,5.019,0.951,7.194c0.656,0.832,1.529,1.611,2.469,2.068&#10;&#9;&#9;&#9;&#9;&#9;&#9;c0.928,0.447,2.061,0.506,3.115,0.652c2.369,0.329,4.539-0.09,6.444-1.688C180.604,260.281,181.281,258.052,181.428,256.174z&#10;&#9;&#9;&#9;&#9;&#9;&#9; M159.889,256.908c-0.012-2.18-0.504-3.781-1.551-5.127c-0.748-0.963-1.789-1.632-2.828-2.316&#10;&#9;&#9;&#9;&#9;&#9;&#9;c-2.143-1.403-4.289-1.249-6.515-0.461c-2.127,0.75-3.414,2.316-4.241,4.369c-0.611,1.512-0.944,3.037-0.482,4.625&#10;&#9;&#9;&#9;&#9;&#9;&#9;c0.244,0.842,0.569,1.682,1.004,2.438c1.012,1.764,2.477,3.072,4.486,3.504c2.71,0.588,5.22,0.045,7.464-1.681&#10;&#9;&#9;&#9;&#9;&#9;&#9;C159.162,260.779,159.77,258.75,159.889,256.908z M168.73,267.194c-0.283,0.534-0.547,1.02-0.812,1.506&#10;&#9;&#9;&#9;&#9;&#9;&#9;c-0.893,1.635-2.224,1.976-3.743,0.966c-1.359-0.904-1.646-2.173-0.777-3.546c0.361-0.572,0.799-1.097,1.145-1.673&#10;&#9;&#9;&#9;&#9;&#9;&#9;c0.123-0.209,0.214-0.645,0.104-0.75c-0.401-0.395-0.863-0.91-1.354-0.979c-1.016-0.135-2.072-0.057-3.1,0.045&#10;&#9;&#9;&#9;&#9;&#9;&#9;c-0.299,0.033-0.627,0.399-0.799,0.699c-0.064,0.109,0.289,0.45,0.437,0.694c0.556,0.911,1.106,1.823,1.644,2.747&#10;&#9;&#9;&#9;&#9;&#9;&#9;c0.049,0.088,0.023,0.235-0.004,0.342c-0.391,1.391-1.594,2.49-3.291,1.949c-0.859-0.277-1.68-0.688-2.084-1.613&#10;&#9;&#9;&#9;&#9;&#9;&#9;c-0.083-0.188-0.322-0.303-0.5-0.462c-0.563,0.564-0.394,1.11-0.091,1.635c0.679,1.185,2.826,2.095,4.156,1.663&#10;&#9;&#9;&#9;&#9;&#9;&#9;c0.823-0.264,1.58-0.74,2.424-1.148c0.16,0.174,0.381,0.408,0.596,0.646c0.852,0.963,1.819,1.604,3.204,1.545&#10;&#9;&#9;&#9;&#9;&#9;&#9;c1.483-0.058,2.466-0.682,2.909-2.091c0.104-0.338,0.178-0.688,0.332-0.994C169.385,267.864,169.15,267.549,168.73,267.194z"/>
      <path d="M181.428,256.174c-0.15,1.878-0.824,4.107-2.838,5.796c-1.904,1.599-4.074,2.018-6.443,1.688&#10;&#9;&#9;&#9;&#9;&#9;&#9;c-1.055-0.146-2.189-0.205-3.114-0.652c-0.94-0.457-1.813-1.236-2.472-2.068c-1.707-2.176-1.804-4.604-0.95-7.194&#10;&#9;&#9;&#9;&#9;&#9;&#9;c0.536-1.634,1.585-2.837,2.756-3.974c0.817-0.797,1.894-1.129,2.99-1.344c1.11-0.216,2.227-0.419,3.347-0.566&#10;&#9;&#9;&#9;&#9;&#9;&#9;c0.299-0.043,0.647,0.074,0.934,0.206c1.5,0.698,2.816,1.712,3.97,2.859C180.848,252.163,181.407,253.785,181.428,256.174z&#10;&#9;&#9;&#9;&#9;&#9;&#9; M173.583,262.713c0.96-0.185,1.688-0.24,2.361-0.466c2.571-0.872,4.358-3.623,4.314-6.19&#10;&#9;&#9;&#9;&#9;&#9;&#9;c-0.026-1.683-0.386-3.295-1.677-4.481c-0.861-0.791-1.859-1.441-2.812-2.136c-0.158-0.114-0.389-0.18-0.586-0.189&#10;&#9;&#9;&#9;&#9;&#9;&#9;c-0.594-0.018-1.186,0.012-1.777,0.021c-2.316,0.043-4.262,0.934-5.614,2.8c-1.444,1.994-2.067,4.211-1.173,6.661&#10;&#9;&#9;&#9;&#9;&#9;&#9;c0.543,1.484,1.605,2.606,2.969,3.171C170.882,262.437,172.381,262.488,173.583,262.713z"/>
      <path d="M159.889,256.908c-0.119,1.842-0.727,3.871-2.662,5.354c-2.244,1.725-4.753,2.265-7.464,1.677&#10;&#9;&#9;&#9;&#9;&#9;&#9;c-2.009-0.432-3.474-1.74-4.486-3.5c-0.435-0.758-0.76-1.6-1.004-2.439c-0.46-1.586-0.129-3.111,0.482-4.627&#10;&#9;&#9;&#9;&#9;&#9;&#9;c0.826-2.053,2.114-3.619,4.241-4.365c2.226-0.788,4.372-0.946,6.515,0.457c1.039,0.685,2.081,1.354,2.828,2.316&#10;&#9;&#9;&#9;&#9;&#9;&#9;C159.385,253.127,159.877,254.728,159.889,256.908z M158.766,256.623c0.039-4.031-3.596-7.123-7.175-7.068&#10;&#9;&#9;&#9;&#9;&#9;&#9;c-3.457,0.049-6.623,3.458-6.383,7.216c0.208,3.225,2.866,6.542,7.028,6.28C156.237,262.807,158.6,260.486,158.766,256.623z"/>
      <path fill="#FFFFFF" d="M168.73,267.194c0.42,0.354,0.654,0.67,0.395,1.182c-0.154,0.306-0.229,0.659-0.332,0.994&#10;&#9;&#9;&#9;&#9;&#9;&#9;c-0.443,1.411-1.426,2.033-2.909,2.095c-1.385,0.055-2.353-0.586-3.204-1.549c-0.215-0.238-0.436-0.473-0.596-0.643&#10;&#9;&#9;&#9;&#9;&#9;&#9;c-0.844,0.404-1.601,0.881-2.424,1.145c-1.33,0.432-3.478-0.479-4.156-1.663c-0.303-0.524-0.472-1.066,0.091-1.635&#10;&#9;&#9;&#9;&#9;&#9;&#9;c0.179,0.159,0.417,0.277,0.5,0.464c0.405,0.926,1.226,1.338,2.084,1.611c1.697,0.544,2.9-0.559,3.289-1.949&#10;&#9;&#9;&#9;&#9;&#9;&#9;c0.029-0.106,0.055-0.252,0.006-0.342c-0.539-0.92-1.088-1.834-1.644-2.747c-0.148-0.24-0.501-0.585-0.437-0.694&#10;&#9;&#9;&#9;&#9;&#9;&#9;c0.172-0.296,0.5-0.666,0.799-0.699c1.027-0.1,2.084-0.176,3.1-0.041c0.49,0.064,0.953,0.582,1.354,0.975&#10;&#9;&#9;&#9;&#9;&#9;&#9;c0.11,0.105,0.023,0.541-0.104,0.75c-0.346,0.579-0.783,1.103-1.145,1.673c-0.868,1.378-0.582,2.642,0.777,3.548&#10;&#9;&#9;&#9;&#9;&#9;&#9;c1.52,1.011,2.85,0.667,3.743-0.968C168.184,268.214,168.445,267.728,168.73,267.194z M163.258,264.096&#10;&#9;&#9;&#9;&#9;&#9;&#9;c-0.709-0.46-1.48-0.485-2.057-0.03c0.303,0.595,0.611,1.204,0.994,1.948C162.602,265.28,162.93,264.685,163.258,264.096z"/>
      <path fill="#FFF5BA" d="M173.583,262.713c-1.202-0.225-2.701-0.275-3.997-0.81c-1.363-0.564-2.426-1.687-2.967-3.171&#10;&#9;&#9;&#9;&#9;&#9;&#9;c-0.897-2.45-0.273-4.667,1.171-6.661c1.353-1.866,3.298-2.757,5.612-2.8c0.592-0.01,1.186-0.036,1.777-0.021&#10;&#9;&#9;&#9;&#9;&#9;&#9;c0.197,0.01,0.43,0.074,0.588,0.189c0.951,0.694,1.949,1.345,2.812,2.136c1.293,1.187,1.65,2.799,1.676,4.481&#10;&#9;&#9;&#9;&#9;&#9;&#9;c0.043,2.567-1.741,5.318-4.313,6.19C175.271,262.472,174.543,262.528,173.583,262.713z"/>
      <path fill="#FFF5BA" d="M158.766,256.623c-0.166,3.863-2.528,6.185-6.53,6.428c-4.162,0.262-6.821-3.056-7.028-6.28&#10;&#9;&#9;&#9;&#9;&#9;&#9;c-0.24-3.758,2.926-7.167,6.383-7.216C155.169,249.5,158.805,252.592,158.766,256.623z"/>
      <path fill="#221F1F" d="M163.258,264.096c-0.328,0.589-0.656,1.184-1.062,1.918c-0.383-0.744-0.691-1.354-0.994-1.948&#10;&#9;&#9;&#9;&#9;&#9;&#9;C161.777,263.611,162.549,263.636,163.258,264.096z"/>
      <path d="M168.945,256.951c0.641,1.326,1.465,2.152,2.752,2.661c1.768,0.693,4.232,0.151,5.286-1.435&#10;&#9;&#9;&#9;&#9;&#9;&#9;c0.122-0.18,0.187-0.405,0.274-0.615c0.437-1.036,0.209-2.039-0.266-2.96c-0.654-1.267-1.542-2.226-3.131-2.409&#10;&#9;&#9;&#9;&#9;&#9;&#9;c-1.135-0.132-2.174,0.145-3.238,0.331c-0.186,0.032-0.379,0.299-0.47,0.502c-0.05,0.112,0.069,0.337,0.17,0.466&#10;&#9;&#9;&#9;&#9;&#9;&#9;c0.074,0.1,0.247,0.116,0.366,0.193c0.785,0.499,1.203,1.539,0.938,2.303c-0.289,0.824-0.947,1.149-2.049,1.008&#10;&#9;&#9;&#9;&#9;&#9;&#9;C169.418,256.977,169.261,256.969,168.945,256.951z"/>
      <path fill="#221F1F" d="M168.945,256.951c0.315,0.022,0.473,0.026,0.633,0.045c1.1,0.142,1.758-0.184,2.047-1.008&#10;&#9;&#9;&#9;&#9;&#9;&#9;c0.266-0.764-0.15-1.804-0.936-2.303c-0.119-0.077-0.292-0.094-0.366-0.193c-0.103-0.129-0.222-0.354-0.171-0.466&#10;&#9;&#9;&#9;&#9;&#9;&#9;c0.092-0.203,0.282-0.47,0.469-0.502c1.064-0.187,2.105-0.463,3.238-0.331c1.59,0.184,2.479,1.143,3.131,2.409&#10;&#9;&#9;&#9;&#9;&#9;&#9;c0.477,0.921,0.701,1.927,0.265,2.96c-0.087,0.21-0.151,0.436-0.271,0.615c-1.056,1.586-3.519,2.128-5.29,1.435&#10;&#9;&#9;&#9;&#9;&#9;&#9;C170.41,259.103,169.586,258.277,168.945,256.951z"/>
    </g>
    <path fill="#221F1F" d="M149.16,252.836c0.672-0.293,1.174-0.575,1.711-0.733c1.188-0.357,2.223-0.1,3.243,0.679&#10;&#9;&#9;&#9;&#9;&#9;c1.113,0.844,1.661,1.867,1.701,3.237c0.045,1.573-1.029,3.185-2.554,3.673c-2.262,0.729-4.459-0.346-5.492-1.909&#10;&#9;&#9;&#9;&#9;&#9;c-0.164-0.255-0.212-0.68-0.125-0.966c0.045-0.139,0.518-0.171,0.804-0.207c0.363-0.045,0.745,0.007,1.097-0.076&#10;&#9;&#9;&#9;&#9;&#9;c0.726-0.168,1.226-0.675,1.309-1.383c0.081-0.709-0.331-1.289-0.888-1.729C149.773,253.26,149.558,253.127,149.16,252.836z"/>
  </g>
  <path fill="#FFFFFF" d="M 147.772 167.32 C 147.772 167.32 149.354 173.791 152.354 167.791 L 150.604 165.291 L 147.772 167.32 Z"/>
</svg>