<?xml version="1.0" encoding="utf-8"?>
<svg viewBox="172.24400329589844 16.31999969482422 87.5780029296875 119.53299713134766" xmlns="http://www.w3.org/2000/svg">
  <g id="cat_1_" transform="matrix(1, 0, 0, 1, -53.81342628634476, -432.4415032647715)">
    <g>
      <path d="M279.298,561.69c5.183-2.799,4.351-13.316,4.097-18.178c-0.6-11.412-6.533-23.977-13.181-33.027&#10;&#9;&#9;&#9;&#9;&#9;&#9;&#9;c-1.774-2.417-4.797-4.418-4.97-7.681c-0.16-2.966,2.708-2.985,4.887-4.024c4.645-2.214,8.893-5.79,10.365-10.896&#10;&#9;&#9;&#9;&#9;&#9;&#9;&#9;c0.652-2.27,0.781-4.669,0.488-6.997c-0.297-2.377-1.705-4.768-1.639-7.143c0.057-2.018,1.35-3.773,2.094-5.578&#10;&#9;&#9;&#9;&#9;&#9;&#9;&#9;c0.613-1.483,1.299-2.953,1.748-4.492c0.771-2.642,1.388-5.326,2.045-8.002c0.164-0.67,0.252-1.368,0.334-2.062&#10;&#9;&#9;&#9;&#9;&#9;&#9;&#9;c0.049-0.411-0.068-0.676-0.603-0.721c-0.856-0.07-1.702-0.271-2.551-0.405c-0.228-0.035-0.483-0.119-0.681-0.052&#10;&#9;&#9;&#9;&#9;&#9;&#9;&#9;c-1.771,0.631-3.582,1.172-5.274,1.97c-2.271,1.068-4.522,2.168-6.921,2.932c-0.43,0.139-0.965,0.127-1.404,0.013&#10;&#9;&#9;&#9;&#9;&#9;&#9;&#9;c-1.865-0.489-3.688-1.146-5.562-1.55c-3.088-0.67-6.199-1.313-9.394-0.773c-1.492,0.251-2.988,0.493-4.466,0.803&#10;&#9;&#9;&#9;&#9;&#9;&#9;&#9;c-1.108,0.231-2.19,0.592-3.299,0.846c-0.206,0.041-0.489-0.11-0.697-0.238c-0.752-0.45-1.452-0.99-2.231-1.379&#10;&#9;&#9;&#9;&#9;&#9;&#9;&#9;c-1.728-0.86-3.475-1.688-5.244-2.458c-2.069-0.901-4.181-1.69-6.067-2.978c-0.563-0.387-1.16-0.858-1.963-0.763&#10;&#9;&#9;&#9;&#9;&#9;&#9;&#9;c-2.326,0.272,0.712,15.616,0.58,18.083c-0.142,2.602-0.394,4.98-1.242,7.416c-2.49,7.164-1.509,15.07,3.96,20.336&#10;&#9;&#9;&#9;&#9;&#9;&#9;&#9;c0.479,0.461,0.991,0.901,1.538,1.316c3.797,2.889,12.231,4.305,8.804,10.759c-4.963,9.345-8.961,17.845-10.521,28.442&#10;&#9;&#9;&#9;&#9;&#9;&#9;&#9;c-1.066,7.238,0.167,13.887,0.342,20.869"/>
      <path d="M307.889,505.293c-3.07-3.504-7.5-5.776-12.211-5.664c-1.799,0.041-4.365,0.992-5.328,2.666&#10;&#9;&#9;&#9;&#9;&#9;&#9;&#9;c-1.199,2.086,0.863,3.152,2.644,3.371c4.644,0.569,8.78-0.828,11.866,3.611c3.595,5.182,2.306,12.729,0.064,18.199&#10;&#9;&#9;&#9;&#9;&#9;&#9;&#9;c-0.977,2.381-2.115,4.662-4.066,6.457c-1.598,1.471-3.223,2.865-5.125,3.934c-1.166,0.656-2.438,0.9-3.701,1.207&#10;&#9;&#9;&#9;&#9;&#9;&#9;&#9;c-1.815,0.447-3.61,0.975-5.438,1.342c-1.046,0.215-2.138,0.195-3.211,0.273c-0.912,0.064-1.839,0.125-2.757,0.189&#10;&#9;&#9;&#9;&#9;&#9;&#9;&#9;c0.228,2.129,0.408,4.264,0.56,6.4c0.092-0.004,0.184-0.01,0.272-0.02c6.123-0.605,11.83-1.32,17.106-4.783&#10;&#9;&#9;&#9;&#9;&#9;&#9;&#9;c4.767-3.123,9.049-7.303,11.299-12.621c0.615-1.455,1.312-2.908,1.68-4.434C313.166,518.69,312.637,510.715,307.889,505.293z&#10;&#9;&#9;&#9;&#9;&#9;&#9;&#9;"/>
      <path d="M281.503,551.977c-0.101-1.568-0.206-3.131-0.317-4.695c-0.485,0.033-0.979,0.039-1.442,0.162&#10;&#9;&#9;&#9;&#9;&#9;&#9;&#9;c-0.274,0.07-0.662,0.416-0.685,0.656c-0.133,1.625-0.176,3.256-0.258,4.881c-0.07,1.438-0.049,2.889-0.264,4.305&#10;&#9;&#9;&#9;&#9;&#9;&#9;&#9;c-0.199,1.271-0.451,2.584-1.344,3.617c-0.221,0.252-0.487,0.471-0.752,0.688c-1.463,1.189-3.137,1.932-4.896,2.643&#10;&#9;&#9;&#9;&#9;&#9;&#9;&#9;c-2.383,0.961-4.822,1.125-7.297,1.289c-1.551,0.105-3.105,0.24-4.654,0.244c-2.502,0.01-4.994-0.139-7.441-0.734&#10;&#9;&#9;&#9;&#9;&#9;&#9;&#9;c-1.958-0.475-3.904-1.016-5.879-1.418c-1.124-0.229-2.295-0.289-3.446-0.326c-1.727-0.062-3.469,0.105-5.177-0.072&#10;&#9;&#9;&#9;&#9;&#9;&#9;&#9;c-1.689-0.178-3.429-0.391-4.899-1.41c-0.483-0.336-0.975-0.654-1.428-1.021c-1.561-1.266-0.937-2.758,0.164-3.576&#10;&#9;&#9;&#9;&#9;&#9;&#9;&#9;c0.52-0.381,0.641-0.678,0.625-1.338c-0.007-0.312-0.014-0.635-0.023-0.955c0.054,2.121-2.281,3.049-2.68,4.926&#10;&#9;&#9;&#9;&#9;&#9;&#9;&#9;c-0.557,2.629,2.708,4.215,4.832,4.637c0.252,0.051,0.508,0.086,0.761,0.131c3.878,0.291,8.293-0.332,10.596,0.061&#10;&#9;&#9;&#9;&#9;&#9;&#9;&#9;c10.509,1.807,22.079,3.623,32.04-1.197c0.739-0.357,1.424-0.832,1.991-1.424C282.198,559.372,281.719,555.36,281.503,551.977&#10;&#9;&#9;&#9;&#9;&#9;&#9;&#9;z"/>
      <path d="M235.631,494.592c0.395,0.218,0.798,0.421,1.21,0.609c0.526,0.241,1.093,0.405,1.62,0.645&#10;&#9;&#9;&#9;&#9;&#9;&#9;&#9;c1.551,0.697,3.137,1.277,4.78,1.663l-13.213-15.026C230.714,487.083,232.57,491.39,235.631,494.592z"/>
      <path stroke="#000000" stroke-width="0.4994" stroke-miterlimit="10" d="M244.169,457.461&#10;&#9;&#9;&#9;&#9;&#9;&#9;&#9;c-0.465,0.303-0.801,0.519-1.132,0.729c0.015,0.08,0.031,0.155,0.044,0.235c0.302,0,0.602,0.02,0.9-0.008&#10;&#9;&#9;&#9;&#9;&#9;&#9;&#9;c0.542-0.041,1.084-0.109,1.622-0.181c0.106-0.016,0.268-0.073,0.296-0.149c0.232-0.67,0.852-0.664,1.374-0.781&#10;&#9;&#9;&#9;&#9;&#9;&#9;&#9;c2.061-0.467,4.111-1.037,6.202-1.316c1.5-0.195,3.072-0.139,4.58,0.067c2.301,0.321,4.592,0.812,6.857,1.356&#10;&#9;&#9;&#9;&#9;&#9;&#9;&#9;c1.398,0.336,2.742,0.907,4.102,1.403c0.188,0.065,0.297,0.397,0.467,0.425c0.357,0.055,0.73-0.017,1.101-0.035&#10;&#9;&#9;&#9;&#9;&#9;&#9;&#9;c-0.028-0.338-0.056-0.68-0.097-1.179c0.168-0.062,0.539-0.18,0.894-0.327c1.776-0.767,3.537-1.566,5.329-2.294&#10;&#9;&#9;&#9;&#9;&#9;&#9;&#9;c1.158-0.47,2.359-0.837,3.546-1.256c0.172-0.063,0.338-0.153,0.504-0.233c0.688-0.328,1.369-0.537,2.147-0.246&#10;&#9;&#9;&#9;&#9;&#9;&#9;&#9;c0.471,0.175,0.994,0.215,1.652,0.346c-0.434,1.619-0.859,3.201-1.281,4.787c-0.215,0.808-0.459,1.611-0.608,2.436&#10;&#9;&#9;&#9;&#9;&#9;&#9;&#9;c-0.396,2.197-1.248,4.241-2.135,6.269c-0.37,0.843-0.783,1.671-1.228,2.477c-1.752,3.183-0.193,6.528,0.105,9.886&#10;&#9;&#9;&#9;&#9;&#9;&#9;&#9;c0.338,3.795-0.121,7.672-2.234,10.92c-3.441,5.295-10.15,6.631-15.432,9.338c-1.105,0.562-2.131,1.367-2.623,2.608&#10;&#9;&#9;&#9;&#9;&#9;&#9;&#9;c-0.225,0.562-0.5,1.148-0.04,1.851c0.765-1.924,2.091-3.188,3.944-3.791c0.192,1.283,0.25,2.576,0.603,3.787&#10;&#9;&#9;&#9;&#9;&#9;&#9;&#9;c0.333,1.151,0.933,2.231,1.493,3.305c0.527,1.011,1.154,1.971,1.742,2.947c0.229,0.379,0.451,0.762,0.716,1.117&#10;&#9;&#9;&#9;&#9;&#9;&#9;&#9;c2.124,2.9,3.687,6.078,4.876,9.463c0.466,1.336,1.104,2.615,1.535,3.963c0.73,2.285,1.373,4.596,2.031,6.902&#10;&#9;&#9;&#9;&#9;&#9;&#9;&#9;c0.59,2.066,1.162,4.137,1.725,6.211c0.223,0.828,0.391,1.67,0.596,2.553c1.697-0.119,3.37-0.232,5.041-0.354&#10;&#9;&#9;&#9;&#9;&#9;&#9;&#9;c1.074-0.078,2.164-0.055,3.209-0.271c1.83-0.369,3.623-0.898,5.438-1.342c1.268-0.307,2.539-0.555,3.705-1.207&#10;&#9;&#9;&#9;&#9;&#9;&#9;&#9;c1.899-1.066,3.527-2.465,5.125-3.934c1.953-1.795,3.09-4.078,4.062-6.457c1.861-4.531,2.752-10.062,1.272-14.797&#10;&#9;&#9;&#9;&#9;&#9;&#9;&#9;c-2.086-6.68-6.78-6.68-12.918-6.993c-0.752-0.04-1.534-0.229-2.229-0.522c-1.133-0.479-1.408-2.241-0.445-3.172&#10;&#9;&#9;&#9;&#9;&#9;&#9;&#9;c1.402-1.351,3.07-2.414,5.072-2.363c2.895,0.07,5.707,0.539,8.217,2.238c7.688,5.201,9.744,14.922,7.649,23.559&#10;&#9;&#9;&#9;&#9;&#9;&#9;&#9;c-0.368,1.523-1.065,2.973-1.681,4.432c-0.988,2.338-2.371,4.445-4.049,6.338c-1.138,1.289-2.258,2.631-3.597,3.693&#10;&#9;&#9;&#9;&#9;&#9;&#9;&#9;c-1.868,1.479-3.901,2.762-5.92,4.041c-2.323,1.482-5.002,2.064-7.647,2.562c-2.36,0.447-4.793,0.531-7.191,0.77&#10;&#9;&#9;&#9;&#9;&#9;&#9;&#9;c-0.572,0.059-1.164,0.039-1.715,0.182c-0.275,0.07-0.664,0.412-0.684,0.654c-0.134,1.627-0.177,3.254-0.259,4.881&#10;&#9;&#9;&#9;&#9;&#9;&#9;&#9;c-0.071,1.438-0.049,2.887-0.264,4.305c-0.199,1.27-0.451,2.582-1.345,3.617c-0.221,0.254-0.486,0.473-0.752,0.689&#10;&#9;&#9;&#9;&#9;&#9;&#9;&#9;c-1.463,1.188-3.141,1.928-4.896,2.641c-2.383,0.959-4.823,1.123-7.297,1.291c-1.552,0.104-3.104,0.242-4.658,0.242&#10;&#9;&#9;&#9;&#9;&#9;&#9;&#9;c-2.498,0.006-4.99-0.143-7.438-0.732c-1.958-0.477-3.904-1.018-5.879-1.418c-1.124-0.23-2.295-0.291-3.446-0.33&#10;&#9;&#9;&#9;&#9;&#9;&#9;&#9;c-1.727-0.061-3.469,0.107-5.177-0.074c-1.692-0.172-3.429-0.385-4.901-1.41c-0.478-0.332-0.973-0.65-1.426-1.018&#10;&#9;&#9;&#9;&#9;&#9;&#9;&#9;c-1.561-1.266-0.936-2.758,0.164-3.574c0.52-0.387,0.641-0.678,0.625-1.338c-0.059-2.453-0.195-4.941,0.122-7.361&#10;&#9;&#9;&#9;&#9;&#9;&#9;&#9;c0.444-3.381,1.232-6.725,1.939-10.072c0.757-3.588,2.351-6.859,3.911-10.145c0.497-1.047,0.838-2.168,1.282-3.238&#10;&#9;&#9;&#9;&#9;&#9;&#9;&#9;c0.821-1.975,1.711-3.918,2.487-5.904c0.563-1.447,1.049-2.934,1.458-4.43c0.743-2.695,1.465-5.398,2.077-8.131&#10;&#9;&#9;&#9;&#9;&#9;&#9;&#9;c1.371-6.115-5.453-8.68-9.695-11.021c-8.119-4.475-8.259-12.749-6.994-21.018c0.209-1.377,0.602-2.05,1.366-3.165&#10;&#9;&#9;&#9;&#9;&#9;&#9;&#9;c0.6-0.872,0.696-1.744,1.02-2.709c0.296-0.889-0.036-1.998-0.153-3.005c-0.188-1.621-0.607-3.234-0.609-4.854&#10;&#9;&#9;&#9;&#9;&#9;&#9;&#9;c-0.005-3.019-0.872-5.936-0.894-8.945c-0.003-0.574,0-1.149,0-1.888c0.944,0.56,1.796,1.113,2.685,1.583&#10;&#9;&#9;&#9;&#9;&#9;&#9;&#9;c1.002,0.538,2.031,1.026,3.064,1.496c1.898,0.865,3.816,1.686,5.714,2.559c0.907,0.416,1.786,0.892,2.669,1.356&#10;&#9;&#9;&#9;&#9;&#9;&#9;&#9;C243.751,457.081,243.908,457.25,244.169,457.461z M274.533,474.82c-0.022-2.389-0.582-4.011-1.821-5.249&#10;&#9;&#9;&#9;&#9;&#9;&#9;&#9;c-1.152-1.146-2.47-2.16-3.97-2.859c-0.286-0.131-0.636-0.248-0.935-0.205c-1.119,0.146-2.236,0.351-3.348,0.565&#10;&#9;&#9;&#9;&#9;&#9;&#9;&#9;c-1.096,0.216-2.172,0.548-2.991,1.345c-1.169,1.137-2.22,2.34-2.755,3.974c-0.854,2.591-0.756,5.019,0.951,7.194&#10;&#9;&#9;&#9;&#9;&#9;&#9;&#9;c0.656,0.832,1.529,1.61,2.469,2.067c0.928,0.447,2.061,0.507,3.115,0.652c2.369,0.329,4.539-0.091,6.443-1.688&#10;&#9;&#9;&#9;&#9;&#9;&#9;&#9;C273.708,478.927,274.385,476.698,274.533,474.82z M252.994,475.554c-0.012-2.181-0.504-3.781-1.551-5.127&#10;&#9;&#9;&#9;&#9;&#9;&#9;&#9;c-0.748-0.964-1.789-1.632-2.828-2.316c-2.143-1.403-4.289-1.249-6.515-0.461c-2.127,0.75-3.414,2.315-4.241,4.369&#10;&#9;&#9;&#9;&#9;&#9;&#9;&#9;c-0.611,1.512-0.944,3.037-0.482,4.625c0.244,0.842,0.569,1.683,1.004,2.438c1.012,1.764,2.477,3.071,4.486,3.504&#10;&#9;&#9;&#9;&#9;&#9;&#9;&#9;c2.71,0.588,5.22,0.045,7.464-1.682C252.267,479.424,252.875,477.396,252.994,475.554z M261.834,485.84&#10;&#9;&#9;&#9;&#9;&#9;&#9;&#9;c-0.283,0.533-0.547,1.02-0.812,1.506c-0.893,1.635-2.224,1.976-3.743,0.966c-1.359-0.903-1.646-2.173-0.777-3.546&#10;&#9;&#9;&#9;&#9;&#9;&#9;&#9;c0.361-0.572,0.799-1.098,1.145-1.673c0.123-0.209,0.214-0.646,0.104-0.75c-0.401-0.396-0.863-0.91-1.354-0.979&#10;&#9;&#9;&#9;&#9;&#9;&#9;&#9;c-1.016-0.135-2.072-0.057-3.1,0.045c-0.299,0.033-0.627,0.399-0.799,0.699c-0.064,0.109,0.289,0.45,0.437,0.694&#10;&#9;&#9;&#9;&#9;&#9;&#9;&#9;c0.556,0.911,1.106,1.823,1.644,2.747c0.049,0.088,0.023,0.234-0.004,0.342c-0.391,1.391-1.594,2.49-3.291,1.949&#10;&#9;&#9;&#9;&#9;&#9;&#9;&#9;c-0.859-0.277-1.68-0.688-2.084-1.613c-0.083-0.188-0.322-0.303-0.5-0.462c-0.563,0.563-0.394,1.11-0.091,1.635&#10;&#9;&#9;&#9;&#9;&#9;&#9;&#9;c0.679,1.185,2.826,2.095,4.156,1.663c0.823-0.264,1.58-0.74,2.424-1.148c0.16,0.174,0.381,0.408,0.596,0.646&#10;&#9;&#9;&#9;&#9;&#9;&#9;&#9;c0.852,0.963,1.819,1.604,3.203,1.545c1.484-0.059,2.467-0.682,2.91-2.091c0.104-0.338,0.178-0.688,0.332-0.994&#10;&#9;&#9;&#9;&#9;&#9;&#9;&#9;C262.489,486.51,262.254,486.195,261.834,485.84z"/>
      <path d="M274.533,474.82c-0.15,1.878-0.824,4.107-2.839,5.796c-1.903,1.6-4.073,2.019-6.442,1.688&#10;&#9;&#9;&#9;&#9;&#9;&#9;&#9;c-1.056-0.146-2.188-0.205-3.114-0.652c-0.939-0.457-1.812-1.235-2.472-2.067c-1.707-2.177-1.804-4.604-0.95-7.194&#10;&#9;&#9;&#9;&#9;&#9;&#9;&#9;c0.536-1.634,1.585-2.837,2.756-3.974c0.817-0.797,1.895-1.129,2.99-1.345c1.109-0.216,2.227-0.419,3.348-0.565&#10;&#9;&#9;&#9;&#9;&#9;&#9;&#9;c0.299-0.043,0.646,0.074,0.934,0.205c1.5,0.699,2.816,1.713,3.97,2.859C273.953,470.809,274.512,472.431,274.533,474.82z&#10;&#9;&#9;&#9;&#9;&#9;&#9;&#9; M266.688,481.359c0.959-0.185,1.688-0.239,2.36-0.466c2.571-0.872,4.358-3.623,4.313-6.189&#10;&#9;&#9;&#9;&#9;&#9;&#9;&#9;c-0.025-1.684-0.385-3.295-1.676-4.481c-0.861-0.791-1.859-1.441-2.812-2.136c-0.158-0.114-0.389-0.181-0.586-0.189&#10;&#9;&#9;&#9;&#9;&#9;&#9;&#9;c-0.594-0.018-1.186,0.012-1.777,0.021c-2.316,0.043-4.262,0.934-5.613,2.8c-1.444,1.993-2.067,4.211-1.174,6.661&#10;&#9;&#9;&#9;&#9;&#9;&#9;&#9;c0.543,1.483,1.605,2.605,2.969,3.17C263.987,481.083,265.485,481.134,266.688,481.359z"/>
      <path d="M252.994,475.554c-0.119,1.842-0.727,3.87-2.662,5.354c-2.244,1.726-4.753,2.265-7.464,1.677&#10;&#9;&#9;&#9;&#9;&#9;&#9;&#9;c-2.009-0.432-3.474-1.739-4.486-3.5c-0.435-0.758-0.76-1.6-1.004-2.438c-0.46-1.586-0.129-3.11,0.482-4.627&#10;&#9;&#9;&#9;&#9;&#9;&#9;&#9;c0.826-2.054,2.114-3.619,4.241-4.365c2.226-0.788,4.372-0.946,6.515,0.457c1.039,0.685,2.081,1.354,2.828,2.316&#10;&#9;&#9;&#9;&#9;&#9;&#9;&#9;C252.489,471.773,252.981,473.374,252.994,475.554z M251.871,475.269c0.039-4.031-3.596-7.123-7.175-7.067&#10;&#9;&#9;&#9;&#9;&#9;&#9;&#9;c-3.457,0.049-6.623,3.457-6.383,7.215c0.208,3.226,2.866,6.543,7.028,6.28C249.341,481.454,251.705,479.131,251.871,475.269z&#10;&#9;&#9;&#9;&#9;&#9;&#9;&#9;"/>
      <path fill="#FFFFFF" d="M261.834,485.84c0.42,0.354,0.654,0.67,0.395,1.182c-0.153,0.307-0.229,0.659-0.332,0.994&#10;&#9;&#9;&#9;&#9;&#9;&#9;&#9;c-0.442,1.411-1.426,2.033-2.908,2.095c-1.385,0.056-2.353-0.586-3.204-1.549c-0.215-0.238-0.436-0.474-0.596-0.644&#10;&#9;&#9;&#9;&#9;&#9;&#9;&#9;c-0.844,0.404-1.601,0.881-2.424,1.146c-1.33,0.433-3.478-0.479-4.156-1.663c-0.303-0.523-0.472-1.066,0.091-1.635&#10;&#9;&#9;&#9;&#9;&#9;&#9;&#9;c0.179,0.158,0.417,0.277,0.5,0.464c0.405,0.926,1.226,1.338,2.084,1.61c1.697,0.545,2.9-0.559,3.289-1.948&#10;&#9;&#9;&#9;&#9;&#9;&#9;&#9;c0.029-0.106,0.055-0.252,0.006-0.343c-0.539-0.92-1.088-1.834-1.644-2.746c-0.148-0.24-0.501-0.586-0.437-0.694&#10;&#9;&#9;&#9;&#9;&#9;&#9;&#9;c0.172-0.296,0.5-0.666,0.799-0.699c1.027-0.1,2.084-0.176,3.1-0.041c0.49,0.064,0.953,0.582,1.354,0.976&#10;&#9;&#9;&#9;&#9;&#9;&#9;&#9;c0.109,0.104,0.023,0.541-0.104,0.75c-0.346,0.578-0.783,1.103-1.145,1.673c-0.868,1.378-0.582,2.642,0.777,3.548&#10;&#9;&#9;&#9;&#9;&#9;&#9;&#9;c1.52,1.011,2.85,0.667,3.744-0.968C261.289,486.86,261.549,486.374,261.834,485.84z M256.362,482.743&#10;&#9;&#9;&#9;&#9;&#9;&#9;&#9;c-0.709-0.461-1.48-0.486-2.057-0.031c0.303,0.596,0.611,1.205,0.994,1.949C255.707,483.926,256.035,483.331,256.362,482.743z&#10;&#9;&#9;&#9;&#9;&#9;&#9;&#9;"/>
      <path fill="#FFF5BA" d="M266.688,481.359c-1.203-0.225-2.701-0.274-3.998-0.81c-1.362-0.564-2.426-1.688-2.967-3.172&#10;&#9;&#9;&#9;&#9;&#9;&#9;&#9;c-0.896-2.449-0.272-4.666,1.172-6.66c1.353-1.866,3.297-2.758,5.611-2.801c0.592-0.01,1.186-0.035,1.777-0.021&#10;&#9;&#9;&#9;&#9;&#9;&#9;&#9;c0.197,0.01,0.43,0.074,0.588,0.188c0.951,0.694,1.949,1.346,2.812,2.137c1.293,1.188,1.649,2.799,1.676,4.48&#10;&#9;&#9;&#9;&#9;&#9;&#9;&#9;c0.043,2.567-1.741,5.318-4.313,6.19C268.375,481.118,267.647,481.174,266.688,481.359z"/>
      <path fill="#FFF5BA" d="M251.871,475.269c-0.166,3.862-2.528,6.185-6.53,6.428c-4.162,0.263-6.821-3.056-7.028-6.28&#10;&#9;&#9;&#9;&#9;&#9;&#9;&#9;c-0.24-3.758,2.926-7.166,6.383-7.215C248.273,468.146,251.91,471.238,251.871,475.269z"/>
      <path fill="#221F1F" d="M256.362,482.743c-0.328,0.588-0.656,1.184-1.062,1.918c-0.383-0.744-0.691-1.354-0.994-1.949&#10;&#9;&#9;&#9;&#9;&#9;&#9;&#9;C254.881,482.256,255.653,482.282,256.362,482.743z"/>
      <path d="M262.049,475.597c0.641,1.325,1.465,2.151,2.752,2.661c1.768,0.693,4.232,0.15,5.286-1.436&#10;&#9;&#9;&#9;&#9;&#9;&#9;&#9;c0.122-0.18,0.187-0.404,0.274-0.615c0.437-1.035,0.209-2.039-0.266-2.959c-0.654-1.268-1.543-2.227-3.132-2.41&#10;&#9;&#9;&#9;&#9;&#9;&#9;&#9;c-1.135-0.131-2.174,0.146-3.237,0.332c-0.187,0.031-0.379,0.299-0.471,0.502c-0.05,0.111,0.069,0.337,0.17,0.466&#10;&#9;&#9;&#9;&#9;&#9;&#9;&#9;c0.074,0.1,0.247,0.116,0.366,0.192c0.785,0.5,1.203,1.539,0.938,2.303c-0.289,0.824-0.947,1.149-2.049,1.009&#10;&#9;&#9;&#9;&#9;&#9;&#9;&#9;C262.522,475.624,262.366,475.615,262.049,475.597z"/>
      <path fill="#221F1F" d="M262.049,475.597c0.314,0.022,0.473,0.026,0.633,0.045c1.101,0.142,1.758-0.185,2.047-1.008&#10;&#9;&#9;&#9;&#9;&#9;&#9;&#9;c0.267-0.765-0.149-1.804-0.936-2.304c-0.119-0.076-0.292-0.094-0.365-0.192c-0.104-0.129-0.223-0.354-0.172-0.466&#10;&#9;&#9;&#9;&#9;&#9;&#9;&#9;c0.092-0.203,0.282-0.471,0.469-0.502c1.064-0.188,2.105-0.463,3.238-0.332c1.59,0.185,2.479,1.144,3.131,2.41&#10;&#9;&#9;&#9;&#9;&#9;&#9;&#9;c0.477,0.92,0.701,1.927,0.266,2.959c-0.088,0.211-0.151,0.437-0.271,0.615c-1.056,1.586-3.52,2.129-5.29,1.436&#10;&#9;&#9;&#9;&#9;&#9;&#9;&#9;C263.514,477.749,262.69,476.922,262.049,475.597z"/>
    </g>
    <path fill="#221F1F" d="M242.265,471.482c0.672-0.293,1.174-0.575,1.711-0.733c1.188-0.356,2.223-0.1,3.243,0.68&#10;&#9;&#9;&#9;&#9;&#9;&#9;c1.113,0.844,1.661,1.867,1.701,3.236c0.045,1.573-1.029,3.186-2.554,3.674c-2.262,0.729-4.459-0.346-5.492-1.909&#10;&#9;&#9;&#9;&#9;&#9;&#9;c-0.164-0.255-0.212-0.681-0.125-0.966c0.045-0.14,0.518-0.172,0.804-0.207c0.363-0.045,0.745,0.007,1.097-0.076&#10;&#9;&#9;&#9;&#9;&#9;&#9;c0.726-0.168,1.226-0.676,1.309-1.383c0.081-0.709-0.331-1.289-0.888-1.729C242.877,471.906,242.663,471.773,242.265,471.482z"/>
  </g>
</svg>