<?xml version="1.0" encoding="utf-8"?>
<svg viewBox="162.70700073242188 69.4260025024414 78.11799621582031 62.23500061035156" xmlns="http://www.w3.org/2000/svg">
  <g id="Layer_2_1_" transform="matrix(1, 0, 0, 1, -89.49665383898048, 65.52397673766772)">
    <g>
      <path fill="#FFFFFF" d="M252.271,3.975c0,0,19.891,18.162,39.262,19.662c19.372,1.5,34.869,3.5,37.774,12c0,0-6.239-2.882-16,3.5&#10;&#9;&#9;&#9;c-13,8.5-20.613,19-39.5,23s-20.5,1-20.5,1"/>
      <path fill="#231F20" d="M252.336,3.902c2.795,2.23,5.715,4.292,8.675,6.273c2.96,1.984,6.035,3.779,9.151,5.472&#10;&#9;&#9;&#9;c3.119,1.686,6.345,3.174,9.663,4.365c3.312,1.206,6.711,2.15,10.176,2.667c1.716,0.246,3.53,0.402,5.305,0.607&#10;&#9;&#9;&#9;c1.781,0.197,3.562,0.411,5.342,0.64c3.557,0.467,7.107,0.99,10.642,1.623c3.52,0.682,7.065,1.398,10.425,2.783&#10;&#9;&#9;&#9;c1.677,0.682,3.33,1.495,4.789,2.648c1.463,1.132,2.693,2.664,3.369,4.464l0.449,1.195l-1.266-0.459&#10;&#9;&#9;&#9;c-1.447-0.525-3.227-0.608-4.867-0.447c-1.669,0.165-3.313,0.6-4.893,1.204c-1.58,0.604-3.106,1.371-4.547,2.286l-1.072,0.678&#10;&#9;&#9;&#9;l-1.074,0.755c-0.721,0.5-1.432,1.007-2.118,1.523c-2.784,2.042-5.489,4.259-8.22,6.456c-1.366,1.1-2.746,2.193-4.153,3.261&#10;&#9;&#9;&#9;c-1.41,1.064-2.865,2.078-4.347,3.057c-0.754,0.472-1.496,0.96-2.261,1.417l-2.33,1.308l-2.398,1.185&#10;&#9;&#9;&#9;c-0.809,0.375-1.637,0.708-2.454,1.064c-0.812,0.37-1.668,0.628-2.503,0.938c-0.835,0.313-1.688,0.565-2.547,0.801&#10;&#9;&#9;&#9;c-1.7,0.532-3.444,0.879-5.174,1.272c-1.745,0.318-3.441,0.639-5.202,0.896c-0.873,0.133-1.749,0.242-2.626,0.335&#10;&#9;&#9;&#9;c-0.874,0.109-1.753,0.194-2.634,0.26c-1.758,0.149-3.528,0.233-5.302,0.141c-0.885-0.034-1.773-0.125-2.651-0.289&#10;&#9;&#9;&#9;c-0.438-0.089-0.876-0.185-1.298-0.351c-0.417-0.172-0.848-0.323-1.165-0.746l0.174-0.094c0.25,0.261,0.699,0.409,1.097,0.509&#10;&#9;&#9;&#9;c0.41,0.106,0.838,0.162,1.263,0.208c0.855,0.078,1.72,0.087,2.584,0.04c1.728-0.089,3.453-0.267,5.171-0.534&#10;&#9;&#9;&#9;c0.859-0.123,1.716-0.265,2.571-0.431c0.856-0.15,1.709-0.317,2.557-0.503c1.692-0.317,3.423-0.72,5.107-1.098&#10;&#9;&#9;&#9;c1.67-0.439,3.352-0.831,4.978-1.4c0.823-0.255,1.64-0.525,2.435-0.854c0.794-0.327,1.62-0.575,2.396-0.948&#10;&#9;&#9;&#9;c0.782-0.355,1.574-0.687,2.348-1.06l2.291-1.176l2.235-1.286c0.739-0.439,1.46-0.912,2.191-1.366&#10;&#9;&#9;&#9;c2.885-1.888,5.654-3.98,8.419-6.115c2.764-2.141,5.516-4.315,8.416-6.361c0.72-0.526,1.451-1.011,2.185-1.485l1.098-0.72&#10;&#9;&#9;&#9;l1.163-0.7c1.535-0.926,3.171-1.704,4.873-2.31c1.698-0.612,3.484-1.031,5.308-1.142c1.833-0.094,3.645-0.002,5.479,0.734&#10;&#9;&#9;&#9;l-0.817,0.736c-0.504-1.591-1.521-3.009-2.837-4.123c-1.31-1.125-2.852-2.007-4.47-2.708c-3.257-1.375-6.743-2.241-10.253-2.843&#10;&#9;&#9;&#9;c-3.516-0.612-7.074-0.959-10.637-1.22l-5.349-0.348c-1.79-0.111-3.549-0.166-5.39-0.33c-1.814-0.208-3.621-0.512-5.387-0.964&#10;&#9;&#9;&#9;c-1.759-0.47-3.513-0.973-5.201-1.645c-3.392-1.298-6.653-2.888-9.792-4.669c-3.156-1.756-6.119-3.824-9.019-5.948&#10;&#9;&#9;&#9;c-1.449-1.065-2.849-2.196-4.217-3.36c-1.369-1.163-2.717-2.35-3.986-3.623L252.336,3.902z"/>
    </g>
  </g>
</svg>