<svg xmlns="http://www.w3.org/2000/svg" viewBox="0 0 78.12 60.71"><defs><style>.flag2-cls-1{fill:#57c5cb;}.flag2-cls-2{fill:#231f20;}</style></defs><title>Asset 3</title><g id="Layer_2" data-name="Layer 2"><g id="Layer_1-2" data-name="Layer 1"><g id="flag_1" data-name="flag 1"><path class="flag2-cls-1" d="M.07.07S20,18.24,39.33,19.74s34.87,3.5,37.77,12c0,0-6.24-2.88-16,3.5-13,8.5-20.61,19-39.5,23s-20.5,1-20.5,1"/><path class="flag2-cls-2" d="M.13,0C2.92,2.23,5.84,4.29,8.8,6.27s6,3.78,9.15,5.47a70.37,70.37,0,0,0,9.66,4.37,52.46,52.46,0,0,0,10.18,2.67c1.72.25,3.53.4,5.31.61s3.56.41,5.34.64c3.56.47,7.1,1,10.64,1.62a54,54,0,0,1,10.43,2.78,19.41,19.41,0,0,1,4.79,2.65,10.31,10.31,0,0,1,3.37,4.46l.45,1.2-1.27-.46A11.48,11.48,0,0,0,72,31.83a19,19,0,0,0-4.9,1.2,25.4,25.4,0,0,0-4.55,2.29L61.47,36l-1.07.76c-.72.5-1.43,1-2.12,1.52-2.78,2-5.49,4.26-8.22,6.46-1.37,1.1-2.75,2.19-4.15,3.26S43,50.07,41.56,51.05c-.76.47-1.5,1-2.26,1.42L37,53.78,34.57,55c-.81.37-1.64.71-2.45,1.06s-1.67.63-2.5.94-1.69.56-2.55.8c-1.7.53-3.44.88-5.17,1.27s-3.44.64-5.2.9c-.87.13-1.75.24-2.63.33s-1.75.19-2.63.26a38.84,38.84,0,0,1-5.3.14,18.24,18.24,0,0,1-2.65-.29A7.75,7.75,0,0,1,2.18,60,2.46,2.46,0,0,1,1,59.28l.18-.09a2.37,2.37,0,0,0,1.1.51,8.94,8.94,0,0,0,1.26.21,17.88,17.88,0,0,0,2.58,0,50.6,50.6,0,0,0,5.17-.53q1.29-.18,2.57-.43c.85-.15,1.71-.32,2.56-.5,1.69-.32,3.42-.72,5.11-1.1s3.35-.83,5-1.4c.82-.25,1.64-.52,2.44-.85s1.62-.57,2.4-.95,1.57-.69,2.35-1.06L36,51.94l2.23-1.29c.74-.44,1.46-.91,2.19-1.37,2.88-1.89,5.65-4,8.42-6.11s5.52-4.32,8.42-6.36c.72-.53,1.45-1,2.18-1.48l1.1-.72,1.16-.7a26.92,26.92,0,0,1,4.87-2.31,19.11,19.11,0,0,1,5.31-1.14,12.54,12.54,0,0,1,5.48.73l-.81.74A9.06,9.06,0,0,0,73.7,27.8a17.58,17.58,0,0,0-4.47-2.71A46.55,46.55,0,0,0,59,22.25c-3.52-.61-7.07-1-10.64-1.22L43,20.68c-1.79-.11-3.55-.17-5.39-.33a40.27,40.27,0,0,1-5.39-1A46.52,46.52,0,0,1,27,17.75a72.21,72.21,0,0,1-9.79-4.67,87,87,0,0,1-9-5.95C6.75,6.06,5.35,4.93,4,3.77S1.27,1.42,0,.14Z"/></g></g></g></svg>
