<svg xmlns="http://www.w3.org/2000/svg" viewBox="0 0 78.34 59.47"><defs><style>.flag3-cls-1{fill:#57c5cb;}.flag3-cls-2{fill:#231f20;}</style></defs><title>Asset 4</title><g id="Layer_2" data-name="Layer 2"><g id="Layer_1-2" data-name="Layer 1"><g id="flag_2" data-name="flag 2"><path class="flag3-cls-1" d="M.62.31S4.78,9.47,24.15,11s46.5-4.5,53.5,10.2c0,0-6.24-2.88-16,3.5-13,8.5-21,27.8-60,34.8"/><path class="flag3-cls-2" d="M.17,0A14.22,14.22,0,0,0,3.71,3.7,25.77,25.77,0,0,0,8.13,6.31,39.14,39.14,0,0,0,18,9.21a65.76,65.76,0,0,0,10.29.85c3.46.06,6.94,0,10.43,0s7,0,10.48.12,7,.31,10.48.72A35.11,35.11,0,0,1,69.86,13.5a17.4,17.4,0,0,1,4.51,2.86,14.68,14.68,0,0,1,3.29,4.29L78.34,22l-1.47-.53A11.85,11.85,0,0,0,71.78,21a19.79,19.79,0,0,0-5.09,1.34A28.47,28.47,0,0,0,62,24.84a39.11,39.11,0,0,0-4.25,3.25c-2.71,2.35-5.23,5-7.85,7.56a103.18,103.18,0,0,1-8.21,7.4,74.21,74.21,0,0,1-9.19,6.22l-2.44,1.32c-.83.41-1.65.83-2.49,1.22Q25.05,53,22.48,54c-.87.32-1.72.66-2.59,1l-2.62.85-2.65.77-2.67.69c-1.78.43-3.57.84-5.38,1.15S3,59,1.14,59.3l0-.19c1.77-.44,3.56-.83,5.31-1.31s3.51-1,5.25-1.5l2.6-.83,2.57-.91c1.7-.65,3.38-1.31,5.05-2s3.3-1.48,4.91-2.3c.81-.41,1.6-.85,2.39-1.27l2.34-1.36c1.53-1,3.06-1.9,4.53-2.95s2.9-2.13,4.32-3.25c2.82-2.25,5.48-4.7,8.12-7.21s5.23-5.1,8.08-7.49a36.91,36.91,0,0,1,4.53-3.28,30.09,30.09,0,0,1,5-2.51,20,20,0,0,1,5.52-1.29,12.9,12.9,0,0,1,5.72.72l-.79.8A13.27,13.27,0,0,0,73.73,17a15.81,15.81,0,0,0-4.18-2.89,26.06,26.06,0,0,0-4.86-1.71,37.44,37.44,0,0,0-5.11-.91c-1.72-.2-3.46-.3-5.2-.35s-3.48,0-5.21,0c-3.48.09-7,.28-10.44.45s-7,.25-10.51.15a67,67,0,0,1-10.52-1.1,35.56,35.56,0,0,1-10-3.46,21.76,21.76,0,0,1-4.38-3A13.25,13.25,0,0,1,0,.08Z"/></g></g></g></svg>
