<?xml version="1.0" encoding="utf-8"?>
<svg viewBox="255.218994140625 155.19400024414062 76.51899719238281 70.0469970703125" xmlns="http://www.w3.org/2000/svg">
  <g id="Layer_5" transform="matrix(1, 0, 0, 1, 2.4997876989456884, 149.10389518782387)">
    <g>
      <path fill="#FFFFFF" d="M252.807,6.137c0,0,26.328,50.438,72.414,38.969c0,0-51.414,31.031-71.414,18.031"/>
      <path fill="#231F20" d="M252.896,6.09c0.969,1.567,1.999,3.096,3.055,4.602c1.067,1.499,2.174,2.967,3.281,4.431&#10;&#9;&#9;&#9;c1.127,1.451,2.284,2.875,3.482,4.262c1.206,1.381,2.422,2.751,3.678,4.083s2.559,2.615,3.868,3.89l2.012,1.861l2.074,1.788&#10;&#9;&#9;&#9;c1.396,1.173,2.817,2.319,4.283,3.403c0.72,0.561,1.456,1.1,2.216,1.604c0.756,0.509,1.476,1.078,2.258,1.545l2.317,1.461&#10;&#9;&#9;&#9;l2.389,1.343c0.794,0.456,1.634,0.818,2.449,1.233c0.814,0.422,1.654,0.782,2.504,1.125c1.671,0.762,3.431,1.281,5.17,1.865&#10;&#9;&#9;&#9;c1.781,0.434,3.55,0.94,5.371,1.184c1.805,0.344,3.642,0.425,5.467,0.591c1.831,0.004,3.668,0.127,5.491-0.093&#10;&#9;&#9;&#9;c0.912-0.082,1.826-0.13,2.733-0.239l2.71-0.429c0.906-0.119,1.796-0.329,2.683-0.55l2.663-0.634l4.188-0.998l-3.65,2.292&#10;&#9;&#9;&#9;c-2.718,1.706-5.49,3.267-8.284,4.815c-2.803,1.525-5.645,2.979-8.515,4.378c-2.874,1.391-5.768,2.747-8.715,3.988&#10;&#9;&#9;&#9;c-1.478,0.61-2.955,1.222-4.45,1.792c-1.484,0.597-3.006,1.102-4.515,1.634c-1.52,0.509-3.041,1.01-4.58,1.46&#10;&#9;&#9;&#9;c-1.533,0.465-3.094,0.85-4.65,1.235l-2.349,0.535l-2.367,0.454c-0.786,0.165-1.588,0.258-2.382,0.381&#10;&#9;&#9;&#9;c-0.794,0.126-1.592,0.232-2.396,0.298c-1.601,0.176-3.218,0.218-4.828,0.238l-2.42-0.077l-2.41-0.255&#10;&#9;&#9;&#9;c-0.798-0.123-1.59-0.304-2.379-0.462c-0.784-0.193-1.55-0.468-2.319-0.698c-0.757-0.278-1.483-0.641-2.22-0.955&#10;&#9;&#9;&#9;c-0.705-0.39-1.375-0.839-2.056-1.252l0.109-0.168c0.714,0.345,1.411,0.713,2.126,1.032c0.747,0.25,1.474,0.546,2.227,0.757&#10;&#9;&#9;&#9;c0.769,0.164,1.523,0.371,2.294,0.498c0.78,0.088,1.552,0.207,2.328,0.287l2.343,0.113l2.349-0.061&#10;&#9;&#9;&#9;c1.563-0.107,3.124-0.246,4.675-0.495c0.778-0.091,1.552-0.222,2.323-0.373c0.771-0.148,1.547-0.265,2.312-0.454l2.298-0.525&#10;&#9;&#9;&#9;l2.282-0.605c1.514-0.429,3.025-0.869,4.521-1.366c1.505-0.466,2.994-0.984,4.481-1.508c2.962-1.085,5.913-2.208,8.83-3.423&#10;&#9;&#9;&#9;c2.913-1.226,5.821-2.47,8.69-3.805c2.874-1.325,5.713-2.727,8.535-4.165c2.824-1.427,5.627-2.923,8.378-4.46l0.537,1.294&#10;&#9;&#9;&#9;l-2.756,0.506c-0.915,0.178-1.832,0.343-2.765,0.417l-2.777,0.306c-0.929,0.068-1.862,0.076-2.791,0.117l-1.394,0.049&#10;&#9;&#9;&#9;c-0.465,0-0.93-0.033-1.395-0.045c-0.929-0.028-1.858-0.038-2.786-0.081c-1.848-0.199-3.704-0.313-5.525-0.691&#10;&#9;&#9;&#9;c-1.842-0.25-3.637-0.732-5.449-1.141c-1.781-0.522-3.575-1.017-5.316-1.673c-0.882-0.299-1.758-0.617-2.607-0.998&#10;&#9;&#9;&#9;c-0.852-0.374-1.73-0.698-2.563-1.115l-2.511-1.235l-2.445-1.361c-0.826-0.439-1.597-0.967-2.391-1.46&#10;&#9;&#9;&#9;c-0.793-0.494-1.562-1.022-2.316-1.574c-1.54-1.059-2.978-2.253-4.421-3.435l-2.097-1.853l-2.025-1.928&#10;&#9;&#9;&#9;c-1.326-1.31-2.612-2.658-3.846-4.052c-2.487-2.771-4.747-5.733-6.863-8.781c-1.056-1.526-2.063-3.085-2.999-4.687&#10;&#9;&#9;&#9;c-0.938-1.599-1.853-3.211-2.634-4.895L252.896,6.09z"/>
    </g>
  </g>
</svg>