<?xml version="1.0" encoding="utf-8"?>
<svg viewBox="334.0920104980469 62.46500015258789 79.0979995727539 62.569000244140625" xmlns="http://www.w3.org/2000/svg">
  <g id="Layer_4" transform="matrix(1, 0, 0, 1, 81.8552865635015, 57.897500257328474)">
    <g>
      <path fill="#FFFFFF" d="M253.307,63.137c0,0,45.5,4,76.5-32.5c0,0-44.5,9-77.5-26"/>
      <path fill="#231F20" d="M253.315,63.039c3.578,0.049,7.149-0.198,10.696-0.55c1.775-0.17,3.543-0.407,5.305-0.666&#10;&#9;&#9;&#9;c1.761-0.277,3.512-0.597,5.262-0.917c1.747-0.335,3.483-0.721,5.214-1.132c1.724-0.437,3.441-0.894,5.142-1.411&#10;&#9;&#9;&#9;c1.693-0.535,3.399-1.035,5.07-1.637c1.683-0.57,3.345-1.196,5.005-1.831c1.646-0.668,3.305-1.313,4.918-2.064&#10;&#9;&#9;&#9;c1.639-0.699,3.213-1.531,4.812-2.319c1.562-0.854,3.146-1.678,4.661-2.623c1.538-0.907,3.008-1.92,4.479-2.933&#10;&#9;&#9;&#9;c0.736-0.506,1.43-1.07,2.146-1.602c0.712-0.539,1.432-1.07,2.097-1.667c1.361-1.156,2.723-2.312,4.001-3.559&#10;&#9;&#9;&#9;c1.332-1.191,2.54-2.508,3.759-3.81c1.225-1.296,2.336-2.696,3.505-4.039l0.529,0.897c-1.779,0.373-3.535,0.62-5.315,0.828&#10;&#9;&#9;&#9;c-1.775,0.204-3.558,0.347-5.343,0.415c-1.785,0.086-3.572,0.101-5.36,0.091c-1.787-0.033-3.573-0.121-5.357-0.249&#10;&#9;&#9;&#9;c-1.784-0.134-3.562-0.325-5.339-0.545l-2.657-0.387l-2.645-0.467c-1.758-0.342-3.512-0.718-5.241-1.187&#10;&#9;&#9;&#9;c-1.739-0.43-3.453-0.959-5.161-1.502c-1.694-0.586-3.385-1.18-5.041-1.868c-1.676-0.636-3.294-1.415-4.913-2.177&#10;&#9;&#9;&#9;c-1.598-0.812-3.199-1.611-4.741-2.524c-1.574-0.852-3.062-1.851-4.579-2.794c-0.747-0.492-1.473-1.015-2.2-1.533&#10;&#9;&#9;&#9;c-0.729-0.517-1.458-1.032-2.149-1.599l-2.101-1.659c-0.693-0.56-1.351-1.166-2.026-1.746c-1.373-1.138-2.614-2.422-3.885-3.664&#10;&#9;&#9;&#9;c-1.268-1.246-2.428-2.6-3.626-3.906l0.144-0.135c1.323,1.182,2.569,2.436,3.916,3.58c1.352,1.139,2.678,2.3,4.086,3.361&#10;&#9;&#9;&#9;c0.699,0.536,1.377,1.097,2.091,1.612l2.158,1.52c0.708,0.52,1.453,0.988,2.197,1.456c0.746,0.463,1.47,0.961,2.219,1.417&#10;&#9;&#9;&#9;c1.522,0.876,3.011,1.806,4.582,2.588c1.537,0.843,3.132,1.573,4.719,2.314c0.792,0.373,1.614,0.681,2.416,1.031&#10;&#9;&#9;&#9;c0.801,0.354,1.61,0.686,2.434,0.984c1.627,0.647,3.288,1.201,4.95,1.748c1.676,0.504,3.341,1.046,5.042,1.463&#10;&#9;&#9;&#9;c1.688,0.465,3.403,0.822,5.113,1.201l2.578,0.505l2.595,0.428c1.735,0.248,3.475,0.467,5.222,0.632&#10;&#9;&#9;&#9;c1.747,0.163,3.498,0.268,5.252,0.352c1.754,0.067,3.51,0.11,5.266,0.083c1.757-0.011,3.512-0.1,5.265-0.201&#10;&#9;&#9;&#9;c1.747-0.115,3.515-0.278,5.22-0.547l1.633-0.258l-1.104,1.155c-1.246,1.305-2.424,2.67-3.718,3.924&#10;&#9;&#9;&#9;c-1.293,1.255-2.562,2.531-3.91,3.724c-1.308,1.236-2.698,2.379-4.087,3.521c-1.396,1.132-2.822,2.229-4.261,3.308&#10;&#9;&#9;&#9;c-1.471,1.035-2.904,2.125-4.427,3.086c-1.477,1.034-3.027,1.95-4.562,2.899c-1.57,0.883-3.123,1.81-4.745,2.603&#10;&#9;&#9;&#9;c-1.599,0.843-3.24,1.596-4.887,2.345c-1.672,0.682-3.333,1.404-5.049,1.977c-1.698,0.622-3.427,1.157-5.166,1.647&#10;&#9;&#9;&#9;c-1.74,0.49-3.495,0.919-5.255,1.327c-1.766,0.382-3.535,0.738-5.315,1.041c-1.778,0.31-3.571,0.531-5.364,0.722&#10;&#9;&#9;&#9;c-1.796,0.173-3.593,0.323-5.393,0.405c-1.799,0.109-3.604,0.101-5.402,0.067c-1.8-0.041-3.599-0.125-5.387-0.353L253.315,63.039z&#10;&#9;&#9;&#9;"/>
    </g>
  </g>
</svg>