<?xml version="1.0" encoding="utf-8"?>
<svg viewBox="284.87799072265625 79.7249984741211 78.34200286865234 59.29899978637695" xmlns="http://www.w3.org/2000/svg">
  <g id="Layer_3" transform="matrix(1, 0, 0, 1, 32.6939354136704, 75.79249647170468)">
    <g>
      <path fill="#FFFFFF" d="M252.271,3.975c0,0,4.166,9.162,23.537,10.662c19.372,1.5,46.5-4.5,53.5,10.2c0,0-6.239-2.882-16,3.5&#10;&#9;&#9;&#9;c-13,8.5-21,27.8-60,34.8"/>
      <path fill="#231F20" d="M252.359,3.933c0.901,1.462,2.185,2.665,3.538,3.703c1.374,1.028,2.871,1.877,4.416,2.609&#10;&#9;&#9;&#9;c3.104,1.464,6.464,2.289,9.837,2.894c3.387,0.588,6.832,0.796,10.293,0.847c3.462,0.064,6.938,0.029,10.426,0.032&#10;&#9;&#9;&#9;c3.487,0.017,6.983,0.015,10.482,0.122c3.499,0.115,6.999,0.307,10.481,0.721c3.469,0.453,6.973,1.085,10.212,2.572&#10;&#9;&#9;&#9;c1.612,0.734,3.174,1.648,4.514,2.86c1.344,1.201,2.463,2.669,3.289,4.286l0.679,1.328l-1.47-0.528&#10;&#9;&#9;&#9;c-1.517-0.545-3.374-0.612-5.085-0.43c-1.738,0.212-3.452,0.671-5.089,1.341c-1.631,0.685-3.213,1.503-4.7,2.487&#10;&#9;&#9;&#9;c-1.507,0.972-2.889,2.086-4.25,3.254c-2.714,2.355-5.237,4.989-7.85,7.559c-2.597,2.589-5.323,5.086-8.209,7.402&#10;&#9;&#9;&#9;c-2.902,2.295-5.976,4.385-9.19,6.22l-2.442,1.316c-0.831,0.406-1.652,0.83-2.489,1.22c-1.676,0.779-3.372,1.507-5.09,2.177&#10;&#9;&#9;&#9;c-0.865,0.318-1.721,0.664-2.593,0.96l-2.626,0.853l-2.647,0.775l-2.668,0.693c-1.783,0.433-3.574,0.838-5.381,1.151&#10;&#9;&#9;&#9;c-1.797,0.357-3.612,0.613-5.422,0.875l-0.035-0.193c1.774-0.443,3.557-0.828,5.315-1.315c1.766-0.449,3.508-0.986,5.252-1.497&#10;&#9;&#9;&#9;l2.597-0.83l2.567-0.908c1.696-0.644,3.383-1.306,5.049-2.013c1.663-0.714,3.301-1.482,4.911-2.299&#10;&#9;&#9;&#9;c0.806-0.409,1.594-0.85,2.39-1.273l2.337-1.363c1.532-0.95,3.065-1.898,4.531-2.946c1.484-1.021,2.903-2.134,4.318-3.25&#10;&#9;&#9;&#9;c2.82-2.25,5.479-4.704,8.121-7.206c2.644-2.502,5.229-5.105,8.081-7.489c1.424-1.193,2.941-2.317,4.533-3.282&#10;&#9;&#9;&#9;c1.585-0.996,3.278-1.827,5.031-2.514c1.759-0.677,3.619-1.13,5.516-1.286c1.911-0.115,3.806-0.039,5.719,0.723l-0.791,0.8&#10;&#9;&#9;&#9;c-0.681-1.53-1.646-2.931-2.854-4.11c-1.204-1.183-2.638-2.144-4.177-2.893c-1.544-0.745-3.19-1.283-4.863-1.711&#10;&#9;&#9;&#9;c-1.676-0.423-3.388-0.719-5.112-0.906c-1.724-0.198-3.459-0.302-5.196-0.346c-1.736-0.061-3.477-0.02-5.216,0.016&#10;&#9;&#9;&#9;c-3.479,0.091-6.957,0.278-10.444,0.451c-3.488,0.158-6.99,0.249-10.504,0.145c-3.51-0.126-7.048-0.414-10.525-1.097&#10;&#9;&#9;&#9;c-3.481-0.646-6.888-1.801-10.034-3.455c-1.573-0.827-3.055-1.837-4.379-3.022c-1.312-1.189-2.53-2.525-3.279-4.149L252.359,3.933&#10;&#9;&#9;&#9;z"/>
    </g>
  </g>
</svg>