<svg xmlns="http://www.w3.org/2000/svg" viewBox="0 0 79.1 59.04"><defs><style>.flag4-cls-1{fill:#57c5cb;}.flag4-cls-2{fill:#231f20;}</style></defs><title>Asset 5</title><g id="Layer_2" data-name="Layer 2"><g id="Layer_1-2" data-name="Layer 1"><g id="flag_3" data-name="flag 3"><path class="flag4-cls-1" d="M1.07,58.57s45.5,4,76.5-32.5c0,0-44.5,9-77.5-26"/><path class="flag4-cls-2" d="M1.07,58.47a95.37,95.37,0,0,0,10.7-.55c1.77-.17,3.54-.41,5.31-.67s3.51-.6,5.26-.92,3.48-.72,5.21-1.13,3.44-.89,5.14-1.41,3.4-1,5.07-1.64,3.35-1.2,5-1.83,3.31-1.31,4.92-2.06,3.21-1.53,4.81-2.32,3.15-1.68,4.66-2.62,3-1.92,4.48-2.93c.74-.51,1.43-1.07,2.15-1.6s1.43-1.07,2.1-1.67c1.36-1.16,2.72-2.31,4-3.56s2.54-2.51,3.76-3.81,2.34-2.7,3.51-4l.53.9c-1.78.37-3.54.62-5.32.83s-3.56.35-5.34.42-3.57.1-5.36.09-3.57-.12-5.36-.25-3.56-.32-5.34-.54l-2.66-.39-2.64-.47c-1.76-.34-3.51-.72-5.24-1.19s-3.45-1-5.16-1.5-3.38-1.18-5-1.87-3.29-1.41-4.91-2.18-3.2-1.61-4.74-2.52S17.5,15.19,16,14.24c-.75-.49-1.47-1-2.2-1.53s-1.46-1-2.15-1.6L9.54,9.45c-.69-.56-1.35-1.17-2-1.75C6.14,6.57,4.9,5.28,3.63,4S1.2,1.44,0,.14L.14,0C1.47,1.18,2.71,2.44,4.06,3.58s2.68,2.3,4.09,3.36c.7.54,1.38,1.1,2.09,1.61l2.16,1.52c.71.52,1.45,1,2.2,1.46s1.47,1,2.22,1.42c1.52.88,3,1.81,4.58,2.59s3.13,1.57,4.72,2.31c.79.37,1.61.68,2.42,1s1.61.69,2.44,1c1.63.65,3.29,1.2,4.95,1.75s3.34,1,5,1.46,3.4.82,5.11,1.2l2.58.51,2.6.43c1.73.25,3.48.47,5.22.63s3.5.27,5.25.35,3.51.11,5.27.08,3.51-.1,5.27-.2,3.51-.28,5.22-.55l1.63-.26L78,26.42c-1.25,1.3-2.43,2.67-3.72,3.92s-2.56,2.53-3.91,3.72-2.7,2.38-4.09,3.52S63.46,39.82,62,40.9,59.12,43,57.59,44s-3,1.95-4.56,2.9-3.12,1.81-4.74,2.6S45,51.08,43.4,51.83s-3.33,1.4-5,2S34.92,55,33.18,55.46s-3.49.92-5.25,1.33-3.54.74-5.31,1-3.57.53-5.36.72-3.59.32-5.39.4-3.6.1-5.4.07a51.89,51.89,0,0,1-5.39-.35Z"/></g></g></g></svg>
