<?xml version="1.0" encoding="utf-8"?>
<svg viewBox="0 0.020999999716877937 1920 770.114990234375" xmlns="http://www.w3.org/2000/svg">
  <path d="M 1809 83.66 C 1776.28 81.4 1746 75.02 1716.85 78.52 C 1687.92 81.99 1660.19 95.38 1631.42 104.59 C 1607.61 79.85 1579.23 74.74 1545.42 89.27 C 1534.05 55.78 1515.85 27.88 1480.49 20.8 C 1445.79 13.85 1416.76 29 1392.9 55 C 1368.71 43.18 1348.75 49 1335.18 66.79 C 1312.95 48.99 1293.83 30.58 1271.83 16.79 C 1236.44 -5.44 1197.73 -1.71 1158.14 6.08 C 1114.36 14.69 1065.52 74.54 1077.32 123.15 C 1079.83 133.49 1081.05 144.15 1083.76 159.83 C 1041.53 134.77 1001.76 130.3 958.71 140.19 C 912.97 150.7 887.56 184.12 862.34 219.57 C 832.27 202.79 805.04 207.57 779.54 224.04 L 754.45 209.71 L 719.33 218.07 C 718.04 191.6 707.56 168.92 687.85 151.77 C 666.95 133.58 641.66 134.01 614.52 140.67 C 612.29 127.77 610.98 116.07 608.18 104.73 C 601.35 77.16 591.62 69.16 562.11 66.24 L 545.11 83.24 C 488.2 40.17 427.77 31.29 368 72.61 C 309.39 113.13 300.53 171.32 324 237.46 C 274.14 210.13 254.58 210.53 223.59 237.96 C 216.09 251.18 214.59 263.04 216.59 274.29 L 213.71 271 L 200.59 272.83 L 190.2 265.11 L 174.54 269 C 169.54 260.63 165.31 252 159.66 244.5 C 142.43 221.56 113.04 222.5 98.96 245.92 C 98.335 246.768 97.646 247.567 96.9 248.31 L 88.07 250.72 L 82.88 259.27 C 74.07 260.17 65.54 259.56 58.07 262.09 C 36.14 269.51 12.69 290.51 19.59 326.5 C 19.95 328.36 18.86 330.5 18.28 333.27 C 11.28 330.67 5.28 330.35 0 331.91 L 0 770.136 L 1920 768.685 L 1920 43.62 C 1875.42 37.83 1834.82 46.61 1809 83.66 Z"/>
</svg>