<svg xmlns="http://www.w3.org/2000/svg" viewBox="0 0 1920 425.01">
  <path d="M1809,83.66c-32.72-2.26-63-8.64-92.15-5.14-28.93,3.47-56.66,16.86-85.43,26.07-23.81-24.74-52.19-29.85-86-15.32-11.37-33.49-29.57-61.39-64.93-68.47C1445.79,13.85,1416.76,29,1392.9,55c-24.19-11.82-44.15-6-57.72,11.79-22.23-17.8-41.35-36.21-63.35-50-35.39-22.23-74.1-18.5-113.69-10.71-43.78,8.61-92.62,68.46-80.82,117.07,2.51,10.34,3.73,21,6.44,36.68-42.23-25.06-82-29.53-125.05-19.64-45.74,10.51-71.15,43.93-96.37,79.38-30.07-16.78-57.3-12-82.8,4.47l-25.09-14.33-35.12,8.36c-1.29-26.47-11.77-49.15-31.48-66.3-20.9-18.19-46.19-17.76-73.33-11.1-2.23-12.9-3.54-24.6-6.34-35.94-6.83-27.57-16.56-35.57-46.07-38.49l-17,17C488.2,40.17,427.77,31.29,368,72.61c-58.61,40.52-67.47,98.71-44,164.85-49.86-27.33-69.42-26.93-100.41.5-7.5,13.22-9,25.08-7,36.33L213.71,271l-13.12,1.83-10.39-7.72L174.54,269c-5-8.37-9.23-17-14.88-24.5-17.23-22.94-46.62-22-60.7,1.42a20.76,20.76,0,0,1-2.06,2.39l-8.83,2.41-5.19,8.55c-8.81.9-17.34.29-24.81,2.82-21.93,7.42-45.38,28.42-38.48,64.41.36,1.86-.73,4-1.31,6.77-7-2.6-13-2.92-18.28-1.36V425H1920V43.62C1875.42,37.83,1834.82,46.61,1809,83.66Z"/>
</svg>
