<?xml version="1.0" encoding="utf-8"?>
<svg viewBox="0 -0.0010000000474974513 1920 1293.5770263671875" xmlns="http://www.w3.org/2000/svg">
  <path d="M 1906.84 163.45 L 1892.53 159.39 L 1875.3 139.46 L 1857.3 141.97 L 1843.09 131.4 L 1821.65 136.62 C 1814.77 125.16 1809.02 113.38 1801.29 103.09 C 1777.71 71.7 1737.49 72.92 1718.22 105.03 C 1717.363 106.192 1716.42 107.288 1715.4 108.31 L 1703.32 111.6 L 1696.22 123.3 C 1684.17 124.54 1672.49 123.7 1662.28 127.16 C 1632.28 137.32 1600.18 166.05 1609.61 215.31 C 1610.1 217.85 1608.61 220.78 1607.82 224.58 C 1585.82 216.39 1570.74 224.73 1559.53 242.78 L 1546.53 237 L 1531 242.8 C 1529.79 241.12 1528.83 239.52 1527.62 238.13 C 1507.11 214.41 1482.01 200.69 1449.8 202.35 C 1444.24 202.64 1438.66 202.5 1433.09 202.44 C 1420.32 202.29 1408.82 206.33 1398.02 212.84 C 1372.8 228.04 1357.44 250.37 1350.63 278.73 C 1348.24 288.67 1346.54 298.78 1344.52 308.88 L 1310.39 299.42 C 1274.98 305.84 1249.07 319.58 1244.54 356.31 L 1206.65 364.25 C 1198.6 361.25 1189.65 361.6 1180.5 364.37 C 1175.937 363.452 1171.254 363.297 1166.64 363.91 C 1162.73 364.42 1158.58 363.04 1153.59 362.43 C 1154.3 348.25 1153.33 335.48 1142 322.79 L 1114.21 312.39 C 1122.61 303.76 1130.21 296.39 1137.36 288.53 C 1156.06 268.15 1167.94 245.31 1166.57 216.37 C 1165.2 187.43 1149.66 171.37 1120.16 171.13 C 1114.49 171.13 1108.82 170.72 1105.82 170.61 C 1100.93 160.61 1098.82 151.45 1093.23 146.1 C 1087.64 140.75 1078.41 139.18 1070.39 135.78 C 1071.44 129.61 1072.39 123.32 1073.61 117.1 C 1081.24 79.5 1071.99 46.94 1043.21 21.25 C 1025.47 5.41 1004.46 -1.85 979.91 0.4 C 965.18 1.76 953.69 8.75 940.91 16.3 C 936.75 22.06 931.57 28.25 927.5 35.1 C 923.43 41.95 920.5 49.42 917.14 56.56 C 912.78 56.25 908.49 55.33 904.39 55.84 C 899.85 56.41 895.47 58.29 891.07 59.58 C 875.52 37.58 851.46 34.68 830.94 42.38 C 810.1 50.2 795.35 65.88 790.25 88.58 C 788.06 98.34 786.86 108.33 785.25 118.28 C 778.6 119.7 771.59 119.62 766.53 122.73 C 761.25 125.98 757.86 132.29 753.82 137.04 L 732 137.04 L 723.53 151.16 C 718.33 152.91 712.75 154.7 707.22 156.66 C 666.43 171.14 640.47 199.15 629 241 C 624.51 257.44 626.88 274 626.29 290.46 C 626.18 293.63 625.94 296.8 625.79 299.6 L 617.41 306.37 C 616.72 311.48 616.16 315.61 615.51 320.37 C 594.84 315.51 588.19 330.31 581.75 344.26 L 556.59 340.06 C 556.38 322.59 547.81 311.65 529.78 307.84 C 529.78 301.32 530.57 295.41 529.63 289.79 C 526.99 274.08 525.86 257.61 520.15 242.99 C 498.33 187.15 446.22 154.73 385.88 158.82 C 352.19 161.11 326.2 176.82 311.35 209.04 L 288.35 210.7 L 278.2 220.29 L 280.01 222.1 C 279.24 228.32 278.48 234.55 277.9 239.27 L 253.34 250.34 C 227.46 222.64 211.15 221 181.76 243.27 L 169.18 230.05 L 153.1 228 C 144.58 204.16 142.04 202.56 117.4 205.55 C 116.72 203.23 115.82 200.83 115.31 198.34 C 108.51 165.27 90.37 139.34 63.48 119.95 C 43 105.2 21.76 97 0 94.52 L 0 1293.576 L 1920 1293.576 L 1920 180.63 C 1918.21 174.53 1914.49 170.9 1906.84 163.45 Z"/>
</svg>