<svg xmlns="http://www.w3.org/2000/svg" viewBox="0 0 1920 851.28">
  <path class="a" d="M1906.84,163.45l-14.31-4.06-17.23-19.93-18,2.51-14.21-10.57-21.44,5.22c-6.88-11.46-12.63-23.24-20.36-33.53-23.58-31.39-63.8-30.17-83.07,1.94a29,29,0,0,1-2.82,3.28l-12.08,3.29-7.1,11.7c-12.05,1.24-23.73.4-33.94,3.86-30,10.16-62.1,38.89-52.67,88.15.49,2.54-1,5.47-1.79,9.27-22-8.19-37.08.15-48.29,18.2l-13-5.78-15.53,5.8c-1.21-1.68-2.17-3.28-3.38-4.67-20.51-23.72-45.61-37.44-77.82-35.78-5.56.29-11.14.15-16.71.09-12.77-.15-24.27,3.89-35.07,10.4-25.22,15.2-40.58,37.53-47.39,65.89-2.39,9.94-4.09,20.05-6.11,30.15l-34.13-9.46c-35.41,6.42-61.32,20.16-65.85,56.89l-37.89,7.94c-8.05-3-17-2.65-26.15.12a42.12,42.12,0,0,0-13.86-.46c-3.91.51-8.06-.87-13.05-1.48.71-14.18-.26-26.95-11.59-39.64l-27.79-10.4c8.4-8.63,16-16,23.15-23.86,18.7-20.38,30.58-43.22,29.21-72.16s-16.91-45-46.41-45.24c-5.67,0-11.34-.41-14.34-.52-4.89-10-7-19.16-12.59-24.51s-14.82-6.92-22.84-10.32c1.05-6.17,2-12.46,3.22-18.68,7.63-37.6-1.62-70.16-30.4-95.85C1025.47,5.41,1004.46-1.85,979.91.4c-14.73,1.36-26.22,8.35-39,15.9-4.16,5.76-9.34,11.95-13.41,18.8s-7,14.32-10.36,21.46c-4.36-.31-8.65-1.23-12.75-.72-4.54.57-8.92,2.45-13.32,3.74-15.55-22-39.61-24.9-60.13-17.2-20.84,7.82-35.59,23.5-40.69,46.2-2.19,9.76-3.39,19.75-5,29.7-6.65,1.42-13.66,1.34-18.72,4.45-5.28,3.25-8.67,9.56-12.71,14.31H732l-8.47,14.12c-5.2,1.75-10.78,3.54-16.31,5.5C666.43,171.14,640.47,199.15,629,241c-4.49,16.44-2.12,33-2.71,49.46-.11,3.17-.35,6.34-.5,9.14l-8.38,6.77c-.69,5.11-1.25,9.24-1.9,14-20.67-4.86-27.32,9.94-33.76,23.89l-25.16-4.2c-.21-17.47-8.78-28.41-26.81-32.22,0-6.52.79-12.43-.15-18.05-2.64-15.71-3.77-32.18-9.48-46.8-21.82-55.84-73.93-88.26-134.27-84.17-33.69,2.29-59.68,18-74.53,50.22l-23,1.66-10.15,9.59,1.81,1.81c-.77,6.22-1.53,12.45-2.11,17.17l-24.56,11.07c-25.88-27.7-42.19-29.34-71.58-7.07l-12.58-13.22L153.1,228c-8.52-23.84-11.06-25.44-35.7-22.45-.68-2.32-1.58-4.72-2.09-7.21-6.8-33.07-24.94-59-51.83-78.39C43,105.2,21.76,97,0,94.52V851.28H1920V180.63C1918.21,174.53,1914.49,170.9,1906.84,163.45Z"/>
</svg>
