<svg xmlns="http://www.w3.org/2000/svg" viewBox="0 0 1920 514.76">
  <path d="M1359.15,376.76A120.16,120.16,0,0,0,1367,346c-4.1-11-9.19-24.75-13.48-36.3-35.58-27.47-65.5-19.87-92.23,7.46H1233l-60.47-35.42c0-20.79,1.24-43-.29-65.07-2.29-33.13-22.74-57.25-52.07-64.55-27.88-6.94-47.19,3.35-67.79,35.71-1.41,2.22-4.76,3.2-7.21,4.76l-48.06,4.22-20,32H949.51c-11.2-18.05-19.18-41.12-48.56-40l-26.09,19.43L832.6,196.39C793,199.44,770.06,224.07,752,249.63L684.5,220.91c-39.08-41-39.08-41-51.09-99.12L599,96.1c-4.19-8.14-8.19-17.82-13.87-26.39S572.24,54,563.48,43.56l-61.57,3.89L449,.95C336.54-7.58,281,41.39,272.51,150.45l-48.13,51.34c-101.07,2.32-92.1,17.66-116,86.24L81.74,286,0,333V514.76H1920v-138Z"/>
</svg>
