<?xml version="1.0" encoding="utf-8"?>
<svg viewBox="311.7820129394531 -0.0020000000949949026 1561.81298828125 581.4019775390625" xmlns="http://www.w3.org/2000/svg">
  <path d="M931,313.36c-12.54-5.58-24.9-2.92-37.73-.27q-3.33.69-6.67,1.33h96.79c-2.93-.52-5.85-1.09-8.77-1.75C959.83,309.33,945.69,308.14,931,313.36Z"/>
  <path class="a" d="M461.94,314.43h8.95c-1.33-.31-2.66-.61-4-.9C465.24,313.86,463.59,314.15,461.94,314.43Z"/>
  <path class="a" d="M661.73,314.43h18.4A59.41,59.41,0,0,0,661.73,314.43Z"/>
  <path class="a" d="M1136,314.43h27.86c-5.33-1.11-10.87-2.47-16.83-3.57C1144.28,311.76,1140.21,313.08,1136,314.43Z"/>
  <path d="M1062.38,313.93c-1.05.18-2.1.34-3.15.5h22.56A56.08,56.08,0,0,0,1062.38,313.93Z"/>
  <path d="M 1869 314.43 L 1869 291.64 L 1861.38 275.64 L 1834.25 258.25 C 1833.82 248.19 1832.08 238.49 1819.72 232.25 L 1806.88 229.58 C 1806.88 217.01 1807.81 205.34 1806.64 193.88 C 1805.23 180.11 1791.47 177.79 1782.19 172.17 C 1783.64 163.77 1784.66 156.47 1786.19 149.28 C 1793.3 115.79 1788.31 83.93 1770.99 54.73 C 1751.64 22.11 1706.86 -2.75 1666.06 15.15 C 1642.88 25.32 1629.11 41.96 1629.79 67.38 C 1630.11 79.38 1632.98 91.24 1634.69 103.11 C 1610.55 110.4 1607.02 113.77 1600.95 136.01 L 1609.04 158.81 L 1597.59 167.53 C 1597.13 173.87 1596.85 177.81 1596.53 182.28 C 1540.4 144.7 1479.16 172.13 1474.83 234.36 C 1450.6 219.89 1425.68 212.64 1399.95 228.61 C 1375.87 243.61 1370.38 266.61 1371.49 292.23 C 1363.43 291.38 1355.39 290.39 1347.43 289 C 1296.87 280.2 1248.87 264.1 1204.65 235.15 C 1206.9 213 1214.91 188.39 1191.57 170.44 L 1172.28 168.05 C 1170.81 142.7 1162.08 121.67 1137.98 111.27 C 1113.16 100.56 1093.21 112.52 1074.31 128.92 C 1074.5 97.01 1074.5 97.01 1059.7 82.59 L 1045.49 78.59 L 1028.38 58.8 L 1010.55 61.29 L 996.44 50.81 L 975.15 56 C 968.32 44.62 962.61 32.92 954.93 22.71 C 931.51 -8.46 891.57 -7.29 872.43 24.64 C 871.58 25.792 870.644 26.879 869.63 27.89 L 857.63 31.16 L 850.63 42.78 C 838.63 44.01 827.06 43.18 816.92 46.61 C 787.11 56.7 755.25 85.22 764.62 134.15 C 765.11 136.67 763.62 139.58 762.84 143.35 C 740.98 135.22 726.01 143.5 714.84 161.42 L 701.89 155.68 L 686.47 161.44 C 685.27 159.77 684.31 158.19 683.11 156.81 C 662.74 133.25 637.82 119.63 605.83 121.27 C 600.31 121.55 594.77 121.42 589.24 121.36 C 576.55 121.22 565.13 125.22 554.41 131.69 C 529.41 146.78 514.12 168.96 507.35 197.13 C 505 207 503.3 217 501.28 227.05 L 467.39 217.65 C 432.23 224.02 406.49 237.65 401.99 274.14 L 364.37 282 C 352.1 277.45 337.84 280.62 323.61 288.47 C 315.14 293.14 322.762 294.02 313.532 297.3 C 308.742 299 332.885 304.83 328.065 306.41 C 333.45 308.351 327.593 327.944 333.294 327.432 C 367.234 325.322 365.76 309.48 399.05 314.2 L 400.5 314.4 L 311.782 298.448 L 313.233 581.4 L 1873.595 578.5 L 1872.145 315.85 L 1869 314.43 Z M 461.94 314.43 C 463.59 314.15 465.24 339.963 466.94 339.633 C 468.27 339.913 469.6 314.12 470.94 314.43 L 461.94 314.43 Z M 657.38 333.282 C 663.476 354.475 691.436 355.599 697.532 336.182 L 657.38 333.282 Z M 856.197 349.234 C 858.424 348.807 892.55 339.663 894.77 339.203 C 907.6 336.543 918.51 330.992 931.05 336.572 C 945.7 331.352 985.943 341.273 1000.783 344.593 C 1003.703 345.253 980.52 313.92 983.45 314.44 L 856.197 349.234 Z M 1059.23 314.43 C 1060.28 314.26 1070.031 357.615 1071.081 357.435 C 1077.531 356.472 1075.398 313.136 1081.79 314.43 L 1059.23 314.43 Z M 1136.02 314.43 C 1140.21 313.09 1152.981 352.364 1155.721 351.464 C 1161.721 352.554 1158.52 313.31 1163.85 314.43 L 1136.02 314.43 Z"/>
</svg>