<svg xmlns="http://www.w3.org/2000/svg" viewBox="0 0 1920 581.43">
  <path class="a" d="M931,313.36c-12.54-5.58-24.9-2.92-37.73-.27q-3.33.69-6.67,1.33h96.79c-2.93-.52-5.85-1.09-8.77-1.75C959.83,309.33,945.69,308.14,931,313.36Z"/><path class="a" d="M461.94,314.43h8.95c-1.33-.31-2.66-.61-4-.9C465.24,313.86,463.59,314.15,461.94,314.43Z"/><path class="a" d="M661.73,314.43h18.4A59.41,59.41,0,0,0,661.73,314.43Z"/><path class="a" d="M1136,314.43h27.86c-5.33-1.11-10.87-2.47-16.83-3.57C1144.28,311.76,1140.21,313.08,1136,314.43Z"/><path class="a" d="M1062.38,313.93c-1.05.18-2.1.34-3.15.5h22.56A56.08,56.08,0,0,0,1062.38,313.93Z"/><path class="b" d="M1869,314.43V291.64l-7.62-16-27.13-17.39c-.43-10.06-2.17-19.76-14.53-26l-12.84-2.67c0-12.57.93-24.24-.24-35.7-1.41-13.77-15.17-16.09-24.45-21.71,1.45-8.4,2.47-15.7,4-22.89,7.11-33.49,2.12-65.35-15.2-94.55-19.35-32.62-64.13-57.48-104.93-39.58-23.18,10.17-36.95,26.81-36.27,52.23.32,12,3.19,23.86,4.9,35.73-24.14,7.29-27.67,10.66-33.74,32.9l8.09,22.8-11.45,8.72c-.46,6.34-.74,10.28-1.06,14.75-56.13-37.58-117.37-10.15-121.7,52.08-24.23-14.47-49.15-21.72-74.88-5.75-24.08,15-29.57,38-28.46,63.62-8.06-.85-16.1-1.84-24.06-3.23-50.56-8.8-98.56-24.9-142.78-53.85,2.25-22.15,10.26-46.76-13.08-64.71l-19.29-2.39c-1.47-25.35-10.2-46.38-34.3-56.78-24.82-10.71-44.77,1.25-63.67,17.65.19-31.91.19-31.91-14.61-46.33l-14.21-4-17.11-19.79-17.83,2.49L996.44,50.81,975.15,56c-6.83-11.38-12.54-23.08-20.22-33.29-23.42-31.17-63.36-30-82.5,1.93a28.42,28.42,0,0,1-2.8,3.25l-12,3.27-7,11.62c-12,1.23-23.57.4-33.71,3.83-29.81,10.09-61.67,38.61-52.3,87.54.49,2.52-1,5.43-1.78,9.2-21.86-8.13-36.83.15-48,18.07l-12.95-5.74-15.42,5.76c-1.2-1.67-2.16-3.25-3.36-4.63-20.37-23.56-45.29-37.18-77.28-35.54-5.52.28-11.06.15-16.59.09-12.69-.14-24.11,3.86-34.83,10.33-25,15.09-40.29,37.27-47.06,65.44C505,207,503.3,217,501.28,227.05l-33.89-9.4c-35.16,6.37-60.9,20-65.4,56.49L364.37,282c-12.27-4.55-26.53-1.38-40.76,6.47-8.47,4.67-18.25,7-27.48,10.28-4.79,1.7-9.65,3.18-14.47,4.76a39.28,39.28,0,0,0,16.83,2.17c33.94-2.11,67.27,3.8,100.56,8.52l1.45.2H0v267H1920v-267Zm-1407.06,0c1.65-.28,3.3-.57,5-.9,1.33.28,2.66.59,4,.9Zm199.79,0a59.41,59.41,0,0,1,18.4,0Zm224.92,0q3.34-.64,6.67-1.33c12.83-2.66,25.19-5.31,37.73.27,14.65-5.22,28.79-4,43.63-.68,2.92.66,5.84,1.23,8.77,1.75Zm172.58,0c1.05-.17,2.1-.32,3.15-.5a56.08,56.08,0,0,1,19.41.5Zm76.79,0c4.19-1.34,8.26-2.67,11-3.57,6,1.09,11.5,2.45,16.83,3.57Z"/>
</svg>
