<svg xmlns="http://www.w3.org/2000/svg" viewBox="0 0 63.55 77.13">
  <defs><style>.press-half-wheel-1-a{fill:#fff;}.press-half-wheel-1-b{fill:#fbb256;}</style></defs><title>half-wheel-1</title><path class="press-half-wheel-1-a" d="M11.85,7.3l0,0Z"/><path class="press-half-wheel-1-a" d="M11.39,7.67c0-.15,0-.29,0-.44l.46.06,0,0Z"/><path class="press-half-wheel-1-b" d="M40.25,52.42,40,52.27a4.49,4.49,0,0,1-.76,1.62c.2,0,.41-.1.65-.17-.41,1.79-1.75,2.35-2.75,3.19l-5.57,4.65,1.66-.6c-1.3,1.9-4.6,4.55-6.88,5.07-2.82.65-5-1.54-6.76-3.41A26.48,26.48,0,0,1,12,47.91a51.27,51.27,0,0,1,3.13-26.3c.88-2.12,1-4.09,2.46-5.85,1-1.16,3.94-5.73,5.8-4.24Q29.9,16.74,36.33,22s0,.13,0,.72L36,22.53a17.12,17.12,0,0,1,1.4,1.69,2.87,2.87,0,0,1,.4,2.94,16.54,16.54,0,0,1,7.39-4.52A5.58,5.58,0,0,0,46.34,22,7.33,7.33,0,0,1,45,21.24c-2.6-2.17-5.21-4.32-7.73-6.57-2.37-2.12-4.58-4.4-6.93-6.52S25.66,4,23.23,2.07c-1.36-1.1-4.73-.87-5.41.57a7.78,7.78,0,0,1-2.46,2.51A45.35,45.35,0,0,0,4.62,19.76c-2.14,4.35-2.49,9.15-3.28,13.83-.68,4-1.23,8.12.1,12.16.8,2.45,1.65,4.88,2.34,7.36C5.67,60,9.85,65.37,14.89,70.22a3.54,3.54,0,0,0,1.37.52,7.63,7.63,0,0,1,1.89.59c.93.62,1.72,1.45,2.61,2.14a2.26,2.26,0,0,0,2.77.3c2.56-1.53,5.34-2.78,7.69-4.58,3.9-3,7.57-6.26,11.26-9.49,1.5-1.32,2.81-2.85,4.27-4.35C44.34,54.29,42.2,53.51,40.25,52.42Z"/><path class="press-half-wheel-1-a" d="M12.2,17.95l.17-.3-.16.32,0,0Z"/><path class="press-half-wheel-1-a" d="M1.38,30.3l-.11.14s-.12-.12-.11-.13a1.73,1.73,0,0,1,.19-.2Z"/><path class="press-half-wheel-1-a" d="M31.22,62l0,0,0,0Z"/><path class="press-half-wheel-1-a" d="M31.24,62.06l.42-.44,0,0-.42.44Z"/><circle class="press-half-wheel-1-b" cx="47.94" cy="38.7" r="14.85"/><path d="M63.55,38.71l0,1.09a8.93,8.93,0,0,1-.14,1.32c0,.26-.06.54-.12.84l-.21.93a16.82,16.82,0,0,1-1.77,4.55A15.81,15.81,0,0,1,57,52.26,15,15,0,0,1,49.79,55c-.7,0-1.36.07-2.12,0a16.61,16.61,0,0,1-6.23-1.66,18.24,18.24,0,0,1-3.69-2.51,19.32,19.32,0,0,1-3-3.41,18.39,18.39,0,0,1-2-4.14A16.37,16.37,0,0,1,32.37,34a17.41,17.41,0,0,1,1.91-4.35,16.38,16.38,0,0,1,7-6.06,15.14,15.14,0,0,1,4.29-1.26,15.64,15.64,0,0,1,2.17-.18H48l.25,0,.5,0c.34,0,.64,0,1,.08A15.45,15.45,0,0,1,57,25.1,16,16,0,0,1,61.29,30a16.72,16.72,0,0,1,1.77,4.56l.21.93c.05.29.07.58.12.83a8.92,8.92,0,0,1,.13,1.32c0,.72,0,1.1,0,1.1h0Zm-.2,0-.07-1.09a8.61,8.61,0,0,0-.17-1.29,10,10,0,0,0-.42-1.71,13.6,13.6,0,0,0-2.16-4.16,15.42,15.42,0,0,0-4.45-4,16.58,16.58,0,0,0-6.46-2.17,15.65,15.65,0,0,0-7.55,1.14,15.21,15.21,0,0,0-3.48,2.08,16.42,16.42,0,0,0-2.85,3.06,15.78,15.78,0,0,0-1.94,3.81A16.28,16.28,0,0,0,33,38.73a16.59,16.59,0,0,0,.48,4.36,15,15,0,0,0,1.82,4,14.6,14.6,0,0,0,2.94,3.2,14.39,14.39,0,0,0,3.67,2.07,14.59,14.59,0,0,0,3.9.92,15.83,15.83,0,0,0,2,.08c.57,0,1.25-.07,1.85-.14a17.37,17.37,0,0,0,6.52-2.3,15.68,15.68,0,0,0,4.43-4,13.58,13.58,0,0,0,2.16-4.17,9.82,9.82,0,0,0,.42-1.71,8.59,8.59,0,0,0,.16-1.29c0-.71.07-1.09.07-1.09h0Z"/><path class="press-half-wheel-1-a" d="M53.46,42.54l0,0Z"/><path d="M23.68,77.1l0,0Z"/><path d="M23.7,77.13l0,0Z"/><path d="M11.42,7.66c0-.14,0-.28,0-.41h0c0,.15,0,.29,0,.44Z"/><path d="M32,15.61h0Z"/><path d="M13.38,16.36l0,0Z"/><path d="M1.38,30.3l0-.18a1.57,1.57,0,0,0-.19.2s.07.08.11.13Z"/><path d="M31.64,61.59,33.38,61c-2.13,3.15-5.77,3.9-8.1,5.94-.67-.48-1.21-.9-1.79-1.27a24.32,24.32,0,0,1-9.19-10.09,33.16,33.16,0,0,1-2.48-22c.55-2.7.78-5.49,1.56-8.13,1.26-4.28,2.81-8.5,5.87-11.9a13.34,13.34,0,0,1,3.19-2.26,1.39,1.39,0,0,1,1.22.25c4.28,3.48,8.53,7,12.79,10.5,0,0,0,.13,0,.72-2.1-1.34-4-2.46-5.84-3.74-2-1.41-3.83-3-5.8-4.47s-3.2-1.3-4.71.63C16.65,19.58,15,24.83,13.35,30a76.36,76.36,0,0,0-1.79,7.7,19,19,0,0,0,1.28,10.68,39.4,39.4,0,0,0,3.84,7,50.52,50.52,0,0,0,4.23,5.69,13.12,13.12,0,0,0,3.2,2.6,2.26,2.26,0,0,0,2,0c2.76-1.9,5.45-3.9,8.12-5.94,1.47-1.12,2.82-2.39,4.26-3.54A5.3,5.3,0,0,1,40,53.72c-.4,1.79-1.73,2.35-2.72,3.19l-5.57,4.71-.42.44,0,0,0,0Z"/><path d="M13.41,16.39a26.8,26.8,0,0,1,8-8.51,2.47,2.47,0,0,1,2.24-.16c2.77,2.29,5.41,4.74,8.07,7.16.17.15.18.48.27.73h0c-1.57-1.2-3.16-2.36-4.69-3.6s-3-2.56-4.61-4C13.31,16.48,8.94,27,8.33,39.29c-1.12-1.22-.86-2.67-.77-4a30.16,30.16,0,0,1,.76-5.47,45,45,0,0,1,2.25-6.49c.85-2,2-3.8,3-5.74.15-.31-.1-.81-.17-1.23Z"/><path d="M30.42,67.57c-2.06,2.06-4.15,4.07-7.16,4.7-.38.08-.7.48-1,.73-6.44-4-8.74-6.52-10.51-12,1.08,1.21,1.86,2.15,2.72,3,2,2,3.94,4,6,6,1.1,1.07,3.86,1.16,5.31.31s3.16-1.81,4.74-2.72Z"/><path d="M12.21,18l.16-.32-.17.3Z"/><polygon points="12.2 17.95 12.16 18 12.21 17.96 12.2 17.95"/><path d="M37.59,31.08l.57-.72.22.24-.82.45Z"/><polygon points="47.94 33.45 48.06 33.37 47.91 33.42 47.94 33.45"/><path d="M47.92,33.43l0,0Z"/><path d="M53.46,42.54c0,.4.15,1-.06,1.17-2.72,2.45-8.87,1.59-10.79-1.56a5,5,0,0,1,.26-5.43,4.06,4.06,0,0,1,4.25-2.2c-1.64,1.13-3.25,2.29-3,4.46a6.49,6.49,0,0,0,1.09,2.89,4.42,4.42,0,0,0,5.5,1.27C53,42,53.7,39.63,52.87,36c1.15.21,1.46,1,1.64,1.92a5.84,5.84,0,0,1-1,4.69Z"/><path d="M42.76,18.14c-2.16-2-4.44-3.92-6.6-5.95-3.89-3.64-7.77-7.29-11.58-11a4.37,4.37,0,0,0-4.36-1c-3.48.78-6.56,4.36-8.66,7,.13.12.24,0,.32.07C5,16.29,0,25.52,0,37.15,0,47.58,2.81,59.66,10.21,67.41a28.76,28.76,0,0,0,6.43,5c2.14,1.24,6.35,5,8.88,3,4.56-3.6,9.11-7.2,13.51-11,2.37-2,5.11-3.67,6.67-6.65a4.62,4.62,0,0,1,1.62-1.59c-.24,0-.48,0-.72-.05a.59.59,0,0,1-.43-.18c-1.22,1.3-2.37,2.6-3.66,3.74-3.65,3.23-7.28,6.51-11.13,9.49a78.08,78.08,0,0,1-7.6,4.58c-2.24,1.35-5.7-2.6-7.32-3.87A42.69,42.69,0,0,1,9.31,63.2a35.9,35.9,0,0,1-7-15.39C-.09,36.1,2,22.78,9,12.94a40,40,0,0,1,5.74-6.39c2-1.85,5.61-7.07,8.79-4.48,2.4,2,4.74,4,7,6.08s4.52,4.41,6.86,6.52c2.49,2.25,5.08,4.41,7.65,6.57a6.42,6.42,0,0,0,1.35.72C45.16,20.68,44,19.34,42.76,18.14Z"/></svg>
