<svg xmlns="http://www.w3.org/2000/svg" viewBox="0 0 191 191">
  <title>roll-1</title><path d="M16.81,54.89a19.68,19.68,0,0,1,.1,8.3l.47.12c.31-.84.65-1.67.91-2.53a5.2,5.2,0,0,0,.25-1.65c0-1.13.27-1.66,1.44-1l.71-3.72.49.05a27.19,27.19,0,0,1,0,4c-.33,2.16-.88,4.29-1.37,6.42-.2.84-.73,1.28-1.81,1l.9-2.13-.2-.18c-.37.43-.78.84-1.11,1.3a17.1,17.1,0,0,1-1,1.61,7.07,7.07,0,0,1-1.37.95c-.33-.56-.87-1.1-.92-1.69S14,64.23,15.3,64.35c.1,0,.32-.51.35-.8.24-2.36.45-4.72.66-7.08,0-.53.08-1.06.11-1.58Z"/><path d="M89.16,130.75a5.17,5.17,0,0,0-.81.93,17.76,17.76,0,0,0-.71,1.77L87,135.11l.8.14c-.44.46-.75,1.07-1.2,1.21-2.05.64-2.52,2.58-3.39,4.11a28.94,28.94,0,0,0-2,4.87A4.75,4.75,0,0,0,81,149c.23.55-.16,1.36-.26,2.06a2.07,2.07,0,0,1-1.6-2.42,17,17,0,0,1,2.29-7.61c1.55-2.86,3.15-5.7,4.87-8.46a13.1,13.1,0,0,1,2.42-2.29Z"/><path d="M120.88,118.73c2.65-.23,5.32-1,7.8,1,1.42,1.1,3.26,1.69,4.64,2.83a50.57,50.57,0,0,1,4.53,4.63c.86.91,1.7,1.85,2.48,2.83s1.32,1.84,2,2.76l-.26.33a2.59,2.59,0,0,1-.75-.33,4.39,4.39,0,0,1-.54-.77,43.84,43.84,0,0,0-7.63-7.66,15.76,15.76,0,0,0-3.74-2.43C126.63,120.65,124.09,118.8,120.88,118.73Z"/><path d="M101.56,136.54a9.47,9.47,0,0,1-2,1.4l-.21-.79L99,137l-5.8,10.35c.32.32.61.85.92.86a4.85,4.85,0,0,0,2.25-.36c.36-.18.44-1,.59-1.48v0a5.8,5.8,0,0,1,.12-2.48,8.43,8.43,0,0,1,1.92-3.3c.26-.27.55-.5.81-.75h0a5.25,5.25,0,0,1,.5-.4c0-.49.4-.87.86-1.26.62-.52,1.21-1.08,1.8-1.63C102.5,136.57,102,136.56,101.56,136.54Z"/><path d="M181.67,91.68c.44-.43.44-.43-.24-1.55a1.39,1.39,0,0,1-1.83-.55c-.72-2.11-2.77-3-4-4.64-.93-1.23-2.32-1.59-3.48-2.36l-.55-.35.66-1.12,3.55,1.16a.92.92,0,0,1,.4.24c3.36,4,7,7.75,9,12.73a14.88,14.88,0,0,1,.48,2.07c-.27,0-.4,0-.42,0-.81-1.5-1.58-3-2.43-4.5A5.92,5.92,0,0,0,181.67,91.68Z"/><path d="M89.89,134.14c.56,2.36-1.4,3.51-2.19,5.15a29,29,0,0,0-3,8c-.14.88.21,1.88-.72,2.51a5.48,5.48,0,0,1-.79.38c-.08-.28-.19-.56-.25-.85-.58-2.71.35-5,1.81-7.26C86.43,139.46,87.56,136.47,89.89,134.14Z"/><path d="M24,59c0-1.46,0-2.92,0-4.38a7.59,7.59,0,0,1,0-1.07c0-.18.25-.32.39-.48.11.18.37.43.32.51-.37.61,0,1,.25,1.52a4.81,4.81,0,0,1,.19,1.95c0,1,0,2-.07,3a5,5,0,0,1-1.75,3.67c-.5.44-.8,1.09-1.29,1.55a3.13,3.13,0,0,1-1.1.41,4.35,4.35,0,0,1,0-1.25c.46-1.58,1.1-3.13,1.45-4.73a33.12,33.12,0,0,0,.41-4.14l.48,0,.46,3.54Z"/><path d="M93.86,134.9c-1,1.69-2,3.28-3,4.85-1.59,2.51-3.56,4.84-3.28,8.13,0,.41-.46.87-.71,1.3-.31-.18-.87-.35-.87-.53a7,7,0,0,1,.27-2.54c1.09-2.76,2.27-5.5,3.49-8.21C90.25,136.85,92.53,135.28,93.86,134.9Z"/><path d="M149.85,124a9.94,9.94,0,0,1-1.09-1.51,8.67,8.67,0,0,0-2.64-2.86c-1.31-1.08-2.37-2.47-3.64-3.6a36.4,36.4,0,0,0-8.73-5.77c1-.74,2.1-.22,2.91.3,2.48,1.58,5.12,3,7.16,5.19,1,1.09,2.34,1.86,3.3,3a29.57,29.57,0,0,1,2.38,3.74c.27.43.51.88.76,1.33Z"/><path d="M38.66,70.55c2.31-2,1.57-4.53,1.58-6.94,0-.32-.17-.66-.08-.94s.38-.48.59-.71a3.39,3.39,0,0,1,.53.77,4.07,4.07,0,0,1,.19,1.19c0,1.26,0,2.53.06,3.79A2.88,2.88,0,0,0,41.8,69c1.87-3,1.93-6.56,3.26-9.71-.25,3.56-.27,7.16-2.14,10.37-.17.29-.63.73-.72.67-1.11-.6-2,0-3,.36C39.07,70.71,38.9,70.61,38.66,70.55Z"/><path d="M128.43,132.66a3.88,3.88,0,0,1,1.22.42c1.11.89,2.17,1.84,3.22,2.8,2.62,2.42,3.51,5.72,4.48,9,.09.31-.16.72-.26,1.09l-.3,0c-1.24-2.27-2.43-4.58-3.75-6.81s-2.49-4.58-4.77-6.07Z"/><path d="M177.52,95.34a2.45,2.45,0,0,1,1,2.79l-1.77-3.76c-.11-.23-.18-.63-.34-.68-1.33-.38-1.88-1.54-2.71-2.46a14.62,14.62,0,0,0-5-3.82c-.64-.27-1.14-.83-1.75-1.17-1.42-.78-2.87-1.51-4.37-2.29.61-.32,1.16-1,1.91-.07.12.16.44.16.65.26,1,.49,2.07,1,3.1,1.48a21,21,0,0,1,2.3,1.22,18,18,0,0,1,1.84,1.54c.73.64,1.43,1.31,2.17,1.94.52.44.56,1.1.83,1.62a7.81,7.81,0,0,0,1.9,1.88C178,94.41,178,94.39,177.52,95.34Z"/><path d="M89.83,148.73A12.37,12.37,0,0,1,90,147a35.31,35.31,0,0,1,1.24-4.41c.9-2.29,1.85-4.62,3.84-6.18a8.63,8.63,0,0,1,2.85-.89l.19.36c-.43.37-.89.71-1.28,1.12a21.37,21.37,0,0,0-5.66,9c-.17.64-.14,1.33-.29,2a4,4,0,0,1-.52,1Z"/><path d="M126.6,114c2-.8,3.16.44,4.41,1.22,1.84,1.15,3.6,2.46,5.38,3.71,1.32.93,2.67,1.84,3.92,2.85a16.79,16.79,0,0,1,2.5,2.45,29.53,29.53,0,0,1,1.88,2.9l-.39.3-1.94-2.55a3.32,3.32,0,0,0-.51-.7c-2.39-1.78-4.79-3.56-7.21-5.29q-3-2.17-6.16-4.23A8.84,8.84,0,0,0,126.6,114Z"/><path d="M157.19,95.89c1.35-.22,2,.81,2.86,1.53a5.94,5.94,0,0,0,.76.69c1,.61,2.31,1,3.06,1.82,1.63,1.85,3.66,3.31,5,5.38.35.53.83,1.15.13,1.6-2.36-2.21-4.65-4.35-6.93-6.51-.57-.54-1-1.41-1.7-1.6-.89-.26-.94-1.89-2.29-1.33a12.58,12.58,0,0,1-.93-1.6Z"/><path d="M128.06,145.27l-1.41-.24a15.12,15.12,0,0,0-3.92-6c0-.18.08-.56.14-1l1,.28-.09-.78c.23.08.41.09.5.18C128.29,141.54,128.85,142.67,128.06,145.27Z"/><path d="M125.43,134.13a5,5,0,0,1,3.07,2c.62,1,1.46,1.8,2,2.79a33.41,33.41,0,0,1,1.82,3.74,9.5,9.5,0,0,1,.64,2.25c0,.24-.34.54-.54.81-.23-.23-.54-.41-.67-.68-1.73-3.47-3.1-7.15-5.92-10A3.27,3.27,0,0,1,125.43,134.13Z"/><path d="M0,42c1.11-1.79,2.74-.63,4.43-.63L3.32,39.86c.44-.13.88-.43,1.13-.31,1.8.82,3.57,1.7,5.32,2.61.64.34,1.11.84.57,1.41l-5-2.27-.23.43,4.45,2.85L9.29,45a36.24,36.24,0,0,0-4.39-2A38.47,38.47,0,0,0,0,42Z"/><path d="M29.08,49.06c0,.86,0,1.72,0,2.57.12,1.87.57,3.77,0,5.6A20.08,20.08,0,0,1,27.29,61c-.25.43-1,.6-1.45.89l-.27-.28c.32-1.49.63-3,1-4.47a.67.67,0,0,1,.51-.4c1.16.17,1.08-.58,1.1-1.34,0-1.92.13-3.84.22-5.76,0-.19.19-.37.29-.56Z"/><path d="M65.72,67c.45,0,1-.09,1.33.13a19.09,19.09,0,0,1,3.31,2.47c1.61,1.65,3,3.46,4.55,5.22a1.35,1.35,0,0,1,.39.73,12,12,0,0,1-.18,1.61,7.63,7.63,0,0,1-1-1c-1.76-2.4-3.31-5-5.88-6.68a13,13,0,0,1-1.69-1.9c-.17-.18-.55-.16-.83-.23C65.72,67.29,65.72,67.16,65.72,67Z"/><path d="M32.5,46.79c.11.23.32.45.32.68,0,2.14,0,4.28-.25,6.4a25.57,25.57,0,0,1-1.21,4.4,1.49,1.49,0,0,1-1.77,1.19c.75-2.25,1.5-4.45,2.2-6.66,0-.13-.31-.36-.3-.53.13-1.82.3-3.63.46-5.45Z"/><path d="M86.13,56.25a4.26,4.26,0,0,1,1.39.55q1.83,1.69,3.52,3.53c1,1.06,1.93,2.17,1.4,3.81,0,.1.17.25.18.39a3.29,3.29,0,0,1-.06.63A2.58,2.58,0,0,1,91.8,65a.66.66,0,0,1-.28-.5c0-2.24-1.65-3.45-3-4.81-1-1-2.07-1.87-3.07-2.84a3.14,3.14,0,0,1-.46-.91l.26-.17.75.79Z"/><path d="M84,13c.11.54.23,1.08.33,1.63a9,9,0,0,1,.36,2.31c-.2,2.21-.48,4.41-.85,6.6-.18,1.07-.53,1.21-1.88,1.35C83.4,21,83.15,17,83.55,13Z"/><path d="M39.94,87.32c.74.56,1.34,1,1.87,1.43A29.34,29.34,0,0,1,47.89,97a8.57,8.57,0,0,1,.59,2.26c0,.14-.15.45-.25.45s-.51-.09-.57-.23c-.57-1.29-1.09-2.6-1.65-3.9a5.31,5.31,0,0,0-.72-1.26c-1.66-2-3.35-4-5-6.05A3.56,3.56,0,0,1,39.94,87.32Z"/><path d="M33.75,93.3c1.14,1.41,3.05,1.75,4,3.66.79,1.68,2.3,3,3.38,4.58a7,7,0,0,1,.73,2c0,.09-.28.4-.37.38a1.19,1.19,0,0,1-.66-.4c-1-1.4-1.86-2.87-2.89-4.23-1.27-1.66-2.66-3.23-4-4.85a5.87,5.87,0,0,1-.5-.9Z"/><path d="M112.18,138.77a4.47,4.47,0,0,1,1.31.11,22.18,22.18,0,0,1,4.26,2.13,9.64,9.64,0,0,1,2.34,3.08c.21.38-.23,1.12-.38,1.7-.38-.23-1-.38-1.1-.71-1.09-2.76-3.49-4.13-5.78-5.64-.13-.09-.27-.16-.4-.26A2.13,2.13,0,0,1,112.18,138.77Z"/><path d="M70.35,24.52A8.61,8.61,0,0,1,70.48,27c-.6,2.57-1.32,5.11-2.08,7.63a1.25,1.25,0,0,1-1.75.86,41.86,41.86,0,0,0,1.63-4.14c.42-1.52.57-3.11.88-4.66.15-.76.4-1.5.6-2.26Z"/><path d="M159.57,104.21l-.37.26c.69.5,1.39,1,2.06,1.53a3.93,3.93,0,0,1-.37.73c1.67-.4,2.16.62,2.59,1.9a7.27,7.27,0,0,0,1.08,1.53c.34.5.65,1,1,1.54l-.36.25-.6-.88c-.45-.26-.83-.35-1-.58-.49-.82-.85-1.73-1.39-2.52-.17-.26-.79-.16-1.09-.39-.56-.43-1-1-1.54-1.47-1.43-1.2-2.87-2.37-4.32-3.55-.3-.24-.63-.45-1-.74,1.13-.74,2-.24,2.17.3C156.88,103.78,158.28,103.73,159.57,104.21Z"/><path d="M74,62.8c.94-.23,1.61.76,2.44,1.24a6.05,6.05,0,0,1,1.44,1.45c.49.58.92,1.21,1.36,1.83.9,1.26,1.81,2.5,2.65,3.8.13.2-.11.65-.18,1-.34-.11-.85-.12-1-.35a32,32,0,0,0-5.84-7.67A7.52,7.52,0,0,1,74,62.8Z"/><path d="M82.73,6.85c-.31-.42-.6-.86-.92-1.26-.52-.64-.67-1.79-1.94-1.44-.05,0-.14-.07-.19-.13a5.44,5.44,0,0,0-4.78-2.35c.39-1.8.67-2,2-1.28a31.94,31.94,0,0,1,4.32,2.68A4.17,4.17,0,0,1,82.73,6.85Z"/><path d="M72.14,79.49l-.89.76c-2.38-3.69-4.55-7.38-8.8-9.1a4,4,0,0,1,3.31.63,20.24,20.24,0,0,1,5.49,6.46A14.57,14.57,0,0,0,72.14,79.49Z"/><path d="M82.26,19c.33,2.38-.75,4.57-1.47,6.83-.15.48-1.08,1.21-1.29,1.1-.84-.42-.23-1.14-.07-1.75.57-2.16,1.13-4.33,1.71-6.49.18-.64.43-1.27.65-1.9.15.62.31,1.25.46,1.87A2,2,0,0,1,82.26,19Z"/><path d="M62.94,38.21A3.59,3.59,0,0,1,62.7,37a12,12,0,0,1,.8-3.33c.75-1.5.21-3.14.78-4.64a5.2,5.2,0,0,0,0-1.64,1.77,1.77,0,0,1,1.14,2c-.24,1.74-.41,3.49-.67,5.22-.06.37-.37.71-.48,1.06l-.72,2.62Z"/><path d="M45.86,39.68c0,.43,0,.85,0,1.27s0,1,.07,1.55c0,.12.06.24.06.35,0,2.6,0,5.18-1.77,7.34a8.08,8.08,0,0,1-1.11.95L42.86,51a55.33,55.33,0,0,0,1.8-5.5,56.49,56.49,0,0,0,.71-5.78Z"/><path d="M68.13,15.72c-.7-.51-1.15-.87-1.62-1.2-2.08-1.46-4.17-2.9-6.23-4.39a4.66,4.66,0,0,1-.8-1,8.7,8.7,0,0,1,1.31-.24,1.41,1.41,0,0,1,.78.27,21.56,21.56,0,0,1,6.37,5.66A3.49,3.49,0,0,1,68.13,15.72Z"/><path d="M105.13,141.5a1.58,1.58,0,0,1,2.07-.72,2.09,2.09,0,0,0,1.12.22c1.65-.46,2.9.35,4,1.35a17.21,17.21,0,0,1,2.31,2.87c.18.26,0,.77,0,1.17-.39-.18-.89-.27-1.15-.56-.84-1-1.56-2.05-2.41-3a2.26,2.26,0,0,0-1.24-.64C108.24,141.9,106.69,141.72,105.13,141.5Z"/><path d="M59,73.66a2.54,2.54,0,0,1,2.82.94c.2.35.51.79.85.88,2.13.54,2.87,2.54,4.13,3.94.52.58.49,1.68.63,2.55,0,.2-.31.46-.48.69-.2-.16-.48-.28-.57-.48-.37-.83-.71-1.68-1-2.53-.61-1.74-2-2.74-3.42-3.78Z"/><path d="M122.94,145.48l-5.48-7.78a4,4,0,0,1,3.17,1.76c1,1.32,1.89,2.75,2.77,4.17C123.9,144.44,123.39,145,122.94,145.48Z"/><path d="M78.17,74.47,70.8,65.92c.72-.67,1.56-.08,2.06.51,1.88,2.19,3.66,4.48,5.42,6.77C78.45,73.42,78.23,73.93,78.17,74.47Z"/><path d="M37.93,91.09a14,14,0,0,1,1.51,1.16,16.14,16.14,0,0,1,3.86,6c.15.4.52.74.61,1.14a3.83,3.83,0,0,1-.13,1.23c-.31-.22-.76-.37-.92-.66-.86-1.57-1.59-3.22-2.5-4.75a25.81,25.81,0,0,0-2.08-2.59c-.27-.35-.49-.74-.73-1.11Z"/><path d="M47.62,46.54l.95-7.06a2.12,2.12,0,0,1,.93,2.82,2.63,2.63,0,0,0-.17.87,10.92,10.92,0,0,1-1.62,5.55c-.14.21-.48.29-.73.43a2.65,2.65,0,0,1-.21-.85A3.63,3.63,0,0,1,47.09,47,1.65,1.65,0,0,1,47.62,46.54Z"/><path d="M41.23,19c.5-.09,1.09-.4,1.49-.24a10.77,10.77,0,0,1,6.2,5.95,1.86,1.86,0,0,1,.1.59,3.41,3.41,0,0,1-.17.65c-2.06-2.93-4.23-5.47-7.75-6.38Z"/><path d="M175.62,103.66l-2.53-3.19c-.76.13-.63-.61-.58-1.2-.82-.64-1.59-1.23-2.35-1.85-.13-.11-.29-.38-.24-.47a.89.89,0,0,1,.5-.38,1.82,1.82,0,0,1,1.87.46c1.74,1.54,2.54,3.63,3.44,5.66C175.83,102.91,175.68,103.25,175.62,103.66Z"/><path d="M35.78,63.17c1.57.89,2.47,4.6,1.8,7.62-.23,1.05-.11,2.56-2,3C36.94,70.2,36.62,66.75,35.78,63.17Z"/><path d="M18.16,86.55c2.37-3.77,2.34-7.92,2-12.12l.42,0,.57,2.93c.54,2.73-.17,5.31-1,7.83-.23.66-1,1.11-1.59,1.66Z"/><path d="M131.89,84.45c-.09-.46-.37-1-.25-1.36a9.4,9.4,0,0,0-.38-5.81,6.7,6.7,0,0,1-.14-1.39c2.36.55,3,5.77,1.19,8.46Z"/><path d="M53.63,12.47c.36-.11.76-.37,1.09-.3a9.94,9.94,0,0,1,7.57,6.44c-1,0-1.25-.83-1.79-1.34a30.11,30.11,0,0,0-3.54-3,18.08,18.08,0,0,0-3.25-1.4Z"/><path d="M85.46,21.43a24,24,0,0,0,.05-11.29A14.21,14.21,0,0,1,87.38,16,9.24,9.24,0,0,1,85.46,21.43Z"/><path d="M122.56,82.52l1.71.77-.08-1.3.23-.09a21,21,0,0,1,.91,2.59c.3,1.38.43,2.8.67,4.2s0,1.69-1.24,1.61a17.55,17.55,0,0,0-.3-4.11,16.93,16.93,0,0,0-2.05-3.51Z"/><path d="M46,27c-2.39-2.64-4.58-5.15-8.4-5.45C40.63,19.83,45.47,23,46,27Z"/><path d="M21.92,82.71c1.29-3.42.33-6.91.3-10.37l.32-.09a4.16,4.16,0,0,1,.51.95,16.58,16.58,0,0,1,.24,8.39,5.89,5.89,0,0,1-.85,1.4Z"/><path d="M78.29,59.41l2,1.74c.15.13.3.26.43.4.89.94,1.83,1.83,2.64,2.83s1.4,2.17,2.25,3.12c.64.7.14.79-.39,1.21a31.47,31.47,0,0,0-7.34-8.82Z"/><path d="M57.26,10.88c2-1.19,3.24.06,4.5,1a6.27,6.27,0,0,1,2.84,4.41C62.4,14.13,60.47,11.68,57.26,10.88Z"/><path d="M94.89,84.52c.63.52,1.31.84,1.59,1.37a11.79,11.79,0,0,1,1.69,5.89,1.34,1.34,0,0,1-1.27,1.53A26,26,0,0,0,94.89,84.52Z"/><path d="M52.1,23.55a4.11,4.11,0,0,1-.78-.76,10.44,10.44,0,0,0-6.07-4.48,2.48,2.48,0,0,1-.6-.45c.2-.21.37-.56.6-.61a1.75,1.75,0,0,1,1.16.11,24.15,24.15,0,0,1,4,2.66,15,15,0,0,1,2.08,3.17Z"/><path d="M47.55,56.07c1.74,2,1.06,10.45-1.9,11.45A22.4,22.4,0,0,0,47.55,56.07Z"/><path d="M70.22,13.57a19.31,19.31,0,0,1-1.42-1.52A9.9,9.9,0,0,0,64,8.67a7.79,7.79,0,0,1-1.48-1C65.21,6.84,70.46,10.63,70.22,13.57Z"/><path d="M28.52,79.49l2-9.83.24-.05A4.52,4.52,0,0,1,31,71c-.26,2.29-.51,4.59-.92,6.86A1.79,1.79,0,0,1,28.52,79.49Z"/><path d="M160,88.8a5.05,5.05,0,0,1,2.85,1.72,6,6,0,0,0,1.1.8c.94.61,1.93,1.14,2.8,1.83.33.26.38.86.66,1.55-1.25-.8-2.19-1.46-3.18-2s-2.13-1-3.18-1.53c-.56-.28-1.8-.3-.62-1.41C160.54,89.68,160.24,89.22,160,88.8Z"/><path d="M58.76,20.41a5.4,5.4,0,0,1-.69-.9c-.89-1.88-2.6-2.86-4.24-3.92-.47-.3-1.15-.26-1.68-.5-.34-.16-.56-.55-.84-.83.34-.11.78-.42,1-.3,1.44.71,2.83,1.52,4.25,2.27a5.47,5.47,0,0,1,2.32,3,5.81,5.81,0,0,1,.23,1Z"/><path d="M60.14,50.73c1,.42,1.61,2.94,1,5.14-.54,1.92-1.32,3.75-3.16,3.35C60.4,56.79,60.11,53.77,60.14,50.73Z"/><path d="M34.35,56.77l2.34-10.4C37.83,47.74,36.32,55.47,34.35,56.77Z"/><path d="M100.42,90.81c.52-3.82-1.19-6.92-1.88-10.35C100.63,82.33,102.7,88.84,100.42,90.81Z"/><path d="M109.49,63a5.57,5.57,0,0,1-.68-1,32.65,32.65,0,0,1-1.49-4.22c-.12-.53-1.35-.54-.58-1.19.19-.16,1.09.41,1.59.76s1.19.78,1.33,1.3c.32,1.19,1,2.41.29,3.69A7.4,7.4,0,0,1,109.49,63Z"/><path d="M128.49,86.82c.25-.94.49-1.78.69-2.62,0-.13-.11-.29-.15-.44l-1.51-5.35.54-.23a18.59,18.59,0,0,1,1.58,3.31,20.94,20.94,0,0,1,.41,4.07C130.11,86.39,129.59,86.81,128.49,86.82Z"/><path d="M39,30.37c-.32-.55-.61-1.11-1-1.64A10.11,10.11,0,0,0,34,24.89c-.29-.14-.43-.6-.64-.92a3.81,3.81,0,0,1,1.27,0c2.86.94,4,3.39,5.08,5.83Z"/><path d="M72.13,49.69c1.93-2.54.53-5.31.92-8.17.3.38.56.58.63.83C74.27,44.55,75,46.74,74,49,73.68,49.79,73.23,50.19,72.13,49.69Z"/><path d="M43.08,27.47c-1,.1-3.05-.92-3.21-1.45-.41-1.4-1.72-1.34-2.73-1.77-.16-.07-.47.09-.58,0a9.58,9.58,0,0,1-.88-1c.33-.19.75-.63,1-.54a9.73,9.73,0,0,1,2.76,1.31C40.68,25,41.76,26.22,43.08,27.47Z"/><path d="M66.36,6.06c2.17-1.15,7.18,2.69,7.36,5.66a41.08,41.08,0,0,0-3.35-3.19A43.34,43.34,0,0,0,66.36,6.06Z"/><path d="M71,33.3a15.48,15.48,0,0,0,.93-2.19c.34-1.36.5-2.77.86-4.13.1-.39.6-.67.91-1,.14.41.45.86.38,1.23-.29,1.53-.66,3-1.09,4.54A1.81,1.81,0,0,1,71,33.3Z"/><path d="M102.42,78.79a9.7,9.7,0,0,1,2.15,7.56c0,.24-.37.44-.56.65a3.64,3.64,0,0,1-.39-.79c-.42-1.89-.83-3.78-1.18-5.68A9.67,9.67,0,0,1,102.42,78.79Z"/><path d="M110,54.5c.72.23,1.5.24,1.87.64a8.12,8.12,0,0,1,2,4c0,.23-.21.58-.42.78a.63.63,0,0,1-.6-.09c-1-1.54-1.87-3.1-2.79-4.65C110,55.07,110,54.93,110,54.5Z"/><path d="M29.45,25.7c2.37-.73,6.06,2.46,7,5.89C34.75,29,32,27.72,29.45,25.7Z"/><path d="M31.89,77.46c1.42-3.28,1.21-6.57,1.13-10C34.9,69.72,34.15,76.9,31.89,77.46Z"/><path d="M75.49,30.26l2.38-7.75c.37.14.83.15.58,1C78,25.21,77.8,27,77.29,28.62a7.38,7.38,0,0,1-1.43,2Z"/><path d="M24.76,80.83c2.17-2.76,1.61-5.88,2-8.83,1.1,1,1.24,4.7.26,7C26.64,79.87,26.36,80.93,24.76,80.83Z"/><path d="M77.24,9.27,70.48,4c.57-.6,1.16-.17,1.75.09A8.53,8.53,0,0,1,77.24,9.27Z"/><path d="M25,36.75c-.83-.13-7.37-4.18-7.52-4.66C19.76,31.83,24.19,34.58,25,36.75Z"/><path d="M127.17,67.18,125.1,61.7c-.68-.08-1-.54-.58-1.42,2.07.86,3.84,4.08,3.35,6.11C127.8,66.7,127.41,66.93,127.17,67.18Z"/><path d="M19.51,42.37c-1.49-1.14-2.68-2.19-4-3s-2.6-1.23-3.89-1.86a5,5,0,0,1-.84-.65l1.11-.4a.17.17,0,0,1,.11,0c2.62,1.39,5.41,2.54,7.21,5.09A4.45,4.45,0,0,1,19.51,42.37Z"/><path d="M73.67,2.51c2.26-.4,6.48,3.13,7,5.73Z"/><path d="M114.07,74.5c-2.11-1.1-1.69-3.34-2.75-5.12,2.18.92,3.87,4.49,3.52,7C113.47,75.95,113.31,75.6,114.07,74.5Z"/><path d="M115.88,67.55a5.63,5.63,0,0,1,1,1,5.14,5.14,0,0,1,.79,3.54c0,.13.22.29.31.45.6,1.06.27,1.87-1,2.62-.17-1.18-.31-2.42-.53-3.66s-.52-2.45-.8-3.68Z"/><path d="M33.43,33.39,31.08,30.6c-.14-.17-.27-.42-.45-.49-1.11-.42-2.26-.77-3.36-1.23-.24-.1-.35-.52-.52-.79.23-.1.52-.34.69-.27a18.37,18.37,0,0,1,3.71,1.72,6.46,6.46,0,0,1,2.59,3.57Z"/><path d="M14.08,42.41c-.5-.26-1-.51-1.49-.78-1.43-.79-2.86-1.56-4.26-2.39-.3-.18-.45-.62-.66-.95.43-.05.95-.28,1.27-.12a32,32,0,0,1,2.75,1.65A14.57,14.57,0,0,1,13.49,41a6.3,6.3,0,0,1,.91,1.26Z"/><path d="M88.14,90.33a7.19,7.19,0,0,1,2.77,4.59,19.7,19.7,0,0,1,.3,3.06c0,.73-.27,1.2-1.19,1.24C90.72,96,89.51,93.13,88.14,90.33Z"/><path d="M130,64.73l-2.31-6.08c.81-.55,1.52-.19,1.71.88a2.07,2.07,0,0,0,.4,1c.46.48,1,.85.47,1.61-.06.09.23.41.35.61C131.22,63.78,131.07,64.2,130,64.73Z"/><path d="M69.19,51.52c2.06-2.91.21-6,.86-8.91.47,2.05,1.73,3.94,1.14,6.2-.14.53-.27,1.07-.39,1.61C70.64,51.16,70.24,51.58,69.19,51.52Z"/><path d="M140.75,67.89c.37.46.77.9,1.11,1.39.21.31.5.71.45,1a2,2,0,0,0,.79,1.94c.7.62.38,2.27-.53,3.22L141,69.66c0-.13-.06-.3-.16-.37C139.94,68.59,139.93,68.6,140.75,67.89Z"/><path d="M48.68,16.12c3.39-.29,5,2.19,6.59,4.77l-6.71-4.47Z"/><path d="M28.32,35.57a13.35,13.35,0,0,1-2.31-2,3.17,3.17,0,0,0-1.64-1c-.49-.21-.93-.56-1.43-.76a7.55,7.55,0,0,0-1.35-.26v-1C25.48,31.31,28.64,33.42,28.32,35.57Z"/><path d="M40.69,44.23c1.17,1.54.77,3.09.31,4.65a5.22,5.22,0,0,0-.24,1.46,2.64,2.64,0,0,1-2.23,2.57C40.28,50.22,40.55,47.25,40.69,44.23Z"/><path d="M111.25,52.89c1.22-.73,2.11-.56,2.71.41,1.54,2.44,1.58,2.56,1.54,4.76-.5-.43-1-.64-1.11-1C113.7,55.43,113.11,53.73,111.25,52.89Z"/><path d="M30.92,34.08c-1-.58-1.92-1.15-2.86-1.75s-2-1.31-3-2a3.46,3.46,0,0,1-.59-.74c.34-.09.79-.36,1-.23,1.32.8,2.63,1.64,3.86,2.56a16.51,16.51,0,0,1,1.82,1.84Z"/><path d="M20.22,39.2c-1.36-2.71-4.37-2.81-6.55-4.5a9.39,9.39,0,0,1,1.49-.11c1.86.16,3.17,1.31,4.44,2.52a5,5,0,0,1,.87.79,3.86,3.86,0,0,1,.3,1.11Z"/><path d="M110.89,101.16c.93-1.43.51-2.57.08-3.71s-.8-2.17-1.3-3.51c.34.1.84.08,1,.31,1.6,2.21,1.68,4.81,1.78,7.39,0,.2-.3.4-.7.46l.38-1.34Z"/><path d="M140.29,106.86c2.75.44,5.79,2.77,7.55,4.35a3.15,3.15,0,0,1-1.26,0,18.86,18.86,0,0,1-2.41-1.47,16.19,16.19,0,0,1-1.41-1.25A2.57,2.57,0,0,1,140.29,106.86Z"/><path d="M57,55.15c.1.17,0,0-.06-.11a6.79,6.79,0,0,1-.3-1s.34-.22.36-.2c.25.29.67.6.67.91A10.25,10.25,0,0,1,56,61.36c-.1.14-.32.19-.79.45Z"/><path d="M80.8,104.88l-1.4-7c1.34.1,1.29,1,1.42,1.59.31,1.47.57,2.95.76,4.43C81.66,104.52,81.41,105,80.8,104.88Z"/><path d="M92.55,87.62c2.08,2.52,2.17,5.45,1.89,8.66a1.77,1.77,0,0,1-.95-1.86,11.82,11.82,0,0,0-.17-3C93.14,90.12,92.82,88.87,92.55,87.62Z"/><path d="M116.67,98.42c-1-2.13.3-4.75-1.94-6.48l.61-.32-1.16-.9c.68-.48,1.4-.3,1.78.65a24.07,24.07,0,0,1,1.05,3.7A3.78,3.78,0,0,1,116.67,98.42Z"/><path d="M136.83,78.59l-1,.22-1.24-5.43.54-.15a6.8,6.8,0,0,1,1.72,5.36Z"/><path d="M120.18,64.69c1.46,1.32,2.12,5.57,1.07,7.48l-.76-.29c.07-1.28.22-2.44.16-3.58S120.34,65.86,120.18,64.69Z"/><path d="M93.14,107.32c1.23-.7,1.59.08,2,.58a16.66,16.66,0,0,1,2.76,6.29c.16.76.47,1.49.71,2.23l-.44.19a7,7,0,0,1-.8-1.56c-.37-1.64-.46-3.36-1.46-4.8-.55-.79-1.1-1.6-1.71-2.35A3.48,3.48,0,0,0,93.14,107.32Z"/><path d="M150.21,106.35l-6.85-3.71v-.25l2.21.55,1.24.28c.17,0,.45,0,.51.13C148.07,104.57,150.44,104.25,150.21,106.35Z"/><path d="M185.46,79l5.08,7.84-.43.31a24,24,0,0,1-1.93-2.58c-.86-1.51-1.37-3.22-2.94-4.25-.24-.16-.23-.7-.34-1.07Z"/><path d="M89.39,80.12,86.27,75c2.19.29,2.64,2,3.35,3.53C89.79,78.91,89.5,79.48,89.39,80.12Z"/><path d="M64.42,50.65c.2.61.39.86.35,1.08-.27,1.54-.57,3.07-.93,4.59,0,.2-.5.31-.77.46a2.59,2.59,0,0,1-.14-.82c.21-1.24.43-2.48.72-3.71A9.3,9.3,0,0,1,64.42,50.65Z"/><path d="M107.42,84a7.51,7.51,0,0,1-.58-2c.06-1.54.29-3.08.44-4.48C108.29,78.9,108.59,82.72,107.42,84Z"/><path d="M119.18,88.83c.28.38.48.92.86,1.1,1.43.7,1.46,2.15,1.89,3.35.2.57.3,1.34-.55,1.53L119,88.88Z"/><path d="M158.61,112.91c-.24,0-.52.05-.65-.06-1.59-1.33-3.18-2.67-4.72-4.06-.17-.15-.05-.62-.07-.94.27.09.74.13.78.27.3,1.1,1.95,1.1,1.95,2.43,0,.09.37.18.57.27a2.41,2.41,0,0,1,.78.38C157.71,111.7,158.1,112.25,158.61,112.91Z"/><path d="M56.42,41.41c-1.18-.57-.64-1.5-.51-2.36s.25-1.83.44-2.73a1.88,1.88,0,0,1,.75-1c-.15,2.07.31,4.17-.7,6.11Z"/><path d="M88.89,72.14c2,.34,4.24,4.25,2.92,5.44Z"/><path d="M54.86,84l1.94,2.1-.11.12,2,3.77-.18.23c-.3-.17-.73-.26-.87-.51-1.07-1.82-2.09-3.68-3.12-5.53Z"/><path d="M84.67,76.78A13.24,13.24,0,0,1,86,78.51a22.44,22.44,0,0,1,1.2,2.81c.07.18-.15.47-.24.71-.2-.08-.52-.1-.58-.24-.67-1.44-1.3-2.89-1.93-4.35C84.44,77.36,84.53,77.23,84.67,76.78Z"/><path d="M78.67,81.29c1.81.7,3,4.08,1.92,5.76Z"/><path d="M86,95c1.82,1.92,1.35,3.94,1,6-.91-.45-.58-1.19-.61-1.85s-.18-1.5-.25-2.26C86.06,96.32,85.27,95.74,86,95Z"/><path d="M52.33,61.08c-.36-1.58-1-3.14-.48-4.82.06-.22-.12-.5-.19-.75a6.12,6.12,0,0,1-.21-1.21c1.32,1.6,1.76,5.44.85,6.77Z"/><path d="M176.45,78.44l-.17.89-1.33-.6c.09-1.29.21-1.39,1.19-.77.58.37,1.08.86,1.64,1.25.19.13.49.1.72.2a2,2,0,0,1,.81.54c.08.12-.13.63-.3.7a1.14,1.14,0,0,1-.93-.09,4.62,4.62,0,0,1-.85-1C177,79.24,176.79,78.92,176.45,78.44Z"/><path d="M93,70.38a5.49,5.49,0,0,1,2.65,4.34c0,.18-.27.41-.42.62-.2-.15-.5-.27-.58-.47C94.11,73.45,93.6,72,93,70.38Z"/><path d="M137.87,70.82a6.54,6.54,0,0,1,1.25,1.38,15.78,15.78,0,0,1,.91,2.7c.05.19-.15.45-.23.67-.23-.15-.54-.26-.67-.47a14.51,14.51,0,0,1-1-2.09,15.36,15.36,0,0,1-.47-1.91Z"/><path d="M154.85,100.86a2.49,2.49,0,0,1-2.8-.69,19.42,19.42,0,0,0-3.64-2,3.25,3.25,0,0,1,1.14-.15,9.76,9.76,0,0,1,2.17.86c.88.51,1.43,1.6,2.7,1.41C154.54,100.3,154.7,100.66,154.85,100.86Z"/><path d="M58.84,41.13l1.58-5c1,1.49.35,3.8-1.24,5.15Z"/><path d="M186.31,89l-3.95-5.67.32-.23A11.13,11.13,0,0,1,186.31,89Z"/><path d="M100,70.76c-.11-.29-.37-.63-.3-.86.35-1.09-.48-1.68-.88-2.47a13.45,13.45,0,0,1-.66-2l.45-.17c.65,1.25,1.37,2.47,1.9,3.77a4.34,4.34,0,0,1-.08,1.74Z"/><path d="M53.15,42.24c-.46,1.45-.73,2.55-1.18,3.58-.17.38-.75.58-1.14.86l-.19-.3c.37-1.11.68-2.24,1.15-3.3C51.92,42.75,52.48,42.62,53.15,42.24Z"/><path d="M157.21,95.88c-.17-.08-.36-.26-.5-.23-.43.09-1,.51-1.23.37a20.45,20.45,0,0,1-2.26-1.8l.26-.45a8.66,8.66,0,0,1,1.27.31,12.81,12.81,0,0,1,2,1c.24.15.3.57.44.87Z"/><path d="M68.23,96.56l-2.54-4.48C67.69,92.54,69.1,95.25,68.23,96.56Z"/><path d="M67.3,49.91c1.06,1.81.06,4.32-1.37,4.18Z"/><path d="M81.81,79.7c1.35.42,2.57,3.75,1.58,4.85Z"/><path d="M84.25,100.68l-2.9-4.2.1-.29c.41.14,1,.16,1.2.45a21,21,0,0,1,1.73,2.95c.13.27-.09.71-.15,1.08Z"/><path d="M100.17,107.7c1.31,2.09,1.07,4.39,1,6.66l-.45.05c-.08-1.3-.14-2.61-.26-3.91a9.5,9.5,0,0,0-.4-1.57c-.11-.38-.23-.77-.34-1.15Z"/><path d="M52.32,61.07c0,2.19-1.21,4.27-2.69,4.37.14-.33.23-.6.37-.85.49-.93,1-1.88,1.52-2.78a3.54,3.54,0,0,1,.82-.71Z"/><path d="M136.81,78.59c.54,1.3,0,3.26-1.09,3.8-.56-1,0-2.85,1.1-3.8Z"/><path d="M61,82a5.56,5.56,0,0,1-3.05-2.85c-.22-.49-1-.74-1.4-1.26a1.81,1.81,0,0,1,2.14,1.24,3,3,0,0,0,2,2c.34.1,1,.32.28.86Z"/><path d="M104.39,59.69c1.48.9,2.36,4.24,1.48,5.24Z"/><path d="M101.39,62.72c1.19.68,2,4,1.05,5.14Z"/><path d="M87.13,63l-4.22-3.9.19-.32c.23,0,.54,0,.68.15C84.9,60,86,61,87.06,62.09c.16.17,0,.6.06.91Z"/><path d="M49.92,92.52,52.26,96l-.34.36c-.26-.12-.62-.17-.76-.37-.49-.71-.86-1.52-1.38-2.22s-.24-.92.15-1.32Z"/><path d="M75.79,84.49c1.91,1.27,2.68,2.78,1.52,4.27Z"/><path d="M110.53,80.38c0-.7,0-1.13,0-1.56s.12-.94.19-1.41l.34,0-.85-.51c.34-.21.63-.54.84-.49a.88.88,0,0,1,.48.71,18.71,18.71,0,0,1-.27,2.93C111.22,80.23,110.65,80.33,110.53,80.38Z"/><path d="M52.73,42c0-1.3,0-2.6,0-3.89,0-.18.31-.35.47-.52.15.16.43.33.42.47-.13,1.34-.3,2.67-.47,4Z"/><path d="M180.19,76.2c2.05.14,4.22,1.87,4.08,3.16Z"/><path d="M26.23,52.49h1a1,1,0,0,1,0,.21c0,.66,0,1.32,0,2,0,.26.22.53.2.78a2.6,2.6,0,0,1-.33.76c-.25-.21-.69-.39-.72-.62C26.31,54.58,26.3,53.55,26.23,52.49Z"/><path d="M70.82,95.15c-.4-.85-.76-1.56-1.07-2.29s-.57-1.44-.85-2.16C70.16,91.31,71.36,93.87,70.82,95.15Z"/><path d="M75.12,91.66l-1.27-4.15.33-.09A4.59,4.59,0,0,1,75.12,91.66Z"/><path d="M124.38,65.18c.07.85.18,1.69.17,2.54,0,.19-.39.41-.64.55-.05,0-.39-.24-.39-.36,0-.9.13-1.8.21-2.7Z"/><path d="M87.12,63c1.43.06,1.7,1.5,2.6,2.2.13.1-.09.64-.43,1L87.13,63Z"/><path d="M93.64,113.67l-2.69-3.43C92.08,110,93.44,111.7,93.64,113.67Z"/><path d="M18.6,54.2c1.1.86,1.09,2.68.2,3.18-.49-.69-.82-1.34.13-1.83Z"/><path d="M72.8,93.48,72,90.25A2.13,2.13,0,0,1,72.8,93.48Z"/><path d="M117.52,85.9c1,.45,2.19.81,2.34,2.16l-.33.34-2.23-2.27Z"/><path d="M63.64,87c-1.1.23-1.58-.56-1.76-2.41l.27-.16Z"/><path d="M93.4,118.82l.43-3.51C94.59,115.71,94.55,117.68,93.4,118.82Z"/><path d="M152.76,107.6l-.89.55-1.2-2.09.36-.22Z"/><path d="M56.4,41.39l-.78,2.18c-.4-.15-.4-.15-.46-2.17h1.25Z"/><path d="M74.21,23.52c.26,1.41,0,1.89-1.37,2l1-2.16Z"/><path d="M84.23,100.67c.57.68,1,1.37,0,2.07-.89-1-.88-1.45,0-2.06Z"/><path d="M98.18,73c-1.43-.49-1.13-1.58-1.4-2.36C98.06,70.84,97.75,71.93,98.18,73Z"/><path d="M61.29,33.26c0,.63.09,1.25.07,1.87,0,.13-.32.25-.49.38-.11-.19-.34-.38-.33-.56.05-.56.2-1.12.31-1.67Z"/><path d="M138.76,78.81l1.18-2.13C140.48,78,140.18,78.61,138.76,78.81Z"/><path d="M110.13,73.71l1,2c-.21,0-.73,0-.81-.14a11.82,11.82,0,0,1-.63-1.8Z"/><path d="M170,80.13l1.73,1,0,.4a5.27,5.27,0,0,1-1.46,0C170,81.44,170.05,80.82,170,80.13Z"/><path d="M122.55,64l-.64-2.15C122.54,62.45,124,62.84,122.55,64Z"/><path d="M78.61,22.18c-.59-.68-1.21-1.35-.23-2.38L79,22.09Z"/><path d="M180.15,81l1.38,1.05c-.44.09-.89.33-1.17.2s-.52-.63-.85-1.07Z"/><path d="M38,90.56c-.92.27-.92.27-2-1.2Z"/><path d="M131.26,59.14l.44,1.8-.51.14-.51-1.79Z"/><path d="M172.72,77.56h1.76l-.1.7L172.74,78C172.73,77.84,172.73,77.7,172.72,77.56Z"/><path d="M153.7,117.08l-1.35-1.48C153.23,115,153.55,115.37,153.7,117.08Z"/><path d="M187.55,92l-1.2-2.32.44-.22,1.08,2.37Z"/><path d="M49.93,92.51c-1,.12-1.2-.68-1.52-1.54a1.8,1.8,0,0,1,1.51,1.55Z"/><path d="M115.22,77.47,114,78l-.28-1.57Z"/><path d="M137.31,106.08l2.27.34c-.82,1-1.55-.13-2.34,0Z"/><path d="M124,63.93l-.9,1.88-.63-1.3Z"/><path d="M60.95,81.95l1.3,1.66c-1.31-.2-1.6-.7-1.29-1.65Z"/><path d="M53.72,35.46c.07.48.16,1,.2,1.44,0,.07-.27.25-.33.21s-.35-.25-.35-.38a9.4,9.4,0,0,1,.14-1.21Z"/></svg>
