<svg xmlns="http://www.w3.org/2000/svg" viewBox="0 0 175 175"><title>roll-2</title><path d="M152.87,68.92l-1.77.39-.15.33,3.25,2-.1.2c-1.25-.49-2.48-1-3.74-1.47a17.45,17.45,0,0,0-12.3.33,2.91,2.91,0,0,0-1.18,1.14c3.67-.67,7.26-.23,10.85,0a3.3,3.3,0,0,1,.71.28l-1.45.54,3.1,1.89-.08.3c-5.42-1.51-10.83-2.26-16.18-.06,0,.12,0,.24,0,.36l1.11-.08a21.19,21.19,0,0,1,9,1,8.33,8.33,0,0,1,2.45,2.12c-5.62-1.76-11.14-2.65-16.77-.4a26.47,26.47,0,0,1,12,2.4l-.67.81,1.77.49-.12.55a15.33,15.33,0,0,1-1.6-.31,25.69,25.69,0,0,0-4.29-1.29c-2.94-.32-5.87-1.36-8.88-.46-.63.19-1.25.4-2,.63-.11-.88,0-1.47.8-1.76a3.62,3.62,0,0,0,2.53-2c.26-.67,1.54-1,2.41-1.34a2.39,2.39,0,0,0,1.2-1.11,29.47,29.47,0,0,1,1.84-3.26c1.46-1.68,3.6-1.88,5.56-2.52a21.15,21.15,0,0,1,6.23-.65,42.35,42.35,0,0,1,5,.32A5.77,5.77,0,0,1,152.87,68.92Z"/><path d="M96.64,118.1c-3-.07-6-.43-9,.87A79.48,79.48,0,0,1,79,121.69l-.23-.29c.68-.58,1.34-1.19,2.07-1.72a3.49,3.49,0,0,0,1.54-1.78c.31-.86,1.43-1.52,2.33-2a12.19,12.19,0,0,1,7.13-1.55c2,.15,4,.31,6,.62a8.58,8.58,0,0,1,3,1.24l-7.18.11q0,.22,0,.45l3.07,1.09Z"/><path d="M118.78,86.06c-.09-.47-.42-1.17-.23-1.36a3,3,0,0,1,1.83-1,1.18,1.18,0,0,0,1.33-.8c.26-.47.7-1.09,1.14-1.16a26.65,26.65,0,0,1,5.54-.55,39.78,39.78,0,0,1,6.42,1A10.09,10.09,0,0,1,138,83.62c-4.72-.75-9.4-1.58-14.15-1l-.07.47,9,1.85-.07.5c-1.08.49-2.17,0-3.26-.12-2.24-.26-4.48-.68-6.72-.77a4.84,4.84,0,0,0-4,1.52Z"/><path d="M134.38,118.94c2.22-.15,3,1.75,4.38,2.77l-.8.84a4.1,4.1,0,0,1,1,0c.39.1.92.17,1.1.45a24.86,24.86,0,0,1,3.86,10.29c.08.58.33,1.15.39,1.74,0,.28-.23.59-.36.89-.33-.16-.75-.25-1-.5s-.13-.69-.26-1c-.43-1.17-.9-2.33-1.35-3.49-.21-.55-.4-1.12-.64-1.66-.39-.88-.8-1.75-1.23-2.62-.35-.71-.71-1.43-1.12-2.11-.14-.23-.6-.28-.69-.51a13.35,13.35,0,0,0-3.13-4.24C134.4,119.55,134.44,119.2,134.38,118.94Z"/><path d="M110.53,131.92a11,11,0,0,1-1.84-.76c-3.25-1.95-6.54-3.87-10.31-4.54-2.5-.45-5.08-.47-7.52-.67a11.89,11.89,0,0,1,6-1.64,14.84,14.84,0,0,1,6.48,1.94,43.18,43.18,0,0,1,5.9,3.8A6.62,6.62,0,0,1,110.53,131.92Z"/><path d="M138.08,117.11c1.78.1,2.9,1.44,4,2.58a27.79,27.79,0,0,1,2.76,4.21,6.8,6.8,0,0,1,1,1.68c.51,1.88.92,3.78,1.27,5.7.08.42-.23.92-.36,1.38-.5-.32-1.25-.53-1.44-1-.67-1.55-1.13-3.19-1.68-4.79s-1.09-3.46-1.82-5.1a13.48,13.48,0,0,0-1.92-2.74C139.35,118.39,138.71,117.78,138.08,117.11Z"/><path d="M118.77,86.07c2.86.07,5.72.09,8.57.23,1.52.07,2.94.47,3.44,2.23.07.25.4.42.82.83-1.3-.36-2.35-.7-3.42-.92a19.2,19.2,0,0,0-3.46-.47c-2.23,0-4.45.07-6.68.15a2,2,0,0,0-.78.27c-1.55.78-2.14.46-2.34-1.31l3.86-1Z"/><path d="M68,49.29l3.26,1.54c-.1-1.49-4.21-4.94-6.13-5.14a9.4,9.4,0,0,0-4.24,1,2.66,2.66,0,0,1-.68.82l-.2.16c3.85,0,6.51,2.54,9.43,4.63C70,50.9,68.17,50.72,68,49.29Z"/><path d="M119.39,124.61c.29-.12.44-.24.48-.2a23.75,23.75,0,0,1,4.08,2.93c2.89,3.11,4.78,6.93,6.69,10.68.46.9.23,2.16.27,3.26,0,.13-.26.38-.39.37a.72.72,0,0,1-.55-.31c-.15-.36-.16-.78-.27-1.16-.19-.62-.47-1.09-1.24-.4C127,133.74,124.5,128.43,119.39,124.61Z"/><path d="M88.39,129.87a6.55,6.55,0,0,1,4.49-1.41c1.7.11,3.4.13,5.09.21a4.28,4.28,0,0,1,1.28.18c1.63.61,3.27,1.23,4.86,1.94a15.16,15.16,0,0,1,2.54,1.46,7.6,7.6,0,0,1,1.64,1.69C101.83,131.69,95.61,128.51,88.39,129.87Z"/><path d="M91,121.61a9.16,9.16,0,0,1,2.69-.56,78.17,78.17,0,0,1,8.52,1.21,12,12,0,0,1,4.13,1.86c2.16,1.47,4.17,3.17,6.23,4.79a.87.87,0,0,1,.28.48c-4.75-2.67-9.33-5.64-14.72-7l-.05.41a.33.33,0,0,1-.12,0c-1.46-.22-2.92-.41-4.38-.67-.87-.15-1.73-.4-2.59-.61Z"/><path d="M155.32,115.62c-1,.21-1-.73-1.4-1.41-.64-1.21-1.07-2.72-2.05-3.5-1.44-1.14-1.62-3.06-3-4.11-.1-.07-.1-.28-.28-.77.54.3.89.39,1.06.62,1.67,2.15,3.31,4.33,5,6.49a9.26,9.26,0,0,0,.78.8l.82-1.07c.36,1.48.7,2.89,1.06,4.29.2.81.46,1.6.66,2.41.12.46.36,1,.23,1.38a5.87,5.87,0,0,1-1.07,1.41,4.79,4.79,0,0,1-.5-1.45,4.43,4.43,0,0,0-.55-2.48A10,10,0,0,1,155.32,115.62Z"/><path d="M131.89,123.06c1.08,1.4,2.17,2.78,3.23,4.19a26.56,26.56,0,0,1,2.9,4.13,57.87,57.87,0,0,1,2.42,6.53c.26.75-.4,1.14-1,1.2-.23,0-.73-.61-.76-1-.39-4.24-2.55-7.62-5.14-10.82a12.26,12.26,0,0,1-1-2.21c-.31-.62-.73-1.18-1.11-1.77Z"/><path d="M65.75,2.8l.67-1.6C69.86,4.5,71.11,12.31,69.6,18.1l-.61-2-1.17,2.64-.24-.07c.14-.67.27-1.35.44-2,.77-3.11,1.49-6.23.62-9.44C68.17,5.46,67.64,3.72,65.75,2.8Z"/><path d="M90.83,132.81c3-2.79,13.31.34,15.08,4.74C101.44,133.71,96,133.81,90.83,132.81Z"/><path d="M126.77,91.89l1.47-.12a2.12,2.12,0,0,1-2.18.9c-1.26-.51-2.3-1.46-3.95-1.14-1.18.23-2.51-.47-3.79-.56-.69,0-1.4.42-2.11.48a29.61,29.61,0,0,1-3.66.1c-.29,0-.56-.4-.83-.62l.05-.42c.82-.15,1.64-.33,2.47-.44,1.34-.18,2.69-.32,4-.46a3.27,3.27,0,0,1,1.05-.05c2,.47,4.06,1,6.08,1.49A6.5,6.5,0,0,1,126.77,91.89Z"/><path d="M148,122.53c1.76.58,3,5,1.8,6.9-.28-.47-.68-.83-.67-1.17.07-2.69-1.35-4.82-2.64-6.95a45.73,45.73,0,0,0-3.57-4.86,18.64,18.64,0,0,0-2.17-2C143.34,114.64,148.92,120.92,148,122.53Z"/><path d="M110.69,106a8.66,8.66,0,0,1-4.27.24,36.46,36.46,0,0,0-5.21-.09c-2.26.14-4.51.49-6.89.76,0-.86.73-1.31,1.51-1.48a33.48,33.48,0,0,1,10.74-.43A35.12,35.12,0,0,1,110.69,106Z"/><path d="M25.78,83.86c-1.91-1.28-2.73-1.35-3.17-.17l-1.88-1.23a38.46,38.46,0,0,0-4.18-2.69,10.91,10.91,0,0,0-3.11-.51l-1-.14C14.41,77.07,23.95,80.47,25.78,83.86Z"/><path d="M117.1,99.14c0,.42-.08.71-.11,1-4-1.62-8.17-1.57-12.34-1.44a15.92,15.92,0,0,0-1.84.48c-.23,0-.5-.23-.75-.36.14-.21.24-.54.42-.6a30.25,30.25,0,0,1,3.31-.81c.32-.05.7.26.82.31a7,7,0,0,1,1.87-.41A50.16,50.16,0,0,1,114,98,17.76,17.76,0,0,1,117.1,99.14Z"/><path d="M53.9,27c0-.5,0-1-.07-1.51-.11-2.91,0-5.84-.37-8.72a9.85,9.85,0,0,0-3-6.47c-.11-.1-.18-.43-.12-.5s.48-.32.57-.26a3.87,3.87,0,0,1,1,.95c2.77,4.23,3.14,9,2.73,13.81-.08.91-.28,1.82-.42,2.73Z"/><path d="M5.86,84.72c3-1.86,13.05,1.57,15,5.56a14.5,14.5,0,0,1-1.47-.86,15.57,15.57,0,0,0-8.58-3.56A32.78,32.78,0,0,1,5.86,84.72Z"/><path d="M96.35,108.51c2.64.27,4.6.46,6.57.67a3.24,3.24,0,0,1,1.15.28,4.77,4.77,0,0,1,.88.79,3.47,3.47,0,0,1-1.15.2,36.61,36.61,0,0,0-11.87-.25,2.85,2.85,0,0,1-1-.27c.27-.25.52-.67.83-.73C93.47,108.89,95.23,108.67,96.35,108.51Z"/><path d="M113.8,104.37a16.64,16.64,0,0,1-3.34-.88,11.29,11.29,0,0,0-4.33-.77c-2-.16-4.12.06-6.19.07-.32,0-.64-.26-1.1-.47C101.63,100.37,111.72,101.72,113.8,104.37Z"/><path d="M49.62,32.71c.86-3.36,1.59-6.71.91-10.22a33.64,33.64,0,0,0-3.67-9.61C51,14.24,53,28.82,49.62,32.71Z"/><path d="M53,66.09c-3.89-2.46-6.61-6-10.85-7.39.28-.84.87-.84,1.49-.55a17.89,17.89,0,0,1,3.49,1.77,63.82,63.82,0,0,1,5,4.44A7.13,7.13,0,0,1,53,66.09Z"/><path d="M18.54,74.95l-1,.67,11.74,5.7C27.86,79.19,22.22,76.09,18.54,74.95Z"/><path d="M162.8,89A17.08,17.08,0,0,1,167,94.23a27.4,27.4,0,0,1,1.51,3.5,23.75,23.75,0,0,1,.7,3.59c0,.19-.21.48-.41.63s-.4-.17-.54-.32a1.17,1.17,0,0,1-.33-.63c-.31-4.07-2.51-7.3-4.64-10.57-.15-.23-.31-.46-.45-.71C162.79,89.63,162.82,89.5,162.8,89Z"/><path d="M87.36,113.54a2,2,0,0,1,2.08-1.39c3.33-.05,6.66-.13,10-.13a4,4,0,0,1,3.47,1.51c-.61-.23-.9-.36-1.2-.46a2.9,2.9,0,0,0-1-.28c-2.29.16-4.57.44-6.86.53-1.87.07-3.74-.07-5.61-.1A3.48,3.48,0,0,0,87.36,113.54Z"/><path d="M112.37,80.19a6.93,6.93,0,0,1-1.21-.83c-1.36-1.42-2.65-2.9-4-4.31a1.44,1.44,0,0,0-.86-.22,3.93,3.93,0,0,1-2.69-2.33l1.45.6c.77-.85,1.8-.2,2.67.31a4.69,4.69,0,0,1,2.35,2.66c.46,1.4,1.61,2.57,2.45,3.85Z"/><path d="M112.19,59.36c-.39-2.1-1.92-2.54-3.39-3.15a6.92,6.92,0,0,0-4.56-.48l.51,1.29.2-.27,2.61,1.57c-1,.49-3.31-.6-3.89-1.59-.72.24-1.35.49-2,.64-.21,0-.51-.15-.71-.3s0-.48.11-.49a2,2,0,0,1,.76.07,2.71,2.71,0,0,1,.53.28A3.45,3.45,0,0,1,106,54.59a8.21,8.21,0,0,1,1.5.38,6.77,6.77,0,0,0,3.07.89C111.64,55.82,112.58,57.93,112.19,59.36Z"/><path d="M55.74,55.05a11.08,11.08,0,0,0-4.25-1.81l-1,.53a25,25,0,0,1,9.65,6.64C60.53,58.92,59.06,56.9,55.74,55.05Z"/><path d="M165.8,86.1c2.62,2.38,6.34,9.32,5.2,12.29a13.08,13.08,0,0,1-.57-1.22,41,41,0,0,0-1.8-5.34,30.24,30.24,0,0,0-3-4.16C165.28,87.16,165,86.63,165.8,86.1Z"/><path d="M42.54,36.21c.26-6.65,1-13.18-2.32-19.44C43.22,18.36,44.91,33.36,42.54,36.21Z"/><path d="M32.89,20.82c3.83,3.67,4.77,12.72,3.07,17.71a6.18,6.18,0,0,1-.14-1.77c.73-3.29.11-6.53-.47-9.72a25.39,25.39,0,0,0-1.85-4.73C33.31,21.81,33.1,21.31,32.89,20.82Z"/><path d="M108.4,81.05c-.4-.6-.76-1.23-1.21-1.79A4.92,4.92,0,0,0,106,78.19c-1-.64-1.82-1.88-3.35-1.42-.15,0-.63-.35-.62-.53a1.66,1.66,0,0,1,.4-1.12c.89-.79,3.12-.22,3.79.88a9.36,9.36,0,0,0,.88,1c.36.43,1.27.59.67,1.49-.05.08.31.4.43.64.26.53.49,1.07.74,1.61Z"/><path d="M106.44,94.9a4.13,4.13,0,0,1,3.93-1.54c2.6.1,5.2.55,7.79.89.21,0,.38.33.58.52Z"/><path d="M91.37,136c1.45-1.7,3.16-1.44,4.85-.85a12.84,12.84,0,0,1,2.89,1.38c1.36.92,2.62,2,3.93,3l-.18.26c-1.84-.86-3.73-1.65-5.52-2.6A8.8,8.8,0,0,0,91.37,136Z"/><path d="M14.36,53.62c.07-.5.15-1,.2-1.5.36-3.43.89-6.85,1-10.28,0-1.44-.9-2.91-1.37-4.37A2.64,2.64,0,0,1,14,36.29a9.74,9.74,0,0,1,2.24,5.44c.53,4.14-.61,8-1.41,12Z"/><path d="M34.21,64.44c3.86.81,6.9,3.42,10.51,5.15-.21-.36-.3-.68-.51-.84q-1.78-1.35-3.61-2.63a15.71,15.71,0,0,0-5.26-2.49Z"/><path d="M148.69,115c1.85.14,2.28,1.78,2.92,3a29.26,29.26,0,0,1,1.81,5,9.67,9.67,0,0,1,.33,2.47c0,.27-.33.55-.5.82-.27-.24-.65-.44-.77-.75a2.72,2.72,0,0,1-.09-1.3c.32-2.14-.71-3.79-1.68-5.58-.64-1.18-1.43-2.22-2.16-3.32Z"/><path d="M32.33,70.05a40.08,40.08,0,0,0-4.19-1.41l-1.2.79c1,.33,2.06.59,3.07,1a8.47,8.47,0,0,1,4.16,2.46,6,6,0,0,0,1.16.9l.25-.22a1.91,1.91,0,0,0-.07-.43A5.61,5.61,0,0,0,32.33,70.05Z"/><path d="M158,108.2c.62.7,1.5,1.3,1.81,2.12a22.57,22.57,0,0,1,1,4.48c.21,1.31.23,2.64.34,4-1.09-.06-1.48-.32-1.47-1.32,0-1.81-.22-3.62-.28-5.43,0-.43-1.32-.57-.14-1.13a2.33,2.33,0,0,1-1.28-2.76Z"/><path d="M29.73,24.78c3.12,1.58,4,12,2.27,15.69,0-2.89-.06-5.56-.07-8.22S30.81,27.17,29.73,24.78Z"/><path d="M94.13,82.4c1-1.21,3.2-1.45,4.07-.65a16.64,16.64,0,0,1,2,2.43,19.06,19.06,0,0,1,1.43,2.33,2.12,2.12,0,0,1,.13,1.2C99.57,85.49,98.19,82.26,94.13,82.4Z"/><path d="M72,17.47c.06-2.44.07-4.89.2-7.33a14,14,0,0,0-1.67-6.92l.33-.17a11.12,11.12,0,0,1,1.4,2.08,11.22,11.22,0,0,1,1.15,4.06,47.5,47.5,0,0,1-.93,6.5c-.1.61-.25,1.21-.38,1.81Z"/><path d="M56,24.31a65.93,65.93,0,0,0-.32-8,62.16,62.16,0,0,0-2.1-7.46C55.56,9.32,58.29,20.67,56,24.31Z"/><path d="M54,88.67A4.07,4.07,0,0,1,53,87.49a2,2,0,0,0-2-1.46c-.67-.06-1.32-.31-2-.37s-1.14-.09-1.71-.1c-.52.35-1,.68-1.59,1a5.78,5.78,0,0,1,4.54,1,6.7,6.7,0,0,0,2.14.62c.29,1.09.55,1.26,2.54,1.45C54.56,89.25,54.25,89,54,88.67Z"/><path d="M83.67,80.47c-.79.55-1.3.34-2-.27-1.22-1.09-2.37-2.42-4.2-2.45a12.52,12.52,0,0,0-1.93.25,2.63,2.63,0,0,1,3.27-1.57A8.94,8.94,0,0,1,83.67,80.47Z"/><path d="M98.63,90c-.88-.48-1.78-.94-2.64-1.45-1.22-.71-2.45-1.43-3.62-2.22a5,5,0,0,1-.92-1.11A4,4,0,0,1,93,84.85a6,6,0,0,1,1.79.9C97.58,87.43,97.58,87.44,98.63,90Z"/><path d="M24.23,71.24,23,72a24.84,24.84,0,0,1,7,3.76c.18.15.58,0,1,0A16.88,16.88,0,0,0,24.23,71.24Z"/><path d="M67,53.51a42.7,42.7,0,0,0-4.43-3,21.21,21.21,0,0,0-4.06-1.58l-.1,0c-.39.28-.77.56-1.17.83a2.11,2.11,0,0,0,0,.21,9.15,9.15,0,0,1,6.49,2.63A28.47,28.47,0,0,0,67.32,55l.41-.39A3.81,3.81,0,0,0,67,53.51Z"/><path d="M54.79,51.31l-.77.47L62.95,57a3.25,3.25,0,0,0-1-2c-2.15-1.3-4.39-2.45-6.63-3.6A1.41,1.41,0,0,0,54.79,51.31Z"/><path d="M76.06,106.3c-.6-.19-1.36-.2-1.57-.55-1-1.75-3-1.43-4.4-2.3l-1,1.62-.57-2.22c.24-.78,1.21-.9,2-.71C72.89,102.7,75.16,103.39,76.06,106.3Z"/><path d="M12.2,62.8l1.16-.44c-.56-.35-1-.73-1.55-1.07-.73.46-1.47.91-2.21,1.33a14.76,14.76,0,0,1,5.83,4.92l.29-.18C15.23,65.2,13.61,64.11,12.2,62.8Z"/><path d="M32.13,65.92l-.88.6,9.41,4.57C40.3,69.4,35.22,66.59,32.13,65.92Z"/><path d="M59.29,23.31c1.62-5.57,1.49-10.89-1.78-16,.5.43,1.2.75,1.46,1.29,1.79,3.77,2.89,7.67,1.66,11.88-.28,1-.58,1.93-.87,2.89Z"/><path d="M12.8,52.9c-.75-5.33.75-10.84-3.14-15.62C13.39,38.85,14.07,48.9,12.8,52.9Z"/><path d="M45.27,63.88c-1.61-1.23-3.31-2.33-4.93-3.55A2.13,2.13,0,0,0,40,60.1a3,3,0,0,1-.46.44l-.6.45c1.33.75,2.59,1.43,3.74,2.24,1.43,1,2.7,2.21,4.1,3.38A2.85,2.85,0,0,0,45.27,63.88Z"/><path d="M39.39,36.11c-.16-5.3.38-10.73-3-15.41.5-.3.73-.33,1.14.46a20.8,20.8,0,0,1,1.74,4A21.67,21.67,0,0,1,39.39,36.11Z"/><path d="M56.05,61.76a45.67,45.67,0,0,0-9.38-5.29c1.12-.84,2.11-.17,3,.25C52.16,57.93,55,58.84,56.05,61.76Z"/><path d="M97.31,70.59a7.72,7.72,0,0,0-7.9-3.44c.35-1.13,1.2-1.09,1.88-1.09,1.11,0,2.43-.12,3.25.42s2.2.76,2.39,2.28C97,69.12,97.94,69.51,97.31,70.59Z"/><path d="M87.24,99.11c-.55-.53-1.14-1-1.65-1.59-1.19-1.31-2.06-3-3.83-3.68-.15-.06-.19-.38-.29-.58.48-.19,1-.41,1.45-.57.11,0,.32.08.43.18a15.94,15.94,0,0,1,4.25,5.9Z"/><path d="M72,100.94a2.32,2.32,0,0,1,3.69-.45A40.34,40.34,0,0,1,78.86,104c.16.19,0,.64,0,1a3.07,3.07,0,0,1-.87-.39c-1.08-1-2.08-2.06-3.21-3-.38-.31-1.05-.27-1.59-.39Z"/><path d="M80.31,83.12c-.86-.09-1.67.37-2.14-.84-.19-.49-1.5-.58-2.31-.8-1.21-.32-2.44-.59-3.65-.91a.57.57,0,0,1-.35-.41c0-.14.19-.3.33-.42a.81.81,0,0,1,.34-.1C74.67,79.2,79,81.09,80.31,83.12Z"/><path d="M90.18,75.63c-1.76-1-3.53-2-5.27-3.05-.14-.08-.08-.49-.09-.55a12.35,12.35,0,0,1-2,0c-.19,0-.32-.52-.48-.8a3.94,3.94,0,0,1,.9-.21,12.65,12.65,0,0,1,1.7.13,6.9,6.9,0,0,1,3.94,2.45,17.26,17.26,0,0,1,1.35,1.76Z"/><path d="M21.41,45.06c.06-4.73,1.18-9.5-.52-14.17C23.43,35.52,22.55,40.29,21.41,45.06Z"/><path d="M81.26,102.28l-5.69-4.53a1.94,1.94,0,0,1,2.83,0c1,.91,1.86,2,2.85,2.88C81.91,101.32,81.8,101.81,81.26,102.28Z"/><path d="M105,83.32c-1.81-1.5-3-3.39-5.31-3.62a2.93,2.93,0,0,1-1.14-.33c-.22-.12-.31-.47-.45-.71.25-.13.48-.36.74-.38C102,78,103.67,80,105,82.44,105.11,82.64,105,83,105,83.32Z"/><path d="M113.67,76.07a39.52,39.52,0,0,0-3.61-2.78,29.23,29.23,0,0,0-3.63-1.59c1.81-.95,3.93-.91,4.82.53a8.42,8.42,0,0,0,2.19,2.32C113.69,74.75,113.58,75.41,113.67,76.07Z"/><path d="M28.86,41.72a55.62,55.62,0,0,0-.31-8,55.63,55.63,0,0,0-2.43-7.61C28.76,28.85,30.45,37.53,28.86,41.72Z"/><path d="M90.39,95.57c-1.5-2.6-3.33-4.32-6.28-4.71a1.88,1.88,0,0,1,2.36-.93C88.66,90.93,90.65,92.25,90.39,95.57Z"/><path d="M120.94,69.25a8.18,8.18,0,0,1-1.16-.64c-1.13-.86-2.19-1.79-3.35-2.6-.27-.19-.82,0-1.22.06-.62.15-1.21.39-1.82.6l-.23-.4a7.14,7.14,0,0,1,1.4-1.05c1.58-.67,4.6.26,5.63,1.65a1.66,1.66,0,0,1,.27.52C120.61,67.93,120.74,68.48,120.94,69.25Z"/><path d="M43.81,14.42c2.54,2,5.28,9.86,3.31,14.73C47.87,23.81,46.44,19,43.81,14.42Z"/><path d="M9.61,80.85l-.67.45-.22.12a58.24,58.24,0,0,1,5.65,1.51c1.86.68,3.6,1.68,5.52,2.6C18.37,83.61,12.35,80.52,9.61,80.85Z"/><path d="M94.67,93c-2.07-1.84-3.73-4.27-6.7-4.87.16-.77.43-.88,1.24-.67a7.73,7.73,0,0,1,5.33,4.24c.17.34.29.7.43,1.05Z"/><path d="M64.62,72.35c-.53.39-1.07.77-1.6,1.16l5,1.36c.1.21.14.52.31.62s.58-.07.59-.17a1,1,0,0,0-.17-.74A7.2,7.2,0,0,0,64.62,72.35Z"/><path d="M84.44,100.51c-1.8-1.34-3.36-2.47-4.88-3.66-.26-.2-.34-.63-.51-1,.33-.08.7-.29,1-.21a9.41,9.41,0,0,1,4.51,3.51C84.75,99.45,84.49,100.07,84.44,100.51Z"/><path d="M26.2,43.3c-.16-4.53-.12-9.07-2-13.34C26.5,32,27.5,41.39,26.2,43.3Z"/><path d="M165.24,98.47a23.51,23.51,0,0,1,1.65,9.41c-1.5-.07-1.25-1.4-1.28-2a25.35,25.35,0,0,0-.86-6.9c0-.12.07-.28.11-.42Z"/><path d="M7.51,63.68c-.32.15-.63.3-1,.43l6.33,5.13.37-.26c0-.22-.05-.47-.18-.58C11.24,66.8,9.39,65.22,7.51,63.68Z"/><path d="M34.11,47.28l-1.44.82a1.24,1.24,0,0,0,.61.51c1.75.49,2.67,1.78,3.64,3.09.2.28.47.51.85.92C37.73,50.67,35.9,48.29,34.11,47.28Z"/><path d="M117.34,71.57l-.88.41,1.36.52-.05.38c-.36-.07-.88,0-1-.24a8,8,0,0,0-6-3.25c-.1,0-.18-.14-.71-.57.43-.16.73-.26,1-.39.63-.27,3,.46,3.47.94a22.88,22.88,0,0,0,2.06,1.5A8.91,8.91,0,0,1,117.34,71.57Z"/><path d="M52.2,81.63l5.91,2.09.19-.53c-1.5-1.16-2.92-2.49-4.94-2.62Z"/><path d="M92.85,49.38c1.43-1.75,4.76-2,6.75-.8-.31,0-.61,0-.66.11-.73,1.43-1.86,1-3,.72a8.92,8.92,0,0,0-1.77,0Z"/><path d="M14.82,59.37a1.64,1.64,0,0,1-.2.15l-.69.43c1.93,1.54,3.11,3.76,4.59,5.71l.21-.12A12.3,12.3,0,0,0,14.82,59.37Z"/><path d="M93.27,71.42l-3.56-1.69-3.45-.3L86.13,69c.58-.27,1.2-.84,1.73-.77,2.18.31,4.32.84,5.6,2.92Z"/><path d="M85.91,77.57a8.67,8.67,0,0,1-1.31-.63,8.2,8.2,0,0,0-4.17-1.87c-.38,0-.72-.47-1.08-.71.44-.19.94-.62,1.3-.53a15.35,15.35,0,0,1,3.89,1.36C85.15,75.54,85.37,76.58,85.91,77.57Z"/><path d="M58.81,93.28c-.46-.43-.89-.63-.94-.92a1.07,1.07,0,0,1,.5-.85c.89-.5,1.8-1.11,2.85-.29a.81.81,0,0,0,.54,0,4,4,0,0,1,3.08,1.67c0,.14-.1.34-.2.67l-1.91-1.1a16.48,16.48,0,0,1-2.24-.35C59.64,91.89,59.1,92.07,58.81,93.28Z"/><path d="M169,83.22c2,2.69,4.15,5.29,4.47,8.8l-.35.25c-.21-.21-.61-.42-.61-.64-.06-2.67-1.9-4.44-3.17-6.5a13.28,13.28,0,0,1-.77-1.75Z"/><path d="M9.14,72.13l.38-.33a44.84,44.84,0,0,0-2.79-4.92A2.86,2.86,0,0,0,3.2,65.72C6.57,66.58,7.45,69.65,9.14,72.13Z"/><path d="M116.51,63.2c1.78-1.59,3.81-1.34,4.88.2.22.32.64.51.85.84.45.71.82,1.47,1.23,2.2l-.3.19A28.34,28.34,0,0,1,120.27,64C119.3,62.83,118,63.43,116.51,63.2Z"/><path d="M30.92,49.76c-.17-.13-.35-.25-.54-.37l-1,.54c1.95,1.13,3.27,3,4.77,4.61C33.95,52.34,32.52,50.94,30.92,49.76Z"/><path d="M135,141l-3.31-8.12C133.74,133.75,135.91,139.25,135,141Z"/><path d="M63.22,21.34a52.38,52.38,0,0,0,.21-12C64.75,13.38,64.29,17.37,63.22,21.34Z"/><path d="M67.76,92l-6.2-2.46c.9-1.11,1.82-1.25,3.48-.2A28.61,28.61,0,0,1,68,91.73Z"/><path d="M66.41,15.52a18.46,18.46,0,0,0-2.3-11.33C66.59,5.39,68,12.5,66.41,15.52Z"/><path d="M87.4,62.07l-5.67-3.26-1.27.52a2.9,2.9,0,0,1,4.14-.46c1.09.86,2,1.9,3.05,2.86Z"/><path d="M21.61,55a2.58,2.58,0,0,0-.8-.52l-1.07.56c1,.85,2.09,1.6,3,2.51s1.68,2,2.51,3l.21-.08A4.13,4.13,0,0,0,25.07,59C24,57.61,22.82,56.3,21.61,55Z"/><path d="M53.13,34.49c1.32-1.09,2.57-1.11,3.52,0a21.43,21.43,0,0,1,2.08,3.29,1.06,1.06,0,0,1-.27,1.07,30.19,30.19,0,0,1-2-3C55.76,34.47,54.26,35.13,53.13,34.49Z"/><path d="M83.31,63.4c-.4,0-.87.19-1.19,0-1.59-.73-3.11-1.59-5-1.15-.21,0-.5-.26-.75-.4.2-.21.39-.59.61-.61a7.1,7.1,0,0,1,2.34,0c1.38.36,2.71.9,4.06,1.38Z"/><path d="M91.77,138.59c2-1.3,6.18.27,7.52,2.79a6.45,6.45,0,0,1-2.09-.74,7.65,7.65,0,0,0-4.5-1.73A5.62,5.62,0,0,1,91.77,138.59Z"/><path d="M37.76,45.11l-1,.58a9.71,9.71,0,0,1,3.1,3c.09.14.43.12.88.22A10.31,10.31,0,0,0,37.76,45.11Z"/><path d="M24.29,52.69l-1.37.72a.36.36,0,0,0,.23.13c1.49-.06,2.14,1.06,2.93,2,.64.74,1.26,1.49,1.89,2.24l.49-.38c-1-1.34-1.92-2.76-3-4A2.91,2.91,0,0,0,24.29,52.69Z"/><path d="M7,74c-1.74-2.89-3.54-5.54-7-6.59L.13,67c.42,0,.95-.29,1.23-.12,2.26,1.39,4.29,3,5.23,5.66C6.76,73,6.86,73.54,7,74Z"/><path d="M18,56.3l-.23-.18-.87.46L21.38,61C21.23,58.8,19.57,57.57,18,56.3Z"/><path d="M170.73,81.43c2.8.21,2.82,3.33,4.61,4.53a9.72,9.72,0,0,1-.23,1.18,2.66,2.66,0,0,1-.42.63,7.12,7.12,0,0,1-.61-.49.64.64,0,0,1-.09-.34A8.73,8.73,0,0,0,170.73,81.43Z"/><path d="M48.76,37.56l-.37.3,5.3,4.64C52.81,39.7,50.44,37.5,48.76,37.56Z"/><path d="M41.69,43.32l-.48-.38-.85.54,5,4.35A9,9,0,0,0,41.69,43.32Z"/><path d="M84.18,56.57c1.64-1.44,3.47-.89,6.45,1.89Z"/><path d="M58.8,79.2a28.57,28.57,0,0,0-2.89-.86h0l0,0-.93.82,0,.12,2.43.19c.84,1.13,2.3,1.08,3.79.9l.11-.35-1.36-.48Z"/><path d="M127.68,65.45c-1.24-2.5-3.64-2.88-5.72-3.91l.26-.77c1.14.32,2.2.58,3.23.93A4.39,4.39,0,0,1,127.68,65.45Z"/><path d="M26.86,51.31l-.58.31c-.11.11-.21.24-.33.34a8,8,0,0,0,.72.51,9.44,9.44,0,0,1,1.5.81c1,.85,1.95,1.78,2.9,2.66C31.36,54.67,28.23,51.27,26.86,51.31Z"/><path d="M52.28,83.44a4,4,0,0,0-1.8-.29c-.43.37-.86.73-1.3,1.08l1.46-.2,4.29,1.67C54.59,84.21,53.38,83.82,52.28,83.44Z"/><path d="M51.55,35.31l-.69.58a1,1,0,0,0,.18.28c1,1,2,1.91,3.06,2.87a11.46,11.46,0,0,1,.8.93C54.79,37.85,53.06,35.65,51.55,35.31Z"/><path d="M44.25,40.88l-1,.7a19.25,19.25,0,0,1,2,.92c.87.5,1.65,1.16,2.48,1.75A6.51,6.51,0,0,0,44.25,40.88Z"/><path d="M64.67,87.39c.73-1.91,3.52-1.78,5.22.09C68,88.17,66.41,86.31,64.67,87.39Z"/><path d="M73.88,84.69c-1.26-.39-2.32-.67-3.35-1.07a7.73,7.73,0,0,1-1.42-1,5.19,5.19,0,0,1,4.1.5C73.63,83.32,73.7,84.2,73.88,84.69Z"/><path d="M111.7,53.22l-1.42,0-3.52.11c.17-1.15,2.33-2.27,3.86-1.17a9.78,9.78,0,0,1,1.06,1Z"/><path d="M59.77,75.75l-.9.61c1.9-.19,3.29,1.37,5.18,1.92C62.91,76.45,61.21,75.55,59.77,75.75Z"/><path d="M46.94,38.94l-1.09.8a18,18,0,0,1,1.84,1,19.78,19.78,0,0,1,1.77,1.64l.3-.3A11.19,11.19,0,0,0,46.94,38.94Z"/><path d="M67.64,70l4.8.69a7.44,7.44,0,0,0-3.66-1.64Z"/><path d="M94,63.86c-.13-.82.34-1.09,1.11-1,.94.13,1.88.27,2.81.45s.88.76.39,1.58C97.17,63.08,95.47,64.58,94,63.86Z"/><path d="M162.38,103.16c.5,1.27,1,2.53,1.48,3.82.22.63.21,1.24-.94,1.1l-1.13-4.77Z"/><path d="M158.06,108.19c-1.58-.88-3.77-3.94-3.7-5,1.07,1.07,2.26,2.19,3.35,3.39.36.4,1.1.9.32,1.6Z"/><path d="M163.85,108.5a7,7,0,0,1,.77,4,1,1,0,0,1-.79.15c-.58-.37-.8-3.57-.33-4.09C163.55,108.54,163.65,108.55,163.85,108.5Z"/><path d="M148.69,115l-.14.32c-.49-.57-1-1.12-1.46-1.71-.78-1-1.54-2-2.3-3l.19-.26c.66.6,1.33,1.18,2,1.79a12.17,12.17,0,0,1,1.52,1.61C148.68,114.07,148.62,114.56,148.69,115Z"/><path d="M71.2,66.9l-.6.56a29.4,29.4,0,0,1,4.48,1.3A3.82,3.82,0,0,0,71.2,66.9Z"/><path d="M56.53,32.13c1.9-.43,4.38,1.52,4,3.15Z"/><path d="M74.06,64.36c.79-1.31,1.86-.54,2.73-.38s1.39.63.94,1.68Z"/><path d="M159.41,98.39c.8,1.27,1.61,2.53,2.39,3.82.08.13-.07.41-.11.62-.22-.11-.52-.15-.65-.33-.65-.87-1.28-1.75-1.85-2.68a3.9,3.9,0,0,1-.28-1.2Z"/><path d="M9.1,42.38a14,14,0,0,1,1.11,6.21l-.32.07L8.64,42.47Z"/><path d="M10.55,49.55l-.71,6.27-.41,0c.27-2.1-.07-4.26.45-6.34Z"/><path d="M19.07,42.68c-.19-.18-.54-.35-.55-.53-.06-1.37-.05-2.75,0-4.12a.74.74,0,0,1,.3-.51c.28,1.72.86,3.41.28,5.17Z"/><path d="M3.81,42,6,47l-.48.21L3.26,42.26Z"/><path d="M5.81,47.85a3.82,3.82,0,0,1,.77,3.85C6.32,50.34,5.33,49.24,5.81,47.85Z"/><path d="M93,54.32l-.63,1.16c-.59-.47-1.17-.89-1.7-1.37a.59.59,0,0,1,0-.58.66.66,0,0,1,.61-.11C91.83,53.66,92.36,54,93,54.32Z"/><path d="M91,121.59c.27,1.39,0,1.6-1.39,1.21a5,5,0,0,1-1.53-.65l2.93-.55Z"/><path d="M7.06,52.61q-.18,2.28-.36,4.57l-.5,0,.33-4.58Z"/><path d="M19,42.69q-.06,2.52-.13,5l-.26,0a5.58,5.58,0,0,1-.12-1.17c.15-1.3.35-2.6.53-3.9Z"/><path d="M104,62.23c-.63-.91-1.18-1.49-2.15-1.09-.08,0-.33-.39-.51-.6.32-.16.74-.54,1-.44C103.09,60.44,104.07,60.71,104,62.23Z"/><path d="M63.08,8.74l-2-3.35A3.49,3.49,0,0,1,63.08,8.74Z"/><path d="M99.78,58.9l.13,1.36-1.76.39C98,59.44,99.13,59.66,99.78,58.9Z"/><path d="M16.91,33.46c1.07.32,1.63,1.49,1.39,2.95Z"/><path d="M87.36,54.51c.7-1.27,1.17-1.4,2.74-.76Z"/><path d="M153.75,109.06l1.23,1.62-.23.34a4.29,4.29,0,0,1-1.08-.75,3,3,0,0,1-.27-1.11Z"/><path d="M90,52.27l1.51-1.14.82,1.2Z"/><path d="M122.21,95.66l-3-.37c0-.16,0-.33.07-.49.49.1,1,.23,1.48.3s1,.09,1.49.13C122.23,95.37,122.22,95.51,122.21,95.66Z"/><path d="M68.51,0l1.92,2.31-.31.27L68.2.27Z"/><path d="M111.68,53.24l.55-.37,1.47,1.44c-.82-.2-1.76.08-2-1.09Z"/><path d="M23.63,28.9,22,26.79l.26-.22L24,28.64Z"/></svg>
