<svg xmlns="http://www.w3.org/2000/svg" viewBox="0 0 63.6 62.62"><defs><style>.press-wheel-2-a{fill:#efafab;}.press-wheel-2-b{fill:none;}.press-wheel-2-c{fill:#fff;}</style></defs><title>wheel-2</title><path class="press-wheel-2-a" d="M41.8,2A30.85,30.85,0,1,0,60.88,41.29,30.86,30.86,0,0,0,41.8,2ZM24,23.09c-.5,4-5,6.47-2.22,10.9.8,1.29,3.08,4.44,1.82,6.13A6.17,6.17,0,0,1,21,41.72a1.55,1.55,0,0,1-.06.2,6.45,6.45,0,0,1-2.55,3,1.58,1.58,0,0,1-1.62-.07,1.64,1.64,0,0,1-1.56-.34c-4.14-3.44-7.11-10.43-5.76-15.82C10.58,24.17,13,18.4,17.7,16.52a1.28,1.28,0,0,1,1,0,1.47,1.47,0,0,1,1.67.26C22.39,18.6,24.34,20.12,24,23.09ZM28.2,11.32a1.71,1.71,0,0,1,1.29-1.91A1.55,1.55,0,0,1,30.44,9c5.71-.62,11,2.14,14.79,6.3,2.32,2.53,5.23,6.71,1.31,9.2s-7.34-3.43-10-5.16c-1.51-1-3.15-.6-4.69-1A1.38,1.38,0,0,1,30.6,19a1.54,1.54,0,0,1-1.1-2.57,4.75,4.75,0,0,1-.19-.86,2.17,2.17,0,0,1-.18-.35,16.09,16.09,0,0,0-1-2.3A1.39,1.39,0,0,1,28.2,11.32ZM52.74,34.89c-1.08,5-3.24,10.11-7.1,13.6-2.88,2.59-6.07,3.52-9.58,4.36a3.39,3.39,0,0,1-3.36.61,1.43,1.43,0,0,1-1-1.15l-.22,0a3.64,3.64,0,0,1-2.29-1c-1.42-1.12.08-3.87.54-5a6.14,6.14,0,0,1,4.85-3.86c4.15-.92,7.2-4.15,9.15-7.84a1.52,1.52,0,0,1,1.42-2,21.9,21.9,0,0,1,6.57.39A1.55,1.55,0,0,1,52.74,34.89Z"/><path d="M21.59,60.46l-2-.8c-.33-.14-.71-.26-1.1-.46l-1.27-.66c-.45-.25-1-.48-1.48-.78l-1.59-1a31.44,31.44,0,0,1-13-17.52A30.56,30.56,0,0,1,.76,24.3c.13-.66.37-1.29.55-1.94a19.56,19.56,0,0,1,.65-2A30.34,30.34,0,0,1,3.7,16.68,30.53,30.53,0,0,1,8.76,9.81a34.3,34.3,0,0,1,6.91-5.36A36.16,36.16,0,0,1,23.92,1a33.35,33.35,0,0,1,9-1A34.43,34.43,0,0,1,42,1.54a34.57,34.57,0,0,1,8.25,4.08A33.83,33.83,0,0,1,56.94,12a33.7,33.7,0,0,1,4.49,7.91,33.24,33.24,0,0,1,2,8.66A30,30,0,0,1,63,37.13a30.61,30.61,0,0,1-1,4.06c-.06.19-.08.28-.17.54l-.19.46-.38.92c-.27.61-.46,1.21-.79,1.82a31.1,31.1,0,0,1-9.63,11.53,31.62,31.62,0,0,1-21.1,5.7L27.88,62c-.59-.08-1.13-.22-1.64-.3l-1.41-.27c-.43-.08-.8-.23-1.15-.32l-2.09-.62Zm.07-.19,2.09.59c.34.09.71.22,1.14.3l1.4.25c.51.08,1,.2,1.63.26l1.87.12a28.47,28.47,0,0,0,9.35-1.11,31,31,0,0,0,10.71-5.55,32.25,32.25,0,0,0,8.73-11c.29-.54.49-1.2.75-1.8l.36-.92.18-.46.12-.41a29.52,29.52,0,0,0,1-3.79,30.21,30.21,0,0,0,.46-8,31.23,31.23,0,0,0-1.78-8.15A33,33,0,0,0,55.54,13a32.19,32.19,0,0,0-6.16-6.19A33.27,33.27,0,0,0,41.6,2.55,33.53,33.53,0,0,0,32.9.75a32.67,32.67,0,0,0-8.83.89,30.77,30.77,0,0,0-8,3.42,30.35,30.35,0,0,0-6.49,5.49A29.56,29.56,0,0,0,5,17.32,30.52,30.52,0,0,0,3.5,21a18.31,18.31,0,0,0-.55,1.83c-.16.62-.37,1.22-.48,1.85a32.88,32.88,0,0,0,.17,14.13,31.24,31.24,0,0,0,5,11,28.43,28.43,0,0,0,6.68,6.65l1.54,1.06c.49.32,1,.55,1.44.8l1.25.67c.38.2.77.32,1.09.47l2,.82Z"/><path class="press-wheel-2-b" d="M24,17.8a2,2,0,0,0,.47-1.7c-.41.37-1.08.48-1.52.82.28-1.32,1.28-2.32-1.39-3.16"/><path class="press-wheel-2-b" d="M26.66,51.9l.13-.92c-.89-.29-1.69-.59-2.51-.8-.14,0-.41.23-.54.42s.14.39.28.44C24.82,51.32,25.62,51.56,26.66,51.9Z"/><path class="press-wheel-2-b" d="M53.67,28.33A3.65,3.65,0,0,0,53,30.8a.7.7,0,0,0,.49.47.68.68,0,0,0,.51-.45A3.24,3.24,0,0,0,53.67,28.33Z"/><path class="press-wheel-2-b" d="M51.85,28.68c-.23.53-.44,1-.63,1.46a.85.85,0,0,0-.08.55,1.23,1.23,0,0,0,.48.52c.06,0,.37-.16.41-.29A2.22,2.22,0,0,0,51.85,28.68Z"/><path class="press-wheel-2-b" d="M27.19,49.43c-1.08-.57-1.65-1.13-2.61-.66C25.13,49.73,25.86,49.82,27.19,49.43Z"/><path class="press-wheel-2-b" d="M49.63,30.73c.32-.33.58-.48.6-.65s-.18-.42-.28-.63c-.17.14-.42.25-.48.43S49.54,30.29,49.63,30.73Z"/><path class="press-wheel-2-b" d="M47.79,29.81l-.51-.43a1.43,1.43,0,0,0-.24.46c0,.25,0,.55.39.48C47.54,30.3,47.62,30.06,47.79,29.81Z"/><path class="press-wheel-2-b" d="M26.5,46.71a4.26,4.26,0,0,0-.34.27c.12.19.26.37.4.55l.37-.31Z"/><path class="press-wheel-2-b" d="M46.13,30.27l-.22-.42a4.14,4.14,0,0,0-.42.54c0,.05.1.2.16.31Z"/><path class="press-wheel-2-b" d="M26.25,18.45c-.2-.14-.35-.34-.46-.31s-.26.23-.39.36c.12.12.25.35.36.34S26,18.62,26.25,18.45Z"/><path class="press-wheel-2-b" d="M27.1,45.36l.33-.2a.94.94,0,0,0-.3-.15,1,1,0,0,0-.33.09Z"/><path class="press-wheel-2-c" d="M53.26,52.21l.31-.58.21.1-.25.57Z"/><path class="press-wheel-2-c" d="M6.8,13.44l0,0Z"/><path class="press-wheel-2-c" d="M6.82,13.46l0,0Z"/><path class="press-wheel-2-c" d="M2.85,19l0,0Z"/><path class="press-wheel-2-c" d="M21.12,15.41l-.14.1.17-.07Z"/><path class="press-wheel-2-c" d="M50.9,42.8l0,0Z"/><path class="press-wheel-2-c" d="M17.13,55.13l.09,0-.07-.06Z"/><path class="press-wheel-2-c" d="M21.91,57.86l-.19,0,.16.06Z"/><path class="press-wheel-2-c" d="M21.88,57.89l0,0Z"/><path class="press-wheel-2-c" d="M17.16,55.11l0,0Z"/><path d="M22.35,13.79l-.23-.21a8.86,8.86,0,0,1-1.38.38,2,2,0,0,0-.27.67c0,.26.22.61.45.88A3.2,3.2,0,0,1,22.35,13.79Z"/><path d="M23.56,14.88,23,14.4c-.4.8-1.44.64-1.75,1.57a12.73,12.73,0,0,0,.82,1,2.32,2.32,0,0,1,.61-.38.62.62,0,0,1,.14-.82A8.07,8.07,0,0,0,23.56,14.88Z"/><path d="M24.44,16.1l-1.23.67c0,.61,0,.78-.43.82a3.41,3.41,0,0,0,.71.42,1.63,1.63,0,0,1,.23.13C24.54,17,24.54,16.94,24.44,16.1Z"/><path d="M26.66,51.9c-1-.33-1.84-.57-2.63-.86-.14-.05-.32-.38-.28-.44s.39-.46.54-.42c.82.21,1.62.51,2.51.8Z"/><path d="M53.67,28.33A3.24,3.24,0,0,1,54,30.83a.68.68,0,0,1-.51.45A.7.7,0,0,1,53,30.8,3.65,3.65,0,0,1,53.67,28.33Z"/><path d="M51.85,28.68A2.22,2.22,0,0,1,52,30.92c0,.13-.35.33-.41.29a1.21,1.21,0,0,1-.48-.52.85.85,0,0,1,.08-.55C51.41,29.67,51.62,29.2,51.85,28.68Z"/><path d="M27.19,49.43c-1.33.39-2.05.3-2.61-.66C25.53,48.3,26.11,48.86,27.19,49.43Z"/><path d="M49.63,30.73c-.1-.44-.23-.68-.17-.86s.31-.29.48-.43c.1.21.3.43.28.63S49.95,30.39,49.63,30.73Z"/><path d="M47.79,29.81c-.17.25-.25.49-.37.52-.35.07-.41-.23-.39-.48a1.45,1.45,0,0,1,.24-.46Z"/><path d="M26.5,46.71l.43.51-.37.31c-.14-.18-.27-.36-.4-.55A4.26,4.26,0,0,1,26.5,46.71Z"/><path d="M46.13,30.27l-.49.42c-.06-.1-.19-.25-.16-.31a4.06,4.06,0,0,1,.42-.54Z"/><path d="M26.25,18.45c-.21.18-.34.37-.49.38s-.24-.22-.36-.34c.13-.13.24-.32.39-.36S26.06,18.31,26.25,18.45Z"/><path d="M27.1,45.36l-.31-.26a1,1,0,0,1,.33-.09,1,1,0,0,1,.3.15Z"/><path d="M6.82,13.46l0,0Z"/><path d="M53.26,52.21l.27.09.25-.57-.21-.1Z"/><path d="M39.72,62.62l.49-.19-.52.17Z"/><path d="M24.75,20.39,22.3,17.86a1.27,1.27,0,0,1-1.18-.78A6.46,6.46,0,0,0,19.24,15c-.23-.19-.44-.38-.65-.58a10.66,10.66,0,0,0-2.72,1.81c-.79.72-1.23,1.81-2,2.56A18.08,18.08,0,0,0,8.45,30.75c-.42,5.29,2.08,9.72,4.81,14a8.91,8.91,0,0,0,2.06,1.8,1.76,1.76,0,0,0,2.61-.19C19.38,45,21,43.9,22.47,42.58c1.07-1,2-2.12,2.93-3.19L25,39a6,6,0,0,0-3.9,2.2,19.46,19.46,0,0,1-3.39,3A1.75,1.75,0,0,1,15.08,44a25.59,25.59,0,0,1-2.44-3.11c-3.32-5.38-4.06-10.94-1-16.7.21-.38.72-.6,1.09-.9l0,0c.62-.77,1.24-1.54,1.85-2.32,3-3.83,2.69-3.72,6.93-1.05,2.87,1.81,2.91,2.6,1.09,5.36a9,9,0,0,1-.85,1.08,7.6,7.6,0,0,0,1.83,11.35c.28.16.73,0,1.53,0l-1.35-1.48c-1.61-1.75-2.88-5.91-1.16-8.46.93-1.37,2.72-2.38,2.29-4.47,0,0,.05-.13.1-.16C26.75,22.07,25.59,21.25,24.75,20.39Z"/><path d="M50.9,42.8a12.34,12.34,0,0,1-7.6,7.54c.54-.48,1-1,1.62-1.44,4.73-3.48,6.33-8.55,7.21-14,.17-1.09-.15-1.87-1.41-1.82-2,.08-4.06.21-5.63.29-1.23,2-1.94,4.14-3.39,5.4-2.36,2-5.21,3.53-7.85,5.26l0,0c0-1.16-.92-1-1.55-.91-.37.06-.71.62-1,1-.15.23,0,.61-.14.88-.58,1.29-1.21,2.55-1.81,3.82-.43.92,0,1.42.8,1.91a12.52,12.52,0,0,0,13.11-.45c-.2.43-.27,1.06-.6,1.27-2.93,1.79-6,3-9.56,2.27-1.23-.24-2.46-.47-3.69-.74a1.88,1.88,0,0,1-1.63-2.47c.58-2.56,1.24-5.1,1.89-7.64.27-1.06.9-1.38,2.06-1.27,4.06.37,10.57-3.28,10.52-8.37A1.38,1.38,0,0,1,44,31.83c2.43.11,4.86.33,7.28.57a2.34,2.34,0,0,1,2.27,2.54,12.87,12.87,0,0,1-2.63,7.87Z"/><path d="M42,26c-.38-.59-.78-1.18-1.14-1.78a8,8,0,0,0-4.46-3.72c-.37-.12-.88-.19-1.08-.46-1.17-1.57-2.63-1.13-4.11-.72-.37.1-.75.18-1.42.34-1-3.09-2-6.12-2.91-9.18A1.76,1.76,0,0,1,27.41,9c1.95-1.53,8.49-1.35,10.45.21.13.1.15.34.42,1-3.53-1.38-6.66-.51-9.78.25.38,2.2.67,4.2,1.07,6.19.25,1.25.85,1.87,2.38,1.57A8.52,8.52,0,0,1,42,26Z"/><path d="M32.52,59.21c-2.72.18-5.43.49-8-.67-.23-.1-.64-.22-.74-.12-1.55,1.65-2.59,0-3.73-.59a27.4,27.4,0,0,1-8.34-6.54A40,40,0,0,1,5.28,42,3.63,3.63,0,0,1,5,40.13C10.69,51.63,20.19,57.44,32.52,59.21ZM21.91,57.86l0,0-.16-.06Zm-4.78-2.73,0,0,.07.06Z"/><path d="M44.91,24.66a8,8,0,0,1,1.79-.92c1.45-.34,1.73-1.05,1.26-2.43A17.82,17.82,0,0,0,41.34,13a2.31,2.31,0,0,1,3.34-.08,15,15,0,0,1,2.88,3.19c1.16,1.75,2.12,3.63,3.11,5.49A1.5,1.5,0,0,1,49.79,24c-1.47.52-3,.93-4.46,1.39Z"/><path d="M34.1,27.54c-2.24-.28-3.92.76-4.1,2.54-.14,1.41,1.73,3.13,3.63,3.33a3.23,3.23,0,0,1-4.29-.9,3.73,3.73,0,0,1-.1-4.9C30.17,26.45,31.74,26.43,34.1,27.54Z"/><path d="M42.15,9.09c4,1.33,6.68,4.24,8.93,7.62C51.8,17.8,52.34,19,53,20.18l-.44.24c-.73-1.13-1.47-2.25-2.19-3.39a24.89,24.89,0,0,0-7.31-7,5.11,5.11,0,0,1-.85-1Z"/><path d="M12.73,23.3c0,.06,0,.12,0,.18l0-.16Z"/><path d="M41.34,8.24l0,0Z"/><path d="M42.17,9.07l-.39-.39,0,0,.39.38Z"/><path d="M41.78,8.68l-.43-.44,0,0,.43.44Z"/><path d="M33.86,44l0,0Z"/></svg>
