<svg xmlns="http://www.w3.org/2000/svg" viewBox="0 0 67.93 65.88">
  <defs><style>.press-wheel-1-a{fill:#fbb256;}.press-wheel-1-b{fill:none;}.press-wheel-1-c{fill:#fff;}</style></defs><title>wheel-1</title><path class="press-wheel-1-a" d="M32.54,1.06a32,32,0,1,0,32,32A32,32,0,0,0,32.54,1.06Zm4.57,51.56c-.29,3.17-3.45,3.09-6.05,2.91a24.33,24.33,0,0,1-5.09-.7c-2.56-.74-4.39-3.54-6.75-4.74a10.33,10.33,0,0,1-5.07-5.81,8.15,8.15,0,0,1-2.57-4.35,1.53,1.53,0,0,1,0-.81l-.22-.33c-.86-1.22.86-3,2.08-2.08,2.21,1.61,5.45-1.95,8-.67,4,2,4.69,6.8,9.9,6.79a1.57,1.57,0,0,1,.52.09,1.53,1.53,0,0,1,1.22.36C35.29,45.09,37.38,49.78,37.12,52.62ZM40,15.73a57.74,57.74,0,0,1-4.24,6.38,1.49,1.49,0,0,1-1.48.39c-3.33-1-11.3,2.07-11.24,6.2A1.54,1.54,0,0,1,20.77,30,42.66,42.66,0,0,0,13,26.67a1.54,1.54,0,0,1-.67-2.54c2.13-2.57,2.9-5.81,5.81-7.74a37.66,37.66,0,0,1,8.31-4.22c4.78-1.64,10.74-2.2,15.06.89C43,14.16,41.59,16.72,40,15.73ZM50.14,43.85c-3.17,3.32-5.34-1.59-7.08-3.48a3,3,0,0,1-.86-3.1c1.06-3.63,2-6.35.2-10a1.54,1.54,0,0,1,.55-2.08,51.05,51.05,0,0,0,4.88-2.93,1.41,1.41,0,0,1,2.53,0v0a1.76,1.76,0,0,1,.28.67c.22.52.44,1,.64,1.57a1.62,1.62,0,0,1,.16.1C55.8,28.36,53.65,40.18,50.14,43.85Z"/><path d="M64.64,33.06l-.1,2.26c0,.37,0,.78-.08,1.23L64.24,38c-.09.53-.14,1.11-.26,1.71l-.46,1.9A32.58,32.58,0,0,1,50.76,60.32,31.74,31.74,0,0,1,36.26,65.7c-.69.1-1.39.07-2.09.12a20,20,0,0,1-2.15,0,31.45,31.45,0,0,1-4.23-.45,31.61,31.61,0,0,1-8.44-2.62,35.44,35.44,0,0,1-7.6-4.94,37.43,37.43,0,0,1-6.13-6.93,34.57,34.57,0,0,1-4.07-8.48A35.65,35.65,0,0,1,0,33a35.86,35.86,0,0,1,1.21-9.46,35.09,35.09,0,0,1,3.95-8.68,35,35,0,0,1,6.22-7.07,34.45,34.45,0,0,1,7.79-4.93A31.13,31.13,0,0,1,27.73.38,31.85,31.85,0,0,1,32.06,0c.2,0,.3,0,.59,0l.52,0,1,.06c.69.06,1.35,0,2,.15A32.25,32.25,0,0,1,50.78,5.76,32.76,32.76,0,0,1,63.53,24.48L64,26.39c.12.6.17,1.18.26,1.71l.21,1.47c.06.45,0,.86.08,1.23.06,1.48.1,2.26.1,2.26h0Zm-.2,0-.13-2.25c0-.36,0-.78-.09-1.22L64,28.13c-.09-.52-.16-1.09-.3-1.68l-.52-1.87a29.6,29.6,0,0,0-4.25-8.8,32.14,32.14,0,0,0-9.07-8.63A33.39,33.39,0,0,0,36.1,2.32c-.63-.1-1.34-.08-2-.12l-1,0-.52,0-.45,0a30.81,30.81,0,0,0-4,.34,31.33,31.33,0,0,0-8,2.27,32.44,32.44,0,0,0-7.39,4.51,34.15,34.15,0,0,0-6,6.57,33.44,33.44,0,0,0-4,8.14,34.55,34.55,0,0,0-1.55,9.09,34.77,34.77,0,0,0,1.19,9.14,33.93,33.93,0,0,0,3.87,8.35,32.07,32.07,0,0,0,6.08,6.72A31.53,31.53,0,0,0,19.8,61.8,30.72,30.72,0,0,0,28,63.95a31.58,31.58,0,0,0,4.14.26,19.12,19.12,0,0,0,2-.08c.66-.06,1.33,0,2-.16a34.05,34.05,0,0,0,13.81-5,32.4,32.4,0,0,0,9.06-8.66,29.55,29.55,0,0,0,4.25-8.8l.51-1.87c.14-.59.21-1.16.3-1.68l.23-1.45c.07-.45.06-.86.09-1.23l.13-2.25Z"/><path class="press-wheel-1-b" d="M36.92,42.74a2.5,2.5,0,0,0,.23.53.38.38,0,0,0,.34.08.26.26,0,0,0,0-.51,3.13,3.13,0,0,0-.58-.07c.05-.12.16-.23.15-.35a4,4,0,0,0-.13-.65c-.12,0-.27,0-.35.1a.4.4,0,0,0,0,.65A2.7,2.7,0,0,0,36.92,42.74Z"/><path class="press-wheel-1-b" d="M15.3,34.41c.3-1.07.62-2.12.89-3.18,0-.12-.12-.3-.22-.53a4.79,4.79,0,0,0-1.55,2.7C14.25,33.9,14.62,34.38,15.3,34.41Z"/><path class="press-wheel-1-b" d="M40.21,45.29c-1.72-.14-1.72-.14-2.58.4a.6.6,0,0,0,.88.48A17.57,17.57,0,0,0,40.21,45.29Z"/><path class="press-wheel-1-b" d="M39.2,48.39c.5.09.77.23.94.15a1.76,1.76,0,0,0,1.22-1.31A2.88,2.88,0,0,0,39.2,48.39Z"/><path class="press-wheel-1-b" d="M17.26,34.36c.22-.36.44-.56.45-.77a2.45,2.45,0,0,0-.22-.88s-.31,0-.34,0a2.21,2.21,0,0,0-.33.86C16.81,33.8,17,34,17.26,34.36Z"/><path class="press-wheel-1-b" d="M40,51.26c.23.51.55.36.85.24A1.65,1.65,0,0,0,42,50.42C41.29,50.75,40.53,50.75,40,51.26Z"/><path class="press-wheel-1-b" d="M47.18,18.2l-.36.18a1.84,1.84,0,0,0,.32.36s.19-.09.29-.14Z"/><path class="press-wheel-1-b" d="M46.14,20.08l-.46-.21c0,.1-.09.24,0,.3a.41.41,0,0,0,.29.17C46,20.35,46,20.21,46.14,20.08Z"/><polygon class="press-wheel-1-c" points="59.04 52.12 59.2 52.11 59.13 52.24 59.04 52.12"/><path class="press-wheel-1-c" d="M67.91,50.65l0,0Z"/><path class="press-wheel-1-c" d="M55.61,50.65l0,0Z"/><path class="press-wheel-1-c" d="M13.53,14.92h0Z"/><polygon points="8.59 36.07 8.63 36.22 8.52 36.2 8.59 36.07"/><path d="M8.44,38l0-.19L8.41,38Z"/><path d="M9.2,24.87l0,0Z"/><path d="M1.65,22.88l0,0Z"/><path d="M.12,31.67c0-.18,0-.35,0-.53l0,0c0,.16,0,.32,0,.48Z"/><path d="M13.55,33.84c.27-.32.36-.56.13-.84s-.48-.39-.64-.34a1.14,1.14,0,0,0-.67.61,10.52,10.52,0,0,0-.29,1.6c.45.06.9.12,1.37.14C13.12,34.78,13.12,34.34,13.55,33.84Z"/><path d="M15.3,34.41c-.68,0-1.05-.51-.88-1A4.79,4.79,0,0,1,16,30.7c.1.24.25.41.22.53C15.92,32.29,15.61,33.34,15.3,34.41Z"/><path d="M40.21,45.29a17.57,17.57,0,0,1-1.7.88.6.6,0,0,1-.87-.48C38.49,45.15,38.49,45.15,40.21,45.29Z"/><path d="M44.07,23.3c-1.42-.39-1.45-.44-1.29-1.83A1.66,1.66,0,0,1,44,23.32Z"/><path d="M39.2,48.39a2.87,2.87,0,0,1,2.16-1.15,1.76,1.76,0,0,1-1.22,1.31C40,48.62,39.7,48.48,39.2,48.39Z"/><path d="M17.26,34.36c-.21-.35-.44-.56-.43-.76a2.24,2.24,0,0,1,.33-.86c0-.06.33-.07.34,0a2.47,2.47,0,0,1,.22.88C17.7,33.8,17.48,34,17.26,34.36Z"/><path d="M40,51.26c.54-.51,1.29-.51,2-.84a1.65,1.65,0,0,1-1.13,1.08C40.55,51.62,40.22,51.77,40,51.26Z"/><path d="M36.92,42.74a2.42,2.42,0,0,1-.32-.22.4.4,0,0,1,0-.65c.08-.07.23-.07.35-.1a4,4,0,0,1,.13.65c0,.11-.1.23-.15.35Z"/><path d="M36.89,42.77a3.31,3.31,0,0,1,.58.07.26.26,0,0,1,0,.51.38.38,0,0,1-.34-.08,2.52,2.52,0,0,1-.23-.53Z"/><path d="M47.18,18.2l.24.4c-.1.05-.24.17-.29.14a1.8,1.8,0,0,1-.32-.36Z"/><path d="M46.14,20.08c-.1.13-.17.27-.23.27a.41.41,0,0,1-.29-.17c0-.07,0-.2,0-.3Z"/><polygon points="59.04 52.12 59.13 52.24 59.2 52.11 59.04 52.12"/><path d="M42.56,15.27,37.41,22.6l-.62-.35c0-3.32,3.37-5.17,4.11-8.57a29.15,29.15,0,0,0-3.12-1.49c-5.44-1.89-10.49-.57-15.44,1.9a20.53,20.53,0,0,0-7.88,6.75,18.31,18.31,0,0,0-1.85,4.52,1.22,1.22,0,0,0,1.16,1.7,16.32,16.32,0,0,1,8.14,2.56c2.42-6.18,9-9.94,12.74-7.14-3-.4-5.08,1.39-7.45,2.6a4.29,4.29,0,0,0-2.68,3.79c-.14,1.92-1.41,2.57-3.18,1.86-2.68-1.08-5.36-2.19-8.09-3.14-1.35-.47-1.88-1.27-1.5-2.52a16,16,0,0,1,1.9-4.68,24.77,24.77,0,0,1,9.62-8c2.5-1.18,5-2.27,7.68-2.22,3.94.07,7.86.48,11.1,3.22a1.45,1.45,0,0,1,.5,1.86Z"/><path d="M41.48,39.51a6,6,0,0,1,1.67.74C44.48,41.44,45.71,42.73,47,44c1.53,1.48,2.73,1.22,3.35-.75a53.25,53.25,0,0,0,2.19-7.31c.74-4.57.54-9.08-2.34-13.06-.67-.93-1.28-1.4-2.41-.54-1.61,1.22-3.33,2.3-5,3.46,2.08,2.08,2.56,7.36,1,9.67a17.78,17.78,0,0,1-2.8,3.4c.53-2,2.3-3.45,2-5.75-.23-2.07.32-4.36-2.46-5.27l.16-1.54c1.57-1.09,3-2,4.32-3a27.91,27.91,0,0,0,3-2.24c1.26-1.18,2.13-.72,3.17.31,2.59,2.57,3.09,5.81,3.35,9.24.35,4.62-1,8.85-2.83,12.93-.54,1.21-1.91,2.07-3,3a1.3,1.3,0,0,1-1.27-.07C45.67,44.07,42.66,42.86,41.48,39.51Z"/><path d="M9.17,24.85a9.55,9.55,0,0,1,0,1.51c-.24,1.73-.57,3.45-.78,5.19-.19,1.52-.31,3.06-.36,4.59A8,8,0,0,0,8.44,38l0,0A18.44,18.44,0,0,0,12,46.4a23,23,0,0,1,1,2.41,6.75,6.75,0,0,0,1.24,1.73c1.45,1.41,3,2.75,4.46,4.12l0,0c-3.73-.79-6-3.46-7.8-6.46a49.89,49.89,0,0,1-2.5-5.78A17.21,17.21,0,0,1,7.26,34a68.61,68.61,0,0,1,1.06-7.22,8.62,8.62,0,0,1,.87-1.94Z"/><path d="M38.27,54a18.41,18.41,0,0,1-12.67.69,19.07,19.07,0,0,1-13-12.2,4.43,4.43,0,0,1,1,.89A21.25,21.25,0,0,0,24.61,53a18,18,0,0,0,5.89,1,75.32,75.32,0,0,0,7.63-.63Z"/><path d="M55.61,50.65c.84-1.68,1.66-3.37,2.53-5a22.27,22.27,0,0,0,2.33-13.78c-.57-4-1.25-8-1.85-11.73A19.68,19.68,0,0,1,61.09,28c.51,4.4,1,8.86-.27,13.18a80.76,80.76,0,0,1-3.36,8.38c-.27.65-.78,1.21-1.11,1.84-.42.82-1,1.21-2.16.58l1.45-1.35Z"/><path d="M35.93,31.05c1.9.4,1.83,1.72,1.64,2.81-.3,1.79-3.22,3.43-5.22,3.15-2.22-.31-3.23-1.8-3.32-4s1.21-3.36,4.32-3.7c-.81.69-1.88,1.18-2.16,2a4.68,4.68,0,0,0,.22,3c.42,1.06,2.15,1.36,3.34.83C36.23,34.49,36.64,33.27,35.93,31.05Z"/><path d="M20.61,35.43c-.67.06-1.34.15-2,.26a1.11,1.11,0,0,1-.49.2c-.26,0-.52,0-.78,0a48.55,48.55,0,0,1-5.29.81,1.28,1.28,0,0,1-1.14-.45l-.16.34c-.51,1-.23,1.62.88,1.8,0,0,.3-.41,0,0l0,0h0a1,1,0,0,0,0,.32c2.84-.37,5.68-.87,8.54-1.06a3.59,3.59,0,0,0,3-1.69Z"/><path d="M14,14.95a10,10,0,0,1,1-1.08A12.56,12.56,0,0,1,16.43,13L8.82,24.06c1-3.38,2.13-6.62,4.72-9.12v0H14Z"/><path d="M36,51.34l-3.45-8.76C34.31,43,36.37,48.34,36,51.34Z"/><path d="M23.82,37.16c1.7,3.29,4,5.22,7.4,5.71C28.15,43.76,23.5,40.38,23.82,37.16Z"/><path d="M11.55,38.72l.78,2.88-.59.23c-.36-.88-.73-1.76-1-2.66a8.13,8.13,0,0,1,.88-.42Z"/><path d="M19.5,11l-.65.85-.25-.3.93-.52Z"/><path d="M19.53,11l.07-.13L19.5,11Z"/><path d="M53.23,58.18l.15-.08-.17.05Z"/><path d="M18.66,54.66h.17l-.15,0Z"/><path d="M42.54,15.3l.11.15-.08-.18Z"/><path d="M25.86,1.44h.4v0h-.42Z"/><path d="M52.44,54.6l0,0Z"/><path d="M13.54,14.95H14v0h-.45Z"/></svg>
