<svg xmlns="http://www.w3.org/2000/svg" viewBox="0 0 276.37 75.58"><defs><style>.a{fill:#fff;}.b{fill:none;stroke:#000;stroke-miterlimit:10;}</style></defs><title>handle-1</title><path class="a" d="M261.73,15.28c-4.79-1.54-9.53-3.36-14.62-4.19-10.47-1.7-20.84-4-31.26-6a44.77,44.77,0,0,0-4.7-.41,3.93,3.93,0,0,0,.37.92c-2.32-.42-4.7-.45-7-.87a1,1,0,0,1-.34-.13h0c.15-.21.29-.55.52-.89-4.52-.23-8.67-1.45-13.24-.78l.13.06h-.12c-3-.31-5.93-.4-8.91-.43h0a2.61,2.61,0,0,0,.76-.92c-8.24-.11-16.2-1.24-24.21-.42h-2.7a2.2,2.2,0,0,0,.61-1c-1.31,0-2.4,0-3.48,0-15.41.2-30.83.22-46.23.68-8.4.25-16.77,1.25-25.16,1.87-3.85.29-7.77,1-11.55.59a25.56,25.56,0,0,0-9.4,1,20.21,20.21,0,0,1-2.27.41c-5.36.72-10.73,1.34-16.07,2.16-5,.77-10,1.81-15,2.61-7.59,1.21-15,3.1-21.62,7.07C2.23,19-.94,21.95.38,27.31a8,8,0,0,1,.09,2.32A11.07,11.07,0,0,0,4.21,38.5a19.08,19.08,0,0,0,9.19,5c3.08.74,6.57.62,8.91,3.44.29.35,1,.37,1.56.44q16,2,31.95,4.06A104.94,104.94,0,0,1,84,58.67a49.83,49.83,0,0,0,9.2,2.69c5.49,1.16,11,2.05,16.87,3.11-.11,3.74-1,7.56,1.38,10.73,7.59-4.25,15.81-4.91,24-5.6a1,1,0,0,1,.15-.37.92.92,0,0,1,.8-.4,28.92,28.92,0,0,1,4.45.27c.38.06.77.12,1.15.21a.88.88,0,0,1,.72.77,49.26,49.26,0,0,1,4.91.66c2.65.53,5.23,1.44,7.87,2.19,1.1-1,.85-2.63,1.28-4A1,1,0,0,1,157,67.1l1.69-.42,1-.26,2.61-.65a1,1,0,0,1,1.23.77c3.34-.44,6.69-.88,10-1.44,9.49-1.61,19-3.26,28.42-5,5.92-1.12,12.06-1.5,17.3-5.1,1.51-1,3.6-1.28,5.07-2.35a15.09,15.09,0,0,1,8-3.35c5.26-.42,10.46-1.68,15.69-2.52A86.71,86.71,0,0,0,270.83,40a7.7,7.7,0,0,0,2.72-1.83c4.43-5.36,2.83-12.77-1.38-17.25C269.39,17.95,265.38,16.46,261.73,15.28ZM202.95,4.88h0Zm.55,0h0Zm-1.22,0h0ZM197,4.33h0Zm1,.15h0Zm1,.13h0Zm.93.11h0Zm.89.09h0Zm.84.06h0ZM211.82,6l0,0ZM175.48,29.41c6.52.24,13,.35,19.54.78,3.5.24,7,1.07,10.46,1.59,2.14.32,4.3.54,6.68.83-1,2.75-2.4,4.23-4.9,4.94a61,61,0,0,1-13.6,2.62c-4.17.22-8.3,1.13-12.48,1.51-7.27.66-14.54,1.42-21.83,1.65-7.5.23-15-.13-22.53-.23-1,0-2,0-3.67,0l1.65-15c1.92,0,3.44,0,5,0Q157.62,28.73,175.48,29.41ZM86.12,40.32A35.23,35.23,0,0,0,74.9,37.77a52,52,0,0,0-6.55.16,6.18,6.18,0,0,1-1.63.15c-4.37-1.14-8.72-2.34-13.07-3.55-.13,0-.19-.36-.44-.86,3.19-.52,6.27-1.06,9.38-1.52,4.56-.67,9.13-1.32,13.7-1.9,2.93-.37,5.92-.39,8.8-1C91.74,28,98.45,28.07,105.16,28h1.46a48.62,48.62,0,0,1,.32,14.68,14.71,14.71,0,0,1-3.59.35C97.6,42.17,91.58,42.72,86.12,40.32ZM212,6.09l0,0Zm-.31-.27,0,0ZM204,4.7l0,0Zm-9.8-.91h0Zm1.81.37h0ZM195.11,4h0ZM180,2.71l-.3,0Zm.27,0-.18,0ZM154.6,1.47h0Zm.14,0h0Z"/><path d="M123.74,27.12c-.46.26-.9.7-1.39.75-2.21.2-4.44.29-7,.44.88-.87,3,.24,2.23-1.84l.89-.08c-.62-.75-.76-.76-3-.35.37.11.56.19.77.23s.46,0,.69.07c-.1.68-.1.68-2.33.78,0-.19,0-.36.06-.54s0-.3,0-.54h-1.84l-.06.2,1,.59c-1.46,1.27-3.69-.41-4.95,1.15l.07.36h2.47c-1.62,1.48-.71,3.38-1.41,5V29.1l-.31,0a10.07,10.07,0,0,0-.3,1.89c.12,3.45.57,6.92.35,10.35-.17,2.73.77,5.18,1.07,7.77a10.24,10.24,0,0,0,.92,2.4l.25-.36a18.25,18.25,0,0,1,2.16.34c1.3.36,2.58.81,4,1.26v1L111.12,52c.17.27.28.47.41.64a4,4,0,0,1,.48.55c.88,1.73,1.66,3.52,2.62,5.2.53.93,1.55,1.54,1.81,2.72.06.28.93.69,1.1.58,1.24-.84,2.28.07,3.07.55,1.92,1.18,3.86.87,5.8.54s3.66-1,5.48-1.47c.77-.21.66-.77.58-1.34a3.43,3.43,0,0,1,.06-.69l1.14.21c.71-2,1.67-4,1.34-6.31,0-.31.3-.69.46-1,.34.27.89.48,1,.82.61,2-.73,5.94-2.43,7.18l.66.57a11.61,11.61,0,0,1-1.35,2.67,3.27,3.27,0,0,1-2.09.91c-2.35.14-4.71.12-7.06.15l-3.23,0c-1,0-2,.19-2.7-.85-.13-.19-.48-.26-.74-.35-.76-.24-1.48-.42-1.76-1.38-.09-.32-.45-1.25-1.25-.55-.31-.49-.66-1-.92-1.47-.49-1-.94-2-1.41-3l-.4.09c0,2,0,4,0,6,0,1.5.19,3,.27,4.5,0,.6-.64,1-.42,1.74.3,1.07.6,1.54,1.64,1.18a10.17,10.17,0,0,1,4-.07,3.4,3.4,0,0,0,2.38-.71c.54-.4,1.59-.14,2.41-.16.23,0,.47.06.7,0q2.71-.22,5.41-.47a5.93,5.93,0,0,0,.68-.21,3,3,0,0,1,1.28-.22c2.34.66,4.75-.2,7.09.43a5.38,5.38,0,0,0,1.51,0c-1.22,1-2.74.56-4.11.73s-2.9-.11-4.3.09c-3.65.52-7.29,1.15-10.91,1.83a14.15,14.15,0,0,0-2.65,1.07c-.18.07-.38.25-.53.21-2-.53-2.94.94-4,2.12-.45.49-.83.56-1.1,0a12.65,12.65,0,0,1-.61-2c0-.15,0-.33,0-.47-1.07-2.25-.45-4.58-.37-6.89,0-.63.15-1.25-.56-1.68-.28-.17-.35-.67-.49-1l-.2.93c-2.92-.52-5.79-1-8.65-1.53-3.85-.72-7.74-1.3-11.53-2.28-2.65-.69-5.12-2-7.7-2.93-2.06-.76-4.17-1.41-6.25-2.14a20.35,20.35,0,0,0-2.25-.94c-2.89-.63-5.78-1.24-8.7-1.73-4.28-.71-8.58-1.35-12.88-1.94-3.74-.51-7.5-.91-11.24-1.38-5.63-.72-11.25-1.46-16.88-2.19a2.08,2.08,0,0,1-.7-.14,6,6,0,0,1-.8-.59l.94-.67c-2.05-.59-4-1.2-5.94-1.71-2.12-.55-4.27-1-6.39-1.52a7.27,7.27,0,0,1-1.76-1,17.89,17.89,0,0,1-6.87-6.92c-.84-1.61-.71-3.33-.79-5a21.17,21.17,0,0,0-.26-3.29c-.53-2.56-.13-4.73,2-6.43.77-.61,1.31-1.5,2.07-2.14a16.58,16.58,0,0,1,2.28-1.35,63.81,63.81,0,0,1,9.67-4.19c2.32-.61,4.63-1.31,7-1.79S28,9.61,30.32,9.18c1.63-.3,3.21-.86,4.84-1.12,1.93-.31,3.9-.35,5.84-.63a17.57,17.57,0,0,0,2.73-.88,5.52,5.52,0,0,0,3.58-.3,13.57,13.57,0,0,1,2.19-.13c1.74-.3,3.46-.74,5.2-1,.72-.12,1.64.32,2.2,0,1.28-.7,2.65-.24,3.93-.62.58-.18,1.19-.26,1.88-.41l-.18-.66a2.06,2.06,0,0,0,3,.59h-2l0-.39A29.59,29.59,0,0,1,68,3c.84,0,1.83.55,2.63.56a25.27,25.27,0,0,0,4.7-.78,3,3,0,0,1,.76-.1,18.36,18.36,0,0,0,2.27.23c2.18-.09,4.37-.25,6.55-.43,1.34-.11,2.66-.34,4-.45.74-.06,1.48,0,2.23,0,0,.11,0,.23,0,.34-1.82.2-3.65.38-5.47.59-2.82.32-5.63.68-8.45,1C76,4,74.74,4,73.5,4.1c-2.14.22-4.27.55-6.41.78-2.85.31-5.71.54-8.56.88-1.28.15-2.53.49-3.8.71s-2.74.45-4.11.65c-3.34.48-6.7.9-10,1.43-1.15.18-2.25.63-3.39.9a3.24,3.24,0,0,1-1.7.16c-1.17-.43-1.95.62-3,.6a8.86,8.86,0,0,0-2.17.67,3.5,3.5,0,0,1-1-.09L26,11.61a3.16,3.16,0,0,1-2.56.3,3.2,3.2,0,0,0-1.66.22,15.21,15.21,0,0,0-1.57.77c-.76.34-1.53.64-2.29,1-2.67,1.25-5.36,2.46-8,3.78a44.35,44.35,0,0,0-5.4,3.07A6.86,6.86,0,0,0,1.73,26.1a27.24,27.24,0,0,0,0,5.62,5.8,5.8,0,0,0,1.53,3C5.07,36.58,7,38.25,8.94,40c.08.07.29,0,.54,0-.34-.85-.7-1.63-1-2.43-.44-1.42.53-2.66,1.55-3.51,1.67-1.4,3.91-1.28,5.59-2.56.54-.41,1.48-.26,2.23-.41a16.06,16.06,0,0,0,1.8-.52c1.15-.39,2.27-.86,3.43-1.19,1-.27,1.92-1,2.79-.44,1.11-.33,2.05-.65,3-.88a31.78,31.78,0,0,1,4.61-1c1.93-.17,3.55-1.42,5.56-1.35.94,0,1.9-.61,2.87-.84a5.2,5.2,0,0,1,1.48.1c-.14.31-.17.49-.23.5-1.88.39-3.78.69-5.64,1.17-1.42.36-2.75,1-4.17,1.4s-3,.53-4.48.85c-.41.09-.73.51-1.14.66-1.2.43-2.42.79-3.63,1.2a56.19,56.19,0,0,0-11.63,5,2.08,2.08,0,0,0-.5,3.11,13.14,13.14,0,0,0,2.27,2.42,9.71,9.71,0,0,0,3,1.07c3.94,1,7.87,2,11.83,2.91,2.38.55,4.79,1,7.21,1.38,2.11.33,4.3.91,6.37.65,1.89-.24,3.29,1.51,5.23.42-.14,1.44.58,1.49,1.47,1.61,3.27.46,6.53,1,9.8,1.55,1.13.18,2.27.4,3.41.48.4,0,.81-.35,1.23-.49a4.74,4.74,0,0,1,.89-.13l1.47-.18c-.88-1.45-1.67-2.68-2.37-4a2.51,2.51,0,0,1-.18-1.31c.06-.79-.22-1.11-1.17-1,1.35-1.67,2.21-3.7,4.28-5a4.39,4.39,0,0,0-1.1-.45A59.86,59.86,0,0,1,50.62,35.6a16.78,16.78,0,0,1-2.27-1.35,5.67,5.67,0,0,0-1.24-.34c-.23,1-1,.86-1.86.79-.32,0-.65.21-1,.31-.14,0-.31,0-.42.07a2.44,2.44,0,0,0-.4.43l0,0c-1.45-.25-1.63-.09-1.59,1.3A7.67,7.67,0,0,1,41.69,38l-.54-2.58c-1.93.58-2.51,1.6-2.1,3.31.06.24-.84.72-1.5,1.26l8.08,2.16,1.13-4.17.46.1-.72,4.1,1.63,1.06.36-1.69c.35.56.83,1.55,1,1.51,1-.33,1.46.56,2.15.86.26.12.41.49.6.75a2.57,2.57,0,0,1-.95.19c-4.32-.86-8.65-1.7-12.95-2.67a62,62,0,0,1-6-1.81,5.16,5.16,0,0,1-1.71-1,1.09,1.09,0,0,1,.15-1,4.58,4.58,0,0,0,1.89-2.51,1.23,1.23,0,0,1,.75-.63c2.22-.61,4.37-1.56,6.7-1.67,1.31-.06,2.35-.87,3.64-1,3.34-.28,6.66-.67,10-1,2-.19,4.08-.29,6.1-.53a56.41,56.41,0,0,0,7.26-1.08,10,10,0,0,1,3.77-.65c.24,0,.58-.67,1.06-1.27L73.88,29l-.14-1.42a6.53,6.53,0,0,1,1.82,0,1.57,1.57,0,0,1,.91,1,5.7,5.7,0,0,1-.21,1.77l-3.94-.35.91.41,0,.3c-.41,0-.93.08-1.2-.14-1-.75-1.24-.73-1.89.28a3.91,3.91,0,0,1-.86.73L69,31.36l.44-.92-.33-.18-.71,1.32-1.95-.19a.58.58,0,0,1-.37.32c-1.16.15-2.35.17-3.51.33-3,.41-5.91.87-8.85,1.32a5.08,5.08,0,0,0-1.74.61c5,2.24,10.47,3.1,15.78,4.42-1.09,2.2-2.32,4-2.3,6.22a5.7,5.7,0,0,0,1.21,3.15A17.7,17.7,0,0,0,75,53.64c2.43.86,4.78,2,7.18,2.92,1.83.72,3.79,1.17,5.52,2.07,2.1,1.08,4.31,1,6.51,1.25,1.68.21,3.34.61,5.06.94L99.6,60l1.34.26c-.18,1.08.4,1.25,1.32,1.26,2.3,0,4.61.13,6.91.23.75,0,1-.31,1-1a15.72,15.72,0,0,1,0-1.92,14.94,14.94,0,0,1,.43-1.9,2.34,2.34,0,0,0,.17-.57c-.05-1.23-.11-2.46-.22-3.69,0-.24-.28-.47-.4-.65a5.77,5.77,0,0,1-1.41.33c-2.13-.06-4.39.31-6.33-.56s-3.83-.85-5.7-1.41a24.55,24.55,0,0,1-8.36-4.51c-1-.83-1.7-2.13-2.76-2.93a11.51,11.51,0,0,0-3.21-1.4c-.56-.2-1.2-.13-1.26-1,0-.15-.47-.34-.74-.39-2.23-.4-4.46-.8-6.69-1.13-1-.15-2-.12-2.95-.25-.27,0-.5-.35-.86-.61,1.84-1.06,3.51-.51,5.13-.36,2.09.19,4.18.51,6.25.89a6.82,6.82,0,0,1,2.88,1c1.39,1.06,3.15.77,4.55,1.53,1.78,1,3.67.8,5.56.89a3.75,3.75,0,0,1,1.11.47,2.8,2.8,0,0,1,1.09-.29c2.08.25,4.15.67,6.23.85a18.49,18.49,0,0,0,4-.23c.75-.1,1-2,.4-2.75-.09-.12-.17-.25.07-.37a5.07,5.07,0,0,0,.36-1.35c0-2.32-.13-4.63-.22-6.95,0-1.1-.11-2.21-.25-3.3a4,4,0,0,0-.55-1.1l.62-.69a4.19,4.19,0,0,0-.78-.13c-1,0-1.91.16-2.86.15-.31,0-.62-.32-.93-.49v0a16.37,16.37,0,0,1,2.06-.39c2-.13,3.93-.18,5.9-.29,2.21-.12,4.41-.29,6.61-.4,1.27-.06,2.55,0,3.81-.1.81-.08,1.33-.08,1.34.93,0,.26.28.52.45.81l-.73.85Zm-30.52,20c.45.39.81.75,1.22,1.06s1,.73,1.55,1.08c.26.17.56.28.83.44,1.59,1,3.64-.53,5.15.92.07-.09.15-.27.21-.27,1,.08,1.92.2,2.88.27,1.5.12,3,.21,4.65.32a10.38,10.38,0,0,1-.28-1.28c-.07-1.13-1.05-1.95-.91-3.24.06-.54-1-1.61-1.64-1.76-2.09-.46-4.25-.59-6.38-.84-1-.12-2-.27-2.94-.31-.51,0-1,.3-1.53.23-1.83-.24-3.66-.57-5.49-.85a2.12,2.12,0,0,0-.6.09,15.41,15.41,0,0,0,2.22,1.77c.68.52,1.26,1.16,1.94,1.8ZM11.08,34.86c1.24.56,2.89-.24,3.63-1.77Zm25.76,2.38-.34-.31L35.37,38l1,1ZM10.59,35.52l-.41.06L9.86,37l1.53.48Z"/><path d="M154.58,67.21c-.34-.8-.69-1.6-1-2.4a.48.48,0,0,0-.24-.26l-4.76-1.47a6.73,6.73,0,0,1-1.56-.61,8,8,0,0,1,5.9,1.41l.27-.35c-.28-.84-.57-1.67-.84-2.51a2.3,2.3,0,0,1-.19-.81c.14-2,.24-4,.5-5.92.19-1.4.12-1.48-1.33-1.25a6.42,6.42,0,0,1-2-.27,28,28,0,0,0-3.4-.6c-2.77-.13-5.55-.11-8.33-.2a2.75,2.75,0,0,1-1-.49c-.79-.43-1.58-.86-2.36-1.31a3.32,3.32,0,0,1-1.55-3.42,1.26,1.26,0,0,0,0-.47c-.38-1-.78-2.08-1.31-3.48-.08,1.91-.11,3.56-.23,5.19a15.22,15.22,0,0,1-.45,2.09L130,50c0-.82,0-1.64,0-2.45.08-1.6.29-3.2.29-4.8a8.86,8.86,0,0,1,1.16-4.43,2.1,2.1,0,0,0,.11-.67c.35-2.15.68-4.29,1-6.44.18-1.08.43-2.14.68-3.39-1-.07-2-.19-3-.19a41.37,41.37,0,0,0-4.3.19c-1,.11-1.29-.68-1.82-1.19h1.36l-.09-1.73a21,21,0,0,1,3-.31c1.23,0,2.46.32,3.69.43.28,0,.58-.24.88-.29a2.2,2.2,0,0,1,1.24.11c-1.91,1.05-4.08.18-6.05.89H130v1.49c.47-.3.91-.42,1-.66.24-.63.47-.67,1.15-.53a13,13,0,0,0,2.73-.09c1.12,0,2.24,0,3.44,0l.14,1c.15,0,.29,0,.3,0a5.09,5.09,0,0,0,.31-1.21c0-.11-.41-.35-.64-.36-.91,0-1.82.06-2.73,0a3.18,3.18,0,0,1-.92-.32,2.59,2.59,0,0,1,.79-.28c1.08,0,2.17.06,3.25.08a1.22,1.22,0,0,0,.46-.09,2.8,2.8,0,0,1,2.85,0c.17.12.51,0,.87.23a3.91,3.91,0,0,1-.87.27c-.51,0-1,0-1.53,0-.77,0-1.21.36-1.13,1.17l3-.61.23.8c1.22-.24,2.4-.56,3.59-.66.69-.06.9.55.77,1.91-1.08-.16-2.16-.35-3.24-.45-.35,0-.73.21-1.09.21-2,0-4-.06-5.95-.17-1.21-.06-1.67.31-1.85,1.48-.3,1.92-.77,3.82-1,5.75-.22,1.77-.21,3.57-.34,5.36,0,.67-.27,1.32-.28,2,0,1,.06,2.06.1,3.09h.43a3,3,0,0,0,.18-.71c0-1.28.17-1.44,1.41-1.38,1.51.08,3,.11,4.53.25a21.72,21.72,0,0,0,2.3.49c1.65,0,3.29-.3,4.94-.39s3.06-.12,4.59-.07a24.82,24.82,0,0,1,2.45.42,6,6,0,0,0,1.19,0l4.4-.32c.58,0,1.16-.14,1.74-.19,1.69-.12,3.38-.2,5.06-.36,2.91-.27,5.82-.6,8.73-.87,1.11-.1,2.22-.11,3.34-.15,2-.06,4.06-.06,6.08-.19a19.39,19.39,0,0,0,2.55-.54,9.86,9.86,0,0,1,3.44-.54c.61.11.79-.26,1.17-.25a10.63,10.63,0,0,1,1.47.26c.23-.38.6-1.13,1.45-.14.1.12.82-.27,1.3-.44.29.85.78.73,1.44-.35-.07.77-.11,1.19-.15,1.55-.81.09-1.55.13-2.28.25-3,.48-5.9,1-8.85,1.46a56.6,56.6,0,0,1-7,1c-2.61.08-5.19.38-7.78.53-4.28.24-8.57.17-12.85.27a23.2,23.2,0,0,1-2.45.32,17.81,17.81,0,0,0-4.52.47,1.84,1.84,0,0,1-.45,0l-2.22-.2c-.88-.07-1.75-.17-2.63-.19-1.67-.05-3.35-.1-5-.07-.39,0-.76.38-1.17.46-1,.19-2,.33-3,.44-.34,0-.71-.18-1.05-.14-.69.09-1.37.28-2.06.43a9.55,9.55,0,0,0,.56,2.13c.79,1.52,2,1.85,3.69,1.76a36.91,36.91,0,0,1,4.94.35,21.46,21.46,0,0,0,3.64.29,8.74,8.74,0,0,1,5.45.84,2.22,2.22,0,0,0,2.27.16c2-1.08,4.33-.88,6.47-1.46a16.3,16.3,0,0,1,2.29-.6c1.84-.22,3.69-.33,5.53-.49,2.35-.2,4.7-.43,7.05-.6,1.75-.12,3.5-.11,5.24-.26a17,17,0,0,0,2.5-.61,7.8,7.8,0,0,1-5,1.54c-1.54,0-3.07.27-4.6.42-2.39.24-4.77.61-7.16.7a38.12,38.12,0,0,0-11.42,2.18,9.6,9.6,0,0,0-1.47.78,14.22,14.22,0,0,1-.3,3c-.7,2.18.1,4.16.53,6.21a3.6,3.6,0,0,1,.25,1.12,2.26,2.26,0,0,0,1.6,2.68l.16-.64c.08,0,.18,0,.22.08a2.32,2.32,0,0,0,2.13.81c.26,0,.53.19.79.29v0c-.66.39-1.29,1.1-2.22,0-.34,2-.6,3.78-1,5.53-.08.38-.52.69-.67.87a44.77,44.77,0,0,0-6.11-2.29c-1.86-.41-3.83-.44-5.74-.7,0-.12,0-.24,0-.36l-1,.53c0-.11,0-.22,0-.32-.92-.06-1.85,0-2.76-.19a3.9,3.9,0,0,1-1.17-.66,51.78,51.78,0,0,1,15.9,1.57c.25-1.27,1.15-2.39-.06-3.5Z"/><path d="M208.57,41.29c.34-.69.75-1.3.27-2.17-.16-.28.24-1,.52-1.39.79-1.19,1.7-2.31,2.46-3.52.91-1.46.7-1.86-1-2s-3.58-.31-5.36-.52a16.85,16.85,0,0,1-1.81-.47c-.16,0-.35.06-.53,0-.48,0-1.23.08-1.37-.16-.37-.63-.79-.47-1.31-.43a5.53,5.53,0,0,1-1.79-.09c-2.87-.76-5.82-.51-8.73-.67-.61,0-1.22-.18-1.82-.22-1.78-.13-3.57-.23-5.35-.34l-.07-.46c.23-.13.46-.38.69-.38q3.37,0,6.73.14a6.31,6.31,0,0,1,1.17.23,7.26,7.26,0,0,0,1.22.29c2.08.11,4.17.16,6.25.26s3.88.22,5.81.36c1,.08,2,.26,3,.34.33,0,.67-.17,1-.15q1.69.14,3.37.38a3,3,0,0,1,.81.37l1.53.76.15-.36-1-.31,0-.26a5.4,5.4,0,0,1,1.23-.21c.86.05,1.71.21,2.56.31s1.7-.13,1.45,1.35c1.23-1.74,2.73-.7,4-.64a38.29,38.29,0,0,1,5.58.89c3,.6,6,1.32,9,1.91,3.28.65,6.59,1.18,9.88,1.81a7.64,7.64,0,0,1,2.1.77,1.54,1.54,0,0,1,.8,2c-.63.38-1.1.66-1.56,1-1.25.81-2.48,1.67-3.75,2.45-.64.39-1.18.31-1.16-.73l-8.05,3.06c.92-2.83,3.43-3,5.52-3.74,1.13-.43,2.4-.57,2.79-2.06.29-1.13.17-1.56-.94-1.78-2.4-.47-4.81-.88-7.06-1.29-.67,1.86-1.27,3.62-1.93,5.36-.55,1.45-1.13,2.9-1.75,4.31-.34.77-.33,1.85-1.6,1.9-.23,0-.55.4-.64.68-.7,2.17-3,2.56-4.38,3.92a12.74,12.74,0,0,1-5,2.59A39.24,39.24,0,0,0,215.18,57c-.83.43-1.9.06-2.62,1.06-.07-.44-.1-.65-.13-.84l-1.09,1.56c-.32-2.07.3-2.68,1.86-2.9a22.8,22.8,0,0,0,4.16-1.16,22.21,22.21,0,0,0,8.78-5.92,8.16,8.16,0,0,1,1-.76l.28.81c.46-1.77,1.53-3,2.59-2.91.82-1.6,1.77-3.15,2.43-4.81s1.08-3.55,1.67-5.55l-2.61-.4c-4-.61-8-1.22-12-1.82-1.61-.24-3.24-.41-4.85-.67-1-.17-1.55.21-1.77,1.24a13.52,13.52,0,0,1-4.33,7.4Zm15.37-8.91-3.68-.61c1.28,1.09,2.75,1.28,3.69.59.21.24.39.66.63.69,1.1.14,2.21.17,3.32.23l0-.32Z"/><path d="M16.83,17.91l-6.11,3.43c.08,1.58.17,2.74.2,3.9,0,1.53,0,3.06,0,4.7,2-1.06,2-1.05,1.85-2.93-.08-1-.11-1.91-.1-2.87,0-.24.27-.47.42-.7.2.2.56.39.58.61.13,1.07.14,2.14.24,3.21,0,.32.16.84.35.9a1.89,1.89,0,0,0,1.08-.21c1.35-.53,1.67-1.36,1.13-2.79A15,15,0,0,1,16,21.71c.94.32,1.37,2.36,1.19,5l1.19.26c0-.88.78-.93,1.43-1a4.44,4.44,0,0,0,2.58-1.06l-1.76-.43c1.61-1.1,1.63-1.1,1.16-3-.18-.73-.35-1.41.77-1.93.2,1.94.39,3.78.58,5.6a11,11,0,0,0,1.67-.47,10.07,10.07,0,0,0,1.42-.92v.79c.1,0,.2,0,.23,0a2.42,2.42,0,0,1,2.22-1.06,12.6,12.6,0,0,0,2.86-.74c1.54-.34,3.1-.58,4.64-.9.81-.17,1.59-.43,2.65-.73l2.49-.21,0,.42c-2.23.58-4.48,1.08-6.68,1.76s-4.68.49-6.55,2.39a1.6,1.6,0,0,0-2.15.6,1.38,1.38,0,0,1-.83.41c-1,.13-2,.1-3,.3a8.08,8.08,0,0,0-1.79.87c-1.2-1.1-2,.4-3.08.6a11.88,11.88,0,0,0-2.46,1.25c-2.84,1.34-5.7,2.64-8,5-.15-1.36,0-1.53,1.58-2.68-1.55-.41-1.22-1.73-1.51-2.76a1.26,1.26,0,0,1,0-.93c1-1.29.61-2.78.7-4.2a5.1,5.1,0,0,1,.3-1c.28.18.62.3.62.4,0,1,.5,1.87.24,3a10.59,10.59,0,0,0,.16,3.54c0,.21.47.45.75.52.11,0,.46-.4.46-.61,0-2.33,0-4.65-.09-7A2.6,2.6,0,0,0,9.82,22l-1.67.5c.25-.59.3-1,.49-1.11C11.48,20.48,13.74,18.19,16.83,17.91Z"/><path d="M200.75,19.66l-.55,1.13c.89.37,1.65.64,2-.77.89,1.11,1.85,1.75,3.25.88l-2.06-.52c0-.1,0-.2,0-.3a6.55,6.55,0,0,1,1.8.14c.72.26,1.33.81,2,1.12a19.77,19.77,0,0,0,2.3.67l-.37-1a12.28,12.28,0,0,1,2.3-.14,10.38,10.38,0,0,1,1.81.68,2.83,2.83,0,0,0,.82,0l.24,0c-.16.64,1.69,0,.47,1.39h3.26c.21.65.16,1-.88.84-5.64-.84-11.28-1.69-16.94-2.38-4.35-.54-8.73-.8-13.09-1.3-1.65-.19-3.3-.28-5-.44a4.27,4.27,0,0,1-1-.36c0-.14,0-.28,0-.41.54-.13,1.12-.47,1.61-.36,2.07.46,4.16,0,6.19.17,1.15.11,2.34.05,3.49.25s2.53.33,3.78.55a5.31,5.31,0,0,1,1.22.57Z"/><path d="M229.92,48.44c1.1-.25,2.2-.54,3.31-.75a19.11,19.11,0,0,0,3.31-.51c1.33-.5,2.84.17,4.06-.75.14-.1.39-.06.58-.08l4.57-.55c1.6-.18,3.21-.27,4.78-.56s3-.79,4.53-1.17a17.36,17.36,0,0,0,3.46-.87c1.72-.86,3.86-.57,5.34-2.15A6.31,6.31,0,0,1,266.1,40a.69.69,0,0,1,.64.11,1,1,0,0,1,.07.78,2.69,2.69,0,0,1-2.3,1.61,13.74,13.74,0,0,0-2.11.51c-1.45.46-2.86,1-4.32,1.44-1.69.5-3.39,1-5.11,1.31-2.42.47-4.87.77-7.3,1.2-.79.14-1.54.52-2.34.64-2.39.34-4.8.6-7.2.91-1.15.15-2.3.42-3.46.51a23.33,23.33,0,0,1-2.74-.09C229.93,48.75,229.93,48.6,229.92,48.44Z"/><path d="M186.81,58a6,6,0,0,1,1.8-.65c2,0,3.7-1,5.55-1.41,1.18-.29,2.37-.57,3.55-.85,2.22-.51,4.47-.95,6.66-1.55a34.78,34.78,0,0,0,4.35-1.61c2.33-1,4.63-2.09,7-3.09.28-.12.69.08,1,.13-.19.34-.3.85-.59,1-2.68,1.21-5.34,2.48-8.1,3.49-2.6,1-5.29,1.71-8,2.4-1.78.46-3.63.65-5.44,1-2.14.44-4.27.94-6.41,1.4-.41.09-.84.13-1.26.19Z"/><path d="M241.91,27.45c.28-.32.61-.66.95.13a1.9,1.9,0,0,0,2,.75,10.55,10.55,0,0,1,1.49-.4l.09.39-.77.08-.07.21,4.08,1.08-.05.23c-2.86-.6-5.72-1.16-8.57-1.8a196.72,196.72,0,0,0-20.34-3.82c-.44,0-.86-.19-1.3-.22-1.09-.08-1.23-.66-.82-1.63,1,.78,2.07,1.34,3.26-.34l-.17,1.42c2.24.34,4.49.66,6.73,1,1.4.24,2.79.57,4.19.84,2.69.52,5.39,1,8.08,1.55A6.78,6.78,0,0,1,241.91,27.45Z"/><path d="M165.3,26.7c.87-.08,1.36,2,2.54.39l.81,1,.29-1c.33.09.74.1,1,.3s.53.7.45,1a1.13,1.13,0,0,1-.88.62c-2.27-.11-4.53-.34-6.8-.44-1.19,0-2.38.16-3.57.16a12,12,0,0,1-2.59-.24c-.29-.06-.49-.57-.65-1.17l1.56.13,0-.78a2.49,2.49,0,0,1,.37.27c1,1.15,1.78,1.17,2.84.15.18-.18.53-.18.8-.26,0,.26.08.53.14.85h1.07l-.43-.92,2,.89C165,27.94,165.36,27.66,165.3,26.7Z"/><path d="M85.63,27.65l3.51.94a3.7,3.7,0,0,1-3.7.19c-.29.23-.55.6-.85.65-1.61.24-3.23.44-4.85.56-.43,0-.89-.35-1.34-.36a7.62,7.62,0,0,0-1.6.31V28.09h0l2.36.51c.09-.62,0-1.18.23-1.32a3.14,3.14,0,0,1,3.3.38c-.73.06-1.32.13-1.9.16-.92,0-.88.45-.41,1.16l.53-.59c1.11.66,4,.22,4.79-.75Z"/><path d="M160.46,17.5c1.45.11,2.83-.6,4.39.07.95.41,2.22,0,3.35.09,1.62.1,3.23.3,4.85.45.22,0,.45,0,.67,0,2.13.14,4.27.27,6.39.47.29,0,.54.48.8.73a3.7,3.7,0,0,1-1,.22c-2.21-.17-4.42-.38-6.63-.59-3.22-.31-6.44-.64-9.67-.92-.71-.06-1.43.08-2.15.05a4.61,4.61,0,0,1-1-.27Z"/><path d="M80.56,42.24a4.5,4.5,0,0,1,1,.49c1.73,1.44,3.44,2.9,5.15,4.37a6,6,0,0,1,.63.73l3,2.1c-3.05-.57-8.56-4.72-10-7.32Z"/><path d="M137.31,16.72c-1,0-2,0-3,0s-1.7-.4-2.64-.19a16.44,16.44,0,0,1-3.12.17c-1,0-2,0-3.14,0,0-.43,0-.76-.05-1,.18-.09.25-.16.31-.16,1.05,0,2.1.06,3.15.11,2,.1,3.94.24,5.92.33.47,0,.95-.14,1.41-.09a8.55,8.55,0,0,1,1.42.4Z"/><path d="M109.5,54.37c-.83,1.39-1.7,1.71-3.32,1.3s-3.21-.87-4.8-1.35a3.11,3.11,0,0,1-.81-.58l.14-.28Z"/><path d="M113.81,15.89c.11-.85.85-.75,1.41-.73,1.8.1,3.6.33,5.4.4a14.22,14.22,0,0,0,2.4-.3l.18.38c-.81.45-1.6.94-2.44,1.32-.1,0-.45-.47-.76-.8-.48.11-.67,1.87-1.74.42l.77-.28,0-.17-2.26-.19-.06.18,1.39.92c-1.12,0-1.9.18-2.48-.81C115.4,15.9,114.49,16,113.81,15.89Z"/><path d="M159.36,66.77c.16-1,1.11-.78,1.68-1a10.58,10.58,0,0,1,2.65-.26,3.33,3.33,0,0,1,2.9-.79c.24,0,.55.41.63.69s-.29.59-.5.62c-2.33.36-4.67.67-7,1-.1,0-.23-.17-.34-.26Z"/><path d="M85.5,56.26l.49-1c1.41,1,3.41.17,4.58,1.63l1.58-.14.54,1.81Z"/><path d="M195.09,45.33c-.1.19-.18.52-.32.56-2.17.55-4.34,1.09-6.53,1.56-.35.08-.77-.16-1.15-.26v-.34c2.05-.51,4.1-1,6.17-1.49a8.65,8.65,0,0,1,1.85,0Z"/><path d="M104.6,17.25c-.32.24-.62.67-1,.7-1.53.17-3.07.22-4.6.32a4.16,4.16,0,0,1-1.72-.12c2.16-1.33,4.72-.46,7-1.19Z"/><path d="M155,26.57c-.12.46-.11,1.07-.41,1.4-.56.63-1.37.33-2.09.21a14,14,0,0,0-1.82-.36c-.46,0-1,.13-.88-.54,0-.22.52-.47.83-.52a9.75,9.75,0,0,1,1.6,0c0,.31,0,1,1,.39A8.65,8.65,0,0,1,155,26.57Z"/><path d="M164.18,61.17c-2.34.31-4.6,1.33-7.05.75C159.36,60.7,161.78,61.06,164.18,61.17Z"/><path d="M181.73,28.51c-.29.43-.43.8-.56.79-.81,0-1.61-.2-2.42-.25s-1.89,0-2.82-.08c-.21,0-.41-.25-.61-.39.18-.18.34-.48.55-.52a4.62,4.62,0,0,1,1.27,0c.19,0,.36.19.55.21C178.92,28.35,180.16,28.41,181.73,28.51Z"/><path d="M102.52,25.88c-.58.73-1.4.53-2.17.59-1.9.14-3.8.35-5.7.48-.25,0-.51-.23-.77-.35v0a31.48,31.48,0,0,1,8.65-.73Z"/><path d="M75.5,19.79l6.77-.94c-.16.81-.16.77-1.28.89-1.49.16-3,.39-4.46.55a3.74,3.74,0,0,1-1-.15Z"/><path d="M152.45,17.36a3.83,3.83,0,0,1,1.28-.47c1.63,0,3.27.17,4.9.31.18,0,.34.26.8.62a14.56,14.56,0,0,1-1.49.11c-1.5-.07-3-.15-4.51-.26a4.16,4.16,0,0,1-1-.33Z"/><path d="M205.75,43.95a14.75,14.75,0,0,1-6.7,4.37l-.18-.29Z"/><path d="M85,56,80.3,54.38l.09-.41a9.07,9.07,0,0,1,1.56.1,13.35,13.35,0,0,1,2.48.77c.39.17.64.66.95,1Z"/><path d="M112.67,17.15c-.19.11-.44.37-.56.32-1.4-.65-2.75.29-4.12.08a4.5,4.5,0,0,1-1-.33.92.92,0,0,1,.05-.4c.33,0,.66,0,1,0s.75,0,1.12,0l3.5-.2C112.64,16.8,112.65,17,112.67,17.15Z"/><path d="M146.45,17.32l-6.57-.37c0-.18,0-.37,0-.56l6.56.31Q146.46,17,146.45,17.32Z"/><path d="M85.8,19.87c-.38-1.3-2.05.43-2.21-1.21L88,18.14C88,19.63,86,18.58,85.8,19.87Z"/><path d="M175,28.5a4.81,4.81,0,0,1-4.22,0C171.27,28,174,28,175,28.5Z"/><path d="M32.26,14.59l1,4.3-1-.21-.21-4Z"/><path d="M85.65,27.64c.11-.32.19-.89.35-.92,1-.16,2-.19,3-.27l.11.5a12,12,0,0,1-1.28.38c-.71.13-1.43.21-2.15.31Z"/><path d="M26.86,22.39l-.48-4,.56-.07.5,4Z"/><path d="M52.3,23.7l-3.89.56-.11-.47a17.41,17.41,0,0,1,1.89-.39,20.28,20.28,0,0,1,2,0Z"/><path d="M29.88,21.65c.07-1.32.13-2.33.19-3.48C31,19.66,31,20.82,29.88,21.65Z"/><path d="M147.69,26.79c.59.21,1.4-1.16,1.8.29,0,.15-.4.59-.66.64C148.22,27.81,147.44,28,147.69,26.79Z"/><path d="M105.61,27.4c-.19.13-.28.25-.37.25-1,0-1.95,0-2.89,0A2.61,2.61,0,0,1,105.61,27.4Z"/><path d="M55.48,42.87c.15.31.49.68.41.91A2.18,2.18,0,0,1,55,44.94c-.24.13-.74-.23-1.13-.37l.07-.36,1.07-.1c0-.37.05-.74.08-1.11Z"/><path d="M90.1,19.34,88.32,19l-.1-.42c.39-.24.78-.66,1.17-.66s.64.51,1,.79Z"/><path d="M35.43,20.56V17C36.74,18.4,35.61,19.47,35.43,20.56Z"/><path d="M90.94,18.25A5.87,5.87,0,0,1,94,17.92l.07.38-3,.49Z"/><path d="M124.71,16.55l-.67-.47-.72,1.2L123,17c.7-.35-.12-2.27,1.66-1.46.21.1.26.56.38.86Z"/><path d="M199.39,44l3.09-1.12A2.84,2.84,0,0,1,199.39,44Z"/><path d="M195.11,45.35a8.86,8.86,0,0,1,3.53-1l.1.48-3.65.54Z"/><path d="M96.94,18a6.71,6.71,0,0,1-1.22.65,1.78,1.78,0,0,1-1-.1c-.11,0-.15-.31-.22-.48l.81-.12,1.53-.26Z"/><path d="M93.4,1.68l3.4-.26,0,.44-3.4.21Z"/><path d="M50.68,19.08a2.14,2.14,0,0,1,2.55.2l-2.53.16Z"/><path d="M61.54,17.2c.92-.84,2.18-.8,2.58-.12Z"/><path d="M76.79,28.09c-.11-.17-.35-.4-.31-.49.32-.67,1.6-.58,2.08.18l-1.8.33Z"/><path d="M152.44,17.34h-2.79c0-.15,0-.3,0-.44.93.16,1.91-.3,2.78.47Z"/><path d="M93.88,26.6a2,2,0,0,1-2.59.21c1-.22,1.72-1,2.57-.19Z"/><path d="M256.46,31.23l-3-.57.07-.41,3,.55Z"/><path d="M113.19,16.56c.73.21,1.57-.1,2.26.31l-.1.5-2.26-.32Z"/><path d="M124.8,25.16l-2.14.49c.44-1.15,1.3-.78,2-.93Z"/><path d="M137.74,16.33c.47-.07.93-.15,1.4-.17a3.51,3.51,0,0,1,.14.62l-1.43.22Z"/><path d="M90.27,26l.82.62a6.34,6.34,0,0,1-1.15.51c-.11,0-.33-.32-.49-.5Z"/><path d="M268.4,34.55h1.46a4.8,4.8,0,0,1-.07.73,13.53,13.53,0,0,1-1.42-.06C268.38,35,268.39,34.77,268.4,34.55Z"/><path d="M43.45,35.52c.66.82.66.82-.12,2.92l.14-2.94Z"/><path d="M108.42,15.69c-.57.64-1.23.44-1.94-.18l1.85-.22Z"/><path d="M44,20.77H42V20.4l2-.15C44,20.42,44,20.6,44,20.77Z"/><path d="M47.17,24.61,45.51,25l-.12-.49L47,24Z"/><path d="M57.66,18c-1.94,1-1.94,1-2.22,0Z"/><path d="M208.56,41.27l-1.85,2.35-.36-.35,2.23-2Z"/><path d="M161,25.16l2.43.49a2.54,2.54,0,0,1-2.53-.08Z"/><path d="M169.32,26.22l-2-.33.09-.5,2,.4C169.36,25.94,169.34,26.08,169.32,26.22Z"/><path d="M121.44,61.17c-1.17-.25-2.37-.48-3.54-.78-.23-.06-.57-.44-.53-.6s.38-.45.61-.64c.08-.06.23,0,.35,0,1.83,0,3.67-.06,5.5,0,.3,0,.6.36.9.55a9.64,9.64,0,0,1-.89.61,13.11,13.11,0,0,1-1.38.65A9.4,9.4,0,0,1,121.44,61.17Z"/><path d="M118.75,48.83a14.39,14.39,0,0,1-2.6.35,24.44,24.44,0,0,1-3.86-.52c-.29-.06-.49-.59-.73-.91a2.85,2.85,0,0,1,1-.2c1.65.25,3.29.57,4.94.84a8,8,0,0,0,1.24,0C118.71,48.54,118.73,48.68,118.75,48.83Z"/><path d="M121.64,56.83a3.2,3.2,0,0,1-.9.3q-2.3,0-4.6,0a1.48,1.48,0,0,1-.88-.33.82.82,0,0,1-.18-.73.73.73,0,0,1,.61-.34c2,.27,3.9.58,5.84.88Z"/><path d="M154.56,67.19l-1,1.19c-.68-.67-1.19-1.15-2.16-1.06-.75.07-1.54-.49-2.33-.71-.59-.17-1.2-.23-1.8-.37a1.5,1.5,0,0,1-.88-.5,14.78,14.78,0,0,1,6.81,1.37,3.75,3.75,0,0,0,1.34.11Z"/><path d="M151,61.34c-1.43.63-1.76-1.21-2.88-.78C149,59.93,149.41,60,151,61.34Z"/><polygon points="249.11 13.1 249.11 13.09 249.11 13.09 249.11 13.1"/><path d="M276.31,29.39A12.53,12.53,0,0,0,274,23.2a11.76,11.76,0,0,1-.9-1.91c-.19-.12-.49-.34-.81-.51-.76-.4-1.52-.78-2.29-1.14l.24-.44s-.58-.31-1.73-.85l-.42-.19-1.37-1.54a2.72,2.72,0,0,1-.49.67l-.05,0c-.78-.33-1.66-.68-2.65-1.05l-.15-.06-1.59-1.46c-.07.26-.18.52-.26.77L259.94,15l-1.12-1.22-.36.71-.25-.08c-.24-1-1.6-.35-2.13-1.24,0,.19,0,.37,0,.54l-.51-.16-1.25-.37c0-.16-.12-.31-.2-.34-1.5-.61-2.94-1.47-4.67-1.36l-.05.3-.93-.24a1.14,1.14,0,0,0-1.09-.43l-.43,0-1.84-.47c-1.92-.52-3.94-1-6-1.4s-4.25-1-6.49-1.37c-2-.34-4-.72-6-1.09l-.82-.32.11.19-1.37-.24c-.32-.2-.54-.25-.76-.13l-1.38-.24a.68.68,0,0,0-.32-.21,6.63,6.63,0,0,0-1.67-.08l-1.91-.28-.87-.13L216,5l-.06.16-1.75-.26h-.07L211,4.42l-2.13-.24-.17-.2-.3.15-1.93-.22-.83-.16,0,.06-1.34-.15v0h-.33l-.64-.07c-1.2-.12-2.4-.27-3.61-.41a1.39,1.39,0,0,0-.59-.17c-1.48,0-3-.52-4.45-.31L191,2.36a.76.76,0,0,0-.47-.09l-.12,0-1.68-.14V1.89l-1.41.16c-1.54-.14-3.09-.26-4.63-.36l-.16-.4c-.22.15-.37.27-.52.36l-4.47-.26a1.87,1.87,0,0,0-1.92-.1l-1.8-.09c-.77-.16-1.54-.31-2.32-.44a1.42,1.42,0,0,0-1.27.25L167.93.89V.84l.27-.43c-.25.13-.49.32-.73.46l-1.15,0c-.22-.15-.45-.35-.7-.51a1.82,1.82,0,0,0,.09.48l-.83,0a.7.7,0,0,0-.4-.22c-.41,0-.83.1-1.27.17l-1.28,0c0-.15-.11-.28-.2-.31a.77.77,0,0,0-1.05.28L159,.6l-.35-.27-.21.26-2,0c-2.08,0-4.12-.09-6.14-.14l-.12,0a18,18,0,0,0-2.46-.12.29.29,0,0,0-.17.08l-1.1,0c-.27-.4-.56-.37-1.23,0-1,0-2.06,0-3.08,0L129.37.37c-4,0-7.6.14-10.83.23L110.2.85l-7.27.22L110.2.89l8.35-.2c3.22-.07,6.86-.21,10.83-.16l12.81,0c.87,0,1.75,0,2.64,0l-.35.21,2.44.4c-.1-.24-.19-.42-.27-.58l.73,0a2.76,2.76,0,0,1-.22.27l.14.3a8.79,8.79,0,0,0,2.58-.06c.72-.23,1.86,1,2.17-.38l.6,0a.48.48,0,0,0,0,.21,3.66,3.66,0,0,0,.85.22c.5.05,1,.05,1.5.08l1.82.12.08-.26c-.09-.08-.18-.18-.27-.25l1.58,0-.4.49H160l-.58-.45,1,0-.21.46h1.85A3.9,3.9,0,0,1,162,1l.69,0c.4.6,1.35,1,1.86.65a1,1,0,0,0,.32-.57l1,0a2.2,2.2,0,0,0,2.13.65L168,1.27l2,.12a2.59,2.59,0,0,0-.24.66l2.83-.51h.13c.56.65,1.14.74,2.16.13l.51,0c.14.25.27.52.42.54.92.09,1.85,0,2.81,0l-.43-.41,1.32.08a1.26,1.26,0,0,0-.08.65h3.68l-.17-.41,2.32.19c.54.36.89.72,1.24.74,1.4.05,2.81,0,4.21-.07a.56.56,0,0,0,.31-.16L192,3l-.06.55L204.22,5V4.26l1.51.18,1.58,1,.31-.82.61.07-.13.69,1.36.18.27-.33-.33-.4,1.47.18,1,.16a4.6,4.6,0,0,0-.28.75c.9.79,1.13-.15,1.55-.55l.2,0c-.06.73,0,1.35,1.11.91a.79.79,0,0,1,.47,0c.94.26,1.87.6,2.82.8.59.12,1.48-.23,1.78.08.77.81,1,0,1.34-.35.8,1.32,3.65,1.86,4.68,1.1.39.27,1,.78,1,.71.56-.5.85,0,1.24.22.54.34,1,.34,1.15-.41a3.4,3.4,0,0,1,.15-.45l.85.16a.74.74,0,0,0,.57,1.18l2.4.37c0-.33,0-.66,0-1l.65.14a3.14,3.14,0,0,0,.3,1c.06.1.72-.15,1.16-.25a5.67,5.67,0,0,0,.85.64,1.1,1.1,0,0,0,.82.12.74.74,0,0,0,.28-.68l0-.07.65.15.11.93L246.94,13c0-.43-.07-.76-.09-.94l.07,0c.41.45.81,1.13,1.35,1.25a1.37,1.37,0,0,0,.85-.19c-.18-.29-.32-.46-.39-.59l.47.13-.09.46.62-.32.51.13.25,1,.55-.77.44.13.06.82,1.13-.46.51.15.11,1.09c.27-.31.54-.56.76-.82l1.22.37.73.23c0,.36,0,.72-.06,1.13l.9-.86.13,0,.2.73.61-.47c.6.21,1.19.42,1.76.61l1.89.65,1.69.66c2.16.81,3.8,1.57,4.92,2.07l.18.09h0a8.79,8.79,0,0,1,2.38,2.23,41.91,41.91,0,0,1,2.34,5.09c.59,1.41,1.09,2.85,1.6,4.21l.13-.21c.16,2-.83,3.62-1.81,5.19l-2.28-1c-.41,1.3,1,1.58,1.24,2.83a35.34,35.34,0,0,0-3.29,1.82,8.14,8.14,0,0,0-1.44,1.71l.34.38,3.54-1.8a9.14,9.14,0,0,0,2.44-1.34A11,11,0,0,0,276.31,29.39ZM188.75,3V2.68l.61.05Zm26.9,2.85-.18-.11.21,0ZM223,7.08l-.12-.18.22,0Zm3,.39.25,0,.06.1Z"/><path d="M169.27,1.57a6.63,6.63,0,0,1-1.24.25c0,.3.06.6.1.91Z"/><path class="b" d="M215.18,57s-36.76,7.48-50.26,8.73"/><path class="b" d="M210.93,36.73a60.61,60.61,0,0,1-16.13,4"/><line class="b" x1="232.68" y1="49" x2="227.44" y2="48.81"/><path class="b" d="M156.89.76S113.93-.63,83.26,3"/><path class="b" d="M273.54,37.92a64.71,64.71,0,0,1-19.21,6.8"/><path class="b" d="M186.43,29.23S104,24.74,80.34,29"/><path class="b" d="M73.93,38.23s-6.25-1.5-8,2.25"/></svg>