<svg xmlns="http://www.w3.org/2000/svg" viewBox="0 0 280.33 75.56"><defs><style>.a{fill:#fff;}.b,.c{fill:none;stroke-miterlimit:10;}.b{stroke:#231f20;}.c{stroke:#000;}</style></defs><title>handle-2</title><path class="a" d="M280.25,30.85a5.06,5.06,0,0,0,0-.82.8.8,0,0,1,0-.09l0-.18a6.47,6.47,0,0,0-1.73-3.13,17,17,0,0,0-3.83-3.08c-.94-.58-1.9-1.12-2.88-1.62l-.09.15c-7.4-3.77-15.18-5.65-22.92-7.51l.12-.06c-3-.67-5.93-1.31-8.9-2q-13.64-3.07-27.46-5.38c0,.09,0,.17,0,.26l-1.41.26c-.49-.43-.74-.85-1-.88-1.17-.1-2.36-.08-3.54-.1-.7,0-1.4,0-2.09-.07-.41,0-.8-.2-1.21-.26l-4.92-.79.42.5h-5.15l-.21-.3,1.11-.58-.17-.33-5.49-.53-.09.39,2.38.71-.08.36L179,4.39l.88-1.09-1.53.08c.08.41.15.72.22,1.08a2.43,2.43,0,0,1-.5,0c-2.81-.39-5.71.14-8.44-1a6,6,0,0,0-1.84-.2c-2.87-.17-5.74-.36-8.62-.47-1,0-1.93.19-2.89.17-4.62-.1-9.23-.32-13.85-.34-9,0-18-.48-27,.31-4.23.37-8.47.55-12.71.81-4.4.26-8.82.41-13.21.8-4,.35-7.92,1-11.9,1.45C72.41,6.6,67.18,6.92,62,7.55S51.78,9,46.68,9.78c-3,.43-5.94.75-8.9,1.22a43.88,43.88,0,0,0-5.41,1.17c-2.4.7-4.74,1.58-7.35,2.46l.64-1.39C17.4,15,9.79,17.85,3.83,24.37a3.28,3.28,0,0,1-.15-.89c.92-3.81,5.08-7.35,9-7.84a16,16,0,0,0,3.3-1c1.71-.61,3.41-1.24,5.11-1.88l-2.75.49a38.87,38.87,0,0,0-5.52,1.19c-5.31,1.8-10.39,6.34-10.3,12.36a14.27,14.27,0,0,0,.13,1.59,12.66,12.66,0,0,0,.57-1.78l.33.08A17.79,17.79,0,0,0,4,31.1a13.88,13.88,0,0,0,2.47,4C7.32,36.2,8,37.76,10,37.88c-.59-1.65.59-2.15,1.73-2.68l-.08-.37-2.67-.37s0-.16,0-.18c1.83-.91,2-2.42,1.81-4.27-.2-2.16,0-4.36,0-6.54A1.48,1.48,0,0,1,12,21.89c2.3-.66,4.57-1.41,6.89-2,1.83-.47,3.71-.78,5.57-1.14a6.53,6.53,0,0,1,1.07,0c-.19.24-.24.37-.33.4l-3.73,1.27c-1.4.48-2.84.88-4.19,1.46a10.52,10.52,0,0,0-2,1.56c2.27.76,2.56,2.25,2.23,4.13-.21,1.2.29,1.59,1.56,1.46.39-1.22-1-2.8,1-4l1.49,3.59c1.6-.49,3.64-.26,4.9-2.08a1,1,0,0,1,.87-.16c2.09.63,4.08,0,6.16-.34V24.52c.89.85.72,1.77-.3,2.09-1.34.42-2.7.77-4,1.25a11.38,11.38,0,0,0-1.77,1l.15.45,13.29-3c.06-.57.09-1,.12-1.34l.31,0,.6,1,15.52-1.94c0,.11,0,.21.07.32a7.9,7.9,0,0,1-2.18.63c-2.74,0-5.23,1.05-7.82,1.65-6,1.39-12.08,2.71-18.07,4.22-2.7.68-5.29,1.78-7.94,2.64-1.21.39-2.46.66-3.69,1a17.34,17.34,0,0,0-2.72.81c-1.84.85-1.92,1.2-1.07,3a1.27,1.27,0,0,0,0,2.21c1.85.9,3.69,1.79,5.53,2.7.77.38,1.52.81,2.29,1.21.07,0,.14.11.21.13,3.08.56,6.16,1.09,9.23,1.69a8.53,8.53,0,0,1,1.48.53l.44.06c1.58.21,3.17.4,4.75.66l2.34.21a8,8,0,0,1,1,.24,1.38,1.38,0,0,1-.1.23c.63.16,1.24.34,1.85.55a2.11,2.11,0,0,1,.52.26c-.63-.73-1.45-1.32-2.09-2C40.62,46,39.92,45,39.16,44c-.38-.48-.81-.92-1.32-1.51.35-.82-.56-2.57-1.82-3.22l-.76,1.58,2,1.48c-1.27.81-3.81-.36-5.65-2.29l.71-1.17-1.26-1A14.41,14.41,0,0,0,32.8,37C37,33.91,42,33.3,47,32.82c2.45-.24,4.94-.15,7.38-.43,4.88-.56,9.73-1.29,14.6-1.91a16.71,16.71,0,0,1,2.56,0c.24,0,.52.13.73.06,4.3-1.57,8.88-.89,13.29-1.69a63.48,63.48,0,0,1,9-.52c2-.07,4,0,6,0,0,0,.1,0,.12,0,1.19-1.36,2.73.25,4-.45a1,1,0,0,1,.85,0,2.41,2.41,0,0,1,.54.44h1v0a11.83,11.83,0,0,1,2.74-.59c1.87.07,3.73.35,5.6.53.3,0,.66.16.9,0a2.63,2.63,0,0,1,3,.11,11.82,11.82,0,0,1,2.14-.57c4.16-.22,8.32-.39,12.47-.59h.1a11.7,11.7,0,0,1,3.57,0h.09l1.9.14a2.14,2.14,0,0,1,.5-.06c4.57,0,10.73-1.85,14.57.74h1a1.85,1.85,0,0,1,1.9,1.59,1.63,1.63,0,0,1,.35,1.15c-.17,1.75-.12,3.52-.43,5.24a12.44,12.44,0,0,1-.77,4.81c-.59,1.6-1.22,3.2-1.89,4.77-22.24.16-53.22-.24-73.75-2.59l-3.26-1.1-.09.19,1.42.68q-2-.24-3.77-.52c-4.74-2-10.79-5.54-13.62-8.33.43-.92,1-.59,1.54-.15l.45.36a1.86,1.86,0,0,1,.63-1.42c-5.72,1.16-11.54,1.9-17.3,2.91a16.64,16.64,0,0,0-3,1.18s.06.28.15.6c-.81-.46-3.06-.37-3.4.33a4.17,4.17,0,0,0-.25,2.56,24.93,24.93,0,0,0,1.56,4.8,4.79,4.79,0,0,0,.34.62,10,10,0,0,0-.35,1.63l1.7.07.3.34q1.62,1.92,3.33,3.77a2.32,2.32,0,0,0,.95.54Q55.25,54.48,62,56.82a1.66,1.66,0,0,1,1,.61,26.16,26.16,0,0,1-3.56-.61c-3.23-1-6.45-2-9.6-3.22a12.4,12.4,0,0,1-5.55-3.66,2.3,2.3,0,0,1-.2,1.91C49.83,53.46,55.38,56,61,58c0-.12,0-.24,0-.36a37.09,37.09,0,0,1,4,0,19.75,19.75,0,0,1,7.06,2.5,3.13,3.13,0,0,0,1.29.16c.37,0,.78-.15,1.1,0,1.64.58,3.36.11,5,.48a39.56,39.56,0,0,0,5.39.77c7,.54,14,1,21,1.5.86.06,1.73,0,2.59.11.3,0,.58.36.86.56l.06.23,2,.35c0,.16,0,.32,0,.48a10.42,10.42,0,0,1-1.29.24c-.23,0-.47-.2-.7-.2-.65,0-1.16-.64-2-.34l.82.31a9.34,9.34,0,0,1,4.11,2.82q0-4.42.08-8.83a13.5,13.5,0,0,1,.34-2.7,10.68,10.68,0,0,1,.82-1.82l2.16,3.94-1.28.23v12.8c3-1.48,6.13-.72,9.12-.75,7-.09,14,0,20.93.08a3.15,3.15,0,0,0,1.47-.24l-5.17-.69c0-.17,0-.33.05-.49l8.27.58-1.28.56c0,.12,0,.24,0,.36,2.48.12,5.08-.42,7.13,1.41.74-1.37,1-5.72.51-7.69l3.16.67c0,.31,0,.71,0,1.11-.1,1.71-.1,1.74,1.66,1.61l1.11-.09.49-.24c5.13-2.29,10.83-3,16.36-3.53,3.58-.36,7.21-.53,10.81-.88a4.09,4.09,0,0,1,2.31-.26l1.65-.23c1.16-.71,2.56-.75,3.76-1.33l.16.28-.53.39,1.4-.35c.17-.11.33-.32.49-.31a5.41,5.41,0,0,0,.68,0c5.4-1.59,10.45-4.05,15.67-6.26a64,64,0,0,1,7.53-2.81A18,18,0,0,0,226,48.75l2.4-.47a28,28,0,0,1-3,3.22c3-.41,5.72.32,8.56,1.11a2.21,2.21,0,0,1,.81-1.15,6.65,6.65,0,0,1-2.27-.62c-.53-.26-1.4.21-2.12.31a7.45,7.45,0,0,1-1,0c0-.17,0-.33,0-.5,1.49-.16,3-.29,4.48-.48l4.35-.53c3.2-1.15,6.74-1.21,10.19-1.29l2-.29c2.06-.3,4-1.21,6.06-1.52,2.26-.33,4.11-1.56,6.2-2.27.29-.1.66.08,1,.08s.6,0,.66-.14c.73-1.58,2.36-1.47,3.65-1.84.66-.19,1.2-.35,1.69-.53,1.08-.64,2.14-1.31,3.16-2-.59-1.85-2.28-2.23-3.83-2.69-5-1.49-10-2.92-15-4.38-.06,0-.11-.1-.4-.34a6.19,6.19,0,0,1,1.33-.17c.6.07,1.21.26,1.81.38,2.09.41,4.22.69,6.27,1.25,2.34.63,4.61,1.48,6.9,2.28.85.3,1.66.74,2.5,1.07,2.48,1,4,.21,4.6-2.39.25-1,.35-2.12.54-3.17.08-.47.21-.94.33-1.48,2.13.76.88,2.46,1.24,3.74a8,8,0,0,0,.92-1.73,6.47,6.47,0,0,0,.23-.85.86.86,0,0,1,.06-.24S280.25,31,280.25,30.85ZM26.33,21.59c.39,1.09.73,2.1,1.14,3.24C25.91,24.11,25.33,22.54,26.33,21.59Zm7,2.34V22.46l.35-.11,1.17,1.23Zm7.44-.41-.43-.13c.14-.5.28-1,.47-1.63l1.06.84Zm208.41,8,2.88.66-.12.42L249,32Zm-67,3.11a11.63,11.63,0,0,0-1-1.66l.78-.12a1.94,1.94,0,0,1,.58-2q-8.07-.43-16.17-.41a32.87,32.87,0,0,1-4-.62c-.31,0-.67.21-1.12.36.1-.61.19-1.11.31-1.89.56,1.64,1.73,1.2,2.79,1.21,3.75,0,7.5.1,11.25.15l.12,0c1.81,0,3.61-.13,5.42-.08,2.19.07,4.38.27,6.56.42,7.16.49,14.32.93,21.48,1.5A35,35,0,0,1,214,32.67c.2,0,.42.17.59.12,2.71-.66,5.33.14,8,.5l3.7.51-5.42,1.62-.86-.13c-2.85-.45-5.7-.91-8.54-1.41a7.48,7.48,0,0,1-1.54-.64c-.19-.08-.35-.26-.54-.27-1.69-.1-3.38-.13-5.07-.25l-1.85-.13a5.36,5.36,0,0,1,2.79,5.47c0,.15,0,.29-.06.44l.55-.52a1.36,1.36,0,0,0,.37-.93c0-.78-.13-1.55-.22-2.42,1.36-.11,1.9.31,2,1.47a4.74,4.74,0,0,1-.89,3.27c-10.45,2.85-21.05,5.42-26.23,5.71.44-2.6.85-5.2,1.3-7.8a7.06,7.06,0,0,0,.26-1.07A4.25,4.25,0,0,0,182.1,34.67ZM172.74,53.4c-2.16,1.1-8.71,1.06-10.47,0C165.76,53.23,169.25,52.57,172.74,53.4Zm-28.43,1.34c1.59-1,3.36-1.69,4.73-3.06l2.22.09A10.86,10.86,0,0,1,144.31,54.73Zm9.15,9.57c-1,.76-4.34.3-5-.81ZM62.36,48.87l-.27-.68.57,0,.13.51Zm57,7.46c-.34,2.53-.55,5.08-.83,7.62a.83.83,0,0,1-.43.58A38.54,38.54,0,0,1,117.77,54C119.16,54.52,119.56,55.17,119.4,56.33Zm2,6.06c-.06.61,0,1.23,0,1.84a3.23,3.23,0,0,1-.27.78c-.18-.23-.49-.46-.51-.7-.17-2.24-.37-4.49-.37-6.73,0-1-.28-2.21,1.27-3.12a6,6,0,0,1,.52,1.8C121.91,58.3,121.63,60.34,121.44,62.38Zm4.11-6.67c-.19,1.71-.46,3.42-.76,5.12a4.74,4.74,0,0,1-.55,1.16l-.4-.08V54.44C125.25,54.11,125.69,54.41,125.55,55.72Zm1.63-3.92a6,6,0,0,1-.89,0,23.42,23.42,0,0,0-8.34.84A26.72,26.72,0,0,0,115.55,54a7.08,7.08,0,0,1-1.75.31l-.21-.5L116,52.11c.1-.07.29-.06.33-.15A2.67,2.67,0,0,1,118,50.58l-.26,0-1.4-.16h-.24c-4.41,0-8.83.24-13.19-.56L145,51.52a41.75,41.75,0,0,1-13.21,2c0-.14-.07-.28-.1-.41l4.75-.8a59.15,59.15,0,0,1-8.92-.46Zm5,12.63c-.33-.1-.8-.09-1-.31-1.61-2.31-3.07-4.7-2.59-7.71a12,12,0,0,1,.66-1.84c1,1.65,1.89,2.79,1.52,4.53a5.66,5.66,0,0,0,1.3,4.37C132.27,63.69,132.16,64.1,132.18,64.42Zm.35.27,3.44.63C134.61,66.29,134.21,66.23,132.53,64.69Zm7.18,1.51c2.48-1,4.92.13,7.41.27s4.94.11,7.4.27C152.31,68.27,141.82,67.76,139.71,66.2Zm14-3.87c0-.19,0-.37,0-.56,2.14.1,4.33-.73,6.42.36,0,.18,0,.36,0,.53ZM164,62.24c-1.28.76-2.61,1.44-3.94,2.12a1.15,1.15,0,0,1-1.09-.07l6.27-4.14-8.64-.82c0-.16,0-.32,0-.48,2.6-.08,5.2-.19,7.8-.22a1.48,1.48,0,0,1,1,.64,1,1,0,0,0,1.56.37c.71-.38,1.43-.75,2.14-1.12l.24.42C167.61,60,165.83,61.17,164,62.24Zm4.3-4.93a24,24,0,0,1-4.32-.05A9.83,9.83,0,0,1,160.78,56c.81.07,1.61.18,2.42.19,1.63,0,3.27,0,4.9,0a9,9,0,0,1,1.28.19,2.93,2.93,0,0,0,.1.34C169.08,56.9,168.71,57.29,168.31,57.31Zm1.72.88c1.57-2.11,3.79-3.6,5.67-5.44l1.81.07a56.61,56.61,0,0,1-6.08,5A2.62,2.62,0,0,1,170,58.19Zm12.14,2.57-.09-.51,6-.9c0,.2.06.39.09.59Zm6.79-1-.13-.46a10.46,10.46,0,0,1,1.2-.41,37.94,37.94,0,0,1,6.25-1.24,16.72,16.72,0,0,0,4.27-.74l13.54-4.17c.42-.13.85-.21,1.27-.31,0,.13.06.26.1.39C207.27,57.65,198,58.25,189,59.79Zm26-7.83,1.83-1.21C216.88,52.27,216.65,52.41,214.93,52Zm29.14-6.61,0-.15,7.3-1.44C248.89,45.1,245.54,46,244.07,45.35Z"/><path d="M185.06,2.82c1.83.14,3.68.19,5.49.45,2.23.32,4.43.84,6.65,1.22.3.05.68-.3,1-.25,1.36.26,2.71.59,4.06.9l.59.13c.95.17,1.9.34,2.85.48a5.44,5.44,0,0,0,.65,0l1.72.06-.2.15a11.53,11.53,0,0,1-3.23.33c-1.9-.35-3.72-1.17-5.65-.05l1-.57c-.65-.28-1.29-.57-2-.84-.09,0-.26.11-.4.17.08.11.14.28.24.33s.5.15.65.57l-2.27-.51-1.1.69c0-.44.06-.59.09-.8l-2.18.39L193,5.38l1.55-.94L190.16,4l-1.07-.1-1-.06.17.58,2.46.53c0,.14-.06.28-.08.43L187.41,5l-2-.36L178.64,4l.11-.74.88-.14c0-.1,0-.19,0-.28l-2,.06L178.12,4l-3.35-.23c-1.5-.11-3.18.12-4.46-.42-2.69-1.14-5.56,0-8.21-.95-.47-.17-1.12.13-1.68.1-1.2-.08-2.4-.23-3.68-.36,0,.24,0,.32.05.35s.13.08.09.05c-1.34,0-2.79,0-4.24-.09-.93,0-1.85-.26-2.79-.3-1.13,0-2.27,0-3.4,0-1.84,0-3.69,0-5.53,0a5.25,5.25,0,0,1-1.21-.44l-1,.14.91.13,0,.19a4.3,4.3,0,0,1-.81.13c-3.5-.12-7-.29-10.49-.36-2.15,0-4.29,0-6.44.14-3.17.14-6.33.36-9.5.5-2.62.12-5.25.13-7.87.27-1.1.06-2.18.39-3.27.49a8.83,8.83,0,0,1-1.71-.13c-2.29.22-4.41.46-6.54.62s-4.07.2-6.1.34A14.64,14.64,0,0,0,85,4.61a1,1,0,0,0-.6-.14c-1.31.17-2.61.46-3.93.63C76.72,5.55,73,6,69.25,6.38c-2.94.29-5.9.39-8.83.66-2.22.2-4.44.52-6.64.83-2.46.35-4.91.74-7.36,1.13-1.11.18-2.31.73-3.3.5-1.37-.32-2.2.68-3.43.63s-2.73.39-4.11.42c-2.65.07-4.93,1.15-7.31,2-1.51.53-3.06,1-5.07,1.59L24,12.84a.31.31,0,0,0-.22-.06c-1.7.44-3.4.88-5.08,1.36-1.36.39-2.7.82-4,1.27a11,11,0,0,0-1.93.81C10.2,17.63,7.63,19,5.25,20.59a18.89,18.89,0,0,0-2.9,3.06,1.73,1.73,0,0,1-.55.26c-.06-.17-.23-.36-.19-.5a13.35,13.35,0,0,1,.88-2.17,12.62,12.62,0,0,1,6.66-5.68,3.52,3.52,0,0,1,.76-.16,10.42,10.42,0,0,0,1.88-.26c1.51-.51,3-1.13,4.47-1.69s3-1.13,4.52-1.65c.7-.24,1.44-.39,2.27-.6,0-.06,0,.09.14.35l1.67-1.21,2.7.24-.45-.23c1.19-.17,2.5-.31,3.78-.54,2.2-.4,4.39-.89,6.6-1.26,1.56-.26,3.15-.35,4.72-.57,2.32-.34,4.63-.72,6.94-1.1,1.5-.24,3-.47,4.48-.77.35-.07.77-.59.93-.51,1.84.86,3.41-.44,5.13-.43.18,0,.36.17.52.25l2.11-.35,0-.22,4.42-.56c0-.09,0-.18-.06-.28L75,3.12c0,.38.07.65.1.92.19-.16.35-.4.58-.46a11.75,11.75,0,0,1,1.76-.33Q79.19,3,81,2.9c1.06-.08,2.11-.1,3.18-.17.36,0,.72-.13,1.08-.12a10.86,10.86,0,0,1,1.22.18,1.69,1.69,0,0,0,.4,0c2.55-.27,5.09-.57,7.65-.79,1.6-.14,3.21-.14,5.06-.21.1,0,.47-.09.83-.19s.87-.28,1.3-.42L100.31.72c1.52-.26,2.94-.51,4.36-.72.06,0,.18.27.13.19l4.74.09.06.14-7.19.72c0,.16,0,.32.06.48,1.22-.1,2.44-.29,3.65-.27,1.58,0,3.15.23,4.73.28a1.07,1.07,0,0,0,.89-.76l-2.09.24c.62-.46.91-.86,1.21-.87,2.1,0,4.21,0,6.32.07.41,0,.92.4,1.21.28,2-.8,4-.08,6-.22s3.91,0,5.86,0c2.49,0,5-.1,7.48-.12.56,0,1.13.2,1.68.17a14.52,14.52,0,0,0,1.84-.31c.31.27.51.58.72.59,5.31.1,10.64.1,16,.27,2.31.07,4.6.52,6.92.68,1.69.12,3.4,0,5.1.1a15.26,15.26,0,0,1,2,.51,10,10,0,0,0,1.27,0c1,.06,1.95.19,2.93.19,1.89,0,3.77-.14,5.65-.1a30.12,30.12,0,0,1,3.35.43l-1.81,1,.26.51,2-.6C185.37,3.46,185.21,3.14,185.06,2.82ZM114.27,1v.33l5.13.1V1.14Z"/><path d="M36.75,34.46l0-.26a20,20,0,0,1,2.52-.84c1.09-.21,2.23-.22,3.33-.37,2.31-.3,4.6-.65,6.91-.94a9.13,9.13,0,0,1,1.29.14c1,0,1.92,0,2.88,0,.23,0,.44-.28.3-.18l4.6-.45c.7-.07,1.4-.16,2.1-.25,1.42-.18,2.85-.36,4.27-.57s2.6-.51,3.9-.65a6.09,6.09,0,0,1,1.73.32c.13,0,.32.14.37.1,1.47-1.25,3.48-.53,5.15-1.12A10.91,10.91,0,0,1,79,29.3c.83,0,1.67-.15,2.48-.27,1.12-.16,2.23-.37,3.35-.52.25,0,.52.15.79.14q1.88-.07,3.77-.2c1.56-.11,3.12-.27,4.69-.34.25,0,.52.38.63.47l2.59-.8c1,.16,1.88.31,2.77.41a4.76,4.76,0,0,0,.27-.86l2.13.57a11,11,0,0,1,1.9-.32,1.76,1.76,0,0,1,1.05.56.68.68,0,0,1-.1.73,3,3,0,0,1-1.22.35c-1.41.12-2.83.2-4.24.27-2.09.1-4.17.17-6.26.26-.47,0-.92.14-1.39.15-.86,0-1.72,0-2.41,0a3.15,3.15,0,0,1-1,.47c-1.76.08-3.53.13-5.29.1-.37,0-.77-.54-1.11-.5a18.79,18.79,0,0,0-3.18.68l-1.64.08c0,.11.06.21.1.32-.23.12-.46.33-.7.33-2.34,0-4.69-.07-7,.08-1.71.1-3.4.53-5.09.78-.4.06-.82-.06-1.22,0-1.43.21-2.85.46-4.29.68-2.6.41-5.23.75-7.82,1.23-1.94.36-3.85.89-5.77,1.33a2.44,2.44,0,0,1-.73-.07l-.17.78-2.7.22.63.84-.29.13c-1-1.5-1.93.15-2.95,0-.77-.09-1.06,1.84-.64,2.83.63,1.49,1.1,3,1.62,4.56,0,.1-.12.25-.15.3.65.83,1.19,1.64,1.86,2.35,1,1.08,2.13,2.08,3.17,3.14a2.54,2.54,0,0,1,.35.78c.06.13.1.33.22.38,1.81.77,3.61,1.56,5.47,2.25,1.29.48,2.65.8,4,1.22,2.4.76,4.77,1.58,7.18,2.28,1.48.43,3,.65,4.51,1a8.53,8.53,0,0,1,1.44.77c.35.17.74.27,1.09.44s.91.47,1.36.71c.11.06.24.17.34.16,1.28-.22,2.57-.59,3.77.91-.14-.58-.18-.77-.24-1L84,61.73a197.85,197.85,0,0,0,24.27,1.5l-.35.91a15.68,15.68,0,0,1,1.68,0,3.42,3.42,0,0,1,.88.38c-.28.24-.62.71-.83.66a23.59,23.59,0,0,1-2.54-.78l-1.28-.39.69.9c-1.83-.28-3.42-.53-5-.74-.17,0-.38.22-.45.69-1.23-.15-2.46-.35-3.69-.44-1.56-.11-3.12-.06-4.67-.22-2.93-.31-5.85-.71-8.77-1.09-2.29-.29-4.57-.6-6.86-.91l-.16,0c-2.58-.53-5.16-1.06-7.74-1.6-1-.22-2.08-.48-3.17-.73,0-.24,0-.62,0-.62a7.16,7.16,0,0,1-1.33.08c-1.2-.17-2.4-.37-3.58-.6a9.65,9.65,0,0,1-1.47-.44.44.44,0,0,1-.16-.36.91.91,0,0,1,.49-.18c.73,0,1.44,0,2.17,0,0-.13,0-.27,0-.4L58.78,57a1.12,1.12,0,0,1-.24,0l-4.47-1.61c-.25-.09-.53-.1-.78-.19-.9-.32-1.79-.67-2.7-1a28.49,28.49,0,0,1-3.42-1.12,30.65,30.65,0,0,1-3.21-2.05c-.22-.14-.55-.19-.7-.36a11.14,11.14,0,0,1-.81-1.21c-.13-.21-.23-.6-.35-.61-1.48,0-1.38-1.47-2.24-2.07a8.6,8.6,0,0,1-1.77-1.93c-.33-.43-.43-1-.77-1.44A8.27,8.27,0,0,0,36,42.38l.61-.42c-.55-.9-1.1-1.83-1.7-2.72-.1-.15-.45-.14-.69-.21-.08.25-.15.51-.26.75s-.21.4-.46.86c.49.41,1.08.88,1.64,1.38.13.12.14.36.2.55-.29.08-.64.28-.87.2a14.78,14.78,0,0,1-1.31-.72c-.42-.2-.89-.32-1.7-.6l-.83-.66.11-.1-.87-.78a5,5,0,0,0,.78-1.12c.05-.13-.49-.47-.79-.68a4.08,4.08,0,0,0-.57-.31c1.39-.72,2.79-1.41,4.15-2.17.16-.09.09-.52.12-.8Z"/><path d="M32.22,26.07c-1.76.52-3.53,1-5.26,1.59a4.85,4.85,0,0,0-1.38,1c-.06,0,.08.41.14.41.39,0,.91.13,1.14-.05,1.23-1,2.66-.87,4.12-.83.36,0,.74-.4.85-.46l7.49-1.68c0-.28-.1-.78-.18-1.27l.61-.08L40,25.79l16.48-2.08c-2.6,1.49-5.23,1.08-7.7,1.47l.16.45L26.47,30.84a4.25,4.25,0,0,1-1,.59c-1.85.57-3.88.82-5.52,1.69-2.08,1.09-4.48,1-6.55,1.81a8.84,8.84,0,0,0-2,1.37c-.11.08,0,.45.08.65.2.44.46.85.69,1.28l-.92.28a5.28,5.28,0,0,0,.51,1.74c.2.28,1,.19,1.39.4.93.47,1.78,1.06,2.69,1.55s2,1,3.23,1.6l0-.1,1.31.94a1.41,1.41,0,0,1,2.17.39c.17.22.68.25,1,.33,1.25.26,2.48.57,3.75.74.84.12,1.72,0,2.58.07a.87.87,0,0,1,.69.42l-1.15.18,7,.64,0-.14,3.2.53c-1,2.09-2.9.91-4.35,1a22,22,0,0,1-5.12-.45c-2.93-.53-5.83-1.19-8.72-1.88-.52-.12-.92-.64-1.47-1-5.45-1.41-10.73-3.87-16.15-6-.19-.08-.19-.55-.29-.91a12.8,12.8,0,0,0,1.2.54,2.4,2.4,0,0,0,1.44,0L4.47,37.56A15.59,15.59,0,0,1,1.6,35.05a11,11,0,0,1-1-3.2c-.12-.4-.29-.78-.4-1.17a2,2,0,0,1,.38-2.2c.38-.39.26-1.17.44-1.76.06-.17.35-.29.52-.43.08.18.25.36.24.54a15.28,15.28,0,0,0-.11,3.31,8.27,8.27,0,0,0,1.4,3,47,47,0,0,0,3.17,4,3.15,3.15,0,0,0,1.25.64,1.87,1.87,0,0,0,.68,0A4.79,4.79,0,0,0,8,37.17c-.35-.86.44-1.74,1.85-2-.23-.78-.23-.78-3.19-.81L8.51,33,9,32c-.05-.53-.15-1.34-.21-2.14-.09-1.27-.23-2.55-.21-3.83A33.56,33.56,0,0,1,9,22.26c0-.18.35-.41.57-.48,1.43-.43,2.88-.8,4.31-1.23s2.55-.85,3.85-1.2a4.12,4.12,0,0,1,1.31.1c.06-.11.19-.58.42-.61,1.38-.22,2.77-.35,4.16-.51,0,.16,0,.32,0,.48l-2.37,0,1.08.51-4,1.1c-1.93.45-3.76,1.13-4.89,2.82,2.05.76,2.48,1.58,2.15,4-.19,1.42.42,2,1.77,1.71a25.92,25.92,0,0,1-.28-3.09c0-.31.56-.61.88-.92a7.18,7.18,0,0,1,1.09,1.56,10.13,10.13,0,0,1,.34,2.1l1.48-.33c.26-.06.52-.12.77-.19a16.62,16.62,0,0,0,2-.65,2.69,2.69,0,0,0,.84-.8c.15-.17.21-.57.31-.56a6.21,6.21,0,0,1,.94.23,12,12,0,0,0,1.81.26,8.81,8.81,0,0,0,1.57-.2l2.7-.44Zm-16,6.13c.8-.25,1.58-.54,2.4-.74.44-.11,1,.06,1.39-.08,1.52-.48,3-1,4.5-1.56l.93-.36c-.31-.33-.67-1-.93-.93-1.89.21-3.84.34-5.2,1.84-.11.13-.52,0-.78.07a7.37,7.37,0,0,0-2,.52c-.27.15-.19.82-.27,1.26l-.84-.42c-1.67.33-3.6,0-4.61,1.41.07.18.14.36.2.54Zm-4.71-6.46c-.48.5-1.13.86-1.19,1.31a12.15,12.15,0,0,0,.06,3.1c0,.22.53.49.88.56.15,0,.53-.33.6-.56a13.56,13.56,0,0,0,.5-2.67,29.73,29.73,0,0,0-.15-3.18h-.39l1-1.15-.21-.35c-.65.25-1.32.48-1.93.79-.08,0,.08.48.06.4l-.33,2Zm1.55,3.44c0,.13,0,.25,0,.38l1.39-.09-.25-1.95L13,28l1.09.88Zm1-2c0-1.1,0-1.79.06-2.77l-.86,1.08C13.54,26,13.73,26.39,14.12,27.19Z"/><path d="M161.6,29.48l6.2-.45c0-.17,0,0,0,.35a6.62,6.62,0,0,1,1.27-.37c.28,0,.58.23.88.24.8,0,1.62,0,2.42,0s1.76.15,2.64.23c.1,0,.22.07.31.05L178,29c0,.17,0,.33,0,.5l4.3-.1-.39.56c1.08-.07,2.06-.2,3-.18,1.92.05,3.83.19,5.74.3,1.38.08,2.76.16,4.14.27,1.19.1,2.37.25,3.55.36.82.07,1.65.1,2.48.14,2.38.13,4.76.19,7.13.39a42.22,42.22,0,0,1,4.58.73,8.39,8.39,0,0,1,1.54.65.38.38,0,0,0,.23,0c2.59-.76,5.1,0,7.63.37s4.94.78,7.41,1.12c2.85.39,5.71.67,8.55,1.1,1.49.22,2.94.66,4.41,1a3.81,3.81,0,0,0,1-.08c3.62,1.25,7.81.87,11.31,2.36-.62.65-1.17,1-1.37,1.53-.09.22.52.67,1,1.21a4.47,4.47,0,0,1-1,1.43,18.82,18.82,0,0,1-3.15,1.57,15.89,15.89,0,0,1-2.71.89,21.42,21.42,0,0,1-2.86.37c-.16,0-.35-.23-.53-.36a2.77,2.77,0,0,1,.53-.48c.65-.35,1.31-.69,2-1s1.58-.69,2.39-1,1.65-.5,2.42-.84c.23-.1.49-.64.4-.79a1.52,1.52,0,0,0-1-.64c-1.71-.19-3.44-.27-5.15-.44a8.92,8.92,0,0,1-1.19-.41c-1.37-.35-2.74-.72-4.12-1-1.72-.33-3.46-.51-5.17-.84S232,37,230.36,36.6a4.15,4.15,0,0,0-1-.07c-.24,0-.62.16-.7.08-.73-.83-1.71-.26-2.55-.41-3.94-.69-7.86-1.44-11.8-2.14-1.27-.22-2.55-.33-3.83-.5a.75.75,0,0,1-.49-.22c-.77-1.26-1.77-.42-2.94-.39-1-.89-2.32-.54-3.75-.4a18.46,18.46,0,0,1-3.31-.42c-2.35-.22-4.73-.37-7.1-.6-2.15-.21-4.28-.57-6.44-.7-3.66-.22-7.33-.34-11-.45-2.48-.08-5-.07-7.44-.11-1.9,0-3.79-.06-5.69-.16-.26,0-.49-.42-.74-.64Zm83.12,8.37-.07-.2c-1.27-.21-2.53-.49-3.81-.58a5.68,5.68,0,0,0-1.76.47l.14.2Z"/><path d="M113.88,73l-1.56,2.4c-.16-.23-.65-.66-.74-1.14a28.16,28.16,0,0,1-.52-4.43c0-2.51,0-5,.15-7.54.12-2.23.35-4.46.63-6.67.05-.41.6-.76.93-1.13.18.33.36.66.52,1,.09.18.1.39.19.56.4.67.81,1.33,1.41,2.32-2-.32-1.35.51-1.34,1.12,0,1.15-.09,2.3-.09,3.46,0,1.93,0,3.86,0,5.79,0,.6-.17,1.19-.17,1.79a3.64,3.64,0,0,0,.29,1l1.29-.57-.12-.38,31.45.18c.06,0,.13-.18.2-.29-1.12-.1-2.19-.19-3.26-.31s-2.12-.28-3.19-.42l.07-.48,8.31.64a1,1,0,0,1,0,.2,3.2,3.2,0,0,0-.81.05,4.07,4.07,0,0,0-.76.43c.24.12.48.33.71.33,1.32,0,2.64-.16,3.94-.11.47,0,.9.51,1.38.72s1.19.4,1.78.6a6.63,6.63,0,0,0,.36-1.36c.09-1.75.15-3.5.17-5.25,0-.28-.23-.57-.48-1.11l1.47.42.6-.37c0,.26-.06.44-.1.72l1.47-.21c-.08.92-.18,1.83-.2,2.75,0,.1.45.31.68.29,3.42-.25,6.84-.53,10.25-.81.68-.06,1.35-.15,2-.19,1.15-.06,2.31-.09,3.7-.14-5.21,1.33-10.54,1.17-15.45,2.8l.5-.92c-.93.32-2,.43-2.1.79-.29.89-1.18,1.91.27,2.88.54.36.59,1.42.67,2.18,0,.21-.62.56-1,.7-.59.2-1.24.3-.9-.66.07-.19-.1-.45-.22-.95l-1.55,1.91-.51-.06.46-2.44c-2-.18-4.3-.41-6.57-.56-2.73-.18-5.48-.34-8.21-.4-1.9,0-3.81.1-5.7.17a63.26,63.26,0,0,0-8.71.44c-2.43.44-5.14,0-7.33,1.66-.6.46-2,.11-3,.13h-.47l-1-1.23.12-.26.77.21-.07-.3,9.27-1.34a30,30,0,0,1-3.61-.38c-1.88-.46-3.37.57-5,.88l-1.59.27C113.71,72.61,113.79,72.82,113.88,73Z"/><path d="M248.52,49.48c-.48.28-.72.53-1,.56-1.4.19-2.8.33-4.21.48s-2.53.24-3.79.4c-.67.08-1.31.32-2,.38a4,4,0,0,1-1.18-.29c-.79,1.63-2.08-.36-3.15.11-1.18-1.27-2.59.21-3.92.09,0-.21,0-.41-.05-.61,3.84-.38,7.7-.69,11.53-1.16,3.65-.44,7.3-1,10.94-1.58l-.14-.27c1.28-.21,2.55-.37,3.78-.63.57-.12,1.07-.5,1.64-.64.8-.2,1.65-.22,2.44-.43.35-.09.61-.44,1-.76l3.31-1.29-.17.71,1.49-.62-.71-.46c.65-.18,1.14-.29,1.6-.46s.72-.38,1.1-.5a13.22,13.22,0,0,1,1.64-.37c.31-.06.72.07,1-.06A24.44,24.44,0,0,0,274,39.14l-1.07.35c-.25-.47-.39-1.22-.85-1.47a26.79,26.79,0,0,0-3.47-1.36c-.37-.14-.74-.27-1.11-.38-2.35-.73-4.71-1.45-7.06-2.19-.94-.3-1.85-.65-2.79-1a3.66,3.66,0,0,0-.52-.07l-3.36-.62c0-.14,0-.28.06-.42a7.68,7.68,0,0,1,1.65.05c1.79.44,3.55,1,5.35,1.43,1.1.25,2.52-.08,3.36.43,1.38.84,2.92.91,4.35,1.42s2.73,1.14,4.09,1.7c2.1.87,3.75.37,4.43-1.63a34.18,34.18,0,0,0,.91-4.9,3.39,3.39,0,0,1,.27-.65,3.68,3.68,0,0,1,.54.36c.25.23.46.49.66.71-.08,1-.16,2-.23,2.95l1.08-.05a11,11,0,0,1-.62,2.16c-.18.35-.78.52-1.31.85l.93.38-2.4,2.59a8.13,8.13,0,0,1-1,.81,19.18,19.18,0,0,1-1.76.84c-2,1-4.1,1.89-6.12,2.87-.44.22-.75.73-1.2.85-1.06.28-2.18.33-3.24.6s-2,.67-2.94,1l.29.12Z"/><path d="M67.06,37a3,3,0,0,1,1,.12,18.8,18.8,0,0,0,3.45,1.53c.71.32,1.41.7,2.15,1,1.64.58,3.31,1.1,4.94,1.66,2.41.83,4.81,1.7,7.23,2.53a19.5,19.5,0,0,0,3.15,1c1.5.25,3,.29,4.56.43.2,0,.54.09.57.19.32,1.21,1.45.93,2.35,1.15s2,.65,3,1c.15.05.3.16.44.15a16.37,16.37,0,0,1,3.18-.11l-1.05.61c.44.46.44.46,2.31-.94.34.42.65.85,1,1.24a.7.7,0,0,0,.57,0c.65-.27,1.28-.57,1.92-.86l.22.36-.42.44c1.54.17,3.07.42,4.61.46a11.33,11.33,0,0,0,2.19-.53,5,5,0,0,1,1.31,0c.38,0,.75.12,1.13.19.06,1.44-.32,1.78-2.5,1.79-3.2,0-6.41,0-9.6-.14a40.41,40.41,0,0,1-4.9-.95c-2.55-.47-5.13-.81-7.65-1.36-1.32-.29-2.53-1-3.84-1.36a24,24,0,0,0-3.44-.39l.29-.51-2-.19c0-.15.06-.29.07-.44l4.14.76-.12-.28.23,0L74.33,41l-.08.15c1.66.71,3.33,1.4,5,2.13.21.09.33.37.48.56a3.14,3.14,0,0,1-.69-.07c-2.08-.71-4.19-1.38-6.23-2.16a32.49,32.49,0,0,1-3.06-1.54c-1.15-.59-2.36-1.1-3.44-1.79S64,36.58,62.83,35.72c-.7-.53-1.38-1.06-2.07-1.59-.16-.12-.47-.32-.44-.36a1.46,1.46,0,0,1,.52-.61.78.78,0,0,1,.64.14c1.15.94,2.24,1.94,3.42,2.85A20.41,20.41,0,0,0,67,37.41C67,37.26,67,37.11,67.06,37Z"/><path d="M129.18,50c.31-.18.63-.53.92-.51,2.21.13,4.41.31,6.61.51s4.44.51,6.67.66a4.86,4.86,0,0,0,1.79-.49c2.11-.75,4.14-1.58,5.24-3.58.27-.5.8-1.26,1.22-1.26,2.4,0,1.7-1.7,1.95-2.82a45.5,45.5,0,0,0,1.14-6.3,15.89,15.89,0,0,0-.72-3.82,19,19,0,0,1-.28-2.34c0-.11.3-.35.43-.34A1.33,1.33,0,0,1,155,30a6.39,6.39,0,0,1,1.15,1.89,16.84,16.84,0,0,1,.72,3.75c.16,3.23-1,6.23-2.28,9.17a24.81,24.81,0,0,1-3.09,5.8c-1.25,1.59-3.92,3.54-5.59,3.69l-2.41.6-.08-.22a33.5,33.5,0,0,0,3.81-2,9.58,9.58,0,0,0,2.63-2.92c-1.9.58-3.78,1.19-5.69,1.74-1.24.36-2.5.67-3.75,1a21.32,21.32,0,0,1-2.81.66,6.5,6.5,0,0,0-2,.14c-.82,0-1.63.08-2.45.14-.59,0-1.17.15-1.76.19a2.66,2.66,0,0,1-.65-.11c.12-.17.21-.46.35-.48,1.82-.29,3.65-.54,5.47-.81.4-.06.78-.19,1.51-.37a6.34,6.34,0,0,0-1.69-.78,14.88,14.88,0,0,0-4.35-.09,2.52,2.52,0,0,1-2.86-1Z"/><path d="M169.31,58.22a6,6,0,0,1,.66-.85c2.27-2,4.63-4,6.78-6.16a9.32,9.32,0,0,0,1.35-2.74,1.86,1.86,0,0,1,.27-.33c.12.11.29.21.34.34a10.13,10.13,0,0,1,.27,1h.56c.73-4.38,1.46-8.77,2.22-13.32,1.44-1.4-1.4-2.17-.87-3.58l.92.28.94-.6c.35.47,1.06,1,1,1.39-.27,1.93-.77,3.83-1.17,5.74,0,.16-.14.37-.06.49a14.24,14.24,0,0,1,1.08,1.78,1.7,1.7,0,0,1-.18,1.22,39.51,39.51,0,0,1-3,6,34.91,34.91,0,0,1-4.83,5.12,61.58,61.58,0,0,1-4.91,4c-.3.23-.88.14-1.33.2Z"/><path d="M191.79,63.89l.73.2c0,.08,0,.16,0,.24l-3.81.43-.09-.18,2-.71-2.47-.27-.07-.47,3.52-.53c0,.2,0,.39,0,.69l1.56.29-1.18-.75,4.65-1.56.17.33-1.88,1.05.06.2c.29-.09.58-.2.88-.28s.48-.09.72-.15.7-.09.76-.24c.29-.72.63-1.17,1.63-.84.3.1.76-.16,1.13-.3L205,59.16a7.75,7.75,0,0,1,1.32-.46c.17,0,.41.23.35.19l3.73-1.05c0-.09.07-.38.12-.67.4.08.8.16,1.2.22.22,0,.58.12.67,0,1.26-1.38,3-1.56,4.76-1.46a8.06,8.06,0,0,1,1,.17l-.53.9-.42-.22-1.23.61-.22-.3-.23.48-6.57,2.1.74.13c0,.08,0,.15,0,.23l-1.8,0a3.29,3.29,0,0,0-.9,0c-1.13.33-2.25.68-3.35,1.06-.52.17-1,.5-1.49.63-2.44.63-4.87,1.24-7.33,1.78A27,27,0,0,1,191.79,63.89Z"/><path d="M226.89,47.79l-1.56-.18c0-.11,0-.22,0-.33l2.24-.6c-.06-.1-.14-.46-.35-.54s-.55.1-1,0l1.11-.75a2.62,2.62,0,0,1,0-.83c0-.1.48-.11.59-.46l1.69-.71-1.18-.83,1,0c.09-.77.16-1.4.23-2.08l.58.13a1,1,0,0,0,.06-.09c-1.23-1.49.85-.93,1.11-1.5a1.63,1.63,0,0,0,.1-.27,3.34,3.34,0,0,1,.2-.74.79.79,0,0,1,.56.1c.25.28.67.69.6.94a32,32,0,0,1-1.67,4.78,26.46,26.46,0,0,1-2.51,3.9,17,17,0,0,1-2,2.41c-1.44,1.4-2.83,2.89-5,3.5-.17,0-.25.36-.58.89a16.44,16.44,0,0,1-1.49,1,1.9,1.9,0,0,1-1.06.16,9.85,9.85,0,0,1-2-.44c3.08-.57,4.65-3.63,7.85-4l-.72-.21C224.75,50,225.77,48.94,226.89,47.79Z"/><path d="M120.94,29.07c-5,.06-10-.42-15.12.22.08-.53.15-1.05.23-1.57l1.62.25.56-.28.93-.44c.06.27.1.48.1.51,1.94.45,4-.72,5.74.61a2.52,2.52,0,0,1,3.06-.34c.93.85,1,.27,1.1-.42L132,27.13l0,0A9.31,9.31,0,0,1,134,27c.49.09.9.55,1.35.84l-.19.36c-1.45,0-2.9-.07-4.35-.08s-2.77,0-4.16,0c-.39,0-.73.5-1.13.53-1.41.1-2.83.09-4.24.15C121.17,28.87,121,29,120.94,29.07Z"/><path d="M203.4,41.64c-.05-.17-.29-.51-.2-.71a6.65,6.65,0,0,1,2.8-3.37l-.36-3.18a1.56,1.56,0,0,1,2,1.41,5,5,0,0,1-1.07,3.58c-1,1.22-1.69,2.62-2.67,3.83a9.21,9.21,0,0,1-2.14,1.66,11.43,11.43,0,0,1-2.07,1.1c-1.42.56-2.86,1-4.31,1.55-.33.11-.71.11-1,.23-.81.31-1.58.58-2.09-.64l1.62.18-.37-.58C197.43,46,200.52,43.92,203.4,41.64Z"/><path d="M251.86,14.76l2.25-.38-1.81-.76.14-.36,2.8.66-1.12.5a10,10,0,0,1,2.33.07c1.28.39,2.49,1,3.74,1.43.5.18,1.07.2,1.59.36q2.35.72,4.68,1.5c.83.28,1.64.63,2.46,1,1.72.68,3.45,1.34,5.16,2a1.65,1.65,0,0,1,.59.5,1.6,1.6,0,0,1,.18.5,1.82,1.82,0,0,1-.65-.08c-.6-.33-1.18-.71-1.63-1l-.85,1.08a26.6,26.6,0,0,0-3.37-1.87c-2.35-.91-4.76-1.69-7.16-2.46-1.78-.57-3.6-1.05-5.4-1.57l-3.93-1.14Z"/><path d="M208.57,54.24l6.6-1.85.15.39a59.48,59.48,0,0,1-6.34,3,59.29,59.29,0,0,1-6.79,1.52l.42.35c-3.26.49-6.42.94-9.56,1.42-1.3.2-2.58.47-3.88.66-.25,0-.54-.16-.81-.24.22-.14.42-.37.66-.4,1.74-.25,3.5-.42,5.22-.72a16.13,16.13,0,0,0,1.83-.75,1.38,1.38,0,0,1,1.19.3l11.34-3.42C208.58,54.39,208.58,54.31,208.57,54.24Z"/><path d="M129.17,49.95A3.85,3.85,0,0,1,126,51.68l-1.54,0,1.31-.75-.07-.18a2.92,2.92,0,0,0-1,.33c-1.14,1-2.49.57-3.81.62a20.59,20.59,0,0,0-4,.78,6.66,6.66,0,0,0-1.77.68c-.34.2-.52.62-.94,1.16l-1.65-.3a13.63,13.63,0,0,1,1.53-1.57,6.5,6.5,0,0,1,1.54-.64c.76-2.54,3.44-.69,5.12-2.07-.23.49-.27.58-.32.67a2.21,2.21,0,0,1-.22.25,1.12,1.12,0,0,0,.29.05c1.47-.23,2.93-.54,4.41-.68s2.85-.08,4.27-.11Z"/><path d="M153.27,66.49c0,.09,0,.27,0,.51l.85-.15c-1.18,1.5-14.46.89-15.55-.76l1.9,0c.58-.23.81-.42,1-.39,1.47.25,2.92.66,4.4.79,1.81.16,3.67.13,5.51.14A19,19,0,0,0,153.27,66.49Z"/><path d="M127.76,56.85a3.57,3.57,0,0,1,0-1.11,4.24,4.24,0,0,1,.7-1c.27.44.55.88.81,1.33.17.3.33.6.49.9s.32.4.28.56a6.67,6.67,0,0,0,1.31,6.18c.14.17,0,.5,0,.75-.35-.06-.9,0-1-.19a27.37,27.37,0,0,1-2.35-4.16,13.26,13.26,0,0,1-.47-3.3Z"/><path d="M119.81,65.07a27.41,27.41,0,0,1-.66-3.85,47.89,47.89,0,0,1,.26-5.61c0-.37.52-.72.81-1.07.32.33.94.69.92,1-.21,2.59-.55,5.17-.81,7.76a7.33,7.33,0,0,0,.18,1.66Z"/><path d="M117,64.6c-.07-.51-.19-1-.21-1.53-.1-2.65-.2-5.3-.23-8,0-.37.35-.75.55-1.12.47.42,1.38.86,1.35,1.26-.13,2.42-.48,4.83-.75,7.25-.08.68-.14,1.35-.21,2Z"/><path d="M175.81,49.78a21.78,21.78,0,0,1-4.16,1.85,15,15,0,0,1-4.81.15,22.26,22.26,0,0,1-4.65-1.22c2.27,0,4.56.26,6.82.08a66.73,66.73,0,0,0,6.6-1.14Z"/><path d="M122.73,61.87c0-2.48.1-5,.15-7.63a3.34,3.34,0,0,1,1.28.11,1.18,1.18,0,0,1,.47,1c-.23,1.93-.52,3.85-.85,5.77-.06.31-.38.59-.58.89Z"/><path d="M161.59,53.23c1,0,1.94-.12,2.92-.15,2-.07,4.1-.17,6.15-.17a3.58,3.58,0,0,1,1.81.66,26.11,26.11,0,0,1-10.84.09Z"/><path d="M146.66,28c.86-1.65,1,.42,1.51.5-2-.14-4-.32-5.94-.41s-3.84-.09-5.69-.12l.16.24-.84.08C135.59,27,135.59,27,138,27a23,23,0,0,1,2.88.13C142.81,27.35,144.74,27.68,146.66,28Z"/><path d="M165,59.63a19,19,0,0,1-9.58-.76c.89,0,1.77,0,2.66-.06,1.35-.05,2.7-.14,4.05-.18a13,13,0,0,1,2.39.09c.21,0,.31.6.46.92Z"/><path d="M160.57,62.95l1.55-1.39c1.71-.13,2.21-1.14,2.88-1.93h0c1,.82,1.61-.2,2.35-.49s1.32-.61,2-.92h0c-.9.73-1.75,1.53-2.72,2.18a29.15,29.15,0,0,1-3.4,1.92,5.13,5.13,0,0,1-1.54.21l.62.44-1.18.29Z"/><path d="M162.64,57.21l.5-.54-3.13-.3c0-.15,0-.29.06-.44,1.9.19,3.78.42,5.68.53a16.9,16.9,0,0,0,2.13-.35,2.83,2.83,0,0,1,1,.33c-.28.29-.54.83-.83.83C166.32,57.32,164.58,57.25,162.64,57.21Z"/><path d="M51.54,44.95a2.26,2.26,0,0,1-.15-.51c-.15-1.63-.34-3.25-.39-4.88,0-.27.6-.54.92-.82.16.24.47.48.45.71-.1,1.4-.28,2.79-.42,4.18,0,.36,0,.72,0,1.09Z"/><path d="M48.87,44.13c-.21-1.54-.48-3.07-.59-4.62,0-.39.5-.81.77-1.22.21.41.6.83.6,1.24,0,1.34-.14,2.68-.25,4a2.54,2.54,0,0,1-.22.63Z"/><path d="M54.58,44.28c-1-2.21-.74-4.32.44-4.78C55.9,40.52,55.9,40.52,54.58,44.28Z"/><path d="M152.9,61.81c.36,0,.73-.07,1.09-.08l3.56-.06c.24,0,.53-.13.72,0,.51.21,1,.5,1.46.75a5.58,5.58,0,0,1-1.37.28c-1.8-.08-3.59-.24-5.38-.36C152.95,62.13,152.92,62,152.9,61.81Z"/><path d="M147.68,63.56c1.55.24,3.1.46,4.65.72.11,0,.29.33.25.37s-.35.33-.5.31c-1.52-.24-3-.51-4.53-.78Z"/><path d="M61.37,46.06c-.14.1-.35.38-.59.41s-.64-.19-.67-.35a7.38,7.38,0,0,1-.18-1.9c0-.22.4-.42.6-.63a5.57,5.57,0,0,1,.52.94A11.82,11.82,0,0,1,61.37,46.06Z"/><path d="M188.35,48.58c.69-.26,1.36-.54,2.06-.75a2.07,2.07,0,0,1,.9,0,3.33,3.33,0,0,1,.71.28,3.59,3.59,0,0,1-.74.54,3.77,3.77,0,0,1-1,.18c-.64.06-1.27.09-1.91.13C188.34,48.82,188.35,48.7,188.35,48.58Z"/><path d="M24.5,23a5.28,5.28,0,0,1-.7-1.15c0-.13.37-.39.58-.59a4.06,4.06,0,0,1,.39.62,9.18,9.18,0,0,1,.76,2.83c-.45-.45-.91-.88-1.33-1.36C24.16,23.35,24.46,23.08,24.5,23Z"/><path d="M181.52,60.37c1.12-.21,2.23-.44,3.36-.62.81-.13,1.62-.22,2.44-.3a2,2,0,0,1,.54.1c-.15.15-.27.41-.44.44-1.78.26-3.57.49-5.36.71a2.29,2.29,0,0,1-.47,0Z"/><path d="M57.68,45.55l.35.24L56.93,47c0-1.28,0-2.19.09-3.1a.78.78,0,0,1,.57-.13c.22.15.48.42.47.64A4.43,4.43,0,0,1,57.68,45.55Z"/><path d="M135.74,65.52c-1-.21-2.39,1.37-3.47-.35l-.61-.11.06-.31Z"/><path d="M251.87,14.75l-3.47-.45a6.36,6.36,0,0,1,1.46-.49c.3,0,.6.22,1,.13l-.75-.66c1,.38,2.31.05,1.73,1.48Z"/><path d="M32.87,23.16a6.25,6.25,0,0,1-1.14.59c-.1,0-.48-.29-.46-.4A10.27,10.27,0,0,1,31.74,22Z"/><path d="M214.57,51.88a8.26,8.26,0,0,0,1.08-.49,12.72,12.72,0,0,0,1-.81c0,.46.14,1-.11,1.34s-.9.14-1.37.16A2.12,2.12,0,0,1,214.57,51.88Z"/><path d="M40.13,22.32l-1.21.94c-.11-.22-.37-.47-.32-.64a5.6,5.6,0,0,1,.63-1.07Z"/><path d="M207.86,5.92l.2-.15,2.85.3-.15.39h0Z"/><path d="M160.57,62.95l.51.31-2.35,1.56-.61-.67,2.27-.54-.61-.72Z"/><path d="M82.64,45c-.21,0-.47.11-.63,0-.64-.31-1.24-.68-1.86-1,.12-.09.29-.27.35-.25.73.31,1.44.64,2.15,1C82.65,44.78,82.65,44.87,82.64,45Z"/><path d="M60.9,48.77c-.23-.47-.49-.93-.67-1.41a.61.61,0,0,1,.21-.49c.24,0,.66.11.68.22a12.91,12.91,0,0,1,.1,1.65Z"/><path d="M32.22,26.07l-.36-.22,0-.07c0-.54-.09-1.07-.13-1.61a2.08,2.08,0,0,1,.5.09C32.23,24.86,32.22,25.47,32.22,26.07Z"/><path d="M249.22,31.33l3,.71c0,.13-.07.25-.1.38l-3-.72C249.16,31.58,249.19,31.45,249.22,31.33Z"/><path d="M210.75,6.48l1.5,0c0,.16,0,.32,0,.49l-2,.28.5-.81Z"/><path d="M153.33,27.88l2.45-.28c0,.05,0,.11,0,.16l-1.17.14.64.37-1.84-.15Z"/><path d="M161.61,29.46l-.34.2a5.48,5.48,0,0,1-.64.33s-.24-.21-.22-.26a4.77,4.77,0,0,1,.46-.65l-.26-.69.27-.15.7,1.23Z"/><path d="M97.28.68,100,.54c-.08.08-.31.43-.4.4-.74-.24-1.67.82-2.27-.27Z"/><path d="M65.36,47.13c-.37.19-.65.38-.69.34a2.11,2.11,0,0,1-.57-.68c0-.08.24-.28.37-.42Z"/><path d="M184.75,64.08c.41-.11.81-.25,1.23-.32.07,0,.19.24.29.37l-1.37.38Z"/><path d="M97.29.68,94.94.92c.52-.36.78-.69,1-.67a6,6,0,0,1,1.34.44Z"/><path class="b" d="M182.07,45.43a118.13,118.13,0,0,0,22-5.11"/><path class="b" d="M72.4,40.77c26.09,4.22,52.49,7,79,6.67"/><path d="M37.51,27.26l1.77-.43c1.16-.29,2.85-.65,5-1.12s4.8-1,7.83-1.5,6.46-1.08,10.2-1.66c1.87-.28,3.83-.52,5.85-.8s4.11-.56,6.27-.77l6.64-.73c2.27-.23,4.59-.4,6.94-.61,4.71-.45,9.6-.69,14.56-1,2.48-.18,5-.23,7.49-.32l7.56-.25,15.06-.1,14.58.34L160.9,19c2.17.09,4.27.26,6.3.44l5.89.49c3.77.34,7.23.55,10.27,1l7.91.92,6.89.8,0,.22-6.9-.77-7.9-.88c-3.05-.39-6.52-.58-10.28-.9l-5.88-.46c-2-.17-4.13-.33-6.3-.41l-13.61-.64-14.57-.26-15,.17-7.54.29c-2.51.1-5,.16-7.48.35-5,.33-9.83.58-14.53,1.06-2.35.22-4.67.4-6.93.64l-6.62.76c-2.15.23-4.24.52-6.26.8s-4,.53-5.84.82c-3.73.6-7.15,1.13-10.17,1.71s-5.64,1.09-7.8,1.53-3.84.85-5,1.14l-1.75.44Z"/><path class="c" d="M279.25,33.89s3-10.56-12.79-16.1"/><path d="M254,14.67l-2.18-.61c-1.39-.4-3.4-.82-5.8-1.4l-3.88-.91c-1.38-.31-2.85-.55-4.37-.85L228.3,9.12l-2.43-.46c-.81-.14-1.62-.24-2.43-.36l-4.72-.68-8.35-1.2-8.16-1.17,0-.22,8.16,1.13,8.37,1.16,4.73.65c.8.12,1.61.21,2.43.35l2.43.44,9.53,1.74c1.52.29,3,.52,4.38.82l3.9.89c2.41.57,4.44,1,5.82,1.37l2.19.6Z"/></svg>