<svg xmlns="http://www.w3.org/2000/svg" viewBox="0 0 275.79 76.2"><defs><style>.a{fill:#fff;}.b,.c{fill:none;stroke:#000;stroke-miterlimit:10;}.b{stroke-width:1.01px;}</style></defs><title>handle-3</title><path class="a" d="M274.85,29.27c-3.21-5.75-7.3-10.6-13.85-12.57-5.27-1.59-10.59-3.07-16-4.18q-14.55-3-29.2-5.44C203.32,5,190.77,3.22,178.24,1.33a11,11,0,0,0-2,.06c-2.41.08-4.83.32-7.24.22-4.74-.19-9.47-.75-14.22-.83s-9.49-1-14.34,0c-2.72.56-5.68-.1-8.53-.17a441.16,441.16,0,0,0-53.28,2.1c-9.45.89-18.86,2.15-28.31,3.09a234.59,234.59,0,0,0-32.14,5.71,35.08,35.08,0,0,0-6.29,1.84C9.35,14.48,7,16.13,4.48,17.48a5.83,5.83,0,0,0-3,4.83c-.15,1.19-.13,2.41-.24,3.61-.2,2.31-.61,4.61-.61,6.92,0,4.55,2.41,7.45,6.9,8.72a23.11,23.11,0,0,1,3.59,1.29c3.69,1.74,7.4,3.33,11.58,3.45a15.52,15.52,0,0,1,2.88.68c3.94.9,7.49,3,11.6,3.47A125,125,0,0,1,50.85,53a84.48,84.48,0,0,0,16.57,2.63c2.6.1,5.46.31,7.69,1.47a60.07,60.07,0,0,0,19.16,5.81,76.77,76.77,0,0,1,14.82,4c-.15,3-.81,5.75,0,8.16,2.06-1,3.7-2,5.42-2.68a14.45,14.45,0,0,1,3.53-.85c7.24-1,14.49-2.68,21.74,0a3.13,3.13,0,0,0,1,0c4,.07,8.09.08,11.26,3.83.2-2.34.39-4.68.63-7.43,2.69,0,5.48.41,8.1-.07,9.8-1.79,19.76-3.14,29-7.07,5.72-2.43,11.86-4,16.77-8.21a5.21,5.21,0,0,1,2.73-.91c9.44-1,18.92-1.6,28.32-2.84,9-1.19,18.07-2.78,26.51-6.57,2.93-1.32,5.82-2.74,8.78-4.14V32.93C274.09,31.86,276,31.4,274.85,29.27Zm-33.5,11c-8.37,3.2-17.09,1.17-26,3.22,1-2.57,1.27-5.08,2.51-5.79a15.57,15.57,0,0,1,7.53-1.81c4.1,0,8.19.82,12.28,1.27,1.85.2,3.72.31,5.56.58a5.63,5.63,0,0,1,1.62.84l-.27.76-5.36-.83-.19.34ZM48.87,34.34l19.38-2.72,1,2.88.73-1,1.1,4.09-1.2-1-.6,1.42C62.47,36.92,55.47,37.12,48.87,34.34Zm15.7-18,.33.13-.33-.13Zm-.19-.44h0Zm-5-.7a1.78,1.78,0,0,1-.3-.11A1.84,1.84,0,0,0,59.39,15.24Zm0,0,.3,0Zm.35.05h0Zm.36,0,.28,0Zm.38-.05.25-.05Zm.44-.1h0Zm4,1.4.27.08Zm.38.11a1.35,1.35,0,0,0,.35,0A1.39,1.39,0,0,1,65.37,16.66ZM173.91,40.53s-.11.13-.08.18c.13.24.3.46.46.69a3.12,3.12,0,0,1-.59.16c-5.28.38-10.54.86-15.83,1.07-3.51.14-7-.19-10.56-.17-2,0-3.94.49-5.9.44-8.39-.23-16.77-.64-25.15-.86-3.3-.09-6.62,0-9.92.24-2.72.2-4.15-1.12-4.83-3.5-.73-2.54-1.46-5.09-2-7.68-.24-1.18-.81-1.46-1.65-1.43l-.38.1-.06-.07.44,0a20.13,20.13,0,0,1,4.2-1c4.71-.25,9.43-.17,14.14-.41,5.47-.29,10.93-1.07,16.4-1.12,7.93-.07,15.87.35,23.8.49a23.17,23.17,0,0,0,3.67-.51l-.06-.54,1.8.34h0c1.44,1.67,3.24,1.55,5.1,1.61,4.27.15,8.53.6,12.79.93a3,3,0,0,0,1,.08c3.53-1,6.63.13,9.58,2-.4,4.34-2.89,6-7.54,7.45A70.5,70.5,0,0,1,173.91,40.53ZM157.5,26.06l1.31.25h-2.22A1,1,0,0,1,157.5,26.06Z"/><path d="M81.61,50.23A1.76,1.76,0,0,1,80,47.83c-1.69-1.44-3.38-2.87-5-4.33a2.35,2.35,0,0,0-2.79-.41,1.28,1.28,0,0,1-.75-.06,1.23,1.23,0,0,0-1.63,1c-.21,3,.11,5.86,2.15,8.21a13.54,13.54,0,0,0,5.09,3.33,2.05,2.05,0,0,1,.84.68l-2.58-.46-.1.31a12.55,12.55,0,0,0,6.5,3.23l-.2.49c-1.52-.54-3.09-1-4.56-1.64A13.31,13.31,0,0,1,71,53.06c-.5-.79-1.26-1.42-1.83-2.17s-1.11-1.6-.47-2.63a.62.62,0,0,0,0-.47,9.11,9.11,0,0,1,.36-6.26,1,1,0,0,0-.52-.85c-1.29-.33-2.62-.54-3.93-.8-.39-.08-.76-.17-1.15-.26-.74-.17-1.48-.36-2.23-.52-1.09-.23-2.19-.41-3.28-.66-.79-.18-1.56-.49-2,.54-.06.12-.35.14-.53.2l0,0,.18-1.2c-2.09-.22-4.14-.4-6.17-.68a30.27,30.27,0,0,1-3.38-.73c-1.81-.46-1.91-.36-2.18,1.46a27.5,27.5,0,0,1-1.09,4.45c.2-2-.66-4.17.93-6.17a13,13,0,0,0-1.35-.5,1.67,1.67,0,0,0-.71.08c-3.25.72-2.85.4-3.58,3.67a16.51,16.51,0,0,1-.54,1.69c-.34,1,0,1.6,1.07,1.79.88.16,1.75.36,2.62.55,0,.11,0,.22,0,.34l-1.18.59c3,1.1,5.92,1.27,8.65,2.22l0,.31a4.45,4.45,0,0,1-1.28.07c-3.7-.9-7.38-1.83-11.07-2.76A3,3,0,0,1,35.29,44a4.75,4.75,0,0,1-.77-1.22,3.29,3.29,0,0,0-.51.1c-2,.59-3.23,0-4.09-2a12.06,12.06,0,0,0-1.13-1.78c1.26-1.15,3-1.25,3.59-3A.92.92,0,0,1,33,35.7q10-2.17,20.1-4.29c2.58-.54,5.16-1,7.76-1.46,2.14-.34,4.3-.6,6.46-.75,1.44-.1,2.89.13,4.34.09a14.47,14.47,0,0,0,3.54-.59L74,28.15c.35-.21.6-.49.86-.5,3.18-.13,6.37-.18,9.55-.33,2.07-.09,4.14-.32,6.2-.44s4-.12,5.93-.25,4.12-.34,6.18-.5l8.78-.69c.06,0,.12.09.31.24l-1.18.45c0,.11,0,.21,0,.32,1.25,0,2.5.13,3.75.11,6.15-.1,12.3-.32,18.44-.32,3.9,0,7.79.4,11.69.46,2.5,0,5-.15,7.52-.29,2.3-.13,4.59-.44,6.85.34.2.07.49-.21.74-.22a2.6,2.6,0,0,1,.74.18c0,.12,0,.24,0,.36a16,16,0,0,1-2.33.39c-2,0-4.1,0-6.15,0q-3.55,0-7.11,0a9.24,9.24,0,0,1-2.52.06c-1.51-.44-3-.06-4.48-.16s-3.08-.26-4.62-.33c-1.18-.05-2.35,0-3.53,0-.7,0-1.41-.13-2.1-.08a4.49,4.49,0,0,0-1.2.46L126,27a7.47,7.47,0,0,1-1.64.65,16.87,16.87,0,0,1-4.12.27,9.4,9.4,0,0,0-4.54.33,1.4,1.4,0,0,1-.79.15,6.29,6.29,0,0,0-4.93,0,1.51,1.51,0,0,1-.56,0L109,27l-.2.05v1.33l-.23,0-.22-.34a18.94,18.94,0,0,1-2.63.49c-1.43.06-2.87,0-4.3-.06-.33,0-.64-.36-1-.58-1,1.11-1.77,1.22-2.93.18l.22,1a3.25,3.25,0,0,1-.88.21,15.6,15.6,0,0,1-2.14-.22c-.37-.07-.7-.39-1.07-.42a2.77,2.77,0,0,0-1.55.13,2.09,2.09,0,0,1-2.4.1,5.9,5.9,0,0,1-1.4.52c-2.25.16-4.51.17-6.75.39-3.7.36-7.39.84-11.27,1.29l1.41,4.18L71,34.73a19.6,19.6,0,0,0,2.51,5.71c2,2.67,4.63,4.46,7,6.64,1.05,1,1.76,1.75,1.15,3.18ZM62.89,31.55c-1.39,1.41-5,2.09-6.5,1.26a2.06,2.06,0,0,1-2.24.76c-.28-.08-.58-.31-.83-.26-1.73.34-3.45.74-5.16,1.13a3.24,3.24,0,0,0-.63.35c.42.21.7.48.95.45.79-.08,1.5-.08,2,.7.07.12.36.13.55.15,2.37.26,4.74.5,7.1.78,1,.12,2,.38,3.06.49,1.94.22,3.9.3,5.83.59.75.11,1.8,0,2.19,1.17a4.48,4.48,0,0,0,.2-1.86c-.26-1.45-.7-2.87-.94-4.33s-.38-1.47-1.72-1.25-2.54.34-3.84.52C62.89,32,62.89,31.8,62.89,31.55Zm-26,10.62c.13-1.23.29-2.43.37-3.64a3.81,3.81,0,0,0-.29-1.13c-.36.3-.88.53-1,.91a18.89,18.89,0,0,0-.53,2.3C35.09,41.64,35.32,42.26,36.85,42.17ZM69.32,31.86l-.47.09c.39,2.45.35,5,1.9,7.13l.41-.11ZM34.2,41.6l.32-.3c-.1-.86-.19-1.72-.3-2.67a8.79,8.79,0,0,0-1.72.61c-.2.12-.34.79-.22.91A21.28,21.28,0,0,0,34.2,41.6Zm35.61-.83-.16.36c.29.1.75.37.85.27.88-.85,1.39-.33,1.91.39.11.15.34.22.64.4C72.5,40.07,71,40.81,69.81,40.77Z"/><path d="M197.29,30.31c.32.88-.05,1.12-.9,1.1-1.44,0-2.88,0-4.36,0,0,.05-.15.17-.14.25.58,3.14-1.44,4.9-3.59,6.46-2.38,1.74-4.87,3.33-7.37,4.88-1,.63-2.23.94-3.31,1.48-2.27,1.13-4.48,2.38-6.77,3.46s-4.4,1.9-6.62,2.8c-1.21.49-2.44,1-3.69,1.37-3.88,1.2-7.77,2.38-11.68,3.49-1.32.38-1.86-.17-1.8-1.53s-.22-1.7-1.57-1.93c-2.05-.35-4.09-.84-6.16-1-1.85-.17-3.74,0-5.61,0-1.14,0-2.28-.14-3.41-.12-3.27.05-6.53.17-9.8.22-.86,0-1.73-.2-2.6-.17a10.55,10.55,0,0,0-3,.57c1.63,1.68,3.84,1.86,5.9,2.91-.31.08-.65.29-.92.22-1.38-.36-2.72-.88-4.1-1.19-2.5-.55-4.39-2.07-6.28-3.65A25.68,25.68,0,0,0,107,48.21l-.06,1L102.48,44l-.26.11,1,5-.16.13a9,9,0,0,1-.95-1.22,39.16,39.16,0,0,1-3.41-9.37,61.75,61.75,0,0,0-2.22-6.21l.54.27c.16-.72.34-1.4.45-2.1.17-1.1.34-1.21,1.36-.82.41,1.79.8,3.5,1.21,5.21a19.93,19.93,0,0,0,2.23,6.26,2,2,0,0,0,1.89,1c1.68,0,3.35.22,5,.23.71,0,1.41-.42,2.11-.42,2.53,0,5.07.07,7.6.23,3.8.25,7.59.72,11.4.86,2.76.1,5.53-.19,8.3-.26,1.08,0,2.17.12,3.26.16a19.3,19.3,0,0,0,2.36,0c.71-.06,1.41-.34,2.12-.37s1.62.1,2.44.14c.31,0,.63-.09.95-.1,2.09,0,4.18,0,6.26,0,2.4,0,4.8.13,7.2.13.66,0,1.32-.38,2-.34a31.5,31.5,0,0,0,6.22-.71c1.09-.15,2.2-.06,3.3-.16a7.33,7.33,0,0,0,1.46-.44l-.08-.35-2.57.16q0-.18,0-.37c1.73-.24,3.48-.44,5.2-.74,2-.34,4-.71,5.94-1.2a5.74,5.74,0,0,0,1.62-1.08c.1-.07.17-.2.27-.22,2.69-.64,3.16-3.21,4.38-5.1.35-.55,0-1-.72-1.36s-2,.08-2.32-1.17c0,0-.37,0-.55,0-.41-.13-.8-.3-1.45-.56.11,0-.2.13-.31,0a1.34,1.34,0,0,0-1.92-.08c-.21.17-.63.37-.75.28-1-.72-2,.3-3-.14-.1,0-.3,0-.35,0-1-1.12-2.24-.23-3.35-.4a34.64,34.64,0,0,0-3.64-.19s-.08,0-.12,0c-2.37-.83-4.8-.18-7.19-.26a19.37,19.37,0,0,0-3.23.42l-.1-.38,2.23-.77-.07-.36-3.15-.3c0-.15,0-.31,0-.46a9.8,9.8,0,0,1,1.54-.13c4.54.31,9.08.66,13.61,1,3.24.22,6.49.37,9.73.6a3.36,3.36,0,0,1,1.11.55c.11-.46.47-.64,1.25-.51,2.05.34,4.13.53,6.19.79l1.87.24-.43.89,1.51.29ZM141.66,49.72s.16.51.37.54c1.26.17,2.53.2,3.8.34,1.44.17,2.87.4,4.31.62a.66.66,0,0,1,.28.19,3.53,3.53,0,0,0,4.33.67,10.06,10.06,0,0,1,2.3-.63c3-.7,6-1.25,8.93-2.15a41.22,41.22,0,0,0,5.63-2.57c.64-.31,1.23-.74,1.85-1.09,1.51-.85,3-1.69,4.53-2.55a2.41,2.41,0,0,0,.45-.48c-1.31.1-2.47.2-3.63.26-4.05.22-8.1.48-12.16.63-5.64.21-11.28.4-16.93.47-5.05.06-10.11,0-15.17-.11-2.55,0-5.1-.29-7.65-.35q-7.23-.15-14.46-.18c-1.36,0-2.72.19-4.4.31L110.3,49a13.08,13.08,0,0,1,1.24.7c.9.62,1.74,1.27,2.91.46a3.37,3.37,0,0,1,1.49-.38A144,144,0,0,1,135,49.15c1.16,0,2.31.25,3.47.36C139.5,49.6,140.51,49.64,141.66,49.72Zm7.55,4.66c-.4-.36-.6-.68-.83-.7s-.45.28-.68.45c.18.21.32.55.54.6S148.74,54.57,149.22,54.38Z"/><path d="M32.18,9.19a2.27,2.27,0,0,1-1.91,1.21,46.79,46.79,0,0,0-6.33,1.08c-.76.18-1.53-.31-2.31.32A11,11,0,0,1,19.09,13c.41.6.56.94-.26,1.17-2.29.64-4.59,1.29-6.82,2.1-2.56.92-5,2-7.81,3.15l.89.73a4.33,4.33,0,0,1-.39.27A6.06,6.06,0,0,0,1.46,26a23,23,0,0,1-.21,3.58c-.47,2.47.57,4.5,1.64,6.55.09.17.27.31.33.49.57,1.54.56,1.54,2.27,1.87a3.9,3.9,0,0,0,.44-1.16c.08-2.13,1.9-2.83,3.29-3.45,3.62-1.61,7.38-2.91,11.13-4.21q5.86-2,11.8-3.82C35,25,37.91,24.27,40.81,23.6c1.31-.3,2.7-.28,4-.48.8-.12,1.56-.47,2.36-.58a3.76,3.76,0,0,1,1.28.32c0-.68.54-.71,1.32-.79,2.63-.28,5.24-.71,7.87-1,1.27-.16,2.55-.23,3.82-.35,2.76-.27,5.51-.57,8.27-.83q5.36-.51,10.72-1a2.71,2.71,0,0,1,.94.29c-.23.22-.43.59-.69.64-1.16.18-2.34.28-3.51.4-2.32.23-4.64.44-7,.69q-2,.21-4,.5-4.48.64-8.95,1.32c-2.82.43-5.65.88-8.46,1.37a2.26,2.26,0,0,0-.92.63c-.23.2-.37.63-.61.68-2.16.49-4.33.91-6.5,1.35-2,.41-4,.78-6.05,1.24-3.33.75-6.67,1.49-10,2.34-2.91.75-5.81,1.55-8.66,2.49a52.08,52.08,0,0,0-6.93,2.79C8.31,36.06,7.74,37.21,7,38l.45.14a6.08,6.08,0,0,0,.34,1.19,2.7,2.7,0,0,0,.83,1.12,13.72,13.72,0,0,0,2.55,1.18c2.34.81,4.71,1.56,7.07,2.3,1.17.37,2.36.7,3.55,1,2.53.71,5.06,1.44,7.61,2.12q2.93.78,5.88,1.45c2.65.6,5.32,1.12,8,1.73,1.28.3,2.53.74,3.8,1.11,0,0,.06.08.09.08,4-.17,7.72,1.82,11.74,1.41a7.08,7.08,0,0,1,2.48.25c.4.1.73.59,1,1a4.39,4.39,0,0,1,.32,1.21l1.09-1-1.21-.52c.3-.21.58-.58.83-.56,1.2.1,2.39.3,3.58.46l.09.35a15.77,15.77,0,0,0-1.57.89c-.2.15-.26.49-.42.81l-.62-1.49-.25,0L64,55.46c-1.88.19-5.2-.49-5.62-1a3.54,3.54,0,0,1-1.05.13c-1.52-.33-3-.72-4.54-1.08-.49-.12-1-.23-1.47-.32-2.34-.4-4.68-.76-7-1.19-2.1-.38-4.19-.83-6.29-1.24-1.64-.32-3.33-.49-4.92-1-.83-.25-2,0-2.45-1.22,0-.08-.36,0-.54-.08-.45-.09-.91-.18-1.35-.3-1-.29-2-.58-3-.91a8.5,8.5,0,0,0-1.86-.7c-1.13-.07-2.17-.63-3.42-.28-.81.22-1.87-.35-2.8-.65-2-.64-3.92-1.32-5.87-2a2.92,2.92,0,0,1-.82-.47c-1-.8-2-1.49-3.42-1-.11,0-.34-.24-.51-.38.15-.1.43-.22.42-.3a3.34,3.34,0,0,0-2.67-1.89l2.29,2.22C3.63,41.25,1.65,38.82.5,36-.2,34.24,0,32.05.11,30.09s.59-4.18.83-6.27A20.82,20.82,0,0,0,.86,21.7a2.34,2.34,0,0,1,.28-.94q.56-1.14,1.19-2.24a1.26,1.26,0,0,1,.5-.45A34,34,0,0,1,8,15.59c1.54-.47,2.16-2.06,3.52-2.44,1.08-.3,2.14-1.33,3.34-.59a3.89,3.89,0,0,1,1.08-.72c2.67-.62,5.37-1.14,8-1.79,2.39-.59,4.91-.41,7.22-1.41.43-.19,1-.23,1,.57Zm5.14,17.2L37.2,26c-4,.39-4,.39-4.15,1.37ZM29,27.81l.19.5,2.32-.85L31.34,27Z"/><path d="M197.31,30.33c.21-.81.78-.47,1.26-.4.73.11,1.45.27,2.18.36,1.8.22,3.61.41,5.42.61,3.8.43,7.6.8,11.39,1.31,3.07.41,6.12,1,9.18,1.49,1.41.22,2.85.3,4.25.59,2.35.48,4.66,1.09,7,1.62a7.51,7.51,0,0,0,1-.05c.55,0,1.1.13,1.64.22,1,.16,2,.28,3,.53.7.17,1.34.61,2,.76a10.56,10.56,0,0,0,2.06,0c.22.62.88,1.53.73,2.28a3.49,3.49,0,0,1-1.92,2.77c-2.45.86-5,1.51-7.47,2.21a1.5,1.5,0,0,1-1.18-.25l2.21-.88a2.59,2.59,0,0,0-2.41-.86c-1.72.28-3.43.67-5.14,1-.36.07-.71.18-1.14.29,0-.27,0-.5,0-1l-.48.84c-1.16.26-2.08.51-3,.64a2.34,2.34,0,0,1-.94-.25c-3.65.16-7.26.28-10.87.51a2.69,2.69,0,0,0-1.52.9c-1,1.08-2,2.25-3.1,3.55l.17.56-2.4.27a4.56,4.56,0,0,1,.51-1.31,8.43,8.43,0,0,1,1.53-1.34c2.15-1.52,2.75-4,3.53-6.22.36-1,1-2.39.08-3.74-.3-.46.23-1.48.44-2.23,0-.06.45,0,.53,0l.7-1.77c-1.35-.19-2.71-.41-4.08-.58-2.34-.3-4.68-.58-7-.84-1.77-.19-3.55-.26-5.3-.52-.68-.1-1.26-1-1.83-.21l-1-.9Zm36.37,12.25a4,4,0,0,1,.91-.43c2.38-.46,4.76-.87,7.13-1.35.28-.06.5-.37.74-.57a6.62,6.62,0,0,0-.84-.43c-.89-.31-2-.17-2.53-1.27,1.58.19,3.11.54,4.65.84.7.14,1.47.51,2.13-.37l-1.2-1.43a13.71,13.71,0,0,1-6-.31,13.87,13.87,0,0,0-2.5-.15,2.18,2.18,0,0,1-.63-.19,4.19,4.19,0,0,0-.87-.37,34.56,34.56,0,0,1-4.53-.62,4.76,4.76,0,0,0-3,0,6,6,0,0,1-1.24.16l.25-.83a3.36,3.36,0,0,0-.87.06c-.18.06-.27.41-.44.45-2.16.47-4.33.9-6.49,1.38a1.28,1.28,0,0,0-.82.61C217,39.16,216.48,40.6,216,42c-.42,1.19-.23,1.48,1,1.36,1.46-.14,2.9-.49,4.36-.59,3.67-.25,7.35-.42,11-.58A4.2,4.2,0,0,1,233.67,42.58Zm-11.13-8.22-4.92-.76.75,2.39Z"/><path d="M155.05,64.15l.82-.53,1,1.69L159,65l-.09-.76,1.9-.13L159.1,66c1.11.1,2,.22,2.92.24,1.72,0,3.31-.67,5-.94,2.32-.37,4.6-1.09,6.93-1.35s4.15-1.51,6.31-1.94a8.32,8.32,0,0,1,1.43,0,2.4,2.4,0,0,1,.81-.59,47.17,47.17,0,0,0,4.69-1.27c2.21-.91,4.72-1,6.72-2.45a5.55,5.55,0,0,1,1.45-.54v0c0,.55,0,1.1-.06,1.47-.93.49-1.75.94-2.58,1.34-.38.19-.79.29-1.18.44-.91.34-1.8.7-2.72,1a2.43,2.43,0,0,1-.6,0c-.25,0-.64,0-.74.1-1.49,2.06-4,1.56-6,2.31a9.64,9.64,0,0,1-2.11.41c-.56.07-1.15,0-1.7.11a8.39,8.39,0,0,0-1.38.49c-.6.23-1.23.69-1.56-.06a7.35,7.35,0,0,1-1.63.86c-2.47.61-5,1.19-7.46,1.66-2.14.41-4.31.68-6.47,1a4.8,4.8,0,0,1-1.34-.25,3.86,3.86,0,0,0-1.14-.16c-1.58.21-3.15.48-4.91.75a9.28,9.28,0,0,1-.39,7.62c-.34-.45-.58-.64-.64-.88-.59-2.22-2.43-2.62-4.3-3a20.05,20.05,0,0,0-7.12-.41,1.29,1.29,0,0,1-1-.61l1.34-.2c0-.1,0-.19,0-.29-1.62-.12-3.25-.35-4.86-.33-4.07,0-8.16,0-12.22.37a62.74,62.74,0,0,0-8.16,1.68,24.92,24.92,0,0,0-2.82.88c-.77.27-1.49.63-1.45,1.66a2,2,0,0,1-.21.65l-1.43-.52c.1-2.25.17-4.48.31-6.72a5.86,5.86,0,0,1,.43-1.38h0c1.08.66.38,1.62.42,2.46a2.5,2.5,0,0,1-.12.5l.79-.57c0,.76.09,1.53.15,2.56,2.28-.54,4.35-1.1,6.45-1.5,1.84-.35,3.71-.51,5.56-.77a14.5,14.5,0,0,1,1.88-.3c1.73,0,3.46.06,5.19.11,3,.09,6,.14,9,.32a44.12,44.12,0,0,1,6,.69c2.14.43,4.21,1.14,6.53,1.79V67.82c-.78,1-1.49.68-2.22.3s-1.56-.75-2.3-1.18a1.11,1.11,0,0,1-.49-.71c-.24-2-.53-4-.6-6a4,4,0,0,1,1.9-3.28c0,.33,0,.67,0,1-.15,1.66-.42,3.31-.42,5,0,.53.7,1.07,1.18,1.76l-.52.91c.44.14.81.28,1.2.39a6.51,6.51,0,0,0,4.35-.39c.46-.19,1.1.14,1.64.06s1.15-.29,1.24-.59c.2-.7-.46-.84-1-.92Z"/><path d="M159.63,1.61c-.57,1.18-.56,1.14-1.74,1.09q-5.78-.27-11.55-.49C143.89,2.11,141.45,2,139,2a9.71,9.71,0,0,1-1.1-.21c1.67-1.21,3.38-.18,5-.67L142,0l32.44,1.87,0,.34.69-.91c.17.15.42.46.49.42,1.93-1.05,3.85,0,5.71.18,4.31.42,8.59,1.26,12.89,1.88,2.36.34,4.74.57,7.1.89,3,.42,6.06.86,9.08,1.33,2.63.42,5.24.94,7.88,1.34,1.16.18,2.36.07,3.52.27a9.39,9.39,0,0,1,2.09,1c-.42.23-.5.31-.56.3-2.5-.41-5-.87-7.49-1.24-1.71-.25-3.44-.36-5.15-.53-.07,0-.19,0-.22.05-.8,1.12-1.21.39-1.58-.43l-.85,1L207.34,7c-1.21.82-2.08.68-3.2-.59-.74.32-1.47,1.67-2.25.1-.3.17-.56.45-.77.42-1.68-.24-3.34-.53-5-.84a1.08,1.08,0,0,1-.65-.4c-.78-1.17-1.21-1.34-2.95-1,.72.64,2.2-.07,2.34,1.43l-5.6-1,.51-.79-1-.16-.3,1.33-1.74-1.17,0,.23c-.47,0-.93-.09-1.4-.12-1.9-.11-3.8-.21-5.7-.33-1.1-.07-2.19-.19-3.28-.3-.7-.07-1.4-.17-2.16-.27l.18-.69-1.54.63L173,2.7c-1-.74-1.44,1.7-2.56.33l.63-.51-1.19-.28c0,.34,0,.59,0,.73-2,0-4,0-6,0-.9,0-1.81-.08-2.71-.08S159.61,2.76,159.63,1.61Zm-9.9,0c0-.18,0-.36,0-.54L145.19.79l0,.44ZM196.08,4.8l-.08.35c.94.28,1.87.59,2.82.82.14,0,.38-.32.78-.7Z"/><path d="M109.27,67.05c-1.22-.4-2.43-.86-3.67-1.2-3.07-.86-6.15-1.64-9.22-2.5a49.45,49.45,0,0,0-5-1.53,4.8,4.8,0,0,1-3.3-1.44l15.37,3.8.14-.14a7.6,7.6,0,0,0-1.2-.87c-2.2-1-4.43-2-6.62-3a24,24,0,0,1-3.47-2,5.24,5.24,0,0,1-1.49-2c1.1.59,2.24,1.14,3.31,1.79a36.77,36.77,0,0,0,3.48,2.22c3.66,1.65,7.38,3.16,11.08,4.73,1.67.71,3.41.4,5.11.27a6.72,6.72,0,0,0,2.68-.52c1.29-.62,3-.35,4.53-.49a9.62,9.62,0,0,0,1.89-.29,2.07,2.07,0,0,0,1.73-2,17.79,17.79,0,0,1,.41-2.59,2.77,2.77,0,0,1,.42-.71c0-.38-.08-1-.17-1.53a8,8,0,0,0-.31-1.25c-.14-.44-.74-.9.08-1.28s1.09.28,1.27.83a3.08,3.08,0,0,1-.15,1.16c1.07.56,1.13,1.61.91,2.68s-.62,2.3-.92,3.46c-.11.41-.15.84-.24,1.34l1.52.32c-.45.29-.65.53-.9.57-3.62.61-7.25,1.27-10.89,1.75-1.72.23-3.48.07-5.22.13a6,6,0,0,0-1.2.28Z"/><path d="M262.07,33.93l1-.11V32.58a4,4,0,0,1,1.34,0c1.85.7,3.67,1.46,5.49,2.23,1.49.63,2.07.2,2.07-1.37a25.18,25.18,0,0,1,.38-3.7c.26-1.76-.55-3.07-1.59-4.34-.61-.75-1.11-1.59-1.55-2.23l-2-1.19.12-.31h.8l.21-.28a5.17,5.17,0,0,0-1.18-1.06c-3.38-1.49-6.78-2.92-10.18-4.37a1.43,1.43,0,0,1-.71-.5c1.38.31,2.76.61,4.14.93.58.14,1.16.3,1.73.48a19.56,19.56,0,0,1,7.06,4.36,15.63,15.63,0,0,1,2.19,2.14,62.9,62.9,0,0,1,3.89,5.67c1,1.62.63,2.3-1.06,3.29l-.3-.65-.38,0V39l-1.82-.76c-1.1,2-3.38,2.27-5.26,3.19a20.13,20.13,0,0,1-2.86,1c-.18.06-.46-.17-.69-.27.12-.2.19-.51.37-.6,1.63-.76,3.28-1.47,4.91-2.22a1.61,1.61,0,0,0,.23-3,24.9,24.9,0,0,0-2.82-1.4l.8-.38c-.68-.2-1.26-.54-1.44-.39-1.1.91-1.94,0-2.86-.3Zm11.23-4.69c.7,1.44.93,1.77,1.23,1.81C274.5,29.6,274.06,28.94,273.31,29.24Z"/><path d="M254.45,45.09c-.12.19-.22.54-.37.56-3.86.61-7.53,2-11.41,2.57-2.47.33-4.92.85-7.4,1.14-2.28.26-4.6.25-6.89.49-3.15.33-6.28.81-9.42,1.17-2.32.26-4.66.46-7,.61a12.39,12.39,0,0,1-3.71.16c-.6-.13-1.48.85-2.18,1.4-1.32,1-2.53,2.22-4.3,2.46a.87.87,0,0,0-.47.23,8.86,8.86,0,0,1-4.17,2.08c-.47.13-.92.35-1.38.53l-.41-1.38v0c1.48-.56,2.94-1.19,4.45-1.66a17.2,17.2,0,0,0,7.4-4.84c.48-.51,1-1,1.8-1.68l-.21,1.93,3.83-.27-.15-.53c3.62-.48,7.19-1.31,10.85-1.09.12,0,.23.29.2.25a32.83,32.83,0,0,1,3.32-.53c3.13-.18,6.26-.24,9.38-.42,1-.06,2-.42,3-.5,3.3-.26,6.48-1.18,9.75-1.61A35.73,35.73,0,0,0,252.81,45a5.42,5.42,0,0,1,1.67.11Z"/><path d="M61.74,14.5c.31.17.61.46.93.48a6.27,6.27,0,0,0,1.45-.26v2.21c-.52.07-1.11.14-1.7.23-1.31.22-2.62.5-3.94.67-2.15.27-4.34.38-6.47.78-.69.13-1.33.49-2.11.58-2.26.27-4.58.39-6.69,1.46-.2.1-.53-.05-.81-.09l-.13.56c-.86-.83-3.92-.08-5.58,1.37l-.25-.66-1,.85-.54-1.2a37.49,37.49,0,0,0,4.94-1.61c.61-.29,1.24-.41,1.84-.67.14-.06.3-.2.4-.16,1.09.43,1.15-.36,1.3-1.06.22-1.09.43-2.19.68-3.27.05-.23.26-.42.63-.55l-1,4.52c1.28-.19,2.39-.3,3.45-.54.25-.06.55-.56.57-.88.09-1.31.06-2.63.11-3.94a2.34,2.34,0,0,1,.45-1.3c.71,1.82-.05,3.65.09,5.75,1.33-.4,2.6-.8,3.88-1.14a6,6,0,0,1,1.64-.16c1,0,1.28-.47,1.22-1.42-.08-1.32,0-2.64,0-4l.29,0a4.46,4.46,0,0,1,.23,1c0,.92-.08,1.83-.14,2.74,0,.66,0,1.27.85,1.27S57.82,16,57.86,15c0-1.19.16-2.39.27-3.58a7.19,7.19,0,0,1,.23-1l.4,0a4.16,4.16,0,0,1,.17,1.17c-.17,1.17-.44,2.32-.61,3.49,0,.19.28.62.29.62,1-.44,2.45.22,3.16-1.09Z"/><path d="M10.14,28.09l.79-3.71c.45,1.05,1.42,1.88.9,3.23-.2.51.27,1,1.05.79s1.8-.48,1.59-1.88a16.36,16.36,0,0,1,.16-3.32l.47,0v4.19c2-.51,4-1,6-1.53.5-.13,1-.38,1.46-.47.24,0,.52.19.76.29L17.73,28l1,.2-.06.35-1.32-.19c-.42.07-.74.1-1,.18a1.53,1.53,0,0,0-.94.62l1.21-.2.14.44c-.59.22-1.2.4-1.77.66-.8.36-2.14-.62-2.42,1L8.66,32.07l-.78.2L7.63,32l.86-.62c.1-1.18.17-2.18.29-3.18a3,3,0,0,1,.31-.77l.71.5A3.51,3.51,0,0,0,10.14,28.09Z"/><path d="M65.65,16c0,.45,0,.75,0,1.06-.77-.21-1.36-2-.81-2.32.23-.15.73.11,1.28.22A11.63,11.63,0,0,1,68,14.37c.18,0,.48.58.72.88.64-.59.64-.59,1.47.41a7.38,7.38,0,0,1,2.15-1.28,10.71,10.71,0,0,1,2.89.24c.4-.39.72-1,1.77-.46.71.35,1.82-.1,2.9-.21l.57,1.22c-1.55-.5-3.11.88-4.51-.49l.32.75c-.87.14-1.69.29-2.51.4-.62.09-1.21.1-1.09-.86l-.22.67a10,10,0,0,0-1.31.46C70.13,16.65,66.44,16.69,65.65,16Z"/><path d="M92.37,43.58c-2.27.69-4.74-.49-6.19,1.47-2.05-.54-3.94-1.17-5.88-1.49-1.37-.23-2.48-.53-2.94-2.23a21.6,21.6,0,0,1,3.5.67c2.43.89,4.94.69,7.44.81a19.69,19.69,0,0,1,2.83.56Z"/><path d="M82.42,47.84c4.1-2,8.11-.65,12.15,0C90.5,48.63,86.44,49,82.42,47.84Z"/><path d="M195.71,45.33l13.08-.39L208,46.05l1.71.39c0,.13,0,.26,0,.39a10.53,10.53,0,0,1-1.38.17c-.67,0-1.34-.08-2-.13-.16,0-.39,0-.46-.07-1.2-1.56-2.86-.48-4.28-.71a53.51,53.51,0,0,0-5.89-.37C195.7,45.59,195.7,45.46,195.71,45.33Z"/><path d="M32.17,9.21A1.89,1.89,0,0,1,34,8.09c1-.12,2-.21,3-.38,1.51-.24,3-.54,4.63-.83l.62,1.19a26.76,26.76,0,0,0-3.34.42c-1.53.39-3.14.34-4.64.95-.6.24-1.54.89-2.09-.26Z"/><path d="M176.33,54.51l13.42,2.38c-.08.08-.22.36-.36.36a13.44,13.44,0,0,1-3.27,0c-3.3-.75-6.75-.94-9.87-2.39Z"/><path d="M193.45,50.21a19.5,19.5,0,0,1,5-.62c1.41-.06,2.84,0,4.25,0a11.65,11.65,0,0,1,1.49.24c-1.53,1.49-3.2.93-4.7,1a42.86,42.86,0,0,1-5.32-.15c-.24,0-.46-.34-.69-.53Z"/><path d="M171.91,57.19c4.2.19,8,2.67,12.31,1.69,0,.17,0,.35.07.52-.54.16-1.11.52-1.61.44-2.48-.43-5-1-7.42-1.49-1-.22-1.94-.55-2.9-.85A1.85,1.85,0,0,1,171.91,57.19Z"/><path d="M81.6,50.25c.94-.15,1.73-.12,2.2,1,.16.37.78.52,1.17.8,1.45,1.05,2.89,2.12,4.34,3.19l-.16.31a18.33,18.33,0,0,1-2.46-1.2c-1.52-1-3-2.17-4.42-3.28a4.23,4.23,0,0,1-.64-.79Z"/><path d="M86.81,50.08h6.57c-.75,1.06-2.4,1.37-5.06,1.06C87.67,51.07,87,51,86.81,50.08Z"/><path d="M189.85,53.83a21.19,21.19,0,0,1,2.59-.42c1.58-.07,3.17,0,4.75,0a1.08,1.08,0,0,1,.72.33,15.25,15.25,0,0,1-8,.07Z"/><path d="M254.45,45.09l0,0c.21-.24.37-.62.64-.71,2.22-.8,4.46-1.56,6.69-2.31a2.25,2.25,0,0,1,.57,0l.33.39c-.29.13-.57.28-.87.39-2.16.74-4.32,1.49-6.48,2.21A3.62,3.62,0,0,1,254.45,45.09Z"/><path d="M111,61c-2.61,1-6,.81-6.39-.29H111C111,60.76,111,60.86,111,61Z"/><path d="M39.87,42.75c.19-1.88.35-3.52.55-5.15,0-.21.32-.39.49-.58.19.22.58.47.55.65C41.15,39.35,41.2,41.14,39.87,42.75Z"/><path d="M228.48,9.25l7,1.62-.12.55-7.06-1.48Z"/><path d="M102.59,57.27A4.09,4.09,0,0,1,97.29,57Z"/><path d="M167.58,60.36c.24-.18.52-.55.72-.51,1.21.21,2.4.53,3.6.79a1.55,1.55,0,0,0,.51-.07l.16.35c-.3.16-.64.51-.9.46-1.38-.29-2.74-.67-4.1-1Z"/><path d="M98.52,53.24c-.74.83-5.17,1.16-6.15.37Z"/><path d="M189.87,53.81a18.68,18.68,0,0,1-5.84-.48l0-.41c1.85.17,3.7.34,5.55.53.09,0,.16.25.24.38Z"/><path d="M45.64,42a3.82,3.82,0,0,1,.45-4.39Z"/><path d="M262.09,33.91a2.46,2.46,0,0,1-2.37-1.9l1.61.81.82-.74c1,.64-.46,1.24-.09,1.85Z"/><path d="M82.12,18.78l4.54-.33c-.42.8-3.09,1.14-4.53.64C82.13,19,82.12,18.89,82.12,18.78Z"/><path d="M52.5,15.25l-.57-4.64C52.95,11.52,53.08,13.87,52.5,15.25Z"/><path d="M58.88,43.78V39.84c1.14.78.79,1.88.86,2.81C59.76,43,59.27,43.3,58.88,43.78Z"/><path d="M227.74,9.85,223.87,9c.42-.36.63-.66.77-.63.93.19,1.85.43,2.76.69.19.05.32.27.49.41Z"/><path d="M61.76,14.51a7.53,7.53,0,0,1,.07-3.92c.85,1.33.28,2.62-.09,3.91Z"/><path d="M18.76,23l-.67.61c-.11-.28-.23-.56-.32-.84a.77.77,0,0,1,0-.35c.08-.45.16-.89.25-1.33.21.42.43.83.63,1.25A3.8,3.8,0,0,1,18.76,23Z"/><path d="M249.45,30.06l3.81.72-.09.5-3.82-.7Z"/><path d="M55.43,39.18c.17.28.49.57.47.83a15.74,15.74,0,0,1-.4,2,2.41,2.41,0,0,1,0-2.85Z"/><path d="M53.78,39.24l-.41,2.83c-.82-1.16-.86-2.1.06-2.93Z"/><path d="M7.6,23.5c1.49.69,0,1.87.59,2.63l-1-1.07Z"/><path d="M167.57,60.35c-1-.2-1.92-.38-2.87-.62-.14,0-.21-.33-.31-.51.17,0,.38-.17.51-.11.9.4,1.79.83,2.68,1.25Z"/><path d="M113.36,62.85l-3.78.35c0-.15,0-.31,0-.47h3.78Z"/><path d="M15.35,19.82c-1.39.62-2,.51-2.18-.36h2.24Z"/><path d="M86.72,59.78c-1.34.59-1.88.31-2.24-1.06Z"/><path d="M137.7.16h3.63c0,.07,0,.14,0,.21h-3.7Z"/><path d="M51.36,47.6a1.78,1.78,0,0,1-2.24-.85c1,.07,1.84-.11,2.23.87Z"/><path d="M155.07,64.13a1.63,1.63,0,0,1-2.05-1c.64.42,1.89-.38,2,1Z"/><path d="M257.16,32c-.38.11-.75.36-1,.27a5.7,5.7,0,0,1-1.16-.86l.26-.39Z"/><path d="M192.38,20.71l2.26.29-.06.48-2.32-.22Z"/><path d="M42.72,16.26V13.51l.4,0-.17,2.75Z"/><path d="M193.47,50.19l-1.93.51-.09-.37,2-.8,0,.68Z"/><path d="M89.19,19.2l-1.79-.26.08-.42C88.07,18.34,88.71,17.95,89.19,19.2Z"/><path d="M246.62,13.38c.77.32,2-.4,2.29,1.11l-2.41-.81Z"/><path d="M51.35,47.62a1.63,1.63,0,0,1,2.26,0c0,.13,0,.26,0,.39l-2.21-.45Z"/><path d="M198,21.77h2.5C200.17,22.49,199.41,22.53,198,21.77Z"/><path class="b" d="M269.24,23.19s-3.37-8-45.37-14.4S137.7.16,107.54,1.06C90.69,1.57,44.87,6,29.87,9.18S4.13,17.55,2.54,20.69"/><path class="b" d="M73.87,56.06s-20.1-2.47-22.55-2.9"/><path class="b" d="M95.2,62.73s-16.33-1.33-22.67-8.67"/><path d="M237.2,27.44s-1.45-.24-4-.58l-4.58-.66-5.95-.81c-2.17-.33-4.54-.61-7-.92l-7.85-1-8.41-1L195,21.88l-4.37-.45L182,20.58c-2.87-.32-5.71-.48-8.45-.67l-7.91-.55L162,19.1,158.53,19l-14.65-.52v-.1l14.67.27,3.43.07,3.67.2,7.92.44c2.75.16,5.59.28,8.47.57l8.73.74,4.38.38,4.34.47,8.44.93c2.73.36,5.36.73,7.86,1.1s4.85.71,7,1.09l5.92,1c1.76.31,3.29.63,4.55.88,2.52.5,3.95.83,3.95.83Z"/><path class="c" d="M268.86,39.64a64.71,64.71,0,0,1-19.21,6.8"/></svg>