<svg xmlns="http://www.w3.org/2000/svg" viewBox="0 0 165.45 166.53"><defs><style>.a{fill:#fff;}.b{fill:none;stroke:#000;stroke-miterlimit:10;stroke-width:2px;}</style></defs><title>horse-4</title><path class="a" d="M163.37,33.66a12.36,12.36,0,0,0-1.91-8.14c-1-1.63-2.28-3.1-3.43-4.64,1.78-6.13,1.78-6.13.8-9.71-2.4-.27-4.22-1.71-5.83-3.56-.47-.54-1.17-1.33-1.72-1.3-2,.13-2.22-1.6-3.17-2.8-1.6,0-3.22,0-4.85,0a20.45,20.45,0,0,1-4-.31,24.64,24.64,0,0,0-12,.29,5,5,0,0,0-2.38,1c-.47.52-.37,1.56-.53,2.34a10.3,10.3,0,0,1-1.9.56,9,9,0,0,0-6.69,4,101.59,101.59,0,0,0-6,9.38,15.61,15.61,0,0,0-1.7,5.51c-.43,3.25-.52,6.54-.69,9.82a21.36,21.36,0,0,1-1.22,6.52c-1.54-.18-2.86-.4-4.19-.5a7.93,7.93,0,0,0-5.9,1.67c-2,1.73-4.22,3.23-5.65,5.59-1.92,3.2-5.05,5.08-8.31,6.59-2.7,1.25-5.54,1.31-7.94-.92a13.18,13.18,0,0,0-5.55-2.77,47.65,47.65,0,0,0-11-2c-1.78-.1-3.56-.38-5.34-.57a9.09,9.09,0,0,0-9.9,6c-.31.8-.55,1.62-.8,2.35-.84.19-1.41.34-2,.45-4.15.76-8.17,1.85-11.46,4.72a6.69,6.69,0,0,1-.76.48,3.66,3.66,0,0,1-3.82.29c-1.88-.9-3.89-1.58-5.68-2.64-2.69-1.57-5.46-1.44-8.25-.73A7.56,7.56,0,0,0,4.1,65.41a56.26,56.26,0,0,0-3,10.31c-.88,4.8.28,9.19,2.43,13.4a3.72,3.72,0,0,0,1.38,1.72C7,91.82,7.66,93.91,9,95.49c3.82,4.58,3,9.4,1.07,14.34A4.84,4.84,0,0,1,8,112c-2.63,1.75-4.07,4.11-3.09,7.39a5.39,5.39,0,0,1,1,.19c.15,0,.29.08.44.11h1c.33,0,.62,0,.91.08,0-.07,0-.14,0-.21.21-1.41,1.21-1.94,4.1-1.94a25,25,0,0,1-.67,3.12l.21.08a5.53,5.53,0,0,1,2.66,3.46,6,6,0,0,1-.58,4.46c-.31.61-.66,1.21-1,1.8a8.44,8.44,0,0,1-1.47,3,21.59,21.59,0,0,1-.17,2.87,39.77,39.77,0,0,1-2,8.25c-1,2.86-.92,5.53,1.62,7.75a91.27,91.27,0,0,1,7.51,6.94,7.31,7.31,0,0,0,6.37,2.47c.58,0,1.17,0,1.76-.08a25.18,25.18,0,0,0-4.24-11.69,2,2,0,0,1-1.63-1.63,22,22,0,0,1,0-9.91s0-.08,0-.12A9.9,9.9,0,0,1,23,130.34a3.37,3.37,0,0,0,.54-1.22c1.69-5.73,3.72-11.38,3.52-17.49a11.47,11.47,0,0,1,1.4-6.48,10.63,10.63,0,0,1,1.42-1.57,4.78,4.78,0,0,1,.73.9,8.55,8.55,0,0,1,.54,1.71,52.11,52.11,0,0,0,5.24,15.19,14.51,14.51,0,0,1,1.73,6.9,8.29,8.29,0,0,0,3.46,6.93c2.67,2.16,5.27,4.4,7.86,6.65A26.24,26.24,0,0,1,58,156.7c.12.58.07,1.2.23,1.77a5,5,0,0,0,4.8,3.9c2.84.07,5.69.05,8.52,0a9.67,9.67,0,0,0,2.19-.31,1.24,1.24,0,0,0,.44-2.11,2.31,2.31,0,0,1-1.2-2.14,7.54,7.54,0,0,0-1.9-4.91c-3.95-5.24-7.63-10.71-11.86-15.71A13,13,0,0,1,56,125.67c.81-4.26,1.49-8.54,2.45-12.76a12.85,12.85,0,0,0,.18-6.59c-.06-.2.23-.51.48-1,3.48.09,6.69,2,10.33,2,1,2.55,7.64,2.26,8.71.77,3.9.28,7.74.64,11.6.79a47.41,47.41,0,0,0,11.58-1c3.77-.8,7.6-1.3,11.54-1.94a20.22,20.22,0,0,0,6.41,8.71,75.85,75.85,0,0,1,12.31,13,25.12,25.12,0,0,1,3.78,7.05c1.46,4.23,3.1,8.41,4.7,12.6.65,1.69,1.4,3.44,3.22,4.11a4.75,4.75,0,0,1,3,3.6c.66,2.41,1.25,4.85,1.92,7.5,2.41.52,4.95.2,7.46.27,1.15,0,2.4.56,3.44-.38s.6-1.9.67-2.92c0-.23.35-.44.55-.65a2.4,2.4,0,0,0,.24-2.92,20,20,0,0,0-2.09-3.41c-1.92-2.48-3.91-4.9-5.93-7.31-2.33-2.81-3.61-6.16-4.9-9.5a4.45,4.45,0,0,1,.52-4.24c2.9-4.6,4.44-9.75,5.65-15a17.6,17.6,0,0,0-2.91-14.5,50.56,50.56,0,0,1-9.12-23.53c-.58-5.27-.91-10.39.41-15.54a33,33,0,0,0,.6-3.53,14.74,14.74,0,0,0-.65-7.5,28.6,28.6,0,0,1-.91-3.81l.87-.46a11,11,0,0,1,1.15,1.74c.65,1.51,1.19,3.06,1.78,4.6a15.61,15.61,0,0,0,6.16,7.49c1.14.74,2.45,1.4,3.8.85a66.59,66.59,0,0,0,6.45-3,3.4,3.4,0,0,0,1.74-3.82,21.67,21.67,0,0,0-.56-2.16A22.32,22.32,0,0,1,162.21,43C162.79,39.92,163,36.77,163.37,33.66Z"/><path d="M105.94,27.76c1.34-1.5,2.61-3.06,4-4.47A7.66,7.66,0,0,0,112,19.77a9.94,9.94,0,0,1,3-4.67,3.94,3.94,0,0,0,1.44-2.29c-1.55-.52-3.21-.12-5-.41.28-.39.38-.69.58-.77,1.38-.63,2.79-1.19,4.16-1.83,1.2-.56,2.39-1.17,3.54-1.83a1.89,1.89,0,0,0,.6-.89,2.46,2.46,0,0,1,1.35-1.3c1.23-.58,2.43-1.22,3.63-1.86a9.2,9.2,0,0,0,1.07-.79l-.9-.24a38.31,38.31,0,0,1,4.3-1.55,21.12,21.12,0,0,1,4-.35,28.37,28.37,0,0,1,3.87,0,24.27,24.27,0,0,1,3.13.7c.05-.51-.51-1.31.52-1.68a4.29,4.29,0,0,0,2.73.75,30.35,30.35,0,0,1,5.25,1.17,3,3,0,0,1,1.31,1.18c.88,1.17,1.69,2.4,2.63,3.74a11.31,11.31,0,0,0,.71-1c.44-.79.35-1-.43-1.37l-1.44-.74c1-.17,1.43-.64,1.26-1.76.64.36,1.05.58,1.44.84s.54.52.86.65c2.87,1.08,4.19,3.47,5.1,6.13a7.14,7.14,0,0,1,.13,2.46c0,1.25-.07,1.23,1.2,1.52.85.19,1.69.43,2.54.65.42.11.8.26.79.91l-.7.07a13.65,13.65,0,0,1-.91,1.47,8.23,8.23,0,0,1-3.41,2.27c-.44.19-.94.32-1.2,1,.28,0,.5.07.61,0a1.68,1.68,0,0,1,1.94,0,3.81,3.81,0,0,1,1.76,2,1.12,1.12,0,0,1-.29,1c-.62.57-.49,1.1-.16,1.73a5.67,5.67,0,0,1,.75,3.18c0,.52.33,1.05.38,1.59a33.32,33.32,0,0,1,.16,7.44,23.6,23.6,0,0,1-1.27,6.06.75.75,0,0,0-.07.4c.36,2.28-.54,4.43-.72,6.65a9.59,9.59,0,0,0,.28,2c.11.76.25,1.52.31,2.29.1,1.15.12,2.29.2,3.44,0,.64.14,1.27.2,1.9l-.26.11-.8-1.2c-.44.71-.86,1.34-1.23,2a3.52,3.52,0,0,1-2.94,2,9,9,0,0,0-1.36.23,3.84,3.84,0,0,1-3.46-.9,2.65,2.65,0,0,0-1.76-.61c-1.22.16-1.75-.6-2.35-1.35-.42-.53-.81-1.07-1.29-1.7,1-2.8-.23-5.51-.87-8.26A2.32,2.32,0,0,0,145,47.81c-.32,0-.6-.39-1-.67a3.31,3.31,0,0,0-.25.77c-.2,3.67-.29,7.35-.57,11-.49,6.48-.56,13-.52,19.47a13.09,13.09,0,0,1-.65,5,28.87,28.87,0,0,0-.94,5.43c-.16,1-.45,1.89-.58,2.84-.23,1.64-.42,3.28-.57,4.93a2.06,2.06,0,0,0,.25,1.06,18.29,18.29,0,0,1,1.7,5.95c.14,1,.33,2,.54,3a1.78,1.78,0,0,0,.47,1c1.63,1.29,2.15,3.27,3.15,5a2.47,2.47,0,0,1,.05,1.46c-.23,1.55-.57,3.08-.76,4.63a8.26,8.26,0,0,0,.19,2.19q.54,3.34,1.15,6.66c.1.56.29,1.1.51,1.9a4.83,4.83,0,0,0,.75-.93c1-2.44,1.88-4.89,2.81-7.33a1.53,1.53,0,0,1,.08-.27c1.15-2.22,1.58-4.69,2.41-7a9.63,9.63,0,0,0,.54-2.56,2.34,2.34,0,0,0-.52-1.48,35.65,35.65,0,0,1-3.74-6.27c-1.65-3.08-3-6.32-4.64-9.4-1-1.83-1.85-3.69-2.66-5.59a3.7,3.7,0,0,1-.34-1.18.8.8,0,0,1,.4-.63.79.79,0,0,1,.69.23,4.61,4.61,0,0,1,.62,1.06c1.79,3.79,3.55,7.59,5.36,11.36,1,2.07,2,4.15,3.12,6.14a37.08,37.08,0,0,0,2.73,4,3.25,3.25,0,0,1,.7,2.56c-.28,2.15-.43,4.31-.65,6.46a1.75,1.75,0,0,1-.32,1c-1.2,1.16-1.7,2.72-2.49,4.11-.64,1.11-1.32,2.2-2.06,3.25a15,15,0,0,0-2.21,4.58,1.85,1.85,0,0,0-.06.82c.21,1.07.46,2.14.68,3.21.35,1.73.67,3.48,1,5.21.08.4.3.77.36,1.17a2.12,2.12,0,0,1-.22,1.29,2.49,2.49,0,0,1-.52-.66c-.36-1-.66-2.1-1-3.15-.22-.7-.52-1.38-.69-2.09-.29-1.25-.52-2.52-.77-3.77a61.5,61.5,0,0,0-2.16-8.37,42.08,42.08,0,0,1-1.77-7.47c-.33-2.12-1-4.2-1.37-6.31-.28-1.55-1.17-3-.68-4.69a.34.34,0,0,0,0-.27c-.82-1-.56-2.2-.93-3.27-.2-.59-.21-1.26-.82-1.7a1.32,1.32,0,0,1-.3-1c.06-1.7.12-3.41.31-5.1.36-3.2.65-6.41,1.26-9.57A58.69,58.69,0,0,0,141,75.28c0-.81-.32-1.62-.31-2.43,0-1.67-.72-3.27-.18-5a19.33,19.33,0,0,0,.6-6.29c-.06-2.09.28-4.15,0-6.28a37,37,0,0,1,0-5.51c0-1.24-.06-2.48-.12-3.72,0-.82-.1-1.65-.15-2.47-.1-1.68-1.17-2.85-2.12-4.1a6.56,6.56,0,0,1-1-1.78,4.4,4.4,0,0,1-.11-1.74c.08-1,.23-1.91.39-2.85.25-1.44.5-2.88.82-4.31a1,1,0,0,1,.66-.6c1.15,0,1.58-1,2.22-1.66.15-.16.28-.51.41-.51,1,0,1.33-.9,1.9-1.43a18.64,18.64,0,0,1,8.25-4.26c.89-.24,1.8-.37,2.69-.6a2.23,2.23,0,0,0,1.08-.55,2.57,2.57,0,0,1,2-.8,5,5,0,0,0,3.8-1.91c-1.94-.4-3.63.38-5.3,0,.13-.53.13-.53,2.29-1.37a6.07,6.07,0,0,0-3.86-.38,2.42,2.42,0,0,1-2.69-.81c.33-.19.57-.36.84-.5s1-.28,1.22-.6c.5-.6,1-.73,1.52-.4.27-.33.43-.73.67-.8a1.29,1.29,0,0,0,1-1.15,5.53,5.53,0,0,0-.49-4,9.11,9.11,0,0,0-1.26-1.25c-1,1.94-1.62,3.77-2.72,5.56a7,7,0,0,1-1.25-3,3.73,3.73,0,0,0-2.08-3,10.33,10.33,0,0,1-2.18-1.46,4.81,4.81,0,0,0-3-.85c.43,1,1.1,1.78.65,3a19.7,19.7,0,0,1-2-.56c-1.33-.51-1.32-.54-2.54-.08C139.89,2.85,138,3,136.46,3a37.6,37.6,0,0,0-5.65.24,8.07,8.07,0,0,0-3.86,1.71c-1.08.77-2.18,1.52-3.28,2.27-.91.62-1.84,1.23-2.74,1.85a3.23,3.23,0,0,0-.5.6l3-.44c-.31.47-.4.73-.57.85a10.37,10.37,0,0,1-2.4,1.6c-2.48.86-3.66,2.84-4.62,5A38.08,38.08,0,0,1,112,22.89a28.83,28.83,0,0,1-1.83,2.24A8,8,0,0,1,105.94,27.76Zm46.66-4.1c0,1.17,0,2.08,0,3,0,1.56,0,3.11,0,4.67s-.05,3.21,0,4.81c0,1.27.12,2.54.19,3.82A23.92,23.92,0,0,1,162,42.64a3.4,3.4,0,0,0,.48-3.27,8.26,8.26,0,0,1-.21-3.93,16.21,16.21,0,0,0,0-6.18c-.34-1.28-.56-2.6-.86-3.9a2.82,2.82,0,0,0-3-2.29,6,6,0,0,1-2.7-.39,2.16,2.16,0,0,0-1.45.08A12.9,12.9,0,0,0,152.59,23.66Zm-.44,25,.3-.07a3.9,3.9,0,0,1,1.07,2.15c.24,1.68.43,3.37.54,5.06a26.5,26.5,0,0,1-.08,3.45,2.1,2.1,0,0,0,1.11,2,4.41,4.41,0,0,0,2.55.11A1.89,1.89,0,0,0,159.31,60a3.19,3.19,0,0,1,.9-1.53A4.69,4.69,0,0,0,161.44,54a35.2,35.2,0,0,1-.46-6,1.83,1.83,0,0,0-.51-1.65c-.61-.49-1.25-.93-2.09-.52a3.2,3.2,0,0,0-3.64-2.19,26.36,26.36,0,0,0-6.48,1.17A2.47,2.47,0,0,0,146.58,46c.28.31.62.53.74.85a43.78,43.78,0,0,1,2,5.43,23.36,23.36,0,0,1,.38,4.65,3,3,0,0,0,1.93,2.89c.07-.49.15-.87.19-1.25A10.23,10.23,0,0,1,152.1,56a8.78,8.78,0,0,0,.06-5.94A6,6,0,0,1,152.15,48.66ZM149,25.73a4.08,4.08,0,0,0-1,.35c-1.56,1.05-3.09,2.15-4.64,3.22s-2.22,2.73-3.19,4.28c-.1-.19-.19-.29-.18-.35a9.46,9.46,0,0,1,2.87-4.61,46.26,46.26,0,0,1,5.31-3.68,22.14,22.14,0,0,1,5.75-2.58,23.49,23.49,0,0,0,2.76-1,13.74,13.74,0,0,0,1.72.54c1,.17,1.12.06,1.36-.79a8,8,0,0,0-4.05-.41,31.24,31.24,0,0,0-5,1.34,23.56,23.56,0,0,0-9.82,7.59,6,6,0,0,0-1.1,5,27.68,27.68,0,0,0,.77,3,4.59,4.59,0,0,0,.65,1.62,21.9,21.9,0,0,0,2.4,2.47,1.43,1.43,0,0,0,1.11.22c1.66-.38,3.3-.83,4.94-1.25.87-.22,1.06-.41,1.07-1.34a24.13,24.13,0,0,0-.1-2.62c-.24-2.75-.5-5.49-.76-8.23A4.65,4.65,0,0,0,149,25.73Zm4,15.45c-.09.74,0,1.18.8,1.19a20.93,20.93,0,0,1,2.2.17,3.49,3.49,0,0,1,2.63,1.23,3.82,3.82,0,0,0,2.92,1.12,5.35,5.35,0,0,0-3.09-2.56,14.11,14.11,0,0,0-4-.74A5.45,5.45,0,0,1,153,41.18Zm-7.38,4.14a8,8,0,0,1,4.54-2.51,1.11,1.11,0,0,0,.39-.12,8.45,8.45,0,0,0,.71-.71,9.09,9.09,0,0,0-1.35,0c-1,.18-2,.39-3,.6a2,2,0,0,0-1.72,2C145.23,44.78,145.4,44.93,145.63,45.32Zm-1.12,68.35a1,1,0,0,0,.27-1.4c-.58-1.28-1.1-2.58-1.66-3.87,0,0-.08,0-.19,0,.06,1.17.12,2.33.19,3.48a.72.72,0,0,0,.19.35C143.7,112.69,144.1,113.17,144.51,113.67Zm6.83-87.91c.24-.39.34-.78-.13-1.11-.07-.05-.24,0-.36.05.1.34.19.69.3,1C151.15,25.75,151.23,25.74,151.34,25.76Zm12.3-10.45-.22-.27-.62.52.18.22Zm-1.86,7,.45-.49-.61-.49-.25.28Z"/><path d="M8.52,63.49a3.61,3.61,0,0,0-2.41,1.22,13,13,0,0,0-3.74,4.71A17,17,0,0,0,.64,74c0,.18-.22.34-.45.66C.09,74.36,0,74.19,0,74c.54-3.37,1.52-6.44,4.17-8.92a16.46,16.46,0,0,1,7.3-4,5.75,5.75,0,0,1,3.62.53,22.26,22.26,0,0,0,2.34.77,13.08,13.08,0,0,1,4.86,1.9,1.26,1.26,0,0,0,.88.26,9.52,9.52,0,0,0,3-.88,44.58,44.58,0,0,1,10.9-5,7.09,7.09,0,0,1,3.5-.58,1.34,1.34,0,0,0,.68-.08A13.78,13.78,0,0,1,47,57.61c.5,0,1,0,1.52,0s1.17-.13,1.41-.86c.17-.51.57-.64,1.12-.43a15.63,15.63,0,0,0,1.86.52,2.46,2.46,0,0,0,1.73-.17,4.62,4.62,0,0,1,3.23.12,13.17,13.17,0,0,1,5.53,2.71,2.74,2.74,0,0,0,1.49.61,3.8,3.8,0,0,1,2.47,1.38,25.71,25.71,0,0,1,4.74,8.35c.52,1.37,1,2.78,1.48,4.15a3.19,3.19,0,0,0,.78,1.1c1.74,1.64,4,2.11,6.2,2.9a.85.85,0,0,0,.41,0c2-.24,3.92-.51,5.89-.73,1-.12,2.11-.14,3.16-.28a2.85,2.85,0,0,0,1.35-.52,2.55,2.55,0,0,1,1.64-.6c.73,0,1.47-.07,2.2-.06,1.56,0,2.89.82,4.33,1.23a1.59,1.59,0,0,1,.24.13c2.2,1.07,3.37.6,4.11-1.71a16.83,16.83,0,0,0,.76-3.08,8,8,0,0,0-.16-2.59c-.58-2.79-1.24-5.56-1.87-8.34-.08-.35-.21-.7-.28-1.06a3.66,3.66,0,0,1-.12-1c.06-.69.23-1.36.3-2a4,4,0,0,0,0-1.51,17.72,17.72,0,0,0-2.91-6.36,24.54,24.54,0,0,0-3.7-3.24,1.59,1.59,0,0,0-1.87.43,1.54,1.54,0,0,0,0,1c.06.24.3.44.47.67-.14.37-.28.71-.39,1.06-.81,2.59-2.73,4-5.12,5A19.88,19.88,0,0,1,79.22,56a38.33,38.33,0,0,1-5.18-.8,25,25,0,0,1-6-2.24,4,4,0,0,1-1.1-1,2.46,2.46,0,0,0-1.85-1c-1.78-.16-3.54-.62-5.32-.72a28.57,28.57,0,0,0-7.55.39,2.58,2.58,0,0,0-.79.24c-1.75,1-3.5,2-5.23,3.06-.85.51-1.65,1.09-2.49,1.65a14.54,14.54,0,0,0-.4-1.7.83.83,0,0,1,.44-1.14,30.31,30.31,0,0,1,4-2.41A17.92,17.92,0,0,1,53,48.87c2.79-.22,5.61,0,8.43,0a1.63,1.63,0,0,1,.41,0c2.38.69,4.77,1.32,7.13,2.09a13.06,13.06,0,0,1,4.11,2.2,7.34,7.34,0,0,0,4.07,1.15,25.75,25.75,0,0,0,12.69-2,4.92,4.92,0,0,0,2.61-2.15,3.93,3.93,0,0,0,.2-.64l-2.85,2.37-.25-.22c.48-.66,1-1.31,1.44-2,.56-.83,1.06-1.7,1.61-2.54a9.5,9.5,0,0,1,1.22-1.64c.74-.71,1.18-.7,2.1-.2.12.06.23.19.35.21,2.24.39,3.45,2.13,4.83,3.66a3,3,0,0,0,.95.76,18.85,18.85,0,0,0,3.08,1.19,51.12,51.12,0,0,1,10.72,4.35c2.65,1.32,5,3.05,7.54,4.56.18.11.45.35.43.48-.12.69.4,1,.74,1.39A31.33,31.33,0,0,1,129,68.07c.56,1.15,1.38,2.18,2,3.3.46.83.78,1.73,1.22,2.72.66-.88-.08-1.69.2-2.65.22.31.46.52.49.76a20.22,20.22,0,0,1,.65,5.32c-.05.53,0,1.11-.63,1.54a3,3,0,0,1-.47-.81c-.84-4.4-3.19-8.1-5.52-11.79-.78-1.24-1.67-2.43-2.56-3.59a11.07,11.07,0,0,0-1.4-1.32c-.2-.19-.53-.31-.62-.53-.6-1.6-2.09-2.13-3.4-2.84-1.53-.83-3.13-1.55-4.72-2.27-2.26-1-4.5-2.11-6.81-3a35.49,35.49,0,0,0-4.31-1.09,2.83,2.83,0,0,0-.12,2.48,26.51,26.51,0,0,1,1,7.17,14.79,14.79,0,0,0,1.24,5.76,10,10,0,0,1,.73,5.28,15.81,15.81,0,0,1-1.91,5,5.72,5.72,0,0,1-1.84,1.64,1.1,1.1,0,0,1-.89.07,10.75,10.75,0,0,1-1.89-.85,9.3,9.3,0,0,0-4.24-1.11,10,10,0,0,0-2.29.42c-3.08.54-6.15,1.16-9.25,1.56A25.85,25.85,0,0,1,79,79.11a2.69,2.69,0,0,1-1-.48c-1.08-.6-2.14-1.27-3.25-1.79-.32-.15-.82.08-1.36.15-.32-.91-.72-1.83-1-2.8a29.23,29.23,0,0,0-3-7,27.08,27.08,0,0,0-4-4.86c-1.27-1.34-3.1-1.74-4.34-3.07a2.38,2.38,0,0,0-1.39-.51,28.32,28.32,0,0,1-6.75-1.41,1.29,1.29,0,0,0-.89.06c-.95.42-1.87.9-2.9,1.4a5.74,5.74,0,0,0,1.28.45c1.64.21,3.29.43,4.94.51,1.23.06,2.48-.12,3.72-.16.48,0,1-.07,1.36.6a2.33,2.33,0,0,1-.7.34A33.75,33.75,0,0,1,52,60.18c-1.48-.23-3-.26-4.78-.4,1.1.81,5.08,1.68,7.12,1.76,2.34.09,4.68.24,7.08.57a3.45,3.45,0,0,1-.75.27,37.47,37.47,0,0,1-13.55-1.16A53.9,53.9,0,0,0,41.65,60a10.61,10.61,0,0,0-3.44.08A21.54,21.54,0,0,0,32.33,62a24.67,24.67,0,0,1-2.81,1.09,5.82,5.82,0,0,0-2.15,1.15,21.5,21.5,0,0,1-2.9,1.94c-.27-.76-1-.79-1.66-.72a9.1,9.1,0,0,1-5.42-1.23c-2.1-1.15-4.38-.93-6.59-.33a10.2,10.2,0,0,0-4.31,2l-.19-.27,1.53-1.46.67-.65,2.21-.83,1.85-.14a1.36,1.36,0,0,0-1.83.16A2.34,2.34,0,0,0,8.52,63.49Z"/><path d="M23.57,108.56a20.88,20.88,0,0,0-1.8,1.9,24.1,24.1,0,0,1-4.26,4.31A3.67,3.67,0,0,0,16,118.21c.27,2.84-.56,5.58-1.18,8.31-.69,3.09-1.6,6.14-2.52,9.18-.83,2.77-1.77,5.51-2.67,8.26-.33,1-.69,2-1.06,3A1.53,1.53,0,0,0,9,148.7c1.18,1.16,2.36,2.33,3.55,3.48.63.6,1.34,1.13,1.94,1.77a4.61,4.61,0,0,1,1.19,4.59c-.12.44-.22.89-.35,1.33A1.27,1.27,0,0,1,14.16,161c0-1.28-.58-2.48.31-3.68.33-.44-.16-1.91-.8-2.48-1.8-1.57-3.62-3.1-5.42-4.67a2.56,2.56,0,0,1-.89-2.93c.56-1.46,1.05-2.95,1.53-4.44,1.35-4.16,2.65-8.34,4-12.48a13.07,13.07,0,0,0,.62-6.24c-.16-1.09-.19-2.2-.34-3.29a5,5,0,0,0-.43-1.3.69.69,0,0,0-1-.37c-2.68,1.19-5.23.37-7.78-.52a.8.8,0,0,1-.49-.56c0-.19.26-.47.47-.57a12.67,12.67,0,0,0,5.57-5.53,16.59,16.59,0,0,0,1.69-12,5.94,5.94,0,0,0-1.41-2.95,17.67,17.67,0,0,1-1.15-1.71C8.13,94.47,7.55,93.76,7,93c-1.19-1.59-2.11-3.33-3.15-5A50.59,50.59,0,0,1,1,82.06a7.81,7.81,0,0,1-.48-2.27A1.34,1.34,0,0,1,1.3,78.4c.12.15.31.28.31.41a7.85,7.85,0,0,0,1.26,3.9c.72,1.39,1.51,2.74,2.24,4.13A8.22,8.22,0,0,1,6,89.24,7.12,7.12,0,0,0,7.54,92c1.33,1.76,2.8,3.42,4.14,5.18a13.63,13.63,0,0,1,2.75,6.54c.21,1.58.69,3.16-.08,4.87-.6-.88-.21-1.83-.44-2.65a19.24,19.24,0,0,0-.83-2.69c-.1,1-.12,2.08-.31,3.1a19.32,19.32,0,0,1-.86,3,19.78,19.78,0,0,1-1.34,3,16.27,16.27,0,0,1-1.85,2.55c-.71.81-1.53,1.52-2.3,2.27l.11.31a12.56,12.56,0,0,0,1.56.08c2.7-.19,4.84-1.63,6.91-3.2.84-.64,1.71-1.23,2.56-1.85a3.79,3.79,0,0,0,.84-.71A49.87,49.87,0,0,0,22.52,106a14.08,14.08,0,0,0,1.84-9.31,58.29,58.29,0,0,0-3-11.17,2,2,0,0,0-.26-.49A13,13,0,0,1,19,80.47c-.38-1.52-.79-3.12-.17-4.6a9.45,9.45,0,0,1,2.11-3,1.76,1.76,0,0,1,2.88.53,2.34,2.34,0,0,1-.64.13,3.06,3.06,0,0,0-3.61,2.54,7.11,7.11,0,0,0,1.24,6.16,25.08,25.08,0,0,1,3.6,8.16,26.58,26.58,0,0,1,1.24,9.52,69.49,69.49,0,0,1-1.35,6.89,7.1,7.1,0,0,1-.23.72,2.27,2.27,0,0,1,1.06,2.22,108.6,108.6,0,0,1-.55,14.48,48.62,48.62,0,0,1-2.23,10,1,1,0,0,1-.6.61c.49-2.85,1.1-5.69,1.44-8.55s.37-5.78.6-8.67A37.15,37.15,0,0,0,23.57,108.56Zm-8.86,13c.2-1.37,1.1-2.69.36-4.12-1.19.45-1.23.5-1,1.32S14.48,120.62,14.71,121.55Zm1.58-7.05-.29-.36-.41.4.24.27Z"/><path d="M100.37,40.24a5.94,5.94,0,0,1,3-2.31c2.32-1,4.51-2.14,5.55-4.66a2.17,2.17,0,0,1,.46-.68A4.87,4.87,0,0,0,110.59,30a2.49,2.49,0,0,1,.32-1,.93.93,0,0,1,.83-.27.85.85,0,0,1,.41.72,8.34,8.34,0,0,1-.57,2c-.43,1-1,1.88-1.45,2.82a12,12,0,0,1-3.23,3.72,2,2,0,0,1-1.13.43,1.3,1.3,0,0,0-1.32,1.17c-.12.68.47.92,1,1.17l.82.4a1.85,1.85,0,0,1-1.72,0c-1.19-.45-1.23-.42-1.94,1,1.19.27,2.21,1.07,3.52.54a1.16,1.16,0,0,1,.79-.05c.94.4,1.27-.17,1.75-.82a8.49,8.49,0,0,0,1.48-2.75,42.21,42.21,0,0,1,2.61-5.67l.59,1.32a18.26,18.26,0,0,0,2.23-3.48c.42-1.06,1-2.06,1.52-3.08a25.85,25.85,0,0,1,1.24-2.57c.86-1.35,1.86-2.61,2.77-3.93,1.21-1.79,2.38-3.6,3.57-5.4.24-.36.5-.71.84-1.2l.46.94a1.91,1.91,0,0,0,.37-.19c1.4-1.12,2.74-2.33,4.22-3.34a30.65,30.65,0,0,1,3.65-1.89c.37-.19.78-.29,1.15-.47s.86-.63,1.6-.27c.42.2,1.33-.23,1.81-.64a3.34,3.34,0,0,1,2.18-.66c1.24-.06,2.48-.07,3.72-.08a9,9,0,0,1,1.16.14c-.09.69-.52.63-.85.65-1.14.09-2.31,0-3.28.76a.66.66,0,0,1-.4.09,22.23,22.23,0,0,0-7.49,1.73A10,10,0,0,0,131.46,13a29.8,29.8,0,0,0-7.19,6.61c-.74,1-1.49,2-2.15,3a12.12,12.12,0,0,0-.76,1.9c-.13.31-.31.6-.44.92a1.79,1.79,0,0,0-.2.73.93.93,0,0,1-.53,1,2,2,0,0,0-1,1.54,13,13,0,0,0-.49,2.32l1.77-2.66c.13.28.26.43.23.5-.62,1.28-1.37,2.51-1.87,3.83A51.33,51.33,0,0,0,117,38.39a5.45,5.45,0,0,0,.36,2l-.75.11a3.92,3.92,0,0,0,.53,2.78,4.48,4.48,0,0,1,.36,1.56,3.3,3.3,0,0,1-2.14-1.59q-.93-1.19-1.77-2.46a6.82,6.82,0,0,1-.54-1.25,7,7,0,0,0-.44-1.15.52.52,0,0,0-1,.15c-.49,1.81-1,3.62-1.47,5.54.73.35,1.49.75,2.28,1.1,1.13.51,2.3.93,3.41,1.48,2,1,4,2.06,6,3.13a18.19,18.19,0,0,1,7.46,7.91A52.1,52.1,0,0,1,133.23,67c.41,1.4.63,2.85.94,4.28l-.27.09a2.72,2.72,0,0,1-.23-.48A44.75,44.75,0,0,0,131,63.24a43.21,43.21,0,0,0-3.47-6.41,21.65,21.65,0,0,0-6.31-6.09,32.07,32.07,0,0,0-4.42-2.53,44.12,44.12,0,0,0-4.94-1.74c-3.64-1.15-7.29-2.26-10.93-3.4a1.74,1.74,0,0,0-1.55.09,7.34,7.34,0,0,1-2.25.57.68.68,0,0,1-.58-.23,1.7,1.7,0,0,1-.07-.77.31.31,0,0,1,.16-.22c1.32-.63,2.27-1.87,3.72-2.28.06.44-.16,1,.56,1.24C101.24,40.77,100.72,40.54,100.37,40.24ZM116.27,33c-1,1.13-1.8,2.08-2.59,3.05a1,1,0,0,0-.21.77,3.94,3.94,0,0,0,1.68,2.72c.38-2,.72-3.87,1.06-5.73A8.18,8.18,0,0,0,116.27,33Zm-7.21,11c0-.07,0-.15,0-.22s-.28-.15-.4-.13a1.76,1.76,0,0,0-.48.22l.07.21Z"/><path d="M52.49,121.67c1-.28,1-.35.1-1.45,1.13-.92,1.17-2.27,1.34-3.58.54-4.29,1.11-8.57,1.65-12.86.06-.45,0-.92,0-1.37.07-.82.19-1.63.27-2.45,0-.35.06-.72.09-1.08a2.21,2.21,0,0,1,.1-.77c.17-.35.33-.9.86-.66.2.09.31.6.3.92,0,.83-.12,1.65-.22,2.47a1.4,1.4,0,0,0,.72,1.49,31.17,31.17,0,0,0,7.22,3.4A35,35,0,0,0,71.31,107c.92.15,1.9-.08,2.75.5a.22.22,0,0,0,.14,0c2.76-.56,5.47.25,8.22.22,2.11,0,4.23,0,6.34,0,.92,0,1.83-.17,2.75-.28,3.15-.37,6.33-.62,9.46-1.15,2.66-.45,5.26-1.24,7.89-1.87l1.47-.35c.39-.1.76-.23,1.22-.38L110,100c.54.22.88.25,1,.42.7,1,1.13,2.21,2.15,3a.67.67,0,0,1,.18.37,9.62,9.62,0,0,0,3.28,4.94c2,1.88,4,3.84,6,5.69s4.29,3.51,6.22,5.47a18.87,18.87,0,0,0,3.78,3.32.65.65,0,0,1,.21.35c0,.07,0,.17-.06.34a5.7,5.7,0,0,1-2.37-1.26,25.77,25.77,0,0,1-4.24-3.51,16.69,16.69,0,0,0-1.63-1.25c-2.25-2-4.49-3.95-6.71-6a31.7,31.7,0,0,1-4.84-5.64c-1-1.4-1.14-1.33-2.76-.88-1.89.52-3.72,1.39-5.75,1.3a1.46,1.46,0,0,0-.67.13c-2.59,1.24-5.45,1.34-8.2,1.69a88.92,88.92,0,0,1-9.52.31c-1.93,0-3.85.1-5.77,0a13.36,13.36,0,0,1-2.49-.52c-.19,0-2-.18-2.2-.17-.78,0-1.56.11-2.34.07-1.33-.07-2.67-.17-4-.35a25.16,25.16,0,0,1-2.69-.61,27.14,27.14,0,0,1-8.34-3.24,3.24,3.24,0,0,0-.62-.29,1.56,1.56,0,0,0-.4,0,.67.67,0,0,0-.16.27c-.31,1.85-.62,3.72-.91,5.58-.34,2.23-.62,4.46-1,6.68-.46,3-.87,5.92-1.47,8.85a11.41,11.41,0,0,1-1.26,4.2,2,2,0,0,0,.28,2.55c2,2.3,4.07,4.52,6,6.88,1.3,1.6,2.9,2.92,3.93,4.78.68,1.23,1.89,2.15,2.61,3.36a36.39,36.39,0,0,1,3.55,6.36,7.92,7.92,0,0,0,1.4,2.37c1.24,1.5,1.23,3.34,1.52,5.09.06.34-.34.76-.52,1.15h-.34a10,10,0,0,1-.44-1c-.39-1.27-.7-2.57-1.12-3.83a9.36,9.36,0,0,1-.68-2.34,5,5,0,0,0-1.07-2c-.8-1.23-1.65-2.44-2.49-3.64a47.87,47.87,0,0,0-5.6-7.15c-.46-.45-.82-1-1.25-1.48-1.11-1.28-2.23-2.56-3.35-3.83s-2.28-2.52-3.4-3.81a7.5,7.5,0,0,1-.74-1.17,1.58,1.58,0,0,1,.15-2.13,3.49,3.49,0,0,0,.6-1.62c.16-.81.2-1.65.34-2.46C52,124.16,52.23,123,52.49,121.67Z"/><path d="M51.41,146.49v1.1c-1.53-1-2.35-2.5-3.54-3.56s-2.21-2.32-3.38-3.41-2.59-2.08-3.77-3.23-2.71-1.73-3.55-3.24a1.21,1.21,0,0,1,1.7,0,67.05,67.05,0,0,1,8.23,7.11,18.77,18.77,0,0,0,4.08,3,14.56,14.56,0,0,1,2.67,2.14c1,1,1.74,2.14,2.65,3.17a23,23,0,0,1,3.69,7.06,4.91,4.91,0,0,1,.1,2.16c-.11,1.09-.46,2.16,0,3.26.15.36.11.83-.35.88a1,1,0,0,1-.8-.53,4,4,0,0,1-.3-3.21,3.2,3.2,0,0,0-.25-3c-.9-1.6-1.66-3.27-2.59-4.86a15.48,15.48,0,0,0-1.66-2c-.57-.66-1.11-1.35-1.72-2a7,7,0,0,0-1.23-.81c-.16-.46-.16-.46-.58-.54a2.51,2.51,0,0,0,.26.32C51.17,146.37,51.3,146.42,51.41,146.49Z"/><path d="M29.47,103.37l-2.38,2.71-.22-.1a3.13,3.13,0,0,1,.21-.79c.17-.32.45-.58.65-.89A7,7,0,0,0,29,99.53a44.14,44.14,0,0,1,.05-5.91,8.84,8.84,0,0,1,1.11-3.72c.53.35.4.75.26,1.13a14.17,14.17,0,0,0-.36,8.12,5.53,5.53,0,0,1,0,1.29l1.17.38c.32.5.05.84-.25,1.13a.87.87,0,0,0-.19,1.12c.85,1.89,1.67,3.79,2.55,5.66a16.43,16.43,0,0,1,1.08,2.17l-.94-.41a2.18,2.18,0,0,0,.05.64c1.08,2.34,2.17,4.67,3.25,7,.92,2,1.9,4,2.72,6a4.9,4.9,0,0,1,.2,2.3,27.42,27.42,0,0,1-.77,4.06,4.24,4.24,0,0,1-1.07,1.57c-.12.14-.59.06-.83,0a.81.81,0,0,1,0-.71c1.36-1.42,1.12-3.34,1.59-5a2.75,2.75,0,0,0-.16-1.49A22.9,22.9,0,0,0,36.91,121a71.45,71.45,0,0,1-5.4-12.21q-.75-2.28-1.54-4.56A7.62,7.62,0,0,0,29.47,103.37Z"/><path d="M129.68,123.54a3.27,3.27,0,0,1,2.72,1.28,48.54,48.54,0,0,1,3.52,4.41c.64.89,1.09,1.9,1.65,2.84.3.51.65,1,1,1.51a3.4,3.4,0,0,1,.59,1.07,14.71,14.71,0,0,0,1.4,3.27c.56,1.4,1,2.86,1.39,4.31.24.78.41,1.59.61,2.39-.42.4-.77.25-.81-.19-.19-1.85-1.29-3.38-1.8-5.12a13.07,13.07,0,0,0-1.36-2.84,5.51,5.51,0,0,0,.66,3.23,29.56,29.56,0,0,1,1.58,4.77c.41,1.51,1,3,1.4,4.47a12.52,12.52,0,0,1,.38,2.29.73.73,0,0,1-.45.56c-.18,0-.48-.17-.63-.35a1.24,1.24,0,0,1-.16-.66c-.19-2.65-1.25-5.06-2-7.57a53.25,53.25,0,0,0-2.06-7c-.65-1.5-.56-3.18-1.41-4.55a41.5,41.5,0,0,0-2.8-3.93c-.83-1-1.82-1.94-2.74-2.91C130,124.51,129.49,124.26,129.68,123.54Z"/><path d="M25.49,161a6.7,6.7,0,0,1-.53-1.14,16.77,16.77,0,0,0-2.86-5.93,19.51,19.51,0,0,1-3.46-7.59,12.37,12.37,0,0,1,1.28-8.3,3.48,3.48,0,0,1,.56-.55,4.74,4.74,0,0,1-.29,2.94,8.76,8.76,0,0,0,.32,7.1c.73,1.48,1.39,3,2.21,4.45.63,1.11,1.44,2.12,2.18,3.17a7.37,7.37,0,0,1,1.24,4.83C26.1,160.2,25.82,160.45,25.49,161Z"/><path d="M148.58,144.33c1.4-.85,1.67-.78,2.4.27a72.05,72.05,0,0,0,7.58,9.23,17.31,17.31,0,0,1,3.2,4.92c.48,1,1,2.08,1.39,3.15a2.05,2.05,0,0,1,0,1.19.93.93,0,0,1-.62.59c-.24,0-.55-.26-.76-.47a1.12,1.12,0,0,1-.23-.64,12.25,12.25,0,0,0-1.71-4.58,11.46,11.46,0,0,0-1.07-1.42c-.4-.5-.82-1-1.22-1.5l-1.77-2.27a4,4,0,0,1-.44-.53c-1.41-2.69-3.82-4.5-5.8-6.7C149.23,145.23,148.95,144.81,148.58,144.33Z"/><path d="M144,152.85a3.29,3.29,0,0,1,1.11.21c1.94,1.3,4,2.42,4.93,4.8a6.93,6.93,0,0,1,.52,4.56c-.29-.18-.65-.28-.74-.49a6.66,6.66,0,0,1-.47-1.71,5.34,5.34,0,0,0-1.6-3.28,9.25,9.25,0,0,0-2.82-2.38A1.65,1.65,0,0,1,144,152.85Z"/><path d="M109.78,28.24a6.22,6.22,0,0,1-3.83.82C106.23,28.07,107.31,27.83,109.78,28.24Z"/><path d="M142.72,146.57c-.53-.24-.58-.53-.3-1C142.93,145.82,143,146.1,142.72,146.57Z"/><path d="M146.55,9.11c.39-.58.74-.48,1.08,0Z"/><path d="M126,14.14l.72-1.27L127,13l-.73,1.27Z"/><path d="M121.28,27.69l.22-.69.18,0-.12.73Z"/><path d="M105.42,39.25l-.12.22-.27-.15c.06-.06.12-.14.19-.16S105.36,39.22,105.42,39.25Z"/><path d="M108.14,40.26s-.1.13-.16.13-.11-.09-.16-.15l.17-.16Z"/><path d="M127.29,144.14a1.53,1.53,0,0,1-.34.27c-.06,0-.22-.06-.22-.09s.05-.27.11-.29S127.09,144.09,127.29,144.14Z"/><path d="M160.4,54.44c-.19.43-.39.86-.59,1.29-.36.74-.71,1.5-1.12,2.21-.13.22-.59.5-.69.44-.26-.17-.61-.57-.56-.78a5.28,5.28,0,0,1,2.28-3.31.44.44,0,0,1,.27,0A2.12,2.12,0,0,1,160.4,54.44Z"/><path class="b" d="M60.3,162c2.6-.48,10.55-.19,10.55-.19"/><path class="b" d="M25.49,161a15.62,15.62,0,0,1-11.32,0"/><path class="b" d="M162.55,163.69s-8.85,3.5-11.52.84"/></svg>