<svg xmlns="http://www.w3.org/2000/svg" viewBox="0 0 174.53 175.61"><defs><style>.a{fill:#fff;}</style></defs><title>horse-3</title><path class="a" d="M173.09,29.18c-2.33-1.89-4.69-3.89-7.62-4.67-3.42-.9-5.73-3.1-7.84-5.7a45,45,0,0,0-3.23-3.73,13.57,13.57,0,0,0-7-3.92,31.83,31.83,0,0,0-10.72-.52c-3.5.51-6.53,2.15-9.78,3.28a3.6,3.6,0,0,0-2.6,2.88c-.33,2.36-1.66,3.39-4,3.29-1.45-.07-2.11.81-2.52,2.09Q115.44,29.65,113,37.1c-.11.33-.58.53-.89.79a2.25,2.25,0,0,1-.38-.57,6.14,6.14,0,0,1-3.84,3.51l-.26.07a4.3,4.3,0,0,1-.28,3.2,30.18,30.18,0,0,0-3.15,2.35c-.42.4-.42,1.23-.65,2l3,.32c-1.42.82-2.87,1.15-3.22,2a9.76,9.76,0,0,1-4.66,4.6,16.58,16.58,0,0,1-.7,3.15A6.83,6.83,0,0,1,96,61.38c-3.42,2.34-7.25,3.75-11.44,3.24-5.26-.64-10.29-2.1-14.64-5.33a13.4,13.4,0,0,0-2.26-1.47,6.67,6.67,0,0,0-2.93-.92c-.92.06-1.81.81-2.71,1.25-3.7-1.24-4.77-.94-6.95,1.88a1.74,1.74,0,0,0-.24.38c-1,2.28-3,2.7-5.19,2.81a39.4,39.4,0,0,0-7.14.68c-3.17.73-6.25,1.91-9.83,3.05-1.2-.57-2.81-1.35-4.43-2.11a21.7,21.7,0,0,0-9.62-1.93,10.07,10.07,0,0,0-8.45,4.42A37.8,37.8,0,0,0,4.26,78.88C2.34,85.72,2.78,92.14,7,98.2c3.07,4.43,5.85,9.08,8.59,13.73,2.23,3.79,1.39,7.24-2.17,9.82a12.76,12.76,0,0,1-2.72,1.57c-2.59,1-3.52,3-3.7,5.63-.26,4.19-.63,8.36-1,12.55-.19,2.08,0,4.37-.87,6.19a16.55,16.55,0,0,0-1.57,7.09L1,156.84a10.29,10.29,0,0,0,2.63,4.86A16.23,16.23,0,0,1,7,167.41a7,7,0,0,0,5,4.8c2.73.55,5.67.21,8.5,0a2.47,2.47,0,0,0,1.95-3,13.39,13.39,0,0,0-1.83-4.06c-1.09-1.34-2-2.48-1.6-4.34.1-.44-.4-1.11-.78-1.54A26.38,26.38,0,0,0,16,157.11a4,4,0,0,1-1.33-4,59.86,59.86,0,0,1,6.57-16.69,2.53,2.53,0,0,1,3.4-1.31c1.91.66,3.54-.11,5-1.33a13.65,13.65,0,0,0,4.09-5.27,26.31,26.31,0,0,1,2.23-4.4,8.21,8.21,0,0,1,4.76-3.9c1.84,1.31,2,2.88,1.17,4.75a33.72,33.72,0,0,0-1.92,5c-.76,3-.8,5.89,1,8.63a13.82,13.82,0,0,1,1.81,4.08,32.32,32.32,0,0,0,3.62,8.2c1.07,1.81,2.22,3.57,3.17,5.44a27.34,27.34,0,0,0,9.74,11c.22.14.29.5.43.76-.44,3.23.07,4,2.82,4.23a3.22,3.22,0,0,0,.45,0c4.79-.21,9.58-.4,14.37-.66a1.83,1.83,0,0,0,1.16-.6,3.83,3.83,0,0,0,.41-1.35l-3.19-1.31A6.87,6.87,0,0,1,75.1,167c-1.1-5.59-4.53-9.33-9.39-11.95a11.49,11.49,0,0,1-4.84-5.16A54,54,0,0,1,56.52,139a9.3,9.3,0,0,0-1.36-3.28,6.34,6.34,0,0,1-.78-6.39c2.2-6.22,4.43-12.43,6.76-18.61a10.19,10.19,0,0,1,3-4.74c1.18.19,2.48.45,3.8.6,2.53.3,5.18,1.12,7.58.66,4.47-.86,8.65.26,12.86,1,2.83.49,5.5,1.33,8.4.56a3,3,0,0,1,2.49.47c2,2.18,4.44,1.93,6.62,1a13.46,13.46,0,0,1,5.24-.81c1.17,0,2.29.17,3.47-.5,1.49-.86,2.2-.66,3.07.45a25.42,25.42,0,0,1,2.51,3.73c2.6,4.89,5.07,9.86,7.72,14.73a7.08,7.08,0,0,1-.15,7.63,11.93,11.93,0,0,0-1.95,5.54c1.34.59,2.56,1.11,3.77,1.66,2.24,1,3.72,2.45,3.33,5.2a7.13,7.13,0,0,0,2.37,6.48,2.75,2.75,0,0,1,.81,1.07c1.16,4,3.72,7.08,6.76,9.83.54.49.75,1.32,1.26,1.84a15.27,15.27,0,0,0,2,1.49c-.35.83-.9,1.5-.83,2.11a1.84,1.84,0,0,0,2,1.48c3.27.11,6.57.48,10-.31a13.46,13.46,0,0,1,.52-2.18c1.62-3.77-.28-7-1.52-10.35a5.11,5.11,0,0,0-2.28-2.05,17.35,17.35,0,0,0-3-1,8.22,8.22,0,0,1-4-2.76c-3-3.88-3.68-8.36-3.9-13,2.61-1.48,4.92-2.86,7.28-4.13,1.58-.84,2.72-2,2.74-3.81a9.27,9.27,0,0,1,1.88-5c1.85-2.91,3.58-5.9,5.5-8.76,2.59-3.86,2-7.69.1-11.51a5.26,5.26,0,0,0-4.57-3.17c-3.73-.19-6.68-2.36-9.75-3.67-.69-1.83-.07-3.22.44-4.63,1-2.82,2-5.67,3-8.48a14,14,0,0,0,.66-6.63,35,35,0,0,1-.12-7.15,59.28,59.28,0,0,0-.35-16.13c-.9-4.77-.11-9.51.62-14.79L154,43a9.85,9.85,0,0,0,3.06.24,14.46,14.46,0,0,1,4.9-.14,35,35,0,0,0,4.93,0,2.05,2.05,0,0,0,2.2-1.88c0-2.7,1.47-4.44,3.43-6a6.15,6.15,0,0,0,1.15-1.39C175,32,174.85,30.61,173.09,29.18ZM23.91,78.61c1,3.56,0,7.11.65,10.54C22,85,21.77,81,23.91,78.61Zm122.4,37.9a2.25,2.25,0,0,1,1,1.43,6.19,6.19,0,0,1-.73,5.19,15.3,15.3,0,0,1-5.22,4.85,3.57,3.57,0,0,1-1.29.14c-1.68-3-2.65-8.69-2.21-13.27C140.87,114.13,143.61,115.3,146.31,116.51Z"/><path d="M142.5,5.64a7,7,0,0,0-2.88,3.28c0,.09,0,.23-.1.26-.67.29-.82,1-1.26,1.5a3,3,0,0,0-.87,1.75,1.61,1.61,0,0,1-.58.83c-.25.24-.76,0-.91-.38a3.27,3.27,0,0,1-.09-.75c-.06-.62-.21-.76-.84-.77s-1.08,0-1.62,0c-.12,0-.3,0-.36.08-.46.63-1.24.59-1.84.91a4.77,4.77,0,0,0-1,.76c-.55.52-1,1-1.89.44-.18-.13-.67,0-.94.2a8.71,8.71,0,0,0-1.09.92c-.53.45-1.08.88-1.58,1.36a3.91,3.91,0,0,0-.79,1.06,11,11,0,0,1-1.57,2.71,1.07,1.07,0,0,0-.22.42c-.26.86-.48,1.74-.76,2.6-.14.44-.38.85-.66,1.49l-.23-1.49h-.17a1,1,0,0,0-.12.33,13,13,0,0,1-.91,4c-.2.66-.37,1.34-.59,2a27.36,27.36,0,0,1-1.31,3.76,11.61,11.61,0,0,1-2.45,3.6c-.23.21-.53.39-.37.78a4.41,4.41,0,0,0,2.1-1.29c.65-.66.92-.69,1.89-.13a2.88,2.88,0,0,1-.41.59,14.34,14.34,0,0,1-3.49,2.29,14,14,0,0,0-1.62,1c-.32.2-.65.41-1,.58-.66.31-1.32.62-2,.88a4.42,4.42,0,0,1-1,.15c-.24.12.08.78-.53.66-.07,0-.18.19-.27.29.14.09.29.29.41.27a7.82,7.82,0,0,0,2.75-.72c.78-.43,1.6-.78,2.41-1.13a1.81,1.81,0,0,1,1.35-.06c0,.06,0,.17,0,.17-1,.24-1.62,1.09-2.43,1.62a7.49,7.49,0,0,1-5.57,1.4,1.15,1.15,0,0,1-1-.95l1.17-.72c-.46,0-.78,0-1.1-.08a2.51,2.51,0,0,1-.65-.13.37.37,0,0,1-.17-.3c0-.1.13-.2.22-.27a.65.65,0,0,1,.28-.05,5.75,5.75,0,0,0,3.75-2,10.74,10.74,0,0,1,2.26-1.73A9.18,9.18,0,0,0,115.84,33a11.41,11.41,0,0,1,1.52-3.16.86.86,0,0,0,.12-.26c.34-1,.72-2,1-3.07a6.89,6.89,0,0,0,0-1.6c0-.31,0-.62,0-.93a3.43,3.43,0,0,1,1-2.17,10.43,10.43,0,0,0,1.87-3.16c.4-1,1-1.89,1.51-2.84a14.24,14.24,0,0,0,.66-1.48,2.32,2.32,0,0,1,1.24-1.49,1,1,0,0,0,.38-.29c1-1.2,2.45-1.53,3.85-1.95a14.91,14.91,0,0,1,3.9-.81.59.59,0,0,0,.19,0,16.19,16.19,0,0,1,4.31-1.14,1.1,1.1,0,0,0,.65-.36,10.12,10.12,0,0,1,2.76-2.58,2.11,2.11,0,0,0,.62-.71,5.72,5.72,0,0,1,2.16-2,4.42,4.42,0,0,0,.71-.62,7,7,0,0,1,.88-.72.44.44,0,0,1,.73.3,1.51,1.51,0,0,0,.28.57,1.13,1.13,0,0,1,.22,1.08c-.24,1-.48,2-.75,3.06-.43,1.64-.35,1.73,1.33,1.9a1.75,1.75,0,0,0,1.66-.61,8.29,8.29,0,0,1,2.11-1.42,2.29,2.29,0,0,0,1.44-1.86c0-.34.1-.67.56-.58a.58.58,0,0,1,.48.79c-.25.88-.52,1.76-.81,2.63-.19.57-.43,1.12-.63,1.69a1,1,0,0,0,.34,1.1c.66.63,1.32,1.26,1.92,1.94a12.45,12.45,0,0,1,1,1.47c.83,1.27,1.65,2.55,2.53,3.91a.93.93,0,0,1,1,.46c.76,1,1.62,1.88,2.43,2.81a1.27,1.27,0,0,0,1.2.43,2.23,2.23,0,0,1,2.44,1.07,2.41,2.41,0,0,0,.84.77c1.3.73,2.62,1.41,3.92,2.13.49.27.94.65,1.44.89a8,8,0,0,1,3.1,3.31c-.81,1.17-.77,1.44.45,2.34a4.58,4.58,0,0,0-.69,2.56,2.61,2.61,0,0,1-1.56,2.14l-.56.24c0,.23,0,.44.07.65l-.13-.06a11.33,11.33,0,0,0-.72,1.27,2,2,0,0,1-2,1.4,1,1,0,0,0-1,.73c-.58,0-1.11-.08-1.65-.14a2.06,2.06,0,0,1-1.69-.92,1.28,1.28,0,0,0-.74-.53,14.44,14.44,0,0,0-2.25-.34,30.68,30.68,0,0,1-5.77-.53,5.15,5.15,0,0,0-1.14-.13,4.69,4.69,0,0,1-1.47-.32,10.05,10.05,0,0,0-2.24-.4.66.66,0,0,0-.76.68c-.06,1.17-.46,2.28-.57,3.43-.21,2.05-.32,4.11-.37,6.18,0,1.81.09,3.62.07,5.43,0,1,.18,2,.17,2.93,0,2.38.77,4.63,1,7,0,0,0,.06,0,.09.22,2.24.46,4.48.67,6.73.05.56,0,1.11-.65,1.35,1,.42,1,.49.83,1.43a2.9,2.9,0,0,0-.11,1.48,2.45,2.45,0,0,1-.15,1c0,.19-.16.38-.13.55a5.09,5.09,0,0,1-.14,2c-.12.62-.19,1.26-.29,1.94a3.29,3.29,0,0,0,.25.22c.43.32.49.54.1.77-.81.47-.9,1.23-1,2,0,.34-.21.66-.24,1-.08.84.06,1,1,.85-.25.61-.5,1.19-.72,1.77a1.94,1.94,0,0,0-.11.61,3,3,0,0,1-.49,2,.38.38,0,0,0-.11.26c.17,1-.48,1.81-.52,2.77a3.41,3.41,0,0,1-.45,1.33,21.53,21.53,0,0,0-1.27,2.31,7,7,0,0,1-2,2.74c-.11.1-.22.22-.41.42a29.88,29.88,0,0,0,3,2.47c1.54.83,3.06,1.69,4.61,2.51s2.79,1.5,4.23,2.15a11.84,11.84,0,0,0,2.46.69,1.27,1.27,0,0,1,1,.63,7.14,7.14,0,0,0,1.25,1.4,2.49,2.49,0,0,1,.75,1.51,15.56,15.56,0,0,1-.14,4.28c-.08.54.12,1.11-.21,1.64-.1.16-.14.35-.24.52-.75,1.25-1.49,2.51-2.26,3.74-.28.46-.63.87-.94,1.32-.59.86-1.17,1.73-1.74,2.6a11.32,11.32,0,0,0-1.72,3.58,15.37,15.37,0,0,1-1.22,3.57,5.49,5.49,0,0,0-.38,1.66,5.73,5.73,0,0,1-1.54,2.8,7.75,7.75,0,0,1-4.44,2.77,13.87,13.87,0,0,0-4.67,2.28,15.42,15.42,0,0,1-1.52.76,2,2,0,0,0-.27.09,8.34,8.34,0,0,1-3.28,1.18c-.73.15-.81.36-.69,1.09a3.7,3.7,0,0,0,.48,1.87c.19.25.14.68.22,1s.24.91.35,1.37c.05.21.09.43.12.64s0,.42.07.54a3.53,3.53,0,0,1,.51,2.53,1.28,1.28,0,0,0,.09.44c.18.63.39,1.26.55,1.9s.33,1.41.48,2.12.23,1.33.41,2,.06,1.47.64,2c0,0,.08.13.06.17-.35.8.34.91.77,1.25.71.58,1.36,1.23,2,1.87s1,1.07,1.53,1.56a5.54,5.54,0,0,1,2,3.27,9.68,9.68,0,0,0,.47,1.85,1.82,1.82,0,0,0,.72,1,9,9,0,0,0,3.61,1l-2.84-1.46c.23-.11.38-.25.52-.24a4.85,4.85,0,0,1,1.4.24,3.8,3.8,0,0,0,1.86.17c1-.07,2.1,0,3.15,0a7.32,7.32,0,0,0,1,0c.56-.08.68-.32.5-.85-.12-.36-.25-.72-.37-1.08a1.48,1.48,0,0,1-.1-.46c0-.3.2-.68.08-.88-.52-.9-.74-2-1.6-2.68a10,10,0,0,1-.73-.73,4.33,4.33,0,0,0-1.72-1.31,1.74,1.74,0,0,1-1.1-1.12,1.44,1.44,0,0,0-1-.91,3.09,3.09,0,0,1-1.9-1.16.33.33,0,0,0-.14-.13,5.66,5.66,0,0,1-2.52-2.51,18.49,18.49,0,0,1-1.35-2.35c-.5-1.27-1-2.55-1.45-3.82-.6-1.61-.79-3.32-1.48-4.89a1.8,1.8,0,0,1,.12-1.81,13.86,13.86,0,0,1-.75-1.33.72.72,0,0,1,.39-1c.35-.12.69.17.85.68.25.81.54,1.6.83,2.44l-.41.2c0,.09,0,.17,0,.21a1.93,1.93,0,0,1,.44.9,44.6,44.6,0,0,0,1.17,4.4c.37,1.11,1,2.15,1.41,3.22.31.72.52,1.48.87,2.18a5.06,5.06,0,0,0,1,1.27,35.24,35.24,0,0,0,2.83,2.66,17.65,17.65,0,0,0,2,1c1,.6,2,1.24,2.93,1.93a11.85,11.85,0,0,1,2.55,2.93,4.14,4.14,0,0,1,.61,1.78,10.48,10.48,0,0,0,.26,1.47,1.11,1.11,0,0,0,.51.82c.4.24.26.69.11,1A5.19,5.19,0,0,1,159,172a.71.71,0,0,1-.54.27,1.39,1.39,0,0,0-1,.39,6.75,6.75,0,0,1-5.49,1.27c-1.17-.29-2.34-.57-3.51-.84-.56-.13-1.12-.24-1.68-.33-.74-.12-.91-.29-.95-1,0-.19,0-.38,0-.57a5.4,5.4,0,0,0-1.42-3.84c-.81-.94-1.67-1.83-2.53-2.72a7,7,0,0,0-.76-.62l-.38.64c-.05,0-.15,0-.15-.07a5.51,5.51,0,0,0-.91-1.86,2,2,0,0,1-.33-.86,14.78,14.78,0,0,0-.89-4.08,21,21,0,0,1-.61-2.5c-.35-1.58-.66-3.17-1.05-4.74-.28-1.13-.68-2.23-1-3.35,0-.15-.16-.3-.15-.45.08-1.41-.87-2.41-1.42-3.59-1.65.33-2.9-.45-4.09-1.4a.85.85,0,0,1-.14-.14c-.43-.47-.5-1-.19-1.27s.8-.26,1.27.17a3.39,3.39,0,0,0,2.08,1.25c1.7,0,3.42.23,5.05-.52,1.41-.64,2.89-1.15,4.26-1.86s2.61-1.57,3.91-2.36c.67-.4,1.35-.78,2-1.17l.14.14-.37.77c.08,0,.16,0,.19,0a29.65,29.65,0,0,0,2.1-2.54,26.31,26.31,0,0,0,1.13-2.4,1.19,1.19,0,0,0-.11-1.36c.7-1.19,1.4-2.36,2.06-3.55a9.26,9.26,0,0,0,.35-1c.16-.37.25-.87.54-1.08a7.35,7.35,0,0,0,1.81-2.4q2.28-3.8,4.48-7.65a2.53,2.53,0,0,0,.1-2,4.64,4.64,0,0,1-.22-1.1,4.4,4.4,0,0,0-2.1-3.45c-.3-.22-.58-.48-.87-.71a1.56,1.56,0,0,0-.45-.32c-1.36-.41-2.73-.82-4.09-1.21a4.62,4.62,0,0,1-2.61-1.45.66.66,0,0,0-.4-.24,3.36,3.36,0,0,1-1.81-1,3.22,3.22,0,0,0-.67-.35c-.23-.11-.53-.16-.67-.34a9.2,9.2,0,0,0-2.78-1.79,4.94,4.94,0,0,1-1.58-1.61.91.91,0,0,1,0-.64,30.79,30.79,0,0,0,.8-3.43,6.14,6.14,0,0,1,1.06-2.47,21.9,21.9,0,0,0,2.21-4.71c.44-1.46,1.1-2.85,1.52-4.31a6,6,0,0,0,.52-2.75A4.5,4.5,0,0,1,149,79.2c0-.15.2-.36.15-.44-.53-.79.19-1.62-.08-2.41a.15.15,0,0,1,0-.09,25.72,25.72,0,0,0,.23-3.43,10.91,10.91,0,0,0-.09-2.84,6.64,6.64,0,0,1,.31-2.62,2.49,2.49,0,0,0-.11-1.74A2.47,2.47,0,0,1,149.2,64a1.08,1.08,0,0,0,0-.47c-.34-1.63-.7-3.26-1-4.89a6.21,6.21,0,0,1-.07-.75,2.54,2.54,0,0,0-.09-.73,1.33,1.33,0,0,1-.11-1.1.57.57,0,0,0,0-.46c-.22-.36-.06-.65.07-1a2.44,2.44,0,0,0,.17-1,13.93,13.93,0,0,1-.08-4.46,2.28,2.28,0,0,0-.1-1.22,7.54,7.54,0,0,1-.19-3.21c0-.63,0-1.27.06-1.9a28.86,28.86,0,0,1,.17-3.32,7.74,7.74,0,0,1,.81-1.91,4.45,4.45,0,0,1,.28-.39c.6-1,.6-1,1.68-.66a7.74,7.74,0,0,0,1.39.16c.18,0,.37.06.55.08.34,0,.68.07,1,.08s.89,0,1.33,0c1.29.15,2.58.33,3.88.48a1,1,0,0,0,.65,0,1.57,1.57,0,0,1,1.55-.06,6.41,6.41,0,0,0,2.83.21,1.33,1.33,0,0,1,1.05.28A6.12,6.12,0,0,0,168,39a1.16,1.16,0,0,0,.47,0c.54-.18,1.07-.38,1.61-.57-.19-.45-.36-.88-.56-1.29a1.2,1.2,0,0,0-.94-.73l-.56-.09c-1.66-.27-3.12-1.15-4.73-1.56a5.9,5.9,0,0,1-.9-.39,5.17,5.17,0,0,1-.57.5.82.82,0,0,1-.51.16A13.14,13.14,0,0,1,157,33.9a1.76,1.76,0,0,0-.64-.18,1.53,1.53,0,0,1-1.15-.6,1.79,1.79,0,0,0-1.16-.57,5.72,5.72,0,0,1-1.59-.57c-.79-.47-1.51-1.06-2.27-1.58a3.67,3.67,0,0,0-.68-.31,2.35,2.35,0,0,1-.52-.23c-2-1.58-4.34-2.74-6.38-4.3a11.45,11.45,0,0,1-1-1q-1.12-1.09-2.26-2.16c-.25-.23-.55-.42-.81-.65-.61-.55-1.23-1.09-1.8-1.68-.33-.33-.56-.75-1-.9-.32.39.18,1-.37,1.21-.09,0-.19,0-.2-.08a4.09,4.09,0,0,0-1-1.68,2.52,2.52,0,0,1-.4-2.24c0-.06.09-.11.09-.16,0-.9-.1-1.8-.16-2.82a1.33,1.33,0,0,0-.48,1.42,1.37,1.37,0,0,1-.5,1.59c-.24.18-.28.68-.33,1a15.25,15.25,0,0,0-.46,3.09,10.89,10.89,0,0,0,1,3.84,7.86,7.86,0,0,0,1.92,3.15,2.43,2.43,0,0,1,.8,1.24s0,.11-.08.31c-.94-.67-2.19-.58-3-1.5-.47-.52-1-.39-1.53.06a12.21,12.21,0,0,1-1.11-1.48,9.6,9.6,0,0,1-.54-1.6c.43-.11.55.21.76.36.69.51,1.38,1,2.07,1.49a.5.5,0,0,0,.74-.06c0-.07,0-.12,0-.12A3,3,0,0,1,131.21,24a3.82,3.82,0,0,0-.29-.9,1.94,1.94,0,0,1-.07-1.75,2,2,0,0,0,0-1.09,6,6,0,0,1-.05-1.59,16.31,16.31,0,0,1,.54-2.59,16.07,16.07,0,0,1,.87-1.87,3.17,3.17,0,0,0,.29-.85c.08-.58.27-.77.85-.78a3.6,3.6,0,0,1,2.32,1l-.85.6a1.67,1.67,0,0,0,1.07,1,2.22,2.22,0,0,1,1.14.81,33.88,33.88,0,0,0,6.63,6c.68.46,1.26,1.06,1.91,1.57a32.64,32.64,0,0,0,6.19,3.88c1.26.59,2.48,1.25,3.78,1.9.3-.38.6-.74.88-1.11A13.87,13.87,0,0,1,159,25.26a5.71,5.71,0,0,0,.9-1.22c.32-.43.67-.84,1.08-1.37a3.91,3.91,0,0,0-.52-.77c-.48-.46-1-.87-1.52-1.3-.12-.1-.28-.19-.35-.32-.67-1.41-1.94-2.32-2.94-3.46a.85.85,0,0,1-.31-.83,1.16,1.16,0,0,0-.4-.82c-1.11-1.08-2.24-2.16-3.41-3.18a2.23,2.23,0,0,0-1.12-.29,3.92,3.92,0,0,0-2.73-1.32c-.25,0-.49-.15-.74-.17a5.82,5.82,0,0,0-1.3,0c-.66.1-1,0-1.13-.65a3.16,3.16,0,0,1-.08-.85c0-.89,0-1.78.06-2.67a2.82,2.82,0,0,0-.15-.57c-.65,1-1.49,1.64-1.7,2.74-.13.69-.3.8-1,1.2a3.28,3.28,0,0,1,.26-2.12c.23-.54.35-1.12.6-1.65.31-.08.55-.2.44-.62C142.51,5.08,142.54,5.38,142.5,5.64Zm25.93,21.52c-.23-1-1-1.27-1.7-1.65a4.09,4.09,0,0,1-1.21-.87,1.59,1.59,0,0,0-1.69-.57,5.49,5.49,0,0,0-2.77,1.6c-1.13,1.1-2.25,2.23-3.37,3.35-.11.11-.29.23-.3.35-.05.5-.45.69-1,1a9.41,9.41,0,0,0,1.38.85c1.42.55,2.84,1.08,4.29,1.53,2,.61,4,1.09,6,1.53a12.49,12.49,0,0,0,1.38.35,2.52,2.52,0,0,1,1.56.56.63.63,0,0,0,1.05-.13,4.22,4.22,0,0,0,.64-2.25,9.09,9.09,0,0,0-1.6-4c-.23-.4-.74-.65-1.13-1-.17-.14-.4-.23-.51-.4C169.2,27,168.92,26.82,168.43,27.16Zm-13.07,2.62c-.56-.26-1.1-.51-1.64-.74-1.17-.49-2.36-.93-3.5-1.48a33,33,0,0,1-5.15-2.93c-.82-.59-1.65-1.16-2.44-1.79-.94-.75-1.78-1.65-2.78-2.3a14.81,14.81,0,0,1-2.69-2.25,5.91,5.91,0,0,0-1-.68c-.08.27-.07.43,0,.53a17.92,17.92,0,0,0,1.7,2c1.42,1.31,2.91,2.55,4.39,3.79.53.45,1.12.82,1.69,1.22a16.38,16.38,0,0,0,2.28,1.52,25.58,25.58,0,0,1,3.21,1.61,4.5,4.5,0,0,0,.67.35c.92.41,1.85.81,2.77,1.23.68.31,1.35.64,2.05,1C155.11,30.46,155.21,30.17,155.35,29.78Zm-5.88-21c.81.3,1.17.35,1.33,0a2.43,2.43,0,0,0,.52-1.94A5.63,5.63,0,0,0,149.47,8.8Zm-2,84.19c.15-.53.32-.95,0-1.41C146.82,92.47,146.81,92.58,147.44,93ZM135.66,16.77c-.32-.26-.55-.32-.85.06C135.12,17.09,135.36,17.13,135.66,16.77Zm-.82,1.93.06.16.52-.19-.07-.17Zm13,72.35c.08-.1.16-.16.17-.23s-.06-.15-.1-.22a.84.84,0,0,0-.21.21S147.79,91,147.85,91.06ZM136,11.11l.25,0-.13-.48-.2.05C136,10.8,136,11,136,11.11Zm10.9,82.45c-.11,0-.2-.09-.25-.06s-.1.13-.15.19.15.1.2.09S146.85,93.67,146.94,93.57Z"/><path d="M105.23,49.75a1.36,1.36,0,0,0,1.34.23c1.31-.46,2.64-.9,4-1.34L114,47.47c-.33.92-1.15,1-1.66,1.5.15.1.33.17.41.3a1,1,0,0,1,.16.57.85.85,0,0,1-.27.49,18.58,18.58,0,0,1-2.29,1.94c-1.55,1-3.18,1.85-4.79,2.75-.27.15-.59.24-.86.4a5.42,5.42,0,0,0-.59.41c.31.4.6.29.92.21.49-.12,1-.2,1.49-.28.12,0,.3-.06.37,0a1.82,1.82,0,0,1,.52.59c0,.08-.21.37-.38.44-.55.24-1.12.42-1.68.65a3.6,3.6,0,0,0-.52.32,5.82,5.82,0,0,1,.29.51c.22.5.14.74-.36,1a3.24,3.24,0,0,1-.87.37A8,8,0,0,0,101,61.09a20.84,20.84,0,0,1-3.28,1.73c-1.6.68-3.25,1.23-4.88,1.84a1.44,1.44,0,0,1-.47.06,9.82,9.82,0,0,0-3.66.46,1.35,1.35,0,0,1-.56,0c-.12,0-.32-.09-.36,0-.58.74-1.38.23-2.06.35a9.71,9.71,0,0,1-2.16,0c-1,0-2.1,0-3.13-.17-1.85-.24-3.7-.53-5.54-.87a7.91,7.91,0,0,1-1.39-.6,26.11,26.11,0,0,1-3-1.19c-1.27-.71-2.45-1.59-3.66-2.4-.25-.17-.42-.51-.87-.3a7.91,7.91,0,0,0,.68,3.28c.27.46.5.95.72,1.44a.78.78,0,0,1,.09.54c-.37.92.15,1.6.6,2.29a14.52,14.52,0,0,0,3.08,3.35c.22.18.48.31.71.48s.63.52,1,.75.92.65,1.4.95q1.85,1.16,3.72,2.3a5.47,5.47,0,0,0,.79.31,6,6,0,0,1,2.12,1c.16.16.46.18.69.28a2.54,2.54,0,0,1,.92.45,1.54,1.54,0,0,0,1.27.51c.5,0,1,.12,1.51.19a1.14,1.14,0,0,0,.28.05c1.56-.31,3.17.08,4.72-.28A5.4,5.4,0,0,0,92,77.26c1.89-1.21,4-2.05,5.76-3.48a9.79,9.79,0,0,0,1.77-2.32c1-1.52,1.84-3.17,2.94-4.66a7.65,7.65,0,0,0,1.37-2.91,2.55,2.55,0,0,1,1.31-2,1.31,1.31,0,0,0,.48-.56c.29-.53.54-1.08.83-1.61.1-.18.26-.43.42-.46a.76.76,0,0,0,.6-.52c.16-.37.46-.38.8-.26a4.48,4.48,0,0,1,1.87,1.44c.26.31.56.6.85.89.48.51,1,1,1.43,1.53s1,1.3,1.55,1.93a22.87,22.87,0,0,1,2.21,4.21,6.55,6.55,0,0,1,.39,1.47,26.11,26.11,0,0,1,.89,5,14.08,14.08,0,0,1-.06,1.52c0,.09,0,.22-.09.25-.81.39-.57,1.2-.67,1.83-.18,1.19-.11,2.41-.32,3.59a31.52,31.52,0,0,1-1,3.65,20.16,20.16,0,0,0-1,2.88,12.91,12.91,0,0,1-1,2.69c-.4,1.08-1.11,2-1.57,3-.64,1.43-1.57,2.67-2.23,4.07a2.86,2.86,0,0,1-.82.91c-1.32,1-2.65,2.08-4,3.08a19.15,19.15,0,0,1-1.93,1.23,9.36,9.36,0,0,0-1.49,1.15,6.43,6.43,0,0,1-1.8.77c-.29.12-.57.26-.86.37l-1.68.61a6.77,6.77,0,0,0-1.15.41,4.48,4.48,0,0,1-5.07-.41,3.17,3.17,0,0,0-1.58-.69c-1.58-.3-3.22-.27-4.77-.72a5.59,5.59,0,0,0-2.41-.38,1,1,0,0,1-.46-.09c-2.06-.75-4.24-.65-6.37-.92-.69-.09-1.36-.28-2-.42a6.6,6.6,0,0,0-1.49-.25,5.58,5.58,0,0,1-2.19-.53,9.18,9.18,0,0,0-2-.77,11,11,0,0,0-2.44.14,11.2,11.2,0,0,1-1.11.22,13.47,13.47,0,0,0-4.3.68c-.45.15-.94.15-1.4.28a16.26,16.26,0,0,0-1.78.61c-.82.34-1.61.75-2.44,1.07a1,1,0,0,1-.78-.1.58.58,0,0,1,0-.86,1.86,1.86,0,0,1,.72-.6c1.42-.52,2.79-1.15,4.28-1.54s3.08-.4,4.61-.67c1-.17,1.93-.36,2.9-.47a13.66,13.66,0,0,1,3.59-.21,28.6,28.6,0,0,0,4.91,0A2.14,2.14,0,0,1,76,101a14.68,14.68,0,0,1-2.69.37,8.62,8.62,0,0,0-2.76.14,1.63,1.63,0,0,0,1.48.75c.63,0,1.26,0,1.89,0a12.49,12.49,0,0,0,1.43,0,3.18,3.18,0,0,1,2.12.31.62.62,0,0,0,.27.07c1.6.21,3.21.41,4.81.64s3.44.56,5.18.76c1.2.14,2.41.15,3.62.17s2.23,0,3.34,0a11.08,11.08,0,0,0,5.86-1.72c.27-.15.43-.52.63-.8s.4-.6.66-1l.6.72,4.45-4.27.23.14c-.11.44-.22.87-.34,1.32.53.2.81.1,1.23-.56.6-.92,1.15-1.89,1.83-2.76a20.11,20.11,0,0,0,2-3.36,19.2,19.2,0,0,0,.85-2.34l-.52-.1.51-2.12c.2-.8.37-1.61.59-2.41a32.06,32.06,0,0,0,1.11-10.56,19,19,0,0,0-2-7.6c-.38-.73-.74-1.47-1.15-2.26L112,64c-.71-.93-1.2-2-2.43-2.34-.87-.27-.87-.38-.75-1.32l-.88-.57c-.35.69-.64,1.3-1,1.9-.51.92-1.1,1.79-1.55,2.73-.65,1.37-1.21,2.79-1.8,4.19a6.2,6.2,0,0,1-.5,1.12c-.9,1.3-1.78,2.62-2.79,3.83A10.16,10.16,0,0,1,98.46,75a11,11,0,0,1-1.67,1.1,34.6,34.6,0,0,1-4.71,2.29c-.52.16-.95.65-1.47.81-.87.25-1.8.31-2.69.53a7.26,7.26,0,0,1-3.6-.28A12.22,12.22,0,0,0,82,79.18a19.86,19.86,0,0,1-5.12-.94c-1.27-.41-2.51-.9-3.77-1.31-.64-.21-.92.08-.71.73a5.77,5.77,0,0,1,.09,2.92,43.43,43.43,0,0,1-.91,4.48c-.53,1.75-1.29,3.44-2,5.15a.48.48,0,0,0,0,.4l.63-.76c.4.19.31.5.23.76-.16.58-.37,1.15-.56,1.72-.08.24-.21.47-.27.71-.22.93.07,1.39,1,1.58,1.74.37,3.47.81,5.22,1.09,1.53.24,3.1.33,4.65.43,1,.06,2,0,3,0a.73.73,0,0,1,.28,0c1.49.61,3.08.29,4.62.46a49,49,0,0,0,5.23.06c1.84,0,3.68.08,5.52,0a15.9,15.9,0,0,0,4.62-.45,7.41,7.41,0,0,1,1.79-.22c.3,0,.58,0,.56.56a18.55,18.55,0,0,1-3.37.63,5.74,5.74,0,0,0-1.09.21,3.32,3.32,0,0,1-.63.16l-5.72,0a20.33,20.33,0,0,0-3.12,0,24.89,24.89,0,0,1-4.38.17c-.72,0-1.44-.19-2.16-.24-.95-.07-1.91-.06-2.86-.12s-1.64-.16-2.45-.24a4.18,4.18,0,0,0-.66-.08c-2.09.13-4.09-.51-6.12-.79a32.69,32.69,0,0,1-3.69-.93,2.16,2.16,0,0,1-.45-.16c-.67-.35-1.29-.73-1.09-1.7h-.59a2.22,2.22,0,0,1,.18-1.49A15.34,15.34,0,0,0,69.26,88a.91.91,0,0,1,.13-.35,12,12,0,0,0,1.31-4c.31-1.49.56-3,.8-4.5a14.07,14.07,0,0,0,.22-2.16,1.74,1.74,0,0,0-.39-1,8.62,8.62,0,0,0-1-.86A5.23,5.23,0,0,1,69.2,73.9a19.51,19.51,0,0,0-2.1-2.57,8.06,8.06,0,0,1-1.18-2c-.19-.5-.48-.76-.89-.6a6.36,6.36,0,0,1-3.16,0,3.79,3.79,0,0,0-.77.09c.4,1.33.79,2.6,1.16,3.86.1.36.16.74.24,1.11s0,.64.19.82c.6.67.38,1.43.34,2.17-.05.95-.13,1.9-.14,2.85A6.86,6.86,0,0,1,62.44,82c-.21.55-.25,1.17-.44,1.74a3.13,3.13,0,0,1-.8,1.19V83.7l-.15-.07a3.79,3.79,0,0,0-.44.82,10.43,10.43,0,0,1-1.54,2.8c-.32.54-.57,1.13-.88,1.68a10.93,10.93,0,0,1-.72,1.12,8.8,8.8,0,0,0-1.6,2.76.84.84,0,0,1-.16.34c-1,1.13-1.36,2.64-2.16,3.89a26.54,26.54,0,0,0-2.17,4.39,2.52,2.52,0,0,1-.32.47,3.41,3.41,0,0,1,.2,2.53c-.69-.35-1.14-.72-1-1.51a4.77,4.77,0,0,0,0-.67,2.8,2.8,0,0,1,.62-2.11c.23-.23.26-.69.36-1s.15-.62.21-.93.12-.73.2-1.1c0-.2.13-.4.24-.73l.42.69c.1-.14.22-.22.24-.32a9.84,9.84,0,0,1,2-4.16c.23-.33.46-.67.69-1l1.29-1.87a3,3,0,0,0,.48-.81c.34-1.31,1.25-2.35,1.76-3.57.28-.67.6-1.33.91-2,.22-.46.47-.89.68-1.35a3.73,3.73,0,0,0,.23-.79,5.33,5.33,0,0,1,.29-1.39,6.55,6.55,0,0,0,.52-2.38.57.57,0,0,0,0-.19,7.77,7.77,0,0,1-.13-3c.05-.45-.13-.52-1-.59a6.89,6.89,0,0,1-.58-2.17,11.36,11.36,0,0,0-2.28-5.67,5,5,0,0,1-.9-1.87l-.83-3.19,1-1.4a4.67,4.67,0,0,1-.51-.65.64.64,0,0,1-.05-.51c.06-.1.32-.09.49-.11s.12,0,.18.06a1.75,1.75,0,0,0,1.94-.35,1.35,1.35,0,0,1,1.76-.17c.67.43.66.66-.15,1.16a8.46,8.46,0,0,0,.93.34c.77.19,1.54.37,2.32.51a1.14,1.14,0,0,0,.7-.15c.3-.17.54-.44.83-.64a1.71,1.71,0,0,1,2.2,0c.79.59,1.55,1.22,2.34,1.81A16.08,16.08,0,0,0,74.37,63c1.31.43,2.67.55,4,.89,2.75.72,5.49.25,8.23.11.44,0,.89-.06,1.33-.12.82-.1,1.63-.23,2.45-.34.5-.07,1-.14,1.51-.23.81-.15,1.62-.29,2.42-.49.54-.13.71-.57.73-1.13l-1.69-.35a.71.71,0,0,1,1-.28.52.52,0,0,0,.79-.27c.19-.41.56-.45.95-.52a11,11,0,0,0,1.36-.38c.42-.13.84-.29,1.26-.43l3.49-1.14,0-.19c-.11,0-.23-.07-.32,0-.85.35-1.69-.12-2.54,0a.56.56,0,0,1-.39-.23,1.82,1.82,0,0,0-1.62-.62A24.82,24.82,0,0,1,94.69,57a2.34,2.34,0,0,1-1-.47,16,16,0,0,1,3.42-.31c1.16-.13,2.31-.37,3.44-.56.13-.92.34-1.13,1.17-1.27a17.93,17.93,0,0,0,4.51-1.45c1-.45,2-.9,2.93-1.39a13.18,13.18,0,0,0,2.63-1.95A3.31,3.31,0,0,0,110,50c-.84.28-1.66.6-2.48.93-.53.21-1,.52-1.56.67a2.13,2.13,0,0,1-1.19,0,1.06,1.06,0,0,1-.5-.71c0-.14.23-.38.38-.55s.4-.38.6-.57ZM64.59,67.44c.93,0,1.14-.3.82-1.06a13.67,13.67,0,0,1-1.06-4.71c0-.86-.11-.92-1-1.05L58.73,60c-.58-.08-1.42.56-1.33,1.15a12.79,12.79,0,0,0,.72,2.73,6.12,6.12,0,0,0,2.81,3,2.43,2.43,0,0,0,2.15.38,2.28,2.28,0,0,1,1,.07A2.83,2.83,0,0,1,64.59,67.44Zm6.93,5.64-.08.19c2,2.15,6.38,4.17,7.62,3.51,0-.05-.06-.12-.11-.15a1.81,1.81,0,0,0-.35-.11,11.91,11.91,0,0,1-4.06-1.77c-.6-.42-1.18-.86-1.81-1.23A7.16,7.16,0,0,0,71.52,73.08Zm-2.66,28.31v.21l.6,0v-.21Zm34-43.47c0,.05,0,.1,0,.15h.52v-.19Z"/><path d="M21,136.09a1.86,1.86,0,0,0,1.83,0,5.27,5.27,0,0,0-.61-.28,2,2,0,0,1-1.29-.74.44.44,0,0,0-.79,0A15.49,15.49,0,0,0,19,136.81c-1.31,2.42-1.85,5.13-2.77,7.7-.68,1.91-1.39,3.82-2.07,5.73a26.41,26.41,0,0,0-1.71,6.52,2.48,2.48,0,0,0,.52,1.87q2.18,2.77,4.35,5.55a12.75,12.75,0,0,1,1.21,1.7A5.38,5.38,0,0,1,19,170c-.17.58-.27,1.18-.43,1.76a1.78,1.78,0,0,1-.85,1.34c0-.81-.1-1.49-.06-2.21a7.9,7.9,0,0,0-.74-4.64,15.1,15.1,0,0,0-1.67-2.19c-1.18-1.37-2.43-2.69-3.6-4.07a6.23,6.23,0,0,1-.78-1.41c-.22-.46-.3-.9.21-1.27.15-.1.2-.37.24-.58.41-1.73.8-3.46,1.21-5.19.08-.34.27-.65.34-1s.14-.92.23-1.6a5,5,0,0,0,.95-2c1.08-3.52,2.2-7,3.4-10.51a5.81,5.81,0,0,1,1.36-1.8c1-1.07,2-2.11,3-3.14a4.78,4.78,0,0,1,1-.57c.35,1.07-.62,1.4-.93,2.11.57.09.83-.32,1.13-.59a2,2,0,0,0,.74-2,.67.67,0,0,1,0-.37c.56-1.27,0-2.44-.33-3.62a14.31,14.31,0,0,0-2-3.94,4.33,4.33,0,0,1-.57-1.2,5.74,5.74,0,0,0-1.75-2.45c-.4-.41-.67-.38-1,.08a1.15,1.15,0,0,0-.18.33,5.2,5.2,0,0,1-1.69,2.27c-1.09,1-2.23,2-3.4,2.87a2.93,2.93,0,0,1-1.32.31c-.35.17.09.81-.49.86a6.76,6.76,0,0,1-1.1-.1v.84c-1.13.22-1.34.95-1.36,2a44.13,44.13,0,0,1-.59,7.41c-.42,2.32-1.06,4.57-1.68,6.84-.34,1.25-.57,2.54-1,3.77s-1,2.53-1.52,3.79S2.81,152.73,2.23,154c-.33.72-.71,1.42-1.08,2.11a2.2,2.2,0,0,1-.42.51c-.21.19-.49.27-.66,0a1.5,1.5,0,0,1-.06-.69s.06-.12.11-.15c1.16-.79,1.45-2.12,2-3.27,0,0,0-.06,0-.09a12.57,12.57,0,0,0,1.66-4.33c.31-1.23.49-2.48.75-3.72a12.9,12.9,0,0,1,.53-2.11c.94-2.41,1.17-5,1.8-7.48a1.77,1.77,0,0,0-.19-1.07,2.22,2.22,0,0,1-.17-1.37c.26-1.6.51-3.2.67-4.82a6.47,6.47,0,0,1,1.58-3.38c.14-.17.44-.22.66-.34a4.3,4.3,0,0,0,1.24-.68,8.61,8.61,0,0,1,2.61-1.72,9.29,9.29,0,0,0,2.85-2.19,2.62,2.62,0,0,0,.55-2.43l.87-.66a2.7,2.7,0,0,0-.15-.68,8.68,8.68,0,0,0-2.17-3.2,3.57,3.57,0,0,1-.52-.68c-.47-.6-.94-1.2-1.4-1.8-.23-.3-.43-.62-.65-.93L10,105a32.28,32.28,0,0,1-2.32-3.26,41.06,41.06,0,0,1-2.4-4.19c-.61-1.52-1.46-3-2-4.5A37.72,37.72,0,0,1,1.6,88.24a15.33,15.33,0,0,1-.42-4.52,20.43,20.43,0,0,1,.56-2.88c.27-1.14.59-2.26.89-3.39A2.12,2.12,0,0,1,2.77,77c.63-1.17,1.27-2.34,1.9-3.5a2.36,2.36,0,0,0,.23-.41c.43-1.68,1.6-2.94,2.47-4.37a16.42,16.42,0,0,1,2.3-2.65,10.33,10.33,0,0,1,2.55-1.77,9.91,9.91,0,0,1,3.29-.78,2.17,2.17,0,0,0,.65-.13,5.23,5.23,0,0,1,5,.07,16,16,0,0,0,4.52,1.23,1.51,1.51,0,0,1,.46.09c1.5.74,3.15,1.2,4.43,2.35.26.23.59.39.84.62a3.31,3.31,0,0,1,.65.81c.19.36,0,.69-.38.64a3.61,3.61,0,0,1-1.31-.46c-.74-.43-1.42-1-2.14-1.42a10.68,10.68,0,0,0-1.12-.53c-.23-.11-.54-.17-.66-.35a2.7,2.7,0,0,0-1.78-1c-.18,0-.42-.14-.55-.07-.6.34-1.1,0-1.63-.18-1.24-.4-2.47-.81-3.71-1.19a1.92,1.92,0,0,0-.85-.06,20.38,20.38,0,0,0-6.06,1.66l.22.65c-.3.19-.58.4-.88.55A9.84,9.84,0,0,0,6.86,71c-1,1.82-1.95,3.64-2.87,5.48a18.72,18.72,0,0,0-1.92,7.1,17.93,17.93,0,0,0,.69,6A17.34,17.34,0,0,0,3.69,92c.73,1.69,1.41,3.4,2.26,5a48.79,48.79,0,0,0,2.89,4.82c1,1.5,2.16,2.91,3.31,4.31.46.56,1.1,1,1.58,1.51a30.72,30.72,0,0,1,2.12,2.69c1.46,2.12,2.73,4.36,4.39,6.34a21.25,21.25,0,0,0,2.06,2.61,1.66,1.66,0,0,1,.37.85,12.2,12.2,0,0,0,1,3.06c.51.94,1,1.9,1.54,3,.41-1,0-1.78-.08-2.61.86.15,1.36.59,1.4,1.36,0,1,0,2,0,3,0,.31-.05.62-.08.88.13.08.18.15.23.15.3,0,.68-.13.88,0s0,.57-.07.86a3.65,3.65,0,0,0-.08.73,3.62,3.62,0,0,0,.58-.5c.81-1.22,1.56-2.47,2.42-3.65a7.25,7.25,0,0,0,1.1-2.31,20.49,20.49,0,0,0,.39-2.33,1.66,1.66,0,0,1,0-.37,2.76,2.76,0,0,0-.05-2.18,1.35,1.35,0,0,0,.63-1.37c0-1,.06-2,.08-3,0-.65,0-1.3-.73-1.65.14-.24.24-.43.36-.61a1.54,1.54,0,0,0-.09-1.94.89.89,0,0,1-.18-1,.93.93,0,0,0-.09-.79,8.6,8.6,0,0,1-1-2.65,8.41,8.41,0,0,0-1.19-2.57,5.71,5.71,0,0,1-.76-1.73A10.36,10.36,0,0,0,27,98.63c-.88-1.09-1.79-2.14-2.66-3.23s-1.72-2.1-2.48-3.22-1.48-2.35-2.15-3.56a15.87,15.87,0,0,1-1.34-4.15c-.12-.52-.22-1.06-.38-1.58a10.94,10.94,0,0,1-.08-4.44A5.62,5.62,0,0,0,18,77.8,3.55,3.55,0,0,1,21,74.23a4.37,4.37,0,0,1,2.17-.11c.71.19,1.44.31,1.81,1.08a.43.43,0,0,0,.21.19c1.43.61,1.27,1.9,1.3,3.09,0,1.52,0,3,0,4.57A12.25,12.25,0,0,0,27,86.43c.33,1.22.5,2.49.87,3.7.47,1.55,1,3.07,1.61,4.58s1.36,3.29,2.14,4.89a26.17,26.17,0,0,0,1.78,2.93c1.29,1.93,2.44,3.94,3.55,6a29.33,29.33,0,0,0,3,4.59,19.68,19.68,0,0,1,2.63,4.4,11.89,11.89,0,0,1,1.28,4.34c0,.73.21,1.44.26,2.17a4.23,4.23,0,0,1-.36,2.14c-.27.6-.34,1.29-.56,1.91s-.56,1.4-.84,2.1c-.48,1.19-.93,2.4-1.43,3.59a3.47,3.47,0,0,1-.7,1,.75.75,0,0,1-1,.05c-.31-.24-.18-.58,0-.87.35-.74.77-1.46,1.06-2.22s.6-1.81.85-2.73a21.93,21.93,0,0,0,.79-5.63,1.39,1.39,0,0,1,.18-.82,1.65,1.65,0,0,0,0-1.89A18.84,18.84,0,0,1,41,117.22c-.24-.91-.54-1.06-1.31-.55l-3.95,2.67a2.76,2.76,0,0,1-.65.4A2.37,2.37,0,0,0,33.42,122a13.4,13.4,0,0,1-1.52,5.08,2,2,0,0,0-.34,1.53c.07.26-.17.67-.36.94-1.24,1.65-2.45,3.33-3.79,4.89A6.32,6.32,0,0,1,25,136.31a3.74,3.74,0,0,0-.73.44,3.41,3.41,0,0,1-2.48.45C21.17,137.12,21,136.8,21,136.09Zm3.84-42.53a1.33,1.33,0,0,0,0-1.29,4.16,4.16,0,0,1-.33-.89,14.53,14.53,0,0,1,0-4.92,13.3,13.3,0,0,0,.29-2.92,37.24,37.24,0,0,1,.07-6,1.94,1.94,0,0,0-2.43-2.15c-.4.09-.82.06-1.23.12a1.65,1.65,0,0,0-.88.27,3.11,3.11,0,0,0-1.07,1.76,14.67,14.67,0,0,0,.4,7,15.73,15.73,0,0,0,2.1,4.86,2.76,2.76,0,0,1,.27.61A10.19,10.19,0,0,0,24.83,93.56Zm14.74,21.37c0-.05,0-.17-.1-.22a11.62,11.62,0,0,1-2.3-3.09c-.41-.64-.71-1.35-1.1-2-.75-1.25-1.52-2.48-2.29-3.73-.23-.38-.47-.75-.69-1.13s-.38-.72-.62-1.05a20.88,20.88,0,0,1-1.79-2.45c-.58-1.12-1-2.3-1.66-3.4A11.69,11.69,0,0,1,27.2,93.4c-.05-.39-.18-.89-.83-.95-.2.8-.42,1.55-.56,2.32a1,1,0,0,0,.25.67c.47.56,1,1,1.47,1.61a17.78,17.78,0,0,1,2.87,4.68,3.11,3.11,0,0,0,.34.68,17.75,17.75,0,0,1,1.9,4.46c.55,1.75.92,3.56,1.36,5.34a2.56,2.56,0,0,1,0,.57c0,1.91,0,3.82,0,5.73a7,7,0,0,0,.11.85c.22,0,.37,0,.45-.09C36.33,117.94,38.27,116.81,39.57,114.93ZM25.31,89.21h-.22c0,.15,0,.29,0,.44h.15C25.28,89.49,25.3,89.35,25.31,89.21Z"/><path d="M77,170.24a1.43,1.43,0,0,1-.61,1.48,14.82,14.82,0,0,1-1.5,1c-.65.35-.27,1.17-.88,1.63-.15-.15-.38-.27-.46-.47a1.64,1.64,0,0,0-1.53-1l-1-.12c-1.28-.15-2.56-.31-3.85-.45a5.81,5.81,0,0,0-1,0,25.18,25.18,0,0,1-5.27-.66c-.41-.06-1-.15-1.07-.66s.44-.62.75-.86a2.29,2.29,0,0,0,.21-.25,1.7,1.7,0,0,0-.25-.47,15.49,15.49,0,0,0-4.25-2.79A7.47,7.47,0,0,1,52.73,164c-.46-.75-1-1.44-1.42-2.24a4.21,4.21,0,0,0-1-1.35A10.76,10.76,0,0,1,48,157a17.8,17.8,0,0,1-1.63-4.13,3.33,3.33,0,0,0-.25-.52,4.27,4.27,0,0,1-.69-2.41c0-.41-.3-.88-.52-1.3-.45-.9-1-1.77-1.4-2.68s-.7-1.91-1.11-2.83a6.62,6.62,0,0,0-1.4-2.31,14.58,14.58,0,0,1-1.81-2.32.71.71,0,0,1,0-.68,1.37,1.37,0,0,1,.77-.15c.1,0,.23.12.3.21,1.37,1.65,2.9,3.16,3.65,5.29.62,1.76,1.56,3.4,2.3,5.12.45,1,.73,2.17,1.23,3.2,1,2.05,1.62,4.26,3,6.17a39.6,39.6,0,0,1,3.33,5,6.26,6.26,0,0,0,3,2.61c1.26.67,2.5,1.38,3.73,2.1a3.91,3.91,0,0,1,1.9,2.28c.22.73.74.88,1.39.9a1.76,1.76,0,0,1,.75.06,6.55,6.55,0,0,0,2.61.44c.76.07,1.5.27,2.26.37.94.13,1.88.22,2.82.31.44,0,.65-.16.61-.64a13.13,13.13,0,0,0-.26-1.69c-.23-1.12-.45-2.24-.75-3.35a4.58,4.58,0,0,0-.71-1.54c-.79-1.06-1.67-2.06-2.52-3.08-.08-.1-.19-.25-.27-.25-.92,0-1.43-.76-2.18-1.06a7,7,0,0,1-1.28-.92,21.31,21.31,0,0,0-2.35-1.66,7.91,7.91,0,0,1-1.66-1.23,1,1,0,0,1-.26-.4c-.25-.67-.48-1.35-.73-2a1.63,1.63,0,0,0-.23-.4c-.56-.73-1.16-1.43-1.69-2.18a9.2,9.2,0,0,1-.65-1.25l-.21-.42-1.23-2.35c-.16-.31-.33-.61-.52-.9s-.31-.29-.33-.45c-.09-1.17-1-2-1.35-3s-.59-1.81-.87-2.71-.56-1.62-1.62-1.84a7,7,0,0,1-.19-3A11.71,11.71,0,0,0,51,133.7c-.08-.89.56-1.52.7-2.31.06-.34.09-.68.12-1,0-.16-.07-.35,0-.47a10.79,10.79,0,0,0,.83-2.85,4,4,0,0,0,.2-.63,17.91,17.91,0,0,1,1.46-4.71c.15-.41.2-.85.34-1.27s.38-1,.57-1.49c0-.11.19-.21.19-.32.07-1.31.87-2.38,1.16-3.61a12.42,12.42,0,0,0,.73-3,3.2,3.2,0,0,1,.45-1.12,5.92,5.92,0,0,0,.37-.85c.23-.89.38-1.8.64-2.67.33-1.12.7-2.24,1.11-3.34a.9.9,0,0,1,1.27-.47.91.91,0,0,1,.44,1.27,15.94,15.94,0,0,0-1.33,3.76c-.49,1.4-.93,2.83-1.38,4.25a5.13,5.13,0,0,0-.18.74,18.45,18.45,0,0,1-1.55,4.39c-.21.49-.27,1-.45,1.54-.32.9-.68,1.77-1,2.66-.25.68-.45,1.38-.69,2.06-.36,1-.75,2.07-1.12,3.11,0,.09-.11.17-.11.26-.08,1.87-.87,3.57-1.25,5.37a8,8,0,0,1-.37,1.07,1.55,1.55,0,0,0,.23,1.77,2.3,2.3,0,0,1,.5.8c.54,1.52,1,3.07,1.6,4.57.46,1.18,1.06,2.3,1.6,3.45.45.95.88,1.9,1.35,2.84.33.65.71,1.28,1.06,1.91.23.42.45.84.69,1.25s.6,1,.91,1.55c.11.19.28.35.38.55a11.2,11.2,0,0,0,4.3,4.58,6.56,6.56,0,0,1,1,.74,13.44,13.44,0,0,0,3.2,2,5.76,5.76,0,0,1,2.47,2.17,24,24,0,0,1,1.41,2.42A17.71,17.71,0,0,1,74.3,170c0,.5,0,1.09.55,1.33s1-.17,1.45-.5C76.53,170.65,76.74,170.47,77,170.24Z"/><path d="M117.52,106.33a6.67,6.67,0,0,0,1.27,1.16,6,6,0,0,1,2.29,2.56c.89,1.43,1.74,2.88,2.57,4.34a5.35,5.35,0,0,1,.75,1.69c.22,1.31,1.12,2.22,1.68,3.33.37.73.69,1.48,1,2.24,0,.12-.09.31-.17.54,1.09.27,1,1.39,1.49,2.19.19.35.36.72.58,1.06a4.3,4.3,0,0,1,.69,1.93.86.86,0,0,1-1.12-.33,3.71,3.71,0,0,1-.69-1.43,3.74,3.74,0,0,0-1.09-2.12,1,1,0,0,1-.29-.48,5.94,5.94,0,0,0-1.35-2.47c-.56-.76-1.13-1.5-1.67-2.28-.1-.15,0-.41-.07-.61a4,4,0,0,0-.27-1c-.33-.65-.72-1.27-1.1-1.89-.29-.45-.61-.88-.92-1.32a5,5,0,0,1-.64-.94,9.71,9.71,0,0,0-2.21-3c-.7-.77-1.65-1.28-2.15-2.26-.06-.13-.46-.19-.66-.14-1.25.37-2.55.53-3.81.81-2.19.48-4.41.47-6.61.8a23.33,23.33,0,0,1-3.89,0c-1,0-1.91-.07-2.86-.11a.53.53,0,0,1-.43-.27c.26,0,.51-.11.77-.14l7.76-.83c.73-.08,1.46-.1,2.18-.21,1.34-.21,2.68-.44,4-.69a4.11,4.11,0,0,0,1.08-.36,15.2,15.2,0,0,1,3.63-1.09,2.86,2.86,0,0,0,.8-.29.91.91,0,0,1,1.15,0c.25.21.5.13.79,0a1.88,1.88,0,0,1,1.1-.06c2.29.85,4.56,1.76,6.83,2.65.12,0,.23.11.35.15,1.41.48,2.83.94,4.23,1.43a14.37,14.37,0,0,1,1.94.77,38.66,38.66,0,0,0,4.77,1.56,24.63,24.63,0,0,0,7.9,1.62,1.2,1.2,0,0,0,.47,0c1-.41,2,0,3,.14.44.06.55.38.49.78s-.28.71-.74.69-1.14-.12-1.71-.17a11,11,0,0,0-1.9-.13,13.39,13.39,0,0,1-3.76-.27,14,14,0,0,1-3-.9c-.89-.4-1.89-.56-2.81-.88-1.94-.68-3.87-1.4-5.8-2.11-.3-.11-.59-.24-.9-.32a17.93,17.93,0,0,1-4-1.67l-.08,0-4.87-1.63a7.87,7.87,0,0,1-1.44-.48,1.31,1.31,0,0,0-1.43,0C118.38,106,118.05,106.1,117.52,106.33Z"/><path d="M129.54,27.3a3.37,3.37,0,0,1,.14.73,8.46,8.46,0,0,1-.16,1.32c-.31,1.49-.75,3-.94,4.46-.12,1-.65,1.74-.81,2.66a4.4,4.4,0,0,0-.13.56,14.45,14.45,0,0,1-.88,3.6,50.19,50.19,0,0,1-2.69,6.29,8.72,8.72,0,0,1-2.41,3.15,7.45,7.45,0,0,0-.94.93,24.64,24.64,0,0,1-6,4.66c-.35.21-.66.49-1,.72-.88.56-1.77,1.11-2.66,1.65-.07,0-.18,0-.31,0-.1-.4.17-.57.42-.75a35.65,35.65,0,0,0,3.33-2.37c1.48-1.33,3.34-2.25,4.5-3.93a35.65,35.65,0,0,0,2-3.44c.67-1.26,1.32-2.53,1.91-3.83.92-2,1.78-4.05,2.67-6.08.11-.26.27-.5.4-.75a9.13,9.13,0,0,0,.38-.87c.19-.53.36-1.08.54-1.61a2.44,2.44,0,0,0,.19-.54c.11-1.4.93-2.56,1.25-3.88.16-.65.35-1.28.53-1.92C129,27.77,128.94,27.4,129.54,27.3ZM123,45.95l-.09.24s.11.06.14,0a.21.21,0,0,0,.08-.15S123.05,46,123,45.95Z"/><path d="M19.84,175.2a6.71,6.71,0,0,1-1.34.36,8.27,8.27,0,0,1-3-.19c-.87-.26-1.8-.36-2.68-.59a12.93,12.93,0,0,1-4-2.15,3.21,3.21,0,0,1-.8-.81,1.13,1.13,0,0,1-.2-.78,3.26,3.26,0,0,0-.34-2.1,16.69,16.69,0,0,1-1-2.47c-.61-2.23-2.21-3.73-3.75-5.27L.49,159c-.11-.11-.2-.25-.3-.37a.59.59,0,0,1,.08-.92,1.49,1.49,0,0,1,.86-.13c.13,0,.25.18.37.29,1.49,1.47,3,2.92,4.48,4.4a10.68,10.68,0,0,1,1.61,2.9,17.47,17.47,0,0,1,1.5,4.8,2,2,0,0,0,.89,1.41,16.79,16.79,0,0,0,3.68,2.17c.64.19,1.26.44,1.9.57,1.24.25,2.49.43,3.74.65a2.91,2.91,0,0,1,.51.19C19.83,175,19.83,175.11,19.84,175.2Z"/><path d="M105.82,94.82a4.28,4.28,0,0,1-.18-.77c-.08-2-.15-3.94-.19-5.91s-.08-3.81,0-5.71c0-1.48.19-3,.26-4.46,0-.66,0-1.33,0-2,0-.95,0-1.9,0-2.84a5.93,5.93,0,0,0-.72-2.74,1.14,1.14,0,0,1,0-1,3.69,3.69,0,0,0,.06-1.11c0-.42.2-.58.6-.51.62.11.84.43.8,1.12a.89.89,0,0,0,.06.54c.94,1.2.77,2.6.74,4,0,2-.1,4.06-.18,6.1,0,1-.19,2.08-.23,3.12-.08,2-.1,4-.16,6q-.07,2.43-.18,4.85A1.49,1.49,0,0,1,105.82,94.82Z"/><path d="M50.53,63.1c.87.08,1.9.15,2.94.28a1.29,1.29,0,0,1,1.21,1.16c.08.47-.15.73-.57.55-2.21-.94-4.49-.55-6.77-.51-2,0-3.81.67-5.74.86A2.22,2.22,0,0,0,40,66.3a1.28,1.28,0,0,1-.73.4,13,13,0,0,0-5.62,3.18c-.17.15-.33.36-.52.4a1.15,1.15,0,0,1-.78-.12c-.1-.07-.08-.47,0-.67A3.66,3.66,0,0,1,33.72,68a27.5,27.5,0,0,1,3-1.68c.11-.06.2-.18.32-.21a22.41,22.41,0,0,0,3.5-1.68.91.91,0,0,1,.26-.11,32.43,32.43,0,0,0,4-.69c1.52-.46,3.1-.15,4.61-.54A5.62,5.62,0,0,1,50.53,63.1Z"/><path d="M105.25,49.74l-1.84.43c.06-.22.06-.41.15-.48.75-.66,1.31-1.54,2.43-1.75.33-.06.58-.6.86-.92l-.11-.15c-.7.34-1.4.69-2.11,1s-1.48.7-2.24,1-1.49.53-2.37.85a2,2,0,0,1,1.11-1.21c.77-.44,1.59-.79,2.37-1.21s1.24-.78,1.9-1.09c.91-.43,1.87-.77,2.8-1.16a13.63,13.63,0,0,1,1.67-.68,22.41,22.41,0,0,0,3.21-1.4,8,8,0,0,0,1.54-1.09c.18-.13.3-.35.49-.44a.84.84,0,0,1,1.06.08c.26.3,0,.59-.16.86a3.89,3.89,0,0,1-1.74,1.42,24.66,24.66,0,0,1-2.77,1.28,7.24,7.24,0,0,0-2.44,1.76,18.1,18.1,0,0,1-1.59,1.31,12.69,12.69,0,0,1-2.24,1.57Z"/><path d="M139.69,129c-.23-.22-.37-.29-.39-.38a5,5,0,0,1-.42-2.3c0-.16-.1-.35-.15-.52-.23-.78-.51-1.56-.69-2.35-.37-1.69-.67-3.4-1-5.1-.3-1.42-.65-2.84-1-4.26a1.16,1.16,0,0,1,.27-1.15.75.75,0,0,1,.57-.22.74.74,0,0,1,.41.44c.19.56.33,1.15.48,1.73.23.86.45,1.72.67,2.57a.65.65,0,0,1,0,.18c-.15,1.58.48,3.09.45,4.67a10.46,10.46,0,0,0,.44,1.82,10.58,10.58,0,0,1,.25,2.34,8,8,0,0,0,.11,2A2.31,2.31,0,0,1,139.69,129Z"/><path d="M129.77,139.15a5.73,5.73,0,0,1,.18-1.24,14.29,14.29,0,0,1,.84-1.77c.64-1.2,1.29-2.39,2-3.57.39-.69.81-1.36,1.22-2a1,1,0,0,1,1-.52,8.37,8.37,0,0,1,1.77.06,6.59,6.59,0,0,0,1.51.06l3.32.13a2.6,2.6,0,0,1,.51.17,4.94,4.94,0,0,1-2.6.89c-1.27,0-2.54,0-3.81,0a1,1,0,0,0-.65.28,18.74,18.74,0,0,0-1.5,2c-.87,1.35-1.69,2.75-2.52,4.13-.32.53-.63,1.06-.94,1.59Z"/><path d="M142.27,129.94c.15-.17.28-.32.43-.46.85-.77,1.72-1.49,2.53-2.3s1.28-1.4,1.89-2.13a13.94,13.94,0,0,0,1.18-1.59,20.73,20.73,0,0,0,1.48-2.64,5.58,5.58,0,0,0,.63-3.13,13.28,13.28,0,0,1,0-1.8c0-.33.13-.57.48-.59s.66.09.7.48a10.48,10.48,0,0,1-.8,5.67,16.12,16.12,0,0,1-2.42,3.73,19.49,19.49,0,0,1-5.92,4.81S142.36,130,142.27,129.94Z"/><path d="M130.27,129.79a11.59,11.59,0,0,1-1-.94,2.28,2.28,0,0,1-.28-.73l.78-.24c.08.69.13,1.27.67,1.62a3.09,3.09,0,0,1-.15.29Z"/><path d="M131,131.81c.07.6.14,1.09.2,1.58-.44-.07-.52-.16-.68-.75C130.41,132.24,130.41,132.24,131,131.81Z"/><path d="M78.67,101.16h-1C78.06,100.77,78.36,100.68,78.67,101.16Z"/><path d="M130.26,129.78l.39.88-.94-.59.57-.28Z"/><path d="M146,1l.42-.24.09.23L146,1.2Z"/><path d="M140.75,9.32l-.43.07,0-.16.43-.08Z"/><path d="M79.53,101.1,80,101c0,.06,0,.11,0,.16l-.44.08Z"/><path d="M76.64,101.31l-.22-.18a.75.75,0,0,1,.19-.14s.15.06.14.08A1,1,0,0,1,76.64,101.31Z"/><path d="M146.9.2l.32-.2.09.12-.3.26Z"/><path d="M105.9,95.65a.88.88,0,0,1-.05-.23s.13-.07.14-.06a1.38,1.38,0,0,1,.1.21Z"/><path d="M70.16,111l-.07-.14c.05,0,.11-.06.15-.06s.05.09.08.13Z"/><path d="M168.66,28.29a1,1,0,0,1,1.41.38c.14.21.33.38.48.58a.92.92,0,0,1,.12,1.13,1,1,0,0,1-1.21.13,1.2,1.2,0,0,1-.81-1.25C168.69,29,168.66,28.64,168.66,28.29Z"/></svg>