<svg xmlns="http://www.w3.org/2000/svg" viewBox="0 0 38.52 371.41"><defs><style>.a{fill:#fff;}</style></defs><title>screw</title><rect class="a" x="2.2" y="24.73" width="34.62" height="305.33"/><path d="M1.71,61.85c-2.21-1.6-2.22-2.51-.38-5.06a25.32,25.32,0,0,0,1.85-2.61,1.41,1.41,0,0,0-.4-1.32,3.06,3.06,0,0,1-1.24-4.51c.13-.2.27-.4.38-.61.65-1.29,2.24-2.59-.05-3.85-.09,0-.13-.2-.18-.31s-.07-.22-.24-.73a13.33,13.33,0,0,0,2,.67c.47.08,1.18.14,1.44-.13C6.29,41.9,7.45,40.12,9,38.79c2.49-2.12,5.22-4,7.84-5.92l.52.73-2.85,1.9,0-.14c-1.17,1-2.42,2-3.5,3.11-1.53,1.59-3,3.24-4.38,5C5.41,45,4.47,46.66,3.3,48.2s-.54,2.6.5,3.74a7.07,7.07,0,0,1,.6.91C6.17,51,7.79,49,9.65,47.31s3.83-3.05,5.75-4.57l.49.55L9.61,49l-4,5C3.46,55.92,1.15,57.92,1.71,61.85Z"/><path d="M16.93,101.74c-.63.58-1.29,1.15-1.89,1.76-.43.43-.72,1-1.17,1.4a28.52,28.52,0,0,1-3.49,2.9,21.83,21.83,0,0,0-7.32,7.79c-1.14,2-.9,3.44.42,4.24l16.18-12,.56.64-5,4-.09-.12c-1.23.81-2.47,1.57-3.66,2.41a16.42,16.42,0,0,0-1.78,1.56c-2.48,2.35-5,4.68-7.38,7.11a7.66,7.66,0,0,0-1,2.31c-1.16-.15-1.53-.8-1.12-1.95a1.16,1.16,0,0,1,.19-.44c1.65-1.59,2.45-3.1.16-4.92-.41-.33,0-1.63.39-2.52l.14.36c.45-.58,1.1-1.35,1.68-2.18a4.37,4.37,0,0,0,.8-1.56c.18-.9.13-1.86,1.52-1.46.1,0,.34-.2.43-.35a10.57,10.57,0,0,1,4.67-4.51c1.65-.78,2.92-2.33,4.43-3.43a12.8,12.8,0,0,1,2.35-1.08Z"/><path d="M16.48,118.44c-.67.65-1.33,1.31-2,1.93-.06.05-.36-.16-.27.16a30.33,30.33,0,0,0-3.76,2.09c-1.64,1.23-3.08,2.7-4.66,4a23.62,23.62,0,0,1-2.91,2c-.86.51-.94,3.17-.13,4.14a5.08,5.08,0,0,1,.58,1.37l-1.23-.28c-.11,0-.21-.15-.32-.15a11.41,11.41,0,0,1-1.46,0c-.14-1.06-.49-2.27-.11-3.16a15.81,15.81,0,0,1,2.67-4.11,15.26,15.26,0,0,1,3.72-3.32c1.37-.79,3.15-.84,4.58-1.56a24.54,24.54,0,0,0,3.6-2.72c.4-.31.81-.6,1.21-.9Z"/><path d="M21.65,161.09a7,7,0,0,1-.93,1.11c-4.14,3-8.4,5.76-12.4,8.9a50.8,50.8,0,0,0-6.15,6.28c-.67.75-1.16,1.91.73,1.94.2,0,.39.19.55.74-1-.07-2.32.22-2.91-.31a1.79,1.79,0,0,1,.31-2.8c.59-.48.75-1.49,1.34-2,2.67-2.35,5.39-4.66,8.17-6.88a72.5,72.5,0,0,1,6.2-4.45A53.61,53.61,0,0,1,21.65,161.09Z"/><path d="M36,48.58l.86-.53a3.85,3.85,0,0,1,1.23,5c-.63,1.44-.93,3.19-1.95,4.26-1.77,1.85-2.48,4.54-5.21,5.69-2,.86-3.62,2.66-5.46,4a19.23,19.23,0,0,1-2.71,1.28A8.3,8.3,0,0,1,24,66.51c1.45-1.06,3-2,4.45-3,.56-.41.92-1.1,1.47-1.54s1.42-.92,2.13-1.39a1.63,1.63,0,0,0,.52-.49c1.53-2.68,3.13-5.32,4.49-8.08.28-.57-.3-1.59-.54-2.39a6.09,6.09,0,0,0-.52-1Z"/><path d="M12.91,18.15c-2.54,2.24-5.32,4.27-7.54,6.78S.91,30.13,2,34a1.52,1.52,0,0,1-2-1.7,14.53,14.53,0,0,1,.9-4.37,18.19,18.19,0,0,1,3-3.68C5,23,6.22,21.77,6.92,21l5.42-3.71.59.85Z"/><path d="M13.5,93.05l4.95-3.49.54.58c-.59.4-1.22.75-1.76,1.2-3.16,2.62-6.42,5.13-9.4,7.95A34.38,34.38,0,0,0,3,105.23c-1,1.45-1.65,3.17-.71,5,.06.13-.75.69-1.15,1l-.43-.41.49-1.65c-1.71.24-1.25-.85-.87-1.76a21.24,21.24,0,0,1,5.33-7.65c1.78-1.64,3.35-3.52,5.12-5.17A14.94,14.94,0,0,1,13.52,93Z"/><path d="M17.2,135c-4.29,3.63-9.55,5.93-13.52,10.71-.17,1.81-3.82,3.16-2,6.29A2,2,0,0,1,0,149.54a10.41,10.41,0,0,1,5.36-7.75c3.18-1.95,6.34-3.92,9.53-5.84A17.14,17.14,0,0,1,17.2,135Z"/><path d="M1.48,97.44l1.13-.33c.1.87.22,1.71.28,2.56a4,4,0,0,1-.12.89c-.44-.11-1-.08-1.29-.35a3.62,3.62,0,0,1-.68-5.15,84.42,84.42,0,0,1,6.33-6.57c1.72-1.63,3.6-3.1,5.47-4.57,1-.8,2.16-1.43,3.24-2.15l.27.39C13.4,84.42,10.54,86.51,8,89S2.77,93.67,1.48,97.44Z"/><path d="M5.86,60.5l.35.57,2-3.1.34.43,4.1-4.13c.35,1.87-.4,2.74-1.84,3.41C10,58,9.65,59.21,9,60a10.13,10.13,0,0,1-1.86,2c-.64.46-1.52.59-2,1.1L3.08,66.37c-.15.23-.33.45-.5.67a2.65,2.65,0,0,0,.13,3.74c.21.23.22.64.42,1.28C2,71.28,1.17,70.75.4,70.14c-.23-.19-.47-.74-.37-.92q1.77-2.93,3.68-5.78C4.35,62.45,5.09,61.54,5.86,60.5Z"/><path d="M28.74,147.8l5-6.68a11,11,0,0,0,1.78-2.45,16.14,16.14,0,0,0,.49-3.51c2.35.26,3.38,1.88,1.79,4.19a49,49,0,0,1-5.45,5.88,30.45,30.45,0,0,1-2.31,2c-.35.3-.74.55-1.12.82Z"/><path d="M1.15,162.47c-1.23-.3-1.36-.95-.92-2a16.28,16.28,0,0,1,7.2-7.63c.83-.47,1.51-1.21,2.31-1.74,3.25-2.18,6.53-4.32,9.79-6.48l.31.44c-1.21.88-2.4,1.8-3.64,2.64a76.79,76.79,0,0,0-12.3,9.64A10.62,10.62,0,0,0,1.15,162.47Z"/><path d="M27.16,82.35c1.13-1.25,2.29-2.48,3.39-3.77.55-.65,1-1.4,1.48-2.1,1.43-2,3-4,4.24-6.12.38-.63,0-1.7,0-2.57,0-.26,0-.72.07-.74A3,3,0,0,1,37.81,67c.32.1.76.66.71.92a22.73,22.73,0,0,1-1,2.9c-1.85,4.94-5.67,8.29-9.47,11.65a2,2,0,0,1-.63.25Z"/><path d="M27.15,74.13c1.21-1.35,2.52-2.62,3.6-4.07,2.07-2.79,4-5.67,6-8.55.22-.32.09-.86.19-1.28s.3-.95.45-1.42c.41.57,1.26,1.27,1.14,1.68a15.59,15.59,0,0,1-2,5,69.07,69.07,0,0,1-5.62,6.19A23.5,23.5,0,0,1,28.37,74c-.28.22-.81.12-1.23.16Z"/><path d="M27.46,167.33a4.57,4.57,0,0,1,.56-.95c2.74-2.83,5.6-5.56,8.19-8.52.53-.61.1-2.06.11-3.13a2,2,0,0,1,1.89,3.16,43.21,43.21,0,0,1-2.08,3.82c-.16.26-.82.22-1,.26a9.33,9.33,0,0,1-1,1.43c-.19.19-.61.14-.8.17-1.3,2-3.74,2.54-5.42,4.06Z"/><path d="M34.08,107.61c1.23-.13,2-1.89,3.65-.68,1.76,1.34.1,2.31-.27,3a31.77,31.77,0,0,1-11.27,11.6.26.26,0,0,1-.15,0,29.21,29.21,0,0,1,3.29-3.43A20.46,20.46,0,0,0,36,108.66c.08-.2-.26-.63-.5-.85s-.46,0-.7,0A6.72,6.72,0,0,1,34.08,107.61Z"/><path d="M29.43,127.84c.87-.91,1.75-1.76,2.55-2.68,1.23-1.42,2.39-2.91,3.59-4.35s1.67-2.91.75-4.67c-.08-.16,0-.59.11-.63a1,1,0,0,1,.75.06,3.29,3.29,0,0,1,1.05,3.89,67.11,67.11,0,0,1-3.87,6.29,12,12,0,0,1-3.46,2.54C30.66,128.45,30.06,128,29.43,127.84Zm3.41-1.68L32.5,126c-.1.28-.2.56-.28.84,0,0,.11.08.2.14Z"/><path d="M16.55,155.58C14.37,157.36,12.1,159,10,161c-2.86,2.65-5.66,5.38-8.26,8.28-.61.68-.32,2.16-.44,3.3A2.2,2.2,0,0,1,.05,170c.57-2.34,2.51-3.57,4-5.15a17.14,17.14,0,0,1,1.72-1.62c2.42-1.89,4.86-3.76,7.3-5.62,1.06-.81,2.14-1.58,3.21-2.37Z"/><path d="M1.69,144c-.53-.3-1.51-.58-1.52-.9-.07-1.56-.47-3.57.31-4.63a34.13,34.13,0,0,1,9.75-9,31.55,31.55,0,0,0,2.69-2l.33.39c-1.49,1.3-3,2.54-4.45,3.92-2.44,2.4-4.91,4.79-7.15,7.37C.34,140.58.6,142,1.69,144Z"/><path d="M1.15,79.69c1.64-1.13,2.27-.5,2.52,2C2.5,80.91.86,80.43.31,79.38a2.9,2.9,0,0,1,1.28-3.85c.23-.14.31-.5.51-.72.72-.81,1.52-1.55,2.17-2.4.37-.49.4-1.23.77-1.72,1.22-1.58,2.54-3.1,3.81-4.64l.55.37c-.92,1.38-1.84,2.77-2.77,4.15C4.71,73.4,2.19,75.87,1.15,79.69Zm5-9.6.28.3.6-.63-.2-.22Z"/><path d="M0,89.38c.53-1.13.92-2.13,1.44-3.06,1-1.79,2-3.58,3.1-5.32a14.59,14.59,0,0,1,1.71-2c1-1.06,1.93-2.14,3-3.14.26-.25.79-.21,1.2-.31,0,.35.05.82-.14,1C9.1,78,7.82,79.19,6.65,80.51,4.45,83,3.15,86,1.75,89a.84.84,0,0,0-.05.57,10.84,10.84,0,0,0,.47,1.07,4,4,0,0,1-1.32-.24C.49,90.19.28,89.73,0,89.38Z"/><path d="M28.58,156.68c1.56-1.67,3.18-3.29,4.65-5,1.29-1.52,2.4-3.19,3.57-4.77l-1.47-1.32.3-.55a12,12,0,0,1,2.81,1.53c.26.24-.08,1.59-.53,2.06-2.71,2.77-5.53,5.45-8.34,8.12-.17.16-.66,0-1,0Z"/><path d="M14.42,27a49.9,49.9,0,0,0-4.05,3.67c-2.82,3.22-5.56,6.51-8.25,9.84a14.17,14.17,0,0,0-1,2.29c-.12.23-.6.27-.91.4-.07-.35-.31-.81-.17-1a76.26,76.26,0,0,1,5.54-8.29C7.88,31.21,10.38,28.55,14.42,27Z"/><path d="M37,5.31c1,.23,1.51.79,1.51,2.22,0,4.74-4,6.15-6.87,8.49a11.38,11.38,0,0,1-1.81,1l-.58-.71c1.12-.9,2.26-1.78,3.35-2.71,1.93-1.64,3.77-3.37,4.35-6A11.85,11.85,0,0,0,37,5.31Z"/><path d="M36.69,88.18l1.83-.46c-.13.63-.25,1.27-.4,1.9,0,.15-.25.29-.22.41.63,2.77-1.85,3.69-3.22,5.15-1.92,2-4.15,3.79-6.25,5.66a9.6,9.6,0,0,1-.89.62l.69-2,.18.24c.53-.48,1.08-.95,1.6-1.43,1.91-1.79,3.83-3.58,5.71-5.41a2.06,2.06,0,0,0,.48-1.09c.21-1.21.35-2.42.51-3.64Z"/><path d="M29.33,24.11c1.57-1.78,3.25-3.47,4.68-5.36s2.73-4.1,4.23-6.39c.1.62.4,1.23.23,1.66C37.55,16.53,37,19.3,34.63,21c-1.34.92-2.75,1.73-4.1,2.63a3.43,3.43,0,0,0-.67.89Z"/><path d="M30.64,174c1.11-1.24,2.3-2.41,3.31-3.73a20.89,20.89,0,0,0,2.36-3.83,12.22,12.22,0,0,0,.45-3.13c.65-.35,2,.24,1.74,1.24-.37,1.79.09,4-1.6,5.34-2,1.52-4.18,2.75-6.29,4.1Z"/><path d="M35.4,48.57c-.3-.07-.73-.31-.87-.19-.87.7-1.68,1.49-2.52,2.24l-.47-.28a23.23,23.23,0,0,1,1.89-3.44c.61-.79,1.75-1.17,2.41-1.94a3.68,3.68,0,0,0,.58-4,13.78,13.78,0,0,1-.44-1.5c.24-.06.57-.24.72-.15.67.42,1.89,1,1.83,1.38-.34,2.08-.36,4.41-2.51,5.72-.13.08-.4-.07-.49-.09l-.14,2.29Zm-.51-2.31-.2,0,.22,1,.26-.08Z"/><path d="M29.5,32.83l3.84-4,.27.24c.84-2,1.66-4,2.56-6,.11-.25.62-.33,1-.49l.23.4.45-1.39.49,0c.09.82.19,1.65.23,2.47a10.09,10.09,0,0,1-1.13.18c0,.19,0,.58,0,1s.14.64,0,.79a50.49,50.49,0,0,1-3.51,3.9c-1.24,1.18-2.65,2.18-4,3.26Z"/><path d="M11.34,184.81c-1.28,1.11-2.53,2.25-3.84,3.33A34.12,34.12,0,0,0,0,197.27l.59-2.33-.62.54.32-2.18.3.72a32.15,32.15,0,0,1,2.92-3.71c1.94-1.87,4-3.58,6.14-5.27.37-.3,1.1-.16,1.66-.22Z"/><path d="M29.9,138.35c-.39-2.53,2-3,2.89-4.48,1.49-2.59,3.06-5.13,4.6-7.69.15-.25.35-.48.53-.73.22.24.63.49.61.72-.05.91.07,2-.42,2.67-2.29,2.89-4.76,5.64-7.16,8.43C30.65,137.6,30.33,137.9,29.9,138.35Z"/><path d="M34.35,40.23c-2.16-1-1.56,1.43-2.62,1.85-.84-1.33.33-2,.95-2.8a35.49,35.49,0,0,0,3.49-4.8c.79-1.54,1-3.38,1.53-5.42.3.77.89,1.52.82,2.21a12.64,12.64,0,0,1-3.79,8A2.89,2.89,0,0,0,34.35,40.23Z"/><path d="M38.52,79.75l-.26-.17a16.86,16.86,0,0,1-8.65,9.87c1.5-1.74,3-3.53,4.53-5.21s3.28-3.52,3-6L35,76.68C37.22,76.43,38.3,77.52,38.52,79.75Z"/><path d="M26.26,10.13a38.12,38.12,0,0,0,3.83-2.27c2.23-1.69,4.39-3.47,6.48-5.32.48-.42.54-1.29.87-1.91.14-.26.47-.42.71-.62.13.33.45.74.35,1a8.69,8.69,0,0,1-1.66,2.93C34.76,5.72,32.52,7.36,30.27,9a16.47,16.47,0,0,1-3,1.49,2.43,2.43,0,0,1-.93,0Z"/><path d="M6.31,182.11C4.83,184.89.59,185.83,1,190a1.21,1.21,0,0,0-.43-.15A2,2,0,0,0,0,190C-.2,186.63,3.42,182.09,6.31,182.11Z"/><path d="M36,102.94c.13-.64.25-1.28.38-1.92.25-1.21.49-2.43.77-3.64a3.52,3.52,0,0,1,.38-.76,3.69,3.69,0,0,1,.51.64,3.65,3.65,0,0,1-1.32,5.07c-.16.12-.16.47-.23.71Z"/><path d="M34.53,107.23,36,105.8l.12.17.78-1.33.25.15,1.38-2.18c.08,2.29-1.08,3.91-2.7,4.35-.4.11-.78.27-1.17.42Z"/><path d="M12.39,74.93l0-1.3,2.31-.85.18.4L12.37,74.9Z"/><path d="M15.09,53.4l-1.54,2.34-.46-.28L14.36,53Z"/><path d="M7.35,180.21l-1.86,1.66c-.4-1.44.39-2,1.88-1.65Z"/><path d="M10.9,184.82l2.61-2.62.42.49-3,2.11Z"/><path d="M11.34,64.82l-1.43,2C10,64.59,10.2,64.24,11.34,64.82Z"/><path d="M31.1,106.88l.11.15-1.6,1.34v0Z"/><path d="M18.67,40.76l-1.53,1.77-.51-.61,2.06-1.13Z"/><path d="M13.72,17.47c.45-1.81.45-1.81,1.68-1.27l-1.7,1.25Z"/><path d="M1.26,197.85,0,196.44l.25-.2,1.51,1.16Z"/><path d="M29.13,24.85l-1.41,1.21-.28-.26,1.24-1.41Z"/><path d="M30.65,51.79l1-1.94.49.28L31,52Z"/><path d="M24.74,176.7l1.63-1,.21.29-1.5,1.21Z"/><path d="M24.11,140.72l1.77-1.46.26.3L24.38,141Z"/><path d="M26.92,73.76l-.71,1.29-.8-1.57,1.52.3Z"/><path d="M12.37,74.9l-1.17.44L11.52,74l.87.94Z"/><path d="M7.37,180.23l1.31-1.61.4.45-1.73,1.15Z"/><path d="M25.17,168.11l-1.23,1-.23-.25,1.11-1.15Z"/><path d="M21.05,38.53l1.21-.86.22.29-1.2.88Z"/><path d="M16.06,101.75l.37-1.54.58.24-1,1.29Z"/><path d="M29.61,108.38l-.59,1-.31-.1a4.33,4.33,0,0,1,.24-.95c0-.06.44.06.68.1Z"/><path d="M13.7,17.45l-1,.7,0,0c0-.45,0-.9,0-1.51l1,.82Z"/><path d="M14,62.56l-.47,1-.35-.15.42-1Z"/><path d="M38.52,88.17l-.71-1.66.54-.15.15,1.83Z"/><path d="M38,20.45l.54,1.28-.48.15-.35-1.39Z"/><path d="M18.69,40.78l.22-.95.34,0,.21.75-.79.19Z"/><path d="M26.06,26.94l-1,1.14-.24-.21,1-1.14Z"/><path d="M9.51,178.11l.86-.59.21.26-.76.68Z"/><path d="M26.22,26.95l.67-1.19.27.14-.62,1.22Z"/><path d="M28.09,90.81l.55-.85.32.19-.52.88Z"/><path d="M3.15,133.35l.58.54-.22.27-.64-.48Z"/><path d="M13.48,93,13,92.89l.92-1.06L14,92l-.57,1.09Z"/><path d="M27.18,175.13l.71-.51.19.18-.6.62Z"/><path d="M29.73,173.62l-.74,1-.32-.36,1.07-.6Z"/><path d="M17,117.82c-.2.1-.39.24-.43.21a1.5,1.5,0,0,1-.27-.41c.13-.06.27-.19.38-.17S16.86,117.63,17,117.82Z"/><path d="M28.52,17.46l-.32.65L27.92,18l.35-.63Z"/><path d="M2.53,62l-.68-.49.21-.26.62.56Z"/><path d="M26.36,156.31l-.41.85-.35-.29.78-.54Z"/><path d="M25.23,74.72l-.23.59-.19-.05.11-.62Z"/><path d="M29.88,33.28l-.21.62-.2,0,.1-.65Z"/><path d="M30,42.69l-.39.64-.24-.14.38-.64Z"/><path d="M24.16,121.91l-.55.66-.33-.34.74-.52Z"/><path d="M1.71,235.41c-2.21-1.6-2.22-2.51-.38-5.06a25.63,25.63,0,0,0,1.85-2.61,1.41,1.41,0,0,0-.4-1.32,3.07,3.07,0,0,1-1.24-4.51c.13-.2.27-.4.38-.61.65-1.29,2.24-2.59-.05-3.85-.09,0-.13-.2-.18-.31s-.07-.22-.24-.73a13.37,13.37,0,0,0,2,.67c.47.08,1.18.14,1.44-.13A61.8,61.8,0,0,1,9,212.35c2.49-2.12,5.22-4,7.84-5.92l.52.73-2.85,1.9,0-.14c-1.17,1-2.42,2-3.5,3.11-1.53,1.59-3,3.24-4.38,5-1.19,1.51-2.14,3.21-3.3,4.75s-.54,2.6.5,3.74a6.87,6.87,0,0,1,.6.91c1.76-1.88,3.39-3.83,5.24-5.54s3.82-3.05,5.75-4.57l.49.55-6.28,5.72-4,5C3.45,229.47,1.15,231.47,1.71,235.41Z"/><path d="M16.93,275.29c-.63.58-1.29,1.14-1.89,1.76-.43.43-.72,1-1.17,1.4a28.52,28.52,0,0,1-3.49,2.9,21.83,21.83,0,0,0-7.32,7.79c-1.14,2-.9,3.44.42,4.24l16.18-12,.56.64-5,4-.09-.12c-1.23.81-2.47,1.57-3.66,2.41a16.42,16.42,0,0,0-1.78,1.56c-2.48,2.35-5,4.68-7.38,7.11a7.66,7.66,0,0,0-1,2.31c-1.16-.15-1.53-.8-1.12-1.95A1.16,1.16,0,0,1,.36,297c1.65-1.59,2.45-3.1.16-4.92-.41-.33,0-1.64.39-2.52l.14.36c.45-.58,1.1-1.35,1.68-2.18a4.37,4.37,0,0,0,.8-1.56c.18-.9.13-1.86,1.52-1.46.1,0,.34-.2.43-.35a10.57,10.57,0,0,1,4.67-4.51c1.65-.78,2.92-2.33,4.43-3.43a12.8,12.8,0,0,1,2.35-1.08Z"/><path d="M16.48,292c-.67.65-1.33,1.31-2,1.93-.06.05-.36-.16-.27.16a30.28,30.28,0,0,0-3.77,2.09c-1.64,1.23-3.08,2.7-4.66,4a23.77,23.77,0,0,1-2.91,2c-.86.51-.94,3.17-.13,4.14a5,5,0,0,1,.58,1.36l-1.23-.28c-.11,0-.21-.14-.32-.15a11.39,11.39,0,0,1-1.46,0c-.14-1.06-.49-2.27-.11-3.16A15.83,15.83,0,0,1,2.84,300a15.27,15.27,0,0,1,3.72-3.33c1.37-.79,3.15-.84,4.58-1.56a24.54,24.54,0,0,0,3.6-2.72c.4-.31.81-.6,1.21-.9Z"/><path d="M21.65,334.64a7,7,0,0,1-.93,1.11c-4.14,3-8.4,5.76-12.4,8.9a50.8,50.8,0,0,0-6.15,6.28c-.67.75-1.16,1.91.73,1.94.2,0,.39.19.55.73-1-.07-2.32.22-2.91-.31a1.79,1.79,0,0,1,.31-2.8c.59-.48.75-1.49,1.34-2,2.67-2.35,5.39-4.67,8.17-6.88a72.49,72.49,0,0,1,6.2-4.45A53.6,53.6,0,0,1,21.65,334.64Z"/><path d="M36,222.13l.86-.53a3.85,3.85,0,0,1,1.23,5c-.63,1.44-.93,3.19-1.95,4.26-1.77,1.85-2.48,4.54-5.21,5.7-2,.86-3.62,2.66-5.46,4a19.23,19.23,0,0,1-2.71,1.28A8.3,8.3,0,0,1,24,240.06c1.45-1.05,3-2,4.45-3,.56-.41.92-1.1,1.47-1.54s1.42-.92,2.13-1.39a1.63,1.63,0,0,0,.52-.49c1.53-2.68,3.13-5.32,4.49-8.08.28-.57-.3-1.59-.54-2.39a6.09,6.09,0,0,0-.52-1Z"/><path d="M12.91,191.7c-2.54,2.24-5.32,4.27-7.54,6.79s-4.46,5.2-3.33,9a1.52,1.52,0,0,1-2-1.7,14.5,14.5,0,0,1,.9-4.37,18.18,18.18,0,0,1,3-3.68c1.12-1.25,2.29-2.45,3-3.2l5.42-3.71.59.85Z"/><path d="M13.5,266.61l4.95-3.49.54.58c-.59.4-1.22.75-1.76,1.2-3.16,2.62-6.42,5.14-9.4,7.95a34.38,34.38,0,0,0-4.79,6c-1,1.45-1.65,3.17-.71,5,.06.13-.75.69-1.15,1l-.43-.41.49-1.65c-1.71.24-1.25-.85-.87-1.76a21.24,21.24,0,0,1,5.33-7.65c1.78-1.64,3.35-3.52,5.12-5.17a14.94,14.94,0,0,1,2.71-1.64Z"/><path d="M17.19,308.54c-4.29,3.63-9.55,5.93-13.52,10.71-.17,1.81-3.82,3.16-2,6.29A2,2,0,0,1,0,323.09a10.41,10.41,0,0,1,5.36-7.75c3.18-1.95,6.34-3.92,9.53-5.83A17.42,17.42,0,0,1,17.19,308.54Z"/><path d="M1.48,271l1.13-.33c.1.87.22,1.71.28,2.56a4,4,0,0,1-.12.89c-.44-.11-1-.08-1.29-.35a3.62,3.62,0,0,1-.68-5.15A84.42,84.42,0,0,1,7.12,262c1.72-1.63,3.6-3.1,5.47-4.57,1-.8,2.16-1.43,3.24-2.15l.27.39c-2.7,2.25-5.56,4.35-8.07,6.8S2.76,267.22,1.48,271Z"/><path d="M5.86,234.06l.35.57,2-3.1.34.43,4.1-4.13c.35,1.87-.4,2.73-1.84,3.41-.76.36-1.13,1.53-1.73,2.28a10.13,10.13,0,0,1-1.86,2c-.64.46-1.52.59-2,1.1l-2.11,3.27c-.15.23-.33.45-.5.67a2.65,2.65,0,0,0,.13,3.74c.21.23.22.64.42,1.27-1.13-.78-2-1.31-2.74-1.93-.23-.19-.47-.74-.37-.92Q1.8,239.84,3.71,237C4.35,236,5.09,235.1,5.86,234.06Z"/><path d="M28.74,321.36l5-6.68a11,11,0,0,0,1.78-2.45,16.14,16.14,0,0,0,.49-3.51c2.35.26,3.38,1.89,1.79,4.19a49,49,0,0,1-5.45,5.88,30.46,30.46,0,0,1-2.31,2c-.35.3-.74.55-1.12.82Z"/><path d="M1.15,336c-1.23-.3-1.36-1-.92-2a16.28,16.28,0,0,1,7.2-7.63c.83-.47,1.51-1.2,2.31-1.74,3.25-2.17,6.53-4.32,9.79-6.48l.31.44c-1.21.88-2.4,1.8-3.64,2.64a76.79,76.79,0,0,0-12.3,9.64A10.62,10.62,0,0,0,1.15,336Z"/><path d="M27.16,255.91c1.13-1.25,2.29-2.48,3.39-3.77.55-.65,1-1.4,1.48-2.1,1.43-2,3-4,4.24-6.12.38-.63,0-1.7,0-2.57,0-.26,0-.72.07-.73a3,3,0,0,1,1.45-.08c.32.1.76.66.71.92a22.73,22.73,0,0,1-1,2.9c-1.85,4.94-5.67,8.29-9.47,11.65a2,2,0,0,1-.63.24Z"/><path d="M27.15,247.69c1.21-1.35,2.52-2.62,3.6-4.07,2.07-2.79,4-5.67,6-8.55.22-.32.09-.86.19-1.28s.3-1,.45-1.42c.41.57,1.26,1.27,1.14,1.68a15.59,15.59,0,0,1-2,5,69.07,69.07,0,0,1-5.62,6.2,23.5,23.5,0,0,1-2.49,2.3c-.28.22-.81.12-1.23.16Z"/><path d="M27.46,340.88a4.57,4.57,0,0,1,.56-.95c2.74-2.83,5.6-5.56,8.19-8.52.53-.61.1-2.06.11-3.13a2,2,0,0,1,1.89,3.16,43.22,43.22,0,0,1-2.08,3.82c-.16.26-.82.22-1,.26a9.33,9.33,0,0,1-1,1.43c-.19.19-.61.14-.8.17-1.3,2-3.74,2.55-5.42,4.06Z"/><path d="M34.08,281.16c1.23-.13,2-1.89,3.65-.68,1.76,1.33.1,2.31-.27,3a31.77,31.77,0,0,1-11.27,11.6.26.26,0,0,1-.15,0,29.21,29.21,0,0,1,3.29-3.43A20.46,20.46,0,0,0,36,282.21c.08-.2-.26-.63-.5-.85s-.46,0-.7,0A6.72,6.72,0,0,1,34.08,281.16Z"/><path d="M29.43,301.39c.87-.91,1.75-1.76,2.55-2.68,1.23-1.42,2.39-2.91,3.59-4.35s1.67-2.91.75-4.67c-.08-.16,0-.59.11-.63a1,1,0,0,1,.75.06A3.29,3.29,0,0,1,38.25,293a67.11,67.11,0,0,1-3.87,6.29,12,12,0,0,1-3.46,2.54C30.66,302,30.06,301.6,29.43,301.39Zm3.41-1.68-.34-.17c-.1.28-.2.56-.28.84,0,0,.11.08.2.14Z"/><path d="M16.55,329.13c-2.18,1.78-4.45,3.46-6.52,5.38-2.86,2.65-5.66,5.38-8.26,8.28-.61.68-.32,2.16-.44,3.3a2.2,2.2,0,0,1-1.28-2.51c.57-2.34,2.51-3.57,4-5.15a17.14,17.14,0,0,1,1.72-1.62c2.42-1.89,4.86-3.76,7.3-5.62,1.06-.81,2.14-1.58,3.21-2.37Z"/><path d="M1.69,317.52c-.53-.3-1.51-.58-1.52-.9C.09,315.05-.31,313,.48,312a34.13,34.13,0,0,1,9.75-9,31.55,31.55,0,0,0,2.69-2l.33.39c-1.49,1.3-3,2.54-4.45,3.92-2.44,2.4-4.91,4.79-7.15,7.37C.33,314.13.6,315.57,1.69,317.52Z"/><path d="M1.15,253.25c1.64-1.13,2.27-.5,2.52,2C2.5,254.47.86,254,.3,252.93a2.9,2.9,0,0,1,1.28-3.85c.23-.14.31-.5.51-.72.72-.8,1.52-1.55,2.17-2.4.37-.49.4-1.23.77-1.72,1.22-1.58,2.54-3.1,3.81-4.64l.55.37c-.92,1.38-1.84,2.77-2.77,4.15C4.71,247,2.19,249.43,1.15,253.25Zm5-9.6.28.3.6-.63-.2-.22Z"/><path d="M0,262.94c.53-1.13.92-2.13,1.44-3.06,1-1.8,2-3.58,3.1-5.32a14.59,14.59,0,0,1,1.71-2c1-1.06,1.93-2.14,3-3.14.26-.25.79-.21,1.2-.31,0,.35.05.82-.14,1-1.18,1.32-2.46,2.55-3.63,3.88-2.2,2.49-3.5,5.52-4.9,8.47a.84.84,0,0,0-.05.57,10.84,10.84,0,0,0,.47,1.07,4,4,0,0,1-1.32-.24C.49,263.74.28,263.29,0,262.94Z"/><path d="M28.58,330.23c1.56-1.67,3.18-3.29,4.65-5,1.29-1.52,2.4-3.19,3.57-4.77l-1.47-1.32.3-.55a12,12,0,0,1,2.81,1.53c.26.24-.08,1.59-.53,2.06-2.71,2.77-5.53,5.45-8.34,8.12-.17.16-.66,0-1,0Z"/><path d="M14.42,200.59a49.9,49.9,0,0,0-4.05,3.67c-2.82,3.22-5.56,6.51-8.25,9.84a14.17,14.17,0,0,0-1,2.29c-.12.23-.6.27-.91.4-.07-.35-.31-.81-.17-1a76.25,76.25,0,0,1,5.54-8.29C7.87,204.77,10.38,202.1,14.42,200.59Z"/><path d="M37,178.86c1,.23,1.51.79,1.51,2.22,0,4.74-4,6.15-6.87,8.49a11.38,11.38,0,0,1-1.81,1l-.58-.71c1.12-.9,2.26-1.78,3.35-2.71,1.93-1.64,3.77-3.37,4.35-6A11.85,11.85,0,0,0,37,178.86Z"/><path d="M36.69,261.74l1.83-.46c-.13.64-.25,1.27-.4,1.9,0,.15-.25.3-.22.41.63,2.77-1.85,3.69-3.22,5.14-1.92,2-4.15,3.79-6.25,5.66a9.6,9.6,0,0,1-.89.62l.69-2,.18.24c.53-.48,1.08-.95,1.6-1.43,1.91-1.79,3.83-3.58,5.71-5.41a2.06,2.06,0,0,0,.48-1.09c.21-1.21.35-2.42.51-3.64Z"/><path d="M29.33,197.67c1.57-1.78,3.25-3.47,4.68-5.36s2.73-4.1,4.23-6.39c.1.62.4,1.23.23,1.66-.93,2.5-1.43,5.26-3.84,6.93-1.34.92-2.75,1.73-4.1,2.63a3.43,3.43,0,0,0-.67.89Z"/><path d="M30.64,347.53c1.11-1.24,2.3-2.41,3.31-3.73A20.89,20.89,0,0,0,36.3,340a12.22,12.22,0,0,0,.45-3.13c.65-.35,2,.24,1.74,1.24-.37,1.8.09,4-1.6,5.34-2,1.52-4.18,2.75-6.29,4.1Z"/><path d="M35.4,222.12c-.3-.07-.73-.31-.87-.19-.87.7-1.68,1.49-2.52,2.24l-.47-.27a23.23,23.23,0,0,1,1.89-3.45c.61-.79,1.75-1.17,2.41-1.94a3.68,3.68,0,0,0,.58-4A13.79,13.79,0,0,1,36,213c.24-.06.57-.24.72-.15.67.42,1.89,1,1.83,1.38-.34,2.08-.36,4.41-2.51,5.72-.13.08-.4-.07-.49-.09l-.14,2.29Zm-.51-2.31-.2,0,.22,1,.26-.08Z"/><path d="M29.5,206.38l3.84-4,.27.24c.84-2,1.66-4,2.56-6,.11-.25.62-.33,1-.49l.23.4.45-1.39.49,0c.09.82.19,1.65.23,2.47a10.1,10.1,0,0,1-1.13.18c0,.19,0,.59,0,1s.14.65,0,.79a50.49,50.49,0,0,1-3.51,3.9c-1.24,1.18-2.65,2.18-4,3.26Z"/><path d="M11.34,358.36c-1.28,1.11-2.53,2.25-3.84,3.33A34.12,34.12,0,0,0,0,370.83l.59-2.33L0,369l.32-2.18.3.72a32.15,32.15,0,0,1,2.92-3.7c1.94-1.87,4-3.58,6.14-5.27.37-.3,1.1-.16,1.66-.22Z"/><path d="M29.9,311.9c-.39-2.53,2-3,2.89-4.48,1.49-2.58,3.06-5.13,4.6-7.69.15-.25.35-.48.53-.73.22.24.63.49.61.72-.05.91.07,2-.42,2.67-2.29,2.89-4.76,5.64-7.16,8.43C30.65,311.16,30.33,311.46,29.9,311.9Z"/><path d="M34.35,213.78c-2.16-1-1.56,1.42-2.62,1.85-.84-1.33.33-2,.95-2.8a35.49,35.49,0,0,0,3.49-4.8c.79-1.54,1-3.38,1.53-5.42.3.77.89,1.52.82,2.21a12.64,12.64,0,0,1-3.79,8A2.88,2.88,0,0,0,34.35,213.78Z"/><path d="M38.52,253.31l-.26-.17A16.86,16.86,0,0,1,29.62,263c1.5-1.74,3-3.53,4.53-5.21s3.28-3.52,3-6L35,250.23C37.22,250,38.3,251.07,38.52,253.31Z"/><path d="M26.26,183.68a38.12,38.12,0,0,0,3.83-2.27c2.23-1.69,4.39-3.47,6.48-5.32.48-.42.54-1.29.87-1.91.14-.26.47-.42.71-.62.13.32.45.74.35,1a8.69,8.69,0,0,1-1.66,2.93c-2.08,1.82-4.32,3.46-6.57,5.07a16.47,16.47,0,0,1-3,1.49,2.43,2.43,0,0,1-.93,0Z"/><path d="M6.31,355.67C4.83,358.45.59,359.39,1,363.52a1.21,1.21,0,0,0-.43-.15,2,2,0,0,0-.58.16C-.2,360.18,3.42,355.65,6.31,355.67Z"/><path d="M36,276.49c.13-.64.25-1.28.38-1.92.25-1.21.49-2.43.77-3.64a3.52,3.52,0,0,1,.38-.76,3.69,3.69,0,0,1,.51.64,3.65,3.65,0,0,1-1.32,5.07c-.16.12-.16.47-.23.71Z"/><path d="M34.53,280.79,36,279.36l.12.17.78-1.33.25.14,1.38-2.17c.08,2.29-1.08,3.91-2.7,4.35-.4.11-.78.27-1.17.42Z"/><path d="M10.95,248.49l0-1.3,2.31-.85.18.4-2.52,1.72Z"/><path d="M13.65,227l-1.54,2.34-.46-.28,1.27-2.47Z"/><path d="M5.91,353.76,4,355.43c-.4-1.44.39-2,1.88-1.65Z"/><path d="M9.46,358.38l2.61-2.62.42.49-3,2.11Z"/><path d="M9.89,238.38l-1.43,2C8.51,238.14,8.76,237.79,9.89,238.38Z"/><path d="M29.65,280.44l.11.15-1.6,1.34v0Z"/><path d="M17.23,214.31l-1.53,1.77-.51-.61,2.06-1.13Z"/><path d="M12.27,191c.45-1.81.45-1.81,1.68-1.27L12.26,191Z"/><path d="M1.26,371.41,0,370l.25-.2L1.76,371Z"/><path d="M27.69,198.4l-1.41,1.21-.28-.26,1.24-1.41Z"/><path d="M29.2,225.34l1-1.94.49.28-1.09,1.9Z"/><path d="M23.3,350.26l1.63-1,.21.29-1.5,1.21Z"/><path d="M22.67,314.28l1.77-1.46.26.3-1.77,1.47Z"/><path d="M25.48,247.32l-.71,1.29L24,247l1.52.3Z"/><path d="M10.93,248.46l-1.17.45.32-1.35.87.94Z"/><path d="M5.93,353.78l1.31-1.61.4.45-1.73,1.15Z"/><path d="M23.73,341.66l-1.23,1-.23-.25,1.11-1.15Z"/><path d="M19.61,212.08l1.21-.86.22.29-1.2.88Z"/><path d="M14.62,275.31l.37-1.54.58.24-1,1.29Z"/><path d="M28.17,281.93l-.59,1-.31-.1a4.33,4.33,0,0,1,.24-.95c0-.06.44.06.68.1Z"/><path d="M12.26,191l-1,.7,0,0c0-.45,0-.9,0-1.51l1,.82Z"/><path d="M12.56,236.12l-.47,1-.35-.15.42-1Z"/><path d="M38.52,261.73l-.71-1.67.54-.15.15,1.83Z"/><path d="M38,194l.54,1.28-.48.15L37.69,194Z"/><path d="M17.24,214.34l.22-.95.34,0,.21.75-.79.19Z"/><path d="M24.62,200.49l-1,1.15-.24-.21,1-1.14Z"/><path d="M8.07,351.66l.86-.59.21.27-.76.68Z"/><path d="M24.78,200.5l.67-1.19.27.14-.62,1.22Z"/><path d="M26.65,264.37l.55-.85.32.19-.52.89Z"/><path d="M.28,306.91l.58.54-.22.27L0,307.24Z"/><path d="M12,266.59l-.52-.14.92-1.06.15.13L12,266.61Z"/><path d="M25.74,348.68l.71-.51.19.18L26,349Z"/><path d="M28.28,347.17l-.74,1-.32-.36,1.07-.6Z"/><path d="M15.56,291.37c-.2.1-.39.24-.43.21a1.5,1.5,0,0,1-.27-.41c.13-.06.27-.19.38-.17S15.41,291.19,15.56,291.37Z"/><path d="M27.08,191l-.32.65-.29-.15.35-.63Z"/><path d="M.68,235.52,0,235l.21-.26.62.56Z"/><path d="M24.92,329.86l-.41.85-.35-.29.78-.54Z"/><path d="M23.79,248.27l-.23.59-.19-.05.11-.62Z"/><path d="M28.44,206.84l-.21.62-.2,0,.1-.65Z"/><path d="M28.57,216.25l-.39.64-.24-.14.38-.64Z"/><path d="M22.72,295.47l-.55.66-.33-.34.74-.52Z"/><path d="M1,31.17c-1.29,5.93,2.58,4.61,2.58,4.61Z"/></svg>