<svg xmlns="http://www.w3.org/2000/svg" viewBox="0 0 38.53 1105.99"><defs><style>.a{fill:#fff;}</style></defs><title>screw</title><rect class="a" x="2.2" y="24.73" width="34.62" height="1081.26"/><path d="M1.72,61.85c-2.21-1.6-2.22-2.51-.38-5.06a25,25,0,0,0,1.85-2.61,1.42,1.42,0,0,0-.4-1.32,3.06,3.06,0,0,1-1.24-4.51c.13-.2.27-.4.38-.61.65-1.29,2.24-2.59-.05-3.85-.09,0-.13-.2-.18-.31s-.07-.22-.24-.73a13.33,13.33,0,0,0,2,.67c.47.08,1.18.14,1.44-.13C6.29,41.9,7.45,40.12,9,38.79c2.49-2.12,5.22-4,7.84-5.92l.52.73-2.85,1.9,0-.14c-1.17,1-2.42,2-3.5,3.11-1.53,1.59-3,3.24-4.38,5C5.42,45,4.47,46.66,3.31,48.2s-.54,2.6.5,3.74a7.07,7.07,0,0,1,.6.91C6.17,51,7.8,49,9.65,47.31s3.83-3.05,5.75-4.57l.49.55L9.61,49l-4,5C3.46,55.92,1.15,57.92,1.72,61.85Z"/><path d="M16.93,101.74c-.64.58-1.29,1.15-1.9,1.76-.43.43-.72,1-1.17,1.4a28.46,28.46,0,0,1-3.49,2.9,21.81,21.81,0,0,0-7.32,7.79c-1.15,2-.9,3.44.42,4.24l16.18-12,.56.64-5,4-.09-.12c-1.23.81-2.47,1.57-3.66,2.41a16.52,16.52,0,0,0-1.78,1.56c-2.48,2.35-5,4.68-7.38,7.11a7.66,7.66,0,0,0-1,2.31c-1.16-.15-1.53-.8-1.12-1.95a1.19,1.19,0,0,1,.19-.44c1.65-1.59,2.45-3.1.16-4.92-.41-.33,0-1.63.39-2.52l.14.36c.45-.58,1.1-1.35,1.68-2.18a4.37,4.37,0,0,0,.8-1.56c.18-.9.13-1.86,1.52-1.46.1,0,.34-.2.43-.35a10.57,10.57,0,0,1,4.67-4.51c1.65-.78,2.92-2.33,4.44-3.43A12.87,12.87,0,0,1,17,101.75Z"/><path d="M16.48,118.44c-.67.65-1.33,1.31-2,1.93-.06.05-.36-.16-.27.16a30.53,30.53,0,0,0-3.77,2.09c-1.64,1.23-3.08,2.7-4.66,4a23.69,23.69,0,0,1-2.91,2c-.86.51-.94,3.17-.13,4.14a5.08,5.08,0,0,1,.58,1.37l-1.23-.28c-.11,0-.21-.15-.32-.15a11.41,11.41,0,0,1-1.46,0c-.14-1.06-.49-2.27-.11-3.16a15.73,15.73,0,0,1,2.67-4.11,15.24,15.24,0,0,1,3.72-3.32c1.37-.79,3.15-.84,4.58-1.56a24.54,24.54,0,0,0,3.6-2.72c.4-.31.81-.6,1.21-.9Z"/><path d="M21.65,161.09a7.06,7.06,0,0,1-.93,1.11c-4.14,3-8.4,5.76-12.4,8.9a50.8,50.8,0,0,0-6.15,6.28c-.67.75-1.16,1.91.73,1.94.2,0,.39.19.55.74-1-.07-2.31.22-2.91-.31a1.79,1.79,0,0,1,.31-2.8c.59-.48.75-1.49,1.34-2,2.67-2.35,5.39-4.66,8.17-6.88a72.32,72.32,0,0,1,6.2-4.45A53.63,53.63,0,0,1,21.65,161.09Z"/><path d="M36,48.58l.86-.53a3.85,3.85,0,0,1,1.23,5c-.64,1.44-.93,3.19-1.95,4.26-1.77,1.85-2.48,4.54-5.21,5.69-2,.86-3.62,2.66-5.47,4a19.21,19.21,0,0,1-2.71,1.28A8.26,8.26,0,0,1,24,66.51c1.45-1.06,3-2,4.44-3,.56-.41.92-1.1,1.47-1.54s1.42-.92,2.13-1.39a1.64,1.64,0,0,0,.52-.49c1.53-2.68,3.13-5.32,4.49-8.08.28-.57-.3-1.59-.54-2.39a6.09,6.09,0,0,0-.52-1Z"/><path d="M12.91,18.15c-2.54,2.24-5.32,4.27-7.54,6.78S.91,30.13,2,34a1.52,1.52,0,0,1-2-1.7,14.56,14.56,0,0,1,.9-4.37,18.2,18.2,0,0,1,3-3.68C5,23,6.23,21.77,6.92,21l5.42-3.71.59.85Z"/><path d="M13.5,93.05l4.95-3.49.54.58c-.59.4-1.22.75-1.76,1.2-3.16,2.62-6.42,5.13-9.4,7.95A34.38,34.38,0,0,0,3,105.23c-1,1.45-1.65,3.17-.71,5,.06.13-.75.69-1.15,1l-.43-.41.49-1.65c-1.71.24-1.25-.85-.87-1.76a21.24,21.24,0,0,1,5.33-7.65c1.78-1.64,3.35-3.52,5.12-5.17A14.94,14.94,0,0,1,13.52,93Z"/><path d="M17.2,135c-4.29,3.63-9.55,5.93-13.52,10.71-.17,1.81-3.82,3.16-2,6.29A2,2,0,0,1,0,149.54a10.42,10.42,0,0,1,5.36-7.75c3.18-1.95,6.34-3.92,9.53-5.84A17,17,0,0,1,17.2,135Z"/><path d="M1.49,97.44l1.13-.33c.1.87.22,1.71.28,2.56a4.09,4.09,0,0,1-.12.89c-.44-.11-1-.08-1.29-.35a3.62,3.62,0,0,1-.69-5.15,84.42,84.42,0,0,1,6.33-6.57c1.72-1.63,3.6-3.1,5.47-4.57,1-.8,2.15-1.43,3.24-2.15l.27.39C13.4,84.42,10.54,86.51,8,89S2.77,93.67,1.49,97.44Z"/><path d="M5.86,60.5l.35.57,2-3.1.35.43,4.1-4.13c.35,1.87-.4,2.74-1.84,3.41C10,58,9.65,59.21,9,60a10.12,10.12,0,0,1-1.86,2c-.65.46-1.52.59-2,1.1L3.09,66.37c-.15.23-.33.45-.5.67a2.65,2.65,0,0,0,.13,3.74c.21.23.22.64.42,1.28C2,71.28,1.17,70.75.4,70.14c-.23-.19-.48-.74-.37-.92q1.77-2.93,3.68-5.78C4.35,62.45,5.09,61.54,5.86,60.5Z"/><path d="M28.74,147.8l5-6.68a11,11,0,0,0,1.78-2.45,16.14,16.14,0,0,0,.49-3.51c2.35.26,3.38,1.88,1.78,4.19a49,49,0,0,1-5.45,5.88c-.71.73-1.53,1.36-2.31,2-.35.3-.74.55-1.12.82Z"/><path d="M1.16,162.47c-1.23-.3-1.36-.95-.92-2a16.28,16.28,0,0,1,7.2-7.63c.83-.47,1.51-1.21,2.31-1.74,3.25-2.18,6.53-4.32,9.79-6.48l.31.44c-1.21.88-2.4,1.8-3.64,2.64a76.84,76.84,0,0,0-12.3,9.64A10.62,10.62,0,0,0,1.16,162.47Z"/><path d="M27.16,82.35c1.13-1.25,2.29-2.48,3.39-3.77.56-.65,1-1.4,1.48-2.1,1.43-2,3-4,4.24-6.12.38-.63,0-1.7,0-2.57,0-.26,0-.72.07-.74A3,3,0,0,1,37.81,67c.32.1.76.66.71.92a22.73,22.73,0,0,1-1,2.9c-1.85,4.94-5.67,8.29-9.47,11.65a2,2,0,0,1-.63.25Z"/><path d="M27.16,74.13c1.21-1.35,2.52-2.62,3.6-4.07,2.07-2.79,4-5.67,6-8.55.22-.32.09-.86.19-1.28s.3-.95.45-1.42c.41.57,1.26,1.27,1.14,1.68a15.61,15.61,0,0,1-2,5,69.22,69.22,0,0,1-5.62,6.19,23.51,23.51,0,0,1-2.5,2.3c-.28.22-.81.12-1.22.16Z"/><path d="M27.47,167.33a4.63,4.63,0,0,1,.56-.95c2.74-2.83,5.6-5.56,8.19-8.52.53-.61.1-2.06.11-3.13a2,2,0,0,1,1.89,3.16c-.65,1.3-1.31,2.6-2.08,3.82-.16.26-.82.22-1,.26a9.33,9.33,0,0,1-1,1.43c-.19.19-.61.14-.8.17-1.29,2-3.74,2.54-5.42,4.06Z"/><path d="M34.08,107.61c1.23-.13,2-1.89,3.65-.68,1.76,1.34.1,2.31-.27,3a31.77,31.77,0,0,1-11.27,11.6.26.26,0,0,1-.15,0,29.22,29.22,0,0,1,3.29-3.43A20.46,20.46,0,0,0,36,108.66c.08-.2-.26-.63-.5-.85s-.46,0-.7,0S34.3,107.66,34.08,107.61Z"/><path d="M29.44,127.84c.87-.91,1.75-1.76,2.55-2.68,1.23-1.42,2.39-2.91,3.6-4.35s1.67-2.91.75-4.67c-.08-.16,0-.59.11-.63a1,1,0,0,1,.75.06,3.29,3.29,0,0,1,1.05,3.89,67.32,67.32,0,0,1-3.87,6.29,12,12,0,0,1-3.46,2.54C30.66,128.45,30.06,128,29.44,127.84Zm3.41-1.68L32.5,126c-.1.28-.19.56-.28.84,0,0,.11.08.2.14Z"/><path d="M16.56,155.58C14.38,157.36,12.1,159,10,161c-2.86,2.65-5.66,5.38-8.26,8.28-.61.68-.32,2.16-.44,3.3A2.19,2.19,0,0,1,.06,170c.57-2.34,2.51-3.57,4-5.15a17.15,17.15,0,0,1,1.72-1.62c2.42-1.89,4.86-3.76,7.3-5.62,1.06-.81,2.14-1.58,3.21-2.37Z"/><path d="M1.69,144c-.53-.3-1.51-.58-1.52-.9-.07-1.56-.47-3.57.31-4.63a34.13,34.13,0,0,1,9.75-9,31.55,31.55,0,0,0,2.69-2l.33.39c-1.49,1.3-3,2.54-4.45,3.92-2.44,2.4-4.91,4.79-7.15,7.37C.34,140.58.6,142,1.69,144Z"/><path d="M1.15,79.69c1.64-1.13,2.27-.5,2.52,2C2.51,80.91.86,80.43.31,79.38a2.9,2.9,0,0,1,1.28-3.85c.23-.14.31-.5.51-.72.72-.81,1.52-1.55,2.17-2.4.37-.49.4-1.23.77-1.72,1.23-1.58,2.54-3.1,3.81-4.64l.55.37c-.92,1.38-1.84,2.77-2.77,4.15C4.71,73.4,2.19,75.87,1.15,79.69Zm5-9.6.28.3.6-.63-.2-.22Z"/><path d="M0,89.38c.53-1.13.93-2.13,1.44-3.06,1-1.79,2-3.58,3.1-5.32a14.59,14.59,0,0,1,1.71-2c1-1.06,1.93-2.14,3-3.14.26-.25.79-.21,1.2-.31,0,.35.05.82-.14,1C9.1,78,7.82,79.19,6.65,80.51,4.45,83,3.16,86,1.75,89a.85.85,0,0,0-.05.57,10.84,10.84,0,0,0,.47,1.07,4,4,0,0,1-1.32-.24C.49,90.19.29,89.73,0,89.38Z"/><path d="M28.58,156.68c1.56-1.67,3.18-3.29,4.65-5,1.29-1.52,2.4-3.19,3.57-4.77l-1.47-1.32.3-.55a12.09,12.09,0,0,1,2.81,1.53c.26.24-.08,1.59-.53,2.06-2.71,2.77-5.53,5.45-8.34,8.12-.17.16-.66,0-1,0Z"/><path d="M14.43,27a50,50,0,0,0-4.05,3.67c-2.82,3.22-5.56,6.51-8.25,9.84a14.17,14.17,0,0,0-1,2.29c-.12.23-.6.27-.91.4-.07-.35-.31-.81-.17-1a76.4,76.4,0,0,1,5.54-8.29C7.88,31.21,10.38,28.55,14.43,27Z"/><path d="M37,5.31c1,.23,1.51.79,1.51,2.22,0,4.74-4,6.15-6.87,8.49a11.33,11.33,0,0,1-1.81,1l-.58-.71c1.12-.9,2.26-1.78,3.35-2.71,1.93-1.64,3.77-3.37,4.35-6A12.16,12.16,0,0,0,37,5.31Z"/><path d="M36.7,88.18l1.83-.46c-.13.63-.25,1.27-.4,1.9,0,.15-.25.29-.22.41.63,2.77-1.85,3.69-3.22,5.15-1.92,2-4.15,3.79-6.25,5.66a9.49,9.49,0,0,1-.89.62l.69-2,.18.24c.53-.48,1.08-.95,1.6-1.43,1.91-1.79,3.83-3.58,5.71-5.41a2.05,2.05,0,0,0,.47-1.09c.21-1.21.35-2.42.51-3.64Z"/><path d="M29.33,24.11c1.57-1.78,3.25-3.47,4.68-5.36s2.73-4.1,4.23-6.39c.1.62.4,1.23.23,1.66C37.55,16.53,37,19.3,34.64,21c-1.34.92-2.75,1.73-4.1,2.63a3.42,3.42,0,0,0-.67.89Z"/><path d="M30.64,174c1.11-1.24,2.3-2.41,3.31-3.73a20.83,20.83,0,0,0,2.35-3.83,12.37,12.37,0,0,0,.45-3.13c.65-.35,1.95.24,1.74,1.24-.37,1.79.09,4-1.6,5.34-2,1.52-4.18,2.75-6.29,4.1Z"/><path d="M35.41,48.57c-.3-.07-.73-.31-.87-.19-.87.7-1.68,1.49-2.52,2.24l-.47-.28a23.24,23.24,0,0,1,1.89-3.44c.61-.79,1.75-1.17,2.41-1.94a3.68,3.68,0,0,0,.58-4,13.33,13.33,0,0,1-.44-1.5c.24-.06.57-.24.72-.15.67.42,1.89,1,1.83,1.38-.35,2.08-.36,4.41-2.51,5.72-.13.08-.4-.07-.49-.09,0,.75-.09,1.52-.14,2.29Zm-.51-2.31-.2,0,.22,1,.26-.08Z"/><path d="M29.5,32.83l3.84-4,.27.24c.84-2,1.66-4,2.56-6,.11-.25.63-.33,1-.49l.23.4.45-1.39.49,0c.09.82.19,1.65.23,2.47a10.14,10.14,0,0,1-1.13.18c0,.19,0,.58,0,1s.14.64,0,.79a50.68,50.68,0,0,1-3.5,3.9c-1.24,1.18-2.65,2.18-4,3.26Z"/><path d="M11.34,184.81c-1.28,1.11-2.53,2.25-3.84,3.33A34.16,34.16,0,0,0,0,197.27l.59-2.33-.62.54.32-2.18.3.72a32.39,32.39,0,0,1,2.92-3.71c1.94-1.87,4-3.58,6.14-5.27.37-.3,1.1-.16,1.66-.22Z"/><path d="M29.9,138.35c-.39-2.53,2-3,2.89-4.48,1.49-2.59,3.06-5.13,4.6-7.69.15-.25.35-.48.52-.73.22.24.63.49.61.72-.05.91.07,2-.42,2.67-2.29,2.89-4.76,5.64-7.16,8.43C30.66,137.6,30.33,137.9,29.9,138.35Z"/><path d="M34.35,40.23c-2.16-1-1.56,1.43-2.62,1.85-.84-1.33.33-2,.95-2.8a35.23,35.23,0,0,0,3.49-4.8c.79-1.54,1-3.38,1.53-5.42.3.77.89,1.52.82,2.21a12.64,12.64,0,0,1-3.79,8A2.94,2.94,0,0,0,34.35,40.23Z"/><path d="M38.53,79.75l-.26-.17a16.87,16.87,0,0,1-8.65,9.87c1.5-1.74,3-3.53,4.53-5.21s3.28-3.52,3-6L35,76.68C37.22,76.43,38.3,77.52,38.53,79.75Z"/><path d="M26.26,10.13a38.23,38.23,0,0,0,3.83-2.27c2.23-1.69,4.39-3.47,6.48-5.32.48-.42.54-1.29.87-1.91.14-.26.47-.42.71-.62.13.33.45.74.35,1a8.67,8.67,0,0,1-1.66,2.93C34.77,5.72,32.53,7.36,30.28,9a16.5,16.5,0,0,1-3,1.49,2.43,2.43,0,0,1-.93,0Z"/><path d="M6.31,182.11C4.83,184.89.59,185.83,1,190a1.21,1.21,0,0,0-.43-.15A2,2,0,0,0,0,190C-.19,186.63,3.42,182.09,6.31,182.11Z"/><path d="M36,102.94c.13-.64.25-1.28.38-1.92.25-1.21.49-2.43.77-3.64a3.52,3.52,0,0,1,.38-.76,3.61,3.61,0,0,1-.81,5.71c-.16.12-.16.47-.23.71Z"/><path d="M34.54,107.23,36,105.8l.12.17.78-1.33.25.15,1.38-2.18c.08,2.29-1.07,3.91-2.7,4.35-.4.11-.78.27-1.17.42Z"/><path d="M12.39,74.93l0-1.3,2.31-.85.18.4L12.38,74.9Z"/><path d="M15.09,53.4l-1.53,2.34-.47-.28L14.36,53Z"/><path d="M7.35,180.21l-1.86,1.66c-.4-1.44.39-2,1.88-1.65Z"/><path d="M10.91,184.82l2.6-2.62.42.49-3,2.11Z"/><path d="M11.34,64.82l-1.43,2C10,64.59,10.2,64.24,11.34,64.82Z"/><path d="M31.1,106.88l.11.15-1.6,1.34v0Z"/><path d="M18.67,40.76l-1.53,1.77-.51-.61,2.06-1.13Z"/><path d="M13.72,17.47c.45-1.81.45-1.81,1.68-1.27l-1.7,1.25Z"/><path d="M1.26,197.85,0,196.44l.25-.2,1.51,1.16Z"/><path d="M29.13,24.85l-1.41,1.21-.28-.26,1.24-1.41Z"/><path d="M30.65,51.79l1-1.94.49.28L31,52Z"/><path d="M24.74,176.7l1.63-1,.21.29-1.5,1.21Z"/><path d="M24.11,140.72l1.77-1.46.26.3L24.38,141Z"/><path d="M26.92,73.76l-.71,1.29-.8-1.57,1.53.3Z"/><path d="M12.38,74.9l-1.17.44L11.52,74l.86.94Z"/><path d="M7.37,180.23l1.31-1.61.4.45-1.73,1.15Z"/><path d="M25.18,168.11l-1.23,1-.24-.25,1.11-1.15Z"/><path d="M21.06,38.53l1.21-.86.22.29-1.2.88Z"/><path d="M16.07,101.75l.37-1.54.58.24-1,1.29Z"/><path d="M29.61,108.38l-.59,1-.31-.1a4.39,4.39,0,0,1,.24-.95c0-.06.44.06.68.1Z"/><path d="M13.71,17.45l-1,.7,0,0c0-.45,0-.9,0-1.51l1,.82Z"/><path d="M14,62.56l-.47,1-.35-.15.42-1Z"/><path d="M38.53,88.17l-.71-1.66.54-.15.15,1.83Z"/><path d="M38,20.45l.54,1.28-.48.15q-.17-.7-.35-1.39Z"/><path d="M18.69,40.78c.07-.32.15-.63.22-.95l.34,0c.07.25.15.5.21.75l-.79.19Z"/><path d="M26.06,26.94l-1,1.14-.24-.21,1-1.14Z"/><path d="M9.52,178.11l.86-.59.21.26-.76.68Z"/><path d="M26.23,26.95l.67-1.19.27.14-.62,1.22Z"/><path d="M28.1,90.81l.55-.85.32.19-.52.88Z"/><path d="M3.15,133.35l.58.54-.22.27-.65-.48Z"/><path d="M13.48,93,13,92.89l.92-1.06L14,92l-.57,1.09Z"/><path d="M27.19,175.13l.71-.51.19.18-.6.62Z"/><path d="M29.73,173.62l-.74,1-.32-.36,1.07-.6Z"/><path d="M17,117.82c-.2.1-.39.24-.43.21a1.51,1.51,0,0,1-.27-.41c.13-.06.27-.19.38-.17S16.86,117.63,17,117.82Z"/><path d="M28.52,17.46l-.32.65L27.92,18l.35-.63Z"/><path d="M2.53,62l-.68-.49.21-.26.62.56Z"/><path d="M26.37,156.31l-.41.85-.35-.29.78-.54Z"/><path d="M25.23,74.72l-.23.59-.19-.05.11-.62Z"/><path d="M29.88,33.28l-.21.62-.2,0c0-.22.07-.43.1-.65Z"/><path d="M30,42.69l-.39.64-.24-.14.38-.64Z"/><path d="M24.16,121.91l-.55.66-.33-.34.74-.52Z"/><path d="M1.71,235.41c-2.21-1.6-2.22-2.51-.38-5.06a25.33,25.33,0,0,0,1.85-2.61,1.42,1.42,0,0,0-.4-1.32,3.07,3.07,0,0,1-1.24-4.51c.13-.2.27-.4.38-.61.65-1.29,2.24-2.59-.05-3.85-.09,0-.13-.2-.18-.31s-.07-.22-.24-.73a13.37,13.37,0,0,0,2,.67c.47.08,1.18.14,1.44-.13A61.8,61.8,0,0,1,9,212.35c2.49-2.12,5.22-4,7.84-5.92l.52.73-2.85,1.9,0-.14c-1.17,1-2.42,2-3.5,3.11-1.53,1.59-3,3.24-4.38,5-1.19,1.51-2.14,3.21-3.3,4.75s-.54,2.6.5,3.74a6.87,6.87,0,0,1,.6.91c1.76-1.88,3.39-3.83,5.24-5.54s3.83-3.05,5.75-4.57l.49.55-6.28,5.72-4,5C3.46,229.47,1.15,231.47,1.71,235.41Z"/><path d="M16.93,275.29c-.64.58-1.29,1.14-1.89,1.76-.43.43-.72,1-1.18,1.4a28.74,28.74,0,0,1-3.49,2.9,21.81,21.81,0,0,0-7.32,7.79c-1.15,2-.9,3.44.42,4.24l16.19-12,.56.64-5,4-.08-.12c-1.23.81-2.47,1.57-3.66,2.41a16.33,16.33,0,0,0-1.78,1.56c-2.48,2.35-5,4.68-7.38,7.11a7.66,7.66,0,0,0-1,2.31c-1.16-.15-1.53-.8-1.12-1.95A1.16,1.16,0,0,1,.36,297c1.65-1.59,2.45-3.1.16-4.92-.41-.33,0-1.64.39-2.52l.14.36c.45-.58,1.1-1.35,1.69-2.18a4.4,4.4,0,0,0,.8-1.56c.18-.9.13-1.86,1.52-1.46.1,0,.34-.2.43-.35a10.56,10.56,0,0,1,4.67-4.51c1.65-.78,2.92-2.33,4.44-3.43A12.74,12.74,0,0,1,17,275.31Z"/><path d="M16.48,292c-.67.65-1.33,1.31-2,1.93-.06.05-.36-.16-.27.16a30.39,30.39,0,0,0-3.77,2.09c-1.63,1.23-3.08,2.7-4.66,4a23.75,23.75,0,0,1-2.91,2c-.86.51-.94,3.17-.13,4.14a5,5,0,0,1,.58,1.36l-1.23-.28c-.11,0-.21-.14-.32-.15a11.39,11.39,0,0,1-1.46,0C.15,306.2-.2,305,.17,304.09A15.83,15.83,0,0,1,2.84,300a15.28,15.28,0,0,1,3.73-3.33c1.37-.79,3.15-.84,4.58-1.56a24.75,24.75,0,0,0,3.6-2.72c.4-.31.81-.6,1.21-.9Z"/><path d="M21.65,334.64a7.08,7.08,0,0,1-.93,1.11c-4.14,3-8.4,5.76-12.4,8.9a50.8,50.8,0,0,0-6.15,6.28c-.67.75-1.16,1.91.73,1.94.2,0,.39.19.55.73-1-.07-2.31.22-2.91-.31a1.79,1.79,0,0,1,.31-2.8c.59-.48.75-1.49,1.34-2,2.67-2.35,5.39-4.67,8.17-6.88a72.65,72.65,0,0,1,6.21-4.45A54.08,54.08,0,0,1,21.65,334.64Z"/><path d="M36,222.13l.86-.53a3.85,3.85,0,0,1,1.23,5c-.64,1.44-.93,3.19-1.95,4.26-1.77,1.85-2.48,4.54-5.21,5.7-2,.86-3.62,2.66-5.47,4a19.21,19.21,0,0,1-2.71,1.28A8.26,8.26,0,0,1,24,240.06c1.45-1.05,3-2,4.44-3,.56-.41.92-1.1,1.47-1.54s1.42-.92,2.13-1.39a1.64,1.64,0,0,0,.52-.49c1.53-2.68,3.13-5.32,4.49-8.08.28-.57-.3-1.59-.54-2.39a6.09,6.09,0,0,0-.52-1Z"/><path d="M12.91,191.7c-2.54,2.24-5.32,4.27-7.54,6.79s-4.46,5.2-3.33,9a1.52,1.52,0,0,1-2-1.7,14.56,14.56,0,0,1,.9-4.37,18.19,18.19,0,0,1,3-3.68c1.12-1.25,2.29-2.45,3-3.2l5.42-3.71.59.85Z"/><path d="M13.5,266.61l4.95-3.49.54.58c-.59.4-1.22.75-1.76,1.2-3.16,2.62-6.42,5.14-9.4,7.95a34.38,34.38,0,0,0-4.79,6c-1,1.45-1.65,3.17-.71,5,.06.13-.75.69-1.15,1l-.43-.41.49-1.65c-1.71.24-1.25-.85-.87-1.76a21.24,21.24,0,0,1,5.33-7.65c1.78-1.64,3.35-3.52,5.12-5.17a14.94,14.94,0,0,1,2.71-1.64Z"/><path d="M17.2,308.54c-4.29,3.63-9.55,5.93-13.52,10.71-.17,1.81-3.82,3.16-2,6.29A2,2,0,0,1,0,323.09a10.42,10.42,0,0,1,5.36-7.75c3.18-1.95,6.34-3.92,9.53-5.83A17.08,17.08,0,0,1,17.2,308.54Z"/><path d="M1.48,271l1.13-.33c.1.87.22,1.71.28,2.56a4.09,4.09,0,0,1-.12.89c-.44-.11-1-.08-1.29-.35a3.62,3.62,0,0,1-.69-5.15A84.42,84.42,0,0,1,7.12,262c1.72-1.63,3.6-3.1,5.47-4.57,1-.8,2.15-1.43,3.24-2.15l.27.39c-2.7,2.25-5.56,4.35-8.07,6.8S2.77,267.22,1.48,271Z"/><path d="M5.86,234.06l.35.57,2-3.1.35.43,4.09-4.13c.35,1.87-.4,2.73-1.84,3.41-.76.36-1.13,1.53-1.73,2.28a10.12,10.12,0,0,1-1.86,2c-.65.46-1.52.59-2,1.1l-2.11,3.27c-.15.23-.33.45-.5.67a2.65,2.65,0,0,0,.14,3.74c.21.23.22.64.42,1.27-1.13-.78-2-1.31-2.74-1.93-.23-.19-.48-.74-.37-.92q1.77-2.93,3.68-5.78C4.35,236,5.09,235.1,5.86,234.06Z"/><path d="M28.74,321.36l5-6.68a11,11,0,0,0,1.78-2.45,16.14,16.14,0,0,0,.49-3.51c2.35.26,3.38,1.89,1.78,4.19a49,49,0,0,1-5.45,5.88c-.71.73-1.53,1.36-2.31,2-.35.3-.74.55-1.12.82Z"/><path d="M1.15,336c-1.23-.3-1.36-1-.92-2a16.28,16.28,0,0,1,7.2-7.63c.83-.47,1.51-1.2,2.31-1.74,3.25-2.17,6.53-4.32,9.79-6.48l.31.44c-1.22.88-2.4,1.8-3.65,2.64a76.83,76.83,0,0,0-12.3,9.64A10.62,10.62,0,0,0,1.15,336Z"/><path d="M27.16,255.91c1.13-1.25,2.29-2.48,3.39-3.77.56-.65,1-1.4,1.48-2.1,1.43-2,3-4,4.24-6.12.38-.63,0-1.7,0-2.57,0-.26,0-.72.07-.73a3,3,0,0,1,1.45-.08c.32.1.76.66.71.92a22.73,22.73,0,0,1-1,2.9c-1.85,4.94-5.67,8.29-9.47,11.65a2,2,0,0,1-.63.24Z"/><path d="M27.16,247.69c1.21-1.35,2.52-2.62,3.6-4.07,2.07-2.79,4-5.67,6-8.55.22-.32.09-.86.19-1.28s.3-1,.45-1.42c.41.57,1.26,1.27,1.14,1.68a15.61,15.61,0,0,1-2,5,69.22,69.22,0,0,1-5.62,6.2,23.51,23.51,0,0,1-2.5,2.3c-.28.22-.81.12-1.22.16Z"/><path d="M27.47,340.88a4.63,4.63,0,0,1,.56-.95c2.74-2.83,5.6-5.56,8.19-8.52.53-.61.1-2.06.11-3.13a2,2,0,0,1,1.89,3.16c-.65,1.3-1.31,2.6-2.08,3.82-.16.26-.82.22-1,.26a9.33,9.33,0,0,1-1,1.43c-.19.19-.61.14-.8.17-1.29,2-3.74,2.55-5.42,4.06Z"/><path d="M34.08,281.16c1.23-.13,2-1.89,3.65-.68,1.76,1.33.1,2.31-.27,3a31.77,31.77,0,0,1-11.27,11.6.26.26,0,0,1-.15,0,29.22,29.22,0,0,1,3.29-3.43A20.46,20.46,0,0,0,36,282.21c.08-.2-.26-.63-.5-.85s-.46,0-.7,0S34.3,281.21,34.08,281.16Z"/><path d="M29.44,301.39c.87-.91,1.75-1.76,2.55-2.68,1.23-1.42,2.39-2.91,3.6-4.35s1.67-2.91.75-4.67c-.08-.16,0-.59.11-.63a1,1,0,0,1,.75.06A3.29,3.29,0,0,1,38.26,293a67.32,67.32,0,0,1-3.87,6.29,12,12,0,0,1-3.46,2.54C30.66,302,30.06,301.6,29.44,301.39Zm3.41-1.68-.34-.17c-.1.28-.19.56-.28.84,0,0,.11.08.2.14Z"/><path d="M16.55,329.13c-2.18,1.78-4.45,3.46-6.52,5.38-2.86,2.65-5.66,5.38-8.26,8.28-.61.68-.32,2.16-.44,3.3a2.19,2.19,0,0,1-1.28-2.51c.57-2.34,2.51-3.57,4-5.15a17.15,17.15,0,0,1,1.72-1.62c2.42-1.89,4.86-3.76,7.3-5.62,1.06-.81,2.14-1.58,3.21-2.37Z"/><path d="M1.69,317.52c-.53-.3-1.51-.58-1.52-.9C.1,315.05-.3,313,.48,312a34.13,34.13,0,0,1,9.75-9,31.55,31.55,0,0,0,2.69-2l.33.39c-1.49,1.3-3,2.54-4.45,3.92-2.44,2.4-4.91,4.79-7.15,7.37C.34,314.13.6,315.57,1.69,317.52Z"/><path d="M1.15,253.25c1.64-1.13,2.27-.5,2.52,2-1.16-.74-2.8-1.22-3.36-2.27a2.9,2.9,0,0,1,1.28-3.85c.23-.14.31-.5.51-.72.72-.8,1.52-1.55,2.17-2.4.37-.49.4-1.23.77-1.72,1.22-1.58,2.54-3.1,3.81-4.64l.55.37c-.92,1.38-1.84,2.77-2.77,4.15C4.71,247,2.19,249.43,1.15,253.25Zm5-9.6.28.3.6-.63-.2-.22Z"/><path d="M0,262.94c.53-1.13.92-2.13,1.44-3.06,1-1.8,2-3.58,3.1-5.32a14.59,14.59,0,0,1,1.71-2c1-1.06,1.93-2.14,3-3.14.26-.25.79-.21,1.2-.31,0,.35.05.82-.14,1-1.18,1.32-2.46,2.55-3.63,3.88-2.2,2.49-3.5,5.52-4.9,8.47a.85.85,0,0,0-.05.57,10.84,10.84,0,0,0,.47,1.07,4,4,0,0,1-1.32-.24C.49,263.74.28,263.29,0,262.94Z"/><path d="M28.58,330.23c1.56-1.67,3.18-3.29,4.65-5,1.29-1.52,2.4-3.19,3.57-4.77l-1.47-1.32.3-.55a12.09,12.09,0,0,1,2.81,1.53c.26.24-.08,1.59-.53,2.06-2.71,2.77-5.53,5.45-8.34,8.12-.17.16-.66,0-1,0Z"/><path d="M14.42,200.59a50.24,50.24,0,0,0-4.05,3.67c-2.82,3.22-5.56,6.51-8.25,9.84a14.17,14.17,0,0,0-1,2.29c-.12.23-.6.27-.91.4-.06-.35-.31-.81-.17-1a76.25,76.25,0,0,1,5.54-8.29C7.88,204.77,10.38,202.1,14.42,200.59Z"/><path d="M37,178.86c1,.23,1.51.79,1.51,2.22,0,4.74-4,6.15-6.87,8.49a11.33,11.33,0,0,1-1.81,1l-.58-.71c1.12-.9,2.26-1.78,3.35-2.71,1.93-1.64,3.77-3.37,4.35-6A12.16,12.16,0,0,0,37,178.86Z"/><path d="M36.7,261.74l1.83-.46c-.13.64-.25,1.27-.4,1.9,0,.15-.25.3-.22.41.63,2.77-1.85,3.69-3.22,5.14-1.92,2-4.15,3.79-6.25,5.66a9.5,9.5,0,0,1-.89.62l.69-2,.18.24c.53-.48,1.08-.95,1.6-1.43,1.91-1.79,3.83-3.58,5.71-5.41a2.05,2.05,0,0,0,.47-1.09c.21-1.21.35-2.42.51-3.64Z"/><path d="M29.33,197.67c1.57-1.78,3.25-3.47,4.68-5.36s2.73-4.1,4.23-6.39c.1.62.4,1.23.23,1.66-.93,2.5-1.43,5.26-3.84,6.93-1.34.92-2.75,1.73-4.1,2.63a3.42,3.42,0,0,0-.67.89Z"/><path d="M30.64,347.53c1.11-1.24,2.3-2.41,3.31-3.73A20.83,20.83,0,0,0,36.3,340a12.37,12.37,0,0,0,.45-3.13c.65-.35,1.95.24,1.74,1.24-.37,1.8.09,4-1.6,5.34-2,1.52-4.18,2.75-6.29,4.1Z"/><path d="M35.41,222.12c-.3-.07-.73-.31-.87-.19-.87.7-1.68,1.49-2.52,2.24l-.47-.27a23.24,23.24,0,0,1,1.89-3.45c.61-.79,1.75-1.17,2.41-1.94a3.68,3.68,0,0,0,.58-4A13.34,13.34,0,0,1,36,213c.24-.06.57-.24.72-.15.67.42,1.89,1,1.83,1.38-.35,2.08-.36,4.41-2.51,5.72-.13.08-.4-.07-.49-.09,0,.75-.09,1.52-.14,2.29Zm-.51-2.31-.2,0,.22,1,.26-.08Z"/><path d="M29.5,206.38l3.84-4,.27.24c.84-2,1.66-4,2.56-6,.11-.25.63-.33,1-.49l.23.4.45-1.39.49,0c.09.82.19,1.65.23,2.47a10.14,10.14,0,0,1-1.13.18c0,.19,0,.59,0,1s.14.65,0,.79a50.68,50.68,0,0,1-3.5,3.9c-1.24,1.18-2.65,2.18-4,3.26Z"/><path d="M11.34,358.36c-1.28,1.11-2.53,2.25-3.83,3.33A34.16,34.16,0,0,0,0,370.83l.59-2.33L0,369l.32-2.18.3.72a32.39,32.39,0,0,1,2.92-3.7c1.94-1.87,4-3.58,6.14-5.27.37-.3,1.1-.16,1.67-.22Z"/><path d="M29.9,311.9c-.39-2.53,2-3,2.89-4.48,1.49-2.58,3.06-5.13,4.6-7.69.15-.25.35-.48.52-.73.22.24.63.49.61.72-.05.91.07,2-.42,2.67-2.29,2.89-4.76,5.64-7.16,8.43C30.66,311.16,30.33,311.46,29.9,311.9Z"/><path d="M34.35,213.78c-2.16-1-1.56,1.42-2.62,1.85-.84-1.33.33-2,.95-2.8a35.23,35.23,0,0,0,3.49-4.8c.79-1.54,1-3.38,1.53-5.42.3.77.89,1.52.82,2.21a12.64,12.64,0,0,1-3.79,8A2.93,2.93,0,0,0,34.35,213.78Z"/><path d="M38.53,253.31l-.26-.17A16.87,16.87,0,0,1,29.62,263c1.5-1.74,3-3.53,4.53-5.21s3.28-3.52,3-6L35,250.23C37.22,250,38.3,251.07,38.53,253.31Z"/><path d="M26.26,183.68a38.23,38.23,0,0,0,3.83-2.27c2.23-1.69,4.39-3.47,6.48-5.32.48-.42.54-1.29.87-1.91.14-.26.47-.42.71-.62.13.32.45.74.35,1a8.7,8.7,0,0,1-1.66,2.93c-2.07,1.82-4.32,3.46-6.57,5.07a16.5,16.5,0,0,1-3,1.49,2.43,2.43,0,0,1-.93,0Z"/><path d="M6.31,355.67C4.83,358.45.59,359.39,1,363.52a1.17,1.17,0,0,0-.43-.15,2.1,2.1,0,0,0-.58.16C-.19,360.18,3.42,355.65,6.31,355.67Z"/><path d="M36,276.49c.13-.64.25-1.28.38-1.92.25-1.21.49-2.43.77-3.64a3.52,3.52,0,0,1,.38-.76,3.61,3.61,0,0,1-.81,5.71c-.16.12-.16.47-.23.71Z"/><path d="M34.54,280.79,36,279.36l.12.17.78-1.33.25.14,1.38-2.17c.08,2.29-1.07,3.91-2.7,4.35-.4.11-.78.27-1.17.42Z"/><path d="M10.95,248.49l0-1.3,2.31-.85.18.4-2.52,1.72Z"/><path d="M13.65,227l-1.53,2.34-.47-.28,1.27-2.47Z"/><path d="M5.91,353.76,4,355.43c-.4-1.44.4-2,1.89-1.65Z"/><path d="M9.46,358.38l2.61-2.62.42.49-3,2.11Z"/><path d="M9.9,238.38l-1.43,2C8.51,238.14,8.76,237.79,9.9,238.38Z"/><path d="M29.66,280.44l.11.15-1.6,1.34,0,0Z"/><path d="M17.23,214.31l-1.53,1.77-.51-.61,2.06-1.13Z"/><path d="M12.28,191c.45-1.81.45-1.81,1.68-1.27L12.27,191Z"/><path d="M1.26,371.41,0,370l.25-.2L1.77,371Z"/><path d="M27.69,198.4l-1.41,1.21-.28-.26,1.24-1.41Z"/><path d="M29.21,225.34l1-1.94.49.28-1.09,1.9Z"/><path d="M23.3,350.26l1.63-1,.21.29-1.5,1.21Z"/><path d="M22.67,314.28l1.77-1.46.26.3-1.77,1.47Z"/><path d="M25.48,247.32l-.71,1.29L24,247l1.52.3Z"/><path d="M10.93,248.46l-1.17.45.31-1.35.86.94Z"/><path d="M5.93,353.78l1.31-1.61.4.45-1.73,1.15Z"/><path d="M23.73,341.66l-1.23,1-.23-.25,1.11-1.15Z"/><path d="M19.61,212.08l1.21-.86.22.29-1.2.88Z"/><path d="M14.62,275.31l.37-1.54.58.24-1,1.29Z"/><path d="M28.17,281.93l-.59,1-.31-.1a4.33,4.33,0,0,1,.24-.95c0-.06.44.06.68.1Z"/><path d="M12.26,191l-1,.7,0,0c0-.45,0-.9,0-1.51l1,.82Z"/><path d="M12.56,236.12l-.47,1-.35-.15.42-1Z"/><path d="M38.53,261.73l-.71-1.67.54-.15.15,1.83Z"/><path d="M38,194l.54,1.28-.48.15q-.17-.7-.35-1.39Z"/><path d="M17.25,214.34c.07-.32.15-.63.22-.95l.34,0,.21.75-.79.19Z"/><path d="M24.62,200.49l-1,1.15-.24-.21,1-1.14Z"/><path d="M8.07,351.66l.86-.59.21.27-.76.68Z"/><path d="M24.79,200.5l.67-1.19.27.14-.62,1.22Z"/><path d="M26.66,264.37l.55-.85.32.19-.52.89Z"/><path d="M.29,306.91l.58.54-.22.27L0,307.24Z"/><path d="M12,266.59l-.52-.14.92-1.06.15.13L12,266.61Z"/><path d="M25.74,348.68l.71-.51.19.18L26,349Z"/><path d="M28.29,347.17l-.74,1-.31-.36,1.07-.6Z"/><path d="M15.57,291.37c-.2.1-.39.24-.43.21a1.46,1.46,0,0,1-.27-.41c.13-.06.27-.19.38-.17S15.42,291.19,15.57,291.37Z"/><path d="M27.08,191l-.32.65-.29-.15.35-.63Z"/><path d="M.68,235.52,0,235l.21-.26.62.56Z"/><path d="M24.93,329.86l-.41.85-.35-.29.78-.54Z"/><path d="M23.79,248.27l-.23.59-.19-.05.11-.62Z"/><path d="M28.44,206.84l-.21.62-.2,0c0-.22.07-.43.1-.65Z"/><path d="M28.57,216.25l-.39.64-.24-.14.38-.64Z"/><path d="M22.72,295.47l-.55.66-.33-.34.74-.52Z"/><path d="M1,31.17c-1.29,5.93,2.58,4.61,2.58,4.61Z"/><path d="M1.72,409.66c-2.21-1.6-2.22-2.51-.38-5.06A25,25,0,0,0,3.19,402a1.42,1.42,0,0,0-.4-1.32,3.06,3.06,0,0,1-1.24-4.51c.13-.2.27-.4.38-.61.65-1.29,2.24-2.59-.05-3.85-.09,0-.13-.2-.18-.31s-.07-.22-.24-.73a13.33,13.33,0,0,0,2,.67c.47.08,1.18.14,1.44-.13,1.43-1.49,2.59-3.27,4.15-4.6,2.49-2.12,5.22-4,7.84-5.92l.52.73-2.85,1.9,0-.14c-1.17,1-2.42,2-3.5,3.11-1.53,1.59-3,3.24-4.38,5-1.19,1.51-2.14,3.21-3.3,4.75s-.54,2.6.5,3.74a7.07,7.07,0,0,1,.6.91c1.76-1.88,3.38-3.83,5.23-5.54s3.83-3.05,5.75-4.57l.49.55-6.28,5.72-4,5C3.46,403.73,1.15,405.73,1.72,409.66Z"/><path d="M16.93,449.55c-.64.58-1.29,1.14-1.9,1.76-.43.43-.72,1-1.17,1.4a28.46,28.46,0,0,1-3.49,2.9,21.81,21.81,0,0,0-7.32,7.79c-1.15,2-.9,3.44.42,4.24l16.18-12,.56.64-5,4-.09-.12c-1.23.81-2.47,1.57-3.66,2.41a16.53,16.53,0,0,0-1.78,1.56c-2.48,2.35-5,4.68-7.38,7.11a7.66,7.66,0,0,0-1,2.31c-1.16-.15-1.53-.8-1.12-1.95a1.21,1.21,0,0,1,.19-.44c1.65-1.59,2.45-3.1.16-4.92-.41-.33,0-1.64.39-2.52l.14.36c.45-.58,1.1-1.35,1.68-2.18a4.38,4.38,0,0,0,.8-1.56c.18-.9.13-1.86,1.52-1.46.1,0,.34-.2.43-.35a10.57,10.57,0,0,1,4.67-4.51c1.65-.78,2.92-2.33,4.44-3.43A12.93,12.93,0,0,1,17,449.56Z"/><path d="M16.48,466.25c-.67.65-1.33,1.31-2,1.93-.06.05-.36-.16-.27.16a30.54,30.54,0,0,0-3.77,2.09c-1.64,1.22-3.08,2.7-4.66,4a23.71,23.71,0,0,1-2.91,2c-.86.51-.94,3.17-.13,4.14A5.08,5.08,0,0,1,3.3,482l-1.23-.28c-.11,0-.21-.15-.32-.15a11.15,11.15,0,0,1-1.46,0c-.14-1.06-.49-2.27-.11-3.16a15.75,15.75,0,0,1,2.67-4.11,15.22,15.22,0,0,1,3.72-3.32c1.37-.79,3.15-.84,4.58-1.56a24.61,24.61,0,0,0,3.6-2.72c.4-.31.81-.6,1.21-.9Z"/><path d="M21.65,508.9a7,7,0,0,1-.93,1.11c-4.14,3-8.4,5.76-12.4,8.9a50.72,50.72,0,0,0-6.15,6.28c-.67.75-1.16,1.91.73,1.94.2,0,.39.19.55.73-1-.07-2.31.22-2.91-.31a1.79,1.79,0,0,1,.31-2.8c.59-.48.75-1.49,1.34-2,2.67-2.35,5.39-4.67,8.17-6.88a72.1,72.1,0,0,1,6.2-4.45A54.15,54.15,0,0,1,21.65,508.9Z"/><path d="M36,396.39l.86-.53a3.85,3.85,0,0,1,1.23,5c-.64,1.44-.93,3.19-1.95,4.26-1.77,1.85-2.48,4.54-5.21,5.7-2,.86-3.62,2.66-5.47,4a19.21,19.21,0,0,1-2.71,1.28A8.26,8.26,0,0,1,24,414.32c1.45-1.05,3-2,4.44-3,.56-.41.92-1.1,1.47-1.54s1.42-.92,2.13-1.39a1.64,1.64,0,0,0,.52-.49c1.53-2.68,3.13-5.32,4.49-8.08.28-.57-.3-1.59-.54-2.39a6.09,6.09,0,0,0-.52-1Z"/><path d="M12.91,366c-2.54,2.24-5.32,4.27-7.54,6.79s-4.46,5.2-3.33,9a1.52,1.52,0,0,1-2-1.7,14.56,14.56,0,0,1,.9-4.37,18.2,18.2,0,0,1,3-3.68c1.12-1.25,2.29-2.45,3-3.2l5.42-3.71.59.85Z"/><path d="M13.5,440.86l4.95-3.49.54.58c-.59.4-1.22.75-1.76,1.2-3.16,2.62-6.42,5.14-9.4,7.94A34.43,34.43,0,0,0,3,453c-1,1.45-1.65,3.17-.71,5,.06.13-.75.69-1.15,1l-.43-.41.49-1.65c-1.71.24-1.25-.85-.87-1.76a21.24,21.24,0,0,1,5.33-7.65c1.78-1.64,3.35-3.52,5.12-5.17a15,15,0,0,1,2.71-1.64Z"/><path d="M17.2,482.79c-4.29,3.63-9.55,5.93-13.52,10.71-.17,1.81-3.82,3.16-2,6.29A2,2,0,0,1,0,497.35a10.42,10.42,0,0,1,5.36-7.75c3.18-1.95,6.34-3.92,9.53-5.84A16.69,16.69,0,0,1,17.2,482.79Z"/><path d="M1.49,445.25l1.13-.33c.1.87.22,1.71.28,2.55a4.09,4.09,0,0,1-.12.89c-.44-.11-1-.08-1.29-.35a3.62,3.62,0,0,1-.69-5.15,84.6,84.6,0,0,1,6.33-6.57c1.72-1.63,3.6-3.1,5.47-4.56,1-.8,2.15-1.43,3.24-2.15l.27.39c-2.7,2.25-5.56,4.35-8.07,6.8S2.77,441.48,1.49,445.25Z"/><path d="M5.86,408.31l.35.57,2-3.1.35.43,4.1-4.13c.35,1.87-.4,2.73-1.84,3.41C10,405.85,9.65,407,9,407.77a10.12,10.12,0,0,1-1.86,2c-.65.46-1.52.59-2,1.1l-2.11,3.27c-.15.23-.33.45-.5.67a2.65,2.65,0,0,0,.13,3.74c.21.23.22.64.42,1.27-1.13-.78-2-1.31-2.74-1.93-.23-.19-.48-.74-.37-.92q1.77-2.93,3.68-5.78C4.35,410.26,5.09,409.35,5.86,408.31Z"/><path d="M28.74,495.61l5-6.68a11,11,0,0,0,1.78-2.45A16.14,16.14,0,0,0,36,483c2.35.26,3.38,1.89,1.78,4.19A49,49,0,0,1,32.31,493c-.71.73-1.53,1.36-2.31,2-.35.3-.74.55-1.12.82Z"/><path d="M1.16,510.28c-1.23-.3-1.36-1-.92-2a16.27,16.27,0,0,1,7.2-7.63c.83-.47,1.51-1.21,2.31-1.74,3.25-2.18,6.53-4.32,9.79-6.48l.31.44c-1.21.88-2.4,1.8-3.64,2.64a76.84,76.84,0,0,0-12.3,9.64A10.62,10.62,0,0,0,1.16,510.28Z"/><path d="M27.16,430.16c1.13-1.25,2.29-2.48,3.39-3.77.56-.65,1-1.4,1.48-2.1,1.43-2,3-4,4.24-6.12.38-.63,0-1.7,0-2.57,0-.26,0-.72.07-.73a3,3,0,0,1,1.45-.08c.32.1.76.66.71.92a22.73,22.73,0,0,1-1,2.9c-1.85,4.94-5.67,8.29-9.47,11.65a2,2,0,0,1-.63.24Z"/><path d="M27.16,421.94c1.21-1.35,2.52-2.62,3.6-4.07,2.07-2.79,4-5.67,6-8.55.22-.32.09-.86.19-1.28s.3-1,.45-1.42c.41.57,1.26,1.27,1.14,1.68a15.61,15.61,0,0,1-2,5,69.22,69.22,0,0,1-5.62,6.2,23.51,23.51,0,0,1-2.5,2.3c-.28.22-.81.12-1.22.16Z"/><path d="M27.47,515.14a4.63,4.63,0,0,1,.56-.95c2.74-2.83,5.6-5.56,8.19-8.52.53-.61.1-2.06.11-3.13a2,2,0,0,1,1.89,3.16,43.45,43.45,0,0,1-2.08,3.82c-.16.26-.82.22-1,.26a9.33,9.33,0,0,1-1,1.43c-.19.19-.61.14-.8.17-1.29,2-3.74,2.54-5.42,4.06Z"/><path d="M34.08,455.42c1.23-.13,2-1.89,3.65-.68,1.76,1.33.1,2.31-.27,3a31.79,31.79,0,0,1-11.27,11.6.25.25,0,0,1-.15,0,29.22,29.22,0,0,1,3.29-3.43A20.46,20.46,0,0,0,36,456.47c.08-.2-.26-.63-.5-.85s-.46,0-.7,0S34.3,455.47,34.08,455.42Z"/><path d="M29.44,475.65c.87-.91,1.75-1.76,2.55-2.68,1.23-1.42,2.39-2.91,3.6-4.35s1.67-2.91.75-4.67c-.08-.16,0-.59.11-.63a1,1,0,0,1,.75.06,3.29,3.29,0,0,1,1.05,3.89,67.19,67.19,0,0,1-3.87,6.29,12,12,0,0,1-3.46,2.53C30.66,476.26,30.06,475.85,29.44,475.65ZM32.85,474l-.34-.17c-.1.28-.19.56-.28.84,0,0,.11.08.2.14Z"/><path d="M16.56,503.39c-2.18,1.78-4.46,3.47-6.52,5.38-2.86,2.65-5.66,5.38-8.26,8.28-.61.68-.32,2.16-.44,3.3a2.19,2.19,0,0,1-1.28-2.51c.57-2.34,2.51-3.57,4-5.15a17.27,17.27,0,0,1,1.72-1.62c2.42-1.89,4.86-3.76,7.3-5.62,1.06-.81,2.14-1.58,3.21-2.37Z"/><path d="M1.69,491.77c-.53-.3-1.51-.58-1.52-.9-.07-1.56-.47-3.57.31-4.63a34.11,34.11,0,0,1,9.75-9,31.54,31.54,0,0,0,2.69-2l.33.4c-1.49,1.3-3,2.54-4.45,3.92-2.44,2.4-4.91,4.79-7.15,7.37C.34,488.39.6,489.82,1.69,491.77Z"/><path d="M1.15,427.5c1.64-1.13,2.27-.5,2.52,2-1.16-.74-2.8-1.22-3.36-2.27a2.9,2.9,0,0,1,1.28-3.85c.23-.14.31-.5.51-.72.72-.81,1.52-1.55,2.17-2.4.37-.49.4-1.23.77-1.72,1.23-1.58,2.54-3.1,3.81-4.64l.55.37c-.92,1.38-1.84,2.77-2.77,4.15C4.71,421.21,2.19,423.68,1.15,427.5Zm5-9.6.28.3.6-.63-.2-.22Z"/><path d="M0,437.19c.53-1.13.93-2.13,1.44-3.06,1-1.8,2-3.58,3.1-5.31a14.59,14.59,0,0,1,1.71-2c1-1.06,1.93-2.14,3-3.14.26-.25.79-.21,1.2-.31,0,.35.05.82-.14,1-1.18,1.32-2.46,2.55-3.63,3.88-2.2,2.49-3.5,5.52-4.9,8.47a.85.85,0,0,0-.05.57,10.74,10.74,0,0,0,.47,1.07,4,4,0,0,1-1.32-.24C.49,438,.29,437.54,0,437.19Z"/><path d="M28.58,504.49c1.56-1.67,3.18-3.29,4.65-5,1.29-1.53,2.4-3.19,3.57-4.78l-1.47-1.32.3-.55a12.05,12.05,0,0,1,2.81,1.53c.26.24-.08,1.59-.53,2.06-2.71,2.78-5.53,5.45-8.34,8.11-.17.16-.66,0-1,0Z"/><path d="M14.43,374.85a50,50,0,0,0-4.05,3.67c-2.82,3.22-5.56,6.51-8.25,9.84a14.17,14.17,0,0,0-1,2.29c-.12.23-.6.27-.91.4-.07-.35-.31-.81-.17-1a76.4,76.4,0,0,1,5.54-8.29C7.88,379,10.38,376.36,14.43,374.85Z"/><path d="M37,353.12c1,.23,1.51.79,1.51,2.22,0,4.74-4,6.15-6.87,8.49a11.33,11.33,0,0,1-1.81,1l-.58-.7c1.12-.9,2.26-1.78,3.35-2.71,1.93-1.64,3.77-3.37,4.35-6A12.16,12.16,0,0,0,37,353.12Z"/><path d="M36.7,436l1.83-.46c-.13.64-.25,1.27-.4,1.9,0,.15-.25.3-.22.41.63,2.77-1.85,3.69-3.22,5.15-1.92,2-4.15,3.79-6.25,5.65a9.5,9.5,0,0,1-.89.62l.69-2,.18.24c.53-.48,1.08-.95,1.6-1.44,1.91-1.79,3.83-3.58,5.71-5.4a2.05,2.05,0,0,0,.47-1.09c.21-1.2.35-2.42.51-3.64Z"/><path d="M29.33,371.92c1.57-1.78,3.25-3.47,4.68-5.36s2.73-4.1,4.23-6.39c.1.62.4,1.23.23,1.66-.93,2.5-1.43,5.27-3.84,6.93-1.34.92-2.75,1.73-4.1,2.63a3.42,3.42,0,0,0-.67.89Z"/><path d="M30.64,521.79c1.11-1.24,2.3-2.41,3.31-3.73a20.86,20.86,0,0,0,2.35-3.83,12.37,12.37,0,0,0,.45-3.13c.65-.35,1.95.24,1.74,1.24-.37,1.79.09,4-1.6,5.34-2,1.52-4.18,2.75-6.29,4.1Z"/><path d="M35.41,396.38c-.3-.07-.73-.31-.87-.19-.87.7-1.68,1.49-2.52,2.24l-.47-.27a23.24,23.24,0,0,1,1.89-3.45c.61-.79,1.75-1.17,2.41-1.94a3.68,3.68,0,0,0,.58-4,13.34,13.34,0,0,1-.44-1.5c.24-.06.57-.24.72-.15.67.42,1.89,1,1.83,1.38-.35,2.08-.36,4.41-2.51,5.72-.13.08-.4-.07-.49-.09,0,.75-.09,1.52-.14,2.29Zm-.51-2.31-.2,0,.22,1,.26-.08Z"/><path d="M29.5,380.63l3.84-4,.27.24c.84-2,1.66-4,2.56-6,.11-.25.63-.33,1-.49l.23.4.45-1.39.49,0c.09.82.19,1.65.23,2.47a10.14,10.14,0,0,1-1.13.18c0,.19,0,.58,0,1s.14.64,0,.8a50.68,50.68,0,0,1-3.5,3.9c-1.24,1.18-2.65,2.18-4,3.26Z"/><path d="M11.34,532.62c-1.28,1.11-2.53,2.25-3.84,3.33A34.17,34.17,0,0,0,0,545.08l.59-2.33-.62.54.32-2.18.3.72a32.47,32.47,0,0,1,2.92-3.7c1.94-1.87,4-3.58,6.14-5.27.37-.3,1.1-.16,1.66-.22Z"/><path d="M29.9,486.16c-.39-2.53,2-3,2.89-4.47,1.49-2.59,3.06-5.13,4.6-7.69.15-.25.35-.48.52-.73.22.24.63.49.61.72-.05.91.07,2-.42,2.67-2.29,2.89-4.76,5.64-7.16,8.43C30.66,485.42,30.33,485.71,29.9,486.16Z"/><path d="M34.35,388c-2.16-1-1.56,1.42-2.62,1.85-.84-1.33.33-2,.95-2.8a35.23,35.23,0,0,0,3.49-4.8c.79-1.54,1-3.38,1.53-5.42.3.77.89,1.52.82,2.21a12.64,12.64,0,0,1-3.79,8A2.94,2.94,0,0,0,34.35,388Z"/><path d="M38.53,427.56l-.26-.17a16.87,16.87,0,0,1-8.65,9.87c1.5-1.74,3-3.53,4.53-5.21s3.28-3.52,3-6L35,424.49C37.22,424.25,38.3,425.33,38.53,427.56Z"/><path d="M26.26,357.94a38.24,38.24,0,0,0,3.83-2.27c2.23-1.69,4.39-3.47,6.48-5.32.48-.42.54-1.29.87-1.91.14-.26.47-.42.71-.62.13.33.45.74.35,1a8.67,8.67,0,0,1-1.66,2.93c-2.07,1.82-4.32,3.46-6.57,5.07a16.51,16.51,0,0,1-3,1.49,2.43,2.43,0,0,1-.93,0Z"/><path d="M6.31,529.92C4.83,532.7.59,533.64,1,537.78a1.21,1.21,0,0,0-.43-.15,2,2,0,0,0-.58.16C-.19,534.44,3.42,529.9,6.31,529.92Z"/><path d="M36,450.75c.13-.64.25-1.28.38-1.92.25-1.21.49-2.43.77-3.64a3.52,3.52,0,0,1,.38-.76,3.61,3.61,0,0,1-.81,5.71c-.16.12-.16.47-.23.71Z"/><path d="M34.54,455,36,453.61l.12.17.78-1.33.25.15,1.38-2.17c.08,2.29-1.07,3.91-2.7,4.35-.4.11-.78.27-1.17.42Z"/><path d="M12.39,422.74l0-1.3,2.31-.85.18.4-2.52,1.72Z"/><path d="M15.09,401.21l-1.53,2.34-.47-.28,1.27-2.47Z"/><path d="M7.35,528l-1.86,1.66c-.4-1.44.39-2,1.88-1.65Z"/><path d="M10.91,532.63l2.6-2.62.42.49-3,2.11Z"/><path d="M11.34,412.63l-1.43,2C10,412.4,10.2,412,11.34,412.63Z"/><path d="M31.1,454.69l.11.15-1.6,1.34v0Z"/><path d="M18.67,388.57l-1.53,1.77-.51-.61,2.06-1.13Z"/><path d="M13.72,365.28c.45-1.81.45-1.81,1.68-1.27l-1.7,1.25Z"/><path d="M1.26,545.66,0,544.25l.25-.2,1.51,1.16Z"/><path d="M29.13,372.66l-1.41,1.21-.28-.26,1.24-1.41Z"/><path d="M30.65,399.6l1-1.94.49.28L31,399.84Z"/><path d="M24.74,524.51l1.63-1,.21.29L25.08,525Z"/><path d="M24.11,488.53l1.77-1.46.26.3-1.77,1.47Z"/><path d="M26.92,421.57l-.71,1.29-.8-1.56,1.53.3Z"/><path d="M12.38,422.71l-1.17.45.32-1.35.86.94Z"/><path d="M7.37,528l1.31-1.61.4.45L7.35,528Z"/><path d="M25.18,515.92l-1.23,1-.24-.25,1.11-1.15Z"/><path d="M21.06,386.34l1.21-.86.22.29-1.2.88Z"/><path d="M16.07,449.56l.37-1.54.58.24-1,1.29Z"/><path d="M29.61,456.19l-.59,1-.31-.1a4.39,4.39,0,0,1,.24-.95c0-.06.44.06.68.1Z"/><path d="M13.71,365.26l-1,.7,0,0c0-.45,0-.89,0-1.51l1,.82Z"/><path d="M14,410.37l-.47,1-.35-.15.42-1Z"/><path d="M38.53,436l-.71-1.67.54-.15.15,1.83Z"/><path d="M38,368.26l.54,1.28-.48.15q-.17-.7-.35-1.39Z"/><path d="M18.69,388.59c.07-.32.15-.63.22-.95l.34,0c.07.25.15.5.21.75l-.79.19Z"/><path d="M26.06,374.75l-1,1.14-.24-.21,1-1.14Z"/><path d="M9.52,525.92l.86-.59.21.26-.76.68Z"/><path d="M26.23,374.76l.67-1.19.27.14-.62,1.22Z"/><path d="M28.1,438.62l.55-.85L29,438l-.52.89Z"/><path d="M3.15,481.16l.58.54-.22.27-.65-.48Z"/><path d="M13.48,440.84,13,440.7l.92-1.06.15.13-.57,1.09Z"/><path d="M27.19,522.94l.71-.51.19.18-.6.62Z"/><path d="M29.73,521.43l-.74,1-.32-.36,1.07-.6Z"/><path d="M17,465.63c-.2.1-.39.25-.43.21a1.52,1.52,0,0,1-.27-.41c.13-.06.27-.19.38-.17S16.86,465.44,17,465.63Z"/><path d="M28.52,365.27l-.32.65-.29-.15.35-.63Z"/><path d="M2.53,409.77l-.68-.49.21-.26.62.56Z"/><path d="M26.37,504.12,26,505l-.35-.29.78-.54Z"/><path d="M25.23,422.53l-.23.59-.19-.05.11-.62Z"/><path d="M29.88,381.09l-.21.62-.2,0c0-.22.07-.43.1-.65Z"/><path d="M30,390.5l-.39.64-.24-.14.38-.64Z"/><path d="M24.16,469.72l-.55.66-.33-.34.74-.52Z"/><path d="M1.71,583.22c-2.21-1.6-2.22-2.51-.38-5.06a25.21,25.21,0,0,0,1.85-2.61,1.41,1.41,0,0,0-.4-1.32,3.07,3.07,0,0,1-1.24-4.51c.13-.21.27-.4.38-.61.65-1.29,2.24-2.59-.05-3.84-.09,0-.13-.2-.18-.31s-.07-.22-.24-.73a13.51,13.51,0,0,0,2,.67c.47.08,1.18.14,1.44-.13,1.43-1.49,2.59-3.27,4.15-4.6,2.49-2.12,5.22-4,7.84-5.92l.52.73-2.85,1.9,0-.14c-1.17,1-2.42,2-3.5,3.11-1.53,1.59-3,3.24-4.38,5-1.19,1.51-2.14,3.21-3.3,4.75s-.54,2.6.5,3.74a6.8,6.8,0,0,1,.6.91c1.76-1.88,3.39-3.83,5.24-5.54s3.83-3.05,5.75-4.56l.49.55-6.28,5.72-4,5C3.46,577.28,1.15,579.28,1.71,583.22Z"/><path d="M16.93,623.1c-.64.58-1.29,1.15-1.89,1.76-.43.43-.72,1-1.18,1.4a28.74,28.74,0,0,1-3.49,2.9A21.79,21.79,0,0,0,3.06,637c-1.15,2-.9,3.44.42,4.24l16.19-12,.56.64-5,4-.08-.12c-1.23.81-2.47,1.57-3.66,2.41a16.33,16.33,0,0,0-1.78,1.56c-2.48,2.35-5,4.68-7.38,7.1a7.68,7.68,0,0,0-1,2.31C.13,647-.25,646.35.17,645.2a1.17,1.17,0,0,1,.19-.44c1.65-1.59,2.45-3.1.16-4.92-.41-.33,0-1.64.39-2.53l.14.36c.45-.58,1.1-1.35,1.69-2.18a4.42,4.42,0,0,0,.8-1.56c.18-.9.13-1.86,1.52-1.46.1,0,.34-.2.43-.35a10.56,10.56,0,0,1,4.67-4.51c1.65-.78,2.92-2.33,4.44-3.43A12.81,12.81,0,0,1,17,623.11Z"/><path d="M16.48,639.8c-.67.65-1.33,1.31-2,1.93-.06.05-.36-.16-.27.16A30.38,30.38,0,0,0,10.42,644c-1.63,1.23-3.08,2.7-4.66,4a23.64,23.64,0,0,1-2.91,2c-.86.51-.94,3.17-.13,4.14a5,5,0,0,1,.58,1.36l-1.23-.28c-.11,0-.21-.15-.32-.15a11.66,11.66,0,0,1-1.46,0C.15,654-.2,652.79.17,651.9a15.81,15.81,0,0,1,2.67-4.11,15.28,15.28,0,0,1,3.73-3.33c1.37-.79,3.15-.84,4.58-1.56a24.75,24.75,0,0,0,3.6-2.72c.4-.31.81-.6,1.21-.9Z"/><path d="M21.65,682.45a7.06,7.06,0,0,1-.93,1.11c-4.14,3-8.4,5.76-12.4,8.9a50.79,50.79,0,0,0-6.15,6.28c-.67.75-1.16,1.91.73,1.94.2,0,.39.19.55.74-1-.07-2.31.22-2.91-.31a1.79,1.79,0,0,1,.31-2.8c.59-.48.75-1.49,1.34-2,2.67-2.35,5.39-4.66,8.17-6.88A72.67,72.67,0,0,1,16.56,685,54.08,54.08,0,0,1,21.65,682.45Z"/><path d="M36,569.94l.86-.53a3.85,3.85,0,0,1,1.23,5c-.64,1.44-.93,3.19-1.95,4.26-1.77,1.85-2.48,4.53-5.21,5.7-2,.86-3.62,2.66-5.47,4a19,19,0,0,1-2.71,1.28A8.22,8.22,0,0,1,24,587.87c1.45-1.06,3-2,4.44-3,.56-.41.92-1.1,1.47-1.54s1.42-.92,2.13-1.39a1.66,1.66,0,0,0,.52-.49c1.53-2.68,3.13-5.32,4.49-8.08.28-.57-.3-1.59-.54-2.39a6.06,6.06,0,0,0-.52-1Z"/><path d="M12.91,539.51c-2.54,2.24-5.32,4.27-7.54,6.78s-4.46,5.2-3.33,9a1.52,1.52,0,0,1-2-1.7,14.54,14.54,0,0,1,.9-4.37,18.22,18.22,0,0,1,3-3.68c1.12-1.25,2.29-2.45,3-3.2l5.42-3.71.59.85Z"/><path d="M13.5,614.42l4.95-3.49.54.58c-.59.4-1.22.75-1.76,1.2-3.16,2.62-6.42,5.14-9.4,7.94a34.38,34.38,0,0,0-4.79,6c-1,1.45-1.65,3.17-.71,5,.06.13-.75.69-1.15,1l-.43-.41.49-1.65c-1.71.24-1.25-.85-.87-1.76a21.24,21.24,0,0,1,5.33-7.65c1.78-1.64,3.35-3.52,5.12-5.17a14.88,14.88,0,0,1,2.71-1.64Z"/><path d="M17.2,656.35c-4.29,3.63-9.55,5.93-13.52,10.71-.17,1.81-3.82,3.16-2,6.29A2,2,0,0,1,0,670.9a10.42,10.42,0,0,1,5.36-7.75c3.18-1.95,6.34-3.92,9.53-5.84A17.23,17.23,0,0,1,17.2,656.35Z"/><path d="M1.48,618.8l1.13-.33c.1.87.22,1.71.28,2.56a4.11,4.11,0,0,1-.12.89c-.44-.11-1-.08-1.29-.35a3.62,3.62,0,0,1-.69-5.15,84.42,84.42,0,0,1,6.33-6.57c1.72-1.63,3.6-3.1,5.47-4.57,1-.8,2.15-1.43,3.24-2.15l.27.39c-2.7,2.25-5.56,4.35-8.07,6.8S2.77,615,1.48,618.8Z"/><path d="M5.86,581.87l.35.57,2-3.1.35.43,4.09-4.12c.35,1.87-.4,2.73-1.84,3.41-.76.36-1.13,1.53-1.73,2.28a10.15,10.15,0,0,1-1.86,2c-.65.46-1.52.59-2,1.1l-2.11,3.27c-.15.23-.33.45-.5.67a2.65,2.65,0,0,0,.14,3.74c.21.23.22.64.42,1.28-1.13-.78-2-1.31-2.74-1.93-.23-.19-.48-.74-.37-.92q1.77-2.93,3.68-5.78C4.35,583.82,5.09,582.9,5.86,581.87Z"/><path d="M28.74,669.17l5-6.68A11,11,0,0,0,35.48,660a16.13,16.13,0,0,0,.49-3.51c2.35.26,3.38,1.89,1.78,4.19a49,49,0,0,1-5.45,5.88c-.71.73-1.53,1.36-2.31,2-.35.3-.74.55-1.12.82Z"/><path d="M1.15,683.84c-1.23-.3-1.36-1-.92-2a16.28,16.28,0,0,1,7.2-7.63c.83-.47,1.51-1.21,2.31-1.74,3.25-2.18,6.53-4.32,9.79-6.48l.31.44c-1.22.88-2.4,1.8-3.65,2.64a76.88,76.88,0,0,0-12.3,9.64A10.64,10.64,0,0,0,1.15,683.84Z"/><path d="M27.16,603.72c1.13-1.25,2.29-2.48,3.39-3.77.56-.65,1-1.4,1.48-2.1,1.43-2,3-4,4.24-6.12.38-.63,0-1.7,0-2.57,0-.26,0-.72.07-.73a3,3,0,0,1,1.45-.08c.32.1.76.66.71.92a22.79,22.79,0,0,1-1,2.9c-1.85,4.94-5.67,8.29-9.47,11.65a2,2,0,0,1-.63.25Z"/><path d="M27.16,595.5c1.21-1.35,2.52-2.62,3.6-4.07,2.07-2.79,4-5.67,6-8.55.22-.32.09-.86.19-1.28s.3-1,.45-1.42c.41.57,1.26,1.27,1.14,1.68a15.62,15.62,0,0,1-2,5A69.33,69.33,0,0,1,30.86,593a23.51,23.51,0,0,1-2.5,2.3c-.28.22-.81.12-1.22.16Z"/><path d="M27.47,688.69a4.59,4.59,0,0,1,.56-.95c2.74-2.83,5.6-5.56,8.19-8.52.53-.61.1-2.06.11-3.13a2,2,0,0,1,1.89,3.16c-.65,1.3-1.31,2.59-2.08,3.82-.16.26-.82.22-1,.26a9.38,9.38,0,0,1-1,1.43c-.19.19-.61.14-.8.17-1.29,2-3.74,2.54-5.42,4.06Z"/><path d="M34.08,629c1.23-.13,2-1.9,3.65-.68,1.76,1.33.1,2.31-.27,3a31.78,31.78,0,0,1-11.27,11.6.26.26,0,0,1-.15,0,29.15,29.15,0,0,1,3.29-3.43A20.45,20.45,0,0,0,36,630c.08-.2-.26-.63-.5-.85s-.46,0-.7,0S34.3,629,34.08,629Z"/><path d="M29.44,649.2c.87-.91,1.75-1.76,2.55-2.68,1.23-1.42,2.39-2.91,3.6-4.35s1.67-2.91.75-4.67c-.08-.16,0-.59.11-.63a1,1,0,0,1,.75.06,3.29,3.29,0,0,1,1.05,3.89,67.45,67.45,0,0,1-3.87,6.29,12,12,0,0,1-3.46,2.53C30.66,649.81,30.06,649.41,29.44,649.2Zm3.41-1.68-.34-.17c-.1.28-.19.56-.28.84,0,0,.11.08.2.14Z"/><path d="M16.55,676.94c-2.18,1.78-4.45,3.47-6.52,5.38C7.18,685,4.38,687.7,1.78,690.6c-.61.68-.32,2.16-.44,3.3A2.19,2.19,0,0,1,.06,691.4c.57-2.34,2.51-3.57,4-5.15a17.17,17.17,0,0,1,1.72-1.62c2.42-1.89,4.86-3.76,7.3-5.62,1.06-.81,2.14-1.58,3.21-2.37Z"/><path d="M1.69,665.33c-.53-.3-1.51-.58-1.52-.9-.07-1.56-.47-3.57.31-4.63a34.11,34.11,0,0,1,9.75-9,31.54,31.54,0,0,0,2.69-2l.33.39c-1.49,1.3-3,2.54-4.45,3.92-2.44,2.4-4.91,4.79-7.15,7.37C.34,661.94.6,663.38,1.69,665.33Z"/><path d="M1.15,601.06c1.64-1.13,2.27-.5,2.52,2-1.16-.74-2.8-1.22-3.36-2.27a2.9,2.9,0,0,1,1.28-3.84c.23-.14.31-.5.51-.72.72-.8,1.52-1.55,2.17-2.4.37-.49.4-1.23.77-1.72,1.22-1.58,2.54-3.1,3.81-4.64l.55.37c-.92,1.38-1.84,2.77-2.77,4.15C4.71,594.76,2.19,597.24,1.15,601.06Zm5-9.6.28.3.6-.63-.2-.22Z"/><path d="M0,610.75c.53-1.13.92-2.12,1.44-3.06,1-1.79,2-3.58,3.1-5.31a14.59,14.59,0,0,1,1.71-2c1-1.06,1.93-2.14,3-3.14.26-.25.79-.21,1.2-.31,0,.35.05.82-.14,1-1.18,1.32-2.46,2.55-3.63,3.88-2.2,2.49-3.5,5.52-4.9,8.47a.85.85,0,0,0-.05.57A10.93,10.93,0,0,0,2.17,612a4,4,0,0,1-1.32-.24C.49,611.55.28,611.1,0,610.75Z"/><path d="M28.58,678c1.56-1.67,3.18-3.29,4.65-5,1.29-1.53,2.4-3.19,3.57-4.78l-1.47-1.32.3-.55a12.06,12.06,0,0,1,2.81,1.53c.26.24-.08,1.59-.53,2.06-2.71,2.78-5.53,5.45-8.34,8.12-.17.16-.66,0-1,0Z"/><path d="M14.42,548.4a50.24,50.24,0,0,0-4.05,3.67c-2.82,3.22-5.56,6.51-8.25,9.84a14.17,14.17,0,0,0-1,2.29c-.12.23-.6.27-.91.4-.06-.35-.31-.81-.17-1a76.14,76.14,0,0,1,5.54-8.29C7.88,552.58,10.38,549.91,14.42,548.4Z"/><path d="M37,526.67c1,.23,1.51.79,1.51,2.22,0,4.74-4,6.15-6.87,8.49a11.33,11.33,0,0,1-1.81,1l-.58-.71c1.12-.9,2.26-1.78,3.35-2.71,1.93-1.64,3.77-3.37,4.35-6A12.16,12.16,0,0,0,37,526.67Z"/><path d="M36.7,609.55l1.83-.46c-.13.64-.25,1.27-.4,1.9,0,.15-.25.29-.22.41.63,2.77-1.85,3.69-3.22,5.15-1.92,2-4.15,3.79-6.25,5.66a9.5,9.5,0,0,1-.89.62l.69-2,.18.24c.53-.48,1.08-.94,1.6-1.43,1.91-1.79,3.83-3.58,5.71-5.41a2.05,2.05,0,0,0,.47-1.09c.21-1.21.35-2.42.51-3.64Z"/><path d="M29.33,545.48c1.57-1.78,3.25-3.47,4.68-5.35s2.73-4.1,4.23-6.39c.1.62.4,1.23.23,1.66-.93,2.5-1.43,5.27-3.84,6.93-1.34.92-2.75,1.73-4.1,2.63a3.42,3.42,0,0,0-.67.89Z"/><path d="M30.64,695.34c1.11-1.24,2.3-2.41,3.31-3.73a20.83,20.83,0,0,0,2.35-3.83,12.36,12.36,0,0,0,.45-3.13c.65-.35,1.95.24,1.74,1.23-.37,1.8.09,4-1.6,5.34-2,1.52-4.18,2.75-6.29,4.1Z"/><path d="M35.41,569.93c-.3-.07-.73-.31-.87-.19-.87.7-1.68,1.49-2.52,2.24l-.47-.28a23.24,23.24,0,0,1,1.89-3.45c.61-.79,1.75-1.17,2.41-1.94a3.68,3.68,0,0,0,.58-4,13.4,13.4,0,0,1-.44-1.5c.24-.06.57-.24.72-.15.67.42,1.89,1,1.83,1.38-.35,2.08-.36,4.41-2.51,5.72-.13.08-.4-.07-.49-.09,0,.75-.09,1.52-.14,2.29Zm-.51-2.31-.2,0,.22,1,.26-.08Z"/><path d="M29.5,554.19l3.84-4,.27.24c.84-2,1.66-4,2.56-6,.11-.25.63-.33,1-.49l.23.41.45-1.39.49,0c.09.82.19,1.65.23,2.47a10.42,10.42,0,0,1-1.13.18c0,.19,0,.59,0,1s.14.65,0,.79a51.06,51.06,0,0,1-3.5,3.9c-1.24,1.18-2.65,2.18-4,3.26Z"/><path d="M11.34,706.17c-1.28,1.11-2.53,2.25-3.83,3.33A34.19,34.19,0,0,0,0,718.63l.59-2.33-.62.54.32-2.18.3.72a32.39,32.39,0,0,1,2.92-3.71c1.94-1.87,4-3.58,6.14-5.27.37-.3,1.1-.16,1.67-.22Z"/><path d="M29.9,659.71c-.39-2.53,2-3,2.89-4.47,1.49-2.59,3.06-5.13,4.6-7.69.15-.25.35-.48.52-.72.22.24.63.49.61.72-.05.91.07,2-.42,2.67-2.29,2.89-4.76,5.64-7.16,8.43C30.66,659,30.33,659.26,29.9,659.71Z"/><path d="M34.35,561.59c-2.16-1-1.56,1.43-2.62,1.85-.84-1.33.33-2,.95-2.8a35.24,35.24,0,0,0,3.49-4.8c.79-1.54,1-3.38,1.53-5.42.3.77.89,1.52.82,2.21a12.64,12.64,0,0,1-3.79,8A2.93,2.93,0,0,0,34.35,561.59Z"/><path d="M38.53,601.12l-.26-.17a16.86,16.86,0,0,1-8.65,9.87c1.5-1.74,3-3.53,4.53-5.21s3.28-3.52,3-6L35,598C37.22,597.8,38.3,598.88,38.53,601.12Z"/><path d="M26.26,531.49a38.23,38.23,0,0,0,3.83-2.28c2.23-1.69,4.39-3.47,6.48-5.32.48-.42.54-1.29.87-1.91.14-.26.47-.42.71-.62.13.33.45.74.35,1a8.7,8.7,0,0,1-1.66,2.93c-2.07,1.82-4.32,3.46-6.57,5.07a16.5,16.5,0,0,1-3,1.49,2.43,2.43,0,0,1-.93,0Z"/><path d="M6.31,703.48C4.83,706.25.59,707.2,1,711.33a1.21,1.21,0,0,0-.43-.15,2.13,2.13,0,0,0-.58.16C-.19,708,3.42,703.46,6.31,703.48Z"/><path d="M36,624.3c.13-.64.25-1.28.38-1.92.25-1.21.49-2.43.77-3.64a3.52,3.52,0,0,1,.38-.76,3.61,3.61,0,0,1-.81,5.71c-.16.12-.16.47-.23.71Z"/><path d="M34.54,628.6,36,627.17l.12.17.78-1.33.25.15L38.52,624c.08,2.29-1.07,3.91-2.7,4.35-.4.11-.78.28-1.17.42Z"/><path d="M10.95,596.3l0-1.3,2.31-.85.18.4-2.52,1.72Z"/><path d="M13.65,574.76l-1.53,2.34-.47-.28,1.27-2.47Z"/><path d="M5.91,701.57,4,703.23c-.4-1.44.4-2,1.89-1.65Z"/><path d="M9.46,706.19l2.61-2.62.42.49-3,2.11Z"/><path d="M9.9,586.19l-1.43,2C8.51,586,8.76,585.6,9.9,586.19Z"/><path d="M29.66,628.24l.11.15-1.6,1.34,0,0Z"/><path d="M17.23,562.12l-1.53,1.77-.51-.61,2.06-1.13Z"/><path d="M12.28,538.83c.45-1.81.45-1.81,1.68-1.27l-1.69,1.25Z"/><path d="M1.26,719.22,0,717.81l.25-.2,1.51,1.16Z"/><path d="M27.69,546.21l-1.41,1.21-.28-.26,1.24-1.41Z"/><path d="M29.21,573.15l1-1.94.49.28-1.09,1.9Z"/><path d="M23.3,698.07l1.63-1,.21.29-1.5,1.21Z"/><path d="M22.67,662.09l1.77-1.46.26.3-1.77,1.47Z"/><path d="M25.48,595.13l-.71,1.28-.8-1.56,1.52.3Z"/><path d="M10.93,596.27l-1.17.44.31-1.35.86.94Z"/><path d="M5.93,701.59,7.24,700l.4.44-1.73,1.15Z"/><path d="M23.73,689.47l-1.23,1-.23-.25,1.11-1.15Z"/><path d="M19.61,559.89l1.21-.86.22.29-1.2.88Z"/><path d="M14.62,623.12l.37-1.54.58.24-1,1.29Z"/><path d="M28.17,629.74l-.59,1-.31-.1a4.34,4.34,0,0,1,.24-.95c0-.06.44.06.68.1Z"/><path d="M12.26,538.81l-1,.7,0,0c0-.45,0-.9,0-1.51l1,.82Z"/><path d="M12.56,583.93l-.47,1-.35-.15.42-1Z"/><path d="M38.53,609.54l-.71-1.66.54-.15.15,1.83Z"/><path d="M38,541.81l.54,1.28-.48.15q-.17-.7-.35-1.39Z"/><path d="M17.25,562.14c.07-.32.15-.63.22-.95l.34,0,.21.75-.79.19Z"/><path d="M24.62,548.3l-1,1.15-.24-.21,1-1.14Z"/><path d="M8.07,699.47l.86-.59.21.27-.76.68Z"/><path d="M24.79,548.31l.67-1.19.27.15-.62,1.22Z"/><path d="M26.66,612.18l.55-.85.32.19-.52.89Z"/><path d="M.29,654.72l.58.54-.22.27L0,655Z"/><path d="M12,614.4l-.52-.14.92-1.06.15.13L12,614.41Z"/><path d="M25.74,696.49l.71-.51.19.18-.6.62Z"/><path d="M28.29,695l-.74,1-.31-.36,1.07-.6Z"/><path d="M15.57,639.18c-.2.1-.39.24-.43.21a1.47,1.47,0,0,1-.27-.41c.13-.06.27-.19.38-.17S15.42,639,15.57,639.18Z"/><path d="M27.08,538.82l-.32.65-.29-.15.35-.63Z"/><path d="M.68,583.33,0,582.84l.21-.26.62.56Z"/><path d="M24.93,677.67l-.41.85-.35-.29.78-.54Z"/><path d="M23.79,596.08l-.23.59-.19-.05.11-.62Z"/><path d="M28.44,554.64l-.21.62-.2,0c0-.22.07-.44.1-.65Z"/><path d="M28.57,564.06l-.39.64-.24-.14.38-.64Z"/><path d="M22.72,643.28l-.55.66-.33-.34.74-.52Z"/><path d="M1,379c-1.29,5.93,2.58,4.61,2.58,4.61Z"/><path d="M1.72,757.28c-2.21-1.6-2.22-2.51-.38-5.06a24.91,24.91,0,0,0,1.85-2.61,1.41,1.41,0,0,0-.4-1.32,3.06,3.06,0,0,1-1.24-4.51c.13-.2.27-.4.38-.61.65-1.29,2.24-2.59-.05-3.84-.09,0-.13-.2-.18-.31s-.07-.22-.24-.73a13.44,13.44,0,0,0,2,.67c.47.08,1.18.14,1.44-.13,1.43-1.49,2.59-3.27,4.15-4.6,2.49-2.12,5.22-4,7.84-5.92l.52.73-2.85,1.9,0-.14c-1.17,1-2.42,2-3.5,3.11-1.53,1.59-3,3.24-4.38,5-1.19,1.51-2.14,3.21-3.3,4.75s-.54,2.6.5,3.74a7.07,7.07,0,0,1,.6.91c1.76-1.88,3.38-3.83,5.23-5.54s3.83-3.05,5.75-4.57l.49.55-6.28,5.72-4,5C3.46,751.34,1.15,753.34,1.72,757.28Z"/><path d="M16.93,797.16c-.64.58-1.29,1.15-1.9,1.76-.43.43-.72,1-1.17,1.4a28.46,28.46,0,0,1-3.49,2.9A21.81,21.81,0,0,0,3.06,811c-1.15,2-.9,3.44.42,4.24l16.18-12,.56.64-5,4-.09-.12c-1.23.81-2.47,1.57-3.66,2.41a16.52,16.52,0,0,0-1.78,1.56c-2.48,2.35-5,4.68-7.38,7.1a7.66,7.66,0,0,0-1,2.31c-1.16-.15-1.53-.8-1.12-1.95a1.21,1.21,0,0,1,.19-.44c1.65-1.59,2.45-3.1.16-4.92-.41-.33,0-1.64.39-2.53l.14.36c.45-.58,1.1-1.35,1.68-2.18a4.38,4.38,0,0,0,.8-1.56c.18-.9.13-1.86,1.52-1.46.1,0,.34-.2.43-.35a10.57,10.57,0,0,1,4.67-4.51c1.65-.78,2.92-2.33,4.44-3.43A12.93,12.93,0,0,1,17,797.17Z"/><path d="M16.48,813.86c-.67.65-1.33,1.31-2,1.93-.06.05-.36-.16-.27.16A30.54,30.54,0,0,0,10.42,818c-1.64,1.22-3.08,2.7-4.66,4a23.71,23.71,0,0,1-2.91,2c-.86.51-.94,3.17-.13,4.14a5.08,5.08,0,0,1,.58,1.36l-1.23-.28c-.11,0-.21-.15-.32-.15a11.15,11.15,0,0,1-1.46,0C.15,828.07-.2,826.85.18,826a15.75,15.75,0,0,1,2.67-4.11,15.22,15.22,0,0,1,3.72-3.32c1.37-.79,3.15-.84,4.58-1.56a24.61,24.61,0,0,0,3.6-2.72c.4-.31.81-.6,1.21-.9Z"/><path d="M21.65,856.51a7,7,0,0,1-.93,1.11c-4.14,3-8.4,5.76-12.4,8.9a50.72,50.72,0,0,0-6.15,6.28c-.67.75-1.16,1.91.73,1.94.2,0,.39.19.55.73-1-.07-2.31.22-2.91-.31a1.79,1.79,0,0,1,.31-2.8c.59-.48.75-1.49,1.34-2,2.67-2.35,5.39-4.67,8.17-6.88a72.1,72.1,0,0,1,6.2-4.45A54.12,54.12,0,0,1,21.65,856.51Z"/><path d="M36,744l.86-.53a3.85,3.85,0,0,1,1.23,5c-.64,1.44-.93,3.19-1.95,4.26-1.77,1.85-2.48,4.53-5.21,5.7-2,.86-3.62,2.66-5.47,4a19.21,19.21,0,0,1-2.71,1.28A8.28,8.28,0,0,1,24,761.93c1.45-1.05,3-2,4.44-3,.56-.41.92-1.1,1.47-1.54s1.42-.92,2.13-1.39a1.63,1.63,0,0,0,.52-.49c1.53-2.68,3.13-5.32,4.49-8.08.28-.57-.3-1.59-.54-2.39a6.08,6.08,0,0,0-.52-1Z"/><path d="M12.91,713.57c-2.54,2.24-5.32,4.27-7.54,6.78s-4.46,5.2-3.33,9a1.52,1.52,0,0,1-2-1.7,14.56,14.56,0,0,1,.9-4.37,18.23,18.23,0,0,1,3-3.68c1.12-1.25,2.29-2.45,3-3.2l5.42-3.71.59.85Z"/><path d="M13.5,788.47,18.45,785l.54.58c-.59.4-1.22.75-1.76,1.2-3.16,2.62-6.42,5.14-9.4,7.94a34.43,34.43,0,0,0-4.79,6c-1,1.45-1.65,3.17-.71,5,.06.13-.75.69-1.15,1l-.43-.41.49-1.65c-1.71.24-1.25-.85-.87-1.76a21.24,21.24,0,0,1,5.33-7.66c1.78-1.64,3.35-3.52,5.12-5.17a15,15,0,0,1,2.71-1.64Z"/><path d="M17.2,830.41c-4.29,3.63-9.55,5.93-13.52,10.71-.17,1.81-3.82,3.16-2,6.29A2,2,0,0,1,0,845a10.42,10.42,0,0,1,5.36-7.75c3.18-1.95,6.34-3.92,9.53-5.84A16.82,16.82,0,0,1,17.2,830.41Z"/><path d="M1.49,792.86l1.13-.33c.1.87.22,1.71.28,2.55a4.09,4.09,0,0,1-.12.89c-.44-.11-1-.08-1.29-.34a3.62,3.62,0,0,1-.69-5.15,84.59,84.59,0,0,1,6.33-6.57c1.72-1.63,3.6-3.1,5.47-4.56,1-.8,2.15-1.43,3.24-2.15l.27.39c-2.7,2.25-5.56,4.35-8.07,6.8S2.77,789.09,1.49,792.86Z"/><path d="M5.86,755.93l.35.57,2-3.1.35.43,4.1-4.13c.35,1.87-.4,2.73-1.84,3.41-.76.36-1.13,1.53-1.73,2.28a10.07,10.07,0,0,1-1.86,2c-.65.46-1.52.59-2,1.1L3.09,761.8c-.15.23-.33.45-.5.67a2.65,2.65,0,0,0,.13,3.74c.21.23.22.64.42,1.27-1.13-.78-2-1.31-2.74-1.93-.23-.19-.48-.74-.37-.92q1.77-2.93,3.68-5.78C4.35,757.88,5.09,757,5.86,755.93Z"/><path d="M28.74,843.22l5-6.68a11,11,0,0,0,1.78-2.45,16.14,16.14,0,0,0,.49-3.51c2.35.26,3.38,1.89,1.78,4.19a49,49,0,0,1-5.45,5.88c-.71.73-1.53,1.36-2.31,2-.35.3-.74.55-1.12.82Z"/><path d="M1.16,857.9c-1.23-.3-1.36-1-.92-2a16.27,16.27,0,0,1,7.2-7.63c.83-.47,1.51-1.21,2.31-1.74,3.25-2.18,6.53-4.32,9.79-6.48l.31.44c-1.21.88-2.4,1.8-3.64,2.64a76.84,76.84,0,0,0-12.3,9.64A10.62,10.62,0,0,0,1.16,857.9Z"/><path d="M27.16,777.78c1.13-1.25,2.29-2.48,3.39-3.77.56-.65,1-1.4,1.48-2.1,1.43-2,3-4,4.24-6.12.38-.63,0-1.7,0-2.57,0-.26,0-.72.07-.73a3,3,0,0,1,1.45-.08c.32.1.76.66.71.92a22.79,22.79,0,0,1-1,2.9c-1.85,4.94-5.67,8.29-9.47,11.65a2,2,0,0,1-.63.24Z"/><path d="M27.16,769.56c1.21-1.35,2.52-2.62,3.6-4.07,2.07-2.79,4-5.67,6-8.55.22-.32.09-.86.19-1.28s.3-1,.45-1.42c.41.57,1.26,1.27,1.14,1.68a15.62,15.62,0,0,1-2,5,69.33,69.33,0,0,1-5.62,6.19,23.51,23.51,0,0,1-2.5,2.3c-.28.22-.81.12-1.22.16Z"/><path d="M27.47,862.75a4.63,4.63,0,0,1,.56-.95c2.74-2.83,5.6-5.56,8.19-8.52.53-.61.1-2.06.11-3.13a2,2,0,0,1,1.89,3.16,43.45,43.45,0,0,1-2.08,3.82c-.16.26-.82.22-1,.26a9.33,9.33,0,0,1-1,1.43c-.19.19-.61.14-.8.17-1.29,2-3.74,2.54-5.42,4.06Z"/><path d="M34.08,803c1.23-.13,2-1.9,3.65-.68,1.76,1.34.1,2.31-.27,3a31.79,31.79,0,0,1-11.27,11.6.25.25,0,0,1-.15,0,29.22,29.22,0,0,1,3.29-3.43A20.46,20.46,0,0,0,36,804.08c.08-.2-.26-.63-.5-.85s-.46,0-.7,0S34.3,803.08,34.08,803Z"/><path d="M29.44,823.26c.87-.91,1.75-1.76,2.55-2.68,1.23-1.42,2.39-2.91,3.6-4.35s1.67-2.91.75-4.67c-.08-.16,0-.59.11-.63a1,1,0,0,1,.75.06,3.29,3.29,0,0,1,1.05,3.89,67.19,67.19,0,0,1-3.87,6.29,12,12,0,0,1-3.46,2.53C30.66,823.87,30.06,823.47,29.44,823.26Zm3.41-1.68-.34-.17c-.1.28-.19.56-.28.84,0,0,.11.08.2.14Z"/><path d="M16.56,851c-2.18,1.78-4.46,3.47-6.52,5.38-2.86,2.65-5.66,5.38-8.26,8.28-.61.68-.32,2.16-.44,3.3a2.19,2.19,0,0,1-1.28-2.51c.57-2.34,2.51-3.57,4-5.15a17.27,17.27,0,0,1,1.72-1.62c2.42-1.89,4.86-3.76,7.3-5.62,1.06-.81,2.14-1.58,3.21-2.37Z"/><path d="M1.69,839.39c-.53-.3-1.51-.58-1.52-.9-.07-1.56-.47-3.57.31-4.63a34.11,34.11,0,0,1,9.75-9,31.54,31.54,0,0,0,2.69-2l.33.4c-1.49,1.3-3,2.54-4.45,3.92-2.44,2.4-4.91,4.79-7.15,7.37C.34,836,.6,837.44,1.69,839.39Z"/><path d="M1.15,775.12c1.64-1.13,2.27-.5,2.52,2-1.16-.74-2.8-1.22-3.36-2.27A2.9,2.9,0,0,1,1.59,771c.23-.14.31-.5.51-.72.72-.81,1.52-1.55,2.17-2.4.37-.49.4-1.23.77-1.72,1.23-1.58,2.54-3.1,3.81-4.64l.55.37c-.92,1.38-1.84,2.77-2.77,4.15C4.71,768.82,2.19,771.3,1.15,775.12Zm5-9.59.28.3.6-.63-.2-.22Z"/><path d="M0,784.81c.53-1.13.93-2.13,1.44-3.06,1-1.79,2-3.58,3.1-5.31a14.65,14.65,0,0,1,1.71-2c1-1.06,1.93-2.14,3-3.14.26-.25.79-.21,1.2-.31,0,.35.05.82-.14,1-1.18,1.32-2.46,2.55-3.63,3.88-2.2,2.49-3.5,5.52-4.9,8.47a.85.85,0,0,0-.05.57A10.74,10.74,0,0,0,2.17,786a4,4,0,0,1-1.32-.24C.49,785.61.29,785.16,0,784.81Z"/><path d="M28.58,852.1c1.56-1.67,3.18-3.29,4.65-5,1.29-1.53,2.4-3.19,3.57-4.78L35.32,841l.3-.55a12.05,12.05,0,0,1,2.81,1.53c.26.24-.08,1.59-.53,2.06-2.71,2.78-5.53,5.45-8.34,8.11-.17.16-.66,0-1,0Z"/><path d="M14.43,722.46a49.58,49.58,0,0,0-4.05,3.67c-2.82,3.22-5.56,6.51-8.25,9.84a14.17,14.17,0,0,0-1,2.29c-.12.23-.6.27-.91.4-.07-.35-.31-.81-.17-1a76.39,76.39,0,0,1,5.54-8.29C7.88,726.64,10.38,724,14.43,722.46Z"/><path d="M37,700.74c1,.23,1.51.79,1.51,2.22,0,4.74-4,6.15-6.87,8.49a11.25,11.25,0,0,1-1.81,1l-.58-.71c1.12-.9,2.26-1.78,3.35-2.71,1.93-1.64,3.77-3.37,4.35-6A12.16,12.16,0,0,0,37,700.74Z"/><path d="M36.7,783.61l1.83-.46c-.13.64-.25,1.27-.4,1.9,0,.15-.25.29-.22.41.63,2.77-1.85,3.69-3.22,5.15-1.92,2-4.15,3.79-6.25,5.66a9.5,9.5,0,0,1-.89.62l.69-2,.18.24c.53-.48,1.08-.95,1.6-1.44,1.91-1.79,3.83-3.58,5.71-5.41a2.05,2.05,0,0,0,.47-1.09c.21-1.21.35-2.42.51-3.64Z"/><path d="M29.33,719.54c1.57-1.78,3.25-3.47,4.68-5.35s2.73-4.1,4.23-6.39c.1.63.4,1.23.23,1.66-.93,2.5-1.43,5.27-3.84,6.93-1.34.92-2.75,1.73-4.1,2.63a3.41,3.41,0,0,0-.67.89Z"/><path d="M30.64,869.4c1.11-1.24,2.3-2.41,3.31-3.73a20.86,20.86,0,0,0,2.35-3.83,12.37,12.37,0,0,0,.45-3.13c.65-.35,1.95.24,1.74,1.24-.37,1.79.09,4-1.6,5.34-2,1.52-4.18,2.75-6.29,4.1Z"/><path d="M35.41,744c-.3-.07-.73-.31-.87-.19-.87.7-1.68,1.49-2.52,2.24l-.47-.28a23.22,23.22,0,0,1,1.89-3.44c.61-.79,1.75-1.17,2.41-1.94a3.68,3.68,0,0,0,.58-4,13.33,13.33,0,0,1-.44-1.5c.24-.06.57-.24.72-.15.67.42,1.89,1,1.83,1.38-.35,2.08-.36,4.41-2.51,5.72-.13.08-.4-.07-.49-.09,0,.75-.09,1.52-.14,2.29Zm-.51-2.31-.2,0,.22,1,.26-.09Z"/><path d="M29.5,728.25l3.84-4,.27.24c.84-2,1.66-4,2.56-6,.11-.25.63-.33,1-.49l.23.41L37.8,717l.49,0c.09.82.19,1.65.23,2.47a10.42,10.42,0,0,1-1.13.18c0,.19,0,.59,0,1s.14.65,0,.79a51.06,51.06,0,0,1-3.5,3.9c-1.24,1.18-2.65,2.18-4,3.26Z"/><path d="M11.34,880.23c-1.28,1.11-2.53,2.25-3.84,3.33A34.17,34.17,0,0,0,0,892.69l.59-2.33L0,890.9l.32-2.18.3.72a32.47,32.47,0,0,1,2.92-3.7c1.94-1.87,4-3.58,6.14-5.27.37-.3,1.1-.16,1.66-.22Z"/><path d="M29.9,833.77c-.39-2.53,2-3,2.89-4.47,1.49-2.59,3.06-5.13,4.6-7.69.15-.25.35-.48.52-.73.22.24.63.49.61.72-.05.91.07,2-.42,2.67-2.29,2.89-4.76,5.64-7.16,8.43C30.66,833,30.33,833.32,29.9,833.77Z"/><path d="M34.35,735.65c-2.16-1-1.56,1.42-2.62,1.85-.84-1.34.33-2,.95-2.8a35.3,35.3,0,0,0,3.49-4.8c.79-1.54,1-3.38,1.53-5.42.3.77.89,1.52.82,2.21a12.64,12.64,0,0,1-3.79,8A2.94,2.94,0,0,0,34.35,735.65Z"/><path d="M38.53,775.17l-.26-.17a16.87,16.87,0,0,1-8.65,9.87c1.5-1.74,3-3.53,4.53-5.21s3.28-3.52,3-6L35,772.1C37.22,771.86,38.3,772.94,38.53,775.17Z"/><path d="M26.26,705.55a38.42,38.42,0,0,0,3.83-2.27c2.23-1.69,4.39-3.47,6.48-5.32.48-.42.54-1.29.87-1.91.14-.26.47-.42.71-.62.13.33.45.74.35,1a8.69,8.69,0,0,1-1.66,2.93c-2.07,1.82-4.32,3.46-6.57,5.07a16.37,16.37,0,0,1-3,1.49,2.43,2.43,0,0,1-.93,0Z"/><path d="M6.31,877.54C4.83,880.31.59,881.26,1,885.39a1.21,1.21,0,0,0-.43-.15,2,2,0,0,0-.58.16C-.19,882,3.42,877.52,6.31,877.54Z"/><path d="M36,798.36c.13-.64.25-1.28.38-1.92.25-1.21.49-2.43.77-3.64a3.52,3.52,0,0,1,.38-.76,3.61,3.61,0,0,1-.81,5.71c-.16.12-.16.47-.23.71Z"/><path d="M34.54,802.66,36,801.22l.12.17.78-1.33.25.15L38.52,798c.08,2.29-1.07,3.91-2.7,4.35-.4.11-.78.28-1.17.42Z"/><path d="M12.39,770.36l0-1.3,2.31-.85.18.4-2.52,1.72Z"/><path d="M15.09,748.82l-1.53,2.34-.47-.28,1.27-2.47Z"/><path d="M7.35,875.63l-1.86,1.66c-.4-1.44.39-2,1.88-1.65Z"/><path d="M10.91,880.25l2.6-2.62.42.49-3,2.11Z"/><path d="M11.34,760.25l-1.43,2C10,760,10.2,759.66,11.34,760.25Z"/><path d="M31.1,802.3l.11.15-1.6,1.34v0Z"/><path d="M18.67,736.18l-1.53,1.77-.51-.61,2.06-1.13Z"/><path d="M13.72,712.89c.45-1.81.45-1.81,1.68-1.27l-1.7,1.25Z"/><path d="M1.26,893.28,0,891.87l.25-.2,1.51,1.16Z"/><path d="M29.13,720.27l-1.41,1.21-.28-.27,1.24-1.41Z"/><path d="M30.65,747.21l1-1.94.49.28L31,747.45Z"/><path d="M24.74,872.13l1.63-1,.21.29-1.5,1.21Z"/><path d="M24.11,836.15l1.77-1.46.26.3-1.77,1.47Z"/><path d="M26.92,769.19l-.71,1.28-.8-1.56,1.53.3Z"/><path d="M12.38,770.33l-1.17.45.32-1.35.86.94Z"/><path d="M7.37,875.65,8.68,874l.4.45-1.73,1.15Z"/><path d="M25.18,863.53l-1.23,1-.24-.25,1.11-1.15Z"/><path d="M21.06,733.95l1.21-.86.22.29-1.2.88Z"/><path d="M16.07,797.17l.37-1.54.58.24-1,1.29Z"/><path d="M29.61,803.8l-.59,1-.31-.1a4.39,4.39,0,0,1,.24-.95c0-.06.44.06.68.1Z"/><path d="M13.71,712.87l-1,.7,0,0c0-.45,0-.9,0-1.51l1,.82Z"/><path d="M14,758l-.47,1-.35-.15.42-1Z"/><path d="M38.53,783.6l-.71-1.66.54-.15.15,1.83Z"/><path d="M38,715.87l.54,1.28-.48.15q-.17-.69-.35-1.39Z"/><path d="M18.69,736.2c.07-.32.15-.63.22-.95l.34,0c.07.25.15.5.21.75l-.79.19Z"/><path d="M26.06,722.36l-1,1.15-.24-.21,1-1.14Z"/><path d="M9.52,873.53l.86-.59.21.26-.76.68Z"/><path d="M26.23,722.37l.67-1.19.27.15-.62,1.22Z"/><path d="M28.1,786.24l.55-.85.32.19-.52.89Z"/><path d="M3.15,828.78l.58.54-.22.27-.65-.48Z"/><path d="M13.48,788.46l-.52-.14.92-1.06.15.13-.57,1.09Z"/><path d="M27.19,870.55l.71-.51.19.18-.6.62Z"/><path d="M29.73,869,29,870l-.32-.36,1.07-.6Z"/><path d="M17,813.24c-.2.1-.39.25-.43.21a1.52,1.52,0,0,1-.27-.41c.13-.06.27-.19.38-.17S16.86,813.06,17,813.24Z"/><path d="M28.52,712.88l-.32.65-.29-.15.35-.63Z"/><path d="M2.53,757.39l-.68-.48.21-.27.62.56Z"/><path d="M26.37,851.73l-.41.85-.35-.29.78-.54Z"/><path d="M25.23,770.14l-.23.59-.19-.05.11-.62Z"/><path d="M29.88,728.7l-.21.62-.2,0c0-.22.07-.44.1-.65Z"/><path d="M30,738.12l-.39.64-.24-.14.38-.64Z"/><path d="M24.16,817.34l-.55.66-.33-.34.74-.52Z"/><path d="M1.71,930.83c-2.21-1.6-2.22-2.51-.38-5.06a25.21,25.21,0,0,0,1.85-2.61,1.41,1.41,0,0,0-.4-1.32,3.07,3.07,0,0,1-1.24-4.51c.13-.21.27-.4.38-.61.65-1.29,2.24-2.59-.05-3.84-.09,0-.13-.2-.18-.31s-.07-.22-.24-.73a13.51,13.51,0,0,0,2,.67c.47.08,1.18.14,1.44-.13,1.43-1.49,2.59-3.27,4.15-4.6,2.49-2.12,5.22-4,7.84-5.92l.52.73-2.85,1.9,0-.14c-1.17,1-2.42,2-3.5,3.11-1.53,1.59-3,3.24-4.38,5-1.19,1.51-2.14,3.21-3.3,4.75s-.54,2.6.5,3.74a6.8,6.8,0,0,1,.6.91c1.76-1.88,3.39-3.83,5.24-5.54s3.83-3.05,5.75-4.56l.49.55L9.61,918l-4,5C3.46,924.89,1.15,926.9,1.71,930.83Z"/><path d="M16.93,970.72c-.64.58-1.29,1.15-1.89,1.76-.43.43-.72,1-1.18,1.4a28.74,28.74,0,0,1-3.49,2.9,21.79,21.79,0,0,0-7.32,7.79c-1.15,2-.9,3.44.42,4.24l16.19-12,.56.64-5,4-.08-.12c-1.23.81-2.47,1.57-3.66,2.41a16.34,16.34,0,0,0-1.78,1.56c-2.48,2.35-5,4.68-7.38,7.1a7.68,7.68,0,0,0-1,2.31c-1.16-.16-1.53-.8-1.12-1.95a1.17,1.17,0,0,1,.19-.44c1.65-1.59,2.45-3.1.16-4.92-.41-.33,0-1.64.39-2.53l.14.36c.45-.58,1.1-1.35,1.69-2.18a4.42,4.42,0,0,0,.8-1.56c.18-.9.13-1.86,1.52-1.46.1,0,.34-.2.43-.35a10.56,10.56,0,0,1,4.67-4.51c1.65-.78,2.92-2.33,4.44-3.43A12.81,12.81,0,0,1,17,970.73Z"/><path d="M16.48,987.42c-.67.65-1.33,1.31-2,1.93-.06.06-.36-.16-.27.16a30.4,30.4,0,0,0-3.77,2.09c-1.63,1.23-3.08,2.7-4.66,4a23.64,23.64,0,0,1-2.91,2c-.86.51-.94,3.17-.13,4.14a5,5,0,0,1,.58,1.36l-1.23-.28c-.11,0-.21-.15-.32-.15a11.65,11.65,0,0,1-1.46,0c-.14-1.06-.49-2.27-.11-3.16a15.81,15.81,0,0,1,2.67-4.11,15.28,15.28,0,0,1,3.73-3.33c1.37-.79,3.15-.84,4.58-1.56a24.75,24.75,0,0,0,3.6-2.72c.4-.31.81-.6,1.21-.9Z"/><path d="M21.65,1030.07a7.06,7.06,0,0,1-.93,1.11c-4.14,3-8.4,5.76-12.4,8.9a50.78,50.78,0,0,0-6.15,6.28c-.67.75-1.16,1.91.73,1.94.2,0,.39.19.55.74-1-.07-2.31.22-2.91-.31a1.79,1.79,0,0,1,.31-2.8c.59-.48.75-1.49,1.34-2,2.67-2.35,5.39-4.66,8.17-6.88a72.67,72.67,0,0,1,6.21-4.45A54.29,54.29,0,0,1,21.65,1030.07Z"/><path d="M36,917.56l.86-.53a3.85,3.85,0,0,1,1.23,5c-.64,1.44-.93,3.19-1.95,4.26-1.77,1.85-2.48,4.53-5.21,5.7-2,.86-3.62,2.66-5.47,4a19,19,0,0,1-2.71,1.28A8.22,8.22,0,0,1,24,935.49c1.45-1.06,3-2,4.44-3,.56-.41.92-1.1,1.47-1.54s1.42-.92,2.13-1.39a1.66,1.66,0,0,0,.52-.49c1.53-2.68,3.13-5.32,4.49-8.08.28-.57-.3-1.59-.54-2.39a6.06,6.06,0,0,0-.52-1Z"/><path d="M12.91,887.12c-2.54,2.24-5.32,4.27-7.54,6.78s-4.46,5.2-3.33,9a1.52,1.52,0,0,1-2-1.7,14.54,14.54,0,0,1,.9-4.37,18.22,18.22,0,0,1,3-3.68c1.12-1.25,2.29-2.45,3-3.2l5.42-3.71.59.85Z"/><path d="M13.5,962l4.95-3.49.54.58c-.59.4-1.22.75-1.76,1.2-3.16,2.62-6.42,5.14-9.4,7.94a34.38,34.38,0,0,0-4.79,6c-1,1.45-1.65,3.17-.71,5,.06.13-.75.69-1.15,1l-.43-.41.49-1.65c-1.71.24-1.25-.85-.87-1.76a21.24,21.24,0,0,1,5.33-7.65c1.78-1.64,3.35-3.52,5.12-5.17A14.88,14.88,0,0,1,13.52,962Z"/><path d="M17.2,1004c-4.29,3.63-9.55,5.93-13.52,10.71-.17,1.81-3.82,3.16-2,6.29A2,2,0,0,1,0,1018.52a10.42,10.42,0,0,1,5.36-7.75c3.18-1.95,6.34-3.92,9.53-5.83A16.94,16.94,0,0,1,17.2,1004Z"/><path d="M1.48,966.42l1.13-.33c.1.87.22,1.71.28,2.56a4.11,4.11,0,0,1-.12.89c-.44-.11-1-.08-1.29-.35A3.62,3.62,0,0,1,.79,964a84.42,84.42,0,0,1,6.33-6.57c1.72-1.63,3.6-3.1,5.47-4.57,1-.8,2.15-1.43,3.24-2.15l.27.39c-2.7,2.25-5.56,4.35-8.07,6.8S2.77,962.64,1.48,966.42Z"/><path d="M5.86,929.48l.35.57,2-3.1.35.43,4.09-4.12c.35,1.87-.4,2.73-1.84,3.41C10,927,9.65,928.18,9,928.94a10.15,10.15,0,0,1-1.86,2c-.65.46-1.52.59-2,1.1l-2.11,3.27c-.15.23-.33.45-.5.67a2.65,2.65,0,0,0,.14,3.74c.21.23.22.64.42,1.28-1.13-.78-2-1.31-2.74-1.93-.23-.19-.48-.74-.37-.92q1.77-2.93,3.68-5.78C4.35,931.43,5.09,930.52,5.86,929.48Z"/><path d="M28.74,1016.78l5-6.68a11,11,0,0,0,1.78-2.45,16.13,16.13,0,0,0,.49-3.51c2.35.26,3.38,1.89,1.78,4.19a49,49,0,0,1-5.45,5.88c-.71.73-1.53,1.36-2.31,2-.35.3-.74.55-1.12.82Z"/><path d="M1.15,1031.45c-1.23-.3-1.36-.95-.92-2a16.28,16.28,0,0,1,7.2-7.63c.83-.47,1.51-1.2,2.31-1.74,3.25-2.18,6.53-4.32,9.79-6.48l.31.44c-1.22.88-2.4,1.8-3.65,2.64a76.88,76.88,0,0,0-12.3,9.64A10.63,10.63,0,0,0,1.15,1031.45Z"/><path d="M27.16,951.33c1.13-1.25,2.29-2.48,3.39-3.77.56-.65,1-1.4,1.48-2.1,1.43-2,3-4,4.24-6.12.38-.63,0-1.7,0-2.57,0-.26,0-.72.07-.73a3,3,0,0,1,1.45-.08c.32.1.76.66.71.92a22.79,22.79,0,0,1-1,2.9c-1.85,4.94-5.67,8.29-9.47,11.65a2,2,0,0,1-.63.25Z"/><path d="M27.16,943.11c1.21-1.35,2.52-2.62,3.6-4.07,2.07-2.79,4-5.67,6-8.55.22-.32.09-.86.19-1.28s.3-1,.45-1.42c.41.57,1.26,1.27,1.14,1.68a15.62,15.62,0,0,1-2,5,69.33,69.33,0,0,1-5.62,6.19,23.51,23.51,0,0,1-2.5,2.3c-.28.22-.81.12-1.22.16Z"/><path d="M27.47,1036.31a4.59,4.59,0,0,1,.56-.95c2.74-2.83,5.6-5.56,8.19-8.52.53-.61.1-2.06.11-3.13a2,2,0,0,1,1.89,3.16c-.65,1.3-1.31,2.59-2.08,3.82-.16.26-.82.22-1,.26a9.38,9.38,0,0,1-1,1.43c-.19.19-.61.14-.8.17-1.29,2-3.74,2.55-5.42,4.06Z"/><path d="M34.08,976.59c1.23-.13,2-1.9,3.65-.68,1.76,1.33.1,2.31-.27,3a31.78,31.78,0,0,1-11.27,11.6.26.26,0,0,1-.15,0,29.15,29.15,0,0,1,3.29-3.43A20.45,20.45,0,0,0,36,977.64c.08-.2-.26-.63-.5-.85s-.46,0-.7,0S34.3,976.64,34.08,976.59Z"/><path d="M29.44,996.82c.87-.91,1.75-1.76,2.55-2.68,1.23-1.42,2.39-2.91,3.6-4.35s1.67-2.91.75-4.67c-.08-.16,0-.59.11-.63a1,1,0,0,1,.75.06,3.29,3.29,0,0,1,1.05,3.89,67.46,67.46,0,0,1-3.87,6.29,12.05,12.05,0,0,1-3.46,2.54C30.66,997.43,30.06,997,29.44,996.82Zm3.41-1.68L32.5,995c-.1.28-.19.56-.28.84,0,0,.11.08.2.14Z"/><path d="M16.55,1024.56c-2.18,1.78-4.45,3.46-6.52,5.38-2.86,2.65-5.66,5.39-8.26,8.28-.61.68-.32,2.16-.44,3.3A2.19,2.19,0,0,1,.06,1039c.57-2.34,2.51-3.57,4-5.15a17.14,17.14,0,0,1,1.72-1.62c2.42-1.89,4.86-3.76,7.3-5.62,1.06-.81,2.14-1.58,3.21-2.37Z"/><path d="M1.69,1012.94c-.53-.3-1.51-.58-1.52-.9-.07-1.56-.47-3.57.31-4.63a34.11,34.11,0,0,1,9.75-9,31.57,31.57,0,0,0,2.69-2l.33.39c-1.49,1.3-3,2.54-4.45,3.92-2.44,2.4-4.91,4.79-7.15,7.37C.34,1009.56.6,1011,1.69,1012.94Z"/><path d="M1.15,948.67c1.64-1.13,2.27-.5,2.52,2-1.16-.74-2.8-1.22-3.36-2.27a2.9,2.9,0,0,1,1.28-3.84c.23-.14.31-.5.51-.72.72-.8,1.52-1.55,2.17-2.4.37-.49.4-1.23.77-1.72,1.22-1.58,2.54-3.1,3.81-4.64l.55.37c-.92,1.38-1.84,2.77-2.77,4.15C4.71,942.38,2.19,944.85,1.15,948.67Zm5-9.6.28.3.6-.63-.2-.22Z"/><path d="M0,958.36c.53-1.13.92-2.12,1.44-3.06,1-1.79,2-3.58,3.1-5.31a14.59,14.59,0,0,1,1.71-2c1-1.06,1.93-2.14,3-3.14.26-.25.79-.21,1.2-.31,0,.35.05.82-.14,1-1.18,1.32-2.46,2.55-3.63,3.88C4.45,952,3.15,955,1.75,958a.85.85,0,0,0-.05.57,10.93,10.93,0,0,0,.47,1.07,4,4,0,0,1-1.32-.24C.49,959.16.28,958.71,0,958.36Z"/><path d="M28.58,1025.65c1.56-1.67,3.18-3.29,4.65-5,1.29-1.53,2.4-3.19,3.57-4.78l-1.47-1.32.3-.55a12.06,12.06,0,0,1,2.81,1.53c.26.24-.08,1.59-.53,2.06-2.71,2.78-5.53,5.45-8.34,8.12-.17.16-.66,0-1,0Z"/><path d="M14.42,896a50.24,50.24,0,0,0-4.05,3.67c-2.82,3.22-5.56,6.51-8.25,9.84a14.17,14.17,0,0,0-1,2.29c-.12.23-.6.27-.91.4-.06-.35-.31-.81-.17-1a76.14,76.14,0,0,1,5.54-8.29C7.88,900.19,10.38,897.53,14.42,896Z"/><path d="M37,874.29c1,.23,1.51.79,1.51,2.22,0,4.74-4,6.15-6.87,8.49a11.33,11.33,0,0,1-1.81,1l-.58-.71c1.12-.9,2.26-1.78,3.35-2.71,1.93-1.64,3.77-3.37,4.35-6A12.16,12.16,0,0,0,37,874.29Z"/><path d="M36.7,957.16l1.83-.46c-.13.64-.25,1.27-.4,1.9,0,.15-.25.29-.22.41.63,2.77-1.85,3.69-3.22,5.15-1.92,2-4.15,3.79-6.25,5.66a9.5,9.5,0,0,1-.89.62l.69-2,.18.24c.53-.48,1.08-.94,1.6-1.43,1.91-1.79,3.83-3.58,5.71-5.41a2.05,2.05,0,0,0,.47-1.09c.21-1.21.35-2.42.51-3.64Z"/><path d="M29.33,893.09c1.57-1.78,3.25-3.47,4.68-5.35s2.73-4.1,4.23-6.39c.1.62.4,1.23.23,1.66-.93,2.5-1.43,5.27-3.84,6.93-1.34.92-2.75,1.73-4.1,2.63a3.42,3.42,0,0,0-.67.89Z"/><path d="M30.64,1043c1.11-1.24,2.3-2.41,3.31-3.73a20.83,20.83,0,0,0,2.35-3.83,12.36,12.36,0,0,0,.45-3.13c.65-.35,1.95.24,1.74,1.23-.37,1.8.09,4-1.6,5.34-2,1.52-4.18,2.75-6.29,4.1Z"/><path d="M35.41,917.55c-.3-.07-.73-.31-.87-.19-.87.7-1.68,1.49-2.52,2.24l-.47-.28a23.24,23.24,0,0,1,1.89-3.45c.61-.79,1.75-1.17,2.41-1.94a3.68,3.68,0,0,0,.58-4,13.4,13.4,0,0,1-.44-1.5c.24-.06.57-.24.72-.15.67.42,1.89,1,1.83,1.38-.35,2.08-.36,4.41-2.51,5.72-.13.08-.4-.07-.49-.09,0,.75-.09,1.52-.14,2.29Zm-.51-2.31-.2,0,.22,1,.26-.08Z"/><path d="M29.5,901.8l3.84-4,.27.24c.84-2,1.66-4,2.56-6,.11-.25.63-.33,1-.49l.23.41.45-1.39.49,0c.09.82.19,1.65.23,2.47a10.42,10.42,0,0,1-1.13.18c0,.19,0,.59,0,1s.14.65,0,.79a51.06,51.06,0,0,1-3.5,3.9c-1.24,1.18-2.65,2.18-4,3.26Z"/><path d="M11.34,1053.79c-1.28,1.11-2.53,2.25-3.83,3.33A34.19,34.19,0,0,0,0,1066.25l.59-2.33-.62.54.32-2.18.3.72a32.4,32.4,0,0,1,2.92-3.7c1.94-1.87,4-3.58,6.14-5.27.37-.3,1.1-.16,1.67-.22Z"/><path d="M29.9,1007.32c-.39-2.53,2-3,2.89-4.47,1.49-2.58,3.06-5.13,4.6-7.69.15-.25.35-.48.52-.72.22.24.63.49.61.72-.05.91.07,2-.42,2.67-2.29,2.89-4.76,5.64-7.16,8.43C30.66,1006.58,30.33,1006.88,29.9,1007.32Z"/><path d="M34.35,909.21c-2.16-1-1.56,1.43-2.62,1.85-.84-1.33.33-2,.95-2.8a35.24,35.24,0,0,0,3.49-4.8c.79-1.54,1-3.38,1.53-5.42.3.77.89,1.52.82,2.21a12.64,12.64,0,0,1-3.79,8A2.92,2.92,0,0,0,34.35,909.21Z"/><path d="M38.53,948.73l-.26-.17a16.86,16.86,0,0,1-8.65,9.87c1.5-1.74,3-3.53,4.53-5.21s3.28-3.52,3-6L35,945.66C37.22,945.41,38.3,946.5,38.53,948.73Z"/><path d="M26.26,879.11a38.23,38.23,0,0,0,3.83-2.28c2.23-1.69,4.39-3.47,6.48-5.32.48-.42.54-1.29.87-1.91.14-.26.47-.42.71-.62.13.33.45.74.35,1a8.7,8.7,0,0,1-1.66,2.93c-2.07,1.82-4.32,3.46-6.57,5.07a16.5,16.5,0,0,1-3,1.49,2.43,2.43,0,0,1-.93,0Z"/><path d="M6.31,1051.09c-1.48,2.78-5.72,3.72-5.28,7.85a1.21,1.21,0,0,0-.43-.15A2.14,2.14,0,0,0,0,1059C-.19,1055.6,3.42,1051.07,6.31,1051.09Z"/><path d="M36,971.92c.13-.64.25-1.28.38-1.92.25-1.21.49-2.43.77-3.64a3.52,3.52,0,0,1,.38-.76,3.61,3.61,0,0,1-.81,5.71c-.16.12-.16.47-.23.71Z"/><path d="M34.54,976.21,36,974.78l.12.17.78-1.33.25.15,1.38-2.17c.08,2.29-1.07,3.91-2.7,4.35-.4.11-.78.28-1.17.42Z"/><path d="M10.95,943.91l0-1.3,2.31-.85.18.4-2.52,1.72Z"/><path d="M13.65,922.38l-1.53,2.34-.47-.28L12.92,922Z"/><path d="M5.91,1049.19,4,1050.85c-.4-1.44.4-2,1.89-1.65Z"/><path d="M9.46,1053.8l2.61-2.62.42.49-3,2.11Z"/><path d="M9.9,933.8l-1.43,2C8.51,933.57,8.76,933.22,9.9,933.8Z"/><path d="M29.66,975.86l.11.15-1.6,1.34,0,0Z"/><path d="M17.23,909.74,15.7,911.5l-.51-.61,2.06-1.13Z"/><path d="M12.28,886.45c.45-1.81.45-1.81,1.68-1.27l-1.69,1.25Z"/><path d="M1.26,1066.83,0,1065.42l.25-.2,1.51,1.16Z"/><path d="M27.69,893.83,26.28,895l-.28-.26,1.24-1.41Z"/><path d="M29.21,920.77l1-1.94.49.28L29.6,921Z"/><path d="M23.3,1045.68l1.63-1,.21.29-1.5,1.21Z"/><path d="M22.67,1009.7l1.77-1.46.26.3L22.94,1010Z"/><path d="M25.48,942.74,24.77,944l-.8-1.56,1.52.3Z"/><path d="M10.93,943.88l-1.17.44.31-1.35.86.94Z"/><path d="M5.93,1049.2l1.31-1.61.4.44-1.73,1.15Z"/><path d="M23.73,1037.08l-1.23,1-.23-.25,1.11-1.15Z"/><path d="M19.61,907.5l1.21-.86.22.29-1.2.88Z"/><path d="M14.62,970.73l.37-1.54.58.24-1,1.29Z"/><path d="M28.17,977.35l-.59,1-.31-.1a4.34,4.34,0,0,1,.24-.95c0-.06.44.06.68.1Z"/><path d="M12.26,886.43l-1,.7,0,0c0-.45,0-.9,0-1.51l1,.82Z"/><path d="M12.56,931.54l-.47,1-.35-.15.42-1Z"/><path d="M38.53,957.15l-.71-1.66.54-.15.15,1.83Z"/><path d="M38,889.43l.54,1.28-.48.15q-.17-.7-.35-1.39Z"/><path d="M17.25,909.76c.07-.32.15-.63.22-.95l.34,0,.21.75-.79.19Z"/><path d="M24.62,895.91l-1,1.15-.24-.21,1-1.14Z"/><path d="M8.07,1047.08l.86-.59.21.27-.76.68Z"/><path d="M24.79,895.92l.67-1.19.27.15-.62,1.22Z"/><path d="M26.66,959.79l.55-.85.32.19L27,960Z"/><path d="M.29,1002.33l.58.54-.22.27-.65-.48Z"/><path d="M12,962l-.52-.14.92-1.06.15.13L12,962Z"/><path d="M25.74,1044.1l.71-.51.19.18-.6.62Z"/><path d="M28.29,1042.6l-.74,1-.31-.36,1.07-.6Z"/><path d="M15.57,986.8c-.2.1-.39.24-.43.21a1.47,1.47,0,0,1-.27-.41c.13-.06.27-.19.38-.18S15.42,986.61,15.57,986.8Z"/><path d="M27.08,886.43l-.32.65-.29-.15.35-.63Z"/><path d="M.68,930.94,0,930.45l.21-.26.62.56Z"/><path d="M24.93,1025.29l-.41.85-.35-.29.78-.54Z"/><path d="M23.79,943.7l-.23.59-.19-.05.11-.62Z"/><path d="M28.44,902.26l-.21.62-.2,0c0-.22.07-.44.1-.65Z"/><path d="M28.57,911.67l-.39.64-.24-.14.38-.64Z"/><path d="M22.72,990.89l-.55.66-.33-.34.74-.52Z"/><path d="M1,726.59c-1.29,5.93,2.58,4.61,2.58,4.61Z"/></svg>