<svg xmlns="http://www.w3.org/2000/svg" viewBox="0 -50 281 281">
  <defs><style>.a{fill:#fff;}.b{fill:none;stroke:#000;stroke-miterlimit:10;}</style></defs><title>top</title><path class="a" d="M134.87,178.2c3.89.34,7.74,1,11.63,1.37a27.69,27.69,0,0,0,8.06-.21,6.63,6.63,0,0,1,.15-.85,29.18,29.18,0,0,0,.72-4.87l-2-1.49.84-.06a1.89,1.89,0,0,0-1.43-2c-3-1.22-5.88-3-9.32-3.07a1.44,1.44,0,0,1-.43-.14,10.09,10.09,0,0,1,6,.23,51.32,51.32,0,0,1,5.81,2.72,1.56,1.56,0,0,1,.56.6c0-1.43-.1-2.87-.2-4.3-2.29-2.62-5.44-3.4-8.58-4.54A37.1,37.1,0,0,1,151,162a34.12,34.12,0,0,1,4,1.33c0-.2,0-.4,0-.6-.1-1.16-.22-2.33-.32-3.5L147,155.31l.11-.43a14.5,14.5,0,0,1,1.52.3c1.6.49,3.19,1,4.79,1.54.49.15.86.26,1.15.38-.07-1.24-.11-2.47-.09-3.71-1.83-2.39-4.59-3.48-7.45-4.47,1.44-.6,4.61.28,7.55,2l0,0c.1-1.33.27-2.66.47-4a1.51,1.51,0,0,1-.84,0,15.88,15.88,0,0,1-2.55-1.51c-2.41-1.79-5.25-2.29-8.1-2.77-.23,0-.45-.1-.68-.16a6.55,6.55,0,0,1,4.62.1,1.66,1.66,0,0,0,.68.22c2.79-.12,4.85,1.44,6.86,3.05a.5.5,0,0,1,.13.17q.21-1.38.44-2.75a37.57,37.57,0,0,0,.59-8.79c0-.59-.1-1.17-.17-1.76v2.82l-.31.18a19.54,19.54,0,0,0-9.08-6.44c3.57-.24,6.23,2.2,9.37,3.19-.18-1.56-.4-3.12-.6-4.68a2.61,2.61,0,0,1-1-.22c-1.7-1-3.36-2-5-3a.75.75,0,0,1-.39-.53,7.51,7.51,0,0,1,1.93.13,34.16,34.16,0,0,1,4.23,1.67q-.08-.69-.14-1.37c-.14-1.6-.23-3.2-.29-4.81-.3.67-.74.92-1.43.56-2.26-1.16-4.5-2.34-7.06-3.68a12.75,12.75,0,0,1,8.48,2.81c-.07-2-.11-4-.17-6.06a4.21,4.21,0,0,1-1.07-.43c-1.07-.69-2.09-1.47-3.22-2.27,1.76-1,2.85.3,4.23.91,0-.88-.07-1.77-.12-2.65,0-.36,0-.73-.07-1.09l-5.63-3.53.13-.36a14.59,14.59,0,0,1,2.48.67c1,.46,2,1,2.91,1.55-.11-1.67-.23-3.34-.35-5a14.77,14.77,0,0,0-5.48-3.33A10.08,10.08,0,0,1,153.72,99q-.1-1.68-.18-3.36l-4.39-2.35a6.65,6.65,0,0,1,4.31.54c0-.23,0-.46,0-.68,0-1.25-.06-2.52-.07-3.79l-5.21-3c1.9,0,3.77.07,5.22,1.25,0-1.48.08-3,.2-4.42l-3.22-2.51a5.07,5.07,0,0,1,3.38.89c.15-1.24.34-2.48.61-3.69a7.81,7.81,0,0,0-.67-.51,18.44,18.44,0,0,0-2.42-1.18l.13-.31c1,.4,2.11.76,3.15,1.19v0c.14-.57.3-1.13.49-1.67h0l.27-2.36c-1.67-.17-3.33-.36-5-.5A150.42,150.42,0,0,0,128,72.45c-2.1.13-4.18.45-6.26.75a14.77,14.77,0,0,0-1.76.56,11,11,0,0,1-2.79.64,9.47,9.47,0,0,1-2.51-.7c0-.12,0-.25,0-.37l-.81,1.14c0,.44,0,.87,0,1.29-.05,3.29-.17,6.56-.31,9.84.56-.64.23-1.37.19-2.14a42.48,42.48,0,0,1,.12-4.82,1.7,1.7,0,0,1,1.34-1.71A49.74,49.74,0,0,1,134.33,75a8.82,8.82,0,0,1,1.11.32c-3.87.3-7.4.54-10.92.87-2.05.19-4.09.51-6.14.8a4.13,4.13,0,0,0-1,.36c-.59.26-1.17.55-1.91.9-.28,1.61.15,2,1.91,1.52a58.53,58.53,0,0,1,18.21-2.38,23.35,23.35,0,0,1,2.8.4c0,.12,0,.23,0,.35-5.1-.28-10.1.51-15.1,1.27-2.19.33-4.35.95-6.51,1.49-1.42.36-1.65,1-1,2.92.31,1,1.18.53,1.78.43a93.72,93.72,0,0,1,16.83-1.83,1.55,1.55,0,0,1,1,.27l-19.5,2.65c0,.14,0,.27,0,.41l1.56.22c-2.08-.1-1.54,2.46-3.12,3-.24-.6-.5-1.2-.74-1.81l0,.37c-.14,2.9-.14,5.81-.13,8.72a3.91,3.91,0,0,1,1.08-.65q6.82-1.78,13.65-3.48a2.57,2.57,0,0,1,1.48.11l-1.12.49L137.74,94v.3h-.93c-3.54-.1-7.08-.24-10.62-.28a10.88,10.88,0,0,0-5.87,1.68c-.87.54-1.85.91-2.77,1.36-2.33,1.15-2.34,1.17-1.9,3.52-1.75.1-2.8-1.36-1.16-3.83l-1.11-.24c0,1.32,0,2.64,0,4,0,.77,0,1.54,0,2.3a5.1,5.1,0,0,1,2.22-1.55c2.33-1.12,4.81-1,7.28-1.09,2.85-.07,5.7,0,8.54,0a16.16,16.16,0,0,1,2.21.36c-3.74,1.29-7.27.51-10.75.75a28.33,28.33,0,0,0-3.91.51,6,6,0,0,0-3.91,3.18,7.14,7.14,0,0,0-.33,2.06c-.49-.53-1-.82-1.12-1.22-.09-.25-.16-.47-.22-.69q0,1.86,0,3.73a3.61,3.61,0,0,1,2-.42,4.78,4.78,0,0,0,3.12-.83,5.34,5.34,0,0,1,2.42-.84c3.15-.34,6.32-.57,9.47-.83a8.24,8.24,0,0,1,1.07,0c0,.13,0,.25,0,.38l-2.23.15c0,.08,0,.16,0,.25h2.86c0,.12,0,.23,0,.35-.93.12-1.86.2-2.78.36-4.25.76-8.51,1.46-12.73,2.35-2.17.46-2.14.63-2.86,2.52l-.32-.06c0,1,0,1.93,0,2.9a2.54,2.54,0,0,1,.71-.3c5.55-1.36,11.07-3,16.91-2.43,1.72.17,3.44.21,5.17.31,0,.11,0,.22,0,.33-.74.07-1.48.15-2.22.19-3.57.21-7.17.2-10.71.67a63.25,63.25,0,0,0-7.77,2,1.61,1.61,0,0,0-1.36,1.53c0,.31-.61.86-.71.81h0q0,1.34,0,2.68l.26-.08c1.79-.48,3.59-.92,5.37-1.45,3.56-1.07,7.19-.72,10.82-.65l5.2.11,1.18.06c0,.15,0,.31.05.46a8,8,0,0,1-1.17.17c-3.09,0-6.21-.22-9.26.11a70.08,70.08,0,0,0-9.67,1.94c-1.26.32-3,.7-2.09,3l-.63-.21c0,.82,0,1.64,0,2.47,0,.11,0,.21,0,.32,4.49-3.46,9.85-3.78,15.27-3.89.56,0,1.34.47,1.61-.53,0,0,.3,0,.45,0l5.42,1.07c0,.12,0,.24,0,.36-.44.07-.87.17-1.31.21-4.23.38-8.5.51-12.67,1.23-2.66.46-5.19,1.77-7.74,2.78a1.2,1.2,0,0,0-.72,1.88,3.38,3.38,0,0,1,.13,1l-.37-.11c0,.4,0,.81,0,1.21.78-1.21,1.67-1.42,4.44-1.9,5.56-1,11.17-1.7,16.75-2.52.94-.14,1.88-.24,3-.38l-.74.82,2.76.64c0,.05,0,.1,0,.15-3.35.25-6.71.57-10.06.74a47.17,47.17,0,0,0-12.23,2.37,11.47,11.47,0,0,0-2.9,1.62,2,2,0,0,0-.77,2.41c.14.45.21.93.32,1.43l-.45-.06q0,.4,0,.81a8.42,8.42,0,0,1,.77-.4,56.71,56.71,0,0,1,16.39-4.83,37.23,37.23,0,0,1,3.83-.2l.09.45a12,12,0,0,1-1.24.42c-4.29,1-8.6,1.9-12.88,2.92a12.3,12.3,0,0,0-2.9,1.27c-1.26.68-2.46,1.47-3.74,2.24-.12-.21-.23-.38-.31-.54,0,0,0,.09,0,.13,0,1,0,2,0,3h0a19.55,19.55,0,0,1,8.47-2.9c3.67-.32,7.37-.42,11.05-.62l0,.34c-2.4.35-4.8.67-7.2,1.05s-5,.85-7.45,1.26a6.13,6.13,0,0,0-3.84,2.53c-.36.46-.16,1.36-.22,2.17l-1-.26q0,.84-.11,1.69a34.92,34.92,0,0,1,11.08-3c3.67-.43,7.4-1.25,11.12-.43,0,.17,0,.35,0,.52-1.57.16-3.14.36-4.71.47a66.78,66.78,0,0,0-13.51,2.34c-2.37.66-3.88,1.88-4.17,4.4-.06.56-.23,1.11-.4,1.91a36.17,36.17,0,0,1,22.38-4.25c-7.63.83-15.42,1-22.06,6.17l.22,2.66c6.8-3,13.9-3.94,21.23-4.44a4.55,4.55,0,0,1-3.17,1.17,44.09,44.09,0,0,0-16.44,4,13.89,13.89,0,0,0-2.26,1.8,6.54,6.54,0,0,1-.36-1.56c0-.59,0-1.17.05-1.76a161.19,161.19,0,0,0-1.3,19.11C119.17,178.69,127,177.51,134.87,178.2Zm19.82-1.14-9-2.75C148.1,172.75,153.86,174.31,154.69,177.07Zm-1.13-39.29a3.85,3.85,0,0,1,1.85.92,2.11,2.11,0,0,1,.56,1.76c-.3.73-.94,1.55-2,.92.06-.11.1-.22.16-.32-.28-.36-.49-.85-.86-1.06-1.77-1-3.6-2-5.4-3-.34-.19-.66-.4-1.19-.71C149.13,136.81,151.35,137.25,153.56,137.78Zm-16.4-48.5a48.87,48.87,0,0,0-5.86,0c-4.58.56-9.14,1.27-13.69,2-.85.14-1.9.42-1.93,1.72,0,.09-1.14.36-1.23.21a2.66,2.66,0,0,1-.5-1.69c.06-.37.71-.82,1.16-.91a71.48,71.48,0,0,1,7.55-1.33c4.18-.39,8.4-.55,12.6-.78a12.74,12.74,0,0,1,1.93.18C137.18,88.92,137.17,89.1,137.16,89.28ZM112,171.39c0-1,0-2.05.09-3.07.15-1.73.34-3.45.53-5.17a6.2,6.2,0,0,1,.24-.91h.31c.06.71.12,1.42.18,2.16a51.66,51.66,0,0,1,12-3.74c.75-.15,1.8.17,2.25-.24,1-.88,2.07-.7,3.12-.84a9.68,9.68,0,0,1,5.59.66c-2.62.25-4.94.37-7.21.7a51,51,0,0,0-15,4.41,1.42,1.42,0,0,0-1,1.51c0,.78,0,1.56,0,2.57a39.61,39.61,0,0,1,11.69-4.14,31.14,31.14,0,0,1,12.23,0,3.89,3.89,0,0,1-.74.12,47,47,0,0,0-20.77,4.43c-1.89.84-2.55,2-2.14,3.66a1,1,0,0,0,.16.28c5.58-1.73,11.33-1.46,17-1.65-6.24,1.11-12.75.85-18.69,3.86a13,13,0,0,0,.29-1.92C112.2,173.21,112,172.3,112,171.39Z"/><path class="a" d="M280.24,30a.8.8,0,0,1,0-.09l0-.18a6.47,6.47,0,0,0-1.73-3.13,17,17,0,0,0-3.83-3.08c-.94-.58-1.9-1.12-2.88-1.62l-.09.15c-7.4-3.77-15.18-5.65-22.92-7.51l.12-.06c-3-.67-5.93-1.31-8.9-2q-13.64-3.07-27.46-5.38c0,.09,0,.17,0,.26l-1.41.26c-.49-.43-.74-.85-1-.88-1.17-.1-2.36-.08-3.54-.1-.7,0-1.4,0-2.09-.07-.41,0-.8-.2-1.21-.26l-4.92-.79.42.5h-5.15l-.21-.3,1.11-.58-.17-.33-5.49-.53-.09.39,2.38.71-.08.36L179,4.39l.88-1.09-1.53.08c.08.41.15.72.22,1.08a2.42,2.42,0,0,1-.5,0c-2.81-.39-5.71.14-8.44-1a6,6,0,0,0-1.84-.2c-2.87-.17-5.74-.36-8.62-.47-1,0-1.93.19-2.89.17-4.62-.1-9.23-.32-13.85-.34-9,0-18-.48-27,.31-4.23.37-8.47.55-12.71.81-4.4.26-8.82.41-13.21.8-4,.35-7.92,1-11.9,1.45C72.4,6.6,67.17,6.92,62,7.55S51.77,9,46.67,9.78c-3,.43-5.94.75-8.9,1.22a43.84,43.84,0,0,0-5.41,1.17c-2.4.7-4.74,1.58-7.35,2.46l.64-1.39C17.39,15,9.78,17.85,3.82,24.37a3.24,3.24,0,0,1-.15-.89c.92-3.81,5.08-7.35,9-7.84a16,16,0,0,0,3.3-1c1.71-.61,3.41-1.24,5.11-1.88l-2.75.49a38.8,38.8,0,0,0-5.52,1.19c-5.31,1.8-10.39,6.34-10.3,12.36a13.17,13.17,0,0,0,.13,1.59,12.66,12.66,0,0,0,.57-1.78l.33.08A17.83,17.83,0,0,0,4,31.1a14,14,0,0,0,2.46,4c.9,1.13,1.54,2.7,3.53,2.82-.59-1.65.59-2.15,1.73-2.68l-.08-.37-2.67-.37s0-.16,0-.18c1.83-.91,2-2.42,1.81-4.27-.2-2.16,0-4.36,0-6.54A1.48,1.48,0,0,1,12,21.89c2.3-.66,4.57-1.41,6.89-2,1.83-.47,3.71-.78,5.57-1.14a6.53,6.53,0,0,1,1.07,0c-.19.24-.24.37-.33.4l-3.73,1.27c-1.4.48-2.84.88-4.19,1.46a10.44,10.44,0,0,0-2,1.56c2.27.76,2.56,2.25,2.23,4.13-.21,1.2.29,1.59,1.57,1.46.39-1.22-1-2.8,1-4l1.49,3.59c1.6-.49,3.64-.26,4.9-2.08a1,1,0,0,1,.87-.16c2.09.63,4.08,0,6.16-.34V24.52c.89.85.72,1.77-.3,2.09-1.34.42-2.7.77-4,1.25a11.6,11.6,0,0,0-1.77,1l.16.45,13.29-3L40.95,25l.31,0,.6,1,15.52-1.94.07.32a7.9,7.9,0,0,1-2.18.63c-2.74,0-5.23,1.05-7.82,1.65-6,1.39-12.08,2.71-18.07,4.22-2.7.68-5.29,1.78-7.95,2.64-1.21.39-2.46.66-3.69,1a17.34,17.34,0,0,0-2.72.81c-1.84.85-1.92,1.2-1.07,3a1.27,1.27,0,0,0,0,2.21c1.84.9,3.69,1.79,5.53,2.7.77.38,1.52.81,2.29,1.21.07,0,.14.11.21.13,3.08.56,6.16,1.09,9.23,1.69a8.69,8.69,0,0,1,1.48.53l.44.06c1.58.21,3.17.4,4.75.66l2.34.21a7.91,7.91,0,0,1,1,.24,1.68,1.68,0,0,1-.1.23c.63.16,1.24.34,1.85.55a2.17,2.17,0,0,1,.53.26c-.63-.73-1.45-1.32-2.09-2C40.63,46,39.94,45,39.17,44c-.38-.48-.8-.92-1.32-1.51.35-.82-.56-2.57-1.82-3.22l-.76,1.58,2,1.48c-1.28.81-3.82-.36-5.65-2.29l.71-1.17-1.26-1A14.17,14.17,0,0,0,32.81,37C37.05,33.91,42,33.3,47,32.82c2.45-.24,4.94-.15,7.38-.43,4.87-.56,9.73-1.29,14.59-1.91a16.71,16.71,0,0,1,2.56,0c.24,0,.52.13.73.06,4.3-1.57,8.88-.89,13.29-1.69a63.5,63.5,0,0,1,9-.52c2-.07,4,0,6,0,0,0,.1,0,.12,0,1.19-1.36,2.73.25,4-.45a1,1,0,0,1,.84,0,2.41,2.41,0,0,1,.54.44h1v0a11.83,11.83,0,0,1,2.74-.59c1.87.07,3.73.35,5.6.53.3,0,.66.16.9,0a2.63,2.63,0,0,1,3,.11,11.82,11.82,0,0,1,2.14-.57c4.16-.22,8.32-.39,12.47-.59h.1a11.71,11.71,0,0,1,3.58,0h.09l1.91.14a2.14,2.14,0,0,1,.5-.06c4.57,0,10.73-1.85,14.57.74h1a1.85,1.85,0,0,1,1.9,1.59,1.63,1.63,0,0,1,.35,1.15c-.17,1.75-.12,3.52-.43,5.24a12.4,12.4,0,0,1-.77,4.81,74.06,74.06,0,0,1-3.31,7.85,10.62,10.62,0,0,1-9.19,6c2.16-1.31,4.69-2.17,6-4.85-6.13,2-12.12,3.87-18.5,3.63l-.1-.41,4.75-.8a59.14,59.14,0,0,1-8.92-.46l-.4,0a5.94,5.94,0,0,1-.89,0,23.44,23.44,0,0,0-8.34.84A26.72,26.72,0,0,0,115.56,54a7.08,7.08,0,0,1-1.75.31l-.21-.5L116,52.11c.1-.07.29-.06.33-.15A2.67,2.67,0,0,1,118,50.58l-.26,0-1.4-.16h-.24c-5.15,0-10.31.34-15.39-1-2-.54-4.06-.7-6.07-1.13-1.24-.26-2.44-.72-3.67-1.05-1.07-.29-2.16-.49-3.23-.77s-2.18-.63-3.27-.94l.06-.31,3.65.57c0-.09.05-.17.08-.26l-10.33-3.5-.09.19,3.3,1.59c-3.31.52-15-5.53-19.27-9.75.43-.92,1-.59,1.54-.15l.45.36a1.86,1.86,0,0,1,.63-1.42c-5.72,1.16-11.54,1.9-17.3,2.91a16.56,16.56,0,0,0-3,1.18s.06.28.15.6c-.81-.46-3.06-.37-3.4.33a4.15,4.15,0,0,0-.25,2.56,25.21,25.21,0,0,0,1.56,4.8,12.26,12.26,0,0,0,2,2.65q1.62,1.92,3.33,3.77a2.33,2.33,0,0,0,1,.54Q55.26,54.48,62,56.82a1.66,1.66,0,0,1,1,.61,26,26,0,0,1-3.56-.61c-3.23-1-6.45-2-9.6-3.22a12.41,12.41,0,0,1-5.55-3.66,2.3,2.3,0,0,1-.2,1.91C49.85,53.46,55.4,56,61,58c0-.12,0-.24,0-.36a37.1,37.1,0,0,1,4,0,19.7,19.7,0,0,1,7.05,2.5,3.13,3.13,0,0,0,1.29.16c.37,0,.78-.15,1.1,0,1.64.58,3.36.11,5,.48a39.56,39.56,0,0,0,5.39.77c7,.54,14,1,21,1.5.86.06,1.73,0,2.59.11.3,0,.58.36.86.56l.06.23,2,.35c0,.16,0,.32,0,.48a10.49,10.49,0,0,1-1.29.24c-.23,0-.47-.2-.7-.2-.66,0-1.16-.64-2-.34l.82.31a9.36,9.36,0,0,1,4.11,2.82q0-4.42.08-8.83a13.5,13.5,0,0,1,.34-2.7,10.49,10.49,0,0,1,.82-1.82l2.16,3.94-1.28.23v12.8c3-1.48,6.13-.72,9.12-.75,7-.09,14,0,20.93.08a3.15,3.15,0,0,0,1.47-.24l-5.17-.69c0-.17,0-.33.05-.49l8.27.58-1.28.56c0,.12,0,.24,0,.36,2.47.12,5.08-.42,7.13,1.41.74-1.37,1-5.72.51-7.69l3.16.67c0,.31,0,.71,0,1.11-.1,1.71-.1,1.74,1.66,1.61l1.11-.09.49-.24c5.13-2.29,10.83-3,16.37-3.53,3.58-.36,7.21-.53,10.8-.88a4.1,4.1,0,0,1,2.32-.26l1.65-.23c1.16-.71,2.56-.75,3.76-1.33l.16.28-.53.39,1.4-.35c.17-.11.33-.32.49-.31a5.4,5.4,0,0,0,.68,0c5.4-1.59,10.45-4.05,15.67-6.26a64,64,0,0,1,7.53-2.81A17,17,0,0,0,226.63,48l-1.53-.53,2.67-.83-1.38-.55L229,43.24l-.18-.25a5.32,5.32,0,0,0,.58-1c.2-.68.3-1.39.48-2.08,0-.16.25-.29.41-.4.51-.35,1-.68,1.81-1.2.15-.34.29-.69.45-1L231.19,37c-3.71-.67-7.45-1.15-11.17-1.74-2.85-.45-5.7-.91-8.54-1.41a7.33,7.33,0,0,1-1.54-.64c-.19-.08-.35-.26-.54-.27-1.69-.1-3.38-.13-5.07-.25l-1.85-.13a5.37,5.37,0,0,1,2.79,5.47c0,.15,0,.29-.06.44l.55-.52a1.38,1.38,0,0,0,.37-.93c0-.78-.13-1.55-.22-2.42,1.36-.11,1.9.31,2,1.47a4.72,4.72,0,0,1-1,3.47,3.14,3.14,0,0,0-.44.6c-1.75,3.58-4.69,5.41-8.05,6.62a23.09,23.09,0,0,1-2.49,1.07c-4.13,1.5-9.28,2.48-13.61,1.24a2.05,2.05,0,0,1-1-.69c-2.52,3.77-6.06,6.69-9.79,9.44a2.62,2.62,0,0,1-1.4.33c2.67-3.58,7.23-5.4,8.78-10.14l1.07,1.77c.33-1.81.6-3.28.85-4.75.44-2.6.85-5.2,1.29-7.8a7.19,7.19,0,0,0,.26-1.07,4.23,4.23,0,0,0-.21-1.54,11.45,11.45,0,0,0-1-1.66l.78-.12a2,2,0,0,1,.58-2q-8.07-.43-16.17-.41a33,33,0,0,1-4-.62c-.31,0-.67.21-1.12.36l.31-1.89c.56,1.64,1.74,1.2,2.79,1.21,3.75,0,7.5.1,11.25.15l.12,0c1.81,0,3.61-.13,5.42-.08,2.19.07,4.38.27,6.57.42,7.16.49,14.32.93,21.48,1.5A35,35,0,0,1,214,32.67c.2,0,.42.17.59.12,2.71-.66,5.33.14,8,.5,5.27.73,10.55,1.43,15.8,2.23,4.39.67,8.76,1.47,13.14,2.25,1,.17,1.91.49,3,.78l-1.39,1.64.91,1.15c-1,2.31-7.75,5-10,4L244,45c1.67-.74,3.34-1.5,5-2.22.6-.26,1.28-.37,1.86-.66a1.24,1.24,0,0,0,.56-.84c0-.16-.42-.41-.69-.57a1.48,1.48,0,0,0-.6-.13c-.9-.08-1.8-.18-2.69-.31a1.86,1.86,0,0,1-.65,2.72,14.84,14.84,0,0,1-4,1.45,2,2,0,0,1-1,.73,16.75,16.75,0,0,1-9,.5,1.72,1.72,0,0,1-.49-.16,2.11,2.11,0,0,1-2,0,25.79,25.79,0,0,1-5,6c3-.41,5.72.32,8.56,1.11a2.22,2.22,0,0,1,.81-1.15,6.63,6.63,0,0,1-2.27-.62c-.53-.26-1.4.21-2.12.31a7.39,7.39,0,0,1-1,0c0-.17,0-.33,0-.5,1.49-.16,3-.29,4.47-.48l4.36-.53c3.2-1.15,6.74-1.21,10.19-1.29l2-.29c2.05-.3,4-1.21,6.06-1.52,2.26-.33,4.12-1.56,6.2-2.27.29-.1.66.08,1,.08s.6,0,.66-.14c.73-1.58,2.36-1.47,3.65-1.84.66-.19,1.2-.35,1.69-.53,1.08-.64,2.14-1.31,3.16-2-.59-1.85-2.28-2.23-3.83-2.69-5-1.49-10-2.92-15-4.38-.07,0-.11-.1-.4-.34a6.16,6.16,0,0,1,1.33-.17c.6.07,1.21.26,1.81.38,2.09.41,4.22.69,6.27,1.25,2.34.63,4.61,1.48,6.9,2.28.85.3,1.66.74,2.5,1.07,2.48,1,4,.21,4.6-2.39.25-1,.35-2.12.54-3.17.08-.47.21-.94.33-1.48,2.13.76.88,2.46,1.24,3.74a7.82,7.82,0,0,0,.92-1.73,6.62,6.62,0,0,0,.23-.85,1.48,1.48,0,0,1,.05-.24,2,2,0,0,1,0-.23A8.09,8.09,0,0,0,280.24,30ZM26.32,21.59l1.14,3.24C25.9,24.11,25.32,22.54,26.32,21.59Zm7,2.34V22.46l.35-.11,1.17,1.23Zm7.44-.41-.43-.13.47-1.63,1.07.84Zm9.8,20.71c-.13-1.87-1.27-3.74-.08-5.71C51.4,39.46,51.47,42.71,50.52,44.23Zm3,.66-.54,0c-.13-1.67-.31-3.33-.37-5,0-.32.45-.65.69-1l.51.14C54.12,41,53.44,42.94,53.5,44.89Zm2.58-.68c-.9-2-.77-3.49.34-4.45C57.45,40.55,57.37,41.78,56.08,44.21Zm2.39,2.68V44.1l.32-.23c.26.23.76.52.73.68C59.32,45.36,59.67,46.45,58.47,46.89Zm3.16-.74c-.23-.8-.62-1.67.56-2.54.24.84.47,1.51.6,2.21,0,.19-.22.61-.36.62S61.67,46.33,61.62,46.15Zm.73,2.71-.68-1.72.66-.21c.15.59.3,1.19.46,1.78Zm57,7.46c-.34,2.53-.55,5.08-.83,7.62a.85.85,0,0,1-.43.58A38.54,38.54,0,0,1,117.76,54C119.16,54.52,119.56,55.17,119.4,56.33Zm2,6.06c-.06.61,0,1.23,0,1.84a3.23,3.23,0,0,1-.27.78c-.18-.23-.49-.46-.51-.7-.17-2.24-.37-4.49-.37-6.73,0-1-.28-2.21,1.27-3.12a6,6,0,0,1,.52,1.8C121.9,58.3,121.63,60.34,121.44,62.38Zm4.11-6.67c-.19,1.71-.46,3.42-.76,5.12a4.74,4.74,0,0,1-.55,1.16l-.4-.08V54.44C125.24,54.11,125.68,54.41,125.54,55.72Zm91.21-5c.13,1.52-.1,1.66-1.83,1.21ZM190,58.92a37.94,37.94,0,0,1,6.25-1.24,16.72,16.72,0,0,0,4.27-.74l13.54-4.17c.42-.13.85-.21,1.27-.31,0,.13.06.26.1.39-8.21,4.8-17.47,5.39-26.5,6.93l-.13-.46A10.54,10.54,0,0,1,190,58.92Zm-2,.44c0,.2.06.39.09.59l-5.95.82-.09-.51ZM153.46,64.3c-1,.76-4.34.3-5-.81Zm-21.28.12c-.33-.1-.8-.09-1-.31-1.61-2.31-3.07-4.7-2.59-7.71a12,12,0,0,1,.66-1.84c1,1.65,1.89,2.79,1.52,4.53a5.66,5.66,0,0,0,1.3,4.37C132.26,63.69,132.16,64.1,132.18,64.42Zm.35.27,3.44.63C134.6,66.29,134.2,66.23,132.53,64.69Zm7.18,1.51c2.48-1,4.92.13,7.41.27s4.94.11,7.4.27C152.31,68.27,141.81,67.76,139.7,66.2Zm14-3.87c0-.19,0-.37,0-.56,2.14.1,4.33-.73,6.42.36,0,.18,0,.36,0,.53ZM164,62.24c-1.28.76-2.61,1.44-3.94,2.12a1.15,1.15,0,0,1-1.09-.07l6.27-4.14-8.64-.82c0-.16,0-.32,0-.48,2.6-.08,5.2-.19,7.8-.22a1.48,1.48,0,0,1,1,.64,1,1,0,0,0,1.56.37c.71-.38,1.43-.75,2.14-1.12l.24.42C167.6,60,165.82,61.17,164,62.24ZM176.1,49.89c-3.59,2.85-9.24,2.54-12.21,1Zm-3.36,3.51c-2.16,1.1-8.71,1.06-10.47,0C165.76,53.23,169.25,52.57,172.74,53.4Zm-9.54,2.77c1.63,0,3.27,0,4.9,0a9,9,0,0,1,1.28.19c0,.11.06.23.1.34-.39.22-.76.61-1.16.63a24,24,0,0,1-4.32-.05A9.83,9.83,0,0,1,160.77,56C161.58,56,162.39,56.16,163.19,56.17Zm88.69-23.53L249,32l.09-.41,2.88.67Z"/><path d="M185.05,2.82c1.83.14,3.68.19,5.49.45,2.23.32,4.43.84,6.65,1.22.3.05.68-.3,1-.25,1.36.26,2.71.59,4.06.9l.59.13c.95.17,1.9.34,2.85.48a5.44,5.44,0,0,0,.65,0l1.72.06-.2.15a11.54,11.54,0,0,1-3.23.33c-1.9-.35-3.72-1.17-5.65-.05l1-.57c-.65-.28-1.29-.57-2-.84-.09,0-.26.11-.4.17.08.11.14.28.24.33s.5.15.65.57l-2.27-.51-1.1.69c0-.44.06-.59.09-.8l-2.18.39L193,5.38l1.55-.94L190.16,4l-1.07-.1-1-.06.17.58,2.46.53c0,.14-.06.28-.08.43L187.41,5l-2-.36L178.63,4l.11-.74.88-.14c0-.1,0-.19,0-.28l-2,.06L178.11,4l-3.35-.23c-1.5-.11-3.18.12-4.46-.42-2.69-1.14-5.56,0-8.21-.95-.47-.17-1.12.13-1.68.1-1.2-.08-2.39-.23-3.68-.36,0,.24,0,.32.05.35s.13.08.09.05c-1.34,0-2.79,0-4.24-.09-.93,0-1.85-.26-2.79-.3-1.13,0-2.27,0-3.4,0-1.84,0-3.69,0-5.53,0a5.22,5.22,0,0,1-1.21-.44l-1,.14.91.13,0,.19a4.3,4.3,0,0,1-.81.13c-3.5-.12-7-.29-10.49-.36-2.15,0-4.3,0-6.44.14-3.17.14-6.33.36-9.5.5-2.62.12-5.25.13-7.87.27-1.1.06-2.17.39-3.27.49a8.83,8.83,0,0,1-1.71-.13c-2.29.22-4.41.46-6.54.62s-4.07.2-6.1.34A14.58,14.58,0,0,0,85,4.61a1,1,0,0,0-.6-.14c-1.31.17-2.61.46-3.93.63C76.72,5.55,73,6,69.25,6.38c-2.94.29-5.89.39-8.83.66-2.22.2-4.43.52-6.64.83-2.46.35-4.91.74-7.36,1.13-1.11.18-2.31.73-3.3.5-1.37-.32-2.2.68-3.43.63s-2.73.39-4.11.42c-2.65.07-4.93,1.15-7.31,2-1.51.53-3.06,1-5.07,1.59L24,12.84a.32.32,0,0,0-.22-.06c-1.7.44-3.4.88-5.08,1.36-1.36.39-2.7.82-4,1.27a11,11,0,0,0-1.93.81C10.21,17.63,7.63,19,5.25,20.59a19.06,19.06,0,0,0-2.9,3.06,1.78,1.78,0,0,1-.55.26c-.07-.17-.23-.36-.19-.5a13.44,13.44,0,0,1,.88-2.17,12.62,12.62,0,0,1,6.66-5.68,3.57,3.57,0,0,1,.76-.16,10.42,10.42,0,0,0,1.88-.26c1.51-.51,3-1.13,4.47-1.69s3-1.13,4.52-1.65c.7-.24,1.44-.39,2.27-.6l.13.35,1.67-1.21,2.7.24-.45-.23c1.19-.17,2.5-.31,3.78-.54,2.2-.4,4.39-.89,6.6-1.26,1.56-.26,3.15-.35,4.72-.57,2.32-.34,4.63-.72,6.94-1.1,1.5-.24,3-.47,4.48-.77.34-.07.76-.59.93-.51,1.84.86,3.41-.44,5.13-.43.18,0,.36.17.53.25l2.11-.35,0-.22,4.42-.56L66.66,4,75,3.12c0,.38.07.65.1.92.19-.16.35-.4.58-.46a11.75,11.75,0,0,1,1.76-.33q1.75-.2,3.52-.34c1.06-.08,2.12-.1,3.18-.17.36,0,.72-.13,1.08-.12a10.83,10.83,0,0,1,1.22.18,1.7,1.7,0,0,0,.4,0c2.55-.27,5.09-.57,7.64-.79,1.6-.14,3.21-.14,5.06-.21.1,0,.47-.09.83-.19s.87-.28,1.3-.42L100.3.72c1.52-.26,2.94-.51,4.36-.72.06,0,.18.27.13.19l4.74.09.06.14-7.19.72c0,.16,0,.32.06.48,1.22-.1,2.44-.29,3.65-.27,1.58,0,3.15.23,4.73.28a1.07,1.07,0,0,0,.89-.76l-2.09.24c.62-.46.91-.86,1.21-.87,2.1,0,4.21,0,6.32.07.41,0,.92.4,1.21.28,2-.8,4-.08,6-.22s3.91,0,5.86,0c2.49,0,5-.1,7.48-.12.56,0,1.13.2,1.68.17A14.45,14.45,0,0,0,141.2.14c.31.27.51.58.71.59,5.32.1,10.64.1,16,.27,2.31.07,4.6.52,6.92.68,1.7.12,3.41,0,5.1.1a15.25,15.25,0,0,1,2,.51,10.08,10.08,0,0,0,1.28,0c1,.06,1.95.19,2.92.19,1.88,0,3.77-.14,5.65-.1a30.06,30.06,0,0,1,3.35.43l-1.81,1,.26.51,2-.6ZM114.27,1v.33l5.13.1V1.14Z"/><path d="M36.74,34.46l0-.26a19.79,19.79,0,0,1,2.52-.84c1.09-.21,2.22-.22,3.33-.37,2.31-.3,4.6-.65,6.91-.94a9.13,9.13,0,0,1,1.29.14c1,0,1.92,0,2.88,0,.23,0,.44-.28.3-.18l4.6-.45c.7-.07,1.4-.16,2.1-.25,1.42-.18,2.85-.36,4.27-.57s2.6-.51,3.91-.65a6.06,6.06,0,0,1,1.72.32c.13,0,.32.14.37.1,1.47-1.25,3.48-.53,5.15-1.12A10.88,10.88,0,0,1,79,29.3c.83,0,1.67-.15,2.49-.27,1.12-.16,2.23-.37,3.35-.52.25,0,.53.15.79.14q1.88-.07,3.77-.2c1.56-.11,3.12-.27,4.69-.34.25,0,.52.38.63.47l2.59-.8c1,.16,1.88.31,2.77.41a4.92,4.92,0,0,0,.28-.86l2.13.57a11,11,0,0,1,1.9-.32,1.75,1.75,0,0,1,1.05.56.68.68,0,0,1-.1.73,3,3,0,0,1-1.22.35c-1.41.12-2.83.2-4.24.27-2.09.1-4.17.17-6.26.26-.47,0-.92.14-1.39.15-.86,0-1.72,0-2.41,0a3.15,3.15,0,0,1-1,.47c-1.76.08-3.53.13-5.29.1-.37,0-.77-.54-1.11-.5a18.73,18.73,0,0,0-3.18.68l-1.64.08.1.32c-.23.12-.46.33-.7.33-2.34,0-4.69-.07-7,.08-1.71.1-3.39.53-5.09.78-.4.06-.82-.06-1.22,0-1.43.21-2.86.46-4.29.68-2.61.41-5.23.75-7.82,1.23-1.94.36-3.84.89-5.77,1.33a2.44,2.44,0,0,1-.73-.07l-.17.78-2.7.22.63.84-.29.13c-1-1.5-1.93.15-2.95,0-.77-.09-1.06,1.84-.64,2.83.63,1.49,1.1,3,1.62,4.56,0,.1-.12.25-.15.3.65.83,1.19,1.64,1.86,2.35,1,1.08,2.13,2.08,3.17,3.14a2.56,2.56,0,0,1,.35.78c.06.13.1.33.21.38,1.81.77,3.61,1.56,5.47,2.25,1.29.48,2.65.8,4,1.22,2.4.76,4.77,1.58,7.18,2.28,1.48.43,3,.65,4.51,1a8.38,8.38,0,0,1,1.44.77c.35.17.74.27,1.09.44s.91.47,1.36.71c.11.06.24.17.34.16,1.28-.22,2.57-.59,3.77.91l-.24-1L84,61.73a197.86,197.86,0,0,0,24.28,1.5l-.36.91a15.62,15.62,0,0,1,1.68,0,3.43,3.43,0,0,1,.88.38c-.28.24-.62.71-.83.66a23.31,23.31,0,0,1-2.54-.78l-1.28-.39.7.9c-1.83-.28-3.42-.53-5-.74-.17,0-.38.22-.45.69-1.23-.15-2.46-.35-3.69-.44-1.55-.11-3.12-.06-4.67-.22-2.93-.31-5.85-.71-8.77-1.09-2.29-.29-4.57-.6-6.86-.91l-.16,0c-2.58-.53-5.16-1.06-7.74-1.6-1-.22-2.08-.48-3.17-.73v-.62a7.16,7.16,0,0,1-1.33.08c-1.2-.17-2.4-.37-3.58-.6a9.61,9.61,0,0,1-1.47-.44.46.46,0,0,1-.16-.36.92.92,0,0,1,.49-.18c.73,0,1.45,0,2.17,0,0-.13,0-.27,0-.4L58.76,57a1.12,1.12,0,0,1-.24,0L54,55.39c-.25-.09-.53-.1-.78-.19-.9-.32-1.79-.67-2.7-1a28.38,28.38,0,0,1-3.42-1.12,30.65,30.65,0,0,1-3.21-2.05c-.22-.14-.55-.19-.7-.36a10.72,10.72,0,0,1-.81-1.21c-.13-.21-.23-.6-.35-.61-1.48,0-1.38-1.47-2.24-2.07a8.62,8.62,0,0,1-1.77-1.93c-.33-.43-.43-1-.77-1.44A8.22,8.22,0,0,0,36,42.38l.61-.42c-.55-.9-1.1-1.83-1.7-2.72-.1-.15-.45-.14-.69-.21-.08.25-.15.51-.26.75s-.21.4-.46.86c.49.41,1.08.88,1.64,1.38.13.12.14.36.2.55-.29.08-.64.28-.87.2a14.76,14.76,0,0,1-1.31-.72c-.42-.2-.89-.32-1.7-.6l-.83-.66.11-.1-.87-.78a4.93,4.93,0,0,0,.78-1.12c.05-.13-.49-.47-.79-.68a4.08,4.08,0,0,0-.57-.31c1.39-.72,2.79-1.41,4.15-2.17.16-.09.09-.52.12-.8Z"/><path d="M32.22,26.07c-1.76.52-3.53,1-5.26,1.59a4.85,4.85,0,0,0-1.38,1c-.06,0,.08.41.14.41.39,0,.91.13,1.14-.05,1.23-1,2.66-.87,4.12-.83.36,0,.74-.4.85-.46l7.49-1.68c0-.28-.1-.78-.17-1.27l.61-.08L40,25.79l16.48-2.08c-2.6,1.49-5.23,1.08-7.7,1.47l.16.45L26.47,30.84a4.25,4.25,0,0,1-1,.59c-1.85.57-3.88.82-5.53,1.69-2.08,1.09-4.47,1-6.55,1.81a8.84,8.84,0,0,0-2,1.37c-.11.08,0,.45.08.65.2.44.46.85.69,1.28l-.92.28a5.28,5.28,0,0,0,.51,1.74c.2.28,1,.19,1.39.4.93.47,1.78,1.06,2.7,1.55s2,1,3.23,1.6l0-.1,1.31.94a1.41,1.41,0,0,1,2.17.39c.17.22.68.25,1,.33,1.25.26,2.49.57,3.75.74.84.12,1.72,0,2.58.07a.88.88,0,0,1,.69.42l-1.15.18,7,.64,0-.14,3.2.53c-1,2.09-2.9.91-4.34,1a22,22,0,0,1-5.12-.45c-2.93-.53-5.83-1.19-8.72-1.88-.52-.12-.92-.64-1.47-1-5.45-1.41-10.73-3.87-16.14-6-.19-.08-.19-.55-.29-.91a12.47,12.47,0,0,0,1.2.54,2.4,2.4,0,0,0,1.44,0L4.47,37.56A15.66,15.66,0,0,1,1.6,35.05a11.09,11.09,0,0,1-1-3.2c-.12-.4-.29-.78-.4-1.17a2,2,0,0,1,.38-2.2c.38-.39.26-1.17.44-1.76.06-.17.35-.29.52-.43.08.18.25.36.24.54a15.28,15.28,0,0,0-.11,3.31,8.27,8.27,0,0,0,1.4,3,47,47,0,0,0,3.17,4,3.15,3.15,0,0,0,1.25.64,1.87,1.87,0,0,0,.68,0A4.79,4.79,0,0,0,8,37.17c-.35-.86.44-1.74,1.84-2-.23-.78-.23-.78-3.19-.81L8.5,33,9,32c-.05-.53-.15-1.34-.21-2.14-.09-1.27-.23-2.55-.21-3.83a34.5,34.5,0,0,1,.35-3.79c0-.18.35-.41.58-.48,1.43-.43,2.88-.8,4.31-1.23s2.55-.85,3.85-1.2a4.12,4.12,0,0,1,1.31.1c.07-.11.2-.58.42-.61,1.38-.22,2.77-.35,4.16-.51,0,.16,0,.32,0,.48l-2.37,0,1.08.51-4,1.1c-1.93.45-3.76,1.13-4.89,2.82,2.05.76,2.48,1.58,2.15,4-.19,1.42.42,2,1.77,1.71a25.93,25.93,0,0,1-.28-3.09c0-.31.57-.61.88-.92a7.18,7.18,0,0,1,1.09,1.56,10.13,10.13,0,0,1,.34,2.1l1.48-.33c.26-.06.52-.12.77-.19a16.69,16.69,0,0,0,2-.65,2.73,2.73,0,0,0,.84-.8c.15-.17.21-.57.31-.56a6.33,6.33,0,0,1,.94.23,11.93,11.93,0,0,0,1.81.26,8.81,8.81,0,0,0,1.57-.2l2.7-.44Zm-16,6.13c.8-.25,1.58-.54,2.4-.74.44-.11,1,.06,1.39-.08,1.52-.48,3-1,4.5-1.56l.93-.36c-.31-.33-.67-1-.93-.93-1.89.21-3.84.34-5.2,1.84-.11.13-.52,0-.78.07a7.38,7.38,0,0,0-2,.52c-.27.15-.19.82-.27,1.26l-.84-.42c-1.67.33-3.6,0-4.61,1.41.07.18.14.36.2.54Zm-4.71-6.46c-.48.5-1.13.86-1.19,1.31a12.33,12.33,0,0,0,.05,3.1c0,.22.54.49.88.56.15,0,.54-.33.6-.56a13.56,13.56,0,0,0,.5-2.67,30.53,30.53,0,0,0-.14-3.18h-.39l1-1.15-.21-.35c-.65.25-1.32.48-1.93.79-.08,0,.08.48.06.4l-.33,2Zm1.55,3.44c0,.13,0,.25,0,.38l1.39-.09-.25-1.95L13,28l1.09.88Zm1-2c0-1.1,0-1.79.06-2.77l-.86,1.08Z"/><path d="M161.6,29.48l6.2-.45c0-.17,0,0,0,.35a6.62,6.62,0,0,1,1.27-.37c.28,0,.58.23.88.24.8,0,1.62,0,2.42,0s1.76.15,2.64.23c.1,0,.21.07.3.05L178,29c0,.17,0,.33,0,.5l4.3-.1-.39.56c1.08-.07,2.07-.2,3-.18,1.92.05,3.83.19,5.74.3,1.38.08,2.76.16,4.14.27,1.19.1,2.37.25,3.55.36.82.07,1.65.1,2.48.14,2.38.13,4.76.19,7.13.39a42.22,42.22,0,0,1,4.58.73,8.19,8.19,0,0,1,1.54.65.39.39,0,0,0,.23,0c2.59-.76,5.1,0,7.63.37s4.94.78,7.41,1.12c2.85.39,5.71.67,8.55,1.1,1.49.22,2.94.66,4.41,1a3.81,3.81,0,0,0,1-.08c3.62,1.25,7.81.87,11.32,2.36-.62.65-1.17,1-1.37,1.53-.09.22.52.67,1,1.21a4.47,4.47,0,0,1-1,1.43,18.82,18.82,0,0,1-3.15,1.57,15.89,15.89,0,0,1-2.71.89,21.42,21.42,0,0,1-2.86.37c-.16,0-.35-.23-.53-.36a2.77,2.77,0,0,1,.53-.48c.65-.35,1.31-.69,2-1s1.58-.69,2.39-1,1.65-.5,2.42-.84c.23-.1.49-.64.4-.79a1.53,1.53,0,0,0-1-.64c-1.71-.19-3.44-.27-5.15-.44a8.84,8.84,0,0,1-1.19-.41c-1.37-.35-2.74-.72-4.12-1-1.72-.33-3.46-.51-5.17-.84s-3.18-.77-4.77-1.14a4.15,4.15,0,0,0-1-.07c-.24,0-.62.16-.7.08-.74-.83-1.71-.26-2.55-.41-3.94-.69-7.86-1.44-11.8-2.14-1.27-.22-2.55-.33-3.83-.5a.75.75,0,0,1-.49-.22c-.78-1.26-1.77-.42-2.94-.39-1-.89-2.32-.54-3.75-.4a18.4,18.4,0,0,1-3.31-.42c-2.36-.22-4.73-.37-7.1-.6-2.15-.21-4.28-.57-6.44-.7-3.66-.22-7.33-.34-11-.45-2.48-.08-5-.07-7.44-.11-1.9,0-3.79-.06-5.68-.16-.26,0-.5-.42-.74-.64Zm83.12,8.37-.07-.2c-1.27-.21-2.53-.49-3.81-.58a5.68,5.68,0,0,0-1.76.47l.14.2Z"/><path d="M113.87,73l-1.56,2.4c-.16-.23-.65-.66-.74-1.14a27.7,27.7,0,0,1-.52-4.43c0-2.51,0-5,.15-7.54.12-2.23.35-4.46.63-6.67.05-.41.6-.76.93-1.13.18.33.36.66.52,1,.09.18.1.39.2.56.4.67.81,1.33,1.41,2.32-2-.32-1.35.51-1.34,1.12,0,1.15-.09,2.3-.09,3.46,0,1.93,0,3.86,0,5.79,0,.6-.17,1.19-.17,1.79a3.64,3.64,0,0,0,.29,1l1.29-.57-.12-.38,31.45.18c.06,0,.13-.18.2-.29-1.12-.1-2.19-.19-3.26-.31s-2.12-.28-3.18-.42l.07-.48,8.31.64c0,.07,0,.13,0,.2a3.2,3.2,0,0,0-.81.05,4,4,0,0,0-.76.43c.24.12.48.33.71.33,1.32,0,2.64-.16,3.94-.11.47,0,.9.51,1.38.72s1.19.4,1.78.6a6.63,6.63,0,0,0,.36-1.36c.09-1.75.15-3.5.17-5.25,0-.28-.23-.57-.48-1.11l1.47.42.61-.37-.1.72,1.47-.21c-.08.92-.18,1.83-.2,2.75,0,.1.45.31.68.29,3.42-.25,6.84-.53,10.25-.81.68-.06,1.35-.15,2-.19,1.15-.06,2.31-.09,3.7-.14-5.21,1.33-10.54,1.17-15.45,2.8l.5-.92c-.93.32-2,.43-2.11.79-.29.89-1.18,1.91.27,2.88.54.36.59,1.42.67,2.18,0,.21-.62.56-1,.7-.59.2-1.24.3-.9-.66.07-.19-.1-.45-.22-.95l-1.55,1.91-.51-.06.46-2.44c-2-.18-4.3-.41-6.57-.56-2.73-.18-5.47-.34-8.21-.4-1.9,0-3.8.1-5.7.17a63.29,63.29,0,0,0-8.71.44c-2.43.44-5.14,0-7.33,1.66-.6.46-2,.11-3,.13h-.47l-1-1.23.12-.26.77.21-.07-.3,9.28-1.34a30,30,0,0,1-3.61-.38c-1.88-.46-3.37.57-5,.88l-1.59.27Z"/><path d="M248.51,49.48c-.48.28-.72.53-1,.56-1.4.19-2.8.33-4.21.48s-2.53.24-3.79.4c-.67.08-1.31.32-2,.38a4,4,0,0,1-1.18-.29c-.79,1.63-2.08-.36-3.15.11-1.18-1.27-2.59.21-3.92.09,0-.21,0-.41-.05-.61,3.84-.38,7.7-.69,11.53-1.16,3.66-.44,7.3-1,10.95-1.58l-.14-.27c1.28-.21,2.55-.37,3.78-.63.57-.12,1.07-.5,1.64-.64.8-.2,1.65-.22,2.44-.43.35-.09.61-.44,1-.76l3.31-1.29-.17.71,1.49-.62-.71-.46c.65-.18,1.13-.29,1.59-.46s.72-.38,1.1-.5a13.22,13.22,0,0,1,1.64-.37c.31-.06.72.07,1-.06A24.44,24.44,0,0,0,274,39.14l-1.07.35c-.25-.47-.39-1.22-.85-1.47a26.79,26.79,0,0,0-3.47-1.36c-.37-.14-.74-.27-1.11-.38-2.35-.73-4.71-1.45-7.06-2.19-.94-.3-1.85-.65-2.79-1a3.64,3.64,0,0,0-.53-.07l-3.36-.62.06-.42a7.67,7.67,0,0,1,1.65.05c1.79.44,3.55,1,5.36,1.43,1.1.25,2.52-.08,3.36.43,1.38.84,2.92.91,4.35,1.42s2.72,1.14,4.09,1.7c2.1.87,3.75.37,4.43-1.63a34.18,34.18,0,0,0,.91-4.9,3.27,3.27,0,0,1,.28-.65,3.91,3.91,0,0,1,.54.36c.25.23.46.49.66.71-.08,1-.16,2-.23,2.95l1.08-.05A11,11,0,0,1,279.7,36c-.18.35-.78.52-1.31.85l.93.38-2.4,2.59a8.13,8.13,0,0,1-1,.81,19.18,19.18,0,0,1-1.76.84c-2,1-4.1,1.89-6.12,2.87-.44.22-.75.73-1.2.85-1.06.28-2.18.33-3.24.6s-2,.67-2.94,1l.29.12Z"/><path d="M112.43,149.19a24.71,24.71,0,0,1,3.3-1.41c2.57-.69,5.16-1.34,7.8-1.79,2.06-.35,4.19-.35,6.28-.54.88-.08,1.74-.28,2.62-.33.29,0,.6.27,1,.1l1.88.55a4.48,4.48,0,0,1-.89.35c-3.51.35-7.05.54-10.53,1.07a61.39,61.39,0,0,0-8,1.92,4.63,4.63,0,0,0-2.64,1.66,21.1,21.1,0,0,0-1.3,4.6c7.49-4.25,15.13-5.3,23.22-4.43-2.11.22-4.23.46-6.35.67-3.41.34-6.83.62-10,2-1.42.64-2.92,1.15-4.32,1.82-.73.35-.92,1.49-2.12,1.19a10.53,10.53,0,0,0-.05,1.11c.05.84.14,1.68.18,2.19a19,19,0,0,1,2-.87c2.6-.83,5.2-1.68,7.85-2.39a23.4,23.4,0,0,1,2.59,0c.7-.1,1.33-.6,2-.68,1.72-.19,3.45-.21,5.18-.37.67-.06,1.31-.29,2-.31-2.15,2-5.11.79-7.61,1.57-2.66.83-5.5,1.16-8.18,1.94a36.62,36.62,0,0,0-5,2.15c-.18.08-.21.38-.36.55-.29.32-.62.63-.93.93-.19-.39-.55-.78-.54-1.16.08-2.92.6-5.88.26-8.76s.69-5.63.24-8.28c6.62-4.39,14.07-4,21.49-3.76-.44.05-.87.12-1.31.15s-1,0-1.48.06c-4.53.71-9.1,1.29-13.57,2.25-1.34.29-2.49,1.55-3.52,2.55-.31.29.11,1.19.17,1.82a1.27,1.27,0,0,1-.12.44l-.45-.32-.49-.38a3.33,3.33,0,0,0-.22.61C112.5,148.16,112.48,148.65,112.43,149.19Z"/><path d="M67.05,37a3,3,0,0,1,1,.12,18.8,18.8,0,0,0,3.45,1.53c.71.32,1.41.7,2.15,1,1.64.58,3.31,1.1,4.95,1.66,2.41.83,4.81,1.7,7.23,2.53a19.59,19.59,0,0,0,3.15,1c1.5.25,3,.29,4.56.43.2,0,.54.09.57.19.32,1.21,1.45.93,2.35,1.15s2,.65,3,1c.15.05.3.16.44.15a16.33,16.33,0,0,1,3.18-.11l-1.05.61c.44.46.44.46,2.31-.94.34.42.65.85,1,1.24a.7.7,0,0,0,.57,0c.65-.27,1.28-.57,1.92-.86l.22.36-.42.44c1.54.17,3.07.42,4.61.46a11.39,11.39,0,0,0,2.2-.53,4.93,4.93,0,0,1,1.3,0c.38,0,.75.12,1.13.19.07,1.44-.32,1.78-2.5,1.79-3.2,0-6.41,0-9.6-.14a40.62,40.62,0,0,1-4.9-.95c-2.55-.47-5.13-.81-7.65-1.36-1.32-.29-2.53-1-3.84-1.36a24,24,0,0,0-3.43-.39l.29-.51-2-.19c0-.15.05-.29.07-.44l4.14.76-.12-.28.24,0L74.33,41l-.08.15c1.66.71,3.33,1.4,5,2.13.21.09.33.37.48.56a3.13,3.13,0,0,1-.68-.07c-2.08-.71-4.19-1.38-6.23-2.16a32.49,32.49,0,0,1-3.06-1.54c-1.15-.59-2.36-1.1-3.44-1.79S64,36.58,62.83,35.72c-.7-.53-1.38-1.06-2.07-1.59-.16-.12-.47-.32-.44-.36a1.44,1.44,0,0,1,.53-.61.78.78,0,0,1,.64.14c1.15.94,2.24,1.94,3.42,2.85A20.86,20.86,0,0,0,67,37.41C67,37.26,67,37.11,67.05,37Z"/><path d="M129.18,50c.31-.18.63-.53.92-.51,2.21.13,4.41.31,6.61.51s4.44.51,6.67.66a4.86,4.86,0,0,0,1.79-.49c2.11-.75,4.14-1.58,5.24-3.58.27-.5.8-1.26,1.22-1.26,2.4,0,1.7-1.7,1.95-2.82a45.5,45.5,0,0,0,1.14-6.3,15.89,15.89,0,0,0-.72-3.82,19.59,19.59,0,0,1-.28-2.34c0-.11.3-.35.43-.34A1.33,1.33,0,0,1,155,30a6.39,6.39,0,0,1,1.15,1.89,16.84,16.84,0,0,1,.72,3.75c.16,3.23-1,6.23-2.28,9.17a24.81,24.81,0,0,1-3.09,5.8c-1.25,1.59-3.92,3.54-5.59,3.69l-2.41.6-.08-.22a33.5,33.5,0,0,0,3.81-2,9.58,9.58,0,0,0,2.63-2.92c-1.9.58-3.78,1.19-5.69,1.74-1.24.36-2.5.67-3.75,1a21.32,21.32,0,0,1-2.81.66,6.5,6.5,0,0,0-2,.14c-.82,0-1.63.08-2.45.14-.59,0-1.17.15-1.76.19a2.66,2.66,0,0,1-.65-.11c.12-.17.21-.46.35-.48,1.82-.29,3.65-.54,5.47-.81.4-.06.78-.19,1.51-.37a6.34,6.34,0,0,0-1.69-.78,14.88,14.88,0,0,0-4.35-.09,2.52,2.52,0,0,1-2.86-1Z"/><path d="M112,170.48a38.79,38.79,0,0,1,24.2-4.52v.41c-1.23,0-2.47-.14-3.69-.05-2,.15-4,.33-6,.67a37.39,37.39,0,0,0-5.29,1.27,72.7,72.7,0,0,0-7,2.64,3,3,0,0,0-1.95,3.64,1,1,0,0,0,.71.63l-.08-.48c5.51-1.57,11.19-1.3,16.77-1.8l.06.53-10,1s0-.1,0-.15l-2.77.71c-1.39.36-2.79.69-4.16,1.11a14,14,0,0,0-2,1l.65-3.6c-.23-.6-.69-1.19-.65-1.75.2-2.74.52-5.48.83-8.21,0-.21.27-.41.41-.61a3,3,0,0,1,.15.65c0,.27-.11.54-.1.8,0,.43.11.85.17,1.28.31-.22.6-.46.93-.65a6.28,6.28,0,0,1,1.27-.64c2.32-.74,4.64-1.48,7-2.14,1.16-.33,2.38-.49,3.56-.76.18,0,.32-.24.51-.4.59.46,1.2.91,1.64-.16.05-.13.5-.15.77-.17a35,35,0,0,1,4-.32,10.55,10.55,0,0,1,3.61.81c-2.19.15-4.39.21-6.56.46-1.68.2-3.34.61-5,1s-3.4.67-5,1.18c-1.43.45-2.77,1.15-4.15,1.73-.64.27-1.28.54-1.94.78-1.73.64-.59,2-.87,3A6,6,0,0,0,112,170.48Z"/><path d="M115.59,78.13l-1.4-.12a16.25,16.25,0,0,0,.28,1.93.78.78,0,0,0,.64.36c2.14-.52,4.23-1.21,6.38-1.61a74,74,0,0,1,7.44-1,60.7,60.7,0,0,1,6.27-.14,6.67,6.67,0,0,1,2.7.74,43.17,43.17,0,0,0-4.65-.06c-3.59.32-7.19.7-10.75,1.24-2.29.35-4.53,1-6.79,1.55-1.33.31-1.76,1-1.19,2.06a1,1,0,0,1,.07.43c0,.34-.09.93,0,1a3.48,3.48,0,0,0,1.4.09c.61-.07,1.2-.27,1.8-.36,3-.44,6-.94,9-1.26a51.76,51.76,0,0,1,8.44-.22l-20.65,2.77c0,.19,0,.37,0,.56l1.8.13c0,.06,0,.12,0,.18-.28.06-.56.13-.85.17-.7.09-1.21.15-1.09,1.09.06.42-.71.92-1.36,1.68-.28-.82-.43-1.31-.61-1.78a6.22,6.22,0,0,1-.49-1.16,1,1,0,0,1,.41-.76c.53-.32,1-.52.34-1.17-.24-.26-.17-.81-.17-1.22,0-1.49,0-3,.16-4.45.05-.52.37-1.33.78-1.46a41.36,41.36,0,0,1,5.55-1.39c2.63-.46,5.28-.84,7.94-1.07a35.24,35.24,0,0,1,4.53.23,15.67,15.67,0,0,1,3.09.3c-1,.1-1.94.22-2.92.28-2.13.14-4.27.18-6.39.39-2.89.3-5.77.68-8.64,1.12-.47.07-.84.63-1.26,1Z"/><path d="M169.3,58.22a6,6,0,0,1,.66-.85c2.27-2,4.63-4,6.78-6.16a9.32,9.32,0,0,0,1.35-2.74,1.86,1.86,0,0,1,.27-.33c.12.11.29.21.34.34a10.13,10.13,0,0,1,.27,1h.56c.73-4.38,1.46-8.77,2.22-13.32,1.44-1.4-1.4-2.17-.87-3.58l.92.28.93-.6c.35.47,1.06,1,1,1.39-.27,1.93-.77,3.83-1.17,5.74,0,.16-.13.37-.06.49a14.24,14.24,0,0,1,1.08,1.78,1.7,1.7,0,0,1-.18,1.22,39.51,39.51,0,0,1-3,6,34.85,34.85,0,0,1-4.83,5.12,61.58,61.58,0,0,1-4.91,4c-.3.23-.88.14-1.33.2Z"/><path d="M137.31,128.18l-1.19.86,3.56.72c-3.6.26-7.11.48-10.61.77s-6.9.53-9.75,1.68c-1.24.31-2.15.47-3,.78a18.39,18.39,0,0,0-1.87,1,2.42,2.42,0,0,0-1.35,3.37,4.38,4.38,0,0,1,.17,1.13c-.64-.2-1.48-.25-1.87-.65a1.78,1.78,0,0,1-.15-1.65,26.5,26.5,0,0,1,2.14-4.1c.23-.36,1.1-.41,1.7-.54,2.13-.48,4.26-1,6.41-1.38,1.43-.27,2.9-.39,4.34-.6,1.19-.17,2.37-.42,3.57-.57s2.51-.2,3.77-.34S135.71,128.39,137.31,128.18Z"/><path d="M191.79,63.89l.73.2c0,.08,0,.16,0,.24l-3.81.43-.09-.18,2-.71-2.47-.27-.07-.47,3.52-.53c0,.2,0,.39,0,.69l1.56.29-1.18-.75,4.65-1.56.17.33-1.88,1.05.06.2c.29-.09.58-.2.88-.28s.48-.09.72-.15.7-.09.76-.24c.29-.72.63-1.17,1.63-.84.3.1.76-.16,1.13-.3l4.93-1.88a7.72,7.72,0,0,1,1.32-.46c.17,0,.41.23.35.19l3.73-1.05c0-.09.07-.38.12-.67.4.08.8.16,1.2.22.22,0,.58.12.67,0,1.26-1.38,3-1.56,4.76-1.46a8.06,8.06,0,0,1,1,.17l-.53.9-.42-.22-1.23.61-.22-.3-.23.48-6.57,2.1.74.13c0,.08,0,.15,0,.23l-1.8,0a3.27,3.27,0,0,0-.89,0c-1.13.33-2.25.68-3.35,1.06-.52.17-1,.5-1.49.63-2.44.63-4.87,1.24-7.33,1.78A27,27,0,0,1,191.79,63.89Z"/><path d="M226.88,47.79l-1.56-.18c0-.11,0-.22,0-.33l2.24-.6c-.06-.1-.14-.46-.35-.54s-.55.1-1,0l1.11-.75a2.62,2.62,0,0,1,0-.83c0-.1.48-.11.59-.46l1.69-.71-1.18-.83,1,0c.09-.77.16-1.4.23-2.08l.58.13c0-.05.06-.08.06-.09-1.23-1.49.85-.93,1.11-1.5a1.63,1.63,0,0,0,.1-.27,3.34,3.34,0,0,1,.2-.74.8.8,0,0,1,.57.1c.25.28.67.69.6.94a32.45,32.45,0,0,1-1.67,4.78,27,27,0,0,1-2.51,3.9,17.26,17.26,0,0,1-2,2.41c-1.44,1.4-2.83,2.89-5,3.5-.17,0-.25.36-.58.89a16.44,16.44,0,0,1-1.49,1,1.91,1.91,0,0,1-1.06.16,9.88,9.88,0,0,1-2-.44c3.08-.57,4.65-3.63,7.85-4l-.72-.21Z"/><path d="M135.49,124.84c-1.1.06-2.21.09-3.31.2-3.31.32-6.62.81-9.94,1-2.84.12-5.12,1.43-7.58,2.38a5.58,5.58,0,0,0-2,1.37c-.2.22.21.89.31,1.36a5.25,5.25,0,0,1,0,.8c-.3-.1-.7-.13-.87-.32a6.2,6.2,0,0,1-1-1.52c-.6-1.38.89-1.74,1.62-2.33a19.62,19.62,0,0,1,3.67-2.25,9.9,9.9,0,0,1,2.56-.66c1.93-.35,3.87-.76,5.83-.93a44.84,44.84,0,0,1,4.83.06l-.2-.78,6.1,1.23C135.51,124.54,135.5,124.69,135.49,124.84Z"/><path d="M114.53,101.09c-.6-.33-1.63-.59-1.73-1a2.65,2.65,0,0,1,1.34-3.26c-.42.05-.62.09-.82.1-.35,0-.71,0-1.07,0,.23-.3.39-.77.69-.86,2.78-.77,5.57-1.49,8.37-2.2q3.2-.81,6.42-1.56a1.65,1.65,0,0,1,1.17.22l-2.1.43,10.29,1.43-.07.29c-3.19-.17-6.39-.51-9.57-.47-2.66,0-5.37.12-7.75,1.59-1.49.92-3.26,1.48-4.72,2.43-1.06.7-1,1.57-.21,2.53Z"/><path d="M120.93,29.07c-5,.06-10-.42-15.12.22.08-.53.15-1.05.23-1.57l1.62.25.57-.28.93-.44.11.51c1.94.45,4-.72,5.74.61a2.52,2.52,0,0,1,3.06-.34c.93.85,1,.27,1.1-.42L132,27.13l0,0A9.31,9.31,0,0,1,134,27c.49.09.9.55,1.35.84l-.19.36c-1.45,0-2.9-.07-4.35-.08s-2.78,0-4.16,0c-.39,0-.74.5-1.13.53-1.41.1-2.83.09-4.24.15C121.16,28.87,121,29,120.93,29.07Z"/><path d="M203.39,41.64c-.05-.17-.29-.51-.2-.71a6.65,6.65,0,0,1,2.8-3.37l-.36-3.18a1.56,1.56,0,0,1,2,1.41,5,5,0,0,1-1.07,3.58c-1,1.22-1.69,2.62-2.67,3.83a9.21,9.21,0,0,1-2.14,1.66,11.43,11.43,0,0,1-2.07,1.1c-1.42.56-2.86,1-4.31,1.55-.33.11-.71.11-1,.23-.81.31-1.58.58-2.09-.64l1.62.18-.37-.58C197.43,46,200.52,43.92,203.39,41.64Z"/><path d="M130.68,106.69l-2.75.12c0,.1,0,.2,0,.3l3.34.06c0,.1,0,.21,0,.31-1.24.13-2.49.23-3.72.4-2.73.38-5.48.71-8.18,1.25a52.34,52.34,0,0,0-6.14,1.75c-.25.08-.22.83-.33,1.28,0,.21-.1.42-.15.63-.35-.08-.8-.06-1-.26-1.34-1.17-.45-3.2,1.65-3.63a17.1,17.1,0,0,1,2.77-.12c.08,0,.19,0,.23,0,2.3-2.09,5.41-1.66,8.22-2.1,1.71-.27,3.48-.28,5.22-.39a3.87,3.87,0,0,1,.88.15Z"/><path d="M251.85,14.76l2.25-.38-1.81-.76.14-.36,2.8.66-1.12.5a10,10,0,0,1,2.33.07c1.28.39,2.49,1,3.74,1.43.5.18,1.07.2,1.59.36q2.35.72,4.68,1.5c.83.28,1.64.63,2.46,1,1.72.68,3.45,1.34,5.16,2a1.65,1.65,0,0,1,.59.5,1.6,1.6,0,0,1,.18.5,1.82,1.82,0,0,1-.65-.08c-.6-.33-1.18-.71-1.63-1l-.85,1.08a26.6,26.6,0,0,0-3.37-1.87c-2.35-.91-4.76-1.69-7.16-2.46-1.78-.57-3.6-1.05-5.4-1.57l-3.93-1.14Z"/><path d="M132.65,101.06c-.52,0-1,.08-1.55.15a25.41,25.41,0,0,1-3.09.46c-1.43,0-2.88-.28-4.31-.2-2.64.15-5.43,0-7.69,1.48a10.59,10.59,0,0,0-2.22,2.56c-.14.18.06.57.08.86s0,.5,0,.75c-.38-.11-1-.14-1.09-.33a19.16,19.16,0,0,1-.72-3.35c0-.23.57-.53.9-.78a11.26,11.26,0,0,1,7-2.11q5.28-.09,10.57-.07a12.09,12.09,0,0,1,2.13.39C132.64,100.92,132.64,101,132.65,101.06Z"/><path d="M135.46,120c-1.9,0-3.8,0-5.7-.12a45.74,45.74,0,0,0-14,1.94,16.38,16.38,0,0,0-3,1.46c.16.8.24,1.22.3,1.65,0,0-.27.16-.33.12-.54-.34-1.4-.62-1.54-1.07-.5-1.68.31-2.46,2.3-2.77,1.14-.17,2.22-.66,3.34-.94a27.35,27.35,0,0,1,5-1.06c3-.14,6,0,8.95.08l4.65.09C135.46,119.59,135.46,119.79,135.46,120Z"/><path d="M135.53,113.28a2.55,2.55,0,0,1-.81.33c-3.52.12-7.07,0-10.57.37a46.92,46.92,0,0,0-6.83,1.53,31,31,0,0,0-3.55,1.08c-.3.11-.49.61-.6,1s.15.79,0,.92a1.55,1.55,0,0,1-1.14.22,1.15,1.15,0,0,1-.64-.76,2.53,2.53,0,0,1,2.21-2.77c3.73-.81,7.43-1.85,11.22-2.29,2.83-.33,5.77.15,8.67.25.65,0,1.29,0,1.94-.07A2.22,2.22,0,0,1,135.53,113.28Z"/><path d="M208.57,54.24l6.6-1.85.15.39a59.48,59.48,0,0,1-6.34,3,59.29,59.29,0,0,1-6.79,1.52l.42.35c-3.26.49-6.42.94-9.56,1.42-1.3.2-2.58.47-3.88.66-.25,0-.54-.16-.81-.24.22-.14.42-.37.66-.4,1.74-.25,3.5-.42,5.22-.72a16.13,16.13,0,0,0,1.83-.75,1.38,1.38,0,0,1,1.19.3l11.34-3.42C208.58,54.39,208.57,54.31,208.57,54.24Z"/><path d="M134.12,134.24c-.42.12-.84.27-1.27.37l-9.37,2.07-4.44,1a2.75,2.75,0,0,0-.8.3c-1.22.75-2.41,1.54-3.62,2.29-.39.24-.84.4-1.55.74a5.3,5.3,0,0,1-.57-1.52c0-.18.77-.44,1.21-.64.89-.42,1.76-.89,2.69-1.23,2-.71,3.94-1.44,6-2,2.28-.62,4.61-1.13,7-1.53a47.07,47.07,0,0,1,4.71-.35C134.05,133.9,134.09,134.07,134.12,134.24Z"/><path d="M129.17,49.95A3.85,3.85,0,0,1,126,51.68l-1.54,0,1.31-.75-.07-.18a2.92,2.92,0,0,0-1,.33c-1.14,1-2.49.57-3.81.62a20.71,20.71,0,0,0-4,.78,6.65,6.65,0,0,0-1.77.68c-.34.2-.52.62-.94,1.16l-1.65-.3a13.63,13.63,0,0,1,1.53-1.57,6.5,6.5,0,0,1,1.54-.64c.76-2.54,3.43-.69,5.12-2.07-.23.49-.27.58-.32.67a2.32,2.32,0,0,1-.22.25,1.1,1.1,0,0,0,.29.05c1.47-.23,2.93-.54,4.41-.68s2.85-.08,4.27-.11Z"/><path d="M136.4,89.4c-1.16,0-2.32-.12-3.48-.05-2.55.14-5.12.23-7.64.58-3,.41-5.91,1-8.84,1.64a4.87,4.87,0,0,0-1.77,1c-.14.11,0,.51,0,1a5,5,0,0,1-1.2.11c-.16,0-.29-.45-.39-.71s-.43-.83-.31-1.13a1.71,1.71,0,0,1,1-.91,83.3,83.3,0,0,1,8.35-1.47c4.18-.4,8.4-.52,12.61-.72a7,7,0,0,1,1.58.29C136.4,89.19,136.4,89.3,136.4,89.4Z"/><path d="M154.44,175.07c0-.62,0-.94,0-1.13l-1.87-.78.09-.21,1,.31c.2-1.34-.72-1.95-1.76-2.4-2.15-.93-4.3-1.88-6.53-2.66a15.21,15.21,0,0,0-3.35-.3c.5-.31.6-.42.7-.43,2.62,0,5.21.06,7.57,1.32,1.29.68,2.65,1.26,3.92,2,1.58.87.6,2.23.69,3.38C154.87,174.33,154.68,174.55,154.44,175.07Z"/><path d="M153.26,66.49c0,.09,0,.27,0,.51l.85-.15c-1.18,1.5-14.46.89-15.55-.76l1.9,0c.58-.23.81-.42,1-.39,1.47.25,2.92.66,4.4.79,1.82.16,3.67.13,5.51.14A19,19,0,0,0,153.26,66.49Z"/><path d="M127.76,56.85a3.57,3.57,0,0,1,0-1.11,4.24,4.24,0,0,1,.7-1c.27.44.55.88.81,1.33.17.3.33.6.49.9s.32.4.28.56a6.67,6.67,0,0,0,1.31,6.18c.14.17,0,.5,0,.75-.35-.06-.9,0-1-.19a27.37,27.37,0,0,1-2.35-4.16,13.26,13.26,0,0,1-.47-3.3Z"/><path d="M145.88,136.95c1.45-.2,2.65,1.48,4.38.77.53.14,1.21.27,1.86.5a10.93,10.93,0,0,1,2.56,1.07,1.88,1.88,0,0,1,.78,1.56c-.11.53-.77,1-1.3,1.4-.19.13-.71-.13-1.08-.21l.3-1Z"/><path d="M119.81,65.07a27.41,27.41,0,0,1-.66-3.85,47.89,47.89,0,0,1,.26-5.61c0-.37.52-.72.8-1.07.32.33.95.69.92,1-.21,2.59-.55,5.17-.81,7.76A7.75,7.75,0,0,0,120.5,65Z"/><path d="M117,64.6a15.41,15.41,0,0,1-.21-1.53c-.1-2.65-.2-5.3-.23-8,0-.37.35-.75.55-1.12.47.42,1.38.86,1.35,1.26-.13,2.42-.48,4.83-.75,7.25-.08.68-.14,1.35-.21,2Z"/><path d="M141.68,143.13c1.12-.63,5.26-.29,5.34.51l1.58-.29c1.41.67,3,1.31,4.4,2.12a8.19,8.19,0,0,1,1.88,1.69c.1.11-.1.57-.29.76s-.53.06-.72-.05c-1.92-1.12-3.78-2.34-5.77-3.35a12.53,12.53,0,0,0-3.08-.75C143.9,143.53,142.78,143.34,141.68,143.13Z"/><path d="M145.84,129.69a12.5,12.5,0,0,1,2.79.46c2.14.88,4.19,1.93,6.44,3l.36-.28c0,1.13,0,2.18-.06,3.24l-.32.22c-.43-.49-.83-1-1.3-1.48a17.63,17.63,0,0,0-2.44-2.17,41.45,41.45,0,0,0-4.1-2.28,5.56,5.56,0,0,0-1.44-.29C145.79,130,145.82,129.82,145.84,129.69Z"/><path d="M175.81,49.78a21.78,21.78,0,0,1-4.16,1.85,15,15,0,0,1-4.81.15,22.26,22.26,0,0,1-4.65-1.22c2.27,0,4.56.26,6.82.08a66.73,66.73,0,0,0,6.6-1.14Z"/><path d="M145.89,149.56c1.75-.6,6.8,1.05,8.07,2.46a3.32,3.32,0,0,1,.17-.59,3,3,0,0,1,.32-.44c.12.17.31.32.35.51a9.66,9.66,0,0,1,.4,2.24,9.94,9.94,0,0,1-.45,2C153.23,152.37,149.87,150.78,145.89,149.56Z"/><path d="M145.39,162.63c3.2-.14,6.33.1,9,2,0-.87-.07-1.74-.09-2.6a.67.67,0,0,1,.16-.38.32.32,0,0,1,.28,0,.71.71,0,0,1,.15.38c.06,1.26.14,2.53.14,3.79a4.11,4.11,0,0,1-.37,1.15,4.3,4.3,0,0,1-.82-.61c-1.49-1.84-3.83-2.33-6-3.13A21.22,21.22,0,0,0,145.39,162.63Z"/><path d="M144.37,175.44c1.22-.63,2.57-.39,4-.46a9,9,0,0,1,4.54,1.13c.63.3.85,1.32,1.26,2a7.92,7.92,0,0,1-1.75-.34,17,17,0,0,0-2.37-1.29C148.15,176,146.23,175.77,144.37,175.44Z"/><path d="M122.73,61.87c0-2.48.1-5,.15-7.63a3.34,3.34,0,0,1,1.28.11,1.17,1.17,0,0,1,.47,1c-.23,1.93-.52,3.85-.85,5.77-.06.31-.38.59-.58.89Z"/><path d="M154.59,159l.35,1.58L146.09,156a3.47,3.47,0,0,1,1.18-.38c.3,0,.56.51.91.62,1.27.42,2.58.75,3.86,1.13a20.52,20.52,0,0,1,2.49.84C154.69,158.3,154.59,158.86,154.59,159Z"/><path d="M154.51,103.18c-1.53-2.65-4.09-4.1-7.16-5,1.08-.72,5.55.79,7.26,2.37C155.44,101.28,155.57,102.16,154.51,103.18Z"/><path d="M161.59,53.23c1,0,1.94-.12,2.92-.15,2-.07,4.1-.17,6.15-.17a3.58,3.58,0,0,1,1.81.66,26.11,26.11,0,0,1-10.84.09Z"/><path d="M146.66,28c.86-1.65,1,.42,1.51.5-2-.14-4-.32-5.94-.41s-3.84-.09-5.69-.12l.16.24-.84.08C135.59,27,135.58,27,138,27a23,23,0,0,1,2.88.13C142.81,27.35,144.74,27.68,146.66,28Z"/><path d="M145.4,117.2c2.12-.66,7.25,1.12,8.7,2.9-.54,1-.94,1.07-2,.26a30.5,30.5,0,0,0-5.1-2.5C146.49,117.64,146,117.46,145.4,117.2Z"/><path d="M155.17,128.21s0,0,0,0c-1.33.65-1.55-.38-2.33-1a26.64,26.64,0,0,0-4.94-2.47c2.78-.69,4.8,1.21,7.3,1.89C155.19,126.89,155.18,127.5,155.17,128.21Z"/><path d="M165,59.63a19,19,0,0,1-9.58-.76c.89,0,1.77,0,2.66-.06,1.35-.05,2.7-.14,4.05-.18a13,13,0,0,1,2.39.09c.21,0,.31.6.46.92Z"/><path d="M155.26,107.71l-.41,1.22-7.17-4.48C149,104.08,152.68,105.58,155.26,107.71Z"/><path d="M160.57,62.95l1.55-1.39c1.71-.13,2.21-1.14,2.88-1.93h0c1,.82,1.61-.2,2.35-.49s1.32-.61,2-.92h0c-.9.73-1.75,1.53-2.72,2.18a29.15,29.15,0,0,1-3.4,1.92,5.13,5.13,0,0,1-1.54.21l.62.44-1.18.29Z"/><path d="M162.64,57.21l.5-.54-3.13-.3c0-.15,0-.29.06-.44,1.9.19,3.78.42,5.68.53a16.9,16.9,0,0,0,2.13-.35,2.83,2.83,0,0,1,1,.33c-.28.29-.54.83-.83.83C166.32,57.32,164.58,57.25,162.64,57.21Z"/><path d="M149.47,111.09c2.29-1.41,3.38,1.22,5.31,1.19,0,.48,0,1.08,0,1.58-1.5.5-1.91-.65-2.71-1.27a14.53,14.53,0,0,0-2.08-1.11A3.92,3.92,0,0,1,149.47,111.09Z"/><path d="M147.25,86.38a25.16,25.16,0,0,1,3.47.53,7.63,7.63,0,0,1,2.42,1.32,2.29,2.29,0,0,1,.58,1.33c0,.14-.5.53-.54.51-.38-.24-.67-.61-1.07-.83-1.5-.86-3-1.69-4.54-2.53a1.84,1.84,0,0,0-.35-.11Z"/><path d="M51.54,44.95a2.49,2.49,0,0,1-.15-.51c-.15-1.63-.34-3.25-.39-4.88,0-.27.6-.54.92-.82.16.24.47.48.45.71-.1,1.4-.28,2.79-.42,4.18,0,.36,0,.72,0,1.09Z"/><path d="M148.24,93.47c1.4-.45,4.93.51,5.47,1.51.2.36,0,.9,0,1.44Z"/><path d="M48.86,44.13c-.21-1.54-.48-3.07-.59-4.62,0-.39.5-.81.77-1.22.21.41.6.83.6,1.24,0,1.34-.14,2.68-.25,4a2.54,2.54,0,0,1-.22.63Z"/><path d="M154.4,84.55l-4.67-3.64a4.78,4.78,0,0,1,3.88,1.36C155.05,83.56,155,83.94,154.4,84.55Z"/><path d="M54.58,44.28c-1-2.21-.74-4.32.45-4.78C55.9,40.52,55.9,40.52,54.58,44.28Z"/><path d="M152.89,61.81c.36,0,.73-.07,1.09-.08l3.56-.06c.24,0,.53-.13.72,0,.51.21,1,.5,1.46.75a5.58,5.58,0,0,1-1.37.28c-1.8-.08-3.59-.24-5.38-.36C152.94,62.13,152.92,62,152.89,61.81Z"/><path d="M150.18,75.93c1.71.61,3.46,1.15,5.08,1.9.24.11-.07,1.22-.4,2C154.45,77.12,151.64,77.43,150.18,75.93Z"/><path d="M147.68,63.56c1.55.24,3.1.46,4.65.72.11,0,.29.33.25.37s-.35.33-.5.31c-1.52-.24-3-.51-4.53-.78Z"/><path d="M61.37,46.06c-.14.1-.34.38-.59.41s-.64-.19-.67-.35a7.38,7.38,0,0,1-.18-1.9c0-.22.4-.42.61-.63a5.43,5.43,0,0,1,.52.94A12.84,12.84,0,0,1,61.37,46.06Z"/><path d="M188.35,48.58c.69-.26,1.36-.54,2.06-.75a2.07,2.07,0,0,1,.9,0,3.33,3.33,0,0,1,.71.28,3.59,3.59,0,0,1-.74.54,3.77,3.77,0,0,1-1,.18c-.64.06-1.27.09-1.91.13C188.34,48.82,188.34,48.7,188.35,48.58Z"/><path d="M24.49,23a5.44,5.44,0,0,1-.7-1.15c0-.13.37-.39.58-.59a4.06,4.06,0,0,1,.39.62,9.18,9.18,0,0,1,.76,2.83c-.45-.45-.91-.88-1.33-1.36C24.16,23.35,24.45,23.08,24.49,23Z"/><path d="M181.51,60.37c1.12-.21,2.23-.44,3.36-.62.81-.13,1.62-.22,2.44-.3a2,2,0,0,1,.54.1c-.15.15-.27.41-.44.44-1.78.26-3.57.49-5.36.71a2.29,2.29,0,0,1-.47,0Z"/><path d="M57.67,45.55l.35.24L56.92,47c0-1.28,0-2.19.09-3.1a.78.78,0,0,1,.57-.13c.22.15.48.42.47.64A4.43,4.43,0,0,1,57.67,45.55Z"/><path d="M135.73,65.52c-1-.21-2.39,1.37-3.47-.35l-.61-.11.06-.31Z"/><path d="M251.87,14.75l-3.47-.45a6.36,6.36,0,0,1,1.46-.49c.3,0,.6.22,1,.13l-.75-.66c1,.38,2.31.05,1.73,1.48Z"/><path d="M32.86,23.16a6.28,6.28,0,0,1-1.14.59c-.1,0-.48-.29-.46-.4A10.27,10.27,0,0,1,31.73,22Z"/><path d="M214.57,51.88a8.26,8.26,0,0,0,1.08-.49,12.72,12.72,0,0,0,1-.81c0,.46.14,1-.11,1.34s-.9.14-1.37.16A2.12,2.12,0,0,1,214.57,51.88Z"/><path d="M40.12,22.32l-1.21.94c-.11-.22-.37-.47-.32-.64a5.6,5.6,0,0,1,.63-1.07Z"/><path d="M207.85,5.92l.2-.15,2.85.3-.15.39h0Z"/><path d="M160.57,62.95l.51.31-2.35,1.56-.61-.67,2.27-.54-.61-.72Z"/><path d="M154.8,123.33c-.08-.69-.18-1.39-.23-2.08,0-.16.15-.33.27-.48s.33.09.33.14c0,.82,0,1.64,0,2.45Z"/><path d="M82.64,45c-.21,0-.47.11-.63,0-.64-.31-1.24-.68-1.86-1,.12-.09.29-.27.35-.25.73.31,1.44.64,2.15,1C82.65,44.78,82.64,44.87,82.64,45Z"/><path d="M60.89,48.77c-.23-.47-.49-.93-.67-1.41a.61.61,0,0,1,.21-.49c.24,0,.66.11.68.22a12.92,12.92,0,0,1,.1,1.65Z"/><path d="M32.22,26.07l-.36-.22a.3.3,0,0,1,0-.07c0-.54-.09-1.07-.13-1.61a2.13,2.13,0,0,1,.5.09C32.23,24.86,32.22,25.47,32.22,26.07Z"/><path d="M249.21,31.33l3,.71c0,.13-.07.25-.1.38l-3-.72C249.15,31.58,249.18,31.45,249.21,31.33Z"/><path d="M210.75,6.48l1.5,0c0,.16,0,.32,0,.49l-2,.28.5-.81Z"/><path d="M153.33,27.88l2.45-.28c0,.05,0,.11,0,.16l-1.17.14.64.37-1.84-.15Z"/><path d="M161.61,29.46l-.34.2a5.48,5.48,0,0,1-.64.33s-.24-.21-.22-.26a4.77,4.77,0,0,1,.46-.65l-.26-.69.28-.15.7,1.23Z"/><path d="M154.74,116.54c0,.7.05,1.39.08,2.09l-.37,0q0-1.06-.1-2.12Z"/><path d="M97.27.68,100,.54c-.08.08-.31.43-.4.4-.74-.24-1.67.82-2.27-.27Z"/><path d="M65.35,47.13c-.37.19-.65.38-.69.34a2.11,2.11,0,0,1-.57-.68c0-.08.24-.28.37-.42Z"/><path d="M184.75,64.08c.41-.11.81-.25,1.23-.32.07,0,.19.24.29.37l-1.37.38Z"/><path d="M115.58,78.14l2.43.3-.12.46-2.3-.77Z"/><path d="M97.28.68,94.93.92c.52-.36.78-.69,1-.67a6,6,0,0,1,1.34.44Z"/><path d="M254,14.67l-2.18-.61c-1.39-.4-3.4-.82-5.8-1.4l-3.88-.91c-1.38-.31-2.85-.55-4.37-.85L228.3,9.12l-2.43-.46c-.81-.14-1.62-.24-2.42-.36l-4.72-.68-8.36-1.2-8.16-1.17,0-.22,8.16,1.13,8.37,1.16L223.5,8c.8.12,1.62.21,2.43.35l2.43.44,9.53,1.74c1.52.29,3,.52,4.38.82l3.9.89c2.41.57,4.44,1,5.82,1.37l2.19.6Z"/><path class="b" d="M279.24,33.89s3-10.56-12.79-16.1"/><path d="M37.51,27.26l1.77-.43c1.16-.29,2.85-.65,5-1.12s4.8-1,7.83-1.5,6.46-1.08,10.2-1.66c1.87-.28,3.83-.52,5.85-.8s4.11-.56,6.27-.77l6.64-.73c2.27-.23,4.59-.4,6.94-.61,4.71-.45,9.6-.69,14.55-1,2.48-.18,5-.23,7.49-.32l7.56-.25,15.06-.1,14.58.34,13.62.71c2.17.09,4.27.26,6.3.44l5.88.49c3.77.34,7.23.55,10.28,1l7.91.92,6.89.8,0,.22-6.89-.77-7.91-.88c-3-.39-6.51-.58-10.28-.9l-5.88-.46c-2-.17-4.13-.33-6.3-.41l-13.61-.64-14.57-.26-15,.17L110.1,19c-2.51.1-5,.16-7.48.35-5,.33-9.83.58-14.53,1.06-2.35.22-4.67.4-6.93.64l-6.62.76c-2.15.23-4.24.52-6.26.8s-4,.53-5.84.82c-3.73.6-7.15,1.13-10.17,1.71s-5.64,1.09-7.8,1.53-3.84.85-5,1.14l-1.75.44Z"/></svg>
