<?xml version="1.0" encoding="utf-8"?>
<svg viewBox="63.26530838012695 17.687074661254883 213.60541915893555 106.802734375" xmlns="http://www.w3.org/2000/svg">
  <g transform="matrix(1, 0, 0, 1, -307.3504329729969, -372.3660766374612)">
    <g id="fill_6_">
      <path fill-rule="evenodd" clip-rule="evenodd" fill="#FFFFFF" d="M427.486,421.151c-0.311-0.239-0.623-0.479-1.033-0.793&#10;&#9;&#9;&#9;c4.199-4.306,9.668-5.812,14.688-8.184c-2.814,0.324-5.455,1.261-7.951,2.521c-2.549,1.286-4.984,2.796-7.744,3.996&#10;&#9;&#9;&#9;c0.254-0.41,0.43-0.906,0.773-1.215c2.742-2.467,5.533-4.827,9.26-5.769c2.24-0.565,4.375-1.55,6.619-2.087&#10;&#9;&#9;&#9;c4.52-1.081,9.062-0.637,13.57,0.213c2.199,0.414,4.416,0.805,6.557,1.438c1.666,0.492,3.256,1.283,4.822,2.055&#10;&#9;&#9;&#9;c0.998,0.491,1.951,1.118,2.822,1.812c1.426,1.134,2.697,1.277,4.555,0.645c2.805-0.957,5.826-0.659,8.944,0.151&#10;&#9;&#9;&#9;c-0.321,0.701-0.591,1.288-0.904,1.973c0.311,0.038,0.588,0.164,0.726,0.074c0.803-0.521,1.553-1.122,2.357-1.639&#10;&#9;&#9;&#9;c1.814-1.163,3.65-2.293,5.478-3.436c0.441-0.275,0.884-0.549,1.226-1.017c-2.601,0.411-4.659,2.043-7.011,3.044&#10;&#9;&#9;&#9;c1.843-2.188,4.208-3.482,6.863-4.401c3.868-1.338,7.757-1.008,11.601-0.152c2.793,0.622,5.482,1.693,8.248,2.457&#10;&#9;&#9;&#9;c0.8,0.222,1.718,0.186,2.556,0.072c3.72-0.504,7.329,0.246,10.746,2.425c-0.715,0.711-1.391,1.383-2.294,2.28&#10;&#9;&#9;&#9;c1.418-0.146,2.24-0.692,3.024-1.38c0.604-0.528,1.165-0.397,1.639,0.374c-0.22,1.009-1.183,1.391-1.902,1.955&#10;&#9;&#9;&#9;c-0.747,0.587-1.584,1.06-2.318,1.705c1.831-0.389,3.383-1.366,4.891-2.415c0.973-0.676,1.609-0.444,2.099,0.679&#10;&#9;&#9;&#9;c-1.229,1.61-3.23,2.228-4.693,3.604c2.061-0.092,3.508-1.695,5.354-2.28c0.703,1.387,0.733,1.733-0.271,2&#10;&#9;&#9;&#9;c-1.496,0.396-2.04,1.57-2.784,2.77c4.67-2.692,8.998-1.578,13.356,0.76c-0.443,1.399-1.386,2.012-2.305,2.625&#10;&#9;&#9;&#9;c-0.843,0.562-1.722,1.07-2.504,1.749c2.434-0.17,4.271-1.599,6.387-2.797c-0.159,0.361-0.225,0.828-0.492,1.068&#10;&#9;&#9;&#9;c-1.92,1.729-4.137,2.995-6.502,4.013c-0.933,0.4-1.859,0.814-2.717,1.381c4.185-0.319,7.556-2.514,10.705-4.833&#10;&#9;&#9;&#9;c1.064,0.497,1.284,1.125,0.684,1.814c-0.625,0.718-1.349,1.366-2.104,1.948c-2.554,1.97-5.438,3.342-8.415,4.537&#10;&#9;&#9;&#9;c-0.278,0.111-0.549,0.245-0.962,0.432c1.689,0.336,3.939-0.289,6.879-2.032c2.052-1.217,4.001-2.604,5.999-3.917&#10;&#9;&#9;&#9;c1.114,1.014,1.17,1.11,0.383,1.961c-1.995,2.156-4.514,3.536-7.181,4.671c-0.693,0.296-1.397,0.564-2.013,1.033&#10;&#9;&#9;&#9;c4.169-0.2,7.32-2.673,10.534-4.892c1.295,1.734,1.323,2.088-0.033,3.002c-1.056,0.71-2.232,1.24-3.36,1.842&#10;&#9;&#9;&#9;c-0.824,0.439-1.657,0.864-2.408,1.459c2.715-0.111,4.963-1.473,7.25-2.677c0.793,1.424,0.768,1.67-0.483,2.462&#10;&#9;&#9;&#9;c-1.397,0.885-2.839,1.7-4.479,2.675c1.01,0.597,1.694,0.044,2.358-0.163c1.045-0.328,2.025-0.503,2.89,0.383&#10;&#9;&#9;&#9;c-1.149,0.593-2.391,1.044-3.607,2.088c2.604-0.122,2.968-0.359,3.575-2.117c0.534,0.25,1.068,0.5,1.672,0.782&#10;&#9;&#9;&#9;c-0.901,1.946-2.831,2.35-4.32,3.806c1.483,0.246,2.375-0.381,3.245-0.923c0.916-0.571,1.763-1.256,2.995-1.641&#10;&#9;&#9;&#9;c-0.098,0.381-0.069,0.937-0.314,1.115c-1.481,1.078-2.998,2.114-4.559,3.073c-0.928,0.57-1.957,0.973-2.864,1.649&#10;&#9;&#9;&#9;c1.851,0.007,3.467-0.739,5.028-1.58c0.98-0.527,1.873-1.221,2.802-1.844c0.817-0.549,1.329-0.232,1.735,0.696&#10;&#9;&#9;&#9;c-1.257,1.895-3.661,2.267-5.277,3.745c3.185-0.111,5.525-2.299,8.302-3.485c-0.294,1.782-2.138,1.99-3.096,3.49&#10;&#9;&#9;&#9;c1.741,0.067,2.779-0.773,3.819-1.559c0.377-0.283,0.664-0.686,0.989-1.035c0.532-0.572,1.096-0.558,1.892,0.042&#10;&#9;&#9;&#9;c-0.766,0.64-1.49,1.245-2.446,2.045c1.859,0.44,2.747-0.77,4.022-1.44c2.236,0.854,4.317,2.093,6.014,3.977&#10;&#9;&#9;&#9;c0.785,0.872,1.669,1.657,2.664,2.634c-0.672,1.906-2.258,3.301-4.221,4.52c0.339-0.805,0.725-1.593,1.003-2.418&#10;&#9;&#9;&#9;c0.262-0.775,0.778-1.546,0.323-2.699c-1.616,2.266-2.471,4.89-5.178,6.337c0.479-1.573,0.881-2.887,1.403-4.6&#10;&#9;&#9;&#9;c-1.437,0.622-1.697,1.599-2.04,2.391c-1.017,2.346-2.5,4.225-4.668,5.631c-0.763,0.494-1.272,1.39-1.867,2.128&#10;&#9;&#9;&#9;c-0.41,0.51-0.767,1.063-1.307,1.483c1.955-4.133,4.908-7.75,5.828-12.364c-3.757,6.188-6.83,12.879-13.541,16.767&#10;&#9;&#9;&#9;c0.309-0.486,0.584-0.997,0.93-1.455c2.515-3.331,4.814-6.781,6.053-10.823c0.131-0.428,0.15-0.891,0.057-1.402&#10;&#9;&#9;&#9;c-1.578,3.569-3.621,6.817-5.98,9.878c-2.332,3.026-4.801,5.884-8.46,7.426c4.161-5.392,7.626-11.119,9.365-17.774&#10;&#9;&#9;&#9;c-1.183,2.266-2.309,4.562-3.561,6.788c-2.399,4.271-5.016,8.384-9.214,11.177c-0.565,0.376-1.185,0.67-1.946,0.82&#10;&#9;&#9;&#9;c2.643-2.598,4.546-5.66,6.367-8.796c1.791-3.084,3.853-6.025,4.954-9.863c-0.499,0.281-0.772,0.341-0.814,0.474&#10;&#9;&#9;&#9;c-1.175,3.648-3.658,6.539-5.627,9.725c-0.587,0.95-1.314,1.813-1.926,2.75c-1.855,2.846-4.469,4.734-7.658,6.005&#10;&#9;&#9;&#9;c3.948-5.682,7.884-11.358,10.264-17.885c-0.146-0.077-0.292-0.155-0.438-0.232c-0.4,0.833-0.751,1.695-1.21,2.494&#10;&#9;&#9;&#9;c-2.552,4.439-5.258,8.777-8.477,12.774c-1.009,1.253-2.182,2.291-3.682,3.091c-0.481-0.848,0.039-1.333,0.358-1.808&#10;&#9;&#9;&#9;c3.85-5.729,6.894-11.883,9.605-18.21c0.114-0.266,0.141-0.569,0.222-0.915c-0.272,0.056-0.485,0.042-0.521,0.114&#10;&#9;&#9;&#9;c-2.941,6.036-6.077,11.976-9.869,17.515c-1.839,2.686-4.153,5.048-6.301,7.517c-0.429,0.492-1.073,0.798-1.618,1.189&#10;&#9;&#9;&#9;c-0.109-0.111-0.219-0.224-0.328-0.335c1.817-2.593,3.687-5.151,5.438-7.788c1.742-2.621,3.6-5.203,4.443-8.278&#10;&#9;&#9;&#9;c-0.144-0.077-0.288-0.154-0.433-0.231c-0.425,0.803-0.787,1.646-1.286,2.399c-1.722,2.596-3.459,5.183-5.256,7.727&#10;&#9;&#9;&#9;c-1.152,1.631-2.383,3.211-3.644,4.761c-2.732,3.357-5.932,6.043-10.344,6.892c-0.232,0.045-0.475,0.046-0.713,0.045&#10;&#9;&#9;&#9;c-0.067,0-0.135-0.079-0.436-0.272c6.855-4.68,11.708-11.008,15.533-18.276c-0.289,0.256-0.627,0.475-0.86,0.774&#10;&#9;&#9;&#9;c-2.015,2.583-3.918,5.26-6.036,7.754c-2.585,3.045-5.254,6.039-8.754,8.116c-1.645,0.976-3.36,1.731-5.336,1.806&#10;&#9;&#9;&#9;c4.973-2.449,8.13-6.848,11.95-10.516c-0.099-0.15-0.197-0.301-0.296-0.451c-0.387,0.242-0.834,0.424-1.15,0.738&#10;&#9;&#9;&#9;c-2.494,2.484-5.004,4.949-7.996,6.849c-1.12,0.711-2.268,1.379-4.095,1.508c1.188-1.37,2.091-2.41,2.992-3.45&#10;&#9;&#9;&#9;c-0.104-0.122-0.208-0.245-0.312-0.367c-4.032,2.769-7.74,6.158-13.276,7.306c3.871-3.973,7.717-7.163,10.802-11.106&#10;&#9;&#9;&#9;c-1.484,0.482-2.443,1.591-3.414,2.704c-2.867,3.288-6.254,5.908-10.194,7.796c-1.155,0.553-2.327,0.979-3.899,0.2&#10;&#9;&#9;&#9;c1.997-1.957,4.655-2.883,6.203-5.722c-1.581,0.885-2.79,1.549-3.987,2.234c-1.387,0.793-2.729,1.67-4.153,2.386&#10;&#9;&#9;&#9;c-1.17,0.588-1.211,0.506-2.834-0.35c1.695-1.336,3.316-2.582,4.902-3.872c1.522-1.236,3.007-2.519,4.272-4.103&#10;&#9;&#9;&#9;c-1.31,0.822-2.635,1.621-3.925,2.472c-1.6,1.055-3.151,2.184-4.76,3.224c-1.717,1.109-3.52,1.104-5.729,0.271&#10;&#9;&#9;&#9;c3.012-1.611,5.908-2.826,7.953-5.84c-2.318,0.426-3.611,1.981-5.303,2.735c-1.627,0.726-3.256,1.52-5.184,1.336&#10;&#9;&#9;&#9;c5.436-3.304,9.701-7.862,14.021-12.367c-1.629,0.116-2.35,1.469-3.335,2.401c-3.322,3.146-6.91,5.894-11.053,7.876&#10;&#9;&#9;&#9;c-0.938,0.448-1.895,0.888-3.127,0.12c1.129-1.438,2.752-2.148,4.029-3.252c1.268-1.093,2.689-2.013,3.92-3.143&#10;&#9;&#9;&#9;c1.246-1.145,2.826-1.961,3.793-3.396c-0.109-0.132-0.217-0.265-0.324-0.397c-2.15,1.599-4.332,3.155-6.439,4.806&#10;&#9;&#9;&#9;c-3.695,2.892-7.779,4.995-12.285,6.282c-0.131,0.037-0.301-0.053-0.76-0.146c2.105-1.229,4.08-2.247,5.906-3.482&#10;&#9;&#9;&#9;c1.916-1.296,3.695-2.793,5.525-4.215c1.818-1.413,3.883-2.546,5.461-4.85c-0.588,0.252-0.877,0.356-1.146,0.497&#10;&#9;&#9;&#9;c-0.281,0.146-0.564,0.305-0.816,0.498c-2.279,1.741-4.506,3.555-6.836,5.224c-2.812,2.014-5.951,3.407-9.238,4.461&#10;&#9;&#9;&#9;c-0.178,0.058-0.418-0.077-1.109-0.226c7.598-4.51,14.58-9.198,19.752-16.623c-1.455,0.534-2.168,1.431-2.832,2.232&#10;&#9;&#9;&#9;c-5.41,6.514-12.428,10.689-20.082,13.943c-2.215,0.942-2.574,0.874-4.803-0.072c0.609-0.405,1.062-0.79,1.582-1.04&#10;&#9;&#9;&#9;c4.711-2.259,9.023-5.148,13.113-8.369c0.986-0.777,1.777-1.8,2.658-2.71c1.764-0.902,5.662-5.067,6.357-7.038&#10;&#9;&#9;&#9;c-2.17,2.165-4.086,4.049-5.957,5.978c-0.242,0.248-0.246,0.726-0.361,1.098c-1.475,0.075-2.488,1.058-3.506,1.919&#10;&#9;&#9;&#9;c-4.324,3.658-9.332,6.103-14.482,8.302c-1.148,0.49-1.162,0.455-2.416,0.235c0.061-0.126,0.092-0.327,0.189-0.367&#10;&#9;&#9;&#9;c3.645-1.521,6.697-4.022,9.992-6.105c4.428-2.798,8.123-6.456,11.34-10.588c0.215-0.276,0.34-0.622,0.188-1.18&#10;&#9;&#9;&#9;c-1.072,1.125-2.105,2.294-3.227,3.366c-2.072,1.98-4.037,4.126-6.34,5.8c-3.416,2.482-6.959,4.843-10.898,6.461&#10;&#9;&#9;&#9;c-1.465,0.603-3.049,0.92-4.584,1.35c-0.979,0.274-1.699-0.083-2.305-1.126c6.854-2.502,12.668-6.557,18.033-11.297&#10;&#9;&#9;&#9;c-0.092-0.153-0.184-0.307-0.275-0.459c-0.674,0.453-1.35,0.909-2.027,1.36c-3.189,2.125-6.295,4.394-9.604,6.312&#10;&#9;&#9;&#9;c-1.762,1.021-3.857,1.496-5.84,2.093c-0.777,0.233-1.689,0.414-2.742-0.314c0.678-0.302,1.143-0.507,1.607-0.715&#10;&#9;&#9;&#9;c1.525-0.684,3.17-1.186,4.557-2.084c5.916-3.839,11.574-8.009,16.004-13.606c0.393-0.496,0.801-0.999,1.076-1.561&#10;&#9;&#9;&#9;c0.123-0.254-0.064-0.66-0.186-1.548c-1.66,2.903-3.779,4.688-5.682,6.685c-2.51,2.637-5.496,4.617-8.467,6.612&#10;&#9;&#9;&#9;c-2.107,1.417-4.203,2.934-6.701,3.676c-1.207,0.358-2.402,0.745-3.877,0.248c1.578-1.777,3.807-2.222,5.523-3.448&#10;&#9;&#9;&#9;c1.711-1.223,3.359-2.532,4.908-3.99c-5.713,3.108-11.012,6.992-17.465,8.506c-0.17,0.039-0.402-0.197-0.877-0.448&#10;&#9;&#9;&#9;c2.688-2.321,6.02-3.26,8.684-5.396c-0.469,0.126-0.957,0.204-1.402,0.386c-2.664,1.087-5.305,2.231-7.982,3.284&#10;&#9;&#9;&#9;c-1.186,0.467-2.439,0.763-3.738-0.497c3.352-2.191,7.453-2.66,10.248-5.643c-0.547,0.174-1.102,0.329-1.641,0.524&#10;&#9;&#9;&#9;c-3.375,1.224-6.732,2.5-10.127,3.665c-1.525,0.523-2.021-0.751-2.809-1.871c4.768-3.229,10.264-4.981,14.486-8.874&#10;&#9;&#9;&#9;c-0.391,0.177-0.809,0.308-1.164,0.537c-4.182,2.718-8.898,4.335-13.355,6.485c-1.107,0.535-1.143,0.464-2.295-0.795&#10;&#9;&#9;&#9;c4.447-2.798,9.297-4.849,13.381-8.227c-0.459,0.191-0.926,0.364-1.375,0.579c-3.744,1.788-7.482,3.585-11.227,5.374&#10;&#9;&#9;&#9;c-0.361,0.171-0.734,0.324-1.115,0.442c-1.453,0.451-1.535,0.406-2.646-1.418c1.854-0.91,3.707-1.788,5.527-2.727&#10;&#9;&#9;&#9;c0.84-0.434,1.619-0.985,2.426-1.484c3.15-0.901,6.709-3.07,8.211-5.15c-1.123,0.639-2.027,1.097-2.873,1.644&#10;&#9;&#9;&#9;c-1.785,1.157-3.539,2.36-5.307,3.544c-0.604,0.062-1.246,0.018-1.809,0.209c-1.357,0.463-2.674,1.05-4.018,1.561&#10;&#9;&#9;&#9;c-1.428,0.542-2.84,0.881-4.43,0.503c-1.045-0.25-2.199-0.048-3.734-0.048c1.957-1.146,3.633-2.128,5.311-3.109&#10;&#9;&#9;&#9;c-0.064-0.126-0.129-0.253-0.191-0.379c-3.678,1.317-7.354,2.635-11.029,3.952c-0.045-0.105-0.09-0.211-0.135-0.316&#10;&#9;&#9;&#9;c1.979-1.084,3.957-2.167,5.936-3.25c-2.641-0.292-4.717,1.48-7.471,1.609c2.641-1.795,5.693-2.566,7.41-5.353&#10;&#9;&#9;&#9;c-1.039,0.515-2.115,0.968-3.109,1.556c-3.064,1.814-6.33,3.021-9.889,3.336c-0.492,0.044-1.008-0.172-1.547-0.477&#10;&#9;&#9;&#9;c2.857-1.284,5.963-1.956,8.209-4.286c-1.867,0.573-3.715,1.227-5.607,1.697s-3.768,1.128-5.777,1.027&#10;&#9;&#9;&#9;c2.123-1.185,4.863-0.789,6.949-2.855c-2.348-0.401-4.318,0.812-6.711,0.568c2.527-1.595,4.795-3.027,7.477-4.721&#10;&#9;&#9;&#9;c-1.404-0.053-2.205,0.416-2.936,0.856c-2.631,1.584-5.387,2.762-8.48,3.064c-0.447,0.044-0.857,0.417-1.311,0.494&#10;&#9;&#9;&#9;c-0.199,0.034-0.461-0.288-0.906-0.595c2.834-1.54,5.803-2.328,8.271-4.341c-2.346,0.191-8.07,2.33-9.51,3.552&#10;&#9;&#9;&#9;c-0.264-0.35-0.523-0.693-0.889-1.179c2.803-0.859,5.553-1.38,7.484-3.692c-2.312,0.667-4.627,1.335-6.939,2.002&#10;&#9;&#9;&#9;c-0.051-0.104-0.102-0.209-0.152-0.314c1.223-0.842,2.445-1.685,3.668-2.527c-2.363-0.207-4.32,1.605-6.965,0.738&#10;&#9;&#9;&#9;c1.729-1.445,3.988-1.215,5.693-2.789c-2.219-0.371-3.969,0.757-6.111,0.604c0.707-1.162,1.73-0.923,2.432-1.312&#10;&#9;&#9;&#9;c0.742-0.411,1.514-0.769,2.271-1.15c-0.043-0.163-0.088-0.325-0.131-0.488c-1.357,0.115-2.715,0.231-3.984,0.34&#10;&#9;&#9;&#9;c-0.914-0.889-0.611-1.759-0.191-2.524c1.279-2.322,2.646-4.562,5.262-5.694c1.316-0.569,2.525-1.38,3.816-2.014&#10;&#9;&#9;&#9;c1.715-0.842,3.512-1.274,5.686-0.958c-0.375,0.881-0.637,1.497-1.029,2.424c0.631-0.107,1.111-0.043,1.268-0.238&#10;&#9;&#9;&#9;c2.256-2.817,5.348-4.501,8.893-6.431c-1.371-0.087-2.072,0.394-2.793,0.703c-0.807,0.346-1.59,0.757-2.35,1.195&#10;&#9;&#9;&#9;c-0.738,0.427-1.438,0.925-2.547,1.648c0.504-1.617,1.367-2.345,2.307-3.043c3.15-2.345,6.748-3.272,10.594-3.132&#10;&#9;&#9;&#9;c1.43,0.053,2.354-0.415,3.344-1.352c3.777-3.566,8.406-4.628,13.732-4.486c-0.205,0.506-0.312,0.768-0.42,1.029&#10;&#9;&#9;&#9;c-0.549,0.025-1.156-0.095-1.639,0.099c-2.434,0.979-4.852,1.998-7.232,3.096c-0.623,0.287-1.139,0.863-1.615,1.388&#10;&#9;&#9;&#9;c-0.18,0.197-0.105,0.623-0.201,1.363c3.223-2.567,6.559-4.025,9.961-5.361c0.271-0.107,0.467-0.411,0.697-0.623&#10;&#9;&#9;&#9;c0.439,0.268,1.117,0.444,1.264,0.824c0.25,0.653-0.428,0.872-0.951,1.104c-2.18,0.96-4.359,1.92-6.512,2.938&#10;&#9;&#9;&#9;c-0.67,0.317-1.256,0.818-1.881,1.234c0.07,0.145,0.139,0.288,0.209,0.433c0.408-0.096,0.848-0.124,1.221-0.296&#10;&#9;&#9;&#9;c2.451-1.132,4.867-2.341,7.338-3.424c1.08-0.474,2.264-0.708,3.4-1.051c-0.279,1.345-1.23,1.855-2.453,2.277&#10;&#9;&#9;&#9;c-1.723,0.594-3.377,1.398-5.016,2.206c-0.359,0.178-0.527,0.745-0.783,1.134c2.096-0.521,3.824-1.442,5.633-2.163&#10;&#9;&#9;&#9;c1.908-0.761,3.893-1.33,5.963-2.021c-0.688-0.227-1.273-0.419-2.059-0.677c1.477-1.635,3.113-2.562,4.82-3.397&#10;&#9;&#9;&#9;c2.35-1.15,4.695-2.311,7.043-3.466c1.994-0.139,3.539-0.493,4.496-1.13c-1.512,0.304-3.172-0.03-4.473,1.159&#10;&#9;&#9;&#9;c-0.625,0.052-1.316-0.053-1.867,0.178C434.762,417.081,430.758,418.404,427.486,421.151z M441.482,428.278&#10;&#9;&#9;&#9;c-2.656,0.284-4.674,1.847-6.693,3.387c-0.127,0.097-0.016,0.504-0.016,0.909c2.137-1.269,4.111-2.426,6.064-3.615&#10;&#9;&#9;&#9;c0.256-0.155,0.412-0.477,0.613-0.72c0.68-0.165,1.375-0.281,2.037-0.503c2.479-0.829,4.938-1.723,7.424-2.529&#10;&#9;&#9;&#9;c0.896-0.292,1.852-0.407,2.781-0.604c-3.223-0.345-6.139,0.694-8.982,1.868C443.596,426.932,442.158,426.978,441.482,428.278z&#10;&#9;&#9;&#9; M438.557,423.436c2.076-0.31,2.795-0.646,3.869-1.95c-1.514,0.606-2.973,0.678-3.84,1.985c-2.289,0.051-4.076,1.332-5.779,2.595&#10;&#9;&#9;&#9;c-1.057,0.783-2.082,1.386-3.355,1.665c-0.428,0.093-0.787,0.498-1.443,0.939c1.971,0.245,4.447-0.612,5.564-1.661&#10;&#9;&#9;&#9;c0.57-0.535,1.197-1.019,1.836-1.469C436.441,424.814,437.506,424.135,438.557,423.436z M461.303,428.425&#10;&#9;&#9;&#9;c-1.969-0.405-4.16,0.006-6.125,1.191c2.123-0.429,4.137-0.835,6.15-1.241c0.035,0.488,0.07,0.978,0.121,1.677&#10;&#9;&#9;&#9;c5.174-3.526,10.518-6.107,15.891-8.694c-0.506-0.098-0.973-0.074-1.373,0.099c-2.412,1.044-4.834,2.071-7.205,3.202&#10;&#9;&#9;&#9;C466.248,425.856,463.787,427.165,461.303,428.425z M503.246,458.623c0.647-0.578,0.899-0.876,1.214-1.071&#10;&#9;&#9;&#9;c3.453-2.151,6.959-4.222,10.364-6.446c2.671-1.744,5.247-3.639,7.81-5.541c0.829-0.615,1.626-1.36,1.94-2.433&#10;&#9;&#9;&#9;c-7.537,6.026-15.875,10.728-24.631,15.496c1.292,0.473,2.355,0.116,2.994,1.134c0.198,0.316,1.213,0.296,1.792,0.162&#10;&#9;&#9;&#9;c1.083-0.249,2.148-0.63,3.172-1.07c4.422-1.9,8.589-4.252,12.413-7.189c2.595-1.993,5.341-3.805,7.515-6.3&#10;&#9;&#9;&#9;c0.437-0.501,0.97-0.955,0.954-1.906C519.925,451.606,508.522,458.489,503.246,458.623z M515.602,442.677&#10;&#9;&#9;&#9;c-3.915,2.461-7.767,5.029-11.763,7.351c-3.959,2.301-8.064,4.352-12.311,6.621c1.647,0.124,1.667,0.167,3.785-0.828&#10;&#9;&#9;&#9;C502.694,452.354,509.707,448.309,515.602,442.677z M488.376,454.842c0.041,0.161,0.083,0.323,0.125,0.485&#10;&#9;&#9;&#9;c0.443-0.044,0.926,0.012,1.323-0.147c6.69-2.683,12.892-6.266,18.795-10.374c1.258-0.875,2.582-1.736,3.334-3.206&#10;&#9;&#9;&#9;C504.546,446.841,496.575,451.043,488.376,454.842z M519.122,443.539c-1.683,1.424-3.313,2.913-5.061,4.25&#10;&#9;&#9;&#9;c-1.836,1.404-3.745,2.722-5.691,3.969c-1.88,1.203-3.808,2.346-5.788,3.374c-1.989,1.033-4.07,1.892-6.602,3.051&#10;&#9;&#9;&#9;C500.925,458.479,515.044,449.605,519.122,443.539z M507.831,438.39c-3.233,2.621-6.094,5.634-9.627,7.876&#10;&#9;&#9;&#9;c-3.551,2.254-7.426,3.842-11.549,5.611c2.094,0.391,3.551,0.074,7.898-2.207C499.809,446.912,504.508,443.425,507.831,438.39z&#10;&#9;&#9;&#9; M463.572,431.939c0.105,0.134,0.213,0.269,0.32,0.403c0.271-0.104,0.564-0.174,0.814-0.318c3.582-2.068,7.1-4.262,10.758-6.188&#10;&#9;&#9;&#9;c2.938-1.548,5.997-2.953,9.496-2.623c0.218,0.021,0.48-0.06,0.672-0.176c1.409-0.858,2.805-1.737,4.548-2.824&#10;&#9;&#9;&#9;c-1.665-0.223-2.676,0.407-3.647,1.011c-1.227,0.762-2.401,1.551-3.956,1.386c-0.375-0.04-0.776,0.147-1.162,0.243&#10;&#9;&#9;&#9;c-6.2,1.536-11.704,4.537-16.94,8.091C464.115,431.188,463.871,431.604,463.572,431.939z M446.736,417.37&#10;&#9;&#9;&#9;c-0.004-0.053-0.008-0.104-0.012-0.157c-0.689,0.091-1.395,0.122-2.07,0.281c-3.676,0.864-7.086,2.427-10.41,4.153&#10;&#9;&#9;&#9;c-1.092,0.566-1.947,1.572-2.955,2.318c-0.484,0.358-1.047,0.638-1.613,0.854c-1.633,0.626-3.303,1.162-4.918,1.828&#10;&#9;&#9;&#9;c-0.377,0.156-0.6,0.689-0.893,1.049c0.092,0.11,0.184,0.222,0.273,0.332c2.639-0.99,5.277-1.98,7.805-2.929&#10;&#9;&#9;&#9;c0.492-0.584,0.859-1.307,1.447-1.662c1.629-0.984,3.305-1.917,5.045-2.686C441.166,419.546,443.965,418.49,446.736,417.37z&#10;&#9;&#9;&#9; M481.729,450.71c2.115,0.803,3.471,0.476,7.915-1.651c5.456-2.61,8.4-4.63,8.948-6.31&#10;&#9;&#9;&#9;C493.317,446.049,488.102,449.097,481.729,450.71z M469.129,418.649c-0.041-0.161-0.082-0.321-0.123-0.482&#10;&#9;&#9;&#9;c-0.785,0.303-1.594,0.561-2.355,0.917c-2.678,1.255-5.207,2.717-7.227,4.957c-1.197,1.328-2.654,2.213-4.537,2.346&#10;&#9;&#9;&#9;c-0.803,0.057-1.58,0.473-2.369,0.725c0.043,0.139,0.086,0.277,0.131,0.416c1.902-0.424,3.805-0.848,5.375-1.198&#10;&#9;&#9;&#9;c1.932-1.55,3.58-3.036,5.391-4.285C465.234,420.79,467.217,419.771,469.129,418.649z M431.82,430.828&#10;&#9;&#9;&#9;c5.711-3.025,10.555-6.587,16.336-8.239c-4.939,0.554-9.133,2.969-13.336,5.344C433.771,428.525,432.568,429.004,431.82,430.828z&#10;&#9;&#9;&#9; M419.334,468.802c0.725,0.129,1.215,0.375,1.58,0.252c1.203-0.404,2.391-0.88,3.527-1.446c1.49-0.742,2.928-1.593,4.383-2.405&#10;&#9;&#9;&#9;c1.84-1.026,3.73-1.973,5.248-3.531c-4.551,2.459-9.264,4.51-14.133,6.203C419.768,467.934,419.686,468.248,419.334,468.802z&#10;&#9;&#9;&#9; M478.969,432.049c2.648,0,4.433-2.358,7.244-1.623c-0.707,1.371-2.685,0.982-3.18,2.982c3.049-1.417,5.269-3.299,7.5-5.221&#10;&#9;&#9;&#9;c-0.439-0.099-0.837-0.084-1.139,0.092c-1.405,0.818-2.935,1.039-4.521,1.279c-1.629,0.248-3.206,0.909-4.771,1.485&#10;&#9;&#9;&#9;C479.662,431.207,479.344,431.704,478.969,432.049z M450.865,428.289c-2.158-0.127-9.373,3.111-12.17,5.14&#10;&#9;&#9;&#9;c-0.479,0.347-1.152,0.624-0.918,1.545c4.059-2.048,8.078-4.074,12.094-6.106C450.213,428.694,450.533,428.483,450.865,428.289z&#10;&#9;&#9;&#9; M394.584,437.1c4.109-2.435,8.082-4.787,12.309-7.29c-2.926,0.354-8.006,2.899-11.279,5.562&#10;&#9;&#9;&#9;C395.104,435.784,394.332,436.097,394.584,437.1z M481.861,425.83c-1.405,0.466-2.848,0.843-4.206,1.418&#10;&#9;&#9;&#9;c-2.931,1.241-5.905,2.416-8.478,4.358c-0.533,0.403-1.178,0.777-0.938,1.893C472.482,430.148,477.301,428.301,481.861,425.83z&#10;&#9;&#9;&#9; M482.533,421.552c1.271-0.939,2.33-1.832,3.495-2.556c1.277-0.795,2.64-1.46,3.988-2.135c1.198-0.599,2.662-0.666,3.583-1.839&#10;&#9;&#9;&#9;c-3.834,0.547-7.198,2.17-10.263,4.476C482.781,419.916,482.233,420.388,482.533,421.552z M447.318,437.01&#10;&#9;&#9;&#9;c4.053-2.512,8.279-4.578,13.01-5.461C456.438,431.041,449.391,433.928,447.318,437.01z M491.218,443.957&#10;&#9;&#9;&#9;c-2.133,0.926-3.754,1.687-5.419,2.336c-1.723,0.67-3.488,1.231-5.449,1.916c0.944,0.932,1.712,0.625,2.461,0.441&#10;&#9;&#9;&#9;C485.782,447.926,489.625,445.901,491.218,443.957z M396.332,439.658c3.941-2.463,7.51-4.692,11.078-6.922&#10;&#9;&#9;&#9;c-2.062,0.152-5.33,1.695-8.824,4.28C397.766,437.623,396.609,438.014,396.332,439.658z M527.85,448.122&#10;&#9;&#9;&#9;c-3.469,2.302-9.281,7.011-9.828,7.895C520.522,455.56,525.455,451.716,527.85,448.122z M404.25,428.368&#10;&#9;&#9;&#9;c-2.135-0.13-4.668,0.881-7.533,3.158c-1.213,0.964-2.777,1.723-3.34,3.97c1.979-1.554,3.488-2.918,5.174-4.013&#10;&#9;&#9;&#9;C400.314,430.337,402.246,429.448,404.25,428.368z M473.488,433.693c3.236-3.074,6.915-4.555,10.741-5.764&#10;&#9;&#9;&#9;c-3.54,0.138-6.677,1.412-9.595,3.285C473.984,431.633,473.291,432.11,473.488,433.693z M450.262,431.533&#10;&#9;&#9;&#9;c-2.139,0.257-3.99,1.339-5.791,2.444c-1.791,1.101-4.092,1.592-5.195,3.775c0.252,0.093,0.35,0.163,0.389,0.139&#10;&#9;&#9;&#9;C443.199,435.776,446.73,433.655,450.262,431.533z M472.322,420.199c-2.611,0.392-4.439,1.499-6.316,2.445&#10;&#9;&#9;&#9;c-4.547,2.291-4.537,2.31-4.883,3.487C464.727,424.224,468.305,422.328,472.322,420.199z M406.203,437.299&#10;&#9;&#9;&#9;c-2.738-0.1-4.547,0.841-5.383,2.891C402.709,439.176,404.291,438.325,406.203,437.299z M528.724,450.489&#10;&#9;&#9;&#9;c1.647-0.578,2.965-1.491,3.422-3.257C530.765,448.065,529.388,448.895,528.724,450.489z M490.358,432.286&#10;&#9;&#9;&#9;c1.618-0.627,2.794-1.589,4.106-2.868C491.737,429.791,490.802,430.444,490.358,432.286z M438.768,449.018&#10;&#9;&#9;&#9;c-0.121-0.129-0.24-0.259-0.361-0.389c-1.492,1.253-2.957,2.536-3.873,4.406C435.945,451.696,437.355,450.356,438.768,449.018z&#10;&#9;&#9;&#9; M486.742,427.026c1.987-0.445,2.551-0.751,3.967-2.257C488.926,425.191,487.564,425.387,486.742,427.026z M492.966,433.824&#10;&#9;&#9;&#9;c1.233-0.357,2.473-0.69,3.433-2.26C494.698,432.032,493.463,432.347,492.966,433.824z M447.674,463.023&#10;&#9;&#9;&#9;c0.1,0.153,0.199,0.307,0.299,0.46c1.375-0.795,2.615-1.746,3.611-2.984c-0.102-0.127-0.205-0.255-0.309-0.382&#10;&#9;&#9;&#9;C450.076,461.086,448.875,462.055,447.674,463.023z M408.332,455.745c2.605-0.45,3.287-0.85,4.238-2.417&#10;&#9;&#9;&#9;C411.16,454.132,409.971,454.81,408.332,455.745z M403.578,441.751c1.318,0.051,2.205-0.57,2.752-1.712&#10;&#9;&#9;&#9;C405.199,440.249,404.088,440.481,403.578,441.751z M514.481,474.365c0.22,0.058,0.436,0.151,0.459,0.116&#10;&#9;&#9;&#9;c0.721-1.073,1.422-2.158,2.127-3.241C515.804,472.004,514.997,473.062,514.481,474.365z M469.809,457.621&#10;&#9;&#9;&#9;c-1.746,0.944-1.746,0.944-2.592,3.237C468.225,459.599,468.908,458.746,469.809,457.621z"/>
      <path fill-rule="evenodd" clip-rule="evenodd" fill="#FFFFFF" d="M576.697,458.822c-0.763-0.438-1.222-0.7-1.716-0.983&#10;&#9;&#9;&#9;c-1.771,1.396-2.702,3.735-5.287,4.09c1.178-1.863,2.235-3.706,3.467-5.426c0.836-1.168,3.026-0.996,4.907,0.329&#10;&#9;&#9;&#9;C577.643,457.449,577.216,458.07,576.697,458.822z"/>
    </g>
    <g id="stroke_5_">
      <path fill-rule="evenodd" clip-rule="evenodd" d="M579.771,456.23c-0.909,2.143-2.465,3.454-4.265,4.551&#10;&#9;&#9;&#9;c-2.539,1.548-5.271,2.671-8.067,3.636c-1.584,0.546-3.209,0.982-4.831,1.405c-2.283,0.595-4.207,1.496-5.656,3.61&#10;&#9;&#9;&#9;c-2.618,3.818-6.547,6.076-10.8,7.629c-3.355,1.225-6.81,2.238-10.292,3.034c-2.07,0.473-4.278,0.442-6.426,0.452&#10;&#9;&#9;&#9;c-1.783,0.009-3.188,0.477-4.482,1.8c-2.553,2.607-5.765,4.376-9.099,5.666c-2.073,0.803-4.239,1.31-6.109,2.603&#10;&#9;&#9;&#9;c-0.37,0.256-0.901,0.361-1.366,0.382c-1.58,0.07-3.166,0.14-4.745,0.08c-2.067-0.076-4.146-0.171-6.191-0.46&#10;&#9;&#9;&#9;c-1.235-0.176-2.411-0.193-3.523,0.288c-2.316,1.002-4.783,1.23-7.229,1.611c-1.175,0.184-2.344,0.434-3.491,0.744&#10;&#9;&#9;&#9;c-0.844,0.229-1.559,0.281-2.133-0.518c-0.573-0.799-1.446-1.091-2.334-0.912c-1.416,0.286-2.445-0.335-3.539-1.063&#10;&#9;&#9;&#9;c-0.711-0.474-1.566-0.736-2.369-1.063c-0.588-0.239-1.342-0.274-1.76-0.674c-1.1-1.051-2.385-1.15-3.701-0.984&#10;&#9;&#9;&#9;c-1.281-2.332-3.02-3.263-5.43-2.607c-2.74,0.744-5.412,0.451-8.061-0.19c-4.887-1.186-9.654-2.777-14.342-4.601&#10;&#9;&#9;&#9;c-0.359-0.139-0.67-0.412-0.986-0.643c-1.029-0.749-2.059-1.497-3.07-2.267c-0.307-0.233-0.732-0.494-0.811-0.813&#10;&#9;&#9;&#9;c-0.438-1.803-1.691-1.648-3.014-1.339c-2.449,0.571-4.727,0.298-6.898-1.081c-0.998-0.633-2.238-0.877-3.256-1.487&#10;&#9;&#9;&#9;c-1.426-0.855-2.873-1.752-4.082-2.877c-1.75-1.63-3.24-3.537-4.949-5.217c-1.182-1.161-2.508-2.188-3.848-3.164&#10;&#9;&#9;&#9;c-0.393-0.285-1.062-0.281-1.598-0.254c-0.793,0.039-1.578,0.244-2.373,0.331c-4.236,0.467-8.277-0.364-12.18-1.956&#10;&#9;&#9;&#9;c-2.518-1.025-5.021-2.089-7.479-3.249c-1.143-0.539-2.289-1.209-3.203-2.066c-1.742-1.635-3.332-3.435-4.953-5.194&#10;&#9;&#9;&#9;c-0.316-0.344-0.625-0.792-0.711-1.236c-0.574-2.994-1.053-5.993,0.568-8.858c1.525-2.696,3.314-5.093,6.41-6.173&#10;&#9;&#9;&#9;c0.668-0.232,1.295-0.639,1.879-1.052c1.531-1.085,3.18-1.775,5.066-2.01c1.166-0.145,2.35-0.396,3.229-1.385&#10;&#9;&#9;&#9;c3.242-3.649,7.51-5.07,12.213-5.243c1.805-0.066,3.197-0.576,4.482-1.802c1.715-1.632,3.805-2.621,6.127-3.113&#10;&#9;&#9;&#9;c2.416-0.512,4.764-1.386,7.305-1.225c0.51,0.032,1.07-0.257,1.559-0.496c0.424-0.207,0.803-0.527,1.162-0.843&#10;&#9;&#9;&#9;c5.258-4.608,11.67-6.492,18.346-7.676c3.432-0.608,6.871-0.077,10.26,0.472c3.229,0.523,6.418,1.303,9.611,2.024&#10;&#9;&#9;&#9;c0.686,0.154,1.354,0.484,1.967,0.841c1.174,0.682,2.324,1.408,3.443,2.178c1.445,0.994,2.861,1.478,4.691,0.885&#10;&#9;&#9;&#9;c2.238-0.724,4.598-0.468,6.898-0.092c1.267,0.207,2.197-0.096,3.251-0.955c4.659-3.801,9.938-5.547,16.054-4.708&#10;&#9;&#9;&#9;c3.745,0.515,7.38,1.301,10.933,2.573c0.796,0.284,1.73,0.377,2.574,0.295c6.064-0.591,11.272,1.64,16.195,4.822&#10;&#9;&#9;&#9;c0.523,0.339,0.945,0.857,1.361,1.339c1.027,1.188,1.992,2.432,3.056,3.586c0.292,0.317,0.824,0.511,1.272,0.572&#10;&#9;&#9;&#9;c5.387,0.732,8.917,4.05,11.633,8.421c1.136,1.828,2.188,3.738,2.997,5.726c0.525,1.29,0.682,2.781,0.744,4.193&#10;&#9;&#9;&#9;c0.059,1.326,0.451,2.265,1.585,3c0.712,0.461,1.505,1.068,1.829,1.802c0.65,1.473,1.784,1.961,3.192,2.118&#10;&#9;&#9;&#9;c2.497,0.276,4.791,1.127,7.061,2.182c2.075,0.965,3.955,2.132,5.315,3.975c0.706,0.957,1.535,1.286,2.669,1.202&#10;&#9;&#9;&#9;c1.034-0.076,2.078-0.077,3.116-0.049C577.481,454.698,578.688,455.033,579.771,456.23z M420.307,457.993&#10;&#9;&#9;&#9;c-0.807,0.499-1.586,1.051-2.426,1.484c-1.82,0.938-3.674,1.816-5.527,2.727c1.111,1.824,1.193,1.869,2.646,1.418&#10;&#9;&#9;&#9;c0.381-0.118,0.754-0.271,1.115-0.442c3.744-1.789,7.482-3.586,11.227-5.374c0.449-0.215,0.916-0.388,1.375-0.579&#10;&#9;&#9;&#9;c-4.084,3.378-8.934,5.429-13.381,8.227c1.152,1.259,1.188,1.33,2.295,0.795c4.457-2.15,9.174-3.768,13.355-6.485&#10;&#9;&#9;&#9;c0.355-0.229,0.773-0.36,1.164-0.537c-4.223,3.893-9.719,5.646-14.486,8.874c0.787,1.12,1.283,2.395,2.809,1.871&#10;&#9;&#9;&#9;c3.395-1.165,6.752-2.441,10.127-3.665c0.539-0.195,1.094-0.351,1.641-0.524c-2.795,2.982-6.896,3.451-10.248,5.643&#10;&#9;&#9;&#9;c1.299,1.26,2.553,0.964,3.738,0.497c2.678-1.053,5.318-2.197,7.982-3.284c0.445-0.182,0.934-0.26,1.402-0.386&#10;&#9;&#9;&#9;c-2.664,2.136-5.996,3.074-8.684,5.396c0.475,0.251,0.707,0.487,0.877,0.448c6.453-1.514,11.752-5.397,17.465-8.506&#10;&#9;&#9;&#9;c-1.549,1.458-3.197,2.768-4.908,3.99c-1.717,1.227-3.945,1.671-5.523,3.448c1.475,0.497,2.67,0.11,3.877-0.248&#10;&#9;&#9;&#9;c2.498-0.742,4.594-2.259,6.701-3.676c2.971-1.995,5.957-3.976,8.467-6.612c1.902-1.997,4.021-3.781,5.682-6.685&#10;&#9;&#9;&#9;c0.121,0.888,0.309,1.294,0.186,1.548c-0.275,0.562-0.684,1.064-1.076,1.561c-4.43,5.598-10.088,9.768-16.004,13.606&#10;&#9;&#9;&#9;c-1.387,0.898-3.031,1.4-4.557,2.084c-0.465,0.208-0.93,0.413-1.607,0.715c1.053,0.729,1.965,0.548,2.742,0.314&#10;&#9;&#9;&#9;c1.982-0.597,4.078-1.072,5.84-2.093c3.309-1.919,6.414-4.188,9.604-6.312c0.678-0.451,1.354-0.907,2.027-1.36&#10;&#9;&#9;&#9;c0.092,0.152,0.184,0.306,0.275,0.459c-5.365,4.74-11.18,8.795-18.033,11.297c0.605,1.043,1.326,1.4,2.305,1.126&#10;&#9;&#9;&#9;c1.535-0.43,3.119-0.747,4.584-1.35c3.939-1.618,7.482-3.979,10.898-6.461c2.303-1.674,4.268-3.819,6.34-5.8&#10;&#9;&#9;&#9;c1.121-1.072,2.154-2.241,3.227-3.366c0.152,0.558,0.027,0.903-0.188,1.18c-3.217,4.132-6.912,7.79-11.34,10.588&#10;&#9;&#9;&#9;c-3.295,2.083-6.348,4.585-9.992,6.105c-0.098,0.04-0.129,0.241-0.189,0.367c1.254,0.22,1.268,0.255,2.416-0.235&#10;&#9;&#9;&#9;c5.15-2.199,10.158-4.644,14.482-8.302c1.018-0.861,2.031-1.844,3.506-1.919l-0.039-0.037c-0.881,0.91-1.672,1.933-2.658,2.71&#10;&#9;&#9;&#9;c-4.09,3.221-8.402,6.11-13.113,8.369c-0.52,0.25-0.973,0.635-1.582,1.04c2.229,0.946,2.588,1.015,4.803,0.072&#10;&#9;&#9;&#9;c7.654-3.254,14.672-7.43,20.082-13.943c0.664-0.802,1.377-1.698,2.832-2.232c-5.172,7.425-12.154,12.113-19.752,16.623&#10;&#9;&#9;&#9;c0.691,0.148,0.932,0.283,1.109,0.226c3.287-1.054,6.426-2.447,9.238-4.461c2.33-1.669,4.557-3.482,6.836-5.224&#10;&#9;&#9;&#9;c0.252-0.193,0.535-0.352,0.816-0.498c0.27-0.141,0.559-0.245,1.146-0.497c-1.578,2.304-3.643,3.437-5.461,4.85&#10;&#9;&#9;&#9;c-1.83,1.422-3.609,2.919-5.525,4.215c-1.826,1.235-3.801,2.254-5.906,3.482c0.459,0.094,0.629,0.184,0.76,0.146&#10;&#9;&#9;&#9;c4.506-1.287,8.59-3.391,12.285-6.282c2.107-1.65,4.289-3.207,6.439-4.806c0.107,0.133,0.215,0.266,0.324,0.397&#10;&#9;&#9;&#9;c-0.967,1.435-2.547,2.251-3.793,3.396c-1.23,1.13-2.652,2.05-3.92,3.143c-1.277,1.104-2.9,1.813-4.029,3.252&#10;&#9;&#9;&#9;c1.232,0.768,2.189,0.328,3.127-0.12c4.143-1.982,7.73-4.73,11.053-7.876c0.985-0.933,1.706-2.285,3.335-2.401&#10;&#9;&#9;&#9;c-4.319,4.505-8.585,9.063-14.021,12.367c1.928,0.184,3.557-0.61,5.184-1.336c1.691-0.754,2.984-2.31,5.303-2.735&#10;&#9;&#9;&#9;c-2.045,3.014-4.941,4.229-7.953,5.84c2.209,0.833,4.012,0.838,5.729-0.271c1.608-1.04,3.16-2.169,4.76-3.224&#10;&#9;&#9;&#9;c1.29-0.851,2.615-1.649,3.925-2.472c-1.266,1.584-2.75,2.866-4.272,4.103c-1.586,1.29-3.207,2.536-4.902,3.872&#10;&#9;&#9;&#9;c1.623,0.855,1.664,0.938,2.834,0.35c1.424-0.716,2.767-1.593,4.153-2.386c1.197-0.686,2.406-1.35,3.987-2.234&#10;&#9;&#9;&#9;c-1.548,2.839-4.206,3.765-6.203,5.722c1.572,0.779,2.744,0.353,3.899-0.2c3.94-1.888,7.327-4.508,10.194-7.796&#10;&#9;&#9;&#9;c0.971-1.113,1.93-2.222,3.414-2.704c-3.085,3.943-6.931,7.134-10.802,11.106c5.536-1.147,9.244-4.537,13.276-7.306&#10;&#9;&#9;&#9;c0.104,0.122,0.209,0.245,0.312,0.367c-0.901,1.04-1.804,2.08-2.992,3.45c1.827-0.129,2.975-0.797,4.095-1.508&#10;&#9;&#9;&#9;c2.992-1.899,5.502-4.364,7.996-6.849c0.316-0.314,0.764-0.496,1.15-0.738c0.099,0.15,0.197,0.301,0.296,0.451&#10;&#9;&#9;&#9;c-3.82,3.668-6.978,8.066-11.95,10.516c1.976-0.074,3.691-0.83,5.336-1.806c3.5-2.077,6.169-5.071,8.754-8.116&#10;&#9;&#9;&#9;c2.118-2.494,4.021-5.171,6.036-7.754c0.233-0.3,0.571-0.519,0.86-0.774c-3.825,7.269-8.678,13.597-15.533,18.276&#10;&#9;&#9;&#9;c0.301,0.193,0.368,0.272,0.436,0.272c0.238,0.001,0.48,0,0.713-0.045c4.412-0.849,7.611-3.534,10.344-6.892&#10;&#9;&#9;&#9;c1.261-1.55,2.491-3.13,3.644-4.761c1.797-2.544,3.534-5.131,5.256-7.727c0.499-0.753,0.861-1.597,1.286-2.399&#10;&#9;&#9;&#9;c0.145,0.077,0.289,0.154,0.433,0.231c-0.844,3.075-2.701,5.657-4.443,8.278c-1.752,2.637-3.621,5.195-5.438,7.788&#10;&#9;&#9;&#9;c0.109,0.111,0.219,0.224,0.328,0.335c0.545-0.392,1.189-0.697,1.618-1.189c2.147-2.469,4.462-4.831,6.301-7.517&#10;&#9;&#9;&#9;c3.792-5.539,6.928-11.479,9.869-17.515c0.035-0.072,0.248-0.059,0.521-0.114c-0.081,0.346-0.107,0.649-0.222,0.915&#10;&#9;&#9;&#9;c-2.712,6.327-5.756,12.48-9.605,18.21c-0.319,0.475-0.84,0.96-0.358,1.808c1.5-0.8,2.673-1.838,3.682-3.091&#10;&#9;&#9;&#9;c3.219-3.997,5.925-8.335,8.477-12.774c0.459-0.799,0.81-1.661,1.21-2.494c0.146,0.077,0.293,0.155,0.438,0.232&#10;&#9;&#9;&#9;c-2.38,6.526-6.315,12.203-10.264,17.885c3.189-1.271,5.803-3.159,7.658-6.005c0.611-0.937,1.339-1.8,1.926-2.75&#10;&#9;&#9;&#9;c1.969-3.186,4.452-6.076,5.627-9.725c0.042-0.133,0.315-0.192,0.814-0.474c-1.102,3.838-3.163,6.779-4.954,9.863&#10;&#9;&#9;&#9;c-1.821,3.136-3.725,6.198-6.367,8.796c0.762-0.15,1.381-0.444,1.946-0.82c4.198-2.793,6.814-6.906,9.214-11.177&#10;&#9;&#9;&#9;c1.252-2.226,2.378-4.522,3.561-6.788c-1.739,6.655-5.204,12.383-9.365,17.774c3.659-1.542,6.128-4.399,8.46-7.426&#10;&#9;&#9;&#9;c2.359-3.061,4.402-6.309,5.98-9.878c0.094,0.512,0.074,0.975-0.057,1.402c-1.238,4.042-3.538,7.492-6.053,10.823&#10;&#9;&#9;&#9;c-0.346,0.458-0.621,0.969-0.93,1.455c6.711-3.888,9.784-10.579,13.541-16.767c-0.92,4.614-3.873,8.231-5.828,12.364&#10;&#9;&#9;&#9;c0.54-0.42,0.896-0.974,1.307-1.483c0.595-0.738,1.104-1.634,1.867-2.128c2.168-1.406,3.651-3.285,4.668-5.631&#10;&#9;&#9;&#9;c0.343-0.792,0.604-1.769,2.04-2.391c-0.522,1.713-0.924,3.026-1.403,4.6c2.707-1.447,3.562-4.071,5.178-6.337&#10;&#9;&#9;&#9;c0.455,1.153-0.062,1.924-0.323,2.699c-0.278,0.825-0.664,1.613-1.003,2.418c1.963-1.219,3.549-2.613,4.221-4.52&#10;&#9;&#9;&#9;c-0.995-0.977-1.879-1.762-2.664-2.634c-1.696-1.884-3.777-3.123-6.014-3.977c-1.275,0.671-2.163,1.881-4.022,1.44&#10;&#9;&#9;&#9;c0.956-0.8,1.681-1.405,2.446-2.045c-0.796-0.6-1.359-0.614-1.892-0.042c-0.325,0.35-0.612,0.752-0.989,1.035&#10;&#9;&#9;&#9;c-1.04,0.785-2.078,1.626-3.819,1.559c0.958-1.5,2.802-1.708,3.096-3.49c-2.776,1.187-5.117,3.374-8.302,3.485&#10;&#9;&#9;&#9;c1.616-1.479,4.021-1.851,5.277-3.745c-0.406-0.929-0.918-1.245-1.735-0.696c-0.929,0.623-1.821,1.316-2.802,1.844&#10;&#9;&#9;&#9;c-1.562,0.841-3.178,1.587-5.028,1.58c0.907-0.677,1.937-1.079,2.864-1.649c1.561-0.959,3.077-1.995,4.559-3.073&#10;&#9;&#9;&#9;c0.245-0.179,0.217-0.734,0.314-1.115c-1.232,0.385-2.079,1.069-2.995,1.641c-0.87,0.542-1.762,1.169-3.245,0.923&#10;&#9;&#9;&#9;c1.489-1.456,3.419-1.859,4.32-3.806c-0.604-0.282-1.138-0.532-1.672-0.782l0.032,0.029c-0.864-0.886-1.845-0.711-2.89-0.383&#10;&#9;&#9;&#9;c-0.664,0.207-1.349,0.76-2.358,0.163c1.64-0.975,3.081-1.79,4.479-2.675c1.251-0.792,1.276-1.038,0.483-2.462&#10;&#9;&#9;&#9;c-2.287,1.204-4.535,2.565-7.25,2.677c0.751-0.595,1.584-1.02,2.408-1.459c1.128-0.602,2.305-1.132,3.36-1.842&#10;&#9;&#9;&#9;c1.356-0.914,1.328-1.268,0.033-3.002c-3.214,2.219-6.365,4.691-10.534,4.892c0.615-0.469,1.319-0.737,2.013-1.033&#10;&#9;&#9;&#9;c2.667-1.135,5.186-2.515,7.181-4.671c0.787-0.851,0.731-0.947-0.383-1.961c-1.998,1.312-3.947,2.7-5.999,3.917&#10;&#9;&#9;&#9;c-2.939,1.743-5.189,2.368-6.879,2.032c0.413-0.187,0.684-0.32,0.962-0.432c2.977-1.195,5.861-2.567,8.415-4.537&#10;&#9;&#9;&#9;c0.755-0.582,1.479-1.23,2.104-1.948c0.601-0.689,0.381-1.317-0.684-1.814c-3.149,2.319-6.521,4.514-10.705,4.833&#10;&#9;&#9;&#9;c0.857-0.566,1.784-0.98,2.717-1.381c2.365-1.018,4.582-2.284,6.502-4.013c0.268-0.24,0.333-0.707,0.492-1.068&#10;&#9;&#9;&#9;c-2.116,1.198-3.953,2.627-6.387,2.797c0.782-0.679,1.661-1.187,2.504-1.749c0.919-0.613,1.861-1.226,2.305-2.625&#10;&#9;&#9;&#9;c-4.358-2.338-8.687-3.452-13.356-0.76c0.744-1.199,1.288-2.373,2.784-2.77c1.005-0.267,0.975-0.613,0.271-2&#10;&#9;&#9;&#9;c-1.846,0.585-3.293,2.188-5.354,2.28c1.463-1.376,3.465-1.993,4.693-3.604c-0.489-1.123-1.126-1.354-2.099-0.679&#10;&#9;&#9;&#9;c-1.508,1.049-3.06,2.026-4.891,2.415c0.734-0.646,1.571-1.118,2.318-1.705c0.72-0.564,1.683-0.946,1.902-1.955&#10;&#9;&#9;&#9;c-0.474-0.771-1.035-0.902-1.639-0.374c-0.784,0.688-1.606,1.234-3.024,1.38c0.903-0.897,1.579-1.569,2.294-2.28&#10;&#9;&#9;&#9;c-3.417-2.179-7.026-2.929-10.746-2.425c-0.838,0.113-1.756,0.149-2.556-0.072c-2.766-0.764-5.455-1.835-8.248-2.457&#10;&#9;&#9;&#9;c-3.844-0.855-7.732-1.186-11.601,0.152c-2.655,0.919-5.021,2.214-6.863,4.401c2.352-1.001,4.41-2.633,7.011-3.044&#10;&#9;&#9;&#9;c-0.342,0.468-0.784,0.741-1.226,1.017c-1.827,1.143-3.663,2.272-5.478,3.436c-0.805,0.517-1.555,1.118-2.357,1.639&#10;&#9;&#9;&#9;c-0.138,0.09-0.415-0.036-0.726-0.074c0.313-0.685,0.583-1.271,0.904-1.973c-3.118-0.811-6.14-1.108-8.944-0.151&#10;&#9;&#9;&#9;c-1.857,0.633-3.129,0.489-4.555-0.645c-0.871-0.693-1.824-1.32-2.822-1.812c-1.566-0.771-3.156-1.562-4.822-2.055&#10;&#9;&#9;&#9;c-2.141-0.633-4.357-1.023-6.557-1.438c-4.508-0.85-9.051-1.294-13.57-0.213c-2.244,0.537-4.379,1.521-6.619,2.087&#10;&#9;&#9;&#9;c-3.727,0.941-6.518,3.302-9.26,5.769c-0.344,0.309-0.52,0.805-0.773,1.215c2.76-1.2,5.195-2.71,7.744-3.996&#10;&#9;&#9;&#9;c2.496-1.26,5.137-2.196,7.951-2.521c-5.02,2.372-10.488,3.878-14.688,8.184c0.41,0.314,0.723,0.554,1.033,0.793&#10;&#9;&#9;&#9;c-0.055,0.076-0.115,0.149-0.18,0.218c-1.137,0.343-2.32,0.577-3.4,1.051c-2.471,1.083-4.887,2.292-7.338,3.424&#10;&#9;&#9;&#9;c-0.373,0.172-0.812,0.2-1.221,0.296c-0.07-0.145-0.139-0.288-0.209-0.433c0.625-0.416,1.211-0.917,1.881-1.234&#10;&#9;&#9;&#9;c2.152-1.019,4.332-1.979,6.512-2.938c0.523-0.231,1.201-0.45,0.951-1.104c-0.146-0.38-0.824-0.557-1.264-0.824l0.029,0.039&#10;&#9;&#9;&#9;c0.107-0.262,0.215-0.523,0.42-1.029c-5.326-0.142-9.955,0.92-13.732,4.486c-0.99,0.937-1.914,1.404-3.344,1.352&#10;&#9;&#9;&#9;c-3.846-0.141-7.443,0.787-10.594,3.132c-0.939,0.698-1.803,1.426-2.307,3.043c1.109-0.724,1.809-1.222,2.547-1.648&#10;&#9;&#9;&#9;c0.76-0.438,1.543-0.85,2.35-1.195c0.721-0.31,1.422-0.79,2.793-0.703c-3.545,1.93-6.637,3.613-8.893,6.431&#10;&#9;&#9;&#9;c-0.156,0.195-0.637,0.131-1.268,0.238c0.393-0.927,0.654-1.543,1.029-2.424c-2.174-0.316-3.971,0.116-5.686,0.958&#10;&#9;&#9;&#9;c-1.291,0.634-2.5,1.444-3.816,2.014c-2.615,1.133-3.982,3.372-5.262,5.694c-0.42,0.766-0.723,1.636,0.191,2.524&#10;&#9;&#9;&#9;c1.27-0.108,2.627-0.225,3.984-0.34c0.043,0.163,0.088,0.325,0.131,0.488c-0.758,0.382-1.529,0.739-2.271,1.15&#10;&#9;&#9;&#9;c-0.701,0.389-1.725,0.149-2.432,1.312c2.143,0.153,3.893-0.975,6.111-0.604c-1.705,1.574-3.965,1.344-5.693,2.789&#10;&#9;&#9;&#9;c2.645,0.867,4.602-0.945,6.965-0.738c-1.223,0.843-2.445,1.686-3.668,2.527c0.051,0.105,0.102,0.21,0.152,0.314&#10;&#9;&#9;&#9;c2.312-0.667,4.627-1.335,6.939-2.002c-1.932,2.312-4.682,2.833-7.484,3.692c0.365,0.485,0.625,0.829,0.889,1.179&#10;&#9;&#9;&#9;c1.439-1.222,7.164-3.36,9.51-3.552c-2.469,2.013-5.438,2.801-8.271,4.341c0.445,0.307,0.707,0.629,0.906,0.595&#10;&#9;&#9;&#9;c0.453-0.077,0.863-0.45,1.311-0.494c3.094-0.303,5.85-1.48,8.48-3.064c0.73-0.44,1.531-0.909,2.936-0.856&#10;&#9;&#9;&#9;c-2.682,1.693-4.949,3.126-7.477,4.721c2.393,0.244,4.363-0.97,6.711-0.568c-2.086,2.066-4.826,1.671-6.949,2.855&#10;&#9;&#9;&#9;c2.01,0.101,3.885-0.557,5.777-1.027s3.74-1.124,5.607-1.697c-2.246,2.33-5.352,3.002-8.209,4.286&#10;&#9;&#9;&#9;c0.539,0.305,1.055,0.521,1.547,0.477c3.559-0.315,6.824-1.521,9.889-3.336c0.994-0.588,2.07-1.041,3.109-1.556&#10;&#9;&#9;&#9;c-1.717,2.786-4.77,3.558-7.41,5.353c2.754-0.129,4.83-1.901,7.471-1.609c-1.979,1.083-3.957,2.166-5.936,3.25&#10;&#9;&#9;&#9;c0.045,0.105,0.09,0.211,0.135,0.316c3.676-1.317,7.352-2.635,11.029-3.952c0.062,0.126,0.127,0.253,0.191,0.379&#10;&#9;&#9;&#9;c-1.678,0.981-3.354,1.963-5.311,3.109c1.535,0,2.689-0.202,3.734,0.048c1.59,0.378,3.002,0.039,4.43-0.503&#10;&#9;&#9;&#9;c1.344-0.511,2.66-1.098,4.018-1.561c0.562-0.191,1.205-0.146,1.809-0.209L420.307,457.993z M576.697,458.822&#10;&#9;&#9;&#9;c0.519-0.752,0.945-1.373,1.371-1.99c-1.881-1.325-4.071-1.497-4.907-0.329c-1.231,1.72-2.289,3.562-3.467,5.426&#10;&#9;&#9;&#9;c2.585-0.354,3.516-2.694,5.287-4.09C575.476,458.122,575.935,458.385,576.697,458.822z"/>
      <path fill-rule="evenodd" clip-rule="evenodd" d="M427.486,421.151c3.271-2.747,7.275-4.07,11.125-5.683&#10;&#9;&#9;&#9;c0.551-0.23,1.242-0.126,1.867-0.178l-0.023-0.029c-2.348,1.155-4.693,2.315-7.043,3.466c-1.707,0.835-3.344,1.763-4.82,3.397&#10;&#9;&#9;&#9;c0.785,0.258,1.371,0.45,2.059,0.677c-2.07,0.691-4.055,1.261-5.963,2.021c-1.809,0.721-3.537,1.643-5.633,2.163&#10;&#9;&#9;&#9;c0.256-0.389,0.424-0.956,0.783-1.134c1.639-0.808,3.293-1.612,5.016-2.206c1.223-0.422,2.174-0.933,2.453-2.277&#10;&#9;&#9;&#9;C427.371,421.301,427.432,421.228,427.486,421.151z"/>
      <path fill-rule="evenodd" clip-rule="evenodd" d="M503.246,458.623c5.276-0.134,16.679-7.017,25.537-15.165&#10;&#9;&#9;&#9;c0.016,0.951-0.518,1.405-0.954,1.906c-2.174,2.495-4.92,4.307-7.515,6.3c-3.824,2.938-7.991,5.289-12.413,7.189&#10;&#9;&#9;&#9;c-1.023,0.44-2.089,0.821-3.172,1.07c-0.579,0.134-1.594,0.154-1.792-0.162c-0.639-1.018-1.702-0.661-2.994-1.134&#10;&#9;&#9;&#9;c8.756-4.769,17.094-9.47,24.631-15.496c-0.314,1.072-1.111,1.817-1.94,2.433c-2.562,1.902-5.139,3.797-7.81,5.541&#10;&#9;&#9;&#9;c-3.405,2.225-6.911,4.295-10.364,6.446C504.146,457.747,503.894,458.045,503.246,458.623z"/>
      <path fill-rule="evenodd" clip-rule="evenodd" d="M515.602,442.677c-5.895,5.632-12.907,9.677-20.288,13.144&#10;&#9;&#9;&#9;c-2.118,0.995-2.138,0.952-3.785,0.828c4.246-2.27,8.352-4.32,12.311-6.621C507.835,447.706,511.687,445.138,515.602,442.677z"/>
      <path fill-rule="evenodd" clip-rule="evenodd" d="M488.376,454.842c8.199-3.799,16.17-8.001,23.577-13.242&#10;&#9;&#9;&#9;c-0.752,1.47-2.076,2.331-3.334,3.206c-5.903,4.108-12.104,7.691-18.795,10.374c-0.397,0.159-0.88,0.104-1.323,0.147&#10;&#9;&#9;&#9;C488.459,455.165,488.417,455.003,488.376,454.842z"/>
      <path fill-rule="evenodd" clip-rule="evenodd" d="M519.122,443.539c-4.078,6.066-18.197,14.939-23.142,14.644&#10;&#9;&#9;&#9;c2.531-1.159,4.612-2.018,6.602-3.051c1.98-1.028,3.908-2.171,5.788-3.374c1.946-1.247,3.855-2.564,5.691-3.969&#10;&#9;&#9;&#9;C515.809,446.452,517.439,444.963,519.122,443.539z"/>
      <path fill-rule="evenodd" clip-rule="evenodd" d="M507.831,438.39c-3.323,5.035-8.022,8.522-13.277,11.28&#10;&#9;&#9;&#9;c-4.348,2.281-5.805,2.598-7.898,2.207c4.123-1.77,7.998-3.357,11.549-5.611C501.737,444.023,504.598,441.011,507.831,438.39z"/>
      <path fill-rule="evenodd" clip-rule="evenodd" d="M463.572,431.939c0.299-0.336,0.543-0.751,0.902-0.995&#10;&#9;&#9;&#9;c5.236-3.554,10.74-6.555,16.94-8.091c0.386-0.096,0.787-0.283,1.162-0.243c1.555,0.165,2.729-0.624,3.956-1.386&#10;&#9;&#9;&#9;c0.972-0.604,1.982-1.233,3.647-1.011c-1.743,1.087-3.139,1.966-4.548,2.824c-0.191,0.116-0.454,0.196-0.672,0.176&#10;&#9;&#9;&#9;c-3.499-0.33-6.558,1.075-9.496,2.623c-3.658,1.926-7.176,4.119-10.758,6.188c-0.25,0.145-0.543,0.214-0.814,0.318&#10;&#9;&#9;&#9;C463.785,432.208,463.678,432.073,463.572,431.939z"/>
      <path fill-rule="evenodd" clip-rule="evenodd" d="M446.736,417.37c-2.771,1.12-5.57,2.176-8.301,3.383&#10;&#9;&#9;&#9;c-1.74,0.769-3.416,1.701-5.045,2.686c-0.588,0.355-0.955,1.078-1.447,1.662c-2.527,0.948-5.166,1.938-7.805,2.929&#10;&#9;&#9;&#9;c-0.09-0.11-0.182-0.222-0.273-0.332c0.293-0.359,0.516-0.893,0.893-1.049c1.615-0.666,3.285-1.202,4.918-1.828&#10;&#9;&#9;&#9;c0.566-0.217,1.129-0.496,1.613-0.854c1.008-0.746,1.863-1.752,2.955-2.318c3.324-1.727,6.734-3.289,10.41-4.153&#10;&#9;&#9;&#9;c0.676-0.159,1.381-0.19,2.07-0.281C446.729,417.266,446.732,417.317,446.736,417.37z"/>
      <path fill-rule="evenodd" clip-rule="evenodd" d="M481.729,450.71c6.373-1.613,11.589-4.661,16.863-7.961&#10;&#9;&#9;&#9;c-0.548,1.68-3.492,3.699-8.948,6.31C485.199,451.186,483.844,451.513,481.729,450.71z"/>
      <path fill-rule="evenodd" clip-rule="evenodd" d="M461.303,428.425c2.484-1.26,4.945-2.568,7.459-3.767&#10;&#9;&#9;&#9;c2.371-1.131,4.793-2.158,7.205-3.202c0.4-0.173,0.867-0.196,1.373-0.099c-5.373,2.587-10.717,5.168-15.891,8.694&#10;&#9;&#9;&#9;c-0.051-0.699-0.086-1.188-0.121-1.677L461.303,428.425z"/>
      <path fill-rule="evenodd" clip-rule="evenodd" d="M469.129,418.649c-1.912,1.122-3.895,2.141-5.715,3.395&#10;&#9;&#9;&#9;c-1.811,1.249-3.459,2.735-5.391,4.285c-1.57,0.351-3.473,0.774-5.375,1.198c-0.045-0.139-0.088-0.277-0.131-0.416&#10;&#9;&#9;&#9;c0.789-0.252,1.566-0.668,2.369-0.725c1.883-0.133,3.34-1.018,4.537-2.346c2.02-2.24,4.549-3.702,7.227-4.957&#10;&#9;&#9;&#9;c0.762-0.356,1.57-0.614,2.355-0.917C469.047,418.328,469.088,418.488,469.129,418.649z"/>
      <path fill-rule="evenodd" clip-rule="evenodd" d="M431.82,430.828c0.748-1.824,1.951-2.303,3-2.896&#10;&#9;&#9;&#9;c4.203-2.375,8.396-4.79,13.336-5.344C442.375,424.241,437.531,427.803,431.82,430.828z"/>
      <path fill-rule="evenodd" clip-rule="evenodd" d="M419.334,468.802c0.352-0.554,0.434-0.868,0.605-0.928&#10;&#9;&#9;&#9;c4.869-1.693,9.582-3.744,14.133-6.203c-1.518,1.559-3.408,2.505-5.248,3.531c-1.455,0.812-2.893,1.663-4.383,2.405&#10;&#9;&#9;&#9;c-1.137,0.566-2.324,1.042-3.527,1.446C420.549,469.177,420.059,468.931,419.334,468.802z"/>
      <path fill-rule="evenodd" clip-rule="evenodd" d="M478.969,432.049c0.375-0.345,0.693-0.842,1.135-1.005&#10;&#9;&#9;&#9;c1.564-0.576,3.142-1.237,4.771-1.485c1.586-0.24,3.115-0.461,4.521-1.279c0.302-0.176,0.699-0.19,1.139-0.092&#10;&#9;&#9;&#9;c-2.231,1.922-4.451,3.804-7.5,5.221c0.495-2,2.473-1.611,3.18-2.982C483.401,429.69,481.617,432.049,478.969,432.049z"/>
      <path fill-rule="evenodd" clip-rule="evenodd" d="M450.865,428.289c-0.332,0.194-0.652,0.405-0.994,0.578&#10;&#9;&#9;&#9;c-4.016,2.032-8.035,4.059-12.094,6.106c-0.234-0.921,0.439-1.198,0.918-1.545C441.492,431.4,448.707,428.162,450.865,428.289z"/>
      <path fill-rule="evenodd" clip-rule="evenodd" d="M394.584,437.1c-0.252-1.003,0.52-1.315,1.029-1.729&#10;&#9;&#9;&#9;c3.273-2.662,8.354-5.207,11.279-5.562C402.666,432.312,398.693,434.665,394.584,437.1z"/>
      <path fill-rule="evenodd" clip-rule="evenodd" d="M481.861,425.83c-4.561,2.471-9.379,4.318-13.621,7.669&#10;&#9;&#9;&#9;c-0.24-1.115,0.404-1.489,0.938-1.893c2.572-1.942,5.547-3.117,8.478-4.358C479.014,426.673,480.456,426.296,481.861,425.83z"/>
      <path fill-rule="evenodd" clip-rule="evenodd" d="M482.533,421.552c-0.3-1.164,0.248-1.636,0.804-2.054&#10;&#9;&#9;&#9;c3.064-2.306,6.429-3.929,10.263-4.476c-0.921,1.173-2.385,1.24-3.583,1.839c-1.349,0.675-2.711,1.34-3.988,2.135&#10;&#9;&#9;&#9;C484.863,419.72,483.804,420.612,482.533,421.552z"/>
      <path fill-rule="evenodd" clip-rule="evenodd" d="M447.318,437.01c2.072-3.082,9.119-5.969,13.01-5.461&#10;&#9;&#9;&#9;C455.598,432.432,451.371,434.498,447.318,437.01z"/>
      <path fill-rule="evenodd" clip-rule="evenodd" d="M491.218,443.957c-1.593,1.944-5.436,3.969-8.407,4.693&#10;&#9;&#9;&#9;c-0.749,0.184-1.517,0.49-2.461-0.441c1.961-0.685,3.727-1.246,5.449-1.916C487.464,445.644,489.085,444.883,491.218,443.957z"/>
      <path fill-rule="evenodd" clip-rule="evenodd" d="M396.332,439.658c0.277-1.645,1.434-2.035,2.254-2.642&#10;&#9;&#9;&#9;c3.494-2.585,6.762-4.128,8.824-4.28C403.842,434.966,400.273,437.195,396.332,439.658z"/>
      <path fill-rule="evenodd" clip-rule="evenodd" d="M423.219,419.606c-0.23,0.212-0.426,0.516-0.697,0.623&#10;&#9;&#9;&#9;c-3.402,1.336-6.738,2.794-9.961,5.361c0.096-0.74,0.021-1.166,0.201-1.363c0.477-0.524,0.992-1.101,1.615-1.388&#10;&#9;&#9;&#9;c2.381-1.098,4.799-2.117,7.232-3.096c0.482-0.193,1.09-0.073,1.639-0.099L423.219,419.606z"/>
      <path fill-rule="evenodd" clip-rule="evenodd" d="M527.85,448.122c-2.395,3.594-7.327,7.438-9.828,7.895&#10;&#9;&#9;&#9;C518.568,455.133,524.381,450.424,527.85,448.122z"/>
      <path fill-rule="evenodd" clip-rule="evenodd" d="M404.25,428.368c-2.004,1.08-3.936,1.969-5.699,3.115&#10;&#9;&#9;&#9;c-1.686,1.095-3.195,2.459-5.174,4.013c0.562-2.247,2.127-3.006,3.34-3.97C399.582,429.249,402.115,428.238,404.25,428.368z"/>
      <path fill-rule="evenodd" clip-rule="evenodd" d="M473.488,433.693c-0.197-1.583,0.496-2.061,1.146-2.479&#10;&#9;&#9;&#9;c2.918-1.873,6.055-3.147,9.595-3.285C480.403,429.139,476.725,430.619,473.488,433.693z"/>
      <path fill-rule="evenodd" clip-rule="evenodd" d="M438.557,423.436c-1.051,0.699-2.115,1.379-3.148,2.104&#10;&#9;&#9;&#9;c-0.639,0.45-1.266,0.934-1.836,1.469c-1.117,1.049-3.594,1.906-5.564,1.661c0.656-0.441,1.016-0.847,1.443-0.939&#10;&#9;&#9;&#9;c1.273-0.279,2.299-0.882,3.355-1.665c1.703-1.263,3.49-2.544,5.779-2.595L438.557,423.436z"/>
      <path fill-rule="evenodd" clip-rule="evenodd" d="M450.262,431.533c-3.531,2.122-7.062,4.243-10.598,6.358&#10;&#9;&#9;&#9;c-0.039,0.024-0.137-0.046-0.389-0.139c1.104-2.184,3.404-2.675,5.195-3.775C446.271,432.872,448.123,431.79,450.262,431.533z"/>
      <path fill-rule="evenodd" clip-rule="evenodd" d="M441.482,428.278c0.676-1.301,2.113-1.347,3.229-1.807&#10;&#9;&#9;&#9;c2.844-1.174,5.76-2.213,8.982-1.868c-0.93,0.196-1.885,0.312-2.781,0.604c-2.486,0.807-4.945,1.7-7.424,2.529&#10;&#9;&#9;&#9;c-0.662,0.222-1.357,0.338-2.037,0.503L441.482,428.278z"/>
      <path fill-rule="evenodd" clip-rule="evenodd" d="M472.322,420.199c-4.018,2.129-7.596,4.024-11.199,5.933&#10;&#9;&#9;&#9;c0.346-1.178,0.336-1.196,4.883-3.487C467.883,421.698,469.711,420.591,472.322,420.199z"/>
      <path fill-rule="evenodd" clip-rule="evenodd" d="M464.514,469.559c0.115-0.372,0.119-0.85,0.361-1.098&#10;&#9;&#9;&#9;c1.871-1.929,3.787-3.812,5.957-5.978c-0.695,1.971-4.594,6.136-6.357,7.038L464.514,469.559z"/>
      <path fill-rule="evenodd" clip-rule="evenodd" d="M420.338,458.03c1.768-1.184,3.521-2.387,5.307-3.544&#10;&#9;&#9;&#9;c0.846-0.547,1.75-1.005,2.873-1.644c-1.502,2.08-5.061,4.249-8.211,5.15L420.338,458.03z"/>
      <path fill-rule="evenodd" clip-rule="evenodd" d="M441.451,428.239c-0.201,0.243-0.357,0.564-0.613,0.72&#10;&#9;&#9;&#9;c-1.953,1.189-3.928,2.347-6.064,3.615c0-0.405-0.111-0.812,0.016-0.909c2.02-1.54,4.037-3.103,6.693-3.387L441.451,428.239z"/>
      <path fill-rule="evenodd" clip-rule="evenodd" d="M406.203,437.299c-1.912,1.026-3.494,1.877-5.383,2.891&#10;&#9;&#9;&#9;C401.656,438.14,403.465,437.199,406.203,437.299z"/>
      <path fill-rule="evenodd" clip-rule="evenodd" d="M528.724,450.489c0.664-1.595,2.041-2.424,3.422-3.257&#10;&#9;&#9;&#9;C531.688,448.998,530.371,449.911,528.724,450.489z"/>
      <path fill-rule="evenodd" clip-rule="evenodd" d="M490.358,432.286c0.443-1.842,1.379-2.495,4.106-2.868&#10;&#9;&#9;&#9;C493.152,430.697,491.977,431.659,490.358,432.286z"/>
      <path fill-rule="evenodd" clip-rule="evenodd" d="M438.768,449.018c-1.412,1.339-2.822,2.679-4.234,4.018&#10;&#9;&#9;&#9;c0.916-1.87,2.381-3.153,3.873-4.406C438.527,448.759,438.646,448.889,438.768,449.018z"/>
      <path fill-rule="evenodd" clip-rule="evenodd" d="M486.742,427.026c0.822-1.64,2.184-1.835,3.967-2.257&#10;&#9;&#9;&#9;C489.293,426.275,488.729,426.581,486.742,427.026z"/>
      <path fill-rule="evenodd" clip-rule="evenodd" d="M492.966,433.824c0.497-1.478,1.732-1.792,3.433-2.26&#10;&#9;&#9;&#9;C495.438,433.134,494.199,433.467,492.966,433.824z"/>
      <path fill-rule="evenodd" clip-rule="evenodd" d="M461.303,428.425l0.025-0.05c-2.014,0.406-4.027,0.812-6.15,1.241&#10;&#9;&#9;&#9;C457.143,428.431,459.334,428.02,461.303,428.425z"/>
      <path fill-rule="evenodd" clip-rule="evenodd" d="M447.674,463.023c1.201-0.969,2.402-1.938,3.602-2.906&#10;&#9;&#9;&#9;c0.104,0.127,0.207,0.255,0.309,0.382c-0.996,1.238-2.236,2.189-3.611,2.984C447.873,463.33,447.773,463.177,447.674,463.023z"/>
      <path fill-rule="evenodd" clip-rule="evenodd" d="M408.332,455.745c1.639-0.936,2.828-1.613,4.238-2.417&#10;&#9;&#9;&#9;C411.619,454.896,410.938,455.295,408.332,455.745z"/>
      <path fill-rule="evenodd" clip-rule="evenodd" d="M403.578,441.751c0.51-1.27,1.621-1.502,2.752-1.712&#10;&#9;&#9;&#9;C405.783,441.181,404.896,441.802,403.578,441.751z"/>
      <path fill-rule="evenodd" clip-rule="evenodd" d="M549.431,443.1c-0.607,1.758-0.972,1.995-3.575,2.117&#10;&#9;&#9;&#9;c1.217-1.044,2.458-1.495,3.607-2.088L549.431,443.1z"/>
      <path fill-rule="evenodd" clip-rule="evenodd" d="M514.481,474.365c0.516-1.304,1.322-2.361,2.586-3.125&#10;&#9;&#9;&#9;c-0.705,1.083-1.406,2.168-2.127,3.241C514.917,474.517,514.701,474.423,514.481,474.365z"/>
      <path fill-rule="evenodd" clip-rule="evenodd" d="M440.479,415.291c1.301-1.189,2.961-0.855,4.473-1.159&#10;&#9;&#9;&#9;c-0.957,0.637-2.502,0.991-4.496,1.13L440.479,415.291z"/>
      <path fill-rule="evenodd" clip-rule="evenodd" d="M469.809,457.621c-0.9,1.125-1.584,1.978-2.592,3.237&#10;&#9;&#9;&#9;C468.062,458.565,468.062,458.565,469.809,457.621z"/>
      <path fill-rule="evenodd" clip-rule="evenodd" d="M438.586,423.471c0.867-1.308,2.326-1.379,3.84-1.985&#10;&#9;&#9;&#9;c-1.074,1.305-1.793,1.641-3.869,1.95L438.586,423.471z"/>
    </g>
  </g>
</svg>