<svg xmlns="http://www.w3.org/2000/svg" viewBox="0 0 373.67 95.67"><defs><style>.sc-cls-1{fill:#fff;}.sc-cls-2{fill:none;stroke:#000;stroke-miterlimit:10;stroke-width:0.89px;}</style></defs><title>Asset 2</title><g id="Layer_2" data-name="Layer 2"><g id="Layer_1-2" data-name="Layer 1"><g id="cloud"><g id="fill"><path class="sc-cls-1" d="M171,26.35,155.41,40.09l-36.16-4.27s11.94-24,40.2-15.55S171,26.35,171,26.35Z"/><path class="sc-cls-1" d="M363.25,77.33a11.18,11.18,0,0,0-1.47-3,14.6,14.6,0,0,0-3.23-2c0-.51-.07-1.27-.14-2-.27-2.76-1.34-4.91-4-6.18A12.81,12.81,0,0,0,349.1,63a4.94,4.94,0,0,1-.4-.82,7.29,7.29,0,0,1-.29-1.44A18.92,18.92,0,0,0,343.94,50,37,37,0,0,0,336,43.1a47.38,47.38,0,0,0-8.59-4.43,14.79,14.79,0,0,0-10.69-.78c-4.24-4.92-9.07-8.59-16.13-6.51a1.66,1.66,0,0,1-.9-2,8,8,0,0,0,0-3.12,16.38,16.38,0,0,0-6.46-9.81,37,37,0,0,0-8.61-4.4c-.46-.17-.93-.33-1.39-.48a15.15,15.15,0,0,1-7.05,3.81A31.65,31.65,0,0,1,271,16a13.32,13.32,0,0,1-4.66-.83,20.87,20.87,0,0,1-13.69,5.18,20.48,20.48,0,0,1-4.61-.53,38.74,38.74,0,0,1-9.46,5.27,20,20,0,0,1-5,13.05l.27-.18.24.34-4.61,3.45c0-.07.09-.14.14-.21-3.19,2.12-7.21,3.64-10.71,3.18-2.65-.35-5.3-.69-7.94-1.08l-1-.13c-1.22.18-2.44.34-3.67.47-3.21.41-6.24-.16-9.45-.7-7.19-1.2-12.55-8.16-14-15.16-1.49-.26-3-.56-4.43-.93l-3.57-.43L171,26.34c-1,.61-2,1.25-3.05,1.91a10.86,10.86,0,0,1,2.1-2c-1.68-.2-3.35-.41-5-.67a21.26,21.26,0,0,1-5.13,3.16A14.22,14.22,0,0,1,158.52,30c-.31.26-.63.52-.94.76l.21-.11c2.44-1.27,4.87-2.62,7.73-2.76-6,2.12-11.2,5.59-16.29,9.3a10.49,10.49,0,0,1,3-3.1,19.84,19.84,0,0,1-14.18,1.31,20.33,20.33,0,0,1-11.46-8.23c-.66.2-1.32.37-2,.5a32.29,32.29,0,0,0-2.38,3.89,27.57,27.57,0,0,0-2.93,8.08c-.24,1.39-.65,1.63-2,1.55-.35,0-.69-.15-1-.16-2.81-.07-5.65-.28-8.2,1.26a27.87,27.87,0,0,0-2.66,2,3.06,3.06,0,0,1-2.66,1c-3.12-.69-5.63.59-7.89,2.54-1.16,1-1.14,1.05-2.5.39C89.7,46.94,87,46.14,84,46.95a2.11,2.11,0,0,1-.71-.11c-.64-1.12-1.31-2.27-1.95-3.43A14.22,14.22,0,0,0,74.9,37a15.63,15.63,0,0,0-6.71-1.52,21.49,21.49,0,0,0-9.82,2.83,13.18,13.18,0,0,0-4.28,3.35,23.59,23.59,0,0,0-2.17,3.1,2.34,2.34,0,0,1-2.53,1.33c-4.43-.27-8.32,1-11.17,4.64-.34.44-.7.86-1,1.23a14.53,14.53,0,0,0-2.8.18c-3.18.84-5.4,2.77-5.9,6.13a3.26,3.26,0,0,1-2.83,3.11,6.94,6.94,0,0,0-1,.34c-2.51.88-5,1.78-7.54,2.64a13.75,13.75,0,0,1-2.24.55,47.78,47.78,0,0,0-8.05,1.58,7.73,7.73,0,0,0-4.44,4.87C3.59,72,4.64,71.07,6,71,5,72.3,3.64,72.6,2.5,73.25c2.55,0,4.57-1.77,7.06-2L2.83,75.15c.7.27,1.07.54,1.4.5A6.33,6.33,0,0,0,6,75.12c1.92-.87,3.81-1.8,5.72-2.69a5.06,5.06,0,0,1,.84-.24l.11.29-7.4,4.15a1,1,0,0,0,1.48.64c.74-.23,1.43-.59,2.15-.85s1.25-.4,1.87-.6l.07-.07.07,0a7.77,7.77,0,0,1,4-2.27c-1.25.89-2.33,2.06-4,2.27l0,.05-.1,0L8.24,78.15a5.26,5.26,0,0,0,4.07-.59c1-.52,2.11-1,3.17-1.45l.17.3-2.18,1.66c2.72.9,4.51-1.31,6.74-1.67l.34.47-2,1.13.31.45c1.48.1,2.66-1.21,4.46-1.22l-2,2.16c1.62.61,2.9-.15,4.52-.58l-1,1.92,3.44-.25-.16,1.41a3.48,3.48,0,0,0,2.9-.34,3.49,3.49,0,0,1,1.37-.48A34.22,34.22,0,0,0,40,78.52c1.45-.64,2.91-1.24,4.37-1.85l.16.38a68.74,68.74,0,0,1-12.4,5.72A10.09,10.09,0,0,0,40.19,82a.55.55,0,0,1,.19-.08h.81l.08.36-6.57,3.13a12.88,12.88,0,0,0,6.1-.81q3.3-1.38,6.62-2.72c.43-.17.88-.28,1.32-.42-1.25,1.62-3.21,1.8-4.82,2.67s-3.66,1.28-5.32,2.78a4.59,4.59,0,0,0,3.26,0c3-1.21,6-2.42,9-3.61a6.53,6.53,0,0,1,1-.23c-2.81,2.25-6.32,3.14-9.32,5.3a5.55,5.55,0,0,0,4.85-.12c1.66-.9,3.41-1.65,5.12-2.46.34-.16.7-.27,1.05-.4-1.06,1.51-2.82,2.06-4.17,3.37,1.2,0,2.18,0,3.15,0a3.47,3.47,0,0,0,1.2-.39c2.23-1,4.45-2.07,6.68-3.1.29-.14.6-.25.89-.37-2.35,2.33-5.65,3.1-8.4,5.3a7.9,7.9,0,0,0,4.68-.64c1.56-.63,3.08-1.37,4.63-2,2-.81,3.95-1.57,5.92-2.35l.11-.08.09,0A17.83,17.83,0,0,1,73,81.8,10.08,10.08,0,0,1,68.34,85l-.07.06-.13.05a10.62,10.62,0,0,1-1.57,1.12c-2.07,1-4.18,2-6.26,3a11.63,11.63,0,0,0-1.34.89,4.76,4.76,0,0,0,3-.68c1-.44,2.09-.82,3.1-1.31s1.84-1,2.77-1.52a7.9,7.9,0,0,1,3-1.21,4.61,4.61,0,0,1-1.34,1.23c-.77.47-1.56.89-2.36,1.31s-1.86,1-2.8,1.44a6.34,6.34,0,0,0-2.51,1.9A7.38,7.38,0,0,0,65.21,91a43.9,43.9,0,0,0,9.42-4.17c.52-.28,1.07-.5,1.6-.75-1.34,2.05-3.87,2.4-5.53,4.24A4.42,4.42,0,0,0,73.76,90,44.72,44.72,0,0,0,82,85.75a4,4,0,0,1,2.09-.92c-2.25,2.5-5.37,3.3-7.62,5.37,5.08-1.6,9.46-4.61,14.22-6.89-2.76,2.78-6.65,3.92-9.86,6.83.83-.2,1.23-.27,1.61-.39a44.75,44.75,0,0,0,10-4.81c.07,0,.24.06.4.1l-.94,1.36c5.75-2.55,10.6-6.45,16.12-9.22-1.22,1.26-2.46,2.48-3.76,3.64s-2.63,2.22-4.3,3.62c1.59-.26,2.7-.38,3.77-.64a6.86,6.86,0,0,0,2.12-.86A51.5,51.5,0,0,0,115.64,75a15.32,15.32,0,0,1,1.16-1,21.93,21.93,0,0,1-4.5,5.46c-1.77,1.63-3.9,2.85-5.57,5,.69,0,1.15.2,1.47.06a21.45,21.45,0,0,0,3.55-1.79,71.16,71.16,0,0,0,12.07-10.46,6.54,6.54,0,0,1,1-.75,46.61,46.61,0,0,1-5.65,6.29c-2.27,2.1-4.71,4-7.06,6a9.48,9.48,0,0,0-.94,1.11,4.34,4.34,0,0,0,.88.05,5,5,0,0,0,1-.32,56.52,56.52,0,0,0,14.4-9.75c1.87-1.69,3.59-3.56,5.38-5.33a3.06,3.06,0,0,1,1.94-1.22,40.91,40.91,0,0,1-4.24,4.4c-1.31,1.37-2.66,2.71-4.08,4s-3.05,2.47-4.57,3.72S118.68,82.47,117,84a7.91,7.91,0,0,0,1-.22,52.67,52.67,0,0,0,8.54-4.1,15.33,15.33,0,0,1,2-1s0,0,0,0l.06,0a5.15,5.15,0,0,1,2.84-2.11,4.69,4.69,0,0,1-2.84,2.11l0,0,0,0a1.85,1.85,0,0,1-1.12,1.36c-2,1.13-4,2.27-6.06,3.38a8.15,8.15,0,0,0-2.68,1.82,14.65,14.65,0,0,0,1.49-.19c3.45-.85,6.46-2.69,9.54-4.35,1.84-1,3.51-2.3,5.27-3.45a4.89,4.89,0,0,1,1.16-.24c-.57.52-.75.71-1,.87a68.89,68.89,0,0,1-11.66,7.1,8.1,8.1,0,0,0-2.37,1.58,32.23,32.23,0,0,0,8.7-3.08c3.48-1.95,6.79-4.19,10.18-6.3.38-.24.79-.44,1.18-.66C136.34,81,130.64,84.1,125,87.43a13.21,13.21,0,0,0,5.15-.85,71.78,71.78,0,0,0,11.89-6.24,9,9,0,0,1,1.65-.74l0-.05.06,0c.6-1.16,1.74-1.6,2.95-2.28a4.53,4.53,0,0,1-2.95,2.28l0,.05-.06,0a6.65,6.65,0,0,1-3,2.48c-3.12,1.75-6.3,3.39-9.46,5.08-.54.28-1.05.61-1.67,1a2,2,0,0,0,2.12.49A25.57,25.57,0,0,0,139.44,86c2.17-1.13,4.18-2.58,6.25-3.89a1.83,1.83,0,0,1,1.77-.44l-4.85,3.43c-1.5,1.06-3.3,1.66-4.9,3.16a4.89,4.89,0,0,0,1.14,0,38.94,38.94,0,0,0,5.26-2.09,62.4,62.4,0,0,0,8.25-5.07,9.62,9.62,0,0,1,1.25-.63c-.88,1.45-3.72,3.6-6.51,5.06l-7.63,4a16.27,16.27,0,0,0,7.19-1.78c3.25-1.95,6.44-4,9.66-6a6.77,6.77,0,0,1,.86-.38c-3.58,3.46-8,5.63-12,8.54a11.55,11.55,0,0,0,2.62-.63,16.69,16.69,0,0,0,2.32-1c2.41-1.3,4.8-2.64,7.2-4a7,7,0,0,1,2.9-1.07c-1.65,1.61-3.84,2.37-5.67,3.68s-4.26,2.08-6.14,3.89a3.7,3.7,0,0,0,1,0c3-1.07,6.18-1.94,9.09-3.3s5.33-3.1,8-4.68c.41-.24.79-.73,1.54-.36-4.23,3.57-9.12,5.73-13.62,8.59a1.74,1.74,0,0,0,1,.06,27.83,27.83,0,0,0,9.22-4c2.9-2,5.68-4.13,8.52-6.18a10.12,10.12,0,0,1,1.31-.69l.21.38-14,10.33c2.71-.82,5.23-1.28,7.51-2.65a88.7,88.7,0,0,0,8.47-5.89c.39-.3.79-.59,1.2-.87s.85-.55,1.27-.83c-2.91,3.41-6.72,5.67-10.33,9a26.07,26.07,0,0,0,6.72-2.43,23.7,23.7,0,0,0,5.61-3.7c1.64-1.47,3.24-3,4.85-4.47-1.86,3.44-5.42,5.41-7.45,8.85a3.2,3.2,0,0,0,.72-.19A79.79,79.79,0,0,0,188,81.21a2.73,2.73,0,0,0,1.23-2.36A44.29,44.29,0,0,0,198.75,74c2.92-1.92,5.79-3.93,8.67-5.9A13.85,13.85,0,0,1,204.68,71a66.17,66.17,0,0,1-10.88,6.81,15.85,15.85,0,0,0-5.18,3.87,12.64,12.64,0,0,1-1.72,1.54c-1.07.9-2.17,1.78-3.24,2.7a6,6,0,0,0-.68.84,30.31,30.31,0,0,0,5.51-3.53c.93-.73,1.67-1.67,2.56-2.46a18.8,18.8,0,0,1,1.87-1.29c1.65.63,2.83-.52,4-1.22a77.37,77.37,0,0,0,12.3-8.45,5.45,5.45,0,0,1,1.16-.6,2.31,2.31,0,0,1-.88,1.23c-1.05.81-2.18,1.54-3.18,2.42a62.1,62.1,0,0,1-12.16,7.85,3.29,3.29,0,0,1-1.18.43,4.62,4.62,0,0,0-2.66,1.55c-2.6,2.35-5,4.93-8.34,6.34-.09,0-.1.23-.2.46a2.71,2.71,0,0,0,2.38-.09c2.63-1.25,5.54-2,7.44-4.5.19-.24.61-.31.92-.45,2.32-1,4.66-2,7-3a53.83,53.83,0,0,0,10.94-6.7,7.38,7.38,0,0,1,1.23-.65s0,0,0-.05l.07,0c.92-1.67,2.56-2.48,4.12-3.37A12.15,12.15,0,0,1,211.76,74l0,.07,0,0c-.09.85-.73,1.28-1.35,1.71-2.3,1.6-4.59,3.22-6.93,4.75a33,33,0,0,1-3.15,1.66c-3.36,1.73-7,2.9-10.13,5.11-1.58,1.12-3.28,2.07-4.93,3.1a2.56,2.56,0,0,0,1.78-.1c1.72-.8,3.43-1.62,5.09-2.54s2.89-2.23,4.51-2.65a25.64,25.64,0,0,0,4.94-2.22,61.8,61.8,0,0,0,14.42-9.41,7.88,7.88,0,0,1,1-.74c.28-.18.59-.32.89-.48a31.72,31.72,0,0,1-4,3.84,29.51,29.51,0,0,1-3.35,2.54c-3,1.83-6,3.57-9.07,5.32a33.8,33.8,0,0,1-4.63,2.47c-3.06,1.16-5.57,3.24-8.4,4.78-.08,0-.08.24-.12.37a7.64,7.64,0,0,0,4.85-.75c2.55-1.47,5-3.09,7.51-4.64a1.52,1.52,0,0,1,.41-.1l.22.86a13.52,13.52,0,0,0,1.33-.6c3.22-1.87,6.48-3.66,9.61-5.65,1.83-1.16,3.45-2.64,5.19-4A12.08,12.08,0,0,1,218.9,76a8.36,8.36,0,0,1-.64.91A49.15,49.15,0,0,1,206,85.36c-1,.5-1.91,1.16-2.9,1.68a44.85,44.85,0,0,1-4.69,2.31,18.89,18.89,0,0,0-5.55,3.5,3.59,3.59,0,0,0,.58.19,11.37,11.37,0,0,0,7.6-1.93c1.37-.84,1.41-.77,1.6-2.3a19.56,19.56,0,0,0,2.22-.45c.73-.24,1.39-.66,2.1-1a68.87,68.87,0,0,0,8-4.65c1.86-1.11,3.6-2.44,5.39-3.67l2.17-1.5c-.08,1-.74,1.35-1.3,1.82a77.69,77.69,0,0,1-12,7.74A59.89,59.89,0,0,0,201.35,92c-.75.59-1.58,1.09-2.45,1.69,2.18,1,3.71.57,7-1.62V90.63a14.46,14.46,0,0,0,6-2.06c1.89-1,3.8-2.06,5.7-3.08,0,0,0,0,0,0l.06,0A9.64,9.64,0,0,1,221.36,83l.05-.06.06,0a4.38,4.38,0,0,1,.67-1c1-.91,2.11-1.78,3.19-2.64a1.1,1.1,0,0,1,.72-.23c-1.27,1.6-2.53,3.19-4.57,3.83l0,.05-.08,0a6.16,6.16,0,0,1-3.72,2.45l0,0,0,0c0,.65-.52.91-1,1.23a38.91,38.91,0,0,1-8.52,4.52l-1.3.52a2,2,0,0,0,2.34,0c3-1.47,5.91-2.94,8.83-4.46,1.62-.84,3.23-1.72,4.75-2.72A39.14,39.14,0,0,0,231,77.84a2.08,2.08,0,0,1,1.76-1,34.76,34.76,0,0,1-4.54,4.66A68.28,68.28,0,0,1,218,88.08c-1.73.94-3.52,1.77-5.16,2.85a21.13,21.13,0,0,1-5.53,2.53,9.24,9.24,0,0,0-1,.44,7.9,7.9,0,0,0,3.11-.47c8.54-3.35,16.7-7.38,23.69-13.48a6.11,6.11,0,0,1,.85-.53,1.32,1.32,0,0,1-.39.86c-2.65,2.88-6,4.91-9.25,6.9-3.59,2.18-7.46,3.88-11.2,5.8-.59.31-1.16.65-1.74,1l.14.41a17.16,17.16,0,0,0,2.83-.35c1.4-.41,2.77-1,4.14-1.52A58.16,58.16,0,0,0,230,86.91a22.92,22.92,0,0,1,2.65-1.36l.1-.09.08,0a5.68,5.68,0,0,1,.77-1.08c1.9-1.74,3.84-3.44,5.77-5.15a2.23,2.23,0,0,1,.6-.23,21.58,21.58,0,0,1-7.14,6.47l0,.07-.13.06a8.36,8.36,0,0,1-1.11,1c-2.2,1.5-4.43,3-6.65,4.44-.4.27-.78.58-1.17.88a47.23,47.23,0,0,0,5.9-1.85,35.78,35.78,0,0,0,6.27-2.89c2.64-1.71,5-3.81,7.52-5.73.63-.48,1.3-.92,2-1.38l0-.08,0,0c.11-1,.85-1.51,1.48-2.13,1.19-1.17,2.53-2.16,3.17-3.83a2.24,2.24,0,0,1,1.5-1c2.61-.53,4.68-2.15,7-3.34,1.61-.84,3.15-1.78,4.94-2.8a6.06,6.06,0,0,1-2.48,2.25,38.74,38.74,0,0,0-6.73,4.2,4.79,4.79,0,0,1-1.86.89,6.14,6.14,0,0,0-3.11,2c-.79.89-1.6,1.76-2.45,2.6a14.58,14.58,0,0,1-1.41,1.11.6.6,0,0,0,0,.06l-.07,0a8.66,8.66,0,0,1-3.07,3.53c-2.1,1.63-4.32,3.12-6.49,4.68-.29.21-.54.46-.81.7.77-.05,1.41-.46,2.06-.48a7,7,0,0,0,3.31-1.23,52.33,52.33,0,0,0,9.13-7.1c1.05-1,2.47-1.68,2.77-3.32,0-.25.49-.5.8-.6a62.67,62.67,0,0,0,9-4.55,9,9,0,0,1,3.25-1.5c-.11.25-.12.42-.21.47-2.52,1.52-5,3.09-7.58,4.53s-5.14,2.8-7.11,5.13A40.6,40.6,0,0,1,246,84.44c-1.25,1.09-2.56,2.11-4,3.26a7.87,7.87,0,0,0,5.09-1.37,57.59,57.59,0,0,0,9.52-7.95c.84-.84,1.51-1.8,2.9-1.7.36,0,.76-.32,1.14-.52,1-.53,2-1.11,3-1.6a4.64,4.64,0,0,1,1.24-.23A14.3,14.3,0,0,1,258.76,78a4,4,0,0,0-2.29,1.28,42.52,42.52,0,0,1-7.52,7,8.13,8.13,0,0,0-1,1.16c2.82-.33,4.61-1.82,6.5-3.07s3.85-2.69,5.77-4a13.65,13.65,0,0,1-3.47,3.55c-1.35,1-2.71,1.93-4.06,2.9l.24.43c4-1.5,7.46-4,11.25-6l-1,1.34a4.83,4.83,0,0,0,2.26-1.09,13.4,13.4,0,0,0,1.5-1.93c1.51.71,1.53.75,2.94.05s2.58-1.42,3.85-2.16c1.58-.92,3.14-1.88,4.71-2.79a3,3,0,0,1,.77-.21c-2.46,2-5.14,3.51-7.78,5.65,1.2-.23,2-.4,2.82-.54,3.27-.57,6.47-1.35,9.22-3.35,1.19-.87,2.41-1.71,3.63-2.53a1.58,1.58,0,0,1,1.71-.35c-1,.84-1.81,1.53-2.66,2.12-1.56,1.08-3.17,2.09-4.74,3.15a6.16,6.16,0,0,0-.78.74,14.24,14.24,0,0,0,6.48-1.79c1.66-1,3.3-2.11,5-3.15,0,0,.19.1.46.25-.85.7-1.64,1.38-2.45,2s-1.58,1.17-2.37,1.76a12.76,12.76,0,0,0-2.64,1.9c1.52-.07,2.56-.87,4-1-1.4,2.06-3.85,2.06-5.59,4a19,19,0,0,0,1.8-.65c1.81-.94,3.6-1.91,5.4-2.85.46-.24.95-.65,1.67,0-.79.56-1.49,1.11-2.25,1.56-1.09.64-2.24,1.17-3.34,1.8a9.9,9.9,0,0,1-4.93,1.67,1.91,1.91,0,0,0-1.94,1.61,2.32,2.32,0,0,0,2.76.46,22.61,22.61,0,0,0,5.8-2.46,10.15,10.15,0,0,1,1.52-.7c.75-.36,1.5-.72,2.23-1.11s1.09-.87,2.06-.67c-.64,1.21-1.77,1.49-2.68,2s-2,1-3,1.47-2.09,1.15-3.13,1.74-2.07.6-3,1.52c1.81.4,1.83.45,3.28-.09,2.24-.83,4.44-1.74,6.66-2.61a12.22,12.22,0,0,0,4-1.87c.21-.19.68-.09,1-.13-1,1.46-2.56,1.7-3.82,2.51a34.68,34.68,0,0,1-4.15,2c-1.31.61-2.8.91-3.83,2.09A33.41,33.41,0,0,0,290,90.2a6.83,6.83,0,0,0,1.8-.58c1.39-.68,2.73-1.44,4.11-2.14a3.05,3.05,0,0,1,2.23-.62c-.6,1.41-2,1.51-3,2.23s-2.09,1.29-3.46,2.11a12.53,12.53,0,0,0,6.06-1.37,53.61,53.61,0,0,0,8.29-4.55,3.25,3.25,0,0,1,2.61-.91c-2,1.37-3.73,2.67-5.57,3.82s-3.87,2-5.5,3.56c1.42-.11,2.76-.5,4.13-.67a8.48,8.48,0,0,0,3.35-1.14C307,88.8,309,87.71,311,86.62a10.65,10.65,0,0,1,1.32-.44c-1.08,1.61-2.53,2-3.53,2.85a29.37,29.37,0,0,1-3.4,2.31,11.79,11.79,0,0,0,4.75-.94c2.58-1.24,5-2.77,7.55-4.15A5.81,5.81,0,0,1,319,86c-2.25,2.17-4.85,3.17-7.14,5.27a15.59,15.59,0,0,0,6.42-2.39c1.89-1.08,3.67-2.36,5.49-3.56l.25.33-4.86,4.28c2.49-.2,3.88-1.65,5.58-2.36a47.28,47.28,0,0,0,5-2.75l.2.28-2.71,3.23c1.24-.44,2.4-.38,3-1.42a11.37,11.37,0,0,1,3.15-3.32c3-2.39,6.42-4,9.69-5.94.14-.08.38,0,1,0-1.75,1-3.15,1.79-4.51,2.65s-2.84,1.82-4.19,2.83-2.67,1.71-3.37,3.29l1.82-1c0,1.43-1.24,1.9-1.7,2.84,1.71-1,3.27-2.22,4.89-3.32a26.86,26.86,0,0,1,5.15-3,3.28,3.28,0,0,1-1,1.06,22.42,22.42,0,0,1-2.61,1.78c-1.58.84-1.8,2.57-3,3.93a6.9,6.9,0,0,0,3.92-2.08,38,38,0,0,1,7-5,3.85,3.85,0,0,1,1-.22,40.35,40.35,0,0,1-4.07,3.06c-1.35,1-2.9,1.9-3.36,3.78a11.34,11.34,0,0,0,2.6-1.28c3-2,5.91-4,8.86-6.06.71-.48.71-.49,1.91-.52-3.65,2.68-7.46,4.92-10.48,8.21a8.49,8.49,0,0,0,5-1.68c1.68-1.27,3.37-2.53,5.06-3.78a9.2,9.2,0,0,1,3.32-1.59c-2.58,2.12-5.53,3.78-7.64,6.73A5.39,5.39,0,0,0,353.17,87c1.74-1.31,3.42-2.69,5.16-4a18.24,18.24,0,0,1,2.11-1.18c-1.9,1.84-3.7,3.68-5.65,5.88a8.86,8.86,0,0,0,4.61-2.25,7.17,7.17,0,0,1,3.42-2l-2,1.79a3.3,3.3,0,0,0,4.13-.77,3.6,3.6,0,0,1,2.76-1l-2.1,1.75a2.69,2.69,0,0,0,2.57-.15,22.9,22.9,0,0,0,2.64-1.67c.18-.13.19-.51.27-.78l.75-2.55C369.55,77.5,366.34,77.52,363.25,77.33Zm-327-7C37.21,70,38,69.18,39.5,69.2a15.68,15.68,0,0,1-4.84,3c-.92.3-1.21.06-1.53-.95C34.18,71,35.25,70.73,36.27,70.37Zm-3.84,3.95c2.28.09,4.2-1,6.16-1.9a4.55,4.55,0,0,1,.79-.26s.11.06.17.09.07.16.05.18a12.65,12.65,0,0,1-6.43,3.27,1.15,1.15,0,0,1-.81-.1,1.31,1.31,0,0,1-.48-.79C31.87,74.66,32.25,74.3,32.44,74.31ZM41,76c-1.87.92-3.74,1.83-5.63,2.7a17.46,17.46,0,0,1-2.54.94,7.32,7.32,0,0,1-1.68,0c.32-.47.44-.84.67-.93,3.38-1.26,6.77-2.47,10.16-3.7l.21.21A11.22,11.22,0,0,1,41,76ZM60.37,40.16c-1.32.92-2.34,1.58-3.3,2.31s-1.91,1.64-2.92,2.39-1.55,1.92-2.92,2.53C52.48,44.42,56.91,40.86,60.37,40.16ZM49.59,50.88a7.87,7.87,0,0,1,1.14-1.74,37.22,37.22,0,0,1,7.82-6,3,3,0,0,1,2.3-.61c-4.13,2.52-8.08,5.2-11.2,9.5C49.61,51.35,49.5,51.06,49.59,50.88Zm-1.8,4.61a2.38,2.38,0,0,1,.32-.78,15.22,15.22,0,0,1,2.09-2.06c2.89-2.08,5.83-4.1,8.78-6.11a13.79,13.79,0,0,1,2.06-1l.27.37C56.68,48.91,51.9,51.65,47.79,55.49Zm2,2.25c.38-1.45.43-1.52,2.49-3.41,4-3.65,8.78-6.46,11.87-6.75-1.69.93-3.42,1.78-5.05,2.8s-3.21,2.27-4.82,3.38S51.64,56.6,49.8,57.75Zm2.82.85C55.15,55.24,63,50.22,65.83,50A115.14,115.14,0,0,0,52.62,58.6Zm5.3-.22c.91-2.32,6.08-5.19,8.74-4.91A38.24,38.24,0,0,0,57.93,58.38Zm10.63-3.26c-2.11,1.68-3.89,2.56-5.28,2.71C64.24,56.52,65.64,55.76,68.56,55.12Zm-1.62,4c.49-1.22.66-1.36,2.57-2A5.12,5.12,0,0,1,66.94,59.16Zm44.64-2.92a34,34,0,0,0-10.76,6.7l-.32-.31c.15-.33.2-.76.45-1A25.68,25.68,0,0,1,110.69,56C110.8,56,110.94,56.07,111.58,56.24ZM97,49.2a5.57,5.57,0,0,1-.56.81c-1.16,1-2.35,2-3.51,3-.57.5-1.1,1.06-2,.84C93.36,51,94.36,50.2,97,49.2ZM90.81,56A34.33,34.33,0,0,1,99.18,50a3.2,3.2,0,0,1,.76-.15l.16.3c-1.06.72-2.14,1.41-3.18,2.16s-2,1.52-3,2.28a22.47,22.47,0,0,1-3.43,2.62C90.65,56.53,90.62,56.13,90.81,56Zm-1.38,5.79c1.17-3.78,11.5-11.57,15.45-11.9-2.78,1.8-5.62,3.42-8.18,5.39S91.85,59.56,89.43,61.75Zm4.46-.46a25.49,25.49,0,0,1-2,1.89,1.59,1.59,0,0,1-1.11.25c5-5.54,10.43-10.45,17.78-12.47-1.61.84-3.26,1.61-4.82,2.53A47.18,47.18,0,0,0,93.9,61.29Zm1.74,2.11c.1-.27.13-.61.32-.78A51.48,51.48,0,0,1,100,59c2.23-1.67,4.43-3.43,7.12-4.35.44-.15.9-.24,1.35-.36l.17.41c-4.87,2.08-8.9,5.38-12.67,9ZM100,75.9l-.3-.33,2.61-2.45.3.34A8.9,8.9,0,0,1,100,75.9Zm5.29-13.44a4.37,4.37,0,0,1,.77-1,6.91,6.91,0,0,1,4.83-1.74c-.29.17-.56.36-.86.52A29.81,29.81,0,0,1,105.32,62.46Zm7.13-1.67a7.05,7.05,0,0,1-3.58,2.07A4,4,0,0,1,112.45,60.79Zm-.1,3a4.48,4.48,0,0,1,3.23-1.45C114.71,63.17,113.89,64.05,112.35,63.84Zm8.6-23.3c1.24-1.68,2.54-3.32,3.89-4.91a18.13,18.13,0,0,1,2.74-2.57c-.8,1.86-2.45,3.05-3.6,4.63s-2.15,3.25-3.36,5.09A1.79,1.79,0,0,1,121,40.53ZM122.17,45c-.54-1.19.06-1.84.47-2.51,1.62-2.64,5.22-6.12,7.25-6.81A36.49,36.49,0,0,0,122.17,45Zm2.51,1.54a2.38,2.38,0,0,1,.69-2.14,14.78,14.78,0,0,1,7-5.35c-1.38,1.13-2.84,2.17-4.12,3.4S125.93,45.08,124.68,46.51ZM129,47.69c-.4-.61,0-1.06.3-1.5.84-1.29,2.81-2.65,5.44-3.73Zm2.29,1.37c.55-2.1,2.43-2.76,4.12-3.83A11.92,11.92,0,0,1,131.29,49.05Zm3,1.66c.15-.76.12-1.12.28-1.28.47-.44,1-1,1.93-.4ZM137.68,76l-.31-.31a6.45,6.45,0,0,1,2.43-1.82l.25.33Zm4.56-3.85-.32-.31c.33-.8,1.26-1.08,1.81-1.68s1.3-1.22,2-1.82l.32.35Zm46.36-9.44c-.57,1.57-.57,1.57-2.1,1.51ZM191,64c-.14.45-.13.65-.23.74-1.21,1-2.43,2.08-3.67,3.09-.18.15-.48.14-.73.2l-.26-.45Zm-8-26.65-3.17,1.32C180.67,37.59,180.67,37.59,182.93,37.35Zm-29.12.08c1.89-1.33,3.75-2.75,5.76-3.88,2.62-1.48,5.36-2.75,8.07-4.08a13.36,13.36,0,0,1,2.36-.9c1.05-.29,2.14-.46,3.3-.7-.27.92-.84,1-1.51,1.09a7.63,7.63,0,0,0-2.24.46c-5.66,2.5-11.2,5.21-15.91,9.34a5.86,5.86,0,0,1-.86.49A1.88,1.88,0,0,1,153.8,37.43Zm-3.94,37.31,2.61-2c.83-.63,1.66-1.27,2.61-2-.6,1.44-2.08,2.68-5,4.29Zm.32,4.42a24.12,24.12,0,0,1,5-3.76A11.88,11.88,0,0,1,150.18,79.16Zm4.3-35.53-.34-.31A4.18,4.18,0,0,1,156,41.22,98,98,0,0,1,167,33.91c2.54-1.35,5-2.82,7.54-4.17a15,15,0,0,1,2.75-1,2,2,0,0,1,1.64.25c-.26.08-.52.15-.77.25a47.64,47.64,0,0,0-6,2.47,141.22,141.22,0,0,0-14.86,9.59C156.36,42,155.44,42.84,154.48,43.64Zm2.17,30.8c.63-1.35,1.88-1.46,2.62-2.16A4.32,4.32,0,0,1,156.65,74.44Zm2.16-29.18a11.12,11.12,0,0,1-1.12.82l-.39-.41a22.68,22.68,0,0,1,2.16-2.19c2.44-1.89,4.86-3.82,7.43-5.52a51.74,51.74,0,0,1,11.33-6,2.9,2.9,0,0,1,2.77-.08,35.77,35.77,0,0,0-3.48,1c-5.94,2.49-11.18,6.13-16.29,10A31.26,31.26,0,0,0,158.81,45.25Zm4.66-.74c4.37-3.48,11.72-7.71,14.38-8.16a16.65,16.65,0,0,1-1.44.92,24.57,24.57,0,0,0-6.21,3.88c-.78.73-2,1-2.9,1.59-1.71,1.21-3.34,2.55-5,3.82-.19.15-.43.24-1,.55A5,5,0,0,1,163.47,44.51Zm2.7,34.6v0l-.1,0c-1.3,1.1-2.5,2.37-4.24,2.83a10.18,10.18,0,0,1,4.24-2.83l.07-.06,0,0c.27-1.3,1.55-1.51,2.38-2.2A4.34,4.34,0,0,1,166.17,79.11Zm.51-32.38c1.44-2.36,7.43-6.34,11-7.58-.47.82-.48.8-1.84,1.53-.8.43-1.56.92-2.34,1.39s-1.44.86-2.13,1.32-1.48,1.06-2.22,1.58Zm4.56.47a2.93,2.93,0,0,1,.53-.89,45.17,45.17,0,0,1,4.06-3,31.42,31.42,0,0,1,7.59-3.52c.72-.21,1.48-.29,2.22-.43l.14.39C180.45,41.28,175.8,44,171.24,47.2Zm2.89,2.35c.08-.67,0-.93.13-1a22.45,22.45,0,0,1,10.82-5.62,1.84,1.84,0,0,1,.6.07A36,36,0,0,0,174.13,49.55Zm4.39.07A9.77,9.77,0,0,1,185.72,46Zm1.55,2.72s-.11-.07-.16-.11c1-1.62,3.74-3.07,6.63-3.23Q183.32,50.68,180.08,52.34Zm1.86,2.47c.29-.57.35-.89.55-1.05a6.23,6.23,0,0,1,4.17-1.52Zm8.56,14.45a6.1,6.1,0,0,1-4.52,2.3Zm-3.87,4.15c1.9.28,3.41-.75,4.89-1.77,2.13-1.46,4.19-3,6.29-4.51a1.22,1.22,0,0,1,1-.21,5.54,5.54,0,0,1-.76.82c-2.72,2-5.42,3.93-8.2,5.81a7.25,7.25,0,0,1-2.53.89C186.86,74.53,186.34,74.28,186.63,73.41Zm16.67-7,0,.05-.07,0a5.13,5.13,0,0,1-3.7,2.46l0,0-.05,0a5.47,5.47,0,0,1-.92,1.24,42.57,42.57,0,0,1-7.4,4.73c-1,.53-2,1.19-3.12,1.85l-.25-1.33a2.48,2.48,0,0,1,.54-.44,47.91,47.91,0,0,0,9.89-5.48,6.67,6.67,0,0,1,1.27-.57l0-.05h.07a10.87,10.87,0,0,1,3.7-2.46l0-.05,0,0c.24-1.34,1.6-1.47,2.4-2.21A4.35,4.35,0,0,1,203.29,66.45Zm65.53-37.1c1.7-1.6,3.32-3.32,6-4.3-.62,1.19-1.53,1.49-2.16,2.07s-1.48,1.29-2.2,2-1,1.46-1.94,1.82A1.12,1.12,0,0,1,268.83,29.34Zm7.12-1.65-6.81,5.47C269.93,31.41,272.72,29.05,275.94,27.7Zm-5.67,6.81c.89-.8,1.7-1.67,2.61-2.44s1.86-1.43,2.79-2.14l.26.36-7.7,7C268.52,36.06,268.53,36.07,270.28,34.51Zm-3.14,6.39c2.44-2.61,4.84-5.27,8.16-6.83l.08-.09.06,0a4.21,4.21,0,0,1,2.85-2.06l0,0,.09,0a8.87,8.87,0,0,1,3.18-2,6,6,0,0,1-3.18,2l-.06.06-.06,0A4.25,4.25,0,0,1,275.44,34l0,0-.11.06c-.52.59-1,1.21-1.58,1.75-2,1.88-4,3.73-6,5.57a3.71,3.71,0,0,1-.72.36C267.08,41.37,267,41,267.14,40.9Zm.5,12.35a9.57,9.57,0,0,1,2.13-1.92c.65-.52,1.36-1,2-1.46A8.17,8.17,0,0,1,267.64,53.25Zm3,6.33a3.77,3.77,0,0,1-2.32,1.63A4.1,4.1,0,0,1,270.67,59.58Zm-35-18.63a7.46,7.46,0,0,1-3.32,2.9,4.94,4.94,0,0,1-3.1.8Zm-4.88,6.25a5.47,5.47,0,0,1-1.5-.12l7-3.62A12.7,12.7,0,0,1,230.78,47.2Zm6.37,3.71a6.42,6.42,0,0,1-3.27,2.29,1.73,1.73,0,0,1-1.86-.12Zm-3.27,5.68c-.19.07-.52-.21-1.12-.49l4.2-1.39,0-.06.14,0,4.68-2.8a7.49,7.49,0,0,1-4.68,2.8l-.1.06-.07,0C236.27,55.87,235,56.14,233.88,56.59Zm1,2.52a.92.92,0,0,1,1.27-.72,3.3,3.3,0,0,0,2.6-.54c2.8-1.62,5.58-3.25,8.37-4.88l4.52-2.62.23.35c-.79.56-1.56,1.16-2.38,1.67-3.6,2.18-7.2,4.36-10.82,6.48a9.12,9.12,0,0,1-2.36.85A1.07,1.07,0,0,1,234.86,59.11Zm2.7,2.92a15.76,15.76,0,0,1,5.73-2.27l.05,0,.07,0a3.22,3.22,0,0,1,.66-.68c4.21-2.47,8.43-4.91,12.84-7.46a4.06,4.06,0,0,1-.58.73,94.73,94.73,0,0,1-11.21,6.92,7.16,7.16,0,0,1-1.71.48l0,0h-.08a15.41,15.41,0,0,1-4.93,2.46C238.17,62.3,237.89,62.12,237.55,62Zm17.84,7c-2.18,1.24-4.36,2.49-6.56,3.68a5,5,0,0,1-3.4.68c.44-1.39.44-1.34,1.66-1.29a3.66,3.66,0,0,0,1.59-.37c1.77-.82,3.52-1.7,5.28-2.55.61-.29,1.22-.57,1.83-.85l.15.24A3.66,3.66,0,0,1,255.39,69.06Zm.34-3.67c-2.85,1.48-5.73,2.94-8.58,4.41-.68.35-1.33.77-2,1.09a2.82,2.82,0,0,1-2.68.22c1.68-1.27,3.35-1.56,4.8-2.27s3-1.42,4.55-2.16a29.8,29.8,0,0,1,4.68-2A3.92,3.92,0,0,1,255.73,65.39Zm-5.26-2c-1,.32-1.72,1.22-2.86,1l0,0-.09,0c-1.37,1.56-3.3,2.15-5.11,2.94a2,2,0,0,1-1.21,0c-.23-.06-.37-.45-.77-1,2.32.27,3.94-.71,5.62-1.47a15.51,15.51,0,0,1,1.48-.52l.06-.06h.06a4.93,4.93,0,0,1,.9-.77q3.54-1.86,7.12-3.66a2.36,2.36,0,0,1,1.14-.27C254.7,61,252.82,62.59,250.47,63.38Zm5.1-6.65c-2.47,1.6-5,3.15-7.48,4.68a4.83,4.83,0,0,1-1.29.39l-.06.05-.12,0a20.51,20.51,0,0,1-5.4,2.85c-.87.35-1.14.16-1.89-.57.09-.1.18-.3.26-.29a9.48,9.48,0,0,0,4.8-1.26,17.9,17.9,0,0,1,2.23-.73l.09-.07.08,0a9.4,9.4,0,0,1,1.3-1.18c3.55-2.26,7.11-4.49,10.67-6.73.14-.09.33-.11.65.08C258.13,54.89,256.89,55.87,255.57,56.73Zm8.2,7.57c-1.26.7-2.52,1.38-3.9,2.13A5.62,5.62,0,0,1,264,64C263.89,64.08,263.86,64.25,263.77,64.3Zm-1.22-3.1-.28-.31,8.1-5.39A27.54,27.54,0,0,1,262.54,61.2Zm8.58,14.37c-2.11,1.25-4.23,2.48-6.37,3.67a2.86,2.86,0,0,1-1.4.29c-.21,0-.42-.37-.73-.68,3.36-.82,5.85-3,9.27-4.36C271.47,75.11,271.36,75.44,271.13,75.57Zm1.44-34.76a6.79,6.79,0,0,1,3.21-2.56l0-.05.07,0a2,2,0,0,1,.42-.61c1.38-1.06,2.77-2.11,4.2-3.13a4.12,4.12,0,0,1,1.56-.62c-.32.88-1.19,1.17-1.85,1.66s-1.36,1-2.07,1.42-1.5.85-2.26,1.27l0,.07-.06,0A8.07,8.07,0,0,1,272.57,40.81ZM285,35.67a50.46,50.46,0,0,0-9.6,6.45C276.28,39.81,282.19,35.87,285,35.67Zm-6.35,8.09-.3-.19a2.31,2.31,0,0,1,.23-.81c1-1.27,2.48-1.88,3.77-2.75l.24.33Zm2.3,2.31c-.14.09-.38,0-.59,0,.62-1.49,1.24-1.88,4.94-3C283.69,44.22,282.34,45.16,281,46.07Zm20.38,39c.67-1.06,1.05-1.86,2.41-1.8A3.21,3.21,0,0,1,301.35,85Zm18.34-30.22c-.05.32,0,.48-.11.55-1.52,1.4-3,2.78-4.57,4.18l-.35-.4A20.2,20.2,0,0,1,319.69,54.81Zm-2,5.45Q315,62.63,312.41,65c-.07.06-.25,0-.37,0C312.57,63.72,315.33,61.24,317.66,60.27Zm.49,1.73a2.83,2.83,0,0,1-2.32,1.83ZM306.78,75.28c1-2.26,2.78-3.22,4.57-4.58A15.89,15.89,0,0,1,306.78,75.28Zm1.93-3.66c-.06.07-.24,0-.37,0,.51-1.53,4.16-5.4,6.31-6.43Q311.68,68.43,308.71,71.63Zm8.53,0-3.47,2.87C314.4,72.84,315,72.34,317.24,71.62Zm-2.51,6.92-.33-.27c.7-1.44,2.1-2.28,3.26-3.29a23.22,23.22,0,0,1,8.42-5.16c-2,1.38-4,2.67-6,4.15S316.52,77,314.73,78.54Zm5.94.08-.24-.23a6.07,6.07,0,0,1,.64-.91,37.53,37.53,0,0,1,9.06-6.31c-1.64,1.77-3.47,2.6-5,3.86S322.17,77.42,320.67,78.62Zm5.3-1.46c2.73-2.08,5.48-4.12,8.25-6.15a6.62,6.62,0,0,1,1.3-.57c-3.43,2.93-7.12,5.42-10.57,8.77A2.36,2.36,0,0,1,326,77.16Zm-.16,5a1.94,1.94,0,0,1,.75-2.35c3.09-2.27,6.15-4.57,9.29-6.78a26.26,26.26,0,0,1,5.94-3.2,6,6,0,0,1-2.23,1.71,63.94,63.94,0,0,0-10.9,7.81c-.62.56-1.16,1.21-1.74,1.81C326.64,81.38,326.33,81.63,325.81,82.11Zm9.9-3.47c-2.84,2-5.46,4.26-8.37,6.3a3.41,3.41,0,0,1,.53-.94c5-4.58,10.44-8.63,16.93-10.94C341.76,74.91,338.63,76.62,335.71,78.64Z"/><polygon class="sc-cls-1" points="34.43 52.12 25.56 67.57 6.28 68.02 6.36 63.36 22.95 47.06 34.43 52.12"/><path class="sc-cls-1" d="M296.56,28.25c-1.86.05-3.62.34-5,2a1.92,1.92,0,0,1-.8.45c-.09,0-.25-.09-.38-.14l.9-1.79c-1.68-.52-1.68-.52-2.55.28a16.67,16.67,0,0,1-4.5,3.5c3.39-3.86,3.39-3.86,3-5.35l-3.73,3.21c.41-1.39,1.68-2.25,1.65-3.76l-4.44-.55,0,0,0,0a1.42,1.42,0,0,1-.39,2,19.74,19.74,0,0,1-6.27,3.69c1.14-.94,2.3-1.85,3.42-2.81s2.16-1.91,3.24-2.86l0-.05h0L279.62,25c-1.51,1.23-2.8,2.34-4.15,3.36A12.6,12.6,0,0,1,271,30.83c.83-.82,1.81-1.44,2.67-2.19,1.33-1.18,2.61-2.41,3.82-3.71.26-.29.11-1,.15-1.45a4,4,0,0,0-1.39.38c-1.56,1.13-3.05,2.39-4.61,3.52a6.37,6.37,0,0,1-3.48,1.42c2.91-2,5.9-3.7,7.7-7a10.18,10.18,0,0,0-1.69-1.28c-2.3-1.1-4.64-2.13-7-3.18a21.28,21.28,0,0,0-8.64-1.51c-2,0-3.24-.68-3.7-2.74A3.82,3.82,0,0,0,253.57,11a35.68,35.68,0,0,0-5.12-3.12,5.62,5.62,0,0,0-5.17.1c-1.83.93-3.64,1.88-5.47,2.82l-.2-.24,4.32-3.24c-1.81.18-3,.55-4.23-.52A23.87,23.87,0,0,0,228,1.9a36.69,36.69,0,0,0-13.83-1,34.42,34.42,0,0,0-16.28,5.69,47.22,47.22,0,0,0-8.45,7.25,8.57,8.57,0,0,1-1.1.86c1.1-2.73,3.57-4.24,5.14-6.5-4.15,2.83-7.86,6-9.43,11.18a10.94,10.94,0,0,1-2.1.1c-3.37-.51-6.43.5-9.47,1.75a12.1,12.1,0,0,0-6.25,5.88h0v0c2.3-2,4.62-4,7.95-4.3-.39.25-.79.49-1.17.75a56,56,0,0,0-4.74,3.27,10.23,10.23,0,0,0-1.7,2.59h0c4.68-3.46,9.37-5.85,11.72-6l-12.22,7.42c-.42-.56.2-1,.5-1.44l0,0,0,0c-1.34-.58-1.34-.59-.34-2.31l0,0,0,0a24.84,24.84,0,0,0-9.74,4.14A10.35,10.35,0,0,0,153.78,34a16.31,16.31,0,0,1,3.9.91,57.55,57.55,0,0,0,9.83,2.63c19.25,1.88,38.56-1.83,57.82-2,23-.21,46.15,1.16,69.1-1.42A21.21,21.21,0,0,1,296.56,28.25ZM247.64,9.12c-1.43.52-2.89,1-4.29,1.58s-2.6,1.26-3.93,1.92C240.81,10.69,244.4,9,247.64,9.12ZM248,12l-5.28,2.42C243.87,12.32,245.91,12.11,248,12Zm-57.16,3a16.74,16.74,0,0,1,2.07-2.49,40.86,40.86,0,0,1,15.37-9.24,3.34,3.34,0,0,1,.67-.16,1.5,1.5,0,0,1,.43.08c-7.16,2.92-13.67,6.71-18.71,12.93C190.72,15.71,190.64,15.24,190.83,15Zm4,.5c-.2-1.06.47-1.44,1-1.83,3.38-2.68,6.86-5.19,11-6.56l.26.45c-1.36.71-2.74,1.38-4.06,2.15s-2.92,1.74-4.3,2.73S196.22,14.37,194.85,15.47Zm2.23,6.88c-1.79,1.71-2,1.8-3.87,1.2Zm10.84-12-7.56,3.89C202,12.2,205.74,10.3,207.93,10.29Zm1.18,2.85-5.47,2.77C204.36,14.32,206.44,13.21,209.1,13.14Zm-27,12c-2.28,1-4.64,1.86-6.83,3s-4.07,2.62-6.48,4.2C170.15,28.87,178.62,24.51,182.13,25.12Zm-6.42,7c-.13.06-.4-.15-.61-.23,1.42-2,7.07-4.51,9.94-4.2C181.75,29.29,178.74,30.73,175.71,32.15Zm13.39-2.42-7.81,4.07C181.94,31.62,186.2,29.58,189.1,29.73Zm.59,2.89a6.29,6.29,0,0,1-4.68,2C186.17,32.79,187.62,32.61,189.69,32.62ZM189.14,36c1.16-1.59,2.64-1.7,4.14-1.76C192.07,35,191.13,36.35,189.14,36Zm4.4-10c1.45-.3,2.87-.51,4.23-.9s2.55-.93,4.1-1.51a13.81,13.81,0,0,1-6.47,3.13C194.73,26.82,194,27,193.54,26Zm1.75,2.15c1.42-.33,2.85-.66,4.27-1s2.9-.73,4.34-1.11L204,26l.18,0,4.92-2.39.14-.13.09,0A8.94,8.94,0,0,1,213,20.84c-1,1.15-2,2.31-3.68,2.57l-.05.06-.18.09A8.92,8.92,0,0,1,204.19,26L204,26l-.13,0c-2.21,1.76-4.86,2.36-7.56,2.81C196,28.91,195.67,28.67,195.29,28.17ZM200.4,31c-.44.07-.93-.17-1.59-.73a2.83,2.83,0,0,1,.64-.22c3.84-.39,7.28-2,10.66-3.66,2.06-1,4.08-2.18,6.14-3.23a13.65,13.65,0,0,1,1.81-.67l.07-.08.08,0c1-1.39,2.61-1.91,4.1-2.6a7.34,7.34,0,0,1-4.1,2.6l0,.06-.11,0a4.52,4.52,0,0,1-1.07,1c-4.55,2.27-9.11,4.54-13.7,6.73A10.82,10.82,0,0,1,200.4,31Zm5.69,1c-.18,0-.4-.35-.77-.72a6.41,6.41,0,0,1,1.19-.46,34.61,34.61,0,0,0,14-5.38c3-1.92,5.8-4.12,8.7-6.17.73-.52,1.52-.95,2.38-1.48,0,.41.12.63.07.66-4.18,2.93-7.9,6.54-12.57,8.74-3.36,1.58-6.8,3-10.24,4.4A9.15,9.15,0,0,1,206.1,32Zm3,1.32c8.83-1.95,16-7.06,23.62-11.52a6.19,6.19,0,0,1-.89.88C226.4,26.22,221.08,30,215,32.44a34.28,34.28,0,0,1-4.64,1.38C210,33.91,209.57,33.63,209.09,33.3Zm5.9.64c.65-.16,1.3-.31,1.95-.48,4.76-1.27,9.29-3,13-6.35,2.54-2.27,5.05-4.57,7.58-6.85a3.83,3.83,0,0,1,1.74-1,5.14,5.14,0,0,1-.59.88,78.57,78.57,0,0,1-10.94,9.7,38.49,38.49,0,0,1-10.12,4.61C216.82,34.71,215.91,35.09,215,33.94Zm9.37.31c3.43-1.85,6.95-3.39,10.05-5.52a111.6,111.6,0,0,0,8.84-7.44C239.11,27.33,228,34.86,224.36,34.26Zm24.39-13.43c-2,4.14-12,11.75-15.58,11.78C239.24,29.82,243.86,25.16,248.75,20.83ZM242,30.89c1.69-1.4,3.31-2.6,4.78-4s2.83-2.95,4.24-4.44C248.71,27.43,245.19,30.54,242,30.89Zm8.32-3.56a8.2,8.2,0,0,1,4.57-4.09C253.81,25.26,251.88,27,250.37,27.34ZM255,26.21c.41-1.49.41-1.49,2.43-2A3.52,3.52,0,0,1,255,26.21ZM272.45,21c-.65,1.82-2.14,2.57-3.86,3A11.4,11.4,0,0,1,272.45,21Zm1.74.56c.5.3,0,.89-.47,1.35a23.69,23.69,0,0,1-5.93,4.18Zm8.74,7.36c-1.06,1.51-2.64,2.3-4.69,3.17a10.34,10.34,0,0,1,2.33-2.45c.71-.67,1.32-1.43,2-2.15l.52.2C283,28.08,283.13,28.6,282.92,28.89Z"/><polygon class="sc-cls-1" points="240.17 33.85 238.7 47.8 198.34 45.6 197.6 35.32 240.17 33.85"/></g><g id="stroke"><g id="stroke-2" data-name="stroke"><path d="M123.47,27.87a41.68,41.68,0,0,0-4.22,8,11.19,11.19,0,0,0-.43,1.41c-.78,3-.78,3-3.88,3a14.86,14.86,0,0,0-10.3,3.59,2.23,2.23,0,0,1-1.94.61c-2.77-.52-5.18.5-7.33,2a3.51,3.51,0,0,1-3.89.31,10.48,10.48,0,0,0-5.94-1,2,2,0,0,1-2.21-1.22c-.85-1.37-1.83-2.65-2.69-4a11.66,11.66,0,0,0-6.32-4.66,18.12,18.12,0,0,0-14.89,1,8.7,8.7,0,0,1-1.31.68A12.91,12.91,0,0,0,52.19,42c-.15.19-.29.39-.43.6A13.6,13.6,0,0,1,50.52,46a2.35,2.35,0,0,0,1.4-1.24,23.43,23.43,0,0,1,2.17-3.1,13.2,13.2,0,0,1,4.28-3.36,21.47,21.47,0,0,1,9.82-2.83A15.61,15.61,0,0,1,74.9,37a14.22,14.22,0,0,1,6.45,6.42c.64,1.16,1.31,2.31,1.95,3.43a2.14,2.14,0,0,0,.71.11c3-.81,5.69,0,8.35,1.27,1.36.66,1.34.61,2.5-.4,2.26-2,4.77-3.24,7.89-2.54a3.06,3.06,0,0,0,2.66-1,28.21,28.21,0,0,1,2.66-2c2.54-1.54,5.39-1.32,8.2-1.26.35,0,.69.13,1,.16,1.36.09,1.77-.15,2-1.55a27.6,27.6,0,0,1,2.93-8.08,32,32,0,0,1,2.38-3.89Q124.05,27.79,123.47,27.87Z"/><path d="M373.33,80.86a5.89,5.89,0,0,0-4-3.42c-1.67-.49-3.4-.82-5.19-1.24a11,11,0,0,0-4.55-4.43c-.12-.74-.26-1.42-.36-2.11a7.28,7.28,0,0,0-4.43-6L350,61.53c-.38-1.54-.7-3.11-1.16-4.65l0-.07c-.31.16-.64.31-1,.46a16.72,16.72,0,0,1,.6,3.43,7.44,7.44,0,0,0,.29,1.44,5.09,5.09,0,0,0,.4.82,12.81,12.81,0,0,1,5.26,1.18c2.7,1.28,3.77,3.43,4,6.18.07.75.11,1.51.14,2a14.69,14.69,0,0,1,3.23,2,11.24,11.24,0,0,1,1.47,3c3.09.19,6.3.16,8.53,2.73L371,82.62c-.08.27-.09.65-.27.78a22.85,22.85,0,0,1-2.64,1.67,2.7,2.7,0,0,1-2.57.15l2.1-1.75a3.6,3.6,0,0,0-2.76,1,3.31,3.31,0,0,1-4.13.77l2-1.79a7.16,7.16,0,0,0-3.42,2,8.86,8.86,0,0,1-4.6,2.24c2-2.2,3.76-4,5.65-5.87A17.78,17.78,0,0,0,358.31,83c-1.75,1.3-3.43,2.68-5.16,4a5.39,5.39,0,0,1-4.44,1.27c2.1-2.95,5.05-4.61,7.64-6.73A9.09,9.09,0,0,0,353,83.13c-1.69,1.25-3.39,2.5-5.06,3.78a8.5,8.5,0,0,1-5,1.68c3-3.29,6.84-5.53,10.48-8.21-1.2,0-1.2,0-1.91.52-2.95,2-5.89,4.06-8.86,6.06a11.32,11.32,0,0,1-2.6,1.28c.46-1.88,2-2.77,3.36-3.78a40,40,0,0,0,4.07-3.05,3.65,3.65,0,0,0-1,.22,38.07,38.07,0,0,0-7,5,6.89,6.89,0,0,1-3.92,2.09c1.24-1.36,1.45-3.09,3-3.93A22.52,22.52,0,0,0,341.15,83a3.29,3.29,0,0,0,1-1.06,26.72,26.72,0,0,0-5.15,3c-1.62,1.1-3.18,2.28-4.89,3.32.46-.94,1.68-1.41,1.7-2.84l-1.82,1c.7-1.58,2.13-2.35,3.37-3.29s2.76-1.93,4.19-2.83,2.76-1.62,4.51-2.65c-.64,0-.87-.07-1,0-3.27,1.92-6.7,3.56-9.69,5.94a11.25,11.25,0,0,0-3.15,3.32c-.56,1-1.73,1-3,1.42l2.71-3.23-.21-.28a48,48,0,0,1-5,2.75c-1.7.7-3.08,2.16-5.58,2.36L324,85.61l-.25-.33c-1.83,1.2-3.61,2.48-5.5,3.56a15.78,15.78,0,0,1-6.42,2.39c2.29-2.1,4.89-3.1,7.14-5.27a5.82,5.82,0,0,0-1.36.27c-2.52,1.38-5,2.91-7.55,4.15a11.77,11.77,0,0,1-4.75.94,29.2,29.2,0,0,0,3.39-2.3c1-.9,2.45-1.24,3.53-2.85a9.87,9.87,0,0,0-1.32.44c-2,1.09-3.94,2.18-5.87,3.31a8.71,8.71,0,0,1-3.35,1.14c-1.37.17-2.71.56-4.14.67,1.63-1.56,3.65-2.41,5.5-3.56s3.58-2.44,5.57-3.82a3.26,3.26,0,0,0-2.61.91,53.51,53.51,0,0,1-8.29,4.55,12.52,12.52,0,0,1-6.06,1.37c1.36-.82,2.48-1.38,3.46-2.11s2.39-.82,3-2.23a3,3,0,0,0-2.23.62c-1.38.7-2.73,1.46-4.11,2.14a6.86,6.86,0,0,1-1.8.58,32.71,32.71,0,0,1-4.38.47c1-1.18,2.51-1.48,3.83-2.09a34.37,34.37,0,0,0,4.15-2c1.26-.81,2.86-1,3.82-2.51-.35,0-.82-.06-1,.13a12.19,12.19,0,0,1-4,1.87c-2.22.87-4.43,1.78-6.66,2.61-1.45.54-1.47.49-3.28.09.89-.92,2.05-1,3-1.53s2.07-1.19,3.13-1.73,2.05-.92,3-1.48,2-.81,2.68-2c-1-.2-1.47.35-2.05.67s-1.48.75-2.23,1.11a10.44,10.44,0,0,0-1.52.71,22.51,22.51,0,0,1-5.8,2.46,2.31,2.31,0,0,1-2.75-.46,1.91,1.91,0,0,1,1.94-1.61,9.87,9.87,0,0,0,4.92-1.67c1.1-.63,2.25-1.16,3.34-1.8.76-.45,1.45-1,2.25-1.56-.72-.69-1.21-.28-1.67,0-1.81.94-3.59,1.91-5.4,2.85a18.11,18.11,0,0,1-1.8.65c1.73-1.92,4.18-1.93,5.59-4-1.46.08-2.5.89-4,1a12.59,12.59,0,0,1,2.64-1.9c.79-.59,1.6-1.15,2.37-1.76s1.6-1.32,2.45-2c-.27-.15-.41-.28-.46-.26-1.66,1-3.3,2.11-5,3.15a14.26,14.26,0,0,1-6.48,1.8,5.92,5.92,0,0,1,.78-.74c1.57-1.06,3.18-2.06,4.74-3.15.85-.59,1.62-1.29,2.66-2.12a1.58,1.58,0,0,0-1.71.35c-1.22.83-2.44,1.66-3.63,2.53-2.76,2-5.94,2.79-9.22,3.35-.81.14-1.62.31-2.82.55,2.64-2.15,5.32-3.69,7.78-5.66a2.89,2.89,0,0,0-.77.21c-1.58.92-3.14,1.87-4.71,2.79-1.27.74-2.54,1.5-3.85,2.16s-1.43.66-2.94-.05a13.43,13.43,0,0,1-1.5,1.93,4.8,4.8,0,0,1-2.26,1.09l1-1.34c-3.79,2-7.27,4.52-11.25,6l-.24-.43c1.36-1,2.72-1.92,4.06-2.9a13.61,13.61,0,0,0,3.47-3.55c-1.92,1.35-3.82,2.74-5.77,4s-3.69,2.75-6.5,3.07a8.38,8.38,0,0,1,1-1.16,42.52,42.52,0,0,0,7.52-7,4,4,0,0,1,2.29-1.28,14.26,14.26,0,0,0,6.12-3.66,4.76,4.76,0,0,0-1.24.24c-1,.49-2,1.07-3,1.6-.37.2-.77.55-1.14.52-1.4-.09-2.06.86-2.9,1.71a57.82,57.82,0,0,1-9.52,7.95A7.87,7.87,0,0,1,242,87.67c1.39-1.14,2.7-2.16,4-3.25a40.85,40.85,0,0,0,4.49-4.13c2-2.33,4.54-3.69,7.11-5.13s5.06-3,7.58-4.53c.09-.05.1-.22.21-.47a8.93,8.93,0,0,0-3.25,1.5,63.15,63.15,0,0,1-9,4.55c-.31.11-.75.35-.8.6-.31,1.65-1.73,2.35-2.77,3.32a52.1,52.1,0,0,1-9.13,7.1,7,7,0,0,1-3.31,1.23c-.65,0-1.27.42-2.05.47.27-.23.52-.48.81-.69,2.17-1.56,4.39-3,6.49-4.68A8.6,8.6,0,0,0,245.39,80c-.65.46-1.32.9-2,1.38-2.5,1.92-4.88,4-7.52,5.73A36.4,36.4,0,0,1,229.64,90a47.84,47.84,0,0,1-5.9,1.84c.39-.29.77-.6,1.17-.87,2.21-1.48,4.44-2.94,6.65-4.44a8.33,8.33,0,0,0,1.11-1A23.41,23.41,0,0,0,230,86.89a57.86,57.86,0,0,1-11.55,5.56c-1.37.53-2.73,1.11-4.14,1.52a17.19,17.19,0,0,1-2.83.35l-.14-.41c.58-.33,1.15-.68,1.74-1,3.74-1.92,7.61-3.62,11.2-5.8,3.28-2,6.6-4,9.25-6.9a1.33,1.33,0,0,0,.39-.86,6.36,6.36,0,0,0-.85.53c-7,6.1-15.15,10.12-23.69,13.48a7.83,7.83,0,0,1-3.11.47,9.14,9.14,0,0,1,1-.44,21.19,21.19,0,0,0,5.53-2.53c1.63-1.08,3.43-1.9,5.16-2.84a68.42,68.42,0,0,0,10.27-6.57,34.88,34.88,0,0,0,4.54-4.66,2.08,2.08,0,0,0-1.76,1,39.26,39.26,0,0,1-8.31,6.75c-1.53,1-3.14,1.88-4.75,2.72-2.92,1.53-5.88,3-8.83,4.46a2,2,0,0,1-2.34,0l1.3-.52a38.88,38.88,0,0,0,8.52-4.52c.45-.31,1-.58,1-1.23-1.9,1-3.81,2-5.7,3.08a14.51,14.51,0,0,1-6,2.06v1.45c-3.24,2.2-4.78,2.58-7,1.63.87-.6,1.7-1.09,2.45-1.69a59.9,59.9,0,0,1,7.85-4.87,77.66,77.66,0,0,0,12-7.74c.56-.47,1.22-.85,1.3-1.82l-2.17,1.5c-1.79,1.23-3.53,2.55-5.39,3.67a69.46,69.46,0,0,1-8,4.65c-.71.31-1.37.72-2.1,1a17.84,17.84,0,0,1-2.22.45c-.19,1.53-.23,1.47-1.6,2.3a11.37,11.37,0,0,1-7.6,1.94,3.37,3.37,0,0,1-.58-.19,18.92,18.92,0,0,1,5.55-3.49A44.85,44.85,0,0,0,203.08,87c1-.52,1.9-1.19,2.9-1.68a49.17,49.17,0,0,0,12.25-8.45,8.42,8.42,0,0,0,.64-.91,12.77,12.77,0,0,0-1.49.79c-1.73,1.31-3.35,2.79-5.19,4-3.14,2-6.4,3.79-9.61,5.65a13.58,13.58,0,0,1-1.33.6l-.22-.86a1.53,1.53,0,0,0-.41.1c-2.5,1.55-5,3.17-7.51,4.64a7.64,7.64,0,0,1-4.85.75c0-.13,0-.33.12-.37,2.83-1.54,5.33-3.62,8.4-4.78A33.61,33.61,0,0,0,201.42,84c3-1.75,6.08-3.49,9.08-5.32a29.89,29.89,0,0,0,3.35-2.54,31.68,31.68,0,0,0,4-3.84c-.3.16-.6.3-.89.48a7.85,7.85,0,0,0-1,.74,62,62,0,0,1-14.43,9.41,25.57,25.57,0,0,1-4.94,2.22c-1.62.42-3,1.8-4.51,2.65s-3.37,1.74-5.09,2.53a2.57,2.57,0,0,1-1.78.1c1.65-1,3.35-2,4.93-3.1,3.13-2.22,6.77-3.39,10.13-5.12a33.15,33.15,0,0,0,3.14-1.66c2.34-1.53,4.63-3.15,6.93-4.75.62-.43,1.27-.86,1.35-1.71a7.69,7.69,0,0,0-1.23.65,53.48,53.48,0,0,1-10.94,6.7c-2.3,1-4.64,2-7,3-.32.14-.73.21-.92.45-1.9,2.47-4.81,3.26-7.44,4.5a2.7,2.7,0,0,1-2.38.09c.09-.23.11-.43.2-.46,3.32-1.41,5.74-4,8.34-6.34A4.64,4.64,0,0,1,193,81.11a3.29,3.29,0,0,0,1.18-.43,62.27,62.27,0,0,0,12.16-7.85c1-.87,2.12-1.6,3.18-2.42a2.31,2.31,0,0,0,.88-1.23,5.29,5.29,0,0,0-1.15.6,77.54,77.54,0,0,1-12.3,8.45c-1.2.69-2.38,1.85-4,1.22a19.65,19.65,0,0,0-1.87,1.3c-.89.78-1.63,1.73-2.56,2.46A30.14,30.14,0,0,1,183,86.73a6.28,6.28,0,0,1,.68-.83c1.07-.91,2.16-1.79,3.24-2.7a12.94,12.94,0,0,0,1.72-1.54,15.72,15.72,0,0,1,5.18-3.87A66.75,66.75,0,0,0,204.66,71a13.78,13.78,0,0,0,2.74-2.89c-2.89,2-5.75,4-8.67,5.9a44,44,0,0,1-9.49,4.84A2.72,2.72,0,0,1,188,81.2a80.88,80.88,0,0,1-8.82,6.48,3.11,3.11,0,0,1-.72.19c2-3.45,5.59-5.42,7.45-8.85-1.62,1.49-3.21,3-4.85,4.47a23.67,23.67,0,0,1-5.61,3.7,26.14,26.14,0,0,1-6.72,2.43c3.6-3.28,7.42-5.55,10.33-9-.42.28-.85.54-1.27.83s-.81.56-1.2.86a89.25,89.25,0,0,1-8.47,5.89c-2.28,1.37-4.79,1.83-7.51,2.65l14-10.33-.21-.38a10.25,10.25,0,0,0-1.31.69c-2.85,2.06-5.62,4.21-8.52,6.18a27.81,27.81,0,0,1-9.22,4,1.79,1.79,0,0,1-1-.06c4.5-2.86,9.39-5,13.62-8.59-.76-.37-1.13.11-1.54.36-2.66,1.58-5.2,3.39-8,4.68s-6,2.23-9.09,3.3a3.62,3.62,0,0,1-1,0c1.88-1.8,4.22-2.52,6.14-3.89s4-2.07,5.67-3.68a7.06,7.06,0,0,0-2.9,1.07c-2.39,1.33-4.78,2.67-7.19,4a16.94,16.94,0,0,1-2.32,1,11.68,11.68,0,0,1-2.62.63c4-2.92,8.38-5.09,12-8.54a6.61,6.61,0,0,0-.86.38c-3.22,2-6.41,4-9.66,6a16.22,16.22,0,0,1-7.19,1.79l7.63-4c2.79-1.47,5.63-3.62,6.51-5.06a8.85,8.85,0,0,0-1.25.63,62.39,62.39,0,0,1-8.25,5.07,38.36,38.36,0,0,1-5.26,2.09,4.74,4.74,0,0,1-1.14,0c1.6-1.5,3.4-2.1,4.9-3.16l4.85-3.43a1.81,1.81,0,0,0-1.77.45c-2.08,1.31-4.08,2.76-6.25,3.89a25.54,25.54,0,0,1-7.72,2.64,2,2,0,0,1-2.12-.49c.62-.36,1.13-.68,1.67-1,3.15-1.69,6.34-3.33,9.46-5.08a6.66,6.66,0,0,0,3-2.48,9.19,9.19,0,0,0-1.65.74,71.68,71.68,0,0,1-11.89,6.24,13.21,13.21,0,0,1-5.15.84c5.6-3.33,11.3-6.47,16.21-10.84-.4.22-.8.43-1.18.67-3.39,2.11-6.7,4.35-10.18,6.3a32.15,32.15,0,0,1-8.7,3.08A8,8,0,0,1,123.54,85a69,69,0,0,0,11.66-7.1c.21-.16.39-.35,1-.87a5.07,5.07,0,0,0-1.16.24c-1.76,1.15-3.43,2.46-5.27,3.45-3.08,1.66-6.09,3.5-9.54,4.36-.37.09-.76.1-1.49.19a8.25,8.25,0,0,1,2.68-1.82c2-1.11,4-2.25,6.06-3.38a1.86,1.86,0,0,0,1.12-1.37,15.46,15.46,0,0,0-2,1,52.59,52.59,0,0,1-8.54,4.1,8.34,8.34,0,0,1-1,.22c1.66-1.58,3.4-2.44,4.87-3.65s3.1-2.42,4.57-3.72,2.77-2.59,4.08-4a40.51,40.51,0,0,0,4.24-4.39,3.06,3.06,0,0,0-1.94,1.22c-1.8,1.78-3.52,3.64-5.38,5.33A56.56,56.56,0,0,1,113,84.61a5,5,0,0,1-1,.32,4.34,4.34,0,0,1-.87-.05,9.82,9.82,0,0,1,.94-1.11c2.35-2,4.8-3.91,7.06-6a46.56,46.56,0,0,0,5.65-6.29,6.46,6.46,0,0,0-1,.75,71.38,71.38,0,0,1-12.07,10.46,21.51,21.51,0,0,1-3.55,1.79c-.33.15-.79,0-1.47-.06,1.67-2.16,3.8-3.39,5.57-5a21.88,21.88,0,0,0,4.5-5.46,15.07,15.07,0,0,0-1.16,1,51.29,51.29,0,0,1-9.78,7.95,6.8,6.8,0,0,1-2.12.87c-1.07.26-2.18.38-3.77.64,1.67-1.4,3-2.48,4.29-3.62s2.55-2.38,3.76-3.65c-5.52,2.77-10.37,6.67-16.12,9.22L92.83,85c-.16,0-.33-.15-.4-.1a44.81,44.81,0,0,1-10,4.81c-.38.12-.78.19-1.61.39,3.21-2.91,7.1-4.05,9.86-6.84-4.76,2.27-9.13,5.29-14.22,6.89,2.26-2.07,5.38-2.87,7.62-5.36a4,4,0,0,0-2.09.92A44.42,44.42,0,0,1,73.74,90a4.42,4.42,0,0,1-3.05.34c1.66-1.85,4.19-2.19,5.52-4.24-.53.25-1.08.47-1.6.75A43.83,43.83,0,0,1,65.2,91a7.33,7.33,0,0,1-3.32.24,6.38,6.38,0,0,1,2.51-1.9c.93-.47,1.87-.95,2.8-1.44s1.59-.84,2.36-1.31a4.53,4.53,0,0,0,1.34-1.23,7.91,7.91,0,0,0-3,1.21c-.93.49-1.82,1.06-2.77,1.52S63,89,62,89.41a4.76,4.76,0,0,1-3,.69,11.35,11.35,0,0,1,1.33-.9c2.08-1,4.19-2,6.26-3a10.47,10.47,0,0,0,1.57-1.12c-2,.78-4,1.54-5.92,2.35-1.56.64-3.07,1.38-4.63,2a7.93,7.93,0,0,1-4.68.64c2.75-2.2,6-3,8.4-5.3-.3.12-.6.23-.89.37-2.23,1-4.45,2.08-6.68,3.1a3.48,3.48,0,0,1-1.2.39c-1,.06-2,0-3.15,0,1.34-1.31,3.1-1.86,4.17-3.37-.35.13-.71.24-1.05.4-1.71.81-3.46,1.56-5.12,2.46a5.55,5.55,0,0,1-4.85.12c3-2.15,6.51-3,9.32-5.3a6.54,6.54,0,0,0-1,.24c-3,1.19-6,2.4-9,3.61a4.61,4.61,0,0,1-3.26,0c1.66-1.5,3.63-1.88,5.32-2.78s3.56-1.05,4.82-2.67c-.44.14-.89.25-1.32.42q-3.32,1.34-6.62,2.72a12.81,12.81,0,0,1-6.1.81l6.57-3.13-.08-.36h-.81a.62.62,0,0,0-.19.08,10.1,10.1,0,0,1-8.05.77A68.6,68.6,0,0,0,44.51,77l-.16-.38c-1.46.61-2.92,1.21-4.37,1.85A34.2,34.2,0,0,1,32.41,81a3.41,3.41,0,0,0-1.37.48,3.49,3.49,0,0,1-2.9.34l.16-1.41-3.44.25,1-1.92c-1.62.44-2.89,1.2-4.52.58l2-2.16c-1.8,0-3,1.32-4.46,1.23L18.57,78l2-1.13-.34-.47c-2.23.37-4,2.57-6.74,1.68l2.18-1.66-.17-.3c-1.06.48-2.13.94-3.17,1.45a5.26,5.26,0,0,1-4.07.59l2.57-2.33c-.62.2-1.25.38-1.87.6s-1.42.63-2.15.85a1,1,0,0,1-1.48-.64l7.4-4.15-.11-.29a5.64,5.64,0,0,0-.84.24c-1.91.89-3.8,1.82-5.72,2.69a6.18,6.18,0,0,1-1.81.53c-.33,0-.7-.24-1.4-.5L9.54,71.2c-2.49.28-4.5,2-7.06,2C3.62,72.59,4.94,72.3,6,71c-1.37.08-2.42,1-3.57.37a6.69,6.69,0,0,1,1.46-2.68c-.5,0-1,0-1.49,0-.7.89-1.37,1.8-2,2.73A1.71,1.71,0,0,0,0,72.55c.39,2,.83,4.09,3,5.13.29.14.48.49.75.71s.55.53.85.55c2.38.17,4.63,1,7.07,1a67.64,67.64,0,0,1,7.53.7,2.69,2.69,0,0,1,1,.36,37.47,37.47,0,0,0,8.45,3.17c.4.11,1,.14,1.16.4.87,1.57,2.5,2,3.92,2.67a36.08,36.08,0,0,0,4.6,2,35.39,35.39,0,0,0,5.09,1.21c2.28.4,4.57.69,6.86,1,2.79.34,5.61.47,8.36,1a23.37,23.37,0,0,0,6.7.28,16.43,16.43,0,0,1,2.11,0,61.08,61.08,0,0,0,14.87-1.18c1.92-.41,3.9-.6,5.79-1.09s4-.66,5.86-1.59,3.94-1.83,6-2.65a5.74,5.74,0,0,1,2.43-.45c1.67.1,3.33.38,5,.64,2.43.37,4.89.63,7.27,1.2,6.27,1.52,12.61,2.69,19,3.57,3.68.51,7.39.84,11.1,1.13,3.14.24,6.3.35,9.45.4s6.6.22,9.84-.7a10.47,10.47,0,0,1,3.13-.37,17.87,17.87,0,0,0,6.37-1.17,7.2,7.2,0,0,1,6.06.46,8.17,8.17,0,0,0,1.74.74c3.38.91,6.66,2.17,10.18,2.57,2.64.3,5.24.92,7.87,1.39a5.86,5.86,0,0,0,1.05.07c4.42,0,8.85,0,13.27-.09A16.7,16.7,0,0,0,217,95c2.6-.58,5.16-1.39,7.78-1.73a53.21,53.21,0,0,0,7-1.51c3.61-1,7.1-2.3,11-2.22a42.35,42.35,0,0,0,13.49-1.92c2.67-.83,5.17-2.16,8-2.62a.85.85,0,0,0,.19-.09c2.09-.84,4.2-1.6,6.25-2.54,2.94-1.34,6.05-1,9.12-1a1.54,1.54,0,0,1,1.16.67c.3.57-.26.83-.72,1a4.49,4.49,0,0,0-.91.52,3.62,3.62,0,0,0-.63,5.36,8.63,8.63,0,0,0,3.59,2.47c3.26,1.23,6.79,1,10.09,2a4.11,4.11,0,0,0,1.25-.06c.63,0,1.26-.06,1.89,0,2.1.05,4.21.16,6.31.19,1.81,0,3.64.05,5.45-.1,2.79-.25,5.58-.62,8.36-1,2.58-.35,5.16-.78,7.38-2.28a3.57,3.57,0,0,1,3.21-.45,20.5,20.5,0,0,0,5.63.63c2.73,0,5.46.16,8.18.06,3.86-.15,7.72-.33,11.55-.76a26.47,26.47,0,0,0,5.89-1.55c2.19-.78,4.33-1.58,6.73-1.28a8.84,8.84,0,0,0,5.67-1.2,26.19,26.19,0,0,0,2.85-2.13C373.85,82.43,373.88,82.18,373.33,80.86Z"/><path d="M167.25,33.8l-.2.11A98.36,98.36,0,0,0,156,41.22a4.2,4.2,0,0,0-1.83,2.11l.34.31c1-.8,1.87-1.64,2.87-2.38a125.88,125.88,0,0,1,10.54-7.05Z"/><path d="M170.64,35.6c-1.27.75-2.52,1.54-3.75,2.35-2.57,1.7-5,3.63-7.43,5.52a22.47,22.47,0,0,0-2.16,2.19l.39.41a11,11,0,0,0,1.12-.82,31.68,31.68,0,0,1,2.42-2.34,102.51,102.51,0,0,1,10.29-7Z"/><path d="M164,31.22c-1.51.74-3,1.5-4.48,2.33-2,1.14-3.86,2.55-5.76,3.88a1.89,1.89,0,0,0-1,1.81,6,6,0,0,0,.86-.49,49.72,49.72,0,0,1,10.95-7Z"/><path d="M108.59,51c-1.61.84-3.26,1.61-4.82,2.53a46.92,46.92,0,0,0-9.88,7.8,25.86,25.86,0,0,1-2,1.89,1.59,1.59,0,0,1-1.11.25C95.81,57.89,101.23,53,108.59,51Z"/><path d="M245.46,80c.09-1,.85-1.56,1.5-2.19,1.18-1.16,2.53-2.16,3.16-3.83a2.23,2.23,0,0,1,1.51-1c2.61-.53,4.68-2.15,7-3.34,1.61-.84,3.15-1.78,4.94-2.8A6,6,0,0,1,261,69.12a38.67,38.67,0,0,0-6.73,4.2,4.78,4.78,0,0,1-1.86.89,6.15,6.15,0,0,0-3.11,2c-.79.89-1.6,1.76-2.45,2.6A14.81,14.81,0,0,1,245.43,80Z"/><path d="M89.43,61.75c1.17-3.78,11.5-11.57,15.45-11.9-2.78,1.8-5.62,3.42-8.18,5.39S91.85,59.56,89.43,61.75Z"/><path d="M251.84,50.7c-.79.56-1.56,1.16-2.38,1.67-3.6,2.19-7.2,4.36-10.82,6.48a9.19,9.19,0,0,1-2.36.86,1.07,1.07,0,0,1-1.42-.6.92.92,0,0,1,1.27-.72,3.31,3.31,0,0,0,2.6-.54c2.8-1.62,5.58-3.25,8.37-4.88l4.52-2.62Z"/><path d="M161.86,28.7a38.32,38.32,0,0,0-4.08,1.94l-.21.11a28.7,28.7,0,0,1-5.31,3.32,10.52,10.52,0,0,0-3,3.1,74.29,74.29,0,0,1,13-8Z"/><path d="M325.81,82.11a1.94,1.94,0,0,1,.75-2.35c3.09-2.27,6.15-4.57,9.29-6.78a26.26,26.26,0,0,1,5.94-3.2,6,6,0,0,1-2.23,1.71,63.94,63.94,0,0,0-10.9,7.81c-.62.56-1.16,1.21-1.74,1.81C326.64,81.38,326.33,81.63,325.81,82.11Z"/><path d="M64.16,47.59c-1.69.93-3.42,1.78-5.05,2.8s-3.21,2.27-4.82,3.38-2.65,2.82-4.49,4c.38-1.45.43-1.52,2.49-3.41C56.29,50.69,61.07,47.87,64.16,47.59Z"/><path d="M344.8,73.06c-3,1.85-6.17,3.56-9.09,5.58s-5.46,4.26-8.37,6.3a3.49,3.49,0,0,1,.53-.94C332.92,79.42,338.31,75.37,344.8,73.06Z"/><path d="M175.78,37a62.23,62.23,0,0,0-12.31,7.48,5,5,0,0,0-2.13,2.6c.53-.3.76-.4,1-.55,1.67-1.27,3.29-2.61,5-3.82.9-.63,2.12-.86,2.9-1.59a24.49,24.49,0,0,1,6.21-3.88l.25-.14Z"/><path d="M199.44,69a6.13,6.13,0,0,1-1,1.29,42.88,42.88,0,0,1-7.4,4.73c-1,.53-2,1.19-3.12,1.85l-.25-1.33a2.47,2.47,0,0,1,.54-.44,48,48,0,0,0,9.89-5.49,8,8,0,0,1,1.33-.59Z"/><path d="M108.66,54.68c-4.87,2.09-8.9,5.38-12.67,9l-.36-.32c.1-.27.13-.61.32-.78A51.48,51.48,0,0,1,100,59c2.23-1.67,4.43-3.43,7.12-4.35.44-.15.9-.24,1.35-.36Z"/><path d="M61.3,45.94c-4.62,3-9.4,5.71-13.51,9.55a2.38,2.38,0,0,1,.32-.78,15.22,15.22,0,0,1,2.09-2.06c2.89-2.08,5.83-4.1,8.78-6.11a13.84,13.84,0,0,1,2.06-1Z"/><path d="M52.62,58.6C55.15,55.24,63,50.22,65.83,50A115.14,115.14,0,0,0,52.62,58.6Z"/><path d="M185.78,39.79c-5.32,1.49-10,4.26-14.54,7.41a2.93,2.93,0,0,1,.53-.89,45.17,45.17,0,0,1,4.06-3,31.49,31.49,0,0,1,7.59-3.52c.72-.21,1.48-.29,2.22-.43Z"/><path d="M49.66,52c0-.68-.16-1-.06-1.15a7.91,7.91,0,0,1,1.14-1.74,37.22,37.22,0,0,1,7.82-6,3,3,0,0,1,2.3-.6C56.73,45,52.77,47.73,49.66,52Z"/><path d="M242.44,71.12c1.68-1.27,3.35-1.56,4.8-2.27s3-1.42,4.55-2.16a29.64,29.64,0,0,1,4.68-2,3.88,3.88,0,0,1-.74.7c-2.85,1.48-5.72,2.94-8.58,4.41-.68.35-1.33.77-2,1.09A2.85,2.85,0,0,1,242.44,71.12Z"/><path d="M100.11,50.17c-1.06.72-2.14,1.41-3.18,2.16s-2,1.52-3,2.28a22.86,22.86,0,0,1-3.43,2.62c.17-.69.15-1.1.34-1.26A34.28,34.28,0,0,1,99.18,50a3.47,3.47,0,0,1,.76-.15Z"/><path d="M314.4,78.27c.7-1.44,2.1-2.28,3.26-3.29a23.19,23.19,0,0,1,8.42-5.17c-2,1.38-4,2.68-6,4.15s-3.6,3-5.4,4.58Z"/><path d="M42.14,75.27A11.32,11.32,0,0,1,41,76c-1.87.92-3.74,1.83-5.63,2.7a17.46,17.46,0,0,1-2.54.94,7.32,7.32,0,0,1-1.68,0c.32-.47.44-.84.67-.93,3.38-1.26,6.77-2.47,10.16-3.7Z"/><path d="M186.63,73.41c1.9.28,3.41-.75,4.89-1.77,2.13-1.46,4.19-3,6.29-4.51a1.22,1.22,0,0,1,1-.21,5.54,5.54,0,0,1-.76.82c-2.72,2-5.42,3.93-8.2,5.81a7.25,7.25,0,0,1-2.53.89C186.86,74.53,186.34,74.28,186.63,73.41Z"/><path d="M185.69,43a36,36,0,0,0-11.55,6.57c.08-.67,0-.93.13-1a22.45,22.45,0,0,1,10.82-5.62A1.83,1.83,0,0,1,185.69,43Z"/><path d="M255.94,68.59a3.89,3.89,0,0,1-.54.47c-2.18,1.24-4.36,2.49-6.56,3.68a5,5,0,0,1-3.4.68c.44-1.39.44-1.34,1.66-1.29a3.66,3.66,0,0,0,1.59-.37c1.77-.82,3.52-1.7,5.28-2.55.61-.29,1.22-.57,1.83-.85Z"/><path d="M243.37,59.75a3.73,3.73,0,0,1,.7-.73c4.21-2.47,8.43-4.91,12.84-7.46a4,4,0,0,1-.58.74,94.56,94.56,0,0,1-11.21,6.92,7.9,7.9,0,0,1-1.77.5Z"/><path d="M111.58,56.24a34,34,0,0,0-10.76,6.7l-.32-.31c.15-.33.2-.76.45-1A25.68,25.68,0,0,1,110.69,56C110.8,56,110.94,56.07,111.58,56.24Z"/><path d="M120.62,42.77a1.78,1.78,0,0,1,.33-2.23c1.24-1.68,2.54-3.32,3.89-4.91a18.18,18.18,0,0,1,2.74-2.57c-.8,1.86-2.45,3.05-3.6,4.63S121.83,40.93,120.62,42.77Z"/><path d="M335.52,70.44c-3.43,2.93-7.12,5.42-10.57,8.77a2.37,2.37,0,0,1,1-2.05c2.73-2.08,5.48-4.12,8.25-6.15A6.4,6.4,0,0,1,335.52,70.44Z"/><path d="M166.68,46.74c1.44-2.36,7.43-6.34,11-7.58-.47.82-.48.8-1.84,1.53-.8.43-1.56.92-2.34,1.39s-1.44.86-2.13,1.32-1.48,1.06-2.22,1.58Z"/><path d="M60.37,40.16c-1.32.92-2.34,1.58-3.3,2.31s-1.91,1.64-2.92,2.39-1.55,1.92-2.92,2.53C52.48,44.42,56.91,40.86,60.37,40.16Z"/><path d="M122.17,45c-.54-1.19.06-1.84.47-2.51,1.62-2.64,5.22-6.12,7.25-6.81A36.49,36.49,0,0,0,122.17,45Z"/><path d="M39.56,72.24c0,.06.07.16.05.18a12.66,12.66,0,0,1-6.43,3.27,1.14,1.14,0,0,1-.81-.1,1.31,1.31,0,0,1-.48-.79c0-.14.36-.49.55-.48,2.28.09,4.2-1,6.16-1.9a4.58,4.58,0,0,1,.79-.26S39.5,72.21,39.56,72.24Z"/><path d="M275.37,34c-.55.62-1.06,1.27-1.65,1.84-2,1.88-4,3.72-6,5.57a3.79,3.79,0,0,1-.72.36c0-.38,0-.71.09-.85,2.47-2.64,4.89-5.35,8.27-6.89Z"/><path d="M246.74,61.86a10.24,10.24,0,0,1,1.36-1.24c3.54-2.26,7.11-4.49,10.67-6.73.14-.09.33-.11.64.08-1.28.92-2.53,1.9-3.85,2.76-2.46,1.6-5,3.15-7.48,4.69a5.77,5.77,0,0,1-1.38.41Z"/><path d="M262.63,78.86c3.36-.82,5.85-3,9.27-4.36-.42.61-.54.94-.77,1.07-2.11,1.25-4.23,2.48-6.37,3.67a2.84,2.84,0,0,1-1.4.29C263.15,79.54,262.94,79.16,262.63,78.86Z"/><path d="M66.66,53.47a38.42,38.42,0,0,0-8.74,4.91C58.83,56.05,64,53.19,66.66,53.47Z"/><path d="M132.41,39c-1.38,1.13-2.84,2.17-4.12,3.4s-2.37,2.65-3.62,4.09a2.38,2.38,0,0,1,.7-2.14A14.78,14.78,0,0,1,132.41,39Z"/><path d="M285,35.67a50.46,50.46,0,0,0-9.6,6.45C276.28,39.81,282.19,35.87,285,35.67Z"/><path d="M320.43,78.38a6.24,6.24,0,0,1,.64-.91,37.68,37.68,0,0,1,9.06-6.31c-1.64,1.77-3.47,2.6-5,3.86s-3,2.4-4.49,3.59Z"/><path d="M272.17,32.73c-.63.59-1.25,1.2-1.9,1.78-1.74,1.56-1.75,1.55-2,2.78L273,33C272.7,32.91,272.44,32.83,272.17,32.73Z"/><path d="M33.13,71.29c1-.3,2.12-.56,3.14-.92S38,69.18,39.5,69.2a15.68,15.68,0,0,1-4.84,3C33.74,72.54,33.44,72.29,33.13,71.29Z"/><path d="M247.58,64.39a5.39,5.39,0,0,1,.93-.79q3.54-1.86,7.12-3.66a2.4,2.4,0,0,1,1.14-.28c-2.07,1.33-4,2.93-6.3,3.72-1,.33-1.74,1.26-2.92,1Z"/><path d="M134.73,42.45,129,47.68c-.4-.61,0-1.06.3-1.5C130.13,44.9,132.1,43.53,134.73,42.45Z"/><path d="M232.81,85.48a6.56,6.56,0,0,1,.82-1.15c1.91-1.74,3.84-3.44,5.77-5.15a2.19,2.19,0,0,1,.6-.24c-1.6,2.45-5.15,5.63-7.22,6.51Z"/><path d="M186.55,49l-6.47,3.33s-.11-.07-.16-.11C180.88,50.61,183.66,49.16,186.55,49Z"/><path d="M262.26,60.89l8.1-5.39a27.48,27.48,0,0,1-7.82,5.7Z"/><path d="M97,49.2a5.57,5.57,0,0,1-.56.81c-1.16,1-2.35,2-3.51,3-.57.5-1.1,1.06-2,.84C93.36,51,94.36,50.2,97,49.2Z"/><path d="M314.65,65.22q-3,3.21-5.95,6.41c-.06.06-.24,0-.37,0C308.85,70.12,312.5,66.26,314.65,65.22Z"/><path d="M229.27,47.08l7-3.62a12.75,12.75,0,0,1-5.46,3.75A5.46,5.46,0,0,1,229.27,47.08Z"/><path d="M246.71,61.83a19.84,19.84,0,0,1-5.49,2.92c-.87.35-1.14.16-1.89-.57.09-.1.18-.29.26-.29a9.48,9.48,0,0,0,4.8-1.26,19.87,19.87,0,0,1,2.35-.77Z"/><path d="M247.55,64.36c-1.37,1.6-3.34,2.19-5.17,3a1.93,1.93,0,0,1-1.21,0c-.23-.06-.37-.45-.77-1,2.32.27,3.94-.71,5.63-1.47a16,16,0,0,1,1.56-.55Z"/><path d="M178.53,49.61A9.77,9.77,0,0,1,185.72,46Z"/><path d="M229.23,44.64l6.43-3.69a7.46,7.46,0,0,1-3.32,2.9A4.94,4.94,0,0,1,229.23,44.64Z"/><path d="M110.92,59.71c-.29.17-.56.36-.86.52a29.81,29.81,0,0,1-4.74,2.24,4.45,4.45,0,0,1,.77-1A6.91,6.91,0,0,1,110.92,59.71Z"/><path d="M317.66,60.27Q315,62.63,312.41,65c-.07.06-.25,0-.37,0C312.57,63.72,315.33,61.24,317.66,60.27Z"/><path d="M68.56,55.12c-2.11,1.68-3.89,2.56-5.28,2.71C64.24,56.52,65.64,55.76,68.56,55.12Z"/><path d="M149.86,74.74l2.61-2c.83-.63,1.66-1.27,2.61-2-.6,1.44-2.08,2.68-5,4.29Z"/><path d="M131.29,49.05c.55-2.1,2.43-2.76,4.12-3.83A11.92,11.92,0,0,1,131.29,49.05Z"/><path d="M275.84,38.23a2.68,2.68,0,0,1,.46-.67c1.38-1.06,2.77-2.11,4.19-3.13a4.12,4.12,0,0,1,1.56-.62c-.32.88-1.19,1.17-1.85,1.66s-1.36,1-2.07,1.42-1.55.88-2.33,1.31Z"/><path d="M285.33,43.09c-1.64,1.13-3,2.07-4.35,3-.14.09-.38,0-.59,0C281,44.59,281.63,44.2,285.33,43.09Z"/><path d="M306.78,75.28c1-2.26,2.78-3.22,4.57-4.58A15.89,15.89,0,0,1,306.78,75.28Z"/><path d="M243.34,59.72a15.28,15.28,0,0,1-5,2.51c-.19.07-.46-.11-.8-.2a15.54,15.54,0,0,1,5.81-2.28Z"/><path d="M282.62,40.33l-3.94,3.43-.3-.19a2.31,2.31,0,0,1,.23-.81c1-1.27,2.48-1.88,3.77-2.76Z"/><path d="M186.08,67.58,191,64c-.14.45-.13.66-.23.74-1.21,1-2.42,2.09-3.66,3.1a1.93,1.93,0,0,1-.73.2Z"/><path d="M314.67,59.14a20.19,20.19,0,0,1,5-4.32c-.06.32,0,.48-.11.55q-2.27,2.09-4.57,4.18Z"/><path d="M150.18,79.16a24.12,24.12,0,0,1,5-3.76A11.88,11.88,0,0,1,150.18,79.16Z"/><path d="M232,53.09l5.14-2.17a6.42,6.42,0,0,1-3.27,2.29A1.72,1.72,0,0,1,232,53.09Z"/><path d="M233.56,38.16c-.24.27-.5.55-.76.81a21,21,0,0,1-3.21,2.59l-.14.21,4.61-3.45-.23-.34Z"/><path d="M221.43,82.95a4.83,4.83,0,0,1,.7-1c1-.91,2.11-1.78,3.19-2.64a1.08,1.08,0,0,1,.72-.23c-1.28,1.61-2.55,3.22-4.63,3.85Z"/><path d="M186.66,52.23l-4.72,2.58c.29-.57.35-.89.55-1.05A6.24,6.24,0,0,1,186.66,52.23Z"/><path d="M108.86,62.86a4,4,0,0,1,3.58-2.07A7.09,7.09,0,0,1,108.86,62.86Z"/><path d="M271.8,49.87a8.17,8.17,0,0,1-4.17,3.39,9.45,9.45,0,0,1,2.13-1.92C270.42,50.8,271.12,50.35,271.8,49.87Z"/><path d="M68.27,85A17.68,17.68,0,0,1,73,81.79,10.05,10.05,0,0,1,68.24,85Z"/><path d="M166.13,79.13c-1.33,1.11-2.53,2.42-4.3,2.89a10,10,0,0,1,4.33-2.86Z"/><path d="M211.71,74.09c.92-1.72,2.58-2.53,4.16-3.44a12.07,12.07,0,0,1-4.19,3.41Z"/><path d="M146,68.7l-3.76,3.46-.32-.31c.33-.8,1.26-1.08,1.81-1.68s1.3-1.22,2-1.82Z"/><path d="M190.5,69.25a6.1,6.1,0,0,1-4.52,2.3Z"/><path d="M237,54.69l4.78-2.86A7.48,7.48,0,0,1,237,54.65Z"/><path d="M10.91,75.77a7.63,7.63,0,0,1,4-2.31c-1.27.9-2.36,2.1-4,2.28Z"/><path d="M264,64c-.06.11-.09.29-.19.34l-3.9,2.13A5.63,5.63,0,0,1,264,64Z"/><path d="M237,54.65c-.69,1.22-2,1.48-3.12,1.94-.19.07-.52-.21-1.12-.48L237,54.69Z"/><path d="M317.24,71.62l-3.47,2.87C314.4,72.84,315,72.34,317.24,71.62Z"/><path d="M115.58,62.38c-.87.78-1.69,1.67-3.23,1.45A4.49,4.49,0,0,1,115.58,62.38Z"/><path d="M69.51,57.19a5.1,5.1,0,0,1-2.57,2C67.42,57.93,67.6,57.79,69.51,57.19Z"/><path d="M102.65,73.46A8.84,8.84,0,0,1,100,75.9l-.3-.33,2.61-2.45Z"/><path d="M275.81,38.2a8,8,0,0,1-3.24,2.61,6.72,6.72,0,0,1,3.27-2.58Z"/><path d="M303.77,83.23a3.21,3.21,0,0,1-2.41,1.8C302,84,302.41,83.18,303.77,83.23Z"/><path d="M203.25,66.47A5.14,5.14,0,0,1,199.44,69l0,0a10.86,10.86,0,0,1,3.82-2.52Z"/><path d="M136.55,49l-2.21,1.67c.15-.76.12-1.12.28-1.28C135.08,49,135.57,48.49,136.55,49Z"/><path d="M159.27,72.28a4.32,4.32,0,0,1-2.62,2.16C157.28,73.09,158.53,73,159.27,72.28Z"/><path d="M128.59,78.72a5.11,5.11,0,0,1,2.87-2.16,4.69,4.69,0,0,1-2.9,2.13Z"/><path d="M137.37,75.71a6.47,6.47,0,0,1,2.43-1.82l.25.33L137.68,76Z"/><path d="M166.16,79.16c.25-1.34,1.56-1.54,2.4-2.25a4.32,4.32,0,0,1-2.43,2.22Z"/><path d="M186.5,64.23l2.1-1.51C188,64.29,188,64.29,186.5,64.23Z"/><path d="M221.41,82.92a6.19,6.19,0,0,1-3.83,2.52l0,0a9.73,9.73,0,0,1,3.83-2.53Z"/><path d="M315.83,63.83,318.15,62A2.84,2.84,0,0,1,315.83,63.83Z"/><path d="M143.78,79.57c.59-1.21,1.75-1.64,3-2.33a4.56,4.56,0,0,1-3,2.3Z"/><path d="M203.28,66.5c.21-1.4,1.61-1.51,2.41-2.26a4.34,4.34,0,0,1-2.44,2.23Z"/><path d="M270.67,59.58a3.77,3.77,0,0,1-2.32,1.63A4.1,4.1,0,0,1,270.67,59.58Z"/><path d="M182.93,37.35l-3.17,1.32C180.67,37.59,180.67,37.59,182.93,37.35Z"/></g><path d="M293.49,27.44a10.64,10.64,0,0,1-4.91-1.09,8.47,8.47,0,0,0-4.46-.95,5.33,5.33,0,0,1-4.24-1.47,28.36,28.36,0,0,0-4.73-3.74c-4.31-2.28-8.7-4.47-13.67-5q-1.73-.18-3.48-.27a2.22,2.22,0,0,1-2.08-1.54,9,9,0,0,0-1.74-3,13.11,13.11,0,0,0-8-4c-1.84-.15-3.71,0-5.56,0a4.63,4.63,0,0,1-2.38-.52A33.06,33.06,0,0,0,218.14,0,49.78,49.78,0,0,0,203.3,2.52C194.62,5.4,187.37,10,183,18.36a30.59,30.59,0,0,0-5.3.16c-4,.8-7.78,2.14-10.64,5.11.46.15.93.3,1.38.48a11.65,11.65,0,0,1,4.13-2.85c3-1.25,6.1-2.26,9.47-1.75a11.19,11.19,0,0,0,2.1-.1c1.57-5.14,5.28-8.35,9.43-11.18-1.58,2.26-4,3.77-5.14,6.5a8.65,8.65,0,0,0,1.1-.86,47.2,47.2,0,0,1,8.45-7.25A34.36,34.36,0,0,1,214.2.92,36.64,36.64,0,0,1,228,1.9a23.88,23.88,0,0,1,9.67,4.86c1.19,1.08,2.42.7,4.23.52l-4.31,3.24.19.24c1.82-.94,3.64-1.89,5.47-2.82a5.62,5.62,0,0,1,5.17-.1A36,36,0,0,1,253.57,11a3.82,3.82,0,0,1,1.29,2.13c.46,2.06,1.74,2.71,3.7,2.74a21.27,21.27,0,0,1,8.65,1.51c2.33,1.05,4.67,2.08,7,3.18a10.56,10.56,0,0,1,1.69,1.27c-1.8,3.28-4.79,5-7.7,7a6.34,6.34,0,0,0,3.48-1.42c1.57-1.13,3.05-2.39,4.62-3.52a4.07,4.07,0,0,1,1.39-.37c0,.49.11,1.16-.15,1.45a53.17,53.17,0,0,1-3.82,3.71c-.85.76-1.83,1.37-2.67,2.19a12.62,12.62,0,0,0,4.46-2.47c1.35-1,2.64-2.14,4.15-3.36l1.18,1.08,4.45.56c0,1.52-1.24,2.37-1.65,3.76l3.73-3.21c.35,1.49.35,1.49-3,5.35a16.63,16.63,0,0,0,4.5-3.5c.86-.79.86-.8,2.55-.27l-.9,1.79c.13.05.29.18.38.14a2,2,0,0,0,.8-.45c1.34-1.66,3.11-1.95,5-2,.17-.31.34-.61.52-.91C295.89,27.33,294.7,27.35,293.49,27.44Z"/><path d="M215,33.94c.65-.16,1.3-.31,1.95-.48,4.76-1.27,9.29-3,13-6.35,2.54-2.27,5.05-4.57,7.58-6.85a3.83,3.83,0,0,1,1.74-1,5.14,5.14,0,0,1-.59.88,78.57,78.57,0,0,1-10.94,9.7,38.49,38.49,0,0,1-10.12,4.61C216.82,34.71,215.91,35.09,215,33.94Z"/><path d="M205.32,31.27a6.41,6.41,0,0,1,1.19-.46,34.61,34.61,0,0,0,14-5.38c3-1.92,5.8-4.12,8.7-6.17.73-.52,1.52-.95,2.38-1.48,0,.41.12.63.07.66-4.18,2.93-7.9,6.54-12.57,8.74-3.36,1.58-6.8,3-10.24,4.4a9.1,9.1,0,0,1-2.73.4C205.91,32,205.7,31.63,205.32,31.27Z"/><path d="M232.71,21.78a6,6,0,0,1-.89.88c-5.42,3.56-10.74,7.3-16.79,9.78a34.16,34.16,0,0,1-4.64,1.38c-.37.09-.82-.19-1.3-.52C217.93,31.35,225.12,26.25,232.71,21.78Z"/><path d="M209.38,3.15c-7.16,2.92-13.67,6.71-18.71,12.94,0-.38,0-.84.16-1.11a16.74,16.74,0,0,1,2.07-2.49,40.86,40.86,0,0,1,15.37-9.24,3.34,3.34,0,0,1,.67-.16A1.51,1.51,0,0,1,209.38,3.15Z"/><path d="M243.25,21.29c-4.15,6-15.2,13.56-18.89,13,3.43-1.85,6.95-3.39,10.05-5.52A111.85,111.85,0,0,0,243.25,21.29Z"/><path d="M233.17,32.61c6.06-2.78,10.69-7.45,15.58-11.77C246.71,25,236.71,32.58,233.17,32.61Z"/><path d="M168.82,32.37c1.33-3.5,9.8-7.86,13.31-7.25-2.28,1-4.64,1.87-6.83,3.05S171.23,30.78,168.82,32.37Z"/><path d="M218.14,22.43A5.52,5.52,0,0,1,217,23.51c-4.55,2.28-9.11,4.54-13.71,6.73a11,11,0,0,1-2.89.77c-.44.07-.93-.17-1.59-.73a2.92,2.92,0,0,1,.63-.22c3.84-.39,7.28-2,10.66-3.67,2.06-1,4.08-2.18,6.14-3.23a15.53,15.53,0,0,1,1.92-.7Z"/><path d="M166.6,29.5c4.7-3.47,9.4-5.87,11.75-6l-12.22,7.42c-.42-.57.21-1,.5-1.45Z"/><path d="M251.07,22.48c-2.36,4.94-5.88,8.06-9,8.41,1.7-1.4,3.32-2.6,4.78-4S249.66,24,251.07,22.48Z"/><path d="M185,27.71c-3.29,1.57-6.3,3-9.33,4.44-.13.06-.4-.15-.61-.23C176.52,29.87,182.17,27.41,185,27.71Z"/><path d="M194.85,15.47c-.2-1.06.47-1.44,1-1.83,3.38-2.68,6.86-5.19,11-6.56l.26.45c-1.36.71-2.74,1.38-4.06,2.15s-2.92,1.74-4.3,2.73S196.22,14.37,194.85,15.47Z"/><path d="M166.26,27.18c2.31-2,4.63-4,8-4.33-.39.25-.79.49-1.17.75a55.61,55.61,0,0,0-4.74,3.27,10.58,10.58,0,0,0-1.72,2.63l0,0c-1.36-.59-1.36-.59-.35-2.33Z"/><path d="M181.29,33.8c.65-2.18,4.91-4.22,7.81-4.07Z"/><path d="M280.79,26.09a1.43,1.43,0,0,1-.36,2,19.79,19.79,0,0,1-6.27,3.69c1.14-.93,2.3-1.85,3.42-2.81s2.17-1.92,3.26-2.88Z"/><path d="M274.18,21.53c.5.3,0,.89-.47,1.35a23.69,23.69,0,0,1-5.93,4.18Z"/><path d="M204,26c-2.23,1.82-4.92,2.43-7.66,2.88-.31.05-.68-.19-1.06-.69,1.42-.33,2.85-.66,4.27-1s3-.76,4.47-1.14Z"/><path d="M193.54,26c1.45-.3,2.87-.51,4.23-.9s2.55-.93,4.1-1.51a13.81,13.81,0,0,1-6.47,3.13C194.73,26.82,194,27,193.54,26Z"/><path d="M247.64,9.12c-1.43.52-2.89,1-4.29,1.58s-2.6,1.26-3.93,1.92C240.81,10.69,244.4,9,247.64,9.12Z"/><path d="M283.07,27.66c0,.41.06.93-.15,1.23-1.06,1.51-2.64,2.3-4.69,3.17a10.41,10.41,0,0,1,2.34-2.45c.7-.67,1.32-1.43,2-2.15Z"/><path d="M200.37,14.18c1.63-2,5.37-3.88,7.56-3.89Z"/><path d="M254.94,23.24c-1.13,2-3.06,3.74-4.57,4.09A8.21,8.21,0,0,1,254.94,23.24Z"/><path d="M209.1,13.14l-5.47,2.77C204.36,14.32,206.44,13.21,209.1,13.14Z"/><path d="M242.7,14.39c1.17-2.07,3.21-2.28,5.29-2.42Z"/><path d="M185,34.57c1.16-1.79,2.61-2,4.68-2A6.3,6.3,0,0,1,185,34.57Z"/><path d="M193.28,34.24c-1.21.73-2.15,2.1-4.14,1.76C190.3,34.41,191.78,34.3,193.28,34.24Z"/><path d="M272.45,21c-.65,1.82-2.14,2.57-3.86,3A11.4,11.4,0,0,1,272.45,21Z"/><path d="M204,26l5.25-2.55,0,0A9,9,0,0,1,204,26Z"/><path d="M218.18,22.47c1-1.44,2.64-2,4.14-2.67a7.26,7.26,0,0,1-4.18,2.63Z"/><path d="M193.21,23.55l3.87-1.2C195.29,24.05,195.07,24.14,193.21,23.55Z"/><path d="M257.46,24.17a3.53,3.53,0,0,1-2.43,2C255.44,24.72,255.44,24.72,257.46,24.17Z"/><path d="M209.29,23.47A8.8,8.8,0,0,1,213,20.83c-1,1.17-2.08,2.36-3.77,2.59Z"/><path class="sc-cls-2" d="M121.79,30.64c20.7-22.48,46-7.24,46-7.24"/></g></g></g></g></svg>
