<?xml version="1.0" encoding="utf-8"?>
<!-- Generator: Adobe Illustrator 16.0.0, SVG Export Plug-In . SVG Version: 6.00 Build 0)  -->
<!DOCTYPE svg PUBLIC "-//W3C//DTD SVG 1.1//EN" "http://www.w3.org/Graphics/SVG/1.1/DTD/svg11.dtd">
<svg version="1.1" id="Layer_1" xmlns="http://www.w3.org/2000/svg" xmlns:xlink="http://www.w3.org/1999/xlink" x="0px" y="0px"
	 viewBox="0 -32.186 30.304 527.993" enable-background="new 0 -32.186 30.304 527.993"
	 xml:space="preserve">
<g>
	<path fill="#FFFFFF" d="M27.987,488.9c0,0-5.334,4.333-13.667,4.833c-8.333,0.5-13-6-13-6L0.72,2.266h27.346L27.987,488.9z"/>
</g>
<g>
	<g>
		<path fill="#FFFFFF" d="M27.768,5.986c-0.553-1.662-1.078-3.251-1.6-4.816c-3.111,0.485-4.555,0.465-5.826-0.064
			c3.506-0.337,4.881-0.977,5.111-2.464c-0.814,0.002-1.618,0.004-2.426,0.007c-0.046-0.135-0.094-0.276-0.138-0.413
			c0.779-0.466,1.56-0.929,2.371-1.409c-0.768-4.012-2.16-7.679-3.264-11.337c-1.245-0.068-2.376,1.007-3.302-0.505
			c0.951-0.296,1.795-0.561,2.776-0.868c-0.367-0.556-0.596-0.903-0.793-1.202c-1.148,0.085-2.178,1.014-3.49-0.103
			c1.154-0.467,2.125-0.863,3.255-1.324c-1.046-1.292-1.966,0.028-2.827-0.266c-0.824-0.282-2.02,0.349-2.524-1.078
			c0.541-0.001,0.971,0.059,1.375-0.018c0.912-0.17,1.822-0.368,2.704-0.644c0.199-0.063,0.281-0.501,0.522-0.976
			c-1.609,0.317-2.87,1.34-4.639,0.077c0.4-0.237,0.801-0.476,1.209-0.72c-0.668,0.002-1.343,0.004-2,0.006
			c-0.062,0.473-0.114,0.865-0.179,1.358c-0.623-0.087-1.107-0.184-1.595-0.214c-0.541-0.034-1.086-0.005-1.729-0.003
			c-3.126,8.97-6.57,17.755-8.867,27.448"/>
	</g>
	<g>
		<path fill="#FFFFFF" d="M12.672-23.177c1.011-0.082,1.757-0.141,2.503-0.2c-0.004-0.09-0.009-0.173-0.015-0.259
			c-0.661-0.208-1.317-0.417-1.97-0.627c0.007-0.122,0.012-0.243,0.017-0.362c0.987-0.224,1.973-0.444,2.961-0.667
			c-2.175-0.349-2.175-0.349-2.726-1.199c0.557-0.111,1.08-0.212,1.664-0.329c-0.283-0.346-0.507-0.621-0.799-0.98
			c0.451-0.258,0.824-0.475,1.36-0.781c-0.829,0.002-1.443,0.004-2.002,0.006c-1.308,1.75-2.067,3.623-2.445,5.818
			c0.612,0.283,1.195,0.548,1.966,0.903C12.97-22.406,12.852-22.713,12.672-23.177z"/>
	</g>
	<g>
		<path d="M29.735,6.554c-0.025-0.614-0.142-1.24-0.318-1.835c-0.81-2.703-1.63-5.401-2.493-8.086
			c-1.539-4.774-3.151-9.517-4.66-14.295c-1.168-3.707-2.17-7.462-3.368-11.156c-0.334-1.032-0.993-2.023-1.724-2.833
			c-0.361-0.403-1.347-0.664-1.832-0.468c-1.134,0.469-2.319,1.106-2.82,2.337c-0.875,2.145-1.685,4.316-2.423,6.508
			c-1.135,3.371-2.171,6.774-3.28,10.156C4.924-7.35,2.985-1.603,1.127,4.177C0.73,5.413,0.4,6.724,0.357,8.01"/>
	</g>
	<g>
		<path fill="#FFFFFF" d="M13.667-28.578l2.004-0.006c-0.537,0.306-0.91,0.521-1.361,0.781c0.292,0.362,0.516,0.634,0.799,0.98
			c-0.587,0.116-1.106,0.217-1.666,0.329c0.551,0.852,0.551,0.852,2.726,1.198c-0.989,0.221-1.975,0.444-2.962,0.667
			c-0.006,0.121-0.011,0.242-0.016,0.362c0.656,0.21,1.313,0.419,1.97,0.628c0.006,0.085,0.011,0.171,0.015,0.259
			c-0.747,0.058-1.493,0.118-2.503,0.2c0.18,0.464,0.299,0.772,0.517,1.322c-0.769-0.354-1.354-0.623-1.966-0.904
			C11.602-24.954,12.361-26.827,13.667-28.578z"/>
	</g>
	<g>
		<path fill="#FFFFFF" d="M26.845,10.535L1.543,9.846l0.324-3.381c2.297-9.695,5.741-18.479,8.868-27.449
			c0.641-0.002,1.188-0.031,1.729,0.003c0.488,0.03,0.972,0.13,1.596,0.214c0.064-0.493,0.117-0.887,0.176-1.357l2.002-0.006
			c-0.407,0.246-0.811,0.482-1.208,0.719c1.769,1.264,3.028,0.239,4.639-0.076c-0.247,0.476-0.325,0.913-0.523,0.974
			c-0.881,0.279-1.791,0.479-2.704,0.644c-0.402,0.076-0.833,0.016-1.375,0.018c0.504,1.427,1.698,0.794,2.524,1.08
			c0.86,0.293,1.781-1.028,2.827,0.264c-1.131,0.46-2.103,0.856-3.256,1.324c1.313,1.117,2.343,0.188,3.491,0.102
			c0.197,0.299,0.425,0.646,0.792,1.203c-0.983,0.307-1.825,0.572-2.776,0.871c0.926,1.508,2.057,0.433,3.302,0.503
			c1.101,3.659,2.497,7.328,3.261,11.337c-0.813,0.481-1.589,0.945-2.372,1.411c0.05,0.135,0.098,0.277,0.143,0.413l2.426-0.007
			c-0.231,1.488-1.606,2.123-5.111,2.462c1.271,0.529,2.714,0.549,5.826,0.063c0.52,1.569,1.048,3.155,1.6,4.817L26.845,10.535z"/>
	</g>
</g>
<g id="Layer_1_1_">
	<g id="HIGHLIGHT_blue_2_">
		<polygon fill="#D0EDFC" points="2.029,3.314 8.29,8.067 8.29,445.567 2.029,443.067 		"/>
	</g>
	<g id="highlight_2_">
		<path fill="#FFDBA3" d="M7.08,449.56c0,0,6.799-1.023,7.685-0.399c-4.852,1.705-6.838,18.629-1.271,18.425
			c5.564-0.204-5.3,0.016-6.89,0.679C5.015,468.928,7.08,449.56,7.08,449.56z"/>
	</g>
	<g>
		<g>
			<path d="M1.37,486.572c-0.226-2.943-0.37-5.9-0.379-8.854c-0.034-10.477,0.027-20.953,0.003-31.43
				c-0.01-3.656-0.178-7.303-0.147-10.967c0.137-17.361,0.08-34.725,0.088-52.087c0.012-28.558,0.02-57.112,0.031-85.67
				c0.01-20.312,0.038-40.624,0.035-60.936c-0.004-15.915-0.02-31.83-0.07-47.745c-0.084-25.589-0.206-51.178-0.307-76.767
				C0.558,95.16,0.505,78.203,0.435,61.246C0.401,52.93,0.364,44.614,0.29,36.298C0.204,26.623,0.04,16.949,0,7.274
				c-0.007-1.573,0.4-3.159,0.734-4.713C0.817,2.182,1.362,1.903,2.01,1.27c0,3.378,0.003,6.233-0.001,9.087
				C1.996,22.915,1.962,35.473,1.972,48.032c0.021,29.197,0.036,58.394,0.105,87.591c0.043,18.552,0.188,37.104,0.271,55.656
				c0.051,11.597,0.057,23.195,0.105,34.792c0.112,26.468,0.241,52.935,0.358,79.402c0.064,14.396,0.127,28.79,0.168,43.185
				c0.045,15.278,0.029,30.557,0.104,45.836c0.069,14.395,0.221,28.787,0.349,43.182c0.007,0.877,0.037,1.77,0.219,2.619
				c0.105,0.494,0.427,1.119,0.836,1.342c1.672,0.91,3.439,1.6,5.659,1.654c0.087-1.102,0.229-2.105,0.232-3.109
				c0.008-1.596-0.123-3.191-0.112-4.787c0.055-7.834,0.188-15.668,0.198-23.502c0.033-22.477,0.02-44.952,0.026-67.428
				c0.006-19.519,0.039-39.035,0.012-58.553c-0.024-17.428-0.144-34.854-0.172-52.283c-0.024-13.989,0.045-27.978,0.029-41.967
				c-0.017-15.435-0.062-30.87-0.132-46.305c-0.16-35.024-0.339-70.046-0.522-105.069C9.654,30.372,9.563,20.456,9.49,10.541
				C9.472,7.99,8.597,5.693,7.323,3.54c-0.832-1.408-1.95-2.473-4.062-2.227c0.846-1.352,1.66-1.576,2.766-1.051
				c1.521,0.72,2.546,1.904,3.269,3.381c0.309,0.632,0.584,1.281,0.906,1.991c2.663-3.625,3.635-4.251,5.348-3.518
				c-0.008,0.076,0.013,0.181-0.029,0.224c-0.215,0.219-0.414,0.48-0.676,0.623C12.4,4.29,11.396,6.41,11.447,9.104
				c0.021,1.119,0.138,2.236,0.14,3.354c0.018,9.997,0.021,19.993,0.021,29.989c0.001,13.118-0.044,26.237,0.003,39.354
				c0.062,17.675,0.238,35.35,0.271,53.024c0.011,6.073-0.366,12.146-0.392,18.22c-0.044,10.632,0.069,21.265,0.079,31.897
				c0.024,26.317,0.017,52.634,0.043,78.951c0.032,30.558,0.114,61.114,0.128,91.672c0.012,28.238-0.041,56.478-0.062,84.716
				c-0.001,0.559,0.021,1.119,0.026,1.68c0.011,0.934,0.478,1.615,1.388,1.66c2.221,0.107,4.452,0.158,6.675,0.088
				c1.198-0.039,1.767-0.807,1.792-2.086c0.082-3.994,0.354-7.986,0.369-11.979c0.07-19.6,0.09-39.195,0.113-58.794
				c0.024-21.356,0.037-42.713,0.055-64.069c0.014-16.556-0.086-33.111,0.078-49.666c0.112-11.161-1-22.36,0.916-33.48
				c0.264-1.527,0.037-3.138,0.037-4.71c0.584,1.873,0.844,3.761,0.879,5.653c0.078,4.238,0.065,8.478,0.055,12.717
				c-0.047,18.557-0.1,37.113-0.164,55.669c-0.033,9.596-0.108,19.191-0.134,28.787c-0.062,24.72-0.105,49.438-0.153,74.154
				c-0.025,14.479-0.044,28.959-0.055,43.438c-0.001,0.918,0.088,1.834,0.136,2.768c2.008,0.006,2.981-0.889,3.292-2.498
				c0.181-0.936,0.289-1.896,0.293-2.848c0.095-24.873,0.164-49.743,0.254-74.614c0.023-6.636,0.132-13.271,0.136-19.905
				c0.004-9.188-0.087-18.375-0.077-27.562c0.009-8.705,0.104-17.41,0.14-26.116c0.011-2.636-0.156-5.276-0.055-7.907
				c0.088-2.244-0.336-4.545,0.539-6.736c0.195,0.789,0.282,1.574,0.283,2.359c0.018,15.836,0.035,31.674,0.031,47.51
				c-0.003,15.838-0.029,31.678-0.047,47.517c-0.025,24.948-0.052,49.897-0.081,74.847c-0.013,10.879-0.028,21.756-0.053,32.635
				c-0.006,2.799,0.02,5.602-0.107,8.396c-0.034,0.781-0.335,1.922-0.894,2.248c-2.735,1.605-5.376,3.422-8.538,4.219
				c-3.899,0.98-7.731,1.18-11.493-0.488c-0.357-0.16-0.607-0.562-1.193-1.129c1.844,0.082,3.266,0.238,4.68,0.182
				c1.434-0.057,2.855-0.457,4.286-0.471c3.574-0.031,6.663-1.521,9.748-3.041c1.282-0.633,2.169-1.611,2.191-3.166
				c0.035-2.311,0.148-4.623,0.129-6.934c-0.021-2.686-0.151-5.367-0.237-8.152c-5.73,2.527-11.317,4.154-17.326,2.002
				c5.42,0.273,10.674-0.197,15.451-3.15c-5.338,1.641-10.674,2.844-16.175,0.85c3.055-0.34,6.152-0.275,9.176-0.723
				c3.157-0.467,6.255-1.391,8.757-3.707c0.454-2.896,0.351-5.473-0.35-7.246c-3.911,0.947-7.783,2.086-11.926,2.037
				c-4.099-0.047-7.939-1.211-12.099-2.268c0,2.668,0.01,5.053-0.006,7.439c-0.006,0.934,0.507,1.459,1.273,1.848
				c0.819,0.416,1.625,0.855,2.438,1.285c-0.053,0.166-0.104,0.334-0.156,0.5c-1.104-0.137-2.212-0.271-3.456-0.422
				c-0.044,0.939-0.104,1.729-0.111,2.518c-0.029,3.521-0.005,7.039-0.077,10.559c-0.063,3.01-0.36,6.037,1.624,8.703
				C1.963,489.962,1.502,488.292,1.37,486.572z M15.376,457.201c0.609-0.111,1.223-0.209,1.83-0.336
				c0.779-0.164,1.554-0.363,2.336-0.521c0.703-0.141,1.432-0.184,2.118-0.377c1.439-0.408,2.909-0.779,4.265-1.393
				c0.517-0.234,1.043-1.084,1.062-1.67c0.105-3.1,0.05-6.203,0.05-9.555c-0.861,0.199-1.396,0.246-1.869,0.443
				c-5.611,2.338-11.373,3.07-17.329,1.619c-1.079-0.264-2.114-0.703-3.167-1.068c-0.65-0.225-1.297-0.465-2.158-0.775
				c0,3.535,0,6.785,0,10.061c2.439,2.375,5.707,2.549,9.051,3.254c-1.795,0.611-1.809,0.67-4.513,0.039
				c-1.427-0.334-2.798-0.91-4.194-1.377c-0.112,0.141-0.226,0.281-0.338,0.422c0.273,0.344,0.478,0.859,0.831,1.004
				c4.804,1.949,9.743,3.123,14.952,2.084c2.34-0.465,4.643-1.127,6.953-1.736c0.488-0.131,0.935-0.426,1.399-0.645
				C22.851,456.81,19.237,458.316,15.376,457.201z"/>
		</g>
		<g>
			<path d="M24.036,4.73c2.521-0.663,3.069-0.381,3.632,2.159c0.221,1.001,0.218,2.064,0.219,3.099
				c0.019,9.917,0.015,19.832,0.021,29.749c0.021,30.225,0.052,60.449,0.062,90.674c0.008,22.31,0.006,44.62-0.02,66.929
				c-0.017,13.514-0.107,27.028-0.123,40.542c-0.009,5.676,0.092,11.351,0.147,17.028c0.004,0.395,0.062,0.787,0.314,1.186
				c0.129-2.594,0.358-5.188,0.369-7.781c0.112-30.388,0.209-60.775,0.278-91.162c0.054-22.951,0.076-45.901,0.088-68.852
				c0.009-12.153-0.053-24.307-0.057-36.461c-0.006-12.712,0.01-25.425,0.04-38.138c0.004-1.675,0.286-3.359,0.183-5.022
				c-0.088-1.408-0.469-2.816-0.872-4.179c-0.284-0.966-0.99-1.739-2.117-1.589c-1.05,0.139-2.052,0.516-2.126,1.857L24.036,4.73z"
				/>
		</g>
		<g>
			<path d="M24.076,4.766c-1.84,0.727-1.608,2.567-2.312,4.42c-1.479-2.663-2.254-5.566-5.099-6.92
				c0.279,0.524,0.534,1.064,0.846,1.57c1.778,2.891,2.799,6.031,3.651,9.32c0.965,3.723,0.739,7.416,0.758,11.149
				c0.063,13.993,0.204,27.985,0.262,41.978c0.035,8.315-0.07,16.63-0.041,24.946c0.035,10.072,0.168,20.144,0.213,30.215
				c0.029,6.477-0.03,12.954-0.029,19.431c0,0.932,0.12,1.864,0.607,2.84c0.049-0.476,0.144-0.951,0.144-1.426
				c0.02-8.795,0.047-17.589,0.034-26.384c-0.027-19.832-0.086-39.664-0.11-59.496c-0.015-10.316,0.011-20.632,0.022-30.948
				c0.006-4.314,0.121-8.631,0.004-12.941c-0.073-2.675,0.568-5.208,1.012-7.79C24.036,4.73,24.076,4.766,24.076,4.766z"/>
		</g>
		<g>
			<path d="M9.237,463.861c0.132,1.326-0.793,2.523-1.937,2.512c-0.931-0.012-2.2-1.418-2.24-2.484
				c-0.032-0.895,1.188-1.992,2.291-2.061C8.366,461.763,9.108,462.564,9.237,463.861z M7.325,464.962
				c0.184-0.223,0.559-0.5,0.513-0.654c-0.093-0.316-0.365-0.65-0.655-0.814c-0.143-0.08-0.49,0.205-0.975,0.434
				C6.7,464.382,7.013,464.673,7.325,464.962z"/>
		</g>
		<g>
			<path d="M15.933,464.101c-1.092,0.027-1.686,0.469-1.261,1.637c0.398,1.102,1.459,1.658,2.439,1.311
				c1.024-0.363,1.662-1.223,1.416-2.182c-0.204-0.803-0.883-1.783-1.604-2.086c-1.135-0.48-1.26,0.447-1.032,1.357
				c1.171,0.564,1.171,0.564,0.495,1.961C16.183,465.197,16.058,464.65,15.933,464.101z"/>
		</g>
		<g>
			<path d="M22.755,156.071c-0.157,0.843-0.44,1.685-0.451,2.53c-0.049,3.81-0.021,7.621,0.109,11.431
				c0.793-1.526,0.905-11.052,0.309-13.99L22.755,156.071z"/>
		</g>
		<g>
			<path d="M22.746,464.138c0.425,0.463,0.829,1.301,1.39,1.424c0.838,0.186,1.467-0.52,1.607-1.412
				c0.147-0.938-1.072-2.623-1.789-2.48C22.662,461.923,23.394,463.164,22.746,464.138z"/>
		</g>
		<g>
			<path d="M22.722,156.042c0.67-3.454,0.176-6.909,0.166-10.364c-0.691,1.496-0.682,8.288-0.135,10.392
				C22.755,156.071,22.722,156.042,22.722,156.042z"/>
		</g>
		<g>
			<path d="M22.915,185.674c0-1.252,0-2.504,0-3.756c-0.107-0.004-0.215-0.009-0.322-0.013c-0.055,1.243-0.109,2.487-0.164,3.729
				C22.591,185.648,22.753,185.662,22.915,185.674z"/>
		</g>
		<g>
			<path d="M22.511,171.932c0,0.705,0,1.41,0,2.115c0.093,0.021,0.186,0.042,0.278,0.062c0.076-0.385,0.198-0.768,0.216-1.155
				c0.014-0.343-0.092-0.692-0.145-1.038C22.744,171.921,22.628,171.927,22.511,171.932z"/>
		</g>
		<g>
			<path d="M22.546,192.36c-0.029,0.538-0.062,1.074-0.09,1.611c0.137,0.008,0.272,0.016,0.41,0.024
				c0.032-0.513,0.065-1.025,0.1-1.538C22.826,192.425,22.687,192.393,22.546,192.36z"/>
		</g>
		<g>
			<path d="M22.925,199.696c-0.027-0.331-0.057-0.661-0.084-0.991c-0.106,0.003-0.213,0.007-0.319,0.01c0,0.341,0,0.681,0,1.022
				C22.655,199.724,22.79,199.709,22.925,199.696z"/>
		</g>
		<g>
			<path d="M22.581,176.271c-0.052,0.144-0.16,0.298-0.136,0.426c0.021,0.099,0.207,0.165,0.32,0.246
				c0.039-0.146,0.127-0.3,0.104-0.434C22.854,176.415,22.684,176.348,22.581,176.271z"/>
		</g>
		<g>
			<path d="M4.202,449.263c-0.279,1.736,0.086,2.551,1.096,2.719c1.094,0.182,2.225-0.652,2.283-1.865
				c0.03-0.664-0.137-1.455-0.507-1.984c-0.276-0.395-1.211-0.785-1.524-0.604c-0.76,0.434-0.268,1.006,0.176,1.531
				c0.242,0.289,0.256,0.77,0.535,1.707C5.288,450.056,4.784,449.689,4.202,449.263z"/>
		</g>
		<g>
			<path d="M14.413,452.074c-0.402-0.48-0.812-0.971-1.283-1.531c-0.803,0.74-0.713,1.402-0.052,2.072
				c0.65,0.662,1.382,1.117,2.327,0.625c0.889-0.463,1.178-1.289,1.063-2.211c-0.128-1.045-0.672-1.725-1.819-1.643
				C13.913,450.291,15.778,451.142,14.413,452.074z"/>
		</g>
		<g>
			<path d="M23.122,449.224c-0.695,0.18-1.236,0.568-0.9,1.324c0.195,0.438,0.717,0.982,1.125,1.01
				c0.639,0.045,1.465-0.125,1.923-0.529c0.838-0.742,0.1-2.912-1.011-3.113c-1.032-0.189-1.115,0.604-1.174,1.348
				c0.714,0.029,1.17,0.27,0.639,1.227C23.522,450.068,23.322,449.646,23.122,449.224z"/>
		</g>
		<g>
			<rect x="27.633" y="158.607" fill="#010101" width="1" height="208"/>
		</g>
		<g>
			<g>
				<path d="M3.065,472.306c1.281,0.92,2.479,2.008,3.87,2.713c1.308,0.664,2.816,0.926,4.684,1.502
					c-2.895,0.67-4.931-0.578-7.115-1.242c1.448,1.768,1.448,1.768,7.719,3.324c-1.525,0.559-1.747,0.539-6.978-0.674
					c2.972,2.41,6.071,3.068,9.196,3.73c-2.328-0.033-4.655,0.145-6.811-1.018c-1.194-0.643-2.446-1.178-3.671-1.762
					c-0.153-0.148-0.309-0.297-0.462-0.445c-1.728-1.568-1.027-3.807-1.528-5.713c-0.031-0.117,0.575-0.4,0.884-0.607
					C2.928,472.173,2.998,472.24,3.065,472.306z"/>
			</g>
			<g>
				<path d="M3.527,483.49c0.86,0.91,1.62,1.957,2.611,2.689c0.973,0.723,2.183,1.123,3.288,1.666
					c-0.049,0.162-0.097,0.324-0.146,0.486c-1.104-0.201-2.205-0.404-3.764-0.689c2.371,1.99,4.926,2.34,7.484,2.803
					c-1.256,0.703-2.498,0.176-3.754,0.039c-2.66-0.293-4.679-1.836-6.8-3.246c-1.537-1.025-0.153-2.332-0.465-3.463
					c-0.022-0.088,0.82-0.412,1.263-0.625C3.329,483.271,3.423,483.384,3.527,483.49z"/>
			</g>
			<g>
				<path d="M3.527,483.49c-0.104-0.105-0.197-0.219-0.28-0.34c-0.535-0.617-1.377-1.072-1.161-2.344
					c0.79,0.324,1.466,0.602,2.14,0.879c-0.001,0-0.055-0.045-0.055-0.045c0.577,0.514,1.083,1.158,1.745,1.514
					c2.544,1.361,5.19,2.432,8.164,2.338c0.271-0.008,0.544,0.08,1.155,0.178c-1.89,0.83-3.438,0.686-4.957,0.186
					C8.015,485.107,5.776,484.281,3.527,483.49z"/>
			</g>
			<g>
				<path d="M3.498,478.437c0.153,0.146,0.309,0.297,0.462,0.443c1.089,2.285,3.432,2.662,5.436,3.541
					c0.55,0.24,1.17,0.322,1.72,0.643c-2.5,0.422-4.618-1.021-6.945-1.424c0.001,0,0.055,0.045,0.056,0.045
					c-0.764-0.846-1.527-1.691-2.566-2.842C2.542,478.648,3.021,478.542,3.498,478.437z"/>
			</g>
			<g>
				<path d="M3.065,472.306c-0.066-0.066-0.138-0.133-0.212-0.189c-0.152-0.273-0.338-0.535-0.445-0.824
					c-0.036-0.096,0.118-0.264,0.299-0.621c1.222,0.674,2.409,1.424,3.676,2c1.282,0.586,2.644,0.998,3.93,1.607
					C7.639,474.542,5.373,473.347,3.065,472.306z"/>
			</g>
			<g>
				<path d="M23.004,186.409c2.021-1.622,4.291-3.002,5.542-5.406C26.497,182.597,24.229,183.953,23.004,186.409z"/>
			</g>
			<g>
				<path d="M27.577,134.283c-1.877,1.357-3.854,2.608-5.372,5.068c1.908-0.169,2.389-1.528,3.305-2.239
					c0.916-0.712,1.719-1.571,2.57-2.366C27.912,134.592,27.745,134.438,27.577,134.283z"/>
			</g>
			<g>
				<path d="M23.482,78.647c1.724-1.774,3.445-3.547,5.169-5.321c-1.896,0.625-4.729,3.322-5.592,4.904
					C23.2,78.369,23.341,78.508,23.482,78.647z"/>
			</g>
			<g>
				<path d="M28.4,149.918c-2.252,1.188-3.878,3.03-5.58,5.098C24.412,154.712,26.612,152.737,28.4,149.918z"/>
			</g>
			<g>
				<path d="M22.912,118.278c2.342-0.918,3.979-2.682,5.479-4.618C26.084,114.597,24.527,116.479,22.912,118.278z"/>
			</g>
			<g>
				<path d="M23.09,149.957c1.68-1.629,3.358-3.259,5.039-4.889C26.065,145.359,23.446,147.893,23.09,149.957z"/>
			</g>
			<g>
				<path d="M28.212,175.089c-4.543,3.36-4.543,3.36-5.009,5.011C24.62,179.47,27.042,177.122,28.212,175.089z"/>
			</g>
			<g>
				<path d="M27.494,80.269c-2.121,1.11-3.723,2.791-5.577,5.015C23.939,84.535,26.041,82.619,27.494,80.269z"/>
			</g>
			<g>
				<path d="M24.312,351.527c1.438-1.363,2.876-2.727,4.561-4.322c-1.813,0.207-4.092,2.153-4.945,3.92
					C24.055,351.259,24.184,351.392,24.312,351.527z"/>
			</g>
			<g>
				<path d="M23.169,90.628c1.633-1.512,3.266-3.025,5.092-4.716c-2.009,0.339-4.003,1.985-5.441,4.292
					C22.936,90.346,23.053,90.487,23.169,90.628z"/>
			</g>
			<g>
				<path d="M23.669,41.47c1.735-1.771,3.473-3.54,5.209-5.31c-0.143-0.146-0.283-0.292-0.426-0.437
					c-1.923,1.589-3.545,3.494-5.347,5.21C23.294,41.112,23.482,41.292,23.669,41.47z"/>
			</g>
			<g>
				<path d="M28.491,123.081c-2.45,1.323-4.481,3.26-5.4,4.969C24.712,127.563,26.388,126.066,28.491,123.081z"/>
			</g>
			<g>
				<path d="M23.193,144.693c1.722-1.775,3.44-3.55,5.16-5.325c-2.581,0.893-4.069,2.927-5.917,4.584
					C22.689,144.2,22.94,144.446,23.193,144.693z"/>
			</g>
			<g>
				<path d="M23.012,198.67c1.521-1.557,3.039-3.115,4.729-4.847C25.585,194.284,23.584,196.154,23.012,198.67z"/>
			</g>
			<g>
				<path d="M24.411,357.678c1.494-1.292,2.988-2.583,4.727-4.083C27.124,353.675,24.938,355.505,24.411,357.678z"/>
			</g>
			<g>
				<path d="M28.153,57.739c-1.977,1.145-3.647,2.617-4.78,4.688c1.174-0.308,1.812-1.327,2.681-2.032
					c0.862-0.701,1.689-1.444,2.533-2.169C28.441,58.064,28.298,57.901,28.153,57.739z"/>
			</g>
			<g>
				<path d="M28.622,250.257c-2.034,0.992-3.637,2.488-4.923,4.34C25.72,253.595,27.319,252.108,28.622,250.257z"/>
			</g>
			<g>
				<path d="M23.31,432.537c1.37-0.145,3.216-1.354,5.036-3.305C26.568,429.386,24.225,430.923,23.31,432.537z"/>
			</g>
			<g>
				<path d="M23.334,423.871c0.146,0.049,0.354,0.186,0.428,0.133c1.675-1.195,3.334-2.412,5.219-3.785
					C26.657,420.453,24.243,422.093,23.334,423.871z"/>
			</g>
			<g>
				<path d="M23.521,400.123c1.812-1.096,3.339-2.51,4.578-4.235C26.199,396.88,24.624,398.236,23.521,400.123z"/>
			</g>
			<g>
				<path d="M28.047,96.825c-1.929,1.254-3.729,2.642-5.004,4.575C24.631,100.936,26.753,99.025,28.047,96.825z"/>
			</g>
			<g>
				<path d="M28.019,294.296c-1.447,1.373-2.895,2.744-4.342,4.117c0.139,0.148,0.276,0.299,0.414,0.446
					c1.888-0.896,3.007-2.651,4.46-4.032C28.373,294.65,28.196,294.473,28.019,294.296z"/>
			</g>
			<g>
				<path d="M23.55,327.439c1.965-1.245,3.494-2.896,4.665-4.883C25.993,323.542,24.923,325.641,23.55,327.439z"/>
			</g>
			<g>
				<path d="M23.873,211.952c2.069-0.966,3.655-2.452,4.863-4.348C26.758,208.667,25.071,210.046,23.873,211.952z"/>
			</g>
			<g>
				<path d="M22.782,333.901c2.08-1.629,3.777-2.958,5.477-4.286C25.852,329.973,23.491,331.835,22.782,333.901z"/>
			</g>
			<g>
				<path d="M22.683,193.004c1.509-1.546,3.018-3.092,4.624-4.739c-1.743,0.004-3.586,1.664-5.005,4.332
					C22.429,192.732,22.556,192.868,22.683,193.004z"/>
			</g>
			<g>
				<path d="M24.263,316.016c1.483-1.403,2.968-2.808,4.451-4.214c-1.623,0.246-3.504,1.9-4.824,3.781
					C24.015,315.728,24.139,315.873,24.263,316.016z"/>
			</g>
			<g>
				<path d="M28.496,403.787c-3.251,1.803-4.306,2.746-5.046,4.352C24.567,407.894,26.834,406.013,28.496,403.787z"/>
			</g>
			<g>
				<path d="M28.314,408.384c-1.643,1.516-4.001,2.174-5.413,4.443C24.87,412.279,27.517,410.13,28.314,408.384z"/>
			</g>
			<g>
				<path d="M27.858,41.812c-1.561,1.207-3.22,2.288-4.071,4.123C25.598,44.995,26.888,43.539,27.858,41.812z"/>
			</g>
			<g>
				<path d="M28.149,416.5c-2.041,0.186-3.743,1.471-4.952,3.619C25.403,419.39,26.435,417.494,28.149,416.5z"/>
			</g>
			<g>
				<path d="M23.733,202.138c1.476-1.458,2.948-2.917,4.645-4.593C26.265,197.982,24.244,199.884,23.733,202.138z"/>
			</g>
			<g>
				<path d="M28.026,436.865c-2.3,0.598-3.898,1.779-4.497,3.328C24.785,439.833,26.362,438.666,28.026,436.865z"/>
			</g>
			<g>
				<path d="M24.672,237.059c1.537-1.374,3.074-2.747,4.965-4.435C27.469,232.996,25.024,235.137,24.672,237.059z"/>
			</g>
			<g>
				<path d="M24.719,241.924c1.496-1.445,2.993-2.889,4.888-4.717c-2.314,0.697-4.247,2.411-5.252,4.31
					C24.476,241.653,24.598,241.789,24.719,241.924z"/>
			</g>
			<g>
				<path d="M28.388,245.764c-1.717,1.169-3.526,2.233-4.844,4.251C25.193,249.651,26.758,248.302,28.388,245.764z"/>
			</g>
			<g>
				<path d="M23.223,52.38c1.579-1.615,3.16-3.229,4.739-4.843c-0.107-0.115-0.213-0.229-0.32-0.344
					c-1.854,1.314-3.353,3.02-4.929,4.641C22.883,52.016,23.053,52.198,23.223,52.38z"/>
			</g>
			<g>
				<path d="M22.404,133.637c2.008-1.018,3.535-2.566,4.921-4.276C25.192,130.24,23.76,131.896,22.404,133.637z"/>
			</g>
			<g>
				<path d="M22.794,57.83c1.859-1.851,3.614-3.597,5.268-5.241C26.612,52.938,23.656,55.763,22.794,57.83z"/>
			</g>
			<g>
				<path d="M28.21,438.701c-1.616,1.1-3.23,2.199-5.293,3.602c0.805,0.197,1.284,0.459,1.441,0.33
					c1.4-1.145,2.743-2.357,4.104-3.553C28.378,438.955,28.294,438.828,28.21,438.701z"/>
			</g>
			<g>
				<path d="M23.128,122.926c1.594-1.39,3.188-2.779,4.782-4.169c-0.125-0.13-0.249-0.26-0.373-0.39
					c-1.792,1.201-3.532,2.459-4.771,4.257C22.886,122.725,23.007,122.826,23.128,122.926z"/>
			</g>
			<g>
				<path d="M14.256,442.111c2.129,0.197,4.259,0.395,6.389,0.594C19.579,441.603,16.989,441.367,14.256,442.111z"/>
			</g>
			<g>
				<path d="M25.078,269.46c1.249-1.385,2.499-2.771,3.588-3.978c-1.364,0.367-3.127,1.867-3.994,3.554
					C24.808,269.179,24.942,269.32,25.078,269.46z"/>
			</g>
			<g>
				<path d="M23.826,416.537c1.484-1.246,2.97-2.49,4.622-3.879C26.423,412.826,24.211,414.566,23.826,416.537z"/>
			</g>
			<g>
				<path d="M24.298,216.929c1.476-1.469,2.952-2.937,4.819-4.794c-2.082,0.667-3.771,2.188-5.242,4.379
					C24.016,216.653,24.156,216.791,24.298,216.929z"/>
			</g>
			<g>
				<path d="M28.004,399.888c-1.621,1.117-3.242,2.234-5.204,3.588C24.614,403.597,25.619,402.923,28.004,399.888z"/>
			</g>
			<g>
				<path d="M27.509,360.125c-1.716,0.535-3.296,1.25-4.058,3.181C24.633,363.138,25.498,362.488,27.509,360.125z"/>
			</g>
			<g>
				<path d="M28.205,386.869c-1.853,1.108-3.618,2.342-5.104,4.225C24.53,391.071,25.768,390.055,28.205,386.869z"/>
			</g>
			<g>
				<path d="M28.387,391.826c-1.553,0.455-3.941,2.504-5.107,4.381C24.681,395.685,27.42,393.335,28.387,391.826z"/>
			</g>
			<g>
				<path d="M28.037,335.294c-2.003,0.789-3.202,2.109-4.348,3.73C25.271,338.74,26.927,337.324,28.037,335.294z"/>
			</g>
			<g>
				<path d="M27.598,203.127c-1.786,1.165-3.227,2.085-4.256,3.729C25.025,206.587,26.209,205.57,27.598,203.127z"/>
			</g>
			<g>
				<path d="M23.169,368.774c0.144,0.021,0.349,0.115,0.424,0.054c1.338-1.111,2.659-2.238,4.047-3.418
					C26.036,365.307,23.908,366.957,23.169,368.774z"/>
			</g>
			<g>
				<path d="M27.424,169.45c-1.596,0.98-3.112,2.057-4.024,3.745C25.396,172.656,26.345,170.979,27.424,169.45z"/>
			</g>
			<g>
				<path d="M27.442,91.271c-1.487,1.333-2.978,2.665-4.468,3.998c0.118,0.126,0.235,0.253,0.354,0.38
					C25.06,94.576,26.575,93.271,27.442,91.271z"/>
			</g>
			<g>
				<path d="M27.799,156.115c-1.341,1.248-2.681,2.496-4.022,3.744C25.675,159.174,26.797,157.679,27.799,156.115z"/>
			</g>
			<g>
				<path d="M27.941,276.277c-1.798,0.521-3.07,1.646-4.23,3.713C25.899,279.115,26.724,277.468,27.941,276.277z"/>
			</g>
			<g>
				<path d="M24.14,221.178c1.723-1.031,3.143-2.404,4.416-3.94c-0.107-0.128-0.217-0.256-0.324-0.384
					c-1.506,1.257-3.01,2.514-4.515,3.771C23.858,220.81,23.998,220.994,24.14,221.178z"/>
			</g>
			<g>
				<path d="M27.156,16.711c-1.417,1.179-2.835,2.357-4.591,3.817c1.946-0.382,2.853-1.063,4.907-3.418
					C27.368,16.977,27.263,16.844,27.156,16.711z"/>
			</g>
			<g>
				<path d="M27.272,102.854c-1.529,1.439-3.061,2.879-4.979,4.683C24.46,106.946,26.29,105.256,27.272,102.854z"/>
			</g>
			<g>
				<path d="M23.832,226.504c1.606-0.717,2.786-1.911,3.728-3.368C25.877,223.769,24.515,224.758,23.832,226.504z"/>
			</g>
			<g>
				<path d="M28.015,108.695c-2.265,0.568-3.812,1.929-4.921,3.772c0.12,0.132,0.239,0.264,0.36,0.396
					C24.974,111.474,26.494,110.085,28.015,108.695z"/>
			</g>
			<g>
				<path d="M27.879,370.147c-1.642,1.413-3.28,2.826-4.921,4.237c0.109,0.134,0.222,0.266,0.332,0.398
					c1.896-1.121,3.455-2.66,5.039-4.17C28.179,370.458,28.029,370.302,27.879,370.147z"/>
			</g>
			<g>
				<path d="M28.833,241.572c-1.941,1.159-3.435,2.312-4.521,4.149C25.923,245.32,27.624,243.774,28.833,241.572z"/>
			</g>
			<g>
				<path d="M27.451,68.985c-1.796,1.157-3.348,2.376-4.338,4.486C24.895,72.5,26.635,70.676,27.451,68.985z"/>
			</g>
			<g>
				<path d="M24.38,321.395c1.469-1.31,2.937-2.617,4.404-3.927c-0.117-0.133-0.235-0.264-0.354-0.395
					c-1.604,1.182-3.341,2.215-4.494,3.915C24.084,321.125,24.231,321.259,24.38,321.395z"/>
			</g>
			<g>
				<path d="M27.364,342.175c-2.131,1.007-2.592,1.451-2.917,3.281c1.1-0.963,2.198-1.927,3.299-2.891
					C27.618,342.437,27.491,342.306,27.364,342.175z"/>
			</g>
			<g>
				<path d="M24.631,231.546c1.784-1.331,3.274-2.94,4.627-4.683c-0.134-0.131-0.267-0.262-0.398-0.394
					c-1.586,1.528-3.171,3.057-4.758,4.584C24.278,231.218,24.454,231.382,24.631,231.546z"/>
			</g>
			<g>
				<path d="M24.66,304.441c1.403-1.205,2.808-2.412,4.317-3.708c-1.688,0.175-3.434,1.466-4.644,3.329
					C24.443,304.189,24.552,304.315,24.66,304.441z"/>
			</g>
			<g>
				<path d="M24.501,293.462c1.414-1.41,2.83-2.82,4.246-4.23c-0.111-0.111-0.224-0.225-0.333-0.334
					c-1.718,1.116-3.26,2.413-4.439,4.09C24.149,293.146,24.325,293.304,24.501,293.462z"/>
			</g>
			<g>
				<path d="M23.522,380.901c1.513-1.293,3.022-2.587,4.534-3.881c-2.015,0.722-3.634,1.89-4.992,3.358
					C23.218,380.553,23.37,380.727,23.522,380.901z"/>
			</g>
			<g>
				<path d="M28.022,161.426c-1.537,1.505-3.075,3.01-4.612,4.515c0.126,0.125,0.251,0.25,0.376,0.375
					c1.938-1.083,3.106-2.966,4.581-4.531C28.252,161.665,28.138,161.546,28.022,161.426z"/>
			</g>
			<g>
				<path d="M24.104,428.421c1.435-1.049,2.868-2.096,4.302-3.145c-1.994,0.303-3.422,1.408-4.814,2.564
					C23.762,428.037,23.934,428.228,24.104,428.421z"/>
			</g>
			<g>
				<path d="M27.19,31.566c-1.336,1.244-2.673,2.488-4.247,3.952C24.431,35.505,25.808,34.238,27.19,31.566z"/>
			</g>
			<g>
				<path d="M28.302,25.838c-2.377,0.952-3.529,2.742-5.167,4.335C24.742,29.901,25.477,29.27,28.302,25.838z"/>
			</g>
			<g>
				<path d="M22.699,17.554c1.62-1.476,2.917-2.654,4.453-4.053C25.188,14.038,23.698,15.383,22.699,17.554z"/>
			</g>
			<g>
				<path d="M24.008,274.854c1.271-1.146,2.54-2.292,3.811-3.438c-0.107-0.129-0.218-0.258-0.327-0.387
					c-1.486,0.867-2.864,1.872-3.893,3.309C23.735,274.509,23.871,274.682,24.008,274.854z"/>
			</g>
			<g>
				<path d="M24.446,286.333c1.424-1.318,2.846-2.64,4.269-3.957C26.874,283.285,25.43,284.605,24.446,286.333z"/>
			</g>
			<g>
				<path d="M28.096,260.025c-1.021,0.898-2.041,1.797-3.375,2.973C26.738,262.777,27.099,262.477,28.096,260.025z"/>
			</g>
			<g>
				<path d="M23.456,436.937c1.824-0.488,2.272-0.852,3.684-2.805C25.459,434.761,24.227,435.541,23.456,436.937z"/>
			</g>
			<g>
				<path d="M23.062,12.616c1.149-1.058,2.3-2.116,3.45-3.174C24.84,9.909,23.448,10.694,23.062,12.616z"/>
			</g>
			<g>
				<path d="M27.336,382.104c-1.373,0.974-3.004,1.67-3.997,3.813C25.386,384.893,26.43,383.571,27.336,382.104z"/>
			</g>
			<g>
				<path d="M19.937,438.458c-1.172-0.014-2.345-0.029-3.516-0.045c1.102,1.115,2.289,0.982,3.498,0.564
					C19.926,438.806,19.931,438.632,19.937,438.458z"/>
			</g>
			<g>
				<path d="M23.433,26.128c1.126-1.265,2.253-2.531,3.26-3.661c-1.4,0.696-2.774,1.723-3.667,3.301
					C23.161,25.888,23.296,26.008,23.433,26.128z"/>
			</g>
			<g>
				<path d="M24.257,310.093c1.139-1.068,2.276-2.139,3.414-3.206c-1.749,0.394-2.956,1.389-3.859,2.717
					C23.961,309.767,24.109,309.93,24.257,310.093z"/>
			</g>
			<g>
				<path d="M27.969,63.318c-0.884,0.771-1.767,1.543-2.65,2.316c1.567,0.023,2.052-1.216,3.028-1.877
					C28.221,63.609,28.095,63.464,27.969,63.318z"/>
			</g>
			<g>
				<path d="M25.13,258.091c1.056-0.941,2.112-1.883,3.168-2.824C26.718,255.613,25.466,256.332,25.13,258.091z"/>
			</g>
			<g>
				<path d="M19.934,440.042c-1.036-0.014-2.072-0.025-3.103-0.039C18.012,440.929,18.012,440.929,19.934,440.042z"/>
			</g>
			<g>
				<path d="M16.909,437.185c1.322,0.018,2.17,0.029,3.074,0.039C18.906,436.369,18.906,436.369,16.909,437.185z"/>
			</g>
			<g>
				<path d="M19.532,430.791c-0.795-0.07-1.588-0.141-2.709-0.242c0.907,1.396,1.869,0.789,2.663,0.998
					C19.502,431.294,19.517,431.042,19.532,430.791z"/>
			</g>
			<g>
				<path d="M19.604,434.183c-0.809-0.01-1.616-0.02-2.687-0.033c0.916,1.123,1.781,0.879,2.658,0.564
					C19.585,434.539,19.594,434.361,19.604,434.183z"/>
			</g>
			<g>
				<path d="M27.062,442.205c1.099,0.01,1.774-0.641,2.335-1.469c-0.994,0.158-1.811,0.588-2.299,1.51L27.062,442.205z"/>
			</g>
			<g>
				<path d="M27.098,442.246c-0.789,0.34-1.578,0.682-2.366,1.021c0.089,0.162,0.18,0.328,0.27,0.492
					c0.954-0.098,1.671-0.566,2.062-1.555L27.098,442.246z"/>
			</g>
			<g>
				<path d="M18.021,428.009c0.399,0.031,0.798,0.062,1.197,0.096c0.027-0.152,0.055-0.309,0.083-0.461
					c-0.412-0.086-0.824-0.17-1.235-0.256C18.051,427.595,18.035,427.802,18.021,428.009z"/>
			</g>
			<g>
				<path d="M24.943,488.24c0.285-1.445,0.553-2.795,0.86-4.355c-2.101,0.525-4.015,1.004-5.929,1.482
					c0.034,0.223,0.068,0.441,0.103,0.666c1.276-0.119,2.552-0.236,3.827-0.355c0.022,0.102,0.045,0.203,0.067,0.307
					c-1.694,0.51-3.39,1.021-5.083,1.535c0.027,0.152,0.058,0.307,0.087,0.459c0.73,0.01,1.885-0.27,2.125,0.078
					C22.349,490.015,23.595,488.312,24.943,488.24z"/>
			</g>
			<g>
				<path d="M25.121,476.988c-2.329,0.51-4.658,1.02-6.988,1.529c0.042,0.184,0.085,0.365,0.128,0.547
					c2.422-0.316,4.943-0.193,7.131-1.553C25.302,477.335,25.212,477.162,25.121,476.988z"/>
			</g>
			<g>
				<path d="M25.983,481.648c-1.123-0.23-3.105,0.273-5.636,1.434C22.09,483.841,24.603,483.203,25.983,481.648z"/>
			</g>
			<g>
				<path d="M19.277,474.853c2.212,0.76,4.012-0.055,5.819-0.838c-0.062-0.234-0.125-0.471-0.188-0.707
					C23.031,473.824,21.155,474.337,19.277,474.853z"/>
			</g>
			<g>
				<path d="M25.263,474.912c-1.902,0.564-3.803,1.131-6.111,1.816C21.282,477.294,24.202,476.535,25.263,474.912z"/>
			</g>
			<g>
				<path d="M25.57,478.808c-1.16,0.318-2.32,0.637-3.629,0.992C23.392,480.542,23.863,480.458,25.57,478.808z"/>
			</g>
			<g>
				<path d="M22.151,471.964c0.975,0.709,1.674,0.219,2.876-0.406C23.566,471.056,22.872,471.57,22.151,471.964z"/>
			</g>
		</g>
	</g>
</g>
<g id="Layer_3" display="none">
	<polygon id="HIGHLIGHT_blue_1_" display="inline" fill="#D0EDFC" points="1.952,3.354 8.066,8.088 9.303,445.585 3.195,443.104 	
		"/>
	<path id="highlight_1_" display="inline" fill="#FFDBA3" d="M21.148,468.036c0,0-6.799,1.023-7.685,0.399
		c4.852-1.705,6.838-18.629,1.271-18.425c-5.563,0.204,5.3-0.016,6.89-0.679C23.212,448.667,21.148,468.036,21.148,468.036z"/>
	<g display="inline">
		<path d="M2.323,475.801c0.073,0.746,0.197,1.489,0.213,2.237c0.054,2.717,0.114,5.436,0.09,8.154
			c-0.019,2.316,0.773,3.785,3.04,4.757c3.275,1.404,6.574,2.418,10.105,2.741c3.233,0.295,6.208-0.63,8.979-2.104
			c1.927-1.025,3.124-2.756,3.036-5.254c-0.144-4.073-0.11-8.155-0.182-12.233c-0.015-0.934-0.15-1.865-0.24-2.9
			c-1.121,0.227-2.001,0.401-3.334,0.667c0.578-0.428,0.753-0.567,0.938-0.69c2.112-1.421,3.089-3.613,2.529-6.029
			c-0.125-0.543-0.685-1.004-1.108-1.438c-1.064-1.094-1.31-2.01-0.243-2.831c1.894-1.465,1.323-3.35,1.405-5.619
			c-3.183,1.309-6.278,1.733-9.436,1.907c-3.073,0.165-6.128,0.566-8.893-1.44c6.13,0.692,12.059-0.097,17.953-1.999
			c0.284-1.376,0.749-2.621-0.736-3.643c-0.886-0.612-0.775-1.677-0.026-2.273c1.482-1.186,1.144-2.608,0.879-4.221
			c-8.173,4.159-16.347,5.464-24.877,0.321c-0.002,1.543-0.005,2.686-0.007,3.902c0.149,0.086,0.338,0.212,0.542,0.304
			c2.19,0.999,2.49,2.947,0.643,4.375c-0.6,0.465-1.699,0.724-1.291,1.678c0.334,0.78,1.11,1.588,1.879,1.91
			c3.331,1.4,6.79,2.298,10.44,2.246c2.549-0.038,5.1,0.001,8.217,0.005c-3.741,0.949-7.003,1.201-10.32,1.053
			c-3.381-0.152-6.605-0.98-9.653-2.425c-0.971,1.835-0.957,2.343,0.017,3.445c1.624,1.841,1.185,3.076-1.479,3.706
			c0.068-1.11,0.203-2.175,0.186-3.237c-0.106-6.066-0.328-12.13-0.356-18.194c-0.039-7.666,0.122-15.33,0.109-22.994
			c-0.027-17.754-0.104-35.51-0.166-53.262c-0.039-11.428-0.099-22.854-0.129-34.282c-0.029-10.634-0.032-21.267-0.046-31.897
			c-0.02-16.396-0.018-32.793-0.064-49.189c-0.059-21.199-0.167-42.394-0.229-63.589c-0.04-13.678-0.016-27.356-0.053-41.034
			c-0.06-21.752-0.162-43.503-0.215-65.255C0.398,63.175,0.432,45.176,0.364,27.177C0.338,20.463,0.11,13.75,0.003,7.037
			c-0.014-0.95,0.03-1.927,0.231-2.85C0.446,3.213,1.03,2.382,2.109,2.314c1.054-0.066,1.624,0.657,2.198,1.661
			C1.884,3.553,1.541,3.851,1.544,6.353c0.01,7.91,0.073,15.819,0.071,23.729c-0.006,24.316-0.048,48.632-0.045,72.95
			c0.001,14.871,0.065,29.742,0.091,44.613c0.032,17.103,0.056,34.207,0.082,51.311c0.009,7.035-0.003,14.07,0.022,21.106
			c0.034,8.869,0.128,17.738,0.141,26.607c0.037,22.636,0.028,45.268,0.066,67.899c0.014,8.636,0.123,17.271,0.148,25.907
			c0.047,16.07,0.068,32.141,0.093,48.21c0.012,7.919,0.014,15.839,0.01,23.757c-0.005,8.477-0.025,16.951-0.037,25.426
			c0,0.561,0.064,1.125,0.011,1.68c-0.157,1.636,0.379,2.784,1.971,3.357c1.197,0.432,2.071,1.777,3.835,1.301
			c0.03-15.859,0.085-31.746,0.082-47.633c-0.004-15.836-0.074-31.67-0.106-47.506c-0.033-15.914-0.03-31.828-0.086-47.74
			c-0.056-15.829-0.248-31.657-0.231-47.485c0.015-15.902,0.271-31.801,0.314-47.7c0.044-15.836-0.066-31.672-0.07-47.508
			c-0.003-15.826,0.024-31.652,0.006-47.479c0.255-0.016,0.51-0.032,0.767-0.048c0.069,0.809,0.198,1.618,0.198,2.427
			c0.003,6.959-0.02,13.918-0.032,20.876c-0.026,16.153-0.091,32.307-0.065,48.461c0.024,15.671,0.144,31.341,0.214,47.011
			c0.056,12.317,0.091,24.635,0.149,36.955c0.096,19.671,0.215,39.343,0.299,59.012c0.041,9.276,0.018,18.556,0.031,27.831
			c0.014,8.951,0.021,17.902,0.06,26.853c0.08,18.229,0.174,36.457,0.274,54.686c0.015,2.639,0.023,5.279,0.157,7.911
			c0.106,2.062,0.382,2.302,2.413,2.38c1.32,0.053,2.651-0.01,3.964-0.133c1.803-0.17,2.027-0.463,2.071-2.445
			c0.05-2.152,0.073-4.31,0.084-6.464c0.056-12.957,0.095-25.914,0.159-38.871c0.049-9.75,0.148-19.503,0.184-29.255
			c0.031-8.547-0.018-17.096,0.015-25.643c0.041-9.828,0.157-19.659,0.197-29.486c0.049-12.077,0.047-24.154,0.082-36.231
			c0.039-13.677,0.111-27.354,0.145-41.035c0.036-16.236,0.036-32.473,0.069-48.708c0.064-31.037,0.151-62.075,0.209-93.112
			c0.034-18.157,0.024-36.313,0.044-54.472c0.008-8.398,0.054-16.796,0.054-25.194c0-1.271-0.236-2.542-0.236-3.812
			c0-3.036-1.597-5.051-3.869-6.68c-0.109-0.078-0.144-0.27-0.227-0.434c0.378-0.834,0.985-0.637,1.521-0.269
			c1.655,1.134,3.012,2.526,3.506,4.606c0.104,0.445,0.274,0.874,0.513,1.61c1.146-1.336,2.126-2.476,3.105-3.614
			c0.122,0.078,0.247,0.158,0.37,0.236c-0.141,0.417-0.2,0.884-0.428,1.24c-2.356,3.656-2.626,7.795-2.654,11.983
			c-0.103,14.556-0.193,29.11-0.275,43.665c-0.154,27.275-0.346,54.55-0.439,81.825c-0.111,32.079-0.147,64.156-0.19,96.235
			c-0.037,27.76-0.054,55.518-0.051,83.275c0.001,15.111,0.084,30.223,0.088,45.334c0.002,12.635-0.084,25.27-0.077,37.903
			c0.008,9.758,0.115,19.513,0.146,29.269c0.007,1.838-0.153,3.675-0.177,5.513c-0.009,0.602,0.173,1.206,0.285,1.927
			c2.346-0.28,4.068-1.551,5.723-2.813c0.465-0.355,0.545-1.441,0.549-2.195c0.075-10.719,0.123-21.436,0.146-32.155
			c0.048-22.077,0.081-44.155,0.115-66.232c0.017-10.798,0.018-21.595,0.039-32.392c0.03-14.948,0.088-29.896,0.107-44.846
			c0.02-13.032-0.027-26.07,0.008-39.104c0.043-16.315,0.144-32.63,0.217-48.945c0.004-0.86,0.004-1.721,0.005-2.582
			c0.189-0.031,0.379-0.062,0.567-0.092c0.124,0.539,0.345,1.075,0.356,1.616c0.124,6.146,0.28,12.294,0.312,18.443
			c0.044,8.479-0.014,16.957-0.03,25.435c-0.034,18.877-0.079,37.758-0.104,56.635c-0.024,19.356-0.021,38.713-0.048,58.068
			c-0.017,13.672-0.081,27.347-0.099,41.019c-0.022,16.873-0.071,33.746,0.001,50.621c0.024,5.426,0.475,10.849,0.583,16.275
			c0.086,4.312-0.09,8.632-0.084,12.946c0.017,8.953,0.073,17.908,0.12,26.86c0.012,2.385,0.106,4.771,0.041,7.154
			c-0.062,2.31-1.429,3.952-3.246,4.969c-4.199,2.349-8.714,3.276-13.521,2.671c-3.593-0.454-6.728-1.815-9.446-4.278
			c-1.016-0.919-1.473-1.921-1.436-3.337c0.081-3.118-0.004-6.236,0.009-9.357c0.004-0.941,0.106-1.884,0.163-2.823
			C1.849,475.82,2.086,475.81,2.323,475.801z M2.382,451.256c0.178,0.067,0.357,0.137,0.535,0.205
			c0.181-0.452,0.362-0.901,0.628-1.564C2.241,450.024,2.216,450.584,2.382,451.256z"/>
		<path d="M25.202,5.143c1.59-0.954,2.444-0.15,2.884,0.694c0.675,1.302,1.425,2.785,1.432,4.194
			c0.03,7.27-0.183,14.54-0.279,21.811c-0.065,4.956-0.1,9.914-0.119,14.871c-0.043,10.871-0.057,21.743-0.101,32.615
			c-0.093,23.179-0.185,46.359-0.305,69.539c-0.015,2.938-0.177,5.875-0.271,8.812c-0.153,0-0.305,0-0.46-0.001
			c-0.068-2.805-0.185-5.61-0.191-8.417c-0.041-11.91-0.1-23.82-0.059-35.729c0.111-33.339,0.27-66.679,0.412-100.019
			c-0.001-0.08,0.001-0.16-0.001-0.24C28.115,10.297,28.061,7.333,25.202,5.143z"/>
		<path d="M6.214,4.718c0.663,0.999,1.325,1.999,2.131,3.217c1.741-1.894,2.434-5.214,5.828-4.914
			c0.03,0.273,0.103,0.514,0.053,0.544c-3.781,2.288-4.925,6.059-5.14,10.161c-0.224,4.308-0.121,8.634-0.136,12.952
			C8.884,46.593,8.844,66.505,8.753,86.419c-0.016,3.744-0.213,7.487-0.338,11.23c-0.007,0.216-0.134,0.427-0.473,0.626
			c0.003-1.896,0.009-3.792,0.01-5.689c0.017-25.994,0.021-51.988,0.075-77.982c0.007-2.473-0.536-4.73-1.577-6.918
			C6.06,6.869,5.78,5.998,5.446,5.152C5.703,5.007,5.958,4.862,6.214,4.718z"/>
		<path d="M26.861,467.718c-1.702,1.382-3.497,2.095-5.483,2.511c-4.452,0.933-8.831,0.419-13.197-0.512
			c-1.442-0.309-2.863-0.749-4.271-1.2c-0.852-0.274-0.833-0.339-1.61-1.897c1.171,0.309,2.126,0.522,3.058,0.815
			c4.966,1.557,10.002,2.378,15.174,1.36c1.364-0.268,2.68-0.805,4.021-1.207C25.257,467.377,25.979,466.948,26.861,467.718z"/>
		<path d="M19.67,472.611c-1.172,0.76-2.512,0.873-3.753,0.708c-3.531-0.47-7.054-1.043-10.546-1.753
			c-1.088-0.224-2.433-0.64-2.455-2.632C8.362,471.449,14.053,471.737,19.67,472.611z"/>
		<path d="M22.265,451.281c0.003,1.086-1.023,2.179-2.059,2.197c-0.903,0.017-1.777-0.85-1.821-1.805
			c-0.051-1.119,0.755-2.079,1.767-2.107C21.368,449.536,22.262,450.261,22.265,451.281z M19.401,451.204
			c0.927,1.099,1.347,0.799,1.827-0.041c-0.317-0.153-0.505-0.326-0.685-0.316C20.276,450.859,20.014,451,19.401,451.204z"/>
		<path d="M11.801,462.447c-0.491,0.667-0.859,1.167-1.222,1.66c1.239,1.252,1.553-0.743,2.552-0.484
			c0.425,1.206-0.174,1.938-1.17,2.407c-0.881,0.415-1.812,0.193-2.278-0.601c-0.35-0.593-0.526-1.574-0.288-2.181
			C9.752,462.343,10.636,461.975,11.801,462.447z"/>
		<path d="M10.906,450.108c-0.001,1.008-0.002,1.529-0.003,2.115c1.887,0.529,1.771-0.92,1.905-2.066
			c1.159,0.965,1.359,1.941,0.664,2.701c-0.714,0.781-2.55,1.209-3.149,0.733C9.344,452.815,9.429,451.862,10.906,450.108z"/>
		<path d="M20.926,461.962c-0.347,0.483-0.694,0.967-1.025,1.425c0.799,1.475,1.649-0.179,2.427,0.177
			c-0.521,1.562-1.21,2.125-2.274,1.874c-1.021-0.241-1.618-1.087-1.458-2.066C18.784,462.211,19.362,461.862,20.926,461.962z"/>
		<line fill="none" stroke="#010101" stroke-miterlimit="10" x1="28.186" y1="84.155" x2="27.635" y2="379.492"/>
		<path d="M14.61,490.686c2.01-0.195,4.02-0.395,6.032-0.592c-0.004-0.186-0.01-0.371-0.014-0.557
			c-1.551,0.021-3.1,0.039-4.65,0.059c-0.013-0.162-0.024-0.324-0.036-0.486c2.782-0.502,5.565-1.007,8.28-1.499
			c0.013,1.078,0.027,2.225,0.043,3.615c-4.232,2.513-8.77,2.456-13.447,0.806c2.721-0.031,5.438-0.067,8.16-0.099
			c0.005-0.123,0.008-0.244,0.014-0.367c-1.465-0.142-2.931-0.282-4.395-0.422C14.6,490.992,14.606,490.838,14.61,490.686z"/>
		<path d="M3.233,490.076c-0.275-1.444-0.533-2.797-0.83-4.356c2.046,0.528,3.911,1.012,5.775,1.494
			c-0.034,0.223-0.068,0.441-0.101,0.666c-1.243-0.121-2.486-0.242-3.729-0.361c-0.022,0.102-0.044,0.201-0.067,0.305
			c1.651,0.515,3.3,1.029,4.951,1.546c-0.03,0.15-0.059,0.305-0.087,0.457c-0.712,0.008-1.834-0.271-2.07,0.074
			C5.759,491.857,4.546,490.152,3.233,490.076z"/>
		<path d="M11.803,474.847c4.598,0.031,9.036-0.695,13.583-2.585C23.239,475.174,17.279,476.241,11.803,474.847z"/>
		<path d="M19.766,249.553c2.452-3.471,5.579-6.286,8.601-9.21C26.163,244.051,22.979,246.811,19.766,249.553z"/>
		<path d="M10.505,484.664c2.608-0.033,4.721,0.092,6.801-0.128c2.12-0.223,4.207-0.784,6.476-1.23
			C21.655,485.546,15.018,486.277,10.505,484.664z"/>
		<path d="M19.86,136.309c0.908-1.938,5.346-6.645,7.743-8.049c-0.504,1.494-1.562,2.176-2.292,3.068
			c-0.795,0.968-1.754,1.793-2.615,2.705c-0.83,0.878-1.631,1.788-2.446,2.684C20.119,136.579,19.99,136.444,19.86,136.309z"/>
		<path d="M27.907,305.576c-1.445,2.86-6.264,6.849-8.462,6.988C22.5,310.042,25.203,307.808,27.907,305.576z"/>
		<path d="M12.452,487.566c4.12-0.71,7.963-1.375,11.806-2.039C20.673,487.875,16.765,488.122,12.452,487.566z"/>
		<path d="M19.948,363.776c-0.12-0.646-0.221-0.867-0.161-0.927c2.448-2.533,4.912-5.053,7.462-7.495
			C25.215,358.402,22.873,361.158,19.948,363.776z"/>
		<path d="M10.707,442.446c1.586-1.235,3.225-0.682,4.868-1.21c-0.601-0.199-1.033-0.345-1.742-0.576
			c1.041-0.918,2.031-0.888,3.286-0.818c-0.068,0.816-0.131,1.543-0.215,2.527C14.89,442.394,12.977,442.419,10.707,442.446z"/>
		<path d="M20.541,399.583c2.085-2.611,4.621-4.701,7.123-6.832C27.231,394.415,22.823,398.703,20.541,399.583z"/>
		<path d="M26.781,174.621c-1.17,3.165-4.909,7.405-6.966,8.259c0.646-1.973,2.362-2.803,3.404-4.184
			C24.305,177.256,25.587,175.972,26.781,174.621z"/>
		<path d="M19.795,351.524c2.337-2.266,4.676-4.531,7.157-6.936C26.121,346.958,22.095,351.107,19.795,351.524z"/>
		<path d="M20.071,347.086c0.834-1.468,5.381-5.301,7.759-6.541C26.018,343.037,21.836,346.563,20.071,347.086z"/>
		<path d="M28.291,27.437c-1.889,1.978-3.763,3.969-5.675,5.921c-0.591,0.604-1.283,1.1-2.066,1.758
			c0.223-1.219,0.225-1.215,2.019-2.937c0.906-0.869,1.799-1.754,2.7-2.628c0.885-0.855,1.772-1.706,2.659-2.559
			C28.051,27.142,28.172,27.289,28.291,27.437z"/>
		<path d="M24.197,481.294c-1.8,2.045-6.161,2.946-8.813,1.931C18.196,482.609,21.118,481.97,24.197,481.294z"/>
		<path d="M26.951,182.021c-1.837,2.5-4.051,4.618-6.222,6.782c-0.185-0.188-0.371-0.376-0.554-0.564
			c2.131-2.201,4.264-4.403,6.395-6.605C26.697,181.763,26.824,181.893,26.951,182.021z"/>
		<path d="M26.355,266.674c-1.482,2.444-3.452,4.438-5.747,6.74C20.875,271.591,24.273,267.741,26.355,266.674z"/>
		<path d="M28.368,38.204c-2.164,3.009-4.443,5.909-7.586,8.003c0.718-1.752,2.31-2.739,3.469-4.104
			c1.214-1.427,2.433-2.85,3.649-4.275C28.056,37.953,28.214,38.078,28.368,38.204z"/>
		<path d="M25.327,474.379c-3.39,3.197-7.45,3.582-11.774,2.85C17.785,477.58,21.577,476.062,25.327,474.379z"/>
		<path d="M20.305,40.119c2.212-2.468,4.425-4.938,6.638-7.407c-1.27,3.332-3.675,5.624-6.195,7.811
			C20.599,40.388,20.45,40.254,20.305,40.119z"/>
		<path d="M27.526,117.839c-0.945,2.616-4.653,6.58-7.013,7.752c0.929-1.845,2.554-2.57,3.583-3.852
			C25.179,120.388,26.377,119.135,27.526,117.839z"/>
		<path d="M27.586,411.048c-1.983,2.416-4.132,4.723-6.823,6.359c-0.854-0.673-0.338-1.085,0.07-1.391
			C23.071,414.342,25.334,412.699,27.586,411.048z"/>
		<path d="M20.234,295.333c0.641-1.392,4.048-4.709,5.813-5.657C25.249,291.649,21.873,294.935,20.234,295.333z"/>
		<path d="M26.77,371.245c-1.941,2.567-4.083,4.957-6.996,6.47C21.679,375.104,24.363,373.344,26.77,371.245z"/>
		<path d="M20.694,28.414c2.392-2.23,4.783-4.459,7.177-6.688c-1.707,2.967-4.158,5.123-6.645,7.242
			C21.05,28.782,20.872,28.598,20.694,28.414z"/>
		<path d="M27.142,388.684c-1.633,2.913-3.84,5.191-6.604,6.799c-0.158-0.188-0.316-0.376-0.474-0.562
			c1.208-1.02,2.433-2.018,3.621-3.064C24.859,390.826,25.992,389.745,27.142,388.684z"/>
		<path d="M20.401,58.632c2.118-2.853,4.674-5.285,7.151-7.793c0.139,0.131,0.276,0.264,0.417,0.396
			c-2.351,2.632-4.702,5.265-7.054,7.897C20.744,58.966,20.573,58.8,20.401,58.632z"/>
		<path d="M24.307,478.96c-1.495,2.088-5.499,3.233-7.994,2.396C18.92,480.574,21.572,479.781,24.307,478.96z"/>
		<path d="M20.242,215.508c1.665-2.582,3.892-4.595,6.254-6.806C26.191,210.33,22.332,214.635,20.242,215.508z"/>
		<path d="M20.003,318.891c2.182-1.962,4.364-3.926,6.864-6.176c-0.609,1.98-4.67,5.817-6.586,6.562
			C20.187,319.15,20.095,319.021,20.003,318.891z"/>
		<path d="M26.659,215.04c-1.167,1.972-4.985,5.559-6.574,6.174C20.728,219.826,24.568,216.22,26.659,215.04z"/>
		<path d="M27.016,426.241c-1.495,2.476-4.65,5.214-6.639,5.972C20.877,430.98,22.901,429.13,27.016,426.241z"/>
		<path d="M27.183,296.284c-2.286,1.706-3.892,4.202-6.657,5.891c-0.114-1.689,1.189-1.775,1.777-2.417
			c0.691-0.754,1.485-1.409,2.24-2.103c0.726-0.665,1.459-1.319,2.189-1.981C26.882,295.877,27.033,296.083,27.183,296.284z"/>
		<path d="M26.648,109.299c-1.605,2.359-3.538,4.396-5.955,6.417C21.016,114.39,24.548,110.626,26.648,109.299z"/>
		<path d="M27.231,328.95c-1.08,1.916-4.958,5.318-7.024,6.325C20.621,334,22.984,331.821,27.231,328.95z"/>
		<path d="M26.538,367.231c-1.644,2.354-3.79,4.181-6.102,5.86c0.166-1.623,1.622-2.195,2.512-3.209
			c0.968-1.104,2.092-2.067,3.149-3.09C26.242,366.938,26.393,367.084,26.538,367.231z"/>
		<path d="M20.053,422.575c0.053-0.257,0.025-0.544,0.148-0.653c2.151-1.924,4.319-3.825,6.75-5.961
			C25.896,418.305,22.209,421.757,20.053,422.575z"/>
		<path d="M19.869,356.739c2.193-1.907,4.389-3.814,6.582-5.721c-1.545,2.621-3.637,4.641-5.985,6.379
			C20.266,357.178,20.068,356.958,19.869,356.739z"/>
		<path d="M20.18,197.309c2.114-2.02,4.228-4.04,6.616-6.323c-0.876,2.122-4.381,5.725-6.263,6.665
			C20.413,197.536,20.298,197.422,20.18,197.309z"/>
		<path d="M19.906,403.235c2.372-2.233,4.745-4.47,7.34-6.91C26.325,398.446,22.181,402.621,19.906,403.235z"/>
		<path d="M26.455,115.253c-1.908,1.927-3.457,4.247-5.783,5.722c-0.14-0.151-0.281-0.303-0.42-0.454
			c1.928-1.91,3.857-3.821,5.786-5.73C26.178,114.944,26.316,115.1,26.455,115.253z"/>
		<path d="M19.935,412.905c0.036-0.41-0.009-0.633,0.07-0.699c2.217-1.862,4.447-3.709,6.861-5.712
			C25.776,408.803,22.669,411.651,19.935,412.905z"/>
		<path d="M27.543,142.03c-1.666,3.259-4.283,5.59-6.858,7.958c-0.158-0.154-0.315-0.309-0.471-0.462
			C22.656,147.027,25.102,144.529,27.543,142.03z"/>
		<path d="M20.479,143.673c2-2.256,3.956-4.46,6.148-6.933C26.055,138.864,22.233,143,20.479,143.673z"/>
		<path d="M15.586,479.294c3.011-0.921,5.878-1.798,8.77-2.684C23.366,478.434,19.207,479.702,15.586,479.294z"/>
		<path d="M26.615,325.274c-1.76,2.237-3.927,3.999-6.44,6.021C20.54,329.634,24.138,326.375,26.615,325.274z"/>
		<path d="M19.864,436.282c1.923-1.719,3.842-3.438,5.765-5.157c0.128,0.144,0.256,0.288,0.385,0.434
			c-1.532,2.144-3.563,3.741-5.528,5.413C20.278,436.742,20.071,436.514,19.864,436.282z"/>
		<path d="M19.904,340.788c-0.021-0.143-0.109-0.368-0.051-0.42c2.139-1.937,4.291-3.853,6.589-5.904
			C25.767,336.596,21.858,340.282,19.904,340.788z"/>
		<path d="M19.784,382.42c2.064-1.846,4.128-3.691,6.193-5.538c-0.878,2.442-3.077,3.577-4.599,5.368
			c-0.293,0.34-0.865,0.424-1.308,0.627C19.976,382.725,19.88,382.573,19.784,382.42z"/>
		<path d="M27.651,45.36c-1.938,2.873-4.638,5.039-6.939,7.583c0.451-1.842,1.993-2.789,3.103-4.085
			c1.117-1.31,2.257-2.602,3.386-3.901C27.351,45.09,27.501,45.226,27.651,45.36z"/>
		<path d="M27.008,301.213c-2.226,3.679-5.008,6.248-7.138,6.76C22.516,305.471,24.761,303.341,27.008,301.213z"/>
		<path d="M20.159,427.55c0.558-1.31,2.694-3.381,5.714-5.54C24.894,424.152,22.304,426.666,20.159,427.55z"/>
		<path d="M26.708,384.731c-2.832,4.353-4.713,6.076-6.381,6.251c0.005-0.154-0.052-0.379,0.025-0.449
			C22.463,388.589,24.586,386.662,26.708,384.731z"/>
		<path d="M20.576,408.456c1.628-2.505,4.029-4.223,6.275-6.562C26.084,403.734,22.46,407.627,20.576,408.456z"/>
		<path d="M21.506,129.903c1.707-2.118,3.849-4.771,5.989-7.426c0.153,0.149,0.304,0.299,0.455,0.448
			C25.843,125.608,23.512,128.069,21.506,129.903z"/>
		<path d="M19.719,165.942c2.325-2.256,4.651-4.511,7.039-6.829C25.974,161.158,21.887,165.323,19.719,165.942z"/>
		<path d="M25.602,434.761c-1.09,2.374-3.541,4.831-5.14,5.341C20.99,438.789,22.922,436.738,25.602,434.761z"/>
		<path d="M26.893,57.022c-1.113,2.304-4.599,6.011-6.194,6.644C22.497,61.21,24.708,59.141,26.893,57.022z"/>
		<path d="M20.05,69.124c2.54-2.563,4.701-4.741,6.999-7.058C26.351,64.251,22.538,68.228,20.05,69.124z"/>
		<path d="M19.669,226.614c2.124-1.865,4.247-3.731,6.373-5.597c-1.54,2.542-3.593,4.503-5.859,6.226
			C20.012,227.033,19.839,226.824,19.669,226.614z"/>
		<path d="M21.06,22.701c2.183-1.984,4.367-3.969,6.753-6.137C26.915,18.659,23.324,22.143,21.06,22.701z"/>
		<path d="M26.594,261.535c-1.728,2.287-3.419,4.613-5.986,6.014C22.147,265.074,24.646,263.578,26.594,261.535z"/>
		<path d="M26.994,187.267c-2.034,2.261-3.95,4.647-6.677,6.156c0.405-1.658,2.066-2.034,2.998-3.17
			c0.986-1.201,2.167-2.234,3.264-3.339C26.717,187.031,26.855,187.15,26.994,187.267z"/>
		<path d="M26.079,250.135c-1.715,2.273-3.491,4.493-5.866,6.747C20.664,255.015,23.3,251.993,26.079,250.135z"/>
		<path d="M20.295,201.176c2.414-2.251,4.662-4.345,7.108-6.625C26.349,196.919,22.187,200.821,20.295,201.176z"/>
		<path d="M26.425,284.303c-0.957,1.979-4.271,5.245-6.439,6.331C21.959,287.9,24.312,286.229,26.425,284.303z"/>
		<path d="M19.637,367.656c1.359-2.145,3.466-3.501,5.494-5.522C24.464,364.154,21.604,367.012,19.637,367.656z"/>
		<path d="M20.436,109.813c2.186-2.121,4.373-4.241,6.897-6.688C26.024,105.66,22.247,109.474,20.436,109.813z"/>
		<path d="M26.953,86.529c-1.079,2.038-4.924,6.255-6.502,7.136C21.077,92.284,25.418,87.522,26.953,86.529z"/>
		<path d="M3.08,478.823c2.27,0.515,4.538,1.031,6.808,1.544c-0.042,0.184-0.083,0.363-0.125,0.545
			c-2.361-0.319-4.817-0.202-6.947-1.565C2.905,479.17,2.992,478.997,3.08,478.823z"/>
		<path d="M20.184,324.781c2.016-1.709,4.032-3.419,6.05-5.13c0.097,0.126,0.196,0.252,0.294,0.377
			c-1.619,2.232-3.669,3.93-6.097,5.162C20.348,325.052,20.267,324.917,20.184,324.781z"/>
		<path d="M20.672,442.579c1.198-2.305,3.198-3.854,5.193-5.691C25.058,438.959,23.121,441.125,20.672,442.579z"/>
		<path d="M26.621,155.304c-2.072,2.18-4.146,4.36-6.217,6.541c0.035-1.418,2.391-3.993,5.835-6.875
			C26.367,155.081,26.493,155.193,26.621,155.304z"/>
		<path d="M20.087,88.524c1.902-2.058,3.808-4.115,5.711-6.172c0.149,0.141,0.299,0.282,0.442,0.423
			c-1.867,2.098-3.738,4.196-5.607,6.294C20.449,88.886,20.27,88.706,20.087,88.524z"/>
		<path d="M25.783,165.779c-1.23,2.588-4.277,5.724-6.161,6.208C21.675,169.918,23.73,167.848,25.783,165.779z"/>
		<path d="M27.354,277.222c-2.302,2.419-4.604,4.84-6.611,6.951C21.055,283.258,24.708,279.185,27.354,277.222z"/>
		<path d="M19.974,104.08c1.524-1.301,2.695-2.233,3.788-3.255c1.058-0.989,2.034-2.071,3.114-3.04
			C25.874,100.12,22.468,103.322,19.974,104.08z"/>
		<path d="M26.084,236.853c-1.229,2.216-4.668,5.669-6.685,6.721C21.501,240.72,23.974,238.977,26.084,236.853z"/>
		<path d="M19.778,205.762c1.836-1.735,3.671-3.472,5.84-5.522C24.872,202.415,21.68,205.522,19.778,205.762z"/>
		<path d="M20.338,76.198c2.314-2.353,4.293-4.364,6.271-6.373C25.711,72.187,22.531,75.438,20.338,76.198z"/>
		<path d="M19.865,232.435c1.95-1.893,3.901-3.786,6.093-5.914C24.986,228.763,22.154,231.71,19.865,232.435z"/>
		<path d="M19.501,237.853c1.891-1.814,3.782-3.627,5.672-5.44c0.117,0.125,0.234,0.251,0.35,0.377
			c-1.913,1.789-3.319,4.124-5.61,5.507C19.778,238.148,19.639,238,19.501,237.853z"/>
		<path d="M25.288,382.449c-1.086,2.046-2.842,3.368-5.011,4.957C20.9,385.805,23.368,383.409,25.288,382.449z"/>
		<path d="M26.792,92.71c-1.974,2.02-3.535,4.47-5.83,6.157c-0.139-0.137-0.279-0.275-0.419-0.413
			c0.986-1.021,1.998-2.017,2.952-3.069c0.945-1.042,1.832-2.142,2.744-3.215C26.425,92.35,26.609,92.53,26.792,92.71z"/>
		<path d="M2.232,483.481c1.095-0.228,3.026,0.28,5.488,1.444C6.022,485.683,3.573,485.04,2.232,483.481z"/>
		<path d="M20.207,155.62c0.16-0.245,0.29-0.524,0.491-0.731c1.613-1.687,3.243-3.361,5.103-5.281
			C25.13,151.546,22.548,154.461,20.207,155.62z"/>
		<path d="M25.057,206.294c-1.627,1.72-2.962,3.755-5.463,5.04C20.083,210.093,23.433,207.017,25.057,206.294z"/>
		<path d="M8.779,476.7c-2.157,0.755-3.91-0.062-5.668-0.851c0.061-0.232,0.122-0.469,0.184-0.703
			C5.124,475.664,6.95,476.182,8.779,476.7z"/>
		<path d="M2.947,476.747c1.852,0.568,3.703,1.138,5.952,1.828C6.821,479.137,3.978,478.371,2.947,476.747z"/>
		<path d="M25.115,258.035c-0.798,2.267-2.651,3.456-4.387,4.77c0.413-1.39,2.55-3.56,4.426-4.727L25.115,258.035z"/>
		<path d="M25.895,12.914c-1.583,1.542-3.164,3.083-4.997,4.868c0.351-1.716,1.799-3.264,4.584-5.231
			C25.619,12.671,25.756,12.792,25.895,12.914z"/>
		<path d="M20.993,11.755c1.844-1.884,3.659-3.801,5.609-5.568c0.149,0.156,0.299,0.311,0.446,0.467
			c-1.829,1.901-3.658,3.803-5.485,5.704C21.374,12.157,21.185,11.957,20.993,11.755z"/>
		<path d="M25.796,77.551c-1.196,2.022-3.867,4.71-5.264,5.292c0.785-1.388,3.856-4.431,5.304-5.256L25.796,77.551z"/>
		<path d="M23.405,442.515c0.752-1.918,2.431-3.005,3.826-4.358C26.224,439.841,25.289,441.583,23.405,442.515z"/>
		<path d="M23.664,174.066c-0.763,1.658-1.977,2.837-3.615,3.561c0.902-1.517,2.026-2.792,3.652-3.527L23.664,174.066z"/>
		<path d="M20.142,278.5c1.227-1.231,2.449-2.462,3.676-3.694c-0.625,1.813-1.868,3.043-3.212,4.178
			C20.452,278.823,20.298,278.663,20.142,278.5z"/>
		<path d="M2.639,480.644c1.131,0.318,2.261,0.64,3.535,0.999C4.759,482.381,4.299,482.295,2.639,480.644z"/>
		<path d="M13.93,438.739c0.99-1.024,1.983-1.328,2.998-0.745c0.009,0.186,0.019,0.373,0.027,0.559
			C15.947,438.614,14.938,438.675,13.93,438.739z"/>
		<path d="M5.984,473.808c-0.949,0.706-1.63,0.216-2.802-0.412C4.607,472.896,5.283,473.41,5.984,473.808z"/>
		<path d="M23.702,174.1c0.337-1.354,1.301-2.162,2.376-2.873c-0.483,1.232-1.21,2.246-2.413,2.837
			C23.664,174.066,23.702,174.1,23.702,174.1z"/>
		<path d="M16.54,435.538c-0.662,0.008-1.322,0.016-1.984,0.025C15.189,434.655,15.862,434.704,16.54,435.538z"/>
		<path d="M17.023,428.138c-0.801,0.129-1.325,0.215-1.885,0.307c-0.004-0.324-0.065-0.533,0.002-0.594
			C15.701,427.347,16.251,427.251,17.023,428.138z"/>
		<path d="M17.1,419.205c-0.688,0.104-1.182,0.177-1.706,0.257c0.01-0.322-0.041-0.521,0.027-0.58
			C15.935,418.424,16.433,418.412,17.1,419.205z"/>
		<path d="M25.836,77.587c0.248-0.509,0.499-1.018,0.747-1.527c0.144,0.116,0.286,0.232,0.428,0.347
			c-0.404,0.381-0.81,0.763-1.216,1.145L25.836,77.587z"/>
		<path d="M25.155,258.078c0.28-0.437,0.559-0.873,0.84-1.309c0.146,0.171,0.291,0.342,0.439,0.513
			c-0.44,0.252-0.879,0.503-1.317,0.753C25.115,258.035,25.155,258.078,25.155,258.078z"/>
	</g>
</g>
<g id="Layer_2" display="none">
	<polygon id="HIGHLIGHT_blue_3_" display="inline" fill="#D0EDFC" points="2.029,3.314 8.29,8.067 8.29,445.567 2.029,443.067 	"/>
	<path id="highlight" display="inline" fill="#FFDBA3" d="M23.979,470.893c0,0-6.979,1.317-7.886,0.494
		c4.983-2.221,7.069-24.438,1.358-24.192c-5.71,0.247,5.438,0,7.071-0.864C26.155,445.465,23.979,470.893,23.979,470.893z"/>
	<g display="inline">
		<path d="M2.202,472.935c0.764,0.922,1.479,2.008,2.308,2.713c0.779,0.664,1.68,0.926,2.793,1.502
			c-1.726,0.67-2.94-0.578-4.244-1.242c0.864,1.768,0.864,1.768,4.604,3.324c-0.91,0.559-1.042,0.541-4.162-0.674
			c1.771,2.41,3.622,3.068,5.484,3.73c-1.388-0.033-2.776,0.145-4.062-1.016c-0.712-0.645-1.459-1.18-2.189-1.764
			c-0.092-0.148-0.184-0.297-0.275-0.443c-1.029-1.57-0.612-3.809-0.911-5.715c-0.02-0.117,0.343-0.4,0.527-0.607
			C2.12,472.802,2.162,472.869,2.202,472.935z"/>
		<path d="M2.477,484.119c0.514,0.91,0.966,1.957,1.559,2.689c0.58,0.723,1.302,1.123,1.961,1.666
			c-0.029,0.162-0.059,0.324-0.087,0.486c-0.658-0.201-1.315-0.404-2.245-0.689c1.414,1.99,2.938,2.34,4.464,2.803
			c-0.749,0.703-1.49,0.176-2.239,0.039c-1.586-0.293-2.79-1.836-4.055-3.246c-0.917-1.025-0.092-2.332-0.277-3.463
			c-0.014-0.088,0.489-0.412,0.752-0.625C2.359,483.9,2.415,484.013,2.477,484.119z"/>
		<path d="M2.477,484.119c-0.062-0.105-0.118-0.219-0.167-0.34c-0.318-0.617-0.821-1.072-0.692-2.344
			c0.471,0.324,0.875,0.602,1.275,0.879l-0.033-0.045c0.345,0.514,0.646,1.158,1.041,1.514c1.518,1.361,3.097,2.432,4.869,2.338
			c0.161-0.008,0.324,0.08,0.689,0.178c-1.127,0.83-2.051,0.686-2.957,0.186C5.153,485.736,3.818,484.91,2.477,484.119z"/>
		<path d="M2.459,479.066c0.092,0.146,0.184,0.297,0.275,0.443c0.649,2.285,2.046,2.662,3.242,3.541
			c0.328,0.24,0.698,0.322,1.025,0.643c-1.491,0.422-2.754-1.021-4.143-1.424l0.033,0.045c-0.456-0.846-0.912-1.691-1.531-2.842
			C1.89,479.277,2.175,479.171,2.459,479.066z"/>
		<path d="M2.202,472.935c-0.04-0.066-0.082-0.133-0.126-0.189c-0.092-0.273-0.201-0.535-0.267-0.824
			c-0.021-0.096,0.071-0.264,0.178-0.621c0.729,0.674,1.438,1.424,2.192,2c0.765,0.586,1.577,0.998,2.344,1.607
			C4.929,475.171,3.578,473.976,2.202,472.935z"/>
	</g>
	<g display="inline">
		<path d="M22.168,480.316c-2.079,0.055-3.972,1.422-6.687,0.939c3.104-1.418,6.173-1.617,8.426-3.688
			c-2.072,0.262-3.851,1.826-6.194,1.131c1.56-0.646,3.121-1.291,4.681-1.938c-1.691,0.654-2.703-1.16-4.243-1.322
			c0.878-0.381,1.755-0.762,2.633-1.143c-2.117-0.129-4.175,0.5-6.296,0.037c4.334-0.994,8.646-1.936,12.289-5.135
			c0.352,1.727-0.07,3.166-0.042,4.559c0.031,1.52,0,2.842-0.688,4.162C24.753,478.718,23.46,479.515,22.168,480.316z"/>
		<path d="M25.233,485.531c0.151,0.029,0.411,0.02,0.439,0.098c0.662,1.801-0.082,4-1.702,4.764
			c-3.227,1.523-6.565,2.447-10.165,1.51c-0.223-0.061-0.429-0.193-0.63-0.312c-0.041-0.023-0.025-0.143-0.048-0.312
			c1.233-0.012,2.463,0.008,3.688-0.039c0.938-0.035,1.835-0.018,2.479-1.045c0.313-0.502,1.209-0.662,1.858-0.932
			c0.925-0.383,1.865-0.721,2.689-1.396c-1.898,0.395-3.796,0.789-5.693,1.186c-0.024-0.109-0.051-0.219-0.076-0.328
			c2.212-1.014,4.423-2.025,6.635-3.037C24.882,485.632,25.058,485.582,25.233,485.531z"/>
		<path d="M22.168,480.316c1.292-0.801,2.585-1.598,3.876-2.396c0.283-0.031,0.564-0.061,0.964-0.105
			c-0.253,1.525-0.258,2.969-1.743,3.729c-0.223,0.164-0.447,0.33-0.671,0.496c-2.308,0.826-4.616,1.652-7.224,2.586
			c0.182-0.715,0.251-0.99,0.332-1.311c-0.798-0.092-1.591-0.182-2.843-0.322C17.616,481.984,19.892,481.148,22.168,480.316z"/>
		<path d="M24.594,482.039c0.224-0.166,0.448-0.332,0.671-0.496c0.369-0.027,0.741-0.057,1.336-0.104
			c-0.3,1.543-0.164,3.01-1.365,4.09c-0.178,0.053-0.354,0.104-0.527,0.154c-1.071,0.268-2.132,0.584-3.216,0.787
			c-0.972,0.184-1.968,0.24-3.195,0.381c0.352-0.48,0.479-0.652,0.69-0.941c-1.225,0.084-2.364,0.16-3.506,0.236
			c-0.037-0.15-0.071-0.303-0.106-0.453c1.088-0.307,2.17-0.637,3.266-0.912C20.798,484.24,22.95,483.695,24.594,482.039z"/>
		<path d="M29.147,113.874c-1.176,3.321-7.196,11.146-8.754,12.082c-0.052-0.239-0.215-0.545-0.129-0.658
			C23.212,121.479,26.181,117.678,29.147,113.874z"/>
		<path d="M28.804,221.343c-3.191,4.093-6.381,8.186-9.798,12.572c-0.118-1.818,1.087-2.611,1.731-3.638
			c0.716-1.14,1.561-2.204,2.398-3.26s1.724-2.079,2.621-3.086c0.882-0.987,1.806-1.937,2.71-2.903
			C28.58,221.133,28.691,221.238,28.804,221.343z"/>
		<path d="M28.354,229.707c-2.793,3.53-5.588,7.06-8.553,10.807c-0.089-0.597,1.446-3.215,2.086-4.05
			c0.922-1.204,1.801-2.444,2.783-3.596c1.028-1.206,2.156-2.325,3.242-3.482C28.06,229.493,28.208,229.6,28.354,229.707z"/>
		<path d="M21.987,11.047c0.204-1.718,3.255-4.955,8.317-9.154C27.927,5.762,25.173,8.595,21.987,11.047z"/>
		<path d="M27.468,153.087c-1.805,3.905-6.01,9.251-7.842,10.146C19.923,161.996,25.175,155.077,27.468,153.087z"/>
		<path d="M29.214,52.779c-1.894,3.93-5.229,6.589-8.492,9.499c0.078-0.338,0.051-0.773,0.256-0.999
			c0.91-1.004,1.895-1.941,2.839-2.915C25.62,56.507,27.415,54.642,29.214,52.779z"/>
		<path d="M19.979,35.411c3.106-3.177,5.899-6.033,8.691-8.89c0.144,0.111,0.287,0.223,0.431,0.333
			c-0.627,0.796-1.238,1.605-1.887,2.384c-0.663,0.797-1.354,1.573-2.052,2.342c-0.751,0.828-1.491,1.668-2.295,2.443
			C22.206,34.661,21.729,35.728,19.979,35.411z"/>
		<path d="M19.254,187.454c3.007-3.575,6.014-7.15,9.021-10.726c0.146,0.113,0.293,0.225,0.438,0.338
			c-0.43,1.512-1.877,2.333-2.735,3.552c-0.964,1.369-2.015,2.682-3.093,3.965c-0.99,1.177-1.697,2.66-3.19,3.328
			C19.546,187.759,19.401,187.606,19.254,187.454z"/>
		<path d="M28.418,140.548c-2.085,3.649-6.779,9.663-8.206,10.514c0.043-1.06,1.041-2.722,3.428-5.609
			c1.453-1.758,2.945-3.484,4.419-5.225C28.179,140.335,28.298,140.442,28.418,140.548z"/>
		<path d="M20.597,16.521c2.755-2.856,5.512-5.713,8.422-8.728c-0.381,1.812-0.381,1.812-2.108,3.609
			c-0.935,0.971-1.806,2.015-2.816,2.896c-1.016,0.883-1.465,2.45-2.988,2.727C20.935,16.857,20.766,16.689,20.597,16.521z"/>
		<path d="M20.11,22.601c0.034-0.283-0.039-0.672,0.119-0.835c2.772-2.86,5.572-5.693,8.576-8.33
			c-2.516,3.354-5.129,6.606-8.125,9.516C20.491,22.835,20.3,22.718,20.11,22.601z"/>
		<path d="M19.974,69.17c0.048-1.979,1.721-2.282,2.467-3.301c0.849-1.158,1.836-2.215,2.784-3.297
			c0.892-1.017,1.811-2.011,2.854-3.167C27.552,61.479,22.285,67.865,19.974,69.17z"/>
		<path d="M26.494,305.369c-2.557,3.811-4.641,7.994-8.271,11.639C18.606,315.25,23.398,308.516,26.494,305.369z"/>
		<path d="M19.482,156.902c0.053-0.221,0.035-0.499,0.165-0.655c2.236-2.688,4.49-5.361,6.943-7.874
			c-1.779,3.301-3.865,6.361-6.644,8.883C19.793,157.139,19.638,157.02,19.482,156.902z"/>
		<path d="M29.271,42.31c-2.145,3.635-5.087,6.566-8.229,9.32C23.392,48.178,26.188,45.117,29.271,42.31z"/>
		<path d="M28.815,109.796c-2.879,3.459-5.41,7.219-9.095,10.64c0.046-0.784-0.026-1.071,0.083-1.199
			c2.842-3.283,5.703-6.548,8.561-9.817C28.514,109.545,28.665,109.671,28.815,109.796z"/>
		<path d="M19.151,219.453c2.707-3.18,5.412-6.36,8.118-9.54c0.12,0.102,0.241,0.202,0.361,0.303
			c-2.28,3.566-4.958,6.801-7.854,9.855C19.568,219.866,19.36,219.659,19.151,219.453z"/>
		<path d="M26.133,373.953c-1.009,2.305-6.865,9.56-8.358,10.301C20.524,380.36,22.99,376.884,26.133,373.953z"/>
		<path d="M26.856,348.192c-2.594,3.503-5.156,7.032-8.422,9.953c-0.156-0.133-0.312-0.269-0.468-0.401
			c2.825-3.313,5.65-6.627,8.476-9.941C26.579,347.933,26.718,348.062,26.856,348.192z"/>
		<path d="M26.817,291.441c-1.092,2.301-6.922,9.73-8.315,10.6C19.017,300.3,24.219,293.671,26.817,291.441z"/>
		<path d="M28.187,79.156c-2.292,3.223-4.58,6.45-7.684,9.035c0.487-2.042,2.205-3.23,3.354-4.801
			c1.187-1.621,2.544-3.113,3.827-4.662C27.853,78.871,28.021,79.013,28.187,79.156z"/>
		<path d="M20.479,40.584c3.048-3.295,5.688-6.15,8.331-9.006c0.125,0.108,0.25,0.216,0.376,0.324
			c-2.083,2.925-4.29,5.754-6.954,8.207C21.962,40.357,21.443,40.336,20.479,40.584z"/>
		<path d="M19.591,175.195c2.514-3.351,4.756-6.915,7.679-9.944c0.158,0.122,0.316,0.244,0.476,0.364
			c-2.503,3.357-5.009,6.714-7.514,10.072C20.019,175.523,19.806,175.359,19.591,175.195z"/>
		<path d="M25.774,426.949c-1.981,3.516-4.114,6.893-7.126,10.148C18.856,435.425,23.526,428.857,25.774,426.949z"/>
		<path d="M20.242,29.092c2.658-2.748,5.316-5.496,8.246-8.523c-0.831,2.392-6.18,8.25-7.885,8.89
			C20.484,29.336,20.363,29.214,20.242,29.092z"/>
		<path d="M21.908,441.318c-0.645,0.559-1.286,1.117-2.053,1.781c0.08-1.459,4.166-6.945,6.529-8.84
			c-0.526,1.191-0.926,2.098-1.326,3.004l0.048-0.047c-0.57,0.662-1.14,1.322-1.711,1.984
			C22.9,439.906,22.404,440.613,21.908,441.318z"/>
		<path d="M18.702,370.691c2.476-3.133,4.95-6.266,7.429-9.396c0.13,0.103,0.259,0.203,0.39,0.306
			c-2.217,3.354-4.61,6.571-7.188,9.651C19.123,371.065,18.913,370.876,18.702,370.691z"/>
		<path d="M19.683,138.103c2.329-3.044,4.658-6.089,6.986-9.133C25.847,131.99,21.872,137.396,19.683,138.103z"/>
		<path d="M26.124,327.082c-2.244,3.039-4.017,6.424-7.078,9.221C19.412,334.402,23.53,329.069,26.124,327.082z"/>
		<path d="M19.472,288.666c0.449-1.569,4.79-7.235,7.09-9.258C25.735,281.563,20.781,288.029,19.472,288.666z"/>
		<path d="M19.212,254.585c2.346-2.973,4.69-5.943,7.039-8.917c-1.486,3.634-3.996,6.481-6.424,9.394
			C19.622,254.903,19.417,254.746,19.212,254.585z"/>
		<path d="M19.294,194.57c2.561-3.163,5.12-6.325,7.681-9.488C26.364,187.579,21.483,193.61,19.294,194.57z"/>
		<path d="M17.841,417.992c2.33-2.889,4.66-5.775,6.99-8.662c0.15,0.119,0.302,0.238,0.452,0.355
			c-2.229,2.973-4.129,6.195-6.811,8.816C18.263,418.333,18.052,418.162,17.841,417.992z"/>
		<path d="M19.274,200.548c2.583-3.173,5.166-6.345,7.749-9.518c0.122,0.098,0.243,0.196,0.366,0.294
			c-2.349,3.366-4.723,6.712-7.584,9.674C19.628,200.849,19.451,200.698,19.274,200.548z"/>
		<path d="M26.966,105.941c-2.168,2.514-4.33,5.032-6.518,7.527c-0.095,0.108-0.414,0.018-1.171,0.024
			c2.763-2.719,4.439-5.854,7.25-8.008C26.673,105.636,26.819,105.789,26.966,105.941z"/>
		<path d="M18.751,329.185c0.224-1.998,4.552-7.889,7.569-10.316C23.799,322.306,21.274,325.746,18.751,329.185z"/>
		<path d="M26.312,341.904c-1.533,3.012-5.556,7.65-7.224,8.329C19.42,349.026,24.03,343.708,26.312,341.904z"/>
		<path d="M27.282,172.927c-2.232,2.697-4.464,5.397-6.713,8.081c-0.124,0.147-0.408,0.157-0.652,0.243
			C20.261,179.689,24.49,174.545,27.282,172.927z"/>
		<path d="M19.46,213.406c2.412-2.899,4.822-5.8,7.231-8.7c0.136,0.109,0.271,0.217,0.406,0.326
			c-2.271,3.015-4.362,6.17-7.009,8.888C19.88,213.749,19.671,213.578,19.46,213.406z"/>
		<path d="M19.466,226.617c2.498-2.962,4.322-6.455,7.467-8.827C24.552,220.84,22.838,224.434,19.466,226.617z"/>
		<path d="M25.157,432.544c-0.722,2.285-4.677,7.514-6.469,8.551C18.916,439.826,23.189,434.177,25.157,432.544z"/>
		<path d="M18.263,284.146c0.704-2.286,3.842-6.963,6.254-9.553C24.142,276.23,20.421,282.027,18.263,284.146z"/>
		<path d="M26.856,355.221c-2.466,3.049-4.625,6.362-7.794,9.291C19.369,362.891,24.097,357.232,26.856,355.221z"/>
		<path d="M20.62,45.629c2.555-2.899,5.109-5.797,7.666-8.696C26.554,40.657,22.628,45.182,20.62,45.629z"/>
		<path d="M26.651,298.974c-1.986,3.711-5.543,8.189-7.01,8.992C19.938,306.48,23.604,301.684,26.651,298.974z"/>
		<path d="M19.641,269.645c1.985-3.112,3.757-6.384,6.429-8.996C24.188,263.837,22.444,267.128,19.641,269.645z"/>
		<path d="M19.984,81.933c2.213-2.559,4.428-5.118,6.841-7.906c-0.651,2.406-4.465,7.126-6.485,8.245
			C20.221,82.159,20.103,82.045,19.984,81.933z"/>
		<path d="M19.03,294.145c2.358-2.712,4.719-5.427,7.076-8.14c-0.934,2.631-5.27,7.843-6.709,8.511
			C19.274,294.393,19.152,294.269,19.03,294.145z"/>
		<path d="M26.824,312.486c-2.278,3.152-4.162,6.584-7.42,9.316C19.845,320.253,24.316,314.605,26.824,312.486z"/>
		<path d="M18.043,431.496c0.341-1.586,4.262-7.02,6.105-8.678C23.771,424.361,19.839,430.056,18.043,431.496z"/>
		<path d="M19.949,105.731c2.015-2.543,4.027-5.086,6.042-7.629C25.626,100.222,21.649,105.306,19.949,105.731z"/>
		<path d="M26.563,267.082c-2.127,2.969-3.824,6.236-6.682,8.994C20.346,274.228,23.946,269.36,26.563,267.082z"/>
		<path d="M18.182,410.089c2.149-2.656,4.299-5.312,6.448-7.969c0.152,0.123,0.305,0.244,0.455,0.367
			c-1.937,2.838-3.977,5.594-6.31,8.119C18.578,410.435,18.38,410.261,18.182,410.089z"/>
		<path d="M23.355,417.326c-1.119,3.646-3.62,6.922-5.66,7.729C19.759,422.238,21.557,419.783,23.355,417.326z"/>
		<path d="M19.308,247.075c2.144-2.592,4.284-5.183,6.427-7.774c0.129,0.105,0.258,0.209,0.387,0.314
			c-2.045,2.668-3.597,5.729-6.355,7.828C19.612,247.32,19.46,247.198,19.308,247.075z"/>
		<path d="M26.536,69.193c-1.737,2.907-4.083,5.669-5.599,6.59C21.427,73.826,24.661,70.019,26.536,69.193z"/>
		<path d="M18.954,376.65c2.252-2.395,4.504-4.787,6.754-7.18c0.137,0.109,0.272,0.219,0.41,0.328
			c-0.617,0.906-1.488,1.623-2.21,2.451c-0.735,0.844-1.411,1.742-2.187,2.547C20.966,375.582,20.604,376.878,18.954,376.65z"/>
		<path d="M24.558,336.22c-1.983,2.652-3.636,5.57-6.186,7.773c-0.134-0.105-0.267-0.211-0.397-0.316
			c2.039-2.608,4.079-5.217,6.118-7.826C24.249,335.974,24.403,336.097,24.558,336.22z"/>
		<path d="M24.351,385.755c-1.817,2.473-3.637,4.945-5.764,7.836C18.729,391.724,21.831,387.511,24.351,385.755z"/>
		<path d="M27.088,1.538c-1.448,1.785-3.005,3.465-4.895,5.136C21.378,5.243,22.483,4.928,22.96,4.4
			c0.526-0.586,1.135-1.102,1.725-1.629c0.637-0.57,1.293-1.119,1.94-1.677C26.778,1.241,26.933,1.39,27.088,1.538z"/>
		<path d="M18.522,208.787c1.312-2.647,3.039-5.021,5.11-7.561C22.907,203.669,20.099,207.895,18.522,208.787z"/>
		<path d="M23.067,255.33c-0.177,0.584-0.237,1.239-0.553,1.734c-1.014,1.598-2.113,3.141-3.199,4.689
			c-0.12,0.17-0.379,0.242-0.602,0.375c0.017-1.369,2.558-5.244,4.393-6.762L23.067,255.33z"/>
		<path d="M20.8,56.537c1.957-1.948,3.914-3.897,5.871-5.845c0.145,0.142,0.29,0.284,0.435,0.426
			c-2.063,1.841-3.298,4.477-5.84,5.861C21.11,56.833,20.956,56.685,20.8,56.537z"/>
		<path d="M25.822,86.268c-1.035,2.714-2.549,5.005-5.363,6.123C22.245,90.349,24.034,88.308,25.822,86.268z"/>
		<path d="M18.216,402.173c1.477-1.953,2.955-3.904,4.658-6.154C22.613,398.199,20.175,401.523,18.216,402.173z"/>
		<path d="M24.702,162.682c-1.445,2.675-3.039,5.241-5.193,7.398c0.5-2.08,3.41-6.021,5.229-7.366L24.702,162.682z"/>
		<path d="M21.908,441.318c0.495-0.705,0.991-1.412,1.487-2.117c0.571-0.66,1.141-1.322,1.711-1.984l-0.048,0.047
			c0.238,0.012,0.478,0.021,1.081,0.047c-0.978,2.201-2.509,3.73-3.921,5.346c-0.148-0.076-0.295-0.15-0.441-0.227
			C21.821,442.058,21.864,441.687,21.908,441.318z"/>
		<path d="M15.892,428.882c-1.866,1.168-3.816,0.209-5.745,0.217C12.022,428.472,13.905,428.003,15.892,428.882z"/>
		<path d="M27.726,122.335c-0.899,2.325-2.643,4.014-4.432,5.665c1.114-2.166,2.467-4.149,4.471-5.631L27.726,122.335z"/>
		<path d="M15.433,422.574c-1.646,0.869-3.402,0.729-5.161,0.623C11.882,422.181,13.653,422.355,15.433,422.574z"/>
		<path d="M15.078,439.433c-1.178,0.109-2.354,0.219-3.918,0.363c1.494-1.102,1.494-1.102,3.851-0.871
			C15.033,439.093,15.055,439.263,15.078,439.433z"/>
		<path d="M23.071,141.072c-0.147,1.911-1.483,2.904-3.026,4.053c0.66-1.813,1.479-2.846,3.069-4.011L23.071,141.072z"/>
		<path d="M11.497,431.326c1.288-0.492,2.57-1.029,4.312-0.385C14.24,432,12.863,431.603,11.497,431.326z"/>
		<path d="M24.737,162.714c0.577-1.671,1.796-2.844,3.089-3.958c-0.688,1.588-1.607,2.994-3.123,3.924
			C24.702,162.682,24.737,162.714,24.737,162.714z"/>
		<path d="M23.114,141.114c0.726-1.181,1.449-2.362,2.175-3.543c0.058,1.838-0.523,2.616-2.218,3.5L23.114,141.114z"/>
		<path d="M24.124,93.565c-0.464,1.729-1.701,2.803-3.23,3.93c0.696-1.521,1.803-2.808,3.266-3.897L24.124,93.565z"/>
		<path d="M12.85,419.601c0.924-0.848,1.828-1.279,2.646,0.146C14.613,419.699,13.731,419.652,12.85,419.601z"/>
		<path d="M22.294,129.856c-0.646,0.76-1.289,1.52-1.937,2.279c-0.13-0.107-0.261-0.214-0.391-0.32
			c0.521-0.876,1.148-1.672,1.968-2.32C22.056,129.616,22.175,129.736,22.294,129.856z"/>
		<path d="M14.748,424.583c-0.649,0.1-1.297,0.197-2.208,0.338C13.461,424.115,13.461,424.115,14.748,424.583z"/>
		<path d="M15.146,426.599c-0.904,0.064-1.478,0.105-2.086,0.148c0.044-0.289,0.019-0.498,0.09-0.541
			C13.764,425.851,14.358,425.75,15.146,426.599z"/>
		<path d="M13.531,408.068c0.633-0.445,1.271-0.549,2.422,0.316c-1.099,0.098-1.721,0.152-2.343,0.207
			C13.584,408.417,13.558,408.244,13.531,408.068z"/>
		<path d="M15.886,414.97c-0.74-0.027-1.479-0.059-2.373-0.094C14.653,413.978,14.654,413.98,15.886,414.97z"/>
		<path d="M24.509,253.375c0.385-0.629,0.77-1.258,1.153-1.887c0.021,0.932-0.179,1.717-1.19,1.854
			C24.473,253.341,24.508,253.375,24.509,253.375z"/>
		<path d="M14.843,433.984c-0.558,0.061-1.116,0.121-1.684,0.184c-0.016-0.281-0.039-0.523-0.028-0.525
			c0.568-0.076,1.138-0.137,1.708-0.197C14.84,433.625,14.841,433.802,14.843,433.984z"/>
		<path d="M13.865,436.095c0.388-0.059,0.774-0.117,1.163-0.178c0.023,0.166,0.047,0.332,0.069,0.498
			c-0.39,0.047-0.779,0.096-1.169,0.145C13.908,436.408,13.887,436.25,13.865,436.095z"/>
		<path d="M27.765,122.369c0.271-0.626,0.54-1.252,0.812-1.878c0.377,1-0.236,1.421-0.851,1.843
			C27.726,122.335,27.765,122.369,27.765,122.369z"/>
		<path d="M24.665,415.822c0.229-0.262,0.459-0.521,0.688-0.781c0.09,0.068,0.181,0.135,0.271,0.201
			c-0.2,0.301-0.402,0.602-0.604,0.9C24.901,416.037,24.784,415.929,24.665,415.822z"/>
		<path d="M26.179,198.394c-0.192,0.285-0.385,0.569-0.576,0.854c-0.092-0.061-0.186-0.122-0.276-0.183
			c0.187-0.288,0.373-0.576,0.561-0.864C25.983,198.266,26.081,198.33,26.179,198.394z"/>
		<path d="M23.106,255.367c0.47-0.664,0.937-1.326,1.402-1.99c-0.001-0.002-0.036-0.035-0.037-0.035
			c-0.053,0.955-0.483,1.646-1.404,1.988L23.106,255.367z"/>
		<path d="M24.158,93.598c0.188-0.421,0.353-0.858,0.585-1.253c0.088-0.149,0.338-0.204,0.791,0.006
			c-0.472,0.405-0.94,0.81-1.41,1.215L24.158,93.598z"/>
	</g>
	<g display="inline">
		<path d="M25.263,490.677c1.984-2.666,1.688-5.695,1.624-8.705c-0.073-3.518-0.048-7.037-0.077-10.557
			c-0.008-0.789-0.067-1.578-0.111-2.52c-1.244,0.152-2.352,0.287-3.456,0.422c-0.054-0.166-0.104-0.332-0.156-0.498
			c0.812-0.432,1.617-0.871,2.437-1.285c0.769-0.391,1.28-0.916,1.274-1.85c-0.017-2.387-0.006-4.771-0.006-7.439
			c-4.158,1.057-8,2.221-12.1,2.27c-4.142,0.047-8.014-1.092-11.924-2.039c-0.701,1.773-0.804,4.35-0.35,7.246
			c2.502,2.316,5.6,3.242,8.757,3.707c3.023,0.447,6.121,0.383,9.176,0.725c-5.5,1.992-10.836,0.789-16.175-0.852
			c4.777,2.953,10.032,3.424,15.451,3.15c-6.009,2.154-11.597,0.525-17.326-2c-0.086,2.783-0.216,5.467-0.239,8.15
			c-0.02,2.312,0.094,4.623,0.129,6.934c0.024,1.557,0.91,2.535,2.192,3.166c3.085,1.521,6.174,3.012,9.748,3.043
			c1.43,0.012,2.853,0.412,4.286,0.469c1.414,0.057,2.836-0.098,4.68-0.18c-0.586,0.564-0.836,0.969-1.194,1.127
			c-3.761,1.67-7.593,1.471-11.492,0.488c-3.162-0.797-5.804-2.611-8.539-4.217c-0.56-0.328-0.858-1.467-0.895-2.25
			c-0.126-2.795-0.102-5.598-0.106-8.396c-0.023-10.877-0.04-21.756-0.054-32.633c-0.028-24.949-0.054-49.898-0.081-74.848
			c-0.017-15.84-0.043-31.678-0.047-47.516s0.016-31.674,0.032-47.512c0.001-0.785,0.088-1.57,0.283-2.359
			c0.875,2.192,0.452,4.494,0.539,6.736c0.102,2.633-0.065,5.271-0.056,7.908c0.035,8.706,0.132,17.411,0.141,26.116
			c0.01,9.188-0.081,18.374-0.077,27.562c0.003,6.635,0.111,13.271,0.135,19.906c0.089,24.871,0.159,49.742,0.254,74.613
			c0.003,0.951,0.113,1.914,0.292,2.848c0.311,1.611,1.286,2.504,3.292,2.498c0.048-0.932,0.138-1.85,0.137-2.768
			c-0.012-14.479-0.029-28.957-0.057-43.437c-0.046-24.718-0.092-49.437-0.152-74.153c-0.024-9.597-0.102-19.192-0.135-28.789
			c-0.063-18.557-0.116-37.111-0.165-55.668c-0.011-4.239-0.022-8.479,0.056-12.717c0.035-1.892,0.294-3.78,0.879-5.653
			c0,1.572-0.228,3.183,0.037,4.71c1.916,11.121,0.804,22.32,0.916,33.48c0.165,16.554,0.064,33.11,0.079,49.666
			c0.018,21.356,0.028,42.714,0.055,64.069c0.022,19.598,0.042,39.195,0.113,58.793c0.015,3.992,0.287,7.984,0.368,11.979
			c0.026,1.279,0.594,2.049,1.792,2.086c2.224,0.07,4.454,0.021,6.676-0.088c0.91-0.045,1.377-0.727,1.388-1.66
			c0.006-0.561,0.027-1.119,0.026-1.68c-0.021-28.238-0.074-56.477-0.062-84.715c0.013-30.557,0.095-61.114,0.127-91.672
			c0.027-26.316,0.02-52.633,0.043-78.951c0.01-10.632,0.123-21.265,0.08-31.897c-0.024-6.074-0.402-12.147-0.392-18.22
			c0.031-17.674,0.208-35.349,0.271-53.024c0.047-13.118,0.002-26.236,0.003-39.354c0.001-9.997,0.005-19.993,0.022-29.989
			c0.002-1.118,0.119-2.236,0.139-3.354c0.051-2.694-0.953-4.814-3.397-6.141c-0.263-0.143-0.461-0.404-0.677-0.623
			c-0.042-0.043-0.021-0.147-0.028-0.224c1.713-0.733,2.685-0.107,5.348,3.518c0.322-0.71,0.598-1.359,0.906-1.991
			c0.723-1.477,1.748-2.661,3.268-3.381c1.105-0.524,1.92-0.301,2.767,1.051c-2.11-0.246-3.229,0.819-4.062,2.227
			c-1.272,2.153-2.147,4.45-2.167,7.001c-0.073,9.916-0.164,19.831-0.216,29.747c-0.184,35.023-0.363,70.046-0.525,105.069
			c-0.069,15.435-0.114,30.87-0.132,46.305c-0.015,13.989,0.055,27.978,0.03,41.967c-0.029,17.428-0.147,34.855-0.172,52.282
			c-0.028,19.518,0.006,39.035,0.012,58.553c0.007,22.477-0.007,44.953,0.026,67.428c0.011,7.836,0.144,15.67,0.197,23.504
			c0.012,1.596-0.119,3.191-0.111,4.787c0.005,1.004,0.146,2.008,0.231,3.107c2.221-0.055,3.988-0.742,5.659-1.652
			c0.41-0.225,0.73-0.848,0.836-1.342c0.183-0.852,0.212-1.744,0.219-2.621c0.129-14.393,0.278-28.787,0.35-43.182
			c0.075-15.277,0.06-30.557,0.104-45.835c0.041-14.396,0.104-28.789,0.168-43.185c0.117-26.467,0.246-52.936,0.359-79.402
			c0.049-11.597,0.055-23.195,0.104-34.792c0.082-18.552,0.229-37.104,0.271-55.656c0.069-29.197,0.084-58.394,0.105-87.591
			c0.01-12.559-0.024-25.117-0.037-37.675c-0.004-2.854-0.001-5.709-0.001-9.087c0.646,0.634,1.191,0.913,1.273,1.292
			c0.334,1.555,0.742,3.141,0.735,4.713c-0.04,9.675-0.204,19.349-0.29,29.023c-0.074,8.316-0.111,16.632-0.146,24.948
			c-0.069,16.957-0.123,33.914-0.188,50.871c-0.102,25.589-0.224,51.178-0.308,76.767c-0.052,15.915-0.065,31.83-0.069,47.745
			c-0.003,20.312,0.024,40.624,0.035,60.936c0.013,28.557,0.02,57.113,0.03,85.67c0.009,17.361-0.049,34.727,0.088,52.088
			c0.029,3.662-0.139,7.311-0.146,10.965c-0.025,10.477,0.037,20.953,0.003,31.43c-0.009,2.953-0.154,5.91-0.379,8.855
			C27.713,488.292,27.252,489.962,25.263,490.677z M2.56,456.673c0.466,0.219,0.912,0.516,1.401,0.645
			c2.31,0.609,4.612,1.271,6.953,1.736c5.209,1.039,10.147-0.135,14.952-2.084c0.354-0.145,0.558-0.66,0.83-1.004
			c-0.111-0.141-0.225-0.281-0.338-0.422c-1.396,0.467-2.768,1.043-4.193,1.377c-2.704,0.631-2.719,0.572-4.514-0.039
			c3.345-0.705,6.611-0.879,9.052-3.254c0-3.273,0-6.523,0-10.061c-0.861,0.311-1.509,0.551-2.158,0.775
			c-1.053,0.365-2.088,0.807-3.167,1.068c-5.956,1.451-11.718,0.719-17.329-1.619c-0.473-0.197-1.008-0.244-1.87-0.443
			c0,3.352-0.056,6.455,0.049,9.555c0.021,0.586,0.546,1.436,1.063,1.67c1.354,0.613,2.824,0.982,4.265,1.393
			c0.688,0.193,1.415,0.236,2.118,0.377c0.782,0.156,1.556,0.357,2.336,0.521c0.606,0.127,1.219,0.225,1.829,0.336
			C9.978,458.316,6.365,456.81,2.56,456.673z"/>
		<path d="M5.178,4.73c-2.521-0.663-3.07-0.381-3.631,2.159C1.326,7.89,1.33,8.953,1.328,9.988
			C1.31,19.904,1.314,29.82,1.307,39.736c-0.02,30.225-0.051,60.449-0.062,90.674c-0.009,22.31-0.007,44.62,0.02,66.929
			c0.016,13.514,0.107,27.028,0.124,40.542c0.007,5.676-0.092,11.351-0.148,17.027c-0.005,0.396-0.062,0.787-0.314,1.186
			c-0.128-2.594-0.359-5.188-0.369-7.78c-0.114-30.388-0.209-60.775-0.279-91.162c-0.055-22.952-0.077-45.902-0.09-68.853
			C0.181,76.145,0.241,63.991,0.246,51.837c0.005-12.712-0.011-25.425-0.041-38.138c-0.004-1.675-0.286-3.359-0.183-5.022
			c0.088-1.408,0.469-2.816,0.872-4.179C1.18,3.532,1.886,2.759,3.013,2.909c1.048,0.139,2.051,0.516,2.126,1.857L5.178,4.73z"/>
		<path d="M5.139,4.766c1.839,0.727,1.608,2.567,2.312,4.42C8.93,6.523,9.704,3.62,12.55,2.266c-0.28,0.524-0.535,1.064-0.846,1.57
			c-1.778,2.891-2.8,6.031-3.651,9.32c-0.965,3.723-0.74,7.416-0.758,11.149C7.229,38.298,7.09,52.291,7.032,66.283
			c-0.034,8.315,0.069,16.63,0.042,24.946c-0.035,10.072-0.169,20.144-0.214,30.215c-0.028,6.477,0.032,12.954,0.031,19.431
			c0,0.932-0.121,1.864-0.607,2.84c-0.051-0.476-0.144-0.951-0.145-1.426c-0.019-8.795-0.046-17.589-0.034-26.384
			C6.133,96.074,6.19,76.242,6.216,56.41C6.23,46.094,6.205,35.778,6.192,25.462c-0.006-4.314-0.121-8.631-0.003-12.941
			c0.073-2.675-0.568-5.208-1.011-7.79C5.178,4.73,5.139,4.766,5.139,4.766z"/>
		<path d="M21.863,461.828c1.104,0.068,2.323,1.166,2.291,2.061c-0.04,1.066-1.31,2.475-2.239,2.484
			c-1.145,0.012-2.067-1.186-1.938-2.512C20.106,462.564,20.849,461.763,21.863,461.828z M23.007,463.925
			c-0.484-0.227-0.832-0.512-0.975-0.432c-0.29,0.164-0.562,0.496-0.655,0.812c-0.046,0.156,0.329,0.434,0.513,0.656
			C22.202,464.673,22.515,464.382,23.007,463.925z"/>
		<path d="M13.282,464.101c1.091,0.027,1.685,0.469,1.261,1.637c-0.4,1.102-1.459,1.658-2.44,1.311
			c-1.024-0.363-1.663-1.223-1.417-2.182c0.206-0.803,0.883-1.783,1.604-2.086c1.135-0.48,1.26,0.447,1.033,1.357
			c-1.172,0.564-1.172,0.564-0.496,1.961C13.033,465.197,13.158,464.65,13.282,464.101z"/>
		<path d="M6.459,156.071c0.158,0.843,0.44,1.685,0.452,2.53c0.049,3.81,0.021,7.621-0.109,11.431
			c-0.794-1.526-0.907-11.052-0.309-13.99L6.459,156.071z"/>
		<path d="M6.469,464.138c-0.424,0.463-0.829,1.301-1.39,1.424c-0.837,0.186-1.468-0.52-1.608-1.412
			c-0.147-0.938,1.073-2.623,1.79-2.48C6.553,461.923,5.821,463.164,6.469,464.138z"/>
		<path d="M6.494,156.042c-0.67-3.454-0.177-6.909-0.166-10.364c0.689,1.496,0.681,8.288,0.134,10.392
			C6.459,156.071,6.494,156.042,6.494,156.042z"/>
		<path d="M6.299,185.674c0-1.252,0-2.504,0-3.756c0.106-0.004,0.215-0.009,0.322-0.013c0.055,1.243,0.109,2.487,0.165,3.729
			C6.624,185.648,6.462,185.662,6.299,185.674z"/>
		<path d="M6.704,171.932c0,0.705,0,1.41,0,2.115c-0.094,0.021-0.187,0.042-0.278,0.062c-0.076-0.385-0.199-0.768-0.215-1.155
			c-0.015-0.343,0.091-0.692,0.143-1.038C6.471,171.921,6.587,171.927,6.704,171.932z"/>
		<path d="M6.668,192.36c0.03,0.538,0.061,1.074,0.091,1.611c-0.137,0.008-0.273,0.016-0.41,0.024
			c-0.034-0.513-0.066-1.025-0.101-1.538C6.389,192.425,6.528,192.393,6.668,192.36z"/>
		<path d="M6.29,199.696c0.027-0.331,0.056-0.661,0.084-0.991c0.105,0.003,0.213,0.007,0.318,0.01c0,0.341,0,0.681,0,1.022
			C6.559,199.724,6.424,199.709,6.29,199.696z"/>
		<path d="M6.633,176.271c0.052,0.144,0.16,0.298,0.135,0.426c-0.02,0.099-0.207,0.165-0.318,0.246
			c-0.04-0.146-0.128-0.3-0.104-0.434C6.361,176.415,6.531,176.348,6.633,176.271z"/>
		<path d="M25.013,449.263c0.279,1.736-0.086,2.551-1.096,2.719c-1.094,0.182-2.226-0.652-2.283-1.865
			c-0.031-0.664,0.136-1.455,0.507-1.984c0.276-0.395,1.21-0.785,1.524-0.604c0.76,0.434,0.268,1.006-0.177,1.531
			c-0.241,0.289-0.256,0.77-0.534,1.707C23.927,450.056,24.431,449.689,25.013,449.263z"/>
		<path d="M14.801,452.074c0.402-0.48,0.812-0.971,1.284-1.531c0.803,0.74,0.713,1.402,0.052,2.072
			c-0.651,0.662-1.381,1.117-2.328,0.625c-0.888-0.463-1.177-1.289-1.063-2.211c0.128-1.045,0.672-1.725,1.819-1.643
			C15.301,450.291,13.437,451.142,14.801,452.074z"/>
		<path d="M6.093,449.224c0.695,0.18,1.235,0.568,0.899,1.324c-0.194,0.438-0.718,0.982-1.125,1.01
			c-0.639,0.045-1.466-0.125-1.924-0.529c-0.838-0.742-0.099-2.912,1.012-3.113c1.031-0.189,1.114,0.604,1.174,1.348
			c-0.714,0.029-1.17,0.27-0.639,1.227C5.692,450.068,5.893,449.646,6.093,449.224z"/>
		<line fill="none" stroke="#010101" stroke-miterlimit="10" x1="1.082" y1="158.607" x2="1.082" y2="366.607"/>
	</g>
</g>
</svg>
