<svg xmlns="http://www.w3.org/2000/svg" viewBox="0 0 103.44 150.42"><defs><style>.a,.b{fill:#fff;}.a{stroke:#000;stroke-miterlimit:10;stroke-width:0.91px;}</style></defs><title>front-6</title><path d="M.4.1l38,59.26a.49.49,0,1,1-.82.53h0L0,.33A.22.22,0,0,1,.1,0,.22.22,0,0,1,.4.1Z"/><path class="a" d="M33.24,68.11s5-5.61,7-7.19a39.87,39.87,0,0,1,6.5-4.23c1.74-.85,0-1.38-1.95-.79a20.4,20.4,0,0,0-7.45,4.73C35.56,62.65,30.93,70.22,33.24,68.11Z"/><path d="M47.4,56.21l45.85,75.67a.25.25,0,0,1-.42.26h0L47.22,56.32a.11.11,0,0,1,0-.15A.1.1,0,0,1,47.4,56.21Z"/><path class="b" d="M78.88,143.9c1.28,1.94,3,4.27,4.22,5.15s3.86.38,5.61.26a17.85,17.85,0,0,0,7.49-3.86c2.48-2.27,7-6.94,6.47-8.14-.7-1.46-3.46.63-6.62-1.66,0,0-2.5-2.79-3-3.65l-4.21-6.2s-5-3.28-10.87,2.09-3.64,7.64-2.39,9.85S78.88,143.9,78.88,143.9Z"/><path d="M79.64,143.39l.87,1.29c.29.43.59.81.89,1.22a14.31,14.31,0,0,0,.93,1.15c.16.18.31.39.48.55l.5.45.25.23,0,0h0l-.1-.06.09,0,.17.09a1.6,1.6,0,0,0,.32.15l.22,0a3.63,3.63,0,0,0,.6.08c.22,0,.47,0,.7,0,1,0,2-.16,3.05-.24l-.11,0c.46-.1,1-.26,1.47-.42s1-.35,1.46-.57a16.64,16.64,0,0,0,2.73-1.5c.44-.27.81-.63,1.23-.94s.8-.72,1.19-1.07c.78-.74,1.55-1.5,2.28-2.28A30.53,30.53,0,0,0,101,139.3a9.18,9.18,0,0,0,.83-1.25,2.15,2.15,0,0,0,.18-.49s0,0,0,0h0l.06.1h0l-.06-.08s-.1-.17-.09-.12,0,0,0,0a3.13,3.13,0,0,0-1.2-.06,11.55,11.55,0,0,1-1.73,0,6.32,6.32,0,0,1-1.77-.4,7.13,7.13,0,0,1-1.59-.86l-.1-.09h0c-.68-.77-1.35-1.55-2-2.35-.33-.38-.65-.84-1-1.29-.12-.16-.28-.41-.42-.61l-.43-.64-3.4-5.08.17.17a6.36,6.36,0,0,0-1.58-.65,7.39,7.39,0,0,0-1.74-.26,7.5,7.5,0,0,0-1.76.14,8.26,8.26,0,0,0-1.7.52,5.19,5.19,0,0,0-.81.38,6.31,6.31,0,0,0-.78.45l-.75.51-.7.58c-.48.37-.9.83-1.37,1.27s-.84.88-1.2,1.37a8.41,8.41,0,0,0-1,1.5,4.48,4.48,0,0,0-.52,1.63,3.62,3.62,0,0,0,.22,1.65,10.44,10.44,0,0,0,.83,1.61c.34.55.62,1.13.92,1.68l.89,1.68,1.77,3.35Zm-1.11.71-1.81-3.33-.91-1.67c-.31-.56-.59-1.11-.92-1.64a10.9,10.9,0,0,1-.93-1.75,4.53,4.53,0,0,1-.3-2.07,5.44,5.44,0,0,1,.59-2A9.74,9.74,0,0,1,75.31,130c.39-.53.84-1,1.28-1.49s.88-.91,1.4-1.33l.75-.63.81-.56a7,7,0,0,1,.85-.51,6,6,0,0,1,.89-.44,9.36,9.36,0,0,1,1.91-.61,8.62,8.62,0,0,1,2-.18,8.49,8.49,0,0,1,2,.27,7.33,7.33,0,0,1,1.93.77.47.47,0,0,1,.15.14l0,0,3.46,5,.44.63.45.65c.29.38.55.75.89,1.14.64.77,1.31,1.53,2,2.28l-.11-.1a5.69,5.69,0,0,0,1.28.67,4.89,4.89,0,0,0,1.41.3,10,10,0,0,0,1.54,0c.27,0,.56,0,.88,0a2.42,2.42,0,0,1,1.14.27,2.19,2.19,0,0,1,.35.29,1,1,0,0,1,.16.2l.06.08h0l.06.11,0,.05,0,.11a1.85,1.85,0,0,1,.06.44,3.09,3.09,0,0,1-.32,1.06,10.29,10.29,0,0,1-.95,1.49,32.86,32.86,0,0,1-2.16,2.56c-.75.81-1.52,1.6-2.31,2.37-.42.39-.77.76-1.23,1.14a16.17,16.17,0,0,1-1.36,1.07,15.87,15.87,0,0,1-1.45.91,16.32,16.32,0,0,1-1.52.77c-.51.25-1,.44-1.58.64s-1.07.36-1.67.5h-.11c-1,.08-2,.24-3.13.28-.28,0-.55,0-.85,0a5.1,5.1,0,0,1-.93-.13l-.52-.15A2.6,2.6,0,0,1,83,150l-.17-.09-.09,0-.1-.06h0l0,0,0,0-.33-.29-.65-.58c-.2-.2-.36-.41-.55-.61-.35-.41-.72-.81-1-1.24s-.66-.85-.95-1.28l-.88-1.27Z"/><path d="M33,68.21,56,106l15.83,26,5.22,8.56,2,3.22a.25.25,0,0,1-.08.34.25.25,0,0,1-.34-.08h0l-2-3.23-5.19-8.58-15.75-26L32.81,68.32a.11.11,0,0,1,0-.15A.1.1,0,0,1,33,68.21Z"/><polygon class="b" points="92.53 131.56 98.9 132.04 102.51 136.92 100.56 136.96 98.35 133.33 93.98 133.48 92.53 131.56"/><path d="M92.56,131.19l6.36.52h0a.31.31,0,0,1,.23.13l3.57,4.92a.27.27,0,0,1-.05.38.28.28,0,0,1-.16.05l-2,0a.26.26,0,0,1-.23-.12l-2.18-3.65.19.1-4.36.12a.18.18,0,0,1-.15-.07l-1.44-1.93-.06-.08a.24.24,0,0,1,.05-.34A.25.25,0,0,1,92.56,131.19Zm.49.77,1.08,1.4L94,133.3l4.36-.19a.22.22,0,0,1,.19.1l2.24,3.61-.23-.12,2-.05-.21.43-3.65-4.86.23.13Z"/><path d="M33,68.17l53,75.36a.37.37,0,0,1-.61.43h0L32.77,68.36a.16.16,0,0,1,0-.23A.16.16,0,0,1,33,68.17Z"/><path d="M47.44,56.17l52.63,76.57a.37.37,0,0,1-.61.42h0L47.17,56.35a.16.16,0,0,1,.27-.18Z"/><polygon class="b" points="85.63 143.23 86.16 144.03 98.58 133.05 98.05 132.26 85.63 143.23"/><path d="M85.87,143.16l.49.73-.35,0,12.46-10.93,0,.23-.53-.79.25,0Zm-.31,0,12.38-11a.17.17,0,0,1,.24,0v0l.54.79a.18.18,0,0,1,0,.23l-12.38,11a.24.24,0,0,1-.33,0l0,0-.54-.79a.08.08,0,0,1,0-.11Z"/><path d="M76.36,134.62l.61.95c.38.61,1,1.45,1.61,2.5l2.23,3.55c.8,1.3,1.67,2.69,2.58,4,.22.33.45.67.69,1a4.28,4.28,0,0,0,.36.43l.07.07,0,0a.08.08,0,0,0-.06,0c-.09,0,0,0,.07,0h.15a15,15,0,0,0,2.3,0,13.24,13.24,0,0,0,4-.9,7.74,7.74,0,0,0,.78-.36,5.17,5.17,0,0,0,.69-.37,8.76,8.76,0,0,0,1.06-.71c.28-.21.48-.42.62-.54l.22-.2a0,0,0,0,1,0,0,0,0,0,0,1,0,0l-.2.21c-.14.13-.32.35-.6.59a9.24,9.24,0,0,1-1,.79,5.38,5.38,0,0,1-.68.42,6.65,6.65,0,0,1-.79.4,12.72,12.72,0,0,1-4,1.07,15.29,15.29,0,0,1-2.37,0,1.58,1.58,0,0,1-.31,0,.72.72,0,0,1-.26-.19,5.41,5.41,0,0,1-.4-.47c-.25-.32-.48-.66-.72-1-1.81-2.73-3.43-5.58-4.66-7.71l-2-3.56a0,0,0,0,1,0,0Z"/><polygon class="b" points="79.05 143.17 85.41 143.64 89.39 149.08 87.84 149.38 84.86 144.93 79.44 144.73 79.05 143.17"/><path d="M79.07,142.8l6.36.52a.33.33,0,0,1,.24.13l3.94,5.47a.27.27,0,0,1-.05.38l-.11,0-1.56.29a.27.27,0,0,1-.27-.11l-2.94-4.47.17.1-5.42-.24a.18.18,0,0,1-.16-.13l-.39-1.57,0-.15a.21.21,0,0,1,.15-.26Zm.24.76.3,1.13-.16-.13,5.42.16a.22.22,0,0,1,.17.1l3,4.43-.27-.11,1.56-.31-.17.42-4-5.41.24.13Z"/></svg>