<svg xmlns="http://www.w3.org/2000/svg" viewBox="0 0 35.6 187.65"><defs><style>.a,.b{fill:#fff;}.a{stroke:#000;stroke-miterlimit:10;stroke-width:1.01px;}</style></defs><title>front-4</title><path d="M31.61.26,25.37,75.64a.54.54,0,0,1-1.08-.09h0L31.13.22a.24.24,0,0,1,.48,0Z"/><path class="a" d="M34.29,79.87s-8.16-1.64-11-1.75a49.79,49.79,0,0,0-8.9.48c-2.23.38-.7-1.22,1.55-1.92A25.49,25.49,0,0,1,26.06,76C29,76.63,37.78,80.23,34.29,79.87Z"/><path d="M13.68,78.6,8,173.1a.27.27,0,0,1-.54,0h0l6-94.49a.12.12,0,0,1,.13-.11A.12.12,0,0,1,13.68,78.6Z"/><path class="b" d="M28.59,174.35c-.26,2.49-.73,5.58-1.53,7.13s-3.74,2.78-5.59,3.79a23.24,23.24,0,0,1-9.71,1.43c-3.75-.38-10.9-1.52-11-2.92-.07-1.7,3.87-1.66,5.85-5.64a51.76,51.76,0,0,0,1.1-5.06l.95-8s3.38-6,12.22-5.11,7.83,4.28,7.74,7S28.59,174.35,28.59,174.35Z"/><path d="M29.59,174.48l-.23,1.76c-.08.59-.2,1.2-.3,1.8s-.27,1.2-.41,1.8a5,5,0,0,1-.28.91l-.36.92-.09.23v0h0l-.06.11,0,0,0,0-.06.09-.25.36a8.65,8.65,0,0,1-.81.82,13.33,13.33,0,0,1-1.6,1.08c-1.07.62-2.17,1.11-3.16,1.64h0l-.08,0c-.64.24-1.24.42-1.87.6s-1.24.33-1.88.44a18.26,18.26,0,0,1-1.91.31,17.12,17.12,0,0,1-1.94.15,15.25,15.25,0,0,1-2,0c-.66,0-1.27-.11-1.9-.19-1.25-.16-2.49-.35-3.73-.58a34.9,34.9,0,0,1-3.72-.87,9.16,9.16,0,0,1-1.9-.77,2.76,2.76,0,0,1-.52-.38,1.43,1.43,0,0,1-.48-.86v-.43s0-.07,0-.12a2.51,2.51,0,0,1,.08-.24,2,2,0,0,1,.44-.7A8,8,0,0,1,2.3,181.3a13.06,13.06,0,0,0,1.5-.93A7.17,7.17,0,0,0,5,179.22a7.53,7.53,0,0,0,.94-1.4l-.05.14c.28-1.06.55-2.13.79-3.19.05-.26.14-.54.17-.79l.13-.75L7,173l0-.25.05-.41.1-.82L8,165v0a.55.55,0,0,1,.07-.21A9.57,9.57,0,0,1,9.55,163a11.93,11.93,0,0,1,1.7-1.42,13,13,0,0,1,4-1.82l1.07-.24c.36-.06.72-.09,1.09-.14a16.49,16.49,0,0,1,2.18-.07c.71,0,1.47.08,2.15.2s1.4.23,2.12.37a15.4,15.4,0,0,1,2.09.65,6.38,6.38,0,0,1,1.94,1.2,4,4,0,0,1,1.2,2A7.5,7.5,0,0,1,29.2,166l-.06,1v1.05l0,2.1-.06,4.2Zm-1.45-.13V167l0-1.07a6.58,6.58,0,0,0-.11-1.94,3,3,0,0,0-.92-1.51,5.35,5.35,0,0,0-1.63-1,14.43,14.43,0,0,0-1.92-.57c-.66-.12-1.32-.26-2-.33s-1.34-.12-2-.16a15.25,15.25,0,0,0-2,.09c-.33,0-.67.08-1,.14l-1,.23A11.78,11.78,0,0,0,12,162.58a10.78,10.78,0,0,0-1.51,1.29,8.52,8.52,0,0,0-1.2,1.5l.08-.24-.74,6.6-.09.82,0,.41-.05.39-.13.89c0,.31-.11.56-.17.84-.23,1.1-.49,2.18-.76,3.26h0a.66.66,0,0,1-.05.14,9.05,9.05,0,0,1-1.12,1.71,8.62,8.62,0,0,1-1.47,1.4,14.29,14.29,0,0,1-1.65,1.06,7.6,7.6,0,0,0-1.37.89c0,.05-.1.14-.07.08l0,0a1,1,0,0,0,0,.11v.19c0,.12,0-.15,0-.13h0v0c0-.14-.06-.12,0-.08a1.27,1.27,0,0,0,.24.16,7.83,7.83,0,0,0,1.56.6,33.57,33.57,0,0,0,3.55.78c1.21.21,2.43.38,3.65.52.6.07,1.23.15,1.81.16a13.6,13.6,0,0,0,1.77,0,15.47,15.47,0,0,0,1.78-.16,16.46,16.46,0,0,0,1.77-.31c.59-.11,1.17-.28,1.75-.43s1.16-.36,1.68-.56l-.1,0c1.08-.59,2.13-1.08,3.1-1.65l.7-.44.63-.47c.15-.16.28-.25.44-.43l.25-.36.06-.09,0,0,0,0h0l-.06.1h0l.07-.18.27-.73a3.86,3.86,0,0,0,.23-.78c.11-.55.28-1.08.35-1.65s.19-1.12.26-1.69l.2-1.76Z"/><path d="M34.84,79.8l-3,47.29-2,32.51-.67,10.71-.3,4.06a.27.27,0,0,1-.54,0h0l.32-4.06.71-10.71c.58-8.86,1.36-20.68,2.14-32.5L34.6,79.78a.12.12,0,0,1,.13-.11A.12.12,0,0,1,34.84,79.8Z"/><polygon class="b" points="8.03 172.38 1.79 176.84 0.74 183.36 2.76 182.15 3.05 177.61 7.58 174.97 8.03 172.38"/><path d="M7.72,173.11l-5.72,4,.14-.23L1,183.41l-.45-.3,2-1.2-.14.23.34-4.54a.24.24,0,0,1,.12-.19l4.55-2.61-.1.14Zm.49-.69L7.78,175a.2.2,0,0,1-.1.14l-4.51,2.68.12-.19L3,182.17a.29.29,0,0,1-.14.23l-2,1.22a.3.3,0,0,1-.41-.1.31.31,0,0,1,0-.2l1-6.52a.34.34,0,0,1,.14-.23h0l6.21-4.51a.28.28,0,0,1,.38.06.28.28,0,0,1,0,.2Z"/><path d="M34.89,79.82l-13,98.81a.41.41,0,1,1-.81-.11h0L34.54,79.77a.18.18,0,0,1,.36,0Z"/><path d="M13.74,78.61,1.81,178.23a.41.41,0,0,1-.81-.1H1L13.38,78.57a.18.18,0,0,1,.36,0Z"/><polygon class="b" points="21.36 178.07 21.24 179.09 2.66 177.51 2.78 176.49 21.36 178.07"/><path d="M21.62,178.1l-.12,1a.26.26,0,0,1-.28.23L2.65,177.71a.19.19,0,0,1-.18-.21h0l.12-1a.19.19,0,0,1,.2-.17L21.36,178h.15a.12.12,0,0,1,.11.13Zm-.54.07L2.76,176.68l.2-.17-.11,1-.18-.21,18.58,1.51-.28.23Z"/><path d="M26.22,164.73s0,.46,0,1.26.08,1.94.07,3.31,0,3-.08,4.69-.18,3.54-.4,5.39a10.08,10.08,0,0,1-.29,1.42,1.23,1.23,0,0,1-.08.2.89.89,0,0,1-.15.26l-.15.15-.07,0-.14.1-.58.38a21.45,21.45,0,0,1-2.35,1.3,14.6,14.6,0,0,1-2.35.9,14.71,14.71,0,0,1-2.2.49,9.26,9.26,0,0,1-1.9.11,11.09,11.09,0,0,1-1.46-.12c-.4-.05-.71-.15-.92-.18l-.32-.07a0,0,0,0,1,0,0,0,0,0,0,1,0,0l.32.05c.21,0,.52.1.91.13a11.15,11.15,0,0,0,1.43,0,11.37,11.37,0,0,0,1.85-.21,14.4,14.4,0,0,0,2.13-.56,17.7,17.7,0,0,0,2.27-.94,20.89,20.89,0,0,0,2.28-1.3l.56-.38a.72.72,0,0,0,.38-.5,9.81,9.81,0,0,0,.26-1.33c.24-1.81.36-3.63.46-5.34s.18-3.3.23-4.67l.16-4.56a0,0,0,0,1,0,0A0,0,0,0,1,26.22,164.73Z"/><polygon class="b" points="28.03 173.82 21.8 178.28 20.67 185.52 22.42 184.79 23.05 179.05 28.47 175.43 28.03 173.82"/><path d="M28,174.36l-6,4.21.14-.23L21,185.56l-.41-.32,1.75-.72-.17.23.68-5.73a.25.25,0,0,1,.1-.17l5.44-3.58-.08.21Zm.22-.58.45,1.6a.19.19,0,0,1-.08.21l-5.39,3.66.1-.17-.6,5.74a.29.29,0,0,1-.17.23l-1.74.74a.3.3,0,0,1-.39-.16.31.31,0,0,1,0-.16l1.07-7.24a.34.34,0,0,1,.14-.23h0l6.2-4.51a.24.24,0,0,1,.33.05.24.24,0,0,1,0,.07Z"/></svg>