<svg xmlns="http://www.w3.org/2000/svg" viewBox="0 0 145.45 149.69"><defs><style>.a,.b{fill:#fff;}.a{stroke:#000;stroke-miterlimit:10;stroke-width:1.08px;}</style></defs><title>front-2</title><path d="M145.38.4,90.64,59.33a.54.54,0,0,1-.79-.73h0L145,.07a.24.24,0,0,1,.35.32Z"/><path class="a" d="M94.08,68.14a96.52,96.52,0,0,0-6.63-8,39.62,39.62,0,0,0-6.62-4.89c-1.83-1,.32-1.44,2.38-.67a20.43,20.43,0,0,1,7.62,5.48C92.49,62.3,96.3,70.51,94.08,68.14Z"/><path d="M80.36,54.84,13.24,130a.27.27,0,0,1-.4-.36h0l67.34-75a.12.12,0,0,1,.17,0A.12.12,0,0,1,80.36,54.84Z"/><path class="b" d="M26.93,143.27c-1.85,1.92-4.24,4.2-5.84,5s-4.5.09-6.48-.17a18.71,18.71,0,0,1-7.82-4.58C4.39,141,.09,135.79,1,134.59c1.09-1.46,3.84.92,7.91-1.21,0,0,3.41-2.7,4.17-3.55l6-6.11s6.43-3,12.05,3,2.68,8.21.8,10.4S26.93,143.27,26.93,143.27Z"/><path d="M27.7,144l-1.27,1.26c-.42.42-.9.83-1.34,1.25s-.93.81-1.42,1.2c-.25.19-.47.4-.74.58l-.84.54-.42.27-.1.07h0l-.12.05h0l-.05,0-.21.07c-.15,0-.26.1-.44.15l-.6.11a6,6,0,0,1-1.07.07c-.34,0-.65,0-1,0-1.27-.12-2.46-.38-3.58-.54h0l-.09,0c-.64-.19-1.2-.4-1.78-.63s-1.14-.48-1.68-.78a16.33,16.33,0,0,1-1.61-.92,16.34,16.34,0,0,1-1.53-1.08,16,16,0,0,1-1.4-1.26c-.46-.43-.83-.88-1.24-1.33-.79-.9-1.55-1.82-2.29-2.78a26.25,26.25,0,0,1-2.06-3,5.87,5.87,0,0,1-.75-2,1.84,1.84,0,0,1,.06-.81,1.09,1.09,0,0,1,.11-.25l.07-.12,0,0L.37,134l0,0,.16-.16a2.16,2.16,0,0,1,.7-.42,2.29,2.29,0,0,1,.64-.13,10.33,10.33,0,0,1,1.93.14,11.35,11.35,0,0,0,1.64.09A7.22,7.22,0,0,0,7,133.25a8.23,8.23,0,0,0,1.49-.58l-.12.08c.91-.72,1.83-1.45,2.71-2.19.22-.19.46-.37.65-.56l.6-.55c.25-.23.43-.42.65-.64l.62-.62,5-5,0,0a.58.58,0,0,1,.18-.12,9.83,9.83,0,0,1,2.17-.62,11.3,11.3,0,0,1,2.2-.17,10.79,10.79,0,0,1,2.19.27,10.23,10.23,0,0,1,2.09.7,13.45,13.45,0,0,1,1.92,1.08A14.71,14.71,0,0,1,31,125.76l.39.38.2.2.17.2.68.79a17.15,17.15,0,0,1,1.27,1.76,9,9,0,0,1,1,2,5.19,5.19,0,0,1,.2,2.32,5.24,5.24,0,0,1-.92,2.12,17.81,17.81,0,0,1-1.38,1.64c-.44.49-.88,1.06-1.33,1.58L30,140.36l-2.65,3.21ZM26.56,143l2.61-3.25,1.3-1.62c.44-.54.85-1.08,1.33-1.63a6.8,6.8,0,0,0,2-3.23,5.32,5.32,0,0,0-1.05-3.52,16,16,0,0,0-1.18-1.59l-.69-.78-.17-.19-.17-.16-.36-.34a13.68,13.68,0,0,0-1.52-1.26,12.2,12.2,0,0,0-1.72-.94,9,9,0,0,0-1.85-.59,9.49,9.49,0,0,0-1.93-.21,9.94,9.94,0,0,0-1.94.17,8.64,8.64,0,0,0-1.82.53l.2-.14-4.91,5-.61.63c-.2.2-.42.44-.6.61l-.68.65c-.23.23-.45.4-.68.6-.9.78-1.81,1.53-2.73,2.27l-.12.08a9.82,9.82,0,0,1-1.8.72,8.81,8.81,0,0,1-1.92.32,13,13,0,0,1-1.89-.07A9.7,9.7,0,0,0,2,134.94a.7.7,0,0,0-.22,0h0s0-.08,0,0l-.15.16,0,0h0l.08-.09h0l0,0s0,0,0,0,0,0,0,.07a4.58,4.58,0,0,0,.57,1.32,24.58,24.58,0,0,0,2,2.79c.72.91,1.47,1.79,2.25,2.66.39.42.78.88,1.19,1.25a14.31,14.31,0,0,0,2.62,2,14.29,14.29,0,0,0,1.47.81c.5.27,1,.47,1.54.69s1.07.4,1.56.53l-.12,0c1.24.16,2.38.4,3.49.48a8,8,0,0,0,.81,0,4.29,4.29,0,0,0,.71,0l.28,0a4.23,4.23,0,0,0,.4-.14l.21-.08.05,0h0l-.11,0h0l.08-.06.33-.22.66-.43c.22-.15.44-.36.66-.54.44-.37.88-.72,1.29-1.13s.84-.78,1.26-1.2l1.25-1.28Z"/><path d="M94.52,68.41,60.84,105.95,37.69,131.75l-7.63,8.5-2.93,3.2a.27.27,0,0,1-.4-.36h0l2.94-3.18,7.65-8.48,23.23-25.74L94.34,68.25a.12.12,0,0,1,.18.16Z"/><polygon class="b" points="13.71 129.41 6.32 129.41 1.23 134.2 3.46 134.4 6.7 130.8 11.67 131.29 13.71 129.41"/><path d="M13,129.81l-6.68,0,.24-.1-5.13,4.75-.18-.51,2.23.2-.23.09,3.27-3.57a.25.25,0,0,1,.2-.08l5,.54-.16.05Zm.83-.27-2,1.9a.2.2,0,0,1-.16.05l-5-.46.2-.08-3.21,3.63a.29.29,0,0,1-.23.09L1.2,134.5a.29.29,0,0,1-.27-.32A.3.3,0,0,1,1,134l5.05-4.83a.34.34,0,0,1,.24-.1h0l7.39-.05a.27.27,0,0,1,.19.47Z"/><path d="M94.56,68.46,19.41,142.86a.41.41,0,1,1-.57-.58h0L94.31,68.2a.18.18,0,1,1,.25.25Z"/><path d="M80.4,54.89l-75,75.69a.41.41,0,1,1-.58-.57h0L80.15,54.63a.18.18,0,0,1,.25.25Z"/><polygon class="b" points="19.33 142.06 18.57 142.84 6.49 130.49 7.25 129.71 19.33 142.06"/><path d="M19.52,142.24l-.77.78a.26.26,0,0,1-.37,0h0l-12-12.4a.19.19,0,0,1,0-.27l.77-.78a.19.19,0,0,1,.26,0h0l12,12.4.11.11A.11.11,0,0,1,19.52,142.24Zm-.46-.29L7.12,129.84h.27l-.76.79v-.27l12.13,12.3h-.37Z"/><path d="M31.68,133.87l-.76,1c-.49.64-1.16,1.58-2,2.65s-1.86,2.35-3,3.65-2.35,2.69-3.63,4c-.33.33-.66.65-1,1l-.54.47-.32.23-.2.11a1.11,1.11,0,0,1-.36.08,19.59,19.59,0,0,1-2.71-.22,14.32,14.32,0,0,1-4.57-1.49A9.09,9.09,0,0,1,11,144.3l-.6-.53-.46-.5a7.18,7.18,0,0,1-.58-.74l-.2-.27a0,0,0,0,1,0,0h0l.21.25a7.12,7.12,0,0,0,.62.7l.48.46.61.48a10.79,10.79,0,0,0,1.6,1,12.74,12.74,0,0,0,2.07.8,16.14,16.14,0,0,0,2.42.52,18.85,18.85,0,0,0,2.64.18,3.16,3.16,0,0,0,1.06-.77c.33-.31.66-.64,1-1,2.56-2.64,5-5.43,6.76-7.51l3-3.5a0,0,0,0,1,0,0A0,0,0,0,1,31.68,133.87Z"/><polygon class="b" points="26.89 142.5 19.5 142.5 13.88 147.84 15.6 148.27 19.88 143.88 26.13 144.09 26.89 142.5"/><path d="M26.5,142.9l-7-.05.24-.1-5.67,5.3-.13-.5,1.72.45-.27.08,4.32-4.36a.24.24,0,0,1,.18-.07l6.25.25L26,144Zm.56-.33-.75,1.6a.19.19,0,0,1-.18.11l-6.25-.16.18-.07-4.25,4.42a.28.28,0,0,1-.27.08l-1.73-.42a.29.29,0,0,1-.22-.36.32.32,0,0,1,.08-.15l5.59-5.38a.34.34,0,0,1,.24-.1h0l7.39-.05a.25.25,0,0,1,.23.35Z"/></svg>