<svg xmlns="http://www.w3.org/2000/svg" viewBox="0 0 62.15 184.2"><defs><style>.a,.b{fill:#fff;}.b{stroke:#000;stroke-miterlimit:10;stroke-width:1.05px;}</style></defs><title>front-5</title><path class="a" d="M46.88,167.9l13-2.44,1.83,8.45-1.27.27-1.69-7.08-11.28,1.78s-3.64.88-.8-1.81Z"/><path d="M46.95,167.49l12.86-2.36a.34.34,0,0,1,.39.26L62,173.85a.29.29,0,0,1-.22.35h0l-1.27.26a.29.29,0,0,1-.34-.22l-1.66-7.09.29.19-11.29,1.72h0a5.66,5.66,0,0,1-1,.14,2.11,2.11,0,0,1-.55,0,.65.65,0,0,1-.52-.42.88.88,0,0,1,.12-.61,2.76,2.76,0,0,1,.3-.44,8.73,8.73,0,0,1,.7-.74.18.18,0,0,1,.25,0,.17.17,0,0,1,0,.08Zm-.24.46-.23-.83.29.08a7.93,7.93,0,0,0-.66.71c-.19.23-.39.56-.35.73s.39.2.69.18a5.15,5.15,0,0,0,.95-.14h0l11.27-1.83A.25.25,0,0,1,59,167l1.73,7.07-.34-.21,1.27-.27-.23.35-1.87-8.44.39.26-13,2.49a.15.15,0,0,1-.18-.11Z"/><path d="M41.58,173.91,16.76,78a.17.17,0,0,1,.12-.21.17.17,0,0,1,.21.12l25.24,95.79a.39.39,0,0,1-.27.48.39.39,0,0,1-.48-.28h0Z"/><path class="a" d="M42,173.81l.11.42.79,3s1.05,6,3.63,6S57.6,181.6,57.6,181.6l3.74-7.87s-10.59,4.49-11.81-.23l-1.59-6.23s-2-8.67-4.84-7.32C43.1,160,36.48,158.46,42,173.81Z"/><path d="M43,173.55l.87,3.45h0l0,.07c.06.33.14.71.23,1.06s.19.71.3,1.06a10.06,10.06,0,0,0,.83,1.94,3.43,3.43,0,0,0,.55.74,1.36,1.36,0,0,0,.54.37h.11s.1,0,0,0h.15l.58-.05,1.16-.1c.39,0,.78-.06,1.16-.12l1.13-.16,2.26-.33,4.58-.77-.63.48,3.8-7.84,1,1.09a32.81,32.81,0,0,1-3.54,1.18,21.63,21.63,0,0,1-3.7.7,10.62,10.62,0,0,1-2,0,5.3,5.3,0,0,1-2-.58A3.17,3.17,0,0,1,49,174.06a9.25,9.25,0,0,1-.27-1l-.22-.88-.87-3.52L47.18,167c-.15-.57-.31-1.14-.5-1.71A18.37,18.37,0,0,0,45.34,162a5.15,5.15,0,0,0-1-1.28.91.91,0,0,0-1-.25h0a.6.6,0,0,1-.37,0,2.21,2.21,0,0,0-.75,0,1.89,1.89,0,0,0-.7.3,2.43,2.43,0,0,0-.55.56,3.93,3.93,0,0,0-.35.79,4.21,4.21,0,0,0-.2.89,7.45,7.45,0,0,0-.08.94v1c0,.32.07.65.1,1s.06.65.13,1l.19,1c.11.65.29,1.29.46,1.93s.33,1.29.55,1.92l.61,1.9Zm-1.45.42L40.87,172c-.23-.64-.41-1.29-.59-1.95s-.37-1.31-.5-2l-.21-1c-.07-.33-.1-.68-.15-1s-.1-.68-.12-1l0-1.05a8.79,8.79,0,0,1,.08-1.07,5.2,5.2,0,0,1,.22-1.08A4.88,4.88,0,0,1,40,160.8a3.54,3.54,0,0,1,.83-.89,3.05,3.05,0,0,1,1.13-.5,3.25,3.25,0,0,1,1.25,0l-.38,0a1.94,1.94,0,0,1,1.27-.15,2.46,2.46,0,0,1,1,.55,6.21,6.21,0,0,1,1.25,1.58,19.1,19.1,0,0,1,1.5,3.44c.2.58.38,1.17.55,1.77l.46,1.76.93,3.51.23.88a7.46,7.46,0,0,0,.23.79,1.72,1.72,0,0,0,.86,1,5.82,5.82,0,0,0,3.13.36,20.23,20.23,0,0,0,3.42-.7A31.2,31.2,0,0,0,61,173a.81.81,0,0,1,1.06.43.8.8,0,0,1,0,.66L58.39,182a.87.87,0,0,1-.63.48l-4.61.85-2.36.38-1.18.19c-.39.07-.77.09-1.16.14l-1.16.12-.58.06-.14,0a1.8,1.8,0,0,1-.29,0l-.46-.06a3.25,3.25,0,0,1-1.42-.85,5.31,5.31,0,0,1-.86-1.11,12.06,12.06,0,0,1-1-2.33c-.13-.39-.25-.78-.35-1.18s-.2-.78-.28-1.21l0,.08-.93-3.45Z"/><path d="M.45.17,20.38,75a.52.52,0,0,1-1,.27h0L0,.29A.23.23,0,0,1,.17,0,.23.23,0,0,1,.45.17Z"/><path class="b" d="M16.92,78a6.47,6.47,0,0,1,1.71-1.42c.95-.48,1-1.1,1.73-1.29s.66.42,1.75.39,1.5.25,2.31.26c0,0,.89.31-.18.56l-6.3,1.72S16.34,78.55,16.92,78Z"/><path d="M47.69,167.34l-23.09-91a.12.12,0,0,1,.22-.06L48.2,167.21a.26.26,0,0,1-.19.32.26.26,0,0,1-.32-.19Z"/><path d="M24.82,76.31l35.13,89.32a.26.26,0,1,1-.49.19h0L24.61,76.4a.12.12,0,0,1,.06-.15A.11.11,0,0,1,24.82,76.31Z"/><path d="M42.43,166.28s.09,1,.34,2.52a36.86,36.86,0,0,0,1.28,5.42,14,14,0,0,0,2.56,4.8,5.76,5.76,0,0,0,.76.65,5,5,0,0,0,.69.36,2.5,2.5,0,0,0,.48.16l.18,0a0,0,0,0,1,0,0,0,0,0,0,1,0,0h-.19a2.61,2.61,0,0,1-.52-.07,3.25,3.25,0,0,1-.79-.27,4.89,4.89,0,0,1-.9-.61,7,7,0,0,1-.86-.94,8.38,8.38,0,0,1-.75-1.2,16.07,16.07,0,0,1-1.07-2.84,33.76,33.76,0,0,1-1.06-5.52c-.17-1.52-.21-2.54-.21-2.54a0,0,0,0,1,.05,0Z"/><path class="a" d="M54.23,172.48c-.1.13.06.36.35.51h0c.3.15.61.17.7,0l4.54-6.2c.1-.13-.06-.36-.36-.51h0c-.29-.15-.61-.16-.7,0Z"/><path d="M54.49,172.6l0,0a.13.13,0,0,0,0-.09s0,0,0,0a.57.57,0,0,0,.29.21.59.59,0,0,0,.27.07h0s0,0,0,0l.15-.2.7-.93,3.73-5,0,0s0,0,0,0,0,0,0,0a.39.39,0,0,0-.09-.1.91.91,0,0,0-.31-.17.62.62,0,0,0-.3,0s0,0-.06,0l-.12.17-1,1.32L56,170.27l-1.7,2.28Zm-.37-.19,1.66-2.31,1.7-2.37,1-1.34.12-.17a.55.55,0,0,1,.27-.19,1,1,0,0,1,.54,0,1.35,1.35,0,0,1,.43.24.78.78,0,0,1,.18.22.44.44,0,0,1,.06.19.47.47,0,0,1,0,.14l0,0L56.34,172l-.68.95-.15.21a.86.86,0,0,1-.23.16,1,1,0,0,1-.18,0,1.18,1.18,0,0,1-.53-.1,1.1,1.1,0,0,1-.6-.49.64.64,0,0,1-.06-.18.58.58,0,0,1,0-.22l0,0Z"/><path class="a" d="M41.56,174.47l14.25-3,1.82,9.75-1.4.33-1.7-8.17-12.38,2.23s-4,1.07-.83-2.08Z"/><path d="M41.64,174l14.1-2.93a.33.33,0,0,1,.4.26h0l1.78,9.76a.3.3,0,0,1-.23.34l-1.39.33a.29.29,0,0,1-.35-.21h0l-1.66-8.18.29.2L42.2,175.78h0a5.79,5.79,0,0,1-1.15.17,2.07,2.07,0,0,1-.62-.06.8.8,0,0,1-.32-.16.54.54,0,0,1-.19-.36,1.13,1.13,0,0,1,.17-.64,3.55,3.55,0,0,1,.33-.49,10.1,10.1,0,0,1,.77-.85.18.18,0,0,1,.25,0,.22.22,0,0,1,0,.09Zm-.25.46-.23-1,.3.08a8.92,8.92,0,0,0-.73.82,3.29,3.29,0,0,0-.29.44.78.78,0,0,0-.12.42c0,.1.09.16.24.21a1.74,1.74,0,0,0,.5,0,5.4,5.4,0,0,0,1.06-.17h0l12.36-2.29a.25.25,0,0,1,.29.2l1.73,8.17-.35-.22,1.39-.34-.22.34-1.86-9.74.4.27-14.24,3.08a.17.17,0,0,1-.2-.12Z"/><path d="M17.08,77.9l38.61,93.44a.39.39,0,0,1-.72.3h0L16.76,78a.17.17,0,0,1,.32-.13Z"/></svg>