<svg xmlns="http://www.w3.org/2000/svg" viewBox="0 0 82.76 177.24"><defs><style>.a,.b{fill:#fff;}.b{stroke:#000;stroke-miterlimit:10;stroke-width:1.05px;}</style></defs><title>front-3</title><path class="a" d="M15.87,161,3.28,157,.44,165.17l1.22.42,2.54-6.83,11,3.14s3.5,1.31,1-1.7Z"/><path d="M15.75,161.37l-12.58-4,.42-.21L.72,165.26l-.18-.37,1.22.43-.36.17L4,158.67a.25.25,0,0,1,.31-.15l11,3.19h0a5.36,5.36,0,0,0,.93.25c.29.06.68,0,.71-.1s-.09-.51-.25-.76a7.65,7.65,0,0,0-.57-.79l.3,0-.32.8-.09.22A.15.15,0,0,1,15.75,161.37Zm.1-.79.18-.45a.18.18,0,0,1,.23-.1.17.17,0,0,1,.07.05,8,8,0,0,1,.61.82,2.85,2.85,0,0,1,.25.47.87.87,0,0,1,0,.63.65.65,0,0,1-.56.35,2.15,2.15,0,0,1-.55,0,5.57,5.57,0,0,1-1-.26h0L4.13,159l.31-.16-2.5,6.84a.29.29,0,0,1-.36.17l-1.23-.41a.29.29,0,0,1-.18-.37h0L3,156.89a.34.34,0,0,1,.42-.21Z"/><path d="M19.68,167.32l36.69-92a.17.17,0,0,1,.32.13L20.4,167.6a.39.39,0,1,1-.73-.29Z"/><path class="a" d="M20,167.46l-.16.4-1.15,2.91s-1.78,5.84-4.33,5.5-10.83-3-10.83-3L.81,165s10,5.75,11.75,1.2l2.33-6s3.08-8.35,5.7-6.68C20.59,153.57,27.33,152.89,20,167.46Z"/><path d="M21,167.84l-1.34,3.31,0-.08c-.14.42-.27.79-.43,1.17s-.32.76-.5,1.13a11.86,11.86,0,0,1-1.32,2.18,5.4,5.4,0,0,1-1,1,3.25,3.25,0,0,1-1.51.67H14.5a1.79,1.79,0,0,1-.29,0l-.14,0-.57-.13-1.14-.26c-.38-.09-.76-.16-1.14-.27l-1.15-.33-2.29-.66-4.47-1.4a.87.87,0,0,1-.57-.56L0,165.29a.81.81,0,0,1,.52-1,.83.83,0,0,1,.65.06,31.14,31.14,0,0,0,3.16,1.57A20.23,20.23,0,0,0,7.67,167a5.85,5.85,0,0,0,3.15,0,1.73,1.73,0,0,0,1-.84,7.92,7.92,0,0,0,.32-.76l.34-.84,1.34-3.37.68-1.69q.35-.86.75-1.69a19.42,19.42,0,0,1,1.9-3.23,6.22,6.22,0,0,1,1.43-1.42,2.49,2.49,0,0,1,1.1-.42,1.94,1.94,0,0,1,1.24.3l-.37-.09a3.26,3.26,0,0,1,1.24.18,3,3,0,0,1,1.06.64,3.52,3.52,0,0,1,.72,1,4.8,4.8,0,0,1,.33,1.1A5.4,5.4,0,0,1,24,157a8.56,8.56,0,0,1-.06,1.07l-.16,1c-.06.35-.16.67-.24,1s-.16.68-.27,1l-.33,1c-.21.65-.47,1.28-.74,1.91s-.52,1.26-.82,1.86l-.88,1.83Zm-1.39-.59.84-1.82c.29-.6.54-1.22.78-1.83s.5-1.23.69-1.86l.31-.94c.11-.31.16-.64.24-1s.17-.64.21-1l.13-1a7.43,7.43,0,0,0,0-.94,4.28,4.28,0,0,0-.09-.91,3.8,3.8,0,0,0-.25-.82,2.41,2.41,0,0,0-.48-.62,1.87,1.87,0,0,0-.66-.39,2.22,2.22,0,0,0-.75-.11.61.61,0,0,1-.36-.08h0a.9.9,0,0,0-1.05.13,5.06,5.06,0,0,0-1.11,1.15,18.35,18.35,0,0,0-1.72,3q-.37.81-.7,1.63L15,161.71l-1.29,3.39-.32.85a8.82,8.82,0,0,1-.38.91,3.18,3.18,0,0,1-1.68,1.52,5.27,5.27,0,0,1-2.07.33,10.34,10.34,0,0,1-1.94-.24,21.54,21.54,0,0,1-3.58-1.14,32.74,32.74,0,0,1-3.37-1.61l1.17-1L4.4,173l-.57-.56,4.46,1.32,2.2.6,1.1.3c.36.11.76.17,1.13.26l1.14.24.57.12.14,0c-.09,0,0,0,0,0h.12a1.39,1.39,0,0,0,.58-.3,3.45,3.45,0,0,0,.63-.67A9.94,9.94,0,0,0,17,172.52c.15-.33.3-.67.43-1s.26-.7.36-1l0-.07h0l1.28-3.32Z"/><path d="M82.74.31,54.43,72.4a.52.52,0,0,1-1-.38h0L82.31.14a.23.23,0,0,1,.43.17Z"/><path class="b" d="M56.52,75.36A6.46,6.46,0,0,0,55,73.74c-.88-.59-.82-1.21-1.56-1.49s-.71.34-1.79.18-1.52.06-2.32,0c0,0-.92.2.11.58l6,2.47S57,76,56.52,75.36Z"/><path d="M14.65,160.16,48.88,72.78a.11.11,0,1,1,.21.08l-34,87.49a.26.26,0,1,1-.49-.19Z"/><path d="M49.09,72.87,3.64,157.41a.26.26,0,1,1-.46-.25h0l45.71-84.4a.11.11,0,0,1,.16,0A.12.12,0,0,1,49.09,72.87Z"/><path d="M20.53,159.94s-.16,1-.51,2.5a33.85,33.85,0,0,1-1.73,5.35,15.89,15.89,0,0,1-1.41,2.69,8.23,8.23,0,0,1-.89,1.1,7.21,7.21,0,0,1-1,.83,4.9,4.9,0,0,1-1,.49,3.21,3.21,0,0,1-.81.17,2.55,2.55,0,0,1-.53,0h-.18a0,0,0,0,1,0,0s0,0,0,0l.18,0a2.39,2.39,0,0,0,.5-.1,4.71,4.71,0,0,0,.73-.27,6,6,0,0,0,.83-.55,14.06,14.06,0,0,0,3.13-4.45,37,37,0,0,0,1.93-5.23c.43-1.46.64-2.46.64-2.46a0,0,0,0,1,0,0A0,0,0,0,1,20.53,159.94Z"/><path class="a" d="M8,164.66c.08.14-.11.35-.42.46h0c-.31.11-.62.09-.7-.05l-3.75-6.7c-.08-.14.11-.35.42-.46h0c.31-.11.63-.09.71.05Z"/><path d="M8.29,164.88a.56.56,0,0,1-.06.12,1.09,1.09,0,0,1-.65.41,1.18,1.18,0,0,1-.53,0,.75.75,0,0,1-.18-.05.83.83,0,0,1-.21-.19L6.54,165,6,164l-3-5.54v-.05a.46.46,0,0,1,0-.14A.44.44,0,0,1,3,158a.78.78,0,0,1,.21-.2,1.38,1.38,0,0,1,.46-.18,1,1,0,0,1,.54,0,.55.55,0,0,1,.25.23l.1.19.79,1.44,1.4,2.56,1.37,2.5ZM7.52,164l-1-1.79L5,159.71l-.82-1.43-.1-.18c-.06-.1,0,0-.05-.05a.64.64,0,0,0-.3,0,.92.92,0,0,0-.33.13.36.36,0,0,0-.1.09s0,0,0,0,0,0,0,0l0,.05,3.09,5.4.58,1,.12.22s0,0,0,0h0a.59.59,0,0,0,.28,0,.57.57,0,0,0,.32-.18s0,0,0,0a.11.11,0,0,0,0,.09l0,0Z"/><path class="a" d="M20.35,168.16,6.57,163.43l-3,9.46,1.34.5,2.68-7.91,12,3.72s3.83,1.55,1.08-2Z"/><path d="M20.23,168.53,6.46,163.75l.43-.22-3,9.45-.18-.36,1.34.51-.37.18,2.71-7.9a.25.25,0,0,1,.31-.16l12,3.77h0a5.31,5.31,0,0,0,1,.3,1.76,1.76,0,0,0,.5,0c.16,0,.25-.08.26-.18a.82.82,0,0,0-.07-.44,3.24,3.24,0,0,0-.24-.48,9.44,9.44,0,0,0-.63-.9l.31,0-.34.92-.08.21A.16.16,0,0,1,20.23,168.53Zm.1-.8.2-.56a.18.18,0,0,1,.31,0,10,10,0,0,1,.66.94,3.5,3.5,0,0,1,.27.53,1.13,1.13,0,0,1,.09.66.54.54,0,0,1-.23.34.77.77,0,0,1-.34.12,2.08,2.08,0,0,1-.62,0,5.83,5.83,0,0,1-1.12-.31h0l-12-3.67.31-.16L5.2,173.48a.29.29,0,0,1-.36.18h0l-1.34-.49a.3.3,0,0,1-.18-.36l2.95-9.47a.34.34,0,0,1,.42-.22h0Z"/><path d="M56.67,75.44,7.39,163.71a.39.39,0,1,1-.68-.38h0L56.37,75.28a.17.17,0,0,1,.3.17Z"/></svg>