<svg xmlns="http://www.w3.org/2000/svg" viewBox="0 0 142.62 122.39"><defs><style>.a,.b{fill:#fff;}.b{stroke:#000;stroke-miterlimit:10;stroke-width:1.04px;}</style></defs><title>front-7</title><path class="a" d="M127,107.46l6.89-12.12,6.05,5.81-.65,1.21-5.18-4.75-6.19,10.24s-1.81,3.56-1.55-.93Z"/><path d="M126.75,107l6.81-11.87a.33.33,0,0,1,.45-.13l.07.05,6,5.84a.3.3,0,0,1,.05.35l-.66,1.2a.29.29,0,0,1-.39.12l-.06,0L133.9,97.8l.39-.06L128.06,108h0a6.25,6.25,0,0,1-.6.92,1.76,1.76,0,0,1-.43.41.56.56,0,0,1-.39.09.47.47,0,0,1-.32-.25,1.71,1.71,0,0,1-.17-.58c0-.19,0-.37,0-.55,0-.36,0-.72,0-1.08a.18.18,0,0,1,.19-.17.17.17,0,0,1,.11,0Zm.1.54-.62-.53.29-.12c0,.35,0,.7,0,1a2.5,2.5,0,0,0,.17.95c.08.11,0,.08.18,0a1.53,1.53,0,0,0,.33-.33,6.09,6.09,0,0,0,.54-.87h0l6.14-10.27a.25.25,0,0,1,.35-.09l0,0,5.2,4.72-.45.08.64-1.21.06.35-6.08-5.78.52-.08-6.84,12.14a.21.21,0,0,1-.28.08l0,0Z"/><path d="M127,116.61,55.71,53.88a.18.18,0,0,1,0-.24.17.17,0,0,1,.24,0L127.49,116a.39.39,0,0,1-.52.59Z"/><path class="a" d="M127.23,116.32l.31.27,2.26,2s4.15,4.32,5.77,2.31,6.16-10,6.16-10l-2.15-9.62s-4.17,12-7.68,8.93l-4.61-4.09S121,100.29,120,103.6C120,103.6,114.86,107.43,127.23,116.32Z"/><path d="M127.92,115.54l2.55,2.27h0l.06.06c.23.24.51.5.78.74s.55.47.83.69a9.94,9.94,0,0,0,.86.6,5.32,5.32,0,0,0,.86.42,1.48,1.48,0,0,0,.66.1c.1,0,.1-.05.18,0s.09-.06.15-.16l1.32-1.91c.45-.64.81-1.29,1.23-1.93l1.2-1.94,2.36-4-.09.62-2.08-9.63,1.54.09c-.42,1.15-.88,2.24-1.39,3.33a28.85,28.85,0,0,1-1.72,3.2,9.35,9.35,0,0,1-2.54,2.86,2.66,2.66,0,0,1-2.28.39,3.64,3.64,0,0,1-.55-.26c-.15-.11-.31-.23-.45-.34l-.66-.59-2.62-2.36-1.32-1.19c-.42-.38-.86-.76-1.31-1.11a15.65,15.65,0,0,0-2.83-1.86,3.56,3.56,0,0,0-1.42-.41c-.41,0-.57.16-.74.59v0a.6.6,0,0,1-.19.26,2.3,2.3,0,0,0-.48.61,2.9,2.9,0,0,0-.29.79l-.06.43c0,.15,0,.29,0,.44a4.76,4.76,0,0,0,.15.89c.09.3.22.59.32.88s.3.57.45.85a8.36,8.36,0,0,0,.54.82,6.56,6.56,0,0,0,.59.79l.65.76c.2.26.46.48.69.72a18.88,18.88,0,0,0,1.46,1.38c.52.43,1,.9,1.55,1.3l1.61,1.24Zm-1,1.15-1.65-1.23c-.56-.4-1.07-.87-1.6-1.3a20.25,20.25,0,0,1-1.54-1.4c-.24-.25-.51-.47-.73-.74l-.69-.79a7.58,7.58,0,0,1-.65-.83,10.24,10.24,0,0,1-.6-.88c-.17-.32-.36-.62-.52-.95s-.28-.68-.39-1a6.09,6.09,0,0,1-.2-1.11c0-.19,0-.39,0-.58l.07-.59a4.12,4.12,0,0,1,.39-1.13,3.24,3.24,0,0,1,.79-1l-.21.3a2.16,2.16,0,0,1,.64-1,1.9,1.9,0,0,1,1.18-.42,4.66,4.66,0,0,1,2,.5,16.93,16.93,0,0,1,3.1,2c.48.37.94.75,1.4,1.15l1.32,1.16,2.66,2.32.66.58.26.19a2.59,2.59,0,0,0,.25.11,1.25,1.25,0,0,0,1.07-.25,8.12,8.12,0,0,0,2.06-2.44,27.24,27.24,0,0,0,1.58-3c.47-1,.91-2.14,1.28-3.21a.8.8,0,0,1,1-.49.82.82,0,0,1,.52.58l2.23,9.6a.86.86,0,0,1-.09.62l-2.32,4-1.21,2c-.41.67-.8,1.38-1.24,2l-1.3,1.93a3.31,3.31,0,0,1-.66.66,2.54,2.54,0,0,1-.91.34,3.32,3.32,0,0,1-1.62-.16,7.23,7.23,0,0,1-1.23-.57,12.55,12.55,0,0,1-1.06-.7c-.33-.25-.66-.51-1-.77s-.6-.54-.91-.85l.06.06-2.59-2.24Z"/><path d="M.38.06l56,48.62a.52.52,0,1,1-.68.79h0L.08.4a.23.23,0,0,1,0-.32A.22.22,0,0,1,.38.06Z"/><path class="b" d="M55.83,53.75a9.91,9.91,0,0,1,.27-2.54c.33-1.14,0-1.69.36-2.44s.67-.15,1.35-1,1.1-.95,1.62-1.56c0,0,.75-.42.21.62l-3,6.34S55.79,54.71,55.83,53.75Z"/><path d="M127.11,106.31,59.8,46.45a.11.11,0,1,1,.15-.17l67.51,59.64a.26.26,0,0,1,0,.37.26.26,0,0,1-.37,0Z"/><path d="M59.94,46.27,134,95.48a.26.26,0,1,1-.29.43h0L59.81,46.46a.12.12,0,0,1,.13-.19Z"/><path d="M123.19,109.53s.6.75,1.58,1.8a34.56,34.56,0,0,0,3.83,3.58,16.2,16.2,0,0,0,2.31,1.51,9.26,9.26,0,0,0,1.14.52,4.14,4.14,0,0,0,1.07.27,3.27,3.27,0,0,0,.92,0,3.08,3.08,0,0,0,.68-.24,2,2,0,0,0,.41-.25l.14-.1a0,0,0,0,1,0,0,0,0,0,0,1,0,0l-.12.13a2.32,2.32,0,0,1-.36.34,2.36,2.36,0,0,1-.7.38,3.07,3.07,0,0,1-1,.15,4.58,4.58,0,0,1-1.2-.2,7,7,0,0,1-1.24-.51,14.4,14.4,0,0,1-2.32-1.67,31.67,31.67,0,0,1-3.7-3.78c-.93-1.11-1.48-1.88-1.48-1.88a0,0,0,0,1,0,0Z"/><path class="a" d="M134.31,105.7c0,.19.25.26.52.16h0c.28-.1.48-.33.47-.52l-.68-8.8c0-.19-.25-.26-.52-.16h0c-.27.1-.48.33-.47.52Z"/><path d="M134.4,105.16l.18.43,0,.05,0,.06a.08.08,0,0,0,0-.08s0,0,.08,0h0s0,0,0,0l0,0a.79.79,0,0,0,.16-.08s.13-.14.11-.13,0-.34,0-.52c0-.39-.06-.82-.09-1.3-.07-1-.14-2.07-.23-3.26l-.13-1.84c0-.31,0-.63-.06-.95l0-.48,0-.24v-.22h0l0,.06c0-.14-.28-.08-.49.08,0,0-.06.08-.1.11s0,0,0,.13l0,.47.13,1.84c.08,1.19.16,2.3.23,3.26C134.29,103.69,134.36,104.61,134.4,105.16Zm-.19.88,0-.33s-.11-1.27-.27-3.17c-.08-1-.18-2.06-.28-3.25-.05-.6-.1-1.21-.16-1.83l0-.47a.66.66,0,0,1,.06-.33,1,1,0,0,1,.43-.4.55.55,0,0,1,.14-.06l.15,0a.67.67,0,0,1,.35,0,.61.61,0,0,1,.2.17l0,.11c0,.14,0,0,0,.07h0v.22l0,.24,0,.48c0,.32.05.63.08.94.05.63.1,1.24.16,1.83.1,1.19.19,2.3.27,3.25l.11,1.3c0,.2,0,.35,0,.56a1.22,1.22,0,0,1,0,.23l-.1.15a1,1,0,0,1-.24.23,1.14,1.14,0,0,1-.19.11l0,0-.09,0-.11,0a.51.51,0,0,1-.22,0,.48.48,0,0,1-.23-.06A.46.46,0,0,1,134.21,106Z"/><path class="a" d="M127.36,117.19l7.36-13.6,6.8,6.92-.7,1.36L135,106.2l-6.62,11.47s-1.93,4-1.73-1.13Z"/><path d="M127.15,116.76l7.28-13.32a.34.34,0,0,1,.45-.14l.08.06,6.77,7a.3.3,0,0,1,.05.34l-.7,1.36a.29.29,0,0,1-.39.13l-.07-.05-5.79-5.7.4-.05-6.67,11.44h0a7.06,7.06,0,0,1-.65,1.05,1.73,1.73,0,0,1-.49.46.49.49,0,0,1-.45,0,.64.64,0,0,1-.28-.31,3.56,3.56,0,0,1-.22-1.25c0-.41,0-.81,0-1.21a.18.18,0,0,1,.18-.17.19.19,0,0,1,.11,0Zm.09.56-.7-.64.3-.12c0,.4,0,.79,0,1.18a3.39,3.39,0,0,0,.19,1.1.32.32,0,0,0,.1.13s.05,0,.12,0a1.41,1.41,0,0,0,.37-.36,6.09,6.09,0,0,0,.6-1h0l6.57-11.5a.25.25,0,0,1,.35-.09l.05,0,5.83,5.65-.46.08.69-1.36.05.34-6.83-6.9.53-.08-7.31,13.62a.22.22,0,0,1-.29.09l0,0Z"/><path d="M55.92,53.61l78.72,50.06a.39.39,0,0,1-.41.65h0L55.74,53.9a.17.17,0,0,1-.05-.24A.17.17,0,0,1,55.92,53.61Z"/></svg>