<svg xmlns="http://www.w3.org/2000/svg" viewBox="0 0 125.37 97.36"><defs><style>.a,.b{fill:#fff;}.a{stroke:#000;stroke-miterlimit:10;stroke-width:0.83px;}</style></defs><title>front-1</title><path d="M125.3.33,76.19,37a.41.41,0,1,1-.49-.66h0L125.08,0a.18.18,0,0,1,.25,0A.18.18,0,0,1,125.3.33Z"/><path class="a" d="M68.3,33.6s5.16,3.53,6.66,5A30.72,30.72,0,0,1,79,43.43c.84,1.33,1.2-.17.57-1.65A15.57,15.57,0,0,0,75,36.2C73.17,34.94,66.33,31.94,68.3,33.6Z"/><path d="M79.46,43.92,16.6,88.49a.21.21,0,0,1-.24-.34h0l63-44.39a.09.09,0,0,1,.11.15Z"/><path class="b" d="M5.32,78a20.78,20.78,0,0,0-4.21,3.92c-.71,1.14-.09,3.17.11,4.58A13.45,13.45,0,0,0,5,92.21c2.11,1.78,6.43,5,7.44,4.44,1.22-.71-.75-2.74,1-5.53,0,0,2.27-2.3,3-2.8l5.12-4s2.54-4.41-2.46-8.61-6.84-2.2-8.68-1S5.32,78,5.32,78Z"/><path d="M5.84,78.67l-1,.8c-.35.27-.65.54-1,.81s-.63.55-.93.84l-.45.43c-.13.15-.24.29-.36.44l-.18.22-.09.11,0,0h0l0-.09h0l0,.07a1.35,1.35,0,0,0-.18.51l0,.18v.27a3.76,3.76,0,0,0,0,.57c.06.79.25,1.62.39,2.53l0-.11a11.89,11.89,0,0,0,.46,1.16c.18.38.37.77.59,1.14a11.81,11.81,0,0,0,.69,1.08c.23.36.53.66.79,1s.6.59.89.89.68.58,1,.85C7.06,93,7.76,93.5,8.48,94a24,24,0,0,0,2.19,1.43,7.5,7.5,0,0,0,1.1.52L12,96l.15,0a0,0,0,0,0,0,0h0l-.08.05h0l.07-.05s.13-.09.1-.08a0,0,0,0,0,0,0,2.39,2.39,0,0,0,0-.92,8.66,8.66,0,0,1-.1-1.44,5.08,5.08,0,0,1,.26-1.5A6,6,0,0,1,13,90.79l.08-.1,1-.93c.31-.31.67-.62,1-.92l1-.91c.12-.11.33-.27.5-.4l.52-.4,4.19-3.24-.14.15a5.1,5.1,0,0,0,.47-1.34,5.67,5.67,0,0,0,.11-1.46,6,6,0,0,0-.25-1.45,7,7,0,0,0-.6-1.36A7.72,7.72,0,0,0,20,77.21a10.78,10.78,0,0,0-1.08-1.08c-.38-.31-.82-.69-1.23-1a13.19,13.19,0,0,0-1.29-.83A7,7,0,0,0,15,73.75a3.86,3.86,0,0,0-1.42-.14,5.82,5.82,0,0,0-2.66,1.28c-.46.32-.9.58-1.36.87l-1.35.85-2.71,1.7Zm-.71-1L7.81,76l1.34-.87c.44-.29.91-.58,1.32-.87a6.57,6.57,0,0,1,3-1.47,4.73,4.73,0,0,1,1.75.14,8,8,0,0,1,1.58.63,14.12,14.12,0,0,1,1.41.88c.47.32.84.64,1.29,1a11.93,11.93,0,0,1,1.19,1.17,8.72,8.72,0,0,1,1,1.35,8,8,0,0,1,.71,1.55,7,7,0,0,1,.31,1.69,6.72,6.72,0,0,1-.11,1.72,6.08,6.08,0,0,1-.57,1.67.42.42,0,0,1-.11.14l0,0L17.79,88l-.52.41c-.18.15-.33.25-.53.43l-.94.86c-.31.29-.63.56-.94.88l-.93.93.08-.1a4.8,4.8,0,0,0-.5,1.07,3.84,3.84,0,0,0-.18,1.15,7.46,7.46,0,0,0,.11,1.24c0,.23.07.46.08.73a1.93,1.93,0,0,1-.19,1,2.08,2.08,0,0,1-.23.3,1,1,0,0,1-.16.14l-.07.05h0l-.09.06h0l-.09,0a2.17,2.17,0,0,1-.36.1,3,3,0,0,1-.52,0l-.41-.1A8.66,8.66,0,0,1,10,96.62a25.15,25.15,0,0,1-2.34-1.48c-.75-.52-1.48-1.07-2.2-1.64-.36-.3-.71-.55-1.06-.88s-.71-.64-1-1-.64-.71-.9-1.11a13.05,13.05,0,0,1-.78-1.19c-.25-.4-.46-.83-.67-1.25A13.29,13.29,0,0,1,.5,86.74v-.11L.24,85.37A13.68,13.68,0,0,1,0,84a5.36,5.36,0,0,1,0-.74v-.38c0-.14.05-.31.08-.46a2.83,2.83,0,0,1,.25-.72l0-.08h0l.05-.1h0v0l0,0,.11-.15L.82,81c.15-.19.3-.39.46-.57L1.77,80c.32-.32.65-.64,1-.93s.68-.6,1-.87l1-.82Z"/><path d="M68.2,33.41,36.81,55.79,15.23,71.17,8.12,76.23l-2.68,2a.21.21,0,0,1-.24-.34h0L7.88,75.9l7.13-5L36.64,55.54,68.09,33.27a.09.09,0,0,1,.11.15Z"/><polygon class="b" points="16.83 87.87 16.8 93.08 12.78 96.48 12.63 94.9 15.65 92.76 15.25 89.24 16.83 87.87"/><path d="M17.14,87.87l-.07,5.21a.28.28,0,0,1-.1.2l-4,3.37a.23.23,0,0,1-.32,0,.24.24,0,0,1-.05-.13l-.14-1.58a.22.22,0,0,1,.09-.2l3-2.12-.07.17-.37-3.52a.16.16,0,0,1,.05-.13l1.59-1.35.06-.05a.21.21,0,0,1,.29,0A.22.22,0,0,1,17.14,87.87Zm-.62.45-1.17,1,.05-.13.42,3.52a.18.18,0,0,1-.08.17l-3,2.17.09-.2L13,96.46l-.37-.15,4-3.44-.1.2Z"/><path d="M68.23,33.45,6.06,83.79a.31.31,0,1,1-.39-.48h0L68.06,33.23a.14.14,0,0,1,.17.21Z"/><path d="M79.5,43.95,16.26,94.11a.31.31,0,0,1-.39-.49h0L79.33,43.73a.14.14,0,0,1,.17.22Z"/><polygon class="b" points="6.3 83.42 5.65 83.93 15.9 92.92 16.56 92.41 6.3 83.42"/><path d="M6.38,83.61l-.62.47v-.31l10.22,9h-.19l.66-.51v.22Zm0-.26,10.29,9a.14.14,0,0,1,0,.2l0,0L16,93a.15.15,0,0,1-.19,0L5.51,84.08a.2.2,0,0,1,0-.28l0,0,.65-.51a.06.06,0,0,1,.08,0Z"/><path d="M13.21,75.06l-.76.58c-.49.36-1.16.91-2,1.52l-2.86,2.1c-1.05.76-2.18,1.57-3.26,2.42a10.81,10.81,0,0,0-1.48,1.26s0,0,0-.05a.56.56,0,0,0,0,.11v.25l0,.49c0,.32,0,.64.1,1a9.81,9.81,0,0,0,1,3.28,8.76,8.76,0,0,0,.74,1.17,7.08,7.08,0,0,0,.71.81c.21.22.4.35.52.46l.19.16a0,0,0,0,1,0,0h0l-.2-.15c-.13-.1-.33-.23-.56-.43a7.67,7.67,0,0,1-1.59-1.94,9.58,9.58,0,0,1-1.15-3.35,6.42,6.42,0,0,1-.08-2,10.13,10.13,0,0,1,1.56-1.37c2.21-1.67,4.52-3.22,6.24-4.39L13.19,75h0A0,0,0,0,1,13.21,75.06Z"/><polygon class="b" points="5.96 78.08 5.93 83.28 1.46 87.04 1.1 85.81 4.78 82.96 4.63 78.55 5.96 78.08"/><path d="M6.28,78.08l-.07,5.21a.28.28,0,0,1-.1.21L1.6,87.22a.23.23,0,0,1-.32,0,.23.23,0,0,1,0-.09L.89,85.87A.22.22,0,0,1,1,85.64l3.7-2.82L4.6,83l-.11-4.41a.15.15,0,0,1,.1-.14l1.33-.47.12,0a.18.18,0,0,1,.23.11A.19.19,0,0,1,6.28,78.08Zm-.62.26-1,.36.1-.14L5,83a.19.19,0,0,1-.07.15L1.23,86l.08-.23L1.67,87l-.36-.11,4.45-3.79-.1.21Z"/></svg>