<svg xmlns="http://www.w3.org/2000/svg" viewBox="0 0 33.77 78.92"><defs><style>.a,.b{fill:#fff;}.b{stroke:#000;stroke-miterlimit:10;stroke-width:0.5px;}</style></defs><title>rear-2</title><path class="a" d="M8.26,71.89l-7.07-1-1,3.62.69.11.92-3,6.14.76s2,.38.43-.77Z"/><path d="M8.23,72.07,1.17,71l.18-.12-1,3.61-.12-.18.69.12-.16.1.93-3a.12.12,0,0,1,.14-.09l4.06.52,2,.26a4.78,4.78,0,0,0,.5.06.88.88,0,0,0,.44-.05c.07,0,0-.19-.15-.29a3.6,3.6,0,0,0-.38-.32l.13,0-.12.35,0,.12A.06.06,0,0,1,8.23,72.07Zm0-.38.06-.19a.09.09,0,0,1,.11-.05h0a3.86,3.86,0,0,1,.4.34A1,1,0,0,1,9,72a.25.25,0,0,1,0,.34,1,1,0,0,1-.56.09,4.65,4.65,0,0,1-.51-.06l-2-.24-4.07-.48.13-.09-.9,3a.14.14,0,0,1-.16.1L.17,74.6a.15.15,0,0,1-.12-.17v0L1,70.8a.16.16,0,0,1,.18-.12Z"/><path d="M10.76,74.36l13.73-41a.08.08,0,0,1,.16.05L11.12,74.48a.19.19,0,1,1-.36-.12Z"/><path class="a" d="M10.94,74.42l-.06.18-.43,1.3s-.57,2.57-2,2.56-6.05-.7-6.05-.7l-2-3.37s5.77,1.92,6.43-.1l.87-2.66s1.11-3.71,2.64-3.13C10.32,68.49,13.92,67.85,10.94,74.42Z"/><path d="M11.42,74.58,10.92,76v0a6.83,6.83,0,0,1-.43,1.22,4,4,0,0,1-.75,1.13,2,2,0,0,1-.63.44,1.62,1.62,0,0,1-.8.12l-1.19-.13-2.37-.26-2.39-.35a.42.42,0,0,1-.3-.2l-2-3.39A.39.39,0,0,1,.51,74a18.39,18.39,0,0,0,3.36.78,6.31,6.31,0,0,0,1.66,0,1.76,1.76,0,0,0,.68-.25c.07-.08.18-.12.21-.22A1.11,1.11,0,0,0,6.56,74l.56-1.68c.19-.55.36-1.12.6-1.69A7.66,7.66,0,0,1,8.6,69a2.72,2.72,0,0,1,.72-.68,1.3,1.3,0,0,1,1.09-.12h-.15a2,2,0,0,1,1,.13,1.58,1.58,0,0,1,.79.72,2.2,2.2,0,0,1,.19.49c0,.16,0,.33.07.49a4.35,4.35,0,0,1,0,.49,2.47,2.47,0,0,1-.05.47,5.68,5.68,0,0,1-.2.92,7.28,7.28,0,0,1-.28.89c-.19.59-.46,1.14-.69,1.71Zm-.68-.25c.22-.56.48-1.1.65-1.67a6.84,6.84,0,0,0,.25-.85,5.32,5.32,0,0,0,.17-.86,2.18,2.18,0,0,0,0-.43,3.74,3.74,0,0,0,0-.42c0-.13,0-.27-.06-.4a1.66,1.66,0,0,0-.15-.36.92.92,0,0,0-.23-.28.91.91,0,0,0-.31-.19,1.5,1.5,0,0,0-.74-.09h-.15a.73.73,0,0,0-.6.09,2.21,2.21,0,0,0-.55.54,7.13,7.13,0,0,0-.79,1.49c-.21.52-.37,1.08-.55,1.65L7.2,74.2a1.91,1.91,0,0,1-.21.48,1.3,1.3,0,0,1-.38.42,2.42,2.42,0,0,1-1,.38,6.94,6.94,0,0,1-1.86,0,19,19,0,0,1-3.53-.76l.46-.57,2.06,3.35-.3-.2,2.34.3,2.37.23L8.39,78a.68.68,0,0,0,.37-.05,1.12,1.12,0,0,0,.33-.25,4.44,4.44,0,0,0,.89-1.9h0v0l.48-1.48Z"/><path d="M33.76.15,23.2,32.26a.25.25,0,0,1-.48-.16h0L33.55.08a.11.11,0,0,1,.21.07Z"/><path class="b" d="M24.57,33.39a3.44,3.44,0,0,0-.93-.61c-.52-.21-.53-.47-.94-.55s-.36.18-1,.17-.82.1-1.26.11c0,0-.48.13.1.24l3.43.74S24.89,33.64,24.57,33.39Z"/><path d="M7.56,71.58l12.72-38.9a.06.06,0,1,1,.11,0L7.8,71.66a.13.13,0,0,1-.24-.08Z"/><path d="M20.38,32.72,1.39,71a.13.13,0,0,1-.23-.11h0L20.28,32.68a.06.06,0,0,1,.07,0A.05.05,0,0,1,20.38,32.72Z"/><path d="M10.71,71.2s0,.46-.13,1.15a11.32,11.32,0,0,1-.65,2.48,5.1,5.1,0,0,1-.65,1.22,2.83,2.83,0,0,1-.42.49,3,3,0,0,1-.46.35,2.25,2.25,0,0,1-.45.2,1,1,0,0,1-.37.08l-.32,0h0l.3-.09a1.24,1.24,0,0,0,.33-.13,2.59,2.59,0,0,0,.8-.58,4,4,0,0,0,.39-.46,6.29,6.29,0,0,0,.66-1.15,12,12,0,0,0,.75-2.41c.14-.68.19-1.14.19-1.14h0Z"/><path class="a" d="M4.26,73.85c.05.06,0,.15-.19.22h0c-.16.07-.33.07-.38,0L1.21,71.43c-.05-.06,0-.15.2-.22h0c.16-.06.33-.07.38,0Z"/><path d="M4.4,73.91a.3.3,0,0,1,0,.09.55.55,0,0,1-.31.21.82.82,0,0,1-.23,0,.39.39,0,0,1-.17,0,.36.36,0,0,1-.13-.11l-.37-.41-.94-1-.53-.58c-.19-.22-.34-.36-.57-.64v0a.26.26,0,0,1,0-.12c0-.06.07-.07.11-.1a.84.84,0,0,1,.21-.09.63.63,0,0,1,.24,0,.24.24,0,0,1,.15.05.46.46,0,0,1,.08.08l.53.58.94,1,.92,1Zm-.31-.15-.81-.85-1-1-.54-.57s-.05-.06-.06-.06h0a.43.43,0,0,0-.16,0c-.12,0-.24.12-.2.12s.36.37.54.55l.54.57,1,1,.38.4c.07.09.12,0,.25,0s.16-.1.15-.07a.05.05,0,0,0,0,.05s0,0,0,0v0Z"/><path class="a" d="M11.16,74.7,3.4,73.41l-1,4.17.76.14.92-3.5,6.74,1s2.18.46.45-.89Z"/><path d="M11.13,74.89,3.37,73.57l.18-.12-1,4.17-.11-.17.76.15-.16.1L4,74.19a.12.12,0,0,1,.14-.09l4.48.65,2.24.33a4.38,4.38,0,0,0,.55.08.75.75,0,0,0,.46-.07c.06,0-.08-.25-.2-.36a4.57,4.57,0,0,0-.41-.37l.13,0-.12.41,0,.12A.07.07,0,0,1,11.13,74.89Zm0-.38.07-.24a.09.09,0,0,1,.11-.06l0,0a4.7,4.7,0,0,1,.44.38,1.42,1.42,0,0,1,.19.23.31.31,0,0,1,0,.37.81.81,0,0,1-.62.14,4.45,4.45,0,0,1-.57-.07L8.55,75l-4.48-.62.14-.09-.91,3.5a.14.14,0,0,1-.16.1l-.76-.14a.14.14,0,0,1-.12-.17h0l1-4.18a.16.16,0,0,1,.18-.12Z"/><path d="M24.64,33.43,3.82,73.51a.19.19,0,0,1-.33-.17h0l21-40a.08.08,0,0,1,.11,0A.08.08,0,0,1,24.64,33.43Z"/></svg>