<svg xmlns="http://www.w3.org/2000/svg" viewBox="0 0 68.68 69.31"><defs><style>.a,.b{fill:#fff;}.a{stroke:#000;stroke-miterlimit:10;stroke-width:0.5px;}</style></defs><title>rear-1</title><path d="M68.65.2l-25.74,27a.27.27,0,1,1-.39-.37h0L68.48,0a.12.12,0,0,1,.17.16Z"/><path class="a" d="M44.7,31.88s-2.36-3.37-3.34-4.38a23.54,23.54,0,0,0-3.29-2.8c-.9-.6.13-.71,1.15-.22A12,12,0,0,1,43,27.63C43.85,28.84,45.82,33.19,44.7,31.88Z"/><path d="M37.85,24.46,6.33,59.09a.13.13,0,0,1-.2-.18h0L37.76,24.38a.06.06,0,0,1,.08,0A.06.06,0,0,1,37.85,24.46Z"/><path class="b" d="M13.17,66.49a12,12,0,0,1-2.77,2.24c-.79.34-2.19-.18-3.15-.41a10.7,10.7,0,0,1-3.87-2.71C2.19,64.2,0,61.36.43,60.8s1.88.66,3.83-.21a25,25,0,0,0,2-1.59l2.85-2.79S12.15,55,15,58.34s1.42,4.29.54,5.3S13.17,66.49,13.17,66.49Z"/><path d="M13.52,66.84c-.4.39-.82.79-1.27,1.17-.21.2-.46.37-.69.55a5.21,5.21,0,0,1-.79.5,1.13,1.13,0,0,1-.27.13l-.21.06a2.83,2.83,0,0,1-.55.06,5.25,5.25,0,0,1-.94-.11c-.59-.12-1.14-.3-1.66-.43H7.09a10.84,10.84,0,0,1-1.68-.87,10.3,10.3,0,0,1-1.51-1.13,7.6,7.6,0,0,1-.67-.67c-.23-.23-.4-.46-.6-.7-.38-.48-.75-1-1.11-1.46a18.27,18.27,0,0,1-1-1.55,5.66,5.66,0,0,1-.42-.89A1.34,1.34,0,0,1,0,60.83a1.09,1.09,0,0,1,.1-.25l.05-.06h0l0,0,0,0a.91.91,0,0,1,.38-.2,2.44,2.44,0,0,1,1.07.1,5.92,5.92,0,0,0,.84.15,3.12,3.12,0,0,0,1.58-.24l-.07,0c.43-.32.88-.64,1.26-1l.6-.5c.13-.11.21-.19.31-.29l.29-.28L8.85,56h0a.25.25,0,0,1,.1-.06,4.53,4.53,0,0,1,1.1-.21,5.92,5.92,0,0,1,1.09,0,5,5,0,0,1,1.05.26,5.57,5.57,0,0,1,1,.45l.9.6.76.75a5.86,5.86,0,0,1,.7.79,10.43,10.43,0,0,1,.61.87,4.32,4.32,0,0,1,.75,2,2.22,2.22,0,0,1-.26,1.12,4.26,4.26,0,0,1-.66.87c-.24.25-.44.5-.67.77l-.66.79-1.32,1.58ZM13,66.35l1.3-1.6L15,64c.21-.26.44-.54.67-.79a2.24,2.24,0,0,0,.77-1.64,3.84,3.84,0,0,0-.69-1.77,9.55,9.55,0,0,0-.59-.81,5.37,5.37,0,0,0-.67-.74l-.71-.69L12.9,57a5,5,0,0,0-.89-.39,4.37,4.37,0,0,0-.94-.22,5.32,5.32,0,0,0-1,0,4,4,0,0,0-.92.18l.11-.07L7,58.73,6.7,59c-.09.09-.2.21-.28.27l-.64.55c-.43.38-.86.7-1.3,1l-.06,0h0a3.87,3.87,0,0,1-1.95.33,6.5,6.5,0,0,1-.94-.16A2.08,2.08,0,0,0,.81,61c-.05,0,.05,0,0,0s0,0,0,0a1.2,1.2,0,0,0,.05.24A4.91,4.91,0,0,0,1.2,62a17.16,17.16,0,0,0,1,1.46c.35.48.72.95,1.1,1.41.19.22.38.47.58.67a7,7,0,0,0,.61.6,9.55,9.55,0,0,0,1.4,1,10,10,0,0,0,1.54.78l-.05,0c.58.14,1.11.3,1.63.41a4.48,4.48,0,0,0,.75.08c.1,0,.15,0,.29,0l.2-.06.11-.07A4.26,4.26,0,0,0,11,67.8c.21-.17.43-.32.63-.51.41-.36.81-.75,1.21-1.15Z"/><path d="M44.92,32,29.11,49.31,18.23,61.19l-3.58,3.92-1.38,1.47a.13.13,0,0,1-.19,0,.13.13,0,0,1,0-.19h0l1.38-1.46,3.6-3.9L29,49.18,44.84,32a.06.06,0,0,1,.08,0A.06.06,0,0,1,44.92,32Z"/><polygon class="b" points="6.55 58.82 2.96 58.45 0.56 60.61 1.64 60.82 3.16 59.17 5.58 59.67 6.55 58.82"/><path d="M6.22,59l-3.28-.36.13,0L.65,60.72l-.07-.25,1.08.21-.13,0,1.54-1.64a.12.12,0,0,1,.11,0l2.42.52-.08,0Zm.39-.1-1,.85a.1.1,0,0,1-.08,0l-2.43-.48.11,0L1.74,60.92a.14.14,0,0,1-.13,0l-1.08-.2a.15.15,0,0,1-.12-.17.16.16,0,0,1,0-.08l2.39-2.19a.18.18,0,0,1,.14,0l3.59.35a.13.13,0,0,1,.08.23Z"/><path d="M44.94,32.06,9.51,65.89a.2.2,0,1,1-.28-.29h0L44.82,31.93a.09.09,0,0,1,.13,0A.09.09,0,0,1,44.94,32.06Z"/><path d="M37.87,24.49,2.54,59a.2.2,0,0,1-.28-.29h0L37.74,24.36a.09.09,0,0,1,.13,0A.09.09,0,0,1,37.87,24.49Z"/><polygon class="b" points="9.46 65.49 9.1 65.85 3.06 59 3.42 58.64 9.46 65.49"/><path d="M9.56,65.59l-.36.36a.13.13,0,0,1-.18,0H9L3,59.06a.1.1,0,0,1,0-.13l.36-.35a.09.09,0,0,1,.13,0h0l6,6.87.05.06A.05.05,0,0,1,9.56,65.59Zm-.22-.15-6-6.73h.13l-.36.36v-.13L9.2,65.77H9Z"/><path d="M15.35,62s-.52.72-1.36,1.77a46.53,46.53,0,0,1-3.25,3.67,6,6,0,0,1-.53.45l-.15.11a.84.84,0,0,1-.3.08l-.33,0a10.19,10.19,0,0,1-1.29-.29A6.36,6.36,0,0,1,7,67.27a6.93,6.93,0,0,1-.95-.55,5,5,0,0,1-.71-.6,2.75,2.75,0,0,1-.46-.54l-.37-.49a0,0,0,0,1,0,0h0l.39.46a2.7,2.7,0,0,0,.49.5,6.29,6.29,0,0,0,.72.55,6.8,6.8,0,0,0,.94.51,7.36,7.36,0,0,0,1.12.41,9.88,9.88,0,0,0,1.25.27l.33,0a.62.62,0,0,0,.27-.15,5.68,5.68,0,0,0,.5-.44C11.82,66,13,64.63,13.87,63.64L15.33,62h0A0,0,0,0,1,15.35,62Z"/><polygon class="b" points="13.14 66.09 9.55 65.72 6.89 68.14 7.74 68.45 9.76 66.44 12.79 66.86 13.14 66.09"/><path d="M13,66.28,9.54,65.9l.13,0L7,68.25l0-.25.84.31-.15,0,2-2a.12.12,0,0,1,.1,0l3,.44-.1.05Zm.26-.14-.34.77a.1.1,0,0,1-.1.05l-3-.4.1,0-2,2a.14.14,0,0,1-.15,0l-.85-.3a.15.15,0,0,1-.09-.19.15.15,0,0,1,0-.06L9.44,65.6a.17.17,0,0,1,.14,0l3.59.34a.12.12,0,0,1,.1.13v0Z"/></svg>