<svg xmlns="http://www.w3.org/2000/svg" viewBox="0 0 75.39 76.03"><defs><style>.a,.b{fill:#fff;}.a{stroke:#000;stroke-miterlimit:10;stroke-width:0.54px;}</style></defs><title>rear-4</title><path d="M.22,0l28.5,29.43a.29.29,0,1,1-.42.41h0L0,.22A.13.13,0,0,1,0,0,.13.13,0,0,1,.22,0Z"/><path class="a" d="M26.32,35s2.59-3.7,3.66-4.81a25.79,25.79,0,0,1,3.61-3.08c1-.66-.15-.78-1.26-.24a13.14,13.14,0,0,0-4.15,3.46C27.26,31.64,25.1,36.41,26.32,35Z"/><path d="M33.94,26.75,68.67,64.62a.15.15,0,1,1-.22.2h0l-34.6-38a.07.07,0,0,1,0-.09A.06.06,0,0,1,33.94,26.75Z"/><path class="b" d="M60.94,72.94a13.15,13.15,0,0,0,3,2.46c.87.37,2.4-.2,3.46-.45a11.73,11.73,0,0,0,4.25-3c1.32-1.54,3.69-4.66,3.24-5.28s-2.06.72-4.2-.23c0,0-1.77-1.31-2.16-1.74l-3.12-3.06S62.06,60.35,59,64s-1.56,4.7-.59,5.82S60.94,72.94,60.94,72.94Z"/><path d="M61.31,72.55c.44.44.89.88,1.33,1.27.22.21.46.38.69.56a4.75,4.75,0,0,0,.7.46l.09.05,0,0h0l-.06,0h0l.23.06c.16.05.21,0,.32,0a4.8,4.8,0,0,0,.82-.09c.58-.11,1.16-.3,1.8-.45l-.06,0a11,11,0,0,0,1.69-.86,10.28,10.28,0,0,0,1.54-1.12,8,8,0,0,0,.67-.66c.22-.21.43-.49.64-.73.42-.5.82-1,1.21-1.54A19.24,19.24,0,0,0,74.09,68a5.53,5.53,0,0,0,.4-.81,1.4,1.4,0,0,0,.06-.26s.1.1,0,0,0,0,0,0a2.28,2.28,0,0,0-.78.1,7.24,7.24,0,0,1-1,.17,4.27,4.27,0,0,1-2.14-.36h0l-.06,0c-.48-.37-1-.71-1.43-1.13L68.35,65c-.09-.07-.21-.2-.31-.3l-.32-.31-2.54-2.52.12.08a4.4,4.4,0,0,0-1-.19,5.81,5.81,0,0,0-1.05,0,4.84,4.84,0,0,0-1,.25,5.61,5.61,0,0,0-1,.43l-.9.58-.78.76c-.13.13-.27.25-.39.38l-.36.44c-.24.29-.44.58-.64.89a4.2,4.2,0,0,0-.76,1.94,2.46,2.46,0,0,0,.84,1.8c.26.28.5.58.73.87l.71.88,1.42,1.75Zm-.56.54-1.44-1.74-.72-.87c-.25-.3-.48-.57-.73-.85a4.74,4.74,0,0,1-.72-1,2.44,2.44,0,0,1-.29-1.23,4.75,4.75,0,0,1,.83-2.23,11,11,0,0,1,.67-.95l.35-.44c.14-.15.27-.28.41-.42l.83-.82,1-.66A6.16,6.16,0,0,1,62,61.44a5.45,5.45,0,0,1,1.16-.29,6.52,6.52,0,0,1,1.19,0,5,5,0,0,1,1.21.23.3.3,0,0,1,.11.06h0l2.57,2.48.32.31c.11.11.2.2.34.32l.66.54c.42.37.91.72,1.39,1.07l-.07,0a3.45,3.45,0,0,0,1.74.27,6.51,6.51,0,0,0,.92-.17,2.68,2.68,0,0,1,1.17-.11,1,1,0,0,1,.41.22l0,0,0,0h0l.06.07a1.2,1.2,0,0,1,.11.28,1.44,1.44,0,0,1-.08.71,6.24,6.24,0,0,1-.46,1,20.08,20.08,0,0,1-1.12,1.7c-.39.55-.8,1.08-1.22,1.6-.22.26-.41.52-.66.77a8.85,8.85,0,0,1-.74.74,11.42,11.42,0,0,1-1.65,1.24,11.84,11.84,0,0,1-1.85,1h-.06c-.58.14-1.18.34-1.82.48a5.73,5.73,0,0,1-1,.13,3.3,3.3,0,0,1-.6-.06l-.23-.06h0l-.08,0h0l-.06,0-.11-.06a5.76,5.76,0,0,1-.86-.55c-.26-.2-.53-.39-.76-.61-.5-.42-.95-.85-1.39-1.29Z"/><path d="M26.18,35.05,43.6,54l12,13,3.95,4.28L61,72.84a.15.15,0,1,1-.21.2h0l-1.51-1.61-3.93-4.3-11.94-13-17.36-19a.07.07,0,0,1,0-.09A.07.07,0,0,1,26.18,35.05Z"/><polygon class="b" points="68.21 64.53 72.15 64.12 74.79 66.49 73.6 66.72 71.93 64.91 69.27 65.45 68.21 64.53"/><path d="M68.19,64.31l3.94-.38a.19.19,0,0,1,.15,0l2.62,2.4a.16.16,0,0,1,0,.23.16.16,0,0,1-.09.05l-1.19.22a.16.16,0,0,1-.14,0L71.83,65,72,65l-2.66.53a.12.12,0,0,1-.1,0l-1.05-.94,0,0a.15.15,0,0,1,0-.21A.15.15,0,0,1,68.19,64.31Zm.38.4.77.67-.09,0,2.65-.57a.13.13,0,0,1,.12,0l1.69,1.8-.14,0,1.19-.24-.08.28L72,64.26l.15,0Z"/><path d="M26.2,35,65.26,72a.22.22,0,0,1-.3.32h0L26.06,35.17A.1.1,0,1,1,26.2,35Z"/><path d="M34,26.72,72.91,64.38a.22.22,0,1,1-.31.32h0L33.83,26.86a.1.1,0,0,1,0-.14A.1.1,0,0,1,34,26.72Z"/><polygon class="b" points="65.01 71.85 65.4 72.24 72.04 64.72 71.65 64.33 65.01 71.85"/><path d="M65.15,71.78l.36.35H65.3L72,64.65v.14l-.39-.39h.15Zm-.18,0,6.61-7.54a.11.11,0,0,1,.15,0h0l.39.39a.1.1,0,0,1,0,.14l-6.61,7.54a.14.14,0,0,1-.2,0h0l-.4-.39a.06.06,0,0,1,0-.08Z"/><path d="M58.57,68l.47.48c.29.31.74.73,1.23,1.27,1,1.07,2.3,2.53,3.71,3.85.17.17.34.34.52.48s.24.14.14.12l.36,0a11,11,0,0,0,1.35-.26,8,8,0,0,0,1.22-.42,7,7,0,0,0,1-.52c.31-.17.55-.4.8-.56a3,3,0,0,0,.56-.51l.46-.48h0a0,0,0,0,1,0,0l-.43.52a3.06,3.06,0,0,1-.54.55,6.45,6.45,0,0,1-.79.61,7,7,0,0,1-1,.56,8.21,8.21,0,0,1-1.24.46,10.83,10.83,0,0,1-1.38.3l-.36,0c-.15,0-.23-.1-.34-.17s-.37-.32-.55-.48c-1.39-1.37-2.66-2.85-3.63-4L58.56,68a0,0,0,0,1,0,0Z"/><polygon class="b" points="60.97 72.51 64.91 72.1 67.83 74.75 66.9 75.09 64.69 72.89 61.35 73.35 60.97 72.51"/><path d="M60.95,72.29l3.94-.38A.19.19,0,0,1,65,72l2.9,2.67a.16.16,0,0,1,0,.23l-.07,0-.93.33a.16.16,0,0,1-.16,0L64.59,73l.11,0-3.34.43a.1.1,0,0,1-.11-.06l-.37-.84,0-.08a.12.12,0,0,1,.06-.17Zm.22.42.27.6-.11-.06,3.33-.48a.13.13,0,0,1,.11,0L67,75l-.16,0,.93-.34-.05.27-2.94-2.63.15,0Z"/></svg>