<svg xmlns="http://www.w3.org/2000/svg" viewBox="0 0 33.77 78.92"><defs><style>.a,.b{fill:#fff;}.b{stroke:#000;stroke-miterlimit:10;stroke-width:0.5px;}</style></defs><title>rear-3</title><path class="a" d="M25.51,71.89l7.07-1,1,3.62-.69.11-.92-3-6.14.76s-2,.38-.44-.77Z"/><path d="M25.53,71.69l7-1a.17.17,0,0,1,.18.12l1,3.62a.14.14,0,0,1-.1.18h0l-.69.11a.14.14,0,0,1-.16-.1l-.9-3,.14.09-4.07.48-2,.24a4.87,4.87,0,0,1-.52.06,1,1,0,0,1-.56-.09.25.25,0,0,1,0-.34,1,1,0,0,1,.18-.22,4.19,4.19,0,0,1,.4-.34.08.08,0,0,1,.12,0v0Zm-.1.22-.12-.35.13,0a3.32,3.32,0,0,0-.38.32c-.11.1-.22.28-.15.29a.89.89,0,0,0,.44.05,4.91,4.91,0,0,0,.5-.06l2-.26,4.06-.52a.13.13,0,0,1,.14.09l.94,3-.16-.1.69-.12-.11.18-1-3.61.18.12-7.06,1.07a.05.05,0,0,1-.06,0Z"/><path d="M22.65,74.48,9.12,33.41a.08.08,0,0,1,.05-.1.08.08,0,0,1,.11.05L23,74.36a.19.19,0,1,1-.36.12Z"/><path class="a" d="M22.83,74.42l.06.18.43,1.3s.58,2.57,2,2.56,6.05-.7,6.05-.7l2-3.37s-5.77,1.92-6.43-.1l-.86-2.66S25,67.91,23.45,68.49C23.45,68.49,19.85,67.85,22.83,74.42Z"/><path d="M23.31,74.26l.48,1.48v0h0a4.41,4.41,0,0,0,.89,1.9,1.12,1.12,0,0,0,.33.25.68.68,0,0,0,.36.05l1.19-.11L29,77.64l2.33-.3-.3.2,2.06-3.35.45.57a19.08,19.08,0,0,1-3.52.76,6.9,6.9,0,0,1-1.86,0,2.42,2.42,0,0,1-1-.38,1.28,1.28,0,0,1-.38-.42,1.88,1.88,0,0,1-.21-.48L26,72.52c-.18-.57-.34-1.13-.55-1.65a7.09,7.09,0,0,0-.79-1.49,2.19,2.19,0,0,0-.55-.54.74.74,0,0,0-.6-.09h0a.32.32,0,0,1-.14,0,1.5,1.5,0,0,0-.74.09,1.07,1.07,0,0,0-.54.47,1.76,1.76,0,0,0-.14.36c0,.13,0,.27-.06.4a3.75,3.75,0,0,0,0,.42,2.18,2.18,0,0,0,0,.43,5.28,5.28,0,0,0,.17.86,6.85,6.85,0,0,0,.25.85c.17.57.43,1.12.65,1.67Zm-.69.25c-.23-.57-.5-1.12-.69-1.71a7.21,7.21,0,0,1-.28-.88,5.68,5.68,0,0,1-.2-.92,2.57,2.57,0,0,1-.05-.47,4.61,4.61,0,0,1,0-.49c0-.16,0-.33.07-.49a2.15,2.15,0,0,1,.19-.49,1.58,1.58,0,0,1,.79-.72,2,2,0,0,1,1-.13h-.15a1.3,1.3,0,0,1,1.09.12,2.74,2.74,0,0,1,.72.68,7.79,7.79,0,0,1,.89,1.61c.24.57.41,1.14.6,1.69L27.22,74a1.24,1.24,0,0,0,.15.33c0,.1.14.15.21.22a1.77,1.77,0,0,0,.68.25,6.31,6.31,0,0,0,1.66,0A18.31,18.31,0,0,0,33.26,74a.39.39,0,0,1,.49.25.38.38,0,0,1,0,.32l-2,3.39a.42.42,0,0,1-.3.2L29,78.52l-2.37.26-1.19.13a1.64,1.64,0,0,1-.8-.12,2.08,2.08,0,0,1-.64-.44,3.92,3.92,0,0,1-.75-1.13A6.77,6.77,0,0,1,22.84,76l0,0-.5-1.47Z"/><path d="M.22.08,11,32.1a.25.25,0,1,1-.47.16h0L0,.15A.11.11,0,1,1,.22.08Z"/><path class="b" d="M9.2,33.39a3.44,3.44,0,0,1,.93-.61c.52-.21.53-.47.94-.55s.36.18,1,.17.81.1,1.25.11c0,0,.48.13-.1.24l-3.43.74S8.88,33.64,9.2,33.39Z"/><path d="M26,71.66,13.39,32.71a.06.06,0,0,1,0-.07.05.05,0,0,1,.07,0l12.71,38.9a.13.13,0,0,1-.08.16.13.13,0,0,1-.16-.08Z"/><path d="M13.49,32.67,32.61,70.9a.13.13,0,0,1-.23.11h0l-19-38.29a.06.06,0,0,1,0-.07A.06.06,0,0,1,13.49,32.67Z"/><path d="M23.09,71.2s0,.46.19,1.14A11.9,11.9,0,0,0,24,74.75a6.45,6.45,0,0,0,.67,1.15,3.92,3.92,0,0,0,.39.46,2.72,2.72,0,0,0,.41.35,2.61,2.61,0,0,0,.39.23,1.21,1.21,0,0,0,.33.13l.31.09a0,0,0,0,1,0,0h0l-.32,0a1,1,0,0,1-.36-.08,2.29,2.29,0,0,1-.45-.2,3.1,3.1,0,0,1-.46-.35,2.87,2.87,0,0,1-.42-.49,5,5,0,0,1-.65-1.22,11.09,11.09,0,0,1-.65-2.48c-.11-.69-.13-1.15-.13-1.15h0Z"/><path class="a" d="M29.51,73.85c-.05.06,0,.15.2.22h0c.16.07.33.07.38,0l2.48-2.65c.05-.06,0-.15-.2-.22h0c-.16-.06-.33-.07-.39,0Z"/><path d="M29.69,73.76l0,.13v0s0,0,0,0a0,0,0,0,0,0-.05.86.86,0,0,0,.14.07c.14,0,.19.07.26,0l.38-.4,1-1,.54-.57c.18-.18.4-.43.54-.55s-.09-.1-.2-.12a.4.4,0,0,0-.16,0h0s0,0-.06.06l-.54.57-1,1Zm-.32.15.09-.1.92-1,.94-1,.53-.58a.46.46,0,0,1,.08-.08.24.24,0,0,1,.15-.05.62.62,0,0,1,.24,0,.91.91,0,0,1,.21.09.44.44,0,0,1,.1.1.3.3,0,0,1,0,.12v0c-.23.28-.38.42-.57.64l-.53.58-.94,1-.38.41a.34.34,0,0,1-.13.1.39.39,0,0,1-.17,0,.76.76,0,0,1-.23,0A.53.53,0,0,1,29.4,74,.28.28,0,0,1,29.37,73.91Z"/><path class="a" d="M22.62,74.7l7.76-1.29,1,4.17-.76.14-.92-3.5-6.74,1s-2.18.46-.45-.89Z"/><path d="M22.64,74.5l7.7-1.26a.17.17,0,0,1,.19.12l1,4.18a.14.14,0,0,1-.11.17h0l-.76.14a.14.14,0,0,1-.16-.1l-.91-3.5.14.09L25.22,75,23,75.27a4.34,4.34,0,0,1-.57.07.81.81,0,0,1-.61-.14.32.32,0,0,1,0-.37A1.66,1.66,0,0,1,22,74.6a4.57,4.57,0,0,1,.44-.38.09.09,0,0,1,.12,0v0Zm-.11.22-.12-.41.14,0a4.56,4.56,0,0,0-.41.37c-.12.11-.25.32-.2.36s.3.08.46.07a4.28,4.28,0,0,0,.55-.08l2.24-.33,4.48-.65a.13.13,0,0,1,.14.09l.94,3.5-.17-.1.76-.15-.11.17-1-4.17.19.12-7.76,1.32a.07.07,0,0,1-.08,0Z"/><path d="M9.27,33.35l21,40a.19.19,0,0,1-.33.17h0L9.13,33.42a.08.08,0,0,1,0-.11A.08.08,0,0,1,9.27,33.35Z"/></svg>